<?xml version="1.0" standalone="yes"?>
<!-- SVG graphic -->
<svg xmlns='http://www.w3.org/2000/svg' xmlns:xlink='http://www.w3.org/1999/xlink'
 version="1.1">
<rect x="0" y="0" width="6" height="200" stroke="black" stroke-width="1" fill="blue" opacity="1" tooltip="enable"><title>(0,1732)</title></rect><rect x="6" y="20.4388" width="6" height="179.561" stroke="black" stroke-width="1" fill="blue" opacity="1" tooltip="enable"><title>(0.00134328,1555)</title></rect><rect x="12" y="91.5704" width="6" height="108.43" stroke="black" stroke-width="1" fill="blue" opacity="1" tooltip="enable"><title>(0.00268657,939)</title></rect><rect x="18" y="162.587" width="6" height="37.4134" stroke="black" stroke-width="1" fill="blue" opacity="1" tooltip="enable"><title>(0.00402985,324)</title></rect><rect x="24" y="184.296" width="6" height="15.7044" stroke="black" stroke-width="1" fill="blue" opacity="1" tooltip="enable"><title>(0.00537313,136)</title></rect><rect x="30" y="185.912" width="6" height="14.0878" stroke="black" stroke-width="1" fill="blue" opacity="1" tooltip="enable"><title>(0.00671641,122)</title></rect><rect x="36" y="182.448" width="6" height="17.552" stroke="black" stroke-width="1" fill="blue" opacity="1" tooltip="enable"><title>(0.0080597,152)</title></rect><rect x="42" y="181.062" width="6" height="18.9376" stroke="black" stroke-width="1" fill="blue" opacity="1" tooltip="enable"><title>(0.00940298,164)</title></rect><rect x="48" y="182.679" width="6" height="17.321" stroke="black" stroke-width="1" fill="blue" opacity="1" tooltip="enable"><title>(0.0107463,150)</title></rect><rect x="54" y="186.143" width="6" height="13.8568" stroke="black" stroke-width="1" fill="blue" opacity="1" tooltip="enable"><title>(0.0120895,120)</title></rect><rect x="60" y="181.64" width="6" height="18.3603" stroke="black" stroke-width="1" fill="blue" opacity="1" tooltip="enable"><title>(0.0134328,159)</title></rect><rect x="66" y="184.642" width="6" height="15.358" stroke="black" stroke-width="1" fill="blue" opacity="1" tooltip="enable"><title>(0.0147761,133)</title></rect><rect x="72" y="183.834" width="6" height="16.1663" stroke="black" stroke-width="1" fill="blue" opacity="1" tooltip="enable"><title>(0.0161194,140)</title></rect><rect x="78" y="185.912" width="6" height="14.0878" stroke="black" stroke-width="1" fill="blue" opacity="1" tooltip="enable"><title>(0.0174627,122)</title></rect><rect x="84" y="186.605" width="6" height="13.3949" stroke="black" stroke-width="1" fill="blue" opacity="1" tooltip="enable"><title>(0.018806,116)</title></rect><rect x="90" y="185.681" width="6" height="14.3187" stroke="black" stroke-width="1" fill="blue" opacity="1" tooltip="enable"><title>(0.0201492,124)</title></rect><rect x="96" y="183.141" width="6" height="16.8591" stroke="black" stroke-width="1" fill="blue" opacity="1" tooltip="enable"><title>(0.0214925,146)</title></rect><rect x="102" y="183.603" width="6" height="16.3972" stroke="black" stroke-width="1" fill="blue" opacity="1" tooltip="enable"><title>(0.0228358,142)</title></rect><rect x="108" y="183.141" width="6" height="16.8591" stroke="black" stroke-width="1" fill="blue" opacity="1" tooltip="enable"><title>(0.0241791,146)</title></rect><rect x="114" y="185.681" width="6" height="14.3187" stroke="black" stroke-width="1" fill="blue" opacity="1" tooltip="enable"><title>(0.0255224,124)</title></rect><rect x="120" y="186.721" width="6" height="13.2794" stroke="black" stroke-width="1" fill="blue" opacity="1" tooltip="enable"><title>(0.0268657,115)</title></rect><rect x="126" y="187.991" width="6" height="12.0092" stroke="black" stroke-width="1" fill="blue" opacity="1" tooltip="enable"><title>(0.0282089,104)</title></rect><rect x="132" y="186.49" width="6" height="13.5104" stroke="black" stroke-width="1" fill="blue" opacity="1" tooltip="enable"><title>(0.0295522,117)</title></rect><rect x="138" y="188.915" width="6" height="11.0855" stroke="black" stroke-width="1" fill="blue" opacity="1" tooltip="enable"><title>(0.0308955,96)</title></rect><rect x="144" y="187.76" width="6" height="12.2402" stroke="black" stroke-width="1" fill="blue" opacity="1" tooltip="enable"><title>(0.0322388,106)</title></rect><rect x="150" y="191.801" width="6" height="8.19861" stroke="black" stroke-width="1" fill="blue" opacity="1" tooltip="enable"><title>(0.0335821,71)</title></rect><rect x="156" y="187.644" width="6" height="12.3557" stroke="black" stroke-width="1" fill="blue" opacity="1" tooltip="enable"><title>(0.0349253,107)</title></rect><rect x="162" y="191.224" width="6" height="8.77598" stroke="black" stroke-width="1" fill="blue" opacity="1" tooltip="enable"><title>(0.0362686,76)</title></rect><rect x="168" y="192.725" width="6" height="7.27483" stroke="black" stroke-width="1" fill="blue" opacity="1" tooltip="enable"><title>(0.0376119,63)</title></rect><rect x="174" y="194.342" width="6" height="5.6582" stroke="black" stroke-width="1" fill="blue" opacity="1" tooltip="enable"><title>(0.0389552,49)</title></rect><rect x="180" y="193.995" width="6" height="6.00462" stroke="black" stroke-width="1" fill="blue" opacity="1" tooltip="enable"><title>(0.0402985,52)</title></rect><rect x="186" y="196.767" width="6" height="3.23326" stroke="black" stroke-width="1" fill="blue" opacity="1" tooltip="enable"><title>(0.0416418,28)</title></rect><rect x="192" y="194.919" width="6" height="5.08083" stroke="black" stroke-width="1" fill="blue" opacity="1" tooltip="enable"><title>(0.042985,44)</title></rect><rect x="198" y="195.843" width="6" height="4.15704" stroke="black" stroke-width="1" fill="blue" opacity="1" tooltip="enable"><title>(0.0443283,36)</title></rect><rect x="204" y="196.42" width="6" height="3.57968" stroke="black" stroke-width="1" fill="blue" opacity="1" tooltip="enable"><title>(0.0456716,31)</title></rect><rect x="210" y="198.037" width="6" height="1.96305" stroke="black" stroke-width="1" fill="blue" opacity="1" tooltip="enable"><title>(0.0470149,17)</title></rect><rect x="216" y="197.691" width="6" height="2.30947" stroke="black" stroke-width="1" fill="blue" opacity="1" tooltip="enable"><title>(0.0483582,20)</title></rect><rect x="222" y="197.113" width="6" height="2.88684" stroke="black" stroke-width="1" fill="blue" opacity="1" tooltip="enable"><title>(0.0497015,25)</title></rect><rect x="228" y="196.651" width="6" height="3.34873" stroke="black" stroke-width="1" fill="blue" opacity="1" tooltip="enable"><title>(0.0510447,29)</title></rect><rect x="234" y="198.383" width="6" height="1.61663" stroke="black" stroke-width="1" fill="blue" opacity="1" tooltip="enable"><title>(0.052388,14)</title></rect><rect x="240" y="199.307" width="6" height="0.692841" stroke="black" stroke-width="1" fill="blue" opacity="1" tooltip="enable"><title>(0.0537313,6)</title></rect><rect x="246" y="198.961" width="6" height="1.03926" stroke="black" stroke-width="1" fill="blue" opacity="1" tooltip="enable"><title>(0.0550746,9)</title></rect><rect x="252" y="199.423" width="6" height="0.577367" stroke="black" stroke-width="1" fill="blue" opacity="1" tooltip="enable"><title>(0.0564179,5)</title></rect><rect x="258" y="199.076" width="6" height="0.923788" stroke="black" stroke-width="1" fill="blue" opacity="1" tooltip="enable"><title>(0.0577612,8)</title></rect><rect x="264" y="199.538" width="6" height="0.461894" stroke="black" stroke-width="1" fill="blue" opacity="1" tooltip="enable"><title>(0.0591044,4)</title></rect><rect x="270" y="199.076" width="6" height="0.923788" stroke="black" stroke-width="1" fill="blue" opacity="1" tooltip="enable"><title>(0.0604477,8)</title></rect><rect x="276" y="199.769" width="6" height="0.230947" stroke="black" stroke-width="1" fill="blue" opacity="1" tooltip="enable"><title>(0.061791,2)</title></rect><rect x="282" y="200" width="6" height="0" stroke="black" stroke-width="1" fill="blue" opacity="1" tooltip="enable"><title>(0.0631343,0)</title></rect><rect x="288" y="199.769" width="6" height="0.230947" stroke="black" stroke-width="1" fill="blue" opacity="1" tooltip="enable"><title>(0.0644776,2)</title></rect><rect x="294" y="200" width="6" height="0" stroke="black" stroke-width="1" fill="blue" opacity="1" tooltip="enable"><title>(0.0658209,0)</title></rect><rect x="300" y="200" width="6" height="0" stroke="black" stroke-width="1" fill="blue" opacity="1" tooltip="enable"><title>(0.0671641,0)</title></rect><rect x="306" y="200" width="6" height="0" stroke="black" stroke-width="1" fill="blue" opacity="1" tooltip="enable"><title>(0.0685074,0)</title></rect><rect x="312" y="200" width="6" height="0" stroke="black" stroke-width="1" fill="blue" opacity="1" tooltip="enable"><title>(0.0698507,0)</title></rect><rect x="318" y="200" width="6" height="0" stroke="black" stroke-width="1" fill="blue" opacity="1" tooltip="enable"><title>(0.071194,0)</title></rect><rect x="324" y="200" width="6" height="0" stroke="black" stroke-width="1" fill="blue" opacity="1" tooltip="enable"><title>(0.0725373,0)</title></rect><rect x="330" y="200" width="6" height="0" stroke="black" stroke-width="1" fill="blue" opacity="1" tooltip="enable"><title>(0.0738805,0)</title></rect><rect x="336" y="200" width="6" height="0" stroke="black" stroke-width="1" fill="blue" opacity="1" tooltip="enable"><title>(0.0752238,0)</title></rect><rect x="342" y="200" width="6" height="0" stroke="black" stroke-width="1" fill="blue" opacity="1" tooltip="enable"><title>(0.0765671,0)</title></rect><rect x="348" y="200" width="6" height="0" stroke="black" stroke-width="1" fill="blue" opacity="1" tooltip="enable"><title>(0.0779104,0)</title></rect><rect x="354" y="200" width="6" height="0" stroke="black" stroke-width="1" fill="blue" opacity="1" tooltip="enable"><title>(0.0792537,0)</title></rect><rect x="360" y="200" width="6" height="0" stroke="black" stroke-width="1" fill="blue" opacity="1" tooltip="enable"><title>(0.080597,0)</title></rect><rect x="366" y="200" width="6" height="0" stroke="black" stroke-width="1" fill="blue" opacity="1" tooltip="enable"><title>(0.0819402,0)</title></rect><rect x="372" y="200" width="6" height="0" stroke="black" stroke-width="1" fill="blue" opacity="1" tooltip="enable"><title>(0.0832835,0)</title></rect><rect x="378" y="200" width="6" height="0" stroke="black" stroke-width="1" fill="blue" opacity="1" tooltip="enable"><title>(0.0846268,0)</title></rect><rect x="384" y="200" width="6" height="0" stroke="black" stroke-width="1" fill="blue" opacity="1" tooltip="enable"><title>(0.0859701,0)</title></rect><rect x="390" y="200" width="6" height="0" stroke="black" stroke-width="1" fill="blue" opacity="1" tooltip="enable"><title>(0.0873134,0)</title></rect><rect x="396" y="200" width="6" height="0" stroke="black" stroke-width="1" fill="blue" opacity="1" tooltip="enable"><title>(0.0886567,0)</title></rect><rect x="402" y="200" width="6" height="0" stroke="black" stroke-width="1" fill="blue" opacity="1" tooltip="enable"><title>(0.0899999,0)</title></rect><rect x="408" y="200" width="6" height="0" stroke="black" stroke-width="1" fill="blue" opacity="1" tooltip="enable"><title>(0.0913432,0)</title></rect><rect x="414" y="200" width="6" height="0" stroke="black" stroke-width="1" fill="blue" opacity="1" tooltip="enable"><title>(0.0926865,0)</title></rect><rect x="420" y="200" width="6" height="0" stroke="black" stroke-width="1" fill="blue" opacity="1" tooltip="enable"><title>(0.0940298,0)</title></rect><rect x="426" y="200" width="6" height="0" stroke="black" stroke-width="1" fill="blue" opacity="1" tooltip="enable"><title>(0.0953731,0)</title></rect><rect x="432" y="200" width="6" height="0" stroke="black" stroke-width="1" fill="blue" opacity="1" tooltip="enable"><title>(0.0967164,0)</title></rect><rect x="438" y="200" width="6" height="0" stroke="black" stroke-width="1" fill="blue" opacity="1" tooltip="enable"><title>(0.0980596,0)</title></rect><rect x="444" y="200" width="6" height="0" stroke="black" stroke-width="1" fill="blue" opacity="1" tooltip="enable"><title>(0.0994029,0)</title></rect><rect x="450" y="200" width="6" height="0" stroke="black" stroke-width="1" fill="blue" opacity="1" tooltip="enable"><title>(0.100746,0)</title></rect><rect x="456" y="200" width="6" height="0" stroke="black" stroke-width="1" fill="blue" opacity="1" tooltip="enable"><title>(0.102089,0)</title></rect><rect x="462" y="200" width="6" height="0" stroke="black" stroke-width="1" fill="blue" opacity="1" tooltip="enable"><title>(0.103433,0)</title></rect><rect x="468" y="200" width="6" height="0" stroke="black" stroke-width="1" fill="blue" opacity="1" tooltip="enable"><title>(0.104776,0)</title></rect><rect x="474" y="200" width="6" height="0" stroke="black" stroke-width="1" fill="blue" opacity="1" tooltip="enable"><title>(0.106119,0)</title></rect><rect x="480" y="200" width="6" height="0" stroke="black" stroke-width="1" fill="blue" opacity="1" tooltip="enable"><title>(0.107463,0)</title></rect><rect x="486" y="199.769" width="6" height="0.230947" stroke="black" stroke-width="1" fill="blue" opacity="1" tooltip="enable"><title>(0.108806,2)</title></rect><rect x="492" y="200" width="6" height="0" stroke="black" stroke-width="1" fill="blue" opacity="1" tooltip="enable"><title>(0.110149,0)</title></rect><rect x="498" y="200" width="6" height="0" stroke="black" stroke-width="1" fill="blue" opacity="1" tooltip="enable"><title>(0.111492,0)</title></rect><rect x="504" y="200" width="6" height="0" stroke="black" stroke-width="1" fill="blue" opacity="1" tooltip="enable"><title>(0.112836,0)</title></rect><rect x="510" y="200" width="6" height="0" stroke="black" stroke-width="1" fill="blue" opacity="1" tooltip="enable"><title>(0.114179,0)</title></rect><rect x="516" y="200" width="6" height="0" stroke="black" stroke-width="1" fill="blue" opacity="1" tooltip="enable"><title>(0.115522,0)</title></rect><rect x="522" y="200" width="6" height="0" stroke="black" stroke-width="1" fill="blue" opacity="1" tooltip="enable"><title>(0.116866,0)</title></rect><rect x="528" y="200" width="6" height="0" stroke="black" stroke-width="1" fill="blue" opacity="1" tooltip="enable"><title>(0.118209,0)</title></rect><rect x="534" y="200" width="6" height="0" stroke="black" stroke-width="1" fill="blue" opacity="1" tooltip="enable"><title>(0.119552,0)</title></rect><rect x="540" y="199.885" width="6" height="0.115473" stroke="black" stroke-width="1" fill="blue" opacity="1" tooltip="enable"><title>(0.120895,1)</title></rect><rect x="546" y="199.885" width="6" height="0.115473" stroke="black" stroke-width="1" fill="blue" opacity="1" tooltip="enable"><title>(0.122239,1)</title></rect><rect x="552" y="200" width="6" height="0" stroke="black" stroke-width="1" fill="blue" opacity="1" tooltip="enable"><title>(0.123582,0)</title></rect><rect x="558" y="199.769" width="6" height="0.230947" stroke="black" stroke-width="1" fill="blue" opacity="1" tooltip="enable"><title>(0.124925,2)</title></rect><rect x="564" y="200" width="6" height="0" stroke="black" stroke-width="1" fill="blue" opacity="1" tooltip="enable"><title>(0.126269,0)</title></rect><rect x="570" y="200" width="6" height="0" stroke="black" stroke-width="1" fill="blue" opacity="1" tooltip="enable"><title>(0.127612,0)</title></rect><rect x="576" y="199.885" width="6" height="0.115473" stroke="black" stroke-width="1" fill="blue" opacity="1" tooltip="enable"><title>(0.128955,1)</title></rect><rect x="582" y="199.885" width="6" height="0.115473" stroke="black" stroke-width="1" fill="blue" opacity="1" tooltip="enable"><title>(0.130298,1)</title></rect><rect x="588" y="200" width="6" height="0" stroke="black" stroke-width="1" fill="blue" opacity="1" tooltip="enable"><title>(0.131642,0)</title></rect><rect x="594" y="199.885" width="6" height="0.115473" stroke="black" stroke-width="1" fill="blue" opacity="1" tooltip="enable"><title>(0.132985,1)</title></rect><text x="30" y="240" font-size="20" fill="black">0</text>
<text x="600" y="240" font-size="20" fill="black">0.134328</text>
<polyline points="0,220,600,220" stroke="black" stroke-width="1" fill="none" opacity="1"/>
<text x="720" y="20" font-size="20" fill="black">1732</text>
<text x="720" y="200" font-size="20" fill="black">0</text>
<polyline points="660,0,660,200" stroke="black" stroke-width="1" fill="none" opacity="1"/>
</svg>