<?xml version="1.0" standalone="yes"?>
<!-- SVG graphic -->
<svg xmlns='http://www.w3.org/2000/svg' xmlns:xlink='http://www.w3.org/1999/xlink'
 version="1.1">
<rect x="0" y="0" width="6" height="200" stroke="black" stroke-width="1" fill="blue" opacity="1" tooltip="enable"><title>(0,1372)</title></rect><rect x="6" y="28.4257" width="6" height="171.574" stroke="black" stroke-width="1" fill="blue" opacity="1" tooltip="enable"><title>(0.000826748,1177)</title></rect><rect x="12" y="88.7755" width="6" height="111.224" stroke="black" stroke-width="1" fill="blue" opacity="1" tooltip="enable"><title>(0.0016535,763)</title></rect><rect x="18" y="122.012" width="6" height="77.9883" stroke="black" stroke-width="1" fill="blue" opacity="1" tooltip="enable"><title>(0.00248025,535)</title></rect><rect x="24" y="134.402" width="6" height="65.5977" stroke="black" stroke-width="1" fill="blue" opacity="1" tooltip="enable"><title>(0.00330699,450)</title></rect><rect x="30" y="152.041" width="6" height="47.9592" stroke="black" stroke-width="1" fill="blue" opacity="1" tooltip="enable"><title>(0.00413374,329)</title></rect><rect x="36" y="162.391" width="6" height="37.6093" stroke="black" stroke-width="1" fill="blue" opacity="1" tooltip="enable"><title>(0.00496049,258)</title></rect><rect x="42" y="177.843" width="6" height="22.1574" stroke="black" stroke-width="1" fill="blue" opacity="1" tooltip="enable"><title>(0.00578724,152)</title></rect><rect x="48" y="182.945" width="6" height="17.0554" stroke="black" stroke-width="1" fill="blue" opacity="1" tooltip="enable"><title>(0.00661399,117)</title></rect><rect x="54" y="180.029" width="6" height="19.9708" stroke="black" stroke-width="1" fill="blue" opacity="1" tooltip="enable"><title>(0.00744074,137)</title></rect><rect x="60" y="182.799" width="6" height="17.2012" stroke="black" stroke-width="1" fill="blue" opacity="1" tooltip="enable"><title>(0.00826748,118)</title></rect><rect x="66" y="183.382" width="6" height="16.6181" stroke="black" stroke-width="1" fill="blue" opacity="1" tooltip="enable"><title>(0.00909423,114)</title></rect><rect x="72" y="179.446" width="6" height="20.5539" stroke="black" stroke-width="1" fill="blue" opacity="1" tooltip="enable"><title>(0.00992098,141)</title></rect><rect x="78" y="183.965" width="6" height="16.035" stroke="black" stroke-width="1" fill="blue" opacity="1" tooltip="enable"><title>(0.0107477,110)</title></rect><rect x="84" y="186.735" width="6" height="13.2653" stroke="black" stroke-width="1" fill="blue" opacity="1" tooltip="enable"><title>(0.0115745,91)</title></rect><rect x="90" y="186.006" width="6" height="13.9942" stroke="black" stroke-width="1" fill="blue" opacity="1" tooltip="enable"><title>(0.0124012,96)</title></rect><rect x="96" y="185.131" width="6" height="14.8688" stroke="black" stroke-width="1" fill="blue" opacity="1" tooltip="enable"><title>(0.013228,102)</title></rect><rect x="102" y="187.464" width="6" height="12.5364" stroke="black" stroke-width="1" fill="blue" opacity="1" tooltip="enable"><title>(0.0140547,86)</title></rect><rect x="108" y="184.985" width="6" height="15.0146" stroke="black" stroke-width="1" fill="blue" opacity="1" tooltip="enable"><title>(0.0148815,103)</title></rect><rect x="114" y="188.776" width="6" height="11.2245" stroke="black" stroke-width="1" fill="blue" opacity="1" tooltip="enable"><title>(0.0157082,77)</title></rect><rect x="120" y="184.548" width="6" height="15.4519" stroke="black" stroke-width="1" fill="blue" opacity="1" tooltip="enable"><title>(0.016535,106)</title></rect><rect x="126" y="191.254" width="6" height="8.74636" stroke="black" stroke-width="1" fill="blue" opacity="1" tooltip="enable"><title>(0.0173617,60)</title></rect><rect x="132" y="190.233" width="6" height="9.76676" stroke="black" stroke-width="1" fill="blue" opacity="1" tooltip="enable"><title>(0.0181885,67)</title></rect><rect x="138" y="191.691" width="6" height="8.30904" stroke="black" stroke-width="1" fill="blue" opacity="1" tooltip="enable"><title>(0.0190152,57)</title></rect><rect x="144" y="190.816" width="6" height="9.18367" stroke="black" stroke-width="1" fill="blue" opacity="1" tooltip="enable"><title>(0.019842,63)</title></rect><rect x="150" y="194.315" width="6" height="5.68513" stroke="black" stroke-width="1" fill="blue" opacity="1" tooltip="enable"><title>(0.0206687,39)</title></rect><rect x="156" y="193.149" width="6" height="6.85131" stroke="black" stroke-width="1" fill="blue" opacity="1" tooltip="enable"><title>(0.0214955,47)</title></rect><rect x="162" y="192.42" width="6" height="7.58017" stroke="black" stroke-width="1" fill="blue" opacity="1" tooltip="enable"><title>(0.0223222,52)</title></rect><rect x="168" y="193.44" width="6" height="6.55977" stroke="black" stroke-width="1" fill="blue" opacity="1" tooltip="enable"><title>(0.023149,45)</title></rect><rect x="174" y="192.566" width="6" height="7.4344" stroke="black" stroke-width="1" fill="blue" opacity="1" tooltip="enable"><title>(0.0239757,51)</title></rect><rect x="180" y="192.857" width="6" height="7.14286" stroke="black" stroke-width="1" fill="blue" opacity="1" tooltip="enable"><title>(0.0248025,49)</title></rect><rect x="186" y="194.169" width="6" height="5.8309" stroke="black" stroke-width="1" fill="blue" opacity="1" tooltip="enable"><title>(0.0256292,40)</title></rect><rect x="192" y="195.189" width="6" height="4.8105" stroke="black" stroke-width="1" fill="blue" opacity="1" tooltip="enable"><title>(0.0264559,33)</title></rect><rect x="198" y="192.857" width="6" height="7.14286" stroke="black" stroke-width="1" fill="blue" opacity="1" tooltip="enable"><title>(0.0272827,49)</title></rect><rect x="204" y="193.732" width="6" height="6.26822" stroke="black" stroke-width="1" fill="blue" opacity="1" tooltip="enable"><title>(0.0281094,43)</title></rect><rect x="210" y="196.064" width="6" height="3.93586" stroke="black" stroke-width="1" fill="blue" opacity="1" tooltip="enable"><title>(0.0289362,27)</title></rect><rect x="216" y="196.501" width="6" height="3.49854" stroke="black" stroke-width="1" fill="blue" opacity="1" tooltip="enable"><title>(0.0297629,24)</title></rect><rect x="222" y="196.064" width="6" height="3.93586" stroke="black" stroke-width="1" fill="blue" opacity="1" tooltip="enable"><title>(0.0305897,27)</title></rect><rect x="228" y="195.773" width="6" height="4.22741" stroke="black" stroke-width="1" fill="blue" opacity="1" tooltip="enable"><title>(0.0314164,29)</title></rect><rect x="234" y="196.356" width="6" height="3.64431" stroke="black" stroke-width="1" fill="blue" opacity="1" tooltip="enable"><title>(0.0322432,25)</title></rect><rect x="240" y="196.647" width="6" height="3.35277" stroke="black" stroke-width="1" fill="blue" opacity="1" tooltip="enable"><title>(0.0330699,23)</title></rect><rect x="246" y="197.522" width="6" height="2.47813" stroke="black" stroke-width="1" fill="blue" opacity="1" tooltip="enable"><title>(0.0338967,17)</title></rect><rect x="252" y="194.752" width="6" height="5.24781" stroke="black" stroke-width="1" fill="blue" opacity="1" tooltip="enable"><title>(0.0347234,36)</title></rect><rect x="258" y="195.918" width="6" height="4.08163" stroke="black" stroke-width="1" fill="blue" opacity="1" tooltip="enable"><title>(0.0355502,28)</title></rect><rect x="264" y="194.023" width="6" height="5.97668" stroke="black" stroke-width="1" fill="blue" opacity="1" tooltip="enable"><title>(0.0363769,41)</title></rect><rect x="270" y="194.169" width="6" height="5.8309" stroke="black" stroke-width="1" fill="blue" opacity="1" tooltip="enable"><title>(0.0372037,40)</title></rect><rect x="276" y="195.044" width="6" height="4.95627" stroke="black" stroke-width="1" fill="blue" opacity="1" tooltip="enable"><title>(0.0380304,34)</title></rect><rect x="282" y="196.647" width="6" height="3.35277" stroke="black" stroke-width="1" fill="blue" opacity="1" tooltip="enable"><title>(0.0388572,23)</title></rect><rect x="288" y="194.752" width="6" height="5.24781" stroke="black" stroke-width="1" fill="blue" opacity="1" tooltip="enable"><title>(0.0396839,36)</title></rect><rect x="294" y="195.773" width="6" height="4.22741" stroke="black" stroke-width="1" fill="blue" opacity="1" tooltip="enable"><title>(0.0405107,29)</title></rect><rect x="300" y="198.396" width="6" height="1.6035" stroke="black" stroke-width="1" fill="blue" opacity="1" tooltip="enable"><title>(0.0413374,11)</title></rect><rect x="306" y="195.044" width="6" height="4.95627" stroke="black" stroke-width="1" fill="blue" opacity="1" tooltip="enable"><title>(0.0421642,34)</title></rect><rect x="312" y="195.481" width="6" height="4.51895" stroke="black" stroke-width="1" fill="blue" opacity="1" tooltip="enable"><title>(0.0429909,31)</title></rect><rect x="318" y="196.21" width="6" height="3.79009" stroke="black" stroke-width="1" fill="blue" opacity="1" tooltip="enable"><title>(0.0438177,26)</title></rect><rect x="324" y="199.417" width="6" height="0.58309" stroke="black" stroke-width="1" fill="blue" opacity="1" tooltip="enable"><title>(0.0446444,4)</title></rect><rect x="330" y="196.21" width="6" height="3.79009" stroke="black" stroke-width="1" fill="blue" opacity="1" tooltip="enable"><title>(0.0454712,26)</title></rect><rect x="336" y="196.647" width="6" height="3.35277" stroke="black" stroke-width="1" fill="blue" opacity="1" tooltip="enable"><title>(0.0462979,23)</title></rect><rect x="342" y="195.773" width="6" height="4.22741" stroke="black" stroke-width="1" fill="blue" opacity="1" tooltip="enable"><title>(0.0471247,29)</title></rect><rect x="348" y="197.376" width="6" height="2.62391" stroke="black" stroke-width="1" fill="blue" opacity="1" tooltip="enable"><title>(0.0479514,18)</title></rect><rect x="354" y="198.542" width="6" height="1.45773" stroke="black" stroke-width="1" fill="blue" opacity="1" tooltip="enable"><title>(0.0487782,10)</title></rect><rect x="360" y="197.085" width="6" height="2.91545" stroke="black" stroke-width="1" fill="blue" opacity="1" tooltip="enable"><title>(0.0496049,20)</title></rect><rect x="366" y="198.834" width="6" height="1.16618" stroke="black" stroke-width="1" fill="blue" opacity="1" tooltip="enable"><title>(0.0504317,8)</title></rect><rect x="372" y="196.501" width="6" height="3.49854" stroke="black" stroke-width="1" fill="blue" opacity="1" tooltip="enable"><title>(0.0512584,24)</title></rect><rect x="378" y="197.522" width="6" height="2.47813" stroke="black" stroke-width="1" fill="blue" opacity="1" tooltip="enable"><title>(0.0520851,17)</title></rect><rect x="384" y="198.251" width="6" height="1.74927" stroke="black" stroke-width="1" fill="blue" opacity="1" tooltip="enable"><title>(0.0529119,12)</title></rect><rect x="390" y="197.813" width="6" height="2.18659" stroke="black" stroke-width="1" fill="blue" opacity="1" tooltip="enable"><title>(0.0537386,15)</title></rect><rect x="396" y="198.834" width="6" height="1.16618" stroke="black" stroke-width="1" fill="blue" opacity="1" tooltip="enable"><title>(0.0545654,8)</title></rect><rect x="402" y="197.813" width="6" height="2.18659" stroke="black" stroke-width="1" fill="blue" opacity="1" tooltip="enable"><title>(0.0553921,15)</title></rect><rect x="408" y="197.813" width="6" height="2.18659" stroke="black" stroke-width="1" fill="blue" opacity="1" tooltip="enable"><title>(0.0562189,15)</title></rect><rect x="414" y="198.105" width="6" height="1.89504" stroke="black" stroke-width="1" fill="blue" opacity="1" tooltip="enable"><title>(0.0570456,13)</title></rect><rect x="420" y="199.271" width="6" height="0.728863" stroke="black" stroke-width="1" fill="blue" opacity="1" tooltip="enable"><title>(0.0578724,5)</title></rect><rect x="426" y="198.542" width="6" height="1.45773" stroke="black" stroke-width="1" fill="blue" opacity="1" tooltip="enable"><title>(0.0586991,10)</title></rect><rect x="432" y="199.708" width="6" height="0.291545" stroke="black" stroke-width="1" fill="blue" opacity="1" tooltip="enable"><title>(0.0595259,2)</title></rect><rect x="438" y="197.959" width="6" height="2.04082" stroke="black" stroke-width="1" fill="blue" opacity="1" tooltip="enable"><title>(0.0603526,14)</title></rect><rect x="444" y="199.563" width="6" height="0.437318" stroke="black" stroke-width="1" fill="blue" opacity="1" tooltip="enable"><title>(0.0611794,3)</title></rect><rect x="450" y="199.854" width="6" height="0.145773" stroke="black" stroke-width="1" fill="blue" opacity="1" tooltip="enable"><title>(0.0620061,1)</title></rect><rect x="456" y="199.271" width="6" height="0.728863" stroke="black" stroke-width="1" fill="blue" opacity="1" tooltip="enable"><title>(0.0628329,5)</title></rect><rect x="462" y="198.98" width="6" height="1.02041" stroke="black" stroke-width="1" fill="blue" opacity="1" tooltip="enable"><title>(0.0636596,7)</title></rect><rect x="468" y="199.417" width="6" height="0.58309" stroke="black" stroke-width="1" fill="blue" opacity="1" tooltip="enable"><title>(0.0644864,4)</title></rect><rect x="474" y="200" width="6" height="0" stroke="black" stroke-width="1" fill="blue" opacity="1" tooltip="enable"><title>(0.0653131,0)</title></rect><rect x="480" y="199.417" width="6" height="0.58309" stroke="black" stroke-width="1" fill="blue" opacity="1" tooltip="enable"><title>(0.0661399,4)</title></rect><rect x="486" y="200" width="6" height="0" stroke="black" stroke-width="1" fill="blue" opacity="1" tooltip="enable"><title>(0.0669666,0)</title></rect><rect x="492" y="199.708" width="6" height="0.291545" stroke="black" stroke-width="1" fill="blue" opacity="1" tooltip="enable"><title>(0.0677934,2)</title></rect><rect x="498" y="199.708" width="6" height="0.291545" stroke="black" stroke-width="1" fill="blue" opacity="1" tooltip="enable"><title>(0.0686201,2)</title></rect><rect x="504" y="199.708" width="6" height="0.291545" stroke="black" stroke-width="1" fill="blue" opacity="1" tooltip="enable"><title>(0.0694469,2)</title></rect><rect x="510" y="200" width="6" height="0" stroke="black" stroke-width="1" fill="blue" opacity="1" tooltip="enable"><title>(0.0702736,0)</title></rect><rect x="516" y="200" width="6" height="0" stroke="black" stroke-width="1" fill="blue" opacity="1" tooltip="enable"><title>(0.0711004,0)</title></rect><rect x="522" y="199.417" width="6" height="0.58309" stroke="black" stroke-width="1" fill="blue" opacity="1" tooltip="enable"><title>(0.0719271,4)</title></rect><rect x="528" y="199.708" width="6" height="0.291545" stroke="black" stroke-width="1" fill="blue" opacity="1" tooltip="enable"><title>(0.0727539,2)</title></rect><rect x="534" y="200" width="6" height="0" stroke="black" stroke-width="1" fill="blue" opacity="1" tooltip="enable"><title>(0.0735806,0)</title></rect><rect x="540" y="200" width="6" height="0" stroke="black" stroke-width="1" fill="blue" opacity="1" tooltip="enable"><title>(0.0744074,0)</title></rect><rect x="546" y="200" width="6" height="0" stroke="black" stroke-width="1" fill="blue" opacity="1" tooltip="enable"><title>(0.0752341,0)</title></rect><rect x="552" y="200" width="6" height="0" stroke="black" stroke-width="1" fill="blue" opacity="1" tooltip="enable"><title>(0.0760609,0)</title></rect><rect x="558" y="200" width="6" height="0" stroke="black" stroke-width="1" fill="blue" opacity="1" tooltip="enable"><title>(0.0768876,0)</title></rect><rect x="564" y="200" width="6" height="0" stroke="black" stroke-width="1" fill="blue" opacity="1" tooltip="enable"><title>(0.0777143,0)</title></rect><rect x="570" y="199.708" width="6" height="0.291545" stroke="black" stroke-width="1" fill="blue" opacity="1" tooltip="enable"><title>(0.0785411,2)</title></rect><rect x="576" y="199.708" width="6" height="0.291545" stroke="black" stroke-width="1" fill="blue" opacity="1" tooltip="enable"><title>(0.0793678,2)</title></rect><rect x="582" y="200" width="6" height="0" stroke="black" stroke-width="1" fill="blue" opacity="1" tooltip="enable"><title>(0.0801946,0)</title></rect><rect x="588" y="200" width="6" height="0" stroke="black" stroke-width="1" fill="blue" opacity="1" tooltip="enable"><title>(0.0810213,0)</title></rect><rect x="594" y="199.854" width="6" height="0.145773" stroke="black" stroke-width="1" fill="blue" opacity="1" tooltip="enable"><title>(0.0818481,1)</title></rect><text x="30" y="240" font-size="20" fill="black">0</text>
<text x="600" y="240" font-size="20" fill="black">0.0826748</text>
<polyline points="0,220,600,220" stroke="black" stroke-width="1" fill="none" opacity="1"/>
<text x="720" y="20" font-size="20" fill="black">1372</text>
<text x="720" y="200" font-size="20" fill="black">0</text>
<polyline points="660,0,660,200" stroke="black" stroke-width="1" fill="none" opacity="1"/>
</svg>