<?xml version="1.0" standalone="yes"?>
<!-- SVG graphic -->
<svg xmlns='http://www.w3.org/2000/svg' xmlns:xlink='http://www.w3.org/1999/xlink'
 version="1.1">
<rect x="0" y="0" width="6" height="200" stroke="black" stroke-width="1" fill="blue" opacity="1" tooltip="enable"><title>(0,4008)</title></rect><rect x="6" y="180.339" width="6" height="19.6607" stroke="black" stroke-width="1" fill="blue" opacity="1" tooltip="enable"><title>(0.00147295,394)</title></rect><rect x="12" y="189.421" width="6" height="10.5788" stroke="black" stroke-width="1" fill="blue" opacity="1" tooltip="enable"><title>(0.00294589,212)</title></rect><rect x="18" y="191.367" width="6" height="8.63273" stroke="black" stroke-width="1" fill="blue" opacity="1" tooltip="enable"><title>(0.00441884,173)</title></rect><rect x="24" y="191.816" width="6" height="8.18363" stroke="black" stroke-width="1" fill="blue" opacity="1" tooltip="enable"><title>(0.00589179,164)</title></rect><rect x="30" y="190.669" width="6" height="9.33134" stroke="black" stroke-width="1" fill="blue" opacity="1" tooltip="enable"><title>(0.00736473,187)</title></rect><rect x="36" y="191.467" width="6" height="8.53293" stroke="black" stroke-width="1" fill="blue" opacity="1" tooltip="enable"><title>(0.00883768,171)</title></rect><rect x="42" y="193.463" width="6" height="6.53693" stroke="black" stroke-width="1" fill="blue" opacity="1" tooltip="enable"><title>(0.0103106,131)</title></rect><rect x="48" y="193.164" width="6" height="6.83633" stroke="black" stroke-width="1" fill="blue" opacity="1" tooltip="enable"><title>(0.0117836,137)</title></rect><rect x="54" y="191.168" width="6" height="8.83234" stroke="black" stroke-width="1" fill="blue" opacity="1" tooltip="enable"><title>(0.0132565,177)</title></rect><rect x="60" y="192.265" width="6" height="7.73453" stroke="black" stroke-width="1" fill="blue" opacity="1" tooltip="enable"><title>(0.0147295,155)</title></rect><rect x="66" y="192.066" width="6" height="7.93413" stroke="black" stroke-width="1" fill="blue" opacity="1" tooltip="enable"><title>(0.0162024,159)</title></rect><rect x="72" y="193.812" width="6" height="6.18762" stroke="black" stroke-width="1" fill="blue" opacity="1" tooltip="enable"><title>(0.0176754,124)</title></rect><rect x="78" y="194.212" width="6" height="5.78842" stroke="black" stroke-width="1" fill="blue" opacity="1" tooltip="enable"><title>(0.0191483,116)</title></rect><rect x="84" y="193.214" width="6" height="6.78643" stroke="black" stroke-width="1" fill="blue" opacity="1" tooltip="enable"><title>(0.0206213,136)</title></rect><rect x="90" y="193.513" width="6" height="6.48703" stroke="black" stroke-width="1" fill="blue" opacity="1" tooltip="enable"><title>(0.0220942,130)</title></rect><rect x="96" y="194.311" width="6" height="5.68862" stroke="black" stroke-width="1" fill="blue" opacity="1" tooltip="enable"><title>(0.0235671,114)</title></rect><rect x="102" y="195.259" width="6" height="4.74052" stroke="black" stroke-width="1" fill="blue" opacity="1" tooltip="enable"><title>(0.0250401,95)</title></rect><rect x="108" y="195.06" width="6" height="4.94012" stroke="black" stroke-width="1" fill="blue" opacity="1" tooltip="enable"><title>(0.026513,99)</title></rect><rect x="114" y="196.158" width="6" height="3.84232" stroke="black" stroke-width="1" fill="blue" opacity="1" tooltip="enable"><title>(0.027986,77)</title></rect><rect x="120" y="195.359" width="6" height="4.64072" stroke="black" stroke-width="1" fill="blue" opacity="1" tooltip="enable"><title>(0.0294589,93)</title></rect><rect x="126" y="194.611" width="6" height="5.38922" stroke="black" stroke-width="1" fill="blue" opacity="1" tooltip="enable"><title>(0.0309319,108)</title></rect><rect x="132" y="197.106" width="6" height="2.89421" stroke="black" stroke-width="1" fill="blue" opacity="1" tooltip="enable"><title>(0.0324048,58)</title></rect><rect x="138" y="196.108" width="6" height="3.89222" stroke="black" stroke-width="1" fill="blue" opacity="1" tooltip="enable"><title>(0.0338778,78)</title></rect><rect x="144" y="197.106" width="6" height="2.89421" stroke="black" stroke-width="1" fill="blue" opacity="1" tooltip="enable"><title>(0.0353507,58)</title></rect><rect x="150" y="197.106" width="6" height="2.89421" stroke="black" stroke-width="1" fill="blue" opacity="1" tooltip="enable"><title>(0.0368237,58)</title></rect><rect x="156" y="197.904" width="6" height="2.09581" stroke="black" stroke-width="1" fill="blue" opacity="1" tooltip="enable"><title>(0.0382966,42)</title></rect><rect x="162" y="198.503" width="6" height="1.49701" stroke="black" stroke-width="1" fill="blue" opacity="1" tooltip="enable"><title>(0.0397696,30)</title></rect><rect x="168" y="198.802" width="6" height="1.1976" stroke="black" stroke-width="1" fill="blue" opacity="1" tooltip="enable"><title>(0.0412425,24)</title></rect><rect x="174" y="198.004" width="6" height="1.99601" stroke="black" stroke-width="1" fill="blue" opacity="1" tooltip="enable"><title>(0.0427154,40)</title></rect><rect x="180" y="198.403" width="6" height="1.59681" stroke="black" stroke-width="1" fill="blue" opacity="1" tooltip="enable"><title>(0.0441884,32)</title></rect><rect x="186" y="199.002" width="6" height="0.998004" stroke="black" stroke-width="1" fill="blue" opacity="1" tooltip="enable"><title>(0.0456613,20)</title></rect><rect x="192" y="199.251" width="6" height="0.748503" stroke="black" stroke-width="1" fill="blue" opacity="1" tooltip="enable"><title>(0.0471343,15)</title></rect><rect x="198" y="199.251" width="6" height="0.748503" stroke="black" stroke-width="1" fill="blue" opacity="1" tooltip="enable"><title>(0.0486072,15)</title></rect><rect x="204" y="199.002" width="6" height="0.998004" stroke="black" stroke-width="1" fill="blue" opacity="1" tooltip="enable"><title>(0.0500802,20)</title></rect><rect x="210" y="199.501" width="6" height="0.499002" stroke="black" stroke-width="1" fill="blue" opacity="1" tooltip="enable"><title>(0.0515531,10)</title></rect><rect x="216" y="198.453" width="6" height="1.54691" stroke="black" stroke-width="1" fill="blue" opacity="1" tooltip="enable"><title>(0.0530261,31)</title></rect><rect x="222" y="198.253" width="6" height="1.74651" stroke="black" stroke-width="1" fill="blue" opacity="1" tooltip="enable"><title>(0.054499,35)</title></rect><rect x="228" y="199.501" width="6" height="0.499002" stroke="black" stroke-width="1" fill="blue" opacity="1" tooltip="enable"><title>(0.055972,10)</title></rect><rect x="234" y="199.301" width="6" height="0.698603" stroke="black" stroke-width="1" fill="blue" opacity="1" tooltip="enable"><title>(0.0574449,14)</title></rect><rect x="240" y="199.301" width="6" height="0.698603" stroke="black" stroke-width="1" fill="blue" opacity="1" tooltip="enable"><title>(0.0589179,14)</title></rect><rect x="246" y="199.251" width="6" height="0.748503" stroke="black" stroke-width="1" fill="blue" opacity="1" tooltip="enable"><title>(0.0603908,15)</title></rect><rect x="252" y="198.753" width="6" height="1.2475" stroke="black" stroke-width="1" fill="blue" opacity="1" tooltip="enable"><title>(0.0618638,25)</title></rect><rect x="258" y="199.501" width="6" height="0.499002" stroke="black" stroke-width="1" fill="blue" opacity="1" tooltip="enable"><title>(0.0633367,10)</title></rect><rect x="264" y="199.351" width="6" height="0.648703" stroke="black" stroke-width="1" fill="blue" opacity="1" tooltip="enable"><title>(0.0648097,13)</title></rect><rect x="270" y="199.401" width="6" height="0.598802" stroke="black" stroke-width="1" fill="blue" opacity="1" tooltip="enable"><title>(0.0662826,12)</title></rect><rect x="276" y="199.152" width="6" height="0.848303" stroke="black" stroke-width="1" fill="blue" opacity="1" tooltip="enable"><title>(0.0677555,17)</title></rect><rect x="282" y="199.401" width="6" height="0.598802" stroke="black" stroke-width="1" fill="blue" opacity="1" tooltip="enable"><title>(0.0692285,12)</title></rect><rect x="288" y="199.202" width="6" height="0.798403" stroke="black" stroke-width="1" fill="blue" opacity="1" tooltip="enable"><title>(0.0707014,16)</title></rect><rect x="294" y="200" width="6" height="0" stroke="black" stroke-width="1" fill="blue" opacity="1" tooltip="enable"><title>(0.0721744,0)</title></rect><rect x="300" y="199.701" width="6" height="0.299401" stroke="black" stroke-width="1" fill="blue" opacity="1" tooltip="enable"><title>(0.0736473,6)</title></rect><rect x="306" y="199.401" width="6" height="0.598802" stroke="black" stroke-width="1" fill="blue" opacity="1" tooltip="enable"><title>(0.0751203,12)</title></rect><rect x="312" y="199.601" width="6" height="0.399202" stroke="black" stroke-width="1" fill="blue" opacity="1" tooltip="enable"><title>(0.0765932,8)</title></rect><rect x="318" y="199.701" width="6" height="0.299401" stroke="black" stroke-width="1" fill="blue" opacity="1" tooltip="enable"><title>(0.0780662,6)</title></rect><rect x="324" y="199.551" width="6" height="0.449102" stroke="black" stroke-width="1" fill="blue" opacity="1" tooltip="enable"><title>(0.0795391,9)</title></rect><rect x="330" y="199.651" width="6" height="0.349301" stroke="black" stroke-width="1" fill="blue" opacity="1" tooltip="enable"><title>(0.0810121,7)</title></rect><rect x="336" y="199.601" width="6" height="0.399202" stroke="black" stroke-width="1" fill="blue" opacity="1" tooltip="enable"><title>(0.082485,8)</title></rect><rect x="342" y="199.701" width="6" height="0.299401" stroke="black" stroke-width="1" fill="blue" opacity="1" tooltip="enable"><title>(0.083958,6)</title></rect><rect x="348" y="199.8" width="6" height="0.199601" stroke="black" stroke-width="1" fill="blue" opacity="1" tooltip="enable"><title>(0.0854309,4)</title></rect><rect x="354" y="200" width="6" height="0" stroke="black" stroke-width="1" fill="blue" opacity="1" tooltip="enable"><title>(0.0869038,0)</title></rect><rect x="360" y="200" width="6" height="0" stroke="black" stroke-width="1" fill="blue" opacity="1" tooltip="enable"><title>(0.0883768,0)</title></rect><rect x="366" y="200" width="6" height="0" stroke="black" stroke-width="1" fill="blue" opacity="1" tooltip="enable"><title>(0.0898497,0)</title></rect><rect x="372" y="199.9" width="6" height="0.0998004" stroke="black" stroke-width="1" fill="blue" opacity="1" tooltip="enable"><title>(0.0913227,2)</title></rect><rect x="378" y="200" width="6" height="0" stroke="black" stroke-width="1" fill="blue" opacity="1" tooltip="enable"><title>(0.0927956,0)</title></rect><rect x="384" y="199.9" width="6" height="0.0998004" stroke="black" stroke-width="1" fill="blue" opacity="1" tooltip="enable"><title>(0.0942686,2)</title></rect><rect x="390" y="200" width="6" height="0" stroke="black" stroke-width="1" fill="blue" opacity="1" tooltip="enable"><title>(0.0957415,0)</title></rect><rect x="396" y="199.9" width="6" height="0.0998004" stroke="black" stroke-width="1" fill="blue" opacity="1" tooltip="enable"><title>(0.0972145,2)</title></rect><rect x="402" y="199.9" width="6" height="0.0998004" stroke="black" stroke-width="1" fill="blue" opacity="1" tooltip="enable"><title>(0.0986874,2)</title></rect><rect x="408" y="199.9" width="6" height="0.0998004" stroke="black" stroke-width="1" fill="blue" opacity="1" tooltip="enable"><title>(0.10016,2)</title></rect><rect x="414" y="199.8" width="6" height="0.199601" stroke="black" stroke-width="1" fill="blue" opacity="1" tooltip="enable"><title>(0.101633,4)</title></rect><rect x="420" y="200" width="6" height="0" stroke="black" stroke-width="1" fill="blue" opacity="1" tooltip="enable"><title>(0.103106,0)</title></rect><rect x="426" y="199.9" width="6" height="0.0998004" stroke="black" stroke-width="1" fill="blue" opacity="1" tooltip="enable"><title>(0.104579,2)</title></rect><rect x="432" y="200" width="6" height="0" stroke="black" stroke-width="1" fill="blue" opacity="1" tooltip="enable"><title>(0.106052,0)</title></rect><rect x="438" y="199.95" width="6" height="0.0499002" stroke="black" stroke-width="1" fill="blue" opacity="1" tooltip="enable"><title>(0.107525,1)</title></rect><rect x="444" y="199.95" width="6" height="0.0499002" stroke="black" stroke-width="1" fill="blue" opacity="1" tooltip="enable"><title>(0.108998,1)</title></rect><rect x="450" y="200" width="6" height="0" stroke="black" stroke-width="1" fill="blue" opacity="1" tooltip="enable"><title>(0.110471,0)</title></rect><rect x="456" y="199.95" width="6" height="0.0499002" stroke="black" stroke-width="1" fill="blue" opacity="1" tooltip="enable"><title>(0.111944,1)</title></rect><rect x="462" y="199.95" width="6" height="0.0499002" stroke="black" stroke-width="1" fill="blue" opacity="1" tooltip="enable"><title>(0.113417,1)</title></rect><rect x="468" y="199.8" width="6" height="0.199601" stroke="black" stroke-width="1" fill="blue" opacity="1" tooltip="enable"><title>(0.11489,4)</title></rect><rect x="474" y="199.9" width="6" height="0.0998004" stroke="black" stroke-width="1" fill="blue" opacity="1" tooltip="enable"><title>(0.116363,2)</title></rect><rect x="480" y="200" width="6" height="0" stroke="black" stroke-width="1" fill="blue" opacity="1" tooltip="enable"><title>(0.117836,0)</title></rect><rect x="486" y="200" width="6" height="0" stroke="black" stroke-width="1" fill="blue" opacity="1" tooltip="enable"><title>(0.119309,0)</title></rect><rect x="492" y="200" width="6" height="0" stroke="black" stroke-width="1" fill="blue" opacity="1" tooltip="enable"><title>(0.120782,0)</title></rect><rect x="498" y="199.9" width="6" height="0.0998004" stroke="black" stroke-width="1" fill="blue" opacity="1" tooltip="enable"><title>(0.122255,2)</title></rect><rect x="504" y="200" width="6" height="0" stroke="black" stroke-width="1" fill="blue" opacity="1" tooltip="enable"><title>(0.123728,0)</title></rect><rect x="510" y="200" width="6" height="0" stroke="black" stroke-width="1" fill="blue" opacity="1" tooltip="enable"><title>(0.1252,0)</title></rect><rect x="516" y="200" width="6" height="0" stroke="black" stroke-width="1" fill="blue" opacity="1" tooltip="enable"><title>(0.126673,0)</title></rect><rect x="522" y="199.9" width="6" height="0.0998004" stroke="black" stroke-width="1" fill="blue" opacity="1" tooltip="enable"><title>(0.128146,2)</title></rect><rect x="528" y="199.95" width="6" height="0.0499002" stroke="black" stroke-width="1" fill="blue" opacity="1" tooltip="enable"><title>(0.129619,1)</title></rect><rect x="534" y="199.8" width="6" height="0.199601" stroke="black" stroke-width="1" fill="blue" opacity="1" tooltip="enable"><title>(0.131092,4)</title></rect><rect x="540" y="199.85" width="6" height="0.149701" stroke="black" stroke-width="1" fill="blue" opacity="1" tooltip="enable"><title>(0.132565,3)</title></rect><rect x="546" y="200" width="6" height="0" stroke="black" stroke-width="1" fill="blue" opacity="1" tooltip="enable"><title>(0.134038,0)</title></rect><rect x="552" y="199.9" width="6" height="0.0998004" stroke="black" stroke-width="1" fill="blue" opacity="1" tooltip="enable"><title>(0.135511,2)</title></rect><rect x="558" y="199.9" width="6" height="0.0998004" stroke="black" stroke-width="1" fill="blue" opacity="1" tooltip="enable"><title>(0.136984,2)</title></rect><rect x="564" y="199.9" width="6" height="0.0998004" stroke="black" stroke-width="1" fill="blue" opacity="1" tooltip="enable"><title>(0.138457,2)</title></rect><rect x="570" y="200" width="6" height="0" stroke="black" stroke-width="1" fill="blue" opacity="1" tooltip="enable"><title>(0.13993,0)</title></rect><rect x="576" y="200" width="6" height="0" stroke="black" stroke-width="1" fill="blue" opacity="1" tooltip="enable"><title>(0.141403,0)</title></rect><rect x="582" y="199.9" width="6" height="0.0998004" stroke="black" stroke-width="1" fill="blue" opacity="1" tooltip="enable"><title>(0.142876,2)</title></rect><rect x="588" y="199.9" width="6" height="0.0998004" stroke="black" stroke-width="1" fill="blue" opacity="1" tooltip="enable"><title>(0.144349,2)</title></rect><rect x="594" y="199.95" width="6" height="0.0499002" stroke="black" stroke-width="1" fill="blue" opacity="1" tooltip="enable"><title>(0.145822,1)</title></rect><text x="30" y="240" font-size="20" fill="black">0</text>
<text x="600" y="240" font-size="20" fill="black">0.147295</text>
<polyline points="0,220,600,220" stroke="black" stroke-width="1" fill="none" opacity="1"/>
<text x="720" y="20" font-size="20" fill="black">4008</text>
<text x="720" y="200" font-size="20" fill="black">0</text>
<polyline points="660,0,660,200" stroke="black" stroke-width="1" fill="none" opacity="1"/>
</svg>