<?xml version="1.0" standalone="yes"?>
<!-- SVG graphic -->
<svg xmlns='http://www.w3.org/2000/svg' xmlns:xlink='http://www.w3.org/1999/xlink'
 version="1.1">
<rect x="0" y="11.7561" width="6" height="188.244" stroke="black" stroke-width="1" fill="blue" opacity="1" tooltip="enable"><title>(0,1281)</title></rect><rect x="6" y="0" width="6" height="200" stroke="black" stroke-width="1" fill="blue" opacity="1" tooltip="enable"><title>(0.00140699,1361)</title></rect><rect x="12" y="42.4688" width="6" height="157.531" stroke="black" stroke-width="1" fill="blue" opacity="1" tooltip="enable"><title>(0.00281399,1072)</title></rect><rect x="18" y="104.776" width="6" height="95.2241" stroke="black" stroke-width="1" fill="blue" opacity="1" tooltip="enable"><title>(0.00422098,648)</title></rect><rect x="24" y="165.614" width="6" height="34.3865" stroke="black" stroke-width="1" fill="blue" opacity="1" tooltip="enable"><title>(0.00562797,234)</title></rect><rect x="30" y="180.015" width="6" height="19.9853" stroke="black" stroke-width="1" fill="blue" opacity="1" tooltip="enable"><title>(0.00703497,136)</title></rect><rect x="36" y="181.778" width="6" height="18.2219" stroke="black" stroke-width="1" fill="blue" opacity="1" tooltip="enable"><title>(0.00844196,124)</title></rect><rect x="42" y="184.717" width="6" height="15.2829" stroke="black" stroke-width="1" fill="blue" opacity="1" tooltip="enable"><title>(0.00984895,104)</title></rect><rect x="48" y="178.545" width="6" height="21.4548" stroke="black" stroke-width="1" fill="blue" opacity="1" tooltip="enable"><title>(0.0112559,146)</title></rect><rect x="54" y="187.656" width="6" height="12.3439" stroke="black" stroke-width="1" fill="blue" opacity="1" tooltip="enable"><title>(0.0126629,84)</title></rect><rect x="60" y="184.864" width="6" height="15.1359" stroke="black" stroke-width="1" fill="blue" opacity="1" tooltip="enable"><title>(0.0140699,103)</title></rect><rect x="66" y="183.982" width="6" height="16.0176" stroke="black" stroke-width="1" fill="blue" opacity="1" tooltip="enable"><title>(0.0154769,109)</title></rect><rect x="72" y="180.309" width="6" height="19.6914" stroke="black" stroke-width="1" fill="blue" opacity="1" tooltip="enable"><title>(0.0168839,134)</title></rect><rect x="78" y="181.925" width="6" height="18.0749" stroke="black" stroke-width="1" fill="blue" opacity="1" tooltip="enable"><title>(0.0182909,123)</title></rect><rect x="84" y="181.337" width="6" height="18.6627" stroke="black" stroke-width="1" fill="blue" opacity="1" tooltip="enable"><title>(0.0196979,127)</title></rect><rect x="90" y="179.133" width="6" height="20.867" stroke="black" stroke-width="1" fill="blue" opacity="1" tooltip="enable"><title>(0.0211049,142)</title></rect><rect x="96" y="181.043" width="6" height="18.9566" stroke="black" stroke-width="1" fill="blue" opacity="1" tooltip="enable"><title>(0.0225119,129)</title></rect><rect x="102" y="180.896" width="6" height="19.1036" stroke="black" stroke-width="1" fill="blue" opacity="1" tooltip="enable"><title>(0.0239189,130)</title></rect><rect x="108" y="181.337" width="6" height="18.6627" stroke="black" stroke-width="1" fill="blue" opacity="1" tooltip="enable"><title>(0.0253259,127)</title></rect><rect x="114" y="183.101" width="6" height="16.8993" stroke="black" stroke-width="1" fill="blue" opacity="1" tooltip="enable"><title>(0.0267329,115)</title></rect><rect x="120" y="182.366" width="6" height="17.6341" stroke="black" stroke-width="1" fill="blue" opacity="1" tooltip="enable"><title>(0.0281399,120)</title></rect><rect x="126" y="187.215" width="6" height="12.7847" stroke="black" stroke-width="1" fill="blue" opacity="1" tooltip="enable"><title>(0.0295469,87)</title></rect><rect x="132" y="186.774" width="6" height="13.2256" stroke="black" stroke-width="1" fill="blue" opacity="1" tooltip="enable"><title>(0.0309539,90)</title></rect><rect x="138" y="182.513" width="6" height="17.4871" stroke="black" stroke-width="1" fill="blue" opacity="1" tooltip="enable"><title>(0.0323608,119)</title></rect><rect x="144" y="182.513" width="6" height="17.4871" stroke="black" stroke-width="1" fill="blue" opacity="1" tooltip="enable"><title>(0.0337678,119)</title></rect><rect x="150" y="183.688" width="6" height="16.3115" stroke="black" stroke-width="1" fill="blue" opacity="1" tooltip="enable"><title>(0.0351748,111)</title></rect><rect x="156" y="182.219" width="6" height="17.781" stroke="black" stroke-width="1" fill="blue" opacity="1" tooltip="enable"><title>(0.0365818,121)</title></rect><rect x="162" y="188.244" width="6" height="11.7561" stroke="black" stroke-width="1" fill="blue" opacity="1" tooltip="enable"><title>(0.0379888,80)</title></rect><rect x="168" y="187.803" width="6" height="12.1969" stroke="black" stroke-width="1" fill="blue" opacity="1" tooltip="enable"><title>(0.0393958,83)</title></rect><rect x="174" y="187.215" width="6" height="12.7847" stroke="black" stroke-width="1" fill="blue" opacity="1" tooltip="enable"><title>(0.0408028,87)</title></rect><rect x="180" y="190.889" width="6" height="9.11095" stroke="black" stroke-width="1" fill="blue" opacity="1" tooltip="enable"><title>(0.0422098,62)</title></rect><rect x="186" y="191.771" width="6" height="8.22924" stroke="black" stroke-width="1" fill="blue" opacity="1" tooltip="enable"><title>(0.0436168,56)</title></rect><rect x="192" y="190.742" width="6" height="9.2579" stroke="black" stroke-width="1" fill="blue" opacity="1" tooltip="enable"><title>(0.0450238,63)</title></rect><rect x="198" y="191.036" width="6" height="8.964" stroke="black" stroke-width="1" fill="blue" opacity="1" tooltip="enable"><title>(0.0464308,61)</title></rect><rect x="204" y="197.355" width="6" height="2.64511" stroke="black" stroke-width="1" fill="blue" opacity="1" tooltip="enable"><title>(0.0478378,18)</title></rect><rect x="210" y="195.591" width="6" height="4.40852" stroke="black" stroke-width="1" fill="blue" opacity="1" tooltip="enable"><title>(0.0492448,30)</title></rect><rect x="216" y="195.885" width="6" height="4.11462" stroke="black" stroke-width="1" fill="blue" opacity="1" tooltip="enable"><title>(0.0506518,28)</title></rect><rect x="222" y="196.473" width="6" height="3.52682" stroke="black" stroke-width="1" fill="blue" opacity="1" tooltip="enable"><title>(0.0520588,24)</title></rect><rect x="228" y="197.061" width="6" height="2.93902" stroke="black" stroke-width="1" fill="blue" opacity="1" tooltip="enable"><title>(0.0534657,20)</title></rect><rect x="234" y="196.473" width="6" height="3.52682" stroke="black" stroke-width="1" fill="blue" opacity="1" tooltip="enable"><title>(0.0548727,24)</title></rect><rect x="240" y="196.767" width="6" height="3.23292" stroke="black" stroke-width="1" fill="blue" opacity="1" tooltip="enable"><title>(0.0562797,22)</title></rect><rect x="246" y="196.914" width="6" height="3.08597" stroke="black" stroke-width="1" fill="blue" opacity="1" tooltip="enable"><title>(0.0576867,21)</title></rect><rect x="252" y="197.796" width="6" height="2.20426" stroke="black" stroke-width="1" fill="blue" opacity="1" tooltip="enable"><title>(0.0590937,15)</title></rect><rect x="258" y="198.824" width="6" height="1.17561" stroke="black" stroke-width="1" fill="blue" opacity="1" tooltip="enable"><title>(0.0605007,8)</title></rect><rect x="264" y="197.943" width="6" height="2.05731" stroke="black" stroke-width="1" fill="blue" opacity="1" tooltip="enable"><title>(0.0619077,14)</title></rect><rect x="270" y="198.53" width="6" height="1.46951" stroke="black" stroke-width="1" fill="blue" opacity="1" tooltip="enable"><title>(0.0633147,10)</title></rect><rect x="276" y="197.649" width="6" height="2.35121" stroke="black" stroke-width="1" fill="blue" opacity="1" tooltip="enable"><title>(0.0647217,16)</title></rect><rect x="282" y="197.943" width="6" height="2.05731" stroke="black" stroke-width="1" fill="blue" opacity="1" tooltip="enable"><title>(0.0661287,14)</title></rect><rect x="288" y="199.706" width="6" height="0.293902" stroke="black" stroke-width="1" fill="blue" opacity="1" tooltip="enable"><title>(0.0675357,2)</title></rect><rect x="294" y="200" width="6" height="0" stroke="black" stroke-width="1" fill="blue" opacity="1" tooltip="enable"><title>(0.0689427,0)</title></rect><rect x="300" y="200" width="6" height="0" stroke="black" stroke-width="1" fill="blue" opacity="1" tooltip="enable"><title>(0.0703497,0)</title></rect><rect x="306" y="200" width="6" height="0" stroke="black" stroke-width="1" fill="blue" opacity="1" tooltip="enable"><title>(0.0717567,0)</title></rect><rect x="312" y="199.412" width="6" height="0.587803" stroke="black" stroke-width="1" fill="blue" opacity="1" tooltip="enable"><title>(0.0731637,4)</title></rect><rect x="318" y="199.706" width="6" height="0.293902" stroke="black" stroke-width="1" fill="blue" opacity="1" tooltip="enable"><title>(0.0745706,2)</title></rect><rect x="324" y="199.706" width="6" height="0.293902" stroke="black" stroke-width="1" fill="blue" opacity="1" tooltip="enable"><title>(0.0759776,2)</title></rect><rect x="330" y="199.706" width="6" height="0.293902" stroke="black" stroke-width="1" fill="blue" opacity="1" tooltip="enable"><title>(0.0773846,2)</title></rect><rect x="336" y="200" width="6" height="0" stroke="black" stroke-width="1" fill="blue" opacity="1" tooltip="enable"><title>(0.0787916,0)</title></rect><rect x="342" y="199.706" width="6" height="0.293902" stroke="black" stroke-width="1" fill="blue" opacity="1" tooltip="enable"><title>(0.0801986,2)</title></rect><rect x="348" y="200" width="6" height="0" stroke="black" stroke-width="1" fill="blue" opacity="1" tooltip="enable"><title>(0.0816056,0)</title></rect><rect x="354" y="200" width="6" height="0" stroke="black" stroke-width="1" fill="blue" opacity="1" tooltip="enable"><title>(0.0830126,0)</title></rect><rect x="360" y="200" width="6" height="0" stroke="black" stroke-width="1" fill="blue" opacity="1" tooltip="enable"><title>(0.0844196,0)</title></rect><rect x="366" y="200" width="6" height="0" stroke="black" stroke-width="1" fill="blue" opacity="1" tooltip="enable"><title>(0.0858266,0)</title></rect><rect x="372" y="200" width="6" height="0" stroke="black" stroke-width="1" fill="blue" opacity="1" tooltip="enable"><title>(0.0872336,0)</title></rect><rect x="378" y="199.118" width="6" height="0.881705" stroke="black" stroke-width="1" fill="blue" opacity="1" tooltip="enable"><title>(0.0886406,6)</title></rect><rect x="384" y="200" width="6" height="0" stroke="black" stroke-width="1" fill="blue" opacity="1" tooltip="enable"><title>(0.0900476,0)</title></rect><rect x="390" y="199.706" width="6" height="0.293902" stroke="black" stroke-width="1" fill="blue" opacity="1" tooltip="enable"><title>(0.0914546,2)</title></rect><rect x="396" y="200" width="6" height="0" stroke="black" stroke-width="1" fill="blue" opacity="1" tooltip="enable"><title>(0.0928616,0)</title></rect><rect x="402" y="200" width="6" height="0" stroke="black" stroke-width="1" fill="blue" opacity="1" tooltip="enable"><title>(0.0942686,0)</title></rect><rect x="408" y="199.706" width="6" height="0.293902" stroke="black" stroke-width="1" fill="blue" opacity="1" tooltip="enable"><title>(0.0956755,2)</title></rect><rect x="414" y="199.706" width="6" height="0.293902" stroke="black" stroke-width="1" fill="blue" opacity="1" tooltip="enable"><title>(0.0970825,2)</title></rect><rect x="420" y="199.706" width="6" height="0.293902" stroke="black" stroke-width="1" fill="blue" opacity="1" tooltip="enable"><title>(0.0984895,2)</title></rect><rect x="426" y="200" width="6" height="0" stroke="black" stroke-width="1" fill="blue" opacity="1" tooltip="enable"><title>(0.0998965,0)</title></rect><rect x="432" y="200" width="6" height="0" stroke="black" stroke-width="1" fill="blue" opacity="1" tooltip="enable"><title>(0.101304,0)</title></rect><rect x="438" y="200" width="6" height="0" stroke="black" stroke-width="1" fill="blue" opacity="1" tooltip="enable"><title>(0.102711,0)</title></rect><rect x="444" y="199.706" width="6" height="0.293902" stroke="black" stroke-width="1" fill="blue" opacity="1" tooltip="enable"><title>(0.104118,2)</title></rect><rect x="450" y="199.706" width="6" height="0.293902" stroke="black" stroke-width="1" fill="blue" opacity="1" tooltip="enable"><title>(0.105524,2)</title></rect><rect x="456" y="199.706" width="6" height="0.293902" stroke="black" stroke-width="1" fill="blue" opacity="1" tooltip="enable"><title>(0.106931,2)</title></rect><rect x="462" y="200" width="6" height="0" stroke="black" stroke-width="1" fill="blue" opacity="1" tooltip="enable"><title>(0.108338,0)</title></rect><rect x="468" y="200" width="6" height="0" stroke="black" stroke-width="1" fill="blue" opacity="1" tooltip="enable"><title>(0.109745,0)</title></rect><rect x="474" y="199.706" width="6" height="0.293902" stroke="black" stroke-width="1" fill="blue" opacity="1" tooltip="enable"><title>(0.111152,2)</title></rect><rect x="480" y="200" width="6" height="0" stroke="black" stroke-width="1" fill="blue" opacity="1" tooltip="enable"><title>(0.112559,0)</title></rect><rect x="486" y="200" width="6" height="0" stroke="black" stroke-width="1" fill="blue" opacity="1" tooltip="enable"><title>(0.113966,0)</title></rect><rect x="492" y="199.706" width="6" height="0.293902" stroke="black" stroke-width="1" fill="blue" opacity="1" tooltip="enable"><title>(0.115373,2)</title></rect><rect x="498" y="200" width="6" height="0" stroke="black" stroke-width="1" fill="blue" opacity="1" tooltip="enable"><title>(0.11678,0)</title></rect><rect x="504" y="200" width="6" height="0" stroke="black" stroke-width="1" fill="blue" opacity="1" tooltip="enable"><title>(0.118187,0)</title></rect><rect x="510" y="200" width="6" height="0" stroke="black" stroke-width="1" fill="blue" opacity="1" tooltip="enable"><title>(0.119594,0)</title></rect><rect x="516" y="199.706" width="6" height="0.293902" stroke="black" stroke-width="1" fill="blue" opacity="1" tooltip="enable"><title>(0.121001,2)</title></rect><rect x="522" y="200" width="6" height="0" stroke="black" stroke-width="1" fill="blue" opacity="1" tooltip="enable"><title>(0.122408,0)</title></rect><rect x="528" y="200" width="6" height="0" stroke="black" stroke-width="1" fill="blue" opacity="1" tooltip="enable"><title>(0.123815,0)</title></rect><rect x="534" y="199.853" width="6" height="0.146951" stroke="black" stroke-width="1" fill="blue" opacity="1" tooltip="enable"><title>(0.125222,1)</title></rect><rect x="540" y="199.853" width="6" height="0.146951" stroke="black" stroke-width="1" fill="blue" opacity="1" tooltip="enable"><title>(0.126629,1)</title></rect><rect x="546" y="200" width="6" height="0" stroke="black" stroke-width="1" fill="blue" opacity="1" tooltip="enable"><title>(0.128036,0)</title></rect><rect x="552" y="200" width="6" height="0" stroke="black" stroke-width="1" fill="blue" opacity="1" tooltip="enable"><title>(0.129443,0)</title></rect><rect x="558" y="199.412" width="6" height="0.587803" stroke="black" stroke-width="1" fill="blue" opacity="1" tooltip="enable"><title>(0.13085,4)</title></rect><rect x="564" y="200" width="6" height="0" stroke="black" stroke-width="1" fill="blue" opacity="1" tooltip="enable"><title>(0.132257,0)</title></rect><rect x="570" y="200" width="6" height="0" stroke="black" stroke-width="1" fill="blue" opacity="1" tooltip="enable"><title>(0.133664,0)</title></rect><rect x="576" y="200" width="6" height="0" stroke="black" stroke-width="1" fill="blue" opacity="1" tooltip="enable"><title>(0.135071,0)</title></rect><rect x="582" y="200" width="6" height="0" stroke="black" stroke-width="1" fill="blue" opacity="1" tooltip="enable"><title>(0.136478,0)</title></rect><rect x="588" y="200" width="6" height="0" stroke="black" stroke-width="1" fill="blue" opacity="1" tooltip="enable"><title>(0.137885,0)</title></rect><rect x="594" y="199.853" width="6" height="0.146951" stroke="black" stroke-width="1" fill="blue" opacity="1" tooltip="enable"><title>(0.139292,1)</title></rect><text x="30" y="240" font-size="20" fill="black">0</text>
<text x="600" y="240" font-size="20" fill="black">0.140699</text>
<polyline points="0,220,600,220" stroke="black" stroke-width="1" fill="none" opacity="1"/>
<text x="720" y="20" font-size="20" fill="black">1361</text>
<text x="720" y="200" font-size="20" fill="black">0</text>
<polyline points="660,0,660,200" stroke="black" stroke-width="1" fill="none" opacity="1"/>
</svg>