<?xml version="1.0" standalone="yes"?>
<!-- SVG graphic -->
<svg xmlns='http://www.w3.org/2000/svg' xmlns:xlink='http://www.w3.org/1999/xlink'
 version="1.1">
<rect x="0" y="32.0833" width="6" height="167.917" stroke="black" stroke-width="1" fill="blue" opacity="1" tooltip="enable"><title>(0,806)</title></rect><rect x="6" y="7.91667" width="6" height="192.083" stroke="black" stroke-width="1" fill="blue" opacity="1" tooltip="enable"><title>(0.00129576,922)</title></rect><rect x="12" y="0" width="6" height="200" stroke="black" stroke-width="1" fill="blue" opacity="1" tooltip="enable"><title>(0.00259151,960)</title></rect><rect x="18" y="32.5" width="6" height="167.5" stroke="black" stroke-width="1" fill="blue" opacity="1" tooltip="enable"><title>(0.00388727,804)</title></rect><rect x="24" y="78.9583" width="6" height="121.042" stroke="black" stroke-width="1" fill="blue" opacity="1" tooltip="enable"><title>(0.00518303,581)</title></rect><rect x="30" y="105.625" width="6" height="94.375" stroke="black" stroke-width="1" fill="blue" opacity="1" tooltip="enable"><title>(0.00647878,453)</title></rect><rect x="36" y="135.417" width="6" height="64.5833" stroke="black" stroke-width="1" fill="blue" opacity="1" tooltip="enable"><title>(0.00777454,310)</title></rect><rect x="42" y="147.917" width="6" height="52.0833" stroke="black" stroke-width="1" fill="blue" opacity="1" tooltip="enable"><title>(0.0090703,250)</title></rect><rect x="48" y="164.792" width="6" height="35.2083" stroke="black" stroke-width="1" fill="blue" opacity="1" tooltip="enable"><title>(0.0103661,169)</title></rect><rect x="54" y="160.208" width="6" height="39.7917" stroke="black" stroke-width="1" fill="blue" opacity="1" tooltip="enable"><title>(0.0116618,191)</title></rect><rect x="60" y="166.25" width="6" height="33.75" stroke="black" stroke-width="1" fill="blue" opacity="1" tooltip="enable"><title>(0.0129576,162)</title></rect><rect x="66" y="168.333" width="6" height="31.6667" stroke="black" stroke-width="1" fill="blue" opacity="1" tooltip="enable"><title>(0.0142533,152)</title></rect><rect x="72" y="165.208" width="6" height="34.7917" stroke="black" stroke-width="1" fill="blue" opacity="1" tooltip="enable"><title>(0.0155491,167)</title></rect><rect x="78" y="161.875" width="6" height="38.125" stroke="black" stroke-width="1" fill="blue" opacity="1" tooltip="enable"><title>(0.0168448,183)</title></rect><rect x="84" y="169.583" width="6" height="30.4167" stroke="black" stroke-width="1" fill="blue" opacity="1" tooltip="enable"><title>(0.0181406,146)</title></rect><rect x="90" y="172.083" width="6" height="27.9167" stroke="black" stroke-width="1" fill="blue" opacity="1" tooltip="enable"><title>(0.0194364,134)</title></rect><rect x="96" y="173.125" width="6" height="26.875" stroke="black" stroke-width="1" fill="blue" opacity="1" tooltip="enable"><title>(0.0207321,129)</title></rect><rect x="102" y="176.042" width="6" height="23.9583" stroke="black" stroke-width="1" fill="blue" opacity="1" tooltip="enable"><title>(0.0220279,115)</title></rect><rect x="108" y="181.667" width="6" height="18.3333" stroke="black" stroke-width="1" fill="blue" opacity="1" tooltip="enable"><title>(0.0233236,88)</title></rect><rect x="114" y="175.208" width="6" height="24.7917" stroke="black" stroke-width="1" fill="blue" opacity="1" tooltip="enable"><title>(0.0246194,119)</title></rect><rect x="120" y="175.208" width="6" height="24.7917" stroke="black" stroke-width="1" fill="blue" opacity="1" tooltip="enable"><title>(0.0259151,119)</title></rect><rect x="126" y="181.667" width="6" height="18.3333" stroke="black" stroke-width="1" fill="blue" opacity="1" tooltip="enable"><title>(0.0272109,88)</title></rect><rect x="132" y="178.542" width="6" height="21.4583" stroke="black" stroke-width="1" fill="blue" opacity="1" tooltip="enable"><title>(0.0285066,103)</title></rect><rect x="138" y="182.917" width="6" height="17.0833" stroke="black" stroke-width="1" fill="blue" opacity="1" tooltip="enable"><title>(0.0298024,82)</title></rect><rect x="144" y="184.583" width="6" height="15.4167" stroke="black" stroke-width="1" fill="blue" opacity="1" tooltip="enable"><title>(0.0310982,74)</title></rect><rect x="150" y="178.125" width="6" height="21.875" stroke="black" stroke-width="1" fill="blue" opacity="1" tooltip="enable"><title>(0.0323939,105)</title></rect><rect x="156" y="189.792" width="6" height="10.2083" stroke="black" stroke-width="1" fill="blue" opacity="1" tooltip="enable"><title>(0.0336897,49)</title></rect><rect x="162" y="182.083" width="6" height="17.9167" stroke="black" stroke-width="1" fill="blue" opacity="1" tooltip="enable"><title>(0.0349854,86)</title></rect><rect x="168" y="186.875" width="6" height="13.125" stroke="black" stroke-width="1" fill="blue" opacity="1" tooltip="enable"><title>(0.0362812,63)</title></rect><rect x="174" y="190.417" width="6" height="9.58333" stroke="black" stroke-width="1" fill="blue" opacity="1" tooltip="enable"><title>(0.0375769,46)</title></rect><rect x="180" y="187.917" width="6" height="12.0833" stroke="black" stroke-width="1" fill="blue" opacity="1" tooltip="enable"><title>(0.0388727,58)</title></rect><rect x="186" y="190.417" width="6" height="9.58333" stroke="black" stroke-width="1" fill="blue" opacity="1" tooltip="enable"><title>(0.0401685,46)</title></rect><rect x="192" y="191.25" width="6" height="8.75" stroke="black" stroke-width="1" fill="blue" opacity="1" tooltip="enable"><title>(0.0414642,42)</title></rect><rect x="198" y="196.25" width="6" height="3.75" stroke="black" stroke-width="1" fill="blue" opacity="1" tooltip="enable"><title>(0.04276,18)</title></rect><rect x="204" y="191.667" width="6" height="8.33333" stroke="black" stroke-width="1" fill="blue" opacity="1" tooltip="enable"><title>(0.0440557,40)</title></rect><rect x="210" y="195.417" width="6" height="4.58333" stroke="black" stroke-width="1" fill="blue" opacity="1" tooltip="enable"><title>(0.0453515,22)</title></rect><rect x="216" y="196.667" width="6" height="3.33333" stroke="black" stroke-width="1" fill="blue" opacity="1" tooltip="enable"><title>(0.0466472,16)</title></rect><rect x="222" y="196.667" width="6" height="3.33333" stroke="black" stroke-width="1" fill="blue" opacity="1" tooltip="enable"><title>(0.047943,16)</title></rect><rect x="228" y="195.833" width="6" height="4.16667" stroke="black" stroke-width="1" fill="blue" opacity="1" tooltip="enable"><title>(0.0492388,20)</title></rect><rect x="234" y="197.083" width="6" height="2.91667" stroke="black" stroke-width="1" fill="blue" opacity="1" tooltip="enable"><title>(0.0505345,14)</title></rect><rect x="240" y="197.5" width="6" height="2.5" stroke="black" stroke-width="1" fill="blue" opacity="1" tooltip="enable"><title>(0.0518303,12)</title></rect><rect x="246" y="198.542" width="6" height="1.45833" stroke="black" stroke-width="1" fill="blue" opacity="1" tooltip="enable"><title>(0.053126,7)</title></rect><rect x="252" y="198.125" width="6" height="1.875" stroke="black" stroke-width="1" fill="blue" opacity="1" tooltip="enable"><title>(0.0544218,9)</title></rect><rect x="258" y="199.375" width="6" height="0.625" stroke="black" stroke-width="1" fill="blue" opacity="1" tooltip="enable"><title>(0.0557175,3)</title></rect><rect x="264" y="198.958" width="6" height="1.04167" stroke="black" stroke-width="1" fill="blue" opacity="1" tooltip="enable"><title>(0.0570133,5)</title></rect><rect x="270" y="198.75" width="6" height="1.25" stroke="black" stroke-width="1" fill="blue" opacity="1" tooltip="enable"><title>(0.0583091,6)</title></rect><rect x="276" y="200" width="6" height="0" stroke="black" stroke-width="1" fill="blue" opacity="1" tooltip="enable"><title>(0.0596048,0)</title></rect><rect x="282" y="200" width="6" height="0" stroke="black" stroke-width="1" fill="blue" opacity="1" tooltip="enable"><title>(0.0609006,0)</title></rect><rect x="288" y="200" width="6" height="0" stroke="black" stroke-width="1" fill="blue" opacity="1" tooltip="enable"><title>(0.0621963,0)</title></rect><rect x="294" y="199.583" width="6" height="0.416667" stroke="black" stroke-width="1" fill="blue" opacity="1" tooltip="enable"><title>(0.0634921,2)</title></rect><rect x="300" y="200" width="6" height="0" stroke="black" stroke-width="1" fill="blue" opacity="1" tooltip="enable"><title>(0.0647878,0)</title></rect><rect x="306" y="200" width="6" height="0" stroke="black" stroke-width="1" fill="blue" opacity="1" tooltip="enable"><title>(0.0660836,0)</title></rect><rect x="312" y="200" width="6" height="0" stroke="black" stroke-width="1" fill="blue" opacity="1" tooltip="enable"><title>(0.0673794,0)</title></rect><rect x="318" y="200" width="6" height="0" stroke="black" stroke-width="1" fill="blue" opacity="1" tooltip="enable"><title>(0.0686751,0)</title></rect><rect x="324" y="200" width="6" height="0" stroke="black" stroke-width="1" fill="blue" opacity="1" tooltip="enable"><title>(0.0699709,0)</title></rect><rect x="330" y="200" width="6" height="0" stroke="black" stroke-width="1" fill="blue" opacity="1" tooltip="enable"><title>(0.0712666,0)</title></rect><rect x="336" y="200" width="6" height="0" stroke="black" stroke-width="1" fill="blue" opacity="1" tooltip="enable"><title>(0.0725624,0)</title></rect><rect x="342" y="200" width="6" height="0" stroke="black" stroke-width="1" fill="blue" opacity="1" tooltip="enable"><title>(0.0738581,0)</title></rect><rect x="348" y="200" width="6" height="0" stroke="black" stroke-width="1" fill="blue" opacity="1" tooltip="enable"><title>(0.0751539,0)</title></rect><rect x="354" y="200" width="6" height="0" stroke="black" stroke-width="1" fill="blue" opacity="1" tooltip="enable"><title>(0.0764496,0)</title></rect><rect x="360" y="200" width="6" height="0" stroke="black" stroke-width="1" fill="blue" opacity="1" tooltip="enable"><title>(0.0777454,0)</title></rect><rect x="366" y="200" width="6" height="0" stroke="black" stroke-width="1" fill="blue" opacity="1" tooltip="enable"><title>(0.0790412,0)</title></rect><rect x="372" y="200" width="6" height="0" stroke="black" stroke-width="1" fill="blue" opacity="1" tooltip="enable"><title>(0.0803369,0)</title></rect><rect x="378" y="200" width="6" height="0" stroke="black" stroke-width="1" fill="blue" opacity="1" tooltip="enable"><title>(0.0816327,0)</title></rect><rect x="384" y="200" width="6" height="0" stroke="black" stroke-width="1" fill="blue" opacity="1" tooltip="enable"><title>(0.0829284,0)</title></rect><rect x="390" y="200" width="6" height="0" stroke="black" stroke-width="1" fill="blue" opacity="1" tooltip="enable"><title>(0.0842242,0)</title></rect><rect x="396" y="200" width="6" height="0" stroke="black" stroke-width="1" fill="blue" opacity="1" tooltip="enable"><title>(0.08552,0)</title></rect><rect x="402" y="200" width="6" height="0" stroke="black" stroke-width="1" fill="blue" opacity="1" tooltip="enable"><title>(0.0868157,0)</title></rect><rect x="408" y="200" width="6" height="0" stroke="black" stroke-width="1" fill="blue" opacity="1" tooltip="enable"><title>(0.0881115,0)</title></rect><rect x="414" y="200" width="6" height="0" stroke="black" stroke-width="1" fill="blue" opacity="1" tooltip="enable"><title>(0.0894072,0)</title></rect><rect x="420" y="199.583" width="6" height="0.416667" stroke="black" stroke-width="1" fill="blue" opacity="1" tooltip="enable"><title>(0.090703,2)</title></rect><rect x="426" y="200" width="6" height="0" stroke="black" stroke-width="1" fill="blue" opacity="1" tooltip="enable"><title>(0.0919987,0)</title></rect><rect x="432" y="200" width="6" height="0" stroke="black" stroke-width="1" fill="blue" opacity="1" tooltip="enable"><title>(0.0932945,0)</title></rect><rect x="438" y="200" width="6" height="0" stroke="black" stroke-width="1" fill="blue" opacity="1" tooltip="enable"><title>(0.0945903,0)</title></rect><rect x="444" y="200" width="6" height="0" stroke="black" stroke-width="1" fill="blue" opacity="1" tooltip="enable"><title>(0.095886,0)</title></rect><rect x="450" y="200" width="6" height="0" stroke="black" stroke-width="1" fill="blue" opacity="1" tooltip="enable"><title>(0.0971818,0)</title></rect><rect x="456" y="200" width="6" height="0" stroke="black" stroke-width="1" fill="blue" opacity="1" tooltip="enable"><title>(0.0984775,0)</title></rect><rect x="462" y="200" width="6" height="0" stroke="black" stroke-width="1" fill="blue" opacity="1" tooltip="enable"><title>(0.0997733,0)</title></rect><rect x="468" y="200" width="6" height="0" stroke="black" stroke-width="1" fill="blue" opacity="1" tooltip="enable"><title>(0.101069,0)</title></rect><rect x="474" y="200" width="6" height="0" stroke="black" stroke-width="1" fill="blue" opacity="1" tooltip="enable"><title>(0.102365,0)</title></rect><rect x="480" y="200" width="6" height="0" stroke="black" stroke-width="1" fill="blue" opacity="1" tooltip="enable"><title>(0.103661,0)</title></rect><rect x="486" y="200" width="6" height="0" stroke="black" stroke-width="1" fill="blue" opacity="1" tooltip="enable"><title>(0.104956,0)</title></rect><rect x="492" y="200" width="6" height="0" stroke="black" stroke-width="1" fill="blue" opacity="1" tooltip="enable"><title>(0.106252,0)</title></rect><rect x="498" y="200" width="6" height="0" stroke="black" stroke-width="1" fill="blue" opacity="1" tooltip="enable"><title>(0.107548,0)</title></rect><rect x="504" y="200" width="6" height="0" stroke="black" stroke-width="1" fill="blue" opacity="1" tooltip="enable"><title>(0.108844,0)</title></rect><rect x="510" y="199.583" width="6" height="0.416667" stroke="black" stroke-width="1" fill="blue" opacity="1" tooltip="enable"><title>(0.110139,2)</title></rect><rect x="516" y="200" width="6" height="0" stroke="black" stroke-width="1" fill="blue" opacity="1" tooltip="enable"><title>(0.111435,0)</title></rect><rect x="522" y="200" width="6" height="0" stroke="black" stroke-width="1" fill="blue" opacity="1" tooltip="enable"><title>(0.112731,0)</title></rect><rect x="528" y="200" width="6" height="0" stroke="black" stroke-width="1" fill="blue" opacity="1" tooltip="enable"><title>(0.114027,0)</title></rect><rect x="534" y="200" width="6" height="0" stroke="black" stroke-width="1" fill="blue" opacity="1" tooltip="enable"><title>(0.115322,0)</title></rect><rect x="540" y="199.583" width="6" height="0.416667" stroke="black" stroke-width="1" fill="blue" opacity="1" tooltip="enable"><title>(0.116618,2)</title></rect><rect x="546" y="200" width="6" height="0" stroke="black" stroke-width="1" fill="blue" opacity="1" tooltip="enable"><title>(0.117914,0)</title></rect><rect x="552" y="200" width="6" height="0" stroke="black" stroke-width="1" fill="blue" opacity="1" tooltip="enable"><title>(0.11921,0)</title></rect><rect x="558" y="200" width="6" height="0" stroke="black" stroke-width="1" fill="blue" opacity="1" tooltip="enable"><title>(0.120505,0)</title></rect><rect x="564" y="200" width="6" height="0" stroke="black" stroke-width="1" fill="blue" opacity="1" tooltip="enable"><title>(0.121801,0)</title></rect><rect x="570" y="200" width="6" height="0" stroke="black" stroke-width="1" fill="blue" opacity="1" tooltip="enable"><title>(0.123097,0)</title></rect><rect x="576" y="200" width="6" height="0" stroke="black" stroke-width="1" fill="blue" opacity="1" tooltip="enable"><title>(0.124393,0)</title></rect><rect x="582" y="200" width="6" height="0" stroke="black" stroke-width="1" fill="blue" opacity="1" tooltip="enable"><title>(0.125688,0)</title></rect><rect x="588" y="200" width="6" height="0" stroke="black" stroke-width="1" fill="blue" opacity="1" tooltip="enable"><title>(0.126984,0)</title></rect><rect x="594" y="199.792" width="6" height="0.208333" stroke="black" stroke-width="1" fill="blue" opacity="1" tooltip="enable"><title>(0.12828,1)</title></rect><text x="30" y="240" font-size="20" fill="black">0</text>
<text x="600" y="240" font-size="20" fill="black">0.129576</text>
<polyline points="0,220,600,220" stroke="black" stroke-width="1" fill="none" opacity="1"/>
<text x="720" y="20" font-size="20" fill="black">960</text>
<text x="720" y="200" font-size="20" fill="black">0</text>
<polyline points="660,0,660,200" stroke="black" stroke-width="1" fill="none" opacity="1"/>
</svg>