<?xml version="1.0" standalone="yes"?>
<!-- SVG graphic -->
<svg xmlns='http://www.w3.org/2000/svg' xmlns:xlink='http://www.w3.org/1999/xlink'
 version="1.1">
<rect x="0" y="1.52588e-05" width="6" height="200" stroke="black" stroke-width="1" fill="blue" opacity="1" tooltip="enable"><title>(0,1186)</title></rect><rect x="6" y="12.4789" width="6" height="187.521" stroke="black" stroke-width="1" fill="blue" opacity="1" tooltip="enable"><title>(0.00122457,1112)</title></rect><rect x="12" y="29.3423" width="6" height="170.658" stroke="black" stroke-width="1" fill="blue" opacity="1" tooltip="enable"><title>(0.00244915,1012)</title></rect><rect x="18" y="91.3997" width="6" height="108.6" stroke="black" stroke-width="1" fill="blue" opacity="1" tooltip="enable"><title>(0.00367372,644)</title></rect><rect x="24" y="131.535" width="6" height="68.4654" stroke="black" stroke-width="1" fill="blue" opacity="1" tooltip="enable"><title>(0.00489829,406)</title></rect><rect x="30" y="167.116" width="6" height="32.8836" stroke="black" stroke-width="1" fill="blue" opacity="1" tooltip="enable"><title>(0.00612287,195)</title></rect><rect x="36" y="166.105" width="6" height="33.8954" stroke="black" stroke-width="1" fill="blue" opacity="1" tooltip="enable"><title>(0.00734744,201)</title></rect><rect x="42" y="168.971" width="6" height="31.0287" stroke="black" stroke-width="1" fill="blue" opacity="1" tooltip="enable"><title>(0.00857202,184)</title></rect><rect x="48" y="178.752" width="6" height="21.2479" stroke="black" stroke-width="1" fill="blue" opacity="1" tooltip="enable"><title>(0.00979659,126)</title></rect><rect x="54" y="176.223" width="6" height="23.7774" stroke="black" stroke-width="1" fill="blue" opacity="1" tooltip="enable"><title>(0.0110212,141)</title></rect><rect x="60" y="179.258" width="6" height="20.742" stroke="black" stroke-width="1" fill="blue" opacity="1" tooltip="enable"><title>(0.0122457,123)</title></rect><rect x="66" y="175.885" width="6" height="24.1147" stroke="black" stroke-width="1" fill="blue" opacity="1" tooltip="enable"><title>(0.0134703,143)</title></rect><rect x="72" y="180.27" width="6" height="19.7302" stroke="black" stroke-width="1" fill="blue" opacity="1" tooltip="enable"><title>(0.0146949,117)</title></rect><rect x="78" y="179.089" width="6" height="20.9106" stroke="black" stroke-width="1" fill="blue" opacity="1" tooltip="enable"><title>(0.0159195,124)</title></rect><rect x="84" y="178.078" width="6" height="21.9224" stroke="black" stroke-width="1" fill="blue" opacity="1" tooltip="enable"><title>(0.017144,130)</title></rect><rect x="90" y="179.427" width="6" height="20.5734" stroke="black" stroke-width="1" fill="blue" opacity="1" tooltip="enable"><title>(0.0183686,122)</title></rect><rect x="96" y="177.74" width="6" height="22.2597" stroke="black" stroke-width="1" fill="blue" opacity="1" tooltip="enable"><title>(0.0195932,132)</title></rect><rect x="102" y="171.669" width="6" height="28.3305" stroke="black" stroke-width="1" fill="blue" opacity="1" tooltip="enable"><title>(0.0208178,168)</title></rect><rect x="108" y="184.486" width="6" height="15.5143" stroke="black" stroke-width="1" fill="blue" opacity="1" tooltip="enable"><title>(0.0220423,92)</title></rect><rect x="114" y="181.956" width="6" height="18.0438" stroke="black" stroke-width="1" fill="blue" opacity="1" tooltip="enable"><title>(0.0232669,107)</title></rect><rect x="120" y="184.992" width="6" height="15.0084" stroke="black" stroke-width="1" fill="blue" opacity="1" tooltip="enable"><title>(0.0244915,89)</title></rect><rect x="126" y="185.329" width="6" height="14.6712" stroke="black" stroke-width="1" fill="blue" opacity="1" tooltip="enable"><title>(0.025716,87)</title></rect><rect x="132" y="183.98" width="6" height="16.0202" stroke="black" stroke-width="1" fill="blue" opacity="1" tooltip="enable"><title>(0.0269406,95)</title></rect><rect x="138" y="184.148" width="6" height="15.8516" stroke="black" stroke-width="1" fill="blue" opacity="1" tooltip="enable"><title>(0.0281652,94)</title></rect><rect x="144" y="186.172" width="6" height="13.828" stroke="black" stroke-width="1" fill="blue" opacity="1" tooltip="enable"><title>(0.0293898,82)</title></rect><rect x="150" y="186.172" width="6" height="13.828" stroke="black" stroke-width="1" fill="blue" opacity="1" tooltip="enable"><title>(0.0306143,82)</title></rect><rect x="156" y="181.619" width="6" height="18.3811" stroke="black" stroke-width="1" fill="blue" opacity="1" tooltip="enable"><title>(0.0318389,109)</title></rect><rect x="162" y="184.486" width="6" height="15.5143" stroke="black" stroke-width="1" fill="blue" opacity="1" tooltip="enable"><title>(0.0330635,92)</title></rect><rect x="168" y="187.184" width="6" height="12.8162" stroke="black" stroke-width="1" fill="blue" opacity="1" tooltip="enable"><title>(0.0342881,76)</title></rect><rect x="174" y="183.643" width="6" height="16.3575" stroke="black" stroke-width="1" fill="blue" opacity="1" tooltip="enable"><title>(0.0355126,97)</title></rect><rect x="180" y="191.231" width="6" height="8.76897" stroke="black" stroke-width="1" fill="blue" opacity="1" tooltip="enable"><title>(0.0367372,52)</title></rect><rect x="186" y="190.556" width="6" height="9.44351" stroke="black" stroke-width="1" fill="blue" opacity="1" tooltip="enable"><title>(0.0379618,56)</title></rect><rect x="192" y="188.533" width="6" height="11.4671" stroke="black" stroke-width="1" fill="blue" opacity="1" tooltip="enable"><title>(0.0391864,68)</title></rect><rect x="198" y="191.4" width="6" height="8.60034" stroke="black" stroke-width="1" fill="blue" opacity="1" tooltip="enable"><title>(0.0404109,51)</title></rect><rect x="204" y="192.074" width="6" height="7.9258" stroke="black" stroke-width="1" fill="blue" opacity="1" tooltip="enable"><title>(0.0416355,47)</title></rect><rect x="210" y="192.749" width="6" height="7.25126" stroke="black" stroke-width="1" fill="blue" opacity="1" tooltip="enable"><title>(0.0428601,43)</title></rect><rect x="216" y="194.772" width="6" height="5.22766" stroke="black" stroke-width="1" fill="blue" opacity="1" tooltip="enable"><title>(0.0440847,31)</title></rect><rect x="222" y="197.302" width="6" height="2.69814" stroke="black" stroke-width="1" fill="blue" opacity="1" tooltip="enable"><title>(0.0453092,16)</title></rect><rect x="228" y="196.796" width="6" height="3.20405" stroke="black" stroke-width="1" fill="blue" opacity="1" tooltip="enable"><title>(0.0465338,19)</title></rect><rect x="234" y="196.796" width="6" height="3.20405" stroke="black" stroke-width="1" fill="blue" opacity="1" tooltip="enable"><title>(0.0477584,19)</title></rect><rect x="240" y="196.965" width="6" height="3.03541" stroke="black" stroke-width="1" fill="blue" opacity="1" tooltip="enable"><title>(0.0489829,18)</title></rect><rect x="246" y="197.639" width="6" height="2.36088" stroke="black" stroke-width="1" fill="blue" opacity="1" tooltip="enable"><title>(0.0502075,14)</title></rect><rect x="252" y="197.302" width="6" height="2.69814" stroke="black" stroke-width="1" fill="blue" opacity="1" tooltip="enable"><title>(0.0514321,16)</title></rect><rect x="258" y="198.988" width="6" height="1.0118" stroke="black" stroke-width="1" fill="blue" opacity="1" tooltip="enable"><title>(0.0526567,6)</title></rect><rect x="264" y="197.47" width="6" height="2.52951" stroke="black" stroke-width="1" fill="blue" opacity="1" tooltip="enable"><title>(0.0538812,15)</title></rect><rect x="270" y="198.145" width="6" height="1.85497" stroke="black" stroke-width="1" fill="blue" opacity="1" tooltip="enable"><title>(0.0551058,11)</title></rect><rect x="276" y="198.314" width="6" height="1.68634" stroke="black" stroke-width="1" fill="blue" opacity="1" tooltip="enable"><title>(0.0563304,10)</title></rect><rect x="282" y="198.314" width="6" height="1.68634" stroke="black" stroke-width="1" fill="blue" opacity="1" tooltip="enable"><title>(0.057555,10)</title></rect><rect x="288" y="198.314" width="6" height="1.68634" stroke="black" stroke-width="1" fill="blue" opacity="1" tooltip="enable"><title>(0.0587795,10)</title></rect><rect x="294" y="197.639" width="6" height="2.36088" stroke="black" stroke-width="1" fill="blue" opacity="1" tooltip="enable"><title>(0.0600041,14)</title></rect><rect x="300" y="199.325" width="6" height="0.674536" stroke="black" stroke-width="1" fill="blue" opacity="1" tooltip="enable"><title>(0.0612287,4)</title></rect><rect x="306" y="198.988" width="6" height="1.0118" stroke="black" stroke-width="1" fill="blue" opacity="1" tooltip="enable"><title>(0.0624533,6)</title></rect><rect x="312" y="198.988" width="6" height="1.0118" stroke="black" stroke-width="1" fill="blue" opacity="1" tooltip="enable"><title>(0.0636778,6)</title></rect><rect x="318" y="198.482" width="6" height="1.51771" stroke="black" stroke-width="1" fill="blue" opacity="1" tooltip="enable"><title>(0.0649024,9)</title></rect><rect x="324" y="198.82" width="6" height="1.18044" stroke="black" stroke-width="1" fill="blue" opacity="1" tooltip="enable"><title>(0.066127,7)</title></rect><rect x="330" y="198.988" width="6" height="1.0118" stroke="black" stroke-width="1" fill="blue" opacity="1" tooltip="enable"><title>(0.0673516,6)</title></rect><rect x="336" y="198.988" width="6" height="1.0118" stroke="black" stroke-width="1" fill="blue" opacity="1" tooltip="enable"><title>(0.0685761,6)</title></rect><rect x="342" y="198.651" width="6" height="1.34907" stroke="black" stroke-width="1" fill="blue" opacity="1" tooltip="enable"><title>(0.0698007,8)</title></rect><rect x="348" y="198.988" width="6" height="1.0118" stroke="black" stroke-width="1" fill="blue" opacity="1" tooltip="enable"><title>(0.0710253,6)</title></rect><rect x="354" y="199.663" width="6" height="0.337268" stroke="black" stroke-width="1" fill="blue" opacity="1" tooltip="enable"><title>(0.0722498,2)</title></rect><rect x="360" y="199.663" width="6" height="0.337268" stroke="black" stroke-width="1" fill="blue" opacity="1" tooltip="enable"><title>(0.0734744,2)</title></rect><rect x="366" y="198.988" width="6" height="1.0118" stroke="black" stroke-width="1" fill="blue" opacity="1" tooltip="enable"><title>(0.074699,6)</title></rect><rect x="372" y="198.988" width="6" height="1.0118" stroke="black" stroke-width="1" fill="blue" opacity="1" tooltip="enable"><title>(0.0759236,6)</title></rect><rect x="378" y="200" width="6" height="0" stroke="black" stroke-width="1" fill="blue" opacity="1" tooltip="enable"><title>(0.0771481,0)</title></rect><rect x="384" y="199.325" width="6" height="0.674536" stroke="black" stroke-width="1" fill="blue" opacity="1" tooltip="enable"><title>(0.0783727,4)</title></rect><rect x="390" y="199.325" width="6" height="0.674536" stroke="black" stroke-width="1" fill="blue" opacity="1" tooltip="enable"><title>(0.0795973,4)</title></rect><rect x="396" y="199.325" width="6" height="0.674536" stroke="black" stroke-width="1" fill="blue" opacity="1" tooltip="enable"><title>(0.0808219,4)</title></rect><rect x="402" y="199.325" width="6" height="0.674536" stroke="black" stroke-width="1" fill="blue" opacity="1" tooltip="enable"><title>(0.0820464,4)</title></rect><rect x="408" y="199.663" width="6" height="0.337268" stroke="black" stroke-width="1" fill="blue" opacity="1" tooltip="enable"><title>(0.083271,2)</title></rect><rect x="414" y="200" width="6" height="0" stroke="black" stroke-width="1" fill="blue" opacity="1" tooltip="enable"><title>(0.0844956,0)</title></rect><rect x="420" y="199.663" width="6" height="0.337268" stroke="black" stroke-width="1" fill="blue" opacity="1" tooltip="enable"><title>(0.0857202,2)</title></rect><rect x="426" y="200" width="6" height="0" stroke="black" stroke-width="1" fill="blue" opacity="1" tooltip="enable"><title>(0.0869447,0)</title></rect><rect x="432" y="199.663" width="6" height="0.337268" stroke="black" stroke-width="1" fill="blue" opacity="1" tooltip="enable"><title>(0.0881693,2)</title></rect><rect x="438" y="200" width="6" height="0" stroke="black" stroke-width="1" fill="blue" opacity="1" tooltip="enable"><title>(0.0893939,0)</title></rect><rect x="444" y="199.663" width="6" height="0.337268" stroke="black" stroke-width="1" fill="blue" opacity="1" tooltip="enable"><title>(0.0906185,2)</title></rect><rect x="450" y="200" width="6" height="0" stroke="black" stroke-width="1" fill="blue" opacity="1" tooltip="enable"><title>(0.091843,0)</title></rect><rect x="456" y="200" width="6" height="0" stroke="black" stroke-width="1" fill="blue" opacity="1" tooltip="enable"><title>(0.0930676,0)</title></rect><rect x="462" y="199.663" width="6" height="0.337268" stroke="black" stroke-width="1" fill="blue" opacity="1" tooltip="enable"><title>(0.0942922,2)</title></rect><rect x="468" y="199.663" width="6" height="0.337268" stroke="black" stroke-width="1" fill="blue" opacity="1" tooltip="enable"><title>(0.0955167,2)</title></rect><rect x="474" y="200" width="6" height="0" stroke="black" stroke-width="1" fill="blue" opacity="1" tooltip="enable"><title>(0.0967413,0)</title></rect><rect x="480" y="199.663" width="6" height="0.337268" stroke="black" stroke-width="1" fill="blue" opacity="1" tooltip="enable"><title>(0.0979659,2)</title></rect><rect x="486" y="200" width="6" height="0" stroke="black" stroke-width="1" fill="blue" opacity="1" tooltip="enable"><title>(0.0991905,0)</title></rect><rect x="492" y="200" width="6" height="0" stroke="black" stroke-width="1" fill="blue" opacity="1" tooltip="enable"><title>(0.100415,0)</title></rect><rect x="498" y="200" width="6" height="0" stroke="black" stroke-width="1" fill="blue" opacity="1" tooltip="enable"><title>(0.10164,0)</title></rect><rect x="504" y="200" width="6" height="0" stroke="black" stroke-width="1" fill="blue" opacity="1" tooltip="enable"><title>(0.102864,0)</title></rect><rect x="510" y="200" width="6" height="0" stroke="black" stroke-width="1" fill="blue" opacity="1" tooltip="enable"><title>(0.104089,0)</title></rect><rect x="516" y="200" width="6" height="0" stroke="black" stroke-width="1" fill="blue" opacity="1" tooltip="enable"><title>(0.105313,0)</title></rect><rect x="522" y="200" width="6" height="0" stroke="black" stroke-width="1" fill="blue" opacity="1" tooltip="enable"><title>(0.106538,0)</title></rect><rect x="528" y="200" width="6" height="0" stroke="black" stroke-width="1" fill="blue" opacity="1" tooltip="enable"><title>(0.107762,0)</title></rect><rect x="534" y="200" width="6" height="0" stroke="black" stroke-width="1" fill="blue" opacity="1" tooltip="enable"><title>(0.108987,0)</title></rect><rect x="540" y="200" width="6" height="0" stroke="black" stroke-width="1" fill="blue" opacity="1" tooltip="enable"><title>(0.110212,0)</title></rect><rect x="546" y="200" width="6" height="0" stroke="black" stroke-width="1" fill="blue" opacity="1" tooltip="enable"><title>(0.111436,0)</title></rect><rect x="552" y="200" width="6" height="0" stroke="black" stroke-width="1" fill="blue" opacity="1" tooltip="enable"><title>(0.112661,0)</title></rect><rect x="558" y="200" width="6" height="0" stroke="black" stroke-width="1" fill="blue" opacity="1" tooltip="enable"><title>(0.113885,0)</title></rect><rect x="564" y="200" width="6" height="0" stroke="black" stroke-width="1" fill="blue" opacity="1" tooltip="enable"><title>(0.11511,0)</title></rect><rect x="570" y="200" width="6" height="0" stroke="black" stroke-width="1" fill="blue" opacity="1" tooltip="enable"><title>(0.116334,0)</title></rect><rect x="576" y="200" width="6" height="0" stroke="black" stroke-width="1" fill="blue" opacity="1" tooltip="enable"><title>(0.117559,0)</title></rect><rect x="582" y="200" width="6" height="0" stroke="black" stroke-width="1" fill="blue" opacity="1" tooltip="enable"><title>(0.118784,0)</title></rect><rect x="588" y="200" width="6" height="0" stroke="black" stroke-width="1" fill="blue" opacity="1" tooltip="enable"><title>(0.120008,0)</title></rect><rect x="594" y="199.831" width="6" height="0.168634" stroke="black" stroke-width="1" fill="blue" opacity="1" tooltip="enable"><title>(0.121233,1)</title></rect><text x="30" y="240" font-size="20" fill="black">0</text>
<text x="600" y="240" font-size="20" fill="black">0.122457</text>
<polyline points="0,220,600,220" stroke="black" stroke-width="1" fill="none" opacity="1"/>
<text x="720" y="20" font-size="20" fill="black">1186</text>
<text x="720" y="200" font-size="20" fill="black">0</text>
<polyline points="660,0,660,200" stroke="black" stroke-width="1" fill="none" opacity="1"/>
</svg>