<?xml version="1.0" standalone="yes"?>
<!-- SVG graphic -->
<svg xmlns='http://www.w3.org/2000/svg' xmlns:xlink='http://www.w3.org/1999/xlink'
 version="1.1">
<rect x="0" y="0" width="6" height="200" stroke="black" stroke-width="1" fill="blue" opacity="1" tooltip="enable"><title>(0,2979)</title></rect><rect x="6" y="139.04" width="6" height="60.9601" stroke="black" stroke-width="1" fill="blue" opacity="1" tooltip="enable"><title>(0.000654612,908)</title></rect><rect x="12" y="170.191" width="6" height="29.8087" stroke="black" stroke-width="1" fill="blue" opacity="1" tooltip="enable"><title>(0.00130922,444)</title></rect><rect x="18" y="184.626" width="6" height="15.3743" stroke="black" stroke-width="1" fill="blue" opacity="1" tooltip="enable"><title>(0.00196383,229)</title></rect><rect x="24" y="188.721" width="6" height="11.279" stroke="black" stroke-width="1" fill="blue" opacity="1" tooltip="enable"><title>(0.00261845,168)</title></rect><rect x="30" y="191.407" width="6" height="8.59349" stroke="black" stroke-width="1" fill="blue" opacity="1" tooltip="enable"><title>(0.00327306,128)</title></rect><rect x="36" y="189.795" width="6" height="10.2048" stroke="black" stroke-width="1" fill="blue" opacity="1" tooltip="enable"><title>(0.00392767,152)</title></rect><rect x="42" y="191.474" width="6" height="8.52635" stroke="black" stroke-width="1" fill="blue" opacity="1" tooltip="enable"><title>(0.00458228,127)</title></rect><rect x="48" y="191.138" width="6" height="8.86203" stroke="black" stroke-width="1" fill="blue" opacity="1" tooltip="enable"><title>(0.00523689,132)</title></rect><rect x="54" y="191.339" width="6" height="8.66062" stroke="black" stroke-width="1" fill="blue" opacity="1" tooltip="enable"><title>(0.0058915,129)</title></rect><rect x="60" y="190.802" width="6" height="9.19772" stroke="black" stroke-width="1" fill="blue" opacity="1" tooltip="enable"><title>(0.00654612,137)</title></rect><rect x="66" y="190.534" width="6" height="9.46626" stroke="black" stroke-width="1" fill="blue" opacity="1" tooltip="enable"><title>(0.00720073,141)</title></rect><rect x="72" y="193.286" width="6" height="6.71366" stroke="black" stroke-width="1" fill="blue" opacity="1" tooltip="enable"><title>(0.00785534,100)</title></rect><rect x="78" y="192.414" width="6" height="7.58644" stroke="black" stroke-width="1" fill="blue" opacity="1" tooltip="enable"><title>(0.00850995,113)</title></rect><rect x="84" y="192.279" width="6" height="7.72071" stroke="black" stroke-width="1" fill="blue" opacity="1" tooltip="enable"><title>(0.00916456,115)</title></rect><rect x="90" y="193.555" width="6" height="6.44512" stroke="black" stroke-width="1" fill="blue" opacity="1" tooltip="enable"><title>(0.00981917,96)</title></rect><rect x="96" y="193.555" width="6" height="6.44512" stroke="black" stroke-width="1" fill="blue" opacity="1" tooltip="enable"><title>(0.0104738,96)</title></rect><rect x="102" y="195.3" width="6" height="4.69956" stroke="black" stroke-width="1" fill="blue" opacity="1" tooltip="enable"><title>(0.0111284,70)</title></rect><rect x="108" y="194.495" width="6" height="5.5052" stroke="black" stroke-width="1" fill="blue" opacity="1" tooltip="enable"><title>(0.011783,82)</title></rect><rect x="114" y="195.77" width="6" height="4.22961" stroke="black" stroke-width="1" fill="blue" opacity="1" tooltip="enable"><title>(0.0124376,63)</title></rect><rect x="120" y="194.428" width="6" height="5.57234" stroke="black" stroke-width="1" fill="blue" opacity="1" tooltip="enable"><title>(0.0130922,83)</title></rect><rect x="126" y="195.099" width="6" height="4.90097" stroke="black" stroke-width="1" fill="blue" opacity="1" tooltip="enable"><title>(0.0137468,73)</title></rect><rect x="132" y="195.368" width="6" height="4.63243" stroke="black" stroke-width="1" fill="blue" opacity="1" tooltip="enable"><title>(0.0144015,69)</title></rect><rect x="138" y="195.233" width="6" height="4.7667" stroke="black" stroke-width="1" fill="blue" opacity="1" tooltip="enable"><title>(0.0150561,71)</title></rect><rect x="144" y="195.502" width="6" height="4.49815" stroke="black" stroke-width="1" fill="blue" opacity="1" tooltip="enable"><title>(0.0157107,67)</title></rect><rect x="150" y="195.636" width="6" height="4.36388" stroke="black" stroke-width="1" fill="blue" opacity="1" tooltip="enable"><title>(0.0163653,65)</title></rect><rect x="156" y="196.307" width="6" height="3.69251" stroke="black" stroke-width="1" fill="blue" opacity="1" tooltip="enable"><title>(0.0170199,55)</title></rect><rect x="162" y="195.703" width="6" height="4.29674" stroke="black" stroke-width="1" fill="blue" opacity="1" tooltip="enable"><title>(0.0176745,64)</title></rect><rect x="168" y="196.845" width="6" height="3.15542" stroke="black" stroke-width="1" fill="blue" opacity="1" tooltip="enable"><title>(0.0183291,47)</title></rect><rect x="174" y="196.71" width="6" height="3.28969" stroke="black" stroke-width="1" fill="blue" opacity="1" tooltip="enable"><title>(0.0189837,49)</title></rect><rect x="180" y="197.449" width="6" height="2.55119" stroke="black" stroke-width="1" fill="blue" opacity="1" tooltip="enable"><title>(0.0196383,38)</title></rect><rect x="186" y="197.919" width="6" height="2.08124" stroke="black" stroke-width="1" fill="blue" opacity="1" tooltip="enable"><title>(0.020293,31)</title></rect><rect x="192" y="196.442" width="6" height="3.55824" stroke="black" stroke-width="1" fill="blue" opacity="1" tooltip="enable"><title>(0.0209476,53)</title></rect><rect x="198" y="197.18" width="6" height="2.81974" stroke="black" stroke-width="1" fill="blue" opacity="1" tooltip="enable"><title>(0.0216022,42)</title></rect><rect x="204" y="196.509" width="6" height="3.4911" stroke="black" stroke-width="1" fill="blue" opacity="1" tooltip="enable"><title>(0.0222568,52)</title></rect><rect x="210" y="197.852" width="6" height="2.14837" stroke="black" stroke-width="1" fill="blue" opacity="1" tooltip="enable"><title>(0.0229114,32)</title></rect><rect x="216" y="197.717" width="6" height="2.28265" stroke="black" stroke-width="1" fill="blue" opacity="1" tooltip="enable"><title>(0.023566,34)</title></rect><rect x="222" y="198.322" width="6" height="1.67842" stroke="black" stroke-width="1" fill="blue" opacity="1" tooltip="enable"><title>(0.0242206,25)</title></rect><rect x="228" y="196.307" width="6" height="3.69251" stroke="black" stroke-width="1" fill="blue" opacity="1" tooltip="enable"><title>(0.0248752,55)</title></rect><rect x="234" y="198.053" width="6" height="1.94696" stroke="black" stroke-width="1" fill="blue" opacity="1" tooltip="enable"><title>(0.0255299,29)</title></rect><rect x="240" y="197.717" width="6" height="2.28265" stroke="black" stroke-width="1" fill="blue" opacity="1" tooltip="enable"><title>(0.0261845,34)</title></rect><rect x="246" y="198.322" width="6" height="1.67842" stroke="black" stroke-width="1" fill="blue" opacity="1" tooltip="enable"><title>(0.0268391,25)</title></rect><rect x="252" y="198.12" width="6" height="1.87983" stroke="black" stroke-width="1" fill="blue" opacity="1" tooltip="enable"><title>(0.0274937,28)</title></rect><rect x="258" y="198.59" width="6" height="1.40987" stroke="black" stroke-width="1" fill="blue" opacity="1" tooltip="enable"><title>(0.0281483,21)</title></rect><rect x="264" y="197.986" width="6" height="2.0141" stroke="black" stroke-width="1" fill="blue" opacity="1" tooltip="enable"><title>(0.0288029,30)</title></rect><rect x="270" y="199.127" width="6" height="0.872776" stroke="black" stroke-width="1" fill="blue" opacity="1" tooltip="enable"><title>(0.0294575,13)</title></rect><rect x="276" y="198.523" width="6" height="1.47701" stroke="black" stroke-width="1" fill="blue" opacity="1" tooltip="enable"><title>(0.0301121,22)</title></rect><rect x="282" y="198.59" width="6" height="1.40987" stroke="black" stroke-width="1" fill="blue" opacity="1" tooltip="enable"><title>(0.0307667,21)</title></rect><rect x="288" y="198.724" width="6" height="1.2756" stroke="black" stroke-width="1" fill="blue" opacity="1" tooltip="enable"><title>(0.0314214,19)</title></rect><rect x="294" y="198.389" width="6" height="1.61128" stroke="black" stroke-width="1" fill="blue" opacity="1" tooltip="enable"><title>(0.032076,24)</title></rect><rect x="300" y="198.322" width="6" height="1.67842" stroke="black" stroke-width="1" fill="blue" opacity="1" tooltip="enable"><title>(0.0327306,25)</title></rect><rect x="306" y="198.322" width="6" height="1.67842" stroke="black" stroke-width="1" fill="blue" opacity="1" tooltip="enable"><title>(0.0333852,25)</title></rect><rect x="312" y="198.657" width="6" height="1.34273" stroke="black" stroke-width="1" fill="blue" opacity="1" tooltip="enable"><title>(0.0340398,20)</title></rect><rect x="318" y="198.993" width="6" height="1.00705" stroke="black" stroke-width="1" fill="blue" opacity="1" tooltip="enable"><title>(0.0346944,15)</title></rect><rect x="324" y="199.194" width="6" height="0.80564" stroke="black" stroke-width="1" fill="blue" opacity="1" tooltip="enable"><title>(0.035349,12)</title></rect><rect x="330" y="198.859" width="6" height="1.14132" stroke="black" stroke-width="1" fill="blue" opacity="1" tooltip="enable"><title>(0.0360036,17)</title></rect><rect x="336" y="199.597" width="6" height="0.40282" stroke="black" stroke-width="1" fill="blue" opacity="1" tooltip="enable"><title>(0.0366582,6)</title></rect><rect x="342" y="199.463" width="6" height="0.537093" stroke="black" stroke-width="1" fill="blue" opacity="1" tooltip="enable"><title>(0.0373129,8)</title></rect><rect x="348" y="198.926" width="6" height="1.07419" stroke="black" stroke-width="1" fill="blue" opacity="1" tooltip="enable"><title>(0.0379675,16)</title></rect><rect x="354" y="198.926" width="6" height="1.07419" stroke="black" stroke-width="1" fill="blue" opacity="1" tooltip="enable"><title>(0.0386221,16)</title></rect><rect x="360" y="199.329" width="6" height="0.671366" stroke="black" stroke-width="1" fill="blue" opacity="1" tooltip="enable"><title>(0.0392767,10)</title></rect><rect x="366" y="199.597" width="6" height="0.40282" stroke="black" stroke-width="1" fill="blue" opacity="1" tooltip="enable"><title>(0.0399313,6)</title></rect><rect x="372" y="198.926" width="6" height="1.07419" stroke="black" stroke-width="1" fill="blue" opacity="1" tooltip="enable"><title>(0.0405859,16)</title></rect><rect x="378" y="199.597" width="6" height="0.40282" stroke="black" stroke-width="1" fill="blue" opacity="1" tooltip="enable"><title>(0.0412405,6)</title></rect><rect x="384" y="199.597" width="6" height="0.40282" stroke="black" stroke-width="1" fill="blue" opacity="1" tooltip="enable"><title>(0.0418951,6)</title></rect><rect x="390" y="199.329" width="6" height="0.671366" stroke="black" stroke-width="1" fill="blue" opacity="1" tooltip="enable"><title>(0.0425498,10)</title></rect><rect x="396" y="198.792" width="6" height="1.20846" stroke="black" stroke-width="1" fill="blue" opacity="1" tooltip="enable"><title>(0.0432044,18)</title></rect><rect x="402" y="199.866" width="6" height="0.134273" stroke="black" stroke-width="1" fill="blue" opacity="1" tooltip="enable"><title>(0.043859,2)</title></rect><rect x="408" y="199.329" width="6" height="0.671366" stroke="black" stroke-width="1" fill="blue" opacity="1" tooltip="enable"><title>(0.0445136,10)</title></rect><rect x="414" y="199.329" width="6" height="0.671366" stroke="black" stroke-width="1" fill="blue" opacity="1" tooltip="enable"><title>(0.0451682,10)</title></rect><rect x="420" y="199.664" width="6" height="0.335683" stroke="black" stroke-width="1" fill="blue" opacity="1" tooltip="enable"><title>(0.0458228,5)</title></rect><rect x="426" y="199.396" width="6" height="0.60423" stroke="black" stroke-width="1" fill="blue" opacity="1" tooltip="enable"><title>(0.0464774,9)</title></rect><rect x="432" y="199.731" width="6" height="0.268546" stroke="black" stroke-width="1" fill="blue" opacity="1" tooltip="enable"><title>(0.047132,4)</title></rect><rect x="438" y="199.463" width="6" height="0.537093" stroke="black" stroke-width="1" fill="blue" opacity="1" tooltip="enable"><title>(0.0477866,8)</title></rect><rect x="444" y="199.866" width="6" height="0.134273" stroke="black" stroke-width="1" fill="blue" opacity="1" tooltip="enable"><title>(0.0484413,2)</title></rect><rect x="450" y="199.731" width="6" height="0.268546" stroke="black" stroke-width="1" fill="blue" opacity="1" tooltip="enable"><title>(0.0490959,4)</title></rect><rect x="456" y="200" width="6" height="0" stroke="black" stroke-width="1" fill="blue" opacity="1" tooltip="enable"><title>(0.0497505,0)</title></rect><rect x="462" y="200" width="6" height="0" stroke="black" stroke-width="1" fill="blue" opacity="1" tooltip="enable"><title>(0.0504051,0)</title></rect><rect x="468" y="199.463" width="6" height="0.537093" stroke="black" stroke-width="1" fill="blue" opacity="1" tooltip="enable"><title>(0.0510597,8)</title></rect><rect x="474" y="200" width="6" height="0" stroke="black" stroke-width="1" fill="blue" opacity="1" tooltip="enable"><title>(0.0517143,0)</title></rect><rect x="480" y="200" width="6" height="0" stroke="black" stroke-width="1" fill="blue" opacity="1" tooltip="enable"><title>(0.0523689,0)</title></rect><rect x="486" y="199.866" width="6" height="0.134273" stroke="black" stroke-width="1" fill="blue" opacity="1" tooltip="enable"><title>(0.0530235,2)</title></rect><rect x="492" y="199.866" width="6" height="0.134273" stroke="black" stroke-width="1" fill="blue" opacity="1" tooltip="enable"><title>(0.0536782,2)</title></rect><rect x="498" y="199.463" width="6" height="0.537093" stroke="black" stroke-width="1" fill="blue" opacity="1" tooltip="enable"><title>(0.0543328,8)</title></rect><rect x="504" y="199.866" width="6" height="0.134273" stroke="black" stroke-width="1" fill="blue" opacity="1" tooltip="enable"><title>(0.0549874,2)</title></rect><rect x="510" y="199.731" width="6" height="0.268546" stroke="black" stroke-width="1" fill="blue" opacity="1" tooltip="enable"><title>(0.055642,4)</title></rect><rect x="516" y="200" width="6" height="0" stroke="black" stroke-width="1" fill="blue" opacity="1" tooltip="enable"><title>(0.0562966,0)</title></rect><rect x="522" y="200" width="6" height="0" stroke="black" stroke-width="1" fill="blue" opacity="1" tooltip="enable"><title>(0.0569512,0)</title></rect><rect x="528" y="200" width="6" height="0" stroke="black" stroke-width="1" fill="blue" opacity="1" tooltip="enable"><title>(0.0576058,0)</title></rect><rect x="534" y="200" width="6" height="0" stroke="black" stroke-width="1" fill="blue" opacity="1" tooltip="enable"><title>(0.0582604,0)</title></rect><rect x="540" y="200" width="6" height="0" stroke="black" stroke-width="1" fill="blue" opacity="1" tooltip="enable"><title>(0.058915,0)</title></rect><rect x="546" y="199.866" width="6" height="0.134273" stroke="black" stroke-width="1" fill="blue" opacity="1" tooltip="enable"><title>(0.0595697,2)</title></rect><rect x="552" y="199.866" width="6" height="0.134273" stroke="black" stroke-width="1" fill="blue" opacity="1" tooltip="enable"><title>(0.0602243,2)</title></rect><rect x="558" y="199.866" width="6" height="0.134273" stroke="black" stroke-width="1" fill="blue" opacity="1" tooltip="enable"><title>(0.0608789,2)</title></rect><rect x="564" y="200" width="6" height="0" stroke="black" stroke-width="1" fill="blue" opacity="1" tooltip="enable"><title>(0.0615335,0)</title></rect><rect x="570" y="200" width="6" height="0" stroke="black" stroke-width="1" fill="blue" opacity="1" tooltip="enable"><title>(0.0621881,0)</title></rect><rect x="576" y="200" width="6" height="0" stroke="black" stroke-width="1" fill="blue" opacity="1" tooltip="enable"><title>(0.0628427,0)</title></rect><rect x="582" y="200" width="6" height="0" stroke="black" stroke-width="1" fill="blue" opacity="1" tooltip="enable"><title>(0.0634973,0)</title></rect><rect x="588" y="200" width="6" height="0" stroke="black" stroke-width="1" fill="blue" opacity="1" tooltip="enable"><title>(0.0641519,0)</title></rect><rect x="594" y="199.933" width="6" height="0.0671366" stroke="black" stroke-width="1" fill="blue" opacity="1" tooltip="enable"><title>(0.0648066,1)</title></rect><text x="30" y="240" font-size="20" fill="black">0</text>
<text x="600" y="240" font-size="20" fill="black">0.0654612</text>
<polyline points="0,220,600,220" stroke="black" stroke-width="1" fill="none" opacity="1"/>
<text x="720" y="20" font-size="20" fill="black">2979</text>
<text x="720" y="200" font-size="20" fill="black">0</text>
<polyline points="660,0,660,200" stroke="black" stroke-width="1" fill="none" opacity="1"/>
</svg>