<?xml version="1.0" standalone="yes"?>
<!-- SVG graphic -->
<svg xmlns='http://www.w3.org/2000/svg' xmlns:xlink='http://www.w3.org/1999/xlink'
 version="1.1">
<rect x="0" y="0" width="6" height="200" stroke="black" stroke-width="1" fill="blue" opacity="1" tooltip="enable"><title>(0,3822)</title></rect><rect x="6" y="168.289" width="6" height="31.7111" stroke="black" stroke-width="1" fill="blue" opacity="1" tooltip="enable"><title>(0.00187839,606)</title></rect><rect x="12" y="187.65" width="6" height="12.3496" stroke="black" stroke-width="1" fill="blue" opacity="1" tooltip="enable"><title>(0.00375678,236)</title></rect><rect x="18" y="191.523" width="6" height="8.47724" stroke="black" stroke-width="1" fill="blue" opacity="1" tooltip="enable"><title>(0.00563517,162)</title></rect><rect x="24" y="188.697" width="6" height="11.303" stroke="black" stroke-width="1" fill="blue" opacity="1" tooltip="enable"><title>(0.00751356,216)</title></rect><rect x="30" y="189.116" width="6" height="10.8844" stroke="black" stroke-width="1" fill="blue" opacity="1" tooltip="enable"><title>(0.00939196,208)</title></rect><rect x="36" y="192.36" width="6" height="7.63998" stroke="black" stroke-width="1" fill="blue" opacity="1" tooltip="enable"><title>(0.0112703,146)</title></rect><rect x="42" y="192.726" width="6" height="7.27368" stroke="black" stroke-width="1" fill="blue" opacity="1" tooltip="enable"><title>(0.0131487,139)</title></rect><rect x="48" y="190.947" width="6" height="9.05285" stroke="black" stroke-width="1" fill="blue" opacity="1" tooltip="enable"><title>(0.0150271,173)</title></rect><rect x="54" y="192.36" width="6" height="7.63998" stroke="black" stroke-width="1" fill="blue" opacity="1" tooltip="enable"><title>(0.0169055,146)</title></rect><rect x="60" y="192.412" width="6" height="7.58765" stroke="black" stroke-width="1" fill="blue" opacity="1" tooltip="enable"><title>(0.0187839,145)</title></rect><rect x="66" y="191.68" width="6" height="8.32025" stroke="black" stroke-width="1" fill="blue" opacity="1" tooltip="enable"><title>(0.0206623,159)</title></rect><rect x="72" y="193.407" width="6" height="6.59341" stroke="black" stroke-width="1" fill="blue" opacity="1" tooltip="enable"><title>(0.0225407,126)</title></rect><rect x="78" y="192.465" width="6" height="7.53532" stroke="black" stroke-width="1" fill="blue" opacity="1" tooltip="enable"><title>(0.0244191,144)</title></rect><rect x="84" y="192.622" width="6" height="7.37834" stroke="black" stroke-width="1" fill="blue" opacity="1" tooltip="enable"><title>(0.0262975,141)</title></rect><rect x="90" y="193.878" width="6" height="6.12245" stroke="black" stroke-width="1" fill="blue" opacity="1" tooltip="enable"><title>(0.0281759,117)</title></rect><rect x="96" y="194.453" width="6" height="5.54683" stroke="black" stroke-width="1" fill="blue" opacity="1" tooltip="enable"><title>(0.0300543,106)</title></rect><rect x="102" y="192.674" width="6" height="7.32601" stroke="black" stroke-width="1" fill="blue" opacity="1" tooltip="enable"><title>(0.0319326,140)</title></rect><rect x="108" y="193.354" width="6" height="6.64574" stroke="black" stroke-width="1" fill="blue" opacity="1" tooltip="enable"><title>(0.033811,127)</title></rect><rect x="114" y="192.831" width="6" height="7.16902" stroke="black" stroke-width="1" fill="blue" opacity="1" tooltip="enable"><title>(0.0356894,137)</title></rect><rect x="120" y="194.453" width="6" height="5.54683" stroke="black" stroke-width="1" fill="blue" opacity="1" tooltip="enable"><title>(0.0375678,106)</title></rect><rect x="126" y="194.976" width="6" height="5.02355" stroke="black" stroke-width="1" fill="blue" opacity="1" tooltip="enable"><title>(0.0394462,96)</title></rect><rect x="132" y="195.814" width="6" height="4.18629" stroke="black" stroke-width="1" fill="blue" opacity="1" tooltip="enable"><title>(0.0413246,80)</title></rect><rect x="138" y="197.384" width="6" height="2.61643" stroke="black" stroke-width="1" fill="blue" opacity="1" tooltip="enable"><title>(0.043203,50)</title></rect><rect x="144" y="196.756" width="6" height="3.24437" stroke="black" stroke-width="1" fill="blue" opacity="1" tooltip="enable"><title>(0.0450814,62)</title></rect><rect x="150" y="196.546" width="6" height="3.45369" stroke="black" stroke-width="1" fill="blue" opacity="1" tooltip="enable"><title>(0.0469598,66)</title></rect><rect x="156" y="198.221" width="6" height="1.77917" stroke="black" stroke-width="1" fill="blue" opacity="1" tooltip="enable"><title>(0.0488382,34)</title></rect><rect x="162" y="198.325" width="6" height="1.67452" stroke="black" stroke-width="1" fill="blue" opacity="1" tooltip="enable"><title>(0.0507166,32)</title></rect><rect x="168" y="198.221" width="6" height="1.77917" stroke="black" stroke-width="1" fill="blue" opacity="1" tooltip="enable"><title>(0.0525949,34)</title></rect><rect x="174" y="197.907" width="6" height="2.09314" stroke="black" stroke-width="1" fill="blue" opacity="1" tooltip="enable"><title>(0.0544733,40)</title></rect><rect x="180" y="198.535" width="6" height="1.4652" stroke="black" stroke-width="1" fill="blue" opacity="1" tooltip="enable"><title>(0.0563517,28)</title></rect><rect x="186" y="198.744" width="6" height="1.25589" stroke="black" stroke-width="1" fill="blue" opacity="1" tooltip="enable"><title>(0.0582301,24)</title></rect><rect x="192" y="199.372" width="6" height="0.627944" stroke="black" stroke-width="1" fill="blue" opacity="1" tooltip="enable"><title>(0.0601085,12)</title></rect><rect x="198" y="198.535" width="6" height="1.4652" stroke="black" stroke-width="1" fill="blue" opacity="1" tooltip="enable"><title>(0.0619869,28)</title></rect><rect x="204" y="199.581" width="6" height="0.418629" stroke="black" stroke-width="1" fill="blue" opacity="1" tooltip="enable"><title>(0.0638653,8)</title></rect><rect x="210" y="199.267" width="6" height="0.732601" stroke="black" stroke-width="1" fill="blue" opacity="1" tooltip="enable"><title>(0.0657437,14)</title></rect><rect x="216" y="199.058" width="6" height="0.941915" stroke="black" stroke-width="1" fill="blue" opacity="1" tooltip="enable"><title>(0.0676221,18)</title></rect><rect x="222" y="199.581" width="6" height="0.418629" stroke="black" stroke-width="1" fill="blue" opacity="1" tooltip="enable"><title>(0.0695005,8)</title></rect><rect x="228" y="199.477" width="6" height="0.523286" stroke="black" stroke-width="1" fill="blue" opacity="1" tooltip="enable"><title>(0.0713789,10)</title></rect><rect x="234" y="199.686" width="6" height="0.313972" stroke="black" stroke-width="1" fill="blue" opacity="1" tooltip="enable"><title>(0.0732572,6)</title></rect><rect x="240" y="199.686" width="6" height="0.313972" stroke="black" stroke-width="1" fill="blue" opacity="1" tooltip="enable"><title>(0.0751356,6)</title></rect><rect x="246" y="198.953" width="6" height="1.04657" stroke="black" stroke-width="1" fill="blue" opacity="1" tooltip="enable"><title>(0.077014,20)</title></rect><rect x="252" y="199.791" width="6" height="0.209314" stroke="black" stroke-width="1" fill="blue" opacity="1" tooltip="enable"><title>(0.0788924,4)</title></rect><rect x="258" y="199.791" width="6" height="0.209314" stroke="black" stroke-width="1" fill="blue" opacity="1" tooltip="enable"><title>(0.0807708,4)</title></rect><rect x="264" y="199.895" width="6" height="0.104657" stroke="black" stroke-width="1" fill="blue" opacity="1" tooltip="enable"><title>(0.0826492,2)</title></rect><rect x="270" y="200" width="6" height="0" stroke="black" stroke-width="1" fill="blue" opacity="1" tooltip="enable"><title>(0.0845276,0)</title></rect><rect x="276" y="200" width="6" height="0" stroke="black" stroke-width="1" fill="blue" opacity="1" tooltip="enable"><title>(0.086406,0)</title></rect><rect x="282" y="199.895" width="6" height="0.104657" stroke="black" stroke-width="1" fill="blue" opacity="1" tooltip="enable"><title>(0.0882844,2)</title></rect><rect x="288" y="199.895" width="6" height="0.104657" stroke="black" stroke-width="1" fill="blue" opacity="1" tooltip="enable"><title>(0.0901628,2)</title></rect><rect x="294" y="200" width="6" height="0" stroke="black" stroke-width="1" fill="blue" opacity="1" tooltip="enable"><title>(0.0920412,0)</title></rect><rect x="300" y="200" width="6" height="0" stroke="black" stroke-width="1" fill="blue" opacity="1" tooltip="enable"><title>(0.0939196,0)</title></rect><rect x="306" y="200" width="6" height="0" stroke="black" stroke-width="1" fill="blue" opacity="1" tooltip="enable"><title>(0.0957979,0)</title></rect><rect x="312" y="200" width="6" height="0" stroke="black" stroke-width="1" fill="blue" opacity="1" tooltip="enable"><title>(0.0976763,0)</title></rect><rect x="318" y="200" width="6" height="0" stroke="black" stroke-width="1" fill="blue" opacity="1" tooltip="enable"><title>(0.0995547,0)</title></rect><rect x="324" y="200" width="6" height="0" stroke="black" stroke-width="1" fill="blue" opacity="1" tooltip="enable"><title>(0.101433,0)</title></rect><rect x="330" y="200" width="6" height="0" stroke="black" stroke-width="1" fill="blue" opacity="1" tooltip="enable"><title>(0.103312,0)</title></rect><rect x="336" y="199.895" width="6" height="0.104657" stroke="black" stroke-width="1" fill="blue" opacity="1" tooltip="enable"><title>(0.10519,2)</title></rect><rect x="342" y="200" width="6" height="0" stroke="black" stroke-width="1" fill="blue" opacity="1" tooltip="enable"><title>(0.107068,0)</title></rect><rect x="348" y="199.948" width="6" height="0.0523286" stroke="black" stroke-width="1" fill="blue" opacity="1" tooltip="enable"><title>(0.108947,1)</title></rect><rect x="354" y="199.948" width="6" height="0.0523286" stroke="black" stroke-width="1" fill="blue" opacity="1" tooltip="enable"><title>(0.110825,1)</title></rect><rect x="360" y="200" width="6" height="0" stroke="black" stroke-width="1" fill="blue" opacity="1" tooltip="enable"><title>(0.112703,0)</title></rect><rect x="366" y="200" width="6" height="0" stroke="black" stroke-width="1" fill="blue" opacity="1" tooltip="enable"><title>(0.114582,0)</title></rect><rect x="372" y="200" width="6" height="0" stroke="black" stroke-width="1" fill="blue" opacity="1" tooltip="enable"><title>(0.11646,0)</title></rect><rect x="378" y="200" width="6" height="0" stroke="black" stroke-width="1" fill="blue" opacity="1" tooltip="enable"><title>(0.118339,0)</title></rect><rect x="384" y="200" width="6" height="0" stroke="black" stroke-width="1" fill="blue" opacity="1" tooltip="enable"><title>(0.120217,0)</title></rect><rect x="390" y="200" width="6" height="0" stroke="black" stroke-width="1" fill="blue" opacity="1" tooltip="enable"><title>(0.122095,0)</title></rect><rect x="396" y="200" width="6" height="0" stroke="black" stroke-width="1" fill="blue" opacity="1" tooltip="enable"><title>(0.123974,0)</title></rect><rect x="402" y="200" width="6" height="0" stroke="black" stroke-width="1" fill="blue" opacity="1" tooltip="enable"><title>(0.125852,0)</title></rect><rect x="408" y="200" width="6" height="0" stroke="black" stroke-width="1" fill="blue" opacity="1" tooltip="enable"><title>(0.127731,0)</title></rect><rect x="414" y="200" width="6" height="0" stroke="black" stroke-width="1" fill="blue" opacity="1" tooltip="enable"><title>(0.129609,0)</title></rect><rect x="420" y="200" width="6" height="0" stroke="black" stroke-width="1" fill="blue" opacity="1" tooltip="enable"><title>(0.131487,0)</title></rect><rect x="426" y="200" width="6" height="0" stroke="black" stroke-width="1" fill="blue" opacity="1" tooltip="enable"><title>(0.133366,0)</title></rect><rect x="432" y="200" width="6" height="0" stroke="black" stroke-width="1" fill="blue" opacity="1" tooltip="enable"><title>(0.135244,0)</title></rect><rect x="438" y="200" width="6" height="0" stroke="black" stroke-width="1" fill="blue" opacity="1" tooltip="enable"><title>(0.137123,0)</title></rect><rect x="444" y="200" width="6" height="0" stroke="black" stroke-width="1" fill="blue" opacity="1" tooltip="enable"><title>(0.139001,0)</title></rect><rect x="450" y="200" width="6" height="0" stroke="black" stroke-width="1" fill="blue" opacity="1" tooltip="enable"><title>(0.140879,0)</title></rect><rect x="456" y="200" width="6" height="0" stroke="black" stroke-width="1" fill="blue" opacity="1" tooltip="enable"><title>(0.142758,0)</title></rect><rect x="462" y="200" width="6" height="0" stroke="black" stroke-width="1" fill="blue" opacity="1" tooltip="enable"><title>(0.144636,0)</title></rect><rect x="468" y="200" width="6" height="0" stroke="black" stroke-width="1" fill="blue" opacity="1" tooltip="enable"><title>(0.146514,0)</title></rect><rect x="474" y="200" width="6" height="0" stroke="black" stroke-width="1" fill="blue" opacity="1" tooltip="enable"><title>(0.148393,0)</title></rect><rect x="480" y="199.948" width="6" height="0.0523286" stroke="black" stroke-width="1" fill="blue" opacity="1" tooltip="enable"><title>(0.150271,1)</title></rect><rect x="486" y="199.948" width="6" height="0.0523286" stroke="black" stroke-width="1" fill="blue" opacity="1" tooltip="enable"><title>(0.15215,1)</title></rect><rect x="492" y="200" width="6" height="0" stroke="black" stroke-width="1" fill="blue" opacity="1" tooltip="enable"><title>(0.154028,0)</title></rect><rect x="498" y="200" width="6" height="0" stroke="black" stroke-width="1" fill="blue" opacity="1" tooltip="enable"><title>(0.155906,0)</title></rect><rect x="504" y="200" width="6" height="0" stroke="black" stroke-width="1" fill="blue" opacity="1" tooltip="enable"><title>(0.157785,0)</title></rect><rect x="510" y="200" width="6" height="0" stroke="black" stroke-width="1" fill="blue" opacity="1" tooltip="enable"><title>(0.159663,0)</title></rect><rect x="516" y="200" width="6" height="0" stroke="black" stroke-width="1" fill="blue" opacity="1" tooltip="enable"><title>(0.161542,0)</title></rect><rect x="522" y="200" width="6" height="0" stroke="black" stroke-width="1" fill="blue" opacity="1" tooltip="enable"><title>(0.16342,0)</title></rect><rect x="528" y="200" width="6" height="0" stroke="black" stroke-width="1" fill="blue" opacity="1" tooltip="enable"><title>(0.165298,0)</title></rect><rect x="534" y="200" width="6" height="0" stroke="black" stroke-width="1" fill="blue" opacity="1" tooltip="enable"><title>(0.167177,0)</title></rect><rect x="540" y="200" width="6" height="0" stroke="black" stroke-width="1" fill="blue" opacity="1" tooltip="enable"><title>(0.169055,0)</title></rect><rect x="546" y="200" width="6" height="0" stroke="black" stroke-width="1" fill="blue" opacity="1" tooltip="enable"><title>(0.170934,0)</title></rect><rect x="552" y="200" width="6" height="0" stroke="black" stroke-width="1" fill="blue" opacity="1" tooltip="enable"><title>(0.172812,0)</title></rect><rect x="558" y="200" width="6" height="0" stroke="black" stroke-width="1" fill="blue" opacity="1" tooltip="enable"><title>(0.17469,0)</title></rect><rect x="564" y="200" width="6" height="0" stroke="black" stroke-width="1" fill="blue" opacity="1" tooltip="enable"><title>(0.176569,0)</title></rect><rect x="570" y="200" width="6" height="0" stroke="black" stroke-width="1" fill="blue" opacity="1" tooltip="enable"><title>(0.178447,0)</title></rect><rect x="576" y="200" width="6" height="0" stroke="black" stroke-width="1" fill="blue" opacity="1" tooltip="enable"><title>(0.180326,0)</title></rect><rect x="582" y="200" width="6" height="0" stroke="black" stroke-width="1" fill="blue" opacity="1" tooltip="enable"><title>(0.182204,0)</title></rect><rect x="588" y="200" width="6" height="0" stroke="black" stroke-width="1" fill="blue" opacity="1" tooltip="enable"><title>(0.184082,0)</title></rect><rect x="594" y="199.948" width="6" height="0.0523286" stroke="black" stroke-width="1" fill="blue" opacity="1" tooltip="enable"><title>(0.185961,1)</title></rect><text x="30" y="240" font-size="20" fill="black">0</text>
<text x="600" y="240" font-size="20" fill="black">0.187839</text>
<polyline points="0,220,600,220" stroke="black" stroke-width="1" fill="none" opacity="1"/>
<text x="720" y="20" font-size="20" fill="black">3822</text>
<text x="720" y="200" font-size="20" fill="black">0</text>
<polyline points="660,0,660,200" stroke="black" stroke-width="1" fill="none" opacity="1"/>
</svg>