<?xml version="1.0" standalone="yes"?>
<!-- SVG graphic -->
<svg xmlns='http://www.w3.org/2000/svg' xmlns:xlink='http://www.w3.org/1999/xlink'
 version="1.1">
<rect x="0" y="0" width="6" height="200" stroke="black" stroke-width="1" fill="blue" opacity="1" tooltip="enable"><title>(0,1329)</title></rect><rect x="6" y="5.26712" width="6" height="194.733" stroke="black" stroke-width="1" fill="blue" opacity="1" tooltip="enable"><title>(0.00126929,1294)</title></rect><rect x="12" y="70.8804" width="6" height="129.12" stroke="black" stroke-width="1" fill="blue" opacity="1" tooltip="enable"><title>(0.00253858,858)</title></rect><rect x="18" y="111.211" width="6" height="88.7886" stroke="black" stroke-width="1" fill="blue" opacity="1" tooltip="enable"><title>(0.00380786,590)</title></rect><rect x="24" y="153.198" width="6" height="46.8021" stroke="black" stroke-width="1" fill="blue" opacity="1" tooltip="enable"><title>(0.00507715,311)</title></rect><rect x="30" y="159.067" width="6" height="40.933" stroke="black" stroke-width="1" fill="blue" opacity="1" tooltip="enable"><title>(0.00634644,272)</title></rect><rect x="36" y="164.033" width="6" height="35.9669" stroke="black" stroke-width="1" fill="blue" opacity="1" tooltip="enable"><title>(0.00761573,239)</title></rect><rect x="42" y="171.859" width="6" height="28.1415" stroke="black" stroke-width="1" fill="blue" opacity="1" tooltip="enable"><title>(0.00888501,187)</title></rect><rect x="48" y="178.932" width="6" height="21.0685" stroke="black" stroke-width="1" fill="blue" opacity="1" tooltip="enable"><title>(0.0101543,140)</title></rect><rect x="54" y="178.631" width="6" height="21.3695" stroke="black" stroke-width="1" fill="blue" opacity="1" tooltip="enable"><title>(0.0114236,142)</title></rect><rect x="60" y="180.436" width="6" height="19.5636" stroke="black" stroke-width="1" fill="blue" opacity="1" tooltip="enable"><title>(0.0126929,130)</title></rect><rect x="66" y="177.276" width="6" height="22.7239" stroke="black" stroke-width="1" fill="blue" opacity="1" tooltip="enable"><title>(0.0139622,151)</title></rect><rect x="72" y="175.169" width="6" height="24.8307" stroke="black" stroke-width="1" fill="blue" opacity="1" tooltip="enable"><title>(0.0152315,165)</title></rect><rect x="78" y="181.49" width="6" height="18.5102" stroke="black" stroke-width="1" fill="blue" opacity="1" tooltip="enable"><title>(0.0165007,123)</title></rect><rect x="84" y="180.888" width="6" height="19.1121" stroke="black" stroke-width="1" fill="blue" opacity="1" tooltip="enable"><title>(0.01777,127)</title></rect><rect x="90" y="180.587" width="6" height="19.4131" stroke="black" stroke-width="1" fill="blue" opacity="1" tooltip="enable"><title>(0.0190393,129)</title></rect><rect x="96" y="184.951" width="6" height="15.0489" stroke="black" stroke-width="1" fill="blue" opacity="1" tooltip="enable"><title>(0.0203086,100)</title></rect><rect x="102" y="187.81" width="6" height="12.1896" stroke="black" stroke-width="1" fill="blue" opacity="1" tooltip="enable"><title>(0.0215779,81)</title></rect><rect x="108" y="185.854" width="6" height="14.146" stroke="black" stroke-width="1" fill="blue" opacity="1" tooltip="enable"><title>(0.0228472,94)</title></rect><rect x="114" y="185.102" width="6" height="14.8984" stroke="black" stroke-width="1" fill="blue" opacity="1" tooltip="enable"><title>(0.0241165,99)</title></rect><rect x="120" y="183.747" width="6" height="16.2528" stroke="black" stroke-width="1" fill="blue" opacity="1" tooltip="enable"><title>(0.0253858,108)</title></rect><rect x="126" y="187.208" width="6" height="12.7916" stroke="black" stroke-width="1" fill="blue" opacity="1" tooltip="enable"><title>(0.026655,85)</title></rect><rect x="132" y="186.456" width="6" height="13.544" stroke="black" stroke-width="1" fill="blue" opacity="1" tooltip="enable"><title>(0.0279243,90)</title></rect><rect x="138" y="187.359" width="6" height="12.6411" stroke="black" stroke-width="1" fill="blue" opacity="1" tooltip="enable"><title>(0.0291936,84)</title></rect><rect x="144" y="187.66" width="6" height="12.3401" stroke="black" stroke-width="1" fill="blue" opacity="1" tooltip="enable"><title>(0.0304629,82)</title></rect><rect x="150" y="192.777" width="6" height="7.22348" stroke="black" stroke-width="1" fill="blue" opacity="1" tooltip="enable"><title>(0.0317322,48)</title></rect><rect x="156" y="189.616" width="6" height="10.3837" stroke="black" stroke-width="1" fill="blue" opacity="1" tooltip="enable"><title>(0.0330015,69)</title></rect><rect x="162" y="186.907" width="6" height="13.0926" stroke="black" stroke-width="1" fill="blue" opacity="1" tooltip="enable"><title>(0.0342708,87)</title></rect><rect x="168" y="194.582" width="6" height="5.41761" stroke="black" stroke-width="1" fill="blue" opacity="1" tooltip="enable"><title>(0.0355401,36)</title></rect><rect x="174" y="192.175" width="6" height="7.82543" stroke="black" stroke-width="1" fill="blue" opacity="1" tooltip="enable"><title>(0.0368093,52)</title></rect><rect x="180" y="193.98" width="6" height="6.01956" stroke="black" stroke-width="1" fill="blue" opacity="1" tooltip="enable"><title>(0.0380786,40)</title></rect><rect x="186" y="192.777" width="6" height="7.22348" stroke="black" stroke-width="1" fill="blue" opacity="1" tooltip="enable"><title>(0.0393479,48)</title></rect><rect x="192" y="197.893" width="6" height="2.10685" stroke="black" stroke-width="1" fill="blue" opacity="1" tooltip="enable"><title>(0.0406172,14)</title></rect><rect x="198" y="191.723" width="6" height="8.2769" stroke="black" stroke-width="1" fill="blue" opacity="1" tooltip="enable"><title>(0.0418865,55)</title></rect><rect x="204" y="196.84" width="6" height="3.16027" stroke="black" stroke-width="1" fill="blue" opacity="1" tooltip="enable"><title>(0.0431558,21)</title></rect><rect x="210" y="197.291" width="6" height="2.7088" stroke="black" stroke-width="1" fill="blue" opacity="1" tooltip="enable"><title>(0.0444251,18)</title></rect><rect x="216" y="193.98" width="6" height="6.01956" stroke="black" stroke-width="1" fill="blue" opacity="1" tooltip="enable"><title>(0.0456944,40)</title></rect><rect x="222" y="196.99" width="6" height="3.00978" stroke="black" stroke-width="1" fill="blue" opacity="1" tooltip="enable"><title>(0.0469636,20)</title></rect><rect x="228" y="197.291" width="6" height="2.7088" stroke="black" stroke-width="1" fill="blue" opacity="1" tooltip="enable"><title>(0.0482329,18)</title></rect><rect x="234" y="196.087" width="6" height="3.91272" stroke="black" stroke-width="1" fill="blue" opacity="1" tooltip="enable"><title>(0.0495022,26)</title></rect><rect x="240" y="196.99" width="6" height="3.00978" stroke="black" stroke-width="1" fill="blue" opacity="1" tooltip="enable"><title>(0.0507715,20)</title></rect><rect x="246" y="199.097" width="6" height="0.902935" stroke="black" stroke-width="1" fill="blue" opacity="1" tooltip="enable"><title>(0.0520408,6)</title></rect><rect x="252" y="197.291" width="6" height="2.7088" stroke="black" stroke-width="1" fill="blue" opacity="1" tooltip="enable"><title>(0.0533101,18)</title></rect><rect x="258" y="196.388" width="6" height="3.61174" stroke="black" stroke-width="1" fill="blue" opacity="1" tooltip="enable"><title>(0.0545794,24)</title></rect><rect x="264" y="198.194" width="6" height="1.80587" stroke="black" stroke-width="1" fill="blue" opacity="1" tooltip="enable"><title>(0.0558487,12)</title></rect><rect x="270" y="198.194" width="6" height="1.80587" stroke="black" stroke-width="1" fill="blue" opacity="1" tooltip="enable"><title>(0.0571179,12)</title></rect><rect x="276" y="196.84" width="6" height="3.16027" stroke="black" stroke-width="1" fill="blue" opacity="1" tooltip="enable"><title>(0.0583872,21)</title></rect><rect x="282" y="196.689" width="6" height="3.31076" stroke="black" stroke-width="1" fill="blue" opacity="1" tooltip="enable"><title>(0.0596565,22)</title></rect><rect x="288" y="197.442" width="6" height="2.55831" stroke="black" stroke-width="1" fill="blue" opacity="1" tooltip="enable"><title>(0.0609258,17)</title></rect><rect x="294" y="198.796" width="6" height="1.20391" stroke="black" stroke-width="1" fill="blue" opacity="1" tooltip="enable"><title>(0.0621951,8)</title></rect><rect x="300" y="197.592" width="6" height="2.40783" stroke="black" stroke-width="1" fill="blue" opacity="1" tooltip="enable"><title>(0.0634644,16)</title></rect><rect x="306" y="197.893" width="6" height="2.10685" stroke="black" stroke-width="1" fill="blue" opacity="1" tooltip="enable"><title>(0.0647337,14)</title></rect><rect x="312" y="197.743" width="6" height="2.25734" stroke="black" stroke-width="1" fill="blue" opacity="1" tooltip="enable"><title>(0.066003,15)</title></rect><rect x="318" y="197.141" width="6" height="2.85929" stroke="black" stroke-width="1" fill="blue" opacity="1" tooltip="enable"><title>(0.0672722,19)</title></rect><rect x="324" y="197.291" width="6" height="2.7088" stroke="black" stroke-width="1" fill="blue" opacity="1" tooltip="enable"><title>(0.0685415,18)</title></rect><rect x="330" y="197.592" width="6" height="2.40783" stroke="black" stroke-width="1" fill="blue" opacity="1" tooltip="enable"><title>(0.0698108,16)</title></rect><rect x="336" y="197.592" width="6" height="2.40783" stroke="black" stroke-width="1" fill="blue" opacity="1" tooltip="enable"><title>(0.0710801,16)</title></rect><rect x="342" y="197.291" width="6" height="2.7088" stroke="black" stroke-width="1" fill="blue" opacity="1" tooltip="enable"><title>(0.0723494,18)</title></rect><rect x="348" y="199.097" width="6" height="0.902935" stroke="black" stroke-width="1" fill="blue" opacity="1" tooltip="enable"><title>(0.0736187,6)</title></rect><rect x="354" y="198.796" width="6" height="1.20391" stroke="black" stroke-width="1" fill="blue" opacity="1" tooltip="enable"><title>(0.074888,8)</title></rect><rect x="360" y="197.893" width="6" height="2.10685" stroke="black" stroke-width="1" fill="blue" opacity="1" tooltip="enable"><title>(0.0761573,14)</title></rect><rect x="366" y="198.194" width="6" height="1.80587" stroke="black" stroke-width="1" fill="blue" opacity="1" tooltip="enable"><title>(0.0774266,12)</title></rect><rect x="372" y="198.796" width="6" height="1.20391" stroke="black" stroke-width="1" fill="blue" opacity="1" tooltip="enable"><title>(0.0786958,8)</title></rect><rect x="378" y="199.398" width="6" height="0.601956" stroke="black" stroke-width="1" fill="blue" opacity="1" tooltip="enable"><title>(0.0799651,4)</title></rect><rect x="384" y="199.097" width="6" height="0.902935" stroke="black" stroke-width="1" fill="blue" opacity="1" tooltip="enable"><title>(0.0812344,6)</title></rect><rect x="390" y="199.699" width="6" height="0.300978" stroke="black" stroke-width="1" fill="blue" opacity="1" tooltip="enable"><title>(0.0825037,2)</title></rect><rect x="396" y="199.097" width="6" height="0.902935" stroke="black" stroke-width="1" fill="blue" opacity="1" tooltip="enable"><title>(0.083773,6)</title></rect><rect x="402" y="199.699" width="6" height="0.300978" stroke="black" stroke-width="1" fill="blue" opacity="1" tooltip="enable"><title>(0.0850423,2)</title></rect><rect x="408" y="199.097" width="6" height="0.902935" stroke="black" stroke-width="1" fill="blue" opacity="1" tooltip="enable"><title>(0.0863116,6)</title></rect><rect x="414" y="200" width="6" height="0" stroke="black" stroke-width="1" fill="blue" opacity="1" tooltip="enable"><title>(0.0875809,0)</title></rect><rect x="420" y="199.398" width="6" height="0.601956" stroke="black" stroke-width="1" fill="blue" opacity="1" tooltip="enable"><title>(0.0888501,4)</title></rect><rect x="426" y="199.85" width="6" height="0.150489" stroke="black" stroke-width="1" fill="blue" opacity="1" tooltip="enable"><title>(0.0901194,1)</title></rect><rect x="432" y="199.549" width="6" height="0.451467" stroke="black" stroke-width="1" fill="blue" opacity="1" tooltip="enable"><title>(0.0913887,3)</title></rect><rect x="438" y="199.398" width="6" height="0.601956" stroke="black" stroke-width="1" fill="blue" opacity="1" tooltip="enable"><title>(0.092658,4)</title></rect><rect x="444" y="199.398" width="6" height="0.601956" stroke="black" stroke-width="1" fill="blue" opacity="1" tooltip="enable"><title>(0.0939273,4)</title></rect><rect x="450" y="200" width="6" height="0" stroke="black" stroke-width="1" fill="blue" opacity="1" tooltip="enable"><title>(0.0951966,0)</title></rect><rect x="456" y="200" width="6" height="0" stroke="black" stroke-width="1" fill="blue" opacity="1" tooltip="enable"><title>(0.0964659,0)</title></rect><rect x="462" y="200" width="6" height="0" stroke="black" stroke-width="1" fill="blue" opacity="1" tooltip="enable"><title>(0.0977352,0)</title></rect><rect x="468" y="199.699" width="6" height="0.300978" stroke="black" stroke-width="1" fill="blue" opacity="1" tooltip="enable"><title>(0.0990044,2)</title></rect><rect x="474" y="199.699" width="6" height="0.300978" stroke="black" stroke-width="1" fill="blue" opacity="1" tooltip="enable"><title>(0.100274,2)</title></rect><rect x="480" y="200" width="6" height="0" stroke="black" stroke-width="1" fill="blue" opacity="1" tooltip="enable"><title>(0.101543,0)</title></rect><rect x="486" y="199.699" width="6" height="0.300978" stroke="black" stroke-width="1" fill="blue" opacity="1" tooltip="enable"><title>(0.102812,2)</title></rect><rect x="492" y="200" width="6" height="0" stroke="black" stroke-width="1" fill="blue" opacity="1" tooltip="enable"><title>(0.104082,0)</title></rect><rect x="498" y="200" width="6" height="0" stroke="black" stroke-width="1" fill="blue" opacity="1" tooltip="enable"><title>(0.105351,0)</title></rect><rect x="504" y="199.699" width="6" height="0.300978" stroke="black" stroke-width="1" fill="blue" opacity="1" tooltip="enable"><title>(0.10662,2)</title></rect><rect x="510" y="200" width="6" height="0" stroke="black" stroke-width="1" fill="blue" opacity="1" tooltip="enable"><title>(0.107889,0)</title></rect><rect x="516" y="200" width="6" height="0" stroke="black" stroke-width="1" fill="blue" opacity="1" tooltip="enable"><title>(0.109159,0)</title></rect><rect x="522" y="200" width="6" height="0" stroke="black" stroke-width="1" fill="blue" opacity="1" tooltip="enable"><title>(0.110428,0)</title></rect><rect x="528" y="200" width="6" height="0" stroke="black" stroke-width="1" fill="blue" opacity="1" tooltip="enable"><title>(0.111697,0)</title></rect><rect x="534" y="200" width="6" height="0" stroke="black" stroke-width="1" fill="blue" opacity="1" tooltip="enable"><title>(0.112967,0)</title></rect><rect x="540" y="200" width="6" height="0" stroke="black" stroke-width="1" fill="blue" opacity="1" tooltip="enable"><title>(0.114236,0)</title></rect><rect x="546" y="200" width="6" height="0" stroke="black" stroke-width="1" fill="blue" opacity="1" tooltip="enable"><title>(0.115505,0)</title></rect><rect x="552" y="200" width="6" height="0" stroke="black" stroke-width="1" fill="blue" opacity="1" tooltip="enable"><title>(0.116774,0)</title></rect><rect x="558" y="200" width="6" height="0" stroke="black" stroke-width="1" fill="blue" opacity="1" tooltip="enable"><title>(0.118044,0)</title></rect><rect x="564" y="199.699" width="6" height="0.300978" stroke="black" stroke-width="1" fill="blue" opacity="1" tooltip="enable"><title>(0.119313,2)</title></rect><rect x="570" y="200" width="6" height="0" stroke="black" stroke-width="1" fill="blue" opacity="1" tooltip="enable"><title>(0.120582,0)</title></rect><rect x="576" y="200" width="6" height="0" stroke="black" stroke-width="1" fill="blue" opacity="1" tooltip="enable"><title>(0.121852,0)</title></rect><rect x="582" y="199.398" width="6" height="0.601956" stroke="black" stroke-width="1" fill="blue" opacity="1" tooltip="enable"><title>(0.123121,4)</title></rect><rect x="588" y="200" width="6" height="0" stroke="black" stroke-width="1" fill="blue" opacity="1" tooltip="enable"><title>(0.12439,0)</title></rect><rect x="594" y="199.85" width="6" height="0.150489" stroke="black" stroke-width="1" fill="blue" opacity="1" tooltip="enable"><title>(0.125659,1)</title></rect><text x="30" y="240" font-size="20" fill="black">0</text>
<text x="600" y="240" font-size="20" fill="black">0.126929</text>
<polyline points="0,220,600,220" stroke="black" stroke-width="1" fill="none" opacity="1"/>
<text x="720" y="20" font-size="20" fill="black">1329</text>
<text x="720" y="200" font-size="20" fill="black">0</text>
<polyline points="660,0,660,200" stroke="black" stroke-width="1" fill="none" opacity="1"/>
</svg>