<?xml version="1.0" standalone="yes"?>
<!-- SVG graphic -->
<svg xmlns='http://www.w3.org/2000/svg' xmlns:xlink='http://www.w3.org/1999/xlink'
 version="1.1">
<rect x="0" y="0" width="6" height="200" stroke="black" stroke-width="1" fill="blue" opacity="1" tooltip="enable"><title>(0,3384)</title></rect><rect x="6" y="157.388" width="6" height="42.6123" stroke="black" stroke-width="1" fill="blue" opacity="1" tooltip="enable"><title>(0.000750928,721)</title></rect><rect x="12" y="186.466" width="6" height="13.5343" stroke="black" stroke-width="1" fill="blue" opacity="1" tooltip="enable"><title>(0.00150186,229)</title></rect><rect x="18" y="191.076" width="6" height="8.92435" stroke="black" stroke-width="1" fill="blue" opacity="1" tooltip="enable"><title>(0.00225278,151)</title></rect><rect x="24" y="191.43" width="6" height="8.56974" stroke="black" stroke-width="1" fill="blue" opacity="1" tooltip="enable"><title>(0.00300371,145)</title></rect><rect x="30" y="194.09" width="6" height="5.91017" stroke="black" stroke-width="1" fill="blue" opacity="1" tooltip="enable"><title>(0.00375464,100)</title></rect><rect x="36" y="193.262" width="6" height="6.73759" stroke="black" stroke-width="1" fill="blue" opacity="1" tooltip="enable"><title>(0.00450557,114)</title></rect><rect x="42" y="193.794" width="6" height="6.20567" stroke="black" stroke-width="1" fill="blue" opacity="1" tooltip="enable"><title>(0.00525649,105)</title></rect><rect x="48" y="193.44" width="6" height="6.56028" stroke="black" stroke-width="1" fill="blue" opacity="1" tooltip="enable"><title>(0.00600742,111)</title></rect><rect x="54" y="193.203" width="6" height="6.79669" stroke="black" stroke-width="1" fill="blue" opacity="1" tooltip="enable"><title>(0.00675835,115)</title></rect><rect x="60" y="193.913" width="6" height="6.08747" stroke="black" stroke-width="1" fill="blue" opacity="1" tooltip="enable"><title>(0.00750928,103)</title></rect><rect x="66" y="194.681" width="6" height="5.31915" stroke="black" stroke-width="1" fill="blue" opacity="1" tooltip="enable"><title>(0.00826021,90)</title></rect><rect x="72" y="193.735" width="6" height="6.26478" stroke="black" stroke-width="1" fill="blue" opacity="1" tooltip="enable"><title>(0.00901113,106)</title></rect><rect x="78" y="195.035" width="6" height="4.96454" stroke="black" stroke-width="1" fill="blue" opacity="1" tooltip="enable"><title>(0.00976206,84)</title></rect><rect x="84" y="194.031" width="6" height="5.96927" stroke="black" stroke-width="1" fill="blue" opacity="1" tooltip="enable"><title>(0.010513,101)</title></rect><rect x="90" y="194.858" width="6" height="5.14184" stroke="black" stroke-width="1" fill="blue" opacity="1" tooltip="enable"><title>(0.0112639,87)</title></rect><rect x="96" y="195.095" width="6" height="4.90544" stroke="black" stroke-width="1" fill="blue" opacity="1" tooltip="enable"><title>(0.0120148,83)</title></rect><rect x="102" y="196.04" width="6" height="3.95981" stroke="black" stroke-width="1" fill="blue" opacity="1" tooltip="enable"><title>(0.0127658,67)</title></rect><rect x="108" y="195.567" width="6" height="4.43262" stroke="black" stroke-width="1" fill="blue" opacity="1" tooltip="enable"><title>(0.0135167,75)</title></rect><rect x="114" y="195.449" width="6" height="4.55083" stroke="black" stroke-width="1" fill="blue" opacity="1" tooltip="enable"><title>(0.0142676,77)</title></rect><rect x="120" y="194.326" width="6" height="5.67376" stroke="black" stroke-width="1" fill="blue" opacity="1" tooltip="enable"><title>(0.0150186,96)</title></rect><rect x="126" y="195.804" width="6" height="4.19622" stroke="black" stroke-width="1" fill="blue" opacity="1" tooltip="enable"><title>(0.0157695,71)</title></rect><rect x="132" y="196.513" width="6" height="3.487" stroke="black" stroke-width="1" fill="blue" opacity="1" tooltip="enable"><title>(0.0165204,59)</title></rect><rect x="138" y="194.681" width="6" height="5.31915" stroke="black" stroke-width="1" fill="blue" opacity="1" tooltip="enable"><title>(0.0172713,90)</title></rect><rect x="144" y="195.745" width="6" height="4.25532" stroke="black" stroke-width="1" fill="blue" opacity="1" tooltip="enable"><title>(0.0180223,72)</title></rect><rect x="150" y="197.872" width="6" height="2.12766" stroke="black" stroke-width="1" fill="blue" opacity="1" tooltip="enable"><title>(0.0187732,36)</title></rect><rect x="156" y="195.39" width="6" height="4.60993" stroke="black" stroke-width="1" fill="blue" opacity="1" tooltip="enable"><title>(0.0195241,78)</title></rect><rect x="162" y="196.809" width="6" height="3.19149" stroke="black" stroke-width="1" fill="blue" opacity="1" tooltip="enable"><title>(0.0202751,54)</title></rect><rect x="168" y="197.281" width="6" height="2.71868" stroke="black" stroke-width="1" fill="blue" opacity="1" tooltip="enable"><title>(0.021026,46)</title></rect><rect x="174" y="196.809" width="6" height="3.19149" stroke="black" stroke-width="1" fill="blue" opacity="1" tooltip="enable"><title>(0.0217769,54)</title></rect><rect x="180" y="197.4" width="6" height="2.60047" stroke="black" stroke-width="1" fill="blue" opacity="1" tooltip="enable"><title>(0.0225278,44)</title></rect><rect x="186" y="197.4" width="6" height="2.60047" stroke="black" stroke-width="1" fill="blue" opacity="1" tooltip="enable"><title>(0.0232788,44)</title></rect><rect x="192" y="197.045" width="6" height="2.95508" stroke="black" stroke-width="1" fill="blue" opacity="1" tooltip="enable"><title>(0.0240297,50)</title></rect><rect x="198" y="197.754" width="6" height="2.24586" stroke="black" stroke-width="1" fill="blue" opacity="1" tooltip="enable"><title>(0.0247806,38)</title></rect><rect x="204" y="196.868" width="6" height="3.13239" stroke="black" stroke-width="1" fill="blue" opacity="1" tooltip="enable"><title>(0.0255315,53)</title></rect><rect x="210" y="197.459" width="6" height="2.54137" stroke="black" stroke-width="1" fill="blue" opacity="1" tooltip="enable"><title>(0.0262825,43)</title></rect><rect x="216" y="197.577" width="6" height="2.42317" stroke="black" stroke-width="1" fill="blue" opacity="1" tooltip="enable"><title>(0.0270334,41)</title></rect><rect x="222" y="196.395" width="6" height="3.6052" stroke="black" stroke-width="1" fill="blue" opacity="1" tooltip="enable"><title>(0.0277843,61)</title></rect><rect x="228" y="197.872" width="6" height="2.12766" stroke="black" stroke-width="1" fill="blue" opacity="1" tooltip="enable"><title>(0.0285353,36)</title></rect><rect x="234" y="197.991" width="6" height="2.00946" stroke="black" stroke-width="1" fill="blue" opacity="1" tooltip="enable"><title>(0.0292862,34)</title></rect><rect x="240" y="197.045" width="6" height="2.95508" stroke="black" stroke-width="1" fill="blue" opacity="1" tooltip="enable"><title>(0.0300371,50)</title></rect><rect x="246" y="197.813" width="6" height="2.18676" stroke="black" stroke-width="1" fill="blue" opacity="1" tooltip="enable"><title>(0.030788,37)</title></rect><rect x="252" y="197.577" width="6" height="2.42317" stroke="black" stroke-width="1" fill="blue" opacity="1" tooltip="enable"><title>(0.031539,41)</title></rect><rect x="258" y="197.518" width="6" height="2.48227" stroke="black" stroke-width="1" fill="blue" opacity="1" tooltip="enable"><title>(0.0322899,42)</title></rect><rect x="264" y="198.227" width="6" height="1.77305" stroke="black" stroke-width="1" fill="blue" opacity="1" tooltip="enable"><title>(0.0330408,30)</title></rect><rect x="270" y="197.045" width="6" height="2.95508" stroke="black" stroke-width="1" fill="blue" opacity="1" tooltip="enable"><title>(0.0337918,50)</title></rect><rect x="276" y="197.695" width="6" height="2.30496" stroke="black" stroke-width="1" fill="blue" opacity="1" tooltip="enable"><title>(0.0345427,39)</title></rect><rect x="282" y="197.931" width="6" height="2.06856" stroke="black" stroke-width="1" fill="blue" opacity="1" tooltip="enable"><title>(0.0352936,35)</title></rect><rect x="288" y="196.927" width="6" height="3.07329" stroke="black" stroke-width="1" fill="blue" opacity="1" tooltip="enable"><title>(0.0360445,52)</title></rect><rect x="294" y="197.931" width="6" height="2.06856" stroke="black" stroke-width="1" fill="blue" opacity="1" tooltip="enable"><title>(0.0367955,35)</title></rect><rect x="300" y="197.222" width="6" height="2.77778" stroke="black" stroke-width="1" fill="blue" opacity="1" tooltip="enable"><title>(0.0375464,47)</title></rect><rect x="306" y="197.4" width="6" height="2.60047" stroke="black" stroke-width="1" fill="blue" opacity="1" tooltip="enable"><title>(0.0382973,44)</title></rect><rect x="312" y="197.991" width="6" height="2.00946" stroke="black" stroke-width="1" fill="blue" opacity="1" tooltip="enable"><title>(0.0390482,34)</title></rect><rect x="318" y="197.813" width="6" height="2.18676" stroke="black" stroke-width="1" fill="blue" opacity="1" tooltip="enable"><title>(0.0397992,37)</title></rect><rect x="324" y="198.7" width="6" height="1.30024" stroke="black" stroke-width="1" fill="blue" opacity="1" tooltip="enable"><title>(0.0405501,22)</title></rect><rect x="330" y="198.286" width="6" height="1.71395" stroke="black" stroke-width="1" fill="blue" opacity="1" tooltip="enable"><title>(0.041301,29)</title></rect><rect x="336" y="198.463" width="6" height="1.53664" stroke="black" stroke-width="1" fill="blue" opacity="1" tooltip="enable"><title>(0.042052,26)</title></rect><rect x="342" y="198.582" width="6" height="1.41844" stroke="black" stroke-width="1" fill="blue" opacity="1" tooltip="enable"><title>(0.0428029,24)</title></rect><rect x="348" y="199.291" width="6" height="0.70922" stroke="black" stroke-width="1" fill="blue" opacity="1" tooltip="enable"><title>(0.0435538,12)</title></rect><rect x="354" y="199.232" width="6" height="0.768322" stroke="black" stroke-width="1" fill="blue" opacity="1" tooltip="enable"><title>(0.0443047,13)</title></rect><rect x="360" y="199.054" width="6" height="0.945626" stroke="black" stroke-width="1" fill="blue" opacity="1" tooltip="enable"><title>(0.0450557,16)</title></rect><rect x="366" y="199.232" width="6" height="0.768322" stroke="black" stroke-width="1" fill="blue" opacity="1" tooltip="enable"><title>(0.0458066,13)</title></rect><rect x="372" y="199.409" width="6" height="0.591017" stroke="black" stroke-width="1" fill="blue" opacity="1" tooltip="enable"><title>(0.0465575,10)</title></rect><rect x="378" y="199.527" width="6" height="0.472813" stroke="black" stroke-width="1" fill="blue" opacity="1" tooltip="enable"><title>(0.0473085,8)</title></rect><rect x="384" y="199.764" width="6" height="0.236407" stroke="black" stroke-width="1" fill="blue" opacity="1" tooltip="enable"><title>(0.0480594,4)</title></rect><rect x="390" y="199.645" width="6" height="0.35461" stroke="black" stroke-width="1" fill="blue" opacity="1" tooltip="enable"><title>(0.0488103,6)</title></rect><rect x="396" y="199.645" width="6" height="0.35461" stroke="black" stroke-width="1" fill="blue" opacity="1" tooltip="enable"><title>(0.0495612,6)</title></rect><rect x="402" y="199.054" width="6" height="0.945626" stroke="black" stroke-width="1" fill="blue" opacity="1" tooltip="enable"><title>(0.0503122,16)</title></rect><rect x="408" y="199.645" width="6" height="0.35461" stroke="black" stroke-width="1" fill="blue" opacity="1" tooltip="enable"><title>(0.0510631,6)</title></rect><rect x="414" y="199.527" width="6" height="0.472813" stroke="black" stroke-width="1" fill="blue" opacity="1" tooltip="enable"><title>(0.051814,8)</title></rect><rect x="420" y="199.764" width="6" height="0.236407" stroke="black" stroke-width="1" fill="blue" opacity="1" tooltip="enable"><title>(0.0525649,4)</title></rect><rect x="426" y="199.645" width="6" height="0.35461" stroke="black" stroke-width="1" fill="blue" opacity="1" tooltip="enable"><title>(0.0533159,6)</title></rect><rect x="432" y="199.882" width="6" height="0.118203" stroke="black" stroke-width="1" fill="blue" opacity="1" tooltip="enable"><title>(0.0540668,2)</title></rect><rect x="438" y="199.882" width="6" height="0.118203" stroke="black" stroke-width="1" fill="blue" opacity="1" tooltip="enable"><title>(0.0548177,2)</title></rect><rect x="444" y="199.645" width="6" height="0.35461" stroke="black" stroke-width="1" fill="blue" opacity="1" tooltip="enable"><title>(0.0555687,6)</title></rect><rect x="450" y="200" width="6" height="0" stroke="black" stroke-width="1" fill="blue" opacity="1" tooltip="enable"><title>(0.0563196,0)</title></rect><rect x="456" y="199.527" width="6" height="0.472813" stroke="black" stroke-width="1" fill="blue" opacity="1" tooltip="enable"><title>(0.0570705,8)</title></rect><rect x="462" y="199.882" width="6" height="0.118203" stroke="black" stroke-width="1" fill="blue" opacity="1" tooltip="enable"><title>(0.0578214,2)</title></rect><rect x="468" y="199.645" width="6" height="0.35461" stroke="black" stroke-width="1" fill="blue" opacity="1" tooltip="enable"><title>(0.0585724,6)</title></rect><rect x="474" y="199.882" width="6" height="0.118203" stroke="black" stroke-width="1" fill="blue" opacity="1" tooltip="enable"><title>(0.0593233,2)</title></rect><rect x="480" y="200" width="6" height="0" stroke="black" stroke-width="1" fill="blue" opacity="1" tooltip="enable"><title>(0.0600742,0)</title></rect><rect x="486" y="199.882" width="6" height="0.118203" stroke="black" stroke-width="1" fill="blue" opacity="1" tooltip="enable"><title>(0.0608252,2)</title></rect><rect x="492" y="199.882" width="6" height="0.118203" stroke="black" stroke-width="1" fill="blue" opacity="1" tooltip="enable"><title>(0.0615761,2)</title></rect><rect x="498" y="199.882" width="6" height="0.118203" stroke="black" stroke-width="1" fill="blue" opacity="1" tooltip="enable"><title>(0.062327,2)</title></rect><rect x="504" y="200" width="6" height="0" stroke="black" stroke-width="1" fill="blue" opacity="1" tooltip="enable"><title>(0.0630779,0)</title></rect><rect x="510" y="199.882" width="6" height="0.118203" stroke="black" stroke-width="1" fill="blue" opacity="1" tooltip="enable"><title>(0.0638289,2)</title></rect><rect x="516" y="200" width="6" height="0" stroke="black" stroke-width="1" fill="blue" opacity="1" tooltip="enable"><title>(0.0645798,0)</title></rect><rect x="522" y="199.882" width="6" height="0.118203" stroke="black" stroke-width="1" fill="blue" opacity="1" tooltip="enable"><title>(0.0653307,2)</title></rect><rect x="528" y="200" width="6" height="0" stroke="black" stroke-width="1" fill="blue" opacity="1" tooltip="enable"><title>(0.0660817,0)</title></rect><rect x="534" y="199.882" width="6" height="0.118203" stroke="black" stroke-width="1" fill="blue" opacity="1" tooltip="enable"><title>(0.0668326,2)</title></rect><rect x="540" y="199.823" width="6" height="0.177305" stroke="black" stroke-width="1" fill="blue" opacity="1" tooltip="enable"><title>(0.0675835,3)</title></rect><rect x="546" y="199.823" width="6" height="0.177305" stroke="black" stroke-width="1" fill="blue" opacity="1" tooltip="enable"><title>(0.0683344,3)</title></rect><rect x="552" y="200" width="6" height="0" stroke="black" stroke-width="1" fill="blue" opacity="1" tooltip="enable"><title>(0.0690854,0)</title></rect><rect x="558" y="200" width="6" height="0" stroke="black" stroke-width="1" fill="blue" opacity="1" tooltip="enable"><title>(0.0698363,0)</title></rect><rect x="564" y="200" width="6" height="0" stroke="black" stroke-width="1" fill="blue" opacity="1" tooltip="enable"><title>(0.0705872,0)</title></rect><rect x="570" y="200" width="6" height="0" stroke="black" stroke-width="1" fill="blue" opacity="1" tooltip="enable"><title>(0.0713381,0)</title></rect><rect x="576" y="200" width="6" height="0" stroke="black" stroke-width="1" fill="blue" opacity="1" tooltip="enable"><title>(0.0720891,0)</title></rect><rect x="582" y="200" width="6" height="0" stroke="black" stroke-width="1" fill="blue" opacity="1" tooltip="enable"><title>(0.07284,0)</title></rect><rect x="588" y="199.882" width="6" height="0.118203" stroke="black" stroke-width="1" fill="blue" opacity="1" tooltip="enable"><title>(0.0735909,2)</title></rect><rect x="594" y="199.941" width="6" height="0.0591017" stroke="black" stroke-width="1" fill="blue" opacity="1" tooltip="enable"><title>(0.0743419,1)</title></rect><text x="30" y="240" font-size="20" fill="black">0</text>
<text x="600" y="240" font-size="20" fill="black">0.0750928</text>
<polyline points="0,220,600,220" stroke="black" stroke-width="1" fill="none" opacity="1"/>
<text x="720" y="20" font-size="20" fill="black">3384</text>
<text x="720" y="200" font-size="20" fill="black">0</text>
<polyline points="660,0,660,200" stroke="black" stroke-width="1" fill="none" opacity="1"/>
</svg>