<?xml version="1.0" standalone="yes"?>
<!-- SVG graphic -->
<svg xmlns='http://www.w3.org/2000/svg' xmlns:xlink='http://www.w3.org/1999/xlink'
 version="1.1">
<rect x="0" y="30.9109" width="6" height="169.089" stroke="black" stroke-width="1" fill="blue" opacity="1" tooltip="enable"><title>(0,826)</title></rect><rect x="6" y="0" width="6" height="200" stroke="black" stroke-width="1" fill="blue" opacity="1" tooltip="enable"><title>(0.00134671,977)</title></rect><rect x="12" y="16.7861" width="6" height="183.214" stroke="black" stroke-width="1" fill="blue" opacity="1" tooltip="enable"><title>(0.00269342,895)</title></rect><rect x="18" y="65.0972" width="6" height="134.903" stroke="black" stroke-width="1" fill="blue" opacity="1" tooltip="enable"><title>(0.00404013,659)</title></rect><rect x="24" y="96.827" width="6" height="103.173" stroke="black" stroke-width="1" fill="blue" opacity="1" tooltip="enable"><title>(0.00538684,504)</title></rect><rect x="30" y="115.66" width="6" height="84.3398" stroke="black" stroke-width="1" fill="blue" opacity="1" tooltip="enable"><title>(0.00673355,412)</title></rect><rect x="36" y="127.943" width="6" height="72.0573" stroke="black" stroke-width="1" fill="blue" opacity="1" tooltip="enable"><title>(0.00808025,352)</title></rect><rect x="42" y="127.533" width="6" height="72.4667" stroke="black" stroke-width="1" fill="blue" opacity="1" tooltip="enable"><title>(0.00942696,354)</title></rect><rect x="48" y="127.943" width="6" height="72.0573" stroke="black" stroke-width="1" fill="blue" opacity="1" tooltip="enable"><title>(0.0107737,352)</title></rect><rect x="54" y="144.524" width="6" height="55.4759" stroke="black" stroke-width="1" fill="blue" opacity="1" tooltip="enable"><title>(0.0121204,271)</title></rect><rect x="60" y="159.058" width="6" height="40.9417" stroke="black" stroke-width="1" fill="blue" opacity="1" tooltip="enable"><title>(0.0134671,200)</title></rect><rect x="66" y="161.105" width="6" height="38.8946" stroke="black" stroke-width="1" fill="blue" opacity="1" tooltip="enable"><title>(0.0148138,190)</title></rect><rect x="72" y="155.374" width="6" height="44.6264" stroke="black" stroke-width="1" fill="blue" opacity="1" tooltip="enable"><title>(0.0161605,218)</title></rect><rect x="78" y="164.381" width="6" height="35.6192" stroke="black" stroke-width="1" fill="blue" opacity="1" tooltip="enable"><title>(0.0175072,174)</title></rect><rect x="84" y="175.435" width="6" height="24.565" stroke="black" stroke-width="1" fill="blue" opacity="1" tooltip="enable"><title>(0.0188539,120)</title></rect><rect x="90" y="176.663" width="6" height="23.3367" stroke="black" stroke-width="1" fill="blue" opacity="1" tooltip="enable"><title>(0.0202006,114)</title></rect><rect x="96" y="178.301" width="6" height="21.6991" stroke="black" stroke-width="1" fill="blue" opacity="1" tooltip="enable"><title>(0.0215473,106)</title></rect><rect x="102" y="181.576" width="6" height="18.4237" stroke="black" stroke-width="1" fill="blue" opacity="1" tooltip="enable"><title>(0.0228941,90)</title></rect><rect x="108" y="185.67" width="6" height="14.3296" stroke="black" stroke-width="1" fill="blue" opacity="1" tooltip="enable"><title>(0.0242408,70)</title></rect><rect x="114" y="189.355" width="6" height="10.6448" stroke="black" stroke-width="1" fill="blue" opacity="1" tooltip="enable"><title>(0.0255875,52)</title></rect><rect x="120" y="186.489" width="6" height="13.5107" stroke="black" stroke-width="1" fill="blue" opacity="1" tooltip="enable"><title>(0.0269342,66)</title></rect><rect x="126" y="185.67" width="6" height="14.3296" stroke="black" stroke-width="1" fill="blue" opacity="1" tooltip="enable"><title>(0.0282809,70)</title></rect><rect x="132" y="188.946" width="6" height="11.0542" stroke="black" stroke-width="1" fill="blue" opacity="1" tooltip="enable"><title>(0.0296276,54)</title></rect><rect x="138" y="191.812" width="6" height="8.18833" stroke="black" stroke-width="1" fill="blue" opacity="1" tooltip="enable"><title>(0.0309743,40)</title></rect><rect x="144" y="191.402" width="6" height="8.59775" stroke="black" stroke-width="1" fill="blue" opacity="1" tooltip="enable"><title>(0.032321,42)</title></rect><rect x="150" y="193.04" width="6" height="6.96008" stroke="black" stroke-width="1" fill="blue" opacity="1" tooltip="enable"><title>(0.0336677,34)</title></rect><rect x="156" y="191.402" width="6" height="8.59775" stroke="black" stroke-width="1" fill="blue" opacity="1" tooltip="enable"><title>(0.0350144,42)</title></rect><rect x="162" y="190.993" width="6" height="9.00716" stroke="black" stroke-width="1" fill="blue" opacity="1" tooltip="enable"><title>(0.0363611,44)</title></rect><rect x="168" y="192.221" width="6" height="7.77891" stroke="black" stroke-width="1" fill="blue" opacity="1" tooltip="enable"><title>(0.0377079,38)</title></rect><rect x="174" y="193.04" width="6" height="6.96008" stroke="black" stroke-width="1" fill="blue" opacity="1" tooltip="enable"><title>(0.0390546,34)</title></rect><rect x="180" y="195.906" width="6" height="4.09417" stroke="black" stroke-width="1" fill="blue" opacity="1" tooltip="enable"><title>(0.0404013,20)</title></rect><rect x="186" y="191.402" width="6" height="8.59775" stroke="black" stroke-width="1" fill="blue" opacity="1" tooltip="enable"><title>(0.041748,42)</title></rect><rect x="192" y="191.812" width="6" height="8.18833" stroke="black" stroke-width="1" fill="blue" opacity="1" tooltip="enable"><title>(0.0430947,40)</title></rect><rect x="198" y="193.04" width="6" height="6.96008" stroke="black" stroke-width="1" fill="blue" opacity="1" tooltip="enable"><title>(0.0444414,34)</title></rect><rect x="204" y="194.678" width="6" height="5.32242" stroke="black" stroke-width="1" fill="blue" opacity="1" tooltip="enable"><title>(0.0457881,26)</title></rect><rect x="210" y="194.268" width="6" height="5.73183" stroke="black" stroke-width="1" fill="blue" opacity="1" tooltip="enable"><title>(0.0471348,28)</title></rect><rect x="216" y="195.087" width="6" height="4.913" stroke="black" stroke-width="1" fill="blue" opacity="1" tooltip="enable"><title>(0.0484815,24)</title></rect><rect x="222" y="194.268" width="6" height="5.73183" stroke="black" stroke-width="1" fill="blue" opacity="1" tooltip="enable"><title>(0.0498282,28)</title></rect><rect x="228" y="194.678" width="6" height="5.32242" stroke="black" stroke-width="1" fill="blue" opacity="1" tooltip="enable"><title>(0.0511749,26)</title></rect><rect x="234" y="195.906" width="6" height="4.09417" stroke="black" stroke-width="1" fill="blue" opacity="1" tooltip="enable"><title>(0.0525217,20)</title></rect><rect x="240" y="195.087" width="6" height="4.913" stroke="black" stroke-width="1" fill="blue" opacity="1" tooltip="enable"><title>(0.0538684,24)</title></rect><rect x="246" y="197.134" width="6" height="2.86592" stroke="black" stroke-width="1" fill="blue" opacity="1" tooltip="enable"><title>(0.0552151,14)</title></rect><rect x="252" y="197.953" width="6" height="2.04708" stroke="black" stroke-width="1" fill="blue" opacity="1" tooltip="enable"><title>(0.0565618,10)</title></rect><rect x="258" y="197.544" width="6" height="2.4565" stroke="black" stroke-width="1" fill="blue" opacity="1" tooltip="enable"><title>(0.0579085,12)</title></rect><rect x="264" y="194.678" width="6" height="5.32242" stroke="black" stroke-width="1" fill="blue" opacity="1" tooltip="enable"><title>(0.0592552,26)</title></rect><rect x="270" y="198.362" width="6" height="1.63767" stroke="black" stroke-width="1" fill="blue" opacity="1" tooltip="enable"><title>(0.0606019,8)</title></rect><rect x="276" y="197.544" width="6" height="2.4565" stroke="black" stroke-width="1" fill="blue" opacity="1" tooltip="enable"><title>(0.0619486,12)</title></rect><rect x="282" y="197.134" width="6" height="2.86592" stroke="black" stroke-width="1" fill="blue" opacity="1" tooltip="enable"><title>(0.0632953,14)</title></rect><rect x="288" y="197.748" width="6" height="2.25179" stroke="black" stroke-width="1" fill="blue" opacity="1" tooltip="enable"><title>(0.064642,11)</title></rect><rect x="294" y="197.339" width="6" height="2.66121" stroke="black" stroke-width="1" fill="blue" opacity="1" tooltip="enable"><title>(0.0659887,13)</title></rect><rect x="300" y="197.339" width="6" height="2.66121" stroke="black" stroke-width="1" fill="blue" opacity="1" tooltip="enable"><title>(0.0673355,13)</title></rect><rect x="306" y="198.976" width="6" height="1.02354" stroke="black" stroke-width="1" fill="blue" opacity="1" tooltip="enable"><title>(0.0686822,5)</title></rect><rect x="312" y="197.134" width="6" height="2.86592" stroke="black" stroke-width="1" fill="blue" opacity="1" tooltip="enable"><title>(0.0700289,14)</title></rect><rect x="318" y="198.362" width="6" height="1.63767" stroke="black" stroke-width="1" fill="blue" opacity="1" tooltip="enable"><title>(0.0713756,8)</title></rect><rect x="324" y="197.134" width="6" height="2.86592" stroke="black" stroke-width="1" fill="blue" opacity="1" tooltip="enable"><title>(0.0727223,14)</title></rect><rect x="330" y="197.544" width="6" height="2.4565" stroke="black" stroke-width="1" fill="blue" opacity="1" tooltip="enable"><title>(0.074069,12)</title></rect><rect x="336" y="197.134" width="6" height="2.86592" stroke="black" stroke-width="1" fill="blue" opacity="1" tooltip="enable"><title>(0.0754157,14)</title></rect><rect x="342" y="198.362" width="6" height="1.63767" stroke="black" stroke-width="1" fill="blue" opacity="1" tooltip="enable"><title>(0.0767624,8)</title></rect><rect x="348" y="198.362" width="6" height="1.63767" stroke="black" stroke-width="1" fill="blue" opacity="1" tooltip="enable"><title>(0.0781091,8)</title></rect><rect x="354" y="198.362" width="6" height="1.63767" stroke="black" stroke-width="1" fill="blue" opacity="1" tooltip="enable"><title>(0.0794558,8)</title></rect><rect x="360" y="199.591" width="6" height="0.409417" stroke="black" stroke-width="1" fill="blue" opacity="1" tooltip="enable"><title>(0.0808026,2)</title></rect><rect x="366" y="199.591" width="6" height="0.409417" stroke="black" stroke-width="1" fill="blue" opacity="1" tooltip="enable"><title>(0.0821493,2)</title></rect><rect x="372" y="198.772" width="6" height="1.22825" stroke="black" stroke-width="1" fill="blue" opacity="1" tooltip="enable"><title>(0.083496,6)</title></rect><rect x="378" y="198.772" width="6" height="1.22825" stroke="black" stroke-width="1" fill="blue" opacity="1" tooltip="enable"><title>(0.0848427,6)</title></rect><rect x="384" y="199.181" width="6" height="0.818833" stroke="black" stroke-width="1" fill="blue" opacity="1" tooltip="enable"><title>(0.0861894,4)</title></rect><rect x="390" y="200" width="6" height="0" stroke="black" stroke-width="1" fill="blue" opacity="1" tooltip="enable"><title>(0.0875361,0)</title></rect><rect x="396" y="200" width="6" height="0" stroke="black" stroke-width="1" fill="blue" opacity="1" tooltip="enable"><title>(0.0888828,0)</title></rect><rect x="402" y="199.591" width="6" height="0.409417" stroke="black" stroke-width="1" fill="blue" opacity="1" tooltip="enable"><title>(0.0902295,2)</title></rect><rect x="408" y="200" width="6" height="0" stroke="black" stroke-width="1" fill="blue" opacity="1" tooltip="enable"><title>(0.0915762,0)</title></rect><rect x="414" y="199.181" width="6" height="0.818833" stroke="black" stroke-width="1" fill="blue" opacity="1" tooltip="enable"><title>(0.0929229,4)</title></rect><rect x="420" y="200" width="6" height="0" stroke="black" stroke-width="1" fill="blue" opacity="1" tooltip="enable"><title>(0.0942696,0)</title></rect><rect x="426" y="199.591" width="6" height="0.409417" stroke="black" stroke-width="1" fill="blue" opacity="1" tooltip="enable"><title>(0.0956163,2)</title></rect><rect x="432" y="199.181" width="6" height="0.818833" stroke="black" stroke-width="1" fill="blue" opacity="1" tooltip="enable"><title>(0.0969631,4)</title></rect><rect x="438" y="199.181" width="6" height="0.818833" stroke="black" stroke-width="1" fill="blue" opacity="1" tooltip="enable"><title>(0.0983098,4)</title></rect><rect x="444" y="199.591" width="6" height="0.409417" stroke="black" stroke-width="1" fill="blue" opacity="1" tooltip="enable"><title>(0.0996565,2)</title></rect><rect x="450" y="199.591" width="6" height="0.409417" stroke="black" stroke-width="1" fill="blue" opacity="1" tooltip="enable"><title>(0.101003,2)</title></rect><rect x="456" y="200" width="6" height="0" stroke="black" stroke-width="1" fill="blue" opacity="1" tooltip="enable"><title>(0.10235,0)</title></rect><rect x="462" y="200" width="6" height="0" stroke="black" stroke-width="1" fill="blue" opacity="1" tooltip="enable"><title>(0.103697,0)</title></rect><rect x="468" y="200" width="6" height="0" stroke="black" stroke-width="1" fill="blue" opacity="1" tooltip="enable"><title>(0.105043,0)</title></rect><rect x="474" y="200" width="6" height="0" stroke="black" stroke-width="1" fill="blue" opacity="1" tooltip="enable"><title>(0.10639,0)</title></rect><rect x="480" y="200" width="6" height="0" stroke="black" stroke-width="1" fill="blue" opacity="1" tooltip="enable"><title>(0.107737,0)</title></rect><rect x="486" y="199.591" width="6" height="0.409417" stroke="black" stroke-width="1" fill="blue" opacity="1" tooltip="enable"><title>(0.109083,2)</title></rect><rect x="492" y="200" width="6" height="0" stroke="black" stroke-width="1" fill="blue" opacity="1" tooltip="enable"><title>(0.11043,0)</title></rect><rect x="498" y="200" width="6" height="0" stroke="black" stroke-width="1" fill="blue" opacity="1" tooltip="enable"><title>(0.111777,0)</title></rect><rect x="504" y="200" width="6" height="0" stroke="black" stroke-width="1" fill="blue" opacity="1" tooltip="enable"><title>(0.113124,0)</title></rect><rect x="510" y="199.181" width="6" height="0.818833" stroke="black" stroke-width="1" fill="blue" opacity="1" tooltip="enable"><title>(0.11447,4)</title></rect><rect x="516" y="199.591" width="6" height="0.409417" stroke="black" stroke-width="1" fill="blue" opacity="1" tooltip="enable"><title>(0.115817,2)</title></rect><rect x="522" y="200" width="6" height="0" stroke="black" stroke-width="1" fill="blue" opacity="1" tooltip="enable"><title>(0.117164,0)</title></rect><rect x="528" y="200" width="6" height="0" stroke="black" stroke-width="1" fill="blue" opacity="1" tooltip="enable"><title>(0.11851,0)</title></rect><rect x="534" y="199.591" width="6" height="0.409417" stroke="black" stroke-width="1" fill="blue" opacity="1" tooltip="enable"><title>(0.119857,2)</title></rect><rect x="540" y="200" width="6" height="0" stroke="black" stroke-width="1" fill="blue" opacity="1" tooltip="enable"><title>(0.121204,0)</title></rect><rect x="546" y="199.181" width="6" height="0.818833" stroke="black" stroke-width="1" fill="blue" opacity="1" tooltip="enable"><title>(0.122551,4)</title></rect><rect x="552" y="200" width="6" height="0" stroke="black" stroke-width="1" fill="blue" opacity="1" tooltip="enable"><title>(0.123897,0)</title></rect><rect x="558" y="199.591" width="6" height="0.409417" stroke="black" stroke-width="1" fill="blue" opacity="1" tooltip="enable"><title>(0.125244,2)</title></rect><rect x="564" y="200" width="6" height="0" stroke="black" stroke-width="1" fill="blue" opacity="1" tooltip="enable"><title>(0.126591,0)</title></rect><rect x="570" y="200" width="6" height="0" stroke="black" stroke-width="1" fill="blue" opacity="1" tooltip="enable"><title>(0.127937,0)</title></rect><rect x="576" y="200" width="6" height="0" stroke="black" stroke-width="1" fill="blue" opacity="1" tooltip="enable"><title>(0.129284,0)</title></rect><rect x="582" y="199.591" width="6" height="0.409417" stroke="black" stroke-width="1" fill="blue" opacity="1" tooltip="enable"><title>(0.130631,2)</title></rect><rect x="588" y="199.181" width="6" height="0.818833" stroke="black" stroke-width="1" fill="blue" opacity="1" tooltip="enable"><title>(0.131977,4)</title></rect><rect x="594" y="199.795" width="6" height="0.204708" stroke="black" stroke-width="1" fill="blue" opacity="1" tooltip="enable"><title>(0.133324,1)</title></rect><text x="30" y="240" font-size="20" fill="black">0</text>
<text x="600" y="240" font-size="20" fill="black">0.134671</text>
<polyline points="0,220,600,220" stroke="black" stroke-width="1" fill="none" opacity="1"/>
<text x="720" y="20" font-size="20" fill="black">977</text>
<text x="720" y="200" font-size="20" fill="black">0</text>
<polyline points="660,0,660,200" stroke="black" stroke-width="1" fill="none" opacity="1"/>
</svg>