<?xml version="1.0" standalone="yes"?>
<!-- SVG graphic -->
<svg xmlns='http://www.w3.org/2000/svg' xmlns:xlink='http://www.w3.org/1999/xlink'
 version="1.1">
<rect x="0" y="0" width="6" height="200" stroke="black" stroke-width="1" fill="blue" opacity="1" tooltip="enable"><title>(0,2798)</title></rect><rect x="6" y="111.222" width="6" height="88.7777" stroke="black" stroke-width="1" fill="blue" opacity="1" tooltip="enable"><title>(0.00158811,1242)</title></rect><rect x="12" y="154.039" width="6" height="45.9614" stroke="black" stroke-width="1" fill="blue" opacity="1" tooltip="enable"><title>(0.00317623,643)</title></rect><rect x="18" y="175.625" width="6" height="24.3746" stroke="black" stroke-width="1" fill="blue" opacity="1" tooltip="enable"><title>(0.00476434,341)</title></rect><rect x="24" y="184.417" width="6" height="15.5826" stroke="black" stroke-width="1" fill="blue" opacity="1" tooltip="enable"><title>(0.00635245,218)</title></rect><rect x="30" y="183.703" width="6" height="16.2974" stroke="black" stroke-width="1" fill="blue" opacity="1" tooltip="enable"><title>(0.00794057,228)</title></rect><rect x="36" y="184.989" width="6" height="15.0107" stroke="black" stroke-width="1" fill="blue" opacity="1" tooltip="enable"><title>(0.00952868,210)</title></rect><rect x="42" y="186.419" width="6" height="13.5811" stroke="black" stroke-width="1" fill="blue" opacity="1" tooltip="enable"><title>(0.0111168,190)</title></rect><rect x="48" y="185.704" width="6" height="14.2959" stroke="black" stroke-width="1" fill="blue" opacity="1" tooltip="enable"><title>(0.0127049,200)</title></rect><rect x="54" y="190.136" width="6" height="9.86419" stroke="black" stroke-width="1" fill="blue" opacity="1" tooltip="enable"><title>(0.014293,138)</title></rect><rect x="60" y="187.491" width="6" height="12.5089" stroke="black" stroke-width="1" fill="blue" opacity="1" tooltip="enable"><title>(0.0158811,175)</title></rect><rect x="66" y="191.279" width="6" height="8.72051" stroke="black" stroke-width="1" fill="blue" opacity="1" tooltip="enable"><title>(0.0174692,122)</title></rect><rect x="72" y="192.066" width="6" height="7.93424" stroke="black" stroke-width="1" fill="blue" opacity="1" tooltip="enable"><title>(0.0190574,111)</title></rect><rect x="78" y="191.851" width="6" height="8.14868" stroke="black" stroke-width="1" fill="blue" opacity="1" tooltip="enable"><title>(0.0206455,114)</title></rect><rect x="84" y="195.425" width="6" height="4.5747" stroke="black" stroke-width="1" fill="blue" opacity="1" tooltip="enable"><title>(0.0222336,64)</title></rect><rect x="90" y="194.21" width="6" height="5.78985" stroke="black" stroke-width="1" fill="blue" opacity="1" tooltip="enable"><title>(0.0238217,81)</title></rect><rect x="96" y="194.353" width="6" height="5.64689" stroke="black" stroke-width="1" fill="blue" opacity="1" tooltip="enable"><title>(0.0254098,79)</title></rect><rect x="102" y="192.995" width="6" height="7.005" stroke="black" stroke-width="1" fill="blue" opacity="1" tooltip="enable"><title>(0.0269979,98)</title></rect><rect x="108" y="194.782" width="6" height="5.21801" stroke="black" stroke-width="1" fill="blue" opacity="1" tooltip="enable"><title>(0.028586,73)</title></rect><rect x="114" y="194.639" width="6" height="5.36097" stroke="black" stroke-width="1" fill="blue" opacity="1" tooltip="enable"><title>(0.0301741,75)</title></rect><rect x="120" y="195.997" width="6" height="4.00286" stroke="black" stroke-width="1" fill="blue" opacity="1" tooltip="enable"><title>(0.0317623,56)</title></rect><rect x="126" y="195.211" width="6" height="4.78913" stroke="black" stroke-width="1" fill="blue" opacity="1" tooltip="enable"><title>(0.0333504,67)</title></rect><rect x="132" y="195.211" width="6" height="4.78913" stroke="black" stroke-width="1" fill="blue" opacity="1" tooltip="enable"><title>(0.0349385,67)</title></rect><rect x="138" y="194.782" width="6" height="5.21801" stroke="black" stroke-width="1" fill="blue" opacity="1" tooltip="enable"><title>(0.0365266,73)</title></rect><rect x="144" y="196.14" width="6" height="3.8599" stroke="black" stroke-width="1" fill="blue" opacity="1" tooltip="enable"><title>(0.0381147,54)</title></rect><rect x="150" y="196.283" width="6" height="3.71694" stroke="black" stroke-width="1" fill="blue" opacity="1" tooltip="enable"><title>(0.0397028,52)</title></rect><rect x="156" y="196.069" width="6" height="3.93138" stroke="black" stroke-width="1" fill="blue" opacity="1" tooltip="enable"><title>(0.0412909,55)</title></rect><rect x="162" y="195.568" width="6" height="4.43174" stroke="black" stroke-width="1" fill="blue" opacity="1" tooltip="enable"><title>(0.0428791,62)</title></rect><rect x="168" y="197.212" width="6" height="2.78771" stroke="black" stroke-width="1" fill="blue" opacity="1" tooltip="enable"><title>(0.0444672,39)</title></rect><rect x="174" y="197.999" width="6" height="2.00143" stroke="black" stroke-width="1" fill="blue" opacity="1" tooltip="enable"><title>(0.0460553,28)</title></rect><rect x="180" y="196.569" width="6" height="3.43102" stroke="black" stroke-width="1" fill="blue" opacity="1" tooltip="enable"><title>(0.0476434,48)</title></rect><rect x="186" y="197.355" width="6" height="2.64475" stroke="black" stroke-width="1" fill="blue" opacity="1" tooltip="enable"><title>(0.0492315,37)</title></rect><rect x="192" y="198.856" width="6" height="1.14367" stroke="black" stroke-width="1" fill="blue" opacity="1" tooltip="enable"><title>(0.0508196,16)</title></rect><rect x="198" y="198.427" width="6" height="1.57255" stroke="black" stroke-width="1" fill="blue" opacity="1" tooltip="enable"><title>(0.0524077,22)</title></rect><rect x="204" y="198.999" width="6" height="1.00071" stroke="black" stroke-width="1" fill="blue" opacity="1" tooltip="enable"><title>(0.0539958,14)</title></rect><rect x="210" y="199.142" width="6" height="0.857756" stroke="black" stroke-width="1" fill="blue" opacity="1" tooltip="enable"><title>(0.055584,12)</title></rect><rect x="216" y="198.856" width="6" height="1.14367" stroke="black" stroke-width="1" fill="blue" opacity="1" tooltip="enable"><title>(0.0571721,16)</title></rect><rect x="222" y="198.999" width="6" height="1.00071" stroke="black" stroke-width="1" fill="blue" opacity="1" tooltip="enable"><title>(0.0587602,14)</title></rect><rect x="228" y="199.571" width="6" height="0.428878" stroke="black" stroke-width="1" fill="blue" opacity="1" tooltip="enable"><title>(0.0603483,6)</title></rect><rect x="234" y="199.428" width="6" height="0.571837" stroke="black" stroke-width="1" fill="blue" opacity="1" tooltip="enable"><title>(0.0619364,8)</title></rect><rect x="240" y="198.856" width="6" height="1.14367" stroke="black" stroke-width="1" fill="blue" opacity="1" tooltip="enable"><title>(0.0635245,16)</title></rect><rect x="246" y="198.999" width="6" height="1.00071" stroke="black" stroke-width="1" fill="blue" opacity="1" tooltip="enable"><title>(0.0651126,14)</title></rect><rect x="252" y="199.285" width="6" height="0.714796" stroke="black" stroke-width="1" fill="blue" opacity="1" tooltip="enable"><title>(0.0667007,10)</title></rect><rect x="258" y="199.571" width="6" height="0.428878" stroke="black" stroke-width="1" fill="blue" opacity="1" tooltip="enable"><title>(0.0682889,6)</title></rect><rect x="264" y="199.857" width="6" height="0.142959" stroke="black" stroke-width="1" fill="blue" opacity="1" tooltip="enable"><title>(0.069877,2)</title></rect><rect x="270" y="200" width="6" height="0" stroke="black" stroke-width="1" fill="blue" opacity="1" tooltip="enable"><title>(0.0714651,0)</title></rect><rect x="276" y="200" width="6" height="0" stroke="black" stroke-width="1" fill="blue" opacity="1" tooltip="enable"><title>(0.0730532,0)</title></rect><rect x="282" y="199.857" width="6" height="0.142959" stroke="black" stroke-width="1" fill="blue" opacity="1" tooltip="enable"><title>(0.0746413,2)</title></rect><rect x="288" y="200" width="6" height="0" stroke="black" stroke-width="1" fill="blue" opacity="1" tooltip="enable"><title>(0.0762294,0)</title></rect><rect x="294" y="200" width="6" height="0" stroke="black" stroke-width="1" fill="blue" opacity="1" tooltip="enable"><title>(0.0778175,0)</title></rect><rect x="300" y="200" width="6" height="0" stroke="black" stroke-width="1" fill="blue" opacity="1" tooltip="enable"><title>(0.0794057,0)</title></rect><rect x="306" y="200" width="6" height="0" stroke="black" stroke-width="1" fill="blue" opacity="1" tooltip="enable"><title>(0.0809938,0)</title></rect><rect x="312" y="200" width="6" height="0" stroke="black" stroke-width="1" fill="blue" opacity="1" tooltip="enable"><title>(0.0825819,0)</title></rect><rect x="318" y="200" width="6" height="0" stroke="black" stroke-width="1" fill="blue" opacity="1" tooltip="enable"><title>(0.08417,0)</title></rect><rect x="324" y="200" width="6" height="0" stroke="black" stroke-width="1" fill="blue" opacity="1" tooltip="enable"><title>(0.0857581,0)</title></rect><rect x="330" y="200" width="6" height="0" stroke="black" stroke-width="1" fill="blue" opacity="1" tooltip="enable"><title>(0.0873462,0)</title></rect><rect x="336" y="200" width="6" height="0" stroke="black" stroke-width="1" fill="blue" opacity="1" tooltip="enable"><title>(0.0889343,0)</title></rect><rect x="342" y="200" width="6" height="0" stroke="black" stroke-width="1" fill="blue" opacity="1" tooltip="enable"><title>(0.0905224,0)</title></rect><rect x="348" y="200" width="6" height="0" stroke="black" stroke-width="1" fill="blue" opacity="1" tooltip="enable"><title>(0.0921106,0)</title></rect><rect x="354" y="200" width="6" height="0" stroke="black" stroke-width="1" fill="blue" opacity="1" tooltip="enable"><title>(0.0936987,0)</title></rect><rect x="360" y="200" width="6" height="0" stroke="black" stroke-width="1" fill="blue" opacity="1" tooltip="enable"><title>(0.0952868,0)</title></rect><rect x="366" y="200" width="6" height="0" stroke="black" stroke-width="1" fill="blue" opacity="1" tooltip="enable"><title>(0.0968749,0)</title></rect><rect x="372" y="200" width="6" height="0" stroke="black" stroke-width="1" fill="blue" opacity="1" tooltip="enable"><title>(0.098463,0)</title></rect><rect x="378" y="200" width="6" height="0" stroke="black" stroke-width="1" fill="blue" opacity="1" tooltip="enable"><title>(0.100051,0)</title></rect><rect x="384" y="200" width="6" height="0" stroke="black" stroke-width="1" fill="blue" opacity="1" tooltip="enable"><title>(0.101639,0)</title></rect><rect x="390" y="200" width="6" height="0" stroke="black" stroke-width="1" fill="blue" opacity="1" tooltip="enable"><title>(0.103227,0)</title></rect><rect x="396" y="200" width="6" height="0" stroke="black" stroke-width="1" fill="blue" opacity="1" tooltip="enable"><title>(0.104815,0)</title></rect><rect x="402" y="200" width="6" height="0" stroke="black" stroke-width="1" fill="blue" opacity="1" tooltip="enable"><title>(0.106404,0)</title></rect><rect x="408" y="200" width="6" height="0" stroke="black" stroke-width="1" fill="blue" opacity="1" tooltip="enable"><title>(0.107992,0)</title></rect><rect x="414" y="200" width="6" height="0" stroke="black" stroke-width="1" fill="blue" opacity="1" tooltip="enable"><title>(0.10958,0)</title></rect><rect x="420" y="200" width="6" height="0" stroke="black" stroke-width="1" fill="blue" opacity="1" tooltip="enable"><title>(0.111168,0)</title></rect><rect x="426" y="200" width="6" height="0" stroke="black" stroke-width="1" fill="blue" opacity="1" tooltip="enable"><title>(0.112756,0)</title></rect><rect x="432" y="200" width="6" height="0" stroke="black" stroke-width="1" fill="blue" opacity="1" tooltip="enable"><title>(0.114344,0)</title></rect><rect x="438" y="200" width="6" height="0" stroke="black" stroke-width="1" fill="blue" opacity="1" tooltip="enable"><title>(0.115932,0)</title></rect><rect x="444" y="200" width="6" height="0" stroke="black" stroke-width="1" fill="blue" opacity="1" tooltip="enable"><title>(0.11752,0)</title></rect><rect x="450" y="200" width="6" height="0" stroke="black" stroke-width="1" fill="blue" opacity="1" tooltip="enable"><title>(0.119108,0)</title></rect><rect x="456" y="200" width="6" height="0" stroke="black" stroke-width="1" fill="blue" opacity="1" tooltip="enable"><title>(0.120697,0)</title></rect><rect x="462" y="200" width="6" height="0" stroke="black" stroke-width="1" fill="blue" opacity="1" tooltip="enable"><title>(0.122285,0)</title></rect><rect x="468" y="200" width="6" height="0" stroke="black" stroke-width="1" fill="blue" opacity="1" tooltip="enable"><title>(0.123873,0)</title></rect><rect x="474" y="200" width="6" height="0" stroke="black" stroke-width="1" fill="blue" opacity="1" tooltip="enable"><title>(0.125461,0)</title></rect><rect x="480" y="200" width="6" height="0" stroke="black" stroke-width="1" fill="blue" opacity="1" tooltip="enable"><title>(0.127049,0)</title></rect><rect x="486" y="200" width="6" height="0" stroke="black" stroke-width="1" fill="blue" opacity="1" tooltip="enable"><title>(0.128637,0)</title></rect><rect x="492" y="200" width="6" height="0" stroke="black" stroke-width="1" fill="blue" opacity="1" tooltip="enable"><title>(0.130225,0)</title></rect><rect x="498" y="200" width="6" height="0" stroke="black" stroke-width="1" fill="blue" opacity="1" tooltip="enable"><title>(0.131813,0)</title></rect><rect x="504" y="200" width="6" height="0" stroke="black" stroke-width="1" fill="blue" opacity="1" tooltip="enable"><title>(0.133401,0)</title></rect><rect x="510" y="200" width="6" height="0" stroke="black" stroke-width="1" fill="blue" opacity="1" tooltip="enable"><title>(0.13499,0)</title></rect><rect x="516" y="200" width="6" height="0" stroke="black" stroke-width="1" fill="blue" opacity="1" tooltip="enable"><title>(0.136578,0)</title></rect><rect x="522" y="200" width="6" height="0" stroke="black" stroke-width="1" fill="blue" opacity="1" tooltip="enable"><title>(0.138166,0)</title></rect><rect x="528" y="200" width="6" height="0" stroke="black" stroke-width="1" fill="blue" opacity="1" tooltip="enable"><title>(0.139754,0)</title></rect><rect x="534" y="200" width="6" height="0" stroke="black" stroke-width="1" fill="blue" opacity="1" tooltip="enable"><title>(0.141342,0)</title></rect><rect x="540" y="200" width="6" height="0" stroke="black" stroke-width="1" fill="blue" opacity="1" tooltip="enable"><title>(0.14293,0)</title></rect><rect x="546" y="200" width="6" height="0" stroke="black" stroke-width="1" fill="blue" opacity="1" tooltip="enable"><title>(0.144518,0)</title></rect><rect x="552" y="200" width="6" height="0" stroke="black" stroke-width="1" fill="blue" opacity="1" tooltip="enable"><title>(0.146106,0)</title></rect><rect x="558" y="200" width="6" height="0" stroke="black" stroke-width="1" fill="blue" opacity="1" tooltip="enable"><title>(0.147695,0)</title></rect><rect x="564" y="200" width="6" height="0" stroke="black" stroke-width="1" fill="blue" opacity="1" tooltip="enable"><title>(0.149283,0)</title></rect><rect x="570" y="200" width="6" height="0" stroke="black" stroke-width="1" fill="blue" opacity="1" tooltip="enable"><title>(0.150871,0)</title></rect><rect x="576" y="200" width="6" height="0" stroke="black" stroke-width="1" fill="blue" opacity="1" tooltip="enable"><title>(0.152459,0)</title></rect><rect x="582" y="200" width="6" height="0" stroke="black" stroke-width="1" fill="blue" opacity="1" tooltip="enable"><title>(0.154047,0)</title></rect><rect x="588" y="199.857" width="6" height="0.142959" stroke="black" stroke-width="1" fill="blue" opacity="1" tooltip="enable"><title>(0.155635,2)</title></rect><rect x="594" y="199.929" width="6" height="0.0714796" stroke="black" stroke-width="1" fill="blue" opacity="1" tooltip="enable"><title>(0.157223,1)</title></rect><text x="30" y="240" font-size="20" fill="black">0</text>
<text x="600" y="240" font-size="20" fill="black">0.158811</text>
<polyline points="0,220,600,220" stroke="black" stroke-width="1" fill="none" opacity="1"/>
<text x="720" y="20" font-size="20" fill="black">2798</text>
<text x="720" y="200" font-size="20" fill="black">0</text>
<polyline points="660,0,660,200" stroke="black" stroke-width="1" fill="none" opacity="1"/>
</svg>