<?xml version="1.0" standalone="yes"?>
<!-- SVG graphic -->
<svg xmlns='http://www.w3.org/2000/svg' xmlns:xlink='http://www.w3.org/1999/xlink'
 version="1.1">
<rect x="0" y="0" width="6" height="200" stroke="black" stroke-width="1" fill="blue" opacity="1" tooltip="enable"><title>(0,2122)</title></rect><rect x="6" y="73.327" width="6" height="126.673" stroke="black" stroke-width="1" fill="blue" opacity="1" tooltip="enable"><title>(0.00128617,1344)</title></rect><rect x="12" y="135.91" width="6" height="64.0905" stroke="black" stroke-width="1" fill="blue" opacity="1" tooltip="enable"><title>(0.00257235,680)</title></rect><rect x="18" y="159.849" width="6" height="40.1508" stroke="black" stroke-width="1" fill="blue" opacity="1" tooltip="enable"><title>(0.00385852,426)</title></rect><rect x="24" y="181.15" width="6" height="18.8501" stroke="black" stroke-width="1" fill="blue" opacity="1" tooltip="enable"><title>(0.00514469,200)</title></rect><rect x="30" y="179.642" width="6" height="20.3582" stroke="black" stroke-width="1" fill="blue" opacity="1" tooltip="enable"><title>(0.00643087,216)</title></rect><rect x="36" y="180.302" width="6" height="19.6984" stroke="black" stroke-width="1" fill="blue" opacity="1" tooltip="enable"><title>(0.00771704,209)</title></rect><rect x="42" y="182.375" width="6" height="17.6249" stroke="black" stroke-width="1" fill="blue" opacity="1" tooltip="enable"><title>(0.00900322,187)</title></rect><rect x="48" y="183.6" width="6" height="16.3996" stroke="black" stroke-width="1" fill="blue" opacity="1" tooltip="enable"><title>(0.0102894,174)</title></rect><rect x="54" y="185.862" width="6" height="14.1376" stroke="black" stroke-width="1" fill="blue" opacity="1" tooltip="enable"><title>(0.0115756,150)</title></rect><rect x="60" y="184.92" width="6" height="15.0801" stroke="black" stroke-width="1" fill="blue" opacity="1" tooltip="enable"><title>(0.0128617,160)</title></rect><rect x="66" y="184.92" width="6" height="15.0801" stroke="black" stroke-width="1" fill="blue" opacity="1" tooltip="enable"><title>(0.0141479,160)</title></rect><rect x="72" y="187.747" width="6" height="12.2526" stroke="black" stroke-width="1" fill="blue" opacity="1" tooltip="enable"><title>(0.0154341,130)</title></rect><rect x="78" y="186.239" width="6" height="13.7606" stroke="black" stroke-width="1" fill="blue" opacity="1" tooltip="enable"><title>(0.0167203,146)</title></rect><rect x="84" y="189.444" width="6" height="10.5561" stroke="black" stroke-width="1" fill="blue" opacity="1" tooltip="enable"><title>(0.0180064,112)</title></rect><rect x="90" y="190.009" width="6" height="9.99057" stroke="black" stroke-width="1" fill="blue" opacity="1" tooltip="enable"><title>(0.0192926,106)</title></rect><rect x="96" y="191.706" width="6" height="8.29406" stroke="black" stroke-width="1" fill="blue" opacity="1" tooltip="enable"><title>(0.0205788,88)</title></rect><rect x="102" y="188.69" width="6" height="11.3101" stroke="black" stroke-width="1" fill="blue" opacity="1" tooltip="enable"><title>(0.021865,120)</title></rect><rect x="108" y="189.444" width="6" height="10.5561" stroke="black" stroke-width="1" fill="blue" opacity="1" tooltip="enable"><title>(0.0231511,112)</title></rect><rect x="114" y="190.952" width="6" height="9.04807" stroke="black" stroke-width="1" fill="blue" opacity="1" tooltip="enable"><title>(0.0244373,96)</title></rect><rect x="120" y="191.517" width="6" height="8.48256" stroke="black" stroke-width="1" fill="blue" opacity="1" tooltip="enable"><title>(0.0257235,90)</title></rect><rect x="126" y="192.837" width="6" height="7.16305" stroke="black" stroke-width="1" fill="blue" opacity="1" tooltip="enable"><title>(0.0270096,76)</title></rect><rect x="132" y="195.476" width="6" height="4.52403" stroke="black" stroke-width="1" fill="blue" opacity="1" tooltip="enable"><title>(0.0282958,48)</title></rect><rect x="138" y="195.476" width="6" height="4.52403" stroke="black" stroke-width="1" fill="blue" opacity="1" tooltip="enable"><title>(0.029582,48)</title></rect><rect x="144" y="193.591" width="6" height="6.40905" stroke="black" stroke-width="1" fill="blue" opacity="1" tooltip="enable"><title>(0.0308682,68)</title></rect><rect x="150" y="195.287" width="6" height="4.71254" stroke="black" stroke-width="1" fill="blue" opacity="1" tooltip="enable"><title>(0.0321543,50)</title></rect><rect x="156" y="196.89" width="6" height="3.11027" stroke="black" stroke-width="1" fill="blue" opacity="1" tooltip="enable"><title>(0.0334405,33)</title></rect><rect x="162" y="195.287" width="6" height="4.71254" stroke="black" stroke-width="1" fill="blue" opacity="1" tooltip="enable"><title>(0.0347267,50)</title></rect><rect x="168" y="195.57" width="6" height="4.42978" stroke="black" stroke-width="1" fill="blue" opacity="1" tooltip="enable"><title>(0.0360129,47)</title></rect><rect x="174" y="195.664" width="6" height="4.33553" stroke="black" stroke-width="1" fill="blue" opacity="1" tooltip="enable"><title>(0.037299,46)</title></rect><rect x="180" y="196.041" width="6" height="3.95853" stroke="black" stroke-width="1" fill="blue" opacity="1" tooltip="enable"><title>(0.0385852,42)</title></rect><rect x="186" y="196.041" width="6" height="3.95853" stroke="black" stroke-width="1" fill="blue" opacity="1" tooltip="enable"><title>(0.0398714,42)</title></rect><rect x="192" y="196.701" width="6" height="3.29877" stroke="black" stroke-width="1" fill="blue" opacity="1" tooltip="enable"><title>(0.0411576,35)</title></rect><rect x="198" y="196.89" width="6" height="3.11027" stroke="black" stroke-width="1" fill="blue" opacity="1" tooltip="enable"><title>(0.0424437,33)</title></rect><rect x="204" y="196.795" width="6" height="3.20452" stroke="black" stroke-width="1" fill="blue" opacity="1" tooltip="enable"><title>(0.0437299,34)</title></rect><rect x="210" y="196.984" width="6" height="3.01602" stroke="black" stroke-width="1" fill="blue" opacity="1" tooltip="enable"><title>(0.0450161,32)</title></rect><rect x="216" y="197.361" width="6" height="2.63902" stroke="black" stroke-width="1" fill="blue" opacity="1" tooltip="enable"><title>(0.0463023,28)</title></rect><rect x="222" y="196.418" width="6" height="3.58153" stroke="black" stroke-width="1" fill="blue" opacity="1" tooltip="enable"><title>(0.0475884,38)</title></rect><rect x="228" y="198.303" width="6" height="1.69651" stroke="black" stroke-width="1" fill="blue" opacity="1" tooltip="enable"><title>(0.0488746,18)</title></rect><rect x="234" y="197.361" width="6" height="2.63902" stroke="black" stroke-width="1" fill="blue" opacity="1" tooltip="enable"><title>(0.0501608,28)</title></rect><rect x="240" y="197.926" width="6" height="2.07352" stroke="black" stroke-width="1" fill="blue" opacity="1" tooltip="enable"><title>(0.0514469,22)</title></rect><rect x="246" y="197.926" width="6" height="2.07352" stroke="black" stroke-width="1" fill="blue" opacity="1" tooltip="enable"><title>(0.0527331,22)</title></rect><rect x="252" y="198.869" width="6" height="1.13101" stroke="black" stroke-width="1" fill="blue" opacity="1" tooltip="enable"><title>(0.0540193,12)</title></rect><rect x="258" y="198.68" width="6" height="1.31951" stroke="black" stroke-width="1" fill="blue" opacity="1" tooltip="enable"><title>(0.0553055,14)</title></rect><rect x="264" y="199.246" width="6" height="0.754006" stroke="black" stroke-width="1" fill="blue" opacity="1" tooltip="enable"><title>(0.0565916,8)</title></rect><rect x="270" y="199.434" width="6" height="0.565504" stroke="black" stroke-width="1" fill="blue" opacity="1" tooltip="enable"><title>(0.0578778,6)</title></rect><rect x="276" y="199.811" width="6" height="0.188501" stroke="black" stroke-width="1" fill="blue" opacity="1" tooltip="enable"><title>(0.059164,2)</title></rect><rect x="282" y="200" width="6" height="0" stroke="black" stroke-width="1" fill="blue" opacity="1" tooltip="enable"><title>(0.0604502,0)</title></rect><rect x="288" y="200" width="6" height="0" stroke="black" stroke-width="1" fill="blue" opacity="1" tooltip="enable"><title>(0.0617363,0)</title></rect><rect x="294" y="200" width="6" height="0" stroke="black" stroke-width="1" fill="blue" opacity="1" tooltip="enable"><title>(0.0630225,0)</title></rect><rect x="300" y="200" width="6" height="0" stroke="black" stroke-width="1" fill="blue" opacity="1" tooltip="enable"><title>(0.0643087,0)</title></rect><rect x="306" y="199.623" width="6" height="0.377003" stroke="black" stroke-width="1" fill="blue" opacity="1" tooltip="enable"><title>(0.0655949,4)</title></rect><rect x="312" y="199.623" width="6" height="0.377003" stroke="black" stroke-width="1" fill="blue" opacity="1" tooltip="enable"><title>(0.066881,4)</title></rect><rect x="318" y="199.434" width="6" height="0.565504" stroke="black" stroke-width="1" fill="blue" opacity="1" tooltip="enable"><title>(0.0681672,6)</title></rect><rect x="324" y="200" width="6" height="0" stroke="black" stroke-width="1" fill="blue" opacity="1" tooltip="enable"><title>(0.0694534,0)</title></rect><rect x="330" y="199.246" width="6" height="0.754006" stroke="black" stroke-width="1" fill="blue" opacity="1" tooltip="enable"><title>(0.0707396,8)</title></rect><rect x="336" y="199.623" width="6" height="0.377003" stroke="black" stroke-width="1" fill="blue" opacity="1" tooltip="enable"><title>(0.0720257,4)</title></rect><rect x="342" y="199.811" width="6" height="0.188501" stroke="black" stroke-width="1" fill="blue" opacity="1" tooltip="enable"><title>(0.0733119,2)</title></rect><rect x="348" y="199.623" width="6" height="0.377003" stroke="black" stroke-width="1" fill="blue" opacity="1" tooltip="enable"><title>(0.0745981,4)</title></rect><rect x="354" y="199.811" width="6" height="0.188501" stroke="black" stroke-width="1" fill="blue" opacity="1" tooltip="enable"><title>(0.0758842,2)</title></rect><rect x="360" y="199.717" width="6" height="0.282752" stroke="black" stroke-width="1" fill="blue" opacity="1" tooltip="enable"><title>(0.0771704,3)</title></rect><rect x="366" y="199.906" width="6" height="0.0942507" stroke="black" stroke-width="1" fill="blue" opacity="1" tooltip="enable"><title>(0.0784566,1)</title></rect><rect x="372" y="199.811" width="6" height="0.188501" stroke="black" stroke-width="1" fill="blue" opacity="1" tooltip="enable"><title>(0.0797428,2)</title></rect><rect x="378" y="199.811" width="6" height="0.188501" stroke="black" stroke-width="1" fill="blue" opacity="1" tooltip="enable"><title>(0.0810289,2)</title></rect><rect x="384" y="199.811" width="6" height="0.188501" stroke="black" stroke-width="1" fill="blue" opacity="1" tooltip="enable"><title>(0.0823151,2)</title></rect><rect x="390" y="199.623" width="6" height="0.377003" stroke="black" stroke-width="1" fill="blue" opacity="1" tooltip="enable"><title>(0.0836013,4)</title></rect><rect x="396" y="199.811" width="6" height="0.188501" stroke="black" stroke-width="1" fill="blue" opacity="1" tooltip="enable"><title>(0.0848875,2)</title></rect><rect x="402" y="199.057" width="6" height="0.942507" stroke="black" stroke-width="1" fill="blue" opacity="1" tooltip="enable"><title>(0.0861736,10)</title></rect><rect x="408" y="199.811" width="6" height="0.188501" stroke="black" stroke-width="1" fill="blue" opacity="1" tooltip="enable"><title>(0.0874598,2)</title></rect><rect x="414" y="200" width="6" height="0" stroke="black" stroke-width="1" fill="blue" opacity="1" tooltip="enable"><title>(0.088746,0)</title></rect><rect x="420" y="199.623" width="6" height="0.377003" stroke="black" stroke-width="1" fill="blue" opacity="1" tooltip="enable"><title>(0.0900322,4)</title></rect><rect x="426" y="199.623" width="6" height="0.377003" stroke="black" stroke-width="1" fill="blue" opacity="1" tooltip="enable"><title>(0.0913183,4)</title></rect><rect x="432" y="200" width="6" height="0" stroke="black" stroke-width="1" fill="blue" opacity="1" tooltip="enable"><title>(0.0926045,0)</title></rect><rect x="438" y="199.811" width="6" height="0.188501" stroke="black" stroke-width="1" fill="blue" opacity="1" tooltip="enable"><title>(0.0938907,2)</title></rect><rect x="444" y="200" width="6" height="0" stroke="black" stroke-width="1" fill="blue" opacity="1" tooltip="enable"><title>(0.0951768,0)</title></rect><rect x="450" y="199.623" width="6" height="0.377003" stroke="black" stroke-width="1" fill="blue" opacity="1" tooltip="enable"><title>(0.096463,4)</title></rect><rect x="456" y="200" width="6" height="0" stroke="black" stroke-width="1" fill="blue" opacity="1" tooltip="enable"><title>(0.0977492,0)</title></rect><rect x="462" y="200" width="6" height="0" stroke="black" stroke-width="1" fill="blue" opacity="1" tooltip="enable"><title>(0.0990354,0)</title></rect><rect x="468" y="199.811" width="6" height="0.188501" stroke="black" stroke-width="1" fill="blue" opacity="1" tooltip="enable"><title>(0.100322,2)</title></rect><rect x="474" y="199.811" width="6" height="0.188501" stroke="black" stroke-width="1" fill="blue" opacity="1" tooltip="enable"><title>(0.101608,2)</title></rect><rect x="480" y="200" width="6" height="0" stroke="black" stroke-width="1" fill="blue" opacity="1" tooltip="enable"><title>(0.102894,0)</title></rect><rect x="486" y="200" width="6" height="0" stroke="black" stroke-width="1" fill="blue" opacity="1" tooltip="enable"><title>(0.10418,0)</title></rect><rect x="492" y="199.717" width="6" height="0.282752" stroke="black" stroke-width="1" fill="blue" opacity="1" tooltip="enable"><title>(0.105466,3)</title></rect><rect x="498" y="199.906" width="6" height="0.0942507" stroke="black" stroke-width="1" fill="blue" opacity="1" tooltip="enable"><title>(0.106752,1)</title></rect><rect x="504" y="200" width="6" height="0" stroke="black" stroke-width="1" fill="blue" opacity="1" tooltip="enable"><title>(0.108039,0)</title></rect><rect x="510" y="200" width="6" height="0" stroke="black" stroke-width="1" fill="blue" opacity="1" tooltip="enable"><title>(0.109325,0)</title></rect><rect x="516" y="200" width="6" height="0" stroke="black" stroke-width="1" fill="blue" opacity="1" tooltip="enable"><title>(0.110611,0)</title></rect><rect x="522" y="200" width="6" height="0" stroke="black" stroke-width="1" fill="blue" opacity="1" tooltip="enable"><title>(0.111897,0)</title></rect><rect x="528" y="199.811" width="6" height="0.188501" stroke="black" stroke-width="1" fill="blue" opacity="1" tooltip="enable"><title>(0.113183,2)</title></rect><rect x="534" y="200" width="6" height="0" stroke="black" stroke-width="1" fill="blue" opacity="1" tooltip="enable"><title>(0.114469,0)</title></rect><rect x="540" y="200" width="6" height="0" stroke="black" stroke-width="1" fill="blue" opacity="1" tooltip="enable"><title>(0.115756,0)</title></rect><rect x="546" y="200" width="6" height="0" stroke="black" stroke-width="1" fill="blue" opacity="1" tooltip="enable"><title>(0.117042,0)</title></rect><rect x="552" y="200" width="6" height="0" stroke="black" stroke-width="1" fill="blue" opacity="1" tooltip="enable"><title>(0.118328,0)</title></rect><rect x="558" y="200" width="6" height="0" stroke="black" stroke-width="1" fill="blue" opacity="1" tooltip="enable"><title>(0.119614,0)</title></rect><rect x="564" y="200" width="6" height="0" stroke="black" stroke-width="1" fill="blue" opacity="1" tooltip="enable"><title>(0.1209,0)</title></rect><rect x="570" y="200" width="6" height="0" stroke="black" stroke-width="1" fill="blue" opacity="1" tooltip="enable"><title>(0.122186,0)</title></rect><rect x="576" y="200" width="6" height="0" stroke="black" stroke-width="1" fill="blue" opacity="1" tooltip="enable"><title>(0.123473,0)</title></rect><rect x="582" y="200" width="6" height="0" stroke="black" stroke-width="1" fill="blue" opacity="1" tooltip="enable"><title>(0.124759,0)</title></rect><rect x="588" y="199.811" width="6" height="0.188501" stroke="black" stroke-width="1" fill="blue" opacity="1" tooltip="enable"><title>(0.126045,2)</title></rect><rect x="594" y="199.906" width="6" height="0.0942507" stroke="black" stroke-width="1" fill="blue" opacity="1" tooltip="enable"><title>(0.127331,1)</title></rect><text x="30" y="240" font-size="20" fill="black">0</text>
<text x="600" y="240" font-size="20" fill="black">0.128617</text>
<polyline points="0,220,600,220" stroke="black" stroke-width="1" fill="none" opacity="1"/>
<text x="720" y="20" font-size="20" fill="black">2122</text>
<text x="720" y="200" font-size="20" fill="black">0</text>
<polyline points="660,0,660,200" stroke="black" stroke-width="1" fill="none" opacity="1"/>
</svg>