<?xml version="1.0" standalone="yes"?>
<!-- SVG graphic -->
<svg xmlns='http://www.w3.org/2000/svg' xmlns:xlink='http://www.w3.org/1999/xlink'
 version="1.1">
<rect x="0" y="0" width="6" height="200" stroke="black" stroke-width="1" fill="blue" opacity="1" tooltip="enable"><title>(0,3035)</title></rect><rect x="6" y="142.076" width="6" height="57.9242" stroke="black" stroke-width="1" fill="blue" opacity="1" tooltip="enable"><title>(0.000654968,879)</title></rect><rect x="12" y="171.532" width="6" height="28.4679" stroke="black" stroke-width="1" fill="blue" opacity="1" tooltip="enable"><title>(0.00130994,432)</title></rect><rect x="18" y="184.975" width="6" height="15.0247" stroke="black" stroke-width="1" fill="blue" opacity="1" tooltip="enable"><title>(0.0019649,228)</title></rect><rect x="24" y="189.588" width="6" height="10.4119" stroke="black" stroke-width="1" fill="blue" opacity="1" tooltip="enable"><title>(0.00261987,158)</title></rect><rect x="30" y="191.499" width="6" height="8.50082" stroke="black" stroke-width="1" fill="blue" opacity="1" tooltip="enable"><title>(0.00327484,129)</title></rect><rect x="36" y="190.379" width="6" height="9.62109" stroke="black" stroke-width="1" fill="blue" opacity="1" tooltip="enable"><title>(0.00392981,146)</title></rect><rect x="42" y="191.499" width="6" height="8.50082" stroke="black" stroke-width="1" fill="blue" opacity="1" tooltip="enable"><title>(0.00458477,129)</title></rect><rect x="48" y="191.236" width="6" height="8.76442" stroke="black" stroke-width="1" fill="blue" opacity="1" tooltip="enable"><title>(0.00523974,133)</title></rect><rect x="54" y="191.631" width="6" height="8.36903" stroke="black" stroke-width="1" fill="blue" opacity="1" tooltip="enable"><title>(0.00589471,127)</title></rect><rect x="60" y="190.511" width="6" height="9.48929" stroke="black" stroke-width="1" fill="blue" opacity="1" tooltip="enable"><title>(0.00654968,144)</title></rect><rect x="66" y="191.17" width="6" height="8.83031" stroke="black" stroke-width="1" fill="blue" opacity="1" tooltip="enable"><title>(0.00720464,134)</title></rect><rect x="72" y="193.081" width="6" height="6.91928" stroke="black" stroke-width="1" fill="blue" opacity="1" tooltip="enable"><title>(0.00785961,105)</title></rect><rect x="78" y="192.685" width="6" height="7.31466" stroke="black" stroke-width="1" fill="blue" opacity="1" tooltip="enable"><title>(0.00851458,111)</title></rect><rect x="84" y="192.751" width="6" height="7.24876" stroke="black" stroke-width="1" fill="blue" opacity="1" tooltip="enable"><title>(0.00916955,110)</title></rect><rect x="90" y="193.41" width="6" height="6.58979" stroke="black" stroke-width="1" fill="blue" opacity="1" tooltip="enable"><title>(0.00982451,100)</title></rect><rect x="96" y="194.465" width="6" height="5.53542" stroke="black" stroke-width="1" fill="blue" opacity="1" tooltip="enable"><title>(0.0104795,84)</title></rect><rect x="102" y="194.267" width="6" height="5.73311" stroke="black" stroke-width="1" fill="blue" opacity="1" tooltip="enable"><title>(0.0111344,87)</title></rect><rect x="108" y="194.794" width="6" height="5.20593" stroke="black" stroke-width="1" fill="blue" opacity="1" tooltip="enable"><title>(0.0117894,79)</title></rect><rect x="114" y="196.573" width="6" height="3.42669" stroke="black" stroke-width="1" fill="blue" opacity="1" tooltip="enable"><title>(0.0124444,52)</title></rect><rect x="120" y="193.213" width="6" height="6.78748" stroke="black" stroke-width="1" fill="blue" opacity="1" tooltip="enable"><title>(0.0130994,103)</title></rect><rect x="126" y="196.178" width="6" height="3.82208" stroke="black" stroke-width="1" fill="blue" opacity="1" tooltip="enable"><title>(0.0137543,58)</title></rect><rect x="132" y="194.662" width="6" height="5.33773" stroke="black" stroke-width="1" fill="blue" opacity="1" tooltip="enable"><title>(0.0144093,81)</title></rect><rect x="138" y="195.783" width="6" height="4.21746" stroke="black" stroke-width="1" fill="blue" opacity="1" tooltip="enable"><title>(0.0150643,64)</title></rect><rect x="144" y="195.387" width="6" height="4.61285" stroke="black" stroke-width="1" fill="blue" opacity="1" tooltip="enable"><title>(0.0157192,70)</title></rect><rect x="150" y="195.651" width="6" height="4.34926" stroke="black" stroke-width="1" fill="blue" opacity="1" tooltip="enable"><title>(0.0163742,66)</title></rect><rect x="156" y="196.573" width="6" height="3.42669" stroke="black" stroke-width="1" fill="blue" opacity="1" tooltip="enable"><title>(0.0170292,52)</title></rect><rect x="162" y="195.783" width="6" height="4.21746" stroke="black" stroke-width="1" fill="blue" opacity="1" tooltip="enable"><title>(0.0176841,64)</title></rect><rect x="168" y="197.43" width="6" height="2.57002" stroke="black" stroke-width="1" fill="blue" opacity="1" tooltip="enable"><title>(0.0183391,39)</title></rect><rect x="174" y="196.639" width="6" height="3.36079" stroke="black" stroke-width="1" fill="blue" opacity="1" tooltip="enable"><title>(0.0189941,51)</title></rect><rect x="180" y="197.364" width="6" height="2.63591" stroke="black" stroke-width="1" fill="blue" opacity="1" tooltip="enable"><title>(0.019649,40)</title></rect><rect x="186" y="197.759" width="6" height="2.24053" stroke="black" stroke-width="1" fill="blue" opacity="1" tooltip="enable"><title>(0.020304,34)</title></rect><rect x="192" y="196.639" width="6" height="3.36079" stroke="black" stroke-width="1" fill="blue" opacity="1" tooltip="enable"><title>(0.020959,51)</title></rect><rect x="198" y="197.166" width="6" height="2.83361" stroke="black" stroke-width="1" fill="blue" opacity="1" tooltip="enable"><title>(0.0216139,43)</title></rect><rect x="204" y="196.442" width="6" height="3.55848" stroke="black" stroke-width="1" fill="blue" opacity="1" tooltip="enable"><title>(0.0222689,54)</title></rect><rect x="210" y="197.891" width="6" height="2.10873" stroke="black" stroke-width="1" fill="blue" opacity="1" tooltip="enable"><title>(0.0229239,32)</title></rect><rect x="216" y="198.155" width="6" height="1.84514" stroke="black" stroke-width="1" fill="blue" opacity="1" tooltip="enable"><title>(0.0235788,28)</title></rect><rect x="222" y="198.287" width="6" height="1.71334" stroke="black" stroke-width="1" fill="blue" opacity="1" tooltip="enable"><title>(0.0242338,26)</title></rect><rect x="228" y="196.507" width="6" height="3.49259" stroke="black" stroke-width="1" fill="blue" opacity="1" tooltip="enable"><title>(0.0248888,53)</title></rect><rect x="234" y="197.957" width="6" height="2.04283" stroke="black" stroke-width="1" fill="blue" opacity="1" tooltip="enable"><title>(0.0255437,31)</title></rect><rect x="240" y="197.891" width="6" height="2.10873" stroke="black" stroke-width="1" fill="blue" opacity="1" tooltip="enable"><title>(0.0261987,32)</title></rect><rect x="246" y="198.023" width="6" height="1.97694" stroke="black" stroke-width="1" fill="blue" opacity="1" tooltip="enable"><title>(0.0268537,30)</title></rect><rect x="252" y="198.287" width="6" height="1.71334" stroke="black" stroke-width="1" fill="blue" opacity="1" tooltip="enable"><title>(0.0275086,26)</title></rect><rect x="258" y="198.682" width="6" height="1.31796" stroke="black" stroke-width="1" fill="blue" opacity="1" tooltip="enable"><title>(0.0281636,20)</title></rect><rect x="264" y="198.023" width="6" height="1.97694" stroke="black" stroke-width="1" fill="blue" opacity="1" tooltip="enable"><title>(0.0288186,30)</title></rect><rect x="270" y="199.012" width="6" height="0.988468" stroke="black" stroke-width="1" fill="blue" opacity="1" tooltip="enable"><title>(0.0294735,15)</title></rect><rect x="276" y="198.616" width="6" height="1.38386" stroke="black" stroke-width="1" fill="blue" opacity="1" tooltip="enable"><title>(0.0301285,21)</title></rect><rect x="282" y="198.55" width="6" height="1.44975" stroke="black" stroke-width="1" fill="blue" opacity="1" tooltip="enable"><title>(0.0307835,22)</title></rect><rect x="288" y="198.55" width="6" height="1.44975" stroke="black" stroke-width="1" fill="blue" opacity="1" tooltip="enable"><title>(0.0314384,22)</title></rect><rect x="294" y="198.616" width="6" height="1.38386" stroke="black" stroke-width="1" fill="blue" opacity="1" tooltip="enable"><title>(0.0320934,21)</title></rect><rect x="300" y="198.418" width="6" height="1.58155" stroke="black" stroke-width="1" fill="blue" opacity="1" tooltip="enable"><title>(0.0327484,24)</title></rect><rect x="306" y="198.353" width="6" height="1.64745" stroke="black" stroke-width="1" fill="blue" opacity="1" tooltip="enable"><title>(0.0334033,25)</title></rect><rect x="312" y="198.55" width="6" height="1.44975" stroke="black" stroke-width="1" fill="blue" opacity="1" tooltip="enable"><title>(0.0340583,22)</title></rect><rect x="318" y="199.077" width="6" height="0.92257" stroke="black" stroke-width="1" fill="blue" opacity="1" tooltip="enable"><title>(0.0347133,14)</title></rect><rect x="324" y="199.209" width="6" height="0.790774" stroke="black" stroke-width="1" fill="blue" opacity="1" tooltip="enable"><title>(0.0353682,12)</title></rect><rect x="330" y="198.946" width="6" height="1.05437" stroke="black" stroke-width="1" fill="blue" opacity="1" tooltip="enable"><title>(0.0360232,16)</title></rect><rect x="336" y="199.605" width="6" height="0.395387" stroke="black" stroke-width="1" fill="blue" opacity="1" tooltip="enable"><title>(0.0366782,6)</title></rect><rect x="342" y="199.407" width="6" height="0.593081" stroke="black" stroke-width="1" fill="blue" opacity="1" tooltip="enable"><title>(0.0373331,9)</title></rect><rect x="348" y="199.012" width="6" height="0.988468" stroke="black" stroke-width="1" fill="blue" opacity="1" tooltip="enable"><title>(0.0379881,15)</title></rect><rect x="354" y="198.946" width="6" height="1.05437" stroke="black" stroke-width="1" fill="blue" opacity="1" tooltip="enable"><title>(0.0386431,16)</title></rect><rect x="360" y="199.341" width="6" height="0.658979" stroke="black" stroke-width="1" fill="blue" opacity="1" tooltip="enable"><title>(0.0392981,10)</title></rect><rect x="366" y="199.539" width="6" height="0.461285" stroke="black" stroke-width="1" fill="blue" opacity="1" tooltip="enable"><title>(0.039953,7)</title></rect><rect x="372" y="199.077" width="6" height="0.92257" stroke="black" stroke-width="1" fill="blue" opacity="1" tooltip="enable"><title>(0.040608,14)</title></rect><rect x="378" y="199.539" width="6" height="0.461285" stroke="black" stroke-width="1" fill="blue" opacity="1" tooltip="enable"><title>(0.041263,7)</title></rect><rect x="384" y="199.605" width="6" height="0.395387" stroke="black" stroke-width="1" fill="blue" opacity="1" tooltip="enable"><title>(0.0419179,6)</title></rect><rect x="390" y="199.341" width="6" height="0.658979" stroke="black" stroke-width="1" fill="blue" opacity="1" tooltip="enable"><title>(0.0425729,10)</title></rect><rect x="396" y="198.814" width="6" height="1.18616" stroke="black" stroke-width="1" fill="blue" opacity="1" tooltip="enable"><title>(0.0432279,18)</title></rect><rect x="402" y="199.736" width="6" height="0.263591" stroke="black" stroke-width="1" fill="blue" opacity="1" tooltip="enable"><title>(0.0438828,4)</title></rect><rect x="408" y="199.473" width="6" height="0.527183" stroke="black" stroke-width="1" fill="blue" opacity="1" tooltip="enable"><title>(0.0445378,8)</title></rect><rect x="414" y="199.407" width="6" height="0.593081" stroke="black" stroke-width="1" fill="blue" opacity="1" tooltip="enable"><title>(0.0451928,9)</title></rect><rect x="420" y="199.539" width="6" height="0.461285" stroke="black" stroke-width="1" fill="blue" opacity="1" tooltip="enable"><title>(0.0458477,7)</title></rect><rect x="426" y="199.341" width="6" height="0.658979" stroke="black" stroke-width="1" fill="blue" opacity="1" tooltip="enable"><title>(0.0465027,10)</title></rect><rect x="432" y="199.868" width="6" height="0.131796" stroke="black" stroke-width="1" fill="blue" opacity="1" tooltip="enable"><title>(0.0471577,2)</title></rect><rect x="438" y="199.473" width="6" height="0.527183" stroke="black" stroke-width="1" fill="blue" opacity="1" tooltip="enable"><title>(0.0478126,8)</title></rect><rect x="444" y="199.868" width="6" height="0.131796" stroke="black" stroke-width="1" fill="blue" opacity="1" tooltip="enable"><title>(0.0484676,2)</title></rect><rect x="450" y="199.736" width="6" height="0.263591" stroke="black" stroke-width="1" fill="blue" opacity="1" tooltip="enable"><title>(0.0491226,4)</title></rect><rect x="456" y="200" width="6" height="0" stroke="black" stroke-width="1" fill="blue" opacity="1" tooltip="enable"><title>(0.0497775,0)</title></rect><rect x="462" y="200" width="6" height="0" stroke="black" stroke-width="1" fill="blue" opacity="1" tooltip="enable"><title>(0.0504325,0)</title></rect><rect x="468" y="199.473" width="6" height="0.527183" stroke="black" stroke-width="1" fill="blue" opacity="1" tooltip="enable"><title>(0.0510875,8)</title></rect><rect x="474" y="200" width="6" height="0" stroke="black" stroke-width="1" fill="blue" opacity="1" tooltip="enable"><title>(0.0517424,0)</title></rect><rect x="480" y="200" width="6" height="0" stroke="black" stroke-width="1" fill="blue" opacity="1" tooltip="enable"><title>(0.0523974,0)</title></rect><rect x="486" y="199.868" width="6" height="0.131796" stroke="black" stroke-width="1" fill="blue" opacity="1" tooltip="enable"><title>(0.0530524,2)</title></rect><rect x="492" y="199.868" width="6" height="0.131796" stroke="black" stroke-width="1" fill="blue" opacity="1" tooltip="enable"><title>(0.0537073,2)</title></rect><rect x="498" y="199.473" width="6" height="0.527183" stroke="black" stroke-width="1" fill="blue" opacity="1" tooltip="enable"><title>(0.0543623,8)</title></rect><rect x="504" y="199.868" width="6" height="0.131796" stroke="black" stroke-width="1" fill="blue" opacity="1" tooltip="enable"><title>(0.0550173,2)</title></rect><rect x="510" y="199.736" width="6" height="0.263591" stroke="black" stroke-width="1" fill="blue" opacity="1" tooltip="enable"><title>(0.0556722,4)</title></rect><rect x="516" y="200" width="6" height="0" stroke="black" stroke-width="1" fill="blue" opacity="1" tooltip="enable"><title>(0.0563272,0)</title></rect><rect x="522" y="200" width="6" height="0" stroke="black" stroke-width="1" fill="blue" opacity="1" tooltip="enable"><title>(0.0569822,0)</title></rect><rect x="528" y="200" width="6" height="0" stroke="black" stroke-width="1" fill="blue" opacity="1" tooltip="enable"><title>(0.0576371,0)</title></rect><rect x="534" y="200" width="6" height="0" stroke="black" stroke-width="1" fill="blue" opacity="1" tooltip="enable"><title>(0.0582921,0)</title></rect><rect x="540" y="200" width="6" height="0" stroke="black" stroke-width="1" fill="blue" opacity="1" tooltip="enable"><title>(0.0589471,0)</title></rect><rect x="546" y="199.868" width="6" height="0.131796" stroke="black" stroke-width="1" fill="blue" opacity="1" tooltip="enable"><title>(0.059602,2)</title></rect><rect x="552" y="199.868" width="6" height="0.131796" stroke="black" stroke-width="1" fill="blue" opacity="1" tooltip="enable"><title>(0.060257,2)</title></rect><rect x="558" y="199.868" width="6" height="0.131796" stroke="black" stroke-width="1" fill="blue" opacity="1" tooltip="enable"><title>(0.060912,2)</title></rect><rect x="564" y="200" width="6" height="0" stroke="black" stroke-width="1" fill="blue" opacity="1" tooltip="enable"><title>(0.0615669,0)</title></rect><rect x="570" y="200" width="6" height="0" stroke="black" stroke-width="1" fill="blue" opacity="1" tooltip="enable"><title>(0.0622219,0)</title></rect><rect x="576" y="200" width="6" height="0" stroke="black" stroke-width="1" fill="blue" opacity="1" tooltip="enable"><title>(0.0628769,0)</title></rect><rect x="582" y="200" width="6" height="0" stroke="black" stroke-width="1" fill="blue" opacity="1" tooltip="enable"><title>(0.0635319,0)</title></rect><rect x="588" y="200" width="6" height="0" stroke="black" stroke-width="1" fill="blue" opacity="1" tooltip="enable"><title>(0.0641868,0)</title></rect><rect x="594" y="199.934" width="6" height="0.0658979" stroke="black" stroke-width="1" fill="blue" opacity="1" tooltip="enable"><title>(0.0648418,1)</title></rect><text x="30" y="240" font-size="20" fill="black">0</text>
<text x="600" y="240" font-size="20" fill="black">0.0654968</text>
<polyline points="0,220,600,220" stroke="black" stroke-width="1" fill="none" opacity="1"/>
<text x="720" y="20" font-size="20" fill="black">3035</text>
<text x="720" y="200" font-size="20" fill="black">0</text>
<polyline points="660,0,660,200" stroke="black" stroke-width="1" fill="none" opacity="1"/>
</svg>