<?xml version="1.0" standalone="yes"?>
<!-- SVG graphic -->
<svg xmlns='http://www.w3.org/2000/svg' xmlns:xlink='http://www.w3.org/1999/xlink'
 version="1.1">
<rect x="0" y="0" width="6" height="200" stroke="black" stroke-width="1" fill="blue" opacity="1" tooltip="enable"><title>(0,2110)</title></rect><rect x="6" y="54.5024" width="6" height="145.498" stroke="black" stroke-width="1" fill="blue" opacity="1" tooltip="enable"><title>(0.00163559,1535)</title></rect><rect x="12" y="117.63" width="6" height="82.3697" stroke="black" stroke-width="1" fill="blue" opacity="1" tooltip="enable"><title>(0.00327118,869)</title></rect><rect x="18" y="161.611" width="6" height="38.3886" stroke="black" stroke-width="1" fill="blue" opacity="1" tooltip="enable"><title>(0.00490677,405)</title></rect><rect x="24" y="172.417" width="6" height="27.5829" stroke="black" stroke-width="1" fill="blue" opacity="1" tooltip="enable"><title>(0.00654237,291)</title></rect><rect x="30" y="177.915" width="6" height="22.0853" stroke="black" stroke-width="1" fill="blue" opacity="1" tooltip="enable"><title>(0.00817796,233)</title></rect><rect x="36" y="185.972" width="6" height="14.0284" stroke="black" stroke-width="1" fill="blue" opacity="1" tooltip="enable"><title>(0.00981355,148)</title></rect><rect x="42" y="184.929" width="6" height="15.0711" stroke="black" stroke-width="1" fill="blue" opacity="1" tooltip="enable"><title>(0.0114491,159)</title></rect><rect x="48" y="182.844" width="6" height="17.1564" stroke="black" stroke-width="1" fill="blue" opacity="1" tooltip="enable"><title>(0.0130847,181)</title></rect><rect x="54" y="181.517" width="6" height="18.4834" stroke="black" stroke-width="1" fill="blue" opacity="1" tooltip="enable"><title>(0.0147203,195)</title></rect><rect x="60" y="184.076" width="6" height="15.9242" stroke="black" stroke-width="1" fill="blue" opacity="1" tooltip="enable"><title>(0.0163559,168)</title></rect><rect x="66" y="183.318" width="6" height="16.6825" stroke="black" stroke-width="1" fill="blue" opacity="1" tooltip="enable"><title>(0.0179915,176)</title></rect><rect x="72" y="185.213" width="6" height="14.7867" stroke="black" stroke-width="1" fill="blue" opacity="1" tooltip="enable"><title>(0.0196271,156)</title></rect><rect x="78" y="185.592" width="6" height="14.4076" stroke="black" stroke-width="1" fill="blue" opacity="1" tooltip="enable"><title>(0.0212627,152)</title></rect><rect x="84" y="187.583" width="6" height="12.4171" stroke="black" stroke-width="1" fill="blue" opacity="1" tooltip="enable"><title>(0.0228983,131)</title></rect><rect x="90" y="187.962" width="6" height="12.0379" stroke="black" stroke-width="1" fill="blue" opacity="1" tooltip="enable"><title>(0.0245339,127)</title></rect><rect x="96" y="188.152" width="6" height="11.8483" stroke="black" stroke-width="1" fill="blue" opacity="1" tooltip="enable"><title>(0.0261695,125)</title></rect><rect x="102" y="188.246" width="6" height="11.7536" stroke="black" stroke-width="1" fill="blue" opacity="1" tooltip="enable"><title>(0.0278051,124)</title></rect><rect x="108" y="189.858" width="6" height="10.1422" stroke="black" stroke-width="1" fill="blue" opacity="1" tooltip="enable"><title>(0.0294407,107)</title></rect><rect x="114" y="191.848" width="6" height="8.15166" stroke="black" stroke-width="1" fill="blue" opacity="1" tooltip="enable"><title>(0.0310762,86)</title></rect><rect x="120" y="192.986" width="6" height="7.01422" stroke="black" stroke-width="1" fill="blue" opacity="1" tooltip="enable"><title>(0.0327118,74)</title></rect><rect x="126" y="195.64" width="6" height="4.36019" stroke="black" stroke-width="1" fill="blue" opacity="1" tooltip="enable"><title>(0.0343474,46)</title></rect><rect x="132" y="194.313" width="6" height="5.6872" stroke="black" stroke-width="1" fill="blue" opacity="1" tooltip="enable"><title>(0.035983,60)</title></rect><rect x="138" y="195.64" width="6" height="4.36019" stroke="black" stroke-width="1" fill="blue" opacity="1" tooltip="enable"><title>(0.0376186,46)</title></rect><rect x="144" y="196.588" width="6" height="3.41232" stroke="black" stroke-width="1" fill="blue" opacity="1" tooltip="enable"><title>(0.0392542,36)</title></rect><rect x="150" y="197.156" width="6" height="2.8436" stroke="black" stroke-width="1" fill="blue" opacity="1" tooltip="enable"><title>(0.0408898,30)</title></rect><rect x="156" y="196.777" width="6" height="3.22275" stroke="black" stroke-width="1" fill="blue" opacity="1" tooltip="enable"><title>(0.0425254,34)</title></rect><rect x="162" y="198.104" width="6" height="1.89573" stroke="black" stroke-width="1" fill="blue" opacity="1" tooltip="enable"><title>(0.044161,20)</title></rect><rect x="168" y="198.483" width="6" height="1.51659" stroke="black" stroke-width="1" fill="blue" opacity="1" tooltip="enable"><title>(0.0457966,16)</title></rect><rect x="174" y="198.294" width="6" height="1.70616" stroke="black" stroke-width="1" fill="blue" opacity="1" tooltip="enable"><title>(0.0474322,18)</title></rect><rect x="180" y="198.863" width="6" height="1.13744" stroke="black" stroke-width="1" fill="blue" opacity="1" tooltip="enable"><title>(0.0490678,12)</title></rect><rect x="186" y="198.673" width="6" height="1.32701" stroke="black" stroke-width="1" fill="blue" opacity="1" tooltip="enable"><title>(0.0507033,14)</title></rect><rect x="192" y="198.673" width="6" height="1.32701" stroke="black" stroke-width="1" fill="blue" opacity="1" tooltip="enable"><title>(0.0523389,14)</title></rect><rect x="198" y="198.673" width="6" height="1.32701" stroke="black" stroke-width="1" fill="blue" opacity="1" tooltip="enable"><title>(0.0539745,14)</title></rect><rect x="204" y="199.052" width="6" height="0.947867" stroke="black" stroke-width="1" fill="blue" opacity="1" tooltip="enable"><title>(0.0556101,10)</title></rect><rect x="210" y="199.242" width="6" height="0.758294" stroke="black" stroke-width="1" fill="blue" opacity="1" tooltip="enable"><title>(0.0572457,8)</title></rect><rect x="216" y="199.621" width="6" height="0.379147" stroke="black" stroke-width="1" fill="blue" opacity="1" tooltip="enable"><title>(0.0588813,4)</title></rect><rect x="222" y="200" width="6" height="0" stroke="black" stroke-width="1" fill="blue" opacity="1" tooltip="enable"><title>(0.0605169,0)</title></rect><rect x="228" y="199.431" width="6" height="0.56872" stroke="black" stroke-width="1" fill="blue" opacity="1" tooltip="enable"><title>(0.0621525,6)</title></rect><rect x="234" y="199.81" width="6" height="0.189573" stroke="black" stroke-width="1" fill="blue" opacity="1" tooltip="enable"><title>(0.0637881,2)</title></rect><rect x="240" y="199.621" width="6" height="0.379147" stroke="black" stroke-width="1" fill="blue" opacity="1" tooltip="enable"><title>(0.0654237,4)</title></rect><rect x="246" y="199.431" width="6" height="0.56872" stroke="black" stroke-width="1" fill="blue" opacity="1" tooltip="enable"><title>(0.0670593,6)</title></rect><rect x="252" y="199.81" width="6" height="0.189573" stroke="black" stroke-width="1" fill="blue" opacity="1" tooltip="enable"><title>(0.0686949,2)</title></rect><rect x="258" y="199.242" width="6" height="0.758294" stroke="black" stroke-width="1" fill="blue" opacity="1" tooltip="enable"><title>(0.0703304,8)</title></rect><rect x="264" y="199.431" width="6" height="0.56872" stroke="black" stroke-width="1" fill="blue" opacity="1" tooltip="enable"><title>(0.071966,6)</title></rect><rect x="270" y="200" width="6" height="0" stroke="black" stroke-width="1" fill="blue" opacity="1" tooltip="enable"><title>(0.0736016,0)</title></rect><rect x="276" y="199.621" width="6" height="0.379147" stroke="black" stroke-width="1" fill="blue" opacity="1" tooltip="enable"><title>(0.0752372,4)</title></rect><rect x="282" y="200" width="6" height="0" stroke="black" stroke-width="1" fill="blue" opacity="1" tooltip="enable"><title>(0.0768728,0)</title></rect><rect x="288" y="199.81" width="6" height="0.189573" stroke="black" stroke-width="1" fill="blue" opacity="1" tooltip="enable"><title>(0.0785084,2)</title></rect><rect x="294" y="199.81" width="6" height="0.189573" stroke="black" stroke-width="1" fill="blue" opacity="1" tooltip="enable"><title>(0.080144,2)</title></rect><rect x="300" y="200" width="6" height="0" stroke="black" stroke-width="1" fill="blue" opacity="1" tooltip="enable"><title>(0.0817796,0)</title></rect><rect x="306" y="200" width="6" height="0" stroke="black" stroke-width="1" fill="blue" opacity="1" tooltip="enable"><title>(0.0834152,0)</title></rect><rect x="312" y="200" width="6" height="0" stroke="black" stroke-width="1" fill="blue" opacity="1" tooltip="enable"><title>(0.0850508,0)</title></rect><rect x="318" y="200" width="6" height="0" stroke="black" stroke-width="1" fill="blue" opacity="1" tooltip="enable"><title>(0.0866864,0)</title></rect><rect x="324" y="199.621" width="6" height="0.379147" stroke="black" stroke-width="1" fill="blue" opacity="1" tooltip="enable"><title>(0.088322,4)</title></rect><rect x="330" y="200" width="6" height="0" stroke="black" stroke-width="1" fill="blue" opacity="1" tooltip="enable"><title>(0.0899575,0)</title></rect><rect x="336" y="200" width="6" height="0" stroke="black" stroke-width="1" fill="blue" opacity="1" tooltip="enable"><title>(0.0915931,0)</title></rect><rect x="342" y="200" width="6" height="0" stroke="black" stroke-width="1" fill="blue" opacity="1" tooltip="enable"><title>(0.0932287,0)</title></rect><rect x="348" y="199.81" width="6" height="0.189573" stroke="black" stroke-width="1" fill="blue" opacity="1" tooltip="enable"><title>(0.0948643,2)</title></rect><rect x="354" y="200" width="6" height="0" stroke="black" stroke-width="1" fill="blue" opacity="1" tooltip="enable"><title>(0.0964999,0)</title></rect><rect x="360" y="200" width="6" height="0" stroke="black" stroke-width="1" fill="blue" opacity="1" tooltip="enable"><title>(0.0981355,0)</title></rect><rect x="366" y="200" width="6" height="0" stroke="black" stroke-width="1" fill="blue" opacity="1" tooltip="enable"><title>(0.0997711,0)</title></rect><rect x="372" y="200" width="6" height="0" stroke="black" stroke-width="1" fill="blue" opacity="1" tooltip="enable"><title>(0.101407,0)</title></rect><rect x="378" y="200" width="6" height="0" stroke="black" stroke-width="1" fill="blue" opacity="1" tooltip="enable"><title>(0.103042,0)</title></rect><rect x="384" y="199.81" width="6" height="0.189573" stroke="black" stroke-width="1" fill="blue" opacity="1" tooltip="enable"><title>(0.104678,2)</title></rect><rect x="390" y="200" width="6" height="0" stroke="black" stroke-width="1" fill="blue" opacity="1" tooltip="enable"><title>(0.106313,0)</title></rect><rect x="396" y="200" width="6" height="0" stroke="black" stroke-width="1" fill="blue" opacity="1" tooltip="enable"><title>(0.107949,0)</title></rect><rect x="402" y="200" width="6" height="0" stroke="black" stroke-width="1" fill="blue" opacity="1" tooltip="enable"><title>(0.109585,0)</title></rect><rect x="408" y="200" width="6" height="0" stroke="black" stroke-width="1" fill="blue" opacity="1" tooltip="enable"><title>(0.11122,0)</title></rect><rect x="414" y="200" width="6" height="0" stroke="black" stroke-width="1" fill="blue" opacity="1" tooltip="enable"><title>(0.112856,0)</title></rect><rect x="420" y="199.621" width="6" height="0.379147" stroke="black" stroke-width="1" fill="blue" opacity="1" tooltip="enable"><title>(0.114491,4)</title></rect><rect x="426" y="199.81" width="6" height="0.189573" stroke="black" stroke-width="1" fill="blue" opacity="1" tooltip="enable"><title>(0.116127,2)</title></rect><rect x="432" y="200" width="6" height="0" stroke="black" stroke-width="1" fill="blue" opacity="1" tooltip="enable"><title>(0.117763,0)</title></rect><rect x="438" y="200" width="6" height="0" stroke="black" stroke-width="1" fill="blue" opacity="1" tooltip="enable"><title>(0.119398,0)</title></rect><rect x="444" y="200" width="6" height="0" stroke="black" stroke-width="1" fill="blue" opacity="1" tooltip="enable"><title>(0.121034,0)</title></rect><rect x="450" y="199.81" width="6" height="0.189573" stroke="black" stroke-width="1" fill="blue" opacity="1" tooltip="enable"><title>(0.122669,2)</title></rect><rect x="456" y="200" width="6" height="0" stroke="black" stroke-width="1" fill="blue" opacity="1" tooltip="enable"><title>(0.124305,0)</title></rect><rect x="462" y="200" width="6" height="0" stroke="black" stroke-width="1" fill="blue" opacity="1" tooltip="enable"><title>(0.125941,0)</title></rect><rect x="468" y="200" width="6" height="0" stroke="black" stroke-width="1" fill="blue" opacity="1" tooltip="enable"><title>(0.127576,0)</title></rect><rect x="474" y="200" width="6" height="0" stroke="black" stroke-width="1" fill="blue" opacity="1" tooltip="enable"><title>(0.129212,0)</title></rect><rect x="480" y="200" width="6" height="0" stroke="black" stroke-width="1" fill="blue" opacity="1" tooltip="enable"><title>(0.130847,0)</title></rect><rect x="486" y="200" width="6" height="0" stroke="black" stroke-width="1" fill="blue" opacity="1" tooltip="enable"><title>(0.132483,0)</title></rect><rect x="492" y="199.81" width="6" height="0.189573" stroke="black" stroke-width="1" fill="blue" opacity="1" tooltip="enable"><title>(0.134119,2)</title></rect><rect x="498" y="200" width="6" height="0" stroke="black" stroke-width="1" fill="blue" opacity="1" tooltip="enable"><title>(0.135754,0)</title></rect><rect x="504" y="200" width="6" height="0" stroke="black" stroke-width="1" fill="blue" opacity="1" tooltip="enable"><title>(0.13739,0)</title></rect><rect x="510" y="200" width="6" height="0" stroke="black" stroke-width="1" fill="blue" opacity="1" tooltip="enable"><title>(0.139025,0)</title></rect><rect x="516" y="200" width="6" height="0" stroke="black" stroke-width="1" fill="blue" opacity="1" tooltip="enable"><title>(0.140661,0)</title></rect><rect x="522" y="200" width="6" height="0" stroke="black" stroke-width="1" fill="blue" opacity="1" tooltip="enable"><title>(0.142296,0)</title></rect><rect x="528" y="200" width="6" height="0" stroke="black" stroke-width="1" fill="blue" opacity="1" tooltip="enable"><title>(0.143932,0)</title></rect><rect x="534" y="200" width="6" height="0" stroke="black" stroke-width="1" fill="blue" opacity="1" tooltip="enable"><title>(0.145568,0)</title></rect><rect x="540" y="200" width="6" height="0" stroke="black" stroke-width="1" fill="blue" opacity="1" tooltip="enable"><title>(0.147203,0)</title></rect><rect x="546" y="200" width="6" height="0" stroke="black" stroke-width="1" fill="blue" opacity="1" tooltip="enable"><title>(0.148839,0)</title></rect><rect x="552" y="200" width="6" height="0" stroke="black" stroke-width="1" fill="blue" opacity="1" tooltip="enable"><title>(0.150474,0)</title></rect><rect x="558" y="200" width="6" height="0" stroke="black" stroke-width="1" fill="blue" opacity="1" tooltip="enable"><title>(0.15211,0)</title></rect><rect x="564" y="200" width="6" height="0" stroke="black" stroke-width="1" fill="blue" opacity="1" tooltip="enable"><title>(0.153746,0)</title></rect><rect x="570" y="200" width="6" height="0" stroke="black" stroke-width="1" fill="blue" opacity="1" tooltip="enable"><title>(0.155381,0)</title></rect><rect x="576" y="200" width="6" height="0" stroke="black" stroke-width="1" fill="blue" opacity="1" tooltip="enable"><title>(0.157017,0)</title></rect><rect x="582" y="200" width="6" height="0" stroke="black" stroke-width="1" fill="blue" opacity="1" tooltip="enable"><title>(0.158652,0)</title></rect><rect x="588" y="199.81" width="6" height="0.189573" stroke="black" stroke-width="1" fill="blue" opacity="1" tooltip="enable"><title>(0.160288,2)</title></rect><rect x="594" y="199.716" width="6" height="0.28436" stroke="black" stroke-width="1" fill="blue" opacity="1" tooltip="enable"><title>(0.161924,3)</title></rect><text x="30" y="240" font-size="20" fill="black">0</text>
<text x="600" y="240" font-size="20" fill="black">0.163559</text>
<polyline points="0,220,600,220" stroke="black" stroke-width="1" fill="none" opacity="1"/>
<text x="720" y="20" font-size="20" fill="black">2110</text>
<text x="720" y="200" font-size="20" fill="black">0</text>
<polyline points="660,0,660,200" stroke="black" stroke-width="1" fill="none" opacity="1"/>
</svg>