<?xml version="1.0" standalone="yes"?>
<!-- SVG graphic -->
<svg xmlns='http://www.w3.org/2000/svg' xmlns:xlink='http://www.w3.org/1999/xlink'
 version="1.1">
<rect x="0" y="0" width="6" height="200" stroke="black" stroke-width="1" fill="blue" opacity="1" tooltip="enable"><title>(0,1752)</title></rect><rect x="6" y="50.4566" width="6" height="149.543" stroke="black" stroke-width="1" fill="blue" opacity="1" tooltip="enable"><title>(0.00099137,1310)</title></rect><rect x="12" y="106.963" width="6" height="93.0365" stroke="black" stroke-width="1" fill="blue" opacity="1" tooltip="enable"><title>(0.00198274,815)</title></rect><rect x="18" y="150.571" width="6" height="49.4292" stroke="black" stroke-width="1" fill="blue" opacity="1" tooltip="enable"><title>(0.00297411,433)</title></rect><rect x="24" y="177.854" width="6" height="22.1461" stroke="black" stroke-width="1" fill="blue" opacity="1" tooltip="enable"><title>(0.00396548,194)</title></rect><rect x="30" y="185.616" width="6" height="14.3836" stroke="black" stroke-width="1" fill="blue" opacity="1" tooltip="enable"><title>(0.00495685,126)</title></rect><rect x="36" y="190.297" width="6" height="9.7032" stroke="black" stroke-width="1" fill="blue" opacity="1" tooltip="enable"><title>(0.00594822,85)</title></rect><rect x="42" y="186.187" width="6" height="13.8128" stroke="black" stroke-width="1" fill="blue" opacity="1" tooltip="enable"><title>(0.00693959,121)</title></rect><rect x="48" y="187.443" width="6" height="12.5571" stroke="black" stroke-width="1" fill="blue" opacity="1" tooltip="enable"><title>(0.00793096,110)</title></rect><rect x="54" y="190.639" width="6" height="9.36073" stroke="black" stroke-width="1" fill="blue" opacity="1" tooltip="enable"><title>(0.00892233,82)</title></rect><rect x="60" y="187.671" width="6" height="12.3288" stroke="black" stroke-width="1" fill="blue" opacity="1" tooltip="enable"><title>(0.0099137,108)</title></rect><rect x="66" y="188.356" width="6" height="11.6438" stroke="black" stroke-width="1" fill="blue" opacity="1" tooltip="enable"><title>(0.0109051,102)</title></rect><rect x="72" y="186.416" width="6" height="13.5845" stroke="black" stroke-width="1" fill="blue" opacity="1" tooltip="enable"><title>(0.0118964,119)</title></rect><rect x="78" y="187.557" width="6" height="12.4429" stroke="black" stroke-width="1" fill="blue" opacity="1" tooltip="enable"><title>(0.0128878,109)</title></rect><rect x="84" y="188.927" width="6" height="11.0731" stroke="black" stroke-width="1" fill="blue" opacity="1" tooltip="enable"><title>(0.0138792,97)</title></rect><rect x="90" y="190.068" width="6" height="9.93151" stroke="black" stroke-width="1" fill="blue" opacity="1" tooltip="enable"><title>(0.0148706,87)</title></rect><rect x="96" y="189.269" width="6" height="10.7306" stroke="black" stroke-width="1" fill="blue" opacity="1" tooltip="enable"><title>(0.0158619,94)</title></rect><rect x="102" y="188.584" width="6" height="11.4155" stroke="black" stroke-width="1" fill="blue" opacity="1" tooltip="enable"><title>(0.0168533,100)</title></rect><rect x="108" y="189.041" width="6" height="10.9589" stroke="black" stroke-width="1" fill="blue" opacity="1" tooltip="enable"><title>(0.0178447,96)</title></rect><rect x="114" y="189.041" width="6" height="10.9589" stroke="black" stroke-width="1" fill="blue" opacity="1" tooltip="enable"><title>(0.018836,96)</title></rect><rect x="120" y="189.612" width="6" height="10.3881" stroke="black" stroke-width="1" fill="blue" opacity="1" tooltip="enable"><title>(0.0198274,91)</title></rect><rect x="126" y="188.014" width="6" height="11.9863" stroke="black" stroke-width="1" fill="blue" opacity="1" tooltip="enable"><title>(0.0208188,105)</title></rect><rect x="132" y="191.667" width="6" height="8.33333" stroke="black" stroke-width="1" fill="blue" opacity="1" tooltip="enable"><title>(0.0218101,73)</title></rect><rect x="138" y="192.58" width="6" height="7.42009" stroke="black" stroke-width="1" fill="blue" opacity="1" tooltip="enable"><title>(0.0228015,65)</title></rect><rect x="144" y="192.352" width="6" height="7.6484" stroke="black" stroke-width="1" fill="blue" opacity="1" tooltip="enable"><title>(0.0237929,67)</title></rect><rect x="150" y="192.694" width="6" height="7.30594" stroke="black" stroke-width="1" fill="blue" opacity="1" tooltip="enable"><title>(0.0247843,64)</title></rect><rect x="156" y="191.438" width="6" height="8.56164" stroke="black" stroke-width="1" fill="blue" opacity="1" tooltip="enable"><title>(0.0257756,75)</title></rect><rect x="162" y="190.068" width="6" height="9.93151" stroke="black" stroke-width="1" fill="blue" opacity="1" tooltip="enable"><title>(0.026767,87)</title></rect><rect x="168" y="194.406" width="6" height="5.59361" stroke="black" stroke-width="1" fill="blue" opacity="1" tooltip="enable"><title>(0.0277584,49)</title></rect><rect x="174" y="193.95" width="6" height="6.05023" stroke="black" stroke-width="1" fill="blue" opacity="1" tooltip="enable"><title>(0.0287497,53)</title></rect><rect x="180" y="192.694" width="6" height="7.30594" stroke="black" stroke-width="1" fill="blue" opacity="1" tooltip="enable"><title>(0.0297411,64)</title></rect><rect x="186" y="192.009" width="6" height="7.99087" stroke="black" stroke-width="1" fill="blue" opacity="1" tooltip="enable"><title>(0.0307325,70)</title></rect><rect x="192" y="194.292" width="6" height="5.70776" stroke="black" stroke-width="1" fill="blue" opacity="1" tooltip="enable"><title>(0.0317239,50)</title></rect><rect x="198" y="195.776" width="6" height="4.22374" stroke="black" stroke-width="1" fill="blue" opacity="1" tooltip="enable"><title>(0.0327152,37)</title></rect><rect x="204" y="192.352" width="6" height="7.6484" stroke="black" stroke-width="1" fill="blue" opacity="1" tooltip="enable"><title>(0.0337066,67)</title></rect><rect x="210" y="194.635" width="6" height="5.3653" stroke="black" stroke-width="1" fill="blue" opacity="1" tooltip="enable"><title>(0.034698,47)</title></rect><rect x="216" y="193.493" width="6" height="6.50685" stroke="black" stroke-width="1" fill="blue" opacity="1" tooltip="enable"><title>(0.0356893,57)</title></rect><rect x="222" y="195.091" width="6" height="4.90868" stroke="black" stroke-width="1" fill="blue" opacity="1" tooltip="enable"><title>(0.0366807,43)</title></rect><rect x="228" y="192.58" width="6" height="7.42009" stroke="black" stroke-width="1" fill="blue" opacity="1" tooltip="enable"><title>(0.0376721,65)</title></rect><rect x="234" y="194.178" width="6" height="5.82192" stroke="black" stroke-width="1" fill="blue" opacity="1" tooltip="enable"><title>(0.0386634,51)</title></rect><rect x="240" y="194.749" width="6" height="5.25114" stroke="black" stroke-width="1" fill="blue" opacity="1" tooltip="enable"><title>(0.0396548,46)</title></rect><rect x="246" y="196.119" width="6" height="3.88128" stroke="black" stroke-width="1" fill="blue" opacity="1" tooltip="enable"><title>(0.0406462,34)</title></rect><rect x="252" y="194.406" width="6" height="5.59361" stroke="black" stroke-width="1" fill="blue" opacity="1" tooltip="enable"><title>(0.0416376,49)</title></rect><rect x="258" y="196.119" width="6" height="3.88128" stroke="black" stroke-width="1" fill="blue" opacity="1" tooltip="enable"><title>(0.0426289,34)</title></rect><rect x="264" y="196.575" width="6" height="3.42466" stroke="black" stroke-width="1" fill="blue" opacity="1" tooltip="enable"><title>(0.0436203,30)</title></rect><rect x="270" y="194.863" width="6" height="5.13699" stroke="black" stroke-width="1" fill="blue" opacity="1" tooltip="enable"><title>(0.0446117,45)</title></rect><rect x="276" y="196.005" width="6" height="3.99543" stroke="black" stroke-width="1" fill="blue" opacity="1" tooltip="enable"><title>(0.045603,35)</title></rect><rect x="282" y="197.603" width="6" height="2.39726" stroke="black" stroke-width="1" fill="blue" opacity="1" tooltip="enable"><title>(0.0465944,21)</title></rect><rect x="288" y="197.489" width="6" height="2.51142" stroke="black" stroke-width="1" fill="blue" opacity="1" tooltip="enable"><title>(0.0475858,22)</title></rect><rect x="294" y="196.119" width="6" height="3.88128" stroke="black" stroke-width="1" fill="blue" opacity="1" tooltip="enable"><title>(0.0485771,34)</title></rect><rect x="300" y="197.032" width="6" height="2.96804" stroke="black" stroke-width="1" fill="blue" opacity="1" tooltip="enable"><title>(0.0495685,26)</title></rect><rect x="306" y="197.945" width="6" height="2.05479" stroke="black" stroke-width="1" fill="blue" opacity="1" tooltip="enable"><title>(0.0505599,18)</title></rect><rect x="312" y="198.174" width="6" height="1.82648" stroke="black" stroke-width="1" fill="blue" opacity="1" tooltip="enable"><title>(0.0515513,16)</title></rect><rect x="318" y="197.489" width="6" height="2.51142" stroke="black" stroke-width="1" fill="blue" opacity="1" tooltip="enable"><title>(0.0525426,22)</title></rect><rect x="324" y="197.26" width="6" height="2.73973" stroke="black" stroke-width="1" fill="blue" opacity="1" tooltip="enable"><title>(0.053534,24)</title></rect><rect x="330" y="198.174" width="6" height="1.82648" stroke="black" stroke-width="1" fill="blue" opacity="1" tooltip="enable"><title>(0.0545254,16)</title></rect><rect x="336" y="197.032" width="6" height="2.96804" stroke="black" stroke-width="1" fill="blue" opacity="1" tooltip="enable"><title>(0.0555167,26)</title></rect><rect x="342" y="197.945" width="6" height="2.05479" stroke="black" stroke-width="1" fill="blue" opacity="1" tooltip="enable"><title>(0.0565081,18)</title></rect><rect x="348" y="198.63" width="6" height="1.36986" stroke="black" stroke-width="1" fill="blue" opacity="1" tooltip="enable"><title>(0.0574995,12)</title></rect><rect x="354" y="198.516" width="6" height="1.48402" stroke="black" stroke-width="1" fill="blue" opacity="1" tooltip="enable"><title>(0.0584909,13)</title></rect><rect x="360" y="198.744" width="6" height="1.25571" stroke="black" stroke-width="1" fill="blue" opacity="1" tooltip="enable"><title>(0.0594822,11)</title></rect><rect x="366" y="198.858" width="6" height="1.14155" stroke="black" stroke-width="1" fill="blue" opacity="1" tooltip="enable"><title>(0.0604736,10)</title></rect><rect x="372" y="198.402" width="6" height="1.59817" stroke="black" stroke-width="1" fill="blue" opacity="1" tooltip="enable"><title>(0.061465,14)</title></rect><rect x="378" y="198.973" width="6" height="1.0274" stroke="black" stroke-width="1" fill="blue" opacity="1" tooltip="enable"><title>(0.0624563,9)</title></rect><rect x="384" y="199.201" width="6" height="0.799087" stroke="black" stroke-width="1" fill="blue" opacity="1" tooltip="enable"><title>(0.0634477,7)</title></rect><rect x="390" y="198.858" width="6" height="1.14155" stroke="black" stroke-width="1" fill="blue" opacity="1" tooltip="enable"><title>(0.0644391,10)</title></rect><rect x="396" y="198.858" width="6" height="1.14155" stroke="black" stroke-width="1" fill="blue" opacity="1" tooltip="enable"><title>(0.0654304,10)</title></rect><rect x="402" y="199.315" width="6" height="0.684932" stroke="black" stroke-width="1" fill="blue" opacity="1" tooltip="enable"><title>(0.0664218,6)</title></rect><rect x="408" y="199.543" width="6" height="0.456621" stroke="black" stroke-width="1" fill="blue" opacity="1" tooltip="enable"><title>(0.0674132,4)</title></rect><rect x="414" y="199.543" width="6" height="0.456621" stroke="black" stroke-width="1" fill="blue" opacity="1" tooltip="enable"><title>(0.0684046,4)</title></rect><rect x="420" y="198.402" width="6" height="1.59817" stroke="black" stroke-width="1" fill="blue" opacity="1" tooltip="enable"><title>(0.0693959,14)</title></rect><rect x="426" y="200" width="6" height="0" stroke="black" stroke-width="1" fill="blue" opacity="1" tooltip="enable"><title>(0.0703873,0)</title></rect><rect x="432" y="199.772" width="6" height="0.22831" stroke="black" stroke-width="1" fill="blue" opacity="1" tooltip="enable"><title>(0.0713787,2)</title></rect><rect x="438" y="200" width="6" height="0" stroke="black" stroke-width="1" fill="blue" opacity="1" tooltip="enable"><title>(0.07237,0)</title></rect><rect x="444" y="200" width="6" height="0" stroke="black" stroke-width="1" fill="blue" opacity="1" tooltip="enable"><title>(0.0733614,0)</title></rect><rect x="450" y="200" width="6" height="0" stroke="black" stroke-width="1" fill="blue" opacity="1" tooltip="enable"><title>(0.0743528,0)</title></rect><rect x="456" y="200" width="6" height="0" stroke="black" stroke-width="1" fill="blue" opacity="1" tooltip="enable"><title>(0.0753441,0)</title></rect><rect x="462" y="199.087" width="6" height="0.913242" stroke="black" stroke-width="1" fill="blue" opacity="1" tooltip="enable"><title>(0.0763355,8)</title></rect><rect x="468" y="200" width="6" height="0" stroke="black" stroke-width="1" fill="blue" opacity="1" tooltip="enable"><title>(0.0773269,0)</title></rect><rect x="474" y="199.315" width="6" height="0.684932" stroke="black" stroke-width="1" fill="blue" opacity="1" tooltip="enable"><title>(0.0783183,6)</title></rect><rect x="480" y="199.543" width="6" height="0.456621" stroke="black" stroke-width="1" fill="blue" opacity="1" tooltip="enable"><title>(0.0793096,4)</title></rect><rect x="486" y="199.772" width="6" height="0.22831" stroke="black" stroke-width="1" fill="blue" opacity="1" tooltip="enable"><title>(0.080301,2)</title></rect><rect x="492" y="200" width="6" height="0" stroke="black" stroke-width="1" fill="blue" opacity="1" tooltip="enable"><title>(0.0812924,0)</title></rect><rect x="498" y="199.543" width="6" height="0.456621" stroke="black" stroke-width="1" fill="blue" opacity="1" tooltip="enable"><title>(0.0822837,4)</title></rect><rect x="504" y="200" width="6" height="0" stroke="black" stroke-width="1" fill="blue" opacity="1" tooltip="enable"><title>(0.0832751,0)</title></rect><rect x="510" y="200" width="6" height="0" stroke="black" stroke-width="1" fill="blue" opacity="1" tooltip="enable"><title>(0.0842665,0)</title></rect><rect x="516" y="199.772" width="6" height="0.22831" stroke="black" stroke-width="1" fill="blue" opacity="1" tooltip="enable"><title>(0.0852579,2)</title></rect><rect x="522" y="199.772" width="6" height="0.22831" stroke="black" stroke-width="1" fill="blue" opacity="1" tooltip="enable"><title>(0.0862492,2)</title></rect><rect x="528" y="200" width="6" height="0" stroke="black" stroke-width="1" fill="blue" opacity="1" tooltip="enable"><title>(0.0872406,0)</title></rect><rect x="534" y="200" width="6" height="0" stroke="black" stroke-width="1" fill="blue" opacity="1" tooltip="enable"><title>(0.088232,0)</title></rect><rect x="540" y="200" width="6" height="0" stroke="black" stroke-width="1" fill="blue" opacity="1" tooltip="enable"><title>(0.0892233,0)</title></rect><rect x="546" y="200" width="6" height="0" stroke="black" stroke-width="1" fill="blue" opacity="1" tooltip="enable"><title>(0.0902147,0)</title></rect><rect x="552" y="199.886" width="6" height="0.114155" stroke="black" stroke-width="1" fill="blue" opacity="1" tooltip="enable"><title>(0.0912061,1)</title></rect><rect x="558" y="199.429" width="6" height="0.570776" stroke="black" stroke-width="1" fill="blue" opacity="1" tooltip="enable"><title>(0.0921974,5)</title></rect><rect x="564" y="200" width="6" height="0" stroke="black" stroke-width="1" fill="blue" opacity="1" tooltip="enable"><title>(0.0931888,0)</title></rect><rect x="570" y="199.772" width="6" height="0.22831" stroke="black" stroke-width="1" fill="blue" opacity="1" tooltip="enable"><title>(0.0941802,2)</title></rect><rect x="576" y="199.772" width="6" height="0.22831" stroke="black" stroke-width="1" fill="blue" opacity="1" tooltip="enable"><title>(0.0951716,2)</title></rect><rect x="582" y="200" width="6" height="0" stroke="black" stroke-width="1" fill="blue" opacity="1" tooltip="enable"><title>(0.0961629,0)</title></rect><rect x="588" y="200" width="6" height="0" stroke="black" stroke-width="1" fill="blue" opacity="1" tooltip="enable"><title>(0.0971543,0)</title></rect><rect x="594" y="199.658" width="6" height="0.342466" stroke="black" stroke-width="1" fill="blue" opacity="1" tooltip="enable"><title>(0.0981457,3)</title></rect><text x="30" y="240" font-size="20" fill="black">0</text>
<text x="600" y="240" font-size="20" fill="black">0.099137</text>
<polyline points="0,220,600,220" stroke="black" stroke-width="1" fill="none" opacity="1"/>
<text x="720" y="20" font-size="20" fill="black">1752</text>
<text x="720" y="200" font-size="20" fill="black">0</text>
<polyline points="660,0,660,200" stroke="black" stroke-width="1" fill="none" opacity="1"/>
</svg>