<?xml version="1.0" standalone="yes"?>
<!-- SVG graphic -->
<svg xmlns='http://www.w3.org/2000/svg' xmlns:xlink='http://www.w3.org/1999/xlink'
 version="1.1">
<rect x="0" y="26.5306" width="6" height="173.469" stroke="black" stroke-width="1" fill="blue" opacity="1" tooltip="enable"><title>(0,850)</title></rect><rect x="6" y="0" width="6" height="200" stroke="black" stroke-width="1" fill="blue" opacity="1" tooltip="enable"><title>(0.00134326,980)</title></rect><rect x="12" y="18.1633" width="6" height="181.837" stroke="black" stroke-width="1" fill="blue" opacity="1" tooltip="enable"><title>(0.00268652,891)</title></rect><rect x="18" y="66.7347" width="6" height="133.265" stroke="black" stroke-width="1" fill="blue" opacity="1" tooltip="enable"><title>(0.00402978,653)</title></rect><rect x="24" y="98.3673" width="6" height="101.633" stroke="black" stroke-width="1" fill="blue" opacity="1" tooltip="enable"><title>(0.00537304,498)</title></rect><rect x="30" y="116.327" width="6" height="83.6735" stroke="black" stroke-width="1" fill="blue" opacity="1" tooltip="enable"><title>(0.0067163,410)</title></rect><rect x="36" y="129.388" width="6" height="70.6122" stroke="black" stroke-width="1" fill="blue" opacity="1" tooltip="enable"><title>(0.00805956,346)</title></rect><rect x="42" y="128.367" width="6" height="71.6327" stroke="black" stroke-width="1" fill="blue" opacity="1" tooltip="enable"><title>(0.00940282,351)</title></rect><rect x="48" y="127.755" width="6" height="72.2449" stroke="black" stroke-width="1" fill="blue" opacity="1" tooltip="enable"><title>(0.0107461,354)</title></rect><rect x="54" y="142.245" width="6" height="57.7551" stroke="black" stroke-width="1" fill="blue" opacity="1" tooltip="enable"><title>(0.0120893,283)</title></rect><rect x="60" y="161.633" width="6" height="38.3673" stroke="black" stroke-width="1" fill="blue" opacity="1" tooltip="enable"><title>(0.0134326,188)</title></rect><rect x="66" y="157.959" width="6" height="42.0408" stroke="black" stroke-width="1" fill="blue" opacity="1" tooltip="enable"><title>(0.0147759,206)</title></rect><rect x="72" y="160.612" width="6" height="39.3878" stroke="black" stroke-width="1" fill="blue" opacity="1" tooltip="enable"><title>(0.0161191,193)</title></rect><rect x="78" y="165.918" width="6" height="34.0816" stroke="black" stroke-width="1" fill="blue" opacity="1" tooltip="enable"><title>(0.0174624,167)</title></rect><rect x="84" y="171.224" width="6" height="28.7755" stroke="black" stroke-width="1" fill="blue" opacity="1" tooltip="enable"><title>(0.0188056,141)</title></rect><rect x="90" y="178.98" width="6" height="21.0204" stroke="black" stroke-width="1" fill="blue" opacity="1" tooltip="enable"><title>(0.0201489,103)</title></rect><rect x="96" y="176.735" width="6" height="23.2653" stroke="black" stroke-width="1" fill="blue" opacity="1" tooltip="enable"><title>(0.0214922,114)</title></rect><rect x="102" y="184.49" width="6" height="15.5102" stroke="black" stroke-width="1" fill="blue" opacity="1" tooltip="enable"><title>(0.0228354,76)</title></rect><rect x="108" y="184.694" width="6" height="15.3061" stroke="black" stroke-width="1" fill="blue" opacity="1" tooltip="enable"><title>(0.0241787,75)</title></rect><rect x="114" y="188.776" width="6" height="11.2245" stroke="black" stroke-width="1" fill="blue" opacity="1" tooltip="enable"><title>(0.0255219,55)</title></rect><rect x="120" y="184.898" width="6" height="15.102" stroke="black" stroke-width="1" fill="blue" opacity="1" tooltip="enable"><title>(0.0268652,74)</title></rect><rect x="126" y="187.551" width="6" height="12.449" stroke="black" stroke-width="1" fill="blue" opacity="1" tooltip="enable"><title>(0.0282084,61)</title></rect><rect x="132" y="190.204" width="6" height="9.79592" stroke="black" stroke-width="1" fill="blue" opacity="1" tooltip="enable"><title>(0.0295517,48)</title></rect><rect x="138" y="190.612" width="6" height="9.38776" stroke="black" stroke-width="1" fill="blue" opacity="1" tooltip="enable"><title>(0.030895,46)</title></rect><rect x="144" y="191.224" width="6" height="8.77551" stroke="black" stroke-width="1" fill="blue" opacity="1" tooltip="enable"><title>(0.0322382,43)</title></rect><rect x="150" y="192.653" width="6" height="7.34694" stroke="black" stroke-width="1" fill="blue" opacity="1" tooltip="enable"><title>(0.0335815,36)</title></rect><rect x="156" y="192.653" width="6" height="7.34694" stroke="black" stroke-width="1" fill="blue" opacity="1" tooltip="enable"><title>(0.0349247,36)</title></rect><rect x="162" y="189.796" width="6" height="10.2041" stroke="black" stroke-width="1" fill="blue" opacity="1" tooltip="enable"><title>(0.036268,50)</title></rect><rect x="168" y="192.653" width="6" height="7.34694" stroke="black" stroke-width="1" fill="blue" opacity="1" tooltip="enable"><title>(0.0376113,36)</title></rect><rect x="174" y="192.245" width="6" height="7.7551" stroke="black" stroke-width="1" fill="blue" opacity="1" tooltip="enable"><title>(0.0389545,38)</title></rect><rect x="180" y="196.327" width="6" height="3.67347" stroke="black" stroke-width="1" fill="blue" opacity="1" tooltip="enable"><title>(0.0402978,18)</title></rect><rect x="186" y="191.02" width="6" height="8.97959" stroke="black" stroke-width="1" fill="blue" opacity="1" tooltip="enable"><title>(0.041641,44)</title></rect><rect x="192" y="192.245" width="6" height="7.7551" stroke="black" stroke-width="1" fill="blue" opacity="1" tooltip="enable"><title>(0.0429843,38)</title></rect><rect x="198" y="192.245" width="6" height="7.7551" stroke="black" stroke-width="1" fill="blue" opacity="1" tooltip="enable"><title>(0.0443276,38)</title></rect><rect x="204" y="195.102" width="6" height="4.89796" stroke="black" stroke-width="1" fill="blue" opacity="1" tooltip="enable"><title>(0.0456708,24)</title></rect><rect x="210" y="195.102" width="6" height="4.89796" stroke="black" stroke-width="1" fill="blue" opacity="1" tooltip="enable"><title>(0.0470141,24)</title></rect><rect x="216" y="196.327" width="6" height="3.67347" stroke="black" stroke-width="1" fill="blue" opacity="1" tooltip="enable"><title>(0.0483573,18)</title></rect><rect x="222" y="192.653" width="6" height="7.34694" stroke="black" stroke-width="1" fill="blue" opacity="1" tooltip="enable"><title>(0.0497006,36)</title></rect><rect x="228" y="195.102" width="6" height="4.89796" stroke="black" stroke-width="1" fill="blue" opacity="1" tooltip="enable"><title>(0.0510439,24)</title></rect><rect x="234" y="195.102" width="6" height="4.89796" stroke="black" stroke-width="1" fill="blue" opacity="1" tooltip="enable"><title>(0.0523871,24)</title></rect><rect x="240" y="194.694" width="6" height="5.30612" stroke="black" stroke-width="1" fill="blue" opacity="1" tooltip="enable"><title>(0.0537304,26)</title></rect><rect x="246" y="197.551" width="6" height="2.44898" stroke="black" stroke-width="1" fill="blue" opacity="1" tooltip="enable"><title>(0.0550736,12)</title></rect><rect x="252" y="197.551" width="6" height="2.44898" stroke="black" stroke-width="1" fill="blue" opacity="1" tooltip="enable"><title>(0.0564169,12)</title></rect><rect x="258" y="198.776" width="6" height="1.22449" stroke="black" stroke-width="1" fill="blue" opacity="1" tooltip="enable"><title>(0.0577602,6)</title></rect><rect x="264" y="194.286" width="6" height="5.71429" stroke="black" stroke-width="1" fill="blue" opacity="1" tooltip="enable"><title>(0.0591034,28)</title></rect><rect x="270" y="198.367" width="6" height="1.63265" stroke="black" stroke-width="1" fill="blue" opacity="1" tooltip="enable"><title>(0.0604467,8)</title></rect><rect x="276" y="197.143" width="6" height="2.85714" stroke="black" stroke-width="1" fill="blue" opacity="1" tooltip="enable"><title>(0.0617899,14)</title></rect><rect x="282" y="197.551" width="6" height="2.44898" stroke="black" stroke-width="1" fill="blue" opacity="1" tooltip="enable"><title>(0.0631332,12)</title></rect><rect x="288" y="197.755" width="6" height="2.2449" stroke="black" stroke-width="1" fill="blue" opacity="1" tooltip="enable"><title>(0.0644765,11)</title></rect><rect x="294" y="197.347" width="6" height="2.65306" stroke="black" stroke-width="1" fill="blue" opacity="1" tooltip="enable"><title>(0.0658197,13)</title></rect><rect x="300" y="197.143" width="6" height="2.85714" stroke="black" stroke-width="1" fill="blue" opacity="1" tooltip="enable"><title>(0.067163,14)</title></rect><rect x="306" y="198.98" width="6" height="1.02041" stroke="black" stroke-width="1" fill="blue" opacity="1" tooltip="enable"><title>(0.0685062,5)</title></rect><rect x="312" y="197.347" width="6" height="2.65306" stroke="black" stroke-width="1" fill="blue" opacity="1" tooltip="enable"><title>(0.0698495,13)</title></rect><rect x="318" y="198.367" width="6" height="1.63265" stroke="black" stroke-width="1" fill="blue" opacity="1" tooltip="enable"><title>(0.0711927,8)</title></rect><rect x="324" y="196.327" width="6" height="3.67347" stroke="black" stroke-width="1" fill="blue" opacity="1" tooltip="enable"><title>(0.072536,18)</title></rect><rect x="330" y="198.367" width="6" height="1.63265" stroke="black" stroke-width="1" fill="blue" opacity="1" tooltip="enable"><title>(0.0738793,8)</title></rect><rect x="336" y="197.143" width="6" height="2.85714" stroke="black" stroke-width="1" fill="blue" opacity="1" tooltip="enable"><title>(0.0752225,14)</title></rect><rect x="342" y="198.367" width="6" height="1.63265" stroke="black" stroke-width="1" fill="blue" opacity="1" tooltip="enable"><title>(0.0765658,8)</title></rect><rect x="348" y="197.959" width="6" height="2.04082" stroke="black" stroke-width="1" fill="blue" opacity="1" tooltip="enable"><title>(0.0779091,10)</title></rect><rect x="354" y="198.367" width="6" height="1.63265" stroke="black" stroke-width="1" fill="blue" opacity="1" tooltip="enable"><title>(0.0792523,8)</title></rect><rect x="360" y="200" width="6" height="0" stroke="black" stroke-width="1" fill="blue" opacity="1" tooltip="enable"><title>(0.0805956,0)</title></rect><rect x="366" y="199.184" width="6" height="0.816327" stroke="black" stroke-width="1" fill="blue" opacity="1" tooltip="enable"><title>(0.0819388,4)</title></rect><rect x="372" y="199.184" width="6" height="0.816327" stroke="black" stroke-width="1" fill="blue" opacity="1" tooltip="enable"><title>(0.0832821,4)</title></rect><rect x="378" y="198.367" width="6" height="1.63265" stroke="black" stroke-width="1" fill="blue" opacity="1" tooltip="enable"><title>(0.0846253,8)</title></rect><rect x="384" y="199.592" width="6" height="0.408163" stroke="black" stroke-width="1" fill="blue" opacity="1" tooltip="enable"><title>(0.0859686,2)</title></rect><rect x="390" y="200" width="6" height="0" stroke="black" stroke-width="1" fill="blue" opacity="1" tooltip="enable"><title>(0.0873119,0)</title></rect><rect x="396" y="200" width="6" height="0" stroke="black" stroke-width="1" fill="blue" opacity="1" tooltip="enable"><title>(0.0886551,0)</title></rect><rect x="402" y="199.592" width="6" height="0.408163" stroke="black" stroke-width="1" fill="blue" opacity="1" tooltip="enable"><title>(0.0899984,2)</title></rect><rect x="408" y="199.592" width="6" height="0.408163" stroke="black" stroke-width="1" fill="blue" opacity="1" tooltip="enable"><title>(0.0913416,2)</title></rect><rect x="414" y="199.592" width="6" height="0.408163" stroke="black" stroke-width="1" fill="blue" opacity="1" tooltip="enable"><title>(0.0926849,2)</title></rect><rect x="420" y="199.592" width="6" height="0.408163" stroke="black" stroke-width="1" fill="blue" opacity="1" tooltip="enable"><title>(0.0940282,2)</title></rect><rect x="426" y="200" width="6" height="0" stroke="black" stroke-width="1" fill="blue" opacity="1" tooltip="enable"><title>(0.0953714,0)</title></rect><rect x="432" y="198.776" width="6" height="1.22449" stroke="black" stroke-width="1" fill="blue" opacity="1" tooltip="enable"><title>(0.0967147,6)</title></rect><rect x="438" y="199.592" width="6" height="0.408163" stroke="black" stroke-width="1" fill="blue" opacity="1" tooltip="enable"><title>(0.0980579,2)</title></rect><rect x="444" y="199.592" width="6" height="0.408163" stroke="black" stroke-width="1" fill="blue" opacity="1" tooltip="enable"><title>(0.0994012,2)</title></rect><rect x="450" y="200" width="6" height="0" stroke="black" stroke-width="1" fill="blue" opacity="1" tooltip="enable"><title>(0.100744,0)</title></rect><rect x="456" y="199.592" width="6" height="0.408163" stroke="black" stroke-width="1" fill="blue" opacity="1" tooltip="enable"><title>(0.102088,2)</title></rect><rect x="462" y="200" width="6" height="0" stroke="black" stroke-width="1" fill="blue" opacity="1" tooltip="enable"><title>(0.103431,0)</title></rect><rect x="468" y="200" width="6" height="0" stroke="black" stroke-width="1" fill="blue" opacity="1" tooltip="enable"><title>(0.104774,0)</title></rect><rect x="474" y="200" width="6" height="0" stroke="black" stroke-width="1" fill="blue" opacity="1" tooltip="enable"><title>(0.106118,0)</title></rect><rect x="480" y="200" width="6" height="0" stroke="black" stroke-width="1" fill="blue" opacity="1" tooltip="enable"><title>(0.107461,0)</title></rect><rect x="486" y="200" width="6" height="0" stroke="black" stroke-width="1" fill="blue" opacity="1" tooltip="enable"><title>(0.108804,0)</title></rect><rect x="492" y="199.592" width="6" height="0.408163" stroke="black" stroke-width="1" fill="blue" opacity="1" tooltip="enable"><title>(0.110147,2)</title></rect><rect x="498" y="200" width="6" height="0" stroke="black" stroke-width="1" fill="blue" opacity="1" tooltip="enable"><title>(0.111491,0)</title></rect><rect x="504" y="200" width="6" height="0" stroke="black" stroke-width="1" fill="blue" opacity="1" tooltip="enable"><title>(0.112834,0)</title></rect><rect x="510" y="199.592" width="6" height="0.408163" stroke="black" stroke-width="1" fill="blue" opacity="1" tooltip="enable"><title>(0.114177,2)</title></rect><rect x="516" y="199.184" width="6" height="0.816327" stroke="black" stroke-width="1" fill="blue" opacity="1" tooltip="enable"><title>(0.11552,4)</title></rect><rect x="522" y="200" width="6" height="0" stroke="black" stroke-width="1" fill="blue" opacity="1" tooltip="enable"><title>(0.116864,0)</title></rect><rect x="528" y="200" width="6" height="0" stroke="black" stroke-width="1" fill="blue" opacity="1" tooltip="enable"><title>(0.118207,0)</title></rect><rect x="534" y="199.592" width="6" height="0.408163" stroke="black" stroke-width="1" fill="blue" opacity="1" tooltip="enable"><title>(0.11955,2)</title></rect><rect x="540" y="199.592" width="6" height="0.408163" stroke="black" stroke-width="1" fill="blue" opacity="1" tooltip="enable"><title>(0.120893,2)</title></rect><rect x="546" y="199.592" width="6" height="0.408163" stroke="black" stroke-width="1" fill="blue" opacity="1" tooltip="enable"><title>(0.122237,2)</title></rect><rect x="552" y="200" width="6" height="0" stroke="black" stroke-width="1" fill="blue" opacity="1" tooltip="enable"><title>(0.12358,0)</title></rect><rect x="558" y="199.592" width="6" height="0.408163" stroke="black" stroke-width="1" fill="blue" opacity="1" tooltip="enable"><title>(0.124923,2)</title></rect><rect x="564" y="200" width="6" height="0" stroke="black" stroke-width="1" fill="blue" opacity="1" tooltip="enable"><title>(0.126266,0)</title></rect><rect x="570" y="200" width="6" height="0" stroke="black" stroke-width="1" fill="blue" opacity="1" tooltip="enable"><title>(0.12761,0)</title></rect><rect x="576" y="200" width="6" height="0" stroke="black" stroke-width="1" fill="blue" opacity="1" tooltip="enable"><title>(0.128953,0)</title></rect><rect x="582" y="199.592" width="6" height="0.408163" stroke="black" stroke-width="1" fill="blue" opacity="1" tooltip="enable"><title>(0.130296,2)</title></rect><rect x="588" y="199.184" width="6" height="0.816327" stroke="black" stroke-width="1" fill="blue" opacity="1" tooltip="enable"><title>(0.131639,4)</title></rect><rect x="594" y="199.796" width="6" height="0.204082" stroke="black" stroke-width="1" fill="blue" opacity="1" tooltip="enable"><title>(0.132983,1)</title></rect><text x="30" y="240" font-size="20" fill="black">0</text>
<text x="600" y="240" font-size="20" fill="black">0.134326</text>
<polyline points="0,220,600,220" stroke="black" stroke-width="1" fill="none" opacity="1"/>
<text x="720" y="20" font-size="20" fill="black">980</text>
<text x="720" y="200" font-size="20" fill="black">0</text>
<polyline points="660,0,660,200" stroke="black" stroke-width="1" fill="none" opacity="1"/>
</svg>