<?xml version="1.0" standalone="yes"?>
<!-- SVG graphic -->
<svg xmlns='http://www.w3.org/2000/svg' xmlns:xlink='http://www.w3.org/1999/xlink'
 version="1.1">
<rect x="0" y="15.7286" width="6" height="184.271" stroke="black" stroke-width="1" fill="blue" opacity="1" tooltip="enable"><title>(0,1195)</title></rect><rect x="6" y="22.0509" width="6" height="177.949" stroke="black" stroke-width="1" fill="blue" opacity="1" tooltip="enable"><title>(0.001267,1154)</title></rect><rect x="12" y="0" width="6" height="200" stroke="black" stroke-width="1" fill="blue" opacity="1" tooltip="enable"><title>(0.00253401,1297)</title></rect><rect x="18" y="121.203" width="6" height="78.7972" stroke="black" stroke-width="1" fill="blue" opacity="1" tooltip="enable"><title>(0.00380101,511)</title></rect><rect x="24" y="169.931" width="6" height="30.0694" stroke="black" stroke-width="1" fill="blue" opacity="1" tooltip="enable"><title>(0.00506802,195)</title></rect><rect x="30" y="170.085" width="6" height="29.9152" stroke="black" stroke-width="1" fill="blue" opacity="1" tooltip="enable"><title>(0.00633502,194)</title></rect><rect x="36" y="179.954" width="6" height="20.0463" stroke="black" stroke-width="1" fill="blue" opacity="1" tooltip="enable"><title>(0.00760202,130)</title></rect><rect x="42" y="184.58" width="6" height="15.4202" stroke="black" stroke-width="1" fill="blue" opacity="1" tooltip="enable"><title>(0.00886903,100)</title></rect><rect x="48" y="184.426" width="6" height="15.5744" stroke="black" stroke-width="1" fill="blue" opacity="1" tooltip="enable"><title>(0.010136,101)</title></rect><rect x="54" y="185.042" width="6" height="14.9576" stroke="black" stroke-width="1" fill="blue" opacity="1" tooltip="enable"><title>(0.011403,97)</title></rect><rect x="60" y="180.262" width="6" height="19.7379" stroke="black" stroke-width="1" fill="blue" opacity="1" tooltip="enable"><title>(0.01267,128)</title></rect><rect x="66" y="181.65" width="6" height="18.35" stroke="black" stroke-width="1" fill="blue" opacity="1" tooltip="enable"><title>(0.013937,119)</title></rect><rect x="72" y="186.122" width="6" height="13.8782" stroke="black" stroke-width="1" fill="blue" opacity="1" tooltip="enable"><title>(0.015204,90)</title></rect><rect x="78" y="185.505" width="6" height="14.495" stroke="black" stroke-width="1" fill="blue" opacity="1" tooltip="enable"><title>(0.0164711,94)</title></rect><rect x="84" y="187.664" width="6" height="12.3362" stroke="black" stroke-width="1" fill="blue" opacity="1" tooltip="enable"><title>(0.0177381,80)</title></rect><rect x="90" y="186.893" width="6" height="13.1072" stroke="black" stroke-width="1" fill="blue" opacity="1" tooltip="enable"><title>(0.0190051,85)</title></rect><rect x="96" y="184.117" width="6" height="15.8828" stroke="black" stroke-width="1" fill="blue" opacity="1" tooltip="enable"><title>(0.0202721,103)</title></rect><rect x="102" y="187.51" width="6" height="12.4904" stroke="black" stroke-width="1" fill="blue" opacity="1" tooltip="enable"><title>(0.0215391,81)</title></rect><rect x="108" y="185.505" width="6" height="14.495" stroke="black" stroke-width="1" fill="blue" opacity="1" tooltip="enable"><title>(0.0228061,94)</title></rect><rect x="114" y="186.122" width="6" height="13.8782" stroke="black" stroke-width="1" fill="blue" opacity="1" tooltip="enable"><title>(0.0240731,90)</title></rect><rect x="120" y="179.337" width="6" height="20.6631" stroke="black" stroke-width="1" fill="blue" opacity="1" tooltip="enable"><title>(0.0253401,134)</title></rect><rect x="126" y="182.729" width="6" height="17.2706" stroke="black" stroke-width="1" fill="blue" opacity="1" tooltip="enable"><title>(0.0266071,112)</title></rect><rect x="132" y="178.72" width="6" height="21.2799" stroke="black" stroke-width="1" fill="blue" opacity="1" tooltip="enable"><title>(0.0278741,138)</title></rect><rect x="138" y="180.879" width="6" height="19.121" stroke="black" stroke-width="1" fill="blue" opacity="1" tooltip="enable"><title>(0.0291411,124)</title></rect><rect x="144" y="183.963" width="6" height="16.037" stroke="black" stroke-width="1" fill="blue" opacity="1" tooltip="enable"><title>(0.0304081,104)</title></rect><rect x="150" y="184.117" width="6" height="15.8828" stroke="black" stroke-width="1" fill="blue" opacity="1" tooltip="enable"><title>(0.0316751,103)</title></rect><rect x="156" y="187.51" width="6" height="12.4904" stroke="black" stroke-width="1" fill="blue" opacity="1" tooltip="enable"><title>(0.0329421,81)</title></rect><rect x="162" y="181.342" width="6" height="18.6584" stroke="black" stroke-width="1" fill="blue" opacity="1" tooltip="enable"><title>(0.0342091,121)</title></rect><rect x="168" y="189.052" width="6" height="10.9483" stroke="black" stroke-width="1" fill="blue" opacity="1" tooltip="enable"><title>(0.0354761,71)</title></rect><rect x="174" y="183.809" width="6" height="16.1912" stroke="black" stroke-width="1" fill="blue" opacity="1" tooltip="enable"><title>(0.0367431,105)</title></rect><rect x="180" y="187.51" width="6" height="12.4904" stroke="black" stroke-width="1" fill="blue" opacity="1" tooltip="enable"><title>(0.0380101,81)</title></rect><rect x="186" y="184.888" width="6" height="15.1118" stroke="black" stroke-width="1" fill="blue" opacity="1" tooltip="enable"><title>(0.0392771,98)</title></rect><rect x="192" y="191.21" width="6" height="8.78951" stroke="black" stroke-width="1" fill="blue" opacity="1" tooltip="enable"><title>(0.0405441,57)</title></rect><rect x="198" y="187.355" width="6" height="12.6446" stroke="black" stroke-width="1" fill="blue" opacity="1" tooltip="enable"><title>(0.0418111,82)</title></rect><rect x="204" y="189.668" width="6" height="10.3315" stroke="black" stroke-width="1" fill="blue" opacity="1" tooltip="enable"><title>(0.0430781,67)</title></rect><rect x="210" y="191.21" width="6" height="8.78951" stroke="black" stroke-width="1" fill="blue" opacity="1" tooltip="enable"><title>(0.0443451,57)</title></rect><rect x="216" y="191.981" width="6" height="8.0185" stroke="black" stroke-width="1" fill="blue" opacity="1" tooltip="enable"><title>(0.0456122,52)</title></rect><rect x="222" y="190.902" width="6" height="9.09792" stroke="black" stroke-width="1" fill="blue" opacity="1" tooltip="enable"><title>(0.0468792,59)</title></rect><rect x="228" y="191.519" width="6" height="8.48111" stroke="black" stroke-width="1" fill="blue" opacity="1" tooltip="enable"><title>(0.0481462,55)</title></rect><rect x="234" y="193.524" width="6" height="6.47648" stroke="black" stroke-width="1" fill="blue" opacity="1" tooltip="enable"><title>(0.0494132,42)</title></rect><rect x="240" y="196.608" width="6" height="3.39244" stroke="black" stroke-width="1" fill="blue" opacity="1" tooltip="enable"><title>(0.0506802,22)</title></rect><rect x="246" y="196.916" width="6" height="3.08404" stroke="black" stroke-width="1" fill="blue" opacity="1" tooltip="enable"><title>(0.0519472,20)</title></rect><rect x="252" y="197.07" width="6" height="2.92984" stroke="black" stroke-width="1" fill="blue" opacity="1" tooltip="enable"><title>(0.0532142,19)</title></rect><rect x="258" y="195.991" width="6" height="4.00925" stroke="black" stroke-width="1" fill="blue" opacity="1" tooltip="enable"><title>(0.0544812,26)</title></rect><rect x="264" y="197.224" width="6" height="2.77564" stroke="black" stroke-width="1" fill="blue" opacity="1" tooltip="enable"><title>(0.0557482,18)</title></rect><rect x="270" y="198.458" width="6" height="1.54202" stroke="black" stroke-width="1" fill="blue" opacity="1" tooltip="enable"><title>(0.0570152,10)</title></rect><rect x="276" y="198.612" width="6" height="1.38782" stroke="black" stroke-width="1" fill="blue" opacity="1" tooltip="enable"><title>(0.0582822,9)</title></rect><rect x="282" y="198.921" width="6" height="1.07941" stroke="black" stroke-width="1" fill="blue" opacity="1" tooltip="enable"><title>(0.0595492,7)</title></rect><rect x="288" y="199.692" width="6" height="0.308404" stroke="black" stroke-width="1" fill="blue" opacity="1" tooltip="enable"><title>(0.0608162,2)</title></rect><rect x="294" y="198.15" width="6" height="1.85042" stroke="black" stroke-width="1" fill="blue" opacity="1" tooltip="enable"><title>(0.0620832,12)</title></rect><rect x="300" y="198.15" width="6" height="1.85042" stroke="black" stroke-width="1" fill="blue" opacity="1" tooltip="enable"><title>(0.0633502,12)</title></rect><rect x="306" y="198.612" width="6" height="1.38782" stroke="black" stroke-width="1" fill="blue" opacity="1" tooltip="enable"><title>(0.0646172,9)</title></rect><rect x="312" y="197.687" width="6" height="2.31303" stroke="black" stroke-width="1" fill="blue" opacity="1" tooltip="enable"><title>(0.0658842,15)</title></rect><rect x="318" y="198.921" width="6" height="1.07941" stroke="black" stroke-width="1" fill="blue" opacity="1" tooltip="enable"><title>(0.0671512,7)</title></rect><rect x="324" y="199.229" width="6" height="0.77101" stroke="black" stroke-width="1" fill="blue" opacity="1" tooltip="enable"><title>(0.0684182,5)</title></rect><rect x="330" y="199.229" width="6" height="0.77101" stroke="black" stroke-width="1" fill="blue" opacity="1" tooltip="enable"><title>(0.0696852,5)</title></rect><rect x="336" y="198.921" width="6" height="1.07941" stroke="black" stroke-width="1" fill="blue" opacity="1" tooltip="enable"><title>(0.0709522,7)</title></rect><rect x="342" y="198.921" width="6" height="1.07941" stroke="black" stroke-width="1" fill="blue" opacity="1" tooltip="enable"><title>(0.0722192,7)</title></rect><rect x="348" y="199.537" width="6" height="0.462606" stroke="black" stroke-width="1" fill="blue" opacity="1" tooltip="enable"><title>(0.0734862,3)</title></rect><rect x="354" y="197.533" width="6" height="2.46723" stroke="black" stroke-width="1" fill="blue" opacity="1" tooltip="enable"><title>(0.0747532,16)</title></rect><rect x="360" y="199.229" width="6" height="0.77101" stroke="black" stroke-width="1" fill="blue" opacity="1" tooltip="enable"><title>(0.0760203,5)</title></rect><rect x="366" y="199.229" width="6" height="0.77101" stroke="black" stroke-width="1" fill="blue" opacity="1" tooltip="enable"><title>(0.0772873,5)</title></rect><rect x="372" y="199.692" width="6" height="0.308404" stroke="black" stroke-width="1" fill="blue" opacity="1" tooltip="enable"><title>(0.0785543,2)</title></rect><rect x="378" y="199.692" width="6" height="0.308404" stroke="black" stroke-width="1" fill="blue" opacity="1" tooltip="enable"><title>(0.0798213,2)</title></rect><rect x="384" y="199.383" width="6" height="0.616808" stroke="black" stroke-width="1" fill="blue" opacity="1" tooltip="enable"><title>(0.0810883,4)</title></rect><rect x="390" y="200" width="6" height="0" stroke="black" stroke-width="1" fill="blue" opacity="1" tooltip="enable"><title>(0.0823553,0)</title></rect><rect x="396" y="199.692" width="6" height="0.308404" stroke="black" stroke-width="1" fill="blue" opacity="1" tooltip="enable"><title>(0.0836223,2)</title></rect><rect x="402" y="198.766" width="6" height="1.23362" stroke="black" stroke-width="1" fill="blue" opacity="1" tooltip="enable"><title>(0.0848893,8)</title></rect><rect x="408" y="198.766" width="6" height="1.23362" stroke="black" stroke-width="1" fill="blue" opacity="1" tooltip="enable"><title>(0.0861563,8)</title></rect><rect x="414" y="199.075" width="6" height="0.925212" stroke="black" stroke-width="1" fill="blue" opacity="1" tooltip="enable"><title>(0.0874233,6)</title></rect><rect x="420" y="199.692" width="6" height="0.308404" stroke="black" stroke-width="1" fill="blue" opacity="1" tooltip="enable"><title>(0.0886903,2)</title></rect><rect x="426" y="200" width="6" height="0" stroke="black" stroke-width="1" fill="blue" opacity="1" tooltip="enable"><title>(0.0899573,0)</title></rect><rect x="432" y="199.383" width="6" height="0.616808" stroke="black" stroke-width="1" fill="blue" opacity="1" tooltip="enable"><title>(0.0912243,4)</title></rect><rect x="438" y="198.458" width="6" height="1.54202" stroke="black" stroke-width="1" fill="blue" opacity="1" tooltip="enable"><title>(0.0924913,10)</title></rect><rect x="444" y="199.692" width="6" height="0.308404" stroke="black" stroke-width="1" fill="blue" opacity="1" tooltip="enable"><title>(0.0937583,2)</title></rect><rect x="450" y="199.692" width="6" height="0.308404" stroke="black" stroke-width="1" fill="blue" opacity="1" tooltip="enable"><title>(0.0950253,2)</title></rect><rect x="456" y="200" width="6" height="0" stroke="black" stroke-width="1" fill="blue" opacity="1" tooltip="enable"><title>(0.0962923,0)</title></rect><rect x="462" y="199.692" width="6" height="0.308404" stroke="black" stroke-width="1" fill="blue" opacity="1" tooltip="enable"><title>(0.0975593,2)</title></rect><rect x="468" y="199.692" width="6" height="0.308404" stroke="black" stroke-width="1" fill="blue" opacity="1" tooltip="enable"><title>(0.0988263,2)</title></rect><rect x="474" y="200" width="6" height="0" stroke="black" stroke-width="1" fill="blue" opacity="1" tooltip="enable"><title>(0.100093,0)</title></rect><rect x="480" y="200" width="6" height="0" stroke="black" stroke-width="1" fill="blue" opacity="1" tooltip="enable"><title>(0.10136,0)</title></rect><rect x="486" y="200" width="6" height="0" stroke="black" stroke-width="1" fill="blue" opacity="1" tooltip="enable"><title>(0.102627,0)</title></rect><rect x="492" y="200" width="6" height="0" stroke="black" stroke-width="1" fill="blue" opacity="1" tooltip="enable"><title>(0.103894,0)</title></rect><rect x="498" y="199.692" width="6" height="0.308404" stroke="black" stroke-width="1" fill="blue" opacity="1" tooltip="enable"><title>(0.105161,2)</title></rect><rect x="504" y="199.692" width="6" height="0.308404" stroke="black" stroke-width="1" fill="blue" opacity="1" tooltip="enable"><title>(0.106428,2)</title></rect><rect x="510" y="199.692" width="6" height="0.308404" stroke="black" stroke-width="1" fill="blue" opacity="1" tooltip="enable"><title>(0.107695,2)</title></rect><rect x="516" y="200" width="6" height="0" stroke="black" stroke-width="1" fill="blue" opacity="1" tooltip="enable"><title>(0.108962,0)</title></rect><rect x="522" y="199.692" width="6" height="0.308404" stroke="black" stroke-width="1" fill="blue" opacity="1" tooltip="enable"><title>(0.110229,2)</title></rect><rect x="528" y="199.846" width="6" height="0.154202" stroke="black" stroke-width="1" fill="blue" opacity="1" tooltip="enable"><title>(0.111496,1)</title></rect><rect x="534" y="199.229" width="6" height="0.77101" stroke="black" stroke-width="1" fill="blue" opacity="1" tooltip="enable"><title>(0.112763,5)</title></rect><rect x="540" y="200" width="6" height="0" stroke="black" stroke-width="1" fill="blue" opacity="1" tooltip="enable"><title>(0.11403,0)</title></rect><rect x="546" y="199.692" width="6" height="0.308404" stroke="black" stroke-width="1" fill="blue" opacity="1" tooltip="enable"><title>(0.115297,2)</title></rect><rect x="552" y="199.692" width="6" height="0.308404" stroke="black" stroke-width="1" fill="blue" opacity="1" tooltip="enable"><title>(0.116564,2)</title></rect><rect x="558" y="200" width="6" height="0" stroke="black" stroke-width="1" fill="blue" opacity="1" tooltip="enable"><title>(0.117831,0)</title></rect><rect x="564" y="199.692" width="6" height="0.308404" stroke="black" stroke-width="1" fill="blue" opacity="1" tooltip="enable"><title>(0.119098,2)</title></rect><rect x="570" y="200" width="6" height="0" stroke="black" stroke-width="1" fill="blue" opacity="1" tooltip="enable"><title>(0.120365,0)</title></rect><rect x="576" y="200" width="6" height="0" stroke="black" stroke-width="1" fill="blue" opacity="1" tooltip="enable"><title>(0.121632,0)</title></rect><rect x="582" y="200" width="6" height="0" stroke="black" stroke-width="1" fill="blue" opacity="1" tooltip="enable"><title>(0.122899,0)</title></rect><rect x="588" y="200" width="6" height="0" stroke="black" stroke-width="1" fill="blue" opacity="1" tooltip="enable"><title>(0.124166,0)</title></rect><rect x="594" y="199.846" width="6" height="0.154202" stroke="black" stroke-width="1" fill="blue" opacity="1" tooltip="enable"><title>(0.125433,1)</title></rect><text x="30" y="240" font-size="20" fill="black">0</text>
<text x="600" y="240" font-size="20" fill="black">0.1267</text>
<polyline points="0,220,600,220" stroke="black" stroke-width="1" fill="none" opacity="1"/>
<text x="720" y="20" font-size="20" fill="black">1297</text>
<text x="720" y="200" font-size="20" fill="black">0</text>
<polyline points="660,0,660,200" stroke="black" stroke-width="1" fill="none" opacity="1"/>
</svg>