<?xml version="1.0" standalone="yes"?>
<!-- SVG graphic -->
<svg xmlns='http://www.w3.org/2000/svg' xmlns:xlink='http://www.w3.org/1999/xlink'
 version="1.1">
<rect x="0" y="0" width="6" height="200" stroke="black" stroke-width="1" fill="blue" opacity="1" tooltip="enable"><title>(0,4266)</title></rect><rect x="6" y="184.998" width="6" height="15.0023" stroke="black" stroke-width="1" fill="blue" opacity="1" tooltip="enable"><title>(0.00128141,320)</title></rect><rect x="12" y="188.936" width="6" height="11.0642" stroke="black" stroke-width="1" fill="blue" opacity="1" tooltip="enable"><title>(0.00256282,236)</title></rect><rect x="18" y="188.842" width="6" height="11.158" stroke="black" stroke-width="1" fill="blue" opacity="1" tooltip="enable"><title>(0.00384423,238)</title></rect><rect x="24" y="187.248" width="6" height="12.752" stroke="black" stroke-width="1" fill="blue" opacity="1" tooltip="enable"><title>(0.00512564,272)</title></rect><rect x="30" y="189.639" width="6" height="10.361" stroke="black" stroke-width="1" fill="blue" opacity="1" tooltip="enable"><title>(0.00640705,221)</title></rect><rect x="36" y="188.983" width="6" height="11.0173" stroke="black" stroke-width="1" fill="blue" opacity="1" tooltip="enable"><title>(0.00768846,235)</title></rect><rect x="42" y="190.483" width="6" height="9.51711" stroke="black" stroke-width="1" fill="blue" opacity="1" tooltip="enable"><title>(0.00896987,203)</title></rect><rect x="48" y="192.077" width="6" height="7.92311" stroke="black" stroke-width="1" fill="blue" opacity="1" tooltip="enable"><title>(0.0102513,169)</title></rect><rect x="54" y="192.874" width="6" height="7.12611" stroke="black" stroke-width="1" fill="blue" opacity="1" tooltip="enable"><title>(0.0115327,152)</title></rect><rect x="60" y="191.655" width="6" height="8.34505" stroke="black" stroke-width="1" fill="blue" opacity="1" tooltip="enable"><title>(0.0128141,178)</title></rect><rect x="66" y="191.092" width="6" height="8.90764" stroke="black" stroke-width="1" fill="blue" opacity="1" tooltip="enable"><title>(0.0140955,190)</title></rect><rect x="72" y="192.921" width="6" height="7.07923" stroke="black" stroke-width="1" fill="blue" opacity="1" tooltip="enable"><title>(0.0153769,151)</title></rect><rect x="78" y="192.218" width="6" height="7.78247" stroke="black" stroke-width="1" fill="blue" opacity="1" tooltip="enable"><title>(0.0166583,166)</title></rect><rect x="84" y="193.483" width="6" height="6.51664" stroke="black" stroke-width="1" fill="blue" opacity="1" tooltip="enable"><title>(0.0179397,139)</title></rect><rect x="90" y="194.468" width="6" height="5.53211" stroke="black" stroke-width="1" fill="blue" opacity="1" tooltip="enable"><title>(0.0192212,118)</title></rect><rect x="96" y="195.03" width="6" height="4.96953" stroke="black" stroke-width="1" fill="blue" opacity="1" tooltip="enable"><title>(0.0205026,106)</title></rect><rect x="102" y="194.187" width="6" height="5.81341" stroke="black" stroke-width="1" fill="blue" opacity="1" tooltip="enable"><title>(0.021784,124)</title></rect><rect x="108" y="196.531" width="6" height="3.46929" stroke="black" stroke-width="1" fill="blue" opacity="1" tooltip="enable"><title>(0.0230654,74)</title></rect><rect x="114" y="196.437" width="6" height="3.56306" stroke="black" stroke-width="1" fill="blue" opacity="1" tooltip="enable"><title>(0.0243468,76)</title></rect><rect x="120" y="197.562" width="6" height="2.43788" stroke="black" stroke-width="1" fill="blue" opacity="1" tooltip="enable"><title>(0.0256282,52)</title></rect><rect x="126" y="198.031" width="6" height="1.96906" stroke="black" stroke-width="1" fill="blue" opacity="1" tooltip="enable"><title>(0.0269096,42)</title></rect><rect x="132" y="197.281" width="6" height="2.71917" stroke="black" stroke-width="1" fill="blue" opacity="1" tooltip="enable"><title>(0.028191,58)</title></rect><rect x="138" y="198.406" width="6" height="1.594" stroke="black" stroke-width="1" fill="blue" opacity="1" tooltip="enable"><title>(0.0294724,34)</title></rect><rect x="144" y="198.781" width="6" height="1.21894" stroke="black" stroke-width="1" fill="blue" opacity="1" tooltip="enable"><title>(0.0307539,26)</title></rect><rect x="150" y="199.109" width="6" height="0.890764" stroke="black" stroke-width="1" fill="blue" opacity="1" tooltip="enable"><title>(0.0320353,19)</title></rect><rect x="156" y="198.828" width="6" height="1.17206" stroke="black" stroke-width="1" fill="blue" opacity="1" tooltip="enable"><title>(0.0333167,25)</title></rect><rect x="162" y="199.25" width="6" height="0.750117" stroke="black" stroke-width="1" fill="blue" opacity="1" tooltip="enable"><title>(0.0345981,16)</title></rect><rect x="168" y="199.625" width="6" height="0.375059" stroke="black" stroke-width="1" fill="blue" opacity="1" tooltip="enable"><title>(0.0358795,8)</title></rect><rect x="174" y="199.531" width="6" height="0.468823" stroke="black" stroke-width="1" fill="blue" opacity="1" tooltip="enable"><title>(0.0371609,10)</title></rect><rect x="180" y="199.625" width="6" height="0.375059" stroke="black" stroke-width="1" fill="blue" opacity="1" tooltip="enable"><title>(0.0384423,8)</title></rect><rect x="186" y="199.906" width="6" height="0.0937646" stroke="black" stroke-width="1" fill="blue" opacity="1" tooltip="enable"><title>(0.0397237,2)</title></rect><rect x="192" y="199.906" width="6" height="0.0937646" stroke="black" stroke-width="1" fill="blue" opacity="1" tooltip="enable"><title>(0.0410051,2)</title></rect><rect x="198" y="199.719" width="6" height="0.281294" stroke="black" stroke-width="1" fill="blue" opacity="1" tooltip="enable"><title>(0.0422865,6)</title></rect><rect x="204" y="199.812" width="6" height="0.187529" stroke="black" stroke-width="1" fill="blue" opacity="1" tooltip="enable"><title>(0.043568,4)</title></rect><rect x="210" y="200" width="6" height="0" stroke="black" stroke-width="1" fill="blue" opacity="1" tooltip="enable"><title>(0.0448494,0)</title></rect><rect x="216" y="200" width="6" height="0" stroke="black" stroke-width="1" fill="blue" opacity="1" tooltip="enable"><title>(0.0461308,0)</title></rect><rect x="222" y="199.812" width="6" height="0.187529" stroke="black" stroke-width="1" fill="blue" opacity="1" tooltip="enable"><title>(0.0474122,4)</title></rect><rect x="228" y="200" width="6" height="0" stroke="black" stroke-width="1" fill="blue" opacity="1" tooltip="enable"><title>(0.0486936,0)</title></rect><rect x="234" y="199.812" width="6" height="0.187529" stroke="black" stroke-width="1" fill="blue" opacity="1" tooltip="enable"><title>(0.049975,4)</title></rect><rect x="240" y="200" width="6" height="0" stroke="black" stroke-width="1" fill="blue" opacity="1" tooltip="enable"><title>(0.0512564,0)</title></rect><rect x="246" y="199.812" width="6" height="0.187529" stroke="black" stroke-width="1" fill="blue" opacity="1" tooltip="enable"><title>(0.0525378,4)</title></rect><rect x="252" y="200" width="6" height="0" stroke="black" stroke-width="1" fill="blue" opacity="1" tooltip="enable"><title>(0.0538192,0)</title></rect><rect x="258" y="199.812" width="6" height="0.187529" stroke="black" stroke-width="1" fill="blue" opacity="1" tooltip="enable"><title>(0.0551006,4)</title></rect><rect x="264" y="199.812" width="6" height="0.187529" stroke="black" stroke-width="1" fill="blue" opacity="1" tooltip="enable"><title>(0.0563821,4)</title></rect><rect x="270" y="200" width="6" height="0" stroke="black" stroke-width="1" fill="blue" opacity="1" tooltip="enable"><title>(0.0576635,0)</title></rect><rect x="276" y="200" width="6" height="0" stroke="black" stroke-width="1" fill="blue" opacity="1" tooltip="enable"><title>(0.0589449,0)</title></rect><rect x="282" y="199.906" width="6" height="0.0937646" stroke="black" stroke-width="1" fill="blue" opacity="1" tooltip="enable"><title>(0.0602263,2)</title></rect><rect x="288" y="199.812" width="6" height="0.187529" stroke="black" stroke-width="1" fill="blue" opacity="1" tooltip="enable"><title>(0.0615077,4)</title></rect><rect x="294" y="200" width="6" height="0" stroke="black" stroke-width="1" fill="blue" opacity="1" tooltip="enable"><title>(0.0627891,0)</title></rect><rect x="300" y="199.906" width="6" height="0.0937646" stroke="black" stroke-width="1" fill="blue" opacity="1" tooltip="enable"><title>(0.0640705,2)</title></rect><rect x="306" y="200" width="6" height="0" stroke="black" stroke-width="1" fill="blue" opacity="1" tooltip="enable"><title>(0.0653519,0)</title></rect><rect x="312" y="199.812" width="6" height="0.187529" stroke="black" stroke-width="1" fill="blue" opacity="1" tooltip="enable"><title>(0.0666333,4)</title></rect><rect x="318" y="199.906" width="6" height="0.0937646" stroke="black" stroke-width="1" fill="blue" opacity="1" tooltip="enable"><title>(0.0679148,2)</title></rect><rect x="324" y="200" width="6" height="0" stroke="black" stroke-width="1" fill="blue" opacity="1" tooltip="enable"><title>(0.0691962,0)</title></rect><rect x="330" y="200" width="6" height="0" stroke="black" stroke-width="1" fill="blue" opacity="1" tooltip="enable"><title>(0.0704776,0)</title></rect><rect x="336" y="200" width="6" height="0" stroke="black" stroke-width="1" fill="blue" opacity="1" tooltip="enable"><title>(0.071759,0)</title></rect><rect x="342" y="200" width="6" height="0" stroke="black" stroke-width="1" fill="blue" opacity="1" tooltip="enable"><title>(0.0730404,0)</title></rect><rect x="348" y="199.906" width="6" height="0.0937646" stroke="black" stroke-width="1" fill="blue" opacity="1" tooltip="enable"><title>(0.0743218,2)</title></rect><rect x="354" y="199.812" width="6" height="0.187529" stroke="black" stroke-width="1" fill="blue" opacity="1" tooltip="enable"><title>(0.0756032,4)</title></rect><rect x="360" y="199.812" width="6" height="0.187529" stroke="black" stroke-width="1" fill="blue" opacity="1" tooltip="enable"><title>(0.0768846,4)</title></rect><rect x="366" y="199.906" width="6" height="0.0937646" stroke="black" stroke-width="1" fill="blue" opacity="1" tooltip="enable"><title>(0.078166,2)</title></rect><rect x="372" y="200" width="6" height="0" stroke="black" stroke-width="1" fill="blue" opacity="1" tooltip="enable"><title>(0.0794474,0)</title></rect><rect x="378" y="200" width="6" height="0" stroke="black" stroke-width="1" fill="blue" opacity="1" tooltip="enable"><title>(0.0807289,0)</title></rect><rect x="384" y="200" width="6" height="0" stroke="black" stroke-width="1" fill="blue" opacity="1" tooltip="enable"><title>(0.0820103,0)</title></rect><rect x="390" y="200" width="6" height="0" stroke="black" stroke-width="1" fill="blue" opacity="1" tooltip="enable"><title>(0.0832917,0)</title></rect><rect x="396" y="200" width="6" height="0" stroke="black" stroke-width="1" fill="blue" opacity="1" tooltip="enable"><title>(0.0845731,0)</title></rect><rect x="402" y="200" width="6" height="0" stroke="black" stroke-width="1" fill="blue" opacity="1" tooltip="enable"><title>(0.0858545,0)</title></rect><rect x="408" y="200" width="6" height="0" stroke="black" stroke-width="1" fill="blue" opacity="1" tooltip="enable"><title>(0.0871359,0)</title></rect><rect x="414" y="200" width="6" height="0" stroke="black" stroke-width="1" fill="blue" opacity="1" tooltip="enable"><title>(0.0884173,0)</title></rect><rect x="420" y="200" width="6" height="0" stroke="black" stroke-width="1" fill="blue" opacity="1" tooltip="enable"><title>(0.0896987,0)</title></rect><rect x="426" y="200" width="6" height="0" stroke="black" stroke-width="1" fill="blue" opacity="1" tooltip="enable"><title>(0.0909801,0)</title></rect><rect x="432" y="200" width="6" height="0" stroke="black" stroke-width="1" fill="blue" opacity="1" tooltip="enable"><title>(0.0922616,0)</title></rect><rect x="438" y="200" width="6" height="0" stroke="black" stroke-width="1" fill="blue" opacity="1" tooltip="enable"><title>(0.093543,0)</title></rect><rect x="444" y="200" width="6" height="0" stroke="black" stroke-width="1" fill="blue" opacity="1" tooltip="enable"><title>(0.0948244,0)</title></rect><rect x="450" y="200" width="6" height="0" stroke="black" stroke-width="1" fill="blue" opacity="1" tooltip="enable"><title>(0.0961058,0)</title></rect><rect x="456" y="200" width="6" height="0" stroke="black" stroke-width="1" fill="blue" opacity="1" tooltip="enable"><title>(0.0973872,0)</title></rect><rect x="462" y="199.906" width="6" height="0.0937646" stroke="black" stroke-width="1" fill="blue" opacity="1" tooltip="enable"><title>(0.0986686,2)</title></rect><rect x="468" y="200" width="6" height="0" stroke="black" stroke-width="1" fill="blue" opacity="1" tooltip="enable"><title>(0.09995,0)</title></rect><rect x="474" y="200" width="6" height="0" stroke="black" stroke-width="1" fill="blue" opacity="1" tooltip="enable"><title>(0.101231,0)</title></rect><rect x="480" y="200" width="6" height="0" stroke="black" stroke-width="1" fill="blue" opacity="1" tooltip="enable"><title>(0.102513,0)</title></rect><rect x="486" y="200" width="6" height="0" stroke="black" stroke-width="1" fill="blue" opacity="1" tooltip="enable"><title>(0.103794,0)</title></rect><rect x="492" y="200" width="6" height="0" stroke="black" stroke-width="1" fill="blue" opacity="1" tooltip="enable"><title>(0.105076,0)</title></rect><rect x="498" y="199.906" width="6" height="0.0937646" stroke="black" stroke-width="1" fill="blue" opacity="1" tooltip="enable"><title>(0.106357,2)</title></rect><rect x="504" y="200" width="6" height="0" stroke="black" stroke-width="1" fill="blue" opacity="1" tooltip="enable"><title>(0.107638,0)</title></rect><rect x="510" y="200" width="6" height="0" stroke="black" stroke-width="1" fill="blue" opacity="1" tooltip="enable"><title>(0.10892,0)</title></rect><rect x="516" y="200" width="6" height="0" stroke="black" stroke-width="1" fill="blue" opacity="1" tooltip="enable"><title>(0.110201,0)</title></rect><rect x="522" y="200" width="6" height="0" stroke="black" stroke-width="1" fill="blue" opacity="1" tooltip="enable"><title>(0.111483,0)</title></rect><rect x="528" y="200" width="6" height="0" stroke="black" stroke-width="1" fill="blue" opacity="1" tooltip="enable"><title>(0.112764,0)</title></rect><rect x="534" y="200" width="6" height="0" stroke="black" stroke-width="1" fill="blue" opacity="1" tooltip="enable"><title>(0.114046,0)</title></rect><rect x="540" y="200" width="6" height="0" stroke="black" stroke-width="1" fill="blue" opacity="1" tooltip="enable"><title>(0.115327,0)</title></rect><rect x="546" y="200" width="6" height="0" stroke="black" stroke-width="1" fill="blue" opacity="1" tooltip="enable"><title>(0.116608,0)</title></rect><rect x="552" y="200" width="6" height="0" stroke="black" stroke-width="1" fill="blue" opacity="1" tooltip="enable"><title>(0.11789,0)</title></rect><rect x="558" y="200" width="6" height="0" stroke="black" stroke-width="1" fill="blue" opacity="1" tooltip="enable"><title>(0.119171,0)</title></rect><rect x="564" y="200" width="6" height="0" stroke="black" stroke-width="1" fill="blue" opacity="1" tooltip="enable"><title>(0.120453,0)</title></rect><rect x="570" y="200" width="6" height="0" stroke="black" stroke-width="1" fill="blue" opacity="1" tooltip="enable"><title>(0.121734,0)</title></rect><rect x="576" y="200" width="6" height="0" stroke="black" stroke-width="1" fill="blue" opacity="1" tooltip="enable"><title>(0.123015,0)</title></rect><rect x="582" y="200" width="6" height="0" stroke="black" stroke-width="1" fill="blue" opacity="1" tooltip="enable"><title>(0.124297,0)</title></rect><rect x="588" y="199.906" width="6" height="0.0937646" stroke="black" stroke-width="1" fill="blue" opacity="1" tooltip="enable"><title>(0.125578,2)</title></rect><rect x="594" y="199.953" width="6" height="0.0468823" stroke="black" stroke-width="1" fill="blue" opacity="1" tooltip="enable"><title>(0.12686,1)</title></rect><text x="30" y="240" font-size="20" fill="black">0</text>
<text x="600" y="240" font-size="20" fill="black">0.128141</text>
<polyline points="0,220,600,220" stroke="black" stroke-width="1" fill="none" opacity="1"/>
<text x="720" y="20" font-size="20" fill="black">4266</text>
<text x="720" y="200" font-size="20" fill="black">0</text>
<polyline points="660,0,660,200" stroke="black" stroke-width="1" fill="none" opacity="1"/>
</svg>