<?xml version="1.0" standalone="yes"?>
<!-- SVG graphic -->
<svg xmlns='http://www.w3.org/2000/svg' xmlns:xlink='http://www.w3.org/1999/xlink'
 version="1.1">
<rect x="0" y="0" width="6" height="200" stroke="black" stroke-width="1" fill="blue" opacity="1" tooltip="enable"><title>(0,1417)</title></rect><rect x="6" y="31.3338" width="6" height="168.666" stroke="black" stroke-width="1" fill="blue" opacity="1" tooltip="enable"><title>(0.00082702,1195)</title></rect><rect x="12" y="92.4488" width="6" height="107.551" stroke="black" stroke-width="1" fill="blue" opacity="1" tooltip="enable"><title>(0.00165404,762)</title></rect><rect x="18" y="126.182" width="6" height="73.8179" stroke="black" stroke-width="1" fill="blue" opacity="1" tooltip="enable"><title>(0.00248106,523)</title></rect><rect x="24" y="135.921" width="6" height="64.079" stroke="black" stroke-width="1" fill="blue" opacity="1" tooltip="enable"><title>(0.00330808,454)</title></rect><rect x="30" y="154.552" width="6" height="45.4481" stroke="black" stroke-width="1" fill="blue" opacity="1" tooltip="enable"><title>(0.0041351,322)</title></rect><rect x="36" y="168.102" width="6" height="31.8984" stroke="black" stroke-width="1" fill="blue" opacity="1" tooltip="enable"><title>(0.00496212,226)</title></rect><rect x="42" y="180.381" width="6" height="19.6189" stroke="black" stroke-width="1" fill="blue" opacity="1" tooltip="enable"><title>(0.00578914,139)</title></rect><rect x="48" y="182.216" width="6" height="17.7841" stroke="black" stroke-width="1" fill="blue" opacity="1" tooltip="enable"><title>(0.00661616,126)</title></rect><rect x="54" y="180.522" width="6" height="19.4778" stroke="black" stroke-width="1" fill="blue" opacity="1" tooltip="enable"><title>(0.00744318,138)</title></rect><rect x="60" y="185.886" width="6" height="14.1143" stroke="black" stroke-width="1" fill="blue" opacity="1" tooltip="enable"><title>(0.0082702,100)</title></rect><rect x="66" y="181.51" width="6" height="18.4898" stroke="black" stroke-width="1" fill="blue" opacity="1" tooltip="enable"><title>(0.00909722,131)</title></rect><rect x="72" y="182.075" width="6" height="17.9252" stroke="black" stroke-width="1" fill="blue" opacity="1" tooltip="enable"><title>(0.00992424,127)</title></rect><rect x="78" y="183.345" width="6" height="16.6549" stroke="black" stroke-width="1" fill="blue" opacity="1" tooltip="enable"><title>(0.0107513,118)</title></rect><rect x="84" y="188.991" width="6" height="11.0092" stroke="black" stroke-width="1" fill="blue" opacity="1" tooltip="enable"><title>(0.0115783,78)</title></rect><rect x="90" y="184.615" width="6" height="15.3846" stroke="black" stroke-width="1" fill="blue" opacity="1" tooltip="enable"><title>(0.0124053,109)</title></rect><rect x="96" y="185.745" width="6" height="14.2555" stroke="black" stroke-width="1" fill="blue" opacity="1" tooltip="enable"><title>(0.0132323,101)</title></rect><rect x="102" y="186.45" width="6" height="13.5498" stroke="black" stroke-width="1" fill="blue" opacity="1" tooltip="enable"><title>(0.0140593,96)</title></rect><rect x="108" y="188.003" width="6" height="11.9972" stroke="black" stroke-width="1" fill="blue" opacity="1" tooltip="enable"><title>(0.0148864,85)</title></rect><rect x="114" y="188.144" width="6" height="11.856" stroke="black" stroke-width="1" fill="blue" opacity="1" tooltip="enable"><title>(0.0157134,84)</title></rect><rect x="120" y="186.168" width="6" height="13.832" stroke="black" stroke-width="1" fill="blue" opacity="1" tooltip="enable"><title>(0.0165404,98)</title></rect><rect x="126" y="190.543" width="6" height="9.4566" stroke="black" stroke-width="1" fill="blue" opacity="1" tooltip="enable"><title>(0.0173674,67)</title></rect><rect x="132" y="191.249" width="6" height="8.75088" stroke="black" stroke-width="1" fill="blue" opacity="1" tooltip="enable"><title>(0.0181944,62)</title></rect><rect x="138" y="190.967" width="6" height="9.03317" stroke="black" stroke-width="1" fill="blue" opacity="1" tooltip="enable"><title>(0.0190215,64)</title></rect><rect x="144" y="192.237" width="6" height="7.76288" stroke="black" stroke-width="1" fill="blue" opacity="1" tooltip="enable"><title>(0.0198485,55)</title></rect><rect x="150" y="194.072" width="6" height="5.92802" stroke="black" stroke-width="1" fill="blue" opacity="1" tooltip="enable"><title>(0.0206755,42)</title></rect><rect x="156" y="193.084" width="6" height="6.91602" stroke="black" stroke-width="1" fill="blue" opacity="1" tooltip="enable"><title>(0.0215025,49)</title></rect><rect x="162" y="192.943" width="6" height="7.05716" stroke="black" stroke-width="1" fill="blue" opacity="1" tooltip="enable"><title>(0.0223295,50)</title></rect><rect x="168" y="193.931" width="6" height="6.06916" stroke="black" stroke-width="1" fill="blue" opacity="1" tooltip="enable"><title>(0.0231566,43)</title></rect><rect x="174" y="192.943" width="6" height="7.05716" stroke="black" stroke-width="1" fill="blue" opacity="1" tooltip="enable"><title>(0.0239836,50)</title></rect><rect x="180" y="192.519" width="6" height="7.48059" stroke="black" stroke-width="1" fill="blue" opacity="1" tooltip="enable"><title>(0.0248106,53)</title></rect><rect x="186" y="194.213" width="6" height="5.78687" stroke="black" stroke-width="1" fill="blue" opacity="1" tooltip="enable"><title>(0.0256376,41)</title></rect><rect x="192" y="196.189" width="6" height="3.81087" stroke="black" stroke-width="1" fill="blue" opacity="1" tooltip="enable"><title>(0.0264646,27)</title></rect><rect x="198" y="193.366" width="6" height="6.63373" stroke="black" stroke-width="1" fill="blue" opacity="1" tooltip="enable"><title>(0.0272917,47)</title></rect><rect x="204" y="192.802" width="6" height="7.19831" stroke="black" stroke-width="1" fill="blue" opacity="1" tooltip="enable"><title>(0.0281187,51)</title></rect><rect x="210" y="196.895" width="6" height="3.10515" stroke="black" stroke-width="1" fill="blue" opacity="1" tooltip="enable"><title>(0.0289457,22)</title></rect><rect x="216" y="195.483" width="6" height="4.51658" stroke="black" stroke-width="1" fill="blue" opacity="1" tooltip="enable"><title>(0.0297727,32)</title></rect><rect x="222" y="196.895" width="6" height="3.10515" stroke="black" stroke-width="1" fill="blue" opacity="1" tooltip="enable"><title>(0.0305997,22)</title></rect><rect x="228" y="196.048" width="6" height="3.95201" stroke="black" stroke-width="1" fill="blue" opacity="1" tooltip="enable"><title>(0.0314268,28)</title></rect><rect x="234" y="196.754" width="6" height="3.24629" stroke="black" stroke-width="1" fill="blue" opacity="1" tooltip="enable"><title>(0.0322538,23)</title></rect><rect x="240" y="196.754" width="6" height="3.24629" stroke="black" stroke-width="1" fill="blue" opacity="1" tooltip="enable"><title>(0.0330808,23)</title></rect><rect x="246" y="196.613" width="6" height="3.38744" stroke="black" stroke-width="1" fill="blue" opacity="1" tooltip="enable"><title>(0.0339078,24)</title></rect><rect x="252" y="195.201" width="6" height="4.79887" stroke="black" stroke-width="1" fill="blue" opacity="1" tooltip="enable"><title>(0.0347348,34)</title></rect><rect x="258" y="195.766" width="6" height="4.2343" stroke="black" stroke-width="1" fill="blue" opacity="1" tooltip="enable"><title>(0.0355619,30)</title></rect><rect x="264" y="194.354" width="6" height="5.64573" stroke="black" stroke-width="1" fill="blue" opacity="1" tooltip="enable"><title>(0.0363889,40)</title></rect><rect x="270" y="195.06" width="6" height="4.94001" stroke="black" stroke-width="1" fill="blue" opacity="1" tooltip="enable"><title>(0.0372159,35)</title></rect><rect x="276" y="195.201" width="6" height="4.79887" stroke="black" stroke-width="1" fill="blue" opacity="1" tooltip="enable"><title>(0.0380429,34)</title></rect><rect x="282" y="196.471" width="6" height="3.52858" stroke="black" stroke-width="1" fill="blue" opacity="1" tooltip="enable"><title>(0.0388699,25)</title></rect><rect x="288" y="194.354" width="6" height="5.64573" stroke="black" stroke-width="1" fill="blue" opacity="1" tooltip="enable"><title>(0.039697,40)</title></rect><rect x="294" y="196.33" width="6" height="3.66972" stroke="black" stroke-width="1" fill="blue" opacity="1" tooltip="enable"><title>(0.040524,26)</title></rect><rect x="300" y="197.742" width="6" height="2.25829" stroke="black" stroke-width="1" fill="blue" opacity="1" tooltip="enable"><title>(0.041351,16)</title></rect><rect x="306" y="196.048" width="6" height="3.95201" stroke="black" stroke-width="1" fill="blue" opacity="1" tooltip="enable"><title>(0.042178,28)</title></rect><rect x="312" y="195.483" width="6" height="4.51658" stroke="black" stroke-width="1" fill="blue" opacity="1" tooltip="enable"><title>(0.043005,32)</title></rect><rect x="318" y="196.189" width="6" height="3.81087" stroke="black" stroke-width="1" fill="blue" opacity="1" tooltip="enable"><title>(0.0438321,27)</title></rect><rect x="324" y="198.73" width="6" height="1.27029" stroke="black" stroke-width="1" fill="blue" opacity="1" tooltip="enable"><title>(0.0446591,9)</title></rect><rect x="330" y="196.613" width="6" height="3.38744" stroke="black" stroke-width="1" fill="blue" opacity="1" tooltip="enable"><title>(0.0454861,24)</title></rect><rect x="336" y="197.036" width="6" height="2.96401" stroke="black" stroke-width="1" fill="blue" opacity="1" tooltip="enable"><title>(0.0463131,21)</title></rect><rect x="342" y="196.471" width="6" height="3.52858" stroke="black" stroke-width="1" fill="blue" opacity="1" tooltip="enable"><title>(0.0471401,25)</title></rect><rect x="348" y="196.895" width="6" height="3.10515" stroke="black" stroke-width="1" fill="blue" opacity="1" tooltip="enable"><title>(0.0479672,22)</title></rect><rect x="354" y="198.589" width="6" height="1.41143" stroke="black" stroke-width="1" fill="blue" opacity="1" tooltip="enable"><title>(0.0487942,10)</title></rect><rect x="360" y="197.318" width="6" height="2.68172" stroke="black" stroke-width="1" fill="blue" opacity="1" tooltip="enable"><title>(0.0496212,19)</title></rect><rect x="366" y="198.447" width="6" height="1.55258" stroke="black" stroke-width="1" fill="blue" opacity="1" tooltip="enable"><title>(0.0504482,11)</title></rect><rect x="372" y="197.177" width="6" height="2.82287" stroke="black" stroke-width="1" fill="blue" opacity="1" tooltip="enable"><title>(0.0512752,20)</title></rect><rect x="378" y="197.177" width="6" height="2.82287" stroke="black" stroke-width="1" fill="blue" opacity="1" tooltip="enable"><title>(0.0521023,20)</title></rect><rect x="384" y="197.742" width="6" height="2.25829" stroke="black" stroke-width="1" fill="blue" opacity="1" tooltip="enable"><title>(0.0529293,16)</title></rect><rect x="390" y="198.871" width="6" height="1.12915" stroke="black" stroke-width="1" fill="blue" opacity="1" tooltip="enable"><title>(0.0537563,8)</title></rect><rect x="396" y="198.306" width="6" height="1.69372" stroke="black" stroke-width="1" fill="blue" opacity="1" tooltip="enable"><title>(0.0545833,12)</title></rect><rect x="402" y="197.742" width="6" height="2.25829" stroke="black" stroke-width="1" fill="blue" opacity="1" tooltip="enable"><title>(0.0554103,16)</title></rect><rect x="408" y="198.589" width="6" height="1.41143" stroke="black" stroke-width="1" fill="blue" opacity="1" tooltip="enable"><title>(0.0562374,10)</title></rect><rect x="414" y="197.601" width="6" height="2.39944" stroke="black" stroke-width="1" fill="blue" opacity="1" tooltip="enable"><title>(0.0570644,17)</title></rect><rect x="420" y="199.294" width="6" height="0.705716" stroke="black" stroke-width="1" fill="blue" opacity="1" tooltip="enable"><title>(0.0578914,5)</title></rect><rect x="426" y="199.153" width="6" height="0.84686" stroke="black" stroke-width="1" fill="blue" opacity="1" tooltip="enable"><title>(0.0587184,6)</title></rect><rect x="432" y="199.577" width="6" height="0.42343" stroke="black" stroke-width="1" fill="blue" opacity="1" tooltip="enable"><title>(0.0595454,3)</title></rect><rect x="438" y="197.883" width="6" height="2.11715" stroke="black" stroke-width="1" fill="blue" opacity="1" tooltip="enable"><title>(0.0603725,15)</title></rect><rect x="444" y="199.718" width="6" height="0.282287" stroke="black" stroke-width="1" fill="blue" opacity="1" tooltip="enable"><title>(0.0611995,2)</title></rect><rect x="450" y="200" width="6" height="0" stroke="black" stroke-width="1" fill="blue" opacity="1" tooltip="enable"><title>(0.0620265,0)</title></rect><rect x="456" y="199.153" width="6" height="0.84686" stroke="black" stroke-width="1" fill="blue" opacity="1" tooltip="enable"><title>(0.0628535,6)</title></rect><rect x="462" y="199.012" width="6" height="0.988003" stroke="black" stroke-width="1" fill="blue" opacity="1" tooltip="enable"><title>(0.0636805,7)</title></rect><rect x="468" y="199.577" width="6" height="0.42343" stroke="black" stroke-width="1" fill="blue" opacity="1" tooltip="enable"><title>(0.0645076,3)</title></rect><rect x="474" y="199.718" width="6" height="0.282287" stroke="black" stroke-width="1" fill="blue" opacity="1" tooltip="enable"><title>(0.0653346,2)</title></rect><rect x="480" y="199.718" width="6" height="0.282287" stroke="black" stroke-width="1" fill="blue" opacity="1" tooltip="enable"><title>(0.0661616,2)</title></rect><rect x="486" y="199.718" width="6" height="0.282287" stroke="black" stroke-width="1" fill="blue" opacity="1" tooltip="enable"><title>(0.0669886,2)</title></rect><rect x="492" y="200" width="6" height="0" stroke="black" stroke-width="1" fill="blue" opacity="1" tooltip="enable"><title>(0.0678156,0)</title></rect><rect x="498" y="199.435" width="6" height="0.564573" stroke="black" stroke-width="1" fill="blue" opacity="1" tooltip="enable"><title>(0.0686427,4)</title></rect><rect x="504" y="200" width="6" height="0" stroke="black" stroke-width="1" fill="blue" opacity="1" tooltip="enable"><title>(0.0694697,0)</title></rect><rect x="510" y="200" width="6" height="0" stroke="black" stroke-width="1" fill="blue" opacity="1" tooltip="enable"><title>(0.0702967,0)</title></rect><rect x="516" y="199.718" width="6" height="0.282287" stroke="black" stroke-width="1" fill="blue" opacity="1" tooltip="enable"><title>(0.0711237,2)</title></rect><rect x="522" y="199.718" width="6" height="0.282287" stroke="black" stroke-width="1" fill="blue" opacity="1" tooltip="enable"><title>(0.0719507,2)</title></rect><rect x="528" y="199.718" width="6" height="0.282287" stroke="black" stroke-width="1" fill="blue" opacity="1" tooltip="enable"><title>(0.0727778,2)</title></rect><rect x="534" y="200" width="6" height="0" stroke="black" stroke-width="1" fill="blue" opacity="1" tooltip="enable"><title>(0.0736048,0)</title></rect><rect x="540" y="200" width="6" height="0" stroke="black" stroke-width="1" fill="blue" opacity="1" tooltip="enable"><title>(0.0744318,0)</title></rect><rect x="546" y="200" width="6" height="0" stroke="black" stroke-width="1" fill="blue" opacity="1" tooltip="enable"><title>(0.0752588,0)</title></rect><rect x="552" y="200" width="6" height="0" stroke="black" stroke-width="1" fill="blue" opacity="1" tooltip="enable"><title>(0.0760858,0)</title></rect><rect x="558" y="200" width="6" height="0" stroke="black" stroke-width="1" fill="blue" opacity="1" tooltip="enable"><title>(0.0769129,0)</title></rect><rect x="564" y="200" width="6" height="0" stroke="black" stroke-width="1" fill="blue" opacity="1" tooltip="enable"><title>(0.0777399,0)</title></rect><rect x="570" y="199.718" width="6" height="0.282287" stroke="black" stroke-width="1" fill="blue" opacity="1" tooltip="enable"><title>(0.0785669,2)</title></rect><rect x="576" y="199.718" width="6" height="0.282287" stroke="black" stroke-width="1" fill="blue" opacity="1" tooltip="enable"><title>(0.0793939,2)</title></rect><rect x="582" y="200" width="6" height="0" stroke="black" stroke-width="1" fill="blue" opacity="1" tooltip="enable"><title>(0.0802209,0)</title></rect><rect x="588" y="200" width="6" height="0" stroke="black" stroke-width="1" fill="blue" opacity="1" tooltip="enable"><title>(0.081048,0)</title></rect><rect x="594" y="199.859" width="6" height="0.141143" stroke="black" stroke-width="1" fill="blue" opacity="1" tooltip="enable"><title>(0.081875,1)</title></rect><text x="30" y="240" font-size="20" fill="black">0</text>
<text x="600" y="240" font-size="20" fill="black">0.082702</text>
<polyline points="0,220,600,220" stroke="black" stroke-width="1" fill="none" opacity="1"/>
<text x="720" y="20" font-size="20" fill="black">1417</text>
<text x="720" y="200" font-size="20" fill="black">0</text>
<polyline points="660,0,660,200" stroke="black" stroke-width="1" fill="none" opacity="1"/>
</svg>