<?xml version="1.0" standalone="yes"?>
<!-- SVG graphic -->
<svg xmlns='http://www.w3.org/2000/svg' xmlns:xlink='http://www.w3.org/1999/xlink'
 version="1.1">
<rect x="0" y="0" width="6" height="200" stroke="black" stroke-width="1" fill="blue" opacity="1" tooltip="enable"><title>(0,4122)</title></rect><rect x="6" y="193.11" width="6" height="6.88986" stroke="black" stroke-width="1" fill="blue" opacity="1" tooltip="enable"><title>(0.00111766,142)</title></rect><rect x="12" y="191.946" width="6" height="8.05434" stroke="black" stroke-width="1" fill="blue" opacity="1" tooltip="enable"><title>(0.00223531,166)</title></rect><rect x="18" y="192.916" width="6" height="7.08394" stroke="black" stroke-width="1" fill="blue" opacity="1" tooltip="enable"><title>(0.00335297,146)</title></rect><rect x="24" y="192.868" width="6" height="7.13246" stroke="black" stroke-width="1" fill="blue" opacity="1" tooltip="enable"><title>(0.00447062,147)</title></rect><rect x="30" y="192.285" width="6" height="7.7147" stroke="black" stroke-width="1" fill="blue" opacity="1" tooltip="enable"><title>(0.00558828,159)</title></rect><rect x="36" y="194.226" width="6" height="5.7739" stroke="black" stroke-width="1" fill="blue" opacity="1" tooltip="enable"><title>(0.00670593,119)</title></rect><rect x="42" y="194.226" width="6" height="5.7739" stroke="black" stroke-width="1" fill="blue" opacity="1" tooltip="enable"><title>(0.00782359,119)</title></rect><rect x="48" y="193.886" width="6" height="6.11354" stroke="black" stroke-width="1" fill="blue" opacity="1" tooltip="enable"><title>(0.00894124,126)</title></rect><rect x="54" y="195.002" width="6" height="4.99757" stroke="black" stroke-width="1" fill="blue" opacity="1" tooltip="enable"><title>(0.0100589,103)</title></rect><rect x="60" y="193.595" width="6" height="6.40466" stroke="black" stroke-width="1" fill="blue" opacity="1" tooltip="enable"><title>(0.0111766,132)</title></rect><rect x="66" y="196.167" width="6" height="3.83309" stroke="black" stroke-width="1" fill="blue" opacity="1" tooltip="enable"><title>(0.0122942,79)</title></rect><rect x="72" y="196.507" width="6" height="3.49345" stroke="black" stroke-width="1" fill="blue" opacity="1" tooltip="enable"><title>(0.0134119,72)</title></rect><rect x="78" y="194.275" width="6" height="5.72538" stroke="black" stroke-width="1" fill="blue" opacity="1" tooltip="enable"><title>(0.0145295,118)</title></rect><rect x="84" y="195.682" width="6" height="4.31829" stroke="black" stroke-width="1" fill="blue" opacity="1" tooltip="enable"><title>(0.0156472,89)</title></rect><rect x="90" y="196.167" width="6" height="3.83309" stroke="black" stroke-width="1" fill="blue" opacity="1" tooltip="enable"><title>(0.0167648,79)</title></rect><rect x="96" y="195.342" width="6" height="4.65793" stroke="black" stroke-width="1" fill="blue" opacity="1" tooltip="enable"><title>(0.0178825,96)</title></rect><rect x="102" y="195.973" width="6" height="4.02717" stroke="black" stroke-width="1" fill="blue" opacity="1" tooltip="enable"><title>(0.0190001,83)</title></rect><rect x="108" y="194.614" width="6" height="5.38574" stroke="black" stroke-width="1" fill="blue" opacity="1" tooltip="enable"><title>(0.0201178,111)</title></rect><rect x="114" y="196.118" width="6" height="3.88161" stroke="black" stroke-width="1" fill="blue" opacity="1" tooltip="enable"><title>(0.0212354,80)</title></rect><rect x="120" y="194.517" width="6" height="5.48278" stroke="black" stroke-width="1" fill="blue" opacity="1" tooltip="enable"><title>(0.0223531,113)</title></rect><rect x="126" y="196.41" width="6" height="3.59049" stroke="black" stroke-width="1" fill="blue" opacity="1" tooltip="enable"><title>(0.0234708,74)</title></rect><rect x="132" y="196.458" width="6" height="3.54197" stroke="black" stroke-width="1" fill="blue" opacity="1" tooltip="enable"><title>(0.0245884,73)</title></rect><rect x="138" y="196.604" width="6" height="3.39641" stroke="black" stroke-width="1" fill="blue" opacity="1" tooltip="enable"><title>(0.0257061,70)</title></rect><rect x="144" y="195.051" width="6" height="4.94905" stroke="black" stroke-width="1" fill="blue" opacity="1" tooltip="enable"><title>(0.0268237,102)</title></rect><rect x="150" y="196.264" width="6" height="3.73605" stroke="black" stroke-width="1" fill="blue" opacity="1" tooltip="enable"><title>(0.0279414,77)</title></rect><rect x="156" y="195.391" width="6" height="4.60941" stroke="black" stroke-width="1" fill="blue" opacity="1" tooltip="enable"><title>(0.029059,95)</title></rect><rect x="162" y="195.536" width="6" height="4.46385" stroke="black" stroke-width="1" fill="blue" opacity="1" tooltip="enable"><title>(0.0301767,92)</title></rect><rect x="168" y="196.458" width="6" height="3.54197" stroke="black" stroke-width="1" fill="blue" opacity="1" tooltip="enable"><title>(0.0312943,73)</title></rect><rect x="174" y="195.973" width="6" height="4.02717" stroke="black" stroke-width="1" fill="blue" opacity="1" tooltip="enable"><title>(0.032412,83)</title></rect><rect x="180" y="196.264" width="6" height="3.73605" stroke="black" stroke-width="1" fill="blue" opacity="1" tooltip="enable"><title>(0.0335297,77)</title></rect><rect x="186" y="196.652" width="6" height="3.34789" stroke="black" stroke-width="1" fill="blue" opacity="1" tooltip="enable"><title>(0.0346473,69)</title></rect><rect x="192" y="198.156" width="6" height="1.84377" stroke="black" stroke-width="1" fill="blue" opacity="1" tooltip="enable"><title>(0.035765,38)</title></rect><rect x="198" y="198.108" width="6" height="1.89229" stroke="black" stroke-width="1" fill="blue" opacity="1" tooltip="enable"><title>(0.0368826,39)</title></rect><rect x="204" y="197.865" width="6" height="2.13489" stroke="black" stroke-width="1" fill="blue" opacity="1" tooltip="enable"><title>(0.0380003,44)</title></rect><rect x="210" y="196.118" width="6" height="3.88161" stroke="black" stroke-width="1" fill="blue" opacity="1" tooltip="enable"><title>(0.0391179,80)</title></rect><rect x="216" y="197.72" width="6" height="2.28045" stroke="black" stroke-width="1" fill="blue" opacity="1" tooltip="enable"><title>(0.0402356,47)</title></rect><rect x="222" y="197.574" width="6" height="2.42601" stroke="black" stroke-width="1" fill="blue" opacity="1" tooltip="enable"><title>(0.0413532,50)</title></rect><rect x="228" y="197.574" width="6" height="2.42601" stroke="black" stroke-width="1" fill="blue" opacity="1" tooltip="enable"><title>(0.0424709,50)</title></rect><rect x="234" y="197.962" width="6" height="2.03785" stroke="black" stroke-width="1" fill="blue" opacity="1" tooltip="enable"><title>(0.0435885,42)</title></rect><rect x="240" y="197.962" width="6" height="2.03785" stroke="black" stroke-width="1" fill="blue" opacity="1" tooltip="enable"><title>(0.0447062,42)</title></rect><rect x="246" y="197.38" width="6" height="2.62009" stroke="black" stroke-width="1" fill="blue" opacity="1" tooltip="enable"><title>(0.0458239,54)</title></rect><rect x="252" y="198.35" width="6" height="1.64968" stroke="black" stroke-width="1" fill="blue" opacity="1" tooltip="enable"><title>(0.0469415,34)</title></rect><rect x="258" y="198.738" width="6" height="1.26152" stroke="black" stroke-width="1" fill="blue" opacity="1" tooltip="enable"><title>(0.0480592,26)</title></rect><rect x="264" y="199.369" width="6" height="0.630762" stroke="black" stroke-width="1" fill="blue" opacity="1" tooltip="enable"><title>(0.0491768,13)</title></rect><rect x="270" y="198.981" width="6" height="1.01892" stroke="black" stroke-width="1" fill="blue" opacity="1" tooltip="enable"><title>(0.0502945,21)</title></rect><rect x="276" y="199.321" width="6" height="0.679282" stroke="black" stroke-width="1" fill="blue" opacity="1" tooltip="enable"><title>(0.0514121,14)</title></rect><rect x="282" y="199.127" width="6" height="0.873362" stroke="black" stroke-width="1" fill="blue" opacity="1" tooltip="enable"><title>(0.0525298,18)</title></rect><rect x="288" y="199.224" width="6" height="0.776322" stroke="black" stroke-width="1" fill="blue" opacity="1" tooltip="enable"><title>(0.0536474,16)</title></rect><rect x="294" y="200" width="6" height="0" stroke="black" stroke-width="1" fill="blue" opacity="1" tooltip="enable"><title>(0.0547651,0)</title></rect><rect x="300" y="199.903" width="6" height="0.0970403" stroke="black" stroke-width="1" fill="blue" opacity="1" tooltip="enable"><title>(0.0558828,2)</title></rect><rect x="306" y="199.612" width="6" height="0.388161" stroke="black" stroke-width="1" fill="blue" opacity="1" tooltip="enable"><title>(0.0570004,8)</title></rect><rect x="312" y="199.903" width="6" height="0.0970403" stroke="black" stroke-width="1" fill="blue" opacity="1" tooltip="enable"><title>(0.0581181,2)</title></rect><rect x="318" y="199.612" width="6" height="0.388161" stroke="black" stroke-width="1" fill="blue" opacity="1" tooltip="enable"><title>(0.0592357,8)</title></rect><rect x="324" y="199.806" width="6" height="0.194081" stroke="black" stroke-width="1" fill="blue" opacity="1" tooltip="enable"><title>(0.0603534,4)</title></rect><rect x="330" y="199.612" width="6" height="0.388161" stroke="black" stroke-width="1" fill="blue" opacity="1" tooltip="enable"><title>(0.061471,8)</title></rect><rect x="336" y="200" width="6" height="0" stroke="black" stroke-width="1" fill="blue" opacity="1" tooltip="enable"><title>(0.0625887,0)</title></rect><rect x="342" y="199.903" width="6" height="0.0970403" stroke="black" stroke-width="1" fill="blue" opacity="1" tooltip="enable"><title>(0.0637063,2)</title></rect><rect x="348" y="200" width="6" height="0" stroke="black" stroke-width="1" fill="blue" opacity="1" tooltip="enable"><title>(0.064824,0)</title></rect><rect x="354" y="199.806" width="6" height="0.194081" stroke="black" stroke-width="1" fill="blue" opacity="1" tooltip="enable"><title>(0.0659416,4)</title></rect><rect x="360" y="199.806" width="6" height="0.194081" stroke="black" stroke-width="1" fill="blue" opacity="1" tooltip="enable"><title>(0.0670593,4)</title></rect><rect x="366" y="200" width="6" height="0" stroke="black" stroke-width="1" fill="blue" opacity="1" tooltip="enable"><title>(0.068177,0)</title></rect><rect x="372" y="200" width="6" height="0" stroke="black" stroke-width="1" fill="blue" opacity="1" tooltip="enable"><title>(0.0692946,0)</title></rect><rect x="378" y="200" width="6" height="0" stroke="black" stroke-width="1" fill="blue" opacity="1" tooltip="enable"><title>(0.0704123,0)</title></rect><rect x="384" y="199.903" width="6" height="0.0970403" stroke="black" stroke-width="1" fill="blue" opacity="1" tooltip="enable"><title>(0.0715299,2)</title></rect><rect x="390" y="200" width="6" height="0" stroke="black" stroke-width="1" fill="blue" opacity="1" tooltip="enable"><title>(0.0726476,0)</title></rect><rect x="396" y="199.903" width="6" height="0.0970403" stroke="black" stroke-width="1" fill="blue" opacity="1" tooltip="enable"><title>(0.0737652,2)</title></rect><rect x="402" y="199.903" width="6" height="0.0970403" stroke="black" stroke-width="1" fill="blue" opacity="1" tooltip="enable"><title>(0.0748829,2)</title></rect><rect x="408" y="199.903" width="6" height="0.0970403" stroke="black" stroke-width="1" fill="blue" opacity="1" tooltip="enable"><title>(0.0760005,2)</title></rect><rect x="414" y="199.806" width="6" height="0.194081" stroke="black" stroke-width="1" fill="blue" opacity="1" tooltip="enable"><title>(0.0771182,4)</title></rect><rect x="420" y="200" width="6" height="0" stroke="black" stroke-width="1" fill="blue" opacity="1" tooltip="enable"><title>(0.0782359,0)</title></rect><rect x="426" y="199.903" width="6" height="0.0970403" stroke="black" stroke-width="1" fill="blue" opacity="1" tooltip="enable"><title>(0.0793535,2)</title></rect><rect x="432" y="199.806" width="6" height="0.194081" stroke="black" stroke-width="1" fill="blue" opacity="1" tooltip="enable"><title>(0.0804712,4)</title></rect><rect x="438" y="199.903" width="6" height="0.0970403" stroke="black" stroke-width="1" fill="blue" opacity="1" tooltip="enable"><title>(0.0815888,2)</title></rect><rect x="444" y="199.757" width="6" height="0.242601" stroke="black" stroke-width="1" fill="blue" opacity="1" tooltip="enable"><title>(0.0827065,5)</title></rect><rect x="450" y="199.951" width="6" height="0.0485201" stroke="black" stroke-width="1" fill="blue" opacity="1" tooltip="enable"><title>(0.0838241,1)</title></rect><rect x="456" y="200" width="6" height="0" stroke="black" stroke-width="1" fill="blue" opacity="1" tooltip="enable"><title>(0.0849418,0)</title></rect><rect x="462" y="199.903" width="6" height="0.0970403" stroke="black" stroke-width="1" fill="blue" opacity="1" tooltip="enable"><title>(0.0860594,2)</title></rect><rect x="468" y="200" width="6" height="0" stroke="black" stroke-width="1" fill="blue" opacity="1" tooltip="enable"><title>(0.0871771,0)</title></rect><rect x="474" y="200" width="6" height="0" stroke="black" stroke-width="1" fill="blue" opacity="1" tooltip="enable"><title>(0.0882948,0)</title></rect><rect x="480" y="199.903" width="6" height="0.0970403" stroke="black" stroke-width="1" fill="blue" opacity="1" tooltip="enable"><title>(0.0894124,2)</title></rect><rect x="486" y="200" width="6" height="0" stroke="black" stroke-width="1" fill="blue" opacity="1" tooltip="enable"><title>(0.0905301,0)</title></rect><rect x="492" y="200" width="6" height="0" stroke="black" stroke-width="1" fill="blue" opacity="1" tooltip="enable"><title>(0.0916477,0)</title></rect><rect x="498" y="200" width="6" height="0" stroke="black" stroke-width="1" fill="blue" opacity="1" tooltip="enable"><title>(0.0927654,0)</title></rect><rect x="504" y="199.903" width="6" height="0.0970403" stroke="black" stroke-width="1" fill="blue" opacity="1" tooltip="enable"><title>(0.093883,2)</title></rect><rect x="510" y="199.903" width="6" height="0.0970403" stroke="black" stroke-width="1" fill="blue" opacity="1" tooltip="enable"><title>(0.0950007,2)</title></rect><rect x="516" y="199.903" width="6" height="0.0970403" stroke="black" stroke-width="1" fill="blue" opacity="1" tooltip="enable"><title>(0.0961183,2)</title></rect><rect x="522" y="200" width="6" height="0" stroke="black" stroke-width="1" fill="blue" opacity="1" tooltip="enable"><title>(0.097236,0)</title></rect><rect x="528" y="199.903" width="6" height="0.0970403" stroke="black" stroke-width="1" fill="blue" opacity="1" tooltip="enable"><title>(0.0983536,2)</title></rect><rect x="534" y="200" width="6" height="0" stroke="black" stroke-width="1" fill="blue" opacity="1" tooltip="enable"><title>(0.0994713,0)</title></rect><rect x="540" y="200" width="6" height="0" stroke="black" stroke-width="1" fill="blue" opacity="1" tooltip="enable"><title>(0.100589,0)</title></rect><rect x="546" y="200" width="6" height="0" stroke="black" stroke-width="1" fill="blue" opacity="1" tooltip="enable"><title>(0.101707,0)</title></rect><rect x="552" y="200" width="6" height="0" stroke="black" stroke-width="1" fill="blue" opacity="1" tooltip="enable"><title>(0.102824,0)</title></rect><rect x="558" y="200" width="6" height="0" stroke="black" stroke-width="1" fill="blue" opacity="1" tooltip="enable"><title>(0.103942,0)</title></rect><rect x="564" y="199.903" width="6" height="0.0970403" stroke="black" stroke-width="1" fill="blue" opacity="1" tooltip="enable"><title>(0.10506,2)</title></rect><rect x="570" y="200" width="6" height="0" stroke="black" stroke-width="1" fill="blue" opacity="1" tooltip="enable"><title>(0.106177,0)</title></rect><rect x="576" y="199.903" width="6" height="0.0970403" stroke="black" stroke-width="1" fill="blue" opacity="1" tooltip="enable"><title>(0.107295,2)</title></rect><rect x="582" y="200" width="6" height="0" stroke="black" stroke-width="1" fill="blue" opacity="1" tooltip="enable"><title>(0.108413,0)</title></rect><rect x="588" y="200" width="6" height="0" stroke="black" stroke-width="1" fill="blue" opacity="1" tooltip="enable"><title>(0.10953,0)</title></rect><rect x="594" y="199.951" width="6" height="0.0485201" stroke="black" stroke-width="1" fill="blue" opacity="1" tooltip="enable"><title>(0.110648,1)</title></rect><text x="30" y="240" font-size="20" fill="black">0</text>
<text x="600" y="240" font-size="20" fill="black">0.111766</text>
<polyline points="0,220,600,220" stroke="black" stroke-width="1" fill="none" opacity="1"/>
<text x="720" y="20" font-size="20" fill="black">4122</text>
<text x="720" y="200" font-size="20" fill="black">0</text>
<polyline points="660,0,660,200" stroke="black" stroke-width="1" fill="none" opacity="1"/>
</svg>