<?xml version="1.0" standalone="yes"?>
<!-- SVG graphic -->
<svg xmlns='http://www.w3.org/2000/svg' xmlns:xlink='http://www.w3.org/1999/xlink'
 version="1.1">
<rect x="0" y="1.52588e-05" width="6" height="200" stroke="black" stroke-width="1" fill="blue" opacity="1" tooltip="enable"><title>(0,1402)</title></rect><rect x="6" y="31.0984" width="6" height="168.902" stroke="black" stroke-width="1" fill="blue" opacity="1" tooltip="enable"><title>(0.000827379,1184)</title></rect><rect x="12" y="91.5835" width="6" height="108.417" stroke="black" stroke-width="1" fill="blue" opacity="1" tooltip="enable"><title>(0.00165476,760)</title></rect><rect x="18" y="125.392" width="6" height="74.6077" stroke="black" stroke-width="1" fill="blue" opacity="1" tooltip="enable"><title>(0.00248214,523)</title></rect><rect x="24" y="137.375" width="6" height="62.6248" stroke="black" stroke-width="1" fill="blue" opacity="1" tooltip="enable"><title>(0.00330951,439)</title></rect><rect x="30" y="150.927" width="6" height="49.0728" stroke="black" stroke-width="1" fill="blue" opacity="1" tooltip="enable"><title>(0.00413689,344)</title></rect><rect x="36" y="165.193" width="6" height="34.8074" stroke="black" stroke-width="1" fill="blue" opacity="1" tooltip="enable"><title>(0.00496427,244)</title></rect><rect x="42" y="179.315" width="6" height="20.6847" stroke="black" stroke-width="1" fill="blue" opacity="1" tooltip="enable"><title>(0.00579165,145)</title></rect><rect x="48" y="183.31" width="6" height="16.6904" stroke="black" stroke-width="1" fill="blue" opacity="1" tooltip="enable"><title>(0.00661903,117)</title></rect><rect x="54" y="180.029" width="6" height="19.9715" stroke="black" stroke-width="1" fill="blue" opacity="1" tooltip="enable"><title>(0.00744641,140)</title></rect><rect x="60" y="184.593" width="6" height="15.4066" stroke="black" stroke-width="1" fill="blue" opacity="1" tooltip="enable"><title>(0.00827379,108)</title></rect><rect x="66" y="182.026" width="6" height="17.9743" stroke="black" stroke-width="1" fill="blue" opacity="1" tooltip="enable"><title>(0.00910116,126)</title></rect><rect x="72" y="181.312" width="6" height="18.6876" stroke="black" stroke-width="1" fill="blue" opacity="1" tooltip="enable"><title>(0.00992854,131)</title></rect><rect x="78" y="183.452" width="6" height="16.5478" stroke="black" stroke-width="1" fill="blue" opacity="1" tooltip="enable"><title>(0.0107559,116)</title></rect><rect x="84" y="188.73" width="6" height="11.2696" stroke="black" stroke-width="1" fill="blue" opacity="1" tooltip="enable"><title>(0.0115833,79)</title></rect><rect x="90" y="185.164" width="6" height="14.8359" stroke="black" stroke-width="1" fill="blue" opacity="1" tooltip="enable"><title>(0.0124107,104)</title></rect><rect x="96" y="185.307" width="6" height="14.6933" stroke="black" stroke-width="1" fill="blue" opacity="1" tooltip="enable"><title>(0.0132381,103)</title></rect><rect x="102" y="186.305" width="6" height="13.6947" stroke="black" stroke-width="1" fill="blue" opacity="1" tooltip="enable"><title>(0.0140654,96)</title></rect><rect x="108" y="187.447" width="6" height="12.5535" stroke="black" stroke-width="1" fill="blue" opacity="1" tooltip="enable"><title>(0.0148928,88)</title></rect><rect x="114" y="188.445" width="6" height="11.5549" stroke="black" stroke-width="1" fill="blue" opacity="1" tooltip="enable"><title>(0.0157202,81)</title></rect><rect x="120" y="185.164" width="6" height="14.8359" stroke="black" stroke-width="1" fill="blue" opacity="1" tooltip="enable"><title>(0.0165476,104)</title></rect><rect x="126" y="191.298" width="6" height="8.70185" stroke="black" stroke-width="1" fill="blue" opacity="1" tooltip="enable"><title>(0.017375,61)</title></rect><rect x="132" y="191.013" width="6" height="8.98716" stroke="black" stroke-width="1" fill="blue" opacity="1" tooltip="enable"><title>(0.0182023,63)</title></rect><rect x="138" y="190.87" width="6" height="9.12981" stroke="black" stroke-width="1" fill="blue" opacity="1" tooltip="enable"><title>(0.0190297,64)</title></rect><rect x="144" y="191.155" width="6" height="8.84451" stroke="black" stroke-width="1" fill="blue" opacity="1" tooltip="enable"><title>(0.0198571,62)</title></rect><rect x="150" y="194.579" width="6" height="5.42083" stroke="black" stroke-width="1" fill="blue" opacity="1" tooltip="enable"><title>(0.0206845,38)</title></rect><rect x="156" y="193.153" width="6" height="6.84736" stroke="black" stroke-width="1" fill="blue" opacity="1" tooltip="enable"><title>(0.0215118,48)</title></rect><rect x="162" y="193.153" width="6" height="6.84736" stroke="black" stroke-width="1" fill="blue" opacity="1" tooltip="enable"><title>(0.0223392,48)</title></rect><rect x="168" y="193.295" width="6" height="6.70471" stroke="black" stroke-width="1" fill="blue" opacity="1" tooltip="enable"><title>(0.0231666,47)</title></rect><rect x="174" y="193.295" width="6" height="6.70471" stroke="black" stroke-width="1" fill="blue" opacity="1" tooltip="enable"><title>(0.023994,47)</title></rect><rect x="180" y="192.582" width="6" height="7.41797" stroke="black" stroke-width="1" fill="blue" opacity="1" tooltip="enable"><title>(0.0248214,52)</title></rect><rect x="186" y="194.009" width="6" height="5.99144" stroke="black" stroke-width="1" fill="blue" opacity="1" tooltip="enable"><title>(0.0256487,42)</title></rect><rect x="192" y="195.578" width="6" height="4.42225" stroke="black" stroke-width="1" fill="blue" opacity="1" tooltip="enable"><title>(0.0264761,31)</title></rect><rect x="198" y="193.581" width="6" height="6.4194" stroke="black" stroke-width="1" fill="blue" opacity="1" tooltip="enable"><title>(0.0273035,45)</title></rect><rect x="204" y="192.867" width="6" height="7.13267" stroke="black" stroke-width="1" fill="blue" opacity="1" tooltip="enable"><title>(0.0281309,50)</title></rect><rect x="210" y="197.147" width="6" height="2.85307" stroke="black" stroke-width="1" fill="blue" opacity="1" tooltip="enable"><title>(0.0289583,20)</title></rect><rect x="216" y="195.292" width="6" height="4.70756" stroke="black" stroke-width="1" fill="blue" opacity="1" tooltip="enable"><title>(0.0297856,33)</title></rect><rect x="222" y="197.004" width="6" height="2.99572" stroke="black" stroke-width="1" fill="blue" opacity="1" tooltip="enable"><title>(0.030613,21)</title></rect><rect x="228" y="195.72" width="6" height="4.2796" stroke="black" stroke-width="1" fill="blue" opacity="1" tooltip="enable"><title>(0.0314404,30)</title></rect><rect x="234" y="196.576" width="6" height="3.42368" stroke="black" stroke-width="1" fill="blue" opacity="1" tooltip="enable"><title>(0.0322678,24)</title></rect><rect x="240" y="196.862" width="6" height="3.13837" stroke="black" stroke-width="1" fill="blue" opacity="1" tooltip="enable"><title>(0.0330951,22)</title></rect><rect x="246" y="196.719" width="6" height="3.28103" stroke="black" stroke-width="1" fill="blue" opacity="1" tooltip="enable"><title>(0.0339225,23)</title></rect><rect x="252" y="195.578" width="6" height="4.42225" stroke="black" stroke-width="1" fill="blue" opacity="1" tooltip="enable"><title>(0.0347499,31)</title></rect><rect x="258" y="195.15" width="6" height="4.85021" stroke="black" stroke-width="1" fill="blue" opacity="1" tooltip="enable"><title>(0.0355773,34)</title></rect><rect x="264" y="194.437" width="6" height="5.56348" stroke="black" stroke-width="1" fill="blue" opacity="1" tooltip="enable"><title>(0.0364047,39)</title></rect><rect x="270" y="194.579" width="6" height="5.42083" stroke="black" stroke-width="1" fill="blue" opacity="1" tooltip="enable"><title>(0.037232,38)</title></rect><rect x="276" y="195.578" width="6" height="4.42225" stroke="black" stroke-width="1" fill="blue" opacity="1" tooltip="enable"><title>(0.0380594,31)</title></rect><rect x="282" y="196.576" width="6" height="3.42368" stroke="black" stroke-width="1" fill="blue" opacity="1" tooltip="enable"><title>(0.0388868,24)</title></rect><rect x="288" y="194.151" width="6" height="5.84879" stroke="black" stroke-width="1" fill="blue" opacity="1" tooltip="enable"><title>(0.0397142,41)</title></rect><rect x="294" y="196.434" width="6" height="3.56633" stroke="black" stroke-width="1" fill="blue" opacity="1" tooltip="enable"><title>(0.0405416,25)</title></rect><rect x="300" y="198.146" width="6" height="1.85449" stroke="black" stroke-width="1" fill="blue" opacity="1" tooltip="enable"><title>(0.0413689,13)</title></rect><rect x="306" y="195.578" width="6" height="4.42225" stroke="black" stroke-width="1" fill="blue" opacity="1" tooltip="enable"><title>(0.0421963,31)</title></rect><rect x="312" y="195.435" width="6" height="4.56491" stroke="black" stroke-width="1" fill="blue" opacity="1" tooltip="enable"><title>(0.0430237,32)</title></rect><rect x="318" y="196.291" width="6" height="3.70899" stroke="black" stroke-width="1" fill="blue" opacity="1" tooltip="enable"><title>(0.0438511,26)</title></rect><rect x="324" y="198.573" width="6" height="1.42653" stroke="black" stroke-width="1" fill="blue" opacity="1" tooltip="enable"><title>(0.0446784,10)</title></rect><rect x="330" y="196.434" width="6" height="3.56633" stroke="black" stroke-width="1" fill="blue" opacity="1" tooltip="enable"><title>(0.0455058,25)</title></rect><rect x="336" y="197.432" width="6" height="2.56776" stroke="black" stroke-width="1" fill="blue" opacity="1" tooltip="enable"><title>(0.0463332,18)</title></rect><rect x="342" y="196.006" width="6" height="3.99429" stroke="black" stroke-width="1" fill="blue" opacity="1" tooltip="enable"><title>(0.0471606,28)</title></rect><rect x="348" y="197.147" width="6" height="2.85307" stroke="black" stroke-width="1" fill="blue" opacity="1" tooltip="enable"><title>(0.047988,20)</title></rect><rect x="354" y="198.431" width="6" height="1.56919" stroke="black" stroke-width="1" fill="blue" opacity="1" tooltip="enable"><title>(0.0488153,11)</title></rect><rect x="360" y="197.147" width="6" height="2.85307" stroke="black" stroke-width="1" fill="blue" opacity="1" tooltip="enable"><title>(0.0496427,20)</title></rect><rect x="366" y="199.001" width="6" height="0.998573" stroke="black" stroke-width="1" fill="blue" opacity="1" tooltip="enable"><title>(0.0504701,7)</title></rect><rect x="372" y="196.434" width="6" height="3.56633" stroke="black" stroke-width="1" fill="blue" opacity="1" tooltip="enable"><title>(0.0512975,25)</title></rect><rect x="378" y="197.575" width="6" height="2.42511" stroke="black" stroke-width="1" fill="blue" opacity="1" tooltip="enable"><title>(0.0521249,17)</title></rect><rect x="384" y="198.288" width="6" height="1.71184" stroke="black" stroke-width="1" fill="blue" opacity="1" tooltip="enable"><title>(0.0529522,12)</title></rect><rect x="390" y="198.146" width="6" height="1.85449" stroke="black" stroke-width="1" fill="blue" opacity="1" tooltip="enable"><title>(0.0537796,13)</title></rect><rect x="396" y="198.288" width="6" height="1.71184" stroke="black" stroke-width="1" fill="blue" opacity="1" tooltip="enable"><title>(0.054607,12)</title></rect><rect x="402" y="197.575" width="6" height="2.42511" stroke="black" stroke-width="1" fill="blue" opacity="1" tooltip="enable"><title>(0.0554344,17)</title></rect><rect x="408" y="198.716" width="6" height="1.28388" stroke="black" stroke-width="1" fill="blue" opacity="1" tooltip="enable"><title>(0.0562617,9)</title></rect><rect x="414" y="197.86" width="6" height="2.1398" stroke="black" stroke-width="1" fill="blue" opacity="1" tooltip="enable"><title>(0.0570891,15)</title></rect><rect x="420" y="199.144" width="6" height="0.85592" stroke="black" stroke-width="1" fill="blue" opacity="1" tooltip="enable"><title>(0.0579165,6)</title></rect><rect x="426" y="199.001" width="6" height="0.998573" stroke="black" stroke-width="1" fill="blue" opacity="1" tooltip="enable"><title>(0.0587439,7)</title></rect><rect x="432" y="199.715" width="6" height="0.285307" stroke="black" stroke-width="1" fill="blue" opacity="1" tooltip="enable"><title>(0.0595713,2)</title></rect><rect x="438" y="197.718" width="6" height="2.28245" stroke="black" stroke-width="1" fill="blue" opacity="1" tooltip="enable"><title>(0.0603986,16)</title></rect><rect x="444" y="199.715" width="6" height="0.285307" stroke="black" stroke-width="1" fill="blue" opacity="1" tooltip="enable"><title>(0.061226,2)</title></rect><rect x="450" y="200" width="6" height="0" stroke="black" stroke-width="1" fill="blue" opacity="1" tooltip="enable"><title>(0.0620534,0)</title></rect><rect x="456" y="199.144" width="6" height="0.85592" stroke="black" stroke-width="1" fill="blue" opacity="1" tooltip="enable"><title>(0.0628808,6)</title></rect><rect x="462" y="199.144" width="6" height="0.85592" stroke="black" stroke-width="1" fill="blue" opacity="1" tooltip="enable"><title>(0.0637082,6)</title></rect><rect x="468" y="199.429" width="6" height="0.570613" stroke="black" stroke-width="1" fill="blue" opacity="1" tooltip="enable"><title>(0.0645355,4)</title></rect><rect x="474" y="200" width="6" height="0" stroke="black" stroke-width="1" fill="blue" opacity="1" tooltip="enable"><title>(0.0653629,0)</title></rect><rect x="480" y="199.429" width="6" height="0.570613" stroke="black" stroke-width="1" fill="blue" opacity="1" tooltip="enable"><title>(0.0661903,4)</title></rect><rect x="486" y="199.857" width="6" height="0.142653" stroke="black" stroke-width="1" fill="blue" opacity="1" tooltip="enable"><title>(0.0670177,1)</title></rect><rect x="492" y="199.857" width="6" height="0.142653" stroke="black" stroke-width="1" fill="blue" opacity="1" tooltip="enable"><title>(0.067845,1)</title></rect><rect x="498" y="199.715" width="6" height="0.285307" stroke="black" stroke-width="1" fill="blue" opacity="1" tooltip="enable"><title>(0.0686724,2)</title></rect><rect x="504" y="199.715" width="6" height="0.285307" stroke="black" stroke-width="1" fill="blue" opacity="1" tooltip="enable"><title>(0.0694998,2)</title></rect><rect x="510" y="200" width="6" height="0" stroke="black" stroke-width="1" fill="blue" opacity="1" tooltip="enable"><title>(0.0703272,0)</title></rect><rect x="516" y="199.857" width="6" height="0.142653" stroke="black" stroke-width="1" fill="blue" opacity="1" tooltip="enable"><title>(0.0711546,1)</title></rect><rect x="522" y="199.572" width="6" height="0.42796" stroke="black" stroke-width="1" fill="blue" opacity="1" tooltip="enable"><title>(0.0719819,3)</title></rect><rect x="528" y="199.715" width="6" height="0.285307" stroke="black" stroke-width="1" fill="blue" opacity="1" tooltip="enable"><title>(0.0728093,2)</title></rect><rect x="534" y="200" width="6" height="0" stroke="black" stroke-width="1" fill="blue" opacity="1" tooltip="enable"><title>(0.0736367,0)</title></rect><rect x="540" y="200" width="6" height="0" stroke="black" stroke-width="1" fill="blue" opacity="1" tooltip="enable"><title>(0.0744641,0)</title></rect><rect x="546" y="200" width="6" height="0" stroke="black" stroke-width="1" fill="blue" opacity="1" tooltip="enable"><title>(0.0752915,0)</title></rect><rect x="552" y="200" width="6" height="0" stroke="black" stroke-width="1" fill="blue" opacity="1" tooltip="enable"><title>(0.0761188,0)</title></rect><rect x="558" y="200" width="6" height="0" stroke="black" stroke-width="1" fill="blue" opacity="1" tooltip="enable"><title>(0.0769462,0)</title></rect><rect x="564" y="200" width="6" height="0" stroke="black" stroke-width="1" fill="blue" opacity="1" tooltip="enable"><title>(0.0777736,0)</title></rect><rect x="570" y="199.715" width="6" height="0.285307" stroke="black" stroke-width="1" fill="blue" opacity="1" tooltip="enable"><title>(0.078601,2)</title></rect><rect x="576" y="199.715" width="6" height="0.285307" stroke="black" stroke-width="1" fill="blue" opacity="1" tooltip="enable"><title>(0.0794283,2)</title></rect><rect x="582" y="200" width="6" height="0" stroke="black" stroke-width="1" fill="blue" opacity="1" tooltip="enable"><title>(0.0802557,0)</title></rect><rect x="588" y="200" width="6" height="0" stroke="black" stroke-width="1" fill="blue" opacity="1" tooltip="enable"><title>(0.0810831,0)</title></rect><rect x="594" y="199.857" width="6" height="0.142653" stroke="black" stroke-width="1" fill="blue" opacity="1" tooltip="enable"><title>(0.0819105,1)</title></rect><text x="30" y="240" font-size="20" fill="black">0</text>
<text x="600" y="240" font-size="20" fill="black">0.0827379</text>
<polyline points="0,220,600,220" stroke="black" stroke-width="1" fill="none" opacity="1"/>
<text x="720" y="20" font-size="20" fill="black">1402</text>
<text x="720" y="200" font-size="20" fill="black">0</text>
<polyline points="660,0,660,200" stroke="black" stroke-width="1" fill="none" opacity="1"/>
</svg>