<?xml version="1.0" standalone="yes"?>
<!-- SVG graphic -->
<svg xmlns='http://www.w3.org/2000/svg' xmlns:xlink='http://www.w3.org/1999/xlink'
 version="1.1">
<rect x="0" y="-1.52588e-05" width="6" height="200" stroke="black" stroke-width="1" fill="blue" opacity="1" tooltip="enable"><title>(0,2773)</title></rect><rect x="6" y="110.783" width="6" height="89.2175" stroke="black" stroke-width="1" fill="blue" opacity="1" tooltip="enable"><title>(0.00159066,1237)</title></rect><rect x="12" y="151.461" width="6" height="48.5395" stroke="black" stroke-width="1" fill="blue" opacity="1" tooltip="enable"><title>(0.00318131,673)</title></rect><rect x="18" y="175.911" width="6" height="24.0894" stroke="black" stroke-width="1" fill="blue" opacity="1" tooltip="enable"><title>(0.00477197,334)</title></rect><rect x="24" y="183.411" width="6" height="16.5885" stroke="black" stroke-width="1" fill="blue" opacity="1" tooltip="enable"><title>(0.00636263,230)</title></rect><rect x="30" y="183.772" width="6" height="16.2279" stroke="black" stroke-width="1" fill="blue" opacity="1" tooltip="enable"><title>(0.00795328,225)</title></rect><rect x="36" y="184.854" width="6" height="15.1461" stroke="black" stroke-width="1" fill="blue" opacity="1" tooltip="enable"><title>(0.00954394,210)</title></rect><rect x="42" y="185.719" width="6" height="14.2806" stroke="black" stroke-width="1" fill="blue" opacity="1" tooltip="enable"><title>(0.0111346,198)</title></rect><rect x="48" y="186.296" width="6" height="13.7036" stroke="black" stroke-width="1" fill="blue" opacity="1" tooltip="enable"><title>(0.0127253,190)</title></rect><rect x="54" y="189.758" width="6" height="10.2416" stroke="black" stroke-width="1" fill="blue" opacity="1" tooltip="enable"><title>(0.0143159,142)</title></rect><rect x="60" y="187.378" width="6" height="12.6217" stroke="black" stroke-width="1" fill="blue" opacity="1" tooltip="enable"><title>(0.0159066,175)</title></rect><rect x="66" y="191.706" width="6" height="8.29427" stroke="black" stroke-width="1" fill="blue" opacity="1" tooltip="enable"><title>(0.0174972,115)</title></rect><rect x="72" y="191.345" width="6" height="8.65489" stroke="black" stroke-width="1" fill="blue" opacity="1" tooltip="enable"><title>(0.0190879,120)</title></rect><rect x="78" y="192.066" width="6" height="7.93365" stroke="black" stroke-width="1" fill="blue" opacity="1" tooltip="enable"><title>(0.0206785,110)</title></rect><rect x="84" y="195.384" width="6" height="4.61594" stroke="black" stroke-width="1" fill="blue" opacity="1" tooltip="enable"><title>(0.0222692,64)</title></rect><rect x="90" y="194.374" width="6" height="5.62568" stroke="black" stroke-width="1" fill="blue" opacity="1" tooltip="enable"><title>(0.0238599,78)</title></rect><rect x="96" y="194.086" width="6" height="5.91417" stroke="black" stroke-width="1" fill="blue" opacity="1" tooltip="enable"><title>(0.0254505,82)</title></rect><rect x="102" y="193.076" width="6" height="6.92391" stroke="black" stroke-width="1" fill="blue" opacity="1" tooltip="enable"><title>(0.0270412,96)</title></rect><rect x="108" y="194.735" width="6" height="5.26506" stroke="black" stroke-width="1" fill="blue" opacity="1" tooltip="enable"><title>(0.0286318,73)</title></rect><rect x="114" y="194.446" width="6" height="5.55355" stroke="black" stroke-width="1" fill="blue" opacity="1" tooltip="enable"><title>(0.0302225,77)</title></rect><rect x="120" y="195.961" width="6" height="4.03895" stroke="black" stroke-width="1" fill="blue" opacity="1" tooltip="enable"><title>(0.0318131,56)</title></rect><rect x="126" y="195.312" width="6" height="4.68806" stroke="black" stroke-width="1" fill="blue" opacity="1" tooltip="enable"><title>(0.0334038,65)</title></rect><rect x="132" y="194.951" width="6" height="5.04868" stroke="black" stroke-width="1" fill="blue" opacity="1" tooltip="enable"><title>(0.0349944,70)</title></rect><rect x="138" y="194.879" width="6" height="5.12081" stroke="black" stroke-width="1" fill="blue" opacity="1" tooltip="enable"><title>(0.0365851,71)</title></rect><rect x="144" y="195.961" width="6" height="4.03895" stroke="black" stroke-width="1" fill="blue" opacity="1" tooltip="enable"><title>(0.0381758,56)</title></rect><rect x="150" y="196.394" width="6" height="3.6062" stroke="black" stroke-width="1" fill="blue" opacity="1" tooltip="enable"><title>(0.0397664,50)</title></rect><rect x="156" y="195.673" width="6" height="4.32744" stroke="black" stroke-width="1" fill="blue" opacity="1" tooltip="enable"><title>(0.0413571,60)</title></rect><rect x="162" y="195.745" width="6" height="4.25532" stroke="black" stroke-width="1" fill="blue" opacity="1" tooltip="enable"><title>(0.0429477,59)</title></rect><rect x="168" y="197.187" width="6" height="2.81284" stroke="black" stroke-width="1" fill="blue" opacity="1" tooltip="enable"><title>(0.0445384,39)</title></rect><rect x="174" y="197.981" width="6" height="2.01947" stroke="black" stroke-width="1" fill="blue" opacity="1" tooltip="enable"><title>(0.046129,28)</title></rect><rect x="180" y="196.466" width="6" height="3.53408" stroke="black" stroke-width="1" fill="blue" opacity="1" tooltip="enable"><title>(0.0477197,49)</title></rect><rect x="186" y="197.62" width="6" height="2.38009" stroke="black" stroke-width="1" fill="blue" opacity="1" tooltip="enable"><title>(0.0493104,33)</title></rect><rect x="192" y="198.558" width="6" height="1.44248" stroke="black" stroke-width="1" fill="blue" opacity="1" tooltip="enable"><title>(0.050901,20)</title></rect><rect x="198" y="198.702" width="6" height="1.29823" stroke="black" stroke-width="1" fill="blue" opacity="1" tooltip="enable"><title>(0.0524917,18)</title></rect><rect x="204" y="198.99" width="6" height="1.00974" stroke="black" stroke-width="1" fill="blue" opacity="1" tooltip="enable"><title>(0.0540823,14)</title></rect><rect x="210" y="198.99" width="6" height="1.00974" stroke="black" stroke-width="1" fill="blue" opacity="1" tooltip="enable"><title>(0.055673,14)</title></rect><rect x="216" y="198.846" width="6" height="1.15398" stroke="black" stroke-width="1" fill="blue" opacity="1" tooltip="enable"><title>(0.0572636,16)</title></rect><rect x="222" y="198.99" width="6" height="1.00974" stroke="black" stroke-width="1" fill="blue" opacity="1" tooltip="enable"><title>(0.0588543,14)</title></rect><rect x="228" y="199.712" width="6" height="0.288496" stroke="black" stroke-width="1" fill="blue" opacity="1" tooltip="enable"><title>(0.060445,4)</title></rect><rect x="234" y="199.423" width="6" height="0.576992" stroke="black" stroke-width="1" fill="blue" opacity="1" tooltip="enable"><title>(0.0620356,8)</title></rect><rect x="240" y="198.774" width="6" height="1.22611" stroke="black" stroke-width="1" fill="blue" opacity="1" tooltip="enable"><title>(0.0636263,17)</title></rect><rect x="246" y="199.062" width="6" height="0.937613" stroke="black" stroke-width="1" fill="blue" opacity="1" tooltip="enable"><title>(0.0652169,13)</title></rect><rect x="252" y="199.279" width="6" height="0.721241" stroke="black" stroke-width="1" fill="blue" opacity="1" tooltip="enable"><title>(0.0668076,10)</title></rect><rect x="258" y="199.423" width="6" height="0.576992" stroke="black" stroke-width="1" fill="blue" opacity="1" tooltip="enable"><title>(0.0683982,8)</title></rect><rect x="264" y="200" width="6" height="0" stroke="black" stroke-width="1" fill="blue" opacity="1" tooltip="enable"><title>(0.0699889,0)</title></rect><rect x="270" y="200" width="6" height="0" stroke="black" stroke-width="1" fill="blue" opacity="1" tooltip="enable"><title>(0.0715796,0)</title></rect><rect x="276" y="200" width="6" height="0" stroke="black" stroke-width="1" fill="blue" opacity="1" tooltip="enable"><title>(0.0731702,0)</title></rect><rect x="282" y="200" width="6" height="0" stroke="black" stroke-width="1" fill="blue" opacity="1" tooltip="enable"><title>(0.0747609,0)</title></rect><rect x="288" y="199.856" width="6" height="0.144248" stroke="black" stroke-width="1" fill="blue" opacity="1" tooltip="enable"><title>(0.0763515,2)</title></rect><rect x="294" y="200" width="6" height="0" stroke="black" stroke-width="1" fill="blue" opacity="1" tooltip="enable"><title>(0.0779422,0)</title></rect><rect x="300" y="200" width="6" height="0" stroke="black" stroke-width="1" fill="blue" opacity="1" tooltip="enable"><title>(0.0795328,0)</title></rect><rect x="306" y="200" width="6" height="0" stroke="black" stroke-width="1" fill="blue" opacity="1" tooltip="enable"><title>(0.0811235,0)</title></rect><rect x="312" y="200" width="6" height="0" stroke="black" stroke-width="1" fill="blue" opacity="1" tooltip="enable"><title>(0.0827141,0)</title></rect><rect x="318" y="200" width="6" height="0" stroke="black" stroke-width="1" fill="blue" opacity="1" tooltip="enable"><title>(0.0843048,0)</title></rect><rect x="324" y="200" width="6" height="0" stroke="black" stroke-width="1" fill="blue" opacity="1" tooltip="enable"><title>(0.0858955,0)</title></rect><rect x="330" y="200" width="6" height="0" stroke="black" stroke-width="1" fill="blue" opacity="1" tooltip="enable"><title>(0.0874861,0)</title></rect><rect x="336" y="200" width="6" height="0" stroke="black" stroke-width="1" fill="blue" opacity="1" tooltip="enable"><title>(0.0890768,0)</title></rect><rect x="342" y="200" width="6" height="0" stroke="black" stroke-width="1" fill="blue" opacity="1" tooltip="enable"><title>(0.0906674,0)</title></rect><rect x="348" y="200" width="6" height="0" stroke="black" stroke-width="1" fill="blue" opacity="1" tooltip="enable"><title>(0.0922581,0)</title></rect><rect x="354" y="200" width="6" height="0" stroke="black" stroke-width="1" fill="blue" opacity="1" tooltip="enable"><title>(0.0938487,0)</title></rect><rect x="360" y="200" width="6" height="0" stroke="black" stroke-width="1" fill="blue" opacity="1" tooltip="enable"><title>(0.0954394,0)</title></rect><rect x="366" y="200" width="6" height="0" stroke="black" stroke-width="1" fill="blue" opacity="1" tooltip="enable"><title>(0.0970301,0)</title></rect><rect x="372" y="200" width="6" height="0" stroke="black" stroke-width="1" fill="blue" opacity="1" tooltip="enable"><title>(0.0986207,0)</title></rect><rect x="378" y="200" width="6" height="0" stroke="black" stroke-width="1" fill="blue" opacity="1" tooltip="enable"><title>(0.100211,0)</title></rect><rect x="384" y="200" width="6" height="0" stroke="black" stroke-width="1" fill="blue" opacity="1" tooltip="enable"><title>(0.101802,0)</title></rect><rect x="390" y="200" width="6" height="0" stroke="black" stroke-width="1" fill="blue" opacity="1" tooltip="enable"><title>(0.103393,0)</title></rect><rect x="396" y="200" width="6" height="0" stroke="black" stroke-width="1" fill="blue" opacity="1" tooltip="enable"><title>(0.104983,0)</title></rect><rect x="402" y="200" width="6" height="0" stroke="black" stroke-width="1" fill="blue" opacity="1" tooltip="enable"><title>(0.106574,0)</title></rect><rect x="408" y="200" width="6" height="0" stroke="black" stroke-width="1" fill="blue" opacity="1" tooltip="enable"><title>(0.108165,0)</title></rect><rect x="414" y="200" width="6" height="0" stroke="black" stroke-width="1" fill="blue" opacity="1" tooltip="enable"><title>(0.109755,0)</title></rect><rect x="420" y="200" width="6" height="0" stroke="black" stroke-width="1" fill="blue" opacity="1" tooltip="enable"><title>(0.111346,0)</title></rect><rect x="426" y="200" width="6" height="0" stroke="black" stroke-width="1" fill="blue" opacity="1" tooltip="enable"><title>(0.112937,0)</title></rect><rect x="432" y="200" width="6" height="0" stroke="black" stroke-width="1" fill="blue" opacity="1" tooltip="enable"><title>(0.114527,0)</title></rect><rect x="438" y="200" width="6" height="0" stroke="black" stroke-width="1" fill="blue" opacity="1" tooltip="enable"><title>(0.116118,0)</title></rect><rect x="444" y="200" width="6" height="0" stroke="black" stroke-width="1" fill="blue" opacity="1" tooltip="enable"><title>(0.117709,0)</title></rect><rect x="450" y="200" width="6" height="0" stroke="black" stroke-width="1" fill="blue" opacity="1" tooltip="enable"><title>(0.119299,0)</title></rect><rect x="456" y="200" width="6" height="0" stroke="black" stroke-width="1" fill="blue" opacity="1" tooltip="enable"><title>(0.12089,0)</title></rect><rect x="462" y="200" width="6" height="0" stroke="black" stroke-width="1" fill="blue" opacity="1" tooltip="enable"><title>(0.122481,0)</title></rect><rect x="468" y="200" width="6" height="0" stroke="black" stroke-width="1" fill="blue" opacity="1" tooltip="enable"><title>(0.124071,0)</title></rect><rect x="474" y="200" width="6" height="0" stroke="black" stroke-width="1" fill="blue" opacity="1" tooltip="enable"><title>(0.125662,0)</title></rect><rect x="480" y="200" width="6" height="0" stroke="black" stroke-width="1" fill="blue" opacity="1" tooltip="enable"><title>(0.127253,0)</title></rect><rect x="486" y="200" width="6" height="0" stroke="black" stroke-width="1" fill="blue" opacity="1" tooltip="enable"><title>(0.128843,0)</title></rect><rect x="492" y="200" width="6" height="0" stroke="black" stroke-width="1" fill="blue" opacity="1" tooltip="enable"><title>(0.130434,0)</title></rect><rect x="498" y="200" width="6" height="0" stroke="black" stroke-width="1" fill="blue" opacity="1" tooltip="enable"><title>(0.132025,0)</title></rect><rect x="504" y="200" width="6" height="0" stroke="black" stroke-width="1" fill="blue" opacity="1" tooltip="enable"><title>(0.133615,0)</title></rect><rect x="510" y="200" width="6" height="0" stroke="black" stroke-width="1" fill="blue" opacity="1" tooltip="enable"><title>(0.135206,0)</title></rect><rect x="516" y="200" width="6" height="0" stroke="black" stroke-width="1" fill="blue" opacity="1" tooltip="enable"><title>(0.136796,0)</title></rect><rect x="522" y="200" width="6" height="0" stroke="black" stroke-width="1" fill="blue" opacity="1" tooltip="enable"><title>(0.138387,0)</title></rect><rect x="528" y="200" width="6" height="0" stroke="black" stroke-width="1" fill="blue" opacity="1" tooltip="enable"><title>(0.139978,0)</title></rect><rect x="534" y="200" width="6" height="0" stroke="black" stroke-width="1" fill="blue" opacity="1" tooltip="enable"><title>(0.141568,0)</title></rect><rect x="540" y="200" width="6" height="0" stroke="black" stroke-width="1" fill="blue" opacity="1" tooltip="enable"><title>(0.143159,0)</title></rect><rect x="546" y="200" width="6" height="0" stroke="black" stroke-width="1" fill="blue" opacity="1" tooltip="enable"><title>(0.14475,0)</title></rect><rect x="552" y="200" width="6" height="0" stroke="black" stroke-width="1" fill="blue" opacity="1" tooltip="enable"><title>(0.14634,0)</title></rect><rect x="558" y="200" width="6" height="0" stroke="black" stroke-width="1" fill="blue" opacity="1" tooltip="enable"><title>(0.147931,0)</title></rect><rect x="564" y="200" width="6" height="0" stroke="black" stroke-width="1" fill="blue" opacity="1" tooltip="enable"><title>(0.149522,0)</title></rect><rect x="570" y="200" width="6" height="0" stroke="black" stroke-width="1" fill="blue" opacity="1" tooltip="enable"><title>(0.151112,0)</title></rect><rect x="576" y="200" width="6" height="0" stroke="black" stroke-width="1" fill="blue" opacity="1" tooltip="enable"><title>(0.152703,0)</title></rect><rect x="582" y="200" width="6" height="0" stroke="black" stroke-width="1" fill="blue" opacity="1" tooltip="enable"><title>(0.154294,0)</title></rect><rect x="588" y="199.856" width="6" height="0.144248" stroke="black" stroke-width="1" fill="blue" opacity="1" tooltip="enable"><title>(0.155884,2)</title></rect><rect x="594" y="199.928" width="6" height="0.0721241" stroke="black" stroke-width="1" fill="blue" opacity="1" tooltip="enable"><title>(0.157475,1)</title></rect><text x="30" y="240" font-size="20" fill="black">0</text>
<text x="600" y="240" font-size="20" fill="black">0.159066</text>
<polyline points="0,220,600,220" stroke="black" stroke-width="1" fill="none" opacity="1"/>
<text x="720" y="20" font-size="20" fill="black">2773</text>
<text x="720" y="200" font-size="20" fill="black">0</text>
<polyline points="660,0,660,200" stroke="black" stroke-width="1" fill="none" opacity="1"/>
</svg>