<?xml version="1.0" standalone="yes"?>
<!-- SVG graphic -->
<svg xmlns='http://www.w3.org/2000/svg' xmlns:xlink='http://www.w3.org/1999/xlink'
 version="1.1">
<rect x="0" y="9.306" width="6" height="190.694" stroke="black" stroke-width="1" fill="blue" opacity="1" tooltip="enable"><title>(0,1209)</title></rect><rect x="6" y="0" width="6" height="200" stroke="black" stroke-width="1" fill="blue" opacity="1" tooltip="enable"><title>(0.00140757,1268)</title></rect><rect x="12" y="22.8707" width="6" height="177.129" stroke="black" stroke-width="1" fill="blue" opacity="1" tooltip="enable"><title>(0.00281514,1123)</title></rect><rect x="18" y="90.8517" width="6" height="109.148" stroke="black" stroke-width="1" fill="blue" opacity="1" tooltip="enable"><title>(0.00422271,692)</title></rect><rect x="24" y="153.943" width="6" height="46.0568" stroke="black" stroke-width="1" fill="blue" opacity="1" tooltip="enable"><title>(0.00563028,292)</title></rect><rect x="30" y="175.868" width="6" height="24.1325" stroke="black" stroke-width="1" fill="blue" opacity="1" tooltip="enable"><title>(0.00703785,153)</title></rect><rect x="36" y="182.177" width="6" height="17.8233" stroke="black" stroke-width="1" fill="blue" opacity="1" tooltip="enable"><title>(0.00844542,113)</title></rect><rect x="42" y="182.177" width="6" height="17.8233" stroke="black" stroke-width="1" fill="blue" opacity="1" tooltip="enable"><title>(0.00985299,113)</title></rect><rect x="48" y="178.707" width="6" height="21.2934" stroke="black" stroke-width="1" fill="blue" opacity="1" tooltip="enable"><title>(0.0112606,135)</title></rect><rect x="54" y="185.016" width="6" height="14.9842" stroke="black" stroke-width="1" fill="blue" opacity="1" tooltip="enable"><title>(0.0126681,95)</title></rect><rect x="60" y="183.912" width="6" height="16.0883" stroke="black" stroke-width="1" fill="blue" opacity="1" tooltip="enable"><title>(0.0140757,102)</title></rect><rect x="66" y="181.861" width="6" height="18.1388" stroke="black" stroke-width="1" fill="blue" opacity="1" tooltip="enable"><title>(0.0154833,115)</title></rect><rect x="72" y="180.284" width="6" height="19.7161" stroke="black" stroke-width="1" fill="blue" opacity="1" tooltip="enable"><title>(0.0168908,125)</title></rect><rect x="78" y="179.18" width="6" height="20.8202" stroke="black" stroke-width="1" fill="blue" opacity="1" tooltip="enable"><title>(0.0182984,132)</title></rect><rect x="84" y="182.177" width="6" height="17.8233" stroke="black" stroke-width="1" fill="blue" opacity="1" tooltip="enable"><title>(0.019706,113)</title></rect><rect x="90" y="178.076" width="6" height="21.9243" stroke="black" stroke-width="1" fill="blue" opacity="1" tooltip="enable"><title>(0.0211136,139)</title></rect><rect x="96" y="179.653" width="6" height="20.347" stroke="black" stroke-width="1" fill="blue" opacity="1" tooltip="enable"><title>(0.0225211,129)</title></rect><rect x="102" y="176.972" width="6" height="23.0284" stroke="black" stroke-width="1" fill="blue" opacity="1" tooltip="enable"><title>(0.0239287,146)</title></rect><rect x="108" y="180.284" width="6" height="19.7161" stroke="black" stroke-width="1" fill="blue" opacity="1" tooltip="enable"><title>(0.0253363,125)</title></rect><rect x="114" y="182.334" width="6" height="17.6656" stroke="black" stroke-width="1" fill="blue" opacity="1" tooltip="enable"><title>(0.0267438,112)</title></rect><rect x="120" y="182.019" width="6" height="17.9811" stroke="black" stroke-width="1" fill="blue" opacity="1" tooltip="enable"><title>(0.0281514,114)</title></rect><rect x="126" y="185.331" width="6" height="14.6688" stroke="black" stroke-width="1" fill="blue" opacity="1" tooltip="enable"><title>(0.029559,93)</title></rect><rect x="132" y="185.174" width="6" height="14.8265" stroke="black" stroke-width="1" fill="blue" opacity="1" tooltip="enable"><title>(0.0309665,94)</title></rect><rect x="138" y="183.123" width="6" height="16.877" stroke="black" stroke-width="1" fill="blue" opacity="1" tooltip="enable"><title>(0.0323741,107)</title></rect><rect x="144" y="180.599" width="6" height="19.4006" stroke="black" stroke-width="1" fill="blue" opacity="1" tooltip="enable"><title>(0.0337817,123)</title></rect><rect x="150" y="181.546" width="6" height="18.4543" stroke="black" stroke-width="1" fill="blue" opacity="1" tooltip="enable"><title>(0.0351893,117)</title></rect><rect x="156" y="179.811" width="6" height="20.1893" stroke="black" stroke-width="1" fill="blue" opacity="1" tooltip="enable"><title>(0.0365968,128)</title></rect><rect x="162" y="186.909" width="6" height="13.0915" stroke="black" stroke-width="1" fill="blue" opacity="1" tooltip="enable"><title>(0.0380044,83)</title></rect><rect x="168" y="188.486" width="6" height="11.5142" stroke="black" stroke-width="1" fill="blue" opacity="1" tooltip="enable"><title>(0.039412,73)</title></rect><rect x="174" y="185.489" width="6" height="14.511" stroke="black" stroke-width="1" fill="blue" opacity="1" tooltip="enable"><title>(0.0408195,92)</title></rect><rect x="180" y="189.905" width="6" height="10.0946" stroke="black" stroke-width="1" fill="blue" opacity="1" tooltip="enable"><title>(0.0422271,64)</title></rect><rect x="186" y="190.852" width="6" height="9.14826" stroke="black" stroke-width="1" fill="blue" opacity="1" tooltip="enable"><title>(0.0436347,58)</title></rect><rect x="192" y="190.694" width="6" height="9.30599" stroke="black" stroke-width="1" fill="blue" opacity="1" tooltip="enable"><title>(0.0450423,59)</title></rect><rect x="198" y="192.271" width="6" height="7.72871" stroke="black" stroke-width="1" fill="blue" opacity="1" tooltip="enable"><title>(0.0464498,49)</title></rect><rect x="204" y="195.741" width="6" height="4.25868" stroke="black" stroke-width="1" fill="blue" opacity="1" tooltip="enable"><title>(0.0478574,27)</title></rect><rect x="210" y="195.426" width="6" height="4.57413" stroke="black" stroke-width="1" fill="blue" opacity="1" tooltip="enable"><title>(0.049265,29)</title></rect><rect x="216" y="196.215" width="6" height="3.78549" stroke="black" stroke-width="1" fill="blue" opacity="1" tooltip="enable"><title>(0.0506725,24)</title></rect><rect x="222" y="196.215" width="6" height="3.78549" stroke="black" stroke-width="1" fill="blue" opacity="1" tooltip="enable"><title>(0.0520801,24)</title></rect><rect x="228" y="196.688" width="6" height="3.3123" stroke="black" stroke-width="1" fill="blue" opacity="1" tooltip="enable"><title>(0.0534877,21)</title></rect><rect x="234" y="195.741" width="6" height="4.25868" stroke="black" stroke-width="1" fill="blue" opacity="1" tooltip="enable"><title>(0.0548952,27)</title></rect><rect x="240" y="197.319" width="6" height="2.68139" stroke="black" stroke-width="1" fill="blue" opacity="1" tooltip="enable"><title>(0.0563028,17)</title></rect><rect x="246" y="196.215" width="6" height="3.78549" stroke="black" stroke-width="1" fill="blue" opacity="1" tooltip="enable"><title>(0.0577104,24)</title></rect><rect x="252" y="198.107" width="6" height="1.89274" stroke="black" stroke-width="1" fill="blue" opacity="1" tooltip="enable"><title>(0.059118,12)</title></rect><rect x="258" y="198.738" width="6" height="1.26183" stroke="black" stroke-width="1" fill="blue" opacity="1" tooltip="enable"><title>(0.0605255,8)</title></rect><rect x="264" y="197.634" width="6" height="2.36593" stroke="black" stroke-width="1" fill="blue" opacity="1" tooltip="enable"><title>(0.0619331,15)</title></rect><rect x="270" y="198.265" width="6" height="1.73502" stroke="black" stroke-width="1" fill="blue" opacity="1" tooltip="enable"><title>(0.0633407,11)</title></rect><rect x="276" y="197.792" width="6" height="2.2082" stroke="black" stroke-width="1" fill="blue" opacity="1" tooltip="enable"><title>(0.0647482,14)</title></rect><rect x="282" y="197.95" width="6" height="2.05047" stroke="black" stroke-width="1" fill="blue" opacity="1" tooltip="enable"><title>(0.0661558,13)</title></rect><rect x="288" y="199.527" width="6" height="0.473186" stroke="black" stroke-width="1" fill="blue" opacity="1" tooltip="enable"><title>(0.0675634,3)</title></rect><rect x="294" y="200" width="6" height="0" stroke="black" stroke-width="1" fill="blue" opacity="1" tooltip="enable"><title>(0.0689709,0)</title></rect><rect x="300" y="200" width="6" height="0" stroke="black" stroke-width="1" fill="blue" opacity="1" tooltip="enable"><title>(0.0703785,0)</title></rect><rect x="306" y="200" width="6" height="0" stroke="black" stroke-width="1" fill="blue" opacity="1" tooltip="enable"><title>(0.0717861,0)</title></rect><rect x="312" y="199.369" width="6" height="0.630915" stroke="black" stroke-width="1" fill="blue" opacity="1" tooltip="enable"><title>(0.0731937,4)</title></rect><rect x="318" y="199.685" width="6" height="0.315457" stroke="black" stroke-width="1" fill="blue" opacity="1" tooltip="enable"><title>(0.0746012,2)</title></rect><rect x="324" y="199.685" width="6" height="0.315457" stroke="black" stroke-width="1" fill="blue" opacity="1" tooltip="enable"><title>(0.0760088,2)</title></rect><rect x="330" y="199.685" width="6" height="0.315457" stroke="black" stroke-width="1" fill="blue" opacity="1" tooltip="enable"><title>(0.0774164,2)</title></rect><rect x="336" y="200" width="6" height="0" stroke="black" stroke-width="1" fill="blue" opacity="1" tooltip="enable"><title>(0.0788239,0)</title></rect><rect x="342" y="199.685" width="6" height="0.315457" stroke="black" stroke-width="1" fill="blue" opacity="1" tooltip="enable"><title>(0.0802315,2)</title></rect><rect x="348" y="200" width="6" height="0" stroke="black" stroke-width="1" fill="blue" opacity="1" tooltip="enable"><title>(0.0816391,0)</title></rect><rect x="354" y="200" width="6" height="0" stroke="black" stroke-width="1" fill="blue" opacity="1" tooltip="enable"><title>(0.0830467,0)</title></rect><rect x="360" y="200" width="6" height="0" stroke="black" stroke-width="1" fill="blue" opacity="1" tooltip="enable"><title>(0.0844542,0)</title></rect><rect x="366" y="200" width="6" height="0" stroke="black" stroke-width="1" fill="blue" opacity="1" tooltip="enable"><title>(0.0858618,0)</title></rect><rect x="372" y="199.842" width="6" height="0.157729" stroke="black" stroke-width="1" fill="blue" opacity="1" tooltip="enable"><title>(0.0872694,1)</title></rect><rect x="378" y="199.211" width="6" height="0.788643" stroke="black" stroke-width="1" fill="blue" opacity="1" tooltip="enable"><title>(0.0886769,5)</title></rect><rect x="384" y="200" width="6" height="0" stroke="black" stroke-width="1" fill="blue" opacity="1" tooltip="enable"><title>(0.0900845,0)</title></rect><rect x="390" y="199.685" width="6" height="0.315457" stroke="black" stroke-width="1" fill="blue" opacity="1" tooltip="enable"><title>(0.0914921,2)</title></rect><rect x="396" y="200" width="6" height="0" stroke="black" stroke-width="1" fill="blue" opacity="1" tooltip="enable"><title>(0.0928997,0)</title></rect><rect x="402" y="200" width="6" height="0" stroke="black" stroke-width="1" fill="blue" opacity="1" tooltip="enable"><title>(0.0943072,0)</title></rect><rect x="408" y="199.685" width="6" height="0.315457" stroke="black" stroke-width="1" fill="blue" opacity="1" tooltip="enable"><title>(0.0957148,2)</title></rect><rect x="414" y="199.685" width="6" height="0.315457" stroke="black" stroke-width="1" fill="blue" opacity="1" tooltip="enable"><title>(0.0971224,2)</title></rect><rect x="420" y="199.685" width="6" height="0.315457" stroke="black" stroke-width="1" fill="blue" opacity="1" tooltip="enable"><title>(0.0985299,2)</title></rect><rect x="426" y="200" width="6" height="0" stroke="black" stroke-width="1" fill="blue" opacity="1" tooltip="enable"><title>(0.0999375,0)</title></rect><rect x="432" y="200" width="6" height="0" stroke="black" stroke-width="1" fill="blue" opacity="1" tooltip="enable"><title>(0.101345,0)</title></rect><rect x="438" y="200" width="6" height="0" stroke="black" stroke-width="1" fill="blue" opacity="1" tooltip="enable"><title>(0.102753,0)</title></rect><rect x="444" y="199.369" width="6" height="0.630915" stroke="black" stroke-width="1" fill="blue" opacity="1" tooltip="enable"><title>(0.10416,4)</title></rect><rect x="450" y="200" width="6" height="0" stroke="black" stroke-width="1" fill="blue" opacity="1" tooltip="enable"><title>(0.105568,0)</title></rect><rect x="456" y="199.685" width="6" height="0.315457" stroke="black" stroke-width="1" fill="blue" opacity="1" tooltip="enable"><title>(0.106975,2)</title></rect><rect x="462" y="200" width="6" height="0" stroke="black" stroke-width="1" fill="blue" opacity="1" tooltip="enable"><title>(0.108383,0)</title></rect><rect x="468" y="199.842" width="6" height="0.157729" stroke="black" stroke-width="1" fill="blue" opacity="1" tooltip="enable"><title>(0.10979,1)</title></rect><rect x="474" y="199.842" width="6" height="0.157729" stroke="black" stroke-width="1" fill="blue" opacity="1" tooltip="enable"><title>(0.111198,1)</title></rect><rect x="480" y="200" width="6" height="0" stroke="black" stroke-width="1" fill="blue" opacity="1" tooltip="enable"><title>(0.112606,0)</title></rect><rect x="486" y="200" width="6" height="0" stroke="black" stroke-width="1" fill="blue" opacity="1" tooltip="enable"><title>(0.114013,0)</title></rect><rect x="492" y="199.685" width="6" height="0.315457" stroke="black" stroke-width="1" fill="blue" opacity="1" tooltip="enable"><title>(0.115421,2)</title></rect><rect x="498" y="200" width="6" height="0" stroke="black" stroke-width="1" fill="blue" opacity="1" tooltip="enable"><title>(0.116828,0)</title></rect><rect x="504" y="200" width="6" height="0" stroke="black" stroke-width="1" fill="blue" opacity="1" tooltip="enable"><title>(0.118236,0)</title></rect><rect x="510" y="200" width="6" height="0" stroke="black" stroke-width="1" fill="blue" opacity="1" tooltip="enable"><title>(0.119643,0)</title></rect><rect x="516" y="199.685" width="6" height="0.315457" stroke="black" stroke-width="1" fill="blue" opacity="1" tooltip="enable"><title>(0.121051,2)</title></rect><rect x="522" y="200" width="6" height="0" stroke="black" stroke-width="1" fill="blue" opacity="1" tooltip="enable"><title>(0.122459,0)</title></rect><rect x="528" y="200" width="6" height="0" stroke="black" stroke-width="1" fill="blue" opacity="1" tooltip="enable"><title>(0.123866,0)</title></rect><rect x="534" y="199.685" width="6" height="0.315457" stroke="black" stroke-width="1" fill="blue" opacity="1" tooltip="enable"><title>(0.125274,2)</title></rect><rect x="540" y="200" width="6" height="0" stroke="black" stroke-width="1" fill="blue" opacity="1" tooltip="enable"><title>(0.126681,0)</title></rect><rect x="546" y="200" width="6" height="0" stroke="black" stroke-width="1" fill="blue" opacity="1" tooltip="enable"><title>(0.128089,0)</title></rect><rect x="552" y="200" width="6" height="0" stroke="black" stroke-width="1" fill="blue" opacity="1" tooltip="enable"><title>(0.129496,0)</title></rect><rect x="558" y="199.369" width="6" height="0.630915" stroke="black" stroke-width="1" fill="blue" opacity="1" tooltip="enable"><title>(0.130904,4)</title></rect><rect x="564" y="200" width="6" height="0" stroke="black" stroke-width="1" fill="blue" opacity="1" tooltip="enable"><title>(0.132312,0)</title></rect><rect x="570" y="200" width="6" height="0" stroke="black" stroke-width="1" fill="blue" opacity="1" tooltip="enable"><title>(0.133719,0)</title></rect><rect x="576" y="200" width="6" height="0" stroke="black" stroke-width="1" fill="blue" opacity="1" tooltip="enable"><title>(0.135127,0)</title></rect><rect x="582" y="200" width="6" height="0" stroke="black" stroke-width="1" fill="blue" opacity="1" tooltip="enable"><title>(0.136534,0)</title></rect><rect x="588" y="200" width="6" height="0" stroke="black" stroke-width="1" fill="blue" opacity="1" tooltip="enable"><title>(0.137942,0)</title></rect><rect x="594" y="199.842" width="6" height="0.157729" stroke="black" stroke-width="1" fill="blue" opacity="1" tooltip="enable"><title>(0.139349,1)</title></rect><text x="30" y="240" font-size="20" fill="black">0</text>
<text x="600" y="240" font-size="20" fill="black">0.140757</text>
<polyline points="0,220,600,220" stroke="black" stroke-width="1" fill="none" opacity="1"/>
<text x="720" y="20" font-size="20" fill="black">1268</text>
<text x="720" y="200" font-size="20" fill="black">0</text>
<polyline points="660,0,660,200" stroke="black" stroke-width="1" fill="none" opacity="1"/>
</svg>