<?xml version="1.0" standalone="yes"?>
<!-- SVG graphic -->
<svg xmlns='http://www.w3.org/2000/svg' xmlns:xlink='http://www.w3.org/1999/xlink'
 version="1.1">
<rect x="0" y="0" width="6" height="200" stroke="black" stroke-width="1" fill="blue" opacity="1" tooltip="enable"><title>(0,2497)</title></rect><rect x="6" y="109.892" width="6" height="90.1081" stroke="black" stroke-width="1" fill="blue" opacity="1" tooltip="enable"><title>(0.00120969,1125)</title></rect><rect x="12" y="147.377" width="6" height="52.6231" stroke="black" stroke-width="1" fill="blue" opacity="1" tooltip="enable"><title>(0.00241939,657)</title></rect><rect x="18" y="178.214" width="6" height="21.7861" stroke="black" stroke-width="1" fill="blue" opacity="1" tooltip="enable"><title>(0.00362908,272)</title></rect><rect x="24" y="185.022" width="6" height="14.978" stroke="black" stroke-width="1" fill="blue" opacity="1" tooltip="enable"><title>(0.00483878,187)</title></rect><rect x="30" y="186.063" width="6" height="13.9367" stroke="black" stroke-width="1" fill="blue" opacity="1" tooltip="enable"><title>(0.00604847,174)</title></rect><rect x="36" y="188.947" width="6" height="11.0533" stroke="black" stroke-width="1" fill="blue" opacity="1" tooltip="enable"><title>(0.00725817,138)</title></rect><rect x="42" y="189.267" width="6" height="10.7329" stroke="black" stroke-width="1" fill="blue" opacity="1" tooltip="enable"><title>(0.00846786,134)</title></rect><rect x="48" y="187.825" width="6" height="12.1746" stroke="black" stroke-width="1" fill="blue" opacity="1" tooltip="enable"><title>(0.00967756,152)</title></rect><rect x="54" y="189.107" width="6" height="10.8931" stroke="black" stroke-width="1" fill="blue" opacity="1" tooltip="enable"><title>(0.0108873,136)</title></rect><rect x="60" y="187.986" width="6" height="12.0144" stroke="black" stroke-width="1" fill="blue" opacity="1" tooltip="enable"><title>(0.0120969,150)</title></rect><rect x="66" y="189.267" width="6" height="10.7329" stroke="black" stroke-width="1" fill="blue" opacity="1" tooltip="enable"><title>(0.0133066,134)</title></rect><rect x="72" y="188.226" width="6" height="11.7741" stroke="black" stroke-width="1" fill="blue" opacity="1" tooltip="enable"><title>(0.0145163,147)</title></rect><rect x="78" y="191.75" width="6" height="8.2499" stroke="black" stroke-width="1" fill="blue" opacity="1" tooltip="enable"><title>(0.015726,103)</title></rect><rect x="84" y="190.869" width="6" height="9.13096" stroke="black" stroke-width="1" fill="blue" opacity="1" tooltip="enable"><title>(0.0169357,114)</title></rect><rect x="90" y="191.189" width="6" height="8.81057" stroke="black" stroke-width="1" fill="blue" opacity="1" tooltip="enable"><title>(0.0181454,110)</title></rect><rect x="96" y="190.709" width="6" height="9.29115" stroke="black" stroke-width="1" fill="blue" opacity="1" tooltip="enable"><title>(0.0193551,116)</title></rect><rect x="102" y="193.352" width="6" height="6.64798" stroke="black" stroke-width="1" fill="blue" opacity="1" tooltip="enable"><title>(0.0205648,83)</title></rect><rect x="108" y="193.833" width="6" height="6.1674" stroke="black" stroke-width="1" fill="blue" opacity="1" tooltip="enable"><title>(0.0217745,77)</title></rect><rect x="114" y="193.512" width="6" height="6.48779" stroke="black" stroke-width="1" fill="blue" opacity="1" tooltip="enable"><title>(0.0229842,81)</title></rect><rect x="120" y="194.553" width="6" height="5.44654" stroke="black" stroke-width="1" fill="blue" opacity="1" tooltip="enable"><title>(0.0241939,68)</title></rect><rect x="126" y="194.233" width="6" height="5.76692" stroke="black" stroke-width="1" fill="blue" opacity="1" tooltip="enable"><title>(0.0254036,72)</title></rect><rect x="132" y="195.114" width="6" height="4.88586" stroke="black" stroke-width="1" fill="blue" opacity="1" tooltip="enable"><title>(0.0266133,61)</title></rect><rect x="138" y="193.913" width="6" height="6.08731" stroke="black" stroke-width="1" fill="blue" opacity="1" tooltip="enable"><title>(0.027823,76)</title></rect><rect x="144" y="196.476" width="6" height="3.52423" stroke="black" stroke-width="1" fill="blue" opacity="1" tooltip="enable"><title>(0.0290327,44)</title></rect><rect x="150" y="195.995" width="6" height="4.00481" stroke="black" stroke-width="1" fill="blue" opacity="1" tooltip="enable"><title>(0.0302424,50)</title></rect><rect x="156" y="196.956" width="6" height="3.04365" stroke="black" stroke-width="1" fill="blue" opacity="1" tooltip="enable"><title>(0.0314521,38)</title></rect><rect x="162" y="196.155" width="6" height="3.84461" stroke="black" stroke-width="1" fill="blue" opacity="1" tooltip="enable"><title>(0.0326618,48)</title></rect><rect x="168" y="196.155" width="6" height="3.84461" stroke="black" stroke-width="1" fill="blue" opacity="1" tooltip="enable"><title>(0.0338715,48)</title></rect><rect x="174" y="196.716" width="6" height="3.28394" stroke="black" stroke-width="1" fill="blue" opacity="1" tooltip="enable"><title>(0.0350812,41)</title></rect><rect x="180" y="195.435" width="6" height="4.56548" stroke="black" stroke-width="1" fill="blue" opacity="1" tooltip="enable"><title>(0.0362908,57)</title></rect><rect x="186" y="196.316" width="6" height="3.68442" stroke="black" stroke-width="1" fill="blue" opacity="1" tooltip="enable"><title>(0.0375005,46)</title></rect><rect x="192" y="196.556" width="6" height="3.44413" stroke="black" stroke-width="1" fill="blue" opacity="1" tooltip="enable"><title>(0.0387102,43)</title></rect><rect x="198" y="195.435" width="6" height="4.56548" stroke="black" stroke-width="1" fill="blue" opacity="1" tooltip="enable"><title>(0.0399199,57)</title></rect><rect x="204" y="196.075" width="6" height="3.92471" stroke="black" stroke-width="1" fill="blue" opacity="1" tooltip="enable"><title>(0.0411296,49)</title></rect><rect x="210" y="196.075" width="6" height="3.92471" stroke="black" stroke-width="1" fill="blue" opacity="1" tooltip="enable"><title>(0.0423393,49)</title></rect><rect x="216" y="196.956" width="6" height="3.04365" stroke="black" stroke-width="1" fill="blue" opacity="1" tooltip="enable"><title>(0.043549,38)</title></rect><rect x="222" y="197.357" width="6" height="2.64317" stroke="black" stroke-width="1" fill="blue" opacity="1" tooltip="enable"><title>(0.0447587,33)</title></rect><rect x="228" y="197.437" width="6" height="2.56308" stroke="black" stroke-width="1" fill="blue" opacity="1" tooltip="enable"><title>(0.0459684,32)</title></rect><rect x="234" y="197.437" width="6" height="2.56308" stroke="black" stroke-width="1" fill="blue" opacity="1" tooltip="enable"><title>(0.0471781,32)</title></rect><rect x="240" y="197.517" width="6" height="2.48298" stroke="black" stroke-width="1" fill="blue" opacity="1" tooltip="enable"><title>(0.0483878,31)</title></rect><rect x="246" y="196.476" width="6" height="3.52423" stroke="black" stroke-width="1" fill="blue" opacity="1" tooltip="enable"><title>(0.0495975,44)</title></rect><rect x="252" y="197.917" width="6" height="2.0825" stroke="black" stroke-width="1" fill="blue" opacity="1" tooltip="enable"><title>(0.0508072,26)</title></rect><rect x="258" y="198.078" width="6" height="1.92231" stroke="black" stroke-width="1" fill="blue" opacity="1" tooltip="enable"><title>(0.0520169,24)</title></rect><rect x="264" y="197.757" width="6" height="2.24269" stroke="black" stroke-width="1" fill="blue" opacity="1" tooltip="enable"><title>(0.0532266,28)</title></rect><rect x="270" y="197.677" width="6" height="2.32279" stroke="black" stroke-width="1" fill="blue" opacity="1" tooltip="enable"><title>(0.0544363,29)</title></rect><rect x="276" y="197.998" width="6" height="2.0024" stroke="black" stroke-width="1" fill="blue" opacity="1" tooltip="enable"><title>(0.055646,25)</title></rect><rect x="282" y="198.558" width="6" height="1.44173" stroke="black" stroke-width="1" fill="blue" opacity="1" tooltip="enable"><title>(0.0568557,18)</title></rect><rect x="288" y="199.199" width="6" height="0.800961" stroke="black" stroke-width="1" fill="blue" opacity="1" tooltip="enable"><title>(0.0580654,10)</title></rect><rect x="294" y="198.078" width="6" height="1.92231" stroke="black" stroke-width="1" fill="blue" opacity="1" tooltip="enable"><title>(0.059275,24)</title></rect><rect x="300" y="198.718" width="6" height="1.28154" stroke="black" stroke-width="1" fill="blue" opacity="1" tooltip="enable"><title>(0.0604847,16)</title></rect><rect x="306" y="199.199" width="6" height="0.800961" stroke="black" stroke-width="1" fill="blue" opacity="1" tooltip="enable"><title>(0.0616944,10)</title></rect><rect x="312" y="199.039" width="6" height="0.961153" stroke="black" stroke-width="1" fill="blue" opacity="1" tooltip="enable"><title>(0.0629041,12)</title></rect><rect x="318" y="199.439" width="6" height="0.560673" stroke="black" stroke-width="1" fill="blue" opacity="1" tooltip="enable"><title>(0.0641138,7)</title></rect><rect x="324" y="199.039" width="6" height="0.961153" stroke="black" stroke-width="1" fill="blue" opacity="1" tooltip="enable"><title>(0.0653235,12)</title></rect><rect x="330" y="198.238" width="6" height="1.76211" stroke="black" stroke-width="1" fill="blue" opacity="1" tooltip="enable"><title>(0.0665332,22)</title></rect><rect x="336" y="199.6" width="6" height="0.400481" stroke="black" stroke-width="1" fill="blue" opacity="1" tooltip="enable"><title>(0.0677429,5)</title></rect><rect x="342" y="199.84" width="6" height="0.160192" stroke="black" stroke-width="1" fill="blue" opacity="1" tooltip="enable"><title>(0.0689526,2)</title></rect><rect x="348" y="200" width="6" height="0" stroke="black" stroke-width="1" fill="blue" opacity="1" tooltip="enable"><title>(0.0701623,0)</title></rect><rect x="354" y="199.84" width="6" height="0.160192" stroke="black" stroke-width="1" fill="blue" opacity="1" tooltip="enable"><title>(0.071372,2)</title></rect><rect x="360" y="199.519" width="6" height="0.480577" stroke="black" stroke-width="1" fill="blue" opacity="1" tooltip="enable"><title>(0.0725817,6)</title></rect><rect x="366" y="199.199" width="6" height="0.800961" stroke="black" stroke-width="1" fill="blue" opacity="1" tooltip="enable"><title>(0.0737914,10)</title></rect><rect x="372" y="199.359" width="6" height="0.640769" stroke="black" stroke-width="1" fill="blue" opacity="1" tooltip="enable"><title>(0.0750011,8)</title></rect><rect x="378" y="199.359" width="6" height="0.640769" stroke="black" stroke-width="1" fill="blue" opacity="1" tooltip="enable"><title>(0.0762108,8)</title></rect><rect x="384" y="199.84" width="6" height="0.160192" stroke="black" stroke-width="1" fill="blue" opacity="1" tooltip="enable"><title>(0.0774205,2)</title></rect><rect x="390" y="199.519" width="6" height="0.480577" stroke="black" stroke-width="1" fill="blue" opacity="1" tooltip="enable"><title>(0.0786302,6)</title></rect><rect x="396" y="199.68" width="6" height="0.320384" stroke="black" stroke-width="1" fill="blue" opacity="1" tooltip="enable"><title>(0.0798399,4)</title></rect><rect x="402" y="199.519" width="6" height="0.480577" stroke="black" stroke-width="1" fill="blue" opacity="1" tooltip="enable"><title>(0.0810496,6)</title></rect><rect x="408" y="200" width="6" height="0" stroke="black" stroke-width="1" fill="blue" opacity="1" tooltip="enable"><title>(0.0822593,0)</title></rect><rect x="414" y="199.84" width="6" height="0.160192" stroke="black" stroke-width="1" fill="blue" opacity="1" tooltip="enable"><title>(0.0834689,2)</title></rect><rect x="420" y="200" width="6" height="0" stroke="black" stroke-width="1" fill="blue" opacity="1" tooltip="enable"><title>(0.0846786,0)</title></rect><rect x="426" y="199.84" width="6" height="0.160192" stroke="black" stroke-width="1" fill="blue" opacity="1" tooltip="enable"><title>(0.0858883,2)</title></rect><rect x="432" y="199.68" width="6" height="0.320384" stroke="black" stroke-width="1" fill="blue" opacity="1" tooltip="enable"><title>(0.087098,4)</title></rect><rect x="438" y="200" width="6" height="0" stroke="black" stroke-width="1" fill="blue" opacity="1" tooltip="enable"><title>(0.0883077,0)</title></rect><rect x="444" y="200" width="6" height="0" stroke="black" stroke-width="1" fill="blue" opacity="1" tooltip="enable"><title>(0.0895174,0)</title></rect><rect x="450" y="199.84" width="6" height="0.160192" stroke="black" stroke-width="1" fill="blue" opacity="1" tooltip="enable"><title>(0.0907271,2)</title></rect><rect x="456" y="200" width="6" height="0" stroke="black" stroke-width="1" fill="blue" opacity="1" tooltip="enable"><title>(0.0919368,0)</title></rect><rect x="462" y="199.68" width="6" height="0.320384" stroke="black" stroke-width="1" fill="blue" opacity="1" tooltip="enable"><title>(0.0931465,4)</title></rect><rect x="468" y="199.84" width="6" height="0.160192" stroke="black" stroke-width="1" fill="blue" opacity="1" tooltip="enable"><title>(0.0943562,2)</title></rect><rect x="474" y="199.84" width="6" height="0.160192" stroke="black" stroke-width="1" fill="blue" opacity="1" tooltip="enable"><title>(0.0955659,2)</title></rect><rect x="480" y="199.84" width="6" height="0.160192" stroke="black" stroke-width="1" fill="blue" opacity="1" tooltip="enable"><title>(0.0967756,2)</title></rect><rect x="486" y="199.68" width="6" height="0.320384" stroke="black" stroke-width="1" fill="blue" opacity="1" tooltip="enable"><title>(0.0979853,4)</title></rect><rect x="492" y="199.84" width="6" height="0.160192" stroke="black" stroke-width="1" fill="blue" opacity="1" tooltip="enable"><title>(0.099195,2)</title></rect><rect x="498" y="199.92" width="6" height="0.0800961" stroke="black" stroke-width="1" fill="blue" opacity="1" tooltip="enable"><title>(0.100405,1)</title></rect><rect x="504" y="199.76" width="6" height="0.240288" stroke="black" stroke-width="1" fill="blue" opacity="1" tooltip="enable"><title>(0.101614,3)</title></rect><rect x="510" y="200" width="6" height="0" stroke="black" stroke-width="1" fill="blue" opacity="1" tooltip="enable"><title>(0.102824,0)</title></rect><rect x="516" y="200" width="6" height="0" stroke="black" stroke-width="1" fill="blue" opacity="1" tooltip="enable"><title>(0.104034,0)</title></rect><rect x="522" y="200" width="6" height="0" stroke="black" stroke-width="1" fill="blue" opacity="1" tooltip="enable"><title>(0.105243,0)</title></rect><rect x="528" y="200" width="6" height="0" stroke="black" stroke-width="1" fill="blue" opacity="1" tooltip="enable"><title>(0.106453,0)</title></rect><rect x="534" y="200" width="6" height="0" stroke="black" stroke-width="1" fill="blue" opacity="1" tooltip="enable"><title>(0.107663,0)</title></rect><rect x="540" y="200" width="6" height="0" stroke="black" stroke-width="1" fill="blue" opacity="1" tooltip="enable"><title>(0.108873,0)</title></rect><rect x="546" y="200" width="6" height="0" stroke="black" stroke-width="1" fill="blue" opacity="1" tooltip="enable"><title>(0.110082,0)</title></rect><rect x="552" y="199.84" width="6" height="0.160192" stroke="black" stroke-width="1" fill="blue" opacity="1" tooltip="enable"><title>(0.111292,2)</title></rect><rect x="558" y="200" width="6" height="0" stroke="black" stroke-width="1" fill="blue" opacity="1" tooltip="enable"><title>(0.112502,0)</title></rect><rect x="564" y="200" width="6" height="0" stroke="black" stroke-width="1" fill="blue" opacity="1" tooltip="enable"><title>(0.113711,0)</title></rect><rect x="570" y="200" width="6" height="0" stroke="black" stroke-width="1" fill="blue" opacity="1" tooltip="enable"><title>(0.114921,0)</title></rect><rect x="576" y="200" width="6" height="0" stroke="black" stroke-width="1" fill="blue" opacity="1" tooltip="enable"><title>(0.116131,0)</title></rect><rect x="582" y="200" width="6" height="0" stroke="black" stroke-width="1" fill="blue" opacity="1" tooltip="enable"><title>(0.11734,0)</title></rect><rect x="588" y="200" width="6" height="0" stroke="black" stroke-width="1" fill="blue" opacity="1" tooltip="enable"><title>(0.11855,0)</title></rect><rect x="594" y="199.92" width="6" height="0.0800961" stroke="black" stroke-width="1" fill="blue" opacity="1" tooltip="enable"><title>(0.11976,1)</title></rect><text x="30" y="240" font-size="20" fill="black">0</text>
<text x="600" y="240" font-size="20" fill="black">0.120969</text>
<polyline points="0,220,600,220" stroke="black" stroke-width="1" fill="none" opacity="1"/>
<text x="720" y="20" font-size="20" fill="black">2497</text>
<text x="720" y="200" font-size="20" fill="black">0</text>
<polyline points="660,0,660,200" stroke="black" stroke-width="1" fill="none" opacity="1"/>
</svg>