<?xml version="1.0" standalone="yes"?>
<!-- SVG graphic -->
<svg xmlns='http://www.w3.org/2000/svg' xmlns:xlink='http://www.w3.org/1999/xlink'
 version="1.1">
<rect x="0" y="0" width="6" height="200" stroke="black" stroke-width="1" fill="blue" opacity="1" tooltip="enable"><title>(0,2126)</title></rect><rect x="6" y="68.5795" width="6" height="131.421" stroke="black" stroke-width="1" fill="blue" opacity="1" tooltip="enable"><title>(0.00141661,1397)</title></rect><rect x="12" y="144.026" width="6" height="55.9737" stroke="black" stroke-width="1" fill="blue" opacity="1" tooltip="enable"><title>(0.00283321,595)</title></rect><rect x="18" y="171.402" width="6" height="28.5983" stroke="black" stroke-width="1" fill="blue" opacity="1" tooltip="enable"><title>(0.00424982,304)</title></rect><rect x="24" y="180.621" width="6" height="19.3791" stroke="black" stroke-width="1" fill="blue" opacity="1" tooltip="enable"><title>(0.00566642,206)</title></rect><rect x="30" y="184.196" width="6" height="15.8043" stroke="black" stroke-width="1" fill="blue" opacity="1" tooltip="enable"><title>(0.00708303,168)</title></rect><rect x="36" y="188.899" width="6" height="11.1007" stroke="black" stroke-width="1" fill="blue" opacity="1" tooltip="enable"><title>(0.00849964,118)</title></rect><rect x="42" y="189.84" width="6" height="10.1599" stroke="black" stroke-width="1" fill="blue" opacity="1" tooltip="enable"><title>(0.00991624,108)</title></rect><rect x="48" y="188.711" width="6" height="11.2888" stroke="black" stroke-width="1" fill="blue" opacity="1" tooltip="enable"><title>(0.0113328,120)</title></rect><rect x="54" y="189.087" width="6" height="10.9125" stroke="black" stroke-width="1" fill="blue" opacity="1" tooltip="enable"><title>(0.0127495,116)</title></rect><rect x="60" y="190.875" width="6" height="9.12512" stroke="black" stroke-width="1" fill="blue" opacity="1" tooltip="enable"><title>(0.0141661,97)</title></rect><rect x="66" y="191.816" width="6" height="8.18438" stroke="black" stroke-width="1" fill="blue" opacity="1" tooltip="enable"><title>(0.0155827,87)</title></rect><rect x="72" y="193.039" width="6" height="6.96143" stroke="black" stroke-width="1" fill="blue" opacity="1" tooltip="enable"><title>(0.0169993,74)</title></rect><rect x="78" y="191.91" width="6" height="8.09031" stroke="black" stroke-width="1" fill="blue" opacity="1" tooltip="enable"><title>(0.0184159,86)</title></rect><rect x="84" y="192.286" width="6" height="7.71402" stroke="black" stroke-width="1" fill="blue" opacity="1" tooltip="enable"><title>(0.0198325,82)</title></rect><rect x="90" y="190.593" width="6" height="9.40734" stroke="black" stroke-width="1" fill="blue" opacity="1" tooltip="enable"><title>(0.0212491,100)</title></rect><rect x="96" y="193.227" width="6" height="6.77328" stroke="black" stroke-width="1" fill="blue" opacity="1" tooltip="enable"><title>(0.0226657,72)</title></rect><rect x="102" y="190.593" width="6" height="9.40734" stroke="black" stroke-width="1" fill="blue" opacity="1" tooltip="enable"><title>(0.0240823,100)</title></rect><rect x="108" y="190.028" width="6" height="9.97178" stroke="black" stroke-width="1" fill="blue" opacity="1" tooltip="enable"><title>(0.0254989,106)</title></rect><rect x="114" y="191.345" width="6" height="8.65475" stroke="black" stroke-width="1" fill="blue" opacity="1" tooltip="enable"><title>(0.0269155,92)</title></rect><rect x="120" y="190.969" width="6" height="9.03104" stroke="black" stroke-width="1" fill="blue" opacity="1" tooltip="enable"><title>(0.0283321,96)</title></rect><rect x="126" y="188.335" width="6" height="11.6651" stroke="black" stroke-width="1" fill="blue" opacity="1" tooltip="enable"><title>(0.0297487,124)</title></rect><rect x="132" y="190.781" width="6" height="9.21919" stroke="black" stroke-width="1" fill="blue" opacity="1" tooltip="enable"><title>(0.0311653,98)</title></rect><rect x="138" y="192.098" width="6" height="7.90216" stroke="black" stroke-width="1" fill="blue" opacity="1" tooltip="enable"><title>(0.0325819,84)</title></rect><rect x="144" y="193.415" width="6" height="6.58514" stroke="black" stroke-width="1" fill="blue" opacity="1" tooltip="enable"><title>(0.0339985,70)</title></rect><rect x="150" y="192.286" width="6" height="7.71402" stroke="black" stroke-width="1" fill="blue" opacity="1" tooltip="enable"><title>(0.0354152,82)</title></rect><rect x="156" y="193.321" width="6" height="6.67921" stroke="black" stroke-width="1" fill="blue" opacity="1" tooltip="enable"><title>(0.0368318,71)</title></rect><rect x="162" y="191.816" width="6" height="8.18438" stroke="black" stroke-width="1" fill="blue" opacity="1" tooltip="enable"><title>(0.0382484,87)</title></rect><rect x="168" y="193.979" width="6" height="6.0207" stroke="black" stroke-width="1" fill="blue" opacity="1" tooltip="enable"><title>(0.039665,64)</title></rect><rect x="174" y="195.014" width="6" height="4.98589" stroke="black" stroke-width="1" fill="blue" opacity="1" tooltip="enable"><title>(0.0410816,53)</title></rect><rect x="180" y="195.202" width="6" height="4.79774" stroke="black" stroke-width="1" fill="blue" opacity="1" tooltip="enable"><title>(0.0424982,51)</title></rect><rect x="186" y="195.673" width="6" height="4.32738" stroke="black" stroke-width="1" fill="blue" opacity="1" tooltip="enable"><title>(0.0439148,46)</title></rect><rect x="192" y="196.99" width="6" height="3.01035" stroke="black" stroke-width="1" fill="blue" opacity="1" tooltip="enable"><title>(0.0453314,32)</title></rect><rect x="198" y="195.296" width="6" height="4.70367" stroke="black" stroke-width="1" fill="blue" opacity="1" tooltip="enable"><title>(0.046748,50)</title></rect><rect x="204" y="196.237" width="6" height="3.76294" stroke="black" stroke-width="1" fill="blue" opacity="1" tooltip="enable"><title>(0.0481646,40)</title></rect><rect x="210" y="196.801" width="6" height="3.19849" stroke="black" stroke-width="1" fill="blue" opacity="1" tooltip="enable"><title>(0.0495812,34)</title></rect><rect x="216" y="195.955" width="6" height="4.04516" stroke="black" stroke-width="1" fill="blue" opacity="1" tooltip="enable"><title>(0.0509978,43)</title></rect><rect x="222" y="198.213" width="6" height="1.78739" stroke="black" stroke-width="1" fill="blue" opacity="1" tooltip="enable"><title>(0.0524144,19)</title></rect><rect x="228" y="195.767" width="6" height="4.2333" stroke="black" stroke-width="1" fill="blue" opacity="1" tooltip="enable"><title>(0.053831,45)</title></rect><rect x="234" y="197.084" width="6" height="2.91627" stroke="black" stroke-width="1" fill="blue" opacity="1" tooltip="enable"><title>(0.0552476,31)</title></rect><rect x="240" y="197.178" width="6" height="2.8222" stroke="black" stroke-width="1" fill="blue" opacity="1" tooltip="enable"><title>(0.0566643,30)</title></rect><rect x="246" y="198.307" width="6" height="1.69332" stroke="black" stroke-width="1" fill="blue" opacity="1" tooltip="enable"><title>(0.0580809,18)</title></rect><rect x="252" y="197.554" width="6" height="2.44591" stroke="black" stroke-width="1" fill="blue" opacity="1" tooltip="enable"><title>(0.0594975,26)</title></rect><rect x="258" y="198.119" width="6" height="1.88147" stroke="black" stroke-width="1" fill="blue" opacity="1" tooltip="enable"><title>(0.0609141,20)</title></rect><rect x="264" y="197.742" width="6" height="2.25776" stroke="black" stroke-width="1" fill="blue" opacity="1" tooltip="enable"><title>(0.0623307,24)</title></rect><rect x="270" y="198.495" width="6" height="1.50517" stroke="black" stroke-width="1" fill="blue" opacity="1" tooltip="enable"><title>(0.0637473,16)</title></rect><rect x="276" y="198.401" width="6" height="1.59925" stroke="black" stroke-width="1" fill="blue" opacity="1" tooltip="enable"><title>(0.0651639,17)</title></rect><rect x="282" y="196.519" width="6" height="3.48072" stroke="black" stroke-width="1" fill="blue" opacity="1" tooltip="enable"><title>(0.0665805,37)</title></rect><rect x="288" y="197.836" width="6" height="2.16369" stroke="black" stroke-width="1" fill="blue" opacity="1" tooltip="enable"><title>(0.0679971,23)</title></rect><rect x="294" y="196.99" width="6" height="3.01035" stroke="black" stroke-width="1" fill="blue" opacity="1" tooltip="enable"><title>(0.0694137,32)</title></rect><rect x="300" y="197.648" width="6" height="2.35183" stroke="black" stroke-width="1" fill="blue" opacity="1" tooltip="enable"><title>(0.0708303,25)</title></rect><rect x="306" y="196.99" width="6" height="3.01035" stroke="black" stroke-width="1" fill="blue" opacity="1" tooltip="enable"><title>(0.0722469,32)</title></rect><rect x="312" y="198.683" width="6" height="1.31703" stroke="black" stroke-width="1" fill="blue" opacity="1" tooltip="enable"><title>(0.0736635,14)</title></rect><rect x="318" y="197.93" width="6" height="2.06961" stroke="black" stroke-width="1" fill="blue" opacity="1" tooltip="enable"><title>(0.0750801,22)</title></rect><rect x="324" y="197.46" width="6" height="2.53998" stroke="black" stroke-width="1" fill="blue" opacity="1" tooltip="enable"><title>(0.0764967,27)</title></rect><rect x="330" y="198.213" width="6" height="1.78739" stroke="black" stroke-width="1" fill="blue" opacity="1" tooltip="enable"><title>(0.0779134,19)</title></rect><rect x="336" y="198.871" width="6" height="1.12888" stroke="black" stroke-width="1" fill="blue" opacity="1" tooltip="enable"><title>(0.07933,12)</title></rect><rect x="342" y="197.742" width="6" height="2.25776" stroke="black" stroke-width="1" fill="blue" opacity="1" tooltip="enable"><title>(0.0807466,24)</title></rect><rect x="348" y="199.059" width="6" height="0.940734" stroke="black" stroke-width="1" fill="blue" opacity="1" tooltip="enable"><title>(0.0821632,10)</title></rect><rect x="354" y="198.871" width="6" height="1.12888" stroke="black" stroke-width="1" fill="blue" opacity="1" tooltip="enable"><title>(0.0835798,12)</title></rect><rect x="360" y="199.153" width="6" height="0.84666" stroke="black" stroke-width="1" fill="blue" opacity="1" tooltip="enable"><title>(0.0849964,9)</title></rect><rect x="366" y="197.742" width="6" height="2.25776" stroke="black" stroke-width="1" fill="blue" opacity="1" tooltip="enable"><title>(0.086413,24)</title></rect><rect x="372" y="197.648" width="6" height="2.35183" stroke="black" stroke-width="1" fill="blue" opacity="1" tooltip="enable"><title>(0.0878296,25)</title></rect><rect x="378" y="198.683" width="6" height="1.31703" stroke="black" stroke-width="1" fill="blue" opacity="1" tooltip="enable"><title>(0.0892462,14)</title></rect><rect x="384" y="199.247" width="6" height="0.752587" stroke="black" stroke-width="1" fill="blue" opacity="1" tooltip="enable"><title>(0.0906628,8)</title></rect><rect x="390" y="198.683" width="6" height="1.31703" stroke="black" stroke-width="1" fill="blue" opacity="1" tooltip="enable"><title>(0.0920794,14)</title></rect><rect x="396" y="199.812" width="6" height="0.188147" stroke="black" stroke-width="1" fill="blue" opacity="1" tooltip="enable"><title>(0.093496,2)</title></rect><rect x="402" y="199.624" width="6" height="0.376294" stroke="black" stroke-width="1" fill="blue" opacity="1" tooltip="enable"><title>(0.0949126,4)</title></rect><rect x="408" y="198.401" width="6" height="1.59925" stroke="black" stroke-width="1" fill="blue" opacity="1" tooltip="enable"><title>(0.0963292,17)</title></rect><rect x="414" y="199.153" width="6" height="0.84666" stroke="black" stroke-width="1" fill="blue" opacity="1" tooltip="enable"><title>(0.0977458,9)</title></rect><rect x="420" y="199.812" width="6" height="0.188147" stroke="black" stroke-width="1" fill="blue" opacity="1" tooltip="enable"><title>(0.0991624,2)</title></rect><rect x="426" y="199.436" width="6" height="0.56444" stroke="black" stroke-width="1" fill="blue" opacity="1" tooltip="enable"><title>(0.100579,6)</title></rect><rect x="432" y="199.624" width="6" height="0.376294" stroke="black" stroke-width="1" fill="blue" opacity="1" tooltip="enable"><title>(0.101996,4)</title></rect><rect x="438" y="199.624" width="6" height="0.376294" stroke="black" stroke-width="1" fill="blue" opacity="1" tooltip="enable"><title>(0.103412,4)</title></rect><rect x="444" y="199.812" width="6" height="0.188147" stroke="black" stroke-width="1" fill="blue" opacity="1" tooltip="enable"><title>(0.104829,2)</title></rect><rect x="450" y="199.341" width="6" height="0.658514" stroke="black" stroke-width="1" fill="blue" opacity="1" tooltip="enable"><title>(0.106245,7)</title></rect><rect x="456" y="199.53" width="6" height="0.470367" stroke="black" stroke-width="1" fill="blue" opacity="1" tooltip="enable"><title>(0.107662,5)</title></rect><rect x="462" y="199.436" width="6" height="0.56444" stroke="black" stroke-width="1" fill="blue" opacity="1" tooltip="enable"><title>(0.109079,6)</title></rect><rect x="468" y="199.624" width="6" height="0.376294" stroke="black" stroke-width="1" fill="blue" opacity="1" tooltip="enable"><title>(0.110495,4)</title></rect><rect x="474" y="199.624" width="6" height="0.376294" stroke="black" stroke-width="1" fill="blue" opacity="1" tooltip="enable"><title>(0.111912,4)</title></rect><rect x="480" y="199.624" width="6" height="0.376294" stroke="black" stroke-width="1" fill="blue" opacity="1" tooltip="enable"><title>(0.113329,4)</title></rect><rect x="486" y="200" width="6" height="0" stroke="black" stroke-width="1" fill="blue" opacity="1" tooltip="enable"><title>(0.114745,0)</title></rect><rect x="492" y="199.812" width="6" height="0.188147" stroke="black" stroke-width="1" fill="blue" opacity="1" tooltip="enable"><title>(0.116162,2)</title></rect><rect x="498" y="199.812" width="6" height="0.188147" stroke="black" stroke-width="1" fill="blue" opacity="1" tooltip="enable"><title>(0.117578,2)</title></rect><rect x="504" y="200" width="6" height="0" stroke="black" stroke-width="1" fill="blue" opacity="1" tooltip="enable"><title>(0.118995,0)</title></rect><rect x="510" y="199.812" width="6" height="0.188147" stroke="black" stroke-width="1" fill="blue" opacity="1" tooltip="enable"><title>(0.120412,2)</title></rect><rect x="516" y="200" width="6" height="0" stroke="black" stroke-width="1" fill="blue" opacity="1" tooltip="enable"><title>(0.121828,0)</title></rect><rect x="522" y="200" width="6" height="0" stroke="black" stroke-width="1" fill="blue" opacity="1" tooltip="enable"><title>(0.123245,0)</title></rect><rect x="528" y="200" width="6" height="0" stroke="black" stroke-width="1" fill="blue" opacity="1" tooltip="enable"><title>(0.124661,0)</title></rect><rect x="534" y="200" width="6" height="0" stroke="black" stroke-width="1" fill="blue" opacity="1" tooltip="enable"><title>(0.126078,0)</title></rect><rect x="540" y="200" width="6" height="0" stroke="black" stroke-width="1" fill="blue" opacity="1" tooltip="enable"><title>(0.127495,0)</title></rect><rect x="546" y="200" width="6" height="0" stroke="black" stroke-width="1" fill="blue" opacity="1" tooltip="enable"><title>(0.128911,0)</title></rect><rect x="552" y="200" width="6" height="0" stroke="black" stroke-width="1" fill="blue" opacity="1" tooltip="enable"><title>(0.130328,0)</title></rect><rect x="558" y="200" width="6" height="0" stroke="black" stroke-width="1" fill="blue" opacity="1" tooltip="enable"><title>(0.131744,0)</title></rect><rect x="564" y="200" width="6" height="0" stroke="black" stroke-width="1" fill="blue" opacity="1" tooltip="enable"><title>(0.133161,0)</title></rect><rect x="570" y="200" width="6" height="0" stroke="black" stroke-width="1" fill="blue" opacity="1" tooltip="enable"><title>(0.134578,0)</title></rect><rect x="576" y="199.812" width="6" height="0.188147" stroke="black" stroke-width="1" fill="blue" opacity="1" tooltip="enable"><title>(0.135994,2)</title></rect><rect x="582" y="199.812" width="6" height="0.188147" stroke="black" stroke-width="1" fill="blue" opacity="1" tooltip="enable"><title>(0.137411,2)</title></rect><rect x="588" y="200" width="6" height="0" stroke="black" stroke-width="1" fill="blue" opacity="1" tooltip="enable"><title>(0.138827,0)</title></rect><rect x="594" y="199.906" width="6" height="0.0940734" stroke="black" stroke-width="1" fill="blue" opacity="1" tooltip="enable"><title>(0.140244,1)</title></rect><text x="30" y="240" font-size="20" fill="black">0</text>
<text x="600" y="240" font-size="20" fill="black">0.141661</text>
<polyline points="0,220,600,220" stroke="black" stroke-width="1" fill="none" opacity="1"/>
<text x="720" y="20" font-size="20" fill="black">2126</text>
<text x="720" y="200" font-size="20" fill="black">0</text>
<polyline points="660,0,660,200" stroke="black" stroke-width="1" fill="none" opacity="1"/>
</svg>