<?xml version="1.0" standalone="yes"?>
<!-- SVG graphic -->
<svg xmlns='http://www.w3.org/2000/svg' xmlns:xlink='http://www.w3.org/1999/xlink'
 version="1.1">
<rect x="0" y="0" width="6" height="200" stroke="black" stroke-width="1" fill="blue" opacity="1" tooltip="enable"><title>(0,3206)</title></rect><rect x="6" y="142.109" width="6" height="57.8915" stroke="black" stroke-width="1" fill="blue" opacity="1" tooltip="enable"><title>(0.000729025,928)</title></rect><rect x="12" y="188.272" width="6" height="11.728" stroke="black" stroke-width="1" fill="blue" opacity="1" tooltip="enable"><title>(0.00145805,188)</title></rect><rect x="18" y="194.136" width="6" height="5.86401" stroke="black" stroke-width="1" fill="blue" opacity="1" tooltip="enable"><title>(0.00218708,94)</title></rect><rect x="24" y="193.886" width="6" height="6.11354" stroke="black" stroke-width="1" fill="blue" opacity="1" tooltip="enable"><title>(0.0029161,98)</title></rect><rect x="30" y="193.512" width="6" height="6.48784" stroke="black" stroke-width="1" fill="blue" opacity="1" tooltip="enable"><title>(0.00364513,104)</title></rect><rect x="36" y="194.386" width="6" height="5.61447" stroke="black" stroke-width="1" fill="blue" opacity="1" tooltip="enable"><title>(0.00437415,90)</title></rect><rect x="42" y="193.637" width="6" height="6.36307" stroke="black" stroke-width="1" fill="blue" opacity="1" tooltip="enable"><title>(0.00510318,102)</title></rect><rect x="48" y="192.639" width="6" height="7.3612" stroke="black" stroke-width="1" fill="blue" opacity="1" tooltip="enable"><title>(0.0058322,118)</title></rect><rect x="54" y="193.325" width="6" height="6.67498" stroke="black" stroke-width="1" fill="blue" opacity="1" tooltip="enable"><title>(0.00656123,107)</title></rect><rect x="60" y="194.198" width="6" height="5.80162" stroke="black" stroke-width="1" fill="blue" opacity="1" tooltip="enable"><title>(0.00729025,93)</title></rect><rect x="66" y="193.575" width="6" height="6.42545" stroke="black" stroke-width="1" fill="blue" opacity="1" tooltip="enable"><title>(0.00801928,103)</title></rect><rect x="72" y="194.011" width="6" height="5.98877" stroke="black" stroke-width="1" fill="blue" opacity="1" tooltip="enable"><title>(0.0087483,96)</title></rect><rect x="78" y="193.949" width="6" height="6.05115" stroke="black" stroke-width="1" fill="blue" opacity="1" tooltip="enable"><title>(0.00947733,97)</title></rect><rect x="84" y="194.51" width="6" height="5.48971" stroke="black" stroke-width="1" fill="blue" opacity="1" tooltip="enable"><title>(0.0102064,88)</title></rect><rect x="90" y="193.325" width="6" height="6.67498" stroke="black" stroke-width="1" fill="blue" opacity="1" tooltip="enable"><title>(0.0109354,107)</title></rect><rect x="96" y="194.822" width="6" height="5.17779" stroke="black" stroke-width="1" fill="blue" opacity="1" tooltip="enable"><title>(0.0116644,83)</title></rect><rect x="102" y="194.261" width="6" height="5.73924" stroke="black" stroke-width="1" fill="blue" opacity="1" tooltip="enable"><title>(0.0123934,92)</title></rect><rect x="108" y="193.824" width="6" height="6.17592" stroke="black" stroke-width="1" fill="blue" opacity="1" tooltip="enable"><title>(0.0131225,99)</title></rect><rect x="114" y="194.136" width="6" height="5.86401" stroke="black" stroke-width="1" fill="blue" opacity="1" tooltip="enable"><title>(0.0138515,94)</title></rect><rect x="120" y="193.824" width="6" height="6.17592" stroke="black" stroke-width="1" fill="blue" opacity="1" tooltip="enable"><title>(0.0145805,99)</title></rect><rect x="126" y="194.822" width="6" height="5.17779" stroke="black" stroke-width="1" fill="blue" opacity="1" tooltip="enable"><title>(0.0153095,83)</title></rect><rect x="132" y="196.818" width="6" height="3.18153" stroke="black" stroke-width="1" fill="blue" opacity="1" tooltip="enable"><title>(0.0160386,51)</title></rect><rect x="138" y="196.195" width="6" height="3.80537" stroke="black" stroke-width="1" fill="blue" opacity="1" tooltip="enable"><title>(0.0167676,61)</title></rect><rect x="144" y="195.134" width="6" height="4.86588" stroke="black" stroke-width="1" fill="blue" opacity="1" tooltip="enable"><title>(0.0174966,78)</title></rect><rect x="150" y="194.448" width="6" height="5.55209" stroke="black" stroke-width="1" fill="blue" opacity="1" tooltip="enable"><title>(0.0182256,89)</title></rect><rect x="156" y="195.82" width="6" height="4.17966" stroke="black" stroke-width="1" fill="blue" opacity="1" tooltip="enable"><title>(0.0189547,67)</title></rect><rect x="162" y="197.13" width="6" height="2.86962" stroke="black" stroke-width="1" fill="blue" opacity="1" tooltip="enable"><title>(0.0196837,46)</title></rect><rect x="168" y="194.885" width="6" height="5.11541" stroke="black" stroke-width="1" fill="blue" opacity="1" tooltip="enable"><title>(0.0204127,82)</title></rect><rect x="174" y="194.76" width="6" height="5.24017" stroke="black" stroke-width="1" fill="blue" opacity="1" tooltip="enable"><title>(0.0211417,84)</title></rect><rect x="180" y="195.696" width="6" height="4.30443" stroke="black" stroke-width="1" fill="blue" opacity="1" tooltip="enable"><title>(0.0218708,69)</title></rect><rect x="186" y="195.945" width="6" height="4.0549" stroke="black" stroke-width="1" fill="blue" opacity="1" tooltip="enable"><title>(0.0225998,65)</title></rect><rect x="192" y="195.321" width="6" height="4.67873" stroke="black" stroke-width="1" fill="blue" opacity="1" tooltip="enable"><title>(0.0233288,75)</title></rect><rect x="198" y="196.631" width="6" height="3.36868" stroke="black" stroke-width="1" fill="blue" opacity="1" tooltip="enable"><title>(0.0240578,54)</title></rect><rect x="204" y="197.193" width="6" height="2.80724" stroke="black" stroke-width="1" fill="blue" opacity="1" tooltip="enable"><title>(0.0247869,45)</title></rect><rect x="210" y="195.009" width="6" height="4.99064" stroke="black" stroke-width="1" fill="blue" opacity="1" tooltip="enable"><title>(0.0255159,80)</title></rect><rect x="216" y="195.508" width="6" height="4.49158" stroke="black" stroke-width="1" fill="blue" opacity="1" tooltip="enable"><title>(0.0262449,72)</title></rect><rect x="222" y="195.134" width="6" height="4.86588" stroke="black" stroke-width="1" fill="blue" opacity="1" tooltip="enable"><title>(0.0269739,78)</title></rect><rect x="228" y="196.818" width="6" height="3.18153" stroke="black" stroke-width="1" fill="blue" opacity="1" tooltip="enable"><title>(0.027703,51)</title></rect><rect x="234" y="196.631" width="6" height="3.36868" stroke="black" stroke-width="1" fill="blue" opacity="1" tooltip="enable"><title>(0.028432,54)</title></rect><rect x="240" y="197.442" width="6" height="2.5577" stroke="black" stroke-width="1" fill="blue" opacity="1" tooltip="enable"><title>(0.029161,41)</title></rect><rect x="246" y="196.07" width="6" height="3.93013" stroke="black" stroke-width="1" fill="blue" opacity="1" tooltip="enable"><title>(0.02989,63)</title></rect><rect x="252" y="198.191" width="6" height="1.80911" stroke="black" stroke-width="1" fill="blue" opacity="1" tooltip="enable"><title>(0.0306191,29)</title></rect><rect x="258" y="198.066" width="6" height="1.93387" stroke="black" stroke-width="1" fill="blue" opacity="1" tooltip="enable"><title>(0.0313481,31)</title></rect><rect x="264" y="197.629" width="6" height="2.37056" stroke="black" stroke-width="1" fill="blue" opacity="1" tooltip="enable"><title>(0.0320771,38)</title></rect><rect x="270" y="197.941" width="6" height="2.05864" stroke="black" stroke-width="1" fill="blue" opacity="1" tooltip="enable"><title>(0.0328061,33)</title></rect><rect x="276" y="198.378" width="6" height="1.62196" stroke="black" stroke-width="1" fill="blue" opacity="1" tooltip="enable"><title>(0.0335352,26)</title></rect><rect x="282" y="197.442" width="6" height="2.5577" stroke="black" stroke-width="1" fill="blue" opacity="1" tooltip="enable"><title>(0.0342642,41)</title></rect><rect x="288" y="198.877" width="6" height="1.12289" stroke="black" stroke-width="1" fill="blue" opacity="1" tooltip="enable"><title>(0.0349932,18)</title></rect><rect x="294" y="198.503" width="6" height="1.49719" stroke="black" stroke-width="1" fill="blue" opacity="1" tooltip="enable"><title>(0.0357222,24)</title></rect><rect x="300" y="197.879" width="6" height="2.12102" stroke="black" stroke-width="1" fill="blue" opacity="1" tooltip="enable"><title>(0.0364513,34)</title></rect><rect x="306" y="198.628" width="6" height="1.37243" stroke="black" stroke-width="1" fill="blue" opacity="1" tooltip="enable"><title>(0.0371803,22)</title></rect><rect x="312" y="198.628" width="6" height="1.37243" stroke="black" stroke-width="1" fill="blue" opacity="1" tooltip="enable"><title>(0.0379093,22)</title></rect><rect x="318" y="199.251" width="6" height="0.748596" stroke="black" stroke-width="1" fill="blue" opacity="1" tooltip="enable"><title>(0.0386383,12)</title></rect><rect x="324" y="198.44" width="6" height="1.55958" stroke="black" stroke-width="1" fill="blue" opacity="1" tooltip="enable"><title>(0.0393674,25)</title></rect><rect x="330" y="198.378" width="6" height="1.62196" stroke="black" stroke-width="1" fill="blue" opacity="1" tooltip="enable"><title>(0.0400964,26)</title></rect><rect x="336" y="199.189" width="6" height="0.810979" stroke="black" stroke-width="1" fill="blue" opacity="1" tooltip="enable"><title>(0.0408254,13)</title></rect><rect x="342" y="199.501" width="6" height="0.499064" stroke="black" stroke-width="1" fill="blue" opacity="1" tooltip="enable"><title>(0.0415544,8)</title></rect><rect x="348" y="199.251" width="6" height="0.748596" stroke="black" stroke-width="1" fill="blue" opacity="1" tooltip="enable"><title>(0.0422835,12)</title></rect><rect x="354" y="199.376" width="6" height="0.62383" stroke="black" stroke-width="1" fill="blue" opacity="1" tooltip="enable"><title>(0.0430125,10)</title></rect><rect x="360" y="199.626" width="6" height="0.374298" stroke="black" stroke-width="1" fill="blue" opacity="1" tooltip="enable"><title>(0.0437415,6)</title></rect><rect x="366" y="199.439" width="6" height="0.561447" stroke="black" stroke-width="1" fill="blue" opacity="1" tooltip="enable"><title>(0.0444705,9)</title></rect><rect x="372" y="199.688" width="6" height="0.311915" stroke="black" stroke-width="1" fill="blue" opacity="1" tooltip="enable"><title>(0.0451996,5)</title></rect><rect x="378" y="199.376" width="6" height="0.62383" stroke="black" stroke-width="1" fill="blue" opacity="1" tooltip="enable"><title>(0.0459286,10)</title></rect><rect x="384" y="200" width="6" height="0" stroke="black" stroke-width="1" fill="blue" opacity="1" tooltip="enable"><title>(0.0466576,0)</title></rect><rect x="390" y="199.813" width="6" height="0.187149" stroke="black" stroke-width="1" fill="blue" opacity="1" tooltip="enable"><title>(0.0473866,3)</title></rect><rect x="396" y="199.439" width="6" height="0.561447" stroke="black" stroke-width="1" fill="blue" opacity="1" tooltip="enable"><title>(0.0481157,9)</title></rect><rect x="402" y="199.376" width="6" height="0.62383" stroke="black" stroke-width="1" fill="blue" opacity="1" tooltip="enable"><title>(0.0488447,10)</title></rect><rect x="408" y="199.563" width="6" height="0.436681" stroke="black" stroke-width="1" fill="blue" opacity="1" tooltip="enable"><title>(0.0495737,7)</title></rect><rect x="414" y="199.439" width="6" height="0.561447" stroke="black" stroke-width="1" fill="blue" opacity="1" tooltip="enable"><title>(0.0503027,9)</title></rect><rect x="420" y="199.626" width="6" height="0.374298" stroke="black" stroke-width="1" fill="blue" opacity="1" tooltip="enable"><title>(0.0510318,6)</title></rect><rect x="426" y="199.626" width="6" height="0.374298" stroke="black" stroke-width="1" fill="blue" opacity="1" tooltip="enable"><title>(0.0517608,6)</title></rect><rect x="432" y="200" width="6" height="0" stroke="black" stroke-width="1" fill="blue" opacity="1" tooltip="enable"><title>(0.0524898,0)</title></rect><rect x="438" y="199.75" width="6" height="0.249532" stroke="black" stroke-width="1" fill="blue" opacity="1" tooltip="enable"><title>(0.0532188,4)</title></rect><rect x="444" y="199.626" width="6" height="0.374298" stroke="black" stroke-width="1" fill="blue" opacity="1" tooltip="enable"><title>(0.0539479,6)</title></rect><rect x="450" y="199.875" width="6" height="0.124766" stroke="black" stroke-width="1" fill="blue" opacity="1" tooltip="enable"><title>(0.0546769,2)</title></rect><rect x="456" y="199.875" width="6" height="0.124766" stroke="black" stroke-width="1" fill="blue" opacity="1" tooltip="enable"><title>(0.0554059,2)</title></rect><rect x="462" y="200" width="6" height="0" stroke="black" stroke-width="1" fill="blue" opacity="1" tooltip="enable"><title>(0.0561349,0)</title></rect><rect x="468" y="200" width="6" height="0" stroke="black" stroke-width="1" fill="blue" opacity="1" tooltip="enable"><title>(0.056864,0)</title></rect><rect x="474" y="200" width="6" height="0" stroke="black" stroke-width="1" fill="blue" opacity="1" tooltip="enable"><title>(0.057593,0)</title></rect><rect x="480" y="200" width="6" height="0" stroke="black" stroke-width="1" fill="blue" opacity="1" tooltip="enable"><title>(0.058322,0)</title></rect><rect x="486" y="200" width="6" height="0" stroke="black" stroke-width="1" fill="blue" opacity="1" tooltip="enable"><title>(0.059051,0)</title></rect><rect x="492" y="200" width="6" height="0" stroke="black" stroke-width="1" fill="blue" opacity="1" tooltip="enable"><title>(0.0597801,0)</title></rect><rect x="498" y="200" width="6" height="0" stroke="black" stroke-width="1" fill="blue" opacity="1" tooltip="enable"><title>(0.0605091,0)</title></rect><rect x="504" y="200" width="6" height="0" stroke="black" stroke-width="1" fill="blue" opacity="1" tooltip="enable"><title>(0.0612381,0)</title></rect><rect x="510" y="200" width="6" height="0" stroke="black" stroke-width="1" fill="blue" opacity="1" tooltip="enable"><title>(0.0619672,0)</title></rect><rect x="516" y="199.875" width="6" height="0.124766" stroke="black" stroke-width="1" fill="blue" opacity="1" tooltip="enable"><title>(0.0626962,2)</title></rect><rect x="522" y="200" width="6" height="0" stroke="black" stroke-width="1" fill="blue" opacity="1" tooltip="enable"><title>(0.0634252,0)</title></rect><rect x="528" y="199.938" width="6" height="0.062383" stroke="black" stroke-width="1" fill="blue" opacity="1" tooltip="enable"><title>(0.0641542,1)</title></rect><rect x="534" y="199.938" width="6" height="0.062383" stroke="black" stroke-width="1" fill="blue" opacity="1" tooltip="enable"><title>(0.0648833,1)</title></rect><rect x="540" y="199.875" width="6" height="0.124766" stroke="black" stroke-width="1" fill="blue" opacity="1" tooltip="enable"><title>(0.0656123,2)</title></rect><rect x="546" y="200" width="6" height="0" stroke="black" stroke-width="1" fill="blue" opacity="1" tooltip="enable"><title>(0.0663413,0)</title></rect><rect x="552" y="200" width="6" height="0" stroke="black" stroke-width="1" fill="blue" opacity="1" tooltip="enable"><title>(0.0670703,0)</title></rect><rect x="558" y="200" width="6" height="0" stroke="black" stroke-width="1" fill="blue" opacity="1" tooltip="enable"><title>(0.0677994,0)</title></rect><rect x="564" y="200" width="6" height="0" stroke="black" stroke-width="1" fill="blue" opacity="1" tooltip="enable"><title>(0.0685284,0)</title></rect><rect x="570" y="200" width="6" height="0" stroke="black" stroke-width="1" fill="blue" opacity="1" tooltip="enable"><title>(0.0692574,0)</title></rect><rect x="576" y="200" width="6" height="0" stroke="black" stroke-width="1" fill="blue" opacity="1" tooltip="enable"><title>(0.0699864,0)</title></rect><rect x="582" y="200" width="6" height="0" stroke="black" stroke-width="1" fill="blue" opacity="1" tooltip="enable"><title>(0.0707155,0)</title></rect><rect x="588" y="200" width="6" height="0" stroke="black" stroke-width="1" fill="blue" opacity="1" tooltip="enable"><title>(0.0714445,0)</title></rect><rect x="594" y="199.938" width="6" height="0.062383" stroke="black" stroke-width="1" fill="blue" opacity="1" tooltip="enable"><title>(0.0721735,1)</title></rect><text x="30" y="240" font-size="20" fill="black">0</text>
<text x="600" y="240" font-size="20" fill="black">0.0729025</text>
<polyline points="0,220,600,220" stroke="black" stroke-width="1" fill="none" opacity="1"/>
<text x="720" y="20" font-size="20" fill="black">3206</text>
<text x="720" y="200" font-size="20" fill="black">0</text>
<polyline points="660,0,660,200" stroke="black" stroke-width="1" fill="none" opacity="1"/>
</svg>