<?xml version="1.0" standalone="yes"?>
<!-- SVG graphic -->
<svg xmlns='http://www.w3.org/2000/svg' xmlns:xlink='http://www.w3.org/1999/xlink'
 version="1.1">
<rect x="0" y="0" width="6" height="200" stroke="black" stroke-width="1" fill="blue" opacity="1" tooltip="enable"><title>(0,2148)</title></rect><rect x="6" y="53.352" width="6" height="146.648" stroke="black" stroke-width="1" fill="blue" opacity="1" tooltip="enable"><title>(0.00163792,1575)</title></rect><rect x="12" y="124.209" width="6" height="75.7914" stroke="black" stroke-width="1" fill="blue" opacity="1" tooltip="enable"><title>(0.00327583,814)</title></rect><rect x="18" y="163.035" width="6" height="36.9646" stroke="black" stroke-width="1" fill="blue" opacity="1" tooltip="enable"><title>(0.00491375,397)</title></rect><rect x="24" y="174.767" width="6" height="25.2328" stroke="black" stroke-width="1" fill="blue" opacity="1" tooltip="enable"><title>(0.00655167,271)</title></rect><rect x="30" y="179.236" width="6" height="20.7635" stroke="black" stroke-width="1" fill="blue" opacity="1" tooltip="enable"><title>(0.00818958,223)</title></rect><rect x="36" y="184.823" width="6" height="15.1769" stroke="black" stroke-width="1" fill="blue" opacity="1" tooltip="enable"><title>(0.0098275,163)</title></rect><rect x="42" y="185.382" width="6" height="14.6182" stroke="black" stroke-width="1" fill="blue" opacity="1" tooltip="enable"><title>(0.0114654,157)</title></rect><rect x="48" y="182.775" width="6" height="17.2253" stroke="black" stroke-width="1" fill="blue" opacity="1" tooltip="enable"><title>(0.0131033,185)</title></rect><rect x="54" y="182.495" width="6" height="17.5047" stroke="black" stroke-width="1" fill="blue" opacity="1" tooltip="enable"><title>(0.0147413,188)</title></rect><rect x="60" y="183.985" width="6" height="16.0149" stroke="black" stroke-width="1" fill="blue" opacity="1" tooltip="enable"><title>(0.0163792,172)</title></rect><rect x="66" y="183.613" width="6" height="16.3873" stroke="black" stroke-width="1" fill="blue" opacity="1" tooltip="enable"><title>(0.0180171,176)</title></rect><rect x="72" y="185.754" width="6" height="14.2458" stroke="black" stroke-width="1" fill="blue" opacity="1" tooltip="enable"><title>(0.019655,153)</title></rect><rect x="78" y="186.034" width="6" height="13.9665" stroke="black" stroke-width="1" fill="blue" opacity="1" tooltip="enable"><title>(0.0212929,150)</title></rect><rect x="84" y="187.523" width="6" height="12.4767" stroke="black" stroke-width="1" fill="blue" opacity="1" tooltip="enable"><title>(0.0229308,134)</title></rect><rect x="90" y="187.896" width="6" height="12.1043" stroke="black" stroke-width="1" fill="blue" opacity="1" tooltip="enable"><title>(0.0245688,130)</title></rect><rect x="96" y="189.106" width="6" height="10.8939" stroke="black" stroke-width="1" fill="blue" opacity="1" tooltip="enable"><title>(0.0262067,117)</title></rect><rect x="102" y="187.244" width="6" height="12.7561" stroke="black" stroke-width="1" fill="blue" opacity="1" tooltip="enable"><title>(0.0278446,137)</title></rect><rect x="108" y="190.875" width="6" height="9.12477" stroke="black" stroke-width="1" fill="blue" opacity="1" tooltip="enable"><title>(0.0294825,98)</title></rect><rect x="114" y="191.993" width="6" height="8.00745" stroke="black" stroke-width="1" fill="blue" opacity="1" tooltip="enable"><title>(0.0311204,86)</title></rect><rect x="120" y="192.924" width="6" height="7.07635" stroke="black" stroke-width="1" fill="blue" opacity="1" tooltip="enable"><title>(0.0327583,76)</title></rect><rect x="126" y="195.531" width="6" height="4.46927" stroke="black" stroke-width="1" fill="blue" opacity="1" tooltip="enable"><title>(0.0343962,48)</title></rect><rect x="132" y="194.413" width="6" height="5.58659" stroke="black" stroke-width="1" fill="blue" opacity="1" tooltip="enable"><title>(0.0360342,60)</title></rect><rect x="138" y="196.182" width="6" height="3.8175" stroke="black" stroke-width="1" fill="blue" opacity="1" tooltip="enable"><title>(0.0376721,41)</title></rect><rect x="144" y="196.369" width="6" height="3.63128" stroke="black" stroke-width="1" fill="blue" opacity="1" tooltip="enable"><title>(0.03931,39)</title></rect><rect x="150" y="196.834" width="6" height="3.16574" stroke="black" stroke-width="1" fill="blue" opacity="1" tooltip="enable"><title>(0.0409479,34)</title></rect><rect x="156" y="197.02" width="6" height="2.97952" stroke="black" stroke-width="1" fill="blue" opacity="1" tooltip="enable"><title>(0.0425858,32)</title></rect><rect x="162" y="198.138" width="6" height="1.8622" stroke="black" stroke-width="1" fill="blue" opacity="1" tooltip="enable"><title>(0.0442238,20)</title></rect><rect x="168" y="198.324" width="6" height="1.67598" stroke="black" stroke-width="1" fill="blue" opacity="1" tooltip="enable"><title>(0.0458617,18)</title></rect><rect x="174" y="198.603" width="6" height="1.39665" stroke="black" stroke-width="1" fill="blue" opacity="1" tooltip="enable"><title>(0.0474996,15)</title></rect><rect x="180" y="198.603" width="6" height="1.39665" stroke="black" stroke-width="1" fill="blue" opacity="1" tooltip="enable"><title>(0.0491375,15)</title></rect><rect x="186" y="198.324" width="6" height="1.67598" stroke="black" stroke-width="1" fill="blue" opacity="1" tooltip="enable"><title>(0.0507754,18)</title></rect><rect x="192" y="199.255" width="6" height="0.744879" stroke="black" stroke-width="1" fill="blue" opacity="1" tooltip="enable"><title>(0.0524133,8)</title></rect><rect x="198" y="198.696" width="6" height="1.30354" stroke="black" stroke-width="1" fill="blue" opacity="1" tooltip="enable"><title>(0.0540513,14)</title></rect><rect x="204" y="199.069" width="6" height="0.931099" stroke="black" stroke-width="1" fill="blue" opacity="1" tooltip="enable"><title>(0.0556892,10)</title></rect><rect x="210" y="199.255" width="6" height="0.744879" stroke="black" stroke-width="1" fill="blue" opacity="1" tooltip="enable"><title>(0.0573271,8)</title></rect><rect x="216" y="199.628" width="6" height="0.372439" stroke="black" stroke-width="1" fill="blue" opacity="1" tooltip="enable"><title>(0.058965,4)</title></rect><rect x="222" y="200" width="6" height="0" stroke="black" stroke-width="1" fill="blue" opacity="1" tooltip="enable"><title>(0.0606029,0)</title></rect><rect x="228" y="199.441" width="6" height="0.558659" stroke="black" stroke-width="1" fill="blue" opacity="1" tooltip="enable"><title>(0.0622408,6)</title></rect><rect x="234" y="199.814" width="6" height="0.18622" stroke="black" stroke-width="1" fill="blue" opacity="1" tooltip="enable"><title>(0.0638788,2)</title></rect><rect x="240" y="199.628" width="6" height="0.372439" stroke="black" stroke-width="1" fill="blue" opacity="1" tooltip="enable"><title>(0.0655167,4)</title></rect><rect x="246" y="199.441" width="6" height="0.558659" stroke="black" stroke-width="1" fill="blue" opacity="1" tooltip="enable"><title>(0.0671546,6)</title></rect><rect x="252" y="200" width="6" height="0" stroke="black" stroke-width="1" fill="blue" opacity="1" tooltip="enable"><title>(0.0687925,0)</title></rect><rect x="258" y="199.069" width="6" height="0.931099" stroke="black" stroke-width="1" fill="blue" opacity="1" tooltip="enable"><title>(0.0704304,10)</title></rect><rect x="264" y="199.441" width="6" height="0.558659" stroke="black" stroke-width="1" fill="blue" opacity="1" tooltip="enable"><title>(0.0720683,6)</title></rect><rect x="270" y="200" width="6" height="0" stroke="black" stroke-width="1" fill="blue" opacity="1" tooltip="enable"><title>(0.0737062,0)</title></rect><rect x="276" y="199.628" width="6" height="0.372439" stroke="black" stroke-width="1" fill="blue" opacity="1" tooltip="enable"><title>(0.0753442,4)</title></rect><rect x="282" y="200" width="6" height="0" stroke="black" stroke-width="1" fill="blue" opacity="1" tooltip="enable"><title>(0.0769821,0)</title></rect><rect x="288" y="199.814" width="6" height="0.18622" stroke="black" stroke-width="1" fill="blue" opacity="1" tooltip="enable"><title>(0.07862,2)</title></rect><rect x="294" y="199.814" width="6" height="0.18622" stroke="black" stroke-width="1" fill="blue" opacity="1" tooltip="enable"><title>(0.0802579,2)</title></rect><rect x="300" y="200" width="6" height="0" stroke="black" stroke-width="1" fill="blue" opacity="1" tooltip="enable"><title>(0.0818958,0)</title></rect><rect x="306" y="200" width="6" height="0" stroke="black" stroke-width="1" fill="blue" opacity="1" tooltip="enable"><title>(0.0835337,0)</title></rect><rect x="312" y="200" width="6" height="0" stroke="black" stroke-width="1" fill="blue" opacity="1" tooltip="enable"><title>(0.0851717,0)</title></rect><rect x="318" y="200" width="6" height="0" stroke="black" stroke-width="1" fill="blue" opacity="1" tooltip="enable"><title>(0.0868096,0)</title></rect><rect x="324" y="199.628" width="6" height="0.372439" stroke="black" stroke-width="1" fill="blue" opacity="1" tooltip="enable"><title>(0.0884475,4)</title></rect><rect x="330" y="200" width="6" height="0" stroke="black" stroke-width="1" fill="blue" opacity="1" tooltip="enable"><title>(0.0900854,0)</title></rect><rect x="336" y="200" width="6" height="0" stroke="black" stroke-width="1" fill="blue" opacity="1" tooltip="enable"><title>(0.0917233,0)</title></rect><rect x="342" y="199.814" width="6" height="0.18622" stroke="black" stroke-width="1" fill="blue" opacity="1" tooltip="enable"><title>(0.0933613,2)</title></rect><rect x="348" y="200" width="6" height="0" stroke="black" stroke-width="1" fill="blue" opacity="1" tooltip="enable"><title>(0.0949992,0)</title></rect><rect x="354" y="200" width="6" height="0" stroke="black" stroke-width="1" fill="blue" opacity="1" tooltip="enable"><title>(0.0966371,0)</title></rect><rect x="360" y="200" width="6" height="0" stroke="black" stroke-width="1" fill="blue" opacity="1" tooltip="enable"><title>(0.098275,0)</title></rect><rect x="366" y="200" width="6" height="0" stroke="black" stroke-width="1" fill="blue" opacity="1" tooltip="enable"><title>(0.0999129,0)</title></rect><rect x="372" y="200" width="6" height="0" stroke="black" stroke-width="1" fill="blue" opacity="1" tooltip="enable"><title>(0.101551,0)</title></rect><rect x="378" y="200" width="6" height="0" stroke="black" stroke-width="1" fill="blue" opacity="1" tooltip="enable"><title>(0.103189,0)</title></rect><rect x="384" y="199.814" width="6" height="0.18622" stroke="black" stroke-width="1" fill="blue" opacity="1" tooltip="enable"><title>(0.104827,2)</title></rect><rect x="390" y="200" width="6" height="0" stroke="black" stroke-width="1" fill="blue" opacity="1" tooltip="enable"><title>(0.106465,0)</title></rect><rect x="396" y="200" width="6" height="0" stroke="black" stroke-width="1" fill="blue" opacity="1" tooltip="enable"><title>(0.108103,0)</title></rect><rect x="402" y="200" width="6" height="0" stroke="black" stroke-width="1" fill="blue" opacity="1" tooltip="enable"><title>(0.10974,0)</title></rect><rect x="408" y="200" width="6" height="0" stroke="black" stroke-width="1" fill="blue" opacity="1" tooltip="enable"><title>(0.111378,0)</title></rect><rect x="414" y="200" width="6" height="0" stroke="black" stroke-width="1" fill="blue" opacity="1" tooltip="enable"><title>(0.113016,0)</title></rect><rect x="420" y="199.628" width="6" height="0.372439" stroke="black" stroke-width="1" fill="blue" opacity="1" tooltip="enable"><title>(0.114654,4)</title></rect><rect x="426" y="199.814" width="6" height="0.18622" stroke="black" stroke-width="1" fill="blue" opacity="1" tooltip="enable"><title>(0.116292,2)</title></rect><rect x="432" y="200" width="6" height="0" stroke="black" stroke-width="1" fill="blue" opacity="1" tooltip="enable"><title>(0.11793,0)</title></rect><rect x="438" y="200" width="6" height="0" stroke="black" stroke-width="1" fill="blue" opacity="1" tooltip="enable"><title>(0.119568,0)</title></rect><rect x="444" y="200" width="6" height="0" stroke="black" stroke-width="1" fill="blue" opacity="1" tooltip="enable"><title>(0.121206,0)</title></rect><rect x="450" y="199.814" width="6" height="0.18622" stroke="black" stroke-width="1" fill="blue" opacity="1" tooltip="enable"><title>(0.122844,2)</title></rect><rect x="456" y="200" width="6" height="0" stroke="black" stroke-width="1" fill="blue" opacity="1" tooltip="enable"><title>(0.124482,0)</title></rect><rect x="462" y="200" width="6" height="0" stroke="black" stroke-width="1" fill="blue" opacity="1" tooltip="enable"><title>(0.12612,0)</title></rect><rect x="468" y="200" width="6" height="0" stroke="black" stroke-width="1" fill="blue" opacity="1" tooltip="enable"><title>(0.127758,0)</title></rect><rect x="474" y="200" width="6" height="0" stroke="black" stroke-width="1" fill="blue" opacity="1" tooltip="enable"><title>(0.129395,0)</title></rect><rect x="480" y="200" width="6" height="0" stroke="black" stroke-width="1" fill="blue" opacity="1" tooltip="enable"><title>(0.131033,0)</title></rect><rect x="486" y="200" width="6" height="0" stroke="black" stroke-width="1" fill="blue" opacity="1" tooltip="enable"><title>(0.132671,0)</title></rect><rect x="492" y="199.814" width="6" height="0.18622" stroke="black" stroke-width="1" fill="blue" opacity="1" tooltip="enable"><title>(0.134309,2)</title></rect><rect x="498" y="200" width="6" height="0" stroke="black" stroke-width="1" fill="blue" opacity="1" tooltip="enable"><title>(0.135947,0)</title></rect><rect x="504" y="200" width="6" height="0" stroke="black" stroke-width="1" fill="blue" opacity="1" tooltip="enable"><title>(0.137585,0)</title></rect><rect x="510" y="200" width="6" height="0" stroke="black" stroke-width="1" fill="blue" opacity="1" tooltip="enable"><title>(0.139223,0)</title></rect><rect x="516" y="200" width="6" height="0" stroke="black" stroke-width="1" fill="blue" opacity="1" tooltip="enable"><title>(0.140861,0)</title></rect><rect x="522" y="200" width="6" height="0" stroke="black" stroke-width="1" fill="blue" opacity="1" tooltip="enable"><title>(0.142499,0)</title></rect><rect x="528" y="200" width="6" height="0" stroke="black" stroke-width="1" fill="blue" opacity="1" tooltip="enable"><title>(0.144137,0)</title></rect><rect x="534" y="200" width="6" height="0" stroke="black" stroke-width="1" fill="blue" opacity="1" tooltip="enable"><title>(0.145775,0)</title></rect><rect x="540" y="200" width="6" height="0" stroke="black" stroke-width="1" fill="blue" opacity="1" tooltip="enable"><title>(0.147412,0)</title></rect><rect x="546" y="200" width="6" height="0" stroke="black" stroke-width="1" fill="blue" opacity="1" tooltip="enable"><title>(0.14905,0)</title></rect><rect x="552" y="200" width="6" height="0" stroke="black" stroke-width="1" fill="blue" opacity="1" tooltip="enable"><title>(0.150688,0)</title></rect><rect x="558" y="200" width="6" height="0" stroke="black" stroke-width="1" fill="blue" opacity="1" tooltip="enable"><title>(0.152326,0)</title></rect><rect x="564" y="200" width="6" height="0" stroke="black" stroke-width="1" fill="blue" opacity="1" tooltip="enable"><title>(0.153964,0)</title></rect><rect x="570" y="200" width="6" height="0" stroke="black" stroke-width="1" fill="blue" opacity="1" tooltip="enable"><title>(0.155602,0)</title></rect><rect x="576" y="200" width="6" height="0" stroke="black" stroke-width="1" fill="blue" opacity="1" tooltip="enable"><title>(0.15724,0)</title></rect><rect x="582" y="200" width="6" height="0" stroke="black" stroke-width="1" fill="blue" opacity="1" tooltip="enable"><title>(0.158878,0)</title></rect><rect x="588" y="199.814" width="6" height="0.18622" stroke="black" stroke-width="1" fill="blue" opacity="1" tooltip="enable"><title>(0.160516,2)</title></rect><rect x="594" y="199.721" width="6" height="0.27933" stroke="black" stroke-width="1" fill="blue" opacity="1" tooltip="enable"><title>(0.162154,3)</title></rect><text x="30" y="240" font-size="20" fill="black">0</text>
<text x="600" y="240" font-size="20" fill="black">0.163792</text>
<polyline points="0,220,600,220" stroke="black" stroke-width="1" fill="none" opacity="1"/>
<text x="720" y="20" font-size="20" fill="black">2148</text>
<text x="720" y="200" font-size="20" fill="black">0</text>
<polyline points="660,0,660,200" stroke="black" stroke-width="1" fill="none" opacity="1"/>
</svg>