<?xml version="1.0" standalone="yes"?>
<!-- SVG graphic -->
<svg xmlns='http://www.w3.org/2000/svg' xmlns:xlink='http://www.w3.org/1999/xlink'
 version="1.1">
<rect x="0" y="0" width="6" height="200" stroke="black" stroke-width="1" fill="blue" opacity="1" tooltip="enable"><title>(0,2119)</title></rect><rect x="6" y="51.7225" width="6" height="148.277" stroke="black" stroke-width="1" fill="blue" opacity="1" tooltip="enable"><title>(0.00163249,1571)</title></rect><rect x="12" y="120.906" width="6" height="79.0939" stroke="black" stroke-width="1" fill="blue" opacity="1" tooltip="enable"><title>(0.00326498,838)</title></rect><rect x="18" y="162.624" width="6" height="37.3761" stroke="black" stroke-width="1" fill="blue" opacity="1" tooltip="enable"><title>(0.00489748,396)</title></rect><rect x="24" y="173.856" width="6" height="26.1444" stroke="black" stroke-width="1" fill="blue" opacity="1" tooltip="enable"><title>(0.00652997,277)</title></rect><rect x="30" y="178.669" width="6" height="21.3308" stroke="black" stroke-width="1" fill="blue" opacity="1" tooltip="enable"><title>(0.00816246,226)</title></rect><rect x="36" y="184.615" width="6" height="15.3846" stroke="black" stroke-width="1" fill="blue" opacity="1" tooltip="enable"><title>(0.00979495,163)</title></rect><rect x="42" y="185.465" width="6" height="14.5352" stroke="black" stroke-width="1" fill="blue" opacity="1" tooltip="enable"><title>(0.0114274,154)</title></rect><rect x="48" y="182.161" width="6" height="17.8386" stroke="black" stroke-width="1" fill="blue" opacity="1" tooltip="enable"><title>(0.0130599,189)</title></rect><rect x="54" y="182.161" width="6" height="17.8386" stroke="black" stroke-width="1" fill="blue" opacity="1" tooltip="enable"><title>(0.0146924,189)</title></rect><rect x="60" y="184.143" width="6" height="15.8565" stroke="black" stroke-width="1" fill="blue" opacity="1" tooltip="enable"><title>(0.0163249,168)</title></rect><rect x="66" y="183.672" width="6" height="16.3285" stroke="black" stroke-width="1" fill="blue" opacity="1" tooltip="enable"><title>(0.0179574,173)</title></rect><rect x="72" y="185.182" width="6" height="14.8183" stroke="black" stroke-width="1" fill="blue" opacity="1" tooltip="enable"><title>(0.0195899,157)</title></rect><rect x="78" y="186.031" width="6" height="13.9689" stroke="black" stroke-width="1" fill="blue" opacity="1" tooltip="enable"><title>(0.0212224,148)</title></rect><rect x="84" y="187.164" width="6" height="12.8362" stroke="black" stroke-width="1" fill="blue" opacity="1" tooltip="enable"><title>(0.0228549,136)</title></rect><rect x="90" y="188.296" width="6" height="11.7036" stroke="black" stroke-width="1" fill="blue" opacity="1" tooltip="enable"><title>(0.0244874,124)</title></rect><rect x="96" y="188.485" width="6" height="11.5149" stroke="black" stroke-width="1" fill="blue" opacity="1" tooltip="enable"><title>(0.0261199,122)</title></rect><rect x="102" y="188.485" width="6" height="11.5149" stroke="black" stroke-width="1" fill="blue" opacity="1" tooltip="enable"><title>(0.0277524,122)</title></rect><rect x="108" y="189.24" width="6" height="10.7598" stroke="black" stroke-width="1" fill="blue" opacity="1" tooltip="enable"><title>(0.0293849,114)</title></rect><rect x="114" y="192.166" width="6" height="7.83388" stroke="black" stroke-width="1" fill="blue" opacity="1" tooltip="enable"><title>(0.0310174,83)</title></rect><rect x="120" y="192.638" width="6" height="7.36196" stroke="black" stroke-width="1" fill="blue" opacity="1" tooltip="enable"><title>(0.0326498,78)</title></rect><rect x="126" y="195.658" width="6" height="4.34167" stroke="black" stroke-width="1" fill="blue" opacity="1" tooltip="enable"><title>(0.0342823,46)</title></rect><rect x="132" y="194.62" width="6" height="5.3799" stroke="black" stroke-width="1" fill="blue" opacity="1" tooltip="enable"><title>(0.0359148,57)</title></rect><rect x="138" y="196.036" width="6" height="3.96413" stroke="black" stroke-width="1" fill="blue" opacity="1" tooltip="enable"><title>(0.0375473,42)</title></rect><rect x="144" y="196.036" width="6" height="3.96413" stroke="black" stroke-width="1" fill="blue" opacity="1" tooltip="enable"><title>(0.0391798,42)</title></rect><rect x="150" y="196.885" width="6" height="3.11468" stroke="black" stroke-width="1" fill="blue" opacity="1" tooltip="enable"><title>(0.0408123,33)</title></rect><rect x="156" y="197.452" width="6" height="2.54837" stroke="black" stroke-width="1" fill="blue" opacity="1" tooltip="enable"><title>(0.0424448,27)</title></rect><rect x="162" y="197.546" width="6" height="2.45399" stroke="black" stroke-width="1" fill="blue" opacity="1" tooltip="enable"><title>(0.0440773,26)</title></rect><rect x="168" y="197.924" width="6" height="2.07645" stroke="black" stroke-width="1" fill="blue" opacity="1" tooltip="enable"><title>(0.0457098,22)</title></rect><rect x="174" y="198.867" width="6" height="1.13261" stroke="black" stroke-width="1" fill="blue" opacity="1" tooltip="enable"><title>(0.0473423,12)</title></rect><rect x="180" y="198.301" width="6" height="1.69891" stroke="black" stroke-width="1" fill="blue" opacity="1" tooltip="enable"><title>(0.0489748,18)</title></rect><rect x="186" y="198.867" width="6" height="1.13261" stroke="black" stroke-width="1" fill="blue" opacity="1" tooltip="enable"><title>(0.0506073,12)</title></rect><rect x="192" y="198.867" width="6" height="1.13261" stroke="black" stroke-width="1" fill="blue" opacity="1" tooltip="enable"><title>(0.0522397,12)</title></rect><rect x="198" y="198.49" width="6" height="1.51015" stroke="black" stroke-width="1" fill="blue" opacity="1" tooltip="enable"><title>(0.0538722,16)</title></rect><rect x="204" y="199.056" width="6" height="0.943841" stroke="black" stroke-width="1" fill="blue" opacity="1" tooltip="enable"><title>(0.0555047,10)</title></rect><rect x="210" y="199.434" width="6" height="0.566305" stroke="black" stroke-width="1" fill="blue" opacity="1" tooltip="enable"><title>(0.0571372,6)</title></rect><rect x="216" y="199.434" width="6" height="0.566305" stroke="black" stroke-width="1" fill="blue" opacity="1" tooltip="enable"><title>(0.0587697,6)</title></rect><rect x="222" y="200" width="6" height="0" stroke="black" stroke-width="1" fill="blue" opacity="1" tooltip="enable"><title>(0.0604022,0)</title></rect><rect x="228" y="199.434" width="6" height="0.566305" stroke="black" stroke-width="1" fill="blue" opacity="1" tooltip="enable"><title>(0.0620347,6)</title></rect><rect x="234" y="199.811" width="6" height="0.188768" stroke="black" stroke-width="1" fill="blue" opacity="1" tooltip="enable"><title>(0.0636672,2)</title></rect><rect x="240" y="199.622" width="6" height="0.377537" stroke="black" stroke-width="1" fill="blue" opacity="1" tooltip="enable"><title>(0.0652997,4)</title></rect><rect x="246" y="199.528" width="6" height="0.471921" stroke="black" stroke-width="1" fill="blue" opacity="1" tooltip="enable"><title>(0.0669322,5)</title></rect><rect x="252" y="199.906" width="6" height="0.0943841" stroke="black" stroke-width="1" fill="blue" opacity="1" tooltip="enable"><title>(0.0685647,1)</title></rect><rect x="258" y="199.056" width="6" height="0.943841" stroke="black" stroke-width="1" fill="blue" opacity="1" tooltip="enable"><title>(0.0701972,10)</title></rect><rect x="264" y="199.622" width="6" height="0.377537" stroke="black" stroke-width="1" fill="blue" opacity="1" tooltip="enable"><title>(0.0718297,4)</title></rect><rect x="270" y="199.811" width="6" height="0.188768" stroke="black" stroke-width="1" fill="blue" opacity="1" tooltip="enable"><title>(0.0734622,2)</title></rect><rect x="276" y="199.811" width="6" height="0.188768" stroke="black" stroke-width="1" fill="blue" opacity="1" tooltip="enable"><title>(0.0750946,2)</title></rect><rect x="282" y="199.811" width="6" height="0.188768" stroke="black" stroke-width="1" fill="blue" opacity="1" tooltip="enable"><title>(0.0767271,2)</title></rect><rect x="288" y="199.811" width="6" height="0.188768" stroke="black" stroke-width="1" fill="blue" opacity="1" tooltip="enable"><title>(0.0783596,2)</title></rect><rect x="294" y="199.811" width="6" height="0.188768" stroke="black" stroke-width="1" fill="blue" opacity="1" tooltip="enable"><title>(0.0799921,2)</title></rect><rect x="300" y="200" width="6" height="0" stroke="black" stroke-width="1" fill="blue" opacity="1" tooltip="enable"><title>(0.0816246,0)</title></rect><rect x="306" y="200" width="6" height="0" stroke="black" stroke-width="1" fill="blue" opacity="1" tooltip="enable"><title>(0.0832571,0)</title></rect><rect x="312" y="200" width="6" height="0" stroke="black" stroke-width="1" fill="blue" opacity="1" tooltip="enable"><title>(0.0848896,0)</title></rect><rect x="318" y="199.811" width="6" height="0.188768" stroke="black" stroke-width="1" fill="blue" opacity="1" tooltip="enable"><title>(0.0865221,2)</title></rect><rect x="324" y="199.811" width="6" height="0.188768" stroke="black" stroke-width="1" fill="blue" opacity="1" tooltip="enable"><title>(0.0881546,2)</title></rect><rect x="330" y="200" width="6" height="0" stroke="black" stroke-width="1" fill="blue" opacity="1" tooltip="enable"><title>(0.0897871,0)</title></rect><rect x="336" y="200" width="6" height="0" stroke="black" stroke-width="1" fill="blue" opacity="1" tooltip="enable"><title>(0.0914196,0)</title></rect><rect x="342" y="200" width="6" height="0" stroke="black" stroke-width="1" fill="blue" opacity="1" tooltip="enable"><title>(0.0930521,0)</title></rect><rect x="348" y="199.811" width="6" height="0.188768" stroke="black" stroke-width="1" fill="blue" opacity="1" tooltip="enable"><title>(0.0946845,2)</title></rect><rect x="354" y="200" width="6" height="0" stroke="black" stroke-width="1" fill="blue" opacity="1" tooltip="enable"><title>(0.096317,0)</title></rect><rect x="360" y="200" width="6" height="0" stroke="black" stroke-width="1" fill="blue" opacity="1" tooltip="enable"><title>(0.0979495,0)</title></rect><rect x="366" y="200" width="6" height="0" stroke="black" stroke-width="1" fill="blue" opacity="1" tooltip="enable"><title>(0.099582,0)</title></rect><rect x="372" y="200" width="6" height="0" stroke="black" stroke-width="1" fill="blue" opacity="1" tooltip="enable"><title>(0.101215,0)</title></rect><rect x="378" y="200" width="6" height="0" stroke="black" stroke-width="1" fill="blue" opacity="1" tooltip="enable"><title>(0.102847,0)</title></rect><rect x="384" y="199.811" width="6" height="0.188768" stroke="black" stroke-width="1" fill="blue" opacity="1" tooltip="enable"><title>(0.104479,2)</title></rect><rect x="390" y="200" width="6" height="0" stroke="black" stroke-width="1" fill="blue" opacity="1" tooltip="enable"><title>(0.106112,0)</title></rect><rect x="396" y="200" width="6" height="0" stroke="black" stroke-width="1" fill="blue" opacity="1" tooltip="enable"><title>(0.107744,0)</title></rect><rect x="402" y="200" width="6" height="0" stroke="black" stroke-width="1" fill="blue" opacity="1" tooltip="enable"><title>(0.109377,0)</title></rect><rect x="408" y="200" width="6" height="0" stroke="black" stroke-width="1" fill="blue" opacity="1" tooltip="enable"><title>(0.111009,0)</title></rect><rect x="414" y="200" width="6" height="0" stroke="black" stroke-width="1" fill="blue" opacity="1" tooltip="enable"><title>(0.112642,0)</title></rect><rect x="420" y="199.434" width="6" height="0.566305" stroke="black" stroke-width="1" fill="blue" opacity="1" tooltip="enable"><title>(0.114274,6)</title></rect><rect x="426" y="200" width="6" height="0" stroke="black" stroke-width="1" fill="blue" opacity="1" tooltip="enable"><title>(0.115907,0)</title></rect><rect x="432" y="200" width="6" height="0" stroke="black" stroke-width="1" fill="blue" opacity="1" tooltip="enable"><title>(0.117539,0)</title></rect><rect x="438" y="200" width="6" height="0" stroke="black" stroke-width="1" fill="blue" opacity="1" tooltip="enable"><title>(0.119172,0)</title></rect><rect x="444" y="200" width="6" height="0" stroke="black" stroke-width="1" fill="blue" opacity="1" tooltip="enable"><title>(0.120804,0)</title></rect><rect x="450" y="199.811" width="6" height="0.188768" stroke="black" stroke-width="1" fill="blue" opacity="1" tooltip="enable"><title>(0.122437,2)</title></rect><rect x="456" y="200" width="6" height="0" stroke="black" stroke-width="1" fill="blue" opacity="1" tooltip="enable"><title>(0.124069,0)</title></rect><rect x="462" y="200" width="6" height="0" stroke="black" stroke-width="1" fill="blue" opacity="1" tooltip="enable"><title>(0.125702,0)</title></rect><rect x="468" y="200" width="6" height="0" stroke="black" stroke-width="1" fill="blue" opacity="1" tooltip="enable"><title>(0.127334,0)</title></rect><rect x="474" y="200" width="6" height="0" stroke="black" stroke-width="1" fill="blue" opacity="1" tooltip="enable"><title>(0.128967,0)</title></rect><rect x="480" y="200" width="6" height="0" stroke="black" stroke-width="1" fill="blue" opacity="1" tooltip="enable"><title>(0.130599,0)</title></rect><rect x="486" y="200" width="6" height="0" stroke="black" stroke-width="1" fill="blue" opacity="1" tooltip="enable"><title>(0.132232,0)</title></rect><rect x="492" y="199.811" width="6" height="0.188768" stroke="black" stroke-width="1" fill="blue" opacity="1" tooltip="enable"><title>(0.133864,2)</title></rect><rect x="498" y="200" width="6" height="0" stroke="black" stroke-width="1" fill="blue" opacity="1" tooltip="enable"><title>(0.135497,0)</title></rect><rect x="504" y="200" width="6" height="0" stroke="black" stroke-width="1" fill="blue" opacity="1" tooltip="enable"><title>(0.137129,0)</title></rect><rect x="510" y="200" width="6" height="0" stroke="black" stroke-width="1" fill="blue" opacity="1" tooltip="enable"><title>(0.138762,0)</title></rect><rect x="516" y="200" width="6" height="0" stroke="black" stroke-width="1" fill="blue" opacity="1" tooltip="enable"><title>(0.140394,0)</title></rect><rect x="522" y="200" width="6" height="0" stroke="black" stroke-width="1" fill="blue" opacity="1" tooltip="enable"><title>(0.142027,0)</title></rect><rect x="528" y="200" width="6" height="0" stroke="black" stroke-width="1" fill="blue" opacity="1" tooltip="enable"><title>(0.143659,0)</title></rect><rect x="534" y="200" width="6" height="0" stroke="black" stroke-width="1" fill="blue" opacity="1" tooltip="enable"><title>(0.145292,0)</title></rect><rect x="540" y="200" width="6" height="0" stroke="black" stroke-width="1" fill="blue" opacity="1" tooltip="enable"><title>(0.146924,0)</title></rect><rect x="546" y="200" width="6" height="0" stroke="black" stroke-width="1" fill="blue" opacity="1" tooltip="enable"><title>(0.148557,0)</title></rect><rect x="552" y="200" width="6" height="0" stroke="black" stroke-width="1" fill="blue" opacity="1" tooltip="enable"><title>(0.150189,0)</title></rect><rect x="558" y="200" width="6" height="0" stroke="black" stroke-width="1" fill="blue" opacity="1" tooltip="enable"><title>(0.151822,0)</title></rect><rect x="564" y="200" width="6" height="0" stroke="black" stroke-width="1" fill="blue" opacity="1" tooltip="enable"><title>(0.153454,0)</title></rect><rect x="570" y="200" width="6" height="0" stroke="black" stroke-width="1" fill="blue" opacity="1" tooltip="enable"><title>(0.155087,0)</title></rect><rect x="576" y="200" width="6" height="0" stroke="black" stroke-width="1" fill="blue" opacity="1" tooltip="enable"><title>(0.156719,0)</title></rect><rect x="582" y="200" width="6" height="0" stroke="black" stroke-width="1" fill="blue" opacity="1" tooltip="enable"><title>(0.158352,0)</title></rect><rect x="588" y="199.811" width="6" height="0.188768" stroke="black" stroke-width="1" fill="blue" opacity="1" tooltip="enable"><title>(0.159984,2)</title></rect><rect x="594" y="199.717" width="6" height="0.283152" stroke="black" stroke-width="1" fill="blue" opacity="1" tooltip="enable"><title>(0.161617,3)</title></rect><text x="30" y="240" font-size="20" fill="black">0</text>
<text x="600" y="240" font-size="20" fill="black">0.163249</text>
<polyline points="0,220,600,220" stroke="black" stroke-width="1" fill="none" opacity="1"/>
<text x="720" y="20" font-size="20" fill="black">2119</text>
<text x="720" y="200" font-size="20" fill="black">0</text>
<polyline points="660,0,660,200" stroke="black" stroke-width="1" fill="none" opacity="1"/>
</svg>