<?xml version="1.0" standalone="yes"?>
<!-- SVG graphic -->
<svg xmlns='http://www.w3.org/2000/svg' xmlns:xlink='http://www.w3.org/1999/xlink'
 version="1.1">
<rect x="0" y="0" width="6" height="200" stroke="black" stroke-width="1" fill="blue" opacity="1" tooltip="enable"><title>(0,2149)</title></rect><rect x="6" y="77.1522" width="6" height="122.848" stroke="black" stroke-width="1" fill="blue" opacity="1" tooltip="enable"><title>(0.00128643,1320)</title></rect><rect x="12" y="136.715" width="6" height="63.2852" stroke="black" stroke-width="1" fill="blue" opacity="1" tooltip="enable"><title>(0.00257285,680)</title></rect><rect x="18" y="160.447" width="6" height="39.5533" stroke="black" stroke-width="1" fill="blue" opacity="1" tooltip="enable"><title>(0.00385928,425)</title></rect><rect x="24" y="181.387" width="6" height="18.6133" stroke="black" stroke-width="1" fill="blue" opacity="1" tooltip="enable"><title>(0.00514571,200)</title></rect><rect x="30" y="180.828" width="6" height="19.1717" stroke="black" stroke-width="1" fill="blue" opacity="1" tooltip="enable"><title>(0.00643214,206)</title></rect><rect x="36" y="179.805" width="6" height="20.1954" stroke="black" stroke-width="1" fill="blue" opacity="1" tooltip="enable"><title>(0.00771856,217)</title></rect><rect x="42" y="182.224" width="6" height="17.7757" stroke="black" stroke-width="1" fill="blue" opacity="1" tooltip="enable"><title>(0.00900499,191)</title></rect><rect x="48" y="184.086" width="6" height="15.9144" stroke="black" stroke-width="1" fill="blue" opacity="1" tooltip="enable"><title>(0.0102914,171)</title></rect><rect x="54" y="185.947" width="6" height="14.053" stroke="black" stroke-width="1" fill="blue" opacity="1" tooltip="enable"><title>(0.0115778,151)</title></rect><rect x="60" y="185.575" width="6" height="14.4253" stroke="black" stroke-width="1" fill="blue" opacity="1" tooltip="enable"><title>(0.0128643,155)</title></rect><rect x="66" y="184.644" width="6" height="15.356" stroke="black" stroke-width="1" fill="blue" opacity="1" tooltip="enable"><title>(0.0141507,165)</title></rect><rect x="72" y="188.274" width="6" height="11.7264" stroke="black" stroke-width="1" fill="blue" opacity="1" tooltip="enable"><title>(0.0154371,126)</title></rect><rect x="78" y="186.412" width="6" height="13.5877" stroke="black" stroke-width="1" fill="blue" opacity="1" tooltip="enable"><title>(0.0167236,146)</title></rect><rect x="84" y="188.832" width="6" height="11.168" stroke="black" stroke-width="1" fill="blue" opacity="1" tooltip="enable"><title>(0.01801,120)</title></rect><rect x="90" y="190.693" width="6" height="9.30665" stroke="black" stroke-width="1" fill="blue" opacity="1" tooltip="enable"><title>(0.0192964,100)</title></rect><rect x="96" y="191.531" width="6" height="8.46906" stroke="black" stroke-width="1" fill="blue" opacity="1" tooltip="enable"><title>(0.0205828,91)</title></rect><rect x="102" y="189.111" width="6" height="10.8888" stroke="black" stroke-width="1" fill="blue" opacity="1" tooltip="enable"><title>(0.0218693,117)</title></rect><rect x="108" y="189.39" width="6" height="10.6096" stroke="black" stroke-width="1" fill="blue" opacity="1" tooltip="enable"><title>(0.0231557,114)</title></rect><rect x="114" y="191.159" width="6" height="8.84132" stroke="black" stroke-width="1" fill="blue" opacity="1" tooltip="enable"><title>(0.0244421,95)</title></rect><rect x="120" y="191.81" width="6" height="8.18986" stroke="black" stroke-width="1" fill="blue" opacity="1" tooltip="enable"><title>(0.0257286,88)</title></rect><rect x="126" y="192.834" width="6" height="7.16612" stroke="black" stroke-width="1" fill="blue" opacity="1" tooltip="enable"><title>(0.027015,77)</title></rect><rect x="132" y="195.44" width="6" height="4.56026" stroke="black" stroke-width="1" fill="blue" opacity="1" tooltip="enable"><title>(0.0283014,49)</title></rect><rect x="138" y="195.626" width="6" height="4.37413" stroke="black" stroke-width="1" fill="blue" opacity="1" tooltip="enable"><title>(0.0295878,47)</title></rect><rect x="144" y="193.485" width="6" height="6.51466" stroke="black" stroke-width="1" fill="blue" opacity="1" tooltip="enable"><title>(0.0308743,70)</title></rect><rect x="150" y="195.44" width="6" height="4.56026" stroke="black" stroke-width="1" fill="blue" opacity="1" tooltip="enable"><title>(0.0321607,49)</title></rect><rect x="156" y="196.929" width="6" height="3.0712" stroke="black" stroke-width="1" fill="blue" opacity="1" tooltip="enable"><title>(0.0334471,33)</title></rect><rect x="162" y="195.161" width="6" height="4.83946" stroke="black" stroke-width="1" fill="blue" opacity="1" tooltip="enable"><title>(0.0347335,52)</title></rect><rect x="168" y="195.905" width="6" height="4.09493" stroke="black" stroke-width="1" fill="blue" opacity="1" tooltip="enable"><title>(0.03602,44)</title></rect><rect x="174" y="195.719" width="6" height="4.28106" stroke="black" stroke-width="1" fill="blue" opacity="1" tooltip="enable"><title>(0.0373064,46)</title></rect><rect x="180" y="195.905" width="6" height="4.09493" stroke="black" stroke-width="1" fill="blue" opacity="1" tooltip="enable"><title>(0.0385928,44)</title></rect><rect x="186" y="196.277" width="6" height="3.72266" stroke="black" stroke-width="1" fill="blue" opacity="1" tooltip="enable"><title>(0.0398793,40)</title></rect><rect x="192" y="196.65" width="6" height="3.3504" stroke="black" stroke-width="1" fill="blue" opacity="1" tooltip="enable"><title>(0.0411657,36)</title></rect><rect x="198" y="197.022" width="6" height="2.97813" stroke="black" stroke-width="1" fill="blue" opacity="1" tooltip="enable"><title>(0.0424521,32)</title></rect><rect x="204" y="196.836" width="6" height="3.16426" stroke="black" stroke-width="1" fill="blue" opacity="1" tooltip="enable"><title>(0.0437385,34)</title></rect><rect x="210" y="197.022" width="6" height="2.97813" stroke="black" stroke-width="1" fill="blue" opacity="1" tooltip="enable"><title>(0.045025,32)</title></rect><rect x="216" y="197.394" width="6" height="2.60586" stroke="black" stroke-width="1" fill="blue" opacity="1" tooltip="enable"><title>(0.0463114,28)</title></rect><rect x="222" y="196.463" width="6" height="3.53653" stroke="black" stroke-width="1" fill="blue" opacity="1" tooltip="enable"><title>(0.0475978,38)</title></rect><rect x="228" y="198.511" width="6" height="1.48906" stroke="black" stroke-width="1" fill="blue" opacity="1" tooltip="enable"><title>(0.0488842,16)</title></rect><rect x="234" y="197.208" width="6" height="2.792" stroke="black" stroke-width="1" fill="blue" opacity="1" tooltip="enable"><title>(0.0501707,30)</title></rect><rect x="240" y="197.953" width="6" height="2.04746" stroke="black" stroke-width="1" fill="blue" opacity="1" tooltip="enable"><title>(0.0514571,22)</title></rect><rect x="246" y="197.953" width="6" height="2.04746" stroke="black" stroke-width="1" fill="blue" opacity="1" tooltip="enable"><title>(0.0527435,22)</title></rect><rect x="252" y="198.883" width="6" height="1.1168" stroke="black" stroke-width="1" fill="blue" opacity="1" tooltip="enable"><title>(0.05403,12)</title></rect><rect x="258" y="198.79" width="6" height="1.20987" stroke="black" stroke-width="1" fill="blue" opacity="1" tooltip="enable"><title>(0.0553164,13)</title></rect><rect x="264" y="199.162" width="6" height="0.837599" stroke="black" stroke-width="1" fill="blue" opacity="1" tooltip="enable"><title>(0.0566028,9)</title></rect><rect x="270" y="199.442" width="6" height="0.558399" stroke="black" stroke-width="1" fill="blue" opacity="1" tooltip="enable"><title>(0.0578892,6)</title></rect><rect x="276" y="199.814" width="6" height="0.186133" stroke="black" stroke-width="1" fill="blue" opacity="1" tooltip="enable"><title>(0.0591757,2)</title></rect><rect x="282" y="200" width="6" height="0" stroke="black" stroke-width="1" fill="blue" opacity="1" tooltip="enable"><title>(0.0604621,0)</title></rect><rect x="288" y="200" width="6" height="0" stroke="black" stroke-width="1" fill="blue" opacity="1" tooltip="enable"><title>(0.0617485,0)</title></rect><rect x="294" y="200" width="6" height="0" stroke="black" stroke-width="1" fill="blue" opacity="1" tooltip="enable"><title>(0.063035,0)</title></rect><rect x="300" y="199.814" width="6" height="0.186133" stroke="black" stroke-width="1" fill="blue" opacity="1" tooltip="enable"><title>(0.0643214,2)</title></rect><rect x="306" y="199.814" width="6" height="0.186133" stroke="black" stroke-width="1" fill="blue" opacity="1" tooltip="enable"><title>(0.0656078,2)</title></rect><rect x="312" y="199.628" width="6" height="0.372266" stroke="black" stroke-width="1" fill="blue" opacity="1" tooltip="enable"><title>(0.0668942,4)</title></rect><rect x="318" y="199.442" width="6" height="0.558399" stroke="black" stroke-width="1" fill="blue" opacity="1" tooltip="enable"><title>(0.0681807,6)</title></rect><rect x="324" y="200" width="6" height="0" stroke="black" stroke-width="1" fill="blue" opacity="1" tooltip="enable"><title>(0.0694671,0)</title></rect><rect x="330" y="199.442" width="6" height="0.558399" stroke="black" stroke-width="1" fill="blue" opacity="1" tooltip="enable"><title>(0.0707535,6)</title></rect><rect x="336" y="199.442" width="6" height="0.558399" stroke="black" stroke-width="1" fill="blue" opacity="1" tooltip="enable"><title>(0.0720399,6)</title></rect><rect x="342" y="199.814" width="6" height="0.186133" stroke="black" stroke-width="1" fill="blue" opacity="1" tooltip="enable"><title>(0.0733264,2)</title></rect><rect x="348" y="199.628" width="6" height="0.372266" stroke="black" stroke-width="1" fill="blue" opacity="1" tooltip="enable"><title>(0.0746128,4)</title></rect><rect x="354" y="199.814" width="6" height="0.186133" stroke="black" stroke-width="1" fill="blue" opacity="1" tooltip="enable"><title>(0.0758992,2)</title></rect><rect x="360" y="199.721" width="6" height="0.2792" stroke="black" stroke-width="1" fill="blue" opacity="1" tooltip="enable"><title>(0.0771857,3)</title></rect><rect x="366" y="199.907" width="6" height="0.0930665" stroke="black" stroke-width="1" fill="blue" opacity="1" tooltip="enable"><title>(0.0784721,1)</title></rect><rect x="372" y="199.814" width="6" height="0.186133" stroke="black" stroke-width="1" fill="blue" opacity="1" tooltip="enable"><title>(0.0797585,2)</title></rect><rect x="378" y="199.814" width="6" height="0.186133" stroke="black" stroke-width="1" fill="blue" opacity="1" tooltip="enable"><title>(0.0810449,2)</title></rect><rect x="384" y="199.814" width="6" height="0.186133" stroke="black" stroke-width="1" fill="blue" opacity="1" tooltip="enable"><title>(0.0823314,2)</title></rect><rect x="390" y="199.628" width="6" height="0.372266" stroke="black" stroke-width="1" fill="blue" opacity="1" tooltip="enable"><title>(0.0836178,4)</title></rect><rect x="396" y="199.814" width="6" height="0.186133" stroke="black" stroke-width="1" fill="blue" opacity="1" tooltip="enable"><title>(0.0849042,2)</title></rect><rect x="402" y="199.069" width="6" height="0.930665" stroke="black" stroke-width="1" fill="blue" opacity="1" tooltip="enable"><title>(0.0861906,10)</title></rect><rect x="408" y="199.814" width="6" height="0.186133" stroke="black" stroke-width="1" fill="blue" opacity="1" tooltip="enable"><title>(0.0874771,2)</title></rect><rect x="414" y="199.814" width="6" height="0.186133" stroke="black" stroke-width="1" fill="blue" opacity="1" tooltip="enable"><title>(0.0887635,2)</title></rect><rect x="420" y="199.814" width="6" height="0.186133" stroke="black" stroke-width="1" fill="blue" opacity="1" tooltip="enable"><title>(0.0900499,2)</title></rect><rect x="426" y="199.628" width="6" height="0.372266" stroke="black" stroke-width="1" fill="blue" opacity="1" tooltip="enable"><title>(0.0913364,4)</title></rect><rect x="432" y="200" width="6" height="0" stroke="black" stroke-width="1" fill="blue" opacity="1" tooltip="enable"><title>(0.0926228,0)</title></rect><rect x="438" y="199.814" width="6" height="0.186133" stroke="black" stroke-width="1" fill="blue" opacity="1" tooltip="enable"><title>(0.0939092,2)</title></rect><rect x="444" y="200" width="6" height="0" stroke="black" stroke-width="1" fill="blue" opacity="1" tooltip="enable"><title>(0.0951956,0)</title></rect><rect x="450" y="199.628" width="6" height="0.372266" stroke="black" stroke-width="1" fill="blue" opacity="1" tooltip="enable"><title>(0.0964821,4)</title></rect><rect x="456" y="200" width="6" height="0" stroke="black" stroke-width="1" fill="blue" opacity="1" tooltip="enable"><title>(0.0977685,0)</title></rect><rect x="462" y="200" width="6" height="0" stroke="black" stroke-width="1" fill="blue" opacity="1" tooltip="enable"><title>(0.0990549,0)</title></rect><rect x="468" y="199.814" width="6" height="0.186133" stroke="black" stroke-width="1" fill="blue" opacity="1" tooltip="enable"><title>(0.100341,2)</title></rect><rect x="474" y="199.814" width="6" height="0.186133" stroke="black" stroke-width="1" fill="blue" opacity="1" tooltip="enable"><title>(0.101628,2)</title></rect><rect x="480" y="200" width="6" height="0" stroke="black" stroke-width="1" fill="blue" opacity="1" tooltip="enable"><title>(0.102914,0)</title></rect><rect x="486" y="200" width="6" height="0" stroke="black" stroke-width="1" fill="blue" opacity="1" tooltip="enable"><title>(0.104201,0)</title></rect><rect x="492" y="199.814" width="6" height="0.186133" stroke="black" stroke-width="1" fill="blue" opacity="1" tooltip="enable"><title>(0.105487,2)</title></rect><rect x="498" y="199.814" width="6" height="0.186133" stroke="black" stroke-width="1" fill="blue" opacity="1" tooltip="enable"><title>(0.106773,2)</title></rect><rect x="504" y="200" width="6" height="0" stroke="black" stroke-width="1" fill="blue" opacity="1" tooltip="enable"><title>(0.10806,0)</title></rect><rect x="510" y="200" width="6" height="0" stroke="black" stroke-width="1" fill="blue" opacity="1" tooltip="enable"><title>(0.109346,0)</title></rect><rect x="516" y="200" width="6" height="0" stroke="black" stroke-width="1" fill="blue" opacity="1" tooltip="enable"><title>(0.110633,0)</title></rect><rect x="522" y="200" width="6" height="0" stroke="black" stroke-width="1" fill="blue" opacity="1" tooltip="enable"><title>(0.111919,0)</title></rect><rect x="528" y="199.814" width="6" height="0.186133" stroke="black" stroke-width="1" fill="blue" opacity="1" tooltip="enable"><title>(0.113206,2)</title></rect><rect x="534" y="200" width="6" height="0" stroke="black" stroke-width="1" fill="blue" opacity="1" tooltip="enable"><title>(0.114492,0)</title></rect><rect x="540" y="200" width="6" height="0" stroke="black" stroke-width="1" fill="blue" opacity="1" tooltip="enable"><title>(0.115778,0)</title></rect><rect x="546" y="200" width="6" height="0" stroke="black" stroke-width="1" fill="blue" opacity="1" tooltip="enable"><title>(0.117065,0)</title></rect><rect x="552" y="200" width="6" height="0" stroke="black" stroke-width="1" fill="blue" opacity="1" tooltip="enable"><title>(0.118351,0)</title></rect><rect x="558" y="200" width="6" height="0" stroke="black" stroke-width="1" fill="blue" opacity="1" tooltip="enable"><title>(0.119638,0)</title></rect><rect x="564" y="200" width="6" height="0" stroke="black" stroke-width="1" fill="blue" opacity="1" tooltip="enable"><title>(0.120924,0)</title></rect><rect x="570" y="200" width="6" height="0" stroke="black" stroke-width="1" fill="blue" opacity="1" tooltip="enable"><title>(0.122211,0)</title></rect><rect x="576" y="200" width="6" height="0" stroke="black" stroke-width="1" fill="blue" opacity="1" tooltip="enable"><title>(0.123497,0)</title></rect><rect x="582" y="200" width="6" height="0" stroke="black" stroke-width="1" fill="blue" opacity="1" tooltip="enable"><title>(0.124783,0)</title></rect><rect x="588" y="199.814" width="6" height="0.186133" stroke="black" stroke-width="1" fill="blue" opacity="1" tooltip="enable"><title>(0.12607,2)</title></rect><rect x="594" y="199.907" width="6" height="0.0930665" stroke="black" stroke-width="1" fill="blue" opacity="1" tooltip="enable"><title>(0.127356,1)</title></rect><text x="30" y="240" font-size="20" fill="black">0</text>
<text x="600" y="240" font-size="20" fill="black">0.128643</text>
<polyline points="0,220,600,220" stroke="black" stroke-width="1" fill="none" opacity="1"/>
<text x="720" y="20" font-size="20" fill="black">2149</text>
<text x="720" y="200" font-size="20" fill="black">0</text>
<polyline points="660,0,660,200" stroke="black" stroke-width="1" fill="none" opacity="1"/>
</svg>