<?xml version="1.0" standalone="yes"?>
<!-- SVG graphic -->
<svg xmlns='http://www.w3.org/2000/svg' xmlns:xlink='http://www.w3.org/1999/xlink'
 version="1.1">
<rect x="0" y="0" width="6" height="200" stroke="black" stroke-width="1" fill="blue" opacity="1" tooltip="enable"><title>(0,2140)</title></rect><rect x="6" y="69.5327" width="6" height="130.467" stroke="black" stroke-width="1" fill="blue" opacity="1" tooltip="enable"><title>(0.00141885,1396)</title></rect><rect x="12" y="144.579" width="6" height="55.4206" stroke="black" stroke-width="1" fill="blue" opacity="1" tooltip="enable"><title>(0.00283769,593)</title></rect><rect x="18" y="170" width="6" height="30" stroke="black" stroke-width="1" fill="blue" opacity="1" tooltip="enable"><title>(0.00425654,321)</title></rect><rect x="24" y="181.495" width="6" height="18.5047" stroke="black" stroke-width="1" fill="blue" opacity="1" tooltip="enable"><title>(0.00567539,198)</title></rect><rect x="30" y="185.981" width="6" height="14.0187" stroke="black" stroke-width="1" fill="blue" opacity="1" tooltip="enable"><title>(0.00709423,150)</title></rect><rect x="36" y="189.159" width="6" height="10.8411" stroke="black" stroke-width="1" fill="blue" opacity="1" tooltip="enable"><title>(0.00851308,116)</title></rect><rect x="42" y="190.28" width="6" height="9.71963" stroke="black" stroke-width="1" fill="blue" opacity="1" tooltip="enable"><title>(0.00993193,104)</title></rect><rect x="48" y="188.598" width="6" height="11.4019" stroke="black" stroke-width="1" fill="blue" opacity="1" tooltip="enable"><title>(0.0113508,122)</title></rect><rect x="54" y="189.159" width="6" height="10.8411" stroke="black" stroke-width="1" fill="blue" opacity="1" tooltip="enable"><title>(0.0127696,116)</title></rect><rect x="60" y="190.841" width="6" height="9.15888" stroke="black" stroke-width="1" fill="blue" opacity="1" tooltip="enable"><title>(0.0141885,98)</title></rect><rect x="66" y="191.963" width="6" height="8.03738" stroke="black" stroke-width="1" fill="blue" opacity="1" tooltip="enable"><title>(0.0156073,86)</title></rect><rect x="72" y="192.897" width="6" height="7.1028" stroke="black" stroke-width="1" fill="blue" opacity="1" tooltip="enable"><title>(0.0170262,76)</title></rect><rect x="78" y="191.776" width="6" height="8.2243" stroke="black" stroke-width="1" fill="blue" opacity="1" tooltip="enable"><title>(0.018445,88)</title></rect><rect x="84" y="192.523" width="6" height="7.47664" stroke="black" stroke-width="1" fill="blue" opacity="1" tooltip="enable"><title>(0.0198639,80)</title></rect><rect x="90" y="190.654" width="6" height="9.34579" stroke="black" stroke-width="1" fill="blue" opacity="1" tooltip="enable"><title>(0.0212827,100)</title></rect><rect x="96" y="193.271" width="6" height="6.72897" stroke="black" stroke-width="1" fill="blue" opacity="1" tooltip="enable"><title>(0.0227015,72)</title></rect><rect x="102" y="190.28" width="6" height="9.71963" stroke="black" stroke-width="1" fill="blue" opacity="1" tooltip="enable"><title>(0.0241204,104)</title></rect><rect x="108" y="190.467" width="6" height="9.53271" stroke="black" stroke-width="1" fill="blue" opacity="1" tooltip="enable"><title>(0.0255392,102)</title></rect><rect x="114" y="191.215" width="6" height="8.78505" stroke="black" stroke-width="1" fill="blue" opacity="1" tooltip="enable"><title>(0.0269581,94)</title></rect><rect x="120" y="191.028" width="6" height="8.97196" stroke="black" stroke-width="1" fill="blue" opacity="1" tooltip="enable"><title>(0.0283769,96)</title></rect><rect x="126" y="188.972" width="6" height="11.028" stroke="black" stroke-width="1" fill="blue" opacity="1" tooltip="enable"><title>(0.0297958,118)</title></rect><rect x="132" y="190" width="6" height="10" stroke="black" stroke-width="1" fill="blue" opacity="1" tooltip="enable"><title>(0.0312146,107)</title></rect><rect x="138" y="192.991" width="6" height="7.00935" stroke="black" stroke-width="1" fill="blue" opacity="1" tooltip="enable"><title>(0.0326335,75)</title></rect><rect x="144" y="192.523" width="6" height="7.47664" stroke="black" stroke-width="1" fill="blue" opacity="1" tooltip="enable"><title>(0.0340523,80)</title></rect><rect x="150" y="193.084" width="6" height="6.91589" stroke="black" stroke-width="1" fill="blue" opacity="1" tooltip="enable"><title>(0.0354712,74)</title></rect><rect x="156" y="192.804" width="6" height="7.19626" stroke="black" stroke-width="1" fill="blue" opacity="1" tooltip="enable"><title>(0.03689,77)</title></rect><rect x="162" y="192.243" width="6" height="7.75701" stroke="black" stroke-width="1" fill="blue" opacity="1" tooltip="enable"><title>(0.0383089,83)</title></rect><rect x="168" y="193.832" width="6" height="6.16822" stroke="black" stroke-width="1" fill="blue" opacity="1" tooltip="enable"><title>(0.0397277,66)</title></rect><rect x="174" y="195.327" width="6" height="4.6729" stroke="black" stroke-width="1" fill="blue" opacity="1" tooltip="enable"><title>(0.0411466,50)</title></rect><rect x="180" y="194.766" width="6" height="5.23364" stroke="black" stroke-width="1" fill="blue" opacity="1" tooltip="enable"><title>(0.0425654,56)</title></rect><rect x="186" y="195.888" width="6" height="4.11215" stroke="black" stroke-width="1" fill="blue" opacity="1" tooltip="enable"><title>(0.0439842,44)</title></rect><rect x="192" y="196.822" width="6" height="3.17757" stroke="black" stroke-width="1" fill="blue" opacity="1" tooltip="enable"><title>(0.0454031,34)</title></rect><rect x="198" y="195.607" width="6" height="4.39252" stroke="black" stroke-width="1" fill="blue" opacity="1" tooltip="enable"><title>(0.0468219,47)</title></rect><rect x="204" y="196.168" width="6" height="3.83178" stroke="black" stroke-width="1" fill="blue" opacity="1" tooltip="enable"><title>(0.0482408,41)</title></rect><rect x="210" y="196.822" width="6" height="3.17757" stroke="black" stroke-width="1" fill="blue" opacity="1" tooltip="enable"><title>(0.0496596,34)</title></rect><rect x="216" y="195.888" width="6" height="4.11215" stroke="black" stroke-width="1" fill="blue" opacity="1" tooltip="enable"><title>(0.0510785,44)</title></rect><rect x="222" y="197.944" width="6" height="2.05607" stroke="black" stroke-width="1" fill="blue" opacity="1" tooltip="enable"><title>(0.0524973,22)</title></rect><rect x="228" y="196.075" width="6" height="3.92523" stroke="black" stroke-width="1" fill="blue" opacity="1" tooltip="enable"><title>(0.0539162,42)</title></rect><rect x="234" y="197.383" width="6" height="2.61682" stroke="black" stroke-width="1" fill="blue" opacity="1" tooltip="enable"><title>(0.055335,28)</title></rect><rect x="240" y="197.29" width="6" height="2.71028" stroke="black" stroke-width="1" fill="blue" opacity="1" tooltip="enable"><title>(0.0567539,29)</title></rect><rect x="246" y="198.224" width="6" height="1.7757" stroke="black" stroke-width="1" fill="blue" opacity="1" tooltip="enable"><title>(0.0581727,19)</title></rect><rect x="252" y="197.196" width="6" height="2.80374" stroke="black" stroke-width="1" fill="blue" opacity="1" tooltip="enable"><title>(0.0595916,30)</title></rect><rect x="258" y="198.411" width="6" height="1.58879" stroke="black" stroke-width="1" fill="blue" opacity="1" tooltip="enable"><title>(0.0610104,17)</title></rect><rect x="264" y="197.757" width="6" height="2.24299" stroke="black" stroke-width="1" fill="blue" opacity="1" tooltip="enable"><title>(0.0624293,24)</title></rect><rect x="270" y="198.411" width="6" height="1.58879" stroke="black" stroke-width="1" fill="blue" opacity="1" tooltip="enable"><title>(0.0638481,17)</title></rect><rect x="276" y="198.224" width="6" height="1.7757" stroke="black" stroke-width="1" fill="blue" opacity="1" tooltip="enable"><title>(0.065267,19)</title></rect><rect x="282" y="196.355" width="6" height="3.64486" stroke="black" stroke-width="1" fill="blue" opacity="1" tooltip="enable"><title>(0.0666858,39)</title></rect><rect x="288" y="198.131" width="6" height="1.86916" stroke="black" stroke-width="1" fill="blue" opacity="1" tooltip="enable"><title>(0.0681046,20)</title></rect><rect x="294" y="196.822" width="6" height="3.17757" stroke="black" stroke-width="1" fill="blue" opacity="1" tooltip="enable"><title>(0.0695235,34)</title></rect><rect x="300" y="197.57" width="6" height="2.42991" stroke="black" stroke-width="1" fill="blue" opacity="1" tooltip="enable"><title>(0.0709423,26)</title></rect><rect x="306" y="197.383" width="6" height="2.61682" stroke="black" stroke-width="1" fill="blue" opacity="1" tooltip="enable"><title>(0.0723612,28)</title></rect><rect x="312" y="198.785" width="6" height="1.21495" stroke="black" stroke-width="1" fill="blue" opacity="1" tooltip="enable"><title>(0.07378,13)</title></rect><rect x="318" y="197.85" width="6" height="2.14953" stroke="black" stroke-width="1" fill="blue" opacity="1" tooltip="enable"><title>(0.0751989,23)</title></rect><rect x="324" y="197.383" width="6" height="2.61682" stroke="black" stroke-width="1" fill="blue" opacity="1" tooltip="enable"><title>(0.0766177,28)</title></rect><rect x="330" y="198.318" width="6" height="1.68224" stroke="black" stroke-width="1" fill="blue" opacity="1" tooltip="enable"><title>(0.0780366,18)</title></rect><rect x="336" y="199.065" width="6" height="0.934579" stroke="black" stroke-width="1" fill="blue" opacity="1" tooltip="enable"><title>(0.0794554,10)</title></rect><rect x="342" y="197.757" width="6" height="2.24299" stroke="black" stroke-width="1" fill="blue" opacity="1" tooltip="enable"><title>(0.0808743,24)</title></rect><rect x="348" y="199.159" width="6" height="0.841121" stroke="black" stroke-width="1" fill="blue" opacity="1" tooltip="enable"><title>(0.0822931,9)</title></rect><rect x="354" y="198.785" width="6" height="1.21495" stroke="black" stroke-width="1" fill="blue" opacity="1" tooltip="enable"><title>(0.083712,13)</title></rect><rect x="360" y="198.879" width="6" height="1.1215" stroke="black" stroke-width="1" fill="blue" opacity="1" tooltip="enable"><title>(0.0851308,12)</title></rect><rect x="366" y="197.944" width="6" height="2.05607" stroke="black" stroke-width="1" fill="blue" opacity="1" tooltip="enable"><title>(0.0865496,22)</title></rect><rect x="372" y="197.664" width="6" height="2.33645" stroke="black" stroke-width="1" fill="blue" opacity="1" tooltip="enable"><title>(0.0879685,25)</title></rect><rect x="378" y="198.785" width="6" height="1.21495" stroke="black" stroke-width="1" fill="blue" opacity="1" tooltip="enable"><title>(0.0893873,13)</title></rect><rect x="384" y="198.692" width="6" height="1.30841" stroke="black" stroke-width="1" fill="blue" opacity="1" tooltip="enable"><title>(0.0908062,14)</title></rect><rect x="390" y="199.252" width="6" height="0.747664" stroke="black" stroke-width="1" fill="blue" opacity="1" tooltip="enable"><title>(0.092225,8)</title></rect><rect x="396" y="199.813" width="6" height="0.186916" stroke="black" stroke-width="1" fill="blue" opacity="1" tooltip="enable"><title>(0.0936439,2)</title></rect><rect x="402" y="199.626" width="6" height="0.373832" stroke="black" stroke-width="1" fill="blue" opacity="1" tooltip="enable"><title>(0.0950627,4)</title></rect><rect x="408" y="198.224" width="6" height="1.7757" stroke="black" stroke-width="1" fill="blue" opacity="1" tooltip="enable"><title>(0.0964816,19)</title></rect><rect x="414" y="199.346" width="6" height="0.654206" stroke="black" stroke-width="1" fill="blue" opacity="1" tooltip="enable"><title>(0.0979004,7)</title></rect><rect x="420" y="199.626" width="6" height="0.373832" stroke="black" stroke-width="1" fill="blue" opacity="1" tooltip="enable"><title>(0.0993193,4)</title></rect><rect x="426" y="199.626" width="6" height="0.373832" stroke="black" stroke-width="1" fill="blue" opacity="1" tooltip="enable"><title>(0.100738,4)</title></rect><rect x="432" y="199.72" width="6" height="0.280374" stroke="black" stroke-width="1" fill="blue" opacity="1" tooltip="enable"><title>(0.102157,3)</title></rect><rect x="438" y="199.533" width="6" height="0.46729" stroke="black" stroke-width="1" fill="blue" opacity="1" tooltip="enable"><title>(0.103576,5)</title></rect><rect x="444" y="199.813" width="6" height="0.186916" stroke="black" stroke-width="1" fill="blue" opacity="1" tooltip="enable"><title>(0.104995,2)</title></rect><rect x="450" y="199.346" width="6" height="0.654206" stroke="black" stroke-width="1" fill="blue" opacity="1" tooltip="enable"><title>(0.106413,7)</title></rect><rect x="456" y="199.533" width="6" height="0.46729" stroke="black" stroke-width="1" fill="blue" opacity="1" tooltip="enable"><title>(0.107832,5)</title></rect><rect x="462" y="199.439" width="6" height="0.560748" stroke="black" stroke-width="1" fill="blue" opacity="1" tooltip="enable"><title>(0.109251,6)</title></rect><rect x="468" y="199.439" width="6" height="0.560748" stroke="black" stroke-width="1" fill="blue" opacity="1" tooltip="enable"><title>(0.11067,6)</title></rect><rect x="474" y="199.813" width="6" height="0.186916" stroke="black" stroke-width="1" fill="blue" opacity="1" tooltip="enable"><title>(0.112089,2)</title></rect><rect x="480" y="199.626" width="6" height="0.373832" stroke="black" stroke-width="1" fill="blue" opacity="1" tooltip="enable"><title>(0.113508,4)</title></rect><rect x="486" y="200" width="6" height="0" stroke="black" stroke-width="1" fill="blue" opacity="1" tooltip="enable"><title>(0.114927,0)</title></rect><rect x="492" y="199.813" width="6" height="0.186916" stroke="black" stroke-width="1" fill="blue" opacity="1" tooltip="enable"><title>(0.116345,2)</title></rect><rect x="498" y="199.813" width="6" height="0.186916" stroke="black" stroke-width="1" fill="blue" opacity="1" tooltip="enable"><title>(0.117764,2)</title></rect><rect x="504" y="200" width="6" height="0" stroke="black" stroke-width="1" fill="blue" opacity="1" tooltip="enable"><title>(0.119183,0)</title></rect><rect x="510" y="199.813" width="6" height="0.186916" stroke="black" stroke-width="1" fill="blue" opacity="1" tooltip="enable"><title>(0.120602,2)</title></rect><rect x="516" y="200" width="6" height="0" stroke="black" stroke-width="1" fill="blue" opacity="1" tooltip="enable"><title>(0.122021,0)</title></rect><rect x="522" y="200" width="6" height="0" stroke="black" stroke-width="1" fill="blue" opacity="1" tooltip="enable"><title>(0.12344,0)</title></rect><rect x="528" y="200" width="6" height="0" stroke="black" stroke-width="1" fill="blue" opacity="1" tooltip="enable"><title>(0.124859,0)</title></rect><rect x="534" y="200" width="6" height="0" stroke="black" stroke-width="1" fill="blue" opacity="1" tooltip="enable"><title>(0.126277,0)</title></rect><rect x="540" y="200" width="6" height="0" stroke="black" stroke-width="1" fill="blue" opacity="1" tooltip="enable"><title>(0.127696,0)</title></rect><rect x="546" y="200" width="6" height="0" stroke="black" stroke-width="1" fill="blue" opacity="1" tooltip="enable"><title>(0.129115,0)</title></rect><rect x="552" y="200" width="6" height="0" stroke="black" stroke-width="1" fill="blue" opacity="1" tooltip="enable"><title>(0.130534,0)</title></rect><rect x="558" y="200" width="6" height="0" stroke="black" stroke-width="1" fill="blue" opacity="1" tooltip="enable"><title>(0.131953,0)</title></rect><rect x="564" y="200" width="6" height="0" stroke="black" stroke-width="1" fill="blue" opacity="1" tooltip="enable"><title>(0.133372,0)</title></rect><rect x="570" y="200" width="6" height="0" stroke="black" stroke-width="1" fill="blue" opacity="1" tooltip="enable"><title>(0.13479,0)</title></rect><rect x="576" y="199.813" width="6" height="0.186916" stroke="black" stroke-width="1" fill="blue" opacity="1" tooltip="enable"><title>(0.136209,2)</title></rect><rect x="582" y="199.813" width="6" height="0.186916" stroke="black" stroke-width="1" fill="blue" opacity="1" tooltip="enable"><title>(0.137628,2)</title></rect><rect x="588" y="200" width="6" height="0" stroke="black" stroke-width="1" fill="blue" opacity="1" tooltip="enable"><title>(0.139047,0)</title></rect><rect x="594" y="199.907" width="6" height="0.0934579" stroke="black" stroke-width="1" fill="blue" opacity="1" tooltip="enable"><title>(0.140466,1)</title></rect><text x="30" y="240" font-size="20" fill="black">0</text>
<text x="600" y="240" font-size="20" fill="black">0.141885</text>
<polyline points="0,220,600,220" stroke="black" stroke-width="1" fill="none" opacity="1"/>
<text x="720" y="20" font-size="20" fill="black">2140</text>
<text x="720" y="200" font-size="20" fill="black">0</text>
<polyline points="660,0,660,200" stroke="black" stroke-width="1" fill="none" opacity="1"/>
</svg>