<?xml version="1.0" standalone="yes"?>
<!-- SVG graphic -->
<svg xmlns='http://www.w3.org/2000/svg' xmlns:xlink='http://www.w3.org/1999/xlink'
 version="1.1">
<rect x="0" y="0" width="6" height="200" stroke="black" stroke-width="1" fill="blue" opacity="1" tooltip="enable"><title>(0,642)</title></rect><rect x="6" y="11.215" width="6" height="188.785" stroke="black" stroke-width="1" fill="blue" opacity="1" tooltip="enable"><title>(0.000993315,606)</title></rect><rect x="12" y="32.3988" width="6" height="167.601" stroke="black" stroke-width="1" fill="blue" opacity="1" tooltip="enable"><title>(0.00198663,538)</title></rect><rect x="18" y="36.1371" width="6" height="163.863" stroke="black" stroke-width="1" fill="blue" opacity="1" tooltip="enable"><title>(0.00297995,526)</title></rect><rect x="24" y="41.7446" width="6" height="158.255" stroke="black" stroke-width="1" fill="blue" opacity="1" tooltip="enable"><title>(0.00397326,508)</title></rect><rect x="30" y="63.5514" width="6" height="136.449" stroke="black" stroke-width="1" fill="blue" opacity="1" tooltip="enable"><title>(0.00496658,438)</title></rect><rect x="36" y="80.9969" width="6" height="119.003" stroke="black" stroke-width="1" fill="blue" opacity="1" tooltip="enable"><title>(0.00595989,382)</title></rect><rect x="42" y="63.2399" width="6" height="136.76" stroke="black" stroke-width="1" fill="blue" opacity="1" tooltip="enable"><title>(0.00695321,439)</title></rect><rect x="48" y="107.477" width="6" height="92.5234" stroke="black" stroke-width="1" fill="blue" opacity="1" tooltip="enable"><title>(0.00794652,297)</title></rect><rect x="54" y="124.611" width="6" height="75.3894" stroke="black" stroke-width="1" fill="blue" opacity="1" tooltip="enable"><title>(0.00893984,242)</title></rect><rect x="60" y="119.938" width="6" height="80.0623" stroke="black" stroke-width="1" fill="blue" opacity="1" tooltip="enable"><title>(0.00993315,257)</title></rect><rect x="66" y="136.76" width="6" height="63.2399" stroke="black" stroke-width="1" fill="blue" opacity="1" tooltip="enable"><title>(0.0109265,203)</title></rect><rect x="72" y="146.417" width="6" height="53.5826" stroke="black" stroke-width="1" fill="blue" opacity="1" tooltip="enable"><title>(0.0119198,172)</title></rect><rect x="78" y="160.125" width="6" height="39.8754" stroke="black" stroke-width="1" fill="blue" opacity="1" tooltip="enable"><title>(0.0129131,128)</title></rect><rect x="84" y="172.586" width="6" height="27.4143" stroke="black" stroke-width="1" fill="blue" opacity="1" tooltip="enable"><title>(0.0139064,88)</title></rect><rect x="90" y="170.093" width="6" height="29.9065" stroke="black" stroke-width="1" fill="blue" opacity="1" tooltip="enable"><title>(0.0148997,96)</title></rect><rect x="96" y="168.224" width="6" height="31.7757" stroke="black" stroke-width="1" fill="blue" opacity="1" tooltip="enable"><title>(0.015893,102)</title></rect><rect x="102" y="170.093" width="6" height="29.9065" stroke="black" stroke-width="1" fill="blue" opacity="1" tooltip="enable"><title>(0.0168864,96)</title></rect><rect x="108" y="175.078" width="6" height="24.9221" stroke="black" stroke-width="1" fill="blue" opacity="1" tooltip="enable"><title>(0.0178797,80)</title></rect><rect x="114" y="178.816" width="6" height="21.1838" stroke="black" stroke-width="1" fill="blue" opacity="1" tooltip="enable"><title>(0.018873,68)</title></rect><rect x="120" y="175.701" width="6" height="24.2991" stroke="black" stroke-width="1" fill="blue" opacity="1" tooltip="enable"><title>(0.0198663,78)</title></rect><rect x="126" y="168.224" width="6" height="31.7757" stroke="black" stroke-width="1" fill="blue" opacity="1" tooltip="enable"><title>(0.0208596,102)</title></rect><rect x="132" y="175.078" width="6" height="24.9221" stroke="black" stroke-width="1" fill="blue" opacity="1" tooltip="enable"><title>(0.0218529,80)</title></rect><rect x="138" y="173.209" width="6" height="26.7913" stroke="black" stroke-width="1" fill="blue" opacity="1" tooltip="enable"><title>(0.0228463,86)</title></rect><rect x="144" y="184.424" width="6" height="15.5763" stroke="black" stroke-width="1" fill="blue" opacity="1" tooltip="enable"><title>(0.0238396,50)</title></rect><rect x="150" y="179.128" width="6" height="20.8723" stroke="black" stroke-width="1" fill="blue" opacity="1" tooltip="enable"><title>(0.0248329,67)</title></rect><rect x="156" y="176.012" width="6" height="23.9875" stroke="black" stroke-width="1" fill="blue" opacity="1" tooltip="enable"><title>(0.0258262,77)</title></rect><rect x="162" y="185.047" width="6" height="14.9533" stroke="black" stroke-width="1" fill="blue" opacity="1" tooltip="enable"><title>(0.0268195,48)</title></rect><rect x="168" y="176.947" width="6" height="23.053" stroke="black" stroke-width="1" fill="blue" opacity="1" tooltip="enable"><title>(0.0278128,74)</title></rect><rect x="174" y="178.193" width="6" height="21.8069" stroke="black" stroke-width="1" fill="blue" opacity="1" tooltip="enable"><title>(0.0288061,70)</title></rect><rect x="180" y="180.062" width="6" height="19.9377" stroke="black" stroke-width="1" fill="blue" opacity="1" tooltip="enable"><title>(0.0297995,64)</title></rect><rect x="186" y="182.555" width="6" height="17.4455" stroke="black" stroke-width="1" fill="blue" opacity="1" tooltip="enable"><title>(0.0307928,56)</title></rect><rect x="192" y="184.112" width="6" height="15.8879" stroke="black" stroke-width="1" fill="blue" opacity="1" tooltip="enable"><title>(0.0317861,51)</title></rect><rect x="198" y="182.866" width="6" height="17.134" stroke="black" stroke-width="1" fill="blue" opacity="1" tooltip="enable"><title>(0.0327794,55)</title></rect><rect x="204" y="179.439" width="6" height="20.5607" stroke="black" stroke-width="1" fill="blue" opacity="1" tooltip="enable"><title>(0.0337727,66)</title></rect><rect x="210" y="176.947" width="6" height="23.053" stroke="black" stroke-width="1" fill="blue" opacity="1" tooltip="enable"><title>(0.034766,74)</title></rect><rect x="216" y="178.193" width="6" height="21.8069" stroke="black" stroke-width="1" fill="blue" opacity="1" tooltip="enable"><title>(0.0357594,70)</title></rect><rect x="222" y="176.947" width="6" height="23.053" stroke="black" stroke-width="1" fill="blue" opacity="1" tooltip="enable"><title>(0.0367527,74)</title></rect><rect x="228" y="184.735" width="6" height="15.2648" stroke="black" stroke-width="1" fill="blue" opacity="1" tooltip="enable"><title>(0.037746,49)</title></rect><rect x="234" y="178.505" width="6" height="21.4953" stroke="black" stroke-width="1" fill="blue" opacity="1" tooltip="enable"><title>(0.0387393,69)</title></rect><rect x="240" y="189.097" width="6" height="10.9034" stroke="black" stroke-width="1" fill="blue" opacity="1" tooltip="enable"><title>(0.0397326,35)</title></rect><rect x="246" y="187.227" width="6" height="12.7726" stroke="black" stroke-width="1" fill="blue" opacity="1" tooltip="enable"><title>(0.0407259,41)</title></rect><rect x="252" y="185.67" width="6" height="14.3302" stroke="black" stroke-width="1" fill="blue" opacity="1" tooltip="enable"><title>(0.0417192,46)</title></rect><rect x="258" y="191.277" width="6" height="8.72274" stroke="black" stroke-width="1" fill="blue" opacity="1" tooltip="enable"><title>(0.0427126,28)</title></rect><rect x="264" y="190.031" width="6" height="9.96885" stroke="black" stroke-width="1" fill="blue" opacity="1" tooltip="enable"><title>(0.0437059,32)</title></rect><rect x="270" y="186.916" width="6" height="13.0841" stroke="black" stroke-width="1" fill="blue" opacity="1" tooltip="enable"><title>(0.0446992,42)</title></rect><rect x="276" y="190.966" width="6" height="9.03427" stroke="black" stroke-width="1" fill="blue" opacity="1" tooltip="enable"><title>(0.0456925,29)</title></rect><rect x="282" y="192.212" width="6" height="7.78816" stroke="black" stroke-width="1" fill="blue" opacity="1" tooltip="enable"><title>(0.0466858,25)</title></rect><rect x="288" y="193.146" width="6" height="6.85358" stroke="black" stroke-width="1" fill="blue" opacity="1" tooltip="enable"><title>(0.0476791,22)</title></rect><rect x="294" y="188.162" width="6" height="11.838" stroke="black" stroke-width="1" fill="blue" opacity="1" tooltip="enable"><title>(0.0486724,38)</title></rect><rect x="300" y="184.112" width="6" height="15.8879" stroke="black" stroke-width="1" fill="blue" opacity="1" tooltip="enable"><title>(0.0496658,51)</title></rect><rect x="306" y="189.097" width="6" height="10.9034" stroke="black" stroke-width="1" fill="blue" opacity="1" tooltip="enable"><title>(0.0506591,35)</title></rect><rect x="312" y="191.9" width="6" height="8.09969" stroke="black" stroke-width="1" fill="blue" opacity="1" tooltip="enable"><title>(0.0516524,26)</title></rect><rect x="318" y="189.408" width="6" height="10.5919" stroke="black" stroke-width="1" fill="blue" opacity="1" tooltip="enable"><title>(0.0526457,34)</title></rect><rect x="324" y="191.9" width="6" height="8.09969" stroke="black" stroke-width="1" fill="blue" opacity="1" tooltip="enable"><title>(0.053639,26)</title></rect><rect x="330" y="192.523" width="6" height="7.47664" stroke="black" stroke-width="1" fill="blue" opacity="1" tooltip="enable"><title>(0.0546323,24)</title></rect><rect x="336" y="192.523" width="6" height="7.47664" stroke="black" stroke-width="1" fill="blue" opacity="1" tooltip="enable"><title>(0.0556257,24)</title></rect><rect x="342" y="195.016" width="6" height="4.98442" stroke="black" stroke-width="1" fill="blue" opacity="1" tooltip="enable"><title>(0.056619,16)</title></rect><rect x="348" y="194.393" width="6" height="5.60748" stroke="black" stroke-width="1" fill="blue" opacity="1" tooltip="enable"><title>(0.0576123,18)</title></rect><rect x="354" y="197.508" width="6" height="2.49221" stroke="black" stroke-width="1" fill="blue" opacity="1" tooltip="enable"><title>(0.0586056,8)</title></rect><rect x="360" y="195.639" width="6" height="4.36137" stroke="black" stroke-width="1" fill="blue" opacity="1" tooltip="enable"><title>(0.0595989,14)</title></rect><rect x="366" y="193.769" width="6" height="6.23053" stroke="black" stroke-width="1" fill="blue" opacity="1" tooltip="enable"><title>(0.0605922,20)</title></rect><rect x="372" y="199.377" width="6" height="0.623053" stroke="black" stroke-width="1" fill="blue" opacity="1" tooltip="enable"><title>(0.0615855,2)</title></rect><rect x="378" y="195.639" width="6" height="4.36137" stroke="black" stroke-width="1" fill="blue" opacity="1" tooltip="enable"><title>(0.0625789,14)</title></rect><rect x="384" y="196.262" width="6" height="3.73832" stroke="black" stroke-width="1" fill="blue" opacity="1" tooltip="enable"><title>(0.0635722,12)</title></rect><rect x="390" y="195.016" width="6" height="4.98442" stroke="black" stroke-width="1" fill="blue" opacity="1" tooltip="enable"><title>(0.0645655,16)</title></rect><rect x="396" y="197.508" width="6" height="2.49221" stroke="black" stroke-width="1" fill="blue" opacity="1" tooltip="enable"><title>(0.0655588,8)</title></rect><rect x="402" y="199.377" width="6" height="0.623053" stroke="black" stroke-width="1" fill="blue" opacity="1" tooltip="enable"><title>(0.0665521,2)</title></rect><rect x="408" y="196.885" width="6" height="3.11526" stroke="black" stroke-width="1" fill="blue" opacity="1" tooltip="enable"><title>(0.0675454,10)</title></rect><rect x="414" y="198.754" width="6" height="1.24611" stroke="black" stroke-width="1" fill="blue" opacity="1" tooltip="enable"><title>(0.0685388,4)</title></rect><rect x="420" y="199.377" width="6" height="0.623053" stroke="black" stroke-width="1" fill="blue" opacity="1" tooltip="enable"><title>(0.0695321,2)</title></rect><rect x="426" y="200" width="6" height="0" stroke="black" stroke-width="1" fill="blue" opacity="1" tooltip="enable"><title>(0.0705254,0)</title></rect><rect x="432" y="200" width="6" height="0" stroke="black" stroke-width="1" fill="blue" opacity="1" tooltip="enable"><title>(0.0715187,0)</title></rect><rect x="438" y="199.377" width="6" height="0.623053" stroke="black" stroke-width="1" fill="blue" opacity="1" tooltip="enable"><title>(0.072512,2)</title></rect><rect x="444" y="198.754" width="6" height="1.24611" stroke="black" stroke-width="1" fill="blue" opacity="1" tooltip="enable"><title>(0.0735053,4)</title></rect><rect x="450" y="199.377" width="6" height="0.623053" stroke="black" stroke-width="1" fill="blue" opacity="1" tooltip="enable"><title>(0.0744986,2)</title></rect><rect x="456" y="199.377" width="6" height="0.623053" stroke="black" stroke-width="1" fill="blue" opacity="1" tooltip="enable"><title>(0.075492,2)</title></rect><rect x="462" y="200" width="6" height="0" stroke="black" stroke-width="1" fill="blue" opacity="1" tooltip="enable"><title>(0.0764853,0)</title></rect><rect x="468" y="198.754" width="6" height="1.24611" stroke="black" stroke-width="1" fill="blue" opacity="1" tooltip="enable"><title>(0.0774786,4)</title></rect><rect x="474" y="199.377" width="6" height="0.623053" stroke="black" stroke-width="1" fill="blue" opacity="1" tooltip="enable"><title>(0.0784719,2)</title></rect><rect x="480" y="199.377" width="6" height="0.623053" stroke="black" stroke-width="1" fill="blue" opacity="1" tooltip="enable"><title>(0.0794652,2)</title></rect><rect x="486" y="200" width="6" height="0" stroke="black" stroke-width="1" fill="blue" opacity="1" tooltip="enable"><title>(0.0804585,0)</title></rect><rect x="492" y="200" width="6" height="0" stroke="black" stroke-width="1" fill="blue" opacity="1" tooltip="enable"><title>(0.0814519,0)</title></rect><rect x="498" y="200" width="6" height="0" stroke="black" stroke-width="1" fill="blue" opacity="1" tooltip="enable"><title>(0.0824452,0)</title></rect><rect x="504" y="200" width="6" height="0" stroke="black" stroke-width="1" fill="blue" opacity="1" tooltip="enable"><title>(0.0834385,0)</title></rect><rect x="510" y="198.754" width="6" height="1.24611" stroke="black" stroke-width="1" fill="blue" opacity="1" tooltip="enable"><title>(0.0844318,4)</title></rect><rect x="516" y="200" width="6" height="0" stroke="black" stroke-width="1" fill="blue" opacity="1" tooltip="enable"><title>(0.0854251,0)</title></rect><rect x="522" y="199.377" width="6" height="0.623053" stroke="black" stroke-width="1" fill="blue" opacity="1" tooltip="enable"><title>(0.0864184,2)</title></rect><rect x="528" y="200" width="6" height="0" stroke="black" stroke-width="1" fill="blue" opacity="1" tooltip="enable"><title>(0.0874117,0)</title></rect><rect x="534" y="200" width="6" height="0" stroke="black" stroke-width="1" fill="blue" opacity="1" tooltip="enable"><title>(0.0884051,0)</title></rect><rect x="540" y="200" width="6" height="0" stroke="black" stroke-width="1" fill="blue" opacity="1" tooltip="enable"><title>(0.0893984,0)</title></rect><rect x="546" y="200" width="6" height="0" stroke="black" stroke-width="1" fill="blue" opacity="1" tooltip="enable"><title>(0.0903917,0)</title></rect><rect x="552" y="200" width="6" height="0" stroke="black" stroke-width="1" fill="blue" opacity="1" tooltip="enable"><title>(0.091385,0)</title></rect><rect x="558" y="200" width="6" height="0" stroke="black" stroke-width="1" fill="blue" opacity="1" tooltip="enable"><title>(0.0923783,0)</title></rect><rect x="564" y="199.688" width="6" height="0.311526" stroke="black" stroke-width="1" fill="blue" opacity="1" tooltip="enable"><title>(0.0933716,1)</title></rect><rect x="570" y="199.688" width="6" height="0.311526" stroke="black" stroke-width="1" fill="blue" opacity="1" tooltip="enable"><title>(0.0943649,1)</title></rect><rect x="576" y="200" width="6" height="0" stroke="black" stroke-width="1" fill="blue" opacity="1" tooltip="enable"><title>(0.0953583,0)</title></rect><rect x="582" y="200" width="6" height="0" stroke="black" stroke-width="1" fill="blue" opacity="1" tooltip="enable"><title>(0.0963516,0)</title></rect><rect x="588" y="200" width="6" height="0" stroke="black" stroke-width="1" fill="blue" opacity="1" tooltip="enable"><title>(0.0973449,0)</title></rect><rect x="594" y="199.688" width="6" height="0.311526" stroke="black" stroke-width="1" fill="blue" opacity="1" tooltip="enable"><title>(0.0983382,1)</title></rect><text x="30" y="240" font-size="20" fill="black">0</text>
<text x="600" y="240" font-size="20" fill="black">0.0993315</text>
<polyline points="0,220,600,220" stroke="black" stroke-width="1" fill="none" opacity="1"/>
<text x="720" y="20" font-size="20" fill="black">642</text>
<text x="720" y="200" font-size="20" fill="black">0</text>
<polyline points="660,0,660,200" stroke="black" stroke-width="1" fill="none" opacity="1"/>
</svg>