<?xml version="1.0" standalone="yes"?>
<!-- SVG graphic -->
<svg xmlns='http://www.w3.org/2000/svg' xmlns:xlink='http://www.w3.org/1999/xlink'
 version="1.1">
<rect x="0" y="0" width="6" height="200" stroke="black" stroke-width="1" fill="blue" opacity="1" tooltip="enable"><title>(0,3211)</title></rect><rect x="6" y="128.994" width="6" height="71.0059" stroke="black" stroke-width="1" fill="blue" opacity="1" tooltip="enable"><title>(0.00331168,1140)</title></rect><rect x="12" y="158.144" width="6" height="41.8561" stroke="black" stroke-width="1" fill="blue" opacity="1" tooltip="enable"><title>(0.00662337,672)</title></rect><rect x="18" y="177.017" width="6" height="22.9835" stroke="black" stroke-width="1" fill="blue" opacity="1" tooltip="enable"><title>(0.00993505,369)</title></rect><rect x="24" y="173.715" width="6" height="26.2846" stroke="black" stroke-width="1" fill="blue" opacity="1" tooltip="enable"><title>(0.0132467,422)</title></rect><rect x="30" y="176.705" width="6" height="23.2949" stroke="black" stroke-width="1" fill="blue" opacity="1" tooltip="enable"><title>(0.0165584,374)</title></rect><rect x="36" y="176.269" width="6" height="23.7309" stroke="black" stroke-width="1" fill="blue" opacity="1" tooltip="enable"><title>(0.0198701,381)</title></rect><rect x="42" y="187.169" width="6" height="12.8309" stroke="black" stroke-width="1" fill="blue" opacity="1" tooltip="enable"><title>(0.0231818,206)</title></rect><rect x="48" y="184.865" width="6" height="15.1355" stroke="black" stroke-width="1" fill="blue" opacity="1" tooltip="enable"><title>(0.0264935,243)</title></rect><rect x="54" y="189.038" width="6" height="10.9623" stroke="black" stroke-width="1" fill="blue" opacity="1" tooltip="enable"><title>(0.0298052,176)</title></rect><rect x="60" y="191.031" width="6" height="8.96917" stroke="black" stroke-width="1" fill="blue" opacity="1" tooltip="enable"><title>(0.0331168,144)</title></rect><rect x="66" y="191.591" width="6" height="8.4086" stroke="black" stroke-width="1" fill="blue" opacity="1" tooltip="enable"><title>(0.0364285,135)</title></rect><rect x="72" y="191.591" width="6" height="8.4086" stroke="black" stroke-width="1" fill="blue" opacity="1" tooltip="enable"><title>(0.0397402,135)</title></rect><rect x="78" y="193.896" width="6" height="6.10402" stroke="black" stroke-width="1" fill="blue" opacity="1" tooltip="enable"><title>(0.0430519,98)</title></rect><rect x="84" y="196.014" width="6" height="3.9863" stroke="black" stroke-width="1" fill="blue" opacity="1" tooltip="enable"><title>(0.0463636,64)</title></rect><rect x="90" y="196.637" width="6" height="3.36344" stroke="black" stroke-width="1" fill="blue" opacity="1" tooltip="enable"><title>(0.0496753,54)</title></rect><rect x="96" y="198.069" width="6" height="1.93086" stroke="black" stroke-width="1" fill="blue" opacity="1" tooltip="enable"><title>(0.0529869,31)</title></rect><rect x="102" y="197.82" width="6" height="2.18001" stroke="black" stroke-width="1" fill="blue" opacity="1" tooltip="enable"><title>(0.0562986,35)</title></rect><rect x="108" y="198.256" width="6" height="1.744" stroke="black" stroke-width="1" fill="blue" opacity="1" tooltip="enable"><title>(0.0596103,28)</title></rect><rect x="114" y="198.692" width="6" height="1.308" stroke="black" stroke-width="1" fill="blue" opacity="1" tooltip="enable"><title>(0.062922,21)</title></rect><rect x="120" y="198.692" width="6" height="1.308" stroke="black" stroke-width="1" fill="blue" opacity="1" tooltip="enable"><title>(0.0662337,21)</title></rect><rect x="126" y="199.502" width="6" height="0.498287" stroke="black" stroke-width="1" fill="blue" opacity="1" tooltip="enable"><title>(0.0695454,8)</title></rect><rect x="132" y="199.626" width="6" height="0.373715" stroke="black" stroke-width="1" fill="blue" opacity="1" tooltip="enable"><title>(0.0728571,6)</title></rect><rect x="138" y="199.626" width="6" height="0.373715" stroke="black" stroke-width="1" fill="blue" opacity="1" tooltip="enable"><title>(0.0761687,6)</title></rect><rect x="144" y="199.751" width="6" height="0.249144" stroke="black" stroke-width="1" fill="blue" opacity="1" tooltip="enable"><title>(0.0794804,4)</title></rect><rect x="150" y="199.502" width="6" height="0.498287" stroke="black" stroke-width="1" fill="blue" opacity="1" tooltip="enable"><title>(0.0827921,8)</title></rect><rect x="156" y="199.875" width="6" height="0.124572" stroke="black" stroke-width="1" fill="blue" opacity="1" tooltip="enable"><title>(0.0861038,2)</title></rect><rect x="162" y="200" width="6" height="0" stroke="black" stroke-width="1" fill="blue" opacity="1" tooltip="enable"><title>(0.0894155,0)</title></rect><rect x="168" y="200" width="6" height="0" stroke="black" stroke-width="1" fill="blue" opacity="1" tooltip="enable"><title>(0.0927272,0)</title></rect><rect x="174" y="200" width="6" height="0" stroke="black" stroke-width="1" fill="blue" opacity="1" tooltip="enable"><title>(0.0960388,0)</title></rect><rect x="180" y="200" width="6" height="0" stroke="black" stroke-width="1" fill="blue" opacity="1" tooltip="enable"><title>(0.0993505,0)</title></rect><rect x="186" y="200" width="6" height="0" stroke="black" stroke-width="1" fill="blue" opacity="1" tooltip="enable"><title>(0.102662,0)</title></rect><rect x="192" y="200" width="6" height="0" stroke="black" stroke-width="1" fill="blue" opacity="1" tooltip="enable"><title>(0.105974,0)</title></rect><rect x="198" y="200" width="6" height="0" stroke="black" stroke-width="1" fill="blue" opacity="1" tooltip="enable"><title>(0.109286,0)</title></rect><rect x="204" y="200" width="6" height="0" stroke="black" stroke-width="1" fill="blue" opacity="1" tooltip="enable"><title>(0.112597,0)</title></rect><rect x="210" y="200" width="6" height="0" stroke="black" stroke-width="1" fill="blue" opacity="1" tooltip="enable"><title>(0.115909,0)</title></rect><rect x="216" y="200" width="6" height="0" stroke="black" stroke-width="1" fill="blue" opacity="1" tooltip="enable"><title>(0.119221,0)</title></rect><rect x="222" y="200" width="6" height="0" stroke="black" stroke-width="1" fill="blue" opacity="1" tooltip="enable"><title>(0.122532,0)</title></rect><rect x="228" y="200" width="6" height="0" stroke="black" stroke-width="1" fill="blue" opacity="1" tooltip="enable"><title>(0.125844,0)</title></rect><rect x="234" y="200" width="6" height="0" stroke="black" stroke-width="1" fill="blue" opacity="1" tooltip="enable"><title>(0.129156,0)</title></rect><rect x="240" y="200" width="6" height="0" stroke="black" stroke-width="1" fill="blue" opacity="1" tooltip="enable"><title>(0.132467,0)</title></rect><rect x="246" y="200" width="6" height="0" stroke="black" stroke-width="1" fill="blue" opacity="1" tooltip="enable"><title>(0.135779,0)</title></rect><rect x="252" y="200" width="6" height="0" stroke="black" stroke-width="1" fill="blue" opacity="1" tooltip="enable"><title>(0.139091,0)</title></rect><rect x="258" y="200" width="6" height="0" stroke="black" stroke-width="1" fill="blue" opacity="1" tooltip="enable"><title>(0.142402,0)</title></rect><rect x="264" y="200" width="6" height="0" stroke="black" stroke-width="1" fill="blue" opacity="1" tooltip="enable"><title>(0.145714,0)</title></rect><rect x="270" y="200" width="6" height="0" stroke="black" stroke-width="1" fill="blue" opacity="1" tooltip="enable"><title>(0.149026,0)</title></rect><rect x="276" y="200" width="6" height="0" stroke="black" stroke-width="1" fill="blue" opacity="1" tooltip="enable"><title>(0.152337,0)</title></rect><rect x="282" y="200" width="6" height="0" stroke="black" stroke-width="1" fill="blue" opacity="1" tooltip="enable"><title>(0.155649,0)</title></rect><rect x="288" y="200" width="6" height="0" stroke="black" stroke-width="1" fill="blue" opacity="1" tooltip="enable"><title>(0.158961,0)</title></rect><rect x="294" y="199.875" width="6" height="0.124572" stroke="black" stroke-width="1" fill="blue" opacity="1" tooltip="enable"><title>(0.162273,2)</title></rect><rect x="300" y="200" width="6" height="0" stroke="black" stroke-width="1" fill="blue" opacity="1" tooltip="enable"><title>(0.165584,0)</title></rect><rect x="306" y="200" width="6" height="0" stroke="black" stroke-width="1" fill="blue" opacity="1" tooltip="enable"><title>(0.168896,0)</title></rect><rect x="312" y="200" width="6" height="0" stroke="black" stroke-width="1" fill="blue" opacity="1" tooltip="enable"><title>(0.172208,0)</title></rect><rect x="318" y="200" width="6" height="0" stroke="black" stroke-width="1" fill="blue" opacity="1" tooltip="enable"><title>(0.175519,0)</title></rect><rect x="324" y="200" width="6" height="0" stroke="black" stroke-width="1" fill="blue" opacity="1" tooltip="enable"><title>(0.178831,0)</title></rect><rect x="330" y="200" width="6" height="0" stroke="black" stroke-width="1" fill="blue" opacity="1" tooltip="enable"><title>(0.182143,0)</title></rect><rect x="336" y="200" width="6" height="0" stroke="black" stroke-width="1" fill="blue" opacity="1" tooltip="enable"><title>(0.185454,0)</title></rect><rect x="342" y="200" width="6" height="0" stroke="black" stroke-width="1" fill="blue" opacity="1" tooltip="enable"><title>(0.188766,0)</title></rect><rect x="348" y="200" width="6" height="0" stroke="black" stroke-width="1" fill="blue" opacity="1" tooltip="enable"><title>(0.192078,0)</title></rect><rect x="354" y="200" width="6" height="0" stroke="black" stroke-width="1" fill="blue" opacity="1" tooltip="enable"><title>(0.195389,0)</title></rect><rect x="360" y="200" width="6" height="0" stroke="black" stroke-width="1" fill="blue" opacity="1" tooltip="enable"><title>(0.198701,0)</title></rect><rect x="366" y="200" width="6" height="0" stroke="black" stroke-width="1" fill="blue" opacity="1" tooltip="enable"><title>(0.202013,0)</title></rect><rect x="372" y="200" width="6" height="0" stroke="black" stroke-width="1" fill="blue" opacity="1" tooltip="enable"><title>(0.205324,0)</title></rect><rect x="378" y="200" width="6" height="0" stroke="black" stroke-width="1" fill="blue" opacity="1" tooltip="enable"><title>(0.208636,0)</title></rect><rect x="384" y="200" width="6" height="0" stroke="black" stroke-width="1" fill="blue" opacity="1" tooltip="enable"><title>(0.211948,0)</title></rect><rect x="390" y="200" width="6" height="0" stroke="black" stroke-width="1" fill="blue" opacity="1" tooltip="enable"><title>(0.215259,0)</title></rect><rect x="396" y="200" width="6" height="0" stroke="black" stroke-width="1" fill="blue" opacity="1" tooltip="enable"><title>(0.218571,0)</title></rect><rect x="402" y="200" width="6" height="0" stroke="black" stroke-width="1" fill="blue" opacity="1" tooltip="enable"><title>(0.221883,0)</title></rect><rect x="408" y="200" width="6" height="0" stroke="black" stroke-width="1" fill="blue" opacity="1" tooltip="enable"><title>(0.225195,0)</title></rect><rect x="414" y="200" width="6" height="0" stroke="black" stroke-width="1" fill="blue" opacity="1" tooltip="enable"><title>(0.228506,0)</title></rect><rect x="420" y="200" width="6" height="0" stroke="black" stroke-width="1" fill="blue" opacity="1" tooltip="enable"><title>(0.231818,0)</title></rect><rect x="426" y="200" width="6" height="0" stroke="black" stroke-width="1" fill="blue" opacity="1" tooltip="enable"><title>(0.23513,0)</title></rect><rect x="432" y="200" width="6" height="0" stroke="black" stroke-width="1" fill="blue" opacity="1" tooltip="enable"><title>(0.238441,0)</title></rect><rect x="438" y="200" width="6" height="0" stroke="black" stroke-width="1" fill="blue" opacity="1" tooltip="enable"><title>(0.241753,0)</title></rect><rect x="444" y="200" width="6" height="0" stroke="black" stroke-width="1" fill="blue" opacity="1" tooltip="enable"><title>(0.245065,0)</title></rect><rect x="450" y="200" width="6" height="0" stroke="black" stroke-width="1" fill="blue" opacity="1" tooltip="enable"><title>(0.248376,0)</title></rect><rect x="456" y="200" width="6" height="0" stroke="black" stroke-width="1" fill="blue" opacity="1" tooltip="enable"><title>(0.251688,0)</title></rect><rect x="462" y="200" width="6" height="0" stroke="black" stroke-width="1" fill="blue" opacity="1" tooltip="enable"><title>(0.255,0)</title></rect><rect x="468" y="200" width="6" height="0" stroke="black" stroke-width="1" fill="blue" opacity="1" tooltip="enable"><title>(0.258311,0)</title></rect><rect x="474" y="200" width="6" height="0" stroke="black" stroke-width="1" fill="blue" opacity="1" tooltip="enable"><title>(0.261623,0)</title></rect><rect x="480" y="200" width="6" height="0" stroke="black" stroke-width="1" fill="blue" opacity="1" tooltip="enable"><title>(0.264935,0)</title></rect><rect x="486" y="200" width="6" height="0" stroke="black" stroke-width="1" fill="blue" opacity="1" tooltip="enable"><title>(0.268246,0)</title></rect><rect x="492" y="200" width="6" height="0" stroke="black" stroke-width="1" fill="blue" opacity="1" tooltip="enable"><title>(0.271558,0)</title></rect><rect x="498" y="200" width="6" height="0" stroke="black" stroke-width="1" fill="blue" opacity="1" tooltip="enable"><title>(0.27487,0)</title></rect><rect x="504" y="200" width="6" height="0" stroke="black" stroke-width="1" fill="blue" opacity="1" tooltip="enable"><title>(0.278181,0)</title></rect><rect x="510" y="200" width="6" height="0" stroke="black" stroke-width="1" fill="blue" opacity="1" tooltip="enable"><title>(0.281493,0)</title></rect><rect x="516" y="200" width="6" height="0" stroke="black" stroke-width="1" fill="blue" opacity="1" tooltip="enable"><title>(0.284805,0)</title></rect><rect x="522" y="200" width="6" height="0" stroke="black" stroke-width="1" fill="blue" opacity="1" tooltip="enable"><title>(0.288117,0)</title></rect><rect x="528" y="199.875" width="6" height="0.124572" stroke="black" stroke-width="1" fill="blue" opacity="1" tooltip="enable"><title>(0.291428,2)</title></rect><rect x="534" y="200" width="6" height="0" stroke="black" stroke-width="1" fill="blue" opacity="1" tooltip="enable"><title>(0.29474,0)</title></rect><rect x="540" y="200" width="6" height="0" stroke="black" stroke-width="1" fill="blue" opacity="1" tooltip="enable"><title>(0.298052,0)</title></rect><rect x="546" y="200" width="6" height="0" stroke="black" stroke-width="1" fill="blue" opacity="1" tooltip="enable"><title>(0.301363,0)</title></rect><rect x="552" y="200" width="6" height="0" stroke="black" stroke-width="1" fill="blue" opacity="1" tooltip="enable"><title>(0.304675,0)</title></rect><rect x="558" y="200" width="6" height="0" stroke="black" stroke-width="1" fill="blue" opacity="1" tooltip="enable"><title>(0.307987,0)</title></rect><rect x="564" y="200" width="6" height="0" stroke="black" stroke-width="1" fill="blue" opacity="1" tooltip="enable"><title>(0.311298,0)</title></rect><rect x="570" y="200" width="6" height="0" stroke="black" stroke-width="1" fill="blue" opacity="1" tooltip="enable"><title>(0.31461,0)</title></rect><rect x="576" y="200" width="6" height="0" stroke="black" stroke-width="1" fill="blue" opacity="1" tooltip="enable"><title>(0.317922,0)</title></rect><rect x="582" y="200" width="6" height="0" stroke="black" stroke-width="1" fill="blue" opacity="1" tooltip="enable"><title>(0.321233,0)</title></rect><rect x="588" y="200" width="6" height="0" stroke="black" stroke-width="1" fill="blue" opacity="1" tooltip="enable"><title>(0.324545,0)</title></rect><rect x="594" y="199.938" width="6" height="0.0622859" stroke="black" stroke-width="1" fill="blue" opacity="1" tooltip="enable"><title>(0.327857,1)</title></rect><text x="30" y="240" font-size="20" fill="black">0</text>
<text x="600" y="240" font-size="20" fill="black">0.331168</text>
<polyline points="0,220,600,220" stroke="black" stroke-width="1" fill="none" opacity="1"/>
<text x="720" y="20" font-size="20" fill="black">3211</text>
<text x="720" y="200" font-size="20" fill="black">0</text>
<polyline points="660,0,660,200" stroke="black" stroke-width="1" fill="none" opacity="1"/>
</svg>