<?xml version="1.0" standalone="yes"?>
<!-- SVG graphic -->
<svg xmlns='http://www.w3.org/2000/svg' xmlns:xlink='http://www.w3.org/1999/xlink'
 version="1.1">
<rect x="0" y="0" width="6" height="200" stroke="black" stroke-width="1" fill="blue" opacity="1" tooltip="enable"><title>(0,4007)</title></rect><rect x="6" y="181.133" width="6" height="18.867" stroke="black" stroke-width="1" fill="blue" opacity="1" tooltip="enable"><title>(0.000764707,378)</title></rect><rect x="12" y="191.565" width="6" height="8.43524" stroke="black" stroke-width="1" fill="blue" opacity="1" tooltip="enable"><title>(0.00152941,169)</title></rect><rect x="18" y="191.315" width="6" height="8.6848" stroke="black" stroke-width="1" fill="blue" opacity="1" tooltip="enable"><title>(0.00229412,174)</title></rect><rect x="24" y="191.814" width="6" height="8.18568" stroke="black" stroke-width="1" fill="blue" opacity="1" tooltip="enable"><title>(0.00305883,164)</title></rect><rect x="30" y="191.615" width="6" height="8.38533" stroke="black" stroke-width="1" fill="blue" opacity="1" tooltip="enable"><title>(0.00382353,168)</title></rect><rect x="36" y="191.215" width="6" height="8.78463" stroke="black" stroke-width="1" fill="blue" opacity="1" tooltip="enable"><title>(0.00458824,176)</title></rect><rect x="42" y="192.713" width="6" height="7.28725" stroke="black" stroke-width="1" fill="blue" opacity="1" tooltip="enable"><title>(0.00535295,146)</title></rect><rect x="48" y="191.814" width="6" height="8.18568" stroke="black" stroke-width="1" fill="blue" opacity="1" tooltip="enable"><title>(0.00611765,164)</title></rect><rect x="54" y="194.809" width="6" height="5.19092" stroke="black" stroke-width="1" fill="blue" opacity="1" tooltip="enable"><title>(0.00688236,104)</title></rect><rect x="60" y="194.51" width="6" height="5.49039" stroke="black" stroke-width="1" fill="blue" opacity="1" tooltip="enable"><title>(0.00764707,110)</title></rect><rect x="66" y="194.31" width="6" height="5.69004" stroke="black" stroke-width="1" fill="blue" opacity="1" tooltip="enable"><title>(0.00841177,114)</title></rect><rect x="72" y="195.508" width="6" height="4.49214" stroke="black" stroke-width="1" fill="blue" opacity="1" tooltip="enable"><title>(0.00917648,90)</title></rect><rect x="78" y="194.809" width="6" height="5.19092" stroke="black" stroke-width="1" fill="blue" opacity="1" tooltip="enable"><title>(0.00994119,104)</title></rect><rect x="84" y="195.308" width="6" height="4.69179" stroke="black" stroke-width="1" fill="blue" opacity="1" tooltip="enable"><title>(0.0107059,94)</title></rect><rect x="90" y="196.107" width="6" height="3.89319" stroke="black" stroke-width="1" fill="blue" opacity="1" tooltip="enable"><title>(0.0114706,78)</title></rect><rect x="96" y="195.857" width="6" height="4.14275" stroke="black" stroke-width="1" fill="blue" opacity="1" tooltip="enable"><title>(0.0122353,83)</title></rect><rect x="102" y="196.057" width="6" height="3.9431" stroke="black" stroke-width="1" fill="blue" opacity="1" tooltip="enable"><title>(0.013,79)</title></rect><rect x="108" y="196.306" width="6" height="3.69354" stroke="black" stroke-width="1" fill="blue" opacity="1" tooltip="enable"><title>(0.0137647,74)</title></rect><rect x="114" y="197.105" width="6" height="2.89493" stroke="black" stroke-width="1" fill="blue" opacity="1" tooltip="enable"><title>(0.0145294,58)</title></rect><rect x="120" y="197.604" width="6" height="2.39581" stroke="black" stroke-width="1" fill="blue" opacity="1" tooltip="enable"><title>(0.0152941,48)</title></rect><rect x="126" y="196.656" width="6" height="3.34415" stroke="black" stroke-width="1" fill="blue" opacity="1" tooltip="enable"><title>(0.0160588,67)</title></rect><rect x="132" y="197.405" width="6" height="2.59546" stroke="black" stroke-width="1" fill="blue" opacity="1" tooltip="enable"><title>(0.0168235,52)</title></rect><rect x="138" y="197.155" width="6" height="2.84502" stroke="black" stroke-width="1" fill="blue" opacity="1" tooltip="enable"><title>(0.0175883,57)</title></rect><rect x="144" y="196.406" width="6" height="3.59371" stroke="black" stroke-width="1" fill="blue" opacity="1" tooltip="enable"><title>(0.018353,72)</title></rect><rect x="150" y="198.003" width="6" height="1.99651" stroke="black" stroke-width="1" fill="blue" opacity="1" tooltip="enable"><title>(0.0191177,40)</title></rect><rect x="156" y="197.255" width="6" height="2.7452" stroke="black" stroke-width="1" fill="blue" opacity="1" tooltip="enable"><title>(0.0198824,55)</title></rect><rect x="162" y="196.606" width="6" height="3.39406" stroke="black" stroke-width="1" fill="blue" opacity="1" tooltip="enable"><title>(0.0206471,68)</title></rect><rect x="168" y="197.654" width="6" height="2.34589" stroke="black" stroke-width="1" fill="blue" opacity="1" tooltip="enable"><title>(0.0214118,47)</title></rect><rect x="174" y="197.504" width="6" height="2.49563" stroke="black" stroke-width="1" fill="blue" opacity="1" tooltip="enable"><title>(0.0221765,50)</title></rect><rect x="180" y="198.303" width="6" height="1.69703" stroke="black" stroke-width="1" fill="blue" opacity="1" tooltip="enable"><title>(0.0229412,34)</title></rect><rect x="186" y="198.003" width="6" height="1.99651" stroke="black" stroke-width="1" fill="blue" opacity="1" tooltip="enable"><title>(0.0237059,40)</title></rect><rect x="192" y="197.604" width="6" height="2.39581" stroke="black" stroke-width="1" fill="blue" opacity="1" tooltip="enable"><title>(0.0244706,48)</title></rect><rect x="198" y="198.752" width="6" height="1.24782" stroke="black" stroke-width="1" fill="blue" opacity="1" tooltip="enable"><title>(0.0252353,25)</title></rect><rect x="204" y="197.954" width="6" height="2.04642" stroke="black" stroke-width="1" fill="blue" opacity="1" tooltip="enable"><title>(0.026,41)</title></rect><rect x="210" y="197.704" width="6" height="2.29598" stroke="black" stroke-width="1" fill="blue" opacity="1" tooltip="enable"><title>(0.0267647,46)</title></rect><rect x="216" y="198.003" width="6" height="1.99651" stroke="black" stroke-width="1" fill="blue" opacity="1" tooltip="enable"><title>(0.0275294,40)</title></rect><rect x="222" y="198.103" width="6" height="1.89668" stroke="black" stroke-width="1" fill="blue" opacity="1" tooltip="enable"><title>(0.0282942,38)</title></rect><rect x="228" y="197.904" width="6" height="2.09633" stroke="black" stroke-width="1" fill="blue" opacity="1" tooltip="enable"><title>(0.0290589,42)</title></rect><rect x="234" y="198.602" width="6" height="1.39755" stroke="black" stroke-width="1" fill="blue" opacity="1" tooltip="enable"><title>(0.0298236,28)</title></rect><rect x="240" y="198.103" width="6" height="1.89668" stroke="black" stroke-width="1" fill="blue" opacity="1" tooltip="enable"><title>(0.0305883,38)</title></rect><rect x="246" y="197.904" width="6" height="2.09633" stroke="black" stroke-width="1" fill="blue" opacity="1" tooltip="enable"><title>(0.031353,42)</title></rect><rect x="252" y="198.902" width="6" height="1.09808" stroke="black" stroke-width="1" fill="blue" opacity="1" tooltip="enable"><title>(0.0321177,22)</title></rect><rect x="258" y="198.602" width="6" height="1.39755" stroke="black" stroke-width="1" fill="blue" opacity="1" tooltip="enable"><title>(0.0328824,28)</title></rect><rect x="264" y="198.353" width="6" height="1.64712" stroke="black" stroke-width="1" fill="blue" opacity="1" tooltip="enable"><title>(0.0336471,33)</title></rect><rect x="270" y="198.403" width="6" height="1.5972" stroke="black" stroke-width="1" fill="blue" opacity="1" tooltip="enable"><title>(0.0344118,32)</title></rect><rect x="276" y="198.902" width="6" height="1.09808" stroke="black" stroke-width="1" fill="blue" opacity="1" tooltip="enable"><title>(0.0351765,22)</title></rect><rect x="282" y="199.052" width="6" height="0.94834" stroke="black" stroke-width="1" fill="blue" opacity="1" tooltip="enable"><title>(0.0359412,19)</title></rect><rect x="288" y="199.052" width="6" height="0.94834" stroke="black" stroke-width="1" fill="blue" opacity="1" tooltip="enable"><title>(0.0367059,19)</title></rect><rect x="294" y="199.151" width="6" height="0.848515" stroke="black" stroke-width="1" fill="blue" opacity="1" tooltip="enable"><title>(0.0374706,17)</title></rect><rect x="300" y="199.151" width="6" height="0.848515" stroke="black" stroke-width="1" fill="blue" opacity="1" tooltip="enable"><title>(0.0382353,17)</title></rect><rect x="306" y="199.351" width="6" height="0.648865" stroke="black" stroke-width="1" fill="blue" opacity="1" tooltip="enable"><title>(0.039,13)</title></rect><rect x="312" y="199.301" width="6" height="0.698777" stroke="black" stroke-width="1" fill="blue" opacity="1" tooltip="enable"><title>(0.0397648,14)</title></rect><rect x="318" y="199.201" width="6" height="0.798602" stroke="black" stroke-width="1" fill="blue" opacity="1" tooltip="enable"><title>(0.0405295,16)</title></rect><rect x="324" y="199.301" width="6" height="0.698777" stroke="black" stroke-width="1" fill="blue" opacity="1" tooltip="enable"><title>(0.0412942,14)</title></rect><rect x="330" y="199.501" width="6" height="0.499127" stroke="black" stroke-width="1" fill="blue" opacity="1" tooltip="enable"><title>(0.0420589,10)</title></rect><rect x="336" y="199.301" width="6" height="0.698777" stroke="black" stroke-width="1" fill="blue" opacity="1" tooltip="enable"><title>(0.0428236,14)</title></rect><rect x="342" y="199.401" width="6" height="0.598952" stroke="black" stroke-width="1" fill="blue" opacity="1" tooltip="enable"><title>(0.0435883,12)</title></rect><rect x="348" y="199.501" width="6" height="0.499127" stroke="black" stroke-width="1" fill="blue" opacity="1" tooltip="enable"><title>(0.044353,10)</title></rect><rect x="354" y="199.401" width="6" height="0.598952" stroke="black" stroke-width="1" fill="blue" opacity="1" tooltip="enable"><title>(0.0451177,12)</title></rect><rect x="360" y="199.701" width="6" height="0.299476" stroke="black" stroke-width="1" fill="blue" opacity="1" tooltip="enable"><title>(0.0458824,6)</title></rect><rect x="366" y="199.601" width="6" height="0.399301" stroke="black" stroke-width="1" fill="blue" opacity="1" tooltip="enable"><title>(0.0466471,8)</title></rect><rect x="372" y="199.002" width="6" height="0.998253" stroke="black" stroke-width="1" fill="blue" opacity="1" tooltip="enable"><title>(0.0474118,20)</title></rect><rect x="378" y="199.701" width="6" height="0.299476" stroke="black" stroke-width="1" fill="blue" opacity="1" tooltip="enable"><title>(0.0481765,6)</title></rect><rect x="384" y="199.601" width="6" height="0.399301" stroke="black" stroke-width="1" fill="blue" opacity="1" tooltip="enable"><title>(0.0489412,8)</title></rect><rect x="390" y="199.601" width="6" height="0.399301" stroke="black" stroke-width="1" fill="blue" opacity="1" tooltip="enable"><title>(0.0497059,8)</title></rect><rect x="396" y="199.701" width="6" height="0.299476" stroke="black" stroke-width="1" fill="blue" opacity="1" tooltip="enable"><title>(0.0504707,6)</title></rect><rect x="402" y="199.701" width="6" height="0.299476" stroke="black" stroke-width="1" fill="blue" opacity="1" tooltip="enable"><title>(0.0512354,6)</title></rect><rect x="408" y="199.701" width="6" height="0.299476" stroke="black" stroke-width="1" fill="blue" opacity="1" tooltip="enable"><title>(0.0520001,6)</title></rect><rect x="414" y="199.9" width="6" height="0.0998253" stroke="black" stroke-width="1" fill="blue" opacity="1" tooltip="enable"><title>(0.0527648,2)</title></rect><rect x="420" y="199.9" width="6" height="0.0998253" stroke="black" stroke-width="1" fill="blue" opacity="1" tooltip="enable"><title>(0.0535295,2)</title></rect><rect x="426" y="199.8" width="6" height="0.199651" stroke="black" stroke-width="1" fill="blue" opacity="1" tooltip="enable"><title>(0.0542942,4)</title></rect><rect x="432" y="200" width="6" height="0" stroke="black" stroke-width="1" fill="blue" opacity="1" tooltip="enable"><title>(0.0550589,0)</title></rect><rect x="438" y="199.701" width="6" height="0.299476" stroke="black" stroke-width="1" fill="blue" opacity="1" tooltip="enable"><title>(0.0558236,6)</title></rect><rect x="444" y="200" width="6" height="0" stroke="black" stroke-width="1" fill="blue" opacity="1" tooltip="enable"><title>(0.0565883,0)</title></rect><rect x="450" y="199.9" width="6" height="0.0998253" stroke="black" stroke-width="1" fill="blue" opacity="1" tooltip="enable"><title>(0.057353,2)</title></rect><rect x="456" y="199.9" width="6" height="0.0998253" stroke="black" stroke-width="1" fill="blue" opacity="1" tooltip="enable"><title>(0.0581177,2)</title></rect><rect x="462" y="199.9" width="6" height="0.0998253" stroke="black" stroke-width="1" fill="blue" opacity="1" tooltip="enable"><title>(0.0588824,2)</title></rect><rect x="468" y="199.9" width="6" height="0.0998253" stroke="black" stroke-width="1" fill="blue" opacity="1" tooltip="enable"><title>(0.0596471,2)</title></rect><rect x="474" y="199.8" width="6" height="0.199651" stroke="black" stroke-width="1" fill="blue" opacity="1" tooltip="enable"><title>(0.0604118,4)</title></rect><rect x="480" y="199.9" width="6" height="0.0998253" stroke="black" stroke-width="1" fill="blue" opacity="1" tooltip="enable"><title>(0.0611765,2)</title></rect><rect x="486" y="199.9" width="6" height="0.0998253" stroke="black" stroke-width="1" fill="blue" opacity="1" tooltip="enable"><title>(0.0619413,2)</title></rect><rect x="492" y="199.9" width="6" height="0.0998253" stroke="black" stroke-width="1" fill="blue" opacity="1" tooltip="enable"><title>(0.062706,2)</title></rect><rect x="498" y="200" width="6" height="0" stroke="black" stroke-width="1" fill="blue" opacity="1" tooltip="enable"><title>(0.0634707,0)</title></rect><rect x="504" y="200" width="6" height="0" stroke="black" stroke-width="1" fill="blue" opacity="1" tooltip="enable"><title>(0.0642354,0)</title></rect><rect x="510" y="200" width="6" height="0" stroke="black" stroke-width="1" fill="blue" opacity="1" tooltip="enable"><title>(0.0650001,0)</title></rect><rect x="516" y="200" width="6" height="0" stroke="black" stroke-width="1" fill="blue" opacity="1" tooltip="enable"><title>(0.0657648,0)</title></rect><rect x="522" y="199.8" width="6" height="0.199651" stroke="black" stroke-width="1" fill="blue" opacity="1" tooltip="enable"><title>(0.0665295,4)</title></rect><rect x="528" y="199.9" width="6" height="0.0998253" stroke="black" stroke-width="1" fill="blue" opacity="1" tooltip="enable"><title>(0.0672942,2)</title></rect><rect x="534" y="200" width="6" height="0" stroke="black" stroke-width="1" fill="blue" opacity="1" tooltip="enable"><title>(0.0680589,0)</title></rect><rect x="540" y="200" width="6" height="0" stroke="black" stroke-width="1" fill="blue" opacity="1" tooltip="enable"><title>(0.0688236,0)</title></rect><rect x="546" y="199.9" width="6" height="0.0998253" stroke="black" stroke-width="1" fill="blue" opacity="1" tooltip="enable"><title>(0.0695883,2)</title></rect><rect x="552" y="199.9" width="6" height="0.0998253" stroke="black" stroke-width="1" fill="blue" opacity="1" tooltip="enable"><title>(0.070353,2)</title></rect><rect x="558" y="199.9" width="6" height="0.0998253" stroke="black" stroke-width="1" fill="blue" opacity="1" tooltip="enable"><title>(0.0711177,2)</title></rect><rect x="564" y="199.9" width="6" height="0.0998253" stroke="black" stroke-width="1" fill="blue" opacity="1" tooltip="enable"><title>(0.0718824,2)</title></rect><rect x="570" y="200" width="6" height="0" stroke="black" stroke-width="1" fill="blue" opacity="1" tooltip="enable"><title>(0.0726471,0)</title></rect><rect x="576" y="199.9" width="6" height="0.0998253" stroke="black" stroke-width="1" fill="blue" opacity="1" tooltip="enable"><title>(0.0734119,2)</title></rect><rect x="582" y="200" width="6" height="0" stroke="black" stroke-width="1" fill="blue" opacity="1" tooltip="enable"><title>(0.0741766,0)</title></rect><rect x="588" y="200" width="6" height="0" stroke="black" stroke-width="1" fill="blue" opacity="1" tooltip="enable"><title>(0.0749413,0)</title></rect><rect x="594" y="199.95" width="6" height="0.0499127" stroke="black" stroke-width="1" fill="blue" opacity="1" tooltip="enable"><title>(0.075706,1)</title></rect><text x="30" y="240" font-size="20" fill="black">0</text>
<text x="600" y="240" font-size="20" fill="black">0.0764707</text>
<polyline points="0,220,600,220" stroke="black" stroke-width="1" fill="none" opacity="1"/>
<text x="720" y="20" font-size="20" fill="black">4007</text>
<text x="720" y="200" font-size="20" fill="black">0</text>
<polyline points="660,0,660,200" stroke="black" stroke-width="1" fill="none" opacity="1"/>
</svg>