<?xml version="1.0" standalone="yes"?>
<!-- SVG graphic -->
<svg xmlns='http://www.w3.org/2000/svg' xmlns:xlink='http://www.w3.org/1999/xlink'
 version="1.1">
<rect x="0" y="0" width="6" height="200" stroke="black" stroke-width="1" fill="blue" opacity="1" tooltip="enable"><title>(0,3188)</title></rect><rect x="6" y="124.906" width="6" height="75.0941" stroke="black" stroke-width="1" fill="blue" opacity="1" tooltip="enable"><title>(0.00210245,1197)</title></rect><rect x="12" y="187.892" width="6" height="12.1079" stroke="black" stroke-width="1" fill="blue" opacity="1" tooltip="enable"><title>(0.0042049,193)</title></rect><rect x="18" y="186.7" width="6" height="13.2999" stroke="black" stroke-width="1" fill="blue" opacity="1" tooltip="enable"><title>(0.00630735,212)</title></rect><rect x="24" y="188.457" width="6" height="11.5433" stroke="black" stroke-width="1" fill="blue" opacity="1" tooltip="enable"><title>(0.0084098,184)</title></rect><rect x="30" y="188.582" width="6" height="11.4178" stroke="black" stroke-width="1" fill="blue" opacity="1" tooltip="enable"><title>(0.0105123,182)</title></rect><rect x="36" y="186.7" width="6" height="13.2999" stroke="black" stroke-width="1" fill="blue" opacity="1" tooltip="enable"><title>(0.0126147,212)</title></rect><rect x="42" y="187.327" width="6" height="12.6725" stroke="black" stroke-width="1" fill="blue" opacity="1" tooltip="enable"><title>(0.0147172,202)</title></rect><rect x="48" y="190.151" width="6" height="9.84944" stroke="black" stroke-width="1" fill="blue" opacity="1" tooltip="enable"><title>(0.0168196,157)</title></rect><rect x="54" y="187.39" width="6" height="12.6098" stroke="black" stroke-width="1" fill="blue" opacity="1" tooltip="enable"><title>(0.0189221,201)</title></rect><rect x="60" y="188.959" width="6" height="11.0414" stroke="black" stroke-width="1" fill="blue" opacity="1" tooltip="enable"><title>(0.0210245,176)</title></rect><rect x="66" y="191.405" width="6" height="8.59473" stroke="black" stroke-width="1" fill="blue" opacity="1" tooltip="enable"><title>(0.023127,137)</title></rect><rect x="72" y="191.593" width="6" height="8.40652" stroke="black" stroke-width="1" fill="blue" opacity="1" tooltip="enable"><title>(0.0252294,134)</title></rect><rect x="78" y="188.394" width="6" height="11.606" stroke="black" stroke-width="1" fill="blue" opacity="1" tooltip="enable"><title>(0.0273319,185)</title></rect><rect x="84" y="190.841" width="6" height="9.15935" stroke="black" stroke-width="1" fill="blue" opacity="1" tooltip="enable"><title>(0.0294343,146)</title></rect><rect x="90" y="192.974" width="6" height="7.02635" stroke="black" stroke-width="1" fill="blue" opacity="1" tooltip="enable"><title>(0.0315368,112)</title></rect><rect x="96" y="192.346" width="6" height="7.6537" stroke="black" stroke-width="1" fill="blue" opacity="1" tooltip="enable"><title>(0.0336392,122)</title></rect><rect x="102" y="192.848" width="6" height="7.15182" stroke="black" stroke-width="1" fill="blue" opacity="1" tooltip="enable"><title>(0.0357417,114)</title></rect><rect x="108" y="193.099" width="6" height="6.90088" stroke="black" stroke-width="1" fill="blue" opacity="1" tooltip="enable"><title>(0.0378441,110)</title></rect><rect x="114" y="195.483" width="6" height="4.51694" stroke="black" stroke-width="1" fill="blue" opacity="1" tooltip="enable"><title>(0.0399466,72)</title></rect><rect x="120" y="195.609" width="6" height="4.39147" stroke="black" stroke-width="1" fill="blue" opacity="1" tooltip="enable"><title>(0.042049,70)</title></rect><rect x="126" y="195.609" width="6" height="4.39147" stroke="black" stroke-width="1" fill="blue" opacity="1" tooltip="enable"><title>(0.0441515,70)</title></rect><rect x="132" y="195.609" width="6" height="4.39147" stroke="black" stroke-width="1" fill="blue" opacity="1" tooltip="enable"><title>(0.0462539,70)</title></rect><rect x="138" y="197.428" width="6" height="2.57215" stroke="black" stroke-width="1" fill="blue" opacity="1" tooltip="enable"><title>(0.0483564,41)</title></rect><rect x="144" y="196.236" width="6" height="3.76412" stroke="black" stroke-width="1" fill="blue" opacity="1" tooltip="enable"><title>(0.0504588,60)</title></rect><rect x="150" y="197.051" width="6" height="2.94856" stroke="black" stroke-width="1" fill="blue" opacity="1" tooltip="enable"><title>(0.0525613,47)</title></rect><rect x="156" y="197.24" width="6" height="2.76035" stroke="black" stroke-width="1" fill="blue" opacity="1" tooltip="enable"><title>(0.0546637,44)</title></rect><rect x="162" y="196.612" width="6" height="3.3877" stroke="black" stroke-width="1" fill="blue" opacity="1" tooltip="enable"><title>(0.0567662,54)</title></rect><rect x="168" y="198.055" width="6" height="1.94479" stroke="black" stroke-width="1" fill="blue" opacity="1" tooltip="enable"><title>(0.0588686,31)</title></rect><rect x="174" y="196.675" width="6" height="3.32497" stroke="black" stroke-width="1" fill="blue" opacity="1" tooltip="enable"><title>(0.0609711,53)</title></rect><rect x="180" y="196.236" width="6" height="3.76412" stroke="black" stroke-width="1" fill="blue" opacity="1" tooltip="enable"><title>(0.0630735,60)</title></rect><rect x="186" y="197.553" width="6" height="2.44668" stroke="black" stroke-width="1" fill="blue" opacity="1" tooltip="enable"><title>(0.065176,39)</title></rect><rect x="192" y="197.804" width="6" height="2.19573" stroke="black" stroke-width="1" fill="blue" opacity="1" tooltip="enable"><title>(0.0672784,35)</title></rect><rect x="198" y="197.867" width="6" height="2.133" stroke="black" stroke-width="1" fill="blue" opacity="1" tooltip="enable"><title>(0.0693809,34)</title></rect><rect x="204" y="198.934" width="6" height="1.0665" stroke="black" stroke-width="1" fill="blue" opacity="1" tooltip="enable"><title>(0.0714833,17)</title></rect><rect x="210" y="199.435" width="6" height="0.564617" stroke="black" stroke-width="1" fill="blue" opacity="1" tooltip="enable"><title>(0.0735858,9)</title></rect><rect x="216" y="199.122" width="6" height="0.878294" stroke="black" stroke-width="1" fill="blue" opacity="1" tooltip="enable"><title>(0.0756883,14)</title></rect><rect x="222" y="199.624" width="6" height="0.376412" stroke="black" stroke-width="1" fill="blue" opacity="1" tooltip="enable"><title>(0.0777907,6)</title></rect><rect x="228" y="199.498" width="6" height="0.501882" stroke="black" stroke-width="1" fill="blue" opacity="1" tooltip="enable"><title>(0.0798931,8)</title></rect><rect x="234" y="200" width="6" height="0" stroke="black" stroke-width="1" fill="blue" opacity="1" tooltip="enable"><title>(0.0819956,0)</title></rect><rect x="240" y="200" width="6" height="0" stroke="black" stroke-width="1" fill="blue" opacity="1" tooltip="enable"><title>(0.0840981,0)</title></rect><rect x="246" y="200" width="6" height="0" stroke="black" stroke-width="1" fill="blue" opacity="1" tooltip="enable"><title>(0.0862005,0)</title></rect><rect x="252" y="200" width="6" height="0" stroke="black" stroke-width="1" fill="blue" opacity="1" tooltip="enable"><title>(0.088303,0)</title></rect><rect x="258" y="200" width="6" height="0" stroke="black" stroke-width="1" fill="blue" opacity="1" tooltip="enable"><title>(0.0904054,0)</title></rect><rect x="264" y="200" width="6" height="0" stroke="black" stroke-width="1" fill="blue" opacity="1" tooltip="enable"><title>(0.0925079,0)</title></rect><rect x="270" y="200" width="6" height="0" stroke="black" stroke-width="1" fill="blue" opacity="1" tooltip="enable"><title>(0.0946103,0)</title></rect><rect x="276" y="200" width="6" height="0" stroke="black" stroke-width="1" fill="blue" opacity="1" tooltip="enable"><title>(0.0967128,0)</title></rect><rect x="282" y="200" width="6" height="0" stroke="black" stroke-width="1" fill="blue" opacity="1" tooltip="enable"><title>(0.0988152,0)</title></rect><rect x="288" y="200" width="6" height="0" stroke="black" stroke-width="1" fill="blue" opacity="1" tooltip="enable"><title>(0.100918,0)</title></rect><rect x="294" y="200" width="6" height="0" stroke="black" stroke-width="1" fill="blue" opacity="1" tooltip="enable"><title>(0.10302,0)</title></rect><rect x="300" y="200" width="6" height="0" stroke="black" stroke-width="1" fill="blue" opacity="1" tooltip="enable"><title>(0.105123,0)</title></rect><rect x="306" y="200" width="6" height="0" stroke="black" stroke-width="1" fill="blue" opacity="1" tooltip="enable"><title>(0.107225,0)</title></rect><rect x="312" y="200" width="6" height="0" stroke="black" stroke-width="1" fill="blue" opacity="1" tooltip="enable"><title>(0.109327,0)</title></rect><rect x="318" y="200" width="6" height="0" stroke="black" stroke-width="1" fill="blue" opacity="1" tooltip="enable"><title>(0.11143,0)</title></rect><rect x="324" y="200" width="6" height="0" stroke="black" stroke-width="1" fill="blue" opacity="1" tooltip="enable"><title>(0.113532,0)</title></rect><rect x="330" y="200" width="6" height="0" stroke="black" stroke-width="1" fill="blue" opacity="1" tooltip="enable"><title>(0.115635,0)</title></rect><rect x="336" y="200" width="6" height="0" stroke="black" stroke-width="1" fill="blue" opacity="1" tooltip="enable"><title>(0.117737,0)</title></rect><rect x="342" y="200" width="6" height="0" stroke="black" stroke-width="1" fill="blue" opacity="1" tooltip="enable"><title>(0.11984,0)</title></rect><rect x="348" y="200" width="6" height="0" stroke="black" stroke-width="1" fill="blue" opacity="1" tooltip="enable"><title>(0.121942,0)</title></rect><rect x="354" y="200" width="6" height="0" stroke="black" stroke-width="1" fill="blue" opacity="1" tooltip="enable"><title>(0.124045,0)</title></rect><rect x="360" y="200" width="6" height="0" stroke="black" stroke-width="1" fill="blue" opacity="1" tooltip="enable"><title>(0.126147,0)</title></rect><rect x="366" y="200" width="6" height="0" stroke="black" stroke-width="1" fill="blue" opacity="1" tooltip="enable"><title>(0.12825,0)</title></rect><rect x="372" y="200" width="6" height="0" stroke="black" stroke-width="1" fill="blue" opacity="1" tooltip="enable"><title>(0.130352,0)</title></rect><rect x="378" y="200" width="6" height="0" stroke="black" stroke-width="1" fill="blue" opacity="1" tooltip="enable"><title>(0.132454,0)</title></rect><rect x="384" y="200" width="6" height="0" stroke="black" stroke-width="1" fill="blue" opacity="1" tooltip="enable"><title>(0.134557,0)</title></rect><rect x="390" y="200" width="6" height="0" stroke="black" stroke-width="1" fill="blue" opacity="1" tooltip="enable"><title>(0.136659,0)</title></rect><rect x="396" y="200" width="6" height="0" stroke="black" stroke-width="1" fill="blue" opacity="1" tooltip="enable"><title>(0.138762,0)</title></rect><rect x="402" y="200" width="6" height="0" stroke="black" stroke-width="1" fill="blue" opacity="1" tooltip="enable"><title>(0.140864,0)</title></rect><rect x="408" y="200" width="6" height="0" stroke="black" stroke-width="1" fill="blue" opacity="1" tooltip="enable"><title>(0.142967,0)</title></rect><rect x="414" y="200" width="6" height="0" stroke="black" stroke-width="1" fill="blue" opacity="1" tooltip="enable"><title>(0.145069,0)</title></rect><rect x="420" y="200" width="6" height="0" stroke="black" stroke-width="1" fill="blue" opacity="1" tooltip="enable"><title>(0.147172,0)</title></rect><rect x="426" y="200" width="6" height="0" stroke="black" stroke-width="1" fill="blue" opacity="1" tooltip="enable"><title>(0.149274,0)</title></rect><rect x="432" y="200" width="6" height="0" stroke="black" stroke-width="1" fill="blue" opacity="1" tooltip="enable"><title>(0.151377,0)</title></rect><rect x="438" y="200" width="6" height="0" stroke="black" stroke-width="1" fill="blue" opacity="1" tooltip="enable"><title>(0.153479,0)</title></rect><rect x="444" y="200" width="6" height="0" stroke="black" stroke-width="1" fill="blue" opacity="1" tooltip="enable"><title>(0.155581,0)</title></rect><rect x="450" y="200" width="6" height="0" stroke="black" stroke-width="1" fill="blue" opacity="1" tooltip="enable"><title>(0.157684,0)</title></rect><rect x="456" y="200" width="6" height="0" stroke="black" stroke-width="1" fill="blue" opacity="1" tooltip="enable"><title>(0.159786,0)</title></rect><rect x="462" y="200" width="6" height="0" stroke="black" stroke-width="1" fill="blue" opacity="1" tooltip="enable"><title>(0.161889,0)</title></rect><rect x="468" y="200" width="6" height="0" stroke="black" stroke-width="1" fill="blue" opacity="1" tooltip="enable"><title>(0.163991,0)</title></rect><rect x="474" y="200" width="6" height="0" stroke="black" stroke-width="1" fill="blue" opacity="1" tooltip="enable"><title>(0.166094,0)</title></rect><rect x="480" y="200" width="6" height="0" stroke="black" stroke-width="1" fill="blue" opacity="1" tooltip="enable"><title>(0.168196,0)</title></rect><rect x="486" y="200" width="6" height="0" stroke="black" stroke-width="1" fill="blue" opacity="1" tooltip="enable"><title>(0.170299,0)</title></rect><rect x="492" y="200" width="6" height="0" stroke="black" stroke-width="1" fill="blue" opacity="1" tooltip="enable"><title>(0.172401,0)</title></rect><rect x="498" y="200" width="6" height="0" stroke="black" stroke-width="1" fill="blue" opacity="1" tooltip="enable"><title>(0.174503,0)</title></rect><rect x="504" y="200" width="6" height="0" stroke="black" stroke-width="1" fill="blue" opacity="1" tooltip="enable"><title>(0.176606,0)</title></rect><rect x="510" y="200" width="6" height="0" stroke="black" stroke-width="1" fill="blue" opacity="1" tooltip="enable"><title>(0.178708,0)</title></rect><rect x="516" y="200" width="6" height="0" stroke="black" stroke-width="1" fill="blue" opacity="1" tooltip="enable"><title>(0.180811,0)</title></rect><rect x="522" y="200" width="6" height="0" stroke="black" stroke-width="1" fill="blue" opacity="1" tooltip="enable"><title>(0.182913,0)</title></rect><rect x="528" y="200" width="6" height="0" stroke="black" stroke-width="1" fill="blue" opacity="1" tooltip="enable"><title>(0.185016,0)</title></rect><rect x="534" y="200" width="6" height="0" stroke="black" stroke-width="1" fill="blue" opacity="1" tooltip="enable"><title>(0.187118,0)</title></rect><rect x="540" y="200" width="6" height="0" stroke="black" stroke-width="1" fill="blue" opacity="1" tooltip="enable"><title>(0.189221,0)</title></rect><rect x="546" y="200" width="6" height="0" stroke="black" stroke-width="1" fill="blue" opacity="1" tooltip="enable"><title>(0.191323,0)</title></rect><rect x="552" y="200" width="6" height="0" stroke="black" stroke-width="1" fill="blue" opacity="1" tooltip="enable"><title>(0.193426,0)</title></rect><rect x="558" y="200" width="6" height="0" stroke="black" stroke-width="1" fill="blue" opacity="1" tooltip="enable"><title>(0.195528,0)</title></rect><rect x="564" y="200" width="6" height="0" stroke="black" stroke-width="1" fill="blue" opacity="1" tooltip="enable"><title>(0.19763,0)</title></rect><rect x="570" y="200" width="6" height="0" stroke="black" stroke-width="1" fill="blue" opacity="1" tooltip="enable"><title>(0.199733,0)</title></rect><rect x="576" y="200" width="6" height="0" stroke="black" stroke-width="1" fill="blue" opacity="1" tooltip="enable"><title>(0.201835,0)</title></rect><rect x="582" y="200" width="6" height="0" stroke="black" stroke-width="1" fill="blue" opacity="1" tooltip="enable"><title>(0.203938,0)</title></rect><rect x="588" y="200" width="6" height="0" stroke="black" stroke-width="1" fill="blue" opacity="1" tooltip="enable"><title>(0.20604,0)</title></rect><rect x="594" y="199.937" width="6" height="0.0627353" stroke="black" stroke-width="1" fill="blue" opacity="1" tooltip="enable"><title>(0.208143,1)</title></rect><text x="30" y="240" font-size="20" fill="black">0</text>
<text x="600" y="240" font-size="20" fill="black">0.210245</text>
<polyline points="0,220,600,220" stroke="black" stroke-width="1" fill="none" opacity="1"/>
<text x="720" y="20" font-size="20" fill="black">3188</text>
<text x="720" y="200" font-size="20" fill="black">0</text>
<polyline points="660,0,660,200" stroke="black" stroke-width="1" fill="none" opacity="1"/>
</svg>