<?xml version="1.0" standalone="yes"?>
<!-- SVG graphic -->
<svg xmlns='http://www.w3.org/2000/svg' xmlns:xlink='http://www.w3.org/1999/xlink'
 version="1.1">
<rect x="0" y="0" width="6" height="200" stroke="black" stroke-width="1" fill="blue" opacity="1" tooltip="enable"><title>(0,4274)</title></rect><rect x="6" y="185.4" width="6" height="14.5999" stroke="black" stroke-width="1" fill="blue" opacity="1" tooltip="enable"><title>(0.00128758,312)</title></rect><rect x="12" y="188.535" width="6" height="11.4647" stroke="black" stroke-width="1" fill="blue" opacity="1" tooltip="enable"><title>(0.00257515,245)</title></rect><rect x="18" y="188.582" width="6" height="11.4179" stroke="black" stroke-width="1" fill="blue" opacity="1" tooltip="enable"><title>(0.00386273,244)</title></rect><rect x="24" y="187.833" width="6" height="12.1666" stroke="black" stroke-width="1" fill="blue" opacity="1" tooltip="enable"><title>(0.00515031,260)</title></rect><rect x="30" y="189.19" width="6" height="10.8095" stroke="black" stroke-width="1" fill="blue" opacity="1" tooltip="enable"><title>(0.00643788,231)</title></rect><rect x="36" y="189.144" width="6" height="10.8563" stroke="black" stroke-width="1" fill="blue" opacity="1" tooltip="enable"><title>(0.00772546,232)</title></rect><rect x="42" y="190.267" width="6" height="9.73327" stroke="black" stroke-width="1" fill="blue" opacity="1" tooltip="enable"><title>(0.00901304,208)</title></rect><rect x="48" y="192.7" width="6" height="7.29995" stroke="black" stroke-width="1" fill="blue" opacity="1" tooltip="enable"><title>(0.0103006,156)</title></rect><rect x="54" y="192.513" width="6" height="7.48713" stroke="black" stroke-width="1" fill="blue" opacity="1" tooltip="enable"><title>(0.0115882,160)</title></rect><rect x="60" y="191.858" width="6" height="8.14226" stroke="black" stroke-width="1" fill="blue" opacity="1" tooltip="enable"><title>(0.0128758,174)</title></rect><rect x="66" y="191.203" width="6" height="8.79738" stroke="black" stroke-width="1" fill="blue" opacity="1" tooltip="enable"><title>(0.0141633,188)</title></rect><rect x="72" y="192.326" width="6" height="7.67431" stroke="black" stroke-width="1" fill="blue" opacity="1" tooltip="enable"><title>(0.0154509,164)</title></rect><rect x="78" y="192.092" width="6" height="7.90828" stroke="black" stroke-width="1" fill="blue" opacity="1" tooltip="enable"><title>(0.0167385,169)</title></rect><rect x="84" y="194.057" width="6" height="5.94291" stroke="black" stroke-width="1" fill="blue" opacity="1" tooltip="enable"><title>(0.0180261,127)</title></rect><rect x="90" y="194.385" width="6" height="5.61535" stroke="black" stroke-width="1" fill="blue" opacity="1" tooltip="enable"><title>(0.0193136,120)</title></rect><rect x="96" y="195.04" width="6" height="4.96022" stroke="black" stroke-width="1" fill="blue" opacity="1" tooltip="enable"><title>(0.0206012,106)</title></rect><rect x="102" y="194.385" width="6" height="5.61535" stroke="black" stroke-width="1" fill="blue" opacity="1" tooltip="enable"><title>(0.0218888,120)</title></rect><rect x="108" y="195.976" width="6" height="4.02433" stroke="black" stroke-width="1" fill="blue" opacity="1" tooltip="enable"><title>(0.0231764,86)</title></rect><rect x="114" y="197.192" width="6" height="2.80767" stroke="black" stroke-width="1" fill="blue" opacity="1" tooltip="enable"><title>(0.024464,60)</title></rect><rect x="120" y="197.192" width="6" height="2.80767" stroke="black" stroke-width="1" fill="blue" opacity="1" tooltip="enable"><title>(0.0257515,60)</title></rect><rect x="126" y="198.128" width="6" height="1.87178" stroke="black" stroke-width="1" fill="blue" opacity="1" tooltip="enable"><title>(0.0270391,40)</title></rect><rect x="132" y="197.473" width="6" height="2.52691" stroke="black" stroke-width="1" fill="blue" opacity="1" tooltip="enable"><title>(0.0283267,54)</title></rect><rect x="138" y="198.409" width="6" height="1.59102" stroke="black" stroke-width="1" fill="blue" opacity="1" tooltip="enable"><title>(0.0296143,34)</title></rect><rect x="144" y="198.877" width="6" height="1.12307" stroke="black" stroke-width="1" fill="blue" opacity="1" tooltip="enable"><title>(0.0309018,24)</title></rect><rect x="150" y="198.877" width="6" height="1.12307" stroke="black" stroke-width="1" fill="blue" opacity="1" tooltip="enable"><title>(0.0321894,24)</title></rect><rect x="156" y="199.064" width="6" height="0.935891" stroke="black" stroke-width="1" fill="blue" opacity="1" tooltip="enable"><title>(0.033477,20)</title></rect><rect x="162" y="199.251" width="6" height="0.748713" stroke="black" stroke-width="1" fill="blue" opacity="1" tooltip="enable"><title>(0.0347646,16)</title></rect><rect x="168" y="199.719" width="6" height="0.280767" stroke="black" stroke-width="1" fill="blue" opacity="1" tooltip="enable"><title>(0.0360521,6)</title></rect><rect x="174" y="199.438" width="6" height="0.561535" stroke="black" stroke-width="1" fill="blue" opacity="1" tooltip="enable"><title>(0.0373397,12)</title></rect><rect x="180" y="199.719" width="6" height="0.280767" stroke="black" stroke-width="1" fill="blue" opacity="1" tooltip="enable"><title>(0.0386273,6)</title></rect><rect x="186" y="199.906" width="6" height="0.0935891" stroke="black" stroke-width="1" fill="blue" opacity="1" tooltip="enable"><title>(0.0399149,2)</title></rect><rect x="192" y="199.813" width="6" height="0.187178" stroke="black" stroke-width="1" fill="blue" opacity="1" tooltip="enable"><title>(0.0412024,4)</title></rect><rect x="198" y="199.813" width="6" height="0.187178" stroke="black" stroke-width="1" fill="blue" opacity="1" tooltip="enable"><title>(0.04249,4)</title></rect><rect x="204" y="199.813" width="6" height="0.187178" stroke="black" stroke-width="1" fill="blue" opacity="1" tooltip="enable"><title>(0.0437776,4)</title></rect><rect x="210" y="200" width="6" height="0" stroke="black" stroke-width="1" fill="blue" opacity="1" tooltip="enable"><title>(0.0450652,0)</title></rect><rect x="216" y="200" width="6" height="0" stroke="black" stroke-width="1" fill="blue" opacity="1" tooltip="enable"><title>(0.0463528,0)</title></rect><rect x="222" y="199.813" width="6" height="0.187178" stroke="black" stroke-width="1" fill="blue" opacity="1" tooltip="enable"><title>(0.0476403,4)</title></rect><rect x="228" y="199.813" width="6" height="0.187178" stroke="black" stroke-width="1" fill="blue" opacity="1" tooltip="enable"><title>(0.0489279,4)</title></rect><rect x="234" y="200" width="6" height="0" stroke="black" stroke-width="1" fill="blue" opacity="1" tooltip="enable"><title>(0.0502155,0)</title></rect><rect x="240" y="200" width="6" height="0" stroke="black" stroke-width="1" fill="blue" opacity="1" tooltip="enable"><title>(0.0515031,0)</title></rect><rect x="246" y="199.813" width="6" height="0.187178" stroke="black" stroke-width="1" fill="blue" opacity="1" tooltip="enable"><title>(0.0527906,4)</title></rect><rect x="252" y="200" width="6" height="0" stroke="black" stroke-width="1" fill="blue" opacity="1" tooltip="enable"><title>(0.0540782,0)</title></rect><rect x="258" y="199.813" width="6" height="0.187178" stroke="black" stroke-width="1" fill="blue" opacity="1" tooltip="enable"><title>(0.0553658,4)</title></rect><rect x="264" y="199.813" width="6" height="0.187178" stroke="black" stroke-width="1" fill="blue" opacity="1" tooltip="enable"><title>(0.0566534,4)</title></rect><rect x="270" y="200" width="6" height="0" stroke="black" stroke-width="1" fill="blue" opacity="1" tooltip="enable"><title>(0.0579409,0)</title></rect><rect x="276" y="200" width="6" height="0" stroke="black" stroke-width="1" fill="blue" opacity="1" tooltip="enable"><title>(0.0592285,0)</title></rect><rect x="282" y="199.719" width="6" height="0.280767" stroke="black" stroke-width="1" fill="blue" opacity="1" tooltip="enable"><title>(0.0605161,6)</title></rect><rect x="288" y="200" width="6" height="0" stroke="black" stroke-width="1" fill="blue" opacity="1" tooltip="enable"><title>(0.0618037,0)</title></rect><rect x="294" y="200" width="6" height="0" stroke="black" stroke-width="1" fill="blue" opacity="1" tooltip="enable"><title>(0.0630913,0)</title></rect><rect x="300" y="199.906" width="6" height="0.0935891" stroke="black" stroke-width="1" fill="blue" opacity="1" tooltip="enable"><title>(0.0643788,2)</title></rect><rect x="306" y="200" width="6" height="0" stroke="black" stroke-width="1" fill="blue" opacity="1" tooltip="enable"><title>(0.0656664,0)</title></rect><rect x="312" y="199.719" width="6" height="0.280767" stroke="black" stroke-width="1" fill="blue" opacity="1" tooltip="enable"><title>(0.066954,6)</title></rect><rect x="318" y="200" width="6" height="0" stroke="black" stroke-width="1" fill="blue" opacity="1" tooltip="enable"><title>(0.0682416,0)</title></rect><rect x="324" y="200" width="6" height="0" stroke="black" stroke-width="1" fill="blue" opacity="1" tooltip="enable"><title>(0.0695291,0)</title></rect><rect x="330" y="200" width="6" height="0" stroke="black" stroke-width="1" fill="blue" opacity="1" tooltip="enable"><title>(0.0708167,0)</title></rect><rect x="336" y="200" width="6" height="0" stroke="black" stroke-width="1" fill="blue" opacity="1" tooltip="enable"><title>(0.0721043,0)</title></rect><rect x="342" y="199.906" width="6" height="0.0935891" stroke="black" stroke-width="1" fill="blue" opacity="1" tooltip="enable"><title>(0.0733919,2)</title></rect><rect x="348" y="200" width="6" height="0" stroke="black" stroke-width="1" fill="blue" opacity="1" tooltip="enable"><title>(0.0746794,0)</title></rect><rect x="354" y="199.626" width="6" height="0.374357" stroke="black" stroke-width="1" fill="blue" opacity="1" tooltip="enable"><title>(0.075967,8)</title></rect><rect x="360" y="200" width="6" height="0" stroke="black" stroke-width="1" fill="blue" opacity="1" tooltip="enable"><title>(0.0772546,0)</title></rect><rect x="366" y="199.906" width="6" height="0.0935891" stroke="black" stroke-width="1" fill="blue" opacity="1" tooltip="enable"><title>(0.0785422,2)</title></rect><rect x="372" y="200" width="6" height="0" stroke="black" stroke-width="1" fill="blue" opacity="1" tooltip="enable"><title>(0.0798297,0)</title></rect><rect x="378" y="200" width="6" height="0" stroke="black" stroke-width="1" fill="blue" opacity="1" tooltip="enable"><title>(0.0811173,0)</title></rect><rect x="384" y="200" width="6" height="0" stroke="black" stroke-width="1" fill="blue" opacity="1" tooltip="enable"><title>(0.0824049,0)</title></rect><rect x="390" y="200" width="6" height="0" stroke="black" stroke-width="1" fill="blue" opacity="1" tooltip="enable"><title>(0.0836925,0)</title></rect><rect x="396" y="200" width="6" height="0" stroke="black" stroke-width="1" fill="blue" opacity="1" tooltip="enable"><title>(0.0849801,0)</title></rect><rect x="402" y="200" width="6" height="0" stroke="black" stroke-width="1" fill="blue" opacity="1" tooltip="enable"><title>(0.0862676,0)</title></rect><rect x="408" y="200" width="6" height="0" stroke="black" stroke-width="1" fill="blue" opacity="1" tooltip="enable"><title>(0.0875552,0)</title></rect><rect x="414" y="200" width="6" height="0" stroke="black" stroke-width="1" fill="blue" opacity="1" tooltip="enable"><title>(0.0888428,0)</title></rect><rect x="420" y="200" width="6" height="0" stroke="black" stroke-width="1" fill="blue" opacity="1" tooltip="enable"><title>(0.0901304,0)</title></rect><rect x="426" y="200" width="6" height="0" stroke="black" stroke-width="1" fill="blue" opacity="1" tooltip="enable"><title>(0.0914179,0)</title></rect><rect x="432" y="200" width="6" height="0" stroke="black" stroke-width="1" fill="blue" opacity="1" tooltip="enable"><title>(0.0927055,0)</title></rect><rect x="438" y="200" width="6" height="0" stroke="black" stroke-width="1" fill="blue" opacity="1" tooltip="enable"><title>(0.0939931,0)</title></rect><rect x="444" y="200" width="6" height="0" stroke="black" stroke-width="1" fill="blue" opacity="1" tooltip="enable"><title>(0.0952807,0)</title></rect><rect x="450" y="200" width="6" height="0" stroke="black" stroke-width="1" fill="blue" opacity="1" tooltip="enable"><title>(0.0965682,0)</title></rect><rect x="456" y="200" width="6" height="0" stroke="black" stroke-width="1" fill="blue" opacity="1" tooltip="enable"><title>(0.0978558,0)</title></rect><rect x="462" y="199.906" width="6" height="0.0935891" stroke="black" stroke-width="1" fill="blue" opacity="1" tooltip="enable"><title>(0.0991434,2)</title></rect><rect x="468" y="200" width="6" height="0" stroke="black" stroke-width="1" fill="blue" opacity="1" tooltip="enable"><title>(0.100431,0)</title></rect><rect x="474" y="200" width="6" height="0" stroke="black" stroke-width="1" fill="blue" opacity="1" tooltip="enable"><title>(0.101719,0)</title></rect><rect x="480" y="200" width="6" height="0" stroke="black" stroke-width="1" fill="blue" opacity="1" tooltip="enable"><title>(0.103006,0)</title></rect><rect x="486" y="200" width="6" height="0" stroke="black" stroke-width="1" fill="blue" opacity="1" tooltip="enable"><title>(0.104294,0)</title></rect><rect x="492" y="200" width="6" height="0" stroke="black" stroke-width="1" fill="blue" opacity="1" tooltip="enable"><title>(0.105581,0)</title></rect><rect x="498" y="199.906" width="6" height="0.0935891" stroke="black" stroke-width="1" fill="blue" opacity="1" tooltip="enable"><title>(0.106869,2)</title></rect><rect x="504" y="200" width="6" height="0" stroke="black" stroke-width="1" fill="blue" opacity="1" tooltip="enable"><title>(0.108156,0)</title></rect><rect x="510" y="200" width="6" height="0" stroke="black" stroke-width="1" fill="blue" opacity="1" tooltip="enable"><title>(0.109444,0)</title></rect><rect x="516" y="200" width="6" height="0" stroke="black" stroke-width="1" fill="blue" opacity="1" tooltip="enable"><title>(0.110732,0)</title></rect><rect x="522" y="200" width="6" height="0" stroke="black" stroke-width="1" fill="blue" opacity="1" tooltip="enable"><title>(0.112019,0)</title></rect><rect x="528" y="200" width="6" height="0" stroke="black" stroke-width="1" fill="blue" opacity="1" tooltip="enable"><title>(0.113307,0)</title></rect><rect x="534" y="200" width="6" height="0" stroke="black" stroke-width="1" fill="blue" opacity="1" tooltip="enable"><title>(0.114594,0)</title></rect><rect x="540" y="200" width="6" height="0" stroke="black" stroke-width="1" fill="blue" opacity="1" tooltip="enable"><title>(0.115882,0)</title></rect><rect x="546" y="200" width="6" height="0" stroke="black" stroke-width="1" fill="blue" opacity="1" tooltip="enable"><title>(0.117169,0)</title></rect><rect x="552" y="200" width="6" height="0" stroke="black" stroke-width="1" fill="blue" opacity="1" tooltip="enable"><title>(0.118457,0)</title></rect><rect x="558" y="200" width="6" height="0" stroke="black" stroke-width="1" fill="blue" opacity="1" tooltip="enable"><title>(0.119745,0)</title></rect><rect x="564" y="200" width="6" height="0" stroke="black" stroke-width="1" fill="blue" opacity="1" tooltip="enable"><title>(0.121032,0)</title></rect><rect x="570" y="200" width="6" height="0" stroke="black" stroke-width="1" fill="blue" opacity="1" tooltip="enable"><title>(0.12232,0)</title></rect><rect x="576" y="200" width="6" height="0" stroke="black" stroke-width="1" fill="blue" opacity="1" tooltip="enable"><title>(0.123607,0)</title></rect><rect x="582" y="200" width="6" height="0" stroke="black" stroke-width="1" fill="blue" opacity="1" tooltip="enable"><title>(0.124895,0)</title></rect><rect x="588" y="199.906" width="6" height="0.0935891" stroke="black" stroke-width="1" fill="blue" opacity="1" tooltip="enable"><title>(0.126183,2)</title></rect><rect x="594" y="199.953" width="6" height="0.0467946" stroke="black" stroke-width="1" fill="blue" opacity="1" tooltip="enable"><title>(0.12747,1)</title></rect><text x="30" y="240" font-size="20" fill="black">0</text>
<text x="600" y="240" font-size="20" fill="black">0.128758</text>
<polyline points="0,220,600,220" stroke="black" stroke-width="1" fill="none" opacity="1"/>
<text x="720" y="20" font-size="20" fill="black">4274</text>
<text x="720" y="200" font-size="20" fill="black">0</text>
<polyline points="660,0,660,200" stroke="black" stroke-width="1" fill="none" opacity="1"/>
</svg>