<?xml version="1.0" standalone="yes"?>
<!-- SVG graphic -->
<svg xmlns='http://www.w3.org/2000/svg' xmlns:xlink='http://www.w3.org/1999/xlink'
 version="1.1">
<rect x="0" y="0" width="6" height="200" stroke="black" stroke-width="1" fill="blue" opacity="1" tooltip="enable"><title>(0,4144)</title></rect><rect x="6" y="186.583" width="6" height="13.417" stroke="black" stroke-width="1" fill="blue" opacity="1" tooltip="enable"><title>(0.00131676,278)</title></rect><rect x="12" y="190.927" width="6" height="9.07336" stroke="black" stroke-width="1" fill="blue" opacity="1" tooltip="enable"><title>(0.00263351,188)</title></rect><rect x="18" y="192.471" width="6" height="7.52896" stroke="black" stroke-width="1" fill="blue" opacity="1" tooltip="enable"><title>(0.00395027,156)</title></rect><rect x="24" y="193.243" width="6" height="6.75676" stroke="black" stroke-width="1" fill="blue" opacity="1" tooltip="enable"><title>(0.00526703,140)</title></rect><rect x="30" y="191.892" width="6" height="8.10811" stroke="black" stroke-width="1" fill="blue" opacity="1" tooltip="enable"><title>(0.00658378,168)</title></rect><rect x="36" y="191.94" width="6" height="8.05985" stroke="black" stroke-width="1" fill="blue" opacity="1" tooltip="enable"><title>(0.00790054,167)</title></rect><rect x="42" y="193.871" width="6" height="6.12934" stroke="black" stroke-width="1" fill="blue" opacity="1" tooltip="enable"><title>(0.00921729,127)</title></rect><rect x="48" y="193.147" width="6" height="6.85328" stroke="black" stroke-width="1" fill="blue" opacity="1" tooltip="enable"><title>(0.0105341,142)</title></rect><rect x="54" y="193.098" width="6" height="6.90154" stroke="black" stroke-width="1" fill="blue" opacity="1" tooltip="enable"><title>(0.0118508,143)</title></rect><rect x="60" y="193.678" width="6" height="6.32239" stroke="black" stroke-width="1" fill="blue" opacity="1" tooltip="enable"><title>(0.0131676,131)</title></rect><rect x="66" y="195.415" width="6" height="4.58494" stroke="black" stroke-width="1" fill="blue" opacity="1" tooltip="enable"><title>(0.0144843,95)</title></rect><rect x="72" y="194.932" width="6" height="5.06757" stroke="black" stroke-width="1" fill="blue" opacity="1" tooltip="enable"><title>(0.0158011,105)</title></rect><rect x="78" y="195.512" width="6" height="4.48842" stroke="black" stroke-width="1" fill="blue" opacity="1" tooltip="enable"><title>(0.0171178,93)</title></rect><rect x="84" y="193.967" width="6" height="6.03282" stroke="black" stroke-width="1" fill="blue" opacity="1" tooltip="enable"><title>(0.0184346,125)</title></rect><rect x="90" y="195.608" width="6" height="4.39189" stroke="black" stroke-width="1" fill="blue" opacity="1" tooltip="enable"><title>(0.0197513,91)</title></rect><rect x="96" y="194.932" width="6" height="5.06757" stroke="black" stroke-width="1" fill="blue" opacity="1" tooltip="enable"><title>(0.0210681,105)</title></rect><rect x="102" y="196.139" width="6" height="3.861" stroke="black" stroke-width="1" fill="blue" opacity="1" tooltip="enable"><title>(0.0223849,80)</title></rect><rect x="108" y="196.38" width="6" height="3.61969" stroke="black" stroke-width="1" fill="blue" opacity="1" tooltip="enable"><title>(0.0237016,75)</title></rect><rect x="114" y="195.319" width="6" height="4.68147" stroke="black" stroke-width="1" fill="blue" opacity="1" tooltip="enable"><title>(0.0250184,97)</title></rect><rect x="120" y="196.429" width="6" height="3.57143" stroke="black" stroke-width="1" fill="blue" opacity="1" tooltip="enable"><title>(0.0263351,74)</title></rect><rect x="126" y="195.898" width="6" height="4.10232" stroke="black" stroke-width="1" fill="blue" opacity="1" tooltip="enable"><title>(0.0276519,85)</title></rect><rect x="132" y="196.187" width="6" height="3.81274" stroke="black" stroke-width="1" fill="blue" opacity="1" tooltip="enable"><title>(0.0289686,79)</title></rect><rect x="138" y="196.863" width="6" height="3.13707" stroke="black" stroke-width="1" fill="blue" opacity="1" tooltip="enable"><title>(0.0302854,65)</title></rect><rect x="144" y="197.153" width="6" height="2.84749" stroke="black" stroke-width="1" fill="blue" opacity="1" tooltip="enable"><title>(0.0316022,59)</title></rect><rect x="150" y="197.297" width="6" height="2.7027" stroke="black" stroke-width="1" fill="blue" opacity="1" tooltip="enable"><title>(0.0329189,56)</title></rect><rect x="156" y="196.429" width="6" height="3.57143" stroke="black" stroke-width="1" fill="blue" opacity="1" tooltip="enable"><title>(0.0342357,74)</title></rect><rect x="162" y="196.139" width="6" height="3.861" stroke="black" stroke-width="1" fill="blue" opacity="1" tooltip="enable"><title>(0.0355524,80)</title></rect><rect x="168" y="196.284" width="6" height="3.71622" stroke="black" stroke-width="1" fill="blue" opacity="1" tooltip="enable"><title>(0.0368692,77)</title></rect><rect x="174" y="197.201" width="6" height="2.79923" stroke="black" stroke-width="1" fill="blue" opacity="1" tooltip="enable"><title>(0.0381859,58)</title></rect><rect x="180" y="196.38" width="6" height="3.61969" stroke="black" stroke-width="1" fill="blue" opacity="1" tooltip="enable"><title>(0.0395027,75)</title></rect><rect x="186" y="197.297" width="6" height="2.7027" stroke="black" stroke-width="1" fill="blue" opacity="1" tooltip="enable"><title>(0.0408195,56)</title></rect><rect x="192" y="197.78" width="6" height="2.22008" stroke="black" stroke-width="1" fill="blue" opacity="1" tooltip="enable"><title>(0.0421362,46)</title></rect><rect x="198" y="197.732" width="6" height="2.26834" stroke="black" stroke-width="1" fill="blue" opacity="1" tooltip="enable"><title>(0.043453,47)</title></rect><rect x="204" y="197.828" width="6" height="2.17181" stroke="black" stroke-width="1" fill="blue" opacity="1" tooltip="enable"><title>(0.0447697,45)</title></rect><rect x="210" y="198.214" width="6" height="1.78571" stroke="black" stroke-width="1" fill="blue" opacity="1" tooltip="enable"><title>(0.0460865,37)</title></rect><rect x="216" y="197.539" width="6" height="2.46139" stroke="black" stroke-width="1" fill="blue" opacity="1" tooltip="enable"><title>(0.0474032,51)</title></rect><rect x="222" y="198.745" width="6" height="1.25483" stroke="black" stroke-width="1" fill="blue" opacity="1" tooltip="enable"><title>(0.04872,26)</title></rect><rect x="228" y="198.842" width="6" height="1.1583" stroke="black" stroke-width="1" fill="blue" opacity="1" tooltip="enable"><title>(0.0500367,24)</title></rect><rect x="234" y="199.035" width="6" height="0.965251" stroke="black" stroke-width="1" fill="blue" opacity="1" tooltip="enable"><title>(0.0513535,20)</title></rect><rect x="240" y="198.842" width="6" height="1.1583" stroke="black" stroke-width="1" fill="blue" opacity="1" tooltip="enable"><title>(0.0526703,24)</title></rect><rect x="246" y="198.745" width="6" height="1.25483" stroke="black" stroke-width="1" fill="blue" opacity="1" tooltip="enable"><title>(0.053987,26)</title></rect><rect x="252" y="199.71" width="6" height="0.289575" stroke="black" stroke-width="1" fill="blue" opacity="1" tooltip="enable"><title>(0.0553038,6)</title></rect><rect x="258" y="199.614" width="6" height="0.3861" stroke="black" stroke-width="1" fill="blue" opacity="1" tooltip="enable"><title>(0.0566205,8)</title></rect><rect x="264" y="199.807" width="6" height="0.19305" stroke="black" stroke-width="1" fill="blue" opacity="1" tooltip="enable"><title>(0.0579373,4)</title></rect><rect x="270" y="199.421" width="6" height="0.579151" stroke="black" stroke-width="1" fill="blue" opacity="1" tooltip="enable"><title>(0.059254,12)</title></rect><rect x="276" y="199.517" width="6" height="0.482625" stroke="black" stroke-width="1" fill="blue" opacity="1" tooltip="enable"><title>(0.0605708,10)</title></rect><rect x="282" y="199.517" width="6" height="0.482625" stroke="black" stroke-width="1" fill="blue" opacity="1" tooltip="enable"><title>(0.0618876,10)</title></rect><rect x="288" y="199.903" width="6" height="0.0965251" stroke="black" stroke-width="1" fill="blue" opacity="1" tooltip="enable"><title>(0.0632043,2)</title></rect><rect x="294" y="199.807" width="6" height="0.19305" stroke="black" stroke-width="1" fill="blue" opacity="1" tooltip="enable"><title>(0.0645211,4)</title></rect><rect x="300" y="199.903" width="6" height="0.0965251" stroke="black" stroke-width="1" fill="blue" opacity="1" tooltip="enable"><title>(0.0658378,2)</title></rect><rect x="306" y="199.903" width="6" height="0.0965251" stroke="black" stroke-width="1" fill="blue" opacity="1" tooltip="enable"><title>(0.0671546,2)</title></rect><rect x="312" y="199.855" width="6" height="0.144788" stroke="black" stroke-width="1" fill="blue" opacity="1" tooltip="enable"><title>(0.0684713,3)</title></rect><rect x="318" y="199.855" width="6" height="0.144788" stroke="black" stroke-width="1" fill="blue" opacity="1" tooltip="enable"><title>(0.0697881,3)</title></rect><rect x="324" y="199.807" width="6" height="0.19305" stroke="black" stroke-width="1" fill="blue" opacity="1" tooltip="enable"><title>(0.0711049,4)</title></rect><rect x="330" y="199.71" width="6" height="0.289575" stroke="black" stroke-width="1" fill="blue" opacity="1" tooltip="enable"><title>(0.0724216,6)</title></rect><rect x="336" y="199.807" width="6" height="0.19305" stroke="black" stroke-width="1" fill="blue" opacity="1" tooltip="enable"><title>(0.0737384,4)</title></rect><rect x="342" y="199.903" width="6" height="0.0965251" stroke="black" stroke-width="1" fill="blue" opacity="1" tooltip="enable"><title>(0.0750551,2)</title></rect><rect x="348" y="199.903" width="6" height="0.0965251" stroke="black" stroke-width="1" fill="blue" opacity="1" tooltip="enable"><title>(0.0763719,2)</title></rect><rect x="354" y="200" width="6" height="0" stroke="black" stroke-width="1" fill="blue" opacity="1" tooltip="enable"><title>(0.0776886,0)</title></rect><rect x="360" y="199.614" width="6" height="0.3861" stroke="black" stroke-width="1" fill="blue" opacity="1" tooltip="enable"><title>(0.0790054,8)</title></rect><rect x="366" y="199.903" width="6" height="0.0965251" stroke="black" stroke-width="1" fill="blue" opacity="1" tooltip="enable"><title>(0.0803221,2)</title></rect><rect x="372" y="199.517" width="6" height="0.482625" stroke="black" stroke-width="1" fill="blue" opacity="1" tooltip="enable"><title>(0.0816389,10)</title></rect><rect x="378" y="199.71" width="6" height="0.289575" stroke="black" stroke-width="1" fill="blue" opacity="1" tooltip="enable"><title>(0.0829557,6)</title></rect><rect x="384" y="199.807" width="6" height="0.19305" stroke="black" stroke-width="1" fill="blue" opacity="1" tooltip="enable"><title>(0.0842724,4)</title></rect><rect x="390" y="199.903" width="6" height="0.0965251" stroke="black" stroke-width="1" fill="blue" opacity="1" tooltip="enable"><title>(0.0855892,2)</title></rect><rect x="396" y="199.903" width="6" height="0.0965251" stroke="black" stroke-width="1" fill="blue" opacity="1" tooltip="enable"><title>(0.0869059,2)</title></rect><rect x="402" y="200" width="6" height="0" stroke="black" stroke-width="1" fill="blue" opacity="1" tooltip="enable"><title>(0.0882227,0)</title></rect><rect x="408" y="199.807" width="6" height="0.19305" stroke="black" stroke-width="1" fill="blue" opacity="1" tooltip="enable"><title>(0.0895394,4)</title></rect><rect x="414" y="200" width="6" height="0" stroke="black" stroke-width="1" fill="blue" opacity="1" tooltip="enable"><title>(0.0908562,0)</title></rect><rect x="420" y="199.807" width="6" height="0.19305" stroke="black" stroke-width="1" fill="blue" opacity="1" tooltip="enable"><title>(0.092173,4)</title></rect><rect x="426" y="199.903" width="6" height="0.0965251" stroke="black" stroke-width="1" fill="blue" opacity="1" tooltip="enable"><title>(0.0934897,2)</title></rect><rect x="432" y="200" width="6" height="0" stroke="black" stroke-width="1" fill="blue" opacity="1" tooltip="enable"><title>(0.0948065,0)</title></rect><rect x="438" y="199.807" width="6" height="0.19305" stroke="black" stroke-width="1" fill="blue" opacity="1" tooltip="enable"><title>(0.0961232,4)</title></rect><rect x="444" y="200" width="6" height="0" stroke="black" stroke-width="1" fill="blue" opacity="1" tooltip="enable"><title>(0.09744,0)</title></rect><rect x="450" y="200" width="6" height="0" stroke="black" stroke-width="1" fill="blue" opacity="1" tooltip="enable"><title>(0.0987567,0)</title></rect><rect x="456" y="199.903" width="6" height="0.0965251" stroke="black" stroke-width="1" fill="blue" opacity="1" tooltip="enable"><title>(0.100073,2)</title></rect><rect x="462" y="199.903" width="6" height="0.0965251" stroke="black" stroke-width="1" fill="blue" opacity="1" tooltip="enable"><title>(0.10139,2)</title></rect><rect x="468" y="200" width="6" height="0" stroke="black" stroke-width="1" fill="blue" opacity="1" tooltip="enable"><title>(0.102707,0)</title></rect><rect x="474" y="199.903" width="6" height="0.0965251" stroke="black" stroke-width="1" fill="blue" opacity="1" tooltip="enable"><title>(0.104024,2)</title></rect><rect x="480" y="200" width="6" height="0" stroke="black" stroke-width="1" fill="blue" opacity="1" tooltip="enable"><title>(0.105341,0)</title></rect><rect x="486" y="199.807" width="6" height="0.19305" stroke="black" stroke-width="1" fill="blue" opacity="1" tooltip="enable"><title>(0.106657,4)</title></rect><rect x="492" y="199.71" width="6" height="0.289575" stroke="black" stroke-width="1" fill="blue" opacity="1" tooltip="enable"><title>(0.107974,6)</title></rect><rect x="498" y="199.807" width="6" height="0.19305" stroke="black" stroke-width="1" fill="blue" opacity="1" tooltip="enable"><title>(0.109291,4)</title></rect><rect x="504" y="200" width="6" height="0" stroke="black" stroke-width="1" fill="blue" opacity="1" tooltip="enable"><title>(0.110608,0)</title></rect><rect x="510" y="200" width="6" height="0" stroke="black" stroke-width="1" fill="blue" opacity="1" tooltip="enable"><title>(0.111924,0)</title></rect><rect x="516" y="200" width="6" height="0" stroke="black" stroke-width="1" fill="blue" opacity="1" tooltip="enable"><title>(0.113241,0)</title></rect><rect x="522" y="200" width="6" height="0" stroke="black" stroke-width="1" fill="blue" opacity="1" tooltip="enable"><title>(0.114558,0)</title></rect><rect x="528" y="199.807" width="6" height="0.19305" stroke="black" stroke-width="1" fill="blue" opacity="1" tooltip="enable"><title>(0.115875,4)</title></rect><rect x="534" y="200" width="6" height="0" stroke="black" stroke-width="1" fill="blue" opacity="1" tooltip="enable"><title>(0.117191,0)</title></rect><rect x="540" y="200" width="6" height="0" stroke="black" stroke-width="1" fill="blue" opacity="1" tooltip="enable"><title>(0.118508,0)</title></rect><rect x="546" y="199.903" width="6" height="0.0965251" stroke="black" stroke-width="1" fill="blue" opacity="1" tooltip="enable"><title>(0.119825,2)</title></rect><rect x="552" y="200" width="6" height="0" stroke="black" stroke-width="1" fill="blue" opacity="1" tooltip="enable"><title>(0.121142,0)</title></rect><rect x="558" y="199.807" width="6" height="0.19305" stroke="black" stroke-width="1" fill="blue" opacity="1" tooltip="enable"><title>(0.122458,4)</title></rect><rect x="564" y="200" width="6" height="0" stroke="black" stroke-width="1" fill="blue" opacity="1" tooltip="enable"><title>(0.123775,0)</title></rect><rect x="570" y="199.903" width="6" height="0.0965251" stroke="black" stroke-width="1" fill="blue" opacity="1" tooltip="enable"><title>(0.125092,2)</title></rect><rect x="576" y="200" width="6" height="0" stroke="black" stroke-width="1" fill="blue" opacity="1" tooltip="enable"><title>(0.126409,0)</title></rect><rect x="582" y="200" width="6" height="0" stroke="black" stroke-width="1" fill="blue" opacity="1" tooltip="enable"><title>(0.127725,0)</title></rect><rect x="588" y="200" width="6" height="0" stroke="black" stroke-width="1" fill="blue" opacity="1" tooltip="enable"><title>(0.129042,0)</title></rect><rect x="594" y="199.952" width="6" height="0.0482625" stroke="black" stroke-width="1" fill="blue" opacity="1" tooltip="enable"><title>(0.130359,1)</title></rect><text x="30" y="240" font-size="20" fill="black">0</text>
<text x="600" y="240" font-size="20" fill="black">0.131676</text>
<polyline points="0,220,600,220" stroke="black" stroke-width="1" fill="none" opacity="1"/>
<text x="720" y="20" font-size="20" fill="black">4144</text>
<text x="720" y="200" font-size="20" fill="black">0</text>
<polyline points="660,0,660,200" stroke="black" stroke-width="1" fill="none" opacity="1"/>
</svg>