<?xml version="1.0" standalone="yes"?>
<!-- SVG graphic -->
<svg xmlns='http://www.w3.org/2000/svg' xmlns:xlink='http://www.w3.org/1999/xlink'
 version="1.1">
<rect x="0" y="0" width="6" height="200" stroke="black" stroke-width="1" fill="blue" opacity="1" tooltip="enable"><title>(0,2835)</title></rect><rect x="6" y="112.875" width="6" height="87.1252" stroke="black" stroke-width="1" fill="blue" opacity="1" tooltip="enable"><title>(0.00158547,1235)</title></rect><rect x="12" y="156.332" width="6" height="43.6684" stroke="black" stroke-width="1" fill="blue" opacity="1" tooltip="enable"><title>(0.00317095,619)</title></rect><rect x="18" y="176.649" width="6" height="23.351" stroke="black" stroke-width="1" fill="blue" opacity="1" tooltip="enable"><title>(0.00475642,331)</title></rect><rect x="24" y="184.056" width="6" height="15.9436" stroke="black" stroke-width="1" fill="blue" opacity="1" tooltip="enable"><title>(0.00634189,226)</title></rect><rect x="30" y="184.339" width="6" height="15.6614" stroke="black" stroke-width="1" fill="blue" opacity="1" tooltip="enable"><title>(0.00792736,222)</title></rect><rect x="36" y="185.326" width="6" height="14.6737" stroke="black" stroke-width="1" fill="blue" opacity="1" tooltip="enable"><title>(0.00951284,208)</title></rect><rect x="42" y="186.314" width="6" height="13.6861" stroke="black" stroke-width="1" fill="blue" opacity="1" tooltip="enable"><title>(0.0110983,194)</title></rect><rect x="48" y="185.75" width="6" height="14.2504" stroke="black" stroke-width="1" fill="blue" opacity="1" tooltip="enable"><title>(0.0126838,202)</title></rect><rect x="54" y="190.406" width="6" height="9.59436" stroke="black" stroke-width="1" fill="blue" opacity="1" tooltip="enable"><title>(0.0142693,136)</title></rect><rect x="60" y="187.866" width="6" height="12.134" stroke="black" stroke-width="1" fill="blue" opacity="1" tooltip="enable"><title>(0.0158547,172)</title></rect><rect x="66" y="191.111" width="6" height="8.88889" stroke="black" stroke-width="1" fill="blue" opacity="1" tooltip="enable"><title>(0.0174402,126)</title></rect><rect x="72" y="192.381" width="6" height="7.61905" stroke="black" stroke-width="1" fill="blue" opacity="1" tooltip="enable"><title>(0.0190257,108)</title></rect><rect x="78" y="192.381" width="6" height="7.61905" stroke="black" stroke-width="1" fill="blue" opacity="1" tooltip="enable"><title>(0.0206111,108)</title></rect><rect x="84" y="194.921" width="6" height="5.07937" stroke="black" stroke-width="1" fill="blue" opacity="1" tooltip="enable"><title>(0.0221966,72)</title></rect><rect x="90" y="194.356" width="6" height="5.64374" stroke="black" stroke-width="1" fill="blue" opacity="1" tooltip="enable"><title>(0.0237821,80)</title></rect><rect x="96" y="194.709" width="6" height="5.29101" stroke="black" stroke-width="1" fill="blue" opacity="1" tooltip="enable"><title>(0.0253676,75)</title></rect><rect x="102" y="193.157" width="6" height="6.84303" stroke="black" stroke-width="1" fill="blue" opacity="1" tooltip="enable"><title>(0.026953,97)</title></rect><rect x="108" y="194.427" width="6" height="5.57319" stroke="black" stroke-width="1" fill="blue" opacity="1" tooltip="enable"><title>(0.0285385,79)</title></rect><rect x="114" y="194.921" width="6" height="5.07937" stroke="black" stroke-width="1" fill="blue" opacity="1" tooltip="enable"><title>(0.030124,72)</title></rect><rect x="120" y="195.979" width="6" height="4.02116" stroke="black" stroke-width="1" fill="blue" opacity="1" tooltip="enable"><title>(0.0317095,57)</title></rect><rect x="126" y="195.344" width="6" height="4.65608" stroke="black" stroke-width="1" fill="blue" opacity="1" tooltip="enable"><title>(0.0332949,66)</title></rect><rect x="132" y="195.203" width="6" height="4.79718" stroke="black" stroke-width="1" fill="blue" opacity="1" tooltip="enable"><title>(0.0348804,68)</title></rect><rect x="138" y="194.921" width="6" height="5.07937" stroke="black" stroke-width="1" fill="blue" opacity="1" tooltip="enable"><title>(0.0364659,72)</title></rect><rect x="144" y="196.049" width="6" height="3.95062" stroke="black" stroke-width="1" fill="blue" opacity="1" tooltip="enable"><title>(0.0380514,56)</title></rect><rect x="150" y="196.402" width="6" height="3.59788" stroke="black" stroke-width="1" fill="blue" opacity="1" tooltip="enable"><title>(0.0396368,51)</title></rect><rect x="156" y="196.12" width="6" height="3.88007" stroke="black" stroke-width="1" fill="blue" opacity="1" tooltip="enable"><title>(0.0412223,55)</title></rect><rect x="162" y="195.485" width="6" height="4.51499" stroke="black" stroke-width="1" fill="blue" opacity="1" tooltip="enable"><title>(0.0428078,64)</title></rect><rect x="168" y="197.39" width="6" height="2.61023" stroke="black" stroke-width="1" fill="blue" opacity="1" tooltip="enable"><title>(0.0443932,37)</title></rect><rect x="174" y="197.954" width="6" height="2.04586" stroke="black" stroke-width="1" fill="blue" opacity="1" tooltip="enable"><title>(0.0459787,29)</title></rect><rect x="180" y="197.037" width="6" height="2.96296" stroke="black" stroke-width="1" fill="blue" opacity="1" tooltip="enable"><title>(0.0475642,42)</title></rect><rect x="186" y="196.896" width="6" height="3.10406" stroke="black" stroke-width="1" fill="blue" opacity="1" tooltip="enable"><title>(0.0491497,44)</title></rect><rect x="192" y="198.871" width="6" height="1.12875" stroke="black" stroke-width="1" fill="blue" opacity="1" tooltip="enable"><title>(0.0507351,16)</title></rect><rect x="198" y="198.448" width="6" height="1.55203" stroke="black" stroke-width="1" fill="blue" opacity="1" tooltip="enable"><title>(0.0523206,22)</title></rect><rect x="204" y="199.012" width="6" height="0.987654" stroke="black" stroke-width="1" fill="blue" opacity="1" tooltip="enable"><title>(0.0539061,14)</title></rect><rect x="210" y="199.295" width="6" height="0.705467" stroke="black" stroke-width="1" fill="blue" opacity="1" tooltip="enable"><title>(0.0554916,10)</title></rect><rect x="216" y="199.153" width="6" height="0.846561" stroke="black" stroke-width="1" fill="blue" opacity="1" tooltip="enable"><title>(0.057077,12)</title></rect><rect x="222" y="198.73" width="6" height="1.26984" stroke="black" stroke-width="1" fill="blue" opacity="1" tooltip="enable"><title>(0.0586625,18)</title></rect><rect x="228" y="199.577" width="6" height="0.42328" stroke="black" stroke-width="1" fill="blue" opacity="1" tooltip="enable"><title>(0.060248,6)</title></rect><rect x="234" y="199.295" width="6" height="0.705467" stroke="black" stroke-width="1" fill="blue" opacity="1" tooltip="enable"><title>(0.0618334,10)</title></rect><rect x="240" y="199.153" width="6" height="0.846561" stroke="black" stroke-width="1" fill="blue" opacity="1" tooltip="enable"><title>(0.0634189,12)</title></rect><rect x="246" y="198.73" width="6" height="1.26984" stroke="black" stroke-width="1" fill="blue" opacity="1" tooltip="enable"><title>(0.0650044,18)</title></rect><rect x="252" y="199.365" width="6" height="0.634921" stroke="black" stroke-width="1" fill="blue" opacity="1" tooltip="enable"><title>(0.0665899,9)</title></rect><rect x="258" y="199.506" width="6" height="0.493827" stroke="black" stroke-width="1" fill="blue" opacity="1" tooltip="enable"><title>(0.0681753,7)</title></rect><rect x="264" y="199.859" width="6" height="0.141093" stroke="black" stroke-width="1" fill="blue" opacity="1" tooltip="enable"><title>(0.0697608,2)</title></rect><rect x="270" y="200" width="6" height="0" stroke="black" stroke-width="1" fill="blue" opacity="1" tooltip="enable"><title>(0.0713463,0)</title></rect><rect x="276" y="200" width="6" height="0" stroke="black" stroke-width="1" fill="blue" opacity="1" tooltip="enable"><title>(0.0729318,0)</title></rect><rect x="282" y="199.859" width="6" height="0.141093" stroke="black" stroke-width="1" fill="blue" opacity="1" tooltip="enable"><title>(0.0745172,2)</title></rect><rect x="288" y="200" width="6" height="0" stroke="black" stroke-width="1" fill="blue" opacity="1" tooltip="enable"><title>(0.0761027,0)</title></rect><rect x="294" y="200" width="6" height="0" stroke="black" stroke-width="1" fill="blue" opacity="1" tooltip="enable"><title>(0.0776882,0)</title></rect><rect x="300" y="200" width="6" height="0" stroke="black" stroke-width="1" fill="blue" opacity="1" tooltip="enable"><title>(0.0792736,0)</title></rect><rect x="306" y="200" width="6" height="0" stroke="black" stroke-width="1" fill="blue" opacity="1" tooltip="enable"><title>(0.0808591,0)</title></rect><rect x="312" y="200" width="6" height="0" stroke="black" stroke-width="1" fill="blue" opacity="1" tooltip="enable"><title>(0.0824446,0)</title></rect><rect x="318" y="200" width="6" height="0" stroke="black" stroke-width="1" fill="blue" opacity="1" tooltip="enable"><title>(0.0840301,0)</title></rect><rect x="324" y="200" width="6" height="0" stroke="black" stroke-width="1" fill="blue" opacity="1" tooltip="enable"><title>(0.0856155,0)</title></rect><rect x="330" y="200" width="6" height="0" stroke="black" stroke-width="1" fill="blue" opacity="1" tooltip="enable"><title>(0.087201,0)</title></rect><rect x="336" y="200" width="6" height="0" stroke="black" stroke-width="1" fill="blue" opacity="1" tooltip="enable"><title>(0.0887865,0)</title></rect><rect x="342" y="200" width="6" height="0" stroke="black" stroke-width="1" fill="blue" opacity="1" tooltip="enable"><title>(0.090372,0)</title></rect><rect x="348" y="200" width="6" height="0" stroke="black" stroke-width="1" fill="blue" opacity="1" tooltip="enable"><title>(0.0919574,0)</title></rect><rect x="354" y="200" width="6" height="0" stroke="black" stroke-width="1" fill="blue" opacity="1" tooltip="enable"><title>(0.0935429,0)</title></rect><rect x="360" y="200" width="6" height="0" stroke="black" stroke-width="1" fill="blue" opacity="1" tooltip="enable"><title>(0.0951284,0)</title></rect><rect x="366" y="200" width="6" height="0" stroke="black" stroke-width="1" fill="blue" opacity="1" tooltip="enable"><title>(0.0967139,0)</title></rect><rect x="372" y="200" width="6" height="0" stroke="black" stroke-width="1" fill="blue" opacity="1" tooltip="enable"><title>(0.0982993,0)</title></rect><rect x="378" y="200" width="6" height="0" stroke="black" stroke-width="1" fill="blue" opacity="1" tooltip="enable"><title>(0.0998848,0)</title></rect><rect x="384" y="200" width="6" height="0" stroke="black" stroke-width="1" fill="blue" opacity="1" tooltip="enable"><title>(0.10147,0)</title></rect><rect x="390" y="200" width="6" height="0" stroke="black" stroke-width="1" fill="blue" opacity="1" tooltip="enable"><title>(0.103056,0)</title></rect><rect x="396" y="200" width="6" height="0" stroke="black" stroke-width="1" fill="blue" opacity="1" tooltip="enable"><title>(0.104641,0)</title></rect><rect x="402" y="200" width="6" height="0" stroke="black" stroke-width="1" fill="blue" opacity="1" tooltip="enable"><title>(0.106227,0)</title></rect><rect x="408" y="200" width="6" height="0" stroke="black" stroke-width="1" fill="blue" opacity="1" tooltip="enable"><title>(0.107812,0)</title></rect><rect x="414" y="200" width="6" height="0" stroke="black" stroke-width="1" fill="blue" opacity="1" tooltip="enable"><title>(0.109398,0)</title></rect><rect x="420" y="200" width="6" height="0" stroke="black" stroke-width="1" fill="blue" opacity="1" tooltip="enable"><title>(0.110983,0)</title></rect><rect x="426" y="200" width="6" height="0" stroke="black" stroke-width="1" fill="blue" opacity="1" tooltip="enable"><title>(0.112569,0)</title></rect><rect x="432" y="200" width="6" height="0" stroke="black" stroke-width="1" fill="blue" opacity="1" tooltip="enable"><title>(0.114154,0)</title></rect><rect x="438" y="200" width="6" height="0" stroke="black" stroke-width="1" fill="blue" opacity="1" tooltip="enable"><title>(0.11574,0)</title></rect><rect x="444" y="200" width="6" height="0" stroke="black" stroke-width="1" fill="blue" opacity="1" tooltip="enable"><title>(0.117325,0)</title></rect><rect x="450" y="200" width="6" height="0" stroke="black" stroke-width="1" fill="blue" opacity="1" tooltip="enable"><title>(0.11891,0)</title></rect><rect x="456" y="200" width="6" height="0" stroke="black" stroke-width="1" fill="blue" opacity="1" tooltip="enable"><title>(0.120496,0)</title></rect><rect x="462" y="200" width="6" height="0" stroke="black" stroke-width="1" fill="blue" opacity="1" tooltip="enable"><title>(0.122081,0)</title></rect><rect x="468" y="200" width="6" height="0" stroke="black" stroke-width="1" fill="blue" opacity="1" tooltip="enable"><title>(0.123667,0)</title></rect><rect x="474" y="200" width="6" height="0" stroke="black" stroke-width="1" fill="blue" opacity="1" tooltip="enable"><title>(0.125252,0)</title></rect><rect x="480" y="200" width="6" height="0" stroke="black" stroke-width="1" fill="blue" opacity="1" tooltip="enable"><title>(0.126838,0)</title></rect><rect x="486" y="200" width="6" height="0" stroke="black" stroke-width="1" fill="blue" opacity="1" tooltip="enable"><title>(0.128423,0)</title></rect><rect x="492" y="200" width="6" height="0" stroke="black" stroke-width="1" fill="blue" opacity="1" tooltip="enable"><title>(0.130009,0)</title></rect><rect x="498" y="200" width="6" height="0" stroke="black" stroke-width="1" fill="blue" opacity="1" tooltip="enable"><title>(0.131594,0)</title></rect><rect x="504" y="200" width="6" height="0" stroke="black" stroke-width="1" fill="blue" opacity="1" tooltip="enable"><title>(0.13318,0)</title></rect><rect x="510" y="200" width="6" height="0" stroke="black" stroke-width="1" fill="blue" opacity="1" tooltip="enable"><title>(0.134765,0)</title></rect><rect x="516" y="200" width="6" height="0" stroke="black" stroke-width="1" fill="blue" opacity="1" tooltip="enable"><title>(0.136351,0)</title></rect><rect x="522" y="200" width="6" height="0" stroke="black" stroke-width="1" fill="blue" opacity="1" tooltip="enable"><title>(0.137936,0)</title></rect><rect x="528" y="200" width="6" height="0" stroke="black" stroke-width="1" fill="blue" opacity="1" tooltip="enable"><title>(0.139522,0)</title></rect><rect x="534" y="200" width="6" height="0" stroke="black" stroke-width="1" fill="blue" opacity="1" tooltip="enable"><title>(0.141107,0)</title></rect><rect x="540" y="200" width="6" height="0" stroke="black" stroke-width="1" fill="blue" opacity="1" tooltip="enable"><title>(0.142693,0)</title></rect><rect x="546" y="200" width="6" height="0" stroke="black" stroke-width="1" fill="blue" opacity="1" tooltip="enable"><title>(0.144278,0)</title></rect><rect x="552" y="200" width="6" height="0" stroke="black" stroke-width="1" fill="blue" opacity="1" tooltip="enable"><title>(0.145864,0)</title></rect><rect x="558" y="200" width="6" height="0" stroke="black" stroke-width="1" fill="blue" opacity="1" tooltip="enable"><title>(0.147449,0)</title></rect><rect x="564" y="200" width="6" height="0" stroke="black" stroke-width="1" fill="blue" opacity="1" tooltip="enable"><title>(0.149034,0)</title></rect><rect x="570" y="200" width="6" height="0" stroke="black" stroke-width="1" fill="blue" opacity="1" tooltip="enable"><title>(0.15062,0)</title></rect><rect x="576" y="200" width="6" height="0" stroke="black" stroke-width="1" fill="blue" opacity="1" tooltip="enable"><title>(0.152205,0)</title></rect><rect x="582" y="200" width="6" height="0" stroke="black" stroke-width="1" fill="blue" opacity="1" tooltip="enable"><title>(0.153791,0)</title></rect><rect x="588" y="199.859" width="6" height="0.141093" stroke="black" stroke-width="1" fill="blue" opacity="1" tooltip="enable"><title>(0.155376,2)</title></rect><rect x="594" y="199.929" width="6" height="0.0705467" stroke="black" stroke-width="1" fill="blue" opacity="1" tooltip="enable"><title>(0.156962,1)</title></rect><text x="30" y="240" font-size="20" fill="black">0</text>
<text x="600" y="240" font-size="20" fill="black">0.158547</text>
<polyline points="0,220,600,220" stroke="black" stroke-width="1" fill="none" opacity="1"/>
<text x="720" y="20" font-size="20" fill="black">2835</text>
<text x="720" y="200" font-size="20" fill="black">0</text>
<polyline points="660,0,660,200" stroke="black" stroke-width="1" fill="none" opacity="1"/>
</svg>