<?xml version="1.0" standalone="yes"?>
<!-- SVG graphic -->
<svg xmlns='http://www.w3.org/2000/svg' xmlns:xlink='http://www.w3.org/1999/xlink'
 version="1.1">
<rect x="0" y="0" width="6" height="200" stroke="black" stroke-width="1" fill="blue" opacity="1" tooltip="enable"><title>(0,2121)</title></rect><rect x="6" y="73.5502" width="6" height="126.45" stroke="black" stroke-width="1" fill="blue" opacity="1" tooltip="enable"><title>(0.00128691,1341)</title></rect><rect x="12" y="136.162" width="6" height="63.8378" stroke="black" stroke-width="1" fill="blue" opacity="1" tooltip="enable"><title>(0.00257382,677)</title></rect><rect x="18" y="159.453" width="6" height="40.5469" stroke="black" stroke-width="1" fill="blue" opacity="1" tooltip="enable"><title>(0.00386073,430)</title></rect><rect x="24" y="180.764" width="6" height="19.2362" stroke="black" stroke-width="1" fill="blue" opacity="1" tooltip="enable"><title>(0.00514764,204)</title></rect><rect x="30" y="181.047" width="6" height="18.9533" stroke="black" stroke-width="1" fill="blue" opacity="1" tooltip="enable"><title>(0.00643455,201)</title></rect><rect x="36" y="178.878" width="6" height="21.1221" stroke="black" stroke-width="1" fill="blue" opacity="1" tooltip="enable"><title>(0.00772146,224)</title></rect><rect x="42" y="181.895" width="6" height="18.1047" stroke="black" stroke-width="1" fill="blue" opacity="1" tooltip="enable"><title>(0.00900837,192)</title></rect><rect x="48" y="183.781" width="6" height="16.2188" stroke="black" stroke-width="1" fill="blue" opacity="1" tooltip="enable"><title>(0.0102953,172)</title></rect><rect x="54" y="186.044" width="6" height="13.9557" stroke="black" stroke-width="1" fill="blue" opacity="1" tooltip="enable"><title>(0.0115822,148)</title></rect><rect x="60" y="185.007" width="6" height="14.9929" stroke="black" stroke-width="1" fill="blue" opacity="1" tooltip="enable"><title>(0.0128691,159)</title></rect><rect x="66" y="184.724" width="6" height="15.2758" stroke="black" stroke-width="1" fill="blue" opacity="1" tooltip="enable"><title>(0.014156,162)</title></rect><rect x="72" y="188.025" width="6" height="11.9755" stroke="black" stroke-width="1" fill="blue" opacity="1" tooltip="enable"><title>(0.0154429,127)</title></rect><rect x="78" y="186.233" width="6" height="13.7671" stroke="black" stroke-width="1" fill="blue" opacity="1" tooltip="enable"><title>(0.0167298,146)</title></rect><rect x="84" y="189.25" width="6" height="10.7496" stroke="black" stroke-width="1" fill="blue" opacity="1" tooltip="enable"><title>(0.0180167,114)</title></rect><rect x="90" y="190.193" width="6" height="9.80669" stroke="black" stroke-width="1" fill="blue" opacity="1" tooltip="enable"><title>(0.0193036,104)</title></rect><rect x="96" y="191.325" width="6" height="8.67515" stroke="black" stroke-width="1" fill="blue" opacity="1" tooltip="enable"><title>(0.0205906,92)</title></rect><rect x="102" y="188.685" width="6" height="11.3154" stroke="black" stroke-width="1" fill="blue" opacity="1" tooltip="enable"><title>(0.0218775,120)</title></rect><rect x="108" y="189.439" width="6" height="10.5611" stroke="black" stroke-width="1" fill="blue" opacity="1" tooltip="enable"><title>(0.0231644,112)</title></rect><rect x="114" y="191.042" width="6" height="8.95804" stroke="black" stroke-width="1" fill="blue" opacity="1" tooltip="enable"><title>(0.0244513,95)</title></rect><rect x="120" y="191.985" width="6" height="8.01509" stroke="black" stroke-width="1" fill="blue" opacity="1" tooltip="enable"><title>(0.0257382,85)</title></rect><rect x="126" y="192.645" width="6" height="7.35502" stroke="black" stroke-width="1" fill="blue" opacity="1" tooltip="enable"><title>(0.0270251,78)</title></rect><rect x="132" y="195.097" width="6" height="4.90335" stroke="black" stroke-width="1" fill="blue" opacity="1" tooltip="enable"><title>(0.028312,52)</title></rect><rect x="138" y="195.851" width="6" height="4.14899" stroke="black" stroke-width="1" fill="blue" opacity="1" tooltip="enable"><title>(0.0295989,44)</title></rect><rect x="144" y="193.494" width="6" height="6.50636" stroke="black" stroke-width="1" fill="blue" opacity="1" tooltip="enable"><title>(0.0308858,69)</title></rect><rect x="150" y="195.285" width="6" height="4.71476" stroke="black" stroke-width="1" fill="blue" opacity="1" tooltip="enable"><title>(0.0321727,50)</title></rect><rect x="156" y="196.794" width="6" height="3.20603" stroke="black" stroke-width="1" fill="blue" opacity="1" tooltip="enable"><title>(0.0334597,34)</title></rect><rect x="162" y="195.097" width="6" height="4.90335" stroke="black" stroke-width="1" fill="blue" opacity="1" tooltip="enable"><title>(0.0347466,52)</title></rect><rect x="168" y="195.945" width="6" height="4.05469" stroke="black" stroke-width="1" fill="blue" opacity="1" tooltip="enable"><title>(0.0360335,43)</title></rect><rect x="174" y="195.662" width="6" height="4.33758" stroke="black" stroke-width="1" fill="blue" opacity="1" tooltip="enable"><title>(0.0373204,46)</title></rect><rect x="180" y="195.945" width="6" height="4.05469" stroke="black" stroke-width="1" fill="blue" opacity="1" tooltip="enable"><title>(0.0386073,43)</title></rect><rect x="186" y="195.851" width="6" height="4.14899" stroke="black" stroke-width="1" fill="blue" opacity="1" tooltip="enable"><title>(0.0398942,44)</title></rect><rect x="192" y="196.7" width="6" height="3.30033" stroke="black" stroke-width="1" fill="blue" opacity="1" tooltip="enable"><title>(0.0411811,35)</title></rect><rect x="198" y="197.171" width="6" height="2.82885" stroke="black" stroke-width="1" fill="blue" opacity="1" tooltip="enable"><title>(0.042468,30)</title></rect><rect x="204" y="196.794" width="6" height="3.20603" stroke="black" stroke-width="1" fill="blue" opacity="1" tooltip="enable"><title>(0.0437549,34)</title></rect><rect x="210" y="196.983" width="6" height="3.01744" stroke="black" stroke-width="1" fill="blue" opacity="1" tooltip="enable"><title>(0.0450418,32)</title></rect><rect x="216" y="197.36" width="6" height="2.64026" stroke="black" stroke-width="1" fill="blue" opacity="1" tooltip="enable"><title>(0.0463288,28)</title></rect><rect x="222" y="196.417" width="6" height="3.58322" stroke="black" stroke-width="1" fill="blue" opacity="1" tooltip="enable"><title>(0.0476157,38)</title></rect><rect x="228" y="198.303" width="6" height="1.69731" stroke="black" stroke-width="1" fill="blue" opacity="1" tooltip="enable"><title>(0.0489026,18)</title></rect><rect x="234" y="197.36" width="6" height="2.64026" stroke="black" stroke-width="1" fill="blue" opacity="1" tooltip="enable"><title>(0.0501895,28)</title></rect><rect x="240" y="197.926" width="6" height="2.07449" stroke="black" stroke-width="1" fill="blue" opacity="1" tooltip="enable"><title>(0.0514764,22)</title></rect><rect x="246" y="197.926" width="6" height="2.07449" stroke="black" stroke-width="1" fill="blue" opacity="1" tooltip="enable"><title>(0.0527633,22)</title></rect><rect x="252" y="198.868" width="6" height="1.13154" stroke="black" stroke-width="1" fill="blue" opacity="1" tooltip="enable"><title>(0.0540502,12)</title></rect><rect x="258" y="198.68" width="6" height="1.32013" stroke="black" stroke-width="1" fill="blue" opacity="1" tooltip="enable"><title>(0.0553371,14)</title></rect><rect x="264" y="199.246" width="6" height="0.754361" stroke="black" stroke-width="1" fill="blue" opacity="1" tooltip="enable"><title>(0.056624,8)</title></rect><rect x="270" y="199.434" width="6" height="0.565771" stroke="black" stroke-width="1" fill="blue" opacity="1" tooltip="enable"><title>(0.0579109,6)</title></rect><rect x="276" y="199.811" width="6" height="0.18859" stroke="black" stroke-width="1" fill="blue" opacity="1" tooltip="enable"><title>(0.0591978,2)</title></rect><rect x="282" y="200" width="6" height="0" stroke="black" stroke-width="1" fill="blue" opacity="1" tooltip="enable"><title>(0.0604848,0)</title></rect><rect x="288" y="200" width="6" height="0" stroke="black" stroke-width="1" fill="blue" opacity="1" tooltip="enable"><title>(0.0617717,0)</title></rect><rect x="294" y="200" width="6" height="0" stroke="black" stroke-width="1" fill="blue" opacity="1" tooltip="enable"><title>(0.0630586,0)</title></rect><rect x="300" y="199.811" width="6" height="0.18859" stroke="black" stroke-width="1" fill="blue" opacity="1" tooltip="enable"><title>(0.0643455,2)</title></rect><rect x="306" y="199.811" width="6" height="0.18859" stroke="black" stroke-width="1" fill="blue" opacity="1" tooltip="enable"><title>(0.0656324,2)</title></rect><rect x="312" y="199.623" width="6" height="0.377181" stroke="black" stroke-width="1" fill="blue" opacity="1" tooltip="enable"><title>(0.0669193,4)</title></rect><rect x="318" y="199.434" width="6" height="0.565771" stroke="black" stroke-width="1" fill="blue" opacity="1" tooltip="enable"><title>(0.0682062,6)</title></rect><rect x="324" y="200" width="6" height="0" stroke="black" stroke-width="1" fill="blue" opacity="1" tooltip="enable"><title>(0.0694931,0)</title></rect><rect x="330" y="199.246" width="6" height="0.754361" stroke="black" stroke-width="1" fill="blue" opacity="1" tooltip="enable"><title>(0.07078,8)</title></rect><rect x="336" y="199.623" width="6" height="0.377181" stroke="black" stroke-width="1" fill="blue" opacity="1" tooltip="enable"><title>(0.0720669,4)</title></rect><rect x="342" y="199.811" width="6" height="0.18859" stroke="black" stroke-width="1" fill="blue" opacity="1" tooltip="enable"><title>(0.0733539,2)</title></rect><rect x="348" y="199.623" width="6" height="0.377181" stroke="black" stroke-width="1" fill="blue" opacity="1" tooltip="enable"><title>(0.0746408,4)</title></rect><rect x="354" y="199.811" width="6" height="0.18859" stroke="black" stroke-width="1" fill="blue" opacity="1" tooltip="enable"><title>(0.0759277,2)</title></rect><rect x="360" y="199.623" width="6" height="0.377181" stroke="black" stroke-width="1" fill="blue" opacity="1" tooltip="enable"><title>(0.0772146,4)</title></rect><rect x="366" y="199.906" width="6" height="0.0942951" stroke="black" stroke-width="1" fill="blue" opacity="1" tooltip="enable"><title>(0.0785015,1)</title></rect><rect x="372" y="199.906" width="6" height="0.0942951" stroke="black" stroke-width="1" fill="blue" opacity="1" tooltip="enable"><title>(0.0797884,1)</title></rect><rect x="378" y="199.811" width="6" height="0.18859" stroke="black" stroke-width="1" fill="blue" opacity="1" tooltip="enable"><title>(0.0810753,2)</title></rect><rect x="384" y="199.717" width="6" height="0.282885" stroke="black" stroke-width="1" fill="blue" opacity="1" tooltip="enable"><title>(0.0823622,3)</title></rect><rect x="390" y="199.717" width="6" height="0.282885" stroke="black" stroke-width="1" fill="blue" opacity="1" tooltip="enable"><title>(0.0836491,3)</title></rect><rect x="396" y="199.811" width="6" height="0.18859" stroke="black" stroke-width="1" fill="blue" opacity="1" tooltip="enable"><title>(0.084936,2)</title></rect><rect x="402" y="199.057" width="6" height="0.942951" stroke="black" stroke-width="1" fill="blue" opacity="1" tooltip="enable"><title>(0.086223,10)</title></rect><rect x="408" y="199.811" width="6" height="0.18859" stroke="black" stroke-width="1" fill="blue" opacity="1" tooltip="enable"><title>(0.0875099,2)</title></rect><rect x="414" y="199.811" width="6" height="0.18859" stroke="black" stroke-width="1" fill="blue" opacity="1" tooltip="enable"><title>(0.0887968,2)</title></rect><rect x="420" y="199.811" width="6" height="0.18859" stroke="black" stroke-width="1" fill="blue" opacity="1" tooltip="enable"><title>(0.0900837,2)</title></rect><rect x="426" y="199.623" width="6" height="0.377181" stroke="black" stroke-width="1" fill="blue" opacity="1" tooltip="enable"><title>(0.0913706,4)</title></rect><rect x="432" y="200" width="6" height="0" stroke="black" stroke-width="1" fill="blue" opacity="1" tooltip="enable"><title>(0.0926575,0)</title></rect><rect x="438" y="199.811" width="6" height="0.18859" stroke="black" stroke-width="1" fill="blue" opacity="1" tooltip="enable"><title>(0.0939444,2)</title></rect><rect x="444" y="200" width="6" height="0" stroke="black" stroke-width="1" fill="blue" opacity="1" tooltip="enable"><title>(0.0952313,0)</title></rect><rect x="450" y="199.623" width="6" height="0.377181" stroke="black" stroke-width="1" fill="blue" opacity="1" tooltip="enable"><title>(0.0965182,4)</title></rect><rect x="456" y="200" width="6" height="0" stroke="black" stroke-width="1" fill="blue" opacity="1" tooltip="enable"><title>(0.0978051,0)</title></rect><rect x="462" y="200" width="6" height="0" stroke="black" stroke-width="1" fill="blue" opacity="1" tooltip="enable"><title>(0.099092,0)</title></rect><rect x="468" y="199.811" width="6" height="0.18859" stroke="black" stroke-width="1" fill="blue" opacity="1" tooltip="enable"><title>(0.100379,2)</title></rect><rect x="474" y="199.811" width="6" height="0.18859" stroke="black" stroke-width="1" fill="blue" opacity="1" tooltip="enable"><title>(0.101666,2)</title></rect><rect x="480" y="200" width="6" height="0" stroke="black" stroke-width="1" fill="blue" opacity="1" tooltip="enable"><title>(0.102953,0)</title></rect><rect x="486" y="200" width="6" height="0" stroke="black" stroke-width="1" fill="blue" opacity="1" tooltip="enable"><title>(0.10424,0)</title></rect><rect x="492" y="199.717" width="6" height="0.282885" stroke="black" stroke-width="1" fill="blue" opacity="1" tooltip="enable"><title>(0.105527,3)</title></rect><rect x="498" y="199.906" width="6" height="0.0942951" stroke="black" stroke-width="1" fill="blue" opacity="1" tooltip="enable"><title>(0.106814,1)</title></rect><rect x="504" y="200" width="6" height="0" stroke="black" stroke-width="1" fill="blue" opacity="1" tooltip="enable"><title>(0.1081,0)</title></rect><rect x="510" y="200" width="6" height="0" stroke="black" stroke-width="1" fill="blue" opacity="1" tooltip="enable"><title>(0.109387,0)</title></rect><rect x="516" y="200" width="6" height="0" stroke="black" stroke-width="1" fill="blue" opacity="1" tooltip="enable"><title>(0.110674,0)</title></rect><rect x="522" y="200" width="6" height="0" stroke="black" stroke-width="1" fill="blue" opacity="1" tooltip="enable"><title>(0.111961,0)</title></rect><rect x="528" y="199.811" width="6" height="0.18859" stroke="black" stroke-width="1" fill="blue" opacity="1" tooltip="enable"><title>(0.113248,2)</title></rect><rect x="534" y="200" width="6" height="0" stroke="black" stroke-width="1" fill="blue" opacity="1" tooltip="enable"><title>(0.114535,0)</title></rect><rect x="540" y="200" width="6" height="0" stroke="black" stroke-width="1" fill="blue" opacity="1" tooltip="enable"><title>(0.115822,0)</title></rect><rect x="546" y="200" width="6" height="0" stroke="black" stroke-width="1" fill="blue" opacity="1" tooltip="enable"><title>(0.117109,0)</title></rect><rect x="552" y="200" width="6" height="0" stroke="black" stroke-width="1" fill="blue" opacity="1" tooltip="enable"><title>(0.118396,0)</title></rect><rect x="558" y="200" width="6" height="0" stroke="black" stroke-width="1" fill="blue" opacity="1" tooltip="enable"><title>(0.119683,0)</title></rect><rect x="564" y="200" width="6" height="0" stroke="black" stroke-width="1" fill="blue" opacity="1" tooltip="enable"><title>(0.12097,0)</title></rect><rect x="570" y="200" width="6" height="0" stroke="black" stroke-width="1" fill="blue" opacity="1" tooltip="enable"><title>(0.122256,0)</title></rect><rect x="576" y="200" width="6" height="0" stroke="black" stroke-width="1" fill="blue" opacity="1" tooltip="enable"><title>(0.123543,0)</title></rect><rect x="582" y="200" width="6" height="0" stroke="black" stroke-width="1" fill="blue" opacity="1" tooltip="enable"><title>(0.12483,0)</title></rect><rect x="588" y="199.811" width="6" height="0.18859" stroke="black" stroke-width="1" fill="blue" opacity="1" tooltip="enable"><title>(0.126117,2)</title></rect><rect x="594" y="199.906" width="6" height="0.0942951" stroke="black" stroke-width="1" fill="blue" opacity="1" tooltip="enable"><title>(0.127404,1)</title></rect><text x="30" y="240" font-size="20" fill="black">0</text>
<text x="600" y="240" font-size="20" fill="black">0.128691</text>
<polyline points="0,220,600,220" stroke="black" stroke-width="1" fill="none" opacity="1"/>
<text x="720" y="20" font-size="20" fill="black">2121</text>
<text x="720" y="200" font-size="20" fill="black">0</text>
<polyline points="660,0,660,200" stroke="black" stroke-width="1" fill="none" opacity="1"/>
</svg>