<?xml version="1.0" standalone="yes"?>
<!-- SVG graphic -->
<svg xmlns='http://www.w3.org/2000/svg' xmlns:xlink='http://www.w3.org/1999/xlink'
 version="1.1">
<rect x="0" y="0" width="6" height="200" stroke="black" stroke-width="1" fill="blue" opacity="1" tooltip="enable"><title>(0,638)</title></rect><rect x="6" y="6.89655" width="6" height="193.103" stroke="black" stroke-width="1" fill="blue" opacity="1" tooltip="enable"><title>(0.000992461,616)</title></rect><rect x="12" y="27.8997" width="6" height="172.1" stroke="black" stroke-width="1" fill="blue" opacity="1" tooltip="enable"><title>(0.00198492,549)</title></rect><rect x="18" y="34.1693" width="6" height="165.831" stroke="black" stroke-width="1" fill="blue" opacity="1" tooltip="enable"><title>(0.00297738,529)</title></rect><rect x="24" y="47.3354" width="6" height="152.665" stroke="black" stroke-width="1" fill="blue" opacity="1" tooltip="enable"><title>(0.00396984,487)</title></rect><rect x="30" y="56.1129" width="6" height="143.887" stroke="black" stroke-width="1" fill="blue" opacity="1" tooltip="enable"><title>(0.0049623,459)</title></rect><rect x="36" y="78.0564" width="6" height="121.944" stroke="black" stroke-width="1" fill="blue" opacity="1" tooltip="enable"><title>(0.00595477,389)</title></rect><rect x="42" y="63.0094" width="6" height="136.991" stroke="black" stroke-width="1" fill="blue" opacity="1" tooltip="enable"><title>(0.00694723,437)</title></rect><rect x="48" y="110.658" width="6" height="89.3417" stroke="black" stroke-width="1" fill="blue" opacity="1" tooltip="enable"><title>(0.00793969,285)</title></rect><rect x="54" y="124.451" width="6" height="75.5486" stroke="black" stroke-width="1" fill="blue" opacity="1" tooltip="enable"><title>(0.00893215,241)</title></rect><rect x="60" y="119.436" width="6" height="80.5643" stroke="black" stroke-width="1" fill="blue" opacity="1" tooltip="enable"><title>(0.00992461,257)</title></rect><rect x="66" y="138.871" width="6" height="61.1285" stroke="black" stroke-width="1" fill="blue" opacity="1" tooltip="enable"><title>(0.0109171,195)</title></rect><rect x="72" y="146.395" width="6" height="53.605" stroke="black" stroke-width="1" fill="blue" opacity="1" tooltip="enable"><title>(0.0119095,171)</title></rect><rect x="78" y="160.502" width="6" height="39.4984" stroke="black" stroke-width="1" fill="blue" opacity="1" tooltip="enable"><title>(0.012902,126)</title></rect><rect x="84" y="172.727" width="6" height="27.2727" stroke="black" stroke-width="1" fill="blue" opacity="1" tooltip="enable"><title>(0.0138945,87)</title></rect><rect x="90" y="169.279" width="6" height="30.721" stroke="black" stroke-width="1" fill="blue" opacity="1" tooltip="enable"><title>(0.0148869,98)</title></rect><rect x="96" y="169.592" width="6" height="30.4075" stroke="black" stroke-width="1" fill="blue" opacity="1" tooltip="enable"><title>(0.0158794,97)</title></rect><rect x="102" y="170.219" width="6" height="29.7806" stroke="black" stroke-width="1" fill="blue" opacity="1" tooltip="enable"><title>(0.0168718,95)</title></rect><rect x="108" y="174.922" width="6" height="25.0784" stroke="black" stroke-width="1" fill="blue" opacity="1" tooltip="enable"><title>(0.0178643,80)</title></rect><rect x="114" y="177.429" width="6" height="22.5705" stroke="black" stroke-width="1" fill="blue" opacity="1" tooltip="enable"><title>(0.0188568,72)</title></rect><rect x="120" y="176.803" width="6" height="23.1975" stroke="black" stroke-width="1" fill="blue" opacity="1" tooltip="enable"><title>(0.0198492,74)</title></rect><rect x="126" y="168.652" width="6" height="31.348" stroke="black" stroke-width="1" fill="blue" opacity="1" tooltip="enable"><title>(0.0208417,100)</title></rect><rect x="132" y="173.041" width="6" height="26.9592" stroke="black" stroke-width="1" fill="blue" opacity="1" tooltip="enable"><title>(0.0218341,86)</title></rect><rect x="138" y="174.295" width="6" height="25.7053" stroke="black" stroke-width="1" fill="blue" opacity="1" tooltip="enable"><title>(0.0228266,82)</title></rect><rect x="144" y="184.326" width="6" height="15.674" stroke="black" stroke-width="1" fill="blue" opacity="1" tooltip="enable"><title>(0.0238191,50)</title></rect><rect x="150" y="177.429" width="6" height="22.5705" stroke="black" stroke-width="1" fill="blue" opacity="1" tooltip="enable"><title>(0.0248115,72)</title></rect><rect x="156" y="178.056" width="6" height="21.9436" stroke="black" stroke-width="1" fill="blue" opacity="1" tooltip="enable"><title>(0.025804,70)</title></rect><rect x="162" y="183.072" width="6" height="16.9279" stroke="black" stroke-width="1" fill="blue" opacity="1" tooltip="enable"><title>(0.0267964,54)</title></rect><rect x="168" y="177.429" width="6" height="22.5705" stroke="black" stroke-width="1" fill="blue" opacity="1" tooltip="enable"><title>(0.0277889,72)</title></rect><rect x="174" y="178.056" width="6" height="21.9436" stroke="black" stroke-width="1" fill="blue" opacity="1" tooltip="enable"><title>(0.0287814,70)</title></rect><rect x="180" y="181.191" width="6" height="18.8088" stroke="black" stroke-width="1" fill="blue" opacity="1" tooltip="enable"><title>(0.0297738,60)</title></rect><rect x="186" y="180.564" width="6" height="19.4357" stroke="black" stroke-width="1" fill="blue" opacity="1" tooltip="enable"><title>(0.0307663,62)</title></rect><rect x="192" y="184.953" width="6" height="15.047" stroke="black" stroke-width="1" fill="blue" opacity="1" tooltip="enable"><title>(0.0317587,48)</title></rect><rect x="198" y="184.326" width="6" height="15.674" stroke="black" stroke-width="1" fill="blue" opacity="1" tooltip="enable"><title>(0.0327512,50)</title></rect><rect x="204" y="177.743" width="6" height="22.2571" stroke="black" stroke-width="1" fill="blue" opacity="1" tooltip="enable"><title>(0.0337437,71)</title></rect><rect x="210" y="177.116" width="6" height="22.884" stroke="black" stroke-width="1" fill="blue" opacity="1" tooltip="enable"><title>(0.0347361,73)</title></rect><rect x="216" y="178.056" width="6" height="21.9436" stroke="black" stroke-width="1" fill="blue" opacity="1" tooltip="enable"><title>(0.0357286,70)</title></rect><rect x="222" y="176.803" width="6" height="23.1975" stroke="black" stroke-width="1" fill="blue" opacity="1" tooltip="enable"><title>(0.0367211,74)</title></rect><rect x="228" y="184.326" width="6" height="15.674" stroke="black" stroke-width="1" fill="blue" opacity="1" tooltip="enable"><title>(0.0377135,50)</title></rect><rect x="234" y="178.683" width="6" height="21.3166" stroke="black" stroke-width="1" fill="blue" opacity="1" tooltip="enable"><title>(0.038706,68)</title></rect><rect x="240" y="188.715" width="6" height="11.2853" stroke="black" stroke-width="1" fill="blue" opacity="1" tooltip="enable"><title>(0.0396984,36)</title></rect><rect x="246" y="186.207" width="6" height="13.7931" stroke="black" stroke-width="1" fill="blue" opacity="1" tooltip="enable"><title>(0.0406909,44)</title></rect><rect x="252" y="186.834" width="6" height="13.1661" stroke="black" stroke-width="1" fill="blue" opacity="1" tooltip="enable"><title>(0.0416834,42)</title></rect><rect x="258" y="189.655" width="6" height="10.3448" stroke="black" stroke-width="1" fill="blue" opacity="1" tooltip="enable"><title>(0.0426758,33)</title></rect><rect x="264" y="190.909" width="6" height="9.09091" stroke="black" stroke-width="1" fill="blue" opacity="1" tooltip="enable"><title>(0.0436683,29)</title></rect><rect x="270" y="186.207" width="6" height="13.7931" stroke="black" stroke-width="1" fill="blue" opacity="1" tooltip="enable"><title>(0.0446607,44)</title></rect><rect x="276" y="191.85" width="6" height="8.15047" stroke="black" stroke-width="1" fill="blue" opacity="1" tooltip="enable"><title>(0.0456532,26)</title></rect><rect x="282" y="192.163" width="6" height="7.83699" stroke="black" stroke-width="1" fill="blue" opacity="1" tooltip="enable"><title>(0.0466457,25)</title></rect><rect x="288" y="192.79" width="6" height="7.21003" stroke="black" stroke-width="1" fill="blue" opacity="1" tooltip="enable"><title>(0.0476381,23)</title></rect><rect x="294" y="188.088" width="6" height="11.9122" stroke="black" stroke-width="1" fill="blue" opacity="1" tooltip="enable"><title>(0.0486306,38)</title></rect><rect x="300" y="186.207" width="6" height="13.7931" stroke="black" stroke-width="1" fill="blue" opacity="1" tooltip="enable"><title>(0.049623,44)</title></rect><rect x="306" y="186.207" width="6" height="13.7931" stroke="black" stroke-width="1" fill="blue" opacity="1" tooltip="enable"><title>(0.0506155,44)</title></rect><rect x="312" y="193.73" width="6" height="6.26959" stroke="black" stroke-width="1" fill="blue" opacity="1" tooltip="enable"><title>(0.051608,20)</title></rect><rect x="318" y="188.088" width="6" height="11.9122" stroke="black" stroke-width="1" fill="blue" opacity="1" tooltip="enable"><title>(0.0526004,38)</title></rect><rect x="324" y="192.476" width="6" height="7.52351" stroke="black" stroke-width="1" fill="blue" opacity="1" tooltip="enable"><title>(0.0535929,24)</title></rect><rect x="330" y="191.223" width="6" height="8.77743" stroke="black" stroke-width="1" fill="blue" opacity="1" tooltip="enable"><title>(0.0545854,28)</title></rect><rect x="336" y="192.79" width="6" height="7.21003" stroke="black" stroke-width="1" fill="blue" opacity="1" tooltip="enable"><title>(0.0555778,23)</title></rect><rect x="342" y="196.238" width="6" height="3.76176" stroke="black" stroke-width="1" fill="blue" opacity="1" tooltip="enable"><title>(0.0565703,12)</title></rect><rect x="348" y="194.044" width="6" height="5.95611" stroke="black" stroke-width="1" fill="blue" opacity="1" tooltip="enable"><title>(0.0575627,19)</title></rect><rect x="354" y="196.238" width="6" height="3.76176" stroke="black" stroke-width="1" fill="blue" opacity="1" tooltip="enable"><title>(0.0585552,12)</title></rect><rect x="360" y="195.611" width="6" height="4.38871" stroke="black" stroke-width="1" fill="blue" opacity="1" tooltip="enable"><title>(0.0595477,14)</title></rect><rect x="366" y="193.73" width="6" height="6.26959" stroke="black" stroke-width="1" fill="blue" opacity="1" tooltip="enable"><title>(0.0605401,20)</title></rect><rect x="372" y="199.373" width="6" height="0.626959" stroke="black" stroke-width="1" fill="blue" opacity="1" tooltip="enable"><title>(0.0615326,2)</title></rect><rect x="378" y="196.552" width="6" height="3.44828" stroke="black" stroke-width="1" fill="blue" opacity="1" tooltip="enable"><title>(0.062525,11)</title></rect><rect x="384" y="195.298" width="6" height="4.70219" stroke="black" stroke-width="1" fill="blue" opacity="1" tooltip="enable"><title>(0.0635175,15)</title></rect><rect x="390" y="194.984" width="6" height="5.01567" stroke="black" stroke-width="1" fill="blue" opacity="1" tooltip="enable"><title>(0.06451,16)</title></rect><rect x="396" y="198.119" width="6" height="1.88088" stroke="black" stroke-width="1" fill="blue" opacity="1" tooltip="enable"><title>(0.0655024,6)</title></rect><rect x="402" y="198.746" width="6" height="1.25392" stroke="black" stroke-width="1" fill="blue" opacity="1" tooltip="enable"><title>(0.0664949,4)</title></rect><rect x="408" y="197.492" width="6" height="2.50784" stroke="black" stroke-width="1" fill="blue" opacity="1" tooltip="enable"><title>(0.0674873,8)</title></rect><rect x="414" y="198.119" width="6" height="1.88088" stroke="black" stroke-width="1" fill="blue" opacity="1" tooltip="enable"><title>(0.0684798,6)</title></rect><rect x="420" y="199.373" width="6" height="0.626959" stroke="black" stroke-width="1" fill="blue" opacity="1" tooltip="enable"><title>(0.0694723,2)</title></rect><rect x="426" y="200" width="6" height="0" stroke="black" stroke-width="1" fill="blue" opacity="1" tooltip="enable"><title>(0.0704647,0)</title></rect><rect x="432" y="200" width="6" height="0" stroke="black" stroke-width="1" fill="blue" opacity="1" tooltip="enable"><title>(0.0714572,0)</title></rect><rect x="438" y="199.373" width="6" height="0.626959" stroke="black" stroke-width="1" fill="blue" opacity="1" tooltip="enable"><title>(0.0724496,2)</title></rect><rect x="444" y="198.746" width="6" height="1.25392" stroke="black" stroke-width="1" fill="blue" opacity="1" tooltip="enable"><title>(0.0734421,4)</title></rect><rect x="450" y="199.373" width="6" height="0.626959" stroke="black" stroke-width="1" fill="blue" opacity="1" tooltip="enable"><title>(0.0744346,2)</title></rect><rect x="456" y="199.373" width="6" height="0.626959" stroke="black" stroke-width="1" fill="blue" opacity="1" tooltip="enable"><title>(0.075427,2)</title></rect><rect x="462" y="200" width="6" height="0" stroke="black" stroke-width="1" fill="blue" opacity="1" tooltip="enable"><title>(0.0764195,0)</title></rect><rect x="468" y="198.746" width="6" height="1.25392" stroke="black" stroke-width="1" fill="blue" opacity="1" tooltip="enable"><title>(0.0774119,4)</title></rect><rect x="474" y="199.373" width="6" height="0.626959" stroke="black" stroke-width="1" fill="blue" opacity="1" tooltip="enable"><title>(0.0784044,2)</title></rect><rect x="480" y="199.373" width="6" height="0.626959" stroke="black" stroke-width="1" fill="blue" opacity="1" tooltip="enable"><title>(0.0793969,2)</title></rect><rect x="486" y="200" width="6" height="0" stroke="black" stroke-width="1" fill="blue" opacity="1" tooltip="enable"><title>(0.0803893,0)</title></rect><rect x="492" y="200" width="6" height="0" stroke="black" stroke-width="1" fill="blue" opacity="1" tooltip="enable"><title>(0.0813818,0)</title></rect><rect x="498" y="200" width="6" height="0" stroke="black" stroke-width="1" fill="blue" opacity="1" tooltip="enable"><title>(0.0823743,0)</title></rect><rect x="504" y="200" width="6" height="0" stroke="black" stroke-width="1" fill="blue" opacity="1" tooltip="enable"><title>(0.0833667,0)</title></rect><rect x="510" y="198.746" width="6" height="1.25392" stroke="black" stroke-width="1" fill="blue" opacity="1" tooltip="enable"><title>(0.0843592,4)</title></rect><rect x="516" y="200" width="6" height="0" stroke="black" stroke-width="1" fill="blue" opacity="1" tooltip="enable"><title>(0.0853516,0)</title></rect><rect x="522" y="199.373" width="6" height="0.626959" stroke="black" stroke-width="1" fill="blue" opacity="1" tooltip="enable"><title>(0.0863441,2)</title></rect><rect x="528" y="200" width="6" height="0" stroke="black" stroke-width="1" fill="blue" opacity="1" tooltip="enable"><title>(0.0873366,0)</title></rect><rect x="534" y="200" width="6" height="0" stroke="black" stroke-width="1" fill="blue" opacity="1" tooltip="enable"><title>(0.088329,0)</title></rect><rect x="540" y="200" width="6" height="0" stroke="black" stroke-width="1" fill="blue" opacity="1" tooltip="enable"><title>(0.0893215,0)</title></rect><rect x="546" y="200" width="6" height="0" stroke="black" stroke-width="1" fill="blue" opacity="1" tooltip="enable"><title>(0.0903139,0)</title></rect><rect x="552" y="200" width="6" height="0" stroke="black" stroke-width="1" fill="blue" opacity="1" tooltip="enable"><title>(0.0913064,0)</title></rect><rect x="558" y="200" width="6" height="0" stroke="black" stroke-width="1" fill="blue" opacity="1" tooltip="enable"><title>(0.0922989,0)</title></rect><rect x="564" y="199.687" width="6" height="0.31348" stroke="black" stroke-width="1" fill="blue" opacity="1" tooltip="enable"><title>(0.0932913,1)</title></rect><rect x="570" y="199.687" width="6" height="0.31348" stroke="black" stroke-width="1" fill="blue" opacity="1" tooltip="enable"><title>(0.0942838,1)</title></rect><rect x="576" y="200" width="6" height="0" stroke="black" stroke-width="1" fill="blue" opacity="1" tooltip="enable"><title>(0.0952762,0)</title></rect><rect x="582" y="200" width="6" height="0" stroke="black" stroke-width="1" fill="blue" opacity="1" tooltip="enable"><title>(0.0962687,0)</title></rect><rect x="588" y="200" width="6" height="0" stroke="black" stroke-width="1" fill="blue" opacity="1" tooltip="enable"><title>(0.0972612,0)</title></rect><rect x="594" y="199.687" width="6" height="0.31348" stroke="black" stroke-width="1" fill="blue" opacity="1" tooltip="enable"><title>(0.0982536,1)</title></rect><text x="30" y="240" font-size="20" fill="black">0</text>
<text x="600" y="240" font-size="20" fill="black">0.0992461</text>
<polyline points="0,220,600,220" stroke="black" stroke-width="1" fill="none" opacity="1"/>
<text x="720" y="20" font-size="20" fill="black">638</text>
<text x="720" y="200" font-size="20" fill="black">0</text>
<polyline points="660,0,660,200" stroke="black" stroke-width="1" fill="none" opacity="1"/>
</svg>