<?xml version="1.0" standalone="yes"?>
<!-- SVG graphic -->
<svg xmlns='http://www.w3.org/2000/svg' xmlns:xlink='http://www.w3.org/1999/xlink'
 version="1.1">
<rect x="0" y="0" width="6" height="200" stroke="black" stroke-width="1" fill="blue" opacity="1" tooltip="enable"><title>(0,2587)</title></rect><rect x="6" y="116.119" width="6" height="83.8809" stroke="black" stroke-width="1" fill="blue" opacity="1" tooltip="enable"><title>(0.00121041,1085)</title></rect><rect x="12" y="151.759" width="6" height="48.2412" stroke="black" stroke-width="1" fill="blue" opacity="1" tooltip="enable"><title>(0.00242081,624)</title></rect><rect x="18" y="180.131" width="6" height="19.8686" stroke="black" stroke-width="1" fill="blue" opacity="1" tooltip="enable"><title>(0.00363122,257)</title></rect><rect x="24" y="185.543" width="6" height="14.4569" stroke="black" stroke-width="1" fill="blue" opacity="1" tooltip="enable"><title>(0.00484163,187)</title></rect><rect x="30" y="186.394" width="6" height="13.6065" stroke="black" stroke-width="1" fill="blue" opacity="1" tooltip="enable"><title>(0.00605204,176)</title></rect><rect x="36" y="189.486" width="6" height="10.5141" stroke="black" stroke-width="1" fill="blue" opacity="1" tooltip="enable"><title>(0.00726244,136)</title></rect><rect x="42" y="189.95" width="6" height="10.0503" stroke="black" stroke-width="1" fill="blue" opacity="1" tooltip="enable"><title>(0.00847285,130)</title></rect><rect x="48" y="188.713" width="6" height="11.2872" stroke="black" stroke-width="1" fill="blue" opacity="1" tooltip="enable"><title>(0.00968326,146)</title></rect><rect x="54" y="188.945" width="6" height="11.0553" stroke="black" stroke-width="1" fill="blue" opacity="1" tooltip="enable"><title>(0.0108937,143)</title></rect><rect x="60" y="188.017" width="6" height="11.983" stroke="black" stroke-width="1" fill="blue" opacity="1" tooltip="enable"><title>(0.0121041,155)</title></rect><rect x="66" y="189.641" width="6" height="10.3595" stroke="black" stroke-width="1" fill="blue" opacity="1" tooltip="enable"><title>(0.0133145,134)</title></rect><rect x="72" y="188.558" width="6" height="11.4418" stroke="black" stroke-width="1" fill="blue" opacity="1" tooltip="enable"><title>(0.0145249,148)</title></rect><rect x="78" y="192.578" width="6" height="7.42172" stroke="black" stroke-width="1" fill="blue" opacity="1" tooltip="enable"><title>(0.0157353,96)</title></rect><rect x="84" y="191.032" width="6" height="8.96792" stroke="black" stroke-width="1" fill="blue" opacity="1" tooltip="enable"><title>(0.0169457,116)</title></rect><rect x="90" y="191.341" width="6" height="8.65868" stroke="black" stroke-width="1" fill="blue" opacity="1" tooltip="enable"><title>(0.0181561,112)</title></rect><rect x="96" y="191.187" width="6" height="8.8133" stroke="black" stroke-width="1" fill="blue" opacity="1" tooltip="enable"><title>(0.0193665,114)</title></rect><rect x="102" y="193.661" width="6" height="6.33939" stroke="black" stroke-width="1" fill="blue" opacity="1" tooltip="enable"><title>(0.0205769,82)</title></rect><rect x="108" y="193.738" width="6" height="6.26208" stroke="black" stroke-width="1" fill="blue" opacity="1" tooltip="enable"><title>(0.0217873,81)</title></rect><rect x="114" y="194.202" width="6" height="5.79822" stroke="black" stroke-width="1" fill="blue" opacity="1" tooltip="enable"><title>(0.0229977,75)</title></rect><rect x="120" y="194.279" width="6" height="5.72091" stroke="black" stroke-width="1" fill="blue" opacity="1" tooltip="enable"><title>(0.0242081,74)</title></rect><rect x="126" y="194.511" width="6" height="5.48898" stroke="black" stroke-width="1" fill="blue" opacity="1" tooltip="enable"><title>(0.0254186,71)</title></rect><rect x="132" y="195.748" width="6" height="4.25203" stroke="black" stroke-width="1" fill="blue" opacity="1" tooltip="enable"><title>(0.026629,55)</title></rect><rect x="138" y="193.815" width="6" height="6.18477" stroke="black" stroke-width="1" fill="blue" opacity="1" tooltip="enable"><title>(0.0278394,80)</title></rect><rect x="144" y="196.444" width="6" height="3.55624" stroke="black" stroke-width="1" fill="blue" opacity="1" tooltip="enable"><title>(0.0290498,46)</title></rect><rect x="150" y="196.057" width="6" height="3.94279" stroke="black" stroke-width="1" fill="blue" opacity="1" tooltip="enable"><title>(0.0302602,51)</title></rect><rect x="156" y="197.294" width="6" height="2.70584" stroke="black" stroke-width="1" fill="blue" opacity="1" tooltip="enable"><title>(0.0314706,35)</title></rect><rect x="162" y="196.366" width="6" height="3.63355" stroke="black" stroke-width="1" fill="blue" opacity="1" tooltip="enable"><title>(0.032681,47)</title></rect><rect x="168" y="196.212" width="6" height="3.78817" stroke="black" stroke-width="1" fill="blue" opacity="1" tooltip="enable"><title>(0.0338914,49)</title></rect><rect x="174" y="196.83" width="6" height="3.16969" stroke="black" stroke-width="1" fill="blue" opacity="1" tooltip="enable"><title>(0.0351018,41)</title></rect><rect x="180" y="195.593" width="6" height="4.40665" stroke="black" stroke-width="1" fill="blue" opacity="1" tooltip="enable"><title>(0.0363122,57)</title></rect><rect x="186" y="196.212" width="6" height="3.78817" stroke="black" stroke-width="1" fill="blue" opacity="1" tooltip="enable"><title>(0.0375226,49)</title></rect><rect x="192" y="196.985" width="6" height="3.01508" stroke="black" stroke-width="1" fill="blue" opacity="1" tooltip="enable"><title>(0.038733,39)</title></rect><rect x="198" y="195.129" width="6" height="4.87051" stroke="black" stroke-width="1" fill="blue" opacity="1" tooltip="enable"><title>(0.0399434,63)</title></rect><rect x="204" y="196.521" width="6" height="3.47893" stroke="black" stroke-width="1" fill="blue" opacity="1" tooltip="enable"><title>(0.0411539,45)</title></rect><rect x="210" y="196.289" width="6" height="3.71086" stroke="black" stroke-width="1" fill="blue" opacity="1" tooltip="enable"><title>(0.0423643,48)</title></rect><rect x="216" y="197.062" width="6" height="2.93777" stroke="black" stroke-width="1" fill="blue" opacity="1" tooltip="enable"><title>(0.0435747,38)</title></rect><rect x="222" y="197.371" width="6" height="2.62853" stroke="black" stroke-width="1" fill="blue" opacity="1" tooltip="enable"><title>(0.0447851,34)</title></rect><rect x="228" y="197.526" width="6" height="2.47391" stroke="black" stroke-width="1" fill="blue" opacity="1" tooltip="enable"><title>(0.0459955,32)</title></rect><rect x="234" y="197.371" width="6" height="2.62853" stroke="black" stroke-width="1" fill="blue" opacity="1" tooltip="enable"><title>(0.0472059,34)</title></rect><rect x="240" y="197.835" width="6" height="2.16467" stroke="black" stroke-width="1" fill="blue" opacity="1" tooltip="enable"><title>(0.0484163,28)</title></rect><rect x="246" y="196.598" width="6" height="3.40162" stroke="black" stroke-width="1" fill="blue" opacity="1" tooltip="enable"><title>(0.0496267,44)</title></rect><rect x="252" y="197.99" width="6" height="2.01005" stroke="black" stroke-width="1" fill="blue" opacity="1" tooltip="enable"><title>(0.0508371,26)</title></rect><rect x="258" y="198.145" width="6" height="1.85543" stroke="black" stroke-width="1" fill="blue" opacity="1" tooltip="enable"><title>(0.0520475,24)</title></rect><rect x="264" y="197.681" width="6" height="2.31929" stroke="black" stroke-width="1" fill="blue" opacity="1" tooltip="enable"><title>(0.0532579,30)</title></rect><rect x="270" y="197.835" width="6" height="2.16467" stroke="black" stroke-width="1" fill="blue" opacity="1" tooltip="enable"><title>(0.0544683,28)</title></rect><rect x="276" y="198.145" width="6" height="1.85543" stroke="black" stroke-width="1" fill="blue" opacity="1" tooltip="enable"><title>(0.0556787,24)</title></rect><rect x="282" y="198.608" width="6" height="1.39157" stroke="black" stroke-width="1" fill="blue" opacity="1" tooltip="enable"><title>(0.0568892,18)</title></rect><rect x="288" y="199.227" width="6" height="0.773096" stroke="black" stroke-width="1" fill="blue" opacity="1" tooltip="enable"><title>(0.0580996,10)</title></rect><rect x="294" y="198.145" width="6" height="1.85543" stroke="black" stroke-width="1" fill="blue" opacity="1" tooltip="enable"><title>(0.05931,24)</title></rect><rect x="300" y="198.918" width="6" height="1.08233" stroke="black" stroke-width="1" fill="blue" opacity="1" tooltip="enable"><title>(0.0605204,14)</title></rect><rect x="306" y="199.072" width="6" height="0.927715" stroke="black" stroke-width="1" fill="blue" opacity="1" tooltip="enable"><title>(0.0617308,12)</title></rect><rect x="312" y="199.072" width="6" height="0.927715" stroke="black" stroke-width="1" fill="blue" opacity="1" tooltip="enable"><title>(0.0629412,12)</title></rect><rect x="318" y="199.382" width="6" height="0.618477" stroke="black" stroke-width="1" fill="blue" opacity="1" tooltip="enable"><title>(0.0641516,8)</title></rect><rect x="324" y="199.15" width="6" height="0.850406" stroke="black" stroke-width="1" fill="blue" opacity="1" tooltip="enable"><title>(0.065362,11)</title></rect><rect x="330" y="198.222" width="6" height="1.77812" stroke="black" stroke-width="1" fill="blue" opacity="1" tooltip="enable"><title>(0.0665724,23)</title></rect><rect x="336" y="199.691" width="6" height="0.309238" stroke="black" stroke-width="1" fill="blue" opacity="1" tooltip="enable"><title>(0.0677828,4)</title></rect><rect x="342" y="199.845" width="6" height="0.154619" stroke="black" stroke-width="1" fill="blue" opacity="1" tooltip="enable"><title>(0.0689932,2)</title></rect><rect x="348" y="200" width="6" height="0" stroke="black" stroke-width="1" fill="blue" opacity="1" tooltip="enable"><title>(0.0702036,0)</title></rect><rect x="354" y="199.691" width="6" height="0.309238" stroke="black" stroke-width="1" fill="blue" opacity="1" tooltip="enable"><title>(0.071414,4)</title></rect><rect x="360" y="199.691" width="6" height="0.309238" stroke="black" stroke-width="1" fill="blue" opacity="1" tooltip="enable"><title>(0.0726245,4)</title></rect><rect x="366" y="199.227" width="6" height="0.773096" stroke="black" stroke-width="1" fill="blue" opacity="1" tooltip="enable"><title>(0.0738349,10)</title></rect><rect x="372" y="199.382" width="6" height="0.618477" stroke="black" stroke-width="1" fill="blue" opacity="1" tooltip="enable"><title>(0.0750453,8)</title></rect><rect x="378" y="199.382" width="6" height="0.618477" stroke="black" stroke-width="1" fill="blue" opacity="1" tooltip="enable"><title>(0.0762557,8)</title></rect><rect x="384" y="199.845" width="6" height="0.154619" stroke="black" stroke-width="1" fill="blue" opacity="1" tooltip="enable"><title>(0.0774661,2)</title></rect><rect x="390" y="199.536" width="6" height="0.463858" stroke="black" stroke-width="1" fill="blue" opacity="1" tooltip="enable"><title>(0.0786765,6)</title></rect><rect x="396" y="199.691" width="6" height="0.309238" stroke="black" stroke-width="1" fill="blue" opacity="1" tooltip="enable"><title>(0.0798869,4)</title></rect><rect x="402" y="199.536" width="6" height="0.463858" stroke="black" stroke-width="1" fill="blue" opacity="1" tooltip="enable"><title>(0.0810973,6)</title></rect><rect x="408" y="200" width="6" height="0" stroke="black" stroke-width="1" fill="blue" opacity="1" tooltip="enable"><title>(0.0823077,0)</title></rect><rect x="414" y="199.845" width="6" height="0.154619" stroke="black" stroke-width="1" fill="blue" opacity="1" tooltip="enable"><title>(0.0835181,2)</title></rect><rect x="420" y="200" width="6" height="0" stroke="black" stroke-width="1" fill="blue" opacity="1" tooltip="enable"><title>(0.0847285,0)</title></rect><rect x="426" y="199.845" width="6" height="0.154619" stroke="black" stroke-width="1" fill="blue" opacity="1" tooltip="enable"><title>(0.0859389,2)</title></rect><rect x="432" y="199.691" width="6" height="0.309238" stroke="black" stroke-width="1" fill="blue" opacity="1" tooltip="enable"><title>(0.0871493,4)</title></rect><rect x="438" y="200" width="6" height="0" stroke="black" stroke-width="1" fill="blue" opacity="1" tooltip="enable"><title>(0.0883598,0)</title></rect><rect x="444" y="199.845" width="6" height="0.154619" stroke="black" stroke-width="1" fill="blue" opacity="1" tooltip="enable"><title>(0.0895702,2)</title></rect><rect x="450" y="200" width="6" height="0" stroke="black" stroke-width="1" fill="blue" opacity="1" tooltip="enable"><title>(0.0907806,0)</title></rect><rect x="456" y="200" width="6" height="0" stroke="black" stroke-width="1" fill="blue" opacity="1" tooltip="enable"><title>(0.091991,0)</title></rect><rect x="462" y="199.691" width="6" height="0.309238" stroke="black" stroke-width="1" fill="blue" opacity="1" tooltip="enable"><title>(0.0932014,4)</title></rect><rect x="468" y="199.845" width="6" height="0.154619" stroke="black" stroke-width="1" fill="blue" opacity="1" tooltip="enable"><title>(0.0944118,2)</title></rect><rect x="474" y="199.845" width="6" height="0.154619" stroke="black" stroke-width="1" fill="blue" opacity="1" tooltip="enable"><title>(0.0956222,2)</title></rect><rect x="480" y="199.845" width="6" height="0.154619" stroke="black" stroke-width="1" fill="blue" opacity="1" tooltip="enable"><title>(0.0968326,2)</title></rect><rect x="486" y="199.691" width="6" height="0.309238" stroke="black" stroke-width="1" fill="blue" opacity="1" tooltip="enable"><title>(0.098043,4)</title></rect><rect x="492" y="199.845" width="6" height="0.154619" stroke="black" stroke-width="1" fill="blue" opacity="1" tooltip="enable"><title>(0.0992534,2)</title></rect><rect x="498" y="199.923" width="6" height="0.0773096" stroke="black" stroke-width="1" fill="blue" opacity="1" tooltip="enable"><title>(0.100464,1)</title></rect><rect x="504" y="199.768" width="6" height="0.231929" stroke="black" stroke-width="1" fill="blue" opacity="1" tooltip="enable"><title>(0.101674,3)</title></rect><rect x="510" y="200" width="6" height="0" stroke="black" stroke-width="1" fill="blue" opacity="1" tooltip="enable"><title>(0.102885,0)</title></rect><rect x="516" y="200" width="6" height="0" stroke="black" stroke-width="1" fill="blue" opacity="1" tooltip="enable"><title>(0.104095,0)</title></rect><rect x="522" y="200" width="6" height="0" stroke="black" stroke-width="1" fill="blue" opacity="1" tooltip="enable"><title>(0.105305,0)</title></rect><rect x="528" y="200" width="6" height="0" stroke="black" stroke-width="1" fill="blue" opacity="1" tooltip="enable"><title>(0.106516,0)</title></rect><rect x="534" y="200" width="6" height="0" stroke="black" stroke-width="1" fill="blue" opacity="1" tooltip="enable"><title>(0.107726,0)</title></rect><rect x="540" y="200" width="6" height="0" stroke="black" stroke-width="1" fill="blue" opacity="1" tooltip="enable"><title>(0.108937,0)</title></rect><rect x="546" y="200" width="6" height="0" stroke="black" stroke-width="1" fill="blue" opacity="1" tooltip="enable"><title>(0.110147,0)</title></rect><rect x="552" y="199.845" width="6" height="0.154619" stroke="black" stroke-width="1" fill="blue" opacity="1" tooltip="enable"><title>(0.111357,2)</title></rect><rect x="558" y="200" width="6" height="0" stroke="black" stroke-width="1" fill="blue" opacity="1" tooltip="enable"><title>(0.112568,0)</title></rect><rect x="564" y="200" width="6" height="0" stroke="black" stroke-width="1" fill="blue" opacity="1" tooltip="enable"><title>(0.113778,0)</title></rect><rect x="570" y="200" width="6" height="0" stroke="black" stroke-width="1" fill="blue" opacity="1" tooltip="enable"><title>(0.114989,0)</title></rect><rect x="576" y="200" width="6" height="0" stroke="black" stroke-width="1" fill="blue" opacity="1" tooltip="enable"><title>(0.116199,0)</title></rect><rect x="582" y="200" width="6" height="0" stroke="black" stroke-width="1" fill="blue" opacity="1" tooltip="enable"><title>(0.11741,0)</title></rect><rect x="588" y="200" width="6" height="0" stroke="black" stroke-width="1" fill="blue" opacity="1" tooltip="enable"><title>(0.11862,0)</title></rect><rect x="594" y="199.923" width="6" height="0.0773096" stroke="black" stroke-width="1" fill="blue" opacity="1" tooltip="enable"><title>(0.11983,1)</title></rect><text x="30" y="240" font-size="20" fill="black">0</text>
<text x="600" y="240" font-size="20" fill="black">0.121041</text>
<polyline points="0,220,600,220" stroke="black" stroke-width="1" fill="none" opacity="1"/>
<text x="720" y="20" font-size="20" fill="black">2587</text>
<text x="720" y="200" font-size="20" fill="black">0</text>
<polyline points="660,0,660,200" stroke="black" stroke-width="1" fill="none" opacity="1"/>
</svg>