<?xml version="1.0" standalone="yes"?>
<!-- SVG graphic -->
<svg xmlns='http://www.w3.org/2000/svg' xmlns:xlink='http://www.w3.org/1999/xlink'
 version="1.1">
<rect x="0" y="0" width="6" height="200" stroke="black" stroke-width="1" fill="blue" opacity="1" tooltip="enable"><title>(0,1619)</title></rect><rect x="6" y="10.9944" width="6" height="189.006" stroke="black" stroke-width="1" fill="blue" opacity="1" tooltip="enable"><title>(0.00134373,1530)</title></rect><rect x="12" y="78.1964" width="6" height="121.804" stroke="black" stroke-width="1" fill="blue" opacity="1" tooltip="enable"><title>(0.00268747,986)</title></rect><rect x="18" y="152.44" width="6" height="47.5602" stroke="black" stroke-width="1" fill="blue" opacity="1" tooltip="enable"><title>(0.0040312,385)</title></rect><rect x="24" y="179.494" width="6" height="20.5065" stroke="black" stroke-width="1" fill="blue" opacity="1" tooltip="enable"><title>(0.00537494,166)</title></rect><rect x="30" y="183.694" width="6" height="16.3064" stroke="black" stroke-width="1" fill="blue" opacity="1" tooltip="enable"><title>(0.00671867,132)</title></rect><rect x="36" y="182.335" width="6" height="17.6652" stroke="black" stroke-width="1" fill="blue" opacity="1" tooltip="enable"><title>(0.00806241,143)</title></rect><rect x="42" y="178.382" width="6" height="21.6183" stroke="black" stroke-width="1" fill="blue" opacity="1" tooltip="enable"><title>(0.00940614,175)</title></rect><rect x="48" y="183.323" width="6" height="16.677" stroke="black" stroke-width="1" fill="blue" opacity="1" tooltip="enable"><title>(0.0107499,135)</title></rect><rect x="54" y="182.335" width="6" height="17.6652" stroke="black" stroke-width="1" fill="blue" opacity="1" tooltip="enable"><title>(0.0120936,143)</title></rect><rect x="60" y="182.211" width="6" height="17.7888" stroke="black" stroke-width="1" fill="blue" opacity="1" tooltip="enable"><title>(0.0134373,144)</title></rect><rect x="66" y="182.952" width="6" height="17.0476" stroke="black" stroke-width="1" fill="blue" opacity="1" tooltip="enable"><title>(0.0147811,138)</title></rect><rect x="72" y="182.952" width="6" height="17.0476" stroke="black" stroke-width="1" fill="blue" opacity="1" tooltip="enable"><title>(0.0161248,138)</title></rect><rect x="78" y="185.67" width="6" height="14.3298" stroke="black" stroke-width="1" fill="blue" opacity="1" tooltip="enable"><title>(0.0174686,116)</title></rect><rect x="84" y="184.311" width="6" height="15.6887" stroke="black" stroke-width="1" fill="blue" opacity="1" tooltip="enable"><title>(0.0188123,127)</title></rect><rect x="90" y="183.447" width="6" height="16.5534" stroke="black" stroke-width="1" fill="blue" opacity="1" tooltip="enable"><title>(0.020156,134)</title></rect><rect x="96" y="183.941" width="6" height="16.0593" stroke="black" stroke-width="1" fill="blue" opacity="1" tooltip="enable"><title>(0.0214998,130)</title></rect><rect x="102" y="179.864" width="6" height="20.1359" stroke="black" stroke-width="1" fill="blue" opacity="1" tooltip="enable"><title>(0.0228435,163)</title></rect><rect x="108" y="184.188" width="6" height="15.8122" stroke="black" stroke-width="1" fill="blue" opacity="1" tooltip="enable"><title>(0.0241872,128)</title></rect><rect x="114" y="185.176" width="6" height="14.824" stroke="black" stroke-width="1" fill="blue" opacity="1" tooltip="enable"><title>(0.025531,120)</title></rect><rect x="120" y="185.423" width="6" height="14.5769" stroke="black" stroke-width="1" fill="blue" opacity="1" tooltip="enable"><title>(0.0268747,118)</title></rect><rect x="126" y="187.276" width="6" height="12.7239" stroke="black" stroke-width="1" fill="blue" opacity="1" tooltip="enable"><title>(0.0282184,103)</title></rect><rect x="132" y="185.917" width="6" height="14.0828" stroke="black" stroke-width="1" fill="blue" opacity="1" tooltip="enable"><title>(0.0295622,114)</title></rect><rect x="138" y="188.017" width="6" height="11.9827" stroke="black" stroke-width="1" fill="blue" opacity="1" tooltip="enable"><title>(0.0309059,97)</title></rect><rect x="144" y="187.153" width="6" height="12.8474" stroke="black" stroke-width="1" fill="blue" opacity="1" tooltip="enable"><title>(0.0322496,104)</title></rect><rect x="150" y="189.623" width="6" height="10.3768" stroke="black" stroke-width="1" fill="blue" opacity="1" tooltip="enable"><title>(0.0335934,84)</title></rect><rect x="156" y="188.882" width="6" height="11.118" stroke="black" stroke-width="1" fill="blue" opacity="1" tooltip="enable"><title>(0.0349371,90)</title></rect><rect x="162" y="189.5" width="6" height="10.5003" stroke="black" stroke-width="1" fill="blue" opacity="1" tooltip="enable"><title>(0.0362808,85)</title></rect><rect x="168" y="193.7" width="6" height="6.30019" stroke="black" stroke-width="1" fill="blue" opacity="1" tooltip="enable"><title>(0.0376246,51)</title></rect><rect x="174" y="193.576" width="6" height="6.42372" stroke="black" stroke-width="1" fill="blue" opacity="1" tooltip="enable"><title>(0.0389683,52)</title></rect><rect x="180" y="193.7" width="6" height="6.30019" stroke="black" stroke-width="1" fill="blue" opacity="1" tooltip="enable"><title>(0.040312,51)</title></rect><rect x="186" y="195.676" width="6" height="4.32366" stroke="black" stroke-width="1" fill="blue" opacity="1" tooltip="enable"><title>(0.0416558,35)</title></rect><rect x="192" y="195.676" width="6" height="4.32366" stroke="black" stroke-width="1" fill="blue" opacity="1" tooltip="enable"><title>(0.0429995,35)</title></rect><rect x="198" y="194.565" width="6" height="5.43545" stroke="black" stroke-width="1" fill="blue" opacity="1" tooltip="enable"><title>(0.0443433,44)</title></rect><rect x="204" y="196.17" width="6" height="3.82952" stroke="black" stroke-width="1" fill="blue" opacity="1" tooltip="enable"><title>(0.045687,31)</title></rect><rect x="210" y="197.9" width="6" height="2.10006" stroke="black" stroke-width="1" fill="blue" opacity="1" tooltip="enable"><title>(0.0470307,17)</title></rect><rect x="216" y="197.529" width="6" height="2.47066" stroke="black" stroke-width="1" fill="blue" opacity="1" tooltip="enable"><title>(0.0483745,20)</title></rect><rect x="222" y="196.047" width="6" height="3.95306" stroke="black" stroke-width="1" fill="blue" opacity="1" tooltip="enable"><title>(0.0497182,32)</title></rect><rect x="228" y="197.776" width="6" height="2.22359" stroke="black" stroke-width="1" fill="blue" opacity="1" tooltip="enable"><title>(0.0510619,18)</title></rect><rect x="234" y="198.394" width="6" height="1.60593" stroke="black" stroke-width="1" fill="blue" opacity="1" tooltip="enable"><title>(0.0524057,13)</title></rect><rect x="240" y="199.259" width="6" height="0.741198" stroke="black" stroke-width="1" fill="blue" opacity="1" tooltip="enable"><title>(0.0537494,6)</title></rect><rect x="246" y="198.765" width="6" height="1.23533" stroke="black" stroke-width="1" fill="blue" opacity="1" tooltip="enable"><title>(0.0550931,10)</title></rect><rect x="252" y="199.012" width="6" height="0.988264" stroke="black" stroke-width="1" fill="blue" opacity="1" tooltip="enable"><title>(0.0564369,8)</title></rect><rect x="258" y="199.506" width="6" height="0.494132" stroke="black" stroke-width="1" fill="blue" opacity="1" tooltip="enable"><title>(0.0577806,4)</title></rect><rect x="264" y="199.259" width="6" height="0.741198" stroke="black" stroke-width="1" fill="blue" opacity="1" tooltip="enable"><title>(0.0591243,6)</title></rect><rect x="270" y="199.259" width="6" height="0.741198" stroke="black" stroke-width="1" fill="blue" opacity="1" tooltip="enable"><title>(0.0604681,6)</title></rect><rect x="276" y="199.753" width="6" height="0.247066" stroke="black" stroke-width="1" fill="blue" opacity="1" tooltip="enable"><title>(0.0618118,2)</title></rect><rect x="282" y="199.876" width="6" height="0.123533" stroke="black" stroke-width="1" fill="blue" opacity="1" tooltip="enable"><title>(0.0631555,1)</title></rect><rect x="288" y="199.876" width="6" height="0.123533" stroke="black" stroke-width="1" fill="blue" opacity="1" tooltip="enable"><title>(0.0644993,1)</title></rect><rect x="294" y="200" width="6" height="0" stroke="black" stroke-width="1" fill="blue" opacity="1" tooltip="enable"><title>(0.065843,0)</title></rect><rect x="300" y="200" width="6" height="0" stroke="black" stroke-width="1" fill="blue" opacity="1" tooltip="enable"><title>(0.0671867,0)</title></rect><rect x="306" y="200" width="6" height="0" stroke="black" stroke-width="1" fill="blue" opacity="1" tooltip="enable"><title>(0.0685305,0)</title></rect><rect x="312" y="200" width="6" height="0" stroke="black" stroke-width="1" fill="blue" opacity="1" tooltip="enable"><title>(0.0698742,0)</title></rect><rect x="318" y="200" width="6" height="0" stroke="black" stroke-width="1" fill="blue" opacity="1" tooltip="enable"><title>(0.0712179,0)</title></rect><rect x="324" y="200" width="6" height="0" stroke="black" stroke-width="1" fill="blue" opacity="1" tooltip="enable"><title>(0.0725617,0)</title></rect><rect x="330" y="200" width="6" height="0" stroke="black" stroke-width="1" fill="blue" opacity="1" tooltip="enable"><title>(0.0739054,0)</title></rect><rect x="336" y="200" width="6" height="0" stroke="black" stroke-width="1" fill="blue" opacity="1" tooltip="enable"><title>(0.0752492,0)</title></rect><rect x="342" y="200" width="6" height="0" stroke="black" stroke-width="1" fill="blue" opacity="1" tooltip="enable"><title>(0.0765929,0)</title></rect><rect x="348" y="200" width="6" height="0" stroke="black" stroke-width="1" fill="blue" opacity="1" tooltip="enable"><title>(0.0779366,0)</title></rect><rect x="354" y="200" width="6" height="0" stroke="black" stroke-width="1" fill="blue" opacity="1" tooltip="enable"><title>(0.0792804,0)</title></rect><rect x="360" y="200" width="6" height="0" stroke="black" stroke-width="1" fill="blue" opacity="1" tooltip="enable"><title>(0.0806241,0)</title></rect><rect x="366" y="200" width="6" height="0" stroke="black" stroke-width="1" fill="blue" opacity="1" tooltip="enable"><title>(0.0819678,0)</title></rect><rect x="372" y="200" width="6" height="0" stroke="black" stroke-width="1" fill="blue" opacity="1" tooltip="enable"><title>(0.0833116,0)</title></rect><rect x="378" y="200" width="6" height="0" stroke="black" stroke-width="1" fill="blue" opacity="1" tooltip="enable"><title>(0.0846553,0)</title></rect><rect x="384" y="200" width="6" height="0" stroke="black" stroke-width="1" fill="blue" opacity="1" tooltip="enable"><title>(0.085999,0)</title></rect><rect x="390" y="200" width="6" height="0" stroke="black" stroke-width="1" fill="blue" opacity="1" tooltip="enable"><title>(0.0873428,0)</title></rect><rect x="396" y="200" width="6" height="0" stroke="black" stroke-width="1" fill="blue" opacity="1" tooltip="enable"><title>(0.0886865,0)</title></rect><rect x="402" y="200" width="6" height="0" stroke="black" stroke-width="1" fill="blue" opacity="1" tooltip="enable"><title>(0.0900302,0)</title></rect><rect x="408" y="200" width="6" height="0" stroke="black" stroke-width="1" fill="blue" opacity="1" tooltip="enable"><title>(0.091374,0)</title></rect><rect x="414" y="200" width="6" height="0" stroke="black" stroke-width="1" fill="blue" opacity="1" tooltip="enable"><title>(0.0927177,0)</title></rect><rect x="420" y="200" width="6" height="0" stroke="black" stroke-width="1" fill="blue" opacity="1" tooltip="enable"><title>(0.0940614,0)</title></rect><rect x="426" y="200" width="6" height="0" stroke="black" stroke-width="1" fill="blue" opacity="1" tooltip="enable"><title>(0.0954052,0)</title></rect><rect x="432" y="200" width="6" height="0" stroke="black" stroke-width="1" fill="blue" opacity="1" tooltip="enable"><title>(0.0967489,0)</title></rect><rect x="438" y="200" width="6" height="0" stroke="black" stroke-width="1" fill="blue" opacity="1" tooltip="enable"><title>(0.0980926,0)</title></rect><rect x="444" y="200" width="6" height="0" stroke="black" stroke-width="1" fill="blue" opacity="1" tooltip="enable"><title>(0.0994364,0)</title></rect><rect x="450" y="200" width="6" height="0" stroke="black" stroke-width="1" fill="blue" opacity="1" tooltip="enable"><title>(0.10078,0)</title></rect><rect x="456" y="200" width="6" height="0" stroke="black" stroke-width="1" fill="blue" opacity="1" tooltip="enable"><title>(0.102124,0)</title></rect><rect x="462" y="200" width="6" height="0" stroke="black" stroke-width="1" fill="blue" opacity="1" tooltip="enable"><title>(0.103468,0)</title></rect><rect x="468" y="200" width="6" height="0" stroke="black" stroke-width="1" fill="blue" opacity="1" tooltip="enable"><title>(0.104811,0)</title></rect><rect x="474" y="200" width="6" height="0" stroke="black" stroke-width="1" fill="blue" opacity="1" tooltip="enable"><title>(0.106155,0)</title></rect><rect x="480" y="200" width="6" height="0" stroke="black" stroke-width="1" fill="blue" opacity="1" tooltip="enable"><title>(0.107499,0)</title></rect><rect x="486" y="199.753" width="6" height="0.247066" stroke="black" stroke-width="1" fill="blue" opacity="1" tooltip="enable"><title>(0.108843,2)</title></rect><rect x="492" y="200" width="6" height="0" stroke="black" stroke-width="1" fill="blue" opacity="1" tooltip="enable"><title>(0.110186,0)</title></rect><rect x="498" y="200" width="6" height="0" stroke="black" stroke-width="1" fill="blue" opacity="1" tooltip="enable"><title>(0.11153,0)</title></rect><rect x="504" y="200" width="6" height="0" stroke="black" stroke-width="1" fill="blue" opacity="1" tooltip="enable"><title>(0.112874,0)</title></rect><rect x="510" y="200" width="6" height="0" stroke="black" stroke-width="1" fill="blue" opacity="1" tooltip="enable"><title>(0.114217,0)</title></rect><rect x="516" y="200" width="6" height="0" stroke="black" stroke-width="1" fill="blue" opacity="1" tooltip="enable"><title>(0.115561,0)</title></rect><rect x="522" y="200" width="6" height="0" stroke="black" stroke-width="1" fill="blue" opacity="1" tooltip="enable"><title>(0.116905,0)</title></rect><rect x="528" y="200" width="6" height="0" stroke="black" stroke-width="1" fill="blue" opacity="1" tooltip="enable"><title>(0.118249,0)</title></rect><rect x="534" y="200" width="6" height="0" stroke="black" stroke-width="1" fill="blue" opacity="1" tooltip="enable"><title>(0.119592,0)</title></rect><rect x="540" y="199.876" width="6" height="0.123533" stroke="black" stroke-width="1" fill="blue" opacity="1" tooltip="enable"><title>(0.120936,1)</title></rect><rect x="546" y="199.876" width="6" height="0.123533" stroke="black" stroke-width="1" fill="blue" opacity="1" tooltip="enable"><title>(0.12228,1)</title></rect><rect x="552" y="200" width="6" height="0" stroke="black" stroke-width="1" fill="blue" opacity="1" tooltip="enable"><title>(0.123624,0)</title></rect><rect x="558" y="199.753" width="6" height="0.247066" stroke="black" stroke-width="1" fill="blue" opacity="1" tooltip="enable"><title>(0.124967,2)</title></rect><rect x="564" y="200" width="6" height="0" stroke="black" stroke-width="1" fill="blue" opacity="1" tooltip="enable"><title>(0.126311,0)</title></rect><rect x="570" y="200" width="6" height="0" stroke="black" stroke-width="1" fill="blue" opacity="1" tooltip="enable"><title>(0.127655,0)</title></rect><rect x="576" y="199.876" width="6" height="0.123533" stroke="black" stroke-width="1" fill="blue" opacity="1" tooltip="enable"><title>(0.128999,1)</title></rect><rect x="582" y="199.876" width="6" height="0.123533" stroke="black" stroke-width="1" fill="blue" opacity="1" tooltip="enable"><title>(0.130342,1)</title></rect><rect x="588" y="200" width="6" height="0" stroke="black" stroke-width="1" fill="blue" opacity="1" tooltip="enable"><title>(0.131686,0)</title></rect><rect x="594" y="199.876" width="6" height="0.123533" stroke="black" stroke-width="1" fill="blue" opacity="1" tooltip="enable"><title>(0.13303,1)</title></rect><text x="30" y="240" font-size="20" fill="black">0</text>
<text x="600" y="240" font-size="20" fill="black">0.134373</text>
<polyline points="0,220,600,220" stroke="black" stroke-width="1" fill="none" opacity="1"/>
<text x="720" y="20" font-size="20" fill="black">1619</text>
<text x="720" y="200" font-size="20" fill="black">0</text>
<polyline points="660,0,660,200" stroke="black" stroke-width="1" fill="none" opacity="1"/>
</svg>