<?xml version="1.0" standalone="yes"?>
<!-- SVG graphic -->
<svg xmlns='http://www.w3.org/2000/svg' xmlns:xlink='http://www.w3.org/1999/xlink'
 version="1.1">
<rect x="0" y="1.52588e-05" width="6" height="200" stroke="black" stroke-width="1" fill="blue" opacity="1" tooltip="enable"><title>(0,1364)</title></rect><rect x="6" y="28.0059" width="6" height="171.994" stroke="black" stroke-width="1" fill="blue" opacity="1" tooltip="enable"><title>(0.000827237,1173)</title></rect><rect x="12" y="88.5631" width="6" height="111.437" stroke="black" stroke-width="1" fill="blue" opacity="1" tooltip="enable"><title>(0.00165447,760)</title></rect><rect x="18" y="122.287" width="6" height="77.7126" stroke="black" stroke-width="1" fill="blue" opacity="1" tooltip="enable"><title>(0.00248171,530)</title></rect><rect x="24" y="132.991" width="6" height="67.0088" stroke="black" stroke-width="1" fill="blue" opacity="1" tooltip="enable"><title>(0.00330895,457)</title></rect><rect x="30" y="151.76" width="6" height="48.2405" stroke="black" stroke-width="1" fill="blue" opacity="1" tooltip="enable"><title>(0.00413619,329)</title></rect><rect x="36" y="159.971" width="6" height="40.0293" stroke="black" stroke-width="1" fill="blue" opacity="1" tooltip="enable"><title>(0.00496342,273)</title></rect><rect x="42" y="177.419" width="6" height="22.5806" stroke="black" stroke-width="1" fill="blue" opacity="1" tooltip="enable"><title>(0.00579066,154)</title></rect><rect x="48" y="182.991" width="6" height="17.0088" stroke="black" stroke-width="1" fill="blue" opacity="1" tooltip="enable"><title>(0.0066179,116)</title></rect><rect x="54" y="179.032" width="6" height="20.9677" stroke="black" stroke-width="1" fill="blue" opacity="1" tooltip="enable"><title>(0.00744513,143)</title></rect><rect x="60" y="183.724" width="6" height="16.2757" stroke="black" stroke-width="1" fill="blue" opacity="1" tooltip="enable"><title>(0.00827237,111)</title></rect><rect x="66" y="182.698" width="6" height="17.3021" stroke="black" stroke-width="1" fill="blue" opacity="1" tooltip="enable"><title>(0.00909961,118)</title></rect><rect x="72" y="180.352" width="6" height="19.6481" stroke="black" stroke-width="1" fill="blue" opacity="1" tooltip="enable"><title>(0.00992684,134)</title></rect><rect x="78" y="183.431" width="6" height="16.5689" stroke="black" stroke-width="1" fill="blue" opacity="1" tooltip="enable"><title>(0.0107541,113)</title></rect><rect x="84" y="187.097" width="6" height="12.9032" stroke="black" stroke-width="1" fill="blue" opacity="1" tooltip="enable"><title>(0.0115813,88)</title></rect><rect x="90" y="185.484" width="6" height="14.5161" stroke="black" stroke-width="1" fill="blue" opacity="1" tooltip="enable"><title>(0.0124086,99)</title></rect><rect x="96" y="184.897" width="6" height="15.1026" stroke="black" stroke-width="1" fill="blue" opacity="1" tooltip="enable"><title>(0.0132358,103)</title></rect><rect x="102" y="186.657" width="6" height="13.3431" stroke="black" stroke-width="1" fill="blue" opacity="1" tooltip="enable"><title>(0.014063,91)</title></rect><rect x="108" y="185.63" width="6" height="14.3695" stroke="black" stroke-width="1" fill="blue" opacity="1" tooltip="enable"><title>(0.0148903,98)</title></rect><rect x="114" y="189.296" width="6" height="10.7038" stroke="black" stroke-width="1" fill="blue" opacity="1" tooltip="enable"><title>(0.0157175,73)</title></rect><rect x="120" y="184.311" width="6" height="15.6891" stroke="black" stroke-width="1" fill="blue" opacity="1" tooltip="enable"><title>(0.0165447,107)</title></rect><rect x="126" y="191.202" width="6" height="8.79765" stroke="black" stroke-width="1" fill="blue" opacity="1" tooltip="enable"><title>(0.017372,60)</title></rect><rect x="132" y="190.469" width="6" height="9.53079" stroke="black" stroke-width="1" fill="blue" opacity="1" tooltip="enable"><title>(0.0181992,65)</title></rect><rect x="138" y="191.056" width="6" height="8.94428" stroke="black" stroke-width="1" fill="blue" opacity="1" tooltip="enable"><title>(0.0190265,61)</title></rect><rect x="144" y="190.469" width="6" height="9.53079" stroke="black" stroke-width="1" fill="blue" opacity="1" tooltip="enable"><title>(0.0198537,65)</title></rect><rect x="150" y="194.575" width="6" height="5.42522" stroke="black" stroke-width="1" fill="blue" opacity="1" tooltip="enable"><title>(0.0206809,37)</title></rect><rect x="156" y="193.255" width="6" height="6.74487" stroke="black" stroke-width="1" fill="blue" opacity="1" tooltip="enable"><title>(0.0215082,46)</title></rect><rect x="162" y="191.935" width="6" height="8.06452" stroke="black" stroke-width="1" fill="blue" opacity="1" tooltip="enable"><title>(0.0223354,55)</title></rect><rect x="168" y="193.988" width="6" height="6.01173" stroke="black" stroke-width="1" fill="blue" opacity="1" tooltip="enable"><title>(0.0231626,41)</title></rect><rect x="174" y="192.522" width="6" height="7.47801" stroke="black" stroke-width="1" fill="blue" opacity="1" tooltip="enable"><title>(0.0239899,51)</title></rect><rect x="180" y="193.109" width="6" height="6.8915" stroke="black" stroke-width="1" fill="blue" opacity="1" tooltip="enable"><title>(0.0248171,47)</title></rect><rect x="186" y="193.842" width="6" height="6.15836" stroke="black" stroke-width="1" fill="blue" opacity="1" tooltip="enable"><title>(0.0256443,42)</title></rect><rect x="192" y="195.015" width="6" height="4.98534" stroke="black" stroke-width="1" fill="blue" opacity="1" tooltip="enable"><title>(0.0264716,34)</title></rect><rect x="198" y="193.109" width="6" height="6.8915" stroke="black" stroke-width="1" fill="blue" opacity="1" tooltip="enable"><title>(0.0272988,47)</title></rect><rect x="204" y="193.548" width="6" height="6.45161" stroke="black" stroke-width="1" fill="blue" opacity="1" tooltip="enable"><title>(0.0281261,44)</title></rect><rect x="210" y="196.041" width="6" height="3.95894" stroke="black" stroke-width="1" fill="blue" opacity="1" tooltip="enable"><title>(0.0289533,27)</title></rect><rect x="216" y="196.041" width="6" height="3.95894" stroke="black" stroke-width="1" fill="blue" opacity="1" tooltip="enable"><title>(0.0297805,27)</title></rect><rect x="222" y="196.481" width="6" height="3.51906" stroke="black" stroke-width="1" fill="blue" opacity="1" tooltip="enable"><title>(0.0306078,24)</title></rect><rect x="228" y="195.748" width="6" height="4.2522" stroke="black" stroke-width="1" fill="blue" opacity="1" tooltip="enable"><title>(0.031435,29)</title></rect><rect x="234" y="196.188" width="6" height="3.81232" stroke="black" stroke-width="1" fill="blue" opacity="1" tooltip="enable"><title>(0.0322622,26)</title></rect><rect x="240" y="196.774" width="6" height="3.22581" stroke="black" stroke-width="1" fill="blue" opacity="1" tooltip="enable"><title>(0.0330895,22)</title></rect><rect x="246" y="197.361" width="6" height="2.6393" stroke="black" stroke-width="1" fill="blue" opacity="1" tooltip="enable"><title>(0.0339167,18)</title></rect><rect x="252" y="194.721" width="6" height="5.27859" stroke="black" stroke-width="1" fill="blue" opacity="1" tooltip="enable"><title>(0.034744,36)</title></rect><rect x="258" y="195.748" width="6" height="4.2522" stroke="black" stroke-width="1" fill="blue" opacity="1" tooltip="enable"><title>(0.0355712,29)</title></rect><rect x="264" y="193.695" width="6" height="6.30499" stroke="black" stroke-width="1" fill="blue" opacity="1" tooltip="enable"><title>(0.0363984,43)</title></rect><rect x="270" y="194.721" width="6" height="5.27859" stroke="black" stroke-width="1" fill="blue" opacity="1" tooltip="enable"><title>(0.0372257,36)</title></rect><rect x="276" y="195.161" width="6" height="4.83871" stroke="black" stroke-width="1" fill="blue" opacity="1" tooltip="enable"><title>(0.0380529,33)</title></rect><rect x="282" y="196.188" width="6" height="3.81232" stroke="black" stroke-width="1" fill="blue" opacity="1" tooltip="enable"><title>(0.0388801,26)</title></rect><rect x="288" y="195.015" width="6" height="4.98534" stroke="black" stroke-width="1" fill="blue" opacity="1" tooltip="enable"><title>(0.0397074,34)</title></rect><rect x="294" y="195.748" width="6" height="4.2522" stroke="black" stroke-width="1" fill="blue" opacity="1" tooltip="enable"><title>(0.0405346,29)</title></rect><rect x="300" y="198.387" width="6" height="1.6129" stroke="black" stroke-width="1" fill="blue" opacity="1" tooltip="enable"><title>(0.0413618,11)</title></rect><rect x="306" y="195.015" width="6" height="4.98534" stroke="black" stroke-width="1" fill="blue" opacity="1" tooltip="enable"><title>(0.0421891,34)</title></rect><rect x="312" y="195.601" width="6" height="4.39883" stroke="black" stroke-width="1" fill="blue" opacity="1" tooltip="enable"><title>(0.0430163,30)</title></rect><rect x="318" y="196.041" width="6" height="3.95894" stroke="black" stroke-width="1" fill="blue" opacity="1" tooltip="enable"><title>(0.0438436,27)</title></rect><rect x="324" y="199.413" width="6" height="0.58651" stroke="black" stroke-width="1" fill="blue" opacity="1" tooltip="enable"><title>(0.0446708,4)</title></rect><rect x="330" y="195.748" width="6" height="4.2522" stroke="black" stroke-width="1" fill="blue" opacity="1" tooltip="enable"><title>(0.045498,29)</title></rect><rect x="336" y="197.067" width="6" height="2.93255" stroke="black" stroke-width="1" fill="blue" opacity="1" tooltip="enable"><title>(0.0463253,20)</title></rect><rect x="342" y="195.748" width="6" height="4.2522" stroke="black" stroke-width="1" fill="blue" opacity="1" tooltip="enable"><title>(0.0471525,29)</title></rect><rect x="348" y="197.361" width="6" height="2.6393" stroke="black" stroke-width="1" fill="blue" opacity="1" tooltip="enable"><title>(0.0479797,18)</title></rect><rect x="354" y="198.534" width="6" height="1.46628" stroke="black" stroke-width="1" fill="blue" opacity="1" tooltip="enable"><title>(0.048807,10)</title></rect><rect x="360" y="197.067" width="6" height="2.93255" stroke="black" stroke-width="1" fill="blue" opacity="1" tooltip="enable"><title>(0.0496342,20)</title></rect><rect x="366" y="198.827" width="6" height="1.17302" stroke="black" stroke-width="1" fill="blue" opacity="1" tooltip="enable"><title>(0.0504615,8)</title></rect><rect x="372" y="196.188" width="6" height="3.81232" stroke="black" stroke-width="1" fill="blue" opacity="1" tooltip="enable"><title>(0.0512887,26)</title></rect><rect x="378" y="197.654" width="6" height="2.34604" stroke="black" stroke-width="1" fill="blue" opacity="1" tooltip="enable"><title>(0.0521159,16)</title></rect><rect x="384" y="198.24" width="6" height="1.75953" stroke="black" stroke-width="1" fill="blue" opacity="1" tooltip="enable"><title>(0.0529432,12)</title></rect><rect x="390" y="197.947" width="6" height="2.05279" stroke="black" stroke-width="1" fill="blue" opacity="1" tooltip="enable"><title>(0.0537704,14)</title></rect><rect x="396" y="198.534" width="6" height="1.46628" stroke="black" stroke-width="1" fill="blue" opacity="1" tooltip="enable"><title>(0.0545976,10)</title></rect><rect x="402" y="197.801" width="6" height="2.19941" stroke="black" stroke-width="1" fill="blue" opacity="1" tooltip="enable"><title>(0.0554249,15)</title></rect><rect x="408" y="198.094" width="6" height="1.90616" stroke="black" stroke-width="1" fill="blue" opacity="1" tooltip="enable"><title>(0.0562521,13)</title></rect><rect x="414" y="198.094" width="6" height="1.90616" stroke="black" stroke-width="1" fill="blue" opacity="1" tooltip="enable"><title>(0.0570794,13)</title></rect><rect x="420" y="199.267" width="6" height="0.733138" stroke="black" stroke-width="1" fill="blue" opacity="1" tooltip="enable"><title>(0.0579066,5)</title></rect><rect x="426" y="198.534" width="6" height="1.46628" stroke="black" stroke-width="1" fill="blue" opacity="1" tooltip="enable"><title>(0.0587338,10)</title></rect><rect x="432" y="199.707" width="6" height="0.293255" stroke="black" stroke-width="1" fill="blue" opacity="1" tooltip="enable"><title>(0.0595611,2)</title></rect><rect x="438" y="197.947" width="6" height="2.05279" stroke="black" stroke-width="1" fill="blue" opacity="1" tooltip="enable"><title>(0.0603883,14)</title></rect><rect x="444" y="199.56" width="6" height="0.439883" stroke="black" stroke-width="1" fill="blue" opacity="1" tooltip="enable"><title>(0.0612155,3)</title></rect><rect x="450" y="199.853" width="6" height="0.146628" stroke="black" stroke-width="1" fill="blue" opacity="1" tooltip="enable"><title>(0.0620428,1)</title></rect><rect x="456" y="199.12" width="6" height="0.879765" stroke="black" stroke-width="1" fill="blue" opacity="1" tooltip="enable"><title>(0.06287,6)</title></rect><rect x="462" y="199.12" width="6" height="0.879765" stroke="black" stroke-width="1" fill="blue" opacity="1" tooltip="enable"><title>(0.0636972,6)</title></rect><rect x="468" y="199.413" width="6" height="0.58651" stroke="black" stroke-width="1" fill="blue" opacity="1" tooltip="enable"><title>(0.0645245,4)</title></rect><rect x="474" y="200" width="6" height="0" stroke="black" stroke-width="1" fill="blue" opacity="1" tooltip="enable"><title>(0.0653517,0)</title></rect><rect x="480" y="199.413" width="6" height="0.58651" stroke="black" stroke-width="1" fill="blue" opacity="1" tooltip="enable"><title>(0.066179,4)</title></rect><rect x="486" y="200" width="6" height="0" stroke="black" stroke-width="1" fill="blue" opacity="1" tooltip="enable"><title>(0.0670062,0)</title></rect><rect x="492" y="199.707" width="6" height="0.293255" stroke="black" stroke-width="1" fill="blue" opacity="1" tooltip="enable"><title>(0.0678334,2)</title></rect><rect x="498" y="199.707" width="6" height="0.293255" stroke="black" stroke-width="1" fill="blue" opacity="1" tooltip="enable"><title>(0.0686607,2)</title></rect><rect x="504" y="199.707" width="6" height="0.293255" stroke="black" stroke-width="1" fill="blue" opacity="1" tooltip="enable"><title>(0.0694879,2)</title></rect><rect x="510" y="200" width="6" height="0" stroke="black" stroke-width="1" fill="blue" opacity="1" tooltip="enable"><title>(0.0703151,0)</title></rect><rect x="516" y="200" width="6" height="0" stroke="black" stroke-width="1" fill="blue" opacity="1" tooltip="enable"><title>(0.0711424,0)</title></rect><rect x="522" y="199.413" width="6" height="0.58651" stroke="black" stroke-width="1" fill="blue" opacity="1" tooltip="enable"><title>(0.0719696,4)</title></rect><rect x="528" y="199.707" width="6" height="0.293255" stroke="black" stroke-width="1" fill="blue" opacity="1" tooltip="enable"><title>(0.0727969,2)</title></rect><rect x="534" y="200" width="6" height="0" stroke="black" stroke-width="1" fill="blue" opacity="1" tooltip="enable"><title>(0.0736241,0)</title></rect><rect x="540" y="200" width="6" height="0" stroke="black" stroke-width="1" fill="blue" opacity="1" tooltip="enable"><title>(0.0744513,0)</title></rect><rect x="546" y="200" width="6" height="0" stroke="black" stroke-width="1" fill="blue" opacity="1" tooltip="enable"><title>(0.0752786,0)</title></rect><rect x="552" y="200" width="6" height="0" stroke="black" stroke-width="1" fill="blue" opacity="1" tooltip="enable"><title>(0.0761058,0)</title></rect><rect x="558" y="200" width="6" height="0" stroke="black" stroke-width="1" fill="blue" opacity="1" tooltip="enable"><title>(0.076933,0)</title></rect><rect x="564" y="200" width="6" height="0" stroke="black" stroke-width="1" fill="blue" opacity="1" tooltip="enable"><title>(0.0777603,0)</title></rect><rect x="570" y="199.707" width="6" height="0.293255" stroke="black" stroke-width="1" fill="blue" opacity="1" tooltip="enable"><title>(0.0785875,2)</title></rect><rect x="576" y="199.707" width="6" height="0.293255" stroke="black" stroke-width="1" fill="blue" opacity="1" tooltip="enable"><title>(0.0794147,2)</title></rect><rect x="582" y="200" width="6" height="0" stroke="black" stroke-width="1" fill="blue" opacity="1" tooltip="enable"><title>(0.080242,0)</title></rect><rect x="588" y="200" width="6" height="0" stroke="black" stroke-width="1" fill="blue" opacity="1" tooltip="enable"><title>(0.0810692,0)</title></rect><rect x="594" y="199.853" width="6" height="0.146628" stroke="black" stroke-width="1" fill="blue" opacity="1" tooltip="enable"><title>(0.0818965,1)</title></rect><text x="30" y="240" font-size="20" fill="black">0</text>
<text x="600" y="240" font-size="20" fill="black">0.0827237</text>
<polyline points="0,220,600,220" stroke="black" stroke-width="1" fill="none" opacity="1"/>
<text x="720" y="20" font-size="20" fill="black">1364</text>
<text x="720" y="200" font-size="20" fill="black">0</text>
<polyline points="660,0,660,200" stroke="black" stroke-width="1" fill="none" opacity="1"/>
</svg>