<?xml version="1.0" standalone="yes"?>
<!-- SVG graphic -->
<svg xmlns='http://www.w3.org/2000/svg' xmlns:xlink='http://www.w3.org/1999/xlink'
 version="1.1">
<rect x="0" y="1.52588e-05" width="6" height="200" stroke="black" stroke-width="1" fill="blue" opacity="1" tooltip="enable"><title>(0,1370)</title></rect><rect x="6" y="12.2628" width="6" height="187.737" stroke="black" stroke-width="1" fill="blue" opacity="1" tooltip="enable"><title>(0.00126443,1286)</title></rect><rect x="12" y="71.8248" width="6" height="128.175" stroke="black" stroke-width="1" fill="blue" opacity="1" tooltip="enable"><title>(0.00252885,878)</title></rect><rect x="18" y="120" width="6" height="80" stroke="black" stroke-width="1" fill="blue" opacity="1" tooltip="enable"><title>(0.00379328,548)</title></rect><rect x="24" y="153.285" width="6" height="46.7153" stroke="black" stroke-width="1" fill="blue" opacity="1" tooltip="enable"><title>(0.0050577,320)</title></rect><rect x="30" y="161.168" width="6" height="38.8321" stroke="black" stroke-width="1" fill="blue" opacity="1" tooltip="enable"><title>(0.00632213,266)</title></rect><rect x="36" y="164.526" width="6" height="35.4744" stroke="black" stroke-width="1" fill="blue" opacity="1" tooltip="enable"><title>(0.00758655,243)</title></rect><rect x="42" y="175.182" width="6" height="24.8175" stroke="black" stroke-width="1" fill="blue" opacity="1" tooltip="enable"><title>(0.00885098,170)</title></rect><rect x="48" y="179.124" width="6" height="20.8759" stroke="black" stroke-width="1" fill="blue" opacity="1" tooltip="enable"><title>(0.0101154,143)</title></rect><rect x="54" y="181.314" width="6" height="18.6861" stroke="black" stroke-width="1" fill="blue" opacity="1" tooltip="enable"><title>(0.0113798,128)</title></rect><rect x="60" y="180.438" width="6" height="19.562" stroke="black" stroke-width="1" fill="blue" opacity="1" tooltip="enable"><title>(0.0126443,134)</title></rect><rect x="66" y="178.686" width="6" height="21.3139" stroke="black" stroke-width="1" fill="blue" opacity="1" tooltip="enable"><title>(0.0139087,146)</title></rect><rect x="72" y="175.62" width="6" height="24.3796" stroke="black" stroke-width="1" fill="blue" opacity="1" tooltip="enable"><title>(0.0151731,167)</title></rect><rect x="78" y="180.292" width="6" height="19.708" stroke="black" stroke-width="1" fill="blue" opacity="1" tooltip="enable"><title>(0.0164375,135)</title></rect><rect x="84" y="184.38" width="6" height="15.6204" stroke="black" stroke-width="1" fill="blue" opacity="1" tooltip="enable"><title>(0.017702,107)</title></rect><rect x="90" y="179.416" width="6" height="20.5839" stroke="black" stroke-width="1" fill="blue" opacity="1" tooltip="enable"><title>(0.0189664,141)</title></rect><rect x="96" y="186.569" width="6" height="13.4307" stroke="black" stroke-width="1" fill="blue" opacity="1" tooltip="enable"><title>(0.0202308,92)</title></rect><rect x="102" y="186.861" width="6" height="13.1387" stroke="black" stroke-width="1" fill="blue" opacity="1" tooltip="enable"><title>(0.0214952,90)</title></rect><rect x="108" y="187.299" width="6" height="12.7007" stroke="black" stroke-width="1" fill="blue" opacity="1" tooltip="enable"><title>(0.0227597,87)</title></rect><rect x="114" y="184.526" width="6" height="15.4745" stroke="black" stroke-width="1" fill="blue" opacity="1" tooltip="enable"><title>(0.0240241,106)</title></rect><rect x="120" y="183.796" width="6" height="16.2044" stroke="black" stroke-width="1" fill="blue" opacity="1" tooltip="enable"><title>(0.0252885,111)</title></rect><rect x="126" y="187.737" width="6" height="12.2628" stroke="black" stroke-width="1" fill="blue" opacity="1" tooltip="enable"><title>(0.0265529,84)</title></rect><rect x="132" y="187.007" width="6" height="12.9927" stroke="black" stroke-width="1" fill="blue" opacity="1" tooltip="enable"><title>(0.0278174,89)</title></rect><rect x="138" y="187.737" width="6" height="12.2628" stroke="black" stroke-width="1" fill="blue" opacity="1" tooltip="enable"><title>(0.0290818,84)</title></rect><rect x="144" y="188.175" width="6" height="11.8248" stroke="black" stroke-width="1" fill="blue" opacity="1" tooltip="enable"><title>(0.0303462,81)</title></rect><rect x="150" y="192.993" width="6" height="7.0073" stroke="black" stroke-width="1" fill="blue" opacity="1" tooltip="enable"><title>(0.0316106,48)</title></rect><rect x="156" y="189.927" width="6" height="10.073" stroke="black" stroke-width="1" fill="blue" opacity="1" tooltip="enable"><title>(0.0328751,69)</title></rect><rect x="162" y="188.467" width="6" height="11.5328" stroke="black" stroke-width="1" fill="blue" opacity="1" tooltip="enable"><title>(0.0341395,79)</title></rect><rect x="168" y="192.993" width="6" height="7.0073" stroke="black" stroke-width="1" fill="blue" opacity="1" tooltip="enable"><title>(0.0354039,48)</title></rect><rect x="174" y="193.139" width="6" height="6.86131" stroke="black" stroke-width="1" fill="blue" opacity="1" tooltip="enable"><title>(0.0366683,47)</title></rect><rect x="180" y="193.723" width="6" height="6.27737" stroke="black" stroke-width="1" fill="blue" opacity="1" tooltip="enable"><title>(0.0379328,43)</title></rect><rect x="186" y="193.285" width="6" height="6.71533" stroke="black" stroke-width="1" fill="blue" opacity="1" tooltip="enable"><title>(0.0391972,46)</title></rect><rect x="192" y="197.08" width="6" height="2.91971" stroke="black" stroke-width="1" fill="blue" opacity="1" tooltip="enable"><title>(0.0404616,20)</title></rect><rect x="198" y="191.825" width="6" height="8.17518" stroke="black" stroke-width="1" fill="blue" opacity="1" tooltip="enable"><title>(0.041726,56)</title></rect><rect x="204" y="197.664" width="6" height="2.33577" stroke="black" stroke-width="1" fill="blue" opacity="1" tooltip="enable"><title>(0.0429905,16)</title></rect><rect x="210" y="197.372" width="6" height="2.62774" stroke="black" stroke-width="1" fill="blue" opacity="1" tooltip="enable"><title>(0.0442549,18)</title></rect><rect x="216" y="194.453" width="6" height="5.54744" stroke="black" stroke-width="1" fill="blue" opacity="1" tooltip="enable"><title>(0.0455193,38)</title></rect><rect x="222" y="196.642" width="6" height="3.35766" stroke="black" stroke-width="1" fill="blue" opacity="1" tooltip="enable"><title>(0.0467837,23)</title></rect><rect x="228" y="197.226" width="6" height="2.77372" stroke="black" stroke-width="1" fill="blue" opacity="1" tooltip="enable"><title>(0.0480482,19)</title></rect><rect x="234" y="196.204" width="6" height="3.79562" stroke="black" stroke-width="1" fill="blue" opacity="1" tooltip="enable"><title>(0.0493126,26)</title></rect><rect x="240" y="197.08" width="6" height="2.91971" stroke="black" stroke-width="1" fill="blue" opacity="1" tooltip="enable"><title>(0.050577,20)</title></rect><rect x="246" y="199.124" width="6" height="0.875912" stroke="black" stroke-width="1" fill="blue" opacity="1" tooltip="enable"><title>(0.0518414,6)</title></rect><rect x="252" y="197.664" width="6" height="2.33577" stroke="black" stroke-width="1" fill="blue" opacity="1" tooltip="enable"><title>(0.0531059,16)</title></rect><rect x="258" y="196.204" width="6" height="3.79562" stroke="black" stroke-width="1" fill="blue" opacity="1" tooltip="enable"><title>(0.0543703,26)</title></rect><rect x="264" y="198.248" width="6" height="1.75182" stroke="black" stroke-width="1" fill="blue" opacity="1" tooltip="enable"><title>(0.0556347,12)</title></rect><rect x="270" y="197.956" width="6" height="2.0438" stroke="black" stroke-width="1" fill="blue" opacity="1" tooltip="enable"><title>(0.0568991,14)</title></rect><rect x="276" y="197.08" width="6" height="2.91971" stroke="black" stroke-width="1" fill="blue" opacity="1" tooltip="enable"><title>(0.0581636,20)</title></rect><rect x="282" y="196.496" width="6" height="3.50365" stroke="black" stroke-width="1" fill="blue" opacity="1" tooltip="enable"><title>(0.059428,24)</title></rect><rect x="288" y="198.248" width="6" height="1.75182" stroke="black" stroke-width="1" fill="blue" opacity="1" tooltip="enable"><title>(0.0606924,12)</title></rect><rect x="294" y="197.956" width="6" height="2.0438" stroke="black" stroke-width="1" fill="blue" opacity="1" tooltip="enable"><title>(0.0619569,14)</title></rect><rect x="300" y="198.248" width="6" height="1.75182" stroke="black" stroke-width="1" fill="blue" opacity="1" tooltip="enable"><title>(0.0632213,12)</title></rect><rect x="306" y="197.956" width="6" height="2.0438" stroke="black" stroke-width="1" fill="blue" opacity="1" tooltip="enable"><title>(0.0644857,14)</title></rect><rect x="312" y="197.664" width="6" height="2.33577" stroke="black" stroke-width="1" fill="blue" opacity="1" tooltip="enable"><title>(0.0657501,16)</title></rect><rect x="318" y="197.956" width="6" height="2.0438" stroke="black" stroke-width="1" fill="blue" opacity="1" tooltip="enable"><title>(0.0670145,14)</title></rect><rect x="324" y="196.788" width="6" height="3.21168" stroke="black" stroke-width="1" fill="blue" opacity="1" tooltip="enable"><title>(0.068279,22)</title></rect><rect x="330" y="197.956" width="6" height="2.0438" stroke="black" stroke-width="1" fill="blue" opacity="1" tooltip="enable"><title>(0.0695434,14)</title></rect><rect x="336" y="197.664" width="6" height="2.33577" stroke="black" stroke-width="1" fill="blue" opacity="1" tooltip="enable"><title>(0.0708078,16)</title></rect><rect x="342" y="196.788" width="6" height="3.21168" stroke="black" stroke-width="1" fill="blue" opacity="1" tooltip="enable"><title>(0.0720723,22)</title></rect><rect x="348" y="199.416" width="6" height="0.583942" stroke="black" stroke-width="1" fill="blue" opacity="1" tooltip="enable"><title>(0.0733367,4)</title></rect><rect x="354" y="198.832" width="6" height="1.16788" stroke="black" stroke-width="1" fill="blue" opacity="1" tooltip="enable"><title>(0.0746011,8)</title></rect><rect x="360" y="197.956" width="6" height="2.0438" stroke="black" stroke-width="1" fill="blue" opacity="1" tooltip="enable"><title>(0.0758655,14)</title></rect><rect x="366" y="198.248" width="6" height="1.75182" stroke="black" stroke-width="1" fill="blue" opacity="1" tooltip="enable"><title>(0.07713,12)</title></rect><rect x="372" y="199.124" width="6" height="0.875912" stroke="black" stroke-width="1" fill="blue" opacity="1" tooltip="enable"><title>(0.0783944,6)</title></rect><rect x="378" y="199.124" width="6" height="0.875912" stroke="black" stroke-width="1" fill="blue" opacity="1" tooltip="enable"><title>(0.0796588,6)</title></rect><rect x="384" y="199.124" width="6" height="0.875912" stroke="black" stroke-width="1" fill="blue" opacity="1" tooltip="enable"><title>(0.0809232,6)</title></rect><rect x="390" y="199.708" width="6" height="0.291971" stroke="black" stroke-width="1" fill="blue" opacity="1" tooltip="enable"><title>(0.0821877,2)</title></rect><rect x="396" y="199.416" width="6" height="0.583942" stroke="black" stroke-width="1" fill="blue" opacity="1" tooltip="enable"><title>(0.0834521,4)</title></rect><rect x="402" y="199.708" width="6" height="0.291971" stroke="black" stroke-width="1" fill="blue" opacity="1" tooltip="enable"><title>(0.0847165,2)</title></rect><rect x="408" y="198.832" width="6" height="1.16788" stroke="black" stroke-width="1" fill="blue" opacity="1" tooltip="enable"><title>(0.0859809,8)</title></rect><rect x="414" y="200" width="6" height="0" stroke="black" stroke-width="1" fill="blue" opacity="1" tooltip="enable"><title>(0.0872454,0)</title></rect><rect x="420" y="199.416" width="6" height="0.583942" stroke="black" stroke-width="1" fill="blue" opacity="1" tooltip="enable"><title>(0.0885098,4)</title></rect><rect x="426" y="200" width="6" height="0" stroke="black" stroke-width="1" fill="blue" opacity="1" tooltip="enable"><title>(0.0897742,0)</title></rect><rect x="432" y="199.416" width="6" height="0.583942" stroke="black" stroke-width="1" fill="blue" opacity="1" tooltip="enable"><title>(0.0910386,4)</title></rect><rect x="438" y="199.416" width="6" height="0.583942" stroke="black" stroke-width="1" fill="blue" opacity="1" tooltip="enable"><title>(0.0923031,4)</title></rect><rect x="444" y="199.416" width="6" height="0.583942" stroke="black" stroke-width="1" fill="blue" opacity="1" tooltip="enable"><title>(0.0935675,4)</title></rect><rect x="450" y="200" width="6" height="0" stroke="black" stroke-width="1" fill="blue" opacity="1" tooltip="enable"><title>(0.0948319,0)</title></rect><rect x="456" y="200" width="6" height="0" stroke="black" stroke-width="1" fill="blue" opacity="1" tooltip="enable"><title>(0.0960963,0)</title></rect><rect x="462" y="200" width="6" height="0" stroke="black" stroke-width="1" fill="blue" opacity="1" tooltip="enable"><title>(0.0973608,0)</title></rect><rect x="468" y="199.708" width="6" height="0.291971" stroke="black" stroke-width="1" fill="blue" opacity="1" tooltip="enable"><title>(0.0986252,2)</title></rect><rect x="474" y="199.708" width="6" height="0.291971" stroke="black" stroke-width="1" fill="blue" opacity="1" tooltip="enable"><title>(0.0998896,2)</title></rect><rect x="480" y="200" width="6" height="0" stroke="black" stroke-width="1" fill="blue" opacity="1" tooltip="enable"><title>(0.101154,0)</title></rect><rect x="486" y="199.708" width="6" height="0.291971" stroke="black" stroke-width="1" fill="blue" opacity="1" tooltip="enable"><title>(0.102418,2)</title></rect><rect x="492" y="200" width="6" height="0" stroke="black" stroke-width="1" fill="blue" opacity="1" tooltip="enable"><title>(0.103683,0)</title></rect><rect x="498" y="200" width="6" height="0" stroke="black" stroke-width="1" fill="blue" opacity="1" tooltip="enable"><title>(0.104947,0)</title></rect><rect x="504" y="199.708" width="6" height="0.291971" stroke="black" stroke-width="1" fill="blue" opacity="1" tooltip="enable"><title>(0.106212,2)</title></rect><rect x="510" y="200" width="6" height="0" stroke="black" stroke-width="1" fill="blue" opacity="1" tooltip="enable"><title>(0.107476,0)</title></rect><rect x="516" y="200" width="6" height="0" stroke="black" stroke-width="1" fill="blue" opacity="1" tooltip="enable"><title>(0.108741,0)</title></rect><rect x="522" y="200" width="6" height="0" stroke="black" stroke-width="1" fill="blue" opacity="1" tooltip="enable"><title>(0.110005,0)</title></rect><rect x="528" y="200" width="6" height="0" stroke="black" stroke-width="1" fill="blue" opacity="1" tooltip="enable"><title>(0.111269,0)</title></rect><rect x="534" y="200" width="6" height="0" stroke="black" stroke-width="1" fill="blue" opacity="1" tooltip="enable"><title>(0.112534,0)</title></rect><rect x="540" y="200" width="6" height="0" stroke="black" stroke-width="1" fill="blue" opacity="1" tooltip="enable"><title>(0.113798,0)</title></rect><rect x="546" y="200" width="6" height="0" stroke="black" stroke-width="1" fill="blue" opacity="1" tooltip="enable"><title>(0.115063,0)</title></rect><rect x="552" y="200" width="6" height="0" stroke="black" stroke-width="1" fill="blue" opacity="1" tooltip="enable"><title>(0.116327,0)</title></rect><rect x="558" y="200" width="6" height="0" stroke="black" stroke-width="1" fill="blue" opacity="1" tooltip="enable"><title>(0.117592,0)</title></rect><rect x="564" y="199.708" width="6" height="0.291971" stroke="black" stroke-width="1" fill="blue" opacity="1" tooltip="enable"><title>(0.118856,2)</title></rect><rect x="570" y="200" width="6" height="0" stroke="black" stroke-width="1" fill="blue" opacity="1" tooltip="enable"><title>(0.12012,0)</title></rect><rect x="576" y="200" width="6" height="0" stroke="black" stroke-width="1" fill="blue" opacity="1" tooltip="enable"><title>(0.121385,0)</title></rect><rect x="582" y="199.416" width="6" height="0.583942" stroke="black" stroke-width="1" fill="blue" opacity="1" tooltip="enable"><title>(0.122649,4)</title></rect><rect x="588" y="200" width="6" height="0" stroke="black" stroke-width="1" fill="blue" opacity="1" tooltip="enable"><title>(0.123914,0)</title></rect><rect x="594" y="199.854" width="6" height="0.145985" stroke="black" stroke-width="1" fill="blue" opacity="1" tooltip="enable"><title>(0.125178,1)</title></rect><text x="30" y="240" font-size="20" fill="black">0</text>
<text x="600" y="240" font-size="20" fill="black">0.126443</text>
<polyline points="0,220,600,220" stroke="black" stroke-width="1" fill="none" opacity="1"/>
<text x="720" y="20" font-size="20" fill="black">1370</text>
<text x="720" y="200" font-size="20" fill="black">0</text>
<polyline points="660,0,660,200" stroke="black" stroke-width="1" fill="none" opacity="1"/>
</svg>