<?xml version="1.0" standalone="yes"?>
<!-- SVG graphic -->
<svg xmlns='http://www.w3.org/2000/svg' xmlns:xlink='http://www.w3.org/1999/xlink'
 version="1.1">
<rect x="0" y="0" width="6" height="200" stroke="black" stroke-width="1" fill="blue" opacity="1" tooltip="enable"><title>(0,2852)</title></rect><rect x="6" y="113.745" width="6" height="86.2553" stroke="black" stroke-width="1" fill="blue" opacity="1" tooltip="enable"><title>(0.00159067,1230)</title></rect><rect x="12" y="157.083" width="6" height="42.9173" stroke="black" stroke-width="1" fill="blue" opacity="1" tooltip="enable"><title>(0.00318135,612)</title></rect><rect x="18" y="176.788" width="6" height="23.2118" stroke="black" stroke-width="1" fill="blue" opacity="1" tooltip="enable"><title>(0.00477202,331)</title></rect><rect x="24" y="184.362" width="6" height="15.6381" stroke="black" stroke-width="1" fill="blue" opacity="1" tooltip="enable"><title>(0.00636269,223)</title></rect><rect x="30" y="184.011" width="6" height="15.9888" stroke="black" stroke-width="1" fill="blue" opacity="1" tooltip="enable"><title>(0.00795337,228)</title></rect><rect x="36" y="185.694" width="6" height="14.3058" stroke="black" stroke-width="1" fill="blue" opacity="1" tooltip="enable"><title>(0.00954404,204)</title></rect><rect x="42" y="186.536" width="6" height="13.4642" stroke="black" stroke-width="1" fill="blue" opacity="1" tooltip="enable"><title>(0.0111347,192)</title></rect><rect x="48" y="185.764" width="6" height="14.2356" stroke="black" stroke-width="1" fill="blue" opacity="1" tooltip="enable"><title>(0.0127254,203)</title></rect><rect x="54" y="190.533" width="6" height="9.46704" stroke="black" stroke-width="1" fill="blue" opacity="1" tooltip="enable"><title>(0.0143161,135)</title></rect><rect x="60" y="187.798" width="6" height="12.202" stroke="black" stroke-width="1" fill="blue" opacity="1" tooltip="enable"><title>(0.0159067,174)</title></rect><rect x="66" y="191.024" width="6" height="8.97616" stroke="black" stroke-width="1" fill="blue" opacity="1" tooltip="enable"><title>(0.0174974,128)</title></rect><rect x="72" y="192.356" width="6" height="7.64376" stroke="black" stroke-width="1" fill="blue" opacity="1" tooltip="enable"><title>(0.0190881,109)</title></rect><rect x="78" y="192.496" width="6" height="7.50351" stroke="black" stroke-width="1" fill="blue" opacity="1" tooltip="enable"><title>(0.0206788,107)</title></rect><rect x="84" y="194.741" width="6" height="5.25947" stroke="black" stroke-width="1" fill="blue" opacity="1" tooltip="enable"><title>(0.0222694,75)</title></rect><rect x="90" y="194.881" width="6" height="5.11921" stroke="black" stroke-width="1" fill="blue" opacity="1" tooltip="enable"><title>(0.0238601,73)</title></rect><rect x="96" y="194.53" width="6" height="5.46985" stroke="black" stroke-width="1" fill="blue" opacity="1" tooltip="enable"><title>(0.0254508,78)</title></rect><rect x="102" y="193.128" width="6" height="6.87237" stroke="black" stroke-width="1" fill="blue" opacity="1" tooltip="enable"><title>(0.0270415,98)</title></rect><rect x="108" y="194.39" width="6" height="5.6101" stroke="black" stroke-width="1" fill="blue" opacity="1" tooltip="enable"><title>(0.0286321,80)</title></rect><rect x="114" y="195.091" width="6" height="4.90884" stroke="black" stroke-width="1" fill="blue" opacity="1" tooltip="enable"><title>(0.0302228,70)</title></rect><rect x="120" y="196.213" width="6" height="3.78682" stroke="black" stroke-width="1" fill="blue" opacity="1" tooltip="enable"><title>(0.0318135,54)</title></rect><rect x="126" y="195.231" width="6" height="4.76858" stroke="black" stroke-width="1" fill="blue" opacity="1" tooltip="enable"><title>(0.0334041,68)</title></rect><rect x="132" y="195.091" width="6" height="4.90884" stroke="black" stroke-width="1" fill="blue" opacity="1" tooltip="enable"><title>(0.0349948,70)</title></rect><rect x="138" y="195.091" width="6" height="4.90884" stroke="black" stroke-width="1" fill="blue" opacity="1" tooltip="enable"><title>(0.0365855,70)</title></rect><rect x="144" y="195.792" width="6" height="4.20757" stroke="black" stroke-width="1" fill="blue" opacity="1" tooltip="enable"><title>(0.0381762,60)</title></rect><rect x="150" y="196.564" width="6" height="3.43619" stroke="black" stroke-width="1" fill="blue" opacity="1" tooltip="enable"><title>(0.0397668,49)</title></rect><rect x="156" y="196.143" width="6" height="3.85694" stroke="black" stroke-width="1" fill="blue" opacity="1" tooltip="enable"><title>(0.0413575,55)</title></rect><rect x="162" y="195.652" width="6" height="4.34783" stroke="black" stroke-width="1" fill="blue" opacity="1" tooltip="enable"><title>(0.0429482,62)</title></rect><rect x="168" y="197.055" width="6" height="2.9453" stroke="black" stroke-width="1" fill="blue" opacity="1" tooltip="enable"><title>(0.0445389,42)</title></rect><rect x="174" y="198.036" width="6" height="1.96353" stroke="black" stroke-width="1" fill="blue" opacity="1" tooltip="enable"><title>(0.0461295,28)</title></rect><rect x="180" y="196.704" width="6" height="3.29593" stroke="black" stroke-width="1" fill="blue" opacity="1" tooltip="enable"><title>(0.0477202,47)</title></rect><rect x="186" y="197.826" width="6" height="2.17391" stroke="black" stroke-width="1" fill="blue" opacity="1" tooltip="enable"><title>(0.0493109,31)</title></rect><rect x="192" y="198.597" width="6" height="1.40252" stroke="black" stroke-width="1" fill="blue" opacity="1" tooltip="enable"><title>(0.0509016,20)</title></rect><rect x="198" y="198.738" width="6" height="1.26227" stroke="black" stroke-width="1" fill="blue" opacity="1" tooltip="enable"><title>(0.0524922,18)</title></rect><rect x="204" y="199.018" width="6" height="0.981767" stroke="black" stroke-width="1" fill="blue" opacity="1" tooltip="enable"><title>(0.0540829,14)</title></rect><rect x="210" y="199.158" width="6" height="0.841515" stroke="black" stroke-width="1" fill="blue" opacity="1" tooltip="enable"><title>(0.0556736,12)</title></rect><rect x="216" y="198.878" width="6" height="1.12202" stroke="black" stroke-width="1" fill="blue" opacity="1" tooltip="enable"><title>(0.0572642,16)</title></rect><rect x="222" y="198.878" width="6" height="1.12202" stroke="black" stroke-width="1" fill="blue" opacity="1" tooltip="enable"><title>(0.0588549,16)</title></rect><rect x="228" y="199.719" width="6" height="0.280505" stroke="black" stroke-width="1" fill="blue" opacity="1" tooltip="enable"><title>(0.0604456,4)</title></rect><rect x="234" y="199.439" width="6" height="0.56101" stroke="black" stroke-width="1" fill="blue" opacity="1" tooltip="enable"><title>(0.0620363,8)</title></rect><rect x="240" y="198.878" width="6" height="1.12202" stroke="black" stroke-width="1" fill="blue" opacity="1" tooltip="enable"><title>(0.0636269,16)</title></rect><rect x="246" y="199.018" width="6" height="0.981767" stroke="black" stroke-width="1" fill="blue" opacity="1" tooltip="enable"><title>(0.0652176,14)</title></rect><rect x="252" y="199.299" width="6" height="0.701262" stroke="black" stroke-width="1" fill="blue" opacity="1" tooltip="enable"><title>(0.0668083,10)</title></rect><rect x="258" y="199.439" width="6" height="0.56101" stroke="black" stroke-width="1" fill="blue" opacity="1" tooltip="enable"><title>(0.068399,8)</title></rect><rect x="264" y="200" width="6" height="0" stroke="black" stroke-width="1" fill="blue" opacity="1" tooltip="enable"><title>(0.0699896,0)</title></rect><rect x="270" y="200" width="6" height="0" stroke="black" stroke-width="1" fill="blue" opacity="1" tooltip="enable"><title>(0.0715803,0)</title></rect><rect x="276" y="200" width="6" height="0" stroke="black" stroke-width="1" fill="blue" opacity="1" tooltip="enable"><title>(0.073171,0)</title></rect><rect x="282" y="199.86" width="6" height="0.140252" stroke="black" stroke-width="1" fill="blue" opacity="1" tooltip="enable"><title>(0.0747617,2)</title></rect><rect x="288" y="200" width="6" height="0" stroke="black" stroke-width="1" fill="blue" opacity="1" tooltip="enable"><title>(0.0763523,0)</title></rect><rect x="294" y="200" width="6" height="0" stroke="black" stroke-width="1" fill="blue" opacity="1" tooltip="enable"><title>(0.077943,0)</title></rect><rect x="300" y="200" width="6" height="0" stroke="black" stroke-width="1" fill="blue" opacity="1" tooltip="enable"><title>(0.0795337,0)</title></rect><rect x="306" y="200" width="6" height="0" stroke="black" stroke-width="1" fill="blue" opacity="1" tooltip="enable"><title>(0.0811243,0)</title></rect><rect x="312" y="200" width="6" height="0" stroke="black" stroke-width="1" fill="blue" opacity="1" tooltip="enable"><title>(0.082715,0)</title></rect><rect x="318" y="200" width="6" height="0" stroke="black" stroke-width="1" fill="blue" opacity="1" tooltip="enable"><title>(0.0843057,0)</title></rect><rect x="324" y="200" width="6" height="0" stroke="black" stroke-width="1" fill="blue" opacity="1" tooltip="enable"><title>(0.0858964,0)</title></rect><rect x="330" y="200" width="6" height="0" stroke="black" stroke-width="1" fill="blue" opacity="1" tooltip="enable"><title>(0.087487,0)</title></rect><rect x="336" y="200" width="6" height="0" stroke="black" stroke-width="1" fill="blue" opacity="1" tooltip="enable"><title>(0.0890777,0)</title></rect><rect x="342" y="200" width="6" height="0" stroke="black" stroke-width="1" fill="blue" opacity="1" tooltip="enable"><title>(0.0906684,0)</title></rect><rect x="348" y="200" width="6" height="0" stroke="black" stroke-width="1" fill="blue" opacity="1" tooltip="enable"><title>(0.0922591,0)</title></rect><rect x="354" y="200" width="6" height="0" stroke="black" stroke-width="1" fill="blue" opacity="1" tooltip="enable"><title>(0.0938497,0)</title></rect><rect x="360" y="200" width="6" height="0" stroke="black" stroke-width="1" fill="blue" opacity="1" tooltip="enable"><title>(0.0954404,0)</title></rect><rect x="366" y="200" width="6" height="0" stroke="black" stroke-width="1" fill="blue" opacity="1" tooltip="enable"><title>(0.0970311,0)</title></rect><rect x="372" y="200" width="6" height="0" stroke="black" stroke-width="1" fill="blue" opacity="1" tooltip="enable"><title>(0.0986218,0)</title></rect><rect x="378" y="200" width="6" height="0" stroke="black" stroke-width="1" fill="blue" opacity="1" tooltip="enable"><title>(0.100212,0)</title></rect><rect x="384" y="200" width="6" height="0" stroke="black" stroke-width="1" fill="blue" opacity="1" tooltip="enable"><title>(0.101803,0)</title></rect><rect x="390" y="200" width="6" height="0" stroke="black" stroke-width="1" fill="blue" opacity="1" tooltip="enable"><title>(0.103394,0)</title></rect><rect x="396" y="200" width="6" height="0" stroke="black" stroke-width="1" fill="blue" opacity="1" tooltip="enable"><title>(0.104984,0)</title></rect><rect x="402" y="200" width="6" height="0" stroke="black" stroke-width="1" fill="blue" opacity="1" tooltip="enable"><title>(0.106575,0)</title></rect><rect x="408" y="200" width="6" height="0" stroke="black" stroke-width="1" fill="blue" opacity="1" tooltip="enable"><title>(0.108166,0)</title></rect><rect x="414" y="200" width="6" height="0" stroke="black" stroke-width="1" fill="blue" opacity="1" tooltip="enable"><title>(0.109756,0)</title></rect><rect x="420" y="200" width="6" height="0" stroke="black" stroke-width="1" fill="blue" opacity="1" tooltip="enable"><title>(0.111347,0)</title></rect><rect x="426" y="200" width="6" height="0" stroke="black" stroke-width="1" fill="blue" opacity="1" tooltip="enable"><title>(0.112938,0)</title></rect><rect x="432" y="200" width="6" height="0" stroke="black" stroke-width="1" fill="blue" opacity="1" tooltip="enable"><title>(0.114528,0)</title></rect><rect x="438" y="200" width="6" height="0" stroke="black" stroke-width="1" fill="blue" opacity="1" tooltip="enable"><title>(0.116119,0)</title></rect><rect x="444" y="200" width="6" height="0" stroke="black" stroke-width="1" fill="blue" opacity="1" tooltip="enable"><title>(0.11771,0)</title></rect><rect x="450" y="200" width="6" height="0" stroke="black" stroke-width="1" fill="blue" opacity="1" tooltip="enable"><title>(0.119301,0)</title></rect><rect x="456" y="200" width="6" height="0" stroke="black" stroke-width="1" fill="blue" opacity="1" tooltip="enable"><title>(0.120891,0)</title></rect><rect x="462" y="200" width="6" height="0" stroke="black" stroke-width="1" fill="blue" opacity="1" tooltip="enable"><title>(0.122482,0)</title></rect><rect x="468" y="200" width="6" height="0" stroke="black" stroke-width="1" fill="blue" opacity="1" tooltip="enable"><title>(0.124073,0)</title></rect><rect x="474" y="200" width="6" height="0" stroke="black" stroke-width="1" fill="blue" opacity="1" tooltip="enable"><title>(0.125663,0)</title></rect><rect x="480" y="200" width="6" height="0" stroke="black" stroke-width="1" fill="blue" opacity="1" tooltip="enable"><title>(0.127254,0)</title></rect><rect x="486" y="200" width="6" height="0" stroke="black" stroke-width="1" fill="blue" opacity="1" tooltip="enable"><title>(0.128845,0)</title></rect><rect x="492" y="200" width="6" height="0" stroke="black" stroke-width="1" fill="blue" opacity="1" tooltip="enable"><title>(0.130435,0)</title></rect><rect x="498" y="200" width="6" height="0" stroke="black" stroke-width="1" fill="blue" opacity="1" tooltip="enable"><title>(0.132026,0)</title></rect><rect x="504" y="200" width="6" height="0" stroke="black" stroke-width="1" fill="blue" opacity="1" tooltip="enable"><title>(0.133617,0)</title></rect><rect x="510" y="200" width="6" height="0" stroke="black" stroke-width="1" fill="blue" opacity="1" tooltip="enable"><title>(0.135207,0)</title></rect><rect x="516" y="200" width="6" height="0" stroke="black" stroke-width="1" fill="blue" opacity="1" tooltip="enable"><title>(0.136798,0)</title></rect><rect x="522" y="200" width="6" height="0" stroke="black" stroke-width="1" fill="blue" opacity="1" tooltip="enable"><title>(0.138389,0)</title></rect><rect x="528" y="200" width="6" height="0" stroke="black" stroke-width="1" fill="blue" opacity="1" tooltip="enable"><title>(0.139979,0)</title></rect><rect x="534" y="200" width="6" height="0" stroke="black" stroke-width="1" fill="blue" opacity="1" tooltip="enable"><title>(0.14157,0)</title></rect><rect x="540" y="200" width="6" height="0" stroke="black" stroke-width="1" fill="blue" opacity="1" tooltip="enable"><title>(0.143161,0)</title></rect><rect x="546" y="200" width="6" height="0" stroke="black" stroke-width="1" fill="blue" opacity="1" tooltip="enable"><title>(0.144751,0)</title></rect><rect x="552" y="200" width="6" height="0" stroke="black" stroke-width="1" fill="blue" opacity="1" tooltip="enable"><title>(0.146342,0)</title></rect><rect x="558" y="200" width="6" height="0" stroke="black" stroke-width="1" fill="blue" opacity="1" tooltip="enable"><title>(0.147933,0)</title></rect><rect x="564" y="200" width="6" height="0" stroke="black" stroke-width="1" fill="blue" opacity="1" tooltip="enable"><title>(0.149523,0)</title></rect><rect x="570" y="200" width="6" height="0" stroke="black" stroke-width="1" fill="blue" opacity="1" tooltip="enable"><title>(0.151114,0)</title></rect><rect x="576" y="200" width="6" height="0" stroke="black" stroke-width="1" fill="blue" opacity="1" tooltip="enable"><title>(0.152705,0)</title></rect><rect x="582" y="200" width="6" height="0" stroke="black" stroke-width="1" fill="blue" opacity="1" tooltip="enable"><title>(0.154295,0)</title></rect><rect x="588" y="199.86" width="6" height="0.140252" stroke="black" stroke-width="1" fill="blue" opacity="1" tooltip="enable"><title>(0.155886,2)</title></rect><rect x="594" y="199.93" width="6" height="0.0701262" stroke="black" stroke-width="1" fill="blue" opacity="1" tooltip="enable"><title>(0.157477,1)</title></rect><text x="30" y="240" font-size="20" fill="black">0</text>
<text x="600" y="240" font-size="20" fill="black">0.159067</text>
<polyline points="0,220,600,220" stroke="black" stroke-width="1" fill="none" opacity="1"/>
<text x="720" y="20" font-size="20" fill="black">2852</text>
<text x="720" y="200" font-size="20" fill="black">0</text>
<polyline points="660,0,660,200" stroke="black" stroke-width="1" fill="none" opacity="1"/>
</svg>