<?xml version="1.0" standalone="yes"?>
<!-- SVG graphic -->
<svg xmlns='http://www.w3.org/2000/svg' xmlns:xlink='http://www.w3.org/1999/xlink'
 version="1.1">
<rect x="0" y="0" width="6" height="200" stroke="black" stroke-width="1" fill="blue" opacity="1" tooltip="enable"><title>(0,1404)</title></rect><rect x="6" y="19.3732" width="6" height="180.627" stroke="black" stroke-width="1" fill="blue" opacity="1" tooltip="enable"><title>(0.00120028,1268)</title></rect><rect x="12" y="39.3162" width="6" height="160.684" stroke="black" stroke-width="1" fill="blue" opacity="1" tooltip="enable"><title>(0.00240057,1128)</title></rect><rect x="18" y="125.641" width="6" height="74.359" stroke="black" stroke-width="1" fill="blue" opacity="1" tooltip="enable"><title>(0.00360085,522)</title></rect><rect x="24" y="166.952" width="6" height="33.0484" stroke="black" stroke-width="1" fill="blue" opacity="1" tooltip="enable"><title>(0.00480114,232)</title></rect><rect x="30" y="175.071" width="6" height="24.9288" stroke="black" stroke-width="1" fill="blue" opacity="1" tooltip="enable"><title>(0.00600142,175)</title></rect><rect x="36" y="178.205" width="6" height="21.7949" stroke="black" stroke-width="1" fill="blue" opacity="1" tooltip="enable"><title>(0.0072017,153)</title></rect><rect x="42" y="178.063" width="6" height="21.9373" stroke="black" stroke-width="1" fill="blue" opacity="1" tooltip="enable"><title>(0.00840199,154)</title></rect><rect x="48" y="183.476" width="6" height="16.5242" stroke="black" stroke-width="1" fill="blue" opacity="1" tooltip="enable"><title>(0.00960227,116)</title></rect><rect x="54" y="186.895" width="6" height="13.1054" stroke="black" stroke-width="1" fill="blue" opacity="1" tooltip="enable"><title>(0.0108026,92)</title></rect><rect x="60" y="184.188" width="6" height="15.812" stroke="black" stroke-width="1" fill="blue" opacity="1" tooltip="enable"><title>(0.0120028,111)</title></rect><rect x="66" y="181.197" width="6" height="18.8034" stroke="black" stroke-width="1" fill="blue" opacity="1" tooltip="enable"><title>(0.0132031,132)</title></rect><rect x="72" y="182.479" width="6" height="17.5214" stroke="black" stroke-width="1" fill="blue" opacity="1" tooltip="enable"><title>(0.0144034,123)</title></rect><rect x="78" y="183.333" width="6" height="16.6667" stroke="black" stroke-width="1" fill="blue" opacity="1" tooltip="enable"><title>(0.0156037,117)</title></rect><rect x="84" y="185.897" width="6" height="14.1026" stroke="black" stroke-width="1" fill="blue" opacity="1" tooltip="enable"><title>(0.016804,99)</title></rect><rect x="90" y="184.9" width="6" height="15.0997" stroke="black" stroke-width="1" fill="blue" opacity="1" tooltip="enable"><title>(0.0180043,106)</title></rect><rect x="96" y="185.043" width="6" height="14.9573" stroke="black" stroke-width="1" fill="blue" opacity="1" tooltip="enable"><title>(0.0192045,105)</title></rect><rect x="102" y="183.761" width="6" height="16.2393" stroke="black" stroke-width="1" fill="blue" opacity="1" tooltip="enable"><title>(0.0204048,114)</title></rect><rect x="108" y="183.048" width="6" height="16.9516" stroke="black" stroke-width="1" fill="blue" opacity="1" tooltip="enable"><title>(0.0216051,119)</title></rect><rect x="114" y="186.61" width="6" height="13.3903" stroke="black" stroke-width="1" fill="blue" opacity="1" tooltip="enable"><title>(0.0228054,94)</title></rect><rect x="120" y="185.328" width="6" height="14.6724" stroke="black" stroke-width="1" fill="blue" opacity="1" tooltip="enable"><title>(0.0240057,103)</title></rect><rect x="126" y="187.037" width="6" height="12.963" stroke="black" stroke-width="1" fill="blue" opacity="1" tooltip="enable"><title>(0.025206,91)</title></rect><rect x="132" y="180.769" width="6" height="19.2308" stroke="black" stroke-width="1" fill="blue" opacity="1" tooltip="enable"><title>(0.0264063,135)</title></rect><rect x="138" y="185.043" width="6" height="14.9573" stroke="black" stroke-width="1" fill="blue" opacity="1" tooltip="enable"><title>(0.0276065,105)</title></rect><rect x="144" y="185.755" width="6" height="14.245" stroke="black" stroke-width="1" fill="blue" opacity="1" tooltip="enable"><title>(0.0288068,100)</title></rect><rect x="150" y="187.322" width="6" height="12.6781" stroke="black" stroke-width="1" fill="blue" opacity="1" tooltip="enable"><title>(0.0300071,89)</title></rect><rect x="156" y="185.185" width="6" height="14.8148" stroke="black" stroke-width="1" fill="blue" opacity="1" tooltip="enable"><title>(0.0312074,104)</title></rect><rect x="162" y="186.467" width="6" height="13.5328" stroke="black" stroke-width="1" fill="blue" opacity="1" tooltip="enable"><title>(0.0324077,95)</title></rect><rect x="168" y="187.749" width="6" height="12.2507" stroke="black" stroke-width="1" fill="blue" opacity="1" tooltip="enable"><title>(0.033608,86)</title></rect><rect x="174" y="189.031" width="6" height="10.9687" stroke="black" stroke-width="1" fill="blue" opacity="1" tooltip="enable"><title>(0.0348082,77)</title></rect><rect x="180" y="192.877" width="6" height="7.12251" stroke="black" stroke-width="1" fill="blue" opacity="1" tooltip="enable"><title>(0.0360085,50)</title></rect><rect x="186" y="187.892" width="6" height="12.1083" stroke="black" stroke-width="1" fill="blue" opacity="1" tooltip="enable"><title>(0.0372088,85)</title></rect><rect x="192" y="192.877" width="6" height="7.12251" stroke="black" stroke-width="1" fill="blue" opacity="1" tooltip="enable"><title>(0.0384091,50)</title></rect><rect x="198" y="191.453" width="6" height="8.54701" stroke="black" stroke-width="1" fill="blue" opacity="1" tooltip="enable"><title>(0.0396094,60)</title></rect><rect x="204" y="192.735" width="6" height="7.26496" stroke="black" stroke-width="1" fill="blue" opacity="1" tooltip="enable"><title>(0.0408097,51)</title></rect><rect x="210" y="195.157" width="6" height="4.8433" stroke="black" stroke-width="1" fill="blue" opacity="1" tooltip="enable"><title>(0.0420099,34)</title></rect><rect x="216" y="194.587" width="6" height="5.41311" stroke="black" stroke-width="1" fill="blue" opacity="1" tooltip="enable"><title>(0.0432102,38)</title></rect><rect x="222" y="196.154" width="6" height="3.84615" stroke="black" stroke-width="1" fill="blue" opacity="1" tooltip="enable"><title>(0.0444105,27)</title></rect><rect x="228" y="196.866" width="6" height="3.1339" stroke="black" stroke-width="1" fill="blue" opacity="1" tooltip="enable"><title>(0.0456108,22)</title></rect><rect x="234" y="197.721" width="6" height="2.2792" stroke="black" stroke-width="1" fill="blue" opacity="1" tooltip="enable"><title>(0.0468111,16)</title></rect><rect x="240" y="196.866" width="6" height="3.1339" stroke="black" stroke-width="1" fill="blue" opacity="1" tooltip="enable"><title>(0.0480114,22)</title></rect><rect x="246" y="196.866" width="6" height="3.1339" stroke="black" stroke-width="1" fill="blue" opacity="1" tooltip="enable"><title>(0.0492117,22)</title></rect><rect x="252" y="197.721" width="6" height="2.2792" stroke="black" stroke-width="1" fill="blue" opacity="1" tooltip="enable"><title>(0.0504119,16)</title></rect><rect x="258" y="198.291" width="6" height="1.7094" stroke="black" stroke-width="1" fill="blue" opacity="1" tooltip="enable"><title>(0.0516122,12)</title></rect><rect x="264" y="196.581" width="6" height="3.4188" stroke="black" stroke-width="1" fill="blue" opacity="1" tooltip="enable"><title>(0.0528125,24)</title></rect><rect x="270" y="199.145" width="6" height="0.854701" stroke="black" stroke-width="1" fill="blue" opacity="1" tooltip="enable"><title>(0.0540128,6)</title></rect><rect x="276" y="199.288" width="6" height="0.712251" stroke="black" stroke-width="1" fill="blue" opacity="1" tooltip="enable"><title>(0.0552131,5)</title></rect><rect x="282" y="199.573" width="6" height="0.42735" stroke="black" stroke-width="1" fill="blue" opacity="1" tooltip="enable"><title>(0.0564134,3)</title></rect><rect x="288" y="198.006" width="6" height="1.9943" stroke="black" stroke-width="1" fill="blue" opacity="1" tooltip="enable"><title>(0.0576136,14)</title></rect><rect x="294" y="198.576" width="6" height="1.4245" stroke="black" stroke-width="1" fill="blue" opacity="1" tooltip="enable"><title>(0.0588139,10)</title></rect><rect x="300" y="199.715" width="6" height="0.2849" stroke="black" stroke-width="1" fill="blue" opacity="1" tooltip="enable"><title>(0.0600142,2)</title></rect><rect x="306" y="199.43" width="6" height="0.569801" stroke="black" stroke-width="1" fill="blue" opacity="1" tooltip="enable"><title>(0.0612145,4)</title></rect><rect x="312" y="199.145" width="6" height="0.854701" stroke="black" stroke-width="1" fill="blue" opacity="1" tooltip="enable"><title>(0.0624148,6)</title></rect><rect x="318" y="200" width="6" height="0" stroke="black" stroke-width="1" fill="blue" opacity="1" tooltip="enable"><title>(0.0636151,0)</title></rect><rect x="324" y="199.145" width="6" height="0.854701" stroke="black" stroke-width="1" fill="blue" opacity="1" tooltip="enable"><title>(0.0648153,6)</title></rect><rect x="330" y="199.145" width="6" height="0.854701" stroke="black" stroke-width="1" fill="blue" opacity="1" tooltip="enable"><title>(0.0660156,6)</title></rect><rect x="336" y="199.715" width="6" height="0.2849" stroke="black" stroke-width="1" fill="blue" opacity="1" tooltip="enable"><title>(0.0672159,2)</title></rect><rect x="342" y="199.145" width="6" height="0.854701" stroke="black" stroke-width="1" fill="blue" opacity="1" tooltip="enable"><title>(0.0684162,6)</title></rect><rect x="348" y="197.721" width="6" height="2.2792" stroke="black" stroke-width="1" fill="blue" opacity="1" tooltip="enable"><title>(0.0696165,16)</title></rect><rect x="354" y="200" width="6" height="0" stroke="black" stroke-width="1" fill="blue" opacity="1" tooltip="enable"><title>(0.0708168,0)</title></rect><rect x="360" y="199.43" width="6" height="0.569801" stroke="black" stroke-width="1" fill="blue" opacity="1" tooltip="enable"><title>(0.0720171,4)</title></rect><rect x="366" y="199.715" width="6" height="0.2849" stroke="black" stroke-width="1" fill="blue" opacity="1" tooltip="enable"><title>(0.0732173,2)</title></rect><rect x="372" y="198.86" width="6" height="1.1396" stroke="black" stroke-width="1" fill="blue" opacity="1" tooltip="enable"><title>(0.0744176,8)</title></rect><rect x="378" y="200" width="6" height="0" stroke="black" stroke-width="1" fill="blue" opacity="1" tooltip="enable"><title>(0.0756179,0)</title></rect><rect x="384" y="199.715" width="6" height="0.2849" stroke="black" stroke-width="1" fill="blue" opacity="1" tooltip="enable"><title>(0.0768182,2)</title></rect><rect x="390" y="200" width="6" height="0" stroke="black" stroke-width="1" fill="blue" opacity="1" tooltip="enable"><title>(0.0780185,0)</title></rect><rect x="396" y="199.43" width="6" height="0.569801" stroke="black" stroke-width="1" fill="blue" opacity="1" tooltip="enable"><title>(0.0792188,4)</title></rect><rect x="402" y="200" width="6" height="0" stroke="black" stroke-width="1" fill="blue" opacity="1" tooltip="enable"><title>(0.080419,0)</title></rect><rect x="408" y="199.43" width="6" height="0.569801" stroke="black" stroke-width="1" fill="blue" opacity="1" tooltip="enable"><title>(0.0816193,4)</title></rect><rect x="414" y="199.715" width="6" height="0.2849" stroke="black" stroke-width="1" fill="blue" opacity="1" tooltip="enable"><title>(0.0828196,2)</title></rect><rect x="420" y="199.715" width="6" height="0.2849" stroke="black" stroke-width="1" fill="blue" opacity="1" tooltip="enable"><title>(0.0840199,2)</title></rect><rect x="426" y="199.715" width="6" height="0.2849" stroke="black" stroke-width="1" fill="blue" opacity="1" tooltip="enable"><title>(0.0852202,2)</title></rect><rect x="432" y="200" width="6" height="0" stroke="black" stroke-width="1" fill="blue" opacity="1" tooltip="enable"><title>(0.0864205,0)</title></rect><rect x="438" y="200" width="6" height="0" stroke="black" stroke-width="1" fill="blue" opacity="1" tooltip="enable"><title>(0.0876207,0)</title></rect><rect x="444" y="200" width="6" height="0" stroke="black" stroke-width="1" fill="blue" opacity="1" tooltip="enable"><title>(0.088821,0)</title></rect><rect x="450" y="200" width="6" height="0" stroke="black" stroke-width="1" fill="blue" opacity="1" tooltip="enable"><title>(0.0900213,0)</title></rect><rect x="456" y="200" width="6" height="0" stroke="black" stroke-width="1" fill="blue" opacity="1" tooltip="enable"><title>(0.0912216,0)</title></rect><rect x="462" y="200" width="6" height="0" stroke="black" stroke-width="1" fill="blue" opacity="1" tooltip="enable"><title>(0.0924219,0)</title></rect><rect x="468" y="200" width="6" height="0" stroke="black" stroke-width="1" fill="blue" opacity="1" tooltip="enable"><title>(0.0936222,0)</title></rect><rect x="474" y="200" width="6" height="0" stroke="black" stroke-width="1" fill="blue" opacity="1" tooltip="enable"><title>(0.0948225,0)</title></rect><rect x="480" y="200" width="6" height="0" stroke="black" stroke-width="1" fill="blue" opacity="1" tooltip="enable"><title>(0.0960227,0)</title></rect><rect x="486" y="200" width="6" height="0" stroke="black" stroke-width="1" fill="blue" opacity="1" tooltip="enable"><title>(0.097223,0)</title></rect><rect x="492" y="200" width="6" height="0" stroke="black" stroke-width="1" fill="blue" opacity="1" tooltip="enable"><title>(0.0984233,0)</title></rect><rect x="498" y="200" width="6" height="0" stroke="black" stroke-width="1" fill="blue" opacity="1" tooltip="enable"><title>(0.0996236,0)</title></rect><rect x="504" y="200" width="6" height="0" stroke="black" stroke-width="1" fill="blue" opacity="1" tooltip="enable"><title>(0.100824,0)</title></rect><rect x="510" y="200" width="6" height="0" stroke="black" stroke-width="1" fill="blue" opacity="1" tooltip="enable"><title>(0.102024,0)</title></rect><rect x="516" y="200" width="6" height="0" stroke="black" stroke-width="1" fill="blue" opacity="1" tooltip="enable"><title>(0.103224,0)</title></rect><rect x="522" y="200" width="6" height="0" stroke="black" stroke-width="1" fill="blue" opacity="1" tooltip="enable"><title>(0.104425,0)</title></rect><rect x="528" y="199.43" width="6" height="0.569801" stroke="black" stroke-width="1" fill="blue" opacity="1" tooltip="enable"><title>(0.105625,4)</title></rect><rect x="534" y="200" width="6" height="0" stroke="black" stroke-width="1" fill="blue" opacity="1" tooltip="enable"><title>(0.106825,0)</title></rect><rect x="540" y="200" width="6" height="0" stroke="black" stroke-width="1" fill="blue" opacity="1" tooltip="enable"><title>(0.108026,0)</title></rect><rect x="546" y="200" width="6" height="0" stroke="black" stroke-width="1" fill="blue" opacity="1" tooltip="enable"><title>(0.109226,0)</title></rect><rect x="552" y="200" width="6" height="0" stroke="black" stroke-width="1" fill="blue" opacity="1" tooltip="enable"><title>(0.110426,0)</title></rect><rect x="558" y="200" width="6" height="0" stroke="black" stroke-width="1" fill="blue" opacity="1" tooltip="enable"><title>(0.111626,0)</title></rect><rect x="564" y="200" width="6" height="0" stroke="black" stroke-width="1" fill="blue" opacity="1" tooltip="enable"><title>(0.112827,0)</title></rect><rect x="570" y="200" width="6" height="0" stroke="black" stroke-width="1" fill="blue" opacity="1" tooltip="enable"><title>(0.114027,0)</title></rect><rect x="576" y="200" width="6" height="0" stroke="black" stroke-width="1" fill="blue" opacity="1" tooltip="enable"><title>(0.115227,0)</title></rect><rect x="582" y="200" width="6" height="0" stroke="black" stroke-width="1" fill="blue" opacity="1" tooltip="enable"><title>(0.116428,0)</title></rect><rect x="588" y="200" width="6" height="0" stroke="black" stroke-width="1" fill="blue" opacity="1" tooltip="enable"><title>(0.117628,0)</title></rect><rect x="594" y="199.858" width="6" height="0.14245" stroke="black" stroke-width="1" fill="blue" opacity="1" tooltip="enable"><title>(0.118828,1)</title></rect><text x="30" y="240" font-size="20" fill="black">0</text>
<text x="600" y="240" font-size="20" fill="black">0.120028</text>
<polyline points="0,220,600,220" stroke="black" stroke-width="1" fill="none" opacity="1"/>
<text x="720" y="20" font-size="20" fill="black">1404</text>
<text x="720" y="200" font-size="20" fill="black">0</text>
<polyline points="660,0,660,200" stroke="black" stroke-width="1" fill="none" opacity="1"/>
</svg>