<?xml version="1.0" standalone="yes"?>
<!-- SVG graphic -->
<svg xmlns='http://www.w3.org/2000/svg' xmlns:xlink='http://www.w3.org/1999/xlink'
 version="1.1">
<rect x="0" y="0" width="6" height="200" stroke="black" stroke-width="1" fill="blue" opacity="1" tooltip="enable"><title>(0,4063)</title></rect><rect x="6" y="183.313" width="6" height="16.6872" stroke="black" stroke-width="1" fill="blue" opacity="1" tooltip="enable"><title>(0.00147561,339)</title></rect><rect x="12" y="189.367" width="6" height="10.6325" stroke="black" stroke-width="1" fill="blue" opacity="1" tooltip="enable"><title>(0.00295122,216)</title></rect><rect x="18" y="191.927" width="6" height="8.07285" stroke="black" stroke-width="1" fill="blue" opacity="1" tooltip="enable"><title>(0.00442682,164)</title></rect><rect x="24" y="191.829" width="6" height="8.1713" stroke="black" stroke-width="1" fill="blue" opacity="1" tooltip="enable"><title>(0.00590243,166)</title></rect><rect x="30" y="190.303" width="6" height="9.69727" stroke="black" stroke-width="1" fill="blue" opacity="1" tooltip="enable"><title>(0.00737804,197)</title></rect><rect x="36" y="191.878" width="6" height="8.12208" stroke="black" stroke-width="1" fill="blue" opacity="1" tooltip="enable"><title>(0.00885365,165)</title></rect><rect x="42" y="193.798" width="6" height="6.20231" stroke="black" stroke-width="1" fill="blue" opacity="1" tooltip="enable"><title>(0.0103293,126)</title></rect><rect x="48" y="192.912" width="6" height="7.08836" stroke="black" stroke-width="1" fill="blue" opacity="1" tooltip="enable"><title>(0.0118049,144)</title></rect><rect x="54" y="191.14" width="6" height="8.86045" stroke="black" stroke-width="1" fill="blue" opacity="1" tooltip="enable"><title>(0.0132805,180)</title></rect><rect x="60" y="192.715" width="6" height="7.28526" stroke="black" stroke-width="1" fill="blue" opacity="1" tooltip="enable"><title>(0.0147561,148)</title></rect><rect x="66" y="192.124" width="6" height="7.87595" stroke="black" stroke-width="1" fill="blue" opacity="1" tooltip="enable"><title>(0.0162317,160)</title></rect><rect x="72" y="193.65" width="6" height="6.34999" stroke="black" stroke-width="1" fill="blue" opacity="1" tooltip="enable"><title>(0.0177073,129)</title></rect><rect x="78" y="194.388" width="6" height="5.61162" stroke="black" stroke-width="1" fill="blue" opacity="1" tooltip="enable"><title>(0.0191829,114)</title></rect><rect x="84" y="193.404" width="6" height="6.59611" stroke="black" stroke-width="1" fill="blue" opacity="1" tooltip="enable"><title>(0.0206585,134)</title></rect><rect x="90" y="193.502" width="6" height="6.49766" stroke="black" stroke-width="1" fill="blue" opacity="1" tooltip="enable"><title>(0.0221341,132)</title></rect><rect x="96" y="194.438" width="6" height="5.56239" stroke="black" stroke-width="1" fill="blue" opacity="1" tooltip="enable"><title>(0.0236097,113)</title></rect><rect x="102" y="195.078" width="6" height="4.92247" stroke="black" stroke-width="1" fill="blue" opacity="1" tooltip="enable"><title>(0.0250853,100)</title></rect><rect x="108" y="195.274" width="6" height="4.72557" stroke="black" stroke-width="1" fill="blue" opacity="1" tooltip="enable"><title>(0.0265609,96)</title></rect><rect x="114" y="196.357" width="6" height="3.64263" stroke="black" stroke-width="1" fill="blue" opacity="1" tooltip="enable"><title>(0.0280366,74)</title></rect><rect x="120" y="195.274" width="6" height="4.72557" stroke="black" stroke-width="1" fill="blue" opacity="1" tooltip="enable"><title>(0.0295122,96)</title></rect><rect x="126" y="194.684" width="6" height="5.31627" stroke="black" stroke-width="1" fill="blue" opacity="1" tooltip="enable"><title>(0.0309878,108)</title></rect><rect x="132" y="197.243" width="6" height="2.75658" stroke="black" stroke-width="1" fill="blue" opacity="1" tooltip="enable"><title>(0.0324634,56)</title></rect><rect x="138" y="196.21" width="6" height="3.7903" stroke="black" stroke-width="1" fill="blue" opacity="1" tooltip="enable"><title>(0.033939,77)</title></rect><rect x="144" y="197.096" width="6" height="2.90426" stroke="black" stroke-width="1" fill="blue" opacity="1" tooltip="enable"><title>(0.0354146,59)</title></rect><rect x="150" y="197.342" width="6" height="2.65813" stroke="black" stroke-width="1" fill="blue" opacity="1" tooltip="enable"><title>(0.0368902,54)</title></rect><rect x="156" y="197.637" width="6" height="2.36279" stroke="black" stroke-width="1" fill="blue" opacity="1" tooltip="enable"><title>(0.0383658,48)</title></rect><rect x="162" y="198.72" width="6" height="1.27984" stroke="black" stroke-width="1" fill="blue" opacity="1" tooltip="enable"><title>(0.0398414,26)</title></rect><rect x="168" y="198.72" width="6" height="1.27984" stroke="black" stroke-width="1" fill="blue" opacity="1" tooltip="enable"><title>(0.041317,26)</title></rect><rect x="174" y="198.129" width="6" height="1.87054" stroke="black" stroke-width="1" fill="blue" opacity="1" tooltip="enable"><title>(0.0427926,38)</title></rect><rect x="180" y="198.425" width="6" height="1.57519" stroke="black" stroke-width="1" fill="blue" opacity="1" tooltip="enable"><title>(0.0442682,32)</title></rect><rect x="186" y="199.016" width="6" height="0.984494" stroke="black" stroke-width="1" fill="blue" opacity="1" tooltip="enable"><title>(0.0457438,20)</title></rect><rect x="192" y="199.212" width="6" height="0.787595" stroke="black" stroke-width="1" fill="blue" opacity="1" tooltip="enable"><title>(0.0472195,16)</title></rect><rect x="198" y="199.212" width="6" height="0.787595" stroke="black" stroke-width="1" fill="blue" opacity="1" tooltip="enable"><title>(0.0486951,16)</title></rect><rect x="204" y="199.114" width="6" height="0.886045" stroke="black" stroke-width="1" fill="blue" opacity="1" tooltip="enable"><title>(0.0501707,18)</title></rect><rect x="210" y="199.311" width="6" height="0.689146" stroke="black" stroke-width="1" fill="blue" opacity="1" tooltip="enable"><title>(0.0516463,14)</title></rect><rect x="216" y="198.523" width="6" height="1.47674" stroke="black" stroke-width="1" fill="blue" opacity="1" tooltip="enable"><title>(0.0531219,30)</title></rect><rect x="222" y="198.425" width="6" height="1.57519" stroke="black" stroke-width="1" fill="blue" opacity="1" tooltip="enable"><title>(0.0545975,32)</title></rect><rect x="228" y="199.409" width="6" height="0.590697" stroke="black" stroke-width="1" fill="blue" opacity="1" tooltip="enable"><title>(0.0560731,12)</title></rect><rect x="234" y="199.409" width="6" height="0.590697" stroke="black" stroke-width="1" fill="blue" opacity="1" tooltip="enable"><title>(0.0575487,12)</title></rect><rect x="240" y="199.311" width="6" height="0.689146" stroke="black" stroke-width="1" fill="blue" opacity="1" tooltip="enable"><title>(0.0590243,14)</title></rect><rect x="246" y="199.212" width="6" height="0.787595" stroke="black" stroke-width="1" fill="blue" opacity="1" tooltip="enable"><title>(0.0604999,16)</title></rect><rect x="252" y="198.868" width="6" height="1.13217" stroke="black" stroke-width="1" fill="blue" opacity="1" tooltip="enable"><title>(0.0619755,23)</title></rect><rect x="258" y="199.409" width="6" height="0.590697" stroke="black" stroke-width="1" fill="blue" opacity="1" tooltip="enable"><title>(0.0634511,12)</title></rect><rect x="264" y="199.36" width="6" height="0.639921" stroke="black" stroke-width="1" fill="blue" opacity="1" tooltip="enable"><title>(0.0649268,13)</title></rect><rect x="270" y="199.311" width="6" height="0.689146" stroke="black" stroke-width="1" fill="blue" opacity="1" tooltip="enable"><title>(0.0664024,14)</title></rect><rect x="276" y="199.212" width="6" height="0.787595" stroke="black" stroke-width="1" fill="blue" opacity="1" tooltip="enable"><title>(0.067878,16)</title></rect><rect x="282" y="199.508" width="6" height="0.492247" stroke="black" stroke-width="1" fill="blue" opacity="1" tooltip="enable"><title>(0.0693536,10)</title></rect><rect x="288" y="199.212" width="6" height="0.787595" stroke="black" stroke-width="1" fill="blue" opacity="1" tooltip="enable"><title>(0.0708292,16)</title></rect><rect x="294" y="199.902" width="6" height="0.0984494" stroke="black" stroke-width="1" fill="blue" opacity="1" tooltip="enable"><title>(0.0723048,2)</title></rect><rect x="300" y="199.705" width="6" height="0.295348" stroke="black" stroke-width="1" fill="blue" opacity="1" tooltip="enable"><title>(0.0737804,6)</title></rect><rect x="306" y="199.409" width="6" height="0.590697" stroke="black" stroke-width="1" fill="blue" opacity="1" tooltip="enable"><title>(0.075256,12)</title></rect><rect x="312" y="199.705" width="6" height="0.295348" stroke="black" stroke-width="1" fill="blue" opacity="1" tooltip="enable"><title>(0.0767316,6)</title></rect><rect x="318" y="199.606" width="6" height="0.393798" stroke="black" stroke-width="1" fill="blue" opacity="1" tooltip="enable"><title>(0.0782072,8)</title></rect><rect x="324" y="199.606" width="6" height="0.393798" stroke="black" stroke-width="1" fill="blue" opacity="1" tooltip="enable"><title>(0.0796828,8)</title></rect><rect x="330" y="199.606" width="6" height="0.393798" stroke="black" stroke-width="1" fill="blue" opacity="1" tooltip="enable"><title>(0.0811584,8)</title></rect><rect x="336" y="199.705" width="6" height="0.295348" stroke="black" stroke-width="1" fill="blue" opacity="1" tooltip="enable"><title>(0.0826341,6)</title></rect><rect x="342" y="199.705" width="6" height="0.295348" stroke="black" stroke-width="1" fill="blue" opacity="1" tooltip="enable"><title>(0.0841097,6)</title></rect><rect x="348" y="199.803" width="6" height="0.196899" stroke="black" stroke-width="1" fill="blue" opacity="1" tooltip="enable"><title>(0.0855853,4)</title></rect><rect x="354" y="200" width="6" height="0" stroke="black" stroke-width="1" fill="blue" opacity="1" tooltip="enable"><title>(0.0870609,0)</title></rect><rect x="360" y="200" width="6" height="0" stroke="black" stroke-width="1" fill="blue" opacity="1" tooltip="enable"><title>(0.0885365,0)</title></rect><rect x="366" y="200" width="6" height="0" stroke="black" stroke-width="1" fill="blue" opacity="1" tooltip="enable"><title>(0.0900121,0)</title></rect><rect x="372" y="199.902" width="6" height="0.0984494" stroke="black" stroke-width="1" fill="blue" opacity="1" tooltip="enable"><title>(0.0914877,2)</title></rect><rect x="378" y="200" width="6" height="0" stroke="black" stroke-width="1" fill="blue" opacity="1" tooltip="enable"><title>(0.0929633,0)</title></rect><rect x="384" y="199.902" width="6" height="0.0984494" stroke="black" stroke-width="1" fill="blue" opacity="1" tooltip="enable"><title>(0.0944389,2)</title></rect><rect x="390" y="200" width="6" height="0" stroke="black" stroke-width="1" fill="blue" opacity="1" tooltip="enable"><title>(0.0959145,0)</title></rect><rect x="396" y="199.902" width="6" height="0.0984494" stroke="black" stroke-width="1" fill="blue" opacity="1" tooltip="enable"><title>(0.0973901,2)</title></rect><rect x="402" y="199.902" width="6" height="0.0984494" stroke="black" stroke-width="1" fill="blue" opacity="1" tooltip="enable"><title>(0.0988657,2)</title></rect><rect x="408" y="199.852" width="6" height="0.147674" stroke="black" stroke-width="1" fill="blue" opacity="1" tooltip="enable"><title>(0.100341,3)</title></rect><rect x="414" y="199.852" width="6" height="0.147674" stroke="black" stroke-width="1" fill="blue" opacity="1" tooltip="enable"><title>(0.101817,3)</title></rect><rect x="420" y="200" width="6" height="0" stroke="black" stroke-width="1" fill="blue" opacity="1" tooltip="enable"><title>(0.103293,0)</title></rect><rect x="426" y="199.902" width="6" height="0.0984494" stroke="black" stroke-width="1" fill="blue" opacity="1" tooltip="enable"><title>(0.104768,2)</title></rect><rect x="432" y="200" width="6" height="0" stroke="black" stroke-width="1" fill="blue" opacity="1" tooltip="enable"><title>(0.106244,0)</title></rect><rect x="438" y="199.902" width="6" height="0.0984494" stroke="black" stroke-width="1" fill="blue" opacity="1" tooltip="enable"><title>(0.107719,2)</title></rect><rect x="444" y="200" width="6" height="0" stroke="black" stroke-width="1" fill="blue" opacity="1" tooltip="enable"><title>(0.109195,0)</title></rect><rect x="450" y="200" width="6" height="0" stroke="black" stroke-width="1" fill="blue" opacity="1" tooltip="enable"><title>(0.110671,0)</title></rect><rect x="456" y="199.902" width="6" height="0.0984494" stroke="black" stroke-width="1" fill="blue" opacity="1" tooltip="enable"><title>(0.112146,2)</title></rect><rect x="462" y="200" width="6" height="0" stroke="black" stroke-width="1" fill="blue" opacity="1" tooltip="enable"><title>(0.113622,0)</title></rect><rect x="468" y="199.803" width="6" height="0.196899" stroke="black" stroke-width="1" fill="blue" opacity="1" tooltip="enable"><title>(0.115097,4)</title></rect><rect x="474" y="199.902" width="6" height="0.0984494" stroke="black" stroke-width="1" fill="blue" opacity="1" tooltip="enable"><title>(0.116573,2)</title></rect><rect x="480" y="200" width="6" height="0" stroke="black" stroke-width="1" fill="blue" opacity="1" tooltip="enable"><title>(0.118049,0)</title></rect><rect x="486" y="200" width="6" height="0" stroke="black" stroke-width="1" fill="blue" opacity="1" tooltip="enable"><title>(0.119524,0)</title></rect><rect x="492" y="200" width="6" height="0" stroke="black" stroke-width="1" fill="blue" opacity="1" tooltip="enable"><title>(0.121,0)</title></rect><rect x="498" y="199.902" width="6" height="0.0984494" stroke="black" stroke-width="1" fill="blue" opacity="1" tooltip="enable"><title>(0.122475,2)</title></rect><rect x="504" y="200" width="6" height="0" stroke="black" stroke-width="1" fill="blue" opacity="1" tooltip="enable"><title>(0.123951,0)</title></rect><rect x="510" y="200" width="6" height="0" stroke="black" stroke-width="1" fill="blue" opacity="1" tooltip="enable"><title>(0.125427,0)</title></rect><rect x="516" y="200" width="6" height="0" stroke="black" stroke-width="1" fill="blue" opacity="1" tooltip="enable"><title>(0.126902,0)</title></rect><rect x="522" y="199.902" width="6" height="0.0984494" stroke="black" stroke-width="1" fill="blue" opacity="1" tooltip="enable"><title>(0.128378,2)</title></rect><rect x="528" y="199.951" width="6" height="0.0492247" stroke="black" stroke-width="1" fill="blue" opacity="1" tooltip="enable"><title>(0.129854,1)</title></rect><rect x="534" y="199.803" width="6" height="0.196899" stroke="black" stroke-width="1" fill="blue" opacity="1" tooltip="enable"><title>(0.131329,4)</title></rect><rect x="540" y="199.852" width="6" height="0.147674" stroke="black" stroke-width="1" fill="blue" opacity="1" tooltip="enable"><title>(0.132805,3)</title></rect><rect x="546" y="200" width="6" height="0" stroke="black" stroke-width="1" fill="blue" opacity="1" tooltip="enable"><title>(0.13428,0)</title></rect><rect x="552" y="199.902" width="6" height="0.0984494" stroke="black" stroke-width="1" fill="blue" opacity="1" tooltip="enable"><title>(0.135756,2)</title></rect><rect x="558" y="199.902" width="6" height="0.0984494" stroke="black" stroke-width="1" fill="blue" opacity="1" tooltip="enable"><title>(0.137232,2)</title></rect><rect x="564" y="199.902" width="6" height="0.0984494" stroke="black" stroke-width="1" fill="blue" opacity="1" tooltip="enable"><title>(0.138707,2)</title></rect><rect x="570" y="200" width="6" height="0" stroke="black" stroke-width="1" fill="blue" opacity="1" tooltip="enable"><title>(0.140183,0)</title></rect><rect x="576" y="200" width="6" height="0" stroke="black" stroke-width="1" fill="blue" opacity="1" tooltip="enable"><title>(0.141658,0)</title></rect><rect x="582" y="199.902" width="6" height="0.0984494" stroke="black" stroke-width="1" fill="blue" opacity="1" tooltip="enable"><title>(0.143134,2)</title></rect><rect x="588" y="199.902" width="6" height="0.0984494" stroke="black" stroke-width="1" fill="blue" opacity="1" tooltip="enable"><title>(0.14461,2)</title></rect><rect x="594" y="199.951" width="6" height="0.0492247" stroke="black" stroke-width="1" fill="blue" opacity="1" tooltip="enable"><title>(0.146085,1)</title></rect><text x="30" y="240" font-size="20" fill="black">0</text>
<text x="600" y="240" font-size="20" fill="black">0.147561</text>
<polyline points="0,220,600,220" stroke="black" stroke-width="1" fill="none" opacity="1"/>
<text x="720" y="20" font-size="20" fill="black">4063</text>
<text x="720" y="200" font-size="20" fill="black">0</text>
<polyline points="660,0,660,200" stroke="black" stroke-width="1" fill="none" opacity="1"/>
</svg>