<?xml version="1.0" standalone="yes"?>
<!-- SVG graphic -->
<svg xmlns='http://www.w3.org/2000/svg' xmlns:xlink='http://www.w3.org/1999/xlink'
 version="1.1">
<rect x="0" y="0" width="6" height="200" stroke="black" stroke-width="1" fill="blue" opacity="1" tooltip="enable"><title>(0,1981)</title></rect><rect x="6" y="61.5851" width="6" height="138.415" stroke="black" stroke-width="1" fill="blue" opacity="1" tooltip="enable"><title>(0.00138784,1371)</title></rect><rect x="12" y="134.478" width="6" height="65.5225" stroke="black" stroke-width="1" fill="blue" opacity="1" tooltip="enable"><title>(0.00277569,649)</title></rect><rect x="18" y="159.011" width="6" height="40.9894" stroke="black" stroke-width="1" fill="blue" opacity="1" tooltip="enable"><title>(0.00416353,406)</title></rect><rect x="24" y="175.669" width="6" height="24.3311" stroke="black" stroke-width="1" fill="blue" opacity="1" tooltip="enable"><title>(0.00555138,241)</title></rect><rect x="30" y="185.26" width="6" height="14.74" stroke="black" stroke-width="1" fill="blue" opacity="1" tooltip="enable"><title>(0.00693922,146)</title></rect><rect x="36" y="188.895" width="6" height="11.1055" stroke="black" stroke-width="1" fill="blue" opacity="1" tooltip="enable"><title>(0.00832707,110)</title></rect><rect x="42" y="184.048" width="6" height="15.9515" stroke="black" stroke-width="1" fill="blue" opacity="1" tooltip="enable"><title>(0.00971491,158)</title></rect><rect x="48" y="186.976" width="6" height="13.0237" stroke="black" stroke-width="1" fill="blue" opacity="1" tooltip="enable"><title>(0.0111028,129)</title></rect><rect x="54" y="186.471" width="6" height="13.5285" stroke="black" stroke-width="1" fill="blue" opacity="1" tooltip="enable"><title>(0.0124906,134)</title></rect><rect x="60" y="187.582" width="6" height="12.418" stroke="black" stroke-width="1" fill="blue" opacity="1" tooltip="enable"><title>(0.0138784,123)</title></rect><rect x="66" y="184.452" width="6" height="15.5477" stroke="black" stroke-width="1" fill="blue" opacity="1" tooltip="enable"><title>(0.0152663,154)</title></rect><rect x="72" y="183.847" width="6" height="16.1535" stroke="black" stroke-width="1" fill="blue" opacity="1" tooltip="enable"><title>(0.0166541,160)</title></rect><rect x="78" y="187.178" width="6" height="12.8218" stroke="black" stroke-width="1" fill="blue" opacity="1" tooltip="enable"><title>(0.018042,127)</title></rect><rect x="84" y="188.794" width="6" height="11.2065" stroke="black" stroke-width="1" fill="blue" opacity="1" tooltip="enable"><title>(0.0194298,111)</title></rect><rect x="90" y="187.683" width="6" height="12.317" stroke="black" stroke-width="1" fill="blue" opacity="1" tooltip="enable"><title>(0.0208177,122)</title></rect><rect x="96" y="188.592" width="6" height="11.4084" stroke="black" stroke-width="1" fill="blue" opacity="1" tooltip="enable"><title>(0.0222055,113)</title></rect><rect x="102" y="187.178" width="6" height="12.8218" stroke="black" stroke-width="1" fill="blue" opacity="1" tooltip="enable"><title>(0.0235934,127)</title></rect><rect x="108" y="192.428" width="6" height="7.57193" stroke="black" stroke-width="1" fill="blue" opacity="1" tooltip="enable"><title>(0.0249812,75)</title></rect><rect x="114" y="191.822" width="6" height="8.17769" stroke="black" stroke-width="1" fill="blue" opacity="1" tooltip="enable"><title>(0.026369,81)</title></rect><rect x="120" y="191.519" width="6" height="8.48057" stroke="black" stroke-width="1" fill="blue" opacity="1" tooltip="enable"><title>(0.0277569,84)</title></rect><rect x="126" y="192.125" width="6" height="7.87481" stroke="black" stroke-width="1" fill="blue" opacity="1" tooltip="enable"><title>(0.0291447,78)</title></rect><rect x="132" y="191.721" width="6" height="8.27865" stroke="black" stroke-width="1" fill="blue" opacity="1" tooltip="enable"><title>(0.0305326,82)</title></rect><rect x="138" y="193.64" width="6" height="6.36042" stroke="black" stroke-width="1" fill="blue" opacity="1" tooltip="enable"><title>(0.0319204,63)</title></rect><rect x="144" y="191.217" width="6" height="8.78344" stroke="black" stroke-width="1" fill="blue" opacity="1" tooltip="enable"><title>(0.0333083,87)</title></rect><rect x="150" y="190.813" width="6" height="9.18728" stroke="black" stroke-width="1" fill="blue" opacity="1" tooltip="enable"><title>(0.0346961,91)</title></rect><rect x="156" y="193.64" width="6" height="6.36042" stroke="black" stroke-width="1" fill="blue" opacity="1" tooltip="enable"><title>(0.0360839,63)</title></rect><rect x="162" y="192.933" width="6" height="7.06714" stroke="black" stroke-width="1" fill="blue" opacity="1" tooltip="enable"><title>(0.0374718,70)</title></rect><rect x="168" y="196.769" width="6" height="3.23069" stroke="black" stroke-width="1" fill="blue" opacity="1" tooltip="enable"><title>(0.0388596,32)</title></rect><rect x="174" y="194.144" width="6" height="5.85563" stroke="black" stroke-width="1" fill="blue" opacity="1" tooltip="enable"><title>(0.0402475,58)</title></rect><rect x="180" y="195.255" width="6" height="4.74508" stroke="black" stroke-width="1" fill="blue" opacity="1" tooltip="enable"><title>(0.0416353,47)</title></rect><rect x="186" y="196.265" width="6" height="3.73549" stroke="black" stroke-width="1" fill="blue" opacity="1" tooltip="enable"><title>(0.0430232,37)</title></rect><rect x="192" y="196.567" width="6" height="3.43261" stroke="black" stroke-width="1" fill="blue" opacity="1" tooltip="enable"><title>(0.044411,34)</title></rect><rect x="198" y="195.356" width="6" height="4.64412" stroke="black" stroke-width="1" fill="blue" opacity="1" tooltip="enable"><title>(0.0457989,46)</title></rect><rect x="204" y="195.558" width="6" height="4.4422" stroke="black" stroke-width="1" fill="blue" opacity="1" tooltip="enable"><title>(0.0471867,44)</title></rect><rect x="210" y="195.76" width="6" height="4.24028" stroke="black" stroke-width="1" fill="blue" opacity="1" tooltip="enable"><title>(0.0485745,42)</title></rect><rect x="216" y="196.567" width="6" height="3.43261" stroke="black" stroke-width="1" fill="blue" opacity="1" tooltip="enable"><title>(0.0499624,34)</title></rect><rect x="222" y="197.88" width="6" height="2.12014" stroke="black" stroke-width="1" fill="blue" opacity="1" tooltip="enable"><title>(0.0513502,21)</title></rect><rect x="228" y="196.668" width="6" height="3.33165" stroke="black" stroke-width="1" fill="blue" opacity="1" tooltip="enable"><title>(0.0527381,33)</title></rect><rect x="234" y="196.164" width="6" height="3.83645" stroke="black" stroke-width="1" fill="blue" opacity="1" tooltip="enable"><title>(0.0541259,38)</title></rect><rect x="240" y="196.365" width="6" height="3.63453" stroke="black" stroke-width="1" fill="blue" opacity="1" tooltip="enable"><title>(0.0555138,36)</title></rect><rect x="246" y="196.971" width="6" height="3.02877" stroke="black" stroke-width="1" fill="blue" opacity="1" tooltip="enable"><title>(0.0569016,30)</title></rect><rect x="252" y="198.284" width="6" height="1.7163" stroke="black" stroke-width="1" fill="blue" opacity="1" tooltip="enable"><title>(0.0582895,17)</title></rect><rect x="258" y="197.274" width="6" height="2.7259" stroke="black" stroke-width="1" fill="blue" opacity="1" tooltip="enable"><title>(0.0596773,27)</title></rect><rect x="264" y="197.779" width="6" height="2.2211" stroke="black" stroke-width="1" fill="blue" opacity="1" tooltip="enable"><title>(0.0610651,22)</title></rect><rect x="270" y="197.779" width="6" height="2.2211" stroke="black" stroke-width="1" fill="blue" opacity="1" tooltip="enable"><title>(0.062453,22)</title></rect><rect x="276" y="198.183" width="6" height="1.81726" stroke="black" stroke-width="1" fill="blue" opacity="1" tooltip="enable"><title>(0.0638408,18)</title></rect><rect x="282" y="197.577" width="6" height="2.42302" stroke="black" stroke-width="1" fill="blue" opacity="1" tooltip="enable"><title>(0.0652287,24)</title></rect><rect x="288" y="199.192" width="6" height="0.807673" stroke="black" stroke-width="1" fill="blue" opacity="1" tooltip="enable"><title>(0.0666165,8)</title></rect><rect x="294" y="196.971" width="6" height="3.02877" stroke="black" stroke-width="1" fill="blue" opacity="1" tooltip="enable"><title>(0.0680044,30)</title></rect><rect x="300" y="198.183" width="6" height="1.81726" stroke="black" stroke-width="1" fill="blue" opacity="1" tooltip="enable"><title>(0.0693922,18)</title></rect><rect x="306" y="198.788" width="6" height="1.21151" stroke="black" stroke-width="1" fill="blue" opacity="1" tooltip="enable"><title>(0.0707801,12)</title></rect><rect x="312" y="199.394" width="6" height="0.605755" stroke="black" stroke-width="1" fill="blue" opacity="1" tooltip="enable"><title>(0.0721679,6)</title></rect><rect x="318" y="199.192" width="6" height="0.807673" stroke="black" stroke-width="1" fill="blue" opacity="1" tooltip="enable"><title>(0.0735557,8)</title></rect><rect x="324" y="198.889" width="6" height="1.11055" stroke="black" stroke-width="1" fill="blue" opacity="1" tooltip="enable"><title>(0.0749436,11)</title></rect><rect x="330" y="199.091" width="6" height="0.908632" stroke="black" stroke-width="1" fill="blue" opacity="1" tooltip="enable"><title>(0.0763314,9)</title></rect><rect x="336" y="197.779" width="6" height="2.2211" stroke="black" stroke-width="1" fill="blue" opacity="1" tooltip="enable"><title>(0.0777193,22)</title></rect><rect x="342" y="198.385" width="6" height="1.61535" stroke="black" stroke-width="1" fill="blue" opacity="1" tooltip="enable"><title>(0.0791071,16)</title></rect><rect x="348" y="199.596" width="6" height="0.403836" stroke="black" stroke-width="1" fill="blue" opacity="1" tooltip="enable"><title>(0.080495,4)</title></rect><rect x="354" y="199.596" width="6" height="0.403836" stroke="black" stroke-width="1" fill="blue" opacity="1" tooltip="enable"><title>(0.0818828,4)</title></rect><rect x="360" y="198.889" width="6" height="1.11055" stroke="black" stroke-width="1" fill="blue" opacity="1" tooltip="enable"><title>(0.0832707,11)</title></rect><rect x="366" y="199.697" width="6" height="0.302877" stroke="black" stroke-width="1" fill="blue" opacity="1" tooltip="enable"><title>(0.0846585,3)</title></rect><rect x="372" y="198.99" width="6" height="1.00959" stroke="black" stroke-width="1" fill="blue" opacity="1" tooltip="enable"><title>(0.0860463,10)</title></rect><rect x="378" y="199.596" width="6" height="0.403836" stroke="black" stroke-width="1" fill="blue" opacity="1" tooltip="enable"><title>(0.0874342,4)</title></rect><rect x="384" y="199.394" width="6" height="0.605755" stroke="black" stroke-width="1" fill="blue" opacity="1" tooltip="enable"><title>(0.088822,6)</title></rect><rect x="390" y="200" width="6" height="0" stroke="black" stroke-width="1" fill="blue" opacity="1" tooltip="enable"><title>(0.0902099,0)</title></rect><rect x="396" y="200" width="6" height="0" stroke="black" stroke-width="1" fill="blue" opacity="1" tooltip="enable"><title>(0.0915977,0)</title></rect><rect x="402" y="200" width="6" height="0" stroke="black" stroke-width="1" fill="blue" opacity="1" tooltip="enable"><title>(0.0929856,0)</title></rect><rect x="408" y="200" width="6" height="0" stroke="black" stroke-width="1" fill="blue" opacity="1" tooltip="enable"><title>(0.0943734,0)</title></rect><rect x="414" y="199.798" width="6" height="0.201918" stroke="black" stroke-width="1" fill="blue" opacity="1" tooltip="enable"><title>(0.0957613,2)</title></rect><rect x="420" y="200" width="6" height="0" stroke="black" stroke-width="1" fill="blue" opacity="1" tooltip="enable"><title>(0.0971491,0)</title></rect><rect x="426" y="200" width="6" height="0" stroke="black" stroke-width="1" fill="blue" opacity="1" tooltip="enable"><title>(0.0985369,0)</title></rect><rect x="432" y="200" width="6" height="0" stroke="black" stroke-width="1" fill="blue" opacity="1" tooltip="enable"><title>(0.0999248,0)</title></rect><rect x="438" y="199.596" width="6" height="0.403836" stroke="black" stroke-width="1" fill="blue" opacity="1" tooltip="enable"><title>(0.101313,4)</title></rect><rect x="444" y="200" width="6" height="0" stroke="black" stroke-width="1" fill="blue" opacity="1" tooltip="enable"><title>(0.1027,0)</title></rect><rect x="450" y="200" width="6" height="0" stroke="black" stroke-width="1" fill="blue" opacity="1" tooltip="enable"><title>(0.104088,0)</title></rect><rect x="456" y="200" width="6" height="0" stroke="black" stroke-width="1" fill="blue" opacity="1" tooltip="enable"><title>(0.105476,0)</title></rect><rect x="462" y="199.596" width="6" height="0.403836" stroke="black" stroke-width="1" fill="blue" opacity="1" tooltip="enable"><title>(0.106864,4)</title></rect><rect x="468" y="200" width="6" height="0" stroke="black" stroke-width="1" fill="blue" opacity="1" tooltip="enable"><title>(0.108252,0)</title></rect><rect x="474" y="200" width="6" height="0" stroke="black" stroke-width="1" fill="blue" opacity="1" tooltip="enable"><title>(0.10964,0)</title></rect><rect x="480" y="200" width="6" height="0" stroke="black" stroke-width="1" fill="blue" opacity="1" tooltip="enable"><title>(0.111028,0)</title></rect><rect x="486" y="200" width="6" height="0" stroke="black" stroke-width="1" fill="blue" opacity="1" tooltip="enable"><title>(0.112415,0)</title></rect><rect x="492" y="199.798" width="6" height="0.201918" stroke="black" stroke-width="1" fill="blue" opacity="1" tooltip="enable"><title>(0.113803,2)</title></rect><rect x="498" y="200" width="6" height="0" stroke="black" stroke-width="1" fill="blue" opacity="1" tooltip="enable"><title>(0.115191,0)</title></rect><rect x="504" y="200" width="6" height="0" stroke="black" stroke-width="1" fill="blue" opacity="1" tooltip="enable"><title>(0.116579,0)</title></rect><rect x="510" y="199.798" width="6" height="0.201918" stroke="black" stroke-width="1" fill="blue" opacity="1" tooltip="enable"><title>(0.117967,2)</title></rect><rect x="516" y="200" width="6" height="0" stroke="black" stroke-width="1" fill="blue" opacity="1" tooltip="enable"><title>(0.119355,0)</title></rect><rect x="522" y="200" width="6" height="0" stroke="black" stroke-width="1" fill="blue" opacity="1" tooltip="enable"><title>(0.120742,0)</title></rect><rect x="528" y="200" width="6" height="0" stroke="black" stroke-width="1" fill="blue" opacity="1" tooltip="enable"><title>(0.12213,0)</title></rect><rect x="534" y="200" width="6" height="0" stroke="black" stroke-width="1" fill="blue" opacity="1" tooltip="enable"><title>(0.123518,0)</title></rect><rect x="540" y="200" width="6" height="0" stroke="black" stroke-width="1" fill="blue" opacity="1" tooltip="enable"><title>(0.124906,0)</title></rect><rect x="546" y="200" width="6" height="0" stroke="black" stroke-width="1" fill="blue" opacity="1" tooltip="enable"><title>(0.126294,0)</title></rect><rect x="552" y="200" width="6" height="0" stroke="black" stroke-width="1" fill="blue" opacity="1" tooltip="enable"><title>(0.127682,0)</title></rect><rect x="558" y="200" width="6" height="0" stroke="black" stroke-width="1" fill="blue" opacity="1" tooltip="enable"><title>(0.12907,0)</title></rect><rect x="564" y="200" width="6" height="0" stroke="black" stroke-width="1" fill="blue" opacity="1" tooltip="enable"><title>(0.130457,0)</title></rect><rect x="570" y="200" width="6" height="0" stroke="black" stroke-width="1" fill="blue" opacity="1" tooltip="enable"><title>(0.131845,0)</title></rect><rect x="576" y="199.798" width="6" height="0.201918" stroke="black" stroke-width="1" fill="blue" opacity="1" tooltip="enable"><title>(0.133233,2)</title></rect><rect x="582" y="199.798" width="6" height="0.201918" stroke="black" stroke-width="1" fill="blue" opacity="1" tooltip="enable"><title>(0.134621,2)</title></rect><rect x="588" y="200" width="6" height="0" stroke="black" stroke-width="1" fill="blue" opacity="1" tooltip="enable"><title>(0.136009,0)</title></rect><rect x="594" y="199.899" width="6" height="0.100959" stroke="black" stroke-width="1" fill="blue" opacity="1" tooltip="enable"><title>(0.137397,1)</title></rect><text x="30" y="240" font-size="20" fill="black">0</text>
<text x="600" y="240" font-size="20" fill="black">0.138784</text>
<polyline points="0,220,600,220" stroke="black" stroke-width="1" fill="none" opacity="1"/>
<text x="720" y="20" font-size="20" fill="black">1981</text>
<text x="720" y="200" font-size="20" fill="black">0</text>
<polyline points="660,0,660,200" stroke="black" stroke-width="1" fill="none" opacity="1"/>
</svg>