<?xml version="1.0" standalone="yes"?>
<!-- SVG graphic -->
<svg xmlns='http://www.w3.org/2000/svg' xmlns:xlink='http://www.w3.org/1999/xlink'
 version="1.1">
<rect x="0" y="0" width="6" height="200" stroke="black" stroke-width="1" fill="blue" opacity="1" tooltip="enable"><title>(0,2156)</title></rect><rect x="6" y="69.9443" width="6" height="130.056" stroke="black" stroke-width="1" fill="blue" opacity="1" tooltip="enable"><title>(0.000553166,1402)</title></rect><rect x="12" y="133.117" width="6" height="66.8831" stroke="black" stroke-width="1" fill="blue" opacity="1" tooltip="enable"><title>(0.00110633,721)</title></rect><rect x="18" y="183.21" width="6" height="16.7904" stroke="black" stroke-width="1" fill="blue" opacity="1" tooltip="enable"><title>(0.0016595,181)</title></rect><rect x="24" y="192.208" width="6" height="7.79221" stroke="black" stroke-width="1" fill="blue" opacity="1" tooltip="enable"><title>(0.00221266,84)</title></rect><rect x="30" y="189.239" width="6" height="10.7607" stroke="black" stroke-width="1" fill="blue" opacity="1" tooltip="enable"><title>(0.00276583,116)</title></rect><rect x="36" y="190.26" width="6" height="9.74026" stroke="black" stroke-width="1" fill="blue" opacity="1" tooltip="enable"><title>(0.00331899,105)</title></rect><rect x="42" y="192.672" width="6" height="7.32839" stroke="black" stroke-width="1" fill="blue" opacity="1" tooltip="enable"><title>(0.00387216,79)</title></rect><rect x="48" y="192.579" width="6" height="7.42115" stroke="black" stroke-width="1" fill="blue" opacity="1" tooltip="enable"><title>(0.00442533,80)</title></rect><rect x="54" y="192.393" width="6" height="7.60668" stroke="black" stroke-width="1" fill="blue" opacity="1" tooltip="enable"><title>(0.00497849,82)</title></rect><rect x="60" y="190.538" width="6" height="9.46197" stroke="black" stroke-width="1" fill="blue" opacity="1" tooltip="enable"><title>(0.00553166,102)</title></rect><rect x="66" y="191.095" width="6" height="8.90538" stroke="black" stroke-width="1" fill="blue" opacity="1" tooltip="enable"><title>(0.00608482,96)</title></rect><rect x="72" y="191.28" width="6" height="8.71985" stroke="black" stroke-width="1" fill="blue" opacity="1" tooltip="enable"><title>(0.00663799,94)</title></rect><rect x="78" y="191.187" width="6" height="8.81262" stroke="black" stroke-width="1" fill="blue" opacity="1" tooltip="enable"><title>(0.00719115,95)</title></rect><rect x="84" y="188.59" width="6" height="11.41" stroke="black" stroke-width="1" fill="blue" opacity="1" tooltip="enable"><title>(0.00774432,123)</title></rect><rect x="90" y="191.837" width="6" height="8.16327" stroke="black" stroke-width="1" fill="blue" opacity="1" tooltip="enable"><title>(0.00829749,88)</title></rect><rect x="96" y="191.93" width="6" height="8.0705" stroke="black" stroke-width="1" fill="blue" opacity="1" tooltip="enable"><title>(0.00885065,87)</title></rect><rect x="102" y="191.187" width="6" height="8.81262" stroke="black" stroke-width="1" fill="blue" opacity="1" tooltip="enable"><title>(0.00940382,95)</title></rect><rect x="108" y="191.837" width="6" height="8.16327" stroke="black" stroke-width="1" fill="blue" opacity="1" tooltip="enable"><title>(0.00995698,88)</title></rect><rect x="114" y="192.022" width="6" height="7.97774" stroke="black" stroke-width="1" fill="blue" opacity="1" tooltip="enable"><title>(0.0105101,86)</title></rect><rect x="120" y="190.724" width="6" height="9.27644" stroke="black" stroke-width="1" fill="blue" opacity="1" tooltip="enable"><title>(0.0110633,100)</title></rect><rect x="126" y="192.022" width="6" height="7.97774" stroke="black" stroke-width="1" fill="blue" opacity="1" tooltip="enable"><title>(0.0116165,86)</title></rect><rect x="132" y="189.981" width="6" height="10.0186" stroke="black" stroke-width="1" fill="blue" opacity="1" tooltip="enable"><title>(0.0121696,108)</title></rect><rect x="138" y="192.95" width="6" height="7.05009" stroke="black" stroke-width="1" fill="blue" opacity="1" tooltip="enable"><title>(0.0127228,76)</title></rect><rect x="144" y="192.301" width="6" height="7.69944" stroke="black" stroke-width="1" fill="blue" opacity="1" tooltip="enable"><title>(0.013276,83)</title></rect><rect x="150" y="192.857" width="6" height="7.14286" stroke="black" stroke-width="1" fill="blue" opacity="1" tooltip="enable"><title>(0.0138291,77)</title></rect><rect x="156" y="193.135" width="6" height="6.86456" stroke="black" stroke-width="1" fill="blue" opacity="1" tooltip="enable"><title>(0.0143823,74)</title></rect><rect x="162" y="193.692" width="6" height="6.30798" stroke="black" stroke-width="1" fill="blue" opacity="1" tooltip="enable"><title>(0.0149355,68)</title></rect><rect x="168" y="194.62" width="6" height="5.38033" stroke="black" stroke-width="1" fill="blue" opacity="1" tooltip="enable"><title>(0.0154886,58)</title></rect><rect x="174" y="195.826" width="6" height="4.1744" stroke="black" stroke-width="1" fill="blue" opacity="1" tooltip="enable"><title>(0.0160418,45)</title></rect><rect x="180" y="193.599" width="6" height="6.40074" stroke="black" stroke-width="1" fill="blue" opacity="1" tooltip="enable"><title>(0.016595,69)</title></rect><rect x="186" y="194.991" width="6" height="5.00928" stroke="black" stroke-width="1" fill="blue" opacity="1" tooltip="enable"><title>(0.0171481,54)</title></rect><rect x="192" y="194.898" width="6" height="5.10204" stroke="black" stroke-width="1" fill="blue" opacity="1" tooltip="enable"><title>(0.0177013,55)</title></rect><rect x="198" y="194.62" width="6" height="5.38033" stroke="black" stroke-width="1" fill="blue" opacity="1" tooltip="enable"><title>(0.0182545,58)</title></rect><rect x="204" y="196.197" width="6" height="3.80334" stroke="black" stroke-width="1" fill="blue" opacity="1" tooltip="enable"><title>(0.0188076,41)</title></rect><rect x="210" y="194.063" width="6" height="5.93692" stroke="black" stroke-width="1" fill="blue" opacity="1" tooltip="enable"><title>(0.0193608,64)</title></rect><rect x="216" y="194.898" width="6" height="5.10204" stroke="black" stroke-width="1" fill="blue" opacity="1" tooltip="enable"><title>(0.019914,55)</title></rect><rect x="222" y="195.826" width="6" height="4.1744" stroke="black" stroke-width="1" fill="blue" opacity="1" tooltip="enable"><title>(0.0204671,45)</title></rect><rect x="228" y="193.97" width="6" height="6.02968" stroke="black" stroke-width="1" fill="blue" opacity="1" tooltip="enable"><title>(0.0210203,65)</title></rect><rect x="234" y="194.341" width="6" height="5.65863" stroke="black" stroke-width="1" fill="blue" opacity="1" tooltip="enable"><title>(0.0215735,61)</title></rect><rect x="240" y="197.774" width="6" height="2.22635" stroke="black" stroke-width="1" fill="blue" opacity="1" tooltip="enable"><title>(0.0221266,24)</title></rect><rect x="246" y="196.568" width="6" height="3.43228" stroke="black" stroke-width="1" fill="blue" opacity="1" tooltip="enable"><title>(0.0226798,37)</title></rect><rect x="252" y="196.197" width="6" height="3.80334" stroke="black" stroke-width="1" fill="blue" opacity="1" tooltip="enable"><title>(0.023233,41)</title></rect><rect x="258" y="197.774" width="6" height="2.22635" stroke="black" stroke-width="1" fill="blue" opacity="1" tooltip="enable"><title>(0.0237861,24)</title></rect><rect x="264" y="194.62" width="6" height="5.38033" stroke="black" stroke-width="1" fill="blue" opacity="1" tooltip="enable"><title>(0.0243393,58)</title></rect><rect x="270" y="197.217" width="6" height="2.78293" stroke="black" stroke-width="1" fill="blue" opacity="1" tooltip="enable"><title>(0.0248925,30)</title></rect><rect x="276" y="196.846" width="6" height="3.15399" stroke="black" stroke-width="1" fill="blue" opacity="1" tooltip="enable"><title>(0.0254456,34)</title></rect><rect x="282" y="194.991" width="6" height="5.00928" stroke="black" stroke-width="1" fill="blue" opacity="1" tooltip="enable"><title>(0.0259988,54)</title></rect><rect x="288" y="197.774" width="6" height="2.22635" stroke="black" stroke-width="1" fill="blue" opacity="1" tooltip="enable"><title>(0.026552,24)</title></rect><rect x="294" y="198.33" width="6" height="1.66976" stroke="black" stroke-width="1" fill="blue" opacity="1" tooltip="enable"><title>(0.0271051,18)</title></rect><rect x="300" y="196.66" width="6" height="3.33952" stroke="black" stroke-width="1" fill="blue" opacity="1" tooltip="enable"><title>(0.0276583,36)</title></rect><rect x="306" y="197.403" width="6" height="2.5974" stroke="black" stroke-width="1" fill="blue" opacity="1" tooltip="enable"><title>(0.0282114,28)</title></rect><rect x="312" y="197.866" width="6" height="2.13358" stroke="black" stroke-width="1" fill="blue" opacity="1" tooltip="enable"><title>(0.0287646,23)</title></rect><rect x="318" y="197.31" width="6" height="2.69017" stroke="black" stroke-width="1" fill="blue" opacity="1" tooltip="enable"><title>(0.0293178,29)</title></rect><rect x="324" y="197.217" width="6" height="2.78293" stroke="black" stroke-width="1" fill="blue" opacity="1" tooltip="enable"><title>(0.0298709,30)</title></rect><rect x="330" y="198.701" width="6" height="1.2987" stroke="black" stroke-width="1" fill="blue" opacity="1" tooltip="enable"><title>(0.0304241,14)</title></rect><rect x="336" y="198.145" width="6" height="1.85529" stroke="black" stroke-width="1" fill="blue" opacity="1" tooltip="enable"><title>(0.0309773,20)</title></rect><rect x="342" y="197.588" width="6" height="2.41187" stroke="black" stroke-width="1" fill="blue" opacity="1" tooltip="enable"><title>(0.0315304,26)</title></rect><rect x="348" y="198.701" width="6" height="1.2987" stroke="black" stroke-width="1" fill="blue" opacity="1" tooltip="enable"><title>(0.0320836,14)</title></rect><rect x="354" y="198.33" width="6" height="1.66976" stroke="black" stroke-width="1" fill="blue" opacity="1" tooltip="enable"><title>(0.0326368,18)</title></rect><rect x="360" y="199.072" width="6" height="0.927644" stroke="black" stroke-width="1" fill="blue" opacity="1" tooltip="enable"><title>(0.0331899,10)</title></rect><rect x="366" y="198.887" width="6" height="1.11317" stroke="black" stroke-width="1" fill="blue" opacity="1" tooltip="enable"><title>(0.0337431,12)</title></rect><rect x="372" y="199.258" width="6" height="0.742115" stroke="black" stroke-width="1" fill="blue" opacity="1" tooltip="enable"><title>(0.0342963,8)</title></rect><rect x="378" y="198.423" width="6" height="1.57699" stroke="black" stroke-width="1" fill="blue" opacity="1" tooltip="enable"><title>(0.0348494,17)</title></rect><rect x="384" y="199.165" width="6" height="0.834879" stroke="black" stroke-width="1" fill="blue" opacity="1" tooltip="enable"><title>(0.0354026,9)</title></rect><rect x="390" y="199.351" width="6" height="0.649351" stroke="black" stroke-width="1" fill="blue" opacity="1" tooltip="enable"><title>(0.0359558,7)</title></rect><rect x="396" y="199.165" width="6" height="0.834879" stroke="black" stroke-width="1" fill="blue" opacity="1" tooltip="enable"><title>(0.0365089,9)</title></rect><rect x="402" y="199.258" width="6" height="0.742115" stroke="black" stroke-width="1" fill="blue" opacity="1" tooltip="enable"><title>(0.0370621,8)</title></rect><rect x="408" y="199.814" width="6" height="0.185529" stroke="black" stroke-width="1" fill="blue" opacity="1" tooltip="enable"><title>(0.0376153,2)</title></rect><rect x="414" y="199.258" width="6" height="0.742115" stroke="black" stroke-width="1" fill="blue" opacity="1" tooltip="enable"><title>(0.0381684,8)</title></rect><rect x="420" y="200" width="6" height="0" stroke="black" stroke-width="1" fill="blue" opacity="1" tooltip="enable"><title>(0.0387216,0)</title></rect><rect x="426" y="199.814" width="6" height="0.185529" stroke="black" stroke-width="1" fill="blue" opacity="1" tooltip="enable"><title>(0.0392748,2)</title></rect><rect x="432" y="199.814" width="6" height="0.185529" stroke="black" stroke-width="1" fill="blue" opacity="1" tooltip="enable"><title>(0.0398279,2)</title></rect><rect x="438" y="199.814" width="6" height="0.185529" stroke="black" stroke-width="1" fill="blue" opacity="1" tooltip="enable"><title>(0.0403811,2)</title></rect><rect x="444" y="199.814" width="6" height="0.185529" stroke="black" stroke-width="1" fill="blue" opacity="1" tooltip="enable"><title>(0.0409343,2)</title></rect><rect x="450" y="199.629" width="6" height="0.371058" stroke="black" stroke-width="1" fill="blue" opacity="1" tooltip="enable"><title>(0.0414874,4)</title></rect><rect x="456" y="200" width="6" height="0" stroke="black" stroke-width="1" fill="blue" opacity="1" tooltip="enable"><title>(0.0420406,0)</title></rect><rect x="462" y="199.907" width="6" height="0.0927644" stroke="black" stroke-width="1" fill="blue" opacity="1" tooltip="enable"><title>(0.0425938,1)</title></rect><rect x="468" y="199.907" width="6" height="0.0927644" stroke="black" stroke-width="1" fill="blue" opacity="1" tooltip="enable"><title>(0.0431469,1)</title></rect><rect x="474" y="200" width="6" height="0" stroke="black" stroke-width="1" fill="blue" opacity="1" tooltip="enable"><title>(0.0437001,0)</title></rect><rect x="480" y="200" width="6" height="0" stroke="black" stroke-width="1" fill="blue" opacity="1" tooltip="enable"><title>(0.0442533,0)</title></rect><rect x="486" y="199.814" width="6" height="0.185529" stroke="black" stroke-width="1" fill="blue" opacity="1" tooltip="enable"><title>(0.0448064,2)</title></rect><rect x="492" y="199.629" width="6" height="0.371058" stroke="black" stroke-width="1" fill="blue" opacity="1" tooltip="enable"><title>(0.0453596,4)</title></rect><rect x="498" y="200" width="6" height="0" stroke="black" stroke-width="1" fill="blue" opacity="1" tooltip="enable"><title>(0.0459128,0)</title></rect><rect x="504" y="200" width="6" height="0" stroke="black" stroke-width="1" fill="blue" opacity="1" tooltip="enable"><title>(0.0464659,0)</title></rect><rect x="510" y="200" width="6" height="0" stroke="black" stroke-width="1" fill="blue" opacity="1" tooltip="enable"><title>(0.0470191,0)</title></rect><rect x="516" y="200" width="6" height="0" stroke="black" stroke-width="1" fill="blue" opacity="1" tooltip="enable"><title>(0.0475722,0)</title></rect><rect x="522" y="199.814" width="6" height="0.185529" stroke="black" stroke-width="1" fill="blue" opacity="1" tooltip="enable"><title>(0.0481254,2)</title></rect><rect x="528" y="199.814" width="6" height="0.185529" stroke="black" stroke-width="1" fill="blue" opacity="1" tooltip="enable"><title>(0.0486786,2)</title></rect><rect x="534" y="200" width="6" height="0" stroke="black" stroke-width="1" fill="blue" opacity="1" tooltip="enable"><title>(0.0492317,0)</title></rect><rect x="540" y="200" width="6" height="0" stroke="black" stroke-width="1" fill="blue" opacity="1" tooltip="enable"><title>(0.0497849,0)</title></rect><rect x="546" y="200" width="6" height="0" stroke="black" stroke-width="1" fill="blue" opacity="1" tooltip="enable"><title>(0.0503381,0)</title></rect><rect x="552" y="200" width="6" height="0" stroke="black" stroke-width="1" fill="blue" opacity="1" tooltip="enable"><title>(0.0508912,0)</title></rect><rect x="558" y="200" width="6" height="0" stroke="black" stroke-width="1" fill="blue" opacity="1" tooltip="enable"><title>(0.0514444,0)</title></rect><rect x="564" y="200" width="6" height="0" stroke="black" stroke-width="1" fill="blue" opacity="1" tooltip="enable"><title>(0.0519976,0)</title></rect><rect x="570" y="200" width="6" height="0" stroke="black" stroke-width="1" fill="blue" opacity="1" tooltip="enable"><title>(0.0525507,0)</title></rect><rect x="576" y="200" width="6" height="0" stroke="black" stroke-width="1" fill="blue" opacity="1" tooltip="enable"><title>(0.0531039,0)</title></rect><rect x="582" y="200" width="6" height="0" stroke="black" stroke-width="1" fill="blue" opacity="1" tooltip="enable"><title>(0.0536571,0)</title></rect><rect x="588" y="200" width="6" height="0" stroke="black" stroke-width="1" fill="blue" opacity="1" tooltip="enable"><title>(0.0542102,0)</title></rect><rect x="594" y="199.907" width="6" height="0.0927644" stroke="black" stroke-width="1" fill="blue" opacity="1" tooltip="enable"><title>(0.0547634,1)</title></rect><text x="30" y="240" font-size="20" fill="black">0</text>
<text x="600" y="240" font-size="20" fill="black">0.0553166</text>
<polyline points="0,220,600,220" stroke="black" stroke-width="1" fill="none" opacity="1"/>
<text x="720" y="20" font-size="20" fill="black">2156</text>
<text x="720" y="200" font-size="20" fill="black">0</text>
<polyline points="660,0,660,200" stroke="black" stroke-width="1" fill="none" opacity="1"/>
</svg>