<?xml version="1.0" standalone="yes"?>
<!-- SVG graphic -->
<svg xmlns='http://www.w3.org/2000/svg' xmlns:xlink='http://www.w3.org/1999/xlink'
 version="1.1">
<rect x="0" y="0" width="6" height="200" stroke="black" stroke-width="1" fill="blue" opacity="1" tooltip="enable"><title>(0,1967)</title></rect><rect x="6" y="60.3965" width="6" height="139.603" stroke="black" stroke-width="1" fill="blue" opacity="1" tooltip="enable"><title>(0.00138801,1373)</title></rect><rect x="12" y="133.401" width="6" height="66.5989" stroke="black" stroke-width="1" fill="blue" opacity="1" tooltip="enable"><title>(0.00277603,655)</title></rect><rect x="18" y="158.007" width="6" height="41.9929" stroke="black" stroke-width="1" fill="blue" opacity="1" tooltip="enable"><title>(0.00416404,413)</title></rect><rect x="24" y="175.902" width="6" height="24.0976" stroke="black" stroke-width="1" fill="blue" opacity="1" tooltip="enable"><title>(0.00555205,237)</title></rect><rect x="30" y="185.053" width="6" height="14.9466" stroke="black" stroke-width="1" fill="blue" opacity="1" tooltip="enable"><title>(0.00694007,147)</title></rect><rect x="36" y="188.612" width="6" height="11.3879" stroke="black" stroke-width="1" fill="blue" opacity="1" tooltip="enable"><title>(0.00832808,112)</title></rect><rect x="42" y="183.935" width="6" height="16.0651" stroke="black" stroke-width="1" fill="blue" opacity="1" tooltip="enable"><title>(0.00971609,158)</title></rect><rect x="48" y="186.985" width="6" height="13.0147" stroke="black" stroke-width="1" fill="blue" opacity="1" tooltip="enable"><title>(0.0111041,128)</title></rect><rect x="54" y="186.375" width="6" height="13.6248" stroke="black" stroke-width="1" fill="blue" opacity="1" tooltip="enable"><title>(0.0124921,134)</title></rect><rect x="60" y="187.595" width="6" height="12.4047" stroke="black" stroke-width="1" fill="blue" opacity="1" tooltip="enable"><title>(0.0138801,122)</title></rect><rect x="66" y="184.037" width="6" height="15.9634" stroke="black" stroke-width="1" fill="blue" opacity="1" tooltip="enable"><title>(0.0152681,157)</title></rect><rect x="72" y="183.528" width="6" height="16.4718" stroke="black" stroke-width="1" fill="blue" opacity="1" tooltip="enable"><title>(0.0166562,162)</title></rect><rect x="78" y="187.29" width="6" height="12.7097" stroke="black" stroke-width="1" fill="blue" opacity="1" tooltip="enable"><title>(0.0180442,125)</title></rect><rect x="84" y="188.714" width="6" height="11.2862" stroke="black" stroke-width="1" fill="blue" opacity="1" tooltip="enable"><title>(0.0194322,111)</title></rect><rect x="90" y="187.595" width="6" height="12.4047" stroke="black" stroke-width="1" fill="blue" opacity="1" tooltip="enable"><title>(0.0208202,122)</title></rect><rect x="96" y="188.409" width="6" height="11.5913" stroke="black" stroke-width="1" fill="blue" opacity="1" tooltip="enable"><title>(0.0222082,114)</title></rect><rect x="102" y="187.29" width="6" height="12.7097" stroke="black" stroke-width="1" fill="blue" opacity="1" tooltip="enable"><title>(0.0235962,125)</title></rect><rect x="108" y="192.374" width="6" height="7.62583" stroke="black" stroke-width="1" fill="blue" opacity="1" tooltip="enable"><title>(0.0249842,75)</title></rect><rect x="114" y="191.357" width="6" height="8.6426" stroke="black" stroke-width="1" fill="blue" opacity="1" tooltip="enable"><title>(0.0263723,85)</title></rect><rect x="120" y="191.764" width="6" height="8.23589" stroke="black" stroke-width="1" fill="blue" opacity="1" tooltip="enable"><title>(0.0277603,81)</title></rect><rect x="126" y="192.171" width="6" height="7.82918" stroke="black" stroke-width="1" fill="blue" opacity="1" tooltip="enable"><title>(0.0291483,77)</title></rect><rect x="132" y="191.662" width="6" height="8.33757" stroke="black" stroke-width="1" fill="blue" opacity="1" tooltip="enable"><title>(0.0305363,82)</title></rect><rect x="138" y="193.493" width="6" height="6.50737" stroke="black" stroke-width="1" fill="blue" opacity="1" tooltip="enable"><title>(0.0319243,64)</title></rect><rect x="144" y="191.256" width="6" height="8.74428" stroke="black" stroke-width="1" fill="blue" opacity="1" tooltip="enable"><title>(0.0333123,86)</title></rect><rect x="150" y="190.646" width="6" height="9.35435" stroke="black" stroke-width="1" fill="blue" opacity="1" tooltip="enable"><title>(0.0347003,92)</title></rect><rect x="156" y="193.696" width="6" height="6.30402" stroke="black" stroke-width="1" fill="blue" opacity="1" tooltip="enable"><title>(0.0360883,62)</title></rect><rect x="162" y="192.984" width="6" height="7.01576" stroke="black" stroke-width="1" fill="blue" opacity="1" tooltip="enable"><title>(0.0374764,69)</title></rect><rect x="168" y="196.543" width="6" height="3.45704" stroke="black" stroke-width="1" fill="blue" opacity="1" tooltip="enable"><title>(0.0388644,34)</title></rect><rect x="174" y="194.204" width="6" height="5.79563" stroke="black" stroke-width="1" fill="blue" opacity="1" tooltip="enable"><title>(0.0402524,57)</title></rect><rect x="180" y="195.018" width="6" height="4.98221" stroke="black" stroke-width="1" fill="blue" opacity="1" tooltip="enable"><title>(0.0416404,49)</title></rect><rect x="186" y="196.441" width="6" height="3.55872" stroke="black" stroke-width="1" fill="blue" opacity="1" tooltip="enable"><title>(0.0430284,35)</title></rect><rect x="192" y="196.543" width="6" height="3.45704" stroke="black" stroke-width="1" fill="blue" opacity="1" tooltip="enable"><title>(0.0444164,34)</title></rect><rect x="198" y="195.323" width="6" height="4.67717" stroke="black" stroke-width="1" fill="blue" opacity="1" tooltip="enable"><title>(0.0458044,46)</title></rect><rect x="204" y="195.424" width="6" height="4.5755" stroke="black" stroke-width="1" fill="blue" opacity="1" tooltip="enable"><title>(0.0471925,45)</title></rect><rect x="210" y="195.831" width="6" height="4.16878" stroke="black" stroke-width="1" fill="blue" opacity="1" tooltip="enable"><title>(0.0485805,41)</title></rect><rect x="216" y="196.543" width="6" height="3.45704" stroke="black" stroke-width="1" fill="blue" opacity="1" tooltip="enable"><title>(0.0499685,34)</title></rect><rect x="222" y="197.865" width="6" height="2.13523" stroke="black" stroke-width="1" fill="blue" opacity="1" tooltip="enable"><title>(0.0513565,21)</title></rect><rect x="228" y="196.645" width="6" height="3.35536" stroke="black" stroke-width="1" fill="blue" opacity="1" tooltip="enable"><title>(0.0527445,33)</title></rect><rect x="234" y="196.136" width="6" height="3.86375" stroke="black" stroke-width="1" fill="blue" opacity="1" tooltip="enable"><title>(0.0541325,38)</title></rect><rect x="240" y="196.34" width="6" height="3.6604" stroke="black" stroke-width="1" fill="blue" opacity="1" tooltip="enable"><title>(0.0555205,36)</title></rect><rect x="246" y="196.95" width="6" height="3.05033" stroke="black" stroke-width="1" fill="blue" opacity="1" tooltip="enable"><title>(0.0569085,30)</title></rect><rect x="252" y="198.373" width="6" height="1.62684" stroke="black" stroke-width="1" fill="blue" opacity="1" tooltip="enable"><title>(0.0582966,16)</title></rect><rect x="258" y="197.153" width="6" height="2.84698" stroke="black" stroke-width="1" fill="blue" opacity="1" tooltip="enable"><title>(0.0596846,28)</title></rect><rect x="264" y="197.763" width="6" height="2.23691" stroke="black" stroke-width="1" fill="blue" opacity="1" tooltip="enable"><title>(0.0610726,22)</title></rect><rect x="270" y="197.763" width="6" height="2.23691" stroke="black" stroke-width="1" fill="blue" opacity="1" tooltip="enable"><title>(0.0624606,22)</title></rect><rect x="276" y="198.17" width="6" height="1.8302" stroke="black" stroke-width="1" fill="blue" opacity="1" tooltip="enable"><title>(0.0638486,18)</title></rect><rect x="282" y="197.56" width="6" height="2.44026" stroke="black" stroke-width="1" fill="blue" opacity="1" tooltip="enable"><title>(0.0652366,24)</title></rect><rect x="288" y="199.187" width="6" height="0.813421" stroke="black" stroke-width="1" fill="blue" opacity="1" tooltip="enable"><title>(0.0666246,8)</title></rect><rect x="294" y="196.95" width="6" height="3.05033" stroke="black" stroke-width="1" fill="blue" opacity="1" tooltip="enable"><title>(0.0680127,30)</title></rect><rect x="300" y="198.17" width="6" height="1.8302" stroke="black" stroke-width="1" fill="blue" opacity="1" tooltip="enable"><title>(0.0694007,18)</title></rect><rect x="306" y="198.78" width="6" height="1.22013" stroke="black" stroke-width="1" fill="blue" opacity="1" tooltip="enable"><title>(0.0707887,12)</title></rect><rect x="312" y="199.39" width="6" height="0.610066" stroke="black" stroke-width="1" fill="blue" opacity="1" tooltip="enable"><title>(0.0721767,6)</title></rect><rect x="318" y="199.187" width="6" height="0.813421" stroke="black" stroke-width="1" fill="blue" opacity="1" tooltip="enable"><title>(0.0735647,8)</title></rect><rect x="324" y="198.78" width="6" height="1.22013" stroke="black" stroke-width="1" fill="blue" opacity="1" tooltip="enable"><title>(0.0749527,12)</title></rect><rect x="330" y="199.187" width="6" height="0.813421" stroke="black" stroke-width="1" fill="blue" opacity="1" tooltip="enable"><title>(0.0763407,8)</title></rect><rect x="336" y="197.763" width="6" height="2.23691" stroke="black" stroke-width="1" fill="blue" opacity="1" tooltip="enable"><title>(0.0777287,22)</title></rect><rect x="342" y="198.373" width="6" height="1.62684" stroke="black" stroke-width="1" fill="blue" opacity="1" tooltip="enable"><title>(0.0791168,16)</title></rect><rect x="348" y="199.593" width="6" height="0.406711" stroke="black" stroke-width="1" fill="blue" opacity="1" tooltip="enable"><title>(0.0805048,4)</title></rect><rect x="354" y="199.593" width="6" height="0.406711" stroke="black" stroke-width="1" fill="blue" opacity="1" tooltip="enable"><title>(0.0818928,4)</title></rect><rect x="360" y="198.882" width="6" height="1.11845" stroke="black" stroke-width="1" fill="blue" opacity="1" tooltip="enable"><title>(0.0832808,11)</title></rect><rect x="366" y="199.695" width="6" height="0.305033" stroke="black" stroke-width="1" fill="blue" opacity="1" tooltip="enable"><title>(0.0846688,3)</title></rect><rect x="372" y="198.983" width="6" height="1.01678" stroke="black" stroke-width="1" fill="blue" opacity="1" tooltip="enable"><title>(0.0860568,10)</title></rect><rect x="378" y="199.593" width="6" height="0.406711" stroke="black" stroke-width="1" fill="blue" opacity="1" tooltip="enable"><title>(0.0874448,4)</title></rect><rect x="384" y="199.39" width="6" height="0.610066" stroke="black" stroke-width="1" fill="blue" opacity="1" tooltip="enable"><title>(0.0888329,6)</title></rect><rect x="390" y="200" width="6" height="0" stroke="black" stroke-width="1" fill="blue" opacity="1" tooltip="enable"><title>(0.0902209,0)</title></rect><rect x="396" y="200" width="6" height="0" stroke="black" stroke-width="1" fill="blue" opacity="1" tooltip="enable"><title>(0.0916089,0)</title></rect><rect x="402" y="200" width="6" height="0" stroke="black" stroke-width="1" fill="blue" opacity="1" tooltip="enable"><title>(0.0929969,0)</title></rect><rect x="408" y="200" width="6" height="0" stroke="black" stroke-width="1" fill="blue" opacity="1" tooltip="enable"><title>(0.0943849,0)</title></rect><rect x="414" y="199.797" width="6" height="0.203355" stroke="black" stroke-width="1" fill="blue" opacity="1" tooltip="enable"><title>(0.0957729,2)</title></rect><rect x="420" y="200" width="6" height="0" stroke="black" stroke-width="1" fill="blue" opacity="1" tooltip="enable"><title>(0.0971609,0)</title></rect><rect x="426" y="200" width="6" height="0" stroke="black" stroke-width="1" fill="blue" opacity="1" tooltip="enable"><title>(0.0985489,0)</title></rect><rect x="432" y="200" width="6" height="0" stroke="black" stroke-width="1" fill="blue" opacity="1" tooltip="enable"><title>(0.099937,0)</title></rect><rect x="438" y="199.593" width="6" height="0.406711" stroke="black" stroke-width="1" fill="blue" opacity="1" tooltip="enable"><title>(0.101325,4)</title></rect><rect x="444" y="200" width="6" height="0" stroke="black" stroke-width="1" fill="blue" opacity="1" tooltip="enable"><title>(0.102713,0)</title></rect><rect x="450" y="200" width="6" height="0" stroke="black" stroke-width="1" fill="blue" opacity="1" tooltip="enable"><title>(0.104101,0)</title></rect><rect x="456" y="200" width="6" height="0" stroke="black" stroke-width="1" fill="blue" opacity="1" tooltip="enable"><title>(0.105489,0)</title></rect><rect x="462" y="199.593" width="6" height="0.406711" stroke="black" stroke-width="1" fill="blue" opacity="1" tooltip="enable"><title>(0.106877,4)</title></rect><rect x="468" y="200" width="6" height="0" stroke="black" stroke-width="1" fill="blue" opacity="1" tooltip="enable"><title>(0.108265,0)</title></rect><rect x="474" y="200" width="6" height="0" stroke="black" stroke-width="1" fill="blue" opacity="1" tooltip="enable"><title>(0.109653,0)</title></rect><rect x="480" y="200" width="6" height="0" stroke="black" stroke-width="1" fill="blue" opacity="1" tooltip="enable"><title>(0.111041,0)</title></rect><rect x="486" y="200" width="6" height="0" stroke="black" stroke-width="1" fill="blue" opacity="1" tooltip="enable"><title>(0.112429,0)</title></rect><rect x="492" y="199.797" width="6" height="0.203355" stroke="black" stroke-width="1" fill="blue" opacity="1" tooltip="enable"><title>(0.113817,2)</title></rect><rect x="498" y="200" width="6" height="0" stroke="black" stroke-width="1" fill="blue" opacity="1" tooltip="enable"><title>(0.115205,0)</title></rect><rect x="504" y="200" width="6" height="0" stroke="black" stroke-width="1" fill="blue" opacity="1" tooltip="enable"><title>(0.116593,0)</title></rect><rect x="510" y="199.797" width="6" height="0.203355" stroke="black" stroke-width="1" fill="blue" opacity="1" tooltip="enable"><title>(0.117981,2)</title></rect><rect x="516" y="200" width="6" height="0" stroke="black" stroke-width="1" fill="blue" opacity="1" tooltip="enable"><title>(0.119369,0)</title></rect><rect x="522" y="200" width="6" height="0" stroke="black" stroke-width="1" fill="blue" opacity="1" tooltip="enable"><title>(0.120757,0)</title></rect><rect x="528" y="200" width="6" height="0" stroke="black" stroke-width="1" fill="blue" opacity="1" tooltip="enable"><title>(0.122145,0)</title></rect><rect x="534" y="200" width="6" height="0" stroke="black" stroke-width="1" fill="blue" opacity="1" tooltip="enable"><title>(0.123533,0)</title></rect><rect x="540" y="200" width="6" height="0" stroke="black" stroke-width="1" fill="blue" opacity="1" tooltip="enable"><title>(0.124921,0)</title></rect><rect x="546" y="200" width="6" height="0" stroke="black" stroke-width="1" fill="blue" opacity="1" tooltip="enable"><title>(0.126309,0)</title></rect><rect x="552" y="200" width="6" height="0" stroke="black" stroke-width="1" fill="blue" opacity="1" tooltip="enable"><title>(0.127697,0)</title></rect><rect x="558" y="200" width="6" height="0" stroke="black" stroke-width="1" fill="blue" opacity="1" tooltip="enable"><title>(0.129085,0)</title></rect><rect x="564" y="200" width="6" height="0" stroke="black" stroke-width="1" fill="blue" opacity="1" tooltip="enable"><title>(0.130473,0)</title></rect><rect x="570" y="200" width="6" height="0" stroke="black" stroke-width="1" fill="blue" opacity="1" tooltip="enable"><title>(0.131861,0)</title></rect><rect x="576" y="199.797" width="6" height="0.203355" stroke="black" stroke-width="1" fill="blue" opacity="1" tooltip="enable"><title>(0.133249,2)</title></rect><rect x="582" y="199.797" width="6" height="0.203355" stroke="black" stroke-width="1" fill="blue" opacity="1" tooltip="enable"><title>(0.134637,2)</title></rect><rect x="588" y="200" width="6" height="0" stroke="black" stroke-width="1" fill="blue" opacity="1" tooltip="enable"><title>(0.136025,0)</title></rect><rect x="594" y="199.898" width="6" height="0.101678" stroke="black" stroke-width="1" fill="blue" opacity="1" tooltip="enable"><title>(0.137413,1)</title></rect><text x="30" y="240" font-size="20" fill="black">0</text>
<text x="600" y="240" font-size="20" fill="black">0.138801</text>
<polyline points="0,220,600,220" stroke="black" stroke-width="1" fill="none" opacity="1"/>
<text x="720" y="20" font-size="20" fill="black">1967</text>
<text x="720" y="200" font-size="20" fill="black">0</text>
<polyline points="660,0,660,200" stroke="black" stroke-width="1" fill="none" opacity="1"/>
</svg>