<?xml version="1.0" standalone="yes"?>
<!-- SVG graphic -->
<svg xmlns='http://www.w3.org/2000/svg' xmlns:xlink='http://www.w3.org/1999/xlink'
 version="1.1">
<rect x="0" y="0" width="6" height="200" stroke="black" stroke-width="1" fill="blue" opacity="1" tooltip="enable"><title>(0,1953)</title></rect><rect x="6" y="31.4388" width="6" height="168.561" stroke="black" stroke-width="1" fill="blue" opacity="1" tooltip="enable"><title>(0.00166083,1646)</title></rect><rect x="12" y="121.147" width="6" height="78.8531" stroke="black" stroke-width="1" fill="blue" opacity="1" tooltip="enable"><title>(0.00332165,770)</title></rect><rect x="18" y="173.579" width="6" height="26.4209" stroke="black" stroke-width="1" fill="blue" opacity="1" tooltip="enable"><title>(0.00498248,258)</title></rect><rect x="24" y="181.874" width="6" height="18.126" stroke="black" stroke-width="1" fill="blue" opacity="1" tooltip="enable"><title>(0.00664331,177)</title></rect><rect x="30" y="182.693" width="6" height="17.3067" stroke="black" stroke-width="1" fill="blue" opacity="1" tooltip="enable"><title>(0.00830413,169)</title></rect><rect x="36" y="181.055" width="6" height="18.9452" stroke="black" stroke-width="1" fill="blue" opacity="1" tooltip="enable"><title>(0.00996496,185)</title></rect><rect x="42" y="183.205" width="6" height="16.7947" stroke="black" stroke-width="1" fill="blue" opacity="1" tooltip="enable"><title>(0.0116258,164)</title></rect><rect x="48" y="182.898" width="6" height="17.1019" stroke="black" stroke-width="1" fill="blue" opacity="1" tooltip="enable"><title>(0.0132866,167)</title></rect><rect x="54" y="180.952" width="6" height="19.0476" stroke="black" stroke-width="1" fill="blue" opacity="1" tooltip="enable"><title>(0.0149474,186)</title></rect><rect x="60" y="186.585" width="6" height="13.4153" stroke="black" stroke-width="1" fill="blue" opacity="1" tooltip="enable"><title>(0.0166083,131)</title></rect><rect x="66" y="180.543" width="6" height="19.4572" stroke="black" stroke-width="1" fill="blue" opacity="1" tooltip="enable"><title>(0.0182691,190)</title></rect><rect x="72" y="180.85" width="6" height="19.15" stroke="black" stroke-width="1" fill="blue" opacity="1" tooltip="enable"><title>(0.0199299,187)</title></rect><rect x="78" y="185.253" width="6" height="14.7465" stroke="black" stroke-width="1" fill="blue" opacity="1" tooltip="enable"><title>(0.0215907,144)</title></rect><rect x="84" y="184.741" width="6" height="15.2586" stroke="black" stroke-width="1" fill="blue" opacity="1" tooltip="enable"><title>(0.0232516,149)</title></rect><rect x="90" y="186.892" width="6" height="13.108" stroke="black" stroke-width="1" fill="blue" opacity="1" tooltip="enable"><title>(0.0249124,128)</title></rect><rect x="96" y="187.097" width="6" height="12.9032" stroke="black" stroke-width="1" fill="blue" opacity="1" tooltip="enable"><title>(0.0265732,126)</title></rect><rect x="102" y="187.814" width="6" height="12.1864" stroke="black" stroke-width="1" fill="blue" opacity="1" tooltip="enable"><title>(0.0282341,119)</title></rect><rect x="108" y="187.097" width="6" height="12.9032" stroke="black" stroke-width="1" fill="blue" opacity="1" tooltip="enable"><title>(0.0298949,126)</title></rect><rect x="114" y="185.151" width="6" height="14.849" stroke="black" stroke-width="1" fill="blue" opacity="1" tooltip="enable"><title>(0.0315557,145)</title></rect><rect x="120" y="190.783" width="6" height="9.21659" stroke="black" stroke-width="1" fill="blue" opacity="1" tooltip="enable"><title>(0.0332165,90)</title></rect><rect x="126" y="191.807" width="6" height="8.19252" stroke="black" stroke-width="1" fill="blue" opacity="1" tooltip="enable"><title>(0.0348774,80)</title></rect><rect x="132" y="190.374" width="6" height="9.62622" stroke="black" stroke-width="1" fill="blue" opacity="1" tooltip="enable"><title>(0.0365382,94)</title></rect><rect x="138" y="192.012" width="6" height="7.98771" stroke="black" stroke-width="1" fill="blue" opacity="1" tooltip="enable"><title>(0.038199,78)</title></rect><rect x="144" y="194.163" width="6" height="5.83717" stroke="black" stroke-width="1" fill="blue" opacity="1" tooltip="enable"><title>(0.0398598,57)</title></rect><rect x="150" y="194.982" width="6" height="5.01792" stroke="black" stroke-width="1" fill="blue" opacity="1" tooltip="enable"><title>(0.0415207,49)</title></rect><rect x="156" y="192.422" width="6" height="7.57808" stroke="black" stroke-width="1" fill="blue" opacity="1" tooltip="enable"><title>(0.0431815,74)</title></rect><rect x="162" y="194.572" width="6" height="5.42755" stroke="black" stroke-width="1" fill="blue" opacity="1" tooltip="enable"><title>(0.0448423,53)</title></rect><rect x="168" y="195.597" width="6" height="4.40348" stroke="black" stroke-width="1" fill="blue" opacity="1" tooltip="enable"><title>(0.0465031,43)</title></rect><rect x="174" y="195.289" width="6" height="4.7107" stroke="black" stroke-width="1" fill="blue" opacity="1" tooltip="enable"><title>(0.048164,46)</title></rect><rect x="180" y="197.03" width="6" height="2.96979" stroke="black" stroke-width="1" fill="blue" opacity="1" tooltip="enable"><title>(0.0498248,29)</title></rect><rect x="186" y="197.03" width="6" height="2.96979" stroke="black" stroke-width="1" fill="blue" opacity="1" tooltip="enable"><title>(0.0514856,29)</title></rect><rect x="192" y="197.747" width="6" height="2.25294" stroke="black" stroke-width="1" fill="blue" opacity="1" tooltip="enable"><title>(0.0531464,22)</title></rect><rect x="198" y="198.771" width="6" height="1.22888" stroke="black" stroke-width="1" fill="blue" opacity="1" tooltip="enable"><title>(0.0548073,12)</title></rect><rect x="204" y="197.952" width="6" height="2.04813" stroke="black" stroke-width="1" fill="blue" opacity="1" tooltip="enable"><title>(0.0564681,20)</title></rect><rect x="210" y="197.747" width="6" height="2.25294" stroke="black" stroke-width="1" fill="blue" opacity="1" tooltip="enable"><title>(0.0581289,22)</title></rect><rect x="216" y="199.181" width="6" height="0.819252" stroke="black" stroke-width="1" fill="blue" opacity="1" tooltip="enable"><title>(0.0597898,8)</title></rect><rect x="222" y="199.181" width="6" height="0.819252" stroke="black" stroke-width="1" fill="blue" opacity="1" tooltip="enable"><title>(0.0614506,8)</title></rect><rect x="228" y="199.59" width="6" height="0.409626" stroke="black" stroke-width="1" fill="blue" opacity="1" tooltip="enable"><title>(0.0631114,4)</title></rect><rect x="234" y="199.181" width="6" height="0.819252" stroke="black" stroke-width="1" fill="blue" opacity="1" tooltip="enable"><title>(0.0647722,8)</title></rect><rect x="240" y="199.795" width="6" height="0.204813" stroke="black" stroke-width="1" fill="blue" opacity="1" tooltip="enable"><title>(0.0664331,2)</title></rect><rect x="246" y="200" width="6" height="0" stroke="black" stroke-width="1" fill="blue" opacity="1" tooltip="enable"><title>(0.0680939,0)</title></rect><rect x="252" y="199.59" width="6" height="0.409626" stroke="black" stroke-width="1" fill="blue" opacity="1" tooltip="enable"><title>(0.0697547,4)</title></rect><rect x="258" y="200" width="6" height="0" stroke="black" stroke-width="1" fill="blue" opacity="1" tooltip="enable"><title>(0.0714155,0)</title></rect><rect x="264" y="199.181" width="6" height="0.819252" stroke="black" stroke-width="1" fill="blue" opacity="1" tooltip="enable"><title>(0.0730764,8)</title></rect><rect x="270" y="199.59" width="6" height="0.409626" stroke="black" stroke-width="1" fill="blue" opacity="1" tooltip="enable"><title>(0.0747372,4)</title></rect><rect x="276" y="199.59" width="6" height="0.409626" stroke="black" stroke-width="1" fill="blue" opacity="1" tooltip="enable"><title>(0.076398,4)</title></rect><rect x="282" y="199.795" width="6" height="0.204813" stroke="black" stroke-width="1" fill="blue" opacity="1" tooltip="enable"><title>(0.0780588,2)</title></rect><rect x="288" y="200" width="6" height="0" stroke="black" stroke-width="1" fill="blue" opacity="1" tooltip="enable"><title>(0.0797197,0)</title></rect><rect x="294" y="200" width="6" height="0" stroke="black" stroke-width="1" fill="blue" opacity="1" tooltip="enable"><title>(0.0813805,0)</title></rect><rect x="300" y="199.795" width="6" height="0.204813" stroke="black" stroke-width="1" fill="blue" opacity="1" tooltip="enable"><title>(0.0830413,2)</title></rect><rect x="306" y="199.795" width="6" height="0.204813" stroke="black" stroke-width="1" fill="blue" opacity="1" tooltip="enable"><title>(0.0847021,2)</title></rect><rect x="312" y="199.795" width="6" height="0.204813" stroke="black" stroke-width="1" fill="blue" opacity="1" tooltip="enable"><title>(0.086363,2)</title></rect><rect x="318" y="199.795" width="6" height="0.204813" stroke="black" stroke-width="1" fill="blue" opacity="1" tooltip="enable"><title>(0.0880238,2)</title></rect><rect x="324" y="199.795" width="6" height="0.204813" stroke="black" stroke-width="1" fill="blue" opacity="1" tooltip="enable"><title>(0.0896846,2)</title></rect><rect x="330" y="200" width="6" height="0" stroke="black" stroke-width="1" fill="blue" opacity="1" tooltip="enable"><title>(0.0913455,0)</title></rect><rect x="336" y="200" width="6" height="0" stroke="black" stroke-width="1" fill="blue" opacity="1" tooltip="enable"><title>(0.0930063,0)</title></rect><rect x="342" y="199.795" width="6" height="0.204813" stroke="black" stroke-width="1" fill="blue" opacity="1" tooltip="enable"><title>(0.0946671,2)</title></rect><rect x="348" y="200" width="6" height="0" stroke="black" stroke-width="1" fill="blue" opacity="1" tooltip="enable"><title>(0.0963279,0)</title></rect><rect x="354" y="200" width="6" height="0" stroke="black" stroke-width="1" fill="blue" opacity="1" tooltip="enable"><title>(0.0979888,0)</title></rect><rect x="360" y="199.386" width="6" height="0.614439" stroke="black" stroke-width="1" fill="blue" opacity="1" tooltip="enable"><title>(0.0996496,6)</title></rect><rect x="366" y="199.795" width="6" height="0.204813" stroke="black" stroke-width="1" fill="blue" opacity="1" tooltip="enable"><title>(0.10131,2)</title></rect><rect x="372" y="200" width="6" height="0" stroke="black" stroke-width="1" fill="blue" opacity="1" tooltip="enable"><title>(0.102971,0)</title></rect><rect x="378" y="200" width="6" height="0" stroke="black" stroke-width="1" fill="blue" opacity="1" tooltip="enable"><title>(0.104632,0)</title></rect><rect x="384" y="200" width="6" height="0" stroke="black" stroke-width="1" fill="blue" opacity="1" tooltip="enable"><title>(0.106293,0)</title></rect><rect x="390" y="200" width="6" height="0" stroke="black" stroke-width="1" fill="blue" opacity="1" tooltip="enable"><title>(0.107954,0)</title></rect><rect x="396" y="199.59" width="6" height="0.409626" stroke="black" stroke-width="1" fill="blue" opacity="1" tooltip="enable"><title>(0.109615,4)</title></rect><rect x="402" y="199.795" width="6" height="0.204813" stroke="black" stroke-width="1" fill="blue" opacity="1" tooltip="enable"><title>(0.111275,2)</title></rect><rect x="408" y="200" width="6" height="0" stroke="black" stroke-width="1" fill="blue" opacity="1" tooltip="enable"><title>(0.112936,0)</title></rect><rect x="414" y="200" width="6" height="0" stroke="black" stroke-width="1" fill="blue" opacity="1" tooltip="enable"><title>(0.114597,0)</title></rect><rect x="420" y="200" width="6" height="0" stroke="black" stroke-width="1" fill="blue" opacity="1" tooltip="enable"><title>(0.116258,0)</title></rect><rect x="426" y="200" width="6" height="0" stroke="black" stroke-width="1" fill="blue" opacity="1" tooltip="enable"><title>(0.117919,0)</title></rect><rect x="432" y="199.795" width="6" height="0.204813" stroke="black" stroke-width="1" fill="blue" opacity="1" tooltip="enable"><title>(0.11958,2)</title></rect><rect x="438" y="200" width="6" height="0" stroke="black" stroke-width="1" fill="blue" opacity="1" tooltip="enable"><title>(0.12124,0)</title></rect><rect x="444" y="200" width="6" height="0" stroke="black" stroke-width="1" fill="blue" opacity="1" tooltip="enable"><title>(0.122901,0)</title></rect><rect x="450" y="200" width="6" height="0" stroke="black" stroke-width="1" fill="blue" opacity="1" tooltip="enable"><title>(0.124562,0)</title></rect><rect x="456" y="200" width="6" height="0" stroke="black" stroke-width="1" fill="blue" opacity="1" tooltip="enable"><title>(0.126223,0)</title></rect><rect x="462" y="200" width="6" height="0" stroke="black" stroke-width="1" fill="blue" opacity="1" tooltip="enable"><title>(0.127884,0)</title></rect><rect x="468" y="200" width="6" height="0" stroke="black" stroke-width="1" fill="blue" opacity="1" tooltip="enable"><title>(0.129544,0)</title></rect><rect x="474" y="200" width="6" height="0" stroke="black" stroke-width="1" fill="blue" opacity="1" tooltip="enable"><title>(0.131205,0)</title></rect><rect x="480" y="200" width="6" height="0" stroke="black" stroke-width="1" fill="blue" opacity="1" tooltip="enable"><title>(0.132866,0)</title></rect><rect x="486" y="200" width="6" height="0" stroke="black" stroke-width="1" fill="blue" opacity="1" tooltip="enable"><title>(0.134527,0)</title></rect><rect x="492" y="200" width="6" height="0" stroke="black" stroke-width="1" fill="blue" opacity="1" tooltip="enable"><title>(0.136188,0)</title></rect><rect x="498" y="200" width="6" height="0" stroke="black" stroke-width="1" fill="blue" opacity="1" tooltip="enable"><title>(0.137849,0)</title></rect><rect x="504" y="200" width="6" height="0" stroke="black" stroke-width="1" fill="blue" opacity="1" tooltip="enable"><title>(0.139509,0)</title></rect><rect x="510" y="200" width="6" height="0" stroke="black" stroke-width="1" fill="blue" opacity="1" tooltip="enable"><title>(0.14117,0)</title></rect><rect x="516" y="200" width="6" height="0" stroke="black" stroke-width="1" fill="blue" opacity="1" tooltip="enable"><title>(0.142831,0)</title></rect><rect x="522" y="200" width="6" height="0" stroke="black" stroke-width="1" fill="blue" opacity="1" tooltip="enable"><title>(0.144492,0)</title></rect><rect x="528" y="200" width="6" height="0" stroke="black" stroke-width="1" fill="blue" opacity="1" tooltip="enable"><title>(0.146153,0)</title></rect><rect x="534" y="200" width="6" height="0" stroke="black" stroke-width="1" fill="blue" opacity="1" tooltip="enable"><title>(0.147814,0)</title></rect><rect x="540" y="200" width="6" height="0" stroke="black" stroke-width="1" fill="blue" opacity="1" tooltip="enable"><title>(0.149474,0)</title></rect><rect x="546" y="200" width="6" height="0" stroke="black" stroke-width="1" fill="blue" opacity="1" tooltip="enable"><title>(0.151135,0)</title></rect><rect x="552" y="200" width="6" height="0" stroke="black" stroke-width="1" fill="blue" opacity="1" tooltip="enable"><title>(0.152796,0)</title></rect><rect x="558" y="200" width="6" height="0" stroke="black" stroke-width="1" fill="blue" opacity="1" tooltip="enable"><title>(0.154457,0)</title></rect><rect x="564" y="200" width="6" height="0" stroke="black" stroke-width="1" fill="blue" opacity="1" tooltip="enable"><title>(0.156118,0)</title></rect><rect x="570" y="200" width="6" height="0" stroke="black" stroke-width="1" fill="blue" opacity="1" tooltip="enable"><title>(0.157779,0)</title></rect><rect x="576" y="200" width="6" height="0" stroke="black" stroke-width="1" fill="blue" opacity="1" tooltip="enable"><title>(0.159439,0)</title></rect><rect x="582" y="200" width="6" height="0" stroke="black" stroke-width="1" fill="blue" opacity="1" tooltip="enable"><title>(0.1611,0)</title></rect><rect x="588" y="200" width="6" height="0" stroke="black" stroke-width="1" fill="blue" opacity="1" tooltip="enable"><title>(0.162761,0)</title></rect><rect x="594" y="199.795" width="6" height="0.204813" stroke="black" stroke-width="1" fill="blue" opacity="1" tooltip="enable"><title>(0.164422,2)</title></rect><text x="30" y="240" font-size="20" fill="black">0</text>
<text x="600" y="240" font-size="20" fill="black">0.166083</text>
<polyline points="0,220,600,220" stroke="black" stroke-width="1" fill="none" opacity="1"/>
<text x="720" y="20" font-size="20" fill="black">1953</text>
<text x="720" y="200" font-size="20" fill="black">0</text>
<polyline points="660,0,660,200" stroke="black" stroke-width="1" fill="none" opacity="1"/>
</svg>