<?xml version="1.0" standalone="yes"?>
<!-- SVG graphic -->
<svg xmlns='http://www.w3.org/2000/svg' xmlns:xlink='http://www.w3.org/1999/xlink'
 version="1.1">
<rect x="0" y="0" width="6" height="200" stroke="black" stroke-width="1" fill="blue" opacity="1" tooltip="enable"><title>(0,2611)</title></rect><rect x="6" y="117.733" width="6" height="82.2673" stroke="black" stroke-width="1" fill="blue" opacity="1" tooltip="enable"><title>(0.00121043,1074)</title></rect><rect x="12" y="152.968" width="6" height="47.0318" stroke="black" stroke-width="1" fill="blue" opacity="1" tooltip="enable"><title>(0.00242086,614)</title></rect><rect x="18" y="180.467" width="6" height="19.5327" stroke="black" stroke-width="1" fill="blue" opacity="1" tooltip="enable"><title>(0.00363129,255)</title></rect><rect x="24" y="186.059" width="6" height="13.941" stroke="black" stroke-width="1" fill="blue" opacity="1" tooltip="enable"><title>(0.00484171,182)</title></rect><rect x="30" y="186.672" width="6" height="13.3282" stroke="black" stroke-width="1" fill="blue" opacity="1" tooltip="enable"><title>(0.00605214,174)</title></rect><rect x="36" y="189.276" width="6" height="10.7239" stroke="black" stroke-width="1" fill="blue" opacity="1" tooltip="enable"><title>(0.00726257,140)</title></rect><rect x="42" y="189.736" width="6" height="10.2643" stroke="black" stroke-width="1" fill="blue" opacity="1" tooltip="enable"><title>(0.008473,134)</title></rect><rect x="48" y="189.046" width="6" height="10.9537" stroke="black" stroke-width="1" fill="blue" opacity="1" tooltip="enable"><title>(0.00968343,143)</title></rect><rect x="54" y="189.046" width="6" height="10.9537" stroke="black" stroke-width="1" fill="blue" opacity="1" tooltip="enable"><title>(0.0108939,143)</title></rect><rect x="60" y="188.051" width="6" height="11.9494" stroke="black" stroke-width="1" fill="blue" opacity="1" tooltip="enable"><title>(0.0121043,156)</title></rect><rect x="66" y="189.659" width="6" height="10.3409" stroke="black" stroke-width="1" fill="blue" opacity="1" tooltip="enable"><title>(0.0133147,135)</title></rect><rect x="72" y="188.893" width="6" height="11.1069" stroke="black" stroke-width="1" fill="blue" opacity="1" tooltip="enable"><title>(0.0145251,145)</title></rect><rect x="78" y="192.417" width="6" height="7.5833" stroke="black" stroke-width="1" fill="blue" opacity="1" tooltip="enable"><title>(0.0157356,99)</title></rect><rect x="84" y="191.268" width="6" height="8.73229" stroke="black" stroke-width="1" fill="blue" opacity="1" tooltip="enable"><title>(0.016946,114)</title></rect><rect x="90" y="191.344" width="6" height="8.65569" stroke="black" stroke-width="1" fill="blue" opacity="1" tooltip="enable"><title>(0.0181564,113)</title></rect><rect x="96" y="191.038" width="6" height="8.96208" stroke="black" stroke-width="1" fill="blue" opacity="1" tooltip="enable"><title>(0.0193669,117)</title></rect><rect x="102" y="193.795" width="6" height="6.20452" stroke="black" stroke-width="1" fill="blue" opacity="1" tooltip="enable"><title>(0.0205773,81)</title></rect><rect x="108" y="193.949" width="6" height="6.05132" stroke="black" stroke-width="1" fill="blue" opacity="1" tooltip="enable"><title>(0.0217877,79)</title></rect><rect x="114" y="194.255" width="6" height="5.74493" stroke="black" stroke-width="1" fill="blue" opacity="1" tooltip="enable"><title>(0.0229981,75)</title></rect><rect x="120" y="194.332" width="6" height="5.66833" stroke="black" stroke-width="1" fill="blue" opacity="1" tooltip="enable"><title>(0.0242086,74)</title></rect><rect x="126" y="194.561" width="6" height="5.43853" stroke="black" stroke-width="1" fill="blue" opacity="1" tooltip="enable"><title>(0.025419,71)</title></rect><rect x="132" y="195.787" width="6" height="4.21294" stroke="black" stroke-width="1" fill="blue" opacity="1" tooltip="enable"><title>(0.0266294,55)</title></rect><rect x="138" y="193.872" width="6" height="6.12792" stroke="black" stroke-width="1" fill="blue" opacity="1" tooltip="enable"><title>(0.0278399,80)</title></rect><rect x="144" y="196.553" width="6" height="3.44696" stroke="black" stroke-width="1" fill="blue" opacity="1" tooltip="enable"><title>(0.0290503,45)</title></rect><rect x="150" y="195.94" width="6" height="4.05975" stroke="black" stroke-width="1" fill="blue" opacity="1" tooltip="enable"><title>(0.0302607,53)</title></rect><rect x="156" y="197.396" width="6" height="2.60437" stroke="black" stroke-width="1" fill="blue" opacity="1" tooltip="enable"><title>(0.0314711,34)</title></rect><rect x="162" y="196.476" width="6" height="3.52355" stroke="black" stroke-width="1" fill="blue" opacity="1" tooltip="enable"><title>(0.0326816,46)</title></rect><rect x="168" y="196.247" width="6" height="3.75335" stroke="black" stroke-width="1" fill="blue" opacity="1" tooltip="enable"><title>(0.033892,49)</title></rect><rect x="174" y="196.706" width="6" height="3.29376" stroke="black" stroke-width="1" fill="blue" opacity="1" tooltip="enable"><title>(0.0351024,43)</title></rect><rect x="180" y="195.71" width="6" height="4.28954" stroke="black" stroke-width="1" fill="blue" opacity="1" tooltip="enable"><title>(0.0363129,56)</title></rect><rect x="186" y="196.17" width="6" height="3.82995" stroke="black" stroke-width="1" fill="blue" opacity="1" tooltip="enable"><title>(0.0375233,50)</title></rect><rect x="192" y="197.089" width="6" height="2.91076" stroke="black" stroke-width="1" fill="blue" opacity="1" tooltip="enable"><title>(0.0387337,38)</title></rect><rect x="198" y="195.098" width="6" height="4.90234" stroke="black" stroke-width="1" fill="blue" opacity="1" tooltip="enable"><title>(0.0399441,64)</title></rect><rect x="204" y="196.553" width="6" height="3.44696" stroke="black" stroke-width="1" fill="blue" opacity="1" tooltip="enable"><title>(0.0411546,45)</title></rect><rect x="210" y="196.4" width="6" height="3.60015" stroke="black" stroke-width="1" fill="blue" opacity="1" tooltip="enable"><title>(0.042365,47)</title></rect><rect x="216" y="197.089" width="6" height="2.91076" stroke="black" stroke-width="1" fill="blue" opacity="1" tooltip="enable"><title>(0.0435754,38)</title></rect><rect x="222" y="197.396" width="6" height="2.60437" stroke="black" stroke-width="1" fill="blue" opacity="1" tooltip="enable"><title>(0.0447859,34)</title></rect><rect x="228" y="197.549" width="6" height="2.45117" stroke="black" stroke-width="1" fill="blue" opacity="1" tooltip="enable"><title>(0.0459963,32)</title></rect><rect x="234" y="197.396" width="6" height="2.60437" stroke="black" stroke-width="1" fill="blue" opacity="1" tooltip="enable"><title>(0.0472067,34)</title></rect><rect x="240" y="197.855" width="6" height="2.14477" stroke="black" stroke-width="1" fill="blue" opacity="1" tooltip="enable"><title>(0.0484171,28)</title></rect><rect x="246" y="196.63" width="6" height="3.37036" stroke="black" stroke-width="1" fill="blue" opacity="1" tooltip="enable"><title>(0.0496276,44)</title></rect><rect x="252" y="198.008" width="6" height="1.99157" stroke="black" stroke-width="1" fill="blue" opacity="1" tooltip="enable"><title>(0.050838,26)</title></rect><rect x="258" y="198.162" width="6" height="1.83838" stroke="black" stroke-width="1" fill="blue" opacity="1" tooltip="enable"><title>(0.0520484,24)</title></rect><rect x="264" y="197.702" width="6" height="2.29797" stroke="black" stroke-width="1" fill="blue" opacity="1" tooltip="enable"><title>(0.0532589,30)</title></rect><rect x="270" y="197.855" width="6" height="2.14477" stroke="black" stroke-width="1" fill="blue" opacity="1" tooltip="enable"><title>(0.0544693,28)</title></rect><rect x="276" y="198.162" width="6" height="1.83838" stroke="black" stroke-width="1" fill="blue" opacity="1" tooltip="enable"><title>(0.0556797,24)</title></rect><rect x="282" y="198.621" width="6" height="1.37878" stroke="black" stroke-width="1" fill="blue" opacity="1" tooltip="enable"><title>(0.0568901,18)</title></rect><rect x="288" y="199.234" width="6" height="0.76599" stroke="black" stroke-width="1" fill="blue" opacity="1" tooltip="enable"><title>(0.0581006,10)</title></rect><rect x="294" y="198.162" width="6" height="1.83838" stroke="black" stroke-width="1" fill="blue" opacity="1" tooltip="enable"><title>(0.059311,24)</title></rect><rect x="300" y="198.928" width="6" height="1.07239" stroke="black" stroke-width="1" fill="blue" opacity="1" tooltip="enable"><title>(0.0605214,14)</title></rect><rect x="306" y="199.081" width="6" height="0.919188" stroke="black" stroke-width="1" fill="blue" opacity="1" tooltip="enable"><title>(0.0617319,12)</title></rect><rect x="312" y="199.081" width="6" height="0.919188" stroke="black" stroke-width="1" fill="blue" opacity="1" tooltip="enable"><title>(0.0629423,12)</title></rect><rect x="318" y="199.387" width="6" height="0.612792" stroke="black" stroke-width="1" fill="blue" opacity="1" tooltip="enable"><title>(0.0641527,8)</title></rect><rect x="324" y="199.157" width="6" height="0.842589" stroke="black" stroke-width="1" fill="blue" opacity="1" tooltip="enable"><title>(0.0653631,11)</title></rect><rect x="330" y="198.238" width="6" height="1.76178" stroke="black" stroke-width="1" fill="blue" opacity="1" tooltip="enable"><title>(0.0665736,23)</title></rect><rect x="336" y="199.694" width="6" height="0.306396" stroke="black" stroke-width="1" fill="blue" opacity="1" tooltip="enable"><title>(0.067784,4)</title></rect><rect x="342" y="199.847" width="6" height="0.153198" stroke="black" stroke-width="1" fill="blue" opacity="1" tooltip="enable"><title>(0.0689944,2)</title></rect><rect x="348" y="200" width="6" height="0" stroke="black" stroke-width="1" fill="blue" opacity="1" tooltip="enable"><title>(0.0702048,0)</title></rect><rect x="354" y="199.694" width="6" height="0.306396" stroke="black" stroke-width="1" fill="blue" opacity="1" tooltip="enable"><title>(0.0714153,4)</title></rect><rect x="360" y="199.694" width="6" height="0.306396" stroke="black" stroke-width="1" fill="blue" opacity="1" tooltip="enable"><title>(0.0726257,4)</title></rect><rect x="366" y="199.234" width="6" height="0.76599" stroke="black" stroke-width="1" fill="blue" opacity="1" tooltip="enable"><title>(0.0738361,10)</title></rect><rect x="372" y="199.387" width="6" height="0.612792" stroke="black" stroke-width="1" fill="blue" opacity="1" tooltip="enable"><title>(0.0750466,8)</title></rect><rect x="378" y="199.387" width="6" height="0.612792" stroke="black" stroke-width="1" fill="blue" opacity="1" tooltip="enable"><title>(0.076257,8)</title></rect><rect x="384" y="199.847" width="6" height="0.153198" stroke="black" stroke-width="1" fill="blue" opacity="1" tooltip="enable"><title>(0.0774674,2)</title></rect><rect x="390" y="199.54" width="6" height="0.459594" stroke="black" stroke-width="1" fill="blue" opacity="1" tooltip="enable"><title>(0.0786778,6)</title></rect><rect x="396" y="199.694" width="6" height="0.306396" stroke="black" stroke-width="1" fill="blue" opacity="1" tooltip="enable"><title>(0.0798883,4)</title></rect><rect x="402" y="199.54" width="6" height="0.459594" stroke="black" stroke-width="1" fill="blue" opacity="1" tooltip="enable"><title>(0.0810987,6)</title></rect><rect x="408" y="200" width="6" height="0" stroke="black" stroke-width="1" fill="blue" opacity="1" tooltip="enable"><title>(0.0823091,0)</title></rect><rect x="414" y="199.847" width="6" height="0.153198" stroke="black" stroke-width="1" fill="blue" opacity="1" tooltip="enable"><title>(0.0835196,2)</title></rect><rect x="420" y="200" width="6" height="0" stroke="black" stroke-width="1" fill="blue" opacity="1" tooltip="enable"><title>(0.08473,0)</title></rect><rect x="426" y="199.847" width="6" height="0.153198" stroke="black" stroke-width="1" fill="blue" opacity="1" tooltip="enable"><title>(0.0859404,2)</title></rect><rect x="432" y="199.694" width="6" height="0.306396" stroke="black" stroke-width="1" fill="blue" opacity="1" tooltip="enable"><title>(0.0871509,4)</title></rect><rect x="438" y="200" width="6" height="0" stroke="black" stroke-width="1" fill="blue" opacity="1" tooltip="enable"><title>(0.0883613,0)</title></rect><rect x="444" y="199.847" width="6" height="0.153198" stroke="black" stroke-width="1" fill="blue" opacity="1" tooltip="enable"><title>(0.0895717,2)</title></rect><rect x="450" y="200" width="6" height="0" stroke="black" stroke-width="1" fill="blue" opacity="1" tooltip="enable"><title>(0.0907821,0)</title></rect><rect x="456" y="200" width="6" height="0" stroke="black" stroke-width="1" fill="blue" opacity="1" tooltip="enable"><title>(0.0919926,0)</title></rect><rect x="462" y="199.694" width="6" height="0.306396" stroke="black" stroke-width="1" fill="blue" opacity="1" tooltip="enable"><title>(0.093203,4)</title></rect><rect x="468" y="199.847" width="6" height="0.153198" stroke="black" stroke-width="1" fill="blue" opacity="1" tooltip="enable"><title>(0.0944134,2)</title></rect><rect x="474" y="199.847" width="6" height="0.153198" stroke="black" stroke-width="1" fill="blue" opacity="1" tooltip="enable"><title>(0.0956239,2)</title></rect><rect x="480" y="199.847" width="6" height="0.153198" stroke="black" stroke-width="1" fill="blue" opacity="1" tooltip="enable"><title>(0.0968343,2)</title></rect><rect x="486" y="199.694" width="6" height="0.306396" stroke="black" stroke-width="1" fill="blue" opacity="1" tooltip="enable"><title>(0.0980447,4)</title></rect><rect x="492" y="199.847" width="6" height="0.153198" stroke="black" stroke-width="1" fill="blue" opacity="1" tooltip="enable"><title>(0.0992551,2)</title></rect><rect x="498" y="199.923" width="6" height="0.076599" stroke="black" stroke-width="1" fill="blue" opacity="1" tooltip="enable"><title>(0.100466,1)</title></rect><rect x="504" y="199.77" width="6" height="0.229797" stroke="black" stroke-width="1" fill="blue" opacity="1" tooltip="enable"><title>(0.101676,3)</title></rect><rect x="510" y="200" width="6" height="0" stroke="black" stroke-width="1" fill="blue" opacity="1" tooltip="enable"><title>(0.102886,0)</title></rect><rect x="516" y="200" width="6" height="0" stroke="black" stroke-width="1" fill="blue" opacity="1" tooltip="enable"><title>(0.104097,0)</title></rect><rect x="522" y="200" width="6" height="0" stroke="black" stroke-width="1" fill="blue" opacity="1" tooltip="enable"><title>(0.105307,0)</title></rect><rect x="528" y="200" width="6" height="0" stroke="black" stroke-width="1" fill="blue" opacity="1" tooltip="enable"><title>(0.106518,0)</title></rect><rect x="534" y="200" width="6" height="0" stroke="black" stroke-width="1" fill="blue" opacity="1" tooltip="enable"><title>(0.107728,0)</title></rect><rect x="540" y="200" width="6" height="0" stroke="black" stroke-width="1" fill="blue" opacity="1" tooltip="enable"><title>(0.108939,0)</title></rect><rect x="546" y="200" width="6" height="0" stroke="black" stroke-width="1" fill="blue" opacity="1" tooltip="enable"><title>(0.110149,0)</title></rect><rect x="552" y="199.847" width="6" height="0.153198" stroke="black" stroke-width="1" fill="blue" opacity="1" tooltip="enable"><title>(0.111359,2)</title></rect><rect x="558" y="200" width="6" height="0" stroke="black" stroke-width="1" fill="blue" opacity="1" tooltip="enable"><title>(0.11257,0)</title></rect><rect x="564" y="200" width="6" height="0" stroke="black" stroke-width="1" fill="blue" opacity="1" tooltip="enable"><title>(0.11378,0)</title></rect><rect x="570" y="200" width="6" height="0" stroke="black" stroke-width="1" fill="blue" opacity="1" tooltip="enable"><title>(0.114991,0)</title></rect><rect x="576" y="200" width="6" height="0" stroke="black" stroke-width="1" fill="blue" opacity="1" tooltip="enable"><title>(0.116201,0)</title></rect><rect x="582" y="200" width="6" height="0" stroke="black" stroke-width="1" fill="blue" opacity="1" tooltip="enable"><title>(0.117412,0)</title></rect><rect x="588" y="200" width="6" height="0" stroke="black" stroke-width="1" fill="blue" opacity="1" tooltip="enable"><title>(0.118622,0)</title></rect><rect x="594" y="199.923" width="6" height="0.076599" stroke="black" stroke-width="1" fill="blue" opacity="1" tooltip="enable"><title>(0.119832,1)</title></rect><text x="30" y="240" font-size="20" fill="black">0</text>
<text x="600" y="240" font-size="20" fill="black">0.121043</text>
<polyline points="0,220,600,220" stroke="black" stroke-width="1" fill="none" opacity="1"/>
<text x="720" y="20" font-size="20" fill="black">2611</text>
<text x="720" y="200" font-size="20" fill="black">0</text>
<polyline points="660,0,660,200" stroke="black" stroke-width="1" fill="none" opacity="1"/>
</svg>