<?xml version="1.0" standalone="yes"?>
<!-- SVG graphic -->
<svg xmlns='http://www.w3.org/2000/svg' xmlns:xlink='http://www.w3.org/1999/xlink'
 version="1.1">
<rect x="0" y="12.432" width="6" height="187.568" stroke="black" stroke-width="1" fill="blue" opacity="1" tooltip="enable"><title>(0,1207)</title></rect><rect x="6" y="20.3574" width="6" height="179.643" stroke="black" stroke-width="1" fill="blue" opacity="1" tooltip="enable"><title>(0.00126797,1156)</title></rect><rect x="12" y="0" width="6" height="200" stroke="black" stroke-width="1" fill="blue" opacity="1" tooltip="enable"><title>(0.00253594,1287)</title></rect><rect x="18" y="120.746" width="6" height="79.2541" stroke="black" stroke-width="1" fill="blue" opacity="1" tooltip="enable"><title>(0.00380392,510)</title></rect><rect x="24" y="170.008" width="6" height="29.9922" stroke="black" stroke-width="1" fill="blue" opacity="1" tooltip="enable"><title>(0.00507189,193)</title></rect><rect x="30" y="169.386" width="6" height="30.6138" stroke="black" stroke-width="1" fill="blue" opacity="1" tooltip="enable"><title>(0.00633986,197)</title></rect><rect x="36" y="179.487" width="6" height="20.5128" stroke="black" stroke-width="1" fill="blue" opacity="1" tooltip="enable"><title>(0.00760783,132)</title></rect><rect x="42" y="184.305" width="6" height="15.6954" stroke="black" stroke-width="1" fill="blue" opacity="1" tooltip="enable"><title>(0.0088758,101)</title></rect><rect x="48" y="184.926" width="6" height="15.0738" stroke="black" stroke-width="1" fill="blue" opacity="1" tooltip="enable"><title>(0.0101438,97)</title></rect><rect x="54" y="185.392" width="6" height="14.6076" stroke="black" stroke-width="1" fill="blue" opacity="1" tooltip="enable"><title>(0.0114117,94)</title></rect><rect x="60" y="180.264" width="6" height="19.7358" stroke="black" stroke-width="1" fill="blue" opacity="1" tooltip="enable"><title>(0.0126797,127)</title></rect><rect x="66" y="181.197" width="6" height="18.8034" stroke="black" stroke-width="1" fill="blue" opacity="1" tooltip="enable"><title>(0.0139477,121)</title></rect><rect x="72" y="186.014" width="6" height="13.986" stroke="black" stroke-width="1" fill="blue" opacity="1" tooltip="enable"><title>(0.0152157,90)</title></rect><rect x="78" y="185.082" width="6" height="14.9184" stroke="black" stroke-width="1" fill="blue" opacity="1" tooltip="enable"><title>(0.0164836,96)</title></rect><rect x="84" y="187.413" width="6" height="12.5874" stroke="black" stroke-width="1" fill="blue" opacity="1" tooltip="enable"><title>(0.0177516,81)</title></rect><rect x="90" y="187.568" width="6" height="12.432" stroke="black" stroke-width="1" fill="blue" opacity="1" tooltip="enable"><title>(0.0190196,80)</title></rect><rect x="96" y="184.149" width="6" height="15.8508" stroke="black" stroke-width="1" fill="blue" opacity="1" tooltip="enable"><title>(0.0202875,102)</title></rect><rect x="102" y="187.413" width="6" height="12.5874" stroke="black" stroke-width="1" fill="blue" opacity="1" tooltip="enable"><title>(0.0215555,81)</title></rect><rect x="108" y="184.615" width="6" height="15.3846" stroke="black" stroke-width="1" fill="blue" opacity="1" tooltip="enable"><title>(0.0228235,99)</title></rect><rect x="114" y="186.169" width="6" height="13.8306" stroke="black" stroke-width="1" fill="blue" opacity="1" tooltip="enable"><title>(0.0240915,89)</title></rect><rect x="120" y="179.643" width="6" height="20.3574" stroke="black" stroke-width="1" fill="blue" opacity="1" tooltip="enable"><title>(0.0253594,131)</title></rect><rect x="126" y="181.507" width="6" height="18.4926" stroke="black" stroke-width="1" fill="blue" opacity="1" tooltip="enable"><title>(0.0266274,119)</title></rect><rect x="132" y="179.643" width="6" height="20.3574" stroke="black" stroke-width="1" fill="blue" opacity="1" tooltip="enable"><title>(0.0278954,131)</title></rect><rect x="138" y="180.109" width="6" height="19.8912" stroke="black" stroke-width="1" fill="blue" opacity="1" tooltip="enable"><title>(0.0291634,128)</title></rect><rect x="144" y="183.683" width="6" height="16.317" stroke="black" stroke-width="1" fill="blue" opacity="1" tooltip="enable"><title>(0.0304313,105)</title></rect><rect x="150" y="183.994" width="6" height="16.0062" stroke="black" stroke-width="1" fill="blue" opacity="1" tooltip="enable"><title>(0.0316993,103)</title></rect><rect x="156" y="187.879" width="6" height="12.1212" stroke="black" stroke-width="1" fill="blue" opacity="1" tooltip="enable"><title>(0.0329673,78)</title></rect><rect x="162" y="180.886" width="6" height="19.1142" stroke="black" stroke-width="1" fill="blue" opacity="1" tooltip="enable"><title>(0.0342352,123)</title></rect><rect x="168" y="188.967" width="6" height="11.0334" stroke="black" stroke-width="1" fill="blue" opacity="1" tooltip="enable"><title>(0.0355032,71)</title></rect><rect x="174" y="183.838" width="6" height="16.1616" stroke="black" stroke-width="1" fill="blue" opacity="1" tooltip="enable"><title>(0.0367712,104)</title></rect><rect x="180" y="187.723" width="6" height="12.2766" stroke="black" stroke-width="1" fill="blue" opacity="1" tooltip="enable"><title>(0.0380392,79)</title></rect><rect x="186" y="184.46" width="6" height="15.54" stroke="black" stroke-width="1" fill="blue" opacity="1" tooltip="enable"><title>(0.0393071,100)</title></rect><rect x="192" y="191.298" width="6" height="8.70241" stroke="black" stroke-width="1" fill="blue" opacity="1" tooltip="enable"><title>(0.0405751,56)</title></rect><rect x="198" y="187.257" width="6" height="12.7428" stroke="black" stroke-width="1" fill="blue" opacity="1" tooltip="enable"><title>(0.0418431,82)</title></rect><rect x="204" y="189.744" width="6" height="10.2564" stroke="black" stroke-width="1" fill="blue" opacity="1" tooltip="enable"><title>(0.043111,66)</title></rect><rect x="210" y="190.987" width="6" height="9.01321" stroke="black" stroke-width="1" fill="blue" opacity="1" tooltip="enable"><title>(0.044379,58)</title></rect><rect x="216" y="191.608" width="6" height="8.39161" stroke="black" stroke-width="1" fill="blue" opacity="1" tooltip="enable"><title>(0.045647,54)</title></rect><rect x="222" y="191.453" width="6" height="8.54701" stroke="black" stroke-width="1" fill="blue" opacity="1" tooltip="enable"><title>(0.046915,55)</title></rect><rect x="228" y="191.608" width="6" height="8.39161" stroke="black" stroke-width="1" fill="blue" opacity="1" tooltip="enable"><title>(0.0481829,54)</title></rect><rect x="234" y="193.162" width="6" height="6.83761" stroke="black" stroke-width="1" fill="blue" opacity="1" tooltip="enable"><title>(0.0494509,44)</title></rect><rect x="240" y="196.581" width="6" height="3.4188" stroke="black" stroke-width="1" fill="blue" opacity="1" tooltip="enable"><title>(0.0507189,22)</title></rect><rect x="246" y="196.892" width="6" height="3.108" stroke="black" stroke-width="1" fill="blue" opacity="1" tooltip="enable"><title>(0.0519868,20)</title></rect><rect x="252" y="197.047" width="6" height="2.9526" stroke="black" stroke-width="1" fill="blue" opacity="1" tooltip="enable"><title>(0.0532548,19)</title></rect><rect x="258" y="195.96" width="6" height="4.0404" stroke="black" stroke-width="1" fill="blue" opacity="1" tooltip="enable"><title>(0.0545228,26)</title></rect><rect x="264" y="197.203" width="6" height="2.7972" stroke="black" stroke-width="1" fill="blue" opacity="1" tooltip="enable"><title>(0.0557908,18)</title></rect><rect x="270" y="198.446" width="6" height="1.554" stroke="black" stroke-width="1" fill="blue" opacity="1" tooltip="enable"><title>(0.0570587,10)</title></rect><rect x="276" y="198.757" width="6" height="1.2432" stroke="black" stroke-width="1" fill="blue" opacity="1" tooltip="enable"><title>(0.0583267,8)</title></rect><rect x="282" y="198.601" width="6" height="1.3986" stroke="black" stroke-width="1" fill="blue" opacity="1" tooltip="enable"><title>(0.0595947,9)</title></rect><rect x="288" y="199.845" width="6" height="0.1554" stroke="black" stroke-width="1" fill="blue" opacity="1" tooltip="enable"><title>(0.0608626,1)</title></rect><rect x="294" y="198.135" width="6" height="1.8648" stroke="black" stroke-width="1" fill="blue" opacity="1" tooltip="enable"><title>(0.0621306,12)</title></rect><rect x="300" y="198.135" width="6" height="1.8648" stroke="black" stroke-width="1" fill="blue" opacity="1" tooltip="enable"><title>(0.0633986,12)</title></rect><rect x="306" y="198.757" width="6" height="1.2432" stroke="black" stroke-width="1" fill="blue" opacity="1" tooltip="enable"><title>(0.0646666,8)</title></rect><rect x="312" y="197.514" width="6" height="2.4864" stroke="black" stroke-width="1" fill="blue" opacity="1" tooltip="enable"><title>(0.0659345,16)</title></rect><rect x="318" y="198.757" width="6" height="1.2432" stroke="black" stroke-width="1" fill="blue" opacity="1" tooltip="enable"><title>(0.0672025,8)</title></rect><rect x="324" y="199.378" width="6" height="0.621601" stroke="black" stroke-width="1" fill="blue" opacity="1" tooltip="enable"><title>(0.0684705,4)</title></rect><rect x="330" y="199.068" width="6" height="0.932401" stroke="black" stroke-width="1" fill="blue" opacity="1" tooltip="enable"><title>(0.0697385,6)</title></rect><rect x="336" y="199.068" width="6" height="0.932401" stroke="black" stroke-width="1" fill="blue" opacity="1" tooltip="enable"><title>(0.0710064,6)</title></rect><rect x="342" y="198.757" width="6" height="1.2432" stroke="black" stroke-width="1" fill="blue" opacity="1" tooltip="enable"><title>(0.0722744,8)</title></rect><rect x="348" y="199.689" width="6" height="0.3108" stroke="black" stroke-width="1" fill="blue" opacity="1" tooltip="enable"><title>(0.0735424,2)</title></rect><rect x="354" y="197.514" width="6" height="2.4864" stroke="black" stroke-width="1" fill="blue" opacity="1" tooltip="enable"><title>(0.0748103,16)</title></rect><rect x="360" y="199.068" width="6" height="0.932401" stroke="black" stroke-width="1" fill="blue" opacity="1" tooltip="enable"><title>(0.0760783,6)</title></rect><rect x="366" y="199.378" width="6" height="0.621601" stroke="black" stroke-width="1" fill="blue" opacity="1" tooltip="enable"><title>(0.0773463,4)</title></rect><rect x="372" y="199.689" width="6" height="0.3108" stroke="black" stroke-width="1" fill="blue" opacity="1" tooltip="enable"><title>(0.0786143,2)</title></rect><rect x="378" y="199.689" width="6" height="0.3108" stroke="black" stroke-width="1" fill="blue" opacity="1" tooltip="enable"><title>(0.0798822,2)</title></rect><rect x="384" y="199.378" width="6" height="0.621601" stroke="black" stroke-width="1" fill="blue" opacity="1" tooltip="enable"><title>(0.0811502,4)</title></rect><rect x="390" y="200" width="6" height="0" stroke="black" stroke-width="1" fill="blue" opacity="1" tooltip="enable"><title>(0.0824182,0)</title></rect><rect x="396" y="199.689" width="6" height="0.3108" stroke="black" stroke-width="1" fill="blue" opacity="1" tooltip="enable"><title>(0.0836861,2)</title></rect><rect x="402" y="198.757" width="6" height="1.2432" stroke="black" stroke-width="1" fill="blue" opacity="1" tooltip="enable"><title>(0.0849541,8)</title></rect><rect x="408" y="198.601" width="6" height="1.3986" stroke="black" stroke-width="1" fill="blue" opacity="1" tooltip="enable"><title>(0.0862221,9)</title></rect><rect x="414" y="199.223" width="6" height="0.777001" stroke="black" stroke-width="1" fill="blue" opacity="1" tooltip="enable"><title>(0.0874901,5)</title></rect><rect x="420" y="199.689" width="6" height="0.3108" stroke="black" stroke-width="1" fill="blue" opacity="1" tooltip="enable"><title>(0.088758,2)</title></rect><rect x="426" y="200" width="6" height="0" stroke="black" stroke-width="1" fill="blue" opacity="1" tooltip="enable"><title>(0.090026,0)</title></rect><rect x="432" y="199.378" width="6" height="0.621601" stroke="black" stroke-width="1" fill="blue" opacity="1" tooltip="enable"><title>(0.091294,4)</title></rect><rect x="438" y="198.446" width="6" height="1.554" stroke="black" stroke-width="1" fill="blue" opacity="1" tooltip="enable"><title>(0.0925619,10)</title></rect><rect x="444" y="199.689" width="6" height="0.3108" stroke="black" stroke-width="1" fill="blue" opacity="1" tooltip="enable"><title>(0.0938299,2)</title></rect><rect x="450" y="199.689" width="6" height="0.3108" stroke="black" stroke-width="1" fill="blue" opacity="1" tooltip="enable"><title>(0.0950979,2)</title></rect><rect x="456" y="200" width="6" height="0" stroke="black" stroke-width="1" fill="blue" opacity="1" tooltip="enable"><title>(0.0963659,0)</title></rect><rect x="462" y="199.689" width="6" height="0.3108" stroke="black" stroke-width="1" fill="blue" opacity="1" tooltip="enable"><title>(0.0976338,2)</title></rect><rect x="468" y="199.689" width="6" height="0.3108" stroke="black" stroke-width="1" fill="blue" opacity="1" tooltip="enable"><title>(0.0989018,2)</title></rect><rect x="474" y="200" width="6" height="0" stroke="black" stroke-width="1" fill="blue" opacity="1" tooltip="enable"><title>(0.10017,0)</title></rect><rect x="480" y="200" width="6" height="0" stroke="black" stroke-width="1" fill="blue" opacity="1" tooltip="enable"><title>(0.101438,0)</title></rect><rect x="486" y="200" width="6" height="0" stroke="black" stroke-width="1" fill="blue" opacity="1" tooltip="enable"><title>(0.102706,0)</title></rect><rect x="492" y="200" width="6" height="0" stroke="black" stroke-width="1" fill="blue" opacity="1" tooltip="enable"><title>(0.103974,0)</title></rect><rect x="498" y="199.689" width="6" height="0.3108" stroke="black" stroke-width="1" fill="blue" opacity="1" tooltip="enable"><title>(0.105242,2)</title></rect><rect x="504" y="199.689" width="6" height="0.3108" stroke="black" stroke-width="1" fill="blue" opacity="1" tooltip="enable"><title>(0.10651,2)</title></rect><rect x="510" y="199.845" width="6" height="0.1554" stroke="black" stroke-width="1" fill="blue" opacity="1" tooltip="enable"><title>(0.107778,1)</title></rect><rect x="516" y="199.845" width="6" height="0.1554" stroke="black" stroke-width="1" fill="blue" opacity="1" tooltip="enable"><title>(0.109046,1)</title></rect><rect x="522" y="199.689" width="6" height="0.3108" stroke="black" stroke-width="1" fill="blue" opacity="1" tooltip="enable"><title>(0.110314,2)</title></rect><rect x="528" y="199.689" width="6" height="0.3108" stroke="black" stroke-width="1" fill="blue" opacity="1" tooltip="enable"><title>(0.111582,2)</title></rect><rect x="534" y="199.378" width="6" height="0.621601" stroke="black" stroke-width="1" fill="blue" opacity="1" tooltip="enable"><title>(0.112849,4)</title></rect><rect x="540" y="200" width="6" height="0" stroke="black" stroke-width="1" fill="blue" opacity="1" tooltip="enable"><title>(0.114117,0)</title></rect><rect x="546" y="199.689" width="6" height="0.3108" stroke="black" stroke-width="1" fill="blue" opacity="1" tooltip="enable"><title>(0.115385,2)</title></rect><rect x="552" y="199.689" width="6" height="0.3108" stroke="black" stroke-width="1" fill="blue" opacity="1" tooltip="enable"><title>(0.116653,2)</title></rect><rect x="558" y="200" width="6" height="0" stroke="black" stroke-width="1" fill="blue" opacity="1" tooltip="enable"><title>(0.117921,0)</title></rect><rect x="564" y="199.689" width="6" height="0.3108" stroke="black" stroke-width="1" fill="blue" opacity="1" tooltip="enable"><title>(0.119189,2)</title></rect><rect x="570" y="200" width="6" height="0" stroke="black" stroke-width="1" fill="blue" opacity="1" tooltip="enable"><title>(0.120457,0)</title></rect><rect x="576" y="200" width="6" height="0" stroke="black" stroke-width="1" fill="blue" opacity="1" tooltip="enable"><title>(0.121725,0)</title></rect><rect x="582" y="200" width="6" height="0" stroke="black" stroke-width="1" fill="blue" opacity="1" tooltip="enable"><title>(0.122993,0)</title></rect><rect x="588" y="200" width="6" height="0" stroke="black" stroke-width="1" fill="blue" opacity="1" tooltip="enable"><title>(0.124261,0)</title></rect><rect x="594" y="199.845" width="6" height="0.1554" stroke="black" stroke-width="1" fill="blue" opacity="1" tooltip="enable"><title>(0.125529,1)</title></rect><text x="30" y="240" font-size="20" fill="black">0</text>
<text x="600" y="240" font-size="20" fill="black">0.126797</text>
<polyline points="0,220,600,220" stroke="black" stroke-width="1" fill="none" opacity="1"/>
<text x="720" y="20" font-size="20" fill="black">1287</text>
<text x="720" y="200" font-size="20" fill="black">0</text>
<polyline points="660,0,660,200" stroke="black" stroke-width="1" fill="none" opacity="1"/>
</svg>