<?xml version="1.0" standalone="yes"?>
<!-- SVG graphic -->
<svg xmlns='http://www.w3.org/2000/svg' xmlns:xlink='http://www.w3.org/1999/xlink'
 version="1.1">
<rect x="0" y="0" width="6" height="200" stroke="black" stroke-width="1" fill="blue" opacity="1" tooltip="enable"><title>(0,1361)</title></rect><rect x="6" y="29.5371" width="6" height="170.463" stroke="black" stroke-width="1" fill="blue" opacity="1" tooltip="enable"><title>(0.000827441,1160)</title></rect><rect x="12" y="88.7583" width="6" height="111.242" stroke="black" stroke-width="1" fill="blue" opacity="1" tooltip="enable"><title>(0.00165488,757)</title></rect><rect x="18" y="122.41" width="6" height="77.59" stroke="black" stroke-width="1" fill="blue" opacity="1" tooltip="enable"><title>(0.00248232,528)</title></rect><rect x="24" y="132.256" width="6" height="67.7443" stroke="black" stroke-width="1" fill="blue" opacity="1" tooltip="enable"><title>(0.00330976,461)</title></rect><rect x="30" y="150.184" width="6" height="49.8163" stroke="black" stroke-width="1" fill="blue" opacity="1" tooltip="enable"><title>(0.00413721,339)</title></rect><rect x="36" y="159.735" width="6" height="40.2645" stroke="black" stroke-width="1" fill="blue" opacity="1" tooltip="enable"><title>(0.00496465,274)</title></rect><rect x="42" y="176.194" width="6" height="23.806" stroke="black" stroke-width="1" fill="blue" opacity="1" tooltip="enable"><title>(0.00579209,162)</title></rect><rect x="48" y="182.954" width="6" height="17.0463" stroke="black" stroke-width="1" fill="blue" opacity="1" tooltip="enable"><title>(0.00661953,116)</title></rect><rect x="54" y="179.868" width="6" height="20.1323" stroke="black" stroke-width="1" fill="blue" opacity="1" tooltip="enable"><title>(0.00744697,137)</title></rect><rect x="60" y="182.954" width="6" height="17.0463" stroke="black" stroke-width="1" fill="blue" opacity="1" tooltip="enable"><title>(0.00827441,116)</title></rect><rect x="66" y="182.807" width="6" height="17.1932" stroke="black" stroke-width="1" fill="blue" opacity="1" tooltip="enable"><title>(0.00910185,117)</title></rect><rect x="72" y="180.456" width="6" height="19.5445" stroke="black" stroke-width="1" fill="blue" opacity="1" tooltip="enable"><title>(0.00992929,133)</title></rect><rect x="78" y="183.101" width="6" height="16.8993" stroke="black" stroke-width="1" fill="blue" opacity="1" tooltip="enable"><title>(0.0107567,115)</title></rect><rect x="84" y="186.921" width="6" height="13.0786" stroke="black" stroke-width="1" fill="blue" opacity="1" tooltip="enable"><title>(0.0115842,89)</title></rect><rect x="90" y="185.746" width="6" height="14.2542" stroke="black" stroke-width="1" fill="blue" opacity="1" tooltip="enable"><title>(0.0124116,97)</title></rect><rect x="96" y="184.717" width="6" height="15.2829" stroke="black" stroke-width="1" fill="blue" opacity="1" tooltip="enable"><title>(0.0132391,104)</title></rect><rect x="102" y="187.068" width="6" height="12.9317" stroke="black" stroke-width="1" fill="blue" opacity="1" tooltip="enable"><title>(0.0140665,88)</title></rect><rect x="108" y="185.599" width="6" height="14.4012" stroke="black" stroke-width="1" fill="blue" opacity="1" tooltip="enable"><title>(0.0148939,98)</title></rect><rect x="114" y="189.126" width="6" height="10.8744" stroke="black" stroke-width="1" fill="blue" opacity="1" tooltip="enable"><title>(0.0157214,74)</title></rect><rect x="120" y="184.129" width="6" height="15.8707" stroke="black" stroke-width="1" fill="blue" opacity="1" tooltip="enable"><title>(0.0165488,108)</title></rect><rect x="126" y="190.742" width="6" height="9.2579" stroke="black" stroke-width="1" fill="blue" opacity="1" tooltip="enable"><title>(0.0173763,63)</title></rect><rect x="132" y="190.742" width="6" height="9.2579" stroke="black" stroke-width="1" fill="blue" opacity="1" tooltip="enable"><title>(0.0182037,63)</title></rect><rect x="138" y="191.183" width="6" height="8.81705" stroke="black" stroke-width="1" fill="blue" opacity="1" tooltip="enable"><title>(0.0190311,60)</title></rect><rect x="144" y="190.301" width="6" height="9.69875" stroke="black" stroke-width="1" fill="blue" opacity="1" tooltip="enable"><title>(0.0198586,66)</title></rect><rect x="150" y="195.004" width="6" height="4.99633" stroke="black" stroke-width="1" fill="blue" opacity="1" tooltip="enable"><title>(0.020686,34)</title></rect><rect x="156" y="192.946" width="6" height="7.05364" stroke="black" stroke-width="1" fill="blue" opacity="1" tooltip="enable"><title>(0.0215135,48)</title></rect><rect x="162" y="192.065" width="6" height="7.93534" stroke="black" stroke-width="1" fill="blue" opacity="1" tooltip="enable"><title>(0.0223409,54)</title></rect><rect x="168" y="193.828" width="6" height="6.17193" stroke="black" stroke-width="1" fill="blue" opacity="1" tooltip="enable"><title>(0.0231683,42)</title></rect><rect x="174" y="192.065" width="6" height="7.93534" stroke="black" stroke-width="1" fill="blue" opacity="1" tooltip="enable"><title>(0.0239958,54)</title></rect><rect x="180" y="193.24" width="6" height="6.75974" stroke="black" stroke-width="1" fill="blue" opacity="1" tooltip="enable"><title>(0.0248232,46)</title></rect><rect x="186" y="193.975" width="6" height="6.02498" stroke="black" stroke-width="1" fill="blue" opacity="1" tooltip="enable"><title>(0.0256507,41)</title></rect><rect x="192" y="195.298" width="6" height="4.70242" stroke="black" stroke-width="1" fill="blue" opacity="1" tooltip="enable"><title>(0.0264781,32)</title></rect><rect x="198" y="192.799" width="6" height="7.20059" stroke="black" stroke-width="1" fill="blue" opacity="1" tooltip="enable"><title>(0.0273056,49)</title></rect><rect x="204" y="193.534" width="6" height="6.46583" stroke="black" stroke-width="1" fill="blue" opacity="1" tooltip="enable"><title>(0.028133,44)</title></rect><rect x="210" y="196.179" width="6" height="3.82072" stroke="black" stroke-width="1" fill="blue" opacity="1" tooltip="enable"><title>(0.0289604,26)</title></rect><rect x="216" y="196.032" width="6" height="3.96767" stroke="black" stroke-width="1" fill="blue" opacity="1" tooltip="enable"><title>(0.0297879,27)</title></rect><rect x="222" y="196.473" width="6" height="3.52682" stroke="black" stroke-width="1" fill="blue" opacity="1" tooltip="enable"><title>(0.0306153,24)</title></rect><rect x="228" y="195.738" width="6" height="4.26157" stroke="black" stroke-width="1" fill="blue" opacity="1" tooltip="enable"><title>(0.0314428,29)</title></rect><rect x="234" y="195.885" width="6" height="4.11462" stroke="black" stroke-width="1" fill="blue" opacity="1" tooltip="enable"><title>(0.0322702,28)</title></rect><rect x="240" y="196.914" width="6" height="3.08597" stroke="black" stroke-width="1" fill="blue" opacity="1" tooltip="enable"><title>(0.0330976,21)</title></rect><rect x="246" y="198.09" width="6" height="1.91036" stroke="black" stroke-width="1" fill="blue" opacity="1" tooltip="enable"><title>(0.0339251,13)</title></rect><rect x="252" y="194.122" width="6" height="5.87803" stroke="black" stroke-width="1" fill="blue" opacity="1" tooltip="enable"><title>(0.0347525,40)</title></rect><rect x="258" y="195.885" width="6" height="4.11462" stroke="black" stroke-width="1" fill="blue" opacity="1" tooltip="enable"><title>(0.03558,28)</title></rect><rect x="264" y="193.534" width="6" height="6.46583" stroke="black" stroke-width="1" fill="blue" opacity="1" tooltip="enable"><title>(0.0364074,44)</title></rect><rect x="270" y="194.416" width="6" height="5.58413" stroke="black" stroke-width="1" fill="blue" opacity="1" tooltip="enable"><title>(0.0372348,38)</title></rect><rect x="276" y="194.857" width="6" height="5.14328" stroke="black" stroke-width="1" fill="blue" opacity="1" tooltip="enable"><title>(0.0380623,35)</title></rect><rect x="282" y="196.473" width="6" height="3.52682" stroke="black" stroke-width="1" fill="blue" opacity="1" tooltip="enable"><title>(0.0388897,24)</title></rect><rect x="288" y="195.004" width="6" height="4.99633" stroke="black" stroke-width="1" fill="blue" opacity="1" tooltip="enable"><title>(0.0397172,34)</title></rect><rect x="294" y="196.032" width="6" height="3.96767" stroke="black" stroke-width="1" fill="blue" opacity="1" tooltip="enable"><title>(0.0405446,27)</title></rect><rect x="300" y="198.237" width="6" height="1.76341" stroke="black" stroke-width="1" fill="blue" opacity="1" tooltip="enable"><title>(0.0413721,12)</title></rect><rect x="306" y="195.004" width="6" height="4.99633" stroke="black" stroke-width="1" fill="blue" opacity="1" tooltip="enable"><title>(0.0421995,34)</title></rect><rect x="312" y="195.445" width="6" height="4.55547" stroke="black" stroke-width="1" fill="blue" opacity="1" tooltip="enable"><title>(0.0430269,31)</title></rect><rect x="318" y="196.326" width="6" height="3.67377" stroke="black" stroke-width="1" fill="blue" opacity="1" tooltip="enable"><title>(0.0438544,25)</title></rect><rect x="324" y="199.265" width="6" height="0.734754" stroke="black" stroke-width="1" fill="blue" opacity="1" tooltip="enable"><title>(0.0446818,5)</title></rect><rect x="330" y="196.179" width="6" height="3.82072" stroke="black" stroke-width="1" fill="blue" opacity="1" tooltip="enable"><title>(0.0455093,26)</title></rect><rect x="336" y="196.473" width="6" height="3.52682" stroke="black" stroke-width="1" fill="blue" opacity="1" tooltip="enable"><title>(0.0463367,24)</title></rect><rect x="342" y="196.032" width="6" height="3.96767" stroke="black" stroke-width="1" fill="blue" opacity="1" tooltip="enable"><title>(0.0471641,27)</title></rect><rect x="348" y="197.061" width="6" height="2.93902" stroke="black" stroke-width="1" fill="blue" opacity="1" tooltip="enable"><title>(0.0479916,20)</title></rect><rect x="354" y="198.677" width="6" height="1.32256" stroke="black" stroke-width="1" fill="blue" opacity="1" tooltip="enable"><title>(0.048819,9)</title></rect><rect x="360" y="196.914" width="6" height="3.08597" stroke="black" stroke-width="1" fill="blue" opacity="1" tooltip="enable"><title>(0.0496465,21)</title></rect><rect x="366" y="199.265" width="6" height="0.734754" stroke="black" stroke-width="1" fill="blue" opacity="1" tooltip="enable"><title>(0.0504739,5)</title></rect><rect x="372" y="196.179" width="6" height="3.82072" stroke="black" stroke-width="1" fill="blue" opacity="1" tooltip="enable"><title>(0.0513013,26)</title></rect><rect x="378" y="197.502" width="6" height="2.49816" stroke="black" stroke-width="1" fill="blue" opacity="1" tooltip="enable"><title>(0.0521288,17)</title></rect><rect x="384" y="198.237" width="6" height="1.76341" stroke="black" stroke-width="1" fill="blue" opacity="1" tooltip="enable"><title>(0.0529562,12)</title></rect><rect x="390" y="197.943" width="6" height="2.05731" stroke="black" stroke-width="1" fill="blue" opacity="1" tooltip="enable"><title>(0.0537837,14)</title></rect><rect x="396" y="198.677" width="6" height="1.32256" stroke="black" stroke-width="1" fill="blue" opacity="1" tooltip="enable"><title>(0.0546111,9)</title></rect><rect x="402" y="197.649" width="6" height="2.35121" stroke="black" stroke-width="1" fill="blue" opacity="1" tooltip="enable"><title>(0.0554386,16)</title></rect><rect x="408" y="198.09" width="6" height="1.91036" stroke="black" stroke-width="1" fill="blue" opacity="1" tooltip="enable"><title>(0.056266,13)</title></rect><rect x="414" y="197.943" width="6" height="2.05731" stroke="black" stroke-width="1" fill="blue" opacity="1" tooltip="enable"><title>(0.0570934,14)</title></rect><rect x="420" y="199.412" width="6" height="0.587803" stroke="black" stroke-width="1" fill="blue" opacity="1" tooltip="enable"><title>(0.0579209,4)</title></rect><rect x="426" y="198.53" width="6" height="1.46951" stroke="black" stroke-width="1" fill="blue" opacity="1" tooltip="enable"><title>(0.0587483,10)</title></rect><rect x="432" y="199.706" width="6" height="0.293902" stroke="black" stroke-width="1" fill="blue" opacity="1" tooltip="enable"><title>(0.0595758,2)</title></rect><rect x="438" y="197.943" width="6" height="2.05731" stroke="black" stroke-width="1" fill="blue" opacity="1" tooltip="enable"><title>(0.0604032,14)</title></rect><rect x="444" y="199.559" width="6" height="0.440852" stroke="black" stroke-width="1" fill="blue" opacity="1" tooltip="enable"><title>(0.0612306,3)</title></rect><rect x="450" y="199.853" width="6" height="0.146951" stroke="black" stroke-width="1" fill="blue" opacity="1" tooltip="enable"><title>(0.0620581,1)</title></rect><rect x="456" y="199.118" width="6" height="0.881705" stroke="black" stroke-width="1" fill="blue" opacity="1" tooltip="enable"><title>(0.0628855,6)</title></rect><rect x="462" y="199.118" width="6" height="0.881705" stroke="black" stroke-width="1" fill="blue" opacity="1" tooltip="enable"><title>(0.063713,6)</title></rect><rect x="468" y="199.412" width="6" height="0.587803" stroke="black" stroke-width="1" fill="blue" opacity="1" tooltip="enable"><title>(0.0645404,4)</title></rect><rect x="474" y="200" width="6" height="0" stroke="black" stroke-width="1" fill="blue" opacity="1" tooltip="enable"><title>(0.0653678,0)</title></rect><rect x="480" y="199.412" width="6" height="0.587803" stroke="black" stroke-width="1" fill="blue" opacity="1" tooltip="enable"><title>(0.0661953,4)</title></rect><rect x="486" y="200" width="6" height="0" stroke="black" stroke-width="1" fill="blue" opacity="1" tooltip="enable"><title>(0.0670227,0)</title></rect><rect x="492" y="199.706" width="6" height="0.293902" stroke="black" stroke-width="1" fill="blue" opacity="1" tooltip="enable"><title>(0.0678502,2)</title></rect><rect x="498" y="199.706" width="6" height="0.293902" stroke="black" stroke-width="1" fill="blue" opacity="1" tooltip="enable"><title>(0.0686776,2)</title></rect><rect x="504" y="199.706" width="6" height="0.293902" stroke="black" stroke-width="1" fill="blue" opacity="1" tooltip="enable"><title>(0.0695051,2)</title></rect><rect x="510" y="200" width="6" height="0" stroke="black" stroke-width="1" fill="blue" opacity="1" tooltip="enable"><title>(0.0703325,0)</title></rect><rect x="516" y="200" width="6" height="0" stroke="black" stroke-width="1" fill="blue" opacity="1" tooltip="enable"><title>(0.0711599,0)</title></rect><rect x="522" y="199.412" width="6" height="0.587803" stroke="black" stroke-width="1" fill="blue" opacity="1" tooltip="enable"><title>(0.0719874,4)</title></rect><rect x="528" y="199.706" width="6" height="0.293902" stroke="black" stroke-width="1" fill="blue" opacity="1" tooltip="enable"><title>(0.0728148,2)</title></rect><rect x="534" y="200" width="6" height="0" stroke="black" stroke-width="1" fill="blue" opacity="1" tooltip="enable"><title>(0.0736423,0)</title></rect><rect x="540" y="200" width="6" height="0" stroke="black" stroke-width="1" fill="blue" opacity="1" tooltip="enable"><title>(0.0744697,0)</title></rect><rect x="546" y="200" width="6" height="0" stroke="black" stroke-width="1" fill="blue" opacity="1" tooltip="enable"><title>(0.0752971,0)</title></rect><rect x="552" y="200" width="6" height="0" stroke="black" stroke-width="1" fill="blue" opacity="1" tooltip="enable"><title>(0.0761246,0)</title></rect><rect x="558" y="200" width="6" height="0" stroke="black" stroke-width="1" fill="blue" opacity="1" tooltip="enable"><title>(0.076952,0)</title></rect><rect x="564" y="200" width="6" height="0" stroke="black" stroke-width="1" fill="blue" opacity="1" tooltip="enable"><title>(0.0777795,0)</title></rect><rect x="570" y="199.706" width="6" height="0.293902" stroke="black" stroke-width="1" fill="blue" opacity="1" tooltip="enable"><title>(0.0786069,2)</title></rect><rect x="576" y="199.706" width="6" height="0.293902" stroke="black" stroke-width="1" fill="blue" opacity="1" tooltip="enable"><title>(0.0794343,2)</title></rect><rect x="582" y="200" width="6" height="0" stroke="black" stroke-width="1" fill="blue" opacity="1" tooltip="enable"><title>(0.0802618,0)</title></rect><rect x="588" y="200" width="6" height="0" stroke="black" stroke-width="1" fill="blue" opacity="1" tooltip="enable"><title>(0.0810892,0)</title></rect><rect x="594" y="199.853" width="6" height="0.146951" stroke="black" stroke-width="1" fill="blue" opacity="1" tooltip="enable"><title>(0.0819167,1)</title></rect><text x="30" y="240" font-size="20" fill="black">0</text>
<text x="600" y="240" font-size="20" fill="black">0.0827441</text>
<polyline points="0,220,600,220" stroke="black" stroke-width="1" fill="none" opacity="1"/>
<text x="720" y="20" font-size="20" fill="black">1361</text>
<text x="720" y="200" font-size="20" fill="black">0</text>
<polyline points="660,0,660,200" stroke="black" stroke-width="1" fill="none" opacity="1"/>
</svg>