<?xml version="1.0" standalone="yes"?>
<!-- SVG graphic -->
<svg xmlns='http://www.w3.org/2000/svg' xmlns:xlink='http://www.w3.org/1999/xlink'
 version="1.1">
<rect x="0" y="0" width="6" height="200" stroke="black" stroke-width="1" fill="blue" opacity="1" tooltip="enable"><title>(0,2816)</title></rect><rect x="6" y="112.074" width="6" height="87.9261" stroke="black" stroke-width="1" fill="blue" opacity="1" tooltip="enable"><title>(0.00159656,1238)</title></rect><rect x="12" y="154.688" width="6" height="45.3125" stroke="black" stroke-width="1" fill="blue" opacity="1" tooltip="enable"><title>(0.00319313,638)</title></rect><rect x="18" y="176.278" width="6" height="23.7216" stroke="black" stroke-width="1" fill="blue" opacity="1" tooltip="enable"><title>(0.00478969,334)</title></rect><rect x="24" y="184.162" width="6" height="15.8381" stroke="black" stroke-width="1" fill="blue" opacity="1" tooltip="enable"><title>(0.00638625,223)</title></rect><rect x="30" y="183.594" width="6" height="16.4062" stroke="black" stroke-width="1" fill="blue" opacity="1" tooltip="enable"><title>(0.00798281,231)</title></rect><rect x="36" y="185.369" width="6" height="14.6307" stroke="black" stroke-width="1" fill="blue" opacity="1" tooltip="enable"><title>(0.00957938,206)</title></rect><rect x="42" y="185.795" width="6" height="14.2045" stroke="black" stroke-width="1" fill="blue" opacity="1" tooltip="enable"><title>(0.0111759,200)</title></rect><rect x="48" y="186.435" width="6" height="13.5653" stroke="black" stroke-width="1" fill="blue" opacity="1" tooltip="enable"><title>(0.0127725,191)</title></rect><rect x="54" y="189.986" width="6" height="10.0142" stroke="black" stroke-width="1" fill="blue" opacity="1" tooltip="enable"><title>(0.0143691,141)</title></rect><rect x="60" y="187.855" width="6" height="12.1449" stroke="black" stroke-width="1" fill="blue" opacity="1" tooltip="enable"><title>(0.0159656,171)</title></rect><rect x="66" y="191.122" width="6" height="8.87784" stroke="black" stroke-width="1" fill="blue" opacity="1" tooltip="enable"><title>(0.0175622,125)</title></rect><rect x="72" y="192.045" width="6" height="7.95455" stroke="black" stroke-width="1" fill="blue" opacity="1" tooltip="enable"><title>(0.0191588,112)</title></rect><rect x="78" y="192.472" width="6" height="7.52841" stroke="black" stroke-width="1" fill="blue" opacity="1" tooltip="enable"><title>(0.0207553,106)</title></rect><rect x="84" y="194.744" width="6" height="5.25568" stroke="black" stroke-width="1" fill="blue" opacity="1" tooltip="enable"><title>(0.0223519,74)</title></rect><rect x="90" y="194.886" width="6" height="5.11364" stroke="black" stroke-width="1" fill="blue" opacity="1" tooltip="enable"><title>(0.0239484,72)</title></rect><rect x="96" y="194.034" width="6" height="5.96591" stroke="black" stroke-width="1" fill="blue" opacity="1" tooltip="enable"><title>(0.025545,84)</title></rect><rect x="102" y="193.466" width="6" height="6.53409" stroke="black" stroke-width="1" fill="blue" opacity="1" tooltip="enable"><title>(0.0271416,92)</title></rect><rect x="108" y="194.318" width="6" height="5.68182" stroke="black" stroke-width="1" fill="blue" opacity="1" tooltip="enable"><title>(0.0287381,80)</title></rect><rect x="114" y="194.957" width="6" height="5.04261" stroke="black" stroke-width="1" fill="blue" opacity="1" tooltip="enable"><title>(0.0303347,71)</title></rect><rect x="120" y="195.81" width="6" height="4.19034" stroke="black" stroke-width="1" fill="blue" opacity="1" tooltip="enable"><title>(0.0319313,59)</title></rect><rect x="126" y="195.384" width="6" height="4.61648" stroke="black" stroke-width="1" fill="blue" opacity="1" tooltip="enable"><title>(0.0335278,65)</title></rect><rect x="132" y="195.241" width="6" height="4.75852" stroke="black" stroke-width="1" fill="blue" opacity="1" tooltip="enable"><title>(0.0351244,67)</title></rect><rect x="138" y="195.028" width="6" height="4.97159" stroke="black" stroke-width="1" fill="blue" opacity="1" tooltip="enable"><title>(0.0367209,70)</title></rect><rect x="144" y="195.597" width="6" height="4.40341" stroke="black" stroke-width="1" fill="blue" opacity="1" tooltip="enable"><title>(0.0383175,62)</title></rect><rect x="150" y="196.449" width="6" height="3.55114" stroke="black" stroke-width="1" fill="blue" opacity="1" tooltip="enable"><title>(0.0399141,50)</title></rect><rect x="156" y="195.739" width="6" height="4.26136" stroke="black" stroke-width="1" fill="blue" opacity="1" tooltip="enable"><title>(0.0415106,60)</title></rect><rect x="162" y="196.165" width="6" height="3.83523" stroke="black" stroke-width="1" fill="blue" opacity="1" tooltip="enable"><title>(0.0431072,54)</title></rect><rect x="168" y="196.875" width="6" height="3.125" stroke="black" stroke-width="1" fill="blue" opacity="1" tooltip="enable"><title>(0.0447038,44)</title></rect><rect x="174" y="198.011" width="6" height="1.98864" stroke="black" stroke-width="1" fill="blue" opacity="1" tooltip="enable"><title>(0.0463003,28)</title></rect><rect x="180" y="196.591" width="6" height="3.40909" stroke="black" stroke-width="1" fill="blue" opacity="1" tooltip="enable"><title>(0.0478969,48)</title></rect><rect x="186" y="197.869" width="6" height="2.13068" stroke="black" stroke-width="1" fill="blue" opacity="1" tooltip="enable"><title>(0.0494934,30)</title></rect><rect x="192" y="198.722" width="6" height="1.27841" stroke="black" stroke-width="1" fill="blue" opacity="1" tooltip="enable"><title>(0.05109,18)</title></rect><rect x="198" y="198.864" width="6" height="1.13636" stroke="black" stroke-width="1" fill="blue" opacity="1" tooltip="enable"><title>(0.0526866,16)</title></rect><rect x="204" y="199.006" width="6" height="0.994318" stroke="black" stroke-width="1" fill="blue" opacity="1" tooltip="enable"><title>(0.0542831,14)</title></rect><rect x="210" y="199.006" width="6" height="0.994318" stroke="black" stroke-width="1" fill="blue" opacity="1" tooltip="enable"><title>(0.0558797,14)</title></rect><rect x="216" y="198.722" width="6" height="1.27841" stroke="black" stroke-width="1" fill="blue" opacity="1" tooltip="enable"><title>(0.0574763,18)</title></rect><rect x="222" y="199.148" width="6" height="0.852273" stroke="black" stroke-width="1" fill="blue" opacity="1" tooltip="enable"><title>(0.0590728,12)</title></rect><rect x="228" y="199.574" width="6" height="0.426136" stroke="black" stroke-width="1" fill="blue" opacity="1" tooltip="enable"><title>(0.0606694,6)</title></rect><rect x="234" y="199.574" width="6" height="0.426136" stroke="black" stroke-width="1" fill="blue" opacity="1" tooltip="enable"><title>(0.0622659,6)</title></rect><rect x="240" y="198.58" width="6" height="1.42045" stroke="black" stroke-width="1" fill="blue" opacity="1" tooltip="enable"><title>(0.0638625,20)</title></rect><rect x="246" y="199.148" width="6" height="0.852273" stroke="black" stroke-width="1" fill="blue" opacity="1" tooltip="enable"><title>(0.0654591,12)</title></rect><rect x="252" y="199.219" width="6" height="0.78125" stroke="black" stroke-width="1" fill="blue" opacity="1" tooltip="enable"><title>(0.0670556,11)</title></rect><rect x="258" y="199.645" width="6" height="0.355114" stroke="black" stroke-width="1" fill="blue" opacity="1" tooltip="enable"><title>(0.0686522,5)</title></rect><rect x="264" y="200" width="6" height="0" stroke="black" stroke-width="1" fill="blue" opacity="1" tooltip="enable"><title>(0.0702488,0)</title></rect><rect x="270" y="200" width="6" height="0" stroke="black" stroke-width="1" fill="blue" opacity="1" tooltip="enable"><title>(0.0718453,0)</title></rect><rect x="276" y="200" width="6" height="0" stroke="black" stroke-width="1" fill="blue" opacity="1" tooltip="enable"><title>(0.0734419,0)</title></rect><rect x="282" y="200" width="6" height="0" stroke="black" stroke-width="1" fill="blue" opacity="1" tooltip="enable"><title>(0.0750384,0)</title></rect><rect x="288" y="199.858" width="6" height="0.142045" stroke="black" stroke-width="1" fill="blue" opacity="1" tooltip="enable"><title>(0.076635,2)</title></rect><rect x="294" y="200" width="6" height="0" stroke="black" stroke-width="1" fill="blue" opacity="1" tooltip="enable"><title>(0.0782316,0)</title></rect><rect x="300" y="200" width="6" height="0" stroke="black" stroke-width="1" fill="blue" opacity="1" tooltip="enable"><title>(0.0798281,0)</title></rect><rect x="306" y="200" width="6" height="0" stroke="black" stroke-width="1" fill="blue" opacity="1" tooltip="enable"><title>(0.0814247,0)</title></rect><rect x="312" y="200" width="6" height="0" stroke="black" stroke-width="1" fill="blue" opacity="1" tooltip="enable"><title>(0.0830213,0)</title></rect><rect x="318" y="200" width="6" height="0" stroke="black" stroke-width="1" fill="blue" opacity="1" tooltip="enable"><title>(0.0846178,0)</title></rect><rect x="324" y="200" width="6" height="0" stroke="black" stroke-width="1" fill="blue" opacity="1" tooltip="enable"><title>(0.0862144,0)</title></rect><rect x="330" y="200" width="6" height="0" stroke="black" stroke-width="1" fill="blue" opacity="1" tooltip="enable"><title>(0.0878109,0)</title></rect><rect x="336" y="200" width="6" height="0" stroke="black" stroke-width="1" fill="blue" opacity="1" tooltip="enable"><title>(0.0894075,0)</title></rect><rect x="342" y="200" width="6" height="0" stroke="black" stroke-width="1" fill="blue" opacity="1" tooltip="enable"><title>(0.0910041,0)</title></rect><rect x="348" y="200" width="6" height="0" stroke="black" stroke-width="1" fill="blue" opacity="1" tooltip="enable"><title>(0.0926006,0)</title></rect><rect x="354" y="200" width="6" height="0" stroke="black" stroke-width="1" fill="blue" opacity="1" tooltip="enable"><title>(0.0941972,0)</title></rect><rect x="360" y="200" width="6" height="0" stroke="black" stroke-width="1" fill="blue" opacity="1" tooltip="enable"><title>(0.0957938,0)</title></rect><rect x="366" y="200" width="6" height="0" stroke="black" stroke-width="1" fill="blue" opacity="1" tooltip="enable"><title>(0.0973903,0)</title></rect><rect x="372" y="200" width="6" height="0" stroke="black" stroke-width="1" fill="blue" opacity="1" tooltip="enable"><title>(0.0989869,0)</title></rect><rect x="378" y="200" width="6" height="0" stroke="black" stroke-width="1" fill="blue" opacity="1" tooltip="enable"><title>(0.100583,0)</title></rect><rect x="384" y="200" width="6" height="0" stroke="black" stroke-width="1" fill="blue" opacity="1" tooltip="enable"><title>(0.10218,0)</title></rect><rect x="390" y="200" width="6" height="0" stroke="black" stroke-width="1" fill="blue" opacity="1" tooltip="enable"><title>(0.103777,0)</title></rect><rect x="396" y="200" width="6" height="0" stroke="black" stroke-width="1" fill="blue" opacity="1" tooltip="enable"><title>(0.105373,0)</title></rect><rect x="402" y="200" width="6" height="0" stroke="black" stroke-width="1" fill="blue" opacity="1" tooltip="enable"><title>(0.10697,0)</title></rect><rect x="408" y="200" width="6" height="0" stroke="black" stroke-width="1" fill="blue" opacity="1" tooltip="enable"><title>(0.108566,0)</title></rect><rect x="414" y="200" width="6" height="0" stroke="black" stroke-width="1" fill="blue" opacity="1" tooltip="enable"><title>(0.110163,0)</title></rect><rect x="420" y="200" width="6" height="0" stroke="black" stroke-width="1" fill="blue" opacity="1" tooltip="enable"><title>(0.111759,0)</title></rect><rect x="426" y="200" width="6" height="0" stroke="black" stroke-width="1" fill="blue" opacity="1" tooltip="enable"><title>(0.113356,0)</title></rect><rect x="432" y="200" width="6" height="0" stroke="black" stroke-width="1" fill="blue" opacity="1" tooltip="enable"><title>(0.114953,0)</title></rect><rect x="438" y="200" width="6" height="0" stroke="black" stroke-width="1" fill="blue" opacity="1" tooltip="enable"><title>(0.116549,0)</title></rect><rect x="444" y="200" width="6" height="0" stroke="black" stroke-width="1" fill="blue" opacity="1" tooltip="enable"><title>(0.118146,0)</title></rect><rect x="450" y="200" width="6" height="0" stroke="black" stroke-width="1" fill="blue" opacity="1" tooltip="enable"><title>(0.119742,0)</title></rect><rect x="456" y="200" width="6" height="0" stroke="black" stroke-width="1" fill="blue" opacity="1" tooltip="enable"><title>(0.121339,0)</title></rect><rect x="462" y="200" width="6" height="0" stroke="black" stroke-width="1" fill="blue" opacity="1" tooltip="enable"><title>(0.122935,0)</title></rect><rect x="468" y="200" width="6" height="0" stroke="black" stroke-width="1" fill="blue" opacity="1" tooltip="enable"><title>(0.124532,0)</title></rect><rect x="474" y="200" width="6" height="0" stroke="black" stroke-width="1" fill="blue" opacity="1" tooltip="enable"><title>(0.126128,0)</title></rect><rect x="480" y="200" width="6" height="0" stroke="black" stroke-width="1" fill="blue" opacity="1" tooltip="enable"><title>(0.127725,0)</title></rect><rect x="486" y="200" width="6" height="0" stroke="black" stroke-width="1" fill="blue" opacity="1" tooltip="enable"><title>(0.129322,0)</title></rect><rect x="492" y="200" width="6" height="0" stroke="black" stroke-width="1" fill="blue" opacity="1" tooltip="enable"><title>(0.130918,0)</title></rect><rect x="498" y="200" width="6" height="0" stroke="black" stroke-width="1" fill="blue" opacity="1" tooltip="enable"><title>(0.132515,0)</title></rect><rect x="504" y="200" width="6" height="0" stroke="black" stroke-width="1" fill="blue" opacity="1" tooltip="enable"><title>(0.134111,0)</title></rect><rect x="510" y="200" width="6" height="0" stroke="black" stroke-width="1" fill="blue" opacity="1" tooltip="enable"><title>(0.135708,0)</title></rect><rect x="516" y="200" width="6" height="0" stroke="black" stroke-width="1" fill="blue" opacity="1" tooltip="enable"><title>(0.137304,0)</title></rect><rect x="522" y="200" width="6" height="0" stroke="black" stroke-width="1" fill="blue" opacity="1" tooltip="enable"><title>(0.138901,0)</title></rect><rect x="528" y="200" width="6" height="0" stroke="black" stroke-width="1" fill="blue" opacity="1" tooltip="enable"><title>(0.140498,0)</title></rect><rect x="534" y="200" width="6" height="0" stroke="black" stroke-width="1" fill="blue" opacity="1" tooltip="enable"><title>(0.142094,0)</title></rect><rect x="540" y="200" width="6" height="0" stroke="black" stroke-width="1" fill="blue" opacity="1" tooltip="enable"><title>(0.143691,0)</title></rect><rect x="546" y="200" width="6" height="0" stroke="black" stroke-width="1" fill="blue" opacity="1" tooltip="enable"><title>(0.145287,0)</title></rect><rect x="552" y="200" width="6" height="0" stroke="black" stroke-width="1" fill="blue" opacity="1" tooltip="enable"><title>(0.146884,0)</title></rect><rect x="558" y="200" width="6" height="0" stroke="black" stroke-width="1" fill="blue" opacity="1" tooltip="enable"><title>(0.14848,0)</title></rect><rect x="564" y="200" width="6" height="0" stroke="black" stroke-width="1" fill="blue" opacity="1" tooltip="enable"><title>(0.150077,0)</title></rect><rect x="570" y="200" width="6" height="0" stroke="black" stroke-width="1" fill="blue" opacity="1" tooltip="enable"><title>(0.151673,0)</title></rect><rect x="576" y="200" width="6" height="0" stroke="black" stroke-width="1" fill="blue" opacity="1" tooltip="enable"><title>(0.15327,0)</title></rect><rect x="582" y="200" width="6" height="0" stroke="black" stroke-width="1" fill="blue" opacity="1" tooltip="enable"><title>(0.154867,0)</title></rect><rect x="588" y="199.858" width="6" height="0.142045" stroke="black" stroke-width="1" fill="blue" opacity="1" tooltip="enable"><title>(0.156463,2)</title></rect><rect x="594" y="199.929" width="6" height="0.0710227" stroke="black" stroke-width="1" fill="blue" opacity="1" tooltip="enable"><title>(0.15806,1)</title></rect><text x="30" y="240" font-size="20" fill="black">0</text>
<text x="600" y="240" font-size="20" fill="black">0.159656</text>
<polyline points="0,220,600,220" stroke="black" stroke-width="1" fill="none" opacity="1"/>
<text x="720" y="20" font-size="20" fill="black">2816</text>
<text x="720" y="200" font-size="20" fill="black">0</text>
<polyline points="660,0,660,200" stroke="black" stroke-width="1" fill="none" opacity="1"/>
</svg>