<?xml version="1.0" standalone="yes"?>
<!-- SVG graphic -->
<svg xmlns='http://www.w3.org/2000/svg' xmlns:xlink='http://www.w3.org/1999/xlink'
 version="1.1">
<rect x="0" y="0" width="6" height="200" stroke="black" stroke-width="1" fill="blue" opacity="1" tooltip="enable"><title>(0,3290)</title></rect><rect x="6" y="147.842" width="6" height="52.1581" stroke="black" stroke-width="1" fill="blue" opacity="1" tooltip="enable"><title>(0.000730207,858)</title></rect><rect x="12" y="189.422" width="6" height="10.5775" stroke="black" stroke-width="1" fill="blue" opacity="1" tooltip="enable"><title>(0.00146041,174)</title></rect><rect x="18" y="194.164" width="6" height="5.83587" stroke="black" stroke-width="1" fill="blue" opacity="1" tooltip="enable"><title>(0.00219062,96)</title></rect><rect x="24" y="194.043" width="6" height="5.95745" stroke="black" stroke-width="1" fill="blue" opacity="1" tooltip="enable"><title>(0.00292083,98)</title></rect><rect x="30" y="193.799" width="6" height="6.20061" stroke="black" stroke-width="1" fill="blue" opacity="1" tooltip="enable"><title>(0.00365104,102)</title></rect><rect x="36" y="194.043" width="6" height="5.95745" stroke="black" stroke-width="1" fill="blue" opacity="1" tooltip="enable"><title>(0.00438124,98)</title></rect><rect x="42" y="194.286" width="6" height="5.71429" stroke="black" stroke-width="1" fill="blue" opacity="1" tooltip="enable"><title>(0.00511145,94)</title></rect><rect x="48" y="192.827" width="6" height="7.17325" stroke="black" stroke-width="1" fill="blue" opacity="1" tooltip="enable"><title>(0.00584166,118)</title></rect><rect x="54" y="193.556" width="6" height="6.44377" stroke="black" stroke-width="1" fill="blue" opacity="1" tooltip="enable"><title>(0.00657186,106)</title></rect><rect x="60" y="194.164" width="6" height="5.83587" stroke="black" stroke-width="1" fill="blue" opacity="1" tooltip="enable"><title>(0.00730207,96)</title></rect><rect x="66" y="193.617" width="6" height="6.38298" stroke="black" stroke-width="1" fill="blue" opacity="1" tooltip="enable"><title>(0.00803228,105)</title></rect><rect x="72" y="194.347" width="6" height="5.6535" stroke="black" stroke-width="1" fill="blue" opacity="1" tooltip="enable"><title>(0.00876249,93)</title></rect><rect x="78" y="193.799" width="6" height="6.20061" stroke="black" stroke-width="1" fill="blue" opacity="1" tooltip="enable"><title>(0.00949269,102)</title></rect><rect x="84" y="194.833" width="6" height="5.16717" stroke="black" stroke-width="1" fill="blue" opacity="1" tooltip="enable"><title>(0.0102229,85)</title></rect><rect x="90" y="193.739" width="6" height="6.2614" stroke="black" stroke-width="1" fill="blue" opacity="1" tooltip="enable"><title>(0.0109531,103)</title></rect><rect x="96" y="194.468" width="6" height="5.53192" stroke="black" stroke-width="1" fill="blue" opacity="1" tooltip="enable"><title>(0.0116833,91)</title></rect><rect x="102" y="194.529" width="6" height="5.47112" stroke="black" stroke-width="1" fill="blue" opacity="1" tooltip="enable"><title>(0.0124135,90)</title></rect><rect x="108" y="194.103" width="6" height="5.89666" stroke="black" stroke-width="1" fill="blue" opacity="1" tooltip="enable"><title>(0.0131437,97)</title></rect><rect x="114" y="194.286" width="6" height="5.71429" stroke="black" stroke-width="1" fill="blue" opacity="1" tooltip="enable"><title>(0.0138739,94)</title></rect><rect x="120" y="193.86" width="6" height="6.13982" stroke="black" stroke-width="1" fill="blue" opacity="1" tooltip="enable"><title>(0.0146041,101)</title></rect><rect x="126" y="194.954" width="6" height="5.04559" stroke="black" stroke-width="1" fill="blue" opacity="1" tooltip="enable"><title>(0.0153343,83)</title></rect><rect x="132" y="197.143" width="6" height="2.85714" stroke="black" stroke-width="1" fill="blue" opacity="1" tooltip="enable"><title>(0.0160646,47)</title></rect><rect x="138" y="196.292" width="6" height="3.70821" stroke="black" stroke-width="1" fill="blue" opacity="1" tooltip="enable"><title>(0.0167948,61)</title></rect><rect x="144" y="194.954" width="6" height="5.04559" stroke="black" stroke-width="1" fill="blue" opacity="1" tooltip="enable"><title>(0.017525,83)</title></rect><rect x="150" y="194.954" width="6" height="5.04559" stroke="black" stroke-width="1" fill="blue" opacity="1" tooltip="enable"><title>(0.0182552,83)</title></rect><rect x="156" y="195.562" width="6" height="4.43769" stroke="black" stroke-width="1" fill="blue" opacity="1" tooltip="enable"><title>(0.0189854,73)</title></rect><rect x="162" y="197.386" width="6" height="2.61398" stroke="black" stroke-width="1" fill="blue" opacity="1" tooltip="enable"><title>(0.0197156,43)</title></rect><rect x="168" y="195.015" width="6" height="4.9848" stroke="black" stroke-width="1" fill="blue" opacity="1" tooltip="enable"><title>(0.0204458,82)</title></rect><rect x="174" y="194.833" width="6" height="5.16717" stroke="black" stroke-width="1" fill="blue" opacity="1" tooltip="enable"><title>(0.021176,85)</title></rect><rect x="180" y="195.927" width="6" height="4.07295" stroke="black" stroke-width="1" fill="blue" opacity="1" tooltip="enable"><title>(0.0219062,67)</title></rect><rect x="186" y="195.866" width="6" height="4.13374" stroke="black" stroke-width="1" fill="blue" opacity="1" tooltip="enable"><title>(0.0226364,68)</title></rect><rect x="192" y="195.319" width="6" height="4.68085" stroke="black" stroke-width="1" fill="blue" opacity="1" tooltip="enable"><title>(0.0233666,77)</title></rect><rect x="198" y="197.143" width="6" height="2.85714" stroke="black" stroke-width="1" fill="blue" opacity="1" tooltip="enable"><title>(0.0240968,47)</title></rect><rect x="204" y="196.9" width="6" height="3.1003" stroke="black" stroke-width="1" fill="blue" opacity="1" tooltip="enable"><title>(0.024827,51)</title></rect><rect x="210" y="194.833" width="6" height="5.16717" stroke="black" stroke-width="1" fill="blue" opacity="1" tooltip="enable"><title>(0.0255572,85)</title></rect><rect x="216" y="195.866" width="6" height="4.13374" stroke="black" stroke-width="1" fill="blue" opacity="1" tooltip="enable"><title>(0.0262875,68)</title></rect><rect x="222" y="195.319" width="6" height="4.68085" stroke="black" stroke-width="1" fill="blue" opacity="1" tooltip="enable"><title>(0.0270177,77)</title></rect><rect x="228" y="197.082" width="6" height="2.91793" stroke="black" stroke-width="1" fill="blue" opacity="1" tooltip="enable"><title>(0.0277479,48)</title></rect><rect x="234" y="196.778" width="6" height="3.22188" stroke="black" stroke-width="1" fill="blue" opacity="1" tooltip="enable"><title>(0.0284781,53)</title></rect><rect x="240" y="197.447" width="6" height="2.55319" stroke="black" stroke-width="1" fill="blue" opacity="1" tooltip="enable"><title>(0.0292083,42)</title></rect><rect x="246" y="196.231" width="6" height="3.769" stroke="black" stroke-width="1" fill="blue" opacity="1" tooltip="enable"><title>(0.0299385,62)</title></rect><rect x="252" y="198.298" width="6" height="1.70213" stroke="black" stroke-width="1" fill="blue" opacity="1" tooltip="enable"><title>(0.0306687,28)</title></rect><rect x="258" y="197.994" width="6" height="2.00608" stroke="black" stroke-width="1" fill="blue" opacity="1" tooltip="enable"><title>(0.0313989,33)</title></rect><rect x="264" y="197.629" width="6" height="2.37082" stroke="black" stroke-width="1" fill="blue" opacity="1" tooltip="enable"><title>(0.0321291,39)</title></rect><rect x="270" y="198.176" width="6" height="1.82371" stroke="black" stroke-width="1" fill="blue" opacity="1" tooltip="enable"><title>(0.0328593,30)</title></rect><rect x="276" y="198.298" width="6" height="1.70213" stroke="black" stroke-width="1" fill="blue" opacity="1" tooltip="enable"><title>(0.0335895,28)</title></rect><rect x="282" y="197.69" width="6" height="2.31003" stroke="black" stroke-width="1" fill="blue" opacity="1" tooltip="enable"><title>(0.0343197,38)</title></rect><rect x="288" y="198.845" width="6" height="1.15502" stroke="black" stroke-width="1" fill="blue" opacity="1" tooltip="enable"><title>(0.0350499,19)</title></rect><rect x="294" y="198.48" width="6" height="1.51976" stroke="black" stroke-width="1" fill="blue" opacity="1" tooltip="enable"><title>(0.0357802,25)</title></rect><rect x="300" y="198.055" width="6" height="1.94529" stroke="black" stroke-width="1" fill="blue" opacity="1" tooltip="enable"><title>(0.0365104,32)</title></rect><rect x="306" y="198.541" width="6" height="1.45897" stroke="black" stroke-width="1" fill="blue" opacity="1" tooltip="enable"><title>(0.0372406,24)</title></rect><rect x="312" y="198.784" width="6" height="1.21581" stroke="black" stroke-width="1" fill="blue" opacity="1" tooltip="enable"><title>(0.0379708,20)</title></rect><rect x="318" y="199.149" width="6" height="0.851064" stroke="black" stroke-width="1" fill="blue" opacity="1" tooltip="enable"><title>(0.038701,14)</title></rect><rect x="324" y="198.298" width="6" height="1.70213" stroke="black" stroke-width="1" fill="blue" opacity="1" tooltip="enable"><title>(0.0394312,28)</title></rect><rect x="330" y="198.419" width="6" height="1.58055" stroke="black" stroke-width="1" fill="blue" opacity="1" tooltip="enable"><title>(0.0401614,26)</title></rect><rect x="336" y="199.453" width="6" height="0.547112" stroke="black" stroke-width="1" fill="blue" opacity="1" tooltip="enable"><title>(0.0408916,9)</title></rect><rect x="342" y="199.453" width="6" height="0.547112" stroke="black" stroke-width="1" fill="blue" opacity="1" tooltip="enable"><title>(0.0416218,9)</title></rect><rect x="348" y="199.392" width="6" height="0.607903" stroke="black" stroke-width="1" fill="blue" opacity="1" tooltip="enable"><title>(0.042352,10)</title></rect><rect x="354" y="199.392" width="6" height="0.607903" stroke="black" stroke-width="1" fill="blue" opacity="1" tooltip="enable"><title>(0.0430822,10)</title></rect><rect x="360" y="199.635" width="6" height="0.364742" stroke="black" stroke-width="1" fill="blue" opacity="1" tooltip="enable"><title>(0.0438124,6)</title></rect><rect x="366" y="199.21" width="6" height="0.790274" stroke="black" stroke-width="1" fill="blue" opacity="1" tooltip="enable"><title>(0.0445426,13)</title></rect><rect x="372" y="199.696" width="6" height="0.303951" stroke="black" stroke-width="1" fill="blue" opacity="1" tooltip="enable"><title>(0.0452728,5)</title></rect><rect x="378" y="199.635" width="6" height="0.364742" stroke="black" stroke-width="1" fill="blue" opacity="1" tooltip="enable"><title>(0.046003,6)</title></rect><rect x="384" y="199.878" width="6" height="0.121581" stroke="black" stroke-width="1" fill="blue" opacity="1" tooltip="enable"><title>(0.0467333,2)</title></rect><rect x="390" y="199.878" width="6" height="0.121581" stroke="black" stroke-width="1" fill="blue" opacity="1" tooltip="enable"><title>(0.0474635,2)</title></rect><rect x="396" y="199.514" width="6" height="0.486322" stroke="black" stroke-width="1" fill="blue" opacity="1" tooltip="enable"><title>(0.0481937,8)</title></rect><rect x="402" y="199.392" width="6" height="0.607903" stroke="black" stroke-width="1" fill="blue" opacity="1" tooltip="enable"><title>(0.0489239,10)</title></rect><rect x="408" y="199.514" width="6" height="0.486322" stroke="black" stroke-width="1" fill="blue" opacity="1" tooltip="enable"><title>(0.0496541,8)</title></rect><rect x="414" y="199.514" width="6" height="0.486322" stroke="black" stroke-width="1" fill="blue" opacity="1" tooltip="enable"><title>(0.0503843,8)</title></rect><rect x="420" y="199.453" width="6" height="0.547112" stroke="black" stroke-width="1" fill="blue" opacity="1" tooltip="enable"><title>(0.0511145,9)</title></rect><rect x="426" y="199.818" width="6" height="0.182371" stroke="black" stroke-width="1" fill="blue" opacity="1" tooltip="enable"><title>(0.0518447,3)</title></rect><rect x="432" y="200" width="6" height="0" stroke="black" stroke-width="1" fill="blue" opacity="1" tooltip="enable"><title>(0.0525749,0)</title></rect><rect x="438" y="199.757" width="6" height="0.243161" stroke="black" stroke-width="1" fill="blue" opacity="1" tooltip="enable"><title>(0.0533051,4)</title></rect><rect x="444" y="199.635" width="6" height="0.364742" stroke="black" stroke-width="1" fill="blue" opacity="1" tooltip="enable"><title>(0.0540353,6)</title></rect><rect x="450" y="199.878" width="6" height="0.121581" stroke="black" stroke-width="1" fill="blue" opacity="1" tooltip="enable"><title>(0.0547655,2)</title></rect><rect x="456" y="199.878" width="6" height="0.121581" stroke="black" stroke-width="1" fill="blue" opacity="1" tooltip="enable"><title>(0.0554957,2)</title></rect><rect x="462" y="200" width="6" height="0" stroke="black" stroke-width="1" fill="blue" opacity="1" tooltip="enable"><title>(0.0562259,0)</title></rect><rect x="468" y="200" width="6" height="0" stroke="black" stroke-width="1" fill="blue" opacity="1" tooltip="enable"><title>(0.0569562,0)</title></rect><rect x="474" y="200" width="6" height="0" stroke="black" stroke-width="1" fill="blue" opacity="1" tooltip="enable"><title>(0.0576864,0)</title></rect><rect x="480" y="200" width="6" height="0" stroke="black" stroke-width="1" fill="blue" opacity="1" tooltip="enable"><title>(0.0584166,0)</title></rect><rect x="486" y="200" width="6" height="0" stroke="black" stroke-width="1" fill="blue" opacity="1" tooltip="enable"><title>(0.0591468,0)</title></rect><rect x="492" y="200" width="6" height="0" stroke="black" stroke-width="1" fill="blue" opacity="1" tooltip="enable"><title>(0.059877,0)</title></rect><rect x="498" y="200" width="6" height="0" stroke="black" stroke-width="1" fill="blue" opacity="1" tooltip="enable"><title>(0.0606072,0)</title></rect><rect x="504" y="200" width="6" height="0" stroke="black" stroke-width="1" fill="blue" opacity="1" tooltip="enable"><title>(0.0613374,0)</title></rect><rect x="510" y="200" width="6" height="0" stroke="black" stroke-width="1" fill="blue" opacity="1" tooltip="enable"><title>(0.0620676,0)</title></rect><rect x="516" y="199.878" width="6" height="0.121581" stroke="black" stroke-width="1" fill="blue" opacity="1" tooltip="enable"><title>(0.0627978,2)</title></rect><rect x="522" y="200" width="6" height="0" stroke="black" stroke-width="1" fill="blue" opacity="1" tooltip="enable"><title>(0.063528,0)</title></rect><rect x="528" y="199.939" width="6" height="0.0607903" stroke="black" stroke-width="1" fill="blue" opacity="1" tooltip="enable"><title>(0.0642582,1)</title></rect><rect x="534" y="199.939" width="6" height="0.0607903" stroke="black" stroke-width="1" fill="blue" opacity="1" tooltip="enable"><title>(0.0649884,1)</title></rect><rect x="540" y="199.878" width="6" height="0.121581" stroke="black" stroke-width="1" fill="blue" opacity="1" tooltip="enable"><title>(0.0657186,2)</title></rect><rect x="546" y="200" width="6" height="0" stroke="black" stroke-width="1" fill="blue" opacity="1" tooltip="enable"><title>(0.0664489,0)</title></rect><rect x="552" y="200" width="6" height="0" stroke="black" stroke-width="1" fill="blue" opacity="1" tooltip="enable"><title>(0.0671791,0)</title></rect><rect x="558" y="200" width="6" height="0" stroke="black" stroke-width="1" fill="blue" opacity="1" tooltip="enable"><title>(0.0679093,0)</title></rect><rect x="564" y="200" width="6" height="0" stroke="black" stroke-width="1" fill="blue" opacity="1" tooltip="enable"><title>(0.0686395,0)</title></rect><rect x="570" y="200" width="6" height="0" stroke="black" stroke-width="1" fill="blue" opacity="1" tooltip="enable"><title>(0.0693697,0)</title></rect><rect x="576" y="200" width="6" height="0" stroke="black" stroke-width="1" fill="blue" opacity="1" tooltip="enable"><title>(0.0700999,0)</title></rect><rect x="582" y="200" width="6" height="0" stroke="black" stroke-width="1" fill="blue" opacity="1" tooltip="enable"><title>(0.0708301,0)</title></rect><rect x="588" y="200" width="6" height="0" stroke="black" stroke-width="1" fill="blue" opacity="1" tooltip="enable"><title>(0.0715603,0)</title></rect><rect x="594" y="199.939" width="6" height="0.0607903" stroke="black" stroke-width="1" fill="blue" opacity="1" tooltip="enable"><title>(0.0722905,1)</title></rect><text x="30" y="240" font-size="20" fill="black">0</text>
<text x="600" y="240" font-size="20" fill="black">0.0730207</text>
<polyline points="0,220,600,220" stroke="black" stroke-width="1" fill="none" opacity="1"/>
<text x="720" y="20" font-size="20" fill="black">3290</text>
<text x="720" y="200" font-size="20" fill="black">0</text>
<polyline points="660,0,660,200" stroke="black" stroke-width="1" fill="none" opacity="1"/>
</svg>