<?xml version="1.0" standalone="yes"?>
<!-- SVG graphic -->
<svg xmlns='http://www.w3.org/2000/svg' xmlns:xlink='http://www.w3.org/1999/xlink'
 version="1.1">
<rect x="0" y="0" width="6" height="200" stroke="black" stroke-width="1" fill="blue" opacity="1" tooltip="enable"><title>(0,3933)</title></rect><rect x="6" y="173.71" width="6" height="26.2904" stroke="black" stroke-width="1" fill="blue" opacity="1" tooltip="enable"><title>(0.00187823,517)</title></rect><rect x="12" y="188.914" width="6" height="11.0857" stroke="black" stroke-width="1" fill="blue" opacity="1" tooltip="enable"><title>(0.00375646,218)</title></rect><rect x="18" y="191.203" width="6" height="8.79736" stroke="black" stroke-width="1" fill="blue" opacity="1" tooltip="enable"><title>(0.00563469,173)</title></rect><rect x="24" y="189.575" width="6" height="10.4246" stroke="black" stroke-width="1" fill="blue" opacity="1" tooltip="enable"><title>(0.00751292,205)</title></rect><rect x="30" y="189.931" width="6" height="10.0686" stroke="black" stroke-width="1" fill="blue" opacity="1" tooltip="enable"><title>(0.00939116,198)</title></rect><rect x="36" y="192.576" width="6" height="7.42436" stroke="black" stroke-width="1" fill="blue" opacity="1" tooltip="enable"><title>(0.0112694,146)</title></rect><rect x="42" y="192.982" width="6" height="7.01754" stroke="black" stroke-width="1" fill="blue" opacity="1" tooltip="enable"><title>(0.0131476,138)</title></rect><rect x="48" y="190.847" width="6" height="9.15332" stroke="black" stroke-width="1" fill="blue" opacity="1" tooltip="enable"><title>(0.0150258,180)</title></rect><rect x="54" y="193.186" width="6" height="6.81414" stroke="black" stroke-width="1" fill="blue" opacity="1" tooltip="enable"><title>(0.0169041,134)</title></rect><rect x="60" y="192.474" width="6" height="7.52606" stroke="black" stroke-width="1" fill="blue" opacity="1" tooltip="enable"><title>(0.0187823,148)</title></rect><rect x="66" y="191.711" width="6" height="8.28884" stroke="black" stroke-width="1" fill="blue" opacity="1" tooltip="enable"><title>(0.0206605,163)</title></rect><rect x="72" y="193.033" width="6" height="6.96669" stroke="black" stroke-width="1" fill="blue" opacity="1" tooltip="enable"><title>(0.0225388,137)</title></rect><rect x="78" y="193.491" width="6" height="6.50903" stroke="black" stroke-width="1" fill="blue" opacity="1" tooltip="enable"><title>(0.024417,128)</title></rect><rect x="84" y="192.982" width="6" height="7.01754" stroke="black" stroke-width="1" fill="blue" opacity="1" tooltip="enable"><title>(0.0262952,138)</title></rect><rect x="90" y="193.999" width="6" height="6.00051" stroke="black" stroke-width="1" fill="blue" opacity="1" tooltip="enable"><title>(0.0281735,118)</title></rect><rect x="96" y="194.457" width="6" height="5.54284" stroke="black" stroke-width="1" fill="blue" opacity="1" tooltip="enable"><title>(0.0300517,109)</title></rect><rect x="102" y="192.881" width="6" height="7.11925" stroke="black" stroke-width="1" fill="blue" opacity="1" tooltip="enable"><title>(0.0319299,140)</title></rect><rect x="108" y="193.338" width="6" height="6.66158" stroke="black" stroke-width="1" fill="blue" opacity="1" tooltip="enable"><title>(0.0338082,131)</title></rect><rect x="114" y="192.576" width="6" height="7.42436" stroke="black" stroke-width="1" fill="blue" opacity="1" tooltip="enable"><title>(0.0356864,146)</title></rect><rect x="120" y="195.017" width="6" height="4.98347" stroke="black" stroke-width="1" fill="blue" opacity="1" tooltip="enable"><title>(0.0375646,98)</title></rect><rect x="126" y="195.728" width="6" height="4.27155" stroke="black" stroke-width="1" fill="blue" opacity="1" tooltip="enable"><title>(0.0394428,84)</title></rect><rect x="132" y="195.678" width="6" height="4.3224" stroke="black" stroke-width="1" fill="blue" opacity="1" tooltip="enable"><title>(0.0413211,85)</title></rect><rect x="138" y="197.203" width="6" height="2.79685" stroke="black" stroke-width="1" fill="blue" opacity="1" tooltip="enable"><title>(0.0431993,55)</title></rect><rect x="144" y="196.847" width="6" height="3.15281" stroke="black" stroke-width="1" fill="blue" opacity="1" tooltip="enable"><title>(0.0450775,62)</title></rect><rect x="150" y="196.542" width="6" height="3.45792" stroke="black" stroke-width="1" fill="blue" opacity="1" tooltip="enable"><title>(0.0469558,68)</title></rect><rect x="156" y="198.271" width="6" height="1.72896" stroke="black" stroke-width="1" fill="blue" opacity="1" tooltip="enable"><title>(0.048834,34)</title></rect><rect x="162" y="198.169" width="6" height="1.83066" stroke="black" stroke-width="1" fill="blue" opacity="1" tooltip="enable"><title>(0.0507122,36)</title></rect><rect x="168" y="198.068" width="6" height="1.93237" stroke="black" stroke-width="1" fill="blue" opacity="1" tooltip="enable"><title>(0.0525905,38)</title></rect><rect x="174" y="197.966" width="6" height="2.03407" stroke="black" stroke-width="1" fill="blue" opacity="1" tooltip="enable"><title>(0.0544687,40)</title></rect><rect x="180" y="198.576" width="6" height="1.42385" stroke="black" stroke-width="1" fill="blue" opacity="1" tooltip="enable"><title>(0.0563469,28)</title></rect><rect x="186" y="199.085" width="6" height="0.915332" stroke="black" stroke-width="1" fill="blue" opacity="1" tooltip="enable"><title>(0.0582252,18)</title></rect><rect x="192" y="199.085" width="6" height="0.915332" stroke="black" stroke-width="1" fill="blue" opacity="1" tooltip="enable"><title>(0.0601034,18)</title></rect><rect x="198" y="198.678" width="6" height="1.32215" stroke="black" stroke-width="1" fill="blue" opacity="1" tooltip="enable"><title>(0.0619816,26)</title></rect><rect x="204" y="199.39" width="6" height="0.610221" stroke="black" stroke-width="1" fill="blue" opacity="1" tooltip="enable"><title>(0.0638599,12)</title></rect><rect x="210" y="199.39" width="6" height="0.610221" stroke="black" stroke-width="1" fill="blue" opacity="1" tooltip="enable"><title>(0.0657381,12)</title></rect><rect x="216" y="199.288" width="6" height="0.711925" stroke="black" stroke-width="1" fill="blue" opacity="1" tooltip="enable"><title>(0.0676163,14)</title></rect><rect x="222" y="199.39" width="6" height="0.610221" stroke="black" stroke-width="1" fill="blue" opacity="1" tooltip="enable"><title>(0.0694945,12)</title></rect><rect x="228" y="199.491" width="6" height="0.508518" stroke="black" stroke-width="1" fill="blue" opacity="1" tooltip="enable"><title>(0.0713728,10)</title></rect><rect x="234" y="199.797" width="6" height="0.203407" stroke="black" stroke-width="1" fill="blue" opacity="1" tooltip="enable"><title>(0.073251,4)</title></rect><rect x="240" y="199.39" width="6" height="0.610221" stroke="black" stroke-width="1" fill="blue" opacity="1" tooltip="enable"><title>(0.0751292,12)</title></rect><rect x="246" y="199.39" width="6" height="0.610221" stroke="black" stroke-width="1" fill="blue" opacity="1" tooltip="enable"><title>(0.0770075,12)</title></rect><rect x="252" y="199.695" width="6" height="0.305111" stroke="black" stroke-width="1" fill="blue" opacity="1" tooltip="enable"><title>(0.0788857,6)</title></rect><rect x="258" y="199.898" width="6" height="0.101704" stroke="black" stroke-width="1" fill="blue" opacity="1" tooltip="enable"><title>(0.0807639,2)</title></rect><rect x="264" y="199.898" width="6" height="0.101704" stroke="black" stroke-width="1" fill="blue" opacity="1" tooltip="enable"><title>(0.0826422,2)</title></rect><rect x="270" y="200" width="6" height="0" stroke="black" stroke-width="1" fill="blue" opacity="1" tooltip="enable"><title>(0.0845204,0)</title></rect><rect x="276" y="200" width="6" height="0" stroke="black" stroke-width="1" fill="blue" opacity="1" tooltip="enable"><title>(0.0863986,0)</title></rect><rect x="282" y="199.898" width="6" height="0.101704" stroke="black" stroke-width="1" fill="blue" opacity="1" tooltip="enable"><title>(0.0882769,2)</title></rect><rect x="288" y="199.898" width="6" height="0.101704" stroke="black" stroke-width="1" fill="blue" opacity="1" tooltip="enable"><title>(0.0901551,2)</title></rect><rect x="294" y="200" width="6" height="0" stroke="black" stroke-width="1" fill="blue" opacity="1" tooltip="enable"><title>(0.0920333,0)</title></rect><rect x="300" y="200" width="6" height="0" stroke="black" stroke-width="1" fill="blue" opacity="1" tooltip="enable"><title>(0.0939116,0)</title></rect><rect x="306" y="200" width="6" height="0" stroke="black" stroke-width="1" fill="blue" opacity="1" tooltip="enable"><title>(0.0957898,0)</title></rect><rect x="312" y="200" width="6" height="0" stroke="black" stroke-width="1" fill="blue" opacity="1" tooltip="enable"><title>(0.097668,0)</title></rect><rect x="318" y="200" width="6" height="0" stroke="black" stroke-width="1" fill="blue" opacity="1" tooltip="enable"><title>(0.0995462,0)</title></rect><rect x="324" y="200" width="6" height="0" stroke="black" stroke-width="1" fill="blue" opacity="1" tooltip="enable"><title>(0.101424,0)</title></rect><rect x="330" y="200" width="6" height="0" stroke="black" stroke-width="1" fill="blue" opacity="1" tooltip="enable"><title>(0.103303,0)</title></rect><rect x="336" y="199.898" width="6" height="0.101704" stroke="black" stroke-width="1" fill="blue" opacity="1" tooltip="enable"><title>(0.105181,2)</title></rect><rect x="342" y="200" width="6" height="0" stroke="black" stroke-width="1" fill="blue" opacity="1" tooltip="enable"><title>(0.107059,0)</title></rect><rect x="348" y="199.898" width="6" height="0.101704" stroke="black" stroke-width="1" fill="blue" opacity="1" tooltip="enable"><title>(0.108937,2)</title></rect><rect x="354" y="200" width="6" height="0" stroke="black" stroke-width="1" fill="blue" opacity="1" tooltip="enable"><title>(0.110816,0)</title></rect><rect x="360" y="200" width="6" height="0" stroke="black" stroke-width="1" fill="blue" opacity="1" tooltip="enable"><title>(0.112694,0)</title></rect><rect x="366" y="200" width="6" height="0" stroke="black" stroke-width="1" fill="blue" opacity="1" tooltip="enable"><title>(0.114572,0)</title></rect><rect x="372" y="200" width="6" height="0" stroke="black" stroke-width="1" fill="blue" opacity="1" tooltip="enable"><title>(0.11645,0)</title></rect><rect x="378" y="200" width="6" height="0" stroke="black" stroke-width="1" fill="blue" opacity="1" tooltip="enable"><title>(0.118329,0)</title></rect><rect x="384" y="200" width="6" height="0" stroke="black" stroke-width="1" fill="blue" opacity="1" tooltip="enable"><title>(0.120207,0)</title></rect><rect x="390" y="200" width="6" height="0" stroke="black" stroke-width="1" fill="blue" opacity="1" tooltip="enable"><title>(0.122085,0)</title></rect><rect x="396" y="200" width="6" height="0" stroke="black" stroke-width="1" fill="blue" opacity="1" tooltip="enable"><title>(0.123963,0)</title></rect><rect x="402" y="200" width="6" height="0" stroke="black" stroke-width="1" fill="blue" opacity="1" tooltip="enable"><title>(0.125841,0)</title></rect><rect x="408" y="200" width="6" height="0" stroke="black" stroke-width="1" fill="blue" opacity="1" tooltip="enable"><title>(0.12772,0)</title></rect><rect x="414" y="200" width="6" height="0" stroke="black" stroke-width="1" fill="blue" opacity="1" tooltip="enable"><title>(0.129598,0)</title></rect><rect x="420" y="200" width="6" height="0" stroke="black" stroke-width="1" fill="blue" opacity="1" tooltip="enable"><title>(0.131476,0)</title></rect><rect x="426" y="200" width="6" height="0" stroke="black" stroke-width="1" fill="blue" opacity="1" tooltip="enable"><title>(0.133354,0)</title></rect><rect x="432" y="200" width="6" height="0" stroke="black" stroke-width="1" fill="blue" opacity="1" tooltip="enable"><title>(0.135233,0)</title></rect><rect x="438" y="200" width="6" height="0" stroke="black" stroke-width="1" fill="blue" opacity="1" tooltip="enable"><title>(0.137111,0)</title></rect><rect x="444" y="200" width="6" height="0" stroke="black" stroke-width="1" fill="blue" opacity="1" tooltip="enable"><title>(0.138989,0)</title></rect><rect x="450" y="200" width="6" height="0" stroke="black" stroke-width="1" fill="blue" opacity="1" tooltip="enable"><title>(0.140867,0)</title></rect><rect x="456" y="200" width="6" height="0" stroke="black" stroke-width="1" fill="blue" opacity="1" tooltip="enable"><title>(0.142746,0)</title></rect><rect x="462" y="200" width="6" height="0" stroke="black" stroke-width="1" fill="blue" opacity="1" tooltip="enable"><title>(0.144624,0)</title></rect><rect x="468" y="200" width="6" height="0" stroke="black" stroke-width="1" fill="blue" opacity="1" tooltip="enable"><title>(0.146502,0)</title></rect><rect x="474" y="200" width="6" height="0" stroke="black" stroke-width="1" fill="blue" opacity="1" tooltip="enable"><title>(0.14838,0)</title></rect><rect x="480" y="199.898" width="6" height="0.101704" stroke="black" stroke-width="1" fill="blue" opacity="1" tooltip="enable"><title>(0.150258,2)</title></rect><rect x="486" y="200" width="6" height="0" stroke="black" stroke-width="1" fill="blue" opacity="1" tooltip="enable"><title>(0.152137,0)</title></rect><rect x="492" y="200" width="6" height="0" stroke="black" stroke-width="1" fill="blue" opacity="1" tooltip="enable"><title>(0.154015,0)</title></rect><rect x="498" y="200" width="6" height="0" stroke="black" stroke-width="1" fill="blue" opacity="1" tooltip="enable"><title>(0.155893,0)</title></rect><rect x="504" y="200" width="6" height="0" stroke="black" stroke-width="1" fill="blue" opacity="1" tooltip="enable"><title>(0.157771,0)</title></rect><rect x="510" y="200" width="6" height="0" stroke="black" stroke-width="1" fill="blue" opacity="1" tooltip="enable"><title>(0.15965,0)</title></rect><rect x="516" y="200" width="6" height="0" stroke="black" stroke-width="1" fill="blue" opacity="1" tooltip="enable"><title>(0.161528,0)</title></rect><rect x="522" y="200" width="6" height="0" stroke="black" stroke-width="1" fill="blue" opacity="1" tooltip="enable"><title>(0.163406,0)</title></rect><rect x="528" y="200" width="6" height="0" stroke="black" stroke-width="1" fill="blue" opacity="1" tooltip="enable"><title>(0.165284,0)</title></rect><rect x="534" y="200" width="6" height="0" stroke="black" stroke-width="1" fill="blue" opacity="1" tooltip="enable"><title>(0.167163,0)</title></rect><rect x="540" y="200" width="6" height="0" stroke="black" stroke-width="1" fill="blue" opacity="1" tooltip="enable"><title>(0.169041,0)</title></rect><rect x="546" y="200" width="6" height="0" stroke="black" stroke-width="1" fill="blue" opacity="1" tooltip="enable"><title>(0.170919,0)</title></rect><rect x="552" y="200" width="6" height="0" stroke="black" stroke-width="1" fill="blue" opacity="1" tooltip="enable"><title>(0.172797,0)</title></rect><rect x="558" y="200" width="6" height="0" stroke="black" stroke-width="1" fill="blue" opacity="1" tooltip="enable"><title>(0.174675,0)</title></rect><rect x="564" y="200" width="6" height="0" stroke="black" stroke-width="1" fill="blue" opacity="1" tooltip="enable"><title>(0.176554,0)</title></rect><rect x="570" y="200" width="6" height="0" stroke="black" stroke-width="1" fill="blue" opacity="1" tooltip="enable"><title>(0.178432,0)</title></rect><rect x="576" y="200" width="6" height="0" stroke="black" stroke-width="1" fill="blue" opacity="1" tooltip="enable"><title>(0.18031,0)</title></rect><rect x="582" y="200" width="6" height="0" stroke="black" stroke-width="1" fill="blue" opacity="1" tooltip="enable"><title>(0.182188,0)</title></rect><rect x="588" y="200" width="6" height="0" stroke="black" stroke-width="1" fill="blue" opacity="1" tooltip="enable"><title>(0.184067,0)</title></rect><rect x="594" y="199.949" width="6" height="0.0508518" stroke="black" stroke-width="1" fill="blue" opacity="1" tooltip="enable"><title>(0.185945,1)</title></rect><text x="30" y="240" font-size="20" fill="black">0</text>
<text x="600" y="240" font-size="20" fill="black">0.187823</text>
<polyline points="0,220,600,220" stroke="black" stroke-width="1" fill="none" opacity="1"/>
<text x="720" y="20" font-size="20" fill="black">3933</text>
<text x="720" y="200" font-size="20" fill="black">0</text>
<polyline points="660,0,660,200" stroke="black" stroke-width="1" fill="none" opacity="1"/>
</svg>