<?xml version="1.0" standalone="yes"?>
<!-- SVG graphic -->
<svg xmlns='http://www.w3.org/2000/svg' xmlns:xlink='http://www.w3.org/1999/xlink'
 version="1.1">
<rect x="0" y="0" width="6" height="200" stroke="black" stroke-width="1" fill="blue" opacity="1" tooltip="enable"><title>(0,1918)</title></rect><rect x="6" y="27.4244" width="6" height="172.576" stroke="black" stroke-width="1" fill="blue" opacity="1" tooltip="enable"><title>(0.00166106,1655)</title></rect><rect x="12" y="118.144" width="6" height="81.8561" stroke="black" stroke-width="1" fill="blue" opacity="1" tooltip="enable"><title>(0.00332211,785)</title></rect><rect x="18" y="172.471" width="6" height="27.5287" stroke="black" stroke-width="1" fill="blue" opacity="1" tooltip="enable"><title>(0.00498317,264)</title></rect><rect x="24" y="181.335" width="6" height="18.6653" stroke="black" stroke-width="1" fill="blue" opacity="1" tooltip="enable"><title>(0.00664422,179)</title></rect><rect x="30" y="182.586" width="6" height="17.414" stroke="black" stroke-width="1" fill="blue" opacity="1" tooltip="enable"><title>(0.00830528,167)</title></rect><rect x="36" y="180.396" width="6" height="19.6038" stroke="black" stroke-width="1" fill="blue" opacity="1" tooltip="enable"><title>(0.00996633,188)</title></rect><rect x="42" y="183.107" width="6" height="16.8926" stroke="black" stroke-width="1" fill="blue" opacity="1" tooltip="enable"><title>(0.0116274,162)</title></rect><rect x="48" y="181.752" width="6" height="18.2482" stroke="black" stroke-width="1" fill="blue" opacity="1" tooltip="enable"><title>(0.0132884,175)</title></rect><rect x="54" y="180.605" width="6" height="19.3952" stroke="black" stroke-width="1" fill="blue" opacity="1" tooltip="enable"><title>(0.0149495,186)</title></rect><rect x="60" y="186.34" width="6" height="13.6601" stroke="black" stroke-width="1" fill="blue" opacity="1" tooltip="enable"><title>(0.0166106,131)</title></rect><rect x="66" y="180.605" width="6" height="19.3952" stroke="black" stroke-width="1" fill="blue" opacity="1" tooltip="enable"><title>(0.0182716,186)</title></rect><rect x="72" y="180.396" width="6" height="19.6038" stroke="black" stroke-width="1" fill="blue" opacity="1" tooltip="enable"><title>(0.0199327,188)</title></rect><rect x="78" y="184.984" width="6" height="15.0156" stroke="black" stroke-width="1" fill="blue" opacity="1" tooltip="enable"><title>(0.0215937,144)</title></rect><rect x="84" y="184.776" width="6" height="15.2242" stroke="black" stroke-width="1" fill="blue" opacity="1" tooltip="enable"><title>(0.0232548,146)</title></rect><rect x="90" y="186.236" width="6" height="13.7643" stroke="black" stroke-width="1" fill="blue" opacity="1" tooltip="enable"><title>(0.0249158,132)</title></rect><rect x="96" y="186.861" width="6" height="13.1387" stroke="black" stroke-width="1" fill="blue" opacity="1" tooltip="enable"><title>(0.0265769,126)</title></rect><rect x="102" y="187.591" width="6" height="12.4088" stroke="black" stroke-width="1" fill="blue" opacity="1" tooltip="enable"><title>(0.0282379,119)</title></rect><rect x="108" y="186.966" width="6" height="13.0344" stroke="black" stroke-width="1" fill="blue" opacity="1" tooltip="enable"><title>(0.029899,125)</title></rect><rect x="114" y="184.88" width="6" height="15.1199" stroke="black" stroke-width="1" fill="blue" opacity="1" tooltip="enable"><title>(0.03156,145)</title></rect><rect x="120" y="190.719" width="6" height="9.2805" stroke="black" stroke-width="1" fill="blue" opacity="1" tooltip="enable"><title>(0.0332211,89)</title></rect><rect x="126" y="191.658" width="6" height="8.34202" stroke="black" stroke-width="1" fill="blue" opacity="1" tooltip="enable"><title>(0.0348822,80)</title></rect><rect x="132" y="190.198" width="6" height="9.80188" stroke="black" stroke-width="1" fill="blue" opacity="1" tooltip="enable"><title>(0.0365432,94)</title></rect><rect x="138" y="191.867" width="6" height="8.13347" stroke="black" stroke-width="1" fill="blue" opacity="1" tooltip="enable"><title>(0.0382043,78)</title></rect><rect x="144" y="194.056" width="6" height="5.94369" stroke="black" stroke-width="1" fill="blue" opacity="1" tooltip="enable"><title>(0.0398653,57)</title></rect><rect x="150" y="194.995" width="6" height="5.00521" stroke="black" stroke-width="1" fill="blue" opacity="1" tooltip="enable"><title>(0.0415264,48)</title></rect><rect x="156" y="192.179" width="6" height="7.82065" stroke="black" stroke-width="1" fill="blue" opacity="1" tooltip="enable"><title>(0.0431874,75)</title></rect><rect x="162" y="194.578" width="6" height="5.42231" stroke="black" stroke-width="1" fill="blue" opacity="1" tooltip="enable"><title>(0.0448485,52)</title></rect><rect x="168" y="195.203" width="6" height="4.79666" stroke="black" stroke-width="1" fill="blue" opacity="1" tooltip="enable"><title>(0.0465095,46)</title></rect><rect x="174" y="195.308" width="6" height="4.69239" stroke="black" stroke-width="1" fill="blue" opacity="1" tooltip="enable"><title>(0.0481706,45)</title></rect><rect x="180" y="196.976" width="6" height="3.02398" stroke="black" stroke-width="1" fill="blue" opacity="1" tooltip="enable"><title>(0.0498317,29)</title></rect><rect x="186" y="197.08" width="6" height="2.91971" stroke="black" stroke-width="1" fill="blue" opacity="1" tooltip="enable"><title>(0.0514927,28)</title></rect><rect x="192" y="197.706" width="6" height="2.29406" stroke="black" stroke-width="1" fill="blue" opacity="1" tooltip="enable"><title>(0.0531538,22)</title></rect><rect x="198" y="198.54" width="6" height="1.45985" stroke="black" stroke-width="1" fill="blue" opacity="1" tooltip="enable"><title>(0.0548148,14)</title></rect><rect x="204" y="198.123" width="6" height="1.87696" stroke="black" stroke-width="1" fill="blue" opacity="1" tooltip="enable"><title>(0.0564759,18)</title></rect><rect x="210" y="197.706" width="6" height="2.29406" stroke="black" stroke-width="1" fill="blue" opacity="1" tooltip="enable"><title>(0.0581369,22)</title></rect><rect x="216" y="198.957" width="6" height="1.04275" stroke="black" stroke-width="1" fill="blue" opacity="1" tooltip="enable"><title>(0.059798,10)</title></rect><rect x="222" y="199.374" width="6" height="0.625652" stroke="black" stroke-width="1" fill="blue" opacity="1" tooltip="enable"><title>(0.061459,6)</title></rect><rect x="228" y="199.583" width="6" height="0.417101" stroke="black" stroke-width="1" fill="blue" opacity="1" tooltip="enable"><title>(0.0631201,4)</title></rect><rect x="234" y="199.166" width="6" height="0.834202" stroke="black" stroke-width="1" fill="blue" opacity="1" tooltip="enable"><title>(0.0647812,8)</title></rect><rect x="240" y="199.791" width="6" height="0.208551" stroke="black" stroke-width="1" fill="blue" opacity="1" tooltip="enable"><title>(0.0664422,2)</title></rect><rect x="246" y="200" width="6" height="0" stroke="black" stroke-width="1" fill="blue" opacity="1" tooltip="enable"><title>(0.0681033,0)</title></rect><rect x="252" y="199.583" width="6" height="0.417101" stroke="black" stroke-width="1" fill="blue" opacity="1" tooltip="enable"><title>(0.0697643,4)</title></rect><rect x="258" y="200" width="6" height="0" stroke="black" stroke-width="1" fill="blue" opacity="1" tooltip="enable"><title>(0.0714254,0)</title></rect><rect x="264" y="199.166" width="6" height="0.834202" stroke="black" stroke-width="1" fill="blue" opacity="1" tooltip="enable"><title>(0.0730864,8)</title></rect><rect x="270" y="199.583" width="6" height="0.417101" stroke="black" stroke-width="1" fill="blue" opacity="1" tooltip="enable"><title>(0.0747475,4)</title></rect><rect x="276" y="199.479" width="6" height="0.521376" stroke="black" stroke-width="1" fill="blue" opacity="1" tooltip="enable"><title>(0.0764085,5)</title></rect><rect x="282" y="199.896" width="6" height="0.104275" stroke="black" stroke-width="1" fill="blue" opacity="1" tooltip="enable"><title>(0.0780696,1)</title></rect><rect x="288" y="200" width="6" height="0" stroke="black" stroke-width="1" fill="blue" opacity="1" tooltip="enable"><title>(0.0797307,0)</title></rect><rect x="294" y="200" width="6" height="0" stroke="black" stroke-width="1" fill="blue" opacity="1" tooltip="enable"><title>(0.0813917,0)</title></rect><rect x="300" y="199.791" width="6" height="0.208551" stroke="black" stroke-width="1" fill="blue" opacity="1" tooltip="enable"><title>(0.0830528,2)</title></rect><rect x="306" y="199.791" width="6" height="0.208551" stroke="black" stroke-width="1" fill="blue" opacity="1" tooltip="enable"><title>(0.0847138,2)</title></rect><rect x="312" y="199.791" width="6" height="0.208551" stroke="black" stroke-width="1" fill="blue" opacity="1" tooltip="enable"><title>(0.0863749,2)</title></rect><rect x="318" y="199.791" width="6" height="0.208551" stroke="black" stroke-width="1" fill="blue" opacity="1" tooltip="enable"><title>(0.0880359,2)</title></rect><rect x="324" y="199.791" width="6" height="0.208551" stroke="black" stroke-width="1" fill="blue" opacity="1" tooltip="enable"><title>(0.089697,2)</title></rect><rect x="330" y="200" width="6" height="0" stroke="black" stroke-width="1" fill="blue" opacity="1" tooltip="enable"><title>(0.091358,0)</title></rect><rect x="336" y="200" width="6" height="0" stroke="black" stroke-width="1" fill="blue" opacity="1" tooltip="enable"><title>(0.0930191,0)</title></rect><rect x="342" y="199.791" width="6" height="0.208551" stroke="black" stroke-width="1" fill="blue" opacity="1" tooltip="enable"><title>(0.0946801,2)</title></rect><rect x="348" y="200" width="6" height="0" stroke="black" stroke-width="1" fill="blue" opacity="1" tooltip="enable"><title>(0.0963412,0)</title></rect><rect x="354" y="200" width="6" height="0" stroke="black" stroke-width="1" fill="blue" opacity="1" tooltip="enable"><title>(0.0980023,0)</title></rect><rect x="360" y="199.374" width="6" height="0.625652" stroke="black" stroke-width="1" fill="blue" opacity="1" tooltip="enable"><title>(0.0996633,6)</title></rect><rect x="366" y="199.791" width="6" height="0.208551" stroke="black" stroke-width="1" fill="blue" opacity="1" tooltip="enable"><title>(0.101324,2)</title></rect><rect x="372" y="200" width="6" height="0" stroke="black" stroke-width="1" fill="blue" opacity="1" tooltip="enable"><title>(0.102985,0)</title></rect><rect x="378" y="200" width="6" height="0" stroke="black" stroke-width="1" fill="blue" opacity="1" tooltip="enable"><title>(0.104646,0)</title></rect><rect x="384" y="200" width="6" height="0" stroke="black" stroke-width="1" fill="blue" opacity="1" tooltip="enable"><title>(0.106308,0)</title></rect><rect x="390" y="200" width="6" height="0" stroke="black" stroke-width="1" fill="blue" opacity="1" tooltip="enable"><title>(0.107969,0)</title></rect><rect x="396" y="199.583" width="6" height="0.417101" stroke="black" stroke-width="1" fill="blue" opacity="1" tooltip="enable"><title>(0.10963,4)</title></rect><rect x="402" y="199.791" width="6" height="0.208551" stroke="black" stroke-width="1" fill="blue" opacity="1" tooltip="enable"><title>(0.111291,2)</title></rect><rect x="408" y="200" width="6" height="0" stroke="black" stroke-width="1" fill="blue" opacity="1" tooltip="enable"><title>(0.112952,0)</title></rect><rect x="414" y="200" width="6" height="0" stroke="black" stroke-width="1" fill="blue" opacity="1" tooltip="enable"><title>(0.114613,0)</title></rect><rect x="420" y="200" width="6" height="0" stroke="black" stroke-width="1" fill="blue" opacity="1" tooltip="enable"><title>(0.116274,0)</title></rect><rect x="426" y="200" width="6" height="0" stroke="black" stroke-width="1" fill="blue" opacity="1" tooltip="enable"><title>(0.117935,0)</title></rect><rect x="432" y="199.791" width="6" height="0.208551" stroke="black" stroke-width="1" fill="blue" opacity="1" tooltip="enable"><title>(0.119596,2)</title></rect><rect x="438" y="200" width="6" height="0" stroke="black" stroke-width="1" fill="blue" opacity="1" tooltip="enable"><title>(0.121257,0)</title></rect><rect x="444" y="200" width="6" height="0" stroke="black" stroke-width="1" fill="blue" opacity="1" tooltip="enable"><title>(0.122918,0)</title></rect><rect x="450" y="200" width="6" height="0" stroke="black" stroke-width="1" fill="blue" opacity="1" tooltip="enable"><title>(0.124579,0)</title></rect><rect x="456" y="200" width="6" height="0" stroke="black" stroke-width="1" fill="blue" opacity="1" tooltip="enable"><title>(0.12624,0)</title></rect><rect x="462" y="200" width="6" height="0" stroke="black" stroke-width="1" fill="blue" opacity="1" tooltip="enable"><title>(0.127901,0)</title></rect><rect x="468" y="200" width="6" height="0" stroke="black" stroke-width="1" fill="blue" opacity="1" tooltip="enable"><title>(0.129562,0)</title></rect><rect x="474" y="200" width="6" height="0" stroke="black" stroke-width="1" fill="blue" opacity="1" tooltip="enable"><title>(0.131223,0)</title></rect><rect x="480" y="200" width="6" height="0" stroke="black" stroke-width="1" fill="blue" opacity="1" tooltip="enable"><title>(0.132884,0)</title></rect><rect x="486" y="200" width="6" height="0" stroke="black" stroke-width="1" fill="blue" opacity="1" tooltip="enable"><title>(0.134545,0)</title></rect><rect x="492" y="200" width="6" height="0" stroke="black" stroke-width="1" fill="blue" opacity="1" tooltip="enable"><title>(0.136207,0)</title></rect><rect x="498" y="200" width="6" height="0" stroke="black" stroke-width="1" fill="blue" opacity="1" tooltip="enable"><title>(0.137868,0)</title></rect><rect x="504" y="200" width="6" height="0" stroke="black" stroke-width="1" fill="blue" opacity="1" tooltip="enable"><title>(0.139529,0)</title></rect><rect x="510" y="200" width="6" height="0" stroke="black" stroke-width="1" fill="blue" opacity="1" tooltip="enable"><title>(0.14119,0)</title></rect><rect x="516" y="200" width="6" height="0" stroke="black" stroke-width="1" fill="blue" opacity="1" tooltip="enable"><title>(0.142851,0)</title></rect><rect x="522" y="200" width="6" height="0" stroke="black" stroke-width="1" fill="blue" opacity="1" tooltip="enable"><title>(0.144512,0)</title></rect><rect x="528" y="200" width="6" height="0" stroke="black" stroke-width="1" fill="blue" opacity="1" tooltip="enable"><title>(0.146173,0)</title></rect><rect x="534" y="200" width="6" height="0" stroke="black" stroke-width="1" fill="blue" opacity="1" tooltip="enable"><title>(0.147834,0)</title></rect><rect x="540" y="200" width="6" height="0" stroke="black" stroke-width="1" fill="blue" opacity="1" tooltip="enable"><title>(0.149495,0)</title></rect><rect x="546" y="200" width="6" height="0" stroke="black" stroke-width="1" fill="blue" opacity="1" tooltip="enable"><title>(0.151156,0)</title></rect><rect x="552" y="200" width="6" height="0" stroke="black" stroke-width="1" fill="blue" opacity="1" tooltip="enable"><title>(0.152817,0)</title></rect><rect x="558" y="200" width="6" height="0" stroke="black" stroke-width="1" fill="blue" opacity="1" tooltip="enable"><title>(0.154478,0)</title></rect><rect x="564" y="200" width="6" height="0" stroke="black" stroke-width="1" fill="blue" opacity="1" tooltip="enable"><title>(0.156139,0)</title></rect><rect x="570" y="200" width="6" height="0" stroke="black" stroke-width="1" fill="blue" opacity="1" tooltip="enable"><title>(0.1578,0)</title></rect><rect x="576" y="200" width="6" height="0" stroke="black" stroke-width="1" fill="blue" opacity="1" tooltip="enable"><title>(0.159461,0)</title></rect><rect x="582" y="200" width="6" height="0" stroke="black" stroke-width="1" fill="blue" opacity="1" tooltip="enable"><title>(0.161122,0)</title></rect><rect x="588" y="200" width="6" height="0" stroke="black" stroke-width="1" fill="blue" opacity="1" tooltip="enable"><title>(0.162783,0)</title></rect><rect x="594" y="199.791" width="6" height="0.208551" stroke="black" stroke-width="1" fill="blue" opacity="1" tooltip="enable"><title>(0.164444,2)</title></rect><text x="30" y="240" font-size="20" fill="black">0</text>
<text x="600" y="240" font-size="20" fill="black">0.166106</text>
<polyline points="0,220,600,220" stroke="black" stroke-width="1" fill="none" opacity="1"/>
<text x="720" y="20" font-size="20" fill="black">1918</text>
<text x="720" y="200" font-size="20" fill="black">0</text>
<polyline points="660,0,660,200" stroke="black" stroke-width="1" fill="none" opacity="1"/>
</svg>