<?xml version="1.0" standalone="yes"?>
<!-- SVG graphic -->
<svg xmlns='http://www.w3.org/2000/svg' xmlns:xlink='http://www.w3.org/1999/xlink'
 version="1.1">
<rect x="0" y="0" width="6" height="200" stroke="black" stroke-width="1" fill="blue" opacity="1" tooltip="enable"><title>(0,1100)</title></rect><rect x="6" y="1.45454" width="6" height="198.545" stroke="black" stroke-width="1" fill="blue" opacity="1" tooltip="enable"><title>(0.00131448,1092)</title></rect><rect x="12" y="20.5455" width="6" height="179.455" stroke="black" stroke-width="1" fill="blue" opacity="1" tooltip="enable"><title>(0.00262897,987)</title></rect><rect x="18" y="71.4545" width="6" height="128.545" stroke="black" stroke-width="1" fill="blue" opacity="1" tooltip="enable"><title>(0.00394345,707)</title></rect><rect x="24" y="124.182" width="6" height="75.8182" stroke="black" stroke-width="1" fill="blue" opacity="1" tooltip="enable"><title>(0.00525793,417)</title></rect><rect x="30" y="149.273" width="6" height="50.7273" stroke="black" stroke-width="1" fill="blue" opacity="1" tooltip="enable"><title>(0.00657242,279)</title></rect><rect x="36" y="160" width="6" height="40" stroke="black" stroke-width="1" fill="blue" opacity="1" tooltip="enable"><title>(0.0078869,220)</title></rect><rect x="42" y="168.545" width="6" height="31.4545" stroke="black" stroke-width="1" fill="blue" opacity="1" tooltip="enable"><title>(0.00920138,173)</title></rect><rect x="48" y="169.273" width="6" height="30.7273" stroke="black" stroke-width="1" fill="blue" opacity="1" tooltip="enable"><title>(0.0105159,169)</title></rect><rect x="54" y="169.636" width="6" height="30.3636" stroke="black" stroke-width="1" fill="blue" opacity="1" tooltip="enable"><title>(0.0118304,167)</title></rect><rect x="60" y="177.636" width="6" height="22.3636" stroke="black" stroke-width="1" fill="blue" opacity="1" tooltip="enable"><title>(0.0131448,123)</title></rect><rect x="66" y="170.364" width="6" height="29.6364" stroke="black" stroke-width="1" fill="blue" opacity="1" tooltip="enable"><title>(0.0144593,163)</title></rect><rect x="72" y="172.364" width="6" height="27.6364" stroke="black" stroke-width="1" fill="blue" opacity="1" tooltip="enable"><title>(0.0157738,152)</title></rect><rect x="78" y="171.091" width="6" height="28.9091" stroke="black" stroke-width="1" fill="blue" opacity="1" tooltip="enable"><title>(0.0170883,159)</title></rect><rect x="84" y="176.545" width="6" height="23.4545" stroke="black" stroke-width="1" fill="blue" opacity="1" tooltip="enable"><title>(0.0184028,129)</title></rect><rect x="90" y="175.636" width="6" height="24.3636" stroke="black" stroke-width="1" fill="blue" opacity="1" tooltip="enable"><title>(0.0197173,134)</title></rect><rect x="96" y="170.545" width="6" height="29.4545" stroke="black" stroke-width="1" fill="blue" opacity="1" tooltip="enable"><title>(0.0210317,162)</title></rect><rect x="102" y="180.545" width="6" height="19.4545" stroke="black" stroke-width="1" fill="blue" opacity="1" tooltip="enable"><title>(0.0223462,107)</title></rect><rect x="108" y="182.909" width="6" height="17.0909" stroke="black" stroke-width="1" fill="blue" opacity="1" tooltip="enable"><title>(0.0236607,94)</title></rect><rect x="114" y="182.545" width="6" height="17.4545" stroke="black" stroke-width="1" fill="blue" opacity="1" tooltip="enable"><title>(0.0249752,96)</title></rect><rect x="120" y="182.909" width="6" height="17.0909" stroke="black" stroke-width="1" fill="blue" opacity="1" tooltip="enable"><title>(0.0262897,94)</title></rect><rect x="126" y="183.273" width="6" height="16.7273" stroke="black" stroke-width="1" fill="blue" opacity="1" tooltip="enable"><title>(0.0276042,92)</title></rect><rect x="132" y="177.818" width="6" height="22.1818" stroke="black" stroke-width="1" fill="blue" opacity="1" tooltip="enable"><title>(0.0289186,122)</title></rect><rect x="138" y="180.727" width="6" height="19.2727" stroke="black" stroke-width="1" fill="blue" opacity="1" tooltip="enable"><title>(0.0302331,106)</title></rect><rect x="144" y="182.545" width="6" height="17.4545" stroke="black" stroke-width="1" fill="blue" opacity="1" tooltip="enable"><title>(0.0315476,96)</title></rect><rect x="150" y="182.182" width="6" height="17.8182" stroke="black" stroke-width="1" fill="blue" opacity="1" tooltip="enable"><title>(0.0328621,98)</title></rect><rect x="156" y="184" width="6" height="16" stroke="black" stroke-width="1" fill="blue" opacity="1" tooltip="enable"><title>(0.0341766,88)</title></rect><rect x="162" y="185.273" width="6" height="14.7273" stroke="black" stroke-width="1" fill="blue" opacity="1" tooltip="enable"><title>(0.0354911,81)</title></rect><rect x="168" y="188.909" width="6" height="11.0909" stroke="black" stroke-width="1" fill="blue" opacity="1" tooltip="enable"><title>(0.0368055,61)</title></rect><rect x="174" y="186.545" width="6" height="13.4545" stroke="black" stroke-width="1" fill="blue" opacity="1" tooltip="enable"><title>(0.03812,74)</title></rect><rect x="180" y="192.727" width="6" height="7.27273" stroke="black" stroke-width="1" fill="blue" opacity="1" tooltip="enable"><title>(0.0394345,40)</title></rect><rect x="186" y="191.636" width="6" height="8.36364" stroke="black" stroke-width="1" fill="blue" opacity="1" tooltip="enable"><title>(0.040749,46)</title></rect><rect x="192" y="192.364" width="6" height="7.63636" stroke="black" stroke-width="1" fill="blue" opacity="1" tooltip="enable"><title>(0.0420635,42)</title></rect><rect x="198" y="194.545" width="6" height="5.45455" stroke="black" stroke-width="1" fill="blue" opacity="1" tooltip="enable"><title>(0.043378,30)</title></rect><rect x="204" y="191.636" width="6" height="8.36364" stroke="black" stroke-width="1" fill="blue" opacity="1" tooltip="enable"><title>(0.0446924,46)</title></rect><rect x="210" y="197.818" width="6" height="2.18182" stroke="black" stroke-width="1" fill="blue" opacity="1" tooltip="enable"><title>(0.0460069,12)</title></rect><rect x="216" y="195.273" width="6" height="4.72727" stroke="black" stroke-width="1" fill="blue" opacity="1" tooltip="enable"><title>(0.0473214,26)</title></rect><rect x="222" y="197.455" width="6" height="2.54545" stroke="black" stroke-width="1" fill="blue" opacity="1" tooltip="enable"><title>(0.0486359,14)</title></rect><rect x="228" y="196.727" width="6" height="3.27273" stroke="black" stroke-width="1" fill="blue" opacity="1" tooltip="enable"><title>(0.0499504,18)</title></rect><rect x="234" y="197.091" width="6" height="2.90909" stroke="black" stroke-width="1" fill="blue" opacity="1" tooltip="enable"><title>(0.0512649,16)</title></rect><rect x="240" y="198.182" width="6" height="1.81818" stroke="black" stroke-width="1" fill="blue" opacity="1" tooltip="enable"><title>(0.0525793,10)</title></rect><rect x="246" y="198.545" width="6" height="1.45455" stroke="black" stroke-width="1" fill="blue" opacity="1" tooltip="enable"><title>(0.0538938,8)</title></rect><rect x="252" y="197.455" width="6" height="2.54545" stroke="black" stroke-width="1" fill="blue" opacity="1" tooltip="enable"><title>(0.0552083,14)</title></rect><rect x="258" y="197.818" width="6" height="2.18182" stroke="black" stroke-width="1" fill="blue" opacity="1" tooltip="enable"><title>(0.0565228,12)</title></rect><rect x="264" y="198.182" width="6" height="1.81818" stroke="black" stroke-width="1" fill="blue" opacity="1" tooltip="enable"><title>(0.0578373,10)</title></rect><rect x="270" y="199.273" width="6" height="0.727273" stroke="black" stroke-width="1" fill="blue" opacity="1" tooltip="enable"><title>(0.0591518,4)</title></rect><rect x="276" y="198.909" width="6" height="1.09091" stroke="black" stroke-width="1" fill="blue" opacity="1" tooltip="enable"><title>(0.0604662,6)</title></rect><rect x="282" y="197.091" width="6" height="2.90909" stroke="black" stroke-width="1" fill="blue" opacity="1" tooltip="enable"><title>(0.0617807,16)</title></rect><rect x="288" y="199.273" width="6" height="0.727273" stroke="black" stroke-width="1" fill="blue" opacity="1" tooltip="enable"><title>(0.0630952,4)</title></rect><rect x="294" y="199.091" width="6" height="0.909091" stroke="black" stroke-width="1" fill="blue" opacity="1" tooltip="enable"><title>(0.0644097,5)</title></rect><rect x="300" y="198.727" width="6" height="1.27273" stroke="black" stroke-width="1" fill="blue" opacity="1" tooltip="enable"><title>(0.0657242,7)</title></rect><rect x="306" y="198.182" width="6" height="1.81818" stroke="black" stroke-width="1" fill="blue" opacity="1" tooltip="enable"><title>(0.0670387,10)</title></rect><rect x="312" y="199.636" width="6" height="0.363636" stroke="black" stroke-width="1" fill="blue" opacity="1" tooltip="enable"><title>(0.0683531,2)</title></rect><rect x="318" y="198.545" width="6" height="1.45455" stroke="black" stroke-width="1" fill="blue" opacity="1" tooltip="enable"><title>(0.0696676,8)</title></rect><rect x="324" y="198.909" width="6" height="1.09091" stroke="black" stroke-width="1" fill="blue" opacity="1" tooltip="enable"><title>(0.0709821,6)</title></rect><rect x="330" y="199.273" width="6" height="0.727273" stroke="black" stroke-width="1" fill="blue" opacity="1" tooltip="enable"><title>(0.0722966,4)</title></rect><rect x="336" y="199.273" width="6" height="0.727273" stroke="black" stroke-width="1" fill="blue" opacity="1" tooltip="enable"><title>(0.0736111,4)</title></rect><rect x="342" y="199.636" width="6" height="0.363636" stroke="black" stroke-width="1" fill="blue" opacity="1" tooltip="enable"><title>(0.0749256,2)</title></rect><rect x="348" y="200" width="6" height="0" stroke="black" stroke-width="1" fill="blue" opacity="1" tooltip="enable"><title>(0.07624,0)</title></rect><rect x="354" y="200" width="6" height="0" stroke="black" stroke-width="1" fill="blue" opacity="1" tooltip="enable"><title>(0.0775545,0)</title></rect><rect x="360" y="199.273" width="6" height="0.727273" stroke="black" stroke-width="1" fill="blue" opacity="1" tooltip="enable"><title>(0.078869,4)</title></rect><rect x="366" y="199.273" width="6" height="0.727273" stroke="black" stroke-width="1" fill="blue" opacity="1" tooltip="enable"><title>(0.0801835,4)</title></rect><rect x="372" y="199.636" width="6" height="0.363636" stroke="black" stroke-width="1" fill="blue" opacity="1" tooltip="enable"><title>(0.081498,2)</title></rect><rect x="378" y="198.909" width="6" height="1.09091" stroke="black" stroke-width="1" fill="blue" opacity="1" tooltip="enable"><title>(0.0828125,6)</title></rect><rect x="384" y="199.273" width="6" height="0.727273" stroke="black" stroke-width="1" fill="blue" opacity="1" tooltip="enable"><title>(0.0841269,4)</title></rect><rect x="390" y="199.636" width="6" height="0.363636" stroke="black" stroke-width="1" fill="blue" opacity="1" tooltip="enable"><title>(0.0854414,2)</title></rect><rect x="396" y="199.636" width="6" height="0.363636" stroke="black" stroke-width="1" fill="blue" opacity="1" tooltip="enable"><title>(0.0867559,2)</title></rect><rect x="402" y="200" width="6" height="0" stroke="black" stroke-width="1" fill="blue" opacity="1" tooltip="enable"><title>(0.0880704,0)</title></rect><rect x="408" y="200" width="6" height="0" stroke="black" stroke-width="1" fill="blue" opacity="1" tooltip="enable"><title>(0.0893849,0)</title></rect><rect x="414" y="200" width="6" height="0" stroke="black" stroke-width="1" fill="blue" opacity="1" tooltip="enable"><title>(0.0906994,0)</title></rect><rect x="420" y="199.636" width="6" height="0.363636" stroke="black" stroke-width="1" fill="blue" opacity="1" tooltip="enable"><title>(0.0920138,2)</title></rect><rect x="426" y="200" width="6" height="0" stroke="black" stroke-width="1" fill="blue" opacity="1" tooltip="enable"><title>(0.0933283,0)</title></rect><rect x="432" y="199.636" width="6" height="0.363636" stroke="black" stroke-width="1" fill="blue" opacity="1" tooltip="enable"><title>(0.0946428,2)</title></rect><rect x="438" y="200" width="6" height="0" stroke="black" stroke-width="1" fill="blue" opacity="1" tooltip="enable"><title>(0.0959573,0)</title></rect><rect x="444" y="199.636" width="6" height="0.363636" stroke="black" stroke-width="1" fill="blue" opacity="1" tooltip="enable"><title>(0.0972718,2)</title></rect><rect x="450" y="199.636" width="6" height="0.363636" stroke="black" stroke-width="1" fill="blue" opacity="1" tooltip="enable"><title>(0.0985863,2)</title></rect><rect x="456" y="200" width="6" height="0" stroke="black" stroke-width="1" fill="blue" opacity="1" tooltip="enable"><title>(0.0999007,0)</title></rect><rect x="462" y="199.636" width="6" height="0.363636" stroke="black" stroke-width="1" fill="blue" opacity="1" tooltip="enable"><title>(0.101215,2)</title></rect><rect x="468" y="200" width="6" height="0" stroke="black" stroke-width="1" fill="blue" opacity="1" tooltip="enable"><title>(0.10253,0)</title></rect><rect x="474" y="200" width="6" height="0" stroke="black" stroke-width="1" fill="blue" opacity="1" tooltip="enable"><title>(0.103844,0)</title></rect><rect x="480" y="200" width="6" height="0" stroke="black" stroke-width="1" fill="blue" opacity="1" tooltip="enable"><title>(0.105159,0)</title></rect><rect x="486" y="200" width="6" height="0" stroke="black" stroke-width="1" fill="blue" opacity="1" tooltip="enable"><title>(0.106473,0)</title></rect><rect x="492" y="200" width="6" height="0" stroke="black" stroke-width="1" fill="blue" opacity="1" tooltip="enable"><title>(0.107788,0)</title></rect><rect x="498" y="200" width="6" height="0" stroke="black" stroke-width="1" fill="blue" opacity="1" tooltip="enable"><title>(0.109102,0)</title></rect><rect x="504" y="200" width="6" height="0" stroke="black" stroke-width="1" fill="blue" opacity="1" tooltip="enable"><title>(0.110417,0)</title></rect><rect x="510" y="200" width="6" height="0" stroke="black" stroke-width="1" fill="blue" opacity="1" tooltip="enable"><title>(0.111731,0)</title></rect><rect x="516" y="200" width="6" height="0" stroke="black" stroke-width="1" fill="blue" opacity="1" tooltip="enable"><title>(0.113046,0)</title></rect><rect x="522" y="200" width="6" height="0" stroke="black" stroke-width="1" fill="blue" opacity="1" tooltip="enable"><title>(0.11436,0)</title></rect><rect x="528" y="200" width="6" height="0" stroke="black" stroke-width="1" fill="blue" opacity="1" tooltip="enable"><title>(0.115675,0)</title></rect><rect x="534" y="200" width="6" height="0" stroke="black" stroke-width="1" fill="blue" opacity="1" tooltip="enable"><title>(0.116989,0)</title></rect><rect x="540" y="200" width="6" height="0" stroke="black" stroke-width="1" fill="blue" opacity="1" tooltip="enable"><title>(0.118304,0)</title></rect><rect x="546" y="200" width="6" height="0" stroke="black" stroke-width="1" fill="blue" opacity="1" tooltip="enable"><title>(0.119618,0)</title></rect><rect x="552" y="200" width="6" height="0" stroke="black" stroke-width="1" fill="blue" opacity="1" tooltip="enable"><title>(0.120932,0)</title></rect><rect x="558" y="200" width="6" height="0" stroke="black" stroke-width="1" fill="blue" opacity="1" tooltip="enable"><title>(0.122247,0)</title></rect><rect x="564" y="200" width="6" height="0" stroke="black" stroke-width="1" fill="blue" opacity="1" tooltip="enable"><title>(0.123561,0)</title></rect><rect x="570" y="200" width="6" height="0" stroke="black" stroke-width="1" fill="blue" opacity="1" tooltip="enable"><title>(0.124876,0)</title></rect><rect x="576" y="200" width="6" height="0" stroke="black" stroke-width="1" fill="blue" opacity="1" tooltip="enable"><title>(0.12619,0)</title></rect><rect x="582" y="200" width="6" height="0" stroke="black" stroke-width="1" fill="blue" opacity="1" tooltip="enable"><title>(0.127505,0)</title></rect><rect x="588" y="200" width="6" height="0" stroke="black" stroke-width="1" fill="blue" opacity="1" tooltip="enable"><title>(0.128819,0)</title></rect><rect x="594" y="199.636" width="6" height="0.363636" stroke="black" stroke-width="1" fill="blue" opacity="1" tooltip="enable"><title>(0.130134,2)</title></rect><text x="30" y="240" font-size="20" fill="black">0</text>
<text x="600" y="240" font-size="20" fill="black">0.131448</text>
<polyline points="0,220,600,220" stroke="black" stroke-width="1" fill="none" opacity="1"/>
<text x="720" y="20" font-size="20" fill="black">1100</text>
<text x="720" y="200" font-size="20" fill="black">0</text>
<polyline points="660,0,660,200" stroke="black" stroke-width="1" fill="none" opacity="1"/>
</svg>