<?xml version="1.0" standalone="yes"?>
<!-- SVG graphic -->
<svg xmlns='http://www.w3.org/2000/svg' xmlns:xlink='http://www.w3.org/1999/xlink'
 version="1.1">
<rect x="0" y="0" width="6" height="200" stroke="black" stroke-width="1" fill="blue" opacity="1" tooltip="enable"><title>(0,3999)</title></rect><rect x="6" y="179.895" width="6" height="20.105" stroke="black" stroke-width="1" fill="blue" opacity="1" tooltip="enable"><title>(0.00147308,402)</title></rect><rect x="12" y="189.547" width="6" height="10.4526" stroke="black" stroke-width="1" fill="blue" opacity="1" tooltip="enable"><title>(0.00294617,209)</title></rect><rect x="18" y="191.198" width="6" height="8.8022" stroke="black" stroke-width="1" fill="blue" opacity="1" tooltip="enable"><title>(0.00441925,176)</title></rect><rect x="24" y="191.998" width="6" height="8.002" stroke="black" stroke-width="1" fill="blue" opacity="1" tooltip="enable"><title>(0.00589234,160)</title></rect><rect x="30" y="190.348" width="6" height="9.65241" stroke="black" stroke-width="1" fill="blue" opacity="1" tooltip="enable"><title>(0.00736542,193)</title></rect><rect x="36" y="191.448" width="6" height="8.55214" stroke="black" stroke-width="1" fill="blue" opacity="1" tooltip="enable"><title>(0.00883851,171)</title></rect><rect x="42" y="193.598" width="6" height="6.4016" stroke="black" stroke-width="1" fill="blue" opacity="1" tooltip="enable"><title>(0.0103116,128)</title></rect><rect x="48" y="193.398" width="6" height="6.60165" stroke="black" stroke-width="1" fill="blue" opacity="1" tooltip="enable"><title>(0.0117847,132)</title></rect><rect x="54" y="190.898" width="6" height="9.10228" stroke="black" stroke-width="1" fill="blue" opacity="1" tooltip="enable"><title>(0.0132578,182)</title></rect><rect x="60" y="192.298" width="6" height="7.70193" stroke="black" stroke-width="1" fill="blue" opacity="1" tooltip="enable"><title>(0.0147308,154)</title></rect><rect x="66" y="192.048" width="6" height="7.95199" stroke="black" stroke-width="1" fill="blue" opacity="1" tooltip="enable"><title>(0.0162039,159)</title></rect><rect x="72" y="193.548" width="6" height="6.45161" stroke="black" stroke-width="1" fill="blue" opacity="1" tooltip="enable"><title>(0.017677,129)</title></rect><rect x="78" y="194.649" width="6" height="5.35134" stroke="black" stroke-width="1" fill="blue" opacity="1" tooltip="enable"><title>(0.0191501,107)</title></rect><rect x="84" y="193.498" width="6" height="6.50163" stroke="black" stroke-width="1" fill="blue" opacity="1" tooltip="enable"><title>(0.0206232,130)</title></rect><rect x="90" y="192.798" width="6" height="7.2018" stroke="black" stroke-width="1" fill="blue" opacity="1" tooltip="enable"><title>(0.0220963,144)</title></rect><rect x="96" y="194.549" width="6" height="5.45136" stroke="black" stroke-width="1" fill="blue" opacity="1" tooltip="enable"><title>(0.0235694,109)</title></rect><rect x="102" y="195.099" width="6" height="4.90123" stroke="black" stroke-width="1" fill="blue" opacity="1" tooltip="enable"><title>(0.0250424,98)</title></rect><rect x="108" y="194.949" width="6" height="5.05126" stroke="black" stroke-width="1" fill="blue" opacity="1" tooltip="enable"><title>(0.0265155,101)</title></rect><rect x="114" y="196.249" width="6" height="3.75094" stroke="black" stroke-width="1" fill="blue" opacity="1" tooltip="enable"><title>(0.0279886,75)</title></rect><rect x="120" y="195.249" width="6" height="4.75119" stroke="black" stroke-width="1" fill="blue" opacity="1" tooltip="enable"><title>(0.0294617,95)</title></rect><rect x="126" y="194.749" width="6" height="5.25131" stroke="black" stroke-width="1" fill="blue" opacity="1" tooltip="enable"><title>(0.0309348,105)</title></rect><rect x="132" y="196.999" width="6" height="3.00075" stroke="black" stroke-width="1" fill="blue" opacity="1" tooltip="enable"><title>(0.0324079,60)</title></rect><rect x="138" y="195.899" width="6" height="4.10103" stroke="black" stroke-width="1" fill="blue" opacity="1" tooltip="enable"><title>(0.0338809,82)</title></rect><rect x="144" y="197.249" width="6" height="2.75069" stroke="black" stroke-width="1" fill="blue" opacity="1" tooltip="enable"><title>(0.035354,55)</title></rect><rect x="150" y="197.249" width="6" height="2.75069" stroke="black" stroke-width="1" fill="blue" opacity="1" tooltip="enable"><title>(0.0368271,55)</title></rect><rect x="156" y="197.499" width="6" height="2.50063" stroke="black" stroke-width="1" fill="blue" opacity="1" tooltip="enable"><title>(0.0383002,50)</title></rect><rect x="162" y="198.8" width="6" height="1.2003" stroke="black" stroke-width="1" fill="blue" opacity="1" tooltip="enable"><title>(0.0397733,24)</title></rect><rect x="168" y="198.7" width="6" height="1.30033" stroke="black" stroke-width="1" fill="blue" opacity="1" tooltip="enable"><title>(0.0412464,26)</title></rect><rect x="174" y="198.1" width="6" height="1.90048" stroke="black" stroke-width="1" fill="blue" opacity="1" tooltip="enable"><title>(0.0427194,38)</title></rect><rect x="180" y="198.3" width="6" height="1.70043" stroke="black" stroke-width="1" fill="blue" opacity="1" tooltip="enable"><title>(0.0441925,34)</title></rect><rect x="186" y="199.1" width="6" height="0.900225" stroke="black" stroke-width="1" fill="blue" opacity="1" tooltip="enable"><title>(0.0456656,18)</title></rect><rect x="192" y="199.2" width="6" height="0.8002" stroke="black" stroke-width="1" fill="blue" opacity="1" tooltip="enable"><title>(0.0471387,16)</title></rect><rect x="198" y="199.2" width="6" height="0.8002" stroke="black" stroke-width="1" fill="blue" opacity="1" tooltip="enable"><title>(0.0486118,16)</title></rect><rect x="204" y="199.1" width="6" height="0.900225" stroke="black" stroke-width="1" fill="blue" opacity="1" tooltip="enable"><title>(0.0500849,18)</title></rect><rect x="210" y="199.2" width="6" height="0.8002" stroke="black" stroke-width="1" fill="blue" opacity="1" tooltip="enable"><title>(0.051558,16)</title></rect><rect x="216" y="198.7" width="6" height="1.30033" stroke="black" stroke-width="1" fill="blue" opacity="1" tooltip="enable"><title>(0.053031,26)</title></rect><rect x="222" y="198.3" width="6" height="1.70043" stroke="black" stroke-width="1" fill="blue" opacity="1" tooltip="enable"><title>(0.0545041,34)</title></rect><rect x="228" y="199.35" width="6" height="0.650163" stroke="black" stroke-width="1" fill="blue" opacity="1" tooltip="enable"><title>(0.0559772,13)</title></rect><rect x="234" y="199.45" width="6" height="0.550138" stroke="black" stroke-width="1" fill="blue" opacity="1" tooltip="enable"><title>(0.0574503,11)</title></rect><rect x="240" y="199.3" width="6" height="0.700175" stroke="black" stroke-width="1" fill="blue" opacity="1" tooltip="enable"><title>(0.0589234,14)</title></rect><rect x="246" y="199.2" width="6" height="0.8002" stroke="black" stroke-width="1" fill="blue" opacity="1" tooltip="enable"><title>(0.0603965,16)</title></rect><rect x="252" y="198.8" width="6" height="1.2003" stroke="black" stroke-width="1" fill="blue" opacity="1" tooltip="enable"><title>(0.0618696,24)</title></rect><rect x="258" y="199.5" width="6" height="0.500125" stroke="black" stroke-width="1" fill="blue" opacity="1" tooltip="enable"><title>(0.0633426,10)</title></rect><rect x="264" y="199.3" width="6" height="0.700175" stroke="black" stroke-width="1" fill="blue" opacity="1" tooltip="enable"><title>(0.0648157,14)</title></rect><rect x="270" y="199.4" width="6" height="0.60015" stroke="black" stroke-width="1" fill="blue" opacity="1" tooltip="enable"><title>(0.0662888,12)</title></rect><rect x="276" y="199.2" width="6" height="0.8002" stroke="black" stroke-width="1" fill="blue" opacity="1" tooltip="enable"><title>(0.0677619,16)</title></rect><rect x="282" y="199.4" width="6" height="0.60015" stroke="black" stroke-width="1" fill="blue" opacity="1" tooltip="enable"><title>(0.069235,12)</title></rect><rect x="288" y="199.2" width="6" height="0.8002" stroke="black" stroke-width="1" fill="blue" opacity="1" tooltip="enable"><title>(0.0707081,16)</title></rect><rect x="294" y="200" width="6" height="0" stroke="black" stroke-width="1" fill="blue" opacity="1" tooltip="enable"><title>(0.0721811,0)</title></rect><rect x="300" y="199.7" width="6" height="0.300075" stroke="black" stroke-width="1" fill="blue" opacity="1" tooltip="enable"><title>(0.0736542,6)</title></rect><rect x="306" y="199.4" width="6" height="0.60015" stroke="black" stroke-width="1" fill="blue" opacity="1" tooltip="enable"><title>(0.0751273,12)</title></rect><rect x="312" y="199.6" width="6" height="0.4001" stroke="black" stroke-width="1" fill="blue" opacity="1" tooltip="enable"><title>(0.0766004,8)</title></rect><rect x="318" y="199.7" width="6" height="0.300075" stroke="black" stroke-width="1" fill="blue" opacity="1" tooltip="enable"><title>(0.0780735,6)</title></rect><rect x="324" y="199.6" width="6" height="0.4001" stroke="black" stroke-width="1" fill="blue" opacity="1" tooltip="enable"><title>(0.0795466,8)</title></rect><rect x="330" y="199.55" width="6" height="0.450113" stroke="black" stroke-width="1" fill="blue" opacity="1" tooltip="enable"><title>(0.0810197,9)</title></rect><rect x="336" y="199.65" width="6" height="0.350088" stroke="black" stroke-width="1" fill="blue" opacity="1" tooltip="enable"><title>(0.0824927,7)</title></rect><rect x="342" y="199.7" width="6" height="0.300075" stroke="black" stroke-width="1" fill="blue" opacity="1" tooltip="enable"><title>(0.0839658,6)</title></rect><rect x="348" y="199.8" width="6" height="0.20005" stroke="black" stroke-width="1" fill="blue" opacity="1" tooltip="enable"><title>(0.0854389,4)</title></rect><rect x="354" y="200" width="6" height="0" stroke="black" stroke-width="1" fill="blue" opacity="1" tooltip="enable"><title>(0.086912,0)</title></rect><rect x="360" y="200" width="6" height="0" stroke="black" stroke-width="1" fill="blue" opacity="1" tooltip="enable"><title>(0.0883851,0)</title></rect><rect x="366" y="200" width="6" height="0" stroke="black" stroke-width="1" fill="blue" opacity="1" tooltip="enable"><title>(0.0898582,0)</title></rect><rect x="372" y="199.9" width="6" height="0.100025" stroke="black" stroke-width="1" fill="blue" opacity="1" tooltip="enable"><title>(0.0913312,2)</title></rect><rect x="378" y="200" width="6" height="0" stroke="black" stroke-width="1" fill="blue" opacity="1" tooltip="enable"><title>(0.0928043,0)</title></rect><rect x="384" y="199.9" width="6" height="0.100025" stroke="black" stroke-width="1" fill="blue" opacity="1" tooltip="enable"><title>(0.0942774,2)</title></rect><rect x="390" y="200" width="6" height="0" stroke="black" stroke-width="1" fill="blue" opacity="1" tooltip="enable"><title>(0.0957505,0)</title></rect><rect x="396" y="199.9" width="6" height="0.100025" stroke="black" stroke-width="1" fill="blue" opacity="1" tooltip="enable"><title>(0.0972236,2)</title></rect><rect x="402" y="199.9" width="6" height="0.100025" stroke="black" stroke-width="1" fill="blue" opacity="1" tooltip="enable"><title>(0.0986967,2)</title></rect><rect x="408" y="199.85" width="6" height="0.150038" stroke="black" stroke-width="1" fill="blue" opacity="1" tooltip="enable"><title>(0.10017,3)</title></rect><rect x="414" y="199.85" width="6" height="0.150038" stroke="black" stroke-width="1" fill="blue" opacity="1" tooltip="enable"><title>(0.101643,3)</title></rect><rect x="420" y="200" width="6" height="0" stroke="black" stroke-width="1" fill="blue" opacity="1" tooltip="enable"><title>(0.103116,0)</title></rect><rect x="426" y="199.9" width="6" height="0.100025" stroke="black" stroke-width="1" fill="blue" opacity="1" tooltip="enable"><title>(0.104589,2)</title></rect><rect x="432" y="200" width="6" height="0" stroke="black" stroke-width="1" fill="blue" opacity="1" tooltip="enable"><title>(0.106062,0)</title></rect><rect x="438" y="199.9" width="6" height="0.100025" stroke="black" stroke-width="1" fill="blue" opacity="1" tooltip="enable"><title>(0.107535,2)</title></rect><rect x="444" y="200" width="6" height="0" stroke="black" stroke-width="1" fill="blue" opacity="1" tooltip="enable"><title>(0.109008,0)</title></rect><rect x="450" y="200" width="6" height="0" stroke="black" stroke-width="1" fill="blue" opacity="1" tooltip="enable"><title>(0.110481,0)</title></rect><rect x="456" y="199.9" width="6" height="0.100025" stroke="black" stroke-width="1" fill="blue" opacity="1" tooltip="enable"><title>(0.111954,2)</title></rect><rect x="462" y="200" width="6" height="0" stroke="black" stroke-width="1" fill="blue" opacity="1" tooltip="enable"><title>(0.113428,0)</title></rect><rect x="468" y="199.8" width="6" height="0.20005" stroke="black" stroke-width="1" fill="blue" opacity="1" tooltip="enable"><title>(0.114901,4)</title></rect><rect x="474" y="199.9" width="6" height="0.100025" stroke="black" stroke-width="1" fill="blue" opacity="1" tooltip="enable"><title>(0.116374,2)</title></rect><rect x="480" y="200" width="6" height="0" stroke="black" stroke-width="1" fill="blue" opacity="1" tooltip="enable"><title>(0.117847,0)</title></rect><rect x="486" y="200" width="6" height="0" stroke="black" stroke-width="1" fill="blue" opacity="1" tooltip="enable"><title>(0.11932,0)</title></rect><rect x="492" y="200" width="6" height="0" stroke="black" stroke-width="1" fill="blue" opacity="1" tooltip="enable"><title>(0.120793,0)</title></rect><rect x="498" y="199.9" width="6" height="0.100025" stroke="black" stroke-width="1" fill="blue" opacity="1" tooltip="enable"><title>(0.122266,2)</title></rect><rect x="504" y="200" width="6" height="0" stroke="black" stroke-width="1" fill="blue" opacity="1" tooltip="enable"><title>(0.123739,0)</title></rect><rect x="510" y="200" width="6" height="0" stroke="black" stroke-width="1" fill="blue" opacity="1" tooltip="enable"><title>(0.125212,0)</title></rect><rect x="516" y="200" width="6" height="0" stroke="black" stroke-width="1" fill="blue" opacity="1" tooltip="enable"><title>(0.126685,0)</title></rect><rect x="522" y="199.9" width="6" height="0.100025" stroke="black" stroke-width="1" fill="blue" opacity="1" tooltip="enable"><title>(0.128158,2)</title></rect><rect x="528" y="199.95" width="6" height="0.0500125" stroke="black" stroke-width="1" fill="blue" opacity="1" tooltip="enable"><title>(0.129631,1)</title></rect><rect x="534" y="199.8" width="6" height="0.20005" stroke="black" stroke-width="1" fill="blue" opacity="1" tooltip="enable"><title>(0.131105,4)</title></rect><rect x="540" y="199.85" width="6" height="0.150038" stroke="black" stroke-width="1" fill="blue" opacity="1" tooltip="enable"><title>(0.132578,3)</title></rect><rect x="546" y="200" width="6" height="0" stroke="black" stroke-width="1" fill="blue" opacity="1" tooltip="enable"><title>(0.134051,0)</title></rect><rect x="552" y="199.9" width="6" height="0.100025" stroke="black" stroke-width="1" fill="blue" opacity="1" tooltip="enable"><title>(0.135524,2)</title></rect><rect x="558" y="199.9" width="6" height="0.100025" stroke="black" stroke-width="1" fill="blue" opacity="1" tooltip="enable"><title>(0.136997,2)</title></rect><rect x="564" y="199.9" width="6" height="0.100025" stroke="black" stroke-width="1" fill="blue" opacity="1" tooltip="enable"><title>(0.13847,2)</title></rect><rect x="570" y="200" width="6" height="0" stroke="black" stroke-width="1" fill="blue" opacity="1" tooltip="enable"><title>(0.139943,0)</title></rect><rect x="576" y="200" width="6" height="0" stroke="black" stroke-width="1" fill="blue" opacity="1" tooltip="enable"><title>(0.141416,0)</title></rect><rect x="582" y="199.9" width="6" height="0.100025" stroke="black" stroke-width="1" fill="blue" opacity="1" tooltip="enable"><title>(0.142889,2)</title></rect><rect x="588" y="199.9" width="6" height="0.100025" stroke="black" stroke-width="1" fill="blue" opacity="1" tooltip="enable"><title>(0.144362,2)</title></rect><rect x="594" y="199.95" width="6" height="0.0500125" stroke="black" stroke-width="1" fill="blue" opacity="1" tooltip="enable"><title>(0.145835,1)</title></rect><text x="30" y="240" font-size="20" fill="black">0</text>
<text x="600" y="240" font-size="20" fill="black">0.147308</text>
<polyline points="0,220,600,220" stroke="black" stroke-width="1" fill="none" opacity="1"/>
<text x="720" y="20" font-size="20" fill="black">3999</text>
<text x="720" y="200" font-size="20" fill="black">0</text>
<polyline points="660,0,660,200" stroke="black" stroke-width="1" fill="none" opacity="1"/>
</svg>