<?xml version="1.0" standalone="yes"?>
<!-- SVG graphic -->
<svg xmlns='http://www.w3.org/2000/svg' xmlns:xlink='http://www.w3.org/1999/xlink'
 version="1.1">
<rect x="0" y="0" width="6" height="200" stroke="black" stroke-width="1" fill="blue" opacity="1" tooltip="enable"><title>(0,2870)</title></rect><rect x="6" y="113.171" width="6" height="86.8293" stroke="black" stroke-width="1" fill="blue" opacity="1" tooltip="enable"><title>(0.00158546,1246)</title></rect><rect x="12" y="159.164" width="6" height="40.8362" stroke="black" stroke-width="1" fill="blue" opacity="1" tooltip="enable"><title>(0.00317091,586)</title></rect><rect x="18" y="178.049" width="6" height="21.9512" stroke="black" stroke-width="1" fill="blue" opacity="1" tooltip="enable"><title>(0.00475637,315)</title></rect><rect x="24" y="184.321" width="6" height="15.6794" stroke="black" stroke-width="1" fill="blue" opacity="1" tooltip="enable"><title>(0.00634183,225)</title></rect><rect x="30" y="184.251" width="6" height="15.7491" stroke="black" stroke-width="1" fill="blue" opacity="1" tooltip="enable"><title>(0.00792729,226)</title></rect><rect x="36" y="186.063" width="6" height="13.9373" stroke="black" stroke-width="1" fill="blue" opacity="1" tooltip="enable"><title>(0.00951274,200)</title></rect><rect x="42" y="186.132" width="6" height="13.8676" stroke="black" stroke-width="1" fill="blue" opacity="1" tooltip="enable"><title>(0.0110982,199)</title></rect><rect x="48" y="185.923" width="6" height="14.0767" stroke="black" stroke-width="1" fill="blue" opacity="1" tooltip="enable"><title>(0.0126837,202)</title></rect><rect x="54" y="190.244" width="6" height="9.7561" stroke="black" stroke-width="1" fill="blue" opacity="1" tooltip="enable"><title>(0.0142691,140)</title></rect><rect x="60" y="188.502" width="6" height="11.4983" stroke="black" stroke-width="1" fill="blue" opacity="1" tooltip="enable"><title>(0.0158546,165)</title></rect><rect x="66" y="190.801" width="6" height="9.19861" stroke="black" stroke-width="1" fill="blue" opacity="1" tooltip="enable"><title>(0.01744,132)</title></rect><rect x="72" y="192.822" width="6" height="7.1777" stroke="black" stroke-width="1" fill="blue" opacity="1" tooltip="enable"><title>(0.0190255,103)</title></rect><rect x="78" y="192.125" width="6" height="7.87456" stroke="black" stroke-width="1" fill="blue" opacity="1" tooltip="enable"><title>(0.0206109,113)</title></rect><rect x="84" y="194.634" width="6" height="5.36585" stroke="black" stroke-width="1" fill="blue" opacity="1" tooltip="enable"><title>(0.0221964,77)</title></rect><rect x="90" y="194.913" width="6" height="5.08711" stroke="black" stroke-width="1" fill="blue" opacity="1" tooltip="enable"><title>(0.0237819,73)</title></rect><rect x="96" y="194.564" width="6" height="5.43554" stroke="black" stroke-width="1" fill="blue" opacity="1" tooltip="enable"><title>(0.0253673,78)</title></rect><rect x="102" y="193.24" width="6" height="6.75958" stroke="black" stroke-width="1" fill="blue" opacity="1" tooltip="enable"><title>(0.0269528,97)</title></rect><rect x="108" y="194.495" width="6" height="5.50523" stroke="black" stroke-width="1" fill="blue" opacity="1" tooltip="enable"><title>(0.0285382,79)</title></rect><rect x="114" y="194.983" width="6" height="5.01742" stroke="black" stroke-width="1" fill="blue" opacity="1" tooltip="enable"><title>(0.0301237,72)</title></rect><rect x="120" y="196.237" width="6" height="3.76307" stroke="black" stroke-width="1" fill="blue" opacity="1" tooltip="enable"><title>(0.0317091,54)</title></rect><rect x="126" y="195.122" width="6" height="4.87805" stroke="black" stroke-width="1" fill="blue" opacity="1" tooltip="enable"><title>(0.0332946,70)</title></rect><rect x="132" y="195.261" width="6" height="4.73868" stroke="black" stroke-width="1" fill="blue" opacity="1" tooltip="enable"><title>(0.0348801,68)</title></rect><rect x="138" y="195.122" width="6" height="4.87805" stroke="black" stroke-width="1" fill="blue" opacity="1" tooltip="enable"><title>(0.0364655,70)</title></rect><rect x="144" y="196.028" width="6" height="3.97213" stroke="black" stroke-width="1" fill="blue" opacity="1" tooltip="enable"><title>(0.038051,57)</title></rect><rect x="150" y="196.585" width="6" height="3.41463" stroke="black" stroke-width="1" fill="blue" opacity="1" tooltip="enable"><title>(0.0396364,49)</title></rect><rect x="156" y="196.167" width="6" height="3.83275" stroke="black" stroke-width="1" fill="blue" opacity="1" tooltip="enable"><title>(0.0412219,55)</title></rect><rect x="162" y="195.47" width="6" height="4.52962" stroke="black" stroke-width="1" fill="blue" opacity="1" tooltip="enable"><title>(0.0428073,65)</title></rect><rect x="168" y="197.213" width="6" height="2.78746" stroke="black" stroke-width="1" fill="blue" opacity="1" tooltip="enable"><title>(0.0443928,40)</title></rect><rect x="174" y="198.188" width="6" height="1.81185" stroke="black" stroke-width="1" fill="blue" opacity="1" tooltip="enable"><title>(0.0459783,26)</title></rect><rect x="180" y="197.003" width="6" height="2.99652" stroke="black" stroke-width="1" fill="blue" opacity="1" tooltip="enable"><title>(0.0475637,43)</title></rect><rect x="186" y="197.003" width="6" height="2.99652" stroke="black" stroke-width="1" fill="blue" opacity="1" tooltip="enable"><title>(0.0491492,43)</title></rect><rect x="192" y="198.885" width="6" height="1.11498" stroke="black" stroke-width="1" fill="blue" opacity="1" tooltip="enable"><title>(0.0507346,16)</title></rect><rect x="198" y="198.467" width="6" height="1.5331" stroke="black" stroke-width="1" fill="blue" opacity="1" tooltip="enable"><title>(0.0523201,22)</title></rect><rect x="204" y="199.024" width="6" height="0.97561" stroke="black" stroke-width="1" fill="blue" opacity="1" tooltip="enable"><title>(0.0539055,14)</title></rect><rect x="210" y="199.303" width="6" height="0.696864" stroke="black" stroke-width="1" fill="blue" opacity="1" tooltip="enable"><title>(0.055491,10)</title></rect><rect x="216" y="199.164" width="6" height="0.836237" stroke="black" stroke-width="1" fill="blue" opacity="1" tooltip="enable"><title>(0.0570765,12)</title></rect><rect x="222" y="198.746" width="6" height="1.25436" stroke="black" stroke-width="1" fill="blue" opacity="1" tooltip="enable"><title>(0.0586619,18)</title></rect><rect x="228" y="199.582" width="6" height="0.418118" stroke="black" stroke-width="1" fill="blue" opacity="1" tooltip="enable"><title>(0.0602474,6)</title></rect><rect x="234" y="199.303" width="6" height="0.696864" stroke="black" stroke-width="1" fill="blue" opacity="1" tooltip="enable"><title>(0.0618328,10)</title></rect><rect x="240" y="199.164" width="6" height="0.836237" stroke="black" stroke-width="1" fill="blue" opacity="1" tooltip="enable"><title>(0.0634183,12)</title></rect><rect x="246" y="198.746" width="6" height="1.25436" stroke="black" stroke-width="1" fill="blue" opacity="1" tooltip="enable"><title>(0.0650037,18)</title></rect><rect x="252" y="199.512" width="6" height="0.487805" stroke="black" stroke-width="1" fill="blue" opacity="1" tooltip="enable"><title>(0.0665892,7)</title></rect><rect x="258" y="199.373" width="6" height="0.627178" stroke="black" stroke-width="1" fill="blue" opacity="1" tooltip="enable"><title>(0.0681747,9)</title></rect><rect x="264" y="199.861" width="6" height="0.139373" stroke="black" stroke-width="1" fill="blue" opacity="1" tooltip="enable"><title>(0.0697601,2)</title></rect><rect x="270" y="200" width="6" height="0" stroke="black" stroke-width="1" fill="blue" opacity="1" tooltip="enable"><title>(0.0713456,0)</title></rect><rect x="276" y="200" width="6" height="0" stroke="black" stroke-width="1" fill="blue" opacity="1" tooltip="enable"><title>(0.072931,0)</title></rect><rect x="282" y="199.861" width="6" height="0.139373" stroke="black" stroke-width="1" fill="blue" opacity="1" tooltip="enable"><title>(0.0745165,2)</title></rect><rect x="288" y="200" width="6" height="0" stroke="black" stroke-width="1" fill="blue" opacity="1" tooltip="enable"><title>(0.0761019,0)</title></rect><rect x="294" y="200" width="6" height="0" stroke="black" stroke-width="1" fill="blue" opacity="1" tooltip="enable"><title>(0.0776874,0)</title></rect><rect x="300" y="200" width="6" height="0" stroke="black" stroke-width="1" fill="blue" opacity="1" tooltip="enable"><title>(0.0792729,0)</title></rect><rect x="306" y="200" width="6" height="0" stroke="black" stroke-width="1" fill="blue" opacity="1" tooltip="enable"><title>(0.0808583,0)</title></rect><rect x="312" y="200" width="6" height="0" stroke="black" stroke-width="1" fill="blue" opacity="1" tooltip="enable"><title>(0.0824438,0)</title></rect><rect x="318" y="200" width="6" height="0" stroke="black" stroke-width="1" fill="blue" opacity="1" tooltip="enable"><title>(0.0840292,0)</title></rect><rect x="324" y="200" width="6" height="0" stroke="black" stroke-width="1" fill="blue" opacity="1" tooltip="enable"><title>(0.0856147,0)</title></rect><rect x="330" y="200" width="6" height="0" stroke="black" stroke-width="1" fill="blue" opacity="1" tooltip="enable"><title>(0.0872001,0)</title></rect><rect x="336" y="200" width="6" height="0" stroke="black" stroke-width="1" fill="blue" opacity="1" tooltip="enable"><title>(0.0887856,0)</title></rect><rect x="342" y="200" width="6" height="0" stroke="black" stroke-width="1" fill="blue" opacity="1" tooltip="enable"><title>(0.090371,0)</title></rect><rect x="348" y="200" width="6" height="0" stroke="black" stroke-width="1" fill="blue" opacity="1" tooltip="enable"><title>(0.0919565,0)</title></rect><rect x="354" y="200" width="6" height="0" stroke="black" stroke-width="1" fill="blue" opacity="1" tooltip="enable"><title>(0.093542,0)</title></rect><rect x="360" y="200" width="6" height="0" stroke="black" stroke-width="1" fill="blue" opacity="1" tooltip="enable"><title>(0.0951274,0)</title></rect><rect x="366" y="200" width="6" height="0" stroke="black" stroke-width="1" fill="blue" opacity="1" tooltip="enable"><title>(0.0967129,0)</title></rect><rect x="372" y="200" width="6" height="0" stroke="black" stroke-width="1" fill="blue" opacity="1" tooltip="enable"><title>(0.0982983,0)</title></rect><rect x="378" y="200" width="6" height="0" stroke="black" stroke-width="1" fill="blue" opacity="1" tooltip="enable"><title>(0.0998838,0)</title></rect><rect x="384" y="200" width="6" height="0" stroke="black" stroke-width="1" fill="blue" opacity="1" tooltip="enable"><title>(0.101469,0)</title></rect><rect x="390" y="200" width="6" height="0" stroke="black" stroke-width="1" fill="blue" opacity="1" tooltip="enable"><title>(0.103055,0)</title></rect><rect x="396" y="200" width="6" height="0" stroke="black" stroke-width="1" fill="blue" opacity="1" tooltip="enable"><title>(0.10464,0)</title></rect><rect x="402" y="200" width="6" height="0" stroke="black" stroke-width="1" fill="blue" opacity="1" tooltip="enable"><title>(0.106226,0)</title></rect><rect x="408" y="200" width="6" height="0" stroke="black" stroke-width="1" fill="blue" opacity="1" tooltip="enable"><title>(0.107811,0)</title></rect><rect x="414" y="200" width="6" height="0" stroke="black" stroke-width="1" fill="blue" opacity="1" tooltip="enable"><title>(0.109397,0)</title></rect><rect x="420" y="200" width="6" height="0" stroke="black" stroke-width="1" fill="blue" opacity="1" tooltip="enable"><title>(0.110982,0)</title></rect><rect x="426" y="200" width="6" height="0" stroke="black" stroke-width="1" fill="blue" opacity="1" tooltip="enable"><title>(0.112567,0)</title></rect><rect x="432" y="200" width="6" height="0" stroke="black" stroke-width="1" fill="blue" opacity="1" tooltip="enable"><title>(0.114153,0)</title></rect><rect x="438" y="200" width="6" height="0" stroke="black" stroke-width="1" fill="blue" opacity="1" tooltip="enable"><title>(0.115738,0)</title></rect><rect x="444" y="200" width="6" height="0" stroke="black" stroke-width="1" fill="blue" opacity="1" tooltip="enable"><title>(0.117324,0)</title></rect><rect x="450" y="200" width="6" height="0" stroke="black" stroke-width="1" fill="blue" opacity="1" tooltip="enable"><title>(0.118909,0)</title></rect><rect x="456" y="200" width="6" height="0" stroke="black" stroke-width="1" fill="blue" opacity="1" tooltip="enable"><title>(0.120495,0)</title></rect><rect x="462" y="200" width="6" height="0" stroke="black" stroke-width="1" fill="blue" opacity="1" tooltip="enable"><title>(0.12208,0)</title></rect><rect x="468" y="200" width="6" height="0" stroke="black" stroke-width="1" fill="blue" opacity="1" tooltip="enable"><title>(0.123666,0)</title></rect><rect x="474" y="200" width="6" height="0" stroke="black" stroke-width="1" fill="blue" opacity="1" tooltip="enable"><title>(0.125251,0)</title></rect><rect x="480" y="200" width="6" height="0" stroke="black" stroke-width="1" fill="blue" opacity="1" tooltip="enable"><title>(0.126837,0)</title></rect><rect x="486" y="200" width="6" height="0" stroke="black" stroke-width="1" fill="blue" opacity="1" tooltip="enable"><title>(0.128422,0)</title></rect><rect x="492" y="200" width="6" height="0" stroke="black" stroke-width="1" fill="blue" opacity="1" tooltip="enable"><title>(0.130007,0)</title></rect><rect x="498" y="200" width="6" height="0" stroke="black" stroke-width="1" fill="blue" opacity="1" tooltip="enable"><title>(0.131593,0)</title></rect><rect x="504" y="200" width="6" height="0" stroke="black" stroke-width="1" fill="blue" opacity="1" tooltip="enable"><title>(0.133178,0)</title></rect><rect x="510" y="200" width="6" height="0" stroke="black" stroke-width="1" fill="blue" opacity="1" tooltip="enable"><title>(0.134764,0)</title></rect><rect x="516" y="200" width="6" height="0" stroke="black" stroke-width="1" fill="blue" opacity="1" tooltip="enable"><title>(0.136349,0)</title></rect><rect x="522" y="200" width="6" height="0" stroke="black" stroke-width="1" fill="blue" opacity="1" tooltip="enable"><title>(0.137935,0)</title></rect><rect x="528" y="200" width="6" height="0" stroke="black" stroke-width="1" fill="blue" opacity="1" tooltip="enable"><title>(0.13952,0)</title></rect><rect x="534" y="200" width="6" height="0" stroke="black" stroke-width="1" fill="blue" opacity="1" tooltip="enable"><title>(0.141106,0)</title></rect><rect x="540" y="200" width="6" height="0" stroke="black" stroke-width="1" fill="blue" opacity="1" tooltip="enable"><title>(0.142691,0)</title></rect><rect x="546" y="200" width="6" height="0" stroke="black" stroke-width="1" fill="blue" opacity="1" tooltip="enable"><title>(0.144277,0)</title></rect><rect x="552" y="200" width="6" height="0" stroke="black" stroke-width="1" fill="blue" opacity="1" tooltip="enable"><title>(0.145862,0)</title></rect><rect x="558" y="200" width="6" height="0" stroke="black" stroke-width="1" fill="blue" opacity="1" tooltip="enable"><title>(0.147448,0)</title></rect><rect x="564" y="200" width="6" height="0" stroke="black" stroke-width="1" fill="blue" opacity="1" tooltip="enable"><title>(0.149033,0)</title></rect><rect x="570" y="200" width="6" height="0" stroke="black" stroke-width="1" fill="blue" opacity="1" tooltip="enable"><title>(0.150618,0)</title></rect><rect x="576" y="200" width="6" height="0" stroke="black" stroke-width="1" fill="blue" opacity="1" tooltip="enable"><title>(0.152204,0)</title></rect><rect x="582" y="200" width="6" height="0" stroke="black" stroke-width="1" fill="blue" opacity="1" tooltip="enable"><title>(0.153789,0)</title></rect><rect x="588" y="199.861" width="6" height="0.139373" stroke="black" stroke-width="1" fill="blue" opacity="1" tooltip="enable"><title>(0.155375,2)</title></rect><rect x="594" y="199.861" width="6" height="0.139373" stroke="black" stroke-width="1" fill="blue" opacity="1" tooltip="enable"><title>(0.15696,2)</title></rect><text x="30" y="240" font-size="20" fill="black">0</text>
<text x="600" y="240" font-size="20" fill="black">0.158546</text>
<polyline points="0,220,600,220" stroke="black" stroke-width="1" fill="none" opacity="1"/>
<text x="720" y="20" font-size="20" fill="black">2870</text>
<text x="720" y="200" font-size="20" fill="black">0</text>
<polyline points="660,0,660,200" stroke="black" stroke-width="1" fill="none" opacity="1"/>
</svg>