<?xml version="1.0" standalone="yes"?>
<!-- SVG graphic -->
<svg xmlns='http://www.w3.org/2000/svg' xmlns:xlink='http://www.w3.org/1999/xlink'
 version="1.1">
<rect x="0" y="0" width="6" height="200" stroke="black" stroke-width="1" fill="blue" opacity="1" tooltip="enable"><title>(0,1915)</title></rect><rect x="6" y="54.7258" width="6" height="145.274" stroke="black" stroke-width="1" fill="blue" opacity="1" tooltip="enable"><title>(0.0013884,1391)</title></rect><rect x="12" y="128.877" width="6" height="71.1227" stroke="black" stroke-width="1" fill="blue" opacity="1" tooltip="enable"><title>(0.0027768,681)</title></rect><rect x="18" y="155.196" width="6" height="44.8042" stroke="black" stroke-width="1" fill="blue" opacity="1" tooltip="enable"><title>(0.00416519,429)</title></rect><rect x="24" y="175.875" width="6" height="24.1253" stroke="black" stroke-width="1" fill="blue" opacity="1" tooltip="enable"><title>(0.00555359,231)</title></rect><rect x="30" y="184.752" width="6" height="15.248" stroke="black" stroke-width="1" fill="blue" opacity="1" tooltip="enable"><title>(0.00694199,146)</title></rect><rect x="36" y="187.99" width="6" height="12.0104" stroke="black" stroke-width="1" fill="blue" opacity="1" tooltip="enable"><title>(0.00833039,115)</title></rect><rect x="42" y="183.29" width="6" height="16.7102" stroke="black" stroke-width="1" fill="blue" opacity="1" tooltip="enable"><title>(0.00971879,160)</title></rect><rect x="48" y="187.258" width="6" height="12.7415" stroke="black" stroke-width="1" fill="blue" opacity="1" tooltip="enable"><title>(0.0111072,122)</title></rect><rect x="54" y="186.11" width="6" height="13.8903" stroke="black" stroke-width="1" fill="blue" opacity="1" tooltip="enable"><title>(0.0124956,133)</title></rect><rect x="60" y="186.945" width="6" height="13.0548" stroke="black" stroke-width="1" fill="blue" opacity="1" tooltip="enable"><title>(0.013884,125)</title></rect><rect x="66" y="182.768" width="6" height="17.2324" stroke="black" stroke-width="1" fill="blue" opacity="1" tooltip="enable"><title>(0.0152724,165)</title></rect><rect x="72" y="183.394" width="6" height="16.6057" stroke="black" stroke-width="1" fill="blue" opacity="1" tooltip="enable"><title>(0.0166608,159)</title></rect><rect x="78" y="187.258" width="6" height="12.7415" stroke="black" stroke-width="1" fill="blue" opacity="1" tooltip="enable"><title>(0.0180492,122)</title></rect><rect x="84" y="188.407" width="6" height="11.5927" stroke="black" stroke-width="1" fill="blue" opacity="1" tooltip="enable"><title>(0.0194376,111)</title></rect><rect x="90" y="186.527" width="6" height="13.4726" stroke="black" stroke-width="1" fill="blue" opacity="1" tooltip="enable"><title>(0.020826,129)</title></rect><rect x="96" y="188.512" width="6" height="11.4883" stroke="black" stroke-width="1" fill="blue" opacity="1" tooltip="enable"><title>(0.0222144,110)</title></rect><rect x="102" y="187.467" width="6" height="12.5326" stroke="black" stroke-width="1" fill="blue" opacity="1" tooltip="enable"><title>(0.0236028,120)</title></rect><rect x="108" y="191.436" width="6" height="8.56397" stroke="black" stroke-width="1" fill="blue" opacity="1" tooltip="enable"><title>(0.0249912,82)</title></rect><rect x="114" y="192.063" width="6" height="7.93734" stroke="black" stroke-width="1" fill="blue" opacity="1" tooltip="enable"><title>(0.0263796,76)</title></rect><rect x="120" y="191.227" width="6" height="8.77285" stroke="black" stroke-width="1" fill="blue" opacity="1" tooltip="enable"><title>(0.027768,84)</title></rect><rect x="126" y="192.272" width="6" height="7.72846" stroke="black" stroke-width="1" fill="blue" opacity="1" tooltip="enable"><title>(0.0291564,74)</title></rect><rect x="132" y="191.54" width="6" height="8.45953" stroke="black" stroke-width="1" fill="blue" opacity="1" tooltip="enable"><title>(0.0305448,81)</title></rect><rect x="138" y="193.003" width="6" height="6.99739" stroke="black" stroke-width="1" fill="blue" opacity="1" tooltip="enable"><title>(0.0319332,67)</title></rect><rect x="144" y="191.227" width="6" height="8.77285" stroke="black" stroke-width="1" fill="blue" opacity="1" tooltip="enable"><title>(0.0333216,84)</title></rect><rect x="150" y="190.287" width="6" height="9.71279" stroke="black" stroke-width="1" fill="blue" opacity="1" tooltip="enable"><title>(0.03471,93)</title></rect><rect x="156" y="193.629" width="6" height="6.37076" stroke="black" stroke-width="1" fill="blue" opacity="1" tooltip="enable"><title>(0.0360984,61)</title></rect><rect x="162" y="193.629" width="6" height="6.37076" stroke="black" stroke-width="1" fill="blue" opacity="1" tooltip="enable"><title>(0.0374868,61)</title></rect><rect x="168" y="195.405" width="6" height="4.5953" stroke="black" stroke-width="1" fill="blue" opacity="1" tooltip="enable"><title>(0.0388752,44)</title></rect><rect x="174" y="194.151" width="6" height="5.84856" stroke="black" stroke-width="1" fill="blue" opacity="1" tooltip="enable"><title>(0.0402636,56)</title></rect><rect x="180" y="195.091" width="6" height="4.90862" stroke="black" stroke-width="1" fill="blue" opacity="1" tooltip="enable"><title>(0.041652,47)</title></rect><rect x="186" y="196.449" width="6" height="3.55091" stroke="black" stroke-width="1" fill="blue" opacity="1" tooltip="enable"><title>(0.0430404,34)</title></rect><rect x="192" y="196.031" width="6" height="3.96867" stroke="black" stroke-width="1" fill="blue" opacity="1" tooltip="enable"><title>(0.0444287,38)</title></rect><rect x="198" y="195.405" width="6" height="4.5953" stroke="black" stroke-width="1" fill="blue" opacity="1" tooltip="enable"><title>(0.0458171,44)</title></rect><rect x="204" y="195.614" width="6" height="4.38642" stroke="black" stroke-width="1" fill="blue" opacity="1" tooltip="enable"><title>(0.0472055,42)</title></rect><rect x="210" y="195.405" width="6" height="4.5953" stroke="black" stroke-width="1" fill="blue" opacity="1" tooltip="enable"><title>(0.0485939,44)</title></rect><rect x="216" y="196.24" width="6" height="3.75979" stroke="black" stroke-width="1" fill="blue" opacity="1" tooltip="enable"><title>(0.0499823,36)</title></rect><rect x="222" y="198.016" width="6" height="1.98433" stroke="black" stroke-width="1" fill="blue" opacity="1" tooltip="enable"><title>(0.0513707,19)</title></rect><rect x="228" y="196.554" width="6" height="3.44648" stroke="black" stroke-width="1" fill="blue" opacity="1" tooltip="enable"><title>(0.0527591,33)</title></rect><rect x="234" y="196.031" width="6" height="3.96867" stroke="black" stroke-width="1" fill="blue" opacity="1" tooltip="enable"><title>(0.0541475,38)</title></rect><rect x="240" y="196.345" width="6" height="3.65535" stroke="black" stroke-width="1" fill="blue" opacity="1" tooltip="enable"><title>(0.0555359,35)</title></rect><rect x="246" y="196.658" width="6" height="3.34204" stroke="black" stroke-width="1" fill="blue" opacity="1" tooltip="enable"><title>(0.0569243,32)</title></rect><rect x="252" y="198.433" width="6" height="1.56658" stroke="black" stroke-width="1" fill="blue" opacity="1" tooltip="enable"><title>(0.0583127,15)</title></rect><rect x="258" y="197.076" width="6" height="2.92428" stroke="black" stroke-width="1" fill="blue" opacity="1" tooltip="enable"><title>(0.0597011,28)</title></rect><rect x="264" y="197.493" width="6" height="2.50653" stroke="black" stroke-width="1" fill="blue" opacity="1" tooltip="enable"><title>(0.0610895,24)</title></rect><rect x="270" y="197.911" width="6" height="2.08877" stroke="black" stroke-width="1" fill="blue" opacity="1" tooltip="enable"><title>(0.0624779,20)</title></rect><rect x="276" y="198.225" width="6" height="1.77546" stroke="black" stroke-width="1" fill="blue" opacity="1" tooltip="enable"><title>(0.0638663,17)</title></rect><rect x="282" y="197.389" width="6" height="2.61097" stroke="black" stroke-width="1" fill="blue" opacity="1" tooltip="enable"><title>(0.0652547,25)</title></rect><rect x="288" y="199.373" width="6" height="0.626632" stroke="black" stroke-width="1" fill="blue" opacity="1" tooltip="enable"><title>(0.0666431,6)</title></rect><rect x="294" y="196.658" width="6" height="3.34204" stroke="black" stroke-width="1" fill="blue" opacity="1" tooltip="enable"><title>(0.0680315,32)</title></rect><rect x="300" y="198.12" width="6" height="1.8799" stroke="black" stroke-width="1" fill="blue" opacity="1" tooltip="enable"><title>(0.0694199,18)</title></rect><rect x="306" y="198.747" width="6" height="1.25326" stroke="black" stroke-width="1" fill="blue" opacity="1" tooltip="enable"><title>(0.0708083,12)</title></rect><rect x="312" y="199.478" width="6" height="0.522193" stroke="black" stroke-width="1" fill="blue" opacity="1" tooltip="enable"><title>(0.0721967,5)</title></rect><rect x="318" y="199.06" width="6" height="0.939948" stroke="black" stroke-width="1" fill="blue" opacity="1" tooltip="enable"><title>(0.0735851,9)</title></rect><rect x="324" y="198.747" width="6" height="1.25326" stroke="black" stroke-width="1" fill="blue" opacity="1" tooltip="enable"><title>(0.0749735,12)</title></rect><rect x="330" y="199.164" width="6" height="0.835509" stroke="black" stroke-width="1" fill="blue" opacity="1" tooltip="enable"><title>(0.0763619,8)</title></rect><rect x="336" y="197.702" width="6" height="2.29765" stroke="black" stroke-width="1" fill="blue" opacity="1" tooltip="enable"><title>(0.0777503,22)</title></rect><rect x="342" y="198.329" width="6" height="1.67102" stroke="black" stroke-width="1" fill="blue" opacity="1" tooltip="enable"><title>(0.0791387,16)</title></rect><rect x="348" y="199.582" width="6" height="0.417755" stroke="black" stroke-width="1" fill="blue" opacity="1" tooltip="enable"><title>(0.0805271,4)</title></rect><rect x="354" y="199.582" width="6" height="0.417755" stroke="black" stroke-width="1" fill="blue" opacity="1" tooltip="enable"><title>(0.0819155,4)</title></rect><rect x="360" y="198.851" width="6" height="1.14883" stroke="black" stroke-width="1" fill="blue" opacity="1" tooltip="enable"><title>(0.0833039,11)</title></rect><rect x="366" y="199.687" width="6" height="0.313316" stroke="black" stroke-width="1" fill="blue" opacity="1" tooltip="enable"><title>(0.0846923,3)</title></rect><rect x="372" y="198.956" width="6" height="1.04439" stroke="black" stroke-width="1" fill="blue" opacity="1" tooltip="enable"><title>(0.0860807,10)</title></rect><rect x="378" y="199.582" width="6" height="0.417755" stroke="black" stroke-width="1" fill="blue" opacity="1" tooltip="enable"><title>(0.0874691,4)</title></rect><rect x="384" y="199.373" width="6" height="0.626632" stroke="black" stroke-width="1" fill="blue" opacity="1" tooltip="enable"><title>(0.0888575,6)</title></rect><rect x="390" y="200" width="6" height="0" stroke="black" stroke-width="1" fill="blue" opacity="1" tooltip="enable"><title>(0.0902459,0)</title></rect><rect x="396" y="200" width="6" height="0" stroke="black" stroke-width="1" fill="blue" opacity="1" tooltip="enable"><title>(0.0916343,0)</title></rect><rect x="402" y="200" width="6" height="0" stroke="black" stroke-width="1" fill="blue" opacity="1" tooltip="enable"><title>(0.0930227,0)</title></rect><rect x="408" y="200" width="6" height="0" stroke="black" stroke-width="1" fill="blue" opacity="1" tooltip="enable"><title>(0.0944111,0)</title></rect><rect x="414" y="199.791" width="6" height="0.208877" stroke="black" stroke-width="1" fill="blue" opacity="1" tooltip="enable"><title>(0.0957995,2)</title></rect><rect x="420" y="200" width="6" height="0" stroke="black" stroke-width="1" fill="blue" opacity="1" tooltip="enable"><title>(0.0971879,0)</title></rect><rect x="426" y="200" width="6" height="0" stroke="black" stroke-width="1" fill="blue" opacity="1" tooltip="enable"><title>(0.0985763,0)</title></rect><rect x="432" y="200" width="6" height="0" stroke="black" stroke-width="1" fill="blue" opacity="1" tooltip="enable"><title>(0.0999647,0)</title></rect><rect x="438" y="199.582" width="6" height="0.417755" stroke="black" stroke-width="1" fill="blue" opacity="1" tooltip="enable"><title>(0.101353,4)</title></rect><rect x="444" y="200" width="6" height="0" stroke="black" stroke-width="1" fill="blue" opacity="1" tooltip="enable"><title>(0.102741,0)</title></rect><rect x="450" y="200" width="6" height="0" stroke="black" stroke-width="1" fill="blue" opacity="1" tooltip="enable"><title>(0.10413,0)</title></rect><rect x="456" y="200" width="6" height="0" stroke="black" stroke-width="1" fill="blue" opacity="1" tooltip="enable"><title>(0.105518,0)</title></rect><rect x="462" y="199.582" width="6" height="0.417755" stroke="black" stroke-width="1" fill="blue" opacity="1" tooltip="enable"><title>(0.106907,4)</title></rect><rect x="468" y="200" width="6" height="0" stroke="black" stroke-width="1" fill="blue" opacity="1" tooltip="enable"><title>(0.108295,0)</title></rect><rect x="474" y="200" width="6" height="0" stroke="black" stroke-width="1" fill="blue" opacity="1" tooltip="enable"><title>(0.109683,0)</title></rect><rect x="480" y="200" width="6" height="0" stroke="black" stroke-width="1" fill="blue" opacity="1" tooltip="enable"><title>(0.111072,0)</title></rect><rect x="486" y="200" width="6" height="0" stroke="black" stroke-width="1" fill="blue" opacity="1" tooltip="enable"><title>(0.11246,0)</title></rect><rect x="492" y="199.791" width="6" height="0.208877" stroke="black" stroke-width="1" fill="blue" opacity="1" tooltip="enable"><title>(0.113849,2)</title></rect><rect x="498" y="200" width="6" height="0" stroke="black" stroke-width="1" fill="blue" opacity="1" tooltip="enable"><title>(0.115237,0)</title></rect><rect x="504" y="200" width="6" height="0" stroke="black" stroke-width="1" fill="blue" opacity="1" tooltip="enable"><title>(0.116625,0)</title></rect><rect x="510" y="199.791" width="6" height="0.208877" stroke="black" stroke-width="1" fill="blue" opacity="1" tooltip="enable"><title>(0.118014,2)</title></rect><rect x="516" y="200" width="6" height="0" stroke="black" stroke-width="1" fill="blue" opacity="1" tooltip="enable"><title>(0.119402,0)</title></rect><rect x="522" y="200" width="6" height="0" stroke="black" stroke-width="1" fill="blue" opacity="1" tooltip="enable"><title>(0.120791,0)</title></rect><rect x="528" y="200" width="6" height="0" stroke="black" stroke-width="1" fill="blue" opacity="1" tooltip="enable"><title>(0.122179,0)</title></rect><rect x="534" y="200" width="6" height="0" stroke="black" stroke-width="1" fill="blue" opacity="1" tooltip="enable"><title>(0.123567,0)</title></rect><rect x="540" y="200" width="6" height="0" stroke="black" stroke-width="1" fill="blue" opacity="1" tooltip="enable"><title>(0.124956,0)</title></rect><rect x="546" y="200" width="6" height="0" stroke="black" stroke-width="1" fill="blue" opacity="1" tooltip="enable"><title>(0.126344,0)</title></rect><rect x="552" y="200" width="6" height="0" stroke="black" stroke-width="1" fill="blue" opacity="1" tooltip="enable"><title>(0.127733,0)</title></rect><rect x="558" y="200" width="6" height="0" stroke="black" stroke-width="1" fill="blue" opacity="1" tooltip="enable"><title>(0.129121,0)</title></rect><rect x="564" y="200" width="6" height="0" stroke="black" stroke-width="1" fill="blue" opacity="1" tooltip="enable"><title>(0.130509,0)</title></rect><rect x="570" y="200" width="6" height="0" stroke="black" stroke-width="1" fill="blue" opacity="1" tooltip="enable"><title>(0.131898,0)</title></rect><rect x="576" y="199.791" width="6" height="0.208877" stroke="black" stroke-width="1" fill="blue" opacity="1" tooltip="enable"><title>(0.133286,2)</title></rect><rect x="582" y="199.791" width="6" height="0.208877" stroke="black" stroke-width="1" fill="blue" opacity="1" tooltip="enable"><title>(0.134675,2)</title></rect><rect x="588" y="200" width="6" height="0" stroke="black" stroke-width="1" fill="blue" opacity="1" tooltip="enable"><title>(0.136063,0)</title></rect><rect x="594" y="199.896" width="6" height="0.104439" stroke="black" stroke-width="1" fill="blue" opacity="1" tooltip="enable"><title>(0.137451,1)</title></rect><text x="30" y="240" font-size="20" fill="black">0</text>
<text x="600" y="240" font-size="20" fill="black">0.13884</text>
<polyline points="0,220,600,220" stroke="black" stroke-width="1" fill="none" opacity="1"/>
<text x="720" y="20" font-size="20" fill="black">1915</text>
<text x="720" y="200" font-size="20" fill="black">0</text>
<polyline points="660,0,660,200" stroke="black" stroke-width="1" fill="none" opacity="1"/>
</svg>