<?xml version="1.0" standalone="yes"?>
<!-- SVG graphic -->
<svg xmlns='http://www.w3.org/2000/svg' xmlns:xlink='http://www.w3.org/1999/xlink'
 version="1.1">
<rect x="0" y="0" width="6" height="200" stroke="black" stroke-width="1" fill="blue" opacity="1" tooltip="enable"><title>(0,1381)</title></rect><rect x="6" y="29.399" width="6" height="170.601" stroke="black" stroke-width="1" fill="blue" opacity="1" tooltip="enable"><title>(0.000826994,1178)</title></rect><rect x="12" y="89.3555" width="6" height="110.644" stroke="black" stroke-width="1" fill="blue" opacity="1" tooltip="enable"><title>(0.00165399,764)</title></rect><rect x="18" y="123.534" width="6" height="76.4663" stroke="black" stroke-width="1" fill="blue" opacity="1" tooltip="enable"><title>(0.00248098,528)</title></rect><rect x="24" y="135.554" width="6" height="64.4461" stroke="black" stroke-width="1" fill="blue" opacity="1" tooltip="enable"><title>(0.00330798,445)</title></rect><rect x="30" y="151.919" width="6" height="48.0811" stroke="black" stroke-width="1" fill="blue" opacity="1" tooltip="enable"><title>(0.00413497,332)</title></rect><rect x="36" y="162.056" width="6" height="37.9435" stroke="black" stroke-width="1" fill="blue" opacity="1" tooltip="enable"><title>(0.00496197,262)</title></rect><rect x="42" y="178.421" width="6" height="21.5786" stroke="black" stroke-width="1" fill="blue" opacity="1" tooltip="enable"><title>(0.00578896,149)</title></rect><rect x="48" y="183.78" width="6" height="16.2201" stroke="black" stroke-width="1" fill="blue" opacity="1" tooltip="enable"><title>(0.00661595,112)</title></rect><rect x="54" y="178.421" width="6" height="21.5786" stroke="black" stroke-width="1" fill="blue" opacity="1" tooltip="enable"><title>(0.00744295,149)</title></rect><rect x="60" y="184.359" width="6" height="15.6408" stroke="black" stroke-width="1" fill="blue" opacity="1" tooltip="enable"><title>(0.00826994,108)</title></rect><rect x="66" y="182.766" width="6" height="17.2339" stroke="black" stroke-width="1" fill="blue" opacity="1" tooltip="enable"><title>(0.00909694,119)</title></rect><rect x="72" y="180.594" width="6" height="19.4062" stroke="black" stroke-width="1" fill="blue" opacity="1" tooltip="enable"><title>(0.00992393,134)</title></rect><rect x="78" y="183.78" width="6" height="16.2201" stroke="black" stroke-width="1" fill="blue" opacity="1" tooltip="enable"><title>(0.0107509,112)</title></rect><rect x="84" y="187.4" width="6" height="12.5996" stroke="black" stroke-width="1" fill="blue" opacity="1" tooltip="enable"><title>(0.0115779,87)</title></rect><rect x="90" y="185.663" width="6" height="14.3374" stroke="black" stroke-width="1" fill="blue" opacity="1" tooltip="enable"><title>(0.0124049,99)</title></rect><rect x="96" y="184.649" width="6" height="15.3512" stroke="black" stroke-width="1" fill="blue" opacity="1" tooltip="enable"><title>(0.0132319,106)</title></rect><rect x="102" y="187.256" width="6" height="12.7444" stroke="black" stroke-width="1" fill="blue" opacity="1" tooltip="enable"><title>(0.0140589,88)</title></rect><rect x="108" y="185.663" width="6" height="14.3374" stroke="black" stroke-width="1" fill="blue" opacity="1" tooltip="enable"><title>(0.0148859,99)</title></rect><rect x="114" y="189.138" width="6" height="10.8617" stroke="black" stroke-width="1" fill="blue" opacity="1" tooltip="enable"><title>(0.0157129,75)</title></rect><rect x="120" y="184.794" width="6" height="15.2064" stroke="black" stroke-width="1" fill="blue" opacity="1" tooltip="enable"><title>(0.0165399,105)</title></rect><rect x="126" y="191.021" width="6" height="8.979" stroke="black" stroke-width="1" fill="blue" opacity="1" tooltip="enable"><title>(0.0173669,62)</title></rect><rect x="132" y="190.587" width="6" height="9.41347" stroke="black" stroke-width="1" fill="blue" opacity="1" tooltip="enable"><title>(0.0181939,65)</title></rect><rect x="138" y="191.455" width="6" height="8.54453" stroke="black" stroke-width="1" fill="blue" opacity="1" tooltip="enable"><title>(0.0190209,59)</title></rect><rect x="144" y="190.587" width="6" height="9.41347" stroke="black" stroke-width="1" fill="blue" opacity="1" tooltip="enable"><title>(0.0198479,65)</title></rect><rect x="150" y="194.497" width="6" height="5.50326" stroke="black" stroke-width="1" fill="blue" opacity="1" tooltip="enable"><title>(0.0206749,38)</title></rect><rect x="156" y="193.193" width="6" height="6.80666" stroke="black" stroke-width="1" fill="blue" opacity="1" tooltip="enable"><title>(0.0215019,47)</title></rect><rect x="162" y="192.324" width="6" height="7.6756" stroke="black" stroke-width="1" fill="blue" opacity="1" tooltip="enable"><title>(0.0223288,53)</title></rect><rect x="168" y="194.062" width="6" height="5.93773" stroke="black" stroke-width="1" fill="blue" opacity="1" tooltip="enable"><title>(0.0231558,41)</title></rect><rect x="174" y="192.469" width="6" height="7.53078" stroke="black" stroke-width="1" fill="blue" opacity="1" tooltip="enable"><title>(0.0239828,52)</title></rect><rect x="180" y="193.049" width="6" height="6.95148" stroke="black" stroke-width="1" fill="blue" opacity="1" tooltip="enable"><title>(0.0248098,48)</title></rect><rect x="186" y="193.917" width="6" height="6.08255" stroke="black" stroke-width="1" fill="blue" opacity="1" tooltip="enable"><title>(0.0256368,42)</title></rect><rect x="192" y="195.221" width="6" height="4.77915" stroke="black" stroke-width="1" fill="blue" opacity="1" tooltip="enable"><title>(0.0264638,33)</title></rect><rect x="198" y="193.193" width="6" height="6.80666" stroke="black" stroke-width="1" fill="blue" opacity="1" tooltip="enable"><title>(0.0272908,47)</title></rect><rect x="204" y="193.483" width="6" height="6.51702" stroke="black" stroke-width="1" fill="blue" opacity="1" tooltip="enable"><title>(0.0281178,45)</title></rect><rect x="210" y="196.235" width="6" height="3.76539" stroke="black" stroke-width="1" fill="blue" opacity="1" tooltip="enable"><title>(0.0289448,26)</title></rect><rect x="216" y="195.945" width="6" height="4.05503" stroke="black" stroke-width="1" fill="blue" opacity="1" tooltip="enable"><title>(0.0297718,28)</title></rect><rect x="222" y="196.524" width="6" height="3.47574" stroke="black" stroke-width="1" fill="blue" opacity="1" tooltip="enable"><title>(0.0305988,24)</title></rect><rect x="228" y="195.8" width="6" height="4.19986" stroke="black" stroke-width="1" fill="blue" opacity="1" tooltip="enable"><title>(0.0314258,29)</title></rect><rect x="234" y="196.379" width="6" height="3.62056" stroke="black" stroke-width="1" fill="blue" opacity="1" tooltip="enable"><title>(0.0322528,25)</title></rect><rect x="240" y="196.524" width="6" height="3.47574" stroke="black" stroke-width="1" fill="blue" opacity="1" tooltip="enable"><title>(0.0330798,24)</title></rect><rect x="246" y="197.393" width="6" height="2.60681" stroke="black" stroke-width="1" fill="blue" opacity="1" tooltip="enable"><title>(0.0339068,18)</title></rect><rect x="252" y="195.076" width="6" height="4.92397" stroke="black" stroke-width="1" fill="blue" opacity="1" tooltip="enable"><title>(0.0347338,34)</title></rect><rect x="258" y="195.51" width="6" height="4.4895" stroke="black" stroke-width="1" fill="blue" opacity="1" tooltip="enable"><title>(0.0355608,31)</title></rect><rect x="264" y="194.352" width="6" height="5.64808" stroke="black" stroke-width="1" fill="blue" opacity="1" tooltip="enable"><title>(0.0363877,39)</title></rect><rect x="270" y="194.642" width="6" height="5.35844" stroke="black" stroke-width="1" fill="blue" opacity="1" tooltip="enable"><title>(0.0372147,37)</title></rect><rect x="276" y="195.076" width="6" height="4.92397" stroke="black" stroke-width="1" fill="blue" opacity="1" tooltip="enable"><title>(0.0380417,34)</title></rect><rect x="282" y="196.379" width="6" height="3.62056" stroke="black" stroke-width="1" fill="blue" opacity="1" tooltip="enable"><title>(0.0388687,25)</title></rect><rect x="288" y="194.931" width="6" height="5.06879" stroke="black" stroke-width="1" fill="blue" opacity="1" tooltip="enable"><title>(0.0396957,35)</title></rect><rect x="294" y="195.655" width="6" height="4.34468" stroke="black" stroke-width="1" fill="blue" opacity="1" tooltip="enable"><title>(0.0405227,30)</title></rect><rect x="300" y="198.841" width="6" height="1.15858" stroke="black" stroke-width="1" fill="blue" opacity="1" tooltip="enable"><title>(0.0413497,8)</title></rect><rect x="306" y="194.786" width="6" height="5.21361" stroke="black" stroke-width="1" fill="blue" opacity="1" tooltip="enable"><title>(0.0421767,36)</title></rect><rect x="312" y="195.51" width="6" height="4.4895" stroke="black" stroke-width="1" fill="blue" opacity="1" tooltip="enable"><title>(0.0430037,31)</title></rect><rect x="318" y="196.09" width="6" height="3.91021" stroke="black" stroke-width="1" fill="blue" opacity="1" tooltip="enable"><title>(0.0438307,27)</title></rect><rect x="324" y="199.421" width="6" height="0.57929" stroke="black" stroke-width="1" fill="blue" opacity="1" tooltip="enable"><title>(0.0446577,4)</title></rect><rect x="330" y="195.945" width="6" height="4.05503" stroke="black" stroke-width="1" fill="blue" opacity="1" tooltip="enable"><title>(0.0454847,28)</title></rect><rect x="336" y="196.959" width="6" height="3.04127" stroke="black" stroke-width="1" fill="blue" opacity="1" tooltip="enable"><title>(0.0463117,21)</title></rect><rect x="342" y="195.945" width="6" height="4.05503" stroke="black" stroke-width="1" fill="blue" opacity="1" tooltip="enable"><title>(0.0471387,28)</title></rect><rect x="348" y="197.248" width="6" height="2.75163" stroke="black" stroke-width="1" fill="blue" opacity="1" tooltip="enable"><title>(0.0479657,19)</title></rect><rect x="354" y="198.552" width="6" height="1.44823" stroke="black" stroke-width="1" fill="blue" opacity="1" tooltip="enable"><title>(0.0487927,10)</title></rect><rect x="360" y="196.959" width="6" height="3.04127" stroke="black" stroke-width="1" fill="blue" opacity="1" tooltip="enable"><title>(0.0496197,21)</title></rect><rect x="366" y="198.986" width="6" height="1.01376" stroke="black" stroke-width="1" fill="blue" opacity="1" tooltip="enable"><title>(0.0504467,7)</title></rect><rect x="372" y="196.379" width="6" height="3.62056" stroke="black" stroke-width="1" fill="blue" opacity="1" tooltip="enable"><title>(0.0512736,25)</title></rect><rect x="378" y="197.538" width="6" height="2.46198" stroke="black" stroke-width="1" fill="blue" opacity="1" tooltip="enable"><title>(0.0521006,17)</title></rect><rect x="384" y="198.262" width="6" height="1.73787" stroke="black" stroke-width="1" fill="blue" opacity="1" tooltip="enable"><title>(0.0529276,12)</title></rect><rect x="390" y="197.972" width="6" height="2.02752" stroke="black" stroke-width="1" fill="blue" opacity="1" tooltip="enable"><title>(0.0537546,14)</title></rect><rect x="396" y="198.407" width="6" height="1.59305" stroke="black" stroke-width="1" fill="blue" opacity="1" tooltip="enable"><title>(0.0545816,11)</title></rect><rect x="402" y="197.972" width="6" height="2.02752" stroke="black" stroke-width="1" fill="blue" opacity="1" tooltip="enable"><title>(0.0554086,14)</title></rect><rect x="408" y="198.117" width="6" height="1.88269" stroke="black" stroke-width="1" fill="blue" opacity="1" tooltip="enable"><title>(0.0562356,13)</title></rect><rect x="414" y="197.972" width="6" height="2.02752" stroke="black" stroke-width="1" fill="blue" opacity="1" tooltip="enable"><title>(0.0570626,14)</title></rect><rect x="420" y="199.421" width="6" height="0.57929" stroke="black" stroke-width="1" fill="blue" opacity="1" tooltip="enable"><title>(0.0578896,4)</title></rect><rect x="426" y="198.552" width="6" height="1.44823" stroke="black" stroke-width="1" fill="blue" opacity="1" tooltip="enable"><title>(0.0587166,10)</title></rect><rect x="432" y="199.71" width="6" height="0.289645" stroke="black" stroke-width="1" fill="blue" opacity="1" tooltip="enable"><title>(0.0595436,2)</title></rect><rect x="438" y="197.972" width="6" height="2.02752" stroke="black" stroke-width="1" fill="blue" opacity="1" tooltip="enable"><title>(0.0603706,14)</title></rect><rect x="444" y="199.421" width="6" height="0.57929" stroke="black" stroke-width="1" fill="blue" opacity="1" tooltip="enable"><title>(0.0611976,4)</title></rect><rect x="450" y="200" width="6" height="0" stroke="black" stroke-width="1" fill="blue" opacity="1" tooltip="enable"><title>(0.0620246,0)</title></rect><rect x="456" y="199.131" width="6" height="0.868936" stroke="black" stroke-width="1" fill="blue" opacity="1" tooltip="enable"><title>(0.0628516,6)</title></rect><rect x="462" y="199.131" width="6" height="0.868936" stroke="black" stroke-width="1" fill="blue" opacity="1" tooltip="enable"><title>(0.0636786,6)</title></rect><rect x="468" y="199.421" width="6" height="0.57929" stroke="black" stroke-width="1" fill="blue" opacity="1" tooltip="enable"><title>(0.0645055,4)</title></rect><rect x="474" y="200" width="6" height="0" stroke="black" stroke-width="1" fill="blue" opacity="1" tooltip="enable"><title>(0.0653325,0)</title></rect><rect x="480" y="199.421" width="6" height="0.57929" stroke="black" stroke-width="1" fill="blue" opacity="1" tooltip="enable"><title>(0.0661595,4)</title></rect><rect x="486" y="199.855" width="6" height="0.144823" stroke="black" stroke-width="1" fill="blue" opacity="1" tooltip="enable"><title>(0.0669865,1)</title></rect><rect x="492" y="199.855" width="6" height="0.144823" stroke="black" stroke-width="1" fill="blue" opacity="1" tooltip="enable"><title>(0.0678135,1)</title></rect><rect x="498" y="199.71" width="6" height="0.289645" stroke="black" stroke-width="1" fill="blue" opacity="1" tooltip="enable"><title>(0.0686405,2)</title></rect><rect x="504" y="199.71" width="6" height="0.289645" stroke="black" stroke-width="1" fill="blue" opacity="1" tooltip="enable"><title>(0.0694675,2)</title></rect><rect x="510" y="200" width="6" height="0" stroke="black" stroke-width="1" fill="blue" opacity="1" tooltip="enable"><title>(0.0702945,0)</title></rect><rect x="516" y="200" width="6" height="0" stroke="black" stroke-width="1" fill="blue" opacity="1" tooltip="enable"><title>(0.0711215,0)</title></rect><rect x="522" y="199.421" width="6" height="0.57929" stroke="black" stroke-width="1" fill="blue" opacity="1" tooltip="enable"><title>(0.0719485,4)</title></rect><rect x="528" y="199.71" width="6" height="0.289645" stroke="black" stroke-width="1" fill="blue" opacity="1" tooltip="enable"><title>(0.0727755,2)</title></rect><rect x="534" y="200" width="6" height="0" stroke="black" stroke-width="1" fill="blue" opacity="1" tooltip="enable"><title>(0.0736025,0)</title></rect><rect x="540" y="200" width="6" height="0" stroke="black" stroke-width="1" fill="blue" opacity="1" tooltip="enable"><title>(0.0744295,0)</title></rect><rect x="546" y="200" width="6" height="0" stroke="black" stroke-width="1" fill="blue" opacity="1" tooltip="enable"><title>(0.0752565,0)</title></rect><rect x="552" y="200" width="6" height="0" stroke="black" stroke-width="1" fill="blue" opacity="1" tooltip="enable"><title>(0.0760835,0)</title></rect><rect x="558" y="200" width="6" height="0" stroke="black" stroke-width="1" fill="blue" opacity="1" tooltip="enable"><title>(0.0769105,0)</title></rect><rect x="564" y="200" width="6" height="0" stroke="black" stroke-width="1" fill="blue" opacity="1" tooltip="enable"><title>(0.0777375,0)</title></rect><rect x="570" y="199.71" width="6" height="0.289645" stroke="black" stroke-width="1" fill="blue" opacity="1" tooltip="enable"><title>(0.0785645,2)</title></rect><rect x="576" y="199.71" width="6" height="0.289645" stroke="black" stroke-width="1" fill="blue" opacity="1" tooltip="enable"><title>(0.0793914,2)</title></rect><rect x="582" y="200" width="6" height="0" stroke="black" stroke-width="1" fill="blue" opacity="1" tooltip="enable"><title>(0.0802184,0)</title></rect><rect x="588" y="200" width="6" height="0" stroke="black" stroke-width="1" fill="blue" opacity="1" tooltip="enable"><title>(0.0810454,0)</title></rect><rect x="594" y="199.855" width="6" height="0.144823" stroke="black" stroke-width="1" fill="blue" opacity="1" tooltip="enable"><title>(0.0818724,1)</title></rect><text x="30" y="240" font-size="20" fill="black">0</text>
<text x="600" y="240" font-size="20" fill="black">0.0826994</text>
<polyline points="0,220,600,220" stroke="black" stroke-width="1" fill="none" opacity="1"/>
<text x="720" y="20" font-size="20" fill="black">1381</text>
<text x="720" y="200" font-size="20" fill="black">0</text>
<polyline points="660,0,660,200" stroke="black" stroke-width="1" fill="none" opacity="1"/>
</svg>