<?xml version="1.0" standalone="yes"?>
<!-- SVG graphic -->
<svg xmlns='http://www.w3.org/2000/svg' xmlns:xlink='http://www.w3.org/1999/xlink'
 version="1.1">
<rect x="0" y="0" width="6" height="200" stroke="black" stroke-width="1" fill="blue" opacity="1" tooltip="enable"><title>(0,1771)</title></rect><rect x="6" y="44.9464" width="6" height="155.054" stroke="black" stroke-width="1" fill="blue" opacity="1" tooltip="enable"><title>(0.00142993,1373)</title></rect><rect x="12" y="120.271" width="6" height="79.729" stroke="black" stroke-width="1" fill="blue" opacity="1" tooltip="enable"><title>(0.00285986,706)</title></rect><rect x="18" y="147.261" width="6" height="52.7386" stroke="black" stroke-width="1" fill="blue" opacity="1" tooltip="enable"><title>(0.00428978,467)</title></rect><rect x="24" y="173.461" width="6" height="26.5387" stroke="black" stroke-width="1" fill="blue" opacity="1" tooltip="enable"><title>(0.00571971,235)</title></rect><rect x="30" y="174.139" width="6" height="25.8611" stroke="black" stroke-width="1" fill="blue" opacity="1" tooltip="enable"><title>(0.00714964,229)</title></rect><rect x="36" y="183.06" width="6" height="16.9396" stroke="black" stroke-width="1" fill="blue" opacity="1" tooltip="enable"><title>(0.00857957,150)</title></rect><rect x="42" y="186.787" width="6" height="13.2129" stroke="black" stroke-width="1" fill="blue" opacity="1" tooltip="enable"><title>(0.0100095,117)</title></rect><rect x="48" y="186.9" width="6" height="13.0999" stroke="black" stroke-width="1" fill="blue" opacity="1" tooltip="enable"><title>(0.0114394,116)</title></rect><rect x="54" y="186.9" width="6" height="13.0999" stroke="black" stroke-width="1" fill="blue" opacity="1" tooltip="enable"><title>(0.0128694,116)</title></rect><rect x="60" y="190.966" width="6" height="9.03444" stroke="black" stroke-width="1" fill="blue" opacity="1" tooltip="enable"><title>(0.0142993,80)</title></rect><rect x="66" y="190.401" width="6" height="9.5991" stroke="black" stroke-width="1" fill="blue" opacity="1" tooltip="enable"><title>(0.0157292,85)</title></rect><rect x="72" y="188.82" width="6" height="11.1801" stroke="black" stroke-width="1" fill="blue" opacity="1" tooltip="enable"><title>(0.0171591,99)</title></rect><rect x="78" y="191.417" width="6" height="8.58272" stroke="black" stroke-width="1" fill="blue" opacity="1" tooltip="enable"><title>(0.0185891,76)</title></rect><rect x="84" y="188.707" width="6" height="11.2931" stroke="black" stroke-width="1" fill="blue" opacity="1" tooltip="enable"><title>(0.020019,100)</title></rect><rect x="90" y="190.966" width="6" height="9.03444" stroke="black" stroke-width="1" fill="blue" opacity="1" tooltip="enable"><title>(0.0214489,80)</title></rect><rect x="96" y="189.61" width="6" height="10.3896" stroke="black" stroke-width="1" fill="blue" opacity="1" tooltip="enable"><title>(0.0228788,92)</title></rect><rect x="102" y="188.255" width="6" height="11.7448" stroke="black" stroke-width="1" fill="blue" opacity="1" tooltip="enable"><title>(0.0243088,104)</title></rect><rect x="108" y="189.61" width="6" height="10.3896" stroke="black" stroke-width="1" fill="blue" opacity="1" tooltip="enable"><title>(0.0257387,92)</title></rect><rect x="114" y="189.159" width="6" height="10.8413" stroke="black" stroke-width="1" fill="blue" opacity="1" tooltip="enable"><title>(0.0271686,96)</title></rect><rect x="120" y="187.465" width="6" height="12.5353" stroke="black" stroke-width="1" fill="blue" opacity="1" tooltip="enable"><title>(0.0285986,111)</title></rect><rect x="126" y="187.239" width="6" height="12.7612" stroke="black" stroke-width="1" fill="blue" opacity="1" tooltip="enable"><title>(0.0300285,113)</title></rect><rect x="132" y="189.159" width="6" height="10.8413" stroke="black" stroke-width="1" fill="blue" opacity="1" tooltip="enable"><title>(0.0314584,96)</title></rect><rect x="138" y="190.74" width="6" height="9.26031" stroke="black" stroke-width="1" fill="blue" opacity="1" tooltip="enable"><title>(0.0328883,82)</title></rect><rect x="144" y="190.627" width="6" height="9.37324" stroke="black" stroke-width="1" fill="blue" opacity="1" tooltip="enable"><title>(0.0343183,83)</title></rect><rect x="150" y="192.321" width="6" height="7.67928" stroke="black" stroke-width="1" fill="blue" opacity="1" tooltip="enable"><title>(0.0357482,68)</title></rect><rect x="156" y="190.966" width="6" height="9.03444" stroke="black" stroke-width="1" fill="blue" opacity="1" tooltip="enable"><title>(0.0371781,80)</title></rect><rect x="162" y="191.982" width="6" height="8.01807" stroke="black" stroke-width="1" fill="blue" opacity="1" tooltip="enable"><title>(0.0386081,71)</title></rect><rect x="168" y="194.128" width="6" height="5.87239" stroke="black" stroke-width="1" fill="blue" opacity="1" tooltip="enable"><title>(0.040038,52)</title></rect><rect x="174" y="192.772" width="6" height="7.22756" stroke="black" stroke-width="1" fill="blue" opacity="1" tooltip="enable"><title>(0.0414679,64)</title></rect><rect x="180" y="194.805" width="6" height="5.19481" stroke="black" stroke-width="1" fill="blue" opacity="1" tooltip="enable"><title>(0.0428978,46)</title></rect><rect x="186" y="195.596" width="6" height="4.40429" stroke="black" stroke-width="1" fill="blue" opacity="1" tooltip="enable"><title>(0.0443278,39)</title></rect><rect x="192" y="195.596" width="6" height="4.40429" stroke="black" stroke-width="1" fill="blue" opacity="1" tooltip="enable"><title>(0.0457577,39)</title></rect><rect x="198" y="194.918" width="6" height="5.08187" stroke="black" stroke-width="1" fill="blue" opacity="1" tooltip="enable"><title>(0.0471876,45)</title></rect><rect x="204" y="195.596" width="6" height="4.40429" stroke="black" stroke-width="1" fill="blue" opacity="1" tooltip="enable"><title>(0.0486175,39)</title></rect><rect x="210" y="195.934" width="6" height="4.0655" stroke="black" stroke-width="1" fill="blue" opacity="1" tooltip="enable"><title>(0.0500475,36)</title></rect><rect x="216" y="196.612" width="6" height="3.38792" stroke="black" stroke-width="1" fill="blue" opacity="1" tooltip="enable"><title>(0.0514774,30)</title></rect><rect x="222" y="196.386" width="6" height="3.61378" stroke="black" stroke-width="1" fill="blue" opacity="1" tooltip="enable"><title>(0.0529073,32)</title></rect><rect x="228" y="195.37" width="6" height="4.63015" stroke="black" stroke-width="1" fill="blue" opacity="1" tooltip="enable"><title>(0.0543373,41)</title></rect><rect x="234" y="196.047" width="6" height="3.95257" stroke="black" stroke-width="1" fill="blue" opacity="1" tooltip="enable"><title>(0.0557672,35)</title></rect><rect x="240" y="197.29" width="6" height="2.71033" stroke="black" stroke-width="1" fill="blue" opacity="1" tooltip="enable"><title>(0.0571971,24)</title></rect><rect x="246" y="197.967" width="6" height="2.03275" stroke="black" stroke-width="1" fill="blue" opacity="1" tooltip="enable"><title>(0.058627,18)</title></rect><rect x="252" y="197.064" width="6" height="2.93619" stroke="black" stroke-width="1" fill="blue" opacity="1" tooltip="enable"><title>(0.060057,26)</title></rect><rect x="258" y="196.386" width="6" height="3.61378" stroke="black" stroke-width="1" fill="blue" opacity="1" tooltip="enable"><title>(0.0614869,32)</title></rect><rect x="264" y="198.532" width="6" height="1.4681" stroke="black" stroke-width="1" fill="blue" opacity="1" tooltip="enable"><title>(0.0629168,13)</title></rect><rect x="270" y="198.758" width="6" height="1.24224" stroke="black" stroke-width="1" fill="blue" opacity="1" tooltip="enable"><title>(0.0643468,11)</title></rect><rect x="276" y="196.499" width="6" height="3.50085" stroke="black" stroke-width="1" fill="blue" opacity="1" tooltip="enable"><title>(0.0657767,31)</title></rect><rect x="282" y="197.177" width="6" height="2.82326" stroke="black" stroke-width="1" fill="blue" opacity="1" tooltip="enable"><title>(0.0672066,25)</title></rect><rect x="288" y="196.951" width="6" height="3.04912" stroke="black" stroke-width="1" fill="blue" opacity="1" tooltip="enable"><title>(0.0686365,27)</title></rect><rect x="294" y="196.273" width="6" height="3.72671" stroke="black" stroke-width="1" fill="blue" opacity="1" tooltip="enable"><title>(0.0700665,33)</title></rect><rect x="300" y="197.516" width="6" height="2.48447" stroke="black" stroke-width="1" fill="blue" opacity="1" tooltip="enable"><title>(0.0714964,22)</title></rect><rect x="306" y="196.838" width="6" height="3.16206" stroke="black" stroke-width="1" fill="blue" opacity="1" tooltip="enable"><title>(0.0729263,28)</title></rect><rect x="312" y="197.854" width="6" height="2.14568" stroke="black" stroke-width="1" fill="blue" opacity="1" tooltip="enable"><title>(0.0743563,19)</title></rect><rect x="318" y="196.725" width="6" height="3.27499" stroke="black" stroke-width="1" fill="blue" opacity="1" tooltip="enable"><title>(0.0757862,29)</title></rect><rect x="324" y="197.516" width="6" height="2.48447" stroke="black" stroke-width="1" fill="blue" opacity="1" tooltip="enable"><title>(0.0772161,22)</title></rect><rect x="330" y="197.967" width="6" height="2.03275" stroke="black" stroke-width="1" fill="blue" opacity="1" tooltip="enable"><title>(0.078646,18)</title></rect><rect x="336" y="198.645" width="6" height="1.35517" stroke="black" stroke-width="1" fill="blue" opacity="1" tooltip="enable"><title>(0.080076,12)</title></rect><rect x="342" y="197.741" width="6" height="2.25861" stroke="black" stroke-width="1" fill="blue" opacity="1" tooltip="enable"><title>(0.0815059,20)</title></rect><rect x="348" y="198.645" width="6" height="1.35517" stroke="black" stroke-width="1" fill="blue" opacity="1" tooltip="enable"><title>(0.0829358,12)</title></rect><rect x="354" y="199.097" width="6" height="0.903444" stroke="black" stroke-width="1" fill="blue" opacity="1" tooltip="enable"><title>(0.0843657,8)</title></rect><rect x="360" y="197.516" width="6" height="2.48447" stroke="black" stroke-width="1" fill="blue" opacity="1" tooltip="enable"><title>(0.0857957,22)</title></rect><rect x="366" y="196.612" width="6" height="3.38792" stroke="black" stroke-width="1" fill="blue" opacity="1" tooltip="enable"><title>(0.0872256,30)</title></rect><rect x="372" y="197.967" width="6" height="2.03275" stroke="black" stroke-width="1" fill="blue" opacity="1" tooltip="enable"><title>(0.0886555,18)</title></rect><rect x="378" y="199.097" width="6" height="0.903444" stroke="black" stroke-width="1" fill="blue" opacity="1" tooltip="enable"><title>(0.0900855,8)</title></rect><rect x="384" y="198.871" width="6" height="1.12931" stroke="black" stroke-width="1" fill="blue" opacity="1" tooltip="enable"><title>(0.0915154,10)</title></rect><rect x="390" y="198.984" width="6" height="1.01637" stroke="black" stroke-width="1" fill="blue" opacity="1" tooltip="enable"><title>(0.0929453,9)</title></rect><rect x="396" y="199.209" width="6" height="0.790514" stroke="black" stroke-width="1" fill="blue" opacity="1" tooltip="enable"><title>(0.0943752,7)</title></rect><rect x="402" y="199.097" width="6" height="0.903444" stroke="black" stroke-width="1" fill="blue" opacity="1" tooltip="enable"><title>(0.0958052,8)</title></rect><rect x="408" y="199.097" width="6" height="0.903444" stroke="black" stroke-width="1" fill="blue" opacity="1" tooltip="enable"><title>(0.0972351,8)</title></rect><rect x="414" y="199.322" width="6" height="0.677583" stroke="black" stroke-width="1" fill="blue" opacity="1" tooltip="enable"><title>(0.098665,6)</title></rect><rect x="420" y="199.548" width="6" height="0.451722" stroke="black" stroke-width="1" fill="blue" opacity="1" tooltip="enable"><title>(0.100095,4)</title></rect><rect x="426" y="199.548" width="6" height="0.451722" stroke="black" stroke-width="1" fill="blue" opacity="1" tooltip="enable"><title>(0.101525,4)</title></rect><rect x="432" y="199.322" width="6" height="0.677583" stroke="black" stroke-width="1" fill="blue" opacity="1" tooltip="enable"><title>(0.102955,6)</title></rect><rect x="438" y="199.322" width="6" height="0.677583" stroke="black" stroke-width="1" fill="blue" opacity="1" tooltip="enable"><title>(0.104385,6)</title></rect><rect x="444" y="199.774" width="6" height="0.225861" stroke="black" stroke-width="1" fill="blue" opacity="1" tooltip="enable"><title>(0.105815,2)</title></rect><rect x="450" y="199.774" width="6" height="0.225861" stroke="black" stroke-width="1" fill="blue" opacity="1" tooltip="enable"><title>(0.107245,2)</title></rect><rect x="456" y="199.322" width="6" height="0.677583" stroke="black" stroke-width="1" fill="blue" opacity="1" tooltip="enable"><title>(0.108675,6)</title></rect><rect x="462" y="199.097" width="6" height="0.903444" stroke="black" stroke-width="1" fill="blue" opacity="1" tooltip="enable"><title>(0.110104,8)</title></rect><rect x="468" y="199.774" width="6" height="0.225861" stroke="black" stroke-width="1" fill="blue" opacity="1" tooltip="enable"><title>(0.111534,2)</title></rect><rect x="474" y="199.548" width="6" height="0.451722" stroke="black" stroke-width="1" fill="blue" opacity="1" tooltip="enable"><title>(0.112964,4)</title></rect><rect x="480" y="199.548" width="6" height="0.451722" stroke="black" stroke-width="1" fill="blue" opacity="1" tooltip="enable"><title>(0.114394,4)</title></rect><rect x="486" y="200" width="6" height="0" stroke="black" stroke-width="1" fill="blue" opacity="1" tooltip="enable"><title>(0.115824,0)</title></rect><rect x="492" y="200" width="6" height="0" stroke="black" stroke-width="1" fill="blue" opacity="1" tooltip="enable"><title>(0.117254,0)</title></rect><rect x="498" y="199.774" width="6" height="0.225861" stroke="black" stroke-width="1" fill="blue" opacity="1" tooltip="enable"><title>(0.118684,2)</title></rect><rect x="504" y="199.774" width="6" height="0.225861" stroke="black" stroke-width="1" fill="blue" opacity="1" tooltip="enable"><title>(0.120114,2)</title></rect><rect x="510" y="200" width="6" height="0" stroke="black" stroke-width="1" fill="blue" opacity="1" tooltip="enable"><title>(0.121544,0)</title></rect><rect x="516" y="200" width="6" height="0" stroke="black" stroke-width="1" fill="blue" opacity="1" tooltip="enable"><title>(0.122974,0)</title></rect><rect x="522" y="200" width="6" height="0" stroke="black" stroke-width="1" fill="blue" opacity="1" tooltip="enable"><title>(0.124404,0)</title></rect><rect x="528" y="200" width="6" height="0" stroke="black" stroke-width="1" fill="blue" opacity="1" tooltip="enable"><title>(0.125834,0)</title></rect><rect x="534" y="200" width="6" height="0" stroke="black" stroke-width="1" fill="blue" opacity="1" tooltip="enable"><title>(0.127264,0)</title></rect><rect x="540" y="200" width="6" height="0" stroke="black" stroke-width="1" fill="blue" opacity="1" tooltip="enable"><title>(0.128694,0)</title></rect><rect x="546" y="200" width="6" height="0" stroke="black" stroke-width="1" fill="blue" opacity="1" tooltip="enable"><title>(0.130123,0)</title></rect><rect x="552" y="200" width="6" height="0" stroke="black" stroke-width="1" fill="blue" opacity="1" tooltip="enable"><title>(0.131553,0)</title></rect><rect x="558" y="200" width="6" height="0" stroke="black" stroke-width="1" fill="blue" opacity="1" tooltip="enable"><title>(0.132983,0)</title></rect><rect x="564" y="200" width="6" height="0" stroke="black" stroke-width="1" fill="blue" opacity="1" tooltip="enable"><title>(0.134413,0)</title></rect><rect x="570" y="200" width="6" height="0" stroke="black" stroke-width="1" fill="blue" opacity="1" tooltip="enable"><title>(0.135843,0)</title></rect><rect x="576" y="199.774" width="6" height="0.225861" stroke="black" stroke-width="1" fill="blue" opacity="1" tooltip="enable"><title>(0.137273,2)</title></rect><rect x="582" y="199.774" width="6" height="0.225861" stroke="black" stroke-width="1" fill="blue" opacity="1" tooltip="enable"><title>(0.138703,2)</title></rect><rect x="588" y="200" width="6" height="0" stroke="black" stroke-width="1" fill="blue" opacity="1" tooltip="enable"><title>(0.140133,0)</title></rect><rect x="594" y="199.887" width="6" height="0.112931" stroke="black" stroke-width="1" fill="blue" opacity="1" tooltip="enable"><title>(0.141563,1)</title></rect><text x="30" y="240" font-size="20" fill="black">0</text>
<text x="600" y="240" font-size="20" fill="black">0.142993</text>
<polyline points="0,220,600,220" stroke="black" stroke-width="1" fill="none" opacity="1"/>
<text x="720" y="20" font-size="20" fill="black">1771</text>
<text x="720" y="200" font-size="20" fill="black">0</text>
<polyline points="660,0,660,200" stroke="black" stroke-width="1" fill="none" opacity="1"/>
</svg>