<?xml version="1.0" standalone="yes"?>
<!-- SVG graphic -->
<svg xmlns='http://www.w3.org/2000/svg' xmlns:xlink='http://www.w3.org/1999/xlink'
 version="1.1">
<rect x="0" y="0" width="6" height="200" stroke="black" stroke-width="1" fill="blue" opacity="1" tooltip="enable"><title>(0,3937)</title></rect><rect x="6" y="174.346" width="6" height="25.6541" stroke="black" stroke-width="1" fill="blue" opacity="1" tooltip="enable"><title>(0.00184208,505)</title></rect><rect x="12" y="189.281" width="6" height="10.7188" stroke="black" stroke-width="1" fill="blue" opacity="1" tooltip="enable"><title>(0.00368417,211)</title></rect><rect x="18" y="191.313" width="6" height="8.68682" stroke="black" stroke-width="1" fill="blue" opacity="1" tooltip="enable"><title>(0.00552625,171)</title></rect><rect x="24" y="189.637" width="6" height="10.3632" stroke="black" stroke-width="1" fill="blue" opacity="1" tooltip="enable"><title>(0.00736834,204)</title></rect><rect x="30" y="189.84" width="6" height="10.16" stroke="black" stroke-width="1" fill="blue" opacity="1" tooltip="enable"><title>(0.00921043,200)</title></rect><rect x="36" y="192.482" width="6" height="7.51841" stroke="black" stroke-width="1" fill="blue" opacity="1" tooltip="enable"><title>(0.0110525,148)</title></rect><rect x="42" y="193.091" width="6" height="6.90881" stroke="black" stroke-width="1" fill="blue" opacity="1" tooltip="enable"><title>(0.0128946,136)</title></rect><rect x="48" y="192.075" width="6" height="7.92482" stroke="black" stroke-width="1" fill="blue" opacity="1" tooltip="enable"><title>(0.0147367,156)</title></rect><rect x="54" y="192.278" width="6" height="7.72162" stroke="black" stroke-width="1" fill="blue" opacity="1" tooltip="enable"><title>(0.0165788,152)</title></rect><rect x="60" y="193.396" width="6" height="6.60401" stroke="black" stroke-width="1" fill="blue" opacity="1" tooltip="enable"><title>(0.0184209,130)</title></rect><rect x="66" y="191.669" width="6" height="8.33122" stroke="black" stroke-width="1" fill="blue" opacity="1" tooltip="enable"><title>(0.0202629,164)</title></rect><rect x="72" y="193.498" width="6" height="6.50241" stroke="black" stroke-width="1" fill="blue" opacity="1" tooltip="enable"><title>(0.022105,128)</title></rect><rect x="78" y="192.888" width="6" height="7.11201" stroke="black" stroke-width="1" fill="blue" opacity="1" tooltip="enable"><title>(0.0239471,140)</title></rect><rect x="84" y="194.31" width="6" height="5.68961" stroke="black" stroke-width="1" fill="blue" opacity="1" tooltip="enable"><title>(0.0257892,112)</title></rect><rect x="90" y="192.278" width="6" height="7.72162" stroke="black" stroke-width="1" fill="blue" opacity="1" tooltip="enable"><title>(0.0276313,152)</title></rect><rect x="96" y="195.936" width="6" height="4.06401" stroke="black" stroke-width="1" fill="blue" opacity="1" tooltip="enable"><title>(0.0294734,80)</title></rect><rect x="102" y="192.329" width="6" height="7.67081" stroke="black" stroke-width="1" fill="blue" opacity="1" tooltip="enable"><title>(0.0313154,151)</title></rect><rect x="108" y="193.752" width="6" height="6.24841" stroke="black" stroke-width="1" fill="blue" opacity="1" tooltip="enable"><title>(0.0331575,123)</title></rect><rect x="114" y="193.294" width="6" height="6.70561" stroke="black" stroke-width="1" fill="blue" opacity="1" tooltip="enable"><title>(0.0349996,132)</title></rect><rect x="120" y="194.31" width="6" height="5.68961" stroke="black" stroke-width="1" fill="blue" opacity="1" tooltip="enable"><title>(0.0368417,112)</title></rect><rect x="126" y="194.869" width="6" height="5.13081" stroke="black" stroke-width="1" fill="blue" opacity="1" tooltip="enable"><title>(0.0386838,101)</title></rect><rect x="132" y="195.072" width="6" height="4.92761" stroke="black" stroke-width="1" fill="blue" opacity="1" tooltip="enable"><title>(0.0405259,97)</title></rect><rect x="138" y="196.952" width="6" height="3.04801" stroke="black" stroke-width="1" fill="blue" opacity="1" tooltip="enable"><title>(0.042368,60)</title></rect><rect x="144" y="197.612" width="6" height="2.3876" stroke="black" stroke-width="1" fill="blue" opacity="1" tooltip="enable"><title>(0.04421,47)</title></rect><rect x="150" y="196.495" width="6" height="3.50521" stroke="black" stroke-width="1" fill="blue" opacity="1" tooltip="enable"><title>(0.0460521,69)</title></rect><rect x="156" y="197.358" width="6" height="2.64161" stroke="black" stroke-width="1" fill="blue" opacity="1" tooltip="enable"><title>(0.0478942,52)</title></rect><rect x="162" y="198.273" width="6" height="1.7272" stroke="black" stroke-width="1" fill="blue" opacity="1" tooltip="enable"><title>(0.0497363,34)</title></rect><rect x="168" y="198.171" width="6" height="1.8288" stroke="black" stroke-width="1" fill="blue" opacity="1" tooltip="enable"><title>(0.0515784,36)</title></rect><rect x="174" y="198.273" width="6" height="1.7272" stroke="black" stroke-width="1" fill="blue" opacity="1" tooltip="enable"><title>(0.0534205,34)</title></rect><rect x="180" y="198.273" width="6" height="1.7272" stroke="black" stroke-width="1" fill="blue" opacity="1" tooltip="enable"><title>(0.0552626,34)</title></rect><rect x="186" y="198.578" width="6" height="1.4224" stroke="black" stroke-width="1" fill="blue" opacity="1" tooltip="enable"><title>(0.0571046,28)</title></rect><rect x="192" y="199.289" width="6" height="0.711201" stroke="black" stroke-width="1" fill="blue" opacity="1" tooltip="enable"><title>(0.0589467,14)</title></rect><rect x="198" y="198.781" width="6" height="1.2192" stroke="black" stroke-width="1" fill="blue" opacity="1" tooltip="enable"><title>(0.0607888,24)</title></rect><rect x="204" y="199.086" width="6" height="0.914402" stroke="black" stroke-width="1" fill="blue" opacity="1" tooltip="enable"><title>(0.0626309,18)</title></rect><rect x="210" y="199.492" width="6" height="0.508001" stroke="black" stroke-width="1" fill="blue" opacity="1" tooltip="enable"><title>(0.064473,10)</title></rect><rect x="216" y="199.187" width="6" height="0.812802" stroke="black" stroke-width="1" fill="blue" opacity="1" tooltip="enable"><title>(0.0663151,16)</title></rect><rect x="222" y="199.441" width="6" height="0.558801" stroke="black" stroke-width="1" fill="blue" opacity="1" tooltip="enable"><title>(0.0681571,11)</title></rect><rect x="228" y="199.441" width="6" height="0.558801" stroke="black" stroke-width="1" fill="blue" opacity="1" tooltip="enable"><title>(0.0699992,11)</title></rect><rect x="234" y="199.492" width="6" height="0.508001" stroke="black" stroke-width="1" fill="blue" opacity="1" tooltip="enable"><title>(0.0718413,10)</title></rect><rect x="240" y="199.695" width="6" height="0.304801" stroke="black" stroke-width="1" fill="blue" opacity="1" tooltip="enable"><title>(0.0736834,6)</title></rect><rect x="246" y="199.289" width="6" height="0.711201" stroke="black" stroke-width="1" fill="blue" opacity="1" tooltip="enable"><title>(0.0755255,14)</title></rect><rect x="252" y="199.594" width="6" height="0.406401" stroke="black" stroke-width="1" fill="blue" opacity="1" tooltip="enable"><title>(0.0773676,8)</title></rect><rect x="258" y="199.695" width="6" height="0.304801" stroke="black" stroke-width="1" fill="blue" opacity="1" tooltip="enable"><title>(0.0792097,6)</title></rect><rect x="264" y="199.898" width="6" height="0.1016" stroke="black" stroke-width="1" fill="blue" opacity="1" tooltip="enable"><title>(0.0810517,2)</title></rect><rect x="270" y="199.898" width="6" height="0.1016" stroke="black" stroke-width="1" fill="blue" opacity="1" tooltip="enable"><title>(0.0828938,2)</title></rect><rect x="276" y="200" width="6" height="0" stroke="black" stroke-width="1" fill="blue" opacity="1" tooltip="enable"><title>(0.0847359,0)</title></rect><rect x="282" y="200" width="6" height="0" stroke="black" stroke-width="1" fill="blue" opacity="1" tooltip="enable"><title>(0.086578,0)</title></rect><rect x="288" y="199.898" width="6" height="0.1016" stroke="black" stroke-width="1" fill="blue" opacity="1" tooltip="enable"><title>(0.0884201,2)</title></rect><rect x="294" y="199.898" width="6" height="0.1016" stroke="black" stroke-width="1" fill="blue" opacity="1" tooltip="enable"><title>(0.0902622,2)</title></rect><rect x="300" y="200" width="6" height="0" stroke="black" stroke-width="1" fill="blue" opacity="1" tooltip="enable"><title>(0.0921042,0)</title></rect><rect x="306" y="200" width="6" height="0" stroke="black" stroke-width="1" fill="blue" opacity="1" tooltip="enable"><title>(0.0939463,0)</title></rect><rect x="312" y="200" width="6" height="0" stroke="black" stroke-width="1" fill="blue" opacity="1" tooltip="enable"><title>(0.0957884,0)</title></rect><rect x="318" y="200" width="6" height="0" stroke="black" stroke-width="1" fill="blue" opacity="1" tooltip="enable"><title>(0.0976305,0)</title></rect><rect x="324" y="200" width="6" height="0" stroke="black" stroke-width="1" fill="blue" opacity="1" tooltip="enable"><title>(0.0994726,0)</title></rect><rect x="330" y="199.898" width="6" height="0.1016" stroke="black" stroke-width="1" fill="blue" opacity="1" tooltip="enable"><title>(0.101315,2)</title></rect><rect x="336" y="200" width="6" height="0" stroke="black" stroke-width="1" fill="blue" opacity="1" tooltip="enable"><title>(0.103157,0)</title></rect><rect x="342" y="200" width="6" height="0" stroke="black" stroke-width="1" fill="blue" opacity="1" tooltip="enable"><title>(0.104999,0)</title></rect><rect x="348" y="199.898" width="6" height="0.1016" stroke="black" stroke-width="1" fill="blue" opacity="1" tooltip="enable"><title>(0.106841,2)</title></rect><rect x="354" y="200" width="6" height="0" stroke="black" stroke-width="1" fill="blue" opacity="1" tooltip="enable"><title>(0.108683,0)</title></rect><rect x="360" y="200" width="6" height="0" stroke="black" stroke-width="1" fill="blue" opacity="1" tooltip="enable"><title>(0.110525,0)</title></rect><rect x="366" y="200" width="6" height="0" stroke="black" stroke-width="1" fill="blue" opacity="1" tooltip="enable"><title>(0.112367,0)</title></rect><rect x="372" y="200" width="6" height="0" stroke="black" stroke-width="1" fill="blue" opacity="1" tooltip="enable"><title>(0.114209,0)</title></rect><rect x="378" y="200" width="6" height="0" stroke="black" stroke-width="1" fill="blue" opacity="1" tooltip="enable"><title>(0.116051,0)</title></rect><rect x="384" y="200" width="6" height="0" stroke="black" stroke-width="1" fill="blue" opacity="1" tooltip="enable"><title>(0.117893,0)</title></rect><rect x="390" y="200" width="6" height="0" stroke="black" stroke-width="1" fill="blue" opacity="1" tooltip="enable"><title>(0.119736,0)</title></rect><rect x="396" y="200" width="6" height="0" stroke="black" stroke-width="1" fill="blue" opacity="1" tooltip="enable"><title>(0.121578,0)</title></rect><rect x="402" y="200" width="6" height="0" stroke="black" stroke-width="1" fill="blue" opacity="1" tooltip="enable"><title>(0.12342,0)</title></rect><rect x="408" y="200" width="6" height="0" stroke="black" stroke-width="1" fill="blue" opacity="1" tooltip="enable"><title>(0.125262,0)</title></rect><rect x="414" y="200" width="6" height="0" stroke="black" stroke-width="1" fill="blue" opacity="1" tooltip="enable"><title>(0.127104,0)</title></rect><rect x="420" y="200" width="6" height="0" stroke="black" stroke-width="1" fill="blue" opacity="1" tooltip="enable"><title>(0.128946,0)</title></rect><rect x="426" y="200" width="6" height="0" stroke="black" stroke-width="1" fill="blue" opacity="1" tooltip="enable"><title>(0.130788,0)</title></rect><rect x="432" y="200" width="6" height="0" stroke="black" stroke-width="1" fill="blue" opacity="1" tooltip="enable"><title>(0.13263,0)</title></rect><rect x="438" y="200" width="6" height="0" stroke="black" stroke-width="1" fill="blue" opacity="1" tooltip="enable"><title>(0.134472,0)</title></rect><rect x="444" y="200" width="6" height="0" stroke="black" stroke-width="1" fill="blue" opacity="1" tooltip="enable"><title>(0.136314,0)</title></rect><rect x="450" y="200" width="6" height="0" stroke="black" stroke-width="1" fill="blue" opacity="1" tooltip="enable"><title>(0.138156,0)</title></rect><rect x="456" y="200" width="6" height="0" stroke="black" stroke-width="1" fill="blue" opacity="1" tooltip="enable"><title>(0.139998,0)</title></rect><rect x="462" y="200" width="6" height="0" stroke="black" stroke-width="1" fill="blue" opacity="1" tooltip="enable"><title>(0.141841,0)</title></rect><rect x="468" y="200" width="6" height="0" stroke="black" stroke-width="1" fill="blue" opacity="1" tooltip="enable"><title>(0.143683,0)</title></rect><rect x="474" y="200" width="6" height="0" stroke="black" stroke-width="1" fill="blue" opacity="1" tooltip="enable"><title>(0.145525,0)</title></rect><rect x="480" y="199.898" width="6" height="0.1016" stroke="black" stroke-width="1" fill="blue" opacity="1" tooltip="enable"><title>(0.147367,2)</title></rect><rect x="486" y="200" width="6" height="0" stroke="black" stroke-width="1" fill="blue" opacity="1" tooltip="enable"><title>(0.149209,0)</title></rect><rect x="492" y="200" width="6" height="0" stroke="black" stroke-width="1" fill="blue" opacity="1" tooltip="enable"><title>(0.151051,0)</title></rect><rect x="498" y="200" width="6" height="0" stroke="black" stroke-width="1" fill="blue" opacity="1" tooltip="enable"><title>(0.152893,0)</title></rect><rect x="504" y="200" width="6" height="0" stroke="black" stroke-width="1" fill="blue" opacity="1" tooltip="enable"><title>(0.154735,0)</title></rect><rect x="510" y="200" width="6" height="0" stroke="black" stroke-width="1" fill="blue" opacity="1" tooltip="enable"><title>(0.156577,0)</title></rect><rect x="516" y="200" width="6" height="0" stroke="black" stroke-width="1" fill="blue" opacity="1" tooltip="enable"><title>(0.158419,0)</title></rect><rect x="522" y="200" width="6" height="0" stroke="black" stroke-width="1" fill="blue" opacity="1" tooltip="enable"><title>(0.160261,0)</title></rect><rect x="528" y="200" width="6" height="0" stroke="black" stroke-width="1" fill="blue" opacity="1" tooltip="enable"><title>(0.162103,0)</title></rect><rect x="534" y="200" width="6" height="0" stroke="black" stroke-width="1" fill="blue" opacity="1" tooltip="enable"><title>(0.163946,0)</title></rect><rect x="540" y="200" width="6" height="0" stroke="black" stroke-width="1" fill="blue" opacity="1" tooltip="enable"><title>(0.165788,0)</title></rect><rect x="546" y="200" width="6" height="0" stroke="black" stroke-width="1" fill="blue" opacity="1" tooltip="enable"><title>(0.16763,0)</title></rect><rect x="552" y="200" width="6" height="0" stroke="black" stroke-width="1" fill="blue" opacity="1" tooltip="enable"><title>(0.169472,0)</title></rect><rect x="558" y="200" width="6" height="0" stroke="black" stroke-width="1" fill="blue" opacity="1" tooltip="enable"><title>(0.171314,0)</title></rect><rect x="564" y="200" width="6" height="0" stroke="black" stroke-width="1" fill="blue" opacity="1" tooltip="enable"><title>(0.173156,0)</title></rect><rect x="570" y="200" width="6" height="0" stroke="black" stroke-width="1" fill="blue" opacity="1" tooltip="enable"><title>(0.174998,0)</title></rect><rect x="576" y="200" width="6" height="0" stroke="black" stroke-width="1" fill="blue" opacity="1" tooltip="enable"><title>(0.17684,0)</title></rect><rect x="582" y="200" width="6" height="0" stroke="black" stroke-width="1" fill="blue" opacity="1" tooltip="enable"><title>(0.178682,0)</title></rect><rect x="588" y="200" width="6" height="0" stroke="black" stroke-width="1" fill="blue" opacity="1" tooltip="enable"><title>(0.180524,0)</title></rect><rect x="594" y="199.949" width="6" height="0.0508001" stroke="black" stroke-width="1" fill="blue" opacity="1" tooltip="enable"><title>(0.182366,1)</title></rect><text x="30" y="240" font-size="20" fill="black">0</text>
<text x="600" y="240" font-size="20" fill="black">0.184208</text>
<polyline points="0,220,600,220" stroke="black" stroke-width="1" fill="none" opacity="1"/>
<text x="720" y="20" font-size="20" fill="black">3937</text>
<text x="720" y="200" font-size="20" fill="black">0</text>
<polyline points="660,0,660,200" stroke="black" stroke-width="1" fill="none" opacity="1"/>
</svg>