<?xml version="1.0" standalone="yes"?>
<!-- SVG graphic -->
<svg xmlns='http://www.w3.org/2000/svg' xmlns:xlink='http://www.w3.org/1999/xlink'
 version="1.1">
<rect x="0" y="0" width="6" height="200" stroke="black" stroke-width="1" fill="blue" opacity="1" tooltip="enable"><title>(0,2862)</title></rect><rect x="6" y="132.145" width="6" height="67.8546" stroke="black" stroke-width="1" fill="blue" opacity="1" tooltip="enable"><title>(0.000655982,971)</title></rect><rect x="12" y="167.365" width="6" height="32.6345" stroke="black" stroke-width="1" fill="blue" opacity="1" tooltip="enable"><title>(0.00131196,467)</title></rect><rect x="18" y="182.041" width="6" height="17.9595" stroke="black" stroke-width="1" fill="blue" opacity="1" tooltip="enable"><title>(0.00196795,257)</title></rect><rect x="24" y="187.911" width="6" height="12.0894" stroke="black" stroke-width="1" fill="blue" opacity="1" tooltip="enable"><title>(0.00262393,173)</title></rect><rect x="30" y="191.055" width="6" height="8.94479" stroke="black" stroke-width="1" fill="blue" opacity="1" tooltip="enable"><title>(0.00327991,128)</title></rect><rect x="36" y="189.658" width="6" height="10.3424" stroke="black" stroke-width="1" fill="blue" opacity="1" tooltip="enable"><title>(0.00393589,148)</title></rect><rect x="42" y="191.894" width="6" height="8.10622" stroke="black" stroke-width="1" fill="blue" opacity="1" tooltip="enable"><title>(0.00459188,116)</title></rect><rect x="48" y="189.518" width="6" height="10.4822" stroke="black" stroke-width="1" fill="blue" opacity="1" tooltip="enable"><title>(0.00524786,150)</title></rect><rect x="54" y="191.474" width="6" height="8.52551" stroke="black" stroke-width="1" fill="blue" opacity="1" tooltip="enable"><title>(0.00590384,122)</title></rect><rect x="60" y="189.937" width="6" height="10.0629" stroke="black" stroke-width="1" fill="blue" opacity="1" tooltip="enable"><title>(0.00655982,144)</title></rect><rect x="66" y="190.985" width="6" height="9.01468" stroke="black" stroke-width="1" fill="blue" opacity="1" tooltip="enable"><title>(0.00721581,129)</title></rect><rect x="72" y="191.894" width="6" height="8.10622" stroke="black" stroke-width="1" fill="blue" opacity="1" tooltip="enable"><title>(0.00787179,116)</title></rect><rect x="78" y="193.082" width="6" height="6.91824" stroke="black" stroke-width="1" fill="blue" opacity="1" tooltip="enable"><title>(0.00852777,99)</title></rect><rect x="84" y="191.684" width="6" height="8.31586" stroke="black" stroke-width="1" fill="blue" opacity="1" tooltip="enable"><title>(0.00918375,119)</title></rect><rect x="90" y="193.431" width="6" height="6.56883" stroke="black" stroke-width="1" fill="blue" opacity="1" tooltip="enable"><title>(0.00983974,94)</title></rect><rect x="96" y="193.222" width="6" height="6.77848" stroke="black" stroke-width="1" fill="blue" opacity="1" tooltip="enable"><title>(0.0104957,97)</title></rect><rect x="102" y="195.108" width="6" height="4.89168" stroke="black" stroke-width="1" fill="blue" opacity="1" tooltip="enable"><title>(0.0111517,70)</title></rect><rect x="108" y="194.06" width="6" height="5.9399" stroke="black" stroke-width="1" fill="blue" opacity="1" tooltip="enable"><title>(0.0118077,85)</title></rect><rect x="114" y="195.737" width="6" height="4.26275" stroke="black" stroke-width="1" fill="blue" opacity="1" tooltip="enable"><title>(0.0124637,61)</title></rect><rect x="120" y="194.689" width="6" height="5.31097" stroke="black" stroke-width="1" fill="blue" opacity="1" tooltip="enable"><title>(0.0131196,76)</title></rect><rect x="126" y="194.41" width="6" height="5.5905" stroke="black" stroke-width="1" fill="blue" opacity="1" tooltip="enable"><title>(0.0137756,80)</title></rect><rect x="132" y="195.248" width="6" height="4.75192" stroke="black" stroke-width="1" fill="blue" opacity="1" tooltip="enable"><title>(0.0144316,68)</title></rect><rect x="138" y="195.038" width="6" height="4.96157" stroke="black" stroke-width="1" fill="blue" opacity="1" tooltip="enable"><title>(0.0150876,71)</title></rect><rect x="144" y="194.899" width="6" height="5.10133" stroke="black" stroke-width="1" fill="blue" opacity="1" tooltip="enable"><title>(0.0157436,73)</title></rect><rect x="150" y="196.017" width="6" height="3.98323" stroke="black" stroke-width="1" fill="blue" opacity="1" tooltip="enable"><title>(0.0163996,57)</title></rect><rect x="156" y="195.458" width="6" height="4.54228" stroke="black" stroke-width="1" fill="blue" opacity="1" tooltip="enable"><title>(0.0170555,65)</title></rect><rect x="162" y="195.528" width="6" height="4.4724" stroke="black" stroke-width="1" fill="blue" opacity="1" tooltip="enable"><title>(0.0177115,64)</title></rect><rect x="168" y="196.646" width="6" height="3.3543" stroke="black" stroke-width="1" fill="blue" opacity="1" tooltip="enable"><title>(0.0183675,48)</title></rect><rect x="174" y="196.995" width="6" height="3.00489" stroke="black" stroke-width="1" fill="blue" opacity="1" tooltip="enable"><title>(0.0190235,43)</title></rect><rect x="180" y="197.414" width="6" height="2.5856" stroke="black" stroke-width="1" fill="blue" opacity="1" tooltip="enable"><title>(0.0196795,37)</title></rect><rect x="186" y="197.624" width="6" height="2.37596" stroke="black" stroke-width="1" fill="blue" opacity="1" tooltip="enable"><title>(0.0203355,34)</title></rect><rect x="192" y="196.296" width="6" height="3.7037" stroke="black" stroke-width="1" fill="blue" opacity="1" tooltip="enable"><title>(0.0209914,53)</title></rect><rect x="198" y="196.716" width="6" height="3.28442" stroke="black" stroke-width="1" fill="blue" opacity="1" tooltip="enable"><title>(0.0216474,47)</title></rect><rect x="204" y="197.205" width="6" height="2.79525" stroke="black" stroke-width="1" fill="blue" opacity="1" tooltip="enable"><title>(0.0223034,40)</title></rect><rect x="210" y="197.345" width="6" height="2.65549" stroke="black" stroke-width="1" fill="blue" opacity="1" tooltip="enable"><title>(0.0229594,38)</title></rect><rect x="216" y="198.043" width="6" height="1.95667" stroke="black" stroke-width="1" fill="blue" opacity="1" tooltip="enable"><title>(0.0236154,28)</title></rect><rect x="222" y="197.764" width="6" height="2.2362" stroke="black" stroke-width="1" fill="blue" opacity="1" tooltip="enable"><title>(0.0242713,32)</title></rect><rect x="228" y="196.855" width="6" height="3.14465" stroke="black" stroke-width="1" fill="blue" opacity="1" tooltip="enable"><title>(0.0249273,45)</title></rect><rect x="234" y="197.834" width="6" height="2.16632" stroke="black" stroke-width="1" fill="blue" opacity="1" tooltip="enable"><title>(0.0255833,31)</title></rect><rect x="240" y="197.205" width="6" height="2.79525" stroke="black" stroke-width="1" fill="blue" opacity="1" tooltip="enable"><title>(0.0262393,40)</title></rect><rect x="246" y="198.602" width="6" height="1.39762" stroke="black" stroke-width="1" fill="blue" opacity="1" tooltip="enable"><title>(0.0268953,20)</title></rect><rect x="252" y="197.764" width="6" height="2.2362" stroke="black" stroke-width="1" fill="blue" opacity="1" tooltip="enable"><title>(0.0275513,32)</title></rect><rect x="258" y="198.463" width="6" height="1.53739" stroke="black" stroke-width="1" fill="blue" opacity="1" tooltip="enable"><title>(0.0282072,22)</title></rect><rect x="264" y="198.043" width="6" height="1.95667" stroke="black" stroke-width="1" fill="blue" opacity="1" tooltip="enable"><title>(0.0288632,28)</title></rect><rect x="270" y="199.022" width="6" height="0.978337" stroke="black" stroke-width="1" fill="blue" opacity="1" tooltip="enable"><title>(0.0295192,14)</title></rect><rect x="276" y="198.463" width="6" height="1.53739" stroke="black" stroke-width="1" fill="blue" opacity="1" tooltip="enable"><title>(0.0301752,22)</title></rect><rect x="282" y="198.602" width="6" height="1.39762" stroke="black" stroke-width="1" fill="blue" opacity="1" tooltip="enable"><title>(0.0308312,20)</title></rect><rect x="288" y="198.602" width="6" height="1.39762" stroke="black" stroke-width="1" fill="blue" opacity="1" tooltip="enable"><title>(0.0314872,20)</title></rect><rect x="294" y="198.463" width="6" height="1.53739" stroke="black" stroke-width="1" fill="blue" opacity="1" tooltip="enable"><title>(0.0321431,22)</title></rect><rect x="300" y="198.183" width="6" height="1.81691" stroke="black" stroke-width="1" fill="blue" opacity="1" tooltip="enable"><title>(0.0327991,26)</title></rect><rect x="306" y="198.183" width="6" height="1.81691" stroke="black" stroke-width="1" fill="blue" opacity="1" tooltip="enable"><title>(0.0334551,26)</title></rect><rect x="312" y="198.812" width="6" height="1.18798" stroke="black" stroke-width="1" fill="blue" opacity="1" tooltip="enable"><title>(0.0341111,17)</title></rect><rect x="318" y="198.812" width="6" height="1.18798" stroke="black" stroke-width="1" fill="blue" opacity="1" tooltip="enable"><title>(0.0347671,17)</title></rect><rect x="324" y="199.092" width="6" height="0.908456" stroke="black" stroke-width="1" fill="blue" opacity="1" tooltip="enable"><title>(0.035423,13)</title></rect><rect x="330" y="198.952" width="6" height="1.04822" stroke="black" stroke-width="1" fill="blue" opacity="1" tooltip="enable"><title>(0.036079,15)</title></rect><rect x="336" y="199.441" width="6" height="0.55905" stroke="black" stroke-width="1" fill="blue" opacity="1" tooltip="enable"><title>(0.036735,8)</title></rect><rect x="342" y="199.301" width="6" height="0.698812" stroke="black" stroke-width="1" fill="blue" opacity="1" tooltip="enable"><title>(0.037391,10)</title></rect><rect x="348" y="199.161" width="6" height="0.838574" stroke="black" stroke-width="1" fill="blue" opacity="1" tooltip="enable"><title>(0.038047,12)</title></rect><rect x="354" y="198.882" width="6" height="1.1181" stroke="black" stroke-width="1" fill="blue" opacity="1" tooltip="enable"><title>(0.038703,16)</title></rect><rect x="360" y="199.371" width="6" height="0.628931" stroke="black" stroke-width="1" fill="blue" opacity="1" tooltip="enable"><title>(0.0393589,9)</title></rect><rect x="366" y="199.371" width="6" height="0.628931" stroke="black" stroke-width="1" fill="blue" opacity="1" tooltip="enable"><title>(0.0400149,9)</title></rect><rect x="372" y="199.022" width="6" height="0.978337" stroke="black" stroke-width="1" fill="blue" opacity="1" tooltip="enable"><title>(0.0406709,14)</title></rect><rect x="378" y="199.581" width="6" height="0.419287" stroke="black" stroke-width="1" fill="blue" opacity="1" tooltip="enable"><title>(0.0413269,6)</title></rect><rect x="384" y="199.161" width="6" height="0.838574" stroke="black" stroke-width="1" fill="blue" opacity="1" tooltip="enable"><title>(0.0419829,12)</title></rect><rect x="390" y="199.581" width="6" height="0.419287" stroke="black" stroke-width="1" fill="blue" opacity="1" tooltip="enable"><title>(0.0426388,6)</title></rect><rect x="396" y="198.742" width="6" height="1.25786" stroke="black" stroke-width="1" fill="blue" opacity="1" tooltip="enable"><title>(0.0432948,18)</title></rect><rect x="402" y="199.86" width="6" height="0.139762" stroke="black" stroke-width="1" fill="blue" opacity="1" tooltip="enable"><title>(0.0439508,2)</title></rect><rect x="408" y="199.301" width="6" height="0.698812" stroke="black" stroke-width="1" fill="blue" opacity="1" tooltip="enable"><title>(0.0446068,10)</title></rect><rect x="414" y="199.301" width="6" height="0.698812" stroke="black" stroke-width="1" fill="blue" opacity="1" tooltip="enable"><title>(0.0452628,10)</title></rect><rect x="420" y="199.651" width="6" height="0.349406" stroke="black" stroke-width="1" fill="blue" opacity="1" tooltip="enable"><title>(0.0459188,5)</title></rect><rect x="426" y="199.301" width="6" height="0.698812" stroke="black" stroke-width="1" fill="blue" opacity="1" tooltip="enable"><title>(0.0465747,10)</title></rect><rect x="432" y="199.79" width="6" height="0.209644" stroke="black" stroke-width="1" fill="blue" opacity="1" tooltip="enable"><title>(0.0472307,3)</title></rect><rect x="438" y="199.441" width="6" height="0.55905" stroke="black" stroke-width="1" fill="blue" opacity="1" tooltip="enable"><title>(0.0478867,8)</title></rect><rect x="444" y="199.86" width="6" height="0.139762" stroke="black" stroke-width="1" fill="blue" opacity="1" tooltip="enable"><title>(0.0485427,2)</title></rect><rect x="450" y="199.72" width="6" height="0.279525" stroke="black" stroke-width="1" fill="blue" opacity="1" tooltip="enable"><title>(0.0491987,4)</title></rect><rect x="456" y="200" width="6" height="0" stroke="black" stroke-width="1" fill="blue" opacity="1" tooltip="enable"><title>(0.0498547,0)</title></rect><rect x="462" y="200" width="6" height="0" stroke="black" stroke-width="1" fill="blue" opacity="1" tooltip="enable"><title>(0.0505106,0)</title></rect><rect x="468" y="199.441" width="6" height="0.55905" stroke="black" stroke-width="1" fill="blue" opacity="1" tooltip="enable"><title>(0.0511666,8)</title></rect><rect x="474" y="200" width="6" height="0" stroke="black" stroke-width="1" fill="blue" opacity="1" tooltip="enable"><title>(0.0518226,0)</title></rect><rect x="480" y="200" width="6" height="0" stroke="black" stroke-width="1" fill="blue" opacity="1" tooltip="enable"><title>(0.0524786,0)</title></rect><rect x="486" y="199.86" width="6" height="0.139762" stroke="black" stroke-width="1" fill="blue" opacity="1" tooltip="enable"><title>(0.0531346,2)</title></rect><rect x="492" y="199.86" width="6" height="0.139762" stroke="black" stroke-width="1" fill="blue" opacity="1" tooltip="enable"><title>(0.0537906,2)</title></rect><rect x="498" y="199.441" width="6" height="0.55905" stroke="black" stroke-width="1" fill="blue" opacity="1" tooltip="enable"><title>(0.0544465,8)</title></rect><rect x="504" y="199.86" width="6" height="0.139762" stroke="black" stroke-width="1" fill="blue" opacity="1" tooltip="enable"><title>(0.0551025,2)</title></rect><rect x="510" y="199.72" width="6" height="0.279525" stroke="black" stroke-width="1" fill="blue" opacity="1" tooltip="enable"><title>(0.0557585,4)</title></rect><rect x="516" y="200" width="6" height="0" stroke="black" stroke-width="1" fill="blue" opacity="1" tooltip="enable"><title>(0.0564145,0)</title></rect><rect x="522" y="200" width="6" height="0" stroke="black" stroke-width="1" fill="blue" opacity="1" tooltip="enable"><title>(0.0570705,0)</title></rect><rect x="528" y="200" width="6" height="0" stroke="black" stroke-width="1" fill="blue" opacity="1" tooltip="enable"><title>(0.0577264,0)</title></rect><rect x="534" y="200" width="6" height="0" stroke="black" stroke-width="1" fill="blue" opacity="1" tooltip="enable"><title>(0.0583824,0)</title></rect><rect x="540" y="199.86" width="6" height="0.139762" stroke="black" stroke-width="1" fill="blue" opacity="1" tooltip="enable"><title>(0.0590384,2)</title></rect><rect x="546" y="200" width="6" height="0" stroke="black" stroke-width="1" fill="blue" opacity="1" tooltip="enable"><title>(0.0596944,0)</title></rect><rect x="552" y="199.86" width="6" height="0.139762" stroke="black" stroke-width="1" fill="blue" opacity="1" tooltip="enable"><title>(0.0603504,2)</title></rect><rect x="558" y="199.86" width="6" height="0.139762" stroke="black" stroke-width="1" fill="blue" opacity="1" tooltip="enable"><title>(0.0610064,2)</title></rect><rect x="564" y="200" width="6" height="0" stroke="black" stroke-width="1" fill="blue" opacity="1" tooltip="enable"><title>(0.0616623,0)</title></rect><rect x="570" y="200" width="6" height="0" stroke="black" stroke-width="1" fill="blue" opacity="1" tooltip="enable"><title>(0.0623183,0)</title></rect><rect x="576" y="200" width="6" height="0" stroke="black" stroke-width="1" fill="blue" opacity="1" tooltip="enable"><title>(0.0629743,0)</title></rect><rect x="582" y="200" width="6" height="0" stroke="black" stroke-width="1" fill="blue" opacity="1" tooltip="enable"><title>(0.0636303,0)</title></rect><rect x="588" y="200" width="6" height="0" stroke="black" stroke-width="1" fill="blue" opacity="1" tooltip="enable"><title>(0.0642863,0)</title></rect><rect x="594" y="199.93" width="6" height="0.0698812" stroke="black" stroke-width="1" fill="blue" opacity="1" tooltip="enable"><title>(0.0649423,1)</title></rect><text x="30" y="240" font-size="20" fill="black">0</text>
<text x="600" y="240" font-size="20" fill="black">0.0655982</text>
<polyline points="0,220,600,220" stroke="black" stroke-width="1" fill="none" opacity="1"/>
<text x="720" y="20" font-size="20" fill="black">2862</text>
<text x="720" y="200" font-size="20" fill="black">0</text>
<polyline points="660,0,660,200" stroke="black" stroke-width="1" fill="none" opacity="1"/>
</svg>