<?xml version="1.0" standalone="yes"?>
<!-- SVG graphic -->
<svg xmlns='http://www.w3.org/2000/svg' xmlns:xlink='http://www.w3.org/1999/xlink'
 version="1.1">
<rect x="0" y="30.6143" width="6" height="169.386" stroke="black" stroke-width="1" fill="blue" opacity="1" tooltip="enable"><title>(0,841)</title></rect><rect x="6" y="3.02113" width="6" height="196.979" stroke="black" stroke-width="1" fill="blue" opacity="1" tooltip="enable"><title>(0.00132261,978)</title></rect><rect x="12" y="0" width="6" height="200" stroke="black" stroke-width="1" fill="blue" opacity="1" tooltip="enable"><title>(0.00264521,993)</title></rect><rect x="18" y="39.8792" width="6" height="160.121" stroke="black" stroke-width="1" fill="blue" opacity="1" tooltip="enable"><title>(0.00396782,795)</title></rect><rect x="24" y="84.5921" width="6" height="115.408" stroke="black" stroke-width="1" fill="blue" opacity="1" tooltip="enable"><title>(0.00529043,573)</title></rect><rect x="30" y="113.192" width="6" height="86.8077" stroke="black" stroke-width="1" fill="blue" opacity="1" tooltip="enable"><title>(0.00661303,431)</title></rect><rect x="36" y="144.411" width="6" height="55.5891" stroke="black" stroke-width="1" fill="blue" opacity="1" tooltip="enable"><title>(0.00793564,276)</title></rect><rect x="42" y="151.259" width="6" height="48.7412" stroke="black" stroke-width="1" fill="blue" opacity="1" tooltip="enable"><title>(0.00925824,242)</title></rect><rect x="48" y="165.357" width="6" height="34.6425" stroke="black" stroke-width="1" fill="blue" opacity="1" tooltip="enable"><title>(0.0105809,172)</title></rect><rect x="54" y="164.955" width="6" height="35.0453" stroke="black" stroke-width="1" fill="blue" opacity="1" tooltip="enable"><title>(0.0119035,174)</title></rect><rect x="60" y="163.948" width="6" height="36.0524" stroke="black" stroke-width="1" fill="blue" opacity="1" tooltip="enable"><title>(0.0132261,179)</title></rect><rect x="66" y="169.587" width="6" height="30.4129" stroke="black" stroke-width="1" fill="blue" opacity="1" tooltip="enable"><title>(0.0145487,151)</title></rect><rect x="72" y="164.552" width="6" height="35.4481" stroke="black" stroke-width="1" fill="blue" opacity="1" tooltip="enable"><title>(0.0158713,176)</title></rect><rect x="78" y="167.17" width="6" height="32.8298" stroke="black" stroke-width="1" fill="blue" opacity="1" tooltip="enable"><title>(0.0171939,163)</title></rect><rect x="84" y="166.163" width="6" height="33.8369" stroke="black" stroke-width="1" fill="blue" opacity="1" tooltip="enable"><title>(0.0185165,168)</title></rect><rect x="90" y="176.234" width="6" height="23.7664" stroke="black" stroke-width="1" fill="blue" opacity="1" tooltip="enable"><title>(0.0198391,118)</title></rect><rect x="96" y="172.407" width="6" height="27.5932" stroke="black" stroke-width="1" fill="blue" opacity="1" tooltip="enable"><title>(0.0211617,137)</title></rect><rect x="102" y="178.651" width="6" height="21.3494" stroke="black" stroke-width="1" fill="blue" opacity="1" tooltip="enable"><title>(0.0224843,106)</title></rect><rect x="108" y="180.463" width="6" height="19.5368" stroke="black" stroke-width="1" fill="blue" opacity="1" tooltip="enable"><title>(0.0238069,97)</title></rect><rect x="114" y="176.636" width="6" height="23.3635" stroke="black" stroke-width="1" fill="blue" opacity="1" tooltip="enable"><title>(0.0251295,116)</title></rect><rect x="120" y="176.636" width="6" height="23.3635" stroke="black" stroke-width="1" fill="blue" opacity="1" tooltip="enable"><title>(0.0264521,116)</title></rect><rect x="126" y="183.082" width="6" height="16.9184" stroke="black" stroke-width="1" fill="blue" opacity="1" tooltip="enable"><title>(0.0277747,84)</title></rect><rect x="132" y="179.053" width="6" height="20.9466" stroke="black" stroke-width="1" fill="blue" opacity="1" tooltip="enable"><title>(0.0290973,104)</title></rect><rect x="138" y="183.283" width="6" height="16.717" stroke="black" stroke-width="1" fill="blue" opacity="1" tooltip="enable"><title>(0.0304199,83)</title></rect><rect x="144" y="180.463" width="6" height="19.5368" stroke="black" stroke-width="1" fill="blue" opacity="1" tooltip="enable"><title>(0.0317426,97)</title></rect><rect x="150" y="186.304" width="6" height="13.6959" stroke="black" stroke-width="1" fill="blue" opacity="1" tooltip="enable"><title>(0.0330652,68)</title></rect><rect x="156" y="188.318" width="6" height="11.6818" stroke="black" stroke-width="1" fill="blue" opacity="1" tooltip="enable"><title>(0.0343878,58)</title></rect><rect x="162" y="183.082" width="6" height="16.9184" stroke="black" stroke-width="1" fill="blue" opacity="1" tooltip="enable"><title>(0.0357104,84)</title></rect><rect x="168" y="189.325" width="6" height="10.6747" stroke="black" stroke-width="1" fill="blue" opacity="1" tooltip="enable"><title>(0.037033,53)</title></rect><rect x="174" y="190.131" width="6" height="9.86908" stroke="black" stroke-width="1" fill="blue" opacity="1" tooltip="enable"><title>(0.0383556,49)</title></rect><rect x="180" y="187.513" width="6" height="12.4874" stroke="black" stroke-width="1" fill="blue" opacity="1" tooltip="enable"><title>(0.0396782,62)</title></rect><rect x="186" y="191.138" width="6" height="8.86203" stroke="black" stroke-width="1" fill="blue" opacity="1" tooltip="enable"><title>(0.0410008,44)</title></rect><rect x="192" y="194.361" width="6" height="5.63948" stroke="black" stroke-width="1" fill="blue" opacity="1" tooltip="enable"><title>(0.0423234,28)</title></rect><rect x="198" y="192.749" width="6" height="7.25076" stroke="black" stroke-width="1" fill="blue" opacity="1" tooltip="enable"><title>(0.043646,36)</title></rect><rect x="204" y="194.763" width="6" height="5.23666" stroke="black" stroke-width="1" fill="blue" opacity="1" tooltip="enable"><title>(0.0449686,26)</title></rect><rect x="210" y="196.576" width="6" height="3.42397" stroke="black" stroke-width="1" fill="blue" opacity="1" tooltip="enable"><title>(0.0462912,17)</title></rect><rect x="216" y="196.576" width="6" height="3.42397" stroke="black" stroke-width="1" fill="blue" opacity="1" tooltip="enable"><title>(0.0476138,17)</title></rect><rect x="222" y="196.375" width="6" height="3.62538" stroke="black" stroke-width="1" fill="blue" opacity="1" tooltip="enable"><title>(0.0489364,18)</title></rect><rect x="228" y="196.777" width="6" height="3.22256" stroke="black" stroke-width="1" fill="blue" opacity="1" tooltip="enable"><title>(0.050259,16)</title></rect><rect x="234" y="197.583" width="6" height="2.41692" stroke="black" stroke-width="1" fill="blue" opacity="1" tooltip="enable"><title>(0.0515816,12)</title></rect><rect x="240" y="198.59" width="6" height="1.40987" stroke="black" stroke-width="1" fill="blue" opacity="1" tooltip="enable"><title>(0.0529043,7)</title></rect><rect x="246" y="198.187" width="6" height="1.81269" stroke="black" stroke-width="1" fill="blue" opacity="1" tooltip="enable"><title>(0.0542269,9)</title></rect><rect x="252" y="198.993" width="6" height="1.00705" stroke="black" stroke-width="1" fill="blue" opacity="1" tooltip="enable"><title>(0.0555495,5)</title></rect><rect x="258" y="198.993" width="6" height="1.00705" stroke="black" stroke-width="1" fill="blue" opacity="1" tooltip="enable"><title>(0.0568721,5)</title></rect><rect x="264" y="198.792" width="6" height="1.20846" stroke="black" stroke-width="1" fill="blue" opacity="1" tooltip="enable"><title>(0.0581947,6)</title></rect><rect x="270" y="200" width="6" height="0" stroke="black" stroke-width="1" fill="blue" opacity="1" tooltip="enable"><title>(0.0595173,0)</title></rect><rect x="276" y="200" width="6" height="0" stroke="black" stroke-width="1" fill="blue" opacity="1" tooltip="enable"><title>(0.0608399,0)</title></rect><rect x="282" y="200" width="6" height="0" stroke="black" stroke-width="1" fill="blue" opacity="1" tooltip="enable"><title>(0.0621625,0)</title></rect><rect x="288" y="199.597" width="6" height="0.40282" stroke="black" stroke-width="1" fill="blue" opacity="1" tooltip="enable"><title>(0.0634851,2)</title></rect><rect x="294" y="200" width="6" height="0" stroke="black" stroke-width="1" fill="blue" opacity="1" tooltip="enable"><title>(0.0648077,0)</title></rect><rect x="300" y="200" width="6" height="0" stroke="black" stroke-width="1" fill="blue" opacity="1" tooltip="enable"><title>(0.0661303,0)</title></rect><rect x="306" y="200" width="6" height="0" stroke="black" stroke-width="1" fill="blue" opacity="1" tooltip="enable"><title>(0.0674529,0)</title></rect><rect x="312" y="200" width="6" height="0" stroke="black" stroke-width="1" fill="blue" opacity="1" tooltip="enable"><title>(0.0687755,0)</title></rect><rect x="318" y="200" width="6" height="0" stroke="black" stroke-width="1" fill="blue" opacity="1" tooltip="enable"><title>(0.0700981,0)</title></rect><rect x="324" y="200" width="6" height="0" stroke="black" stroke-width="1" fill="blue" opacity="1" tooltip="enable"><title>(0.0714207,0)</title></rect><rect x="330" y="200" width="6" height="0" stroke="black" stroke-width="1" fill="blue" opacity="1" tooltip="enable"><title>(0.0727433,0)</title></rect><rect x="336" y="200" width="6" height="0" stroke="black" stroke-width="1" fill="blue" opacity="1" tooltip="enable"><title>(0.074066,0)</title></rect><rect x="342" y="200" width="6" height="0" stroke="black" stroke-width="1" fill="blue" opacity="1" tooltip="enable"><title>(0.0753886,0)</title></rect><rect x="348" y="200" width="6" height="0" stroke="black" stroke-width="1" fill="blue" opacity="1" tooltip="enable"><title>(0.0767112,0)</title></rect><rect x="354" y="200" width="6" height="0" stroke="black" stroke-width="1" fill="blue" opacity="1" tooltip="enable"><title>(0.0780338,0)</title></rect><rect x="360" y="200" width="6" height="0" stroke="black" stroke-width="1" fill="blue" opacity="1" tooltip="enable"><title>(0.0793564,0)</title></rect><rect x="366" y="200" width="6" height="0" stroke="black" stroke-width="1" fill="blue" opacity="1" tooltip="enable"><title>(0.080679,0)</title></rect><rect x="372" y="200" width="6" height="0" stroke="black" stroke-width="1" fill="blue" opacity="1" tooltip="enable"><title>(0.0820016,0)</title></rect><rect x="378" y="200" width="6" height="0" stroke="black" stroke-width="1" fill="blue" opacity="1" tooltip="enable"><title>(0.0833242,0)</title></rect><rect x="384" y="200" width="6" height="0" stroke="black" stroke-width="1" fill="blue" opacity="1" tooltip="enable"><title>(0.0846468,0)</title></rect><rect x="390" y="200" width="6" height="0" stroke="black" stroke-width="1" fill="blue" opacity="1" tooltip="enable"><title>(0.0859694,0)</title></rect><rect x="396" y="200" width="6" height="0" stroke="black" stroke-width="1" fill="blue" opacity="1" tooltip="enable"><title>(0.087292,0)</title></rect><rect x="402" y="200" width="6" height="0" stroke="black" stroke-width="1" fill="blue" opacity="1" tooltip="enable"><title>(0.0886146,0)</title></rect><rect x="408" y="199.597" width="6" height="0.40282" stroke="black" stroke-width="1" fill="blue" opacity="1" tooltip="enable"><title>(0.0899372,2)</title></rect><rect x="414" y="200" width="6" height="0" stroke="black" stroke-width="1" fill="blue" opacity="1" tooltip="enable"><title>(0.0912598,0)</title></rect><rect x="420" y="200" width="6" height="0" stroke="black" stroke-width="1" fill="blue" opacity="1" tooltip="enable"><title>(0.0925824,0)</title></rect><rect x="426" y="200" width="6" height="0" stroke="black" stroke-width="1" fill="blue" opacity="1" tooltip="enable"><title>(0.093905,0)</title></rect><rect x="432" y="200" width="6" height="0" stroke="black" stroke-width="1" fill="blue" opacity="1" tooltip="enable"><title>(0.0952277,0)</title></rect><rect x="438" y="200" width="6" height="0" stroke="black" stroke-width="1" fill="blue" opacity="1" tooltip="enable"><title>(0.0965503,0)</title></rect><rect x="444" y="200" width="6" height="0" stroke="black" stroke-width="1" fill="blue" opacity="1" tooltip="enable"><title>(0.0978729,0)</title></rect><rect x="450" y="200" width="6" height="0" stroke="black" stroke-width="1" fill="blue" opacity="1" tooltip="enable"><title>(0.0991955,0)</title></rect><rect x="456" y="200" width="6" height="0" stroke="black" stroke-width="1" fill="blue" opacity="1" tooltip="enable"><title>(0.100518,0)</title></rect><rect x="462" y="200" width="6" height="0" stroke="black" stroke-width="1" fill="blue" opacity="1" tooltip="enable"><title>(0.101841,0)</title></rect><rect x="468" y="200" width="6" height="0" stroke="black" stroke-width="1" fill="blue" opacity="1" tooltip="enable"><title>(0.103163,0)</title></rect><rect x="474" y="200" width="6" height="0" stroke="black" stroke-width="1" fill="blue" opacity="1" tooltip="enable"><title>(0.104486,0)</title></rect><rect x="480" y="200" width="6" height="0" stroke="black" stroke-width="1" fill="blue" opacity="1" tooltip="enable"><title>(0.105809,0)</title></rect><rect x="486" y="200" width="6" height="0" stroke="black" stroke-width="1" fill="blue" opacity="1" tooltip="enable"><title>(0.107131,0)</title></rect><rect x="492" y="200" width="6" height="0" stroke="black" stroke-width="1" fill="blue" opacity="1" tooltip="enable"><title>(0.108454,0)</title></rect><rect x="498" y="200" width="6" height="0" stroke="black" stroke-width="1" fill="blue" opacity="1" tooltip="enable"><title>(0.109776,0)</title></rect><rect x="504" y="200" width="6" height="0" stroke="black" stroke-width="1" fill="blue" opacity="1" tooltip="enable"><title>(0.111099,0)</title></rect><rect x="510" y="199.597" width="6" height="0.40282" stroke="black" stroke-width="1" fill="blue" opacity="1" tooltip="enable"><title>(0.112422,2)</title></rect><rect x="516" y="200" width="6" height="0" stroke="black" stroke-width="1" fill="blue" opacity="1" tooltip="enable"><title>(0.113744,0)</title></rect><rect x="522" y="200" width="6" height="0" stroke="black" stroke-width="1" fill="blue" opacity="1" tooltip="enable"><title>(0.115067,0)</title></rect><rect x="528" y="200" width="6" height="0" stroke="black" stroke-width="1" fill="blue" opacity="1" tooltip="enable"><title>(0.116389,0)</title></rect><rect x="534" y="200" width="6" height="0" stroke="black" stroke-width="1" fill="blue" opacity="1" tooltip="enable"><title>(0.117712,0)</title></rect><rect x="540" y="199.597" width="6" height="0.40282" stroke="black" stroke-width="1" fill="blue" opacity="1" tooltip="enable"><title>(0.119035,2)</title></rect><rect x="546" y="200" width="6" height="0" stroke="black" stroke-width="1" fill="blue" opacity="1" tooltip="enable"><title>(0.120357,0)</title></rect><rect x="552" y="200" width="6" height="0" stroke="black" stroke-width="1" fill="blue" opacity="1" tooltip="enable"><title>(0.12168,0)</title></rect><rect x="558" y="200" width="6" height="0" stroke="black" stroke-width="1" fill="blue" opacity="1" tooltip="enable"><title>(0.123002,0)</title></rect><rect x="564" y="200" width="6" height="0" stroke="black" stroke-width="1" fill="blue" opacity="1" tooltip="enable"><title>(0.124325,0)</title></rect><rect x="570" y="200" width="6" height="0" stroke="black" stroke-width="1" fill="blue" opacity="1" tooltip="enable"><title>(0.125648,0)</title></rect><rect x="576" y="200" width="6" height="0" stroke="black" stroke-width="1" fill="blue" opacity="1" tooltip="enable"><title>(0.12697,0)</title></rect><rect x="582" y="200" width="6" height="0" stroke="black" stroke-width="1" fill="blue" opacity="1" tooltip="enable"><title>(0.128293,0)</title></rect><rect x="588" y="200" width="6" height="0" stroke="black" stroke-width="1" fill="blue" opacity="1" tooltip="enable"><title>(0.129615,0)</title></rect><rect x="594" y="199.799" width="6" height="0.20141" stroke="black" stroke-width="1" fill="blue" opacity="1" tooltip="enable"><title>(0.130938,1)</title></rect><text x="30" y="240" font-size="20" fill="black">0</text>
<text x="600" y="240" font-size="20" fill="black">0.132261</text>
<polyline points="0,220,600,220" stroke="black" stroke-width="1" fill="none" opacity="1"/>
<text x="720" y="20" font-size="20" fill="black">993</text>
<text x="720" y="200" font-size="20" fill="black">0</text>
<polyline points="660,0,660,200" stroke="black" stroke-width="1" fill="none" opacity="1"/>
</svg>