<?xml version="1.0" standalone="yes"?>
<!-- SVG graphic -->
<svg xmlns='http://www.w3.org/2000/svg' xmlns:xlink='http://www.w3.org/1999/xlink'
 version="1.1">
<rect x="0" y="0" width="6" height="200" stroke="black" stroke-width="1" fill="blue" opacity="1" tooltip="enable"><title>(0,2863)</title></rect><rect x="6" y="114.286" width="6" height="85.7143" stroke="black" stroke-width="1" fill="blue" opacity="1" tooltip="enable"><title>(0.00159649,1227)</title></rect><rect x="12" y="157.946" width="6" height="42.0538" stroke="black" stroke-width="1" fill="blue" opacity="1" tooltip="enable"><title>(0.00319299,602)</title></rect><rect x="18" y="176.528" width="6" height="23.4719" stroke="black" stroke-width="1" fill="blue" opacity="1" tooltip="enable"><title>(0.00478948,336)</title></rect><rect x="24" y="184.212" width="6" height="15.7876" stroke="black" stroke-width="1" fill="blue" opacity="1" tooltip="enable"><title>(0.00638597,226)</title></rect><rect x="30" y="184.352" width="6" height="15.6479" stroke="black" stroke-width="1" fill="blue" opacity="1" tooltip="enable"><title>(0.00798246,224)</title></rect><rect x="36" y="185.4" width="6" height="14.6001" stroke="black" stroke-width="1" fill="blue" opacity="1" tooltip="enable"><title>(0.00957896,209)</title></rect><rect x="42" y="186.657" width="6" height="13.3426" stroke="black" stroke-width="1" fill="blue" opacity="1" tooltip="enable"><title>(0.0111754,191)</title></rect><rect x="48" y="185.679" width="6" height="14.3206" stroke="black" stroke-width="1" fill="blue" opacity="1" tooltip="enable"><title>(0.0127719,205)</title></rect><rect x="54" y="190.639" width="6" height="9.36081" stroke="black" stroke-width="1" fill="blue" opacity="1" tooltip="enable"><title>(0.0143684,134)</title></rect><rect x="60" y="188.124" width="6" height="11.8757" stroke="black" stroke-width="1" fill="blue" opacity="1" tooltip="enable"><title>(0.0159649,170)</title></rect><rect x="66" y="191.268" width="6" height="8.7321" stroke="black" stroke-width="1" fill="blue" opacity="1" tooltip="enable"><title>(0.0175614,125)</title></rect><rect x="72" y="191.966" width="6" height="8.03353" stroke="black" stroke-width="1" fill="blue" opacity="1" tooltip="enable"><title>(0.0191579,115)</title></rect><rect x="78" y="192.805" width="6" height="7.19525" stroke="black" stroke-width="1" fill="blue" opacity="1" tooltip="enable"><title>(0.0207544,103)</title></rect><rect x="84" y="194.551" width="6" height="5.44883" stroke="black" stroke-width="1" fill="blue" opacity="1" tooltip="enable"><title>(0.0223509,78)</title></rect><rect x="90" y="194.97" width="6" height="5.02969" stroke="black" stroke-width="1" fill="blue" opacity="1" tooltip="enable"><title>(0.0239474,72)</title></rect><rect x="96" y="194.411" width="6" height="5.58854" stroke="black" stroke-width="1" fill="blue" opacity="1" tooltip="enable"><title>(0.0255439,80)</title></rect><rect x="102" y="193.433" width="6" height="6.56654" stroke="black" stroke-width="1" fill="blue" opacity="1" tooltip="enable"><title>(0.0271404,94)</title></rect><rect x="108" y="194.202" width="6" height="5.79811" stroke="black" stroke-width="1" fill="blue" opacity="1" tooltip="enable"><title>(0.0287369,83)</title></rect><rect x="114" y="195.04" width="6" height="4.95983" stroke="black" stroke-width="1" fill="blue" opacity="1" tooltip="enable"><title>(0.0303334,71)</title></rect><rect x="120" y="196.088" width="6" height="3.91198" stroke="black" stroke-width="1" fill="blue" opacity="1" tooltip="enable"><title>(0.0319299,56)</title></rect><rect x="126" y="195.32" width="6" height="4.68041" stroke="black" stroke-width="1" fill="blue" opacity="1" tooltip="enable"><title>(0.0335263,67)</title></rect><rect x="132" y="195.529" width="6" height="4.47083" stroke="black" stroke-width="1" fill="blue" opacity="1" tooltip="enable"><title>(0.0351228,64)</title></rect><rect x="138" y="195.18" width="6" height="4.82012" stroke="black" stroke-width="1" fill="blue" opacity="1" tooltip="enable"><title>(0.0367193,69)</title></rect><rect x="144" y="195.529" width="6" height="4.47083" stroke="black" stroke-width="1" fill="blue" opacity="1" tooltip="enable"><title>(0.0383158,64)</title></rect><rect x="150" y="196.577" width="6" height="3.42298" stroke="black" stroke-width="1" fill="blue" opacity="1" tooltip="enable"><title>(0.0399123,49)</title></rect><rect x="156" y="195.669" width="6" height="4.33112" stroke="black" stroke-width="1" fill="blue" opacity="1" tooltip="enable"><title>(0.0415088,62)</title></rect><rect x="162" y="196.298" width="6" height="3.70241" stroke="black" stroke-width="1" fill="blue" opacity="1" tooltip="enable"><title>(0.0431053,53)</title></rect><rect x="168" y="196.926" width="6" height="3.0737" stroke="black" stroke-width="1" fill="blue" opacity="1" tooltip="enable"><title>(0.0447018,44)</title></rect><rect x="174" y="197.904" width="6" height="2.0957" stroke="black" stroke-width="1" fill="blue" opacity="1" tooltip="enable"><title>(0.0462983,30)</title></rect><rect x="180" y="196.787" width="6" height="3.21341" stroke="black" stroke-width="1" fill="blue" opacity="1" tooltip="enable"><title>(0.0478948,46)</title></rect><rect x="186" y="197.904" width="6" height="2.0957" stroke="black" stroke-width="1" fill="blue" opacity="1" tooltip="enable"><title>(0.0494913,30)</title></rect><rect x="192" y="198.743" width="6" height="1.25742" stroke="black" stroke-width="1" fill="blue" opacity="1" tooltip="enable"><title>(0.0510878,18)</title></rect><rect x="198" y="198.882" width="6" height="1.11771" stroke="black" stroke-width="1" fill="blue" opacity="1" tooltip="enable"><title>(0.0526843,16)</title></rect><rect x="204" y="199.022" width="6" height="0.977995" stroke="black" stroke-width="1" fill="blue" opacity="1" tooltip="enable"><title>(0.0542808,14)</title></rect><rect x="210" y="199.022" width="6" height="0.977995" stroke="black" stroke-width="1" fill="blue" opacity="1" tooltip="enable"><title>(0.0558772,14)</title></rect><rect x="216" y="198.812" width="6" height="1.18757" stroke="black" stroke-width="1" fill="blue" opacity="1" tooltip="enable"><title>(0.0574737,17)</title></rect><rect x="222" y="199.092" width="6" height="0.908138" stroke="black" stroke-width="1" fill="blue" opacity="1" tooltip="enable"><title>(0.0590702,13)</title></rect><rect x="228" y="199.581" width="6" height="0.419141" stroke="black" stroke-width="1" fill="blue" opacity="1" tooltip="enable"><title>(0.0606667,6)</title></rect><rect x="234" y="199.581" width="6" height="0.419141" stroke="black" stroke-width="1" fill="blue" opacity="1" tooltip="enable"><title>(0.0622632,6)</title></rect><rect x="240" y="198.603" width="6" height="1.39714" stroke="black" stroke-width="1" fill="blue" opacity="1" tooltip="enable"><title>(0.0638597,20)</title></rect><rect x="246" y="199.162" width="6" height="0.838282" stroke="black" stroke-width="1" fill="blue" opacity="1" tooltip="enable"><title>(0.0654562,12)</title></rect><rect x="252" y="199.301" width="6" height="0.698568" stroke="black" stroke-width="1" fill="blue" opacity="1" tooltip="enable"><title>(0.0670527,10)</title></rect><rect x="258" y="199.581" width="6" height="0.419141" stroke="black" stroke-width="1" fill="blue" opacity="1" tooltip="enable"><title>(0.0686492,6)</title></rect><rect x="264" y="200" width="6" height="0" stroke="black" stroke-width="1" fill="blue" opacity="1" tooltip="enable"><title>(0.0702457,0)</title></rect><rect x="270" y="200" width="6" height="0" stroke="black" stroke-width="1" fill="blue" opacity="1" tooltip="enable"><title>(0.0718422,0)</title></rect><rect x="276" y="200" width="6" height="0" stroke="black" stroke-width="1" fill="blue" opacity="1" tooltip="enable"><title>(0.0734387,0)</title></rect><rect x="282" y="200" width="6" height="0" stroke="black" stroke-width="1" fill="blue" opacity="1" tooltip="enable"><title>(0.0750352,0)</title></rect><rect x="288" y="199.86" width="6" height="0.139714" stroke="black" stroke-width="1" fill="blue" opacity="1" tooltip="enable"><title>(0.0766317,2)</title></rect><rect x="294" y="200" width="6" height="0" stroke="black" stroke-width="1" fill="blue" opacity="1" tooltip="enable"><title>(0.0782282,0)</title></rect><rect x="300" y="200" width="6" height="0" stroke="black" stroke-width="1" fill="blue" opacity="1" tooltip="enable"><title>(0.0798246,0)</title></rect><rect x="306" y="200" width="6" height="0" stroke="black" stroke-width="1" fill="blue" opacity="1" tooltip="enable"><title>(0.0814211,0)</title></rect><rect x="312" y="200" width="6" height="0" stroke="black" stroke-width="1" fill="blue" opacity="1" tooltip="enable"><title>(0.0830176,0)</title></rect><rect x="318" y="200" width="6" height="0" stroke="black" stroke-width="1" fill="blue" opacity="1" tooltip="enable"><title>(0.0846141,0)</title></rect><rect x="324" y="200" width="6" height="0" stroke="black" stroke-width="1" fill="blue" opacity="1" tooltip="enable"><title>(0.0862106,0)</title></rect><rect x="330" y="200" width="6" height="0" stroke="black" stroke-width="1" fill="blue" opacity="1" tooltip="enable"><title>(0.0878071,0)</title></rect><rect x="336" y="200" width="6" height="0" stroke="black" stroke-width="1" fill="blue" opacity="1" tooltip="enable"><title>(0.0894036,0)</title></rect><rect x="342" y="200" width="6" height="0" stroke="black" stroke-width="1" fill="blue" opacity="1" tooltip="enable"><title>(0.0910001,0)</title></rect><rect x="348" y="200" width="6" height="0" stroke="black" stroke-width="1" fill="blue" opacity="1" tooltip="enable"><title>(0.0925966,0)</title></rect><rect x="354" y="200" width="6" height="0" stroke="black" stroke-width="1" fill="blue" opacity="1" tooltip="enable"><title>(0.0941931,0)</title></rect><rect x="360" y="200" width="6" height="0" stroke="black" stroke-width="1" fill="blue" opacity="1" tooltip="enable"><title>(0.0957896,0)</title></rect><rect x="366" y="200" width="6" height="0" stroke="black" stroke-width="1" fill="blue" opacity="1" tooltip="enable"><title>(0.0973861,0)</title></rect><rect x="372" y="200" width="6" height="0" stroke="black" stroke-width="1" fill="blue" opacity="1" tooltip="enable"><title>(0.0989826,0)</title></rect><rect x="378" y="200" width="6" height="0" stroke="black" stroke-width="1" fill="blue" opacity="1" tooltip="enable"><title>(0.100579,0)</title></rect><rect x="384" y="200" width="6" height="0" stroke="black" stroke-width="1" fill="blue" opacity="1" tooltip="enable"><title>(0.102176,0)</title></rect><rect x="390" y="200" width="6" height="0" stroke="black" stroke-width="1" fill="blue" opacity="1" tooltip="enable"><title>(0.103772,0)</title></rect><rect x="396" y="200" width="6" height="0" stroke="black" stroke-width="1" fill="blue" opacity="1" tooltip="enable"><title>(0.105369,0)</title></rect><rect x="402" y="200" width="6" height="0" stroke="black" stroke-width="1" fill="blue" opacity="1" tooltip="enable"><title>(0.106965,0)</title></rect><rect x="408" y="200" width="6" height="0" stroke="black" stroke-width="1" fill="blue" opacity="1" tooltip="enable"><title>(0.108562,0)</title></rect><rect x="414" y="200" width="6" height="0" stroke="black" stroke-width="1" fill="blue" opacity="1" tooltip="enable"><title>(0.110158,0)</title></rect><rect x="420" y="200" width="6" height="0" stroke="black" stroke-width="1" fill="blue" opacity="1" tooltip="enable"><title>(0.111754,0)</title></rect><rect x="426" y="200" width="6" height="0" stroke="black" stroke-width="1" fill="blue" opacity="1" tooltip="enable"><title>(0.113351,0)</title></rect><rect x="432" y="200" width="6" height="0" stroke="black" stroke-width="1" fill="blue" opacity="1" tooltip="enable"><title>(0.114947,0)</title></rect><rect x="438" y="200" width="6" height="0" stroke="black" stroke-width="1" fill="blue" opacity="1" tooltip="enable"><title>(0.116544,0)</title></rect><rect x="444" y="200" width="6" height="0" stroke="black" stroke-width="1" fill="blue" opacity="1" tooltip="enable"><title>(0.11814,0)</title></rect><rect x="450" y="200" width="6" height="0" stroke="black" stroke-width="1" fill="blue" opacity="1" tooltip="enable"><title>(0.119737,0)</title></rect><rect x="456" y="200" width="6" height="0" stroke="black" stroke-width="1" fill="blue" opacity="1" tooltip="enable"><title>(0.121333,0)</title></rect><rect x="462" y="200" width="6" height="0" stroke="black" stroke-width="1" fill="blue" opacity="1" tooltip="enable"><title>(0.12293,0)</title></rect><rect x="468" y="200" width="6" height="0" stroke="black" stroke-width="1" fill="blue" opacity="1" tooltip="enable"><title>(0.124526,0)</title></rect><rect x="474" y="200" width="6" height="0" stroke="black" stroke-width="1" fill="blue" opacity="1" tooltip="enable"><title>(0.126123,0)</title></rect><rect x="480" y="200" width="6" height="0" stroke="black" stroke-width="1" fill="blue" opacity="1" tooltip="enable"><title>(0.127719,0)</title></rect><rect x="486" y="200" width="6" height="0" stroke="black" stroke-width="1" fill="blue" opacity="1" tooltip="enable"><title>(0.129316,0)</title></rect><rect x="492" y="200" width="6" height="0" stroke="black" stroke-width="1" fill="blue" opacity="1" tooltip="enable"><title>(0.130912,0)</title></rect><rect x="498" y="200" width="6" height="0" stroke="black" stroke-width="1" fill="blue" opacity="1" tooltip="enable"><title>(0.132509,0)</title></rect><rect x="504" y="200" width="6" height="0" stroke="black" stroke-width="1" fill="blue" opacity="1" tooltip="enable"><title>(0.134105,0)</title></rect><rect x="510" y="200" width="6" height="0" stroke="black" stroke-width="1" fill="blue" opacity="1" tooltip="enable"><title>(0.135702,0)</title></rect><rect x="516" y="200" width="6" height="0" stroke="black" stroke-width="1" fill="blue" opacity="1" tooltip="enable"><title>(0.137298,0)</title></rect><rect x="522" y="200" width="6" height="0" stroke="black" stroke-width="1" fill="blue" opacity="1" tooltip="enable"><title>(0.138895,0)</title></rect><rect x="528" y="200" width="6" height="0" stroke="black" stroke-width="1" fill="blue" opacity="1" tooltip="enable"><title>(0.140491,0)</title></rect><rect x="534" y="200" width="6" height="0" stroke="black" stroke-width="1" fill="blue" opacity="1" tooltip="enable"><title>(0.142088,0)</title></rect><rect x="540" y="200" width="6" height="0" stroke="black" stroke-width="1" fill="blue" opacity="1" tooltip="enable"><title>(0.143684,0)</title></rect><rect x="546" y="200" width="6" height="0" stroke="black" stroke-width="1" fill="blue" opacity="1" tooltip="enable"><title>(0.145281,0)</title></rect><rect x="552" y="200" width="6" height="0" stroke="black" stroke-width="1" fill="blue" opacity="1" tooltip="enable"><title>(0.146877,0)</title></rect><rect x="558" y="200" width="6" height="0" stroke="black" stroke-width="1" fill="blue" opacity="1" tooltip="enable"><title>(0.148474,0)</title></rect><rect x="564" y="200" width="6" height="0" stroke="black" stroke-width="1" fill="blue" opacity="1" tooltip="enable"><title>(0.15007,0)</title></rect><rect x="570" y="200" width="6" height="0" stroke="black" stroke-width="1" fill="blue" opacity="1" tooltip="enable"><title>(0.151667,0)</title></rect><rect x="576" y="200" width="6" height="0" stroke="black" stroke-width="1" fill="blue" opacity="1" tooltip="enable"><title>(0.153263,0)</title></rect><rect x="582" y="200" width="6" height="0" stroke="black" stroke-width="1" fill="blue" opacity="1" tooltip="enable"><title>(0.15486,0)</title></rect><rect x="588" y="199.86" width="6" height="0.139714" stroke="black" stroke-width="1" fill="blue" opacity="1" tooltip="enable"><title>(0.156456,2)</title></rect><rect x="594" y="199.93" width="6" height="0.0698568" stroke="black" stroke-width="1" fill="blue" opacity="1" tooltip="enable"><title>(0.158053,1)</title></rect><text x="30" y="240" font-size="20" fill="black">0</text>
<text x="600" y="240" font-size="20" fill="black">0.159649</text>
<polyline points="0,220,600,220" stroke="black" stroke-width="1" fill="none" opacity="1"/>
<text x="720" y="20" font-size="20" fill="black">2863</text>
<text x="720" y="200" font-size="20" fill="black">0</text>
<polyline points="660,0,660,200" stroke="black" stroke-width="1" fill="none" opacity="1"/>
</svg>