<?xml version="1.0" standalone="yes"?>
<!-- SVG graphic -->
<svg xmlns='http://www.w3.org/2000/svg' xmlns:xlink='http://www.w3.org/1999/xlink'
 version="1.1">
<rect x="0" y="0" width="6" height="200" stroke="black" stroke-width="1" fill="blue" opacity="1" tooltip="enable"><title>(0,1172)</title></rect><rect x="6" y="11.6041" width="6" height="188.396" stroke="black" stroke-width="1" fill="blue" opacity="1" tooltip="enable"><title>(0.00123643,1104)</title></rect><rect x="12" y="30.2048" width="6" height="169.795" stroke="black" stroke-width="1" fill="blue" opacity="1" tooltip="enable"><title>(0.00247286,995)</title></rect><rect x="18" y="90.273" width="6" height="109.727" stroke="black" stroke-width="1" fill="blue" opacity="1" tooltip="enable"><title>(0.00370929,643)</title></rect><rect x="24" y="130.205" width="6" height="69.7952" stroke="black" stroke-width="1" fill="blue" opacity="1" tooltip="enable"><title>(0.00494572,409)</title></rect><rect x="30" y="160.239" width="6" height="39.7611" stroke="black" stroke-width="1" fill="blue" opacity="1" tooltip="enable"><title>(0.00618215,233)</title></rect><rect x="36" y="165.87" width="6" height="34.1297" stroke="black" stroke-width="1" fill="blue" opacity="1" tooltip="enable"><title>(0.00741858,200)</title></rect><rect x="42" y="171.672" width="6" height="28.3276" stroke="black" stroke-width="1" fill="blue" opacity="1" tooltip="enable"><title>(0.00865501,166)</title></rect><rect x="48" y="174.232" width="6" height="25.7679" stroke="black" stroke-width="1" fill="blue" opacity="1" tooltip="enable"><title>(0.00989144,151)</title></rect><rect x="54" y="175.597" width="6" height="24.4027" stroke="black" stroke-width="1" fill="blue" opacity="1" tooltip="enable"><title>(0.0111279,143)</title></rect><rect x="60" y="176.451" width="6" height="23.5495" stroke="black" stroke-width="1" fill="blue" opacity="1" tooltip="enable"><title>(0.0123643,138)</title></rect><rect x="66" y="179.522" width="6" height="20.4778" stroke="black" stroke-width="1" fill="blue" opacity="1" tooltip="enable"><title>(0.0136007,120)</title></rect><rect x="72" y="175.085" width="6" height="24.9147" stroke="black" stroke-width="1" fill="blue" opacity="1" tooltip="enable"><title>(0.0148372,146)</title></rect><rect x="78" y="178.157" width="6" height="21.843" stroke="black" stroke-width="1" fill="blue" opacity="1" tooltip="enable"><title>(0.0160736,128)</title></rect><rect x="84" y="180.546" width="6" height="19.4539" stroke="black" stroke-width="1" fill="blue" opacity="1" tooltip="enable"><title>(0.01731,114)</title></rect><rect x="90" y="177.133" width="6" height="22.8669" stroke="black" stroke-width="1" fill="blue" opacity="1" tooltip="enable"><title>(0.0185464,134)</title></rect><rect x="96" y="176.792" width="6" height="23.2082" stroke="black" stroke-width="1" fill="blue" opacity="1" tooltip="enable"><title>(0.0197829,136)</title></rect><rect x="102" y="172.355" width="6" height="27.6451" stroke="black" stroke-width="1" fill="blue" opacity="1" tooltip="enable"><title>(0.0210193,162)</title></rect><rect x="108" y="182.935" width="6" height="17.0648" stroke="black" stroke-width="1" fill="blue" opacity="1" tooltip="enable"><title>(0.0222557,100)</title></rect><rect x="114" y="184.3" width="6" height="15.6997" stroke="black" stroke-width="1" fill="blue" opacity="1" tooltip="enable"><title>(0.0234922,92)</title></rect><rect x="120" y="183.618" width="6" height="16.3823" stroke="black" stroke-width="1" fill="blue" opacity="1" tooltip="enable"><title>(0.0247286,96)</title></rect><rect x="126" y="185.836" width="6" height="14.1638" stroke="black" stroke-width="1" fill="blue" opacity="1" tooltip="enable"><title>(0.025965,83)</title></rect><rect x="132" y="184.642" width="6" height="15.3584" stroke="black" stroke-width="1" fill="blue" opacity="1" tooltip="enable"><title>(0.0272014,90)</title></rect><rect x="138" y="183.447" width="6" height="16.5529" stroke="black" stroke-width="1" fill="blue" opacity="1" tooltip="enable"><title>(0.0284379,97)</title></rect><rect x="144" y="186.689" width="6" height="13.3106" stroke="black" stroke-width="1" fill="blue" opacity="1" tooltip="enable"><title>(0.0296743,78)</title></rect><rect x="150" y="181.741" width="6" height="18.2594" stroke="black" stroke-width="1" fill="blue" opacity="1" tooltip="enable"><title>(0.0309107,107)</title></rect><rect x="156" y="183.447" width="6" height="16.5529" stroke="black" stroke-width="1" fill="blue" opacity="1" tooltip="enable"><title>(0.0321472,97)</title></rect><rect x="162" y="184.983" width="6" height="15.0171" stroke="black" stroke-width="1" fill="blue" opacity="1" tooltip="enable"><title>(0.0333836,88)</title></rect><rect x="168" y="184.983" width="6" height="15.0171" stroke="black" stroke-width="1" fill="blue" opacity="1" tooltip="enable"><title>(0.03462,88)</title></rect><rect x="174" y="186.007" width="6" height="13.9932" stroke="black" stroke-width="1" fill="blue" opacity="1" tooltip="enable"><title>(0.0358565,82)</title></rect><rect x="180" y="190.785" width="6" height="9.21502" stroke="black" stroke-width="1" fill="blue" opacity="1" tooltip="enable"><title>(0.0370929,54)</title></rect><rect x="186" y="188.908" width="6" height="11.0922" stroke="black" stroke-width="1" fill="blue" opacity="1" tooltip="enable"><title>(0.0383293,65)</title></rect><rect x="192" y="190.956" width="6" height="9.04437" stroke="black" stroke-width="1" fill="blue" opacity="1" tooltip="enable"><title>(0.0395657,53)</title></rect><rect x="198" y="192.15" width="6" height="7.84983" stroke="black" stroke-width="1" fill="blue" opacity="1" tooltip="enable"><title>(0.0408022,46)</title></rect><rect x="204" y="191.297" width="6" height="8.70307" stroke="black" stroke-width="1" fill="blue" opacity="1" tooltip="enable"><title>(0.0420386,51)</title></rect><rect x="210" y="193.686" width="6" height="6.31399" stroke="black" stroke-width="1" fill="blue" opacity="1" tooltip="enable"><title>(0.043275,37)</title></rect><rect x="216" y="195.734" width="6" height="4.26621" stroke="black" stroke-width="1" fill="blue" opacity="1" tooltip="enable"><title>(0.0445115,25)</title></rect><rect x="222" y="196.928" width="6" height="3.07167" stroke="black" stroke-width="1" fill="blue" opacity="1" tooltip="enable"><title>(0.0457479,18)</title></rect><rect x="228" y="196.928" width="6" height="3.07167" stroke="black" stroke-width="1" fill="blue" opacity="1" tooltip="enable"><title>(0.0469843,18)</title></rect><rect x="234" y="196.075" width="6" height="3.92491" stroke="black" stroke-width="1" fill="blue" opacity="1" tooltip="enable"><title>(0.0482207,23)</title></rect><rect x="240" y="197.952" width="6" height="2.04778" stroke="black" stroke-width="1" fill="blue" opacity="1" tooltip="enable"><title>(0.0494572,12)</title></rect><rect x="246" y="197.27" width="6" height="2.73038" stroke="black" stroke-width="1" fill="blue" opacity="1" tooltip="enable"><title>(0.0506936,16)</title></rect><rect x="252" y="197.952" width="6" height="2.04778" stroke="black" stroke-width="1" fill="blue" opacity="1" tooltip="enable"><title>(0.05193,12)</title></rect><rect x="258" y="197.611" width="6" height="2.38908" stroke="black" stroke-width="1" fill="blue" opacity="1" tooltip="enable"><title>(0.0531665,14)</title></rect><rect x="264" y="198.294" width="6" height="1.70648" stroke="black" stroke-width="1" fill="blue" opacity="1" tooltip="enable"><title>(0.0544029,10)</title></rect><rect x="270" y="197.952" width="6" height="2.04778" stroke="black" stroke-width="1" fill="blue" opacity="1" tooltip="enable"><title>(0.0556393,12)</title></rect><rect x="276" y="198.294" width="6" height="1.70648" stroke="black" stroke-width="1" fill="blue" opacity="1" tooltip="enable"><title>(0.0568758,10)</title></rect><rect x="282" y="197.952" width="6" height="2.04778" stroke="black" stroke-width="1" fill="blue" opacity="1" tooltip="enable"><title>(0.0581122,12)</title></rect><rect x="288" y="198.635" width="6" height="1.36519" stroke="black" stroke-width="1" fill="blue" opacity="1" tooltip="enable"><title>(0.0593486,8)</title></rect><rect x="294" y="198.635" width="6" height="1.36519" stroke="black" stroke-width="1" fill="blue" opacity="1" tooltip="enable"><title>(0.060585,8)</title></rect><rect x="300" y="198.976" width="6" height="1.02389" stroke="black" stroke-width="1" fill="blue" opacity="1" tooltip="enable"><title>(0.0618215,6)</title></rect><rect x="306" y="198.635" width="6" height="1.36519" stroke="black" stroke-width="1" fill="blue" opacity="1" tooltip="enable"><title>(0.0630579,8)</title></rect><rect x="312" y="198.976" width="6" height="1.02389" stroke="black" stroke-width="1" fill="blue" opacity="1" tooltip="enable"><title>(0.0642943,6)</title></rect><rect x="318" y="199.317" width="6" height="0.682594" stroke="black" stroke-width="1" fill="blue" opacity="1" tooltip="enable"><title>(0.0655308,4)</title></rect><rect x="324" y="198.294" width="6" height="1.70648" stroke="black" stroke-width="1" fill="blue" opacity="1" tooltip="enable"><title>(0.0667672,10)</title></rect><rect x="330" y="198.976" width="6" height="1.02389" stroke="black" stroke-width="1" fill="blue" opacity="1" tooltip="enable"><title>(0.0680036,6)</title></rect><rect x="336" y="198.294" width="6" height="1.70648" stroke="black" stroke-width="1" fill="blue" opacity="1" tooltip="enable"><title>(0.0692401,10)</title></rect><rect x="342" y="199.317" width="6" height="0.682594" stroke="black" stroke-width="1" fill="blue" opacity="1" tooltip="enable"><title>(0.0704765,4)</title></rect><rect x="348" y="199.317" width="6" height="0.682594" stroke="black" stroke-width="1" fill="blue" opacity="1" tooltip="enable"><title>(0.0717129,4)</title></rect><rect x="354" y="199.659" width="6" height="0.341297" stroke="black" stroke-width="1" fill="blue" opacity="1" tooltip="enable"><title>(0.0729493,2)</title></rect><rect x="360" y="199.317" width="6" height="0.682594" stroke="black" stroke-width="1" fill="blue" opacity="1" tooltip="enable"><title>(0.0741858,4)</title></rect><rect x="366" y="199.317" width="6" height="0.682594" stroke="black" stroke-width="1" fill="blue" opacity="1" tooltip="enable"><title>(0.0754222,4)</title></rect><rect x="372" y="199.317" width="6" height="0.682594" stroke="black" stroke-width="1" fill="blue" opacity="1" tooltip="enable"><title>(0.0766586,4)</title></rect><rect x="378" y="200" width="6" height="0" stroke="black" stroke-width="1" fill="blue" opacity="1" tooltip="enable"><title>(0.0778951,0)</title></rect><rect x="384" y="199.317" width="6" height="0.682594" stroke="black" stroke-width="1" fill="blue" opacity="1" tooltip="enable"><title>(0.0791315,4)</title></rect><rect x="390" y="198.976" width="6" height="1.02389" stroke="black" stroke-width="1" fill="blue" opacity="1" tooltip="enable"><title>(0.0803679,6)</title></rect><rect x="396" y="199.659" width="6" height="0.341297" stroke="black" stroke-width="1" fill="blue" opacity="1" tooltip="enable"><title>(0.0816044,2)</title></rect><rect x="402" y="198.976" width="6" height="1.02389" stroke="black" stroke-width="1" fill="blue" opacity="1" tooltip="enable"><title>(0.0828408,6)</title></rect><rect x="408" y="200" width="6" height="0" stroke="black" stroke-width="1" fill="blue" opacity="1" tooltip="enable"><title>(0.0840772,0)</title></rect><rect x="414" y="200" width="6" height="0" stroke="black" stroke-width="1" fill="blue" opacity="1" tooltip="enable"><title>(0.0853136,0)</title></rect><rect x="420" y="199.659" width="6" height="0.341297" stroke="black" stroke-width="1" fill="blue" opacity="1" tooltip="enable"><title>(0.0865501,2)</title></rect><rect x="426" y="200" width="6" height="0" stroke="black" stroke-width="1" fill="blue" opacity="1" tooltip="enable"><title>(0.0877865,0)</title></rect><rect x="432" y="199.659" width="6" height="0.341297" stroke="black" stroke-width="1" fill="blue" opacity="1" tooltip="enable"><title>(0.0890229,2)</title></rect><rect x="438" y="200" width="6" height="0" stroke="black" stroke-width="1" fill="blue" opacity="1" tooltip="enable"><title>(0.0902594,0)</title></rect><rect x="444" y="199.659" width="6" height="0.341297" stroke="black" stroke-width="1" fill="blue" opacity="1" tooltip="enable"><title>(0.0914958,2)</title></rect><rect x="450" y="200" width="6" height="0" stroke="black" stroke-width="1" fill="blue" opacity="1" tooltip="enable"><title>(0.0927322,0)</title></rect><rect x="456" y="200" width="6" height="0" stroke="black" stroke-width="1" fill="blue" opacity="1" tooltip="enable"><title>(0.0939686,0)</title></rect><rect x="462" y="199.659" width="6" height="0.341297" stroke="black" stroke-width="1" fill="blue" opacity="1" tooltip="enable"><title>(0.0952051,2)</title></rect><rect x="468" y="199.659" width="6" height="0.341297" stroke="black" stroke-width="1" fill="blue" opacity="1" tooltip="enable"><title>(0.0964415,2)</title></rect><rect x="474" y="200" width="6" height="0" stroke="black" stroke-width="1" fill="blue" opacity="1" tooltip="enable"><title>(0.0976779,0)</title></rect><rect x="480" y="199.659" width="6" height="0.341297" stroke="black" stroke-width="1" fill="blue" opacity="1" tooltip="enable"><title>(0.0989144,2)</title></rect><rect x="486" y="200" width="6" height="0" stroke="black" stroke-width="1" fill="blue" opacity="1" tooltip="enable"><title>(0.100151,0)</title></rect><rect x="492" y="200" width="6" height="0" stroke="black" stroke-width="1" fill="blue" opacity="1" tooltip="enable"><title>(0.101387,0)</title></rect><rect x="498" y="200" width="6" height="0" stroke="black" stroke-width="1" fill="blue" opacity="1" tooltip="enable"><title>(0.102624,0)</title></rect><rect x="504" y="200" width="6" height="0" stroke="black" stroke-width="1" fill="blue" opacity="1" tooltip="enable"><title>(0.10386,0)</title></rect><rect x="510" y="200" width="6" height="0" stroke="black" stroke-width="1" fill="blue" opacity="1" tooltip="enable"><title>(0.105097,0)</title></rect><rect x="516" y="200" width="6" height="0" stroke="black" stroke-width="1" fill="blue" opacity="1" tooltip="enable"><title>(0.106333,0)</title></rect><rect x="522" y="200" width="6" height="0" stroke="black" stroke-width="1" fill="blue" opacity="1" tooltip="enable"><title>(0.107569,0)</title></rect><rect x="528" y="200" width="6" height="0" stroke="black" stroke-width="1" fill="blue" opacity="1" tooltip="enable"><title>(0.108806,0)</title></rect><rect x="534" y="200" width="6" height="0" stroke="black" stroke-width="1" fill="blue" opacity="1" tooltip="enable"><title>(0.110042,0)</title></rect><rect x="540" y="200" width="6" height="0" stroke="black" stroke-width="1" fill="blue" opacity="1" tooltip="enable"><title>(0.111279,0)</title></rect><rect x="546" y="200" width="6" height="0" stroke="black" stroke-width="1" fill="blue" opacity="1" tooltip="enable"><title>(0.112515,0)</title></rect><rect x="552" y="200" width="6" height="0" stroke="black" stroke-width="1" fill="blue" opacity="1" tooltip="enable"><title>(0.113752,0)</title></rect><rect x="558" y="200" width="6" height="0" stroke="black" stroke-width="1" fill="blue" opacity="1" tooltip="enable"><title>(0.114988,0)</title></rect><rect x="564" y="200" width="6" height="0" stroke="black" stroke-width="1" fill="blue" opacity="1" tooltip="enable"><title>(0.116224,0)</title></rect><rect x="570" y="200" width="6" height="0" stroke="black" stroke-width="1" fill="blue" opacity="1" tooltip="enable"><title>(0.117461,0)</title></rect><rect x="576" y="200" width="6" height="0" stroke="black" stroke-width="1" fill="blue" opacity="1" tooltip="enable"><title>(0.118697,0)</title></rect><rect x="582" y="200" width="6" height="0" stroke="black" stroke-width="1" fill="blue" opacity="1" tooltip="enable"><title>(0.119934,0)</title></rect><rect x="588" y="200" width="6" height="0" stroke="black" stroke-width="1" fill="blue" opacity="1" tooltip="enable"><title>(0.12117,0)</title></rect><rect x="594" y="199.829" width="6" height="0.170648" stroke="black" stroke-width="1" fill="blue" opacity="1" tooltip="enable"><title>(0.122407,1)</title></rect><text x="30" y="240" font-size="20" fill="black">0</text>
<text x="600" y="240" font-size="20" fill="black">0.123643</text>
<polyline points="0,220,600,220" stroke="black" stroke-width="1" fill="none" opacity="1"/>
<text x="720" y="20" font-size="20" fill="black">1172</text>
<text x="720" y="200" font-size="20" fill="black">0</text>
<polyline points="660,0,660,200" stroke="black" stroke-width="1" fill="none" opacity="1"/>
</svg>