<?xml version="1.0" standalone="yes"?>
<!-- SVG graphic -->
<svg xmlns='http://www.w3.org/2000/svg' xmlns:xlink='http://www.w3.org/1999/xlink'
 version="1.1">
<rect x="0" y="0" width="6" height="200" stroke="black" stroke-width="1" fill="blue" opacity="1" tooltip="enable"><title>(0,1276)</title></rect><rect x="6" y="13.3229" width="6" height="186.677" stroke="black" stroke-width="1" fill="blue" opacity="1" tooltip="enable"><title>(0.0014376,1191)</title></rect><rect x="12" y="35.7367" width="6" height="164.263" stroke="black" stroke-width="1" fill="blue" opacity="1" tooltip="enable"><title>(0.00287519,1048)</title></rect><rect x="18" y="93.7304" width="6" height="106.27" stroke="black" stroke-width="1" fill="blue" opacity="1" tooltip="enable"><title>(0.00431279,678)</title></rect><rect x="24" y="126.332" width="6" height="73.6677" stroke="black" stroke-width="1" fill="blue" opacity="1" tooltip="enable"><title>(0.00575039,470)</title></rect><rect x="30" y="147.179" width="6" height="52.8213" stroke="black" stroke-width="1" fill="blue" opacity="1" tooltip="enable"><title>(0.00718799,337)</title></rect><rect x="36" y="164.577" width="6" height="35.4232" stroke="black" stroke-width="1" fill="blue" opacity="1" tooltip="enable"><title>(0.00862558,226)</title></rect><rect x="42" y="166.771" width="6" height="33.2288" stroke="black" stroke-width="1" fill="blue" opacity="1" tooltip="enable"><title>(0.0100632,212)</title></rect><rect x="48" y="171.944" width="6" height="28.0564" stroke="black" stroke-width="1" fill="blue" opacity="1" tooltip="enable"><title>(0.0115008,179)</title></rect><rect x="54" y="171.787" width="6" height="28.2132" stroke="black" stroke-width="1" fill="blue" opacity="1" tooltip="enable"><title>(0.0129384,180)</title></rect><rect x="60" y="173.824" width="6" height="26.1755" stroke="black" stroke-width="1" fill="blue" opacity="1" tooltip="enable"><title>(0.014376,167)</title></rect><rect x="66" y="172.1" width="6" height="27.8997" stroke="black" stroke-width="1" fill="blue" opacity="1" tooltip="enable"><title>(0.0158136,178)</title></rect><rect x="72" y="176.803" width="6" height="23.1975" stroke="black" stroke-width="1" fill="blue" opacity="1" tooltip="enable"><title>(0.0172512,148)</title></rect><rect x="78" y="176.176" width="6" height="23.8245" stroke="black" stroke-width="1" fill="blue" opacity="1" tooltip="enable"><title>(0.0186888,152)</title></rect><rect x="84" y="176.332" width="6" height="23.6677" stroke="black" stroke-width="1" fill="blue" opacity="1" tooltip="enable"><title>(0.0201264,151)</title></rect><rect x="90" y="182.288" width="6" height="17.7116" stroke="black" stroke-width="1" fill="blue" opacity="1" tooltip="enable"><title>(0.021564,113)</title></rect><rect x="96" y="176.489" width="6" height="23.511" stroke="black" stroke-width="1" fill="blue" opacity="1" tooltip="enable"><title>(0.0230016,150)</title></rect><rect x="102" y="181.191" width="6" height="18.8088" stroke="black" stroke-width="1" fill="blue" opacity="1" tooltip="enable"><title>(0.0244392,120)</title></rect><rect x="108" y="185.58" width="6" height="14.4201" stroke="black" stroke-width="1" fill="blue" opacity="1" tooltip="enable"><title>(0.0258767,92)</title></rect><rect x="114" y="186.834" width="6" height="13.1661" stroke="black" stroke-width="1" fill="blue" opacity="1" tooltip="enable"><title>(0.0273143,84)</title></rect><rect x="120" y="188.558" width="6" height="11.442" stroke="black" stroke-width="1" fill="blue" opacity="1" tooltip="enable"><title>(0.0287519,73)</title></rect><rect x="126" y="187.304" width="6" height="12.6959" stroke="black" stroke-width="1" fill="blue" opacity="1" tooltip="enable"><title>(0.0301895,81)</title></rect><rect x="132" y="190.909" width="6" height="9.09091" stroke="black" stroke-width="1" fill="blue" opacity="1" tooltip="enable"><title>(0.0316271,58)</title></rect><rect x="138" y="190.282" width="6" height="9.71787" stroke="black" stroke-width="1" fill="blue" opacity="1" tooltip="enable"><title>(0.0330647,62)</title></rect><rect x="144" y="188.871" width="6" height="11.1285" stroke="black" stroke-width="1" fill="blue" opacity="1" tooltip="enable"><title>(0.0345023,71)</title></rect><rect x="150" y="192.163" width="6" height="7.83699" stroke="black" stroke-width="1" fill="blue" opacity="1" tooltip="enable"><title>(0.0359399,50)</title></rect><rect x="156" y="193.26" width="6" height="6.73981" stroke="black" stroke-width="1" fill="blue" opacity="1" tooltip="enable"><title>(0.0373775,43)</title></rect><rect x="162" y="193.103" width="6" height="6.89655" stroke="black" stroke-width="1" fill="blue" opacity="1" tooltip="enable"><title>(0.0388151,44)</title></rect><rect x="168" y="195.298" width="6" height="4.70219" stroke="black" stroke-width="1" fill="blue" opacity="1" tooltip="enable"><title>(0.0402527,30)</title></rect><rect x="174" y="193.574" width="6" height="6.42633" stroke="black" stroke-width="1" fill="blue" opacity="1" tooltip="enable"><title>(0.0416903,41)</title></rect><rect x="180" y="193.417" width="6" height="6.58307" stroke="black" stroke-width="1" fill="blue" opacity="1" tooltip="enable"><title>(0.0431279,42)</title></rect><rect x="186" y="193.103" width="6" height="6.89655" stroke="black" stroke-width="1" fill="blue" opacity="1" tooltip="enable"><title>(0.0445655,44)</title></rect><rect x="192" y="195.141" width="6" height="4.85893" stroke="black" stroke-width="1" fill="blue" opacity="1" tooltip="enable"><title>(0.0460031,31)</title></rect><rect x="198" y="196.552" width="6" height="3.44828" stroke="black" stroke-width="1" fill="blue" opacity="1" tooltip="enable"><title>(0.0474407,22)</title></rect><rect x="204" y="197.806" width="6" height="2.19436" stroke="black" stroke-width="1" fill="blue" opacity="1" tooltip="enable"><title>(0.0488783,14)</title></rect><rect x="210" y="198.746" width="6" height="1.25392" stroke="black" stroke-width="1" fill="blue" opacity="1" tooltip="enable"><title>(0.0503159,8)</title></rect><rect x="216" y="198.746" width="6" height="1.25392" stroke="black" stroke-width="1" fill="blue" opacity="1" tooltip="enable"><title>(0.0517535,8)</title></rect><rect x="222" y="199.373" width="6" height="0.626959" stroke="black" stroke-width="1" fill="blue" opacity="1" tooltip="enable"><title>(0.0531911,4)</title></rect><rect x="228" y="198.746" width="6" height="1.25392" stroke="black" stroke-width="1" fill="blue" opacity="1" tooltip="enable"><title>(0.0546287,8)</title></rect><rect x="234" y="199.06" width="6" height="0.940439" stroke="black" stroke-width="1" fill="blue" opacity="1" tooltip="enable"><title>(0.0560663,6)</title></rect><rect x="240" y="199.687" width="6" height="0.31348" stroke="black" stroke-width="1" fill="blue" opacity="1" tooltip="enable"><title>(0.0575039,2)</title></rect><rect x="246" y="199.373" width="6" height="0.626959" stroke="black" stroke-width="1" fill="blue" opacity="1" tooltip="enable"><title>(0.0589415,4)</title></rect><rect x="252" y="199.373" width="6" height="0.626959" stroke="black" stroke-width="1" fill="blue" opacity="1" tooltip="enable"><title>(0.0603791,4)</title></rect><rect x="258" y="199.06" width="6" height="0.940439" stroke="black" stroke-width="1" fill="blue" opacity="1" tooltip="enable"><title>(0.0618167,6)</title></rect><rect x="264" y="199.687" width="6" height="0.31348" stroke="black" stroke-width="1" fill="blue" opacity="1" tooltip="enable"><title>(0.0632543,2)</title></rect><rect x="270" y="199.687" width="6" height="0.31348" stroke="black" stroke-width="1" fill="blue" opacity="1" tooltip="enable"><title>(0.0646919,2)</title></rect><rect x="276" y="200" width="6" height="0" stroke="black" stroke-width="1" fill="blue" opacity="1" tooltip="enable"><title>(0.0661295,0)</title></rect><rect x="282" y="198.119" width="6" height="1.88088" stroke="black" stroke-width="1" fill="blue" opacity="1" tooltip="enable"><title>(0.0675671,12)</title></rect><rect x="288" y="199.06" width="6" height="0.940439" stroke="black" stroke-width="1" fill="blue" opacity="1" tooltip="enable"><title>(0.0690047,6)</title></rect><rect x="294" y="200" width="6" height="0" stroke="black" stroke-width="1" fill="blue" opacity="1" tooltip="enable"><title>(0.0704423,0)</title></rect><rect x="300" y="199.687" width="6" height="0.31348" stroke="black" stroke-width="1" fill="blue" opacity="1" tooltip="enable"><title>(0.0718799,2)</title></rect><rect x="306" y="199.216" width="6" height="0.783699" stroke="black" stroke-width="1" fill="blue" opacity="1" tooltip="enable"><title>(0.0733175,5)</title></rect><rect x="312" y="199.53" width="6" height="0.470219" stroke="black" stroke-width="1" fill="blue" opacity="1" tooltip="enable"><title>(0.0747551,3)</title></rect><rect x="318" y="199.06" width="6" height="0.940439" stroke="black" stroke-width="1" fill="blue" opacity="1" tooltip="enable"><title>(0.0761926,6)</title></rect><rect x="324" y="199.687" width="6" height="0.31348" stroke="black" stroke-width="1" fill="blue" opacity="1" tooltip="enable"><title>(0.0776302,2)</title></rect><rect x="330" y="200" width="6" height="0" stroke="black" stroke-width="1" fill="blue" opacity="1" tooltip="enable"><title>(0.0790678,0)</title></rect><rect x="336" y="199.687" width="6" height="0.31348" stroke="black" stroke-width="1" fill="blue" opacity="1" tooltip="enable"><title>(0.0805054,2)</title></rect><rect x="342" y="199.53" width="6" height="0.470219" stroke="black" stroke-width="1" fill="blue" opacity="1" tooltip="enable"><title>(0.081943,3)</title></rect><rect x="348" y="199.843" width="6" height="0.15674" stroke="black" stroke-width="1" fill="blue" opacity="1" tooltip="enable"><title>(0.0833806,1)</title></rect><rect x="354" y="198.746" width="6" height="1.25392" stroke="black" stroke-width="1" fill="blue" opacity="1" tooltip="enable"><title>(0.0848182,8)</title></rect><rect x="360" y="199.687" width="6" height="0.31348" stroke="black" stroke-width="1" fill="blue" opacity="1" tooltip="enable"><title>(0.0862558,2)</title></rect><rect x="366" y="199.687" width="6" height="0.31348" stroke="black" stroke-width="1" fill="blue" opacity="1" tooltip="enable"><title>(0.0876934,2)</title></rect><rect x="372" y="200" width="6" height="0" stroke="black" stroke-width="1" fill="blue" opacity="1" tooltip="enable"><title>(0.089131,0)</title></rect><rect x="378" y="199.687" width="6" height="0.31348" stroke="black" stroke-width="1" fill="blue" opacity="1" tooltip="enable"><title>(0.0905686,2)</title></rect><rect x="384" y="200" width="6" height="0" stroke="black" stroke-width="1" fill="blue" opacity="1" tooltip="enable"><title>(0.0920062,0)</title></rect><rect x="390" y="199.373" width="6" height="0.626959" stroke="black" stroke-width="1" fill="blue" opacity="1" tooltip="enable"><title>(0.0934438,4)</title></rect><rect x="396" y="200" width="6" height="0" stroke="black" stroke-width="1" fill="blue" opacity="1" tooltip="enable"><title>(0.0948814,0)</title></rect><rect x="402" y="199.687" width="6" height="0.31348" stroke="black" stroke-width="1" fill="blue" opacity="1" tooltip="enable"><title>(0.096319,2)</title></rect><rect x="408" y="199.373" width="6" height="0.626959" stroke="black" stroke-width="1" fill="blue" opacity="1" tooltip="enable"><title>(0.0977566,4)</title></rect><rect x="414" y="200" width="6" height="0" stroke="black" stroke-width="1" fill="blue" opacity="1" tooltip="enable"><title>(0.0991942,0)</title></rect><rect x="420" y="200" width="6" height="0" stroke="black" stroke-width="1" fill="blue" opacity="1" tooltip="enable"><title>(0.100632,0)</title></rect><rect x="426" y="200" width="6" height="0" stroke="black" stroke-width="1" fill="blue" opacity="1" tooltip="enable"><title>(0.102069,0)</title></rect><rect x="432" y="200" width="6" height="0" stroke="black" stroke-width="1" fill="blue" opacity="1" tooltip="enable"><title>(0.103507,0)</title></rect><rect x="438" y="200" width="6" height="0" stroke="black" stroke-width="1" fill="blue" opacity="1" tooltip="enable"><title>(0.104945,0)</title></rect><rect x="444" y="200" width="6" height="0" stroke="black" stroke-width="1" fill="blue" opacity="1" tooltip="enable"><title>(0.106382,0)</title></rect><rect x="450" y="200" width="6" height="0" stroke="black" stroke-width="1" fill="blue" opacity="1" tooltip="enable"><title>(0.10782,0)</title></rect><rect x="456" y="199.687" width="6" height="0.31348" stroke="black" stroke-width="1" fill="blue" opacity="1" tooltip="enable"><title>(0.109257,2)</title></rect><rect x="462" y="200" width="6" height="0" stroke="black" stroke-width="1" fill="blue" opacity="1" tooltip="enable"><title>(0.110695,0)</title></rect><rect x="468" y="200" width="6" height="0" stroke="black" stroke-width="1" fill="blue" opacity="1" tooltip="enable"><title>(0.112133,0)</title></rect><rect x="474" y="199.373" width="6" height="0.626959" stroke="black" stroke-width="1" fill="blue" opacity="1" tooltip="enable"><title>(0.11357,4)</title></rect><rect x="480" y="199.687" width="6" height="0.31348" stroke="black" stroke-width="1" fill="blue" opacity="1" tooltip="enable"><title>(0.115008,2)</title></rect><rect x="486" y="200" width="6" height="0" stroke="black" stroke-width="1" fill="blue" opacity="1" tooltip="enable"><title>(0.116445,0)</title></rect><rect x="492" y="199.687" width="6" height="0.31348" stroke="black" stroke-width="1" fill="blue" opacity="1" tooltip="enable"><title>(0.117883,2)</title></rect><rect x="498" y="200" width="6" height="0" stroke="black" stroke-width="1" fill="blue" opacity="1" tooltip="enable"><title>(0.119321,0)</title></rect><rect x="504" y="200" width="6" height="0" stroke="black" stroke-width="1" fill="blue" opacity="1" tooltip="enable"><title>(0.120758,0)</title></rect><rect x="510" y="200" width="6" height="0" stroke="black" stroke-width="1" fill="blue" opacity="1" tooltip="enable"><title>(0.122196,0)</title></rect><rect x="516" y="200" width="6" height="0" stroke="black" stroke-width="1" fill="blue" opacity="1" tooltip="enable"><title>(0.123633,0)</title></rect><rect x="522" y="199.843" width="6" height="0.15674" stroke="black" stroke-width="1" fill="blue" opacity="1" tooltip="enable"><title>(0.125071,1)</title></rect><rect x="528" y="199.216" width="6" height="0.783699" stroke="black" stroke-width="1" fill="blue" opacity="1" tooltip="enable"><title>(0.126509,5)</title></rect><rect x="534" y="200" width="6" height="0" stroke="black" stroke-width="1" fill="blue" opacity="1" tooltip="enable"><title>(0.127946,0)</title></rect><rect x="540" y="200" width="6" height="0" stroke="black" stroke-width="1" fill="blue" opacity="1" tooltip="enable"><title>(0.129384,0)</title></rect><rect x="546" y="200" width="6" height="0" stroke="black" stroke-width="1" fill="blue" opacity="1" tooltip="enable"><title>(0.130821,0)</title></rect><rect x="552" y="200" width="6" height="0" stroke="black" stroke-width="1" fill="blue" opacity="1" tooltip="enable"><title>(0.132259,0)</title></rect><rect x="558" y="200" width="6" height="0" stroke="black" stroke-width="1" fill="blue" opacity="1" tooltip="enable"><title>(0.133697,0)</title></rect><rect x="564" y="200" width="6" height="0" stroke="black" stroke-width="1" fill="blue" opacity="1" tooltip="enable"><title>(0.135134,0)</title></rect><rect x="570" y="199.687" width="6" height="0.31348" stroke="black" stroke-width="1" fill="blue" opacity="1" tooltip="enable"><title>(0.136572,2)</title></rect><rect x="576" y="199.687" width="6" height="0.31348" stroke="black" stroke-width="1" fill="blue" opacity="1" tooltip="enable"><title>(0.138009,2)</title></rect><rect x="582" y="200" width="6" height="0" stroke="black" stroke-width="1" fill="blue" opacity="1" tooltip="enable"><title>(0.139447,0)</title></rect><rect x="588" y="200" width="6" height="0" stroke="black" stroke-width="1" fill="blue" opacity="1" tooltip="enable"><title>(0.140885,0)</title></rect><rect x="594" y="199.843" width="6" height="0.15674" stroke="black" stroke-width="1" fill="blue" opacity="1" tooltip="enable"><title>(0.142322,1)</title></rect><text x="30" y="240" font-size="20" fill="black">0</text>
<text x="600" y="240" font-size="20" fill="black">0.14376</text>
<polyline points="0,220,600,220" stroke="black" stroke-width="1" fill="none" opacity="1"/>
<text x="720" y="20" font-size="20" fill="black">1276</text>
<text x="720" y="200" font-size="20" fill="black">0</text>
<polyline points="660,0,660,200" stroke="black" stroke-width="1" fill="none" opacity="1"/>
</svg>