<?xml version="1.0" standalone="yes"?>
<!-- SVG graphic -->
<svg xmlns='http://www.w3.org/2000/svg' xmlns:xlink='http://www.w3.org/1999/xlink'
 version="1.1">
<rect x="0" y="0" width="6" height="200" stroke="black" stroke-width="1" fill="blue" opacity="1" tooltip="enable"><title>(0,2807)</title></rect><rect x="6" y="111.863" width="6" height="88.1368" stroke="black" stroke-width="1" fill="blue" opacity="1" tooltip="enable"><title>(0.00159068,1237)</title></rect><rect x="12" y="154.257" width="6" height="45.7428" stroke="black" stroke-width="1" fill="blue" opacity="1" tooltip="enable"><title>(0.00318135,642)</title></rect><rect x="18" y="175.917" width="6" height="24.0827" stroke="black" stroke-width="1" fill="blue" opacity="1" tooltip="enable"><title>(0.00477203,338)</title></rect><rect x="24" y="184.325" width="6" height="15.6751" stroke="black" stroke-width="1" fill="blue" opacity="1" tooltip="enable"><title>(0.0063627,220)</title></rect><rect x="30" y="183.684" width="6" height="16.3164" stroke="black" stroke-width="1" fill="blue" opacity="1" tooltip="enable"><title>(0.00795338,229)</title></rect><rect x="36" y="185.251" width="6" height="14.7488" stroke="black" stroke-width="1" fill="blue" opacity="1" tooltip="enable"><title>(0.00954405,207)</title></rect><rect x="42" y="186.177" width="6" height="13.8226" stroke="black" stroke-width="1" fill="blue" opacity="1" tooltip="enable"><title>(0.0111347,194)</title></rect><rect x="48" y="185.75" width="6" height="14.2501" stroke="black" stroke-width="1" fill="blue" opacity="1" tooltip="enable"><title>(0.0127254,200)</title></rect><rect x="54" y="190.31" width="6" height="9.69006" stroke="black" stroke-width="1" fill="blue" opacity="1" tooltip="enable"><title>(0.0143161,136)</title></rect><rect x="60" y="187.602" width="6" height="12.3976" stroke="black" stroke-width="1" fill="blue" opacity="1" tooltip="enable"><title>(0.0159068,174)</title></rect><rect x="66" y="191.307" width="6" height="8.69255" stroke="black" stroke-width="1" fill="blue" opacity="1" tooltip="enable"><title>(0.0174974,122)</title></rect><rect x="72" y="192.02" width="6" height="7.98005" stroke="black" stroke-width="1" fill="blue" opacity="1" tooltip="enable"><title>(0.0190881,112)</title></rect><rect x="78" y="191.949" width="6" height="8.0513" stroke="black" stroke-width="1" fill="blue" opacity="1" tooltip="enable"><title>(0.0206788,113)</title></rect><rect x="84" y="195.155" width="6" height="4.84503" stroke="black" stroke-width="1" fill="blue" opacity="1" tooltip="enable"><title>(0.0222695,68)</title></rect><rect x="90" y="194.514" width="6" height="5.48628" stroke="black" stroke-width="1" fill="blue" opacity="1" tooltip="enable"><title>(0.0238601,77)</title></rect><rect x="96" y="194.157" width="6" height="5.84254" stroke="black" stroke-width="1" fill="blue" opacity="1" tooltip="enable"><title>(0.0254508,82)</title></rect><rect x="102" y="193.302" width="6" height="6.69754" stroke="black" stroke-width="1" fill="blue" opacity="1" tooltip="enable"><title>(0.0270415,94)</title></rect><rect x="108" y="194.514" width="6" height="5.48628" stroke="black" stroke-width="1" fill="blue" opacity="1" tooltip="enable"><title>(0.0286322,77)</title></rect><rect x="114" y="194.656" width="6" height="5.34378" stroke="black" stroke-width="1" fill="blue" opacity="1" tooltip="enable"><title>(0.0302228,75)</title></rect><rect x="120" y="196.152" width="6" height="3.84752" stroke="black" stroke-width="1" fill="blue" opacity="1" tooltip="enable"><title>(0.0318135,54)</title></rect><rect x="126" y="195.297" width="6" height="4.70253" stroke="black" stroke-width="1" fill="blue" opacity="1" tooltip="enable"><title>(0.0334042,66)</title></rect><rect x="132" y="195.012" width="6" height="4.98753" stroke="black" stroke-width="1" fill="blue" opacity="1" tooltip="enable"><title>(0.0349949,70)</title></rect><rect x="138" y="195.012" width="6" height="4.98753" stroke="black" stroke-width="1" fill="blue" opacity="1" tooltip="enable"><title>(0.0365855,70)</title></rect><rect x="144" y="196.01" width="6" height="3.99003" stroke="black" stroke-width="1" fill="blue" opacity="1" tooltip="enable"><title>(0.0381762,56)</title></rect><rect x="150" y="196.437" width="6" height="3.56252" stroke="black" stroke-width="1" fill="blue" opacity="1" tooltip="enable"><title>(0.0397669,50)</title></rect><rect x="156" y="195.654" width="6" height="4.34628" stroke="black" stroke-width="1" fill="blue" opacity="1" tooltip="enable"><title>(0.0413576,61)</title></rect><rect x="162" y="195.796" width="6" height="4.20378" stroke="black" stroke-width="1" fill="blue" opacity="1" tooltip="enable"><title>(0.0429482,59)</title></rect><rect x="168" y="197.15" width="6" height="2.85002" stroke="black" stroke-width="1" fill="blue" opacity="1" tooltip="enable"><title>(0.0445389,40)</title></rect><rect x="174" y="198.076" width="6" height="1.92376" stroke="black" stroke-width="1" fill="blue" opacity="1" tooltip="enable"><title>(0.0461296,27)</title></rect><rect x="180" y="196.58" width="6" height="3.42002" stroke="black" stroke-width="1" fill="blue" opacity="1" tooltip="enable"><title>(0.0477203,48)</title></rect><rect x="186" y="197.649" width="6" height="2.35126" stroke="black" stroke-width="1" fill="blue" opacity="1" tooltip="enable"><title>(0.0493109,33)</title></rect><rect x="192" y="198.575" width="6" height="1.42501" stroke="black" stroke-width="1" fill="blue" opacity="1" tooltip="enable"><title>(0.0509016,20)</title></rect><rect x="198" y="198.717" width="6" height="1.28251" stroke="black" stroke-width="1" fill="blue" opacity="1" tooltip="enable"><title>(0.0524923,18)</title></rect><rect x="204" y="199.002" width="6" height="0.997506" stroke="black" stroke-width="1" fill="blue" opacity="1" tooltip="enable"><title>(0.054083,14)</title></rect><rect x="210" y="199.145" width="6" height="0.855005" stroke="black" stroke-width="1" fill="blue" opacity="1" tooltip="enable"><title>(0.0556736,12)</title></rect><rect x="216" y="198.789" width="6" height="1.21126" stroke="black" stroke-width="1" fill="blue" opacity="1" tooltip="enable"><title>(0.0572643,17)</title></rect><rect x="222" y="198.931" width="6" height="1.06876" stroke="black" stroke-width="1" fill="blue" opacity="1" tooltip="enable"><title>(0.058855,15)</title></rect><rect x="228" y="199.715" width="6" height="0.285002" stroke="black" stroke-width="1" fill="blue" opacity="1" tooltip="enable"><title>(0.0604457,4)</title></rect><rect x="234" y="199.43" width="6" height="0.570004" stroke="black" stroke-width="1" fill="blue" opacity="1" tooltip="enable"><title>(0.0620363,8)</title></rect><rect x="240" y="198.86" width="6" height="1.14001" stroke="black" stroke-width="1" fill="blue" opacity="1" tooltip="enable"><title>(0.063627,16)</title></rect><rect x="246" y="199.002" width="6" height="0.997506" stroke="black" stroke-width="1" fill="blue" opacity="1" tooltip="enable"><title>(0.0652177,14)</title></rect><rect x="252" y="199.287" width="6" height="0.712504" stroke="black" stroke-width="1" fill="blue" opacity="1" tooltip="enable"><title>(0.0668084,10)</title></rect><rect x="258" y="199.43" width="6" height="0.570004" stroke="black" stroke-width="1" fill="blue" opacity="1" tooltip="enable"><title>(0.068399,8)</title></rect><rect x="264" y="200" width="6" height="0" stroke="black" stroke-width="1" fill="blue" opacity="1" tooltip="enable"><title>(0.0699897,0)</title></rect><rect x="270" y="200" width="6" height="0" stroke="black" stroke-width="1" fill="blue" opacity="1" tooltip="enable"><title>(0.0715804,0)</title></rect><rect x="276" y="200" width="6" height="0" stroke="black" stroke-width="1" fill="blue" opacity="1" tooltip="enable"><title>(0.0731711,0)</title></rect><rect x="282" y="199.857" width="6" height="0.142501" stroke="black" stroke-width="1" fill="blue" opacity="1" tooltip="enable"><title>(0.0747617,2)</title></rect><rect x="288" y="200" width="6" height="0" stroke="black" stroke-width="1" fill="blue" opacity="1" tooltip="enable"><title>(0.0763524,0)</title></rect><rect x="294" y="200" width="6" height="0" stroke="black" stroke-width="1" fill="blue" opacity="1" tooltip="enable"><title>(0.0779431,0)</title></rect><rect x="300" y="200" width="6" height="0" stroke="black" stroke-width="1" fill="blue" opacity="1" tooltip="enable"><title>(0.0795338,0)</title></rect><rect x="306" y="200" width="6" height="0" stroke="black" stroke-width="1" fill="blue" opacity="1" tooltip="enable"><title>(0.0811244,0)</title></rect><rect x="312" y="200" width="6" height="0" stroke="black" stroke-width="1" fill="blue" opacity="1" tooltip="enable"><title>(0.0827151,0)</title></rect><rect x="318" y="200" width="6" height="0" stroke="black" stroke-width="1" fill="blue" opacity="1" tooltip="enable"><title>(0.0843058,0)</title></rect><rect x="324" y="200" width="6" height="0" stroke="black" stroke-width="1" fill="blue" opacity="1" tooltip="enable"><title>(0.0858965,0)</title></rect><rect x="330" y="200" width="6" height="0" stroke="black" stroke-width="1" fill="blue" opacity="1" tooltip="enable"><title>(0.0874871,0)</title></rect><rect x="336" y="200" width="6" height="0" stroke="black" stroke-width="1" fill="blue" opacity="1" tooltip="enable"><title>(0.0890778,0)</title></rect><rect x="342" y="200" width="6" height="0" stroke="black" stroke-width="1" fill="blue" opacity="1" tooltip="enable"><title>(0.0906685,0)</title></rect><rect x="348" y="200" width="6" height="0" stroke="black" stroke-width="1" fill="blue" opacity="1" tooltip="enable"><title>(0.0922592,0)</title></rect><rect x="354" y="200" width="6" height="0" stroke="black" stroke-width="1" fill="blue" opacity="1" tooltip="enable"><title>(0.0938498,0)</title></rect><rect x="360" y="200" width="6" height="0" stroke="black" stroke-width="1" fill="blue" opacity="1" tooltip="enable"><title>(0.0954405,0)</title></rect><rect x="366" y="200" width="6" height="0" stroke="black" stroke-width="1" fill="blue" opacity="1" tooltip="enable"><title>(0.0970312,0)</title></rect><rect x="372" y="200" width="6" height="0" stroke="black" stroke-width="1" fill="blue" opacity="1" tooltip="enable"><title>(0.0986219,0)</title></rect><rect x="378" y="200" width="6" height="0" stroke="black" stroke-width="1" fill="blue" opacity="1" tooltip="enable"><title>(0.100213,0)</title></rect><rect x="384" y="200" width="6" height="0" stroke="black" stroke-width="1" fill="blue" opacity="1" tooltip="enable"><title>(0.101803,0)</title></rect><rect x="390" y="200" width="6" height="0" stroke="black" stroke-width="1" fill="blue" opacity="1" tooltip="enable"><title>(0.103394,0)</title></rect><rect x="396" y="200" width="6" height="0" stroke="black" stroke-width="1" fill="blue" opacity="1" tooltip="enable"><title>(0.104985,0)</title></rect><rect x="402" y="200" width="6" height="0" stroke="black" stroke-width="1" fill="blue" opacity="1" tooltip="enable"><title>(0.106575,0)</title></rect><rect x="408" y="200" width="6" height="0" stroke="black" stroke-width="1" fill="blue" opacity="1" tooltip="enable"><title>(0.108166,0)</title></rect><rect x="414" y="200" width="6" height="0" stroke="black" stroke-width="1" fill="blue" opacity="1" tooltip="enable"><title>(0.109757,0)</title></rect><rect x="420" y="200" width="6" height="0" stroke="black" stroke-width="1" fill="blue" opacity="1" tooltip="enable"><title>(0.111347,0)</title></rect><rect x="426" y="200" width="6" height="0" stroke="black" stroke-width="1" fill="blue" opacity="1" tooltip="enable"><title>(0.112938,0)</title></rect><rect x="432" y="200" width="6" height="0" stroke="black" stroke-width="1" fill="blue" opacity="1" tooltip="enable"><title>(0.114529,0)</title></rect><rect x="438" y="200" width="6" height="0" stroke="black" stroke-width="1" fill="blue" opacity="1" tooltip="enable"><title>(0.116119,0)</title></rect><rect x="444" y="200" width="6" height="0" stroke="black" stroke-width="1" fill="blue" opacity="1" tooltip="enable"><title>(0.11771,0)</title></rect><rect x="450" y="200" width="6" height="0" stroke="black" stroke-width="1" fill="blue" opacity="1" tooltip="enable"><title>(0.119301,0)</title></rect><rect x="456" y="200" width="6" height="0" stroke="black" stroke-width="1" fill="blue" opacity="1" tooltip="enable"><title>(0.120891,0)</title></rect><rect x="462" y="200" width="6" height="0" stroke="black" stroke-width="1" fill="blue" opacity="1" tooltip="enable"><title>(0.122482,0)</title></rect><rect x="468" y="200" width="6" height="0" stroke="black" stroke-width="1" fill="blue" opacity="1" tooltip="enable"><title>(0.124073,0)</title></rect><rect x="474" y="200" width="6" height="0" stroke="black" stroke-width="1" fill="blue" opacity="1" tooltip="enable"><title>(0.125663,0)</title></rect><rect x="480" y="200" width="6" height="0" stroke="black" stroke-width="1" fill="blue" opacity="1" tooltip="enable"><title>(0.127254,0)</title></rect><rect x="486" y="200" width="6" height="0" stroke="black" stroke-width="1" fill="blue" opacity="1" tooltip="enable"><title>(0.128845,0)</title></rect><rect x="492" y="200" width="6" height="0" stroke="black" stroke-width="1" fill="blue" opacity="1" tooltip="enable"><title>(0.130435,0)</title></rect><rect x="498" y="200" width="6" height="0" stroke="black" stroke-width="1" fill="blue" opacity="1" tooltip="enable"><title>(0.132026,0)</title></rect><rect x="504" y="200" width="6" height="0" stroke="black" stroke-width="1" fill="blue" opacity="1" tooltip="enable"><title>(0.133617,0)</title></rect><rect x="510" y="200" width="6" height="0" stroke="black" stroke-width="1" fill="blue" opacity="1" tooltip="enable"><title>(0.135207,0)</title></rect><rect x="516" y="200" width="6" height="0" stroke="black" stroke-width="1" fill="blue" opacity="1" tooltip="enable"><title>(0.136798,0)</title></rect><rect x="522" y="200" width="6" height="0" stroke="black" stroke-width="1" fill="blue" opacity="1" tooltip="enable"><title>(0.138389,0)</title></rect><rect x="528" y="200" width="6" height="0" stroke="black" stroke-width="1" fill="blue" opacity="1" tooltip="enable"><title>(0.139979,0)</title></rect><rect x="534" y="200" width="6" height="0" stroke="black" stroke-width="1" fill="blue" opacity="1" tooltip="enable"><title>(0.14157,0)</title></rect><rect x="540" y="200" width="6" height="0" stroke="black" stroke-width="1" fill="blue" opacity="1" tooltip="enable"><title>(0.143161,0)</title></rect><rect x="546" y="200" width="6" height="0" stroke="black" stroke-width="1" fill="blue" opacity="1" tooltip="enable"><title>(0.144751,0)</title></rect><rect x="552" y="200" width="6" height="0" stroke="black" stroke-width="1" fill="blue" opacity="1" tooltip="enable"><title>(0.146342,0)</title></rect><rect x="558" y="200" width="6" height="0" stroke="black" stroke-width="1" fill="blue" opacity="1" tooltip="enable"><title>(0.147933,0)</title></rect><rect x="564" y="200" width="6" height="0" stroke="black" stroke-width="1" fill="blue" opacity="1" tooltip="enable"><title>(0.149523,0)</title></rect><rect x="570" y="200" width="6" height="0" stroke="black" stroke-width="1" fill="blue" opacity="1" tooltip="enable"><title>(0.151114,0)</title></rect><rect x="576" y="200" width="6" height="0" stroke="black" stroke-width="1" fill="blue" opacity="1" tooltip="enable"><title>(0.152705,0)</title></rect><rect x="582" y="200" width="6" height="0" stroke="black" stroke-width="1" fill="blue" opacity="1" tooltip="enable"><title>(0.154296,0)</title></rect><rect x="588" y="199.857" width="6" height="0.142501" stroke="black" stroke-width="1" fill="blue" opacity="1" tooltip="enable"><title>(0.155886,2)</title></rect><rect x="594" y="199.929" width="6" height="0.0712504" stroke="black" stroke-width="1" fill="blue" opacity="1" tooltip="enable"><title>(0.157477,1)</title></rect><text x="30" y="240" font-size="20" fill="black">0</text>
<text x="600" y="240" font-size="20" fill="black">0.159068</text>
<polyline points="0,220,600,220" stroke="black" stroke-width="1" fill="none" opacity="1"/>
<text x="720" y="20" font-size="20" fill="black">2807</text>
<text x="720" y="200" font-size="20" fill="black">0</text>
<polyline points="660,0,660,200" stroke="black" stroke-width="1" fill="none" opacity="1"/>
</svg>