<?xml version="1.0" standalone="yes"?>
<!-- SVG graphic -->
<svg xmlns='http://www.w3.org/2000/svg' xmlns:xlink='http://www.w3.org/1999/xlink'
 version="1.1">
<rect x="0" y="-1.52588e-05" width="6" height="200" stroke="black" stroke-width="1" fill="blue" opacity="1" tooltip="enable"><title>(0,3127)</title></rect><rect x="6" y="120.883" width="6" height="79.1174" stroke="black" stroke-width="1" fill="blue" opacity="1" tooltip="enable"><title>(0.00211921,1237)</title></rect><rect x="12" y="185.801" width="6" height="14.1989" stroke="black" stroke-width="1" fill="blue" opacity="1" tooltip="enable"><title>(0.00423843,222)</title></rect><rect x="18" y="186.824" width="6" height="13.1756" stroke="black" stroke-width="1" fill="blue" opacity="1" tooltip="enable"><title>(0.00635764,206)</title></rect><rect x="24" y="188.487" width="6" height="11.5126" stroke="black" stroke-width="1" fill="blue" opacity="1" tooltip="enable"><title>(0.00847685,180)</title></rect><rect x="30" y="187.976" width="6" height="12.0243" stroke="black" stroke-width="1" fill="blue" opacity="1" tooltip="enable"><title>(0.0105961,188)</title></rect><rect x="36" y="186.313" width="6" height="13.6872" stroke="black" stroke-width="1" fill="blue" opacity="1" tooltip="enable"><title>(0.0127153,214)</title></rect><rect x="42" y="186.121" width="6" height="13.8791" stroke="black" stroke-width="1" fill="blue" opacity="1" tooltip="enable"><title>(0.0148345,217)</title></rect><rect x="48" y="188.935" width="6" height="11.0649" stroke="black" stroke-width="1" fill="blue" opacity="1" tooltip="enable"><title>(0.0169537,173)</title></rect><rect x="54" y="188.168" width="6" height="11.8324" stroke="black" stroke-width="1" fill="blue" opacity="1" tooltip="enable"><title>(0.0190729,185)</title></rect><rect x="60" y="188.807" width="6" height="11.1928" stroke="black" stroke-width="1" fill="blue" opacity="1" tooltip="enable"><title>(0.0211921,175)</title></rect><rect x="66" y="191.621" width="6" height="8.37864" stroke="black" stroke-width="1" fill="blue" opacity="1" tooltip="enable"><title>(0.0233113,131)</title></rect><rect x="72" y="190.086" width="6" height="9.91366" stroke="black" stroke-width="1" fill="blue" opacity="1" tooltip="enable"><title>(0.0254306,155)</title></rect><rect x="78" y="188.423" width="6" height="11.5766" stroke="black" stroke-width="1" fill="blue" opacity="1" tooltip="enable"><title>(0.0275498,181)</title></rect><rect x="84" y="191.366" width="6" height="8.63447" stroke="black" stroke-width="1" fill="blue" opacity="1" tooltip="enable"><title>(0.029669,135)</title></rect><rect x="90" y="192.837" width="6" height="7.16342" stroke="black" stroke-width="1" fill="blue" opacity="1" tooltip="enable"><title>(0.0317882,112)</title></rect><rect x="96" y="192.453" width="6" height="7.54717" stroke="black" stroke-width="1" fill="blue" opacity="1" tooltip="enable"><title>(0.0339074,118)</title></rect><rect x="102" y="192.581" width="6" height="7.41925" stroke="black" stroke-width="1" fill="blue" opacity="1" tooltip="enable"><title>(0.0360266,116)</title></rect><rect x="108" y="193.732" width="6" height="6.26799" stroke="black" stroke-width="1" fill="blue" opacity="1" tooltip="enable"><title>(0.0381458,98)</title></rect><rect x="114" y="195.651" width="6" height="4.34922" stroke="black" stroke-width="1" fill="blue" opacity="1" tooltip="enable"><title>(0.040265,68)</title></rect><rect x="120" y="194.883" width="6" height="5.11673" stroke="black" stroke-width="1" fill="blue" opacity="1" tooltip="enable"><title>(0.0423843,80)</title></rect><rect x="126" y="195.651" width="6" height="4.34922" stroke="black" stroke-width="1" fill="blue" opacity="1" tooltip="enable"><title>(0.0445035,68)</title></rect><rect x="132" y="196.035" width="6" height="3.96546" stroke="black" stroke-width="1" fill="blue" opacity="1" tooltip="enable"><title>(0.0466227,62)</title></rect><rect x="138" y="196.994" width="6" height="3.00608" stroke="black" stroke-width="1" fill="blue" opacity="1" tooltip="enable"><title>(0.0487419,47)</title></rect><rect x="144" y="196.418" width="6" height="3.58171" stroke="black" stroke-width="1" fill="blue" opacity="1" tooltip="enable"><title>(0.0508611,56)</title></rect><rect x="150" y="196.546" width="6" height="3.45379" stroke="black" stroke-width="1" fill="blue" opacity="1" tooltip="enable"><title>(0.0529803,54)</title></rect><rect x="156" y="196.994" width="6" height="3.00608" stroke="black" stroke-width="1" fill="blue" opacity="1" tooltip="enable"><title>(0.0550995,47)</title></rect><rect x="162" y="197.058" width="6" height="2.94212" stroke="black" stroke-width="1" fill="blue" opacity="1" tooltip="enable"><title>(0.0572187,46)</title></rect><rect x="168" y="197.953" width="6" height="2.04669" stroke="black" stroke-width="1" fill="blue" opacity="1" tooltip="enable"><title>(0.059338,32)</title></rect><rect x="174" y="196.482" width="6" height="3.51775" stroke="black" stroke-width="1" fill="blue" opacity="1" tooltip="enable"><title>(0.0614572,55)</title></rect><rect x="180" y="196.098" width="6" height="3.9015" stroke="black" stroke-width="1" fill="blue" opacity="1" tooltip="enable"><title>(0.0635764,61)</title></rect><rect x="186" y="197.697" width="6" height="2.30253" stroke="black" stroke-width="1" fill="blue" opacity="1" tooltip="enable"><title>(0.0656956,36)</title></rect><rect x="192" y="198.017" width="6" height="1.98273" stroke="black" stroke-width="1" fill="blue" opacity="1" tooltip="enable"><title>(0.0678148,31)</title></rect><rect x="198" y="197.889" width="6" height="2.11065" stroke="black" stroke-width="1" fill="blue" opacity="1" tooltip="enable"><title>(0.069934,33)</title></rect><rect x="204" y="198.721" width="6" height="1.27918" stroke="black" stroke-width="1" fill="blue" opacity="1" tooltip="enable"><title>(0.0720532,20)</title></rect><rect x="210" y="199.488" width="6" height="0.511673" stroke="black" stroke-width="1" fill="blue" opacity="1" tooltip="enable"><title>(0.0741725,8)</title></rect><rect x="216" y="199.36" width="6" height="0.639591" stroke="black" stroke-width="1" fill="blue" opacity="1" tooltip="enable"><title>(0.0762917,10)</title></rect><rect x="222" y="199.36" width="6" height="0.639591" stroke="black" stroke-width="1" fill="blue" opacity="1" tooltip="enable"><title>(0.0784109,10)</title></rect><rect x="228" y="199.744" width="6" height="0.255836" stroke="black" stroke-width="1" fill="blue" opacity="1" tooltip="enable"><title>(0.0805301,4)</title></rect><rect x="234" y="200" width="6" height="0" stroke="black" stroke-width="1" fill="blue" opacity="1" tooltip="enable"><title>(0.0826493,0)</title></rect><rect x="240" y="200" width="6" height="0" stroke="black" stroke-width="1" fill="blue" opacity="1" tooltip="enable"><title>(0.0847685,0)</title></rect><rect x="246" y="200" width="6" height="0" stroke="black" stroke-width="1" fill="blue" opacity="1" tooltip="enable"><title>(0.0868877,0)</title></rect><rect x="252" y="200" width="6" height="0" stroke="black" stroke-width="1" fill="blue" opacity="1" tooltip="enable"><title>(0.0890069,0)</title></rect><rect x="258" y="200" width="6" height="0" stroke="black" stroke-width="1" fill="blue" opacity="1" tooltip="enable"><title>(0.0911262,0)</title></rect><rect x="264" y="200" width="6" height="0" stroke="black" stroke-width="1" fill="blue" opacity="1" tooltip="enable"><title>(0.0932454,0)</title></rect><rect x="270" y="200" width="6" height="0" stroke="black" stroke-width="1" fill="blue" opacity="1" tooltip="enable"><title>(0.0953646,0)</title></rect><rect x="276" y="200" width="6" height="0" stroke="black" stroke-width="1" fill="blue" opacity="1" tooltip="enable"><title>(0.0974838,0)</title></rect><rect x="282" y="200" width="6" height="0" stroke="black" stroke-width="1" fill="blue" opacity="1" tooltip="enable"><title>(0.099603,0)</title></rect><rect x="288" y="200" width="6" height="0" stroke="black" stroke-width="1" fill="blue" opacity="1" tooltip="enable"><title>(0.101722,0)</title></rect><rect x="294" y="200" width="6" height="0" stroke="black" stroke-width="1" fill="blue" opacity="1" tooltip="enable"><title>(0.103841,0)</title></rect><rect x="300" y="200" width="6" height="0" stroke="black" stroke-width="1" fill="blue" opacity="1" tooltip="enable"><title>(0.105961,0)</title></rect><rect x="306" y="200" width="6" height="0" stroke="black" stroke-width="1" fill="blue" opacity="1" tooltip="enable"><title>(0.10808,0)</title></rect><rect x="312" y="200" width="6" height="0" stroke="black" stroke-width="1" fill="blue" opacity="1" tooltip="enable"><title>(0.110199,0)</title></rect><rect x="318" y="200" width="6" height="0" stroke="black" stroke-width="1" fill="blue" opacity="1" tooltip="enable"><title>(0.112318,0)</title></rect><rect x="324" y="200" width="6" height="0" stroke="black" stroke-width="1" fill="blue" opacity="1" tooltip="enable"><title>(0.114437,0)</title></rect><rect x="330" y="200" width="6" height="0" stroke="black" stroke-width="1" fill="blue" opacity="1" tooltip="enable"><title>(0.116557,0)</title></rect><rect x="336" y="200" width="6" height="0" stroke="black" stroke-width="1" fill="blue" opacity="1" tooltip="enable"><title>(0.118676,0)</title></rect><rect x="342" y="200" width="6" height="0" stroke="black" stroke-width="1" fill="blue" opacity="1" tooltip="enable"><title>(0.120795,0)</title></rect><rect x="348" y="200" width="6" height="0" stroke="black" stroke-width="1" fill="blue" opacity="1" tooltip="enable"><title>(0.122914,0)</title></rect><rect x="354" y="200" width="6" height="0" stroke="black" stroke-width="1" fill="blue" opacity="1" tooltip="enable"><title>(0.125034,0)</title></rect><rect x="360" y="200" width="6" height="0" stroke="black" stroke-width="1" fill="blue" opacity="1" tooltip="enable"><title>(0.127153,0)</title></rect><rect x="366" y="200" width="6" height="0" stroke="black" stroke-width="1" fill="blue" opacity="1" tooltip="enable"><title>(0.129272,0)</title></rect><rect x="372" y="200" width="6" height="0" stroke="black" stroke-width="1" fill="blue" opacity="1" tooltip="enable"><title>(0.131391,0)</title></rect><rect x="378" y="200" width="6" height="0" stroke="black" stroke-width="1" fill="blue" opacity="1" tooltip="enable"><title>(0.13351,0)</title></rect><rect x="384" y="200" width="6" height="0" stroke="black" stroke-width="1" fill="blue" opacity="1" tooltip="enable"><title>(0.13563,0)</title></rect><rect x="390" y="200" width="6" height="0" stroke="black" stroke-width="1" fill="blue" opacity="1" tooltip="enable"><title>(0.137749,0)</title></rect><rect x="396" y="200" width="6" height="0" stroke="black" stroke-width="1" fill="blue" opacity="1" tooltip="enable"><title>(0.139868,0)</title></rect><rect x="402" y="200" width="6" height="0" stroke="black" stroke-width="1" fill="blue" opacity="1" tooltip="enable"><title>(0.141987,0)</title></rect><rect x="408" y="200" width="6" height="0" stroke="black" stroke-width="1" fill="blue" opacity="1" tooltip="enable"><title>(0.144106,0)</title></rect><rect x="414" y="200" width="6" height="0" stroke="black" stroke-width="1" fill="blue" opacity="1" tooltip="enable"><title>(0.146226,0)</title></rect><rect x="420" y="200" width="6" height="0" stroke="black" stroke-width="1" fill="blue" opacity="1" tooltip="enable"><title>(0.148345,0)</title></rect><rect x="426" y="200" width="6" height="0" stroke="black" stroke-width="1" fill="blue" opacity="1" tooltip="enable"><title>(0.150464,0)</title></rect><rect x="432" y="200" width="6" height="0" stroke="black" stroke-width="1" fill="blue" opacity="1" tooltip="enable"><title>(0.152583,0)</title></rect><rect x="438" y="200" width="6" height="0" stroke="black" stroke-width="1" fill="blue" opacity="1" tooltip="enable"><title>(0.154703,0)</title></rect><rect x="444" y="200" width="6" height="0" stroke="black" stroke-width="1" fill="blue" opacity="1" tooltip="enable"><title>(0.156822,0)</title></rect><rect x="450" y="200" width="6" height="0" stroke="black" stroke-width="1" fill="blue" opacity="1" tooltip="enable"><title>(0.158941,0)</title></rect><rect x="456" y="200" width="6" height="0" stroke="black" stroke-width="1" fill="blue" opacity="1" tooltip="enable"><title>(0.16106,0)</title></rect><rect x="462" y="200" width="6" height="0" stroke="black" stroke-width="1" fill="blue" opacity="1" tooltip="enable"><title>(0.163179,0)</title></rect><rect x="468" y="200" width="6" height="0" stroke="black" stroke-width="1" fill="blue" opacity="1" tooltip="enable"><title>(0.165299,0)</title></rect><rect x="474" y="200" width="6" height="0" stroke="black" stroke-width="1" fill="blue" opacity="1" tooltip="enable"><title>(0.167418,0)</title></rect><rect x="480" y="200" width="6" height="0" stroke="black" stroke-width="1" fill="blue" opacity="1" tooltip="enable"><title>(0.169537,0)</title></rect><rect x="486" y="200" width="6" height="0" stroke="black" stroke-width="1" fill="blue" opacity="1" tooltip="enable"><title>(0.171656,0)</title></rect><rect x="492" y="200" width="6" height="0" stroke="black" stroke-width="1" fill="blue" opacity="1" tooltip="enable"><title>(0.173775,0)</title></rect><rect x="498" y="200" width="6" height="0" stroke="black" stroke-width="1" fill="blue" opacity="1" tooltip="enable"><title>(0.175895,0)</title></rect><rect x="504" y="200" width="6" height="0" stroke="black" stroke-width="1" fill="blue" opacity="1" tooltip="enable"><title>(0.178014,0)</title></rect><rect x="510" y="200" width="6" height="0" stroke="black" stroke-width="1" fill="blue" opacity="1" tooltip="enable"><title>(0.180133,0)</title></rect><rect x="516" y="200" width="6" height="0" stroke="black" stroke-width="1" fill="blue" opacity="1" tooltip="enable"><title>(0.182252,0)</title></rect><rect x="522" y="200" width="6" height="0" stroke="black" stroke-width="1" fill="blue" opacity="1" tooltip="enable"><title>(0.184372,0)</title></rect><rect x="528" y="200" width="6" height="0" stroke="black" stroke-width="1" fill="blue" opacity="1" tooltip="enable"><title>(0.186491,0)</title></rect><rect x="534" y="200" width="6" height="0" stroke="black" stroke-width="1" fill="blue" opacity="1" tooltip="enable"><title>(0.18861,0)</title></rect><rect x="540" y="200" width="6" height="0" stroke="black" stroke-width="1" fill="blue" opacity="1" tooltip="enable"><title>(0.190729,0)</title></rect><rect x="546" y="200" width="6" height="0" stroke="black" stroke-width="1" fill="blue" opacity="1" tooltip="enable"><title>(0.192848,0)</title></rect><rect x="552" y="200" width="6" height="0" stroke="black" stroke-width="1" fill="blue" opacity="1" tooltip="enable"><title>(0.194968,0)</title></rect><rect x="558" y="200" width="6" height="0" stroke="black" stroke-width="1" fill="blue" opacity="1" tooltip="enable"><title>(0.197087,0)</title></rect><rect x="564" y="200" width="6" height="0" stroke="black" stroke-width="1" fill="blue" opacity="1" tooltip="enable"><title>(0.199206,0)</title></rect><rect x="570" y="200" width="6" height="0" stroke="black" stroke-width="1" fill="blue" opacity="1" tooltip="enable"><title>(0.201325,0)</title></rect><rect x="576" y="200" width="6" height="0" stroke="black" stroke-width="1" fill="blue" opacity="1" tooltip="enable"><title>(0.203444,0)</title></rect><rect x="582" y="200" width="6" height="0" stroke="black" stroke-width="1" fill="blue" opacity="1" tooltip="enable"><title>(0.205564,0)</title></rect><rect x="588" y="200" width="6" height="0" stroke="black" stroke-width="1" fill="blue" opacity="1" tooltip="enable"><title>(0.207683,0)</title></rect><rect x="594" y="199.936" width="6" height="0.0639591" stroke="black" stroke-width="1" fill="blue" opacity="1" tooltip="enable"><title>(0.209802,1)</title></rect><text x="30" y="240" font-size="20" fill="black">0</text>
<text x="600" y="240" font-size="20" fill="black">0.211921</text>
<polyline points="0,220,600,220" stroke="black" stroke-width="1" fill="none" opacity="1"/>
<text x="720" y="20" font-size="20" fill="black">3127</text>
<text x="720" y="200" font-size="20" fill="black">0</text>
<polyline points="660,0,660,200" stroke="black" stroke-width="1" fill="none" opacity="1"/>
</svg>