<?xml version="1.0" standalone="yes"?>
<!-- SVG graphic -->
<svg xmlns='http://www.w3.org/2000/svg' xmlns:xlink='http://www.w3.org/1999/xlink'
 version="1.1">
<rect x="0" y="0" width="6" height="200" stroke="black" stroke-width="1" fill="blue" opacity="1" tooltip="enable"><title>(0,1363)</title></rect><rect x="6" y="13.9398" width="6" height="186.06" stroke="black" stroke-width="1" fill="blue" opacity="1" tooltip="enable"><title>(0.00126565,1268)</title></rect><rect x="12" y="71.1665" width="6" height="128.833" stroke="black" stroke-width="1" fill="blue" opacity="1" tooltip="enable"><title>(0.0025313,878)</title></rect><rect x="18" y="119.296" width="6" height="80.7043" stroke="black" stroke-width="1" fill="blue" opacity="1" tooltip="enable"><title>(0.00379695,550)</title></rect><rect x="24" y="152.751" width="6" height="47.2487" stroke="black" stroke-width="1" fill="blue" opacity="1" tooltip="enable"><title>(0.0050626,322)</title></rect><rect x="30" y="159.648" width="6" height="40.3522" stroke="black" stroke-width="1" fill="blue" opacity="1" tooltip="enable"><title>(0.00632825,275)</title></rect><rect x="36" y="164.05" width="6" height="35.9501" stroke="black" stroke-width="1" fill="blue" opacity="1" tooltip="enable"><title>(0.0075939,245)</title></rect><rect x="42" y="174.615" width="6" height="25.3852" stroke="black" stroke-width="1" fill="blue" opacity="1" tooltip="enable"><title>(0.00885955,173)</title></rect><rect x="48" y="177.99" width="6" height="22.0103" stroke="black" stroke-width="1" fill="blue" opacity="1" tooltip="enable"><title>(0.0101252,150)</title></rect><rect x="54" y="179.751" width="6" height="20.2495" stroke="black" stroke-width="1" fill="blue" opacity="1" tooltip="enable"><title>(0.0113908,138)</title></rect><rect x="60" y="181.805" width="6" height="18.1952" stroke="black" stroke-width="1" fill="blue" opacity="1" tooltip="enable"><title>(0.0126565,124)</title></rect><rect x="66" y="176.669" width="6" height="23.3309" stroke="black" stroke-width="1" fill="blue" opacity="1" tooltip="enable"><title>(0.0139221,159)</title></rect><rect x="72" y="176.669" width="6" height="23.3309" stroke="black" stroke-width="1" fill="blue" opacity="1" tooltip="enable"><title>(0.0151878,159)</title></rect><rect x="78" y="180.631" width="6" height="19.369" stroke="black" stroke-width="1" fill="blue" opacity="1" tooltip="enable"><title>(0.0164534,132)</title></rect><rect x="84" y="182.685" width="6" height="17.3147" stroke="black" stroke-width="1" fill="blue" opacity="1" tooltip="enable"><title>(0.0177191,118)</title></rect><rect x="90" y="181.218" width="6" height="18.7821" stroke="black" stroke-width="1" fill="blue" opacity="1" tooltip="enable"><title>(0.0189847,128)</title></rect><rect x="96" y="185.326" width="6" height="14.6735" stroke="black" stroke-width="1" fill="blue" opacity="1" tooltip="enable"><title>(0.0202504,100)</title></rect><rect x="102" y="187.968" width="6" height="12.0323" stroke="black" stroke-width="1" fill="blue" opacity="1" tooltip="enable"><title>(0.021516,82)</title></rect><rect x="108" y="185.767" width="6" height="14.2333" stroke="black" stroke-width="1" fill="blue" opacity="1" tooltip="enable"><title>(0.0227817,97)</title></rect><rect x="114" y="185.767" width="6" height="14.2333" stroke="black" stroke-width="1" fill="blue" opacity="1" tooltip="enable"><title>(0.0240473,97)</title></rect><rect x="120" y="183.566" width="6" height="16.4343" stroke="black" stroke-width="1" fill="blue" opacity="1" tooltip="enable"><title>(0.025313,112)</title></rect><rect x="126" y="187.821" width="6" height="12.179" stroke="black" stroke-width="1" fill="blue" opacity="1" tooltip="enable"><title>(0.0265786,83)</title></rect><rect x="132" y="187.528" width="6" height="12.4725" stroke="black" stroke-width="1" fill="blue" opacity="1" tooltip="enable"><title>(0.0278443,85)</title></rect><rect x="138" y="186.647" width="6" height="13.3529" stroke="black" stroke-width="1" fill="blue" opacity="1" tooltip="enable"><title>(0.0291099,91)</title></rect><rect x="144" y="188.261" width="6" height="11.7388" stroke="black" stroke-width="1" fill="blue" opacity="1" tooltip="enable"><title>(0.0303756,80)</title></rect><rect x="150" y="193.397" width="6" height="6.60308" stroke="black" stroke-width="1" fill="blue" opacity="1" tooltip="enable"><title>(0.0316412,45)</title></rect><rect x="156" y="189.288" width="6" height="10.7117" stroke="black" stroke-width="1" fill="blue" opacity="1" tooltip="enable"><title>(0.0329069,73)</title></rect><rect x="162" y="187.528" width="6" height="12.4725" stroke="black" stroke-width="1" fill="blue" opacity="1" tooltip="enable"><title>(0.0341725,85)</title></rect><rect x="168" y="193.837" width="6" height="6.16288" stroke="black" stroke-width="1" fill="blue" opacity="1" tooltip="enable"><title>(0.0354382,42)</title></rect><rect x="174" y="193.837" width="6" height="6.16288" stroke="black" stroke-width="1" fill="blue" opacity="1" tooltip="enable"><title>(0.0367038,42)</title></rect><rect x="180" y="193.25" width="6" height="6.74982" stroke="black" stroke-width="1" fill="blue" opacity="1" tooltip="enable"><title>(0.0379695,46)</title></rect><rect x="186" y="193.837" width="6" height="6.16288" stroke="black" stroke-width="1" fill="blue" opacity="1" tooltip="enable"><title>(0.0392351,42)</title></rect><rect x="192" y="196.478" width="6" height="3.52164" stroke="black" stroke-width="1" fill="blue" opacity="1" tooltip="enable"><title>(0.0405008,24)</title></rect><rect x="198" y="192.663" width="6" height="7.33676" stroke="black" stroke-width="1" fill="blue" opacity="1" tooltip="enable"><title>(0.0417664,50)</title></rect><rect x="204" y="197.065" width="6" height="2.9347" stroke="black" stroke-width="1" fill="blue" opacity="1" tooltip="enable"><title>(0.0430321,20)</title></rect><rect x="210" y="196.772" width="6" height="3.22817" stroke="black" stroke-width="1" fill="blue" opacity="1" tooltip="enable"><title>(0.0442977,22)</title></rect><rect x="216" y="194.718" width="6" height="5.28247" stroke="black" stroke-width="1" fill="blue" opacity="1" tooltip="enable"><title>(0.0455634,36)</title></rect><rect x="222" y="196.919" width="6" height="3.08144" stroke="black" stroke-width="1" fill="blue" opacity="1" tooltip="enable"><title>(0.046829,21)</title></rect><rect x="228" y="197.212" width="6" height="2.78797" stroke="black" stroke-width="1" fill="blue" opacity="1" tooltip="enable"><title>(0.0480947,19)</title></rect><rect x="234" y="195.891" width="6" height="4.10858" stroke="black" stroke-width="1" fill="blue" opacity="1" tooltip="enable"><title>(0.0493603,28)</title></rect><rect x="240" y="197.359" width="6" height="2.64123" stroke="black" stroke-width="1" fill="blue" opacity="1" tooltip="enable"><title>(0.050626,18)</title></rect><rect x="246" y="199.12" width="6" height="0.880411" stroke="black" stroke-width="1" fill="blue" opacity="1" tooltip="enable"><title>(0.0518916,6)</title></rect><rect x="252" y="197.359" width="6" height="2.64123" stroke="black" stroke-width="1" fill="blue" opacity="1" tooltip="enable"><title>(0.0531573,18)</title></rect><rect x="258" y="196.478" width="6" height="3.52164" stroke="black" stroke-width="1" fill="blue" opacity="1" tooltip="enable"><title>(0.0544229,24)</title></rect><rect x="264" y="198.533" width="6" height="1.46735" stroke="black" stroke-width="1" fill="blue" opacity="1" tooltip="enable"><title>(0.0556886,10)</title></rect><rect x="270" y="197.652" width="6" height="2.34776" stroke="black" stroke-width="1" fill="blue" opacity="1" tooltip="enable"><title>(0.0569542,16)</title></rect><rect x="276" y="197.212" width="6" height="2.78797" stroke="black" stroke-width="1" fill="blue" opacity="1" tooltip="enable"><title>(0.0582199,19)</title></rect><rect x="282" y="196.478" width="6" height="3.52164" stroke="black" stroke-width="1" fill="blue" opacity="1" tooltip="enable"><title>(0.0594855,24)</title></rect><rect x="288" y="197.799" width="6" height="2.20103" stroke="black" stroke-width="1" fill="blue" opacity="1" tooltip="enable"><title>(0.0607512,15)</title></rect><rect x="294" y="198.826" width="6" height="1.17388" stroke="black" stroke-width="1" fill="blue" opacity="1" tooltip="enable"><title>(0.0620168,8)</title></rect><rect x="300" y="197.652" width="6" height="2.34776" stroke="black" stroke-width="1" fill="blue" opacity="1" tooltip="enable"><title>(0.0632825,16)</title></rect><rect x="306" y="198.092" width="6" height="1.90756" stroke="black" stroke-width="1" fill="blue" opacity="1" tooltip="enable"><title>(0.0645481,13)</title></rect><rect x="312" y="197.799" width="6" height="2.20103" stroke="black" stroke-width="1" fill="blue" opacity="1" tooltip="enable"><title>(0.0658138,15)</title></rect><rect x="318" y="197.359" width="6" height="2.64123" stroke="black" stroke-width="1" fill="blue" opacity="1" tooltip="enable"><title>(0.0670794,18)</title></rect><rect x="324" y="197.065" width="6" height="2.9347" stroke="black" stroke-width="1" fill="blue" opacity="1" tooltip="enable"><title>(0.0683451,20)</title></rect><rect x="330" y="197.652" width="6" height="2.34776" stroke="black" stroke-width="1" fill="blue" opacity="1" tooltip="enable"><title>(0.0696107,16)</title></rect><rect x="336" y="197.652" width="6" height="2.34776" stroke="black" stroke-width="1" fill="blue" opacity="1" tooltip="enable"><title>(0.0708764,16)</title></rect><rect x="342" y="197.359" width="6" height="2.64123" stroke="black" stroke-width="1" fill="blue" opacity="1" tooltip="enable"><title>(0.072142,18)</title></rect><rect x="348" y="199.12" width="6" height="0.880411" stroke="black" stroke-width="1" fill="blue" opacity="1" tooltip="enable"><title>(0.0734077,6)</title></rect><rect x="354" y="198.826" width="6" height="1.17388" stroke="black" stroke-width="1" fill="blue" opacity="1" tooltip="enable"><title>(0.0746733,8)</title></rect><rect x="360" y="197.946" width="6" height="2.05429" stroke="black" stroke-width="1" fill="blue" opacity="1" tooltip="enable"><title>(0.075939,14)</title></rect><rect x="366" y="198.239" width="6" height="1.76082" stroke="black" stroke-width="1" fill="blue" opacity="1" tooltip="enable"><title>(0.0772046,12)</title></rect><rect x="372" y="198.826" width="6" height="1.17388" stroke="black" stroke-width="1" fill="blue" opacity="1" tooltip="enable"><title>(0.0784703,8)</title></rect><rect x="378" y="199.413" width="6" height="0.586941" stroke="black" stroke-width="1" fill="blue" opacity="1" tooltip="enable"><title>(0.0797359,4)</title></rect><rect x="384" y="198.973" width="6" height="1.02715" stroke="black" stroke-width="1" fill="blue" opacity="1" tooltip="enable"><title>(0.0810016,7)</title></rect><rect x="390" y="199.853" width="6" height="0.146735" stroke="black" stroke-width="1" fill="blue" opacity="1" tooltip="enable"><title>(0.0822672,1)</title></rect><rect x="396" y="199.413" width="6" height="0.586941" stroke="black" stroke-width="1" fill="blue" opacity="1" tooltip="enable"><title>(0.0835329,4)</title></rect><rect x="402" y="199.413" width="6" height="0.586941" stroke="black" stroke-width="1" fill="blue" opacity="1" tooltip="enable"><title>(0.0847985,4)</title></rect><rect x="408" y="199.12" width="6" height="0.880411" stroke="black" stroke-width="1" fill="blue" opacity="1" tooltip="enable"><title>(0.0860642,6)</title></rect><rect x="414" y="200" width="6" height="0" stroke="black" stroke-width="1" fill="blue" opacity="1" tooltip="enable"><title>(0.0873298,0)</title></rect><rect x="420" y="199.413" width="6" height="0.586941" stroke="black" stroke-width="1" fill="blue" opacity="1" tooltip="enable"><title>(0.0885955,4)</title></rect><rect x="426" y="200" width="6" height="0" stroke="black" stroke-width="1" fill="blue" opacity="1" tooltip="enable"><title>(0.0898611,0)</title></rect><rect x="432" y="199.413" width="6" height="0.586941" stroke="black" stroke-width="1" fill="blue" opacity="1" tooltip="enable"><title>(0.0911268,4)</title></rect><rect x="438" y="199.413" width="6" height="0.586941" stroke="black" stroke-width="1" fill="blue" opacity="1" tooltip="enable"><title>(0.0923924,4)</title></rect><rect x="444" y="199.413" width="6" height="0.586941" stroke="black" stroke-width="1" fill="blue" opacity="1" tooltip="enable"><title>(0.0936581,4)</title></rect><rect x="450" y="200" width="6" height="0" stroke="black" stroke-width="1" fill="blue" opacity="1" tooltip="enable"><title>(0.0949237,0)</title></rect><rect x="456" y="200" width="6" height="0" stroke="black" stroke-width="1" fill="blue" opacity="1" tooltip="enable"><title>(0.0961894,0)</title></rect><rect x="462" y="200" width="6" height="0" stroke="black" stroke-width="1" fill="blue" opacity="1" tooltip="enable"><title>(0.097455,0)</title></rect><rect x="468" y="199.707" width="6" height="0.29347" stroke="black" stroke-width="1" fill="blue" opacity="1" tooltip="enable"><title>(0.0987207,2)</title></rect><rect x="474" y="199.707" width="6" height="0.29347" stroke="black" stroke-width="1" fill="blue" opacity="1" tooltip="enable"><title>(0.0999863,2)</title></rect><rect x="480" y="200" width="6" height="0" stroke="black" stroke-width="1" fill="blue" opacity="1" tooltip="enable"><title>(0.101252,0)</title></rect><rect x="486" y="199.707" width="6" height="0.29347" stroke="black" stroke-width="1" fill="blue" opacity="1" tooltip="enable"><title>(0.102518,2)</title></rect><rect x="492" y="200" width="6" height="0" stroke="black" stroke-width="1" fill="blue" opacity="1" tooltip="enable"><title>(0.103783,0)</title></rect><rect x="498" y="200" width="6" height="0" stroke="black" stroke-width="1" fill="blue" opacity="1" tooltip="enable"><title>(0.105049,0)</title></rect><rect x="504" y="199.707" width="6" height="0.29347" stroke="black" stroke-width="1" fill="blue" opacity="1" tooltip="enable"><title>(0.106315,2)</title></rect><rect x="510" y="200" width="6" height="0" stroke="black" stroke-width="1" fill="blue" opacity="1" tooltip="enable"><title>(0.10758,0)</title></rect><rect x="516" y="200" width="6" height="0" stroke="black" stroke-width="1" fill="blue" opacity="1" tooltip="enable"><title>(0.108846,0)</title></rect><rect x="522" y="200" width="6" height="0" stroke="black" stroke-width="1" fill="blue" opacity="1" tooltip="enable"><title>(0.110112,0)</title></rect><rect x="528" y="200" width="6" height="0" stroke="black" stroke-width="1" fill="blue" opacity="1" tooltip="enable"><title>(0.111377,0)</title></rect><rect x="534" y="200" width="6" height="0" stroke="black" stroke-width="1" fill="blue" opacity="1" tooltip="enable"><title>(0.112643,0)</title></rect><rect x="540" y="200" width="6" height="0" stroke="black" stroke-width="1" fill="blue" opacity="1" tooltip="enable"><title>(0.113908,0)</title></rect><rect x="546" y="200" width="6" height="0" stroke="black" stroke-width="1" fill="blue" opacity="1" tooltip="enable"><title>(0.115174,0)</title></rect><rect x="552" y="200" width="6" height="0" stroke="black" stroke-width="1" fill="blue" opacity="1" tooltip="enable"><title>(0.11644,0)</title></rect><rect x="558" y="200" width="6" height="0" stroke="black" stroke-width="1" fill="blue" opacity="1" tooltip="enable"><title>(0.117705,0)</title></rect><rect x="564" y="199.707" width="6" height="0.29347" stroke="black" stroke-width="1" fill="blue" opacity="1" tooltip="enable"><title>(0.118971,2)</title></rect><rect x="570" y="200" width="6" height="0" stroke="black" stroke-width="1" fill="blue" opacity="1" tooltip="enable"><title>(0.120237,0)</title></rect><rect x="576" y="200" width="6" height="0" stroke="black" stroke-width="1" fill="blue" opacity="1" tooltip="enable"><title>(0.121502,0)</title></rect><rect x="582" y="199.413" width="6" height="0.586941" stroke="black" stroke-width="1" fill="blue" opacity="1" tooltip="enable"><title>(0.122768,4)</title></rect><rect x="588" y="200" width="6" height="0" stroke="black" stroke-width="1" fill="blue" opacity="1" tooltip="enable"><title>(0.124034,0)</title></rect><rect x="594" y="199.853" width="6" height="0.146735" stroke="black" stroke-width="1" fill="blue" opacity="1" tooltip="enable"><title>(0.125299,1)</title></rect><text x="30" y="240" font-size="20" fill="black">0</text>
<text x="600" y="240" font-size="20" fill="black">0.126565</text>
<polyline points="0,220,600,220" stroke="black" stroke-width="1" fill="none" opacity="1"/>
<text x="720" y="20" font-size="20" fill="black">1363</text>
<text x="720" y="200" font-size="20" fill="black">0</text>
<polyline points="660,0,660,200" stroke="black" stroke-width="1" fill="none" opacity="1"/>
</svg>