<?xml version="1.0" standalone="yes"?>
<!-- SVG graphic -->
<svg xmlns='http://www.w3.org/2000/svg' xmlns:xlink='http://www.w3.org/1999/xlink'
 version="1.1">
<rect x="0" y="0" width="6" height="200" stroke="black" stroke-width="1" fill="blue" opacity="1" tooltip="enable"><title>(0,2525)</title></rect><rect x="6" y="91.0099" width="6" height="108.99" stroke="black" stroke-width="1" fill="blue" opacity="1" tooltip="enable"><title>(0.00101134,1376)</title></rect><rect x="12" y="162.693" width="6" height="37.3069" stroke="black" stroke-width="1" fill="blue" opacity="1" tooltip="enable"><title>(0.00202267,471)</title></rect><rect x="18" y="181.624" width="6" height="18.3762" stroke="black" stroke-width="1" fill="blue" opacity="1" tooltip="enable"><title>(0.00303401,232)</title></rect><rect x="24" y="187.485" width="6" height="12.5149" stroke="black" stroke-width="1" fill="blue" opacity="1" tooltip="enable"><title>(0.00404534,158)</title></rect><rect x="30" y="187.802" width="6" height="12.198" stroke="black" stroke-width="1" fill="blue" opacity="1" tooltip="enable"><title>(0.00505668,154)</title></rect><rect x="36" y="190.02" width="6" height="9.9802" stroke="black" stroke-width="1" fill="blue" opacity="1" tooltip="enable"><title>(0.00606802,126)</title></rect><rect x="42" y="186.297" width="6" height="13.703" stroke="black" stroke-width="1" fill="blue" opacity="1" tooltip="enable"><title>(0.00707935,173)</title></rect><rect x="48" y="185.188" width="6" height="14.8119" stroke="black" stroke-width="1" fill="blue" opacity="1" tooltip="enable"><title>(0.00809069,187)</title></rect><rect x="54" y="188.752" width="6" height="11.2475" stroke="black" stroke-width="1" fill="blue" opacity="1" tooltip="enable"><title>(0.00910203,142)</title></rect><rect x="60" y="189.069" width="6" height="10.9307" stroke="black" stroke-width="1" fill="blue" opacity="1" tooltip="enable"><title>(0.0101134,138)</title></rect><rect x="66" y="189.545" width="6" height="10.4554" stroke="black" stroke-width="1" fill="blue" opacity="1" tooltip="enable"><title>(0.0111247,132)</title></rect><rect x="72" y="189.149" width="6" height="10.8515" stroke="black" stroke-width="1" fill="blue" opacity="1" tooltip="enable"><title>(0.012136,137)</title></rect><rect x="78" y="188.832" width="6" height="11.1683" stroke="black" stroke-width="1" fill="blue" opacity="1" tooltip="enable"><title>(0.0131474,141)</title></rect><rect x="84" y="189.069" width="6" height="10.9307" stroke="black" stroke-width="1" fill="blue" opacity="1" tooltip="enable"><title>(0.0141587,138)</title></rect><rect x="90" y="189.941" width="6" height="10.0594" stroke="black" stroke-width="1" fill="blue" opacity="1" tooltip="enable"><title>(0.01517,127)</title></rect><rect x="96" y="191.525" width="6" height="8.47525" stroke="black" stroke-width="1" fill="blue" opacity="1" tooltip="enable"><title>(0.0161814,107)</title></rect><rect x="102" y="191.762" width="6" height="8.23762" stroke="black" stroke-width="1" fill="blue" opacity="1" tooltip="enable"><title>(0.0171927,104)</title></rect><rect x="108" y="191.208" width="6" height="8.79208" stroke="black" stroke-width="1" fill="blue" opacity="1" tooltip="enable"><title>(0.0182041,111)</title></rect><rect x="114" y="193.109" width="6" height="6.89109" stroke="black" stroke-width="1" fill="blue" opacity="1" tooltip="enable"><title>(0.0192154,87)</title></rect><rect x="120" y="193.98" width="6" height="6.0198" stroke="black" stroke-width="1" fill="blue" opacity="1" tooltip="enable"><title>(0.0202267,76)</title></rect><rect x="126" y="192.871" width="6" height="7.12871" stroke="black" stroke-width="1" fill="blue" opacity="1" tooltip="enable"><title>(0.0212381,90)</title></rect><rect x="132" y="193.03" width="6" height="6.9703" stroke="black" stroke-width="1" fill="blue" opacity="1" tooltip="enable"><title>(0.0222494,88)</title></rect><rect x="138" y="192.951" width="6" height="7.0495" stroke="black" stroke-width="1" fill="blue" opacity="1" tooltip="enable"><title>(0.0232607,89)</title></rect><rect x="144" y="195.564" width="6" height="4.43564" stroke="black" stroke-width="1" fill="blue" opacity="1" tooltip="enable"><title>(0.0242721,56)</title></rect><rect x="150" y="194.851" width="6" height="5.14851" stroke="black" stroke-width="1" fill="blue" opacity="1" tooltip="enable"><title>(0.0252834,65)</title></rect><rect x="156" y="195.248" width="6" height="4.75248" stroke="black" stroke-width="1" fill="blue" opacity="1" tooltip="enable"><title>(0.0262947,60)</title></rect><rect x="162" y="196.673" width="6" height="3.32673" stroke="black" stroke-width="1" fill="blue" opacity="1" tooltip="enable"><title>(0.0273061,42)</title></rect><rect x="168" y="195.089" width="6" height="4.91089" stroke="black" stroke-width="1" fill="blue" opacity="1" tooltip="enable"><title>(0.0283174,62)</title></rect><rect x="174" y="197.465" width="6" height="2.53465" stroke="black" stroke-width="1" fill="blue" opacity="1" tooltip="enable"><title>(0.0293287,32)</title></rect><rect x="180" y="198.099" width="6" height="1.90099" stroke="black" stroke-width="1" fill="blue" opacity="1" tooltip="enable"><title>(0.0303401,24)</title></rect><rect x="186" y="197.465" width="6" height="2.53465" stroke="black" stroke-width="1" fill="blue" opacity="1" tooltip="enable"><title>(0.0313514,32)</title></rect><rect x="192" y="197.149" width="6" height="2.85149" stroke="black" stroke-width="1" fill="blue" opacity="1" tooltip="enable"><title>(0.0323628,36)</title></rect><rect x="198" y="198.099" width="6" height="1.90099" stroke="black" stroke-width="1" fill="blue" opacity="1" tooltip="enable"><title>(0.0333741,24)</title></rect><rect x="204" y="197.941" width="6" height="2.05941" stroke="black" stroke-width="1" fill="blue" opacity="1" tooltip="enable"><title>(0.0343854,26)</title></rect><rect x="210" y="197.624" width="6" height="2.37624" stroke="black" stroke-width="1" fill="blue" opacity="1" tooltip="enable"><title>(0.0353968,30)</title></rect><rect x="216" y="198.257" width="6" height="1.74257" stroke="black" stroke-width="1" fill="blue" opacity="1" tooltip="enable"><title>(0.0364081,22)</title></rect><rect x="222" y="197.941" width="6" height="2.05941" stroke="black" stroke-width="1" fill="blue" opacity="1" tooltip="enable"><title>(0.0374194,26)</title></rect><rect x="228" y="198.257" width="6" height="1.74257" stroke="black" stroke-width="1" fill="blue" opacity="1" tooltip="enable"><title>(0.0384308,22)</title></rect><rect x="234" y="198.099" width="6" height="1.90099" stroke="black" stroke-width="1" fill="blue" opacity="1" tooltip="enable"><title>(0.0394421,24)</title></rect><rect x="240" y="196.99" width="6" height="3.0099" stroke="black" stroke-width="1" fill="blue" opacity="1" tooltip="enable"><title>(0.0404534,38)</title></rect><rect x="246" y="197.465" width="6" height="2.53465" stroke="black" stroke-width="1" fill="blue" opacity="1" tooltip="enable"><title>(0.0414648,32)</title></rect><rect x="252" y="198.099" width="6" height="1.90099" stroke="black" stroke-width="1" fill="blue" opacity="1" tooltip="enable"><title>(0.0424761,24)</title></rect><rect x="258" y="199.366" width="6" height="0.633663" stroke="black" stroke-width="1" fill="blue" opacity="1" tooltip="enable"><title>(0.0434875,8)</title></rect><rect x="264" y="198.574" width="6" height="1.42574" stroke="black" stroke-width="1" fill="blue" opacity="1" tooltip="enable"><title>(0.0444988,18)</title></rect><rect x="270" y="198.574" width="6" height="1.42574" stroke="black" stroke-width="1" fill="blue" opacity="1" tooltip="enable"><title>(0.0455101,18)</title></rect><rect x="276" y="199.366" width="6" height="0.633663" stroke="black" stroke-width="1" fill="blue" opacity="1" tooltip="enable"><title>(0.0465215,8)</title></rect><rect x="282" y="199.683" width="6" height="0.316832" stroke="black" stroke-width="1" fill="blue" opacity="1" tooltip="enable"><title>(0.0475328,4)</title></rect><rect x="288" y="199.366" width="6" height="0.633663" stroke="black" stroke-width="1" fill="blue" opacity="1" tooltip="enable"><title>(0.0485441,8)</title></rect><rect x="294" y="199.366" width="6" height="0.633663" stroke="black" stroke-width="1" fill="blue" opacity="1" tooltip="enable"><title>(0.0495555,8)</title></rect><rect x="300" y="199.525" width="6" height="0.475248" stroke="black" stroke-width="1" fill="blue" opacity="1" tooltip="enable"><title>(0.0505668,6)</title></rect><rect x="306" y="199.604" width="6" height="0.39604" stroke="black" stroke-width="1" fill="blue" opacity="1" tooltip="enable"><title>(0.0515781,5)</title></rect><rect x="312" y="199.446" width="6" height="0.554455" stroke="black" stroke-width="1" fill="blue" opacity="1" tooltip="enable"><title>(0.0525895,7)</title></rect><rect x="318" y="199.049" width="6" height="0.950495" stroke="black" stroke-width="1" fill="blue" opacity="1" tooltip="enable"><title>(0.0536008,12)</title></rect><rect x="324" y="199.446" width="6" height="0.554455" stroke="black" stroke-width="1" fill="blue" opacity="1" tooltip="enable"><title>(0.0546122,7)</title></rect><rect x="330" y="199.129" width="6" height="0.871287" stroke="black" stroke-width="1" fill="blue" opacity="1" tooltip="enable"><title>(0.0556235,11)</title></rect><rect x="336" y="198.891" width="6" height="1.10891" stroke="black" stroke-width="1" fill="blue" opacity="1" tooltip="enable"><title>(0.0566348,14)</title></rect><rect x="342" y="199.762" width="6" height="0.237624" stroke="black" stroke-width="1" fill="blue" opacity="1" tooltip="enable"><title>(0.0576462,3)</title></rect><rect x="348" y="199.604" width="6" height="0.39604" stroke="black" stroke-width="1" fill="blue" opacity="1" tooltip="enable"><title>(0.0586575,5)</title></rect><rect x="354" y="199.683" width="6" height="0.316832" stroke="black" stroke-width="1" fill="blue" opacity="1" tooltip="enable"><title>(0.0596688,4)</title></rect><rect x="360" y="199.683" width="6" height="0.316832" stroke="black" stroke-width="1" fill="blue" opacity="1" tooltip="enable"><title>(0.0606802,4)</title></rect><rect x="366" y="199.842" width="6" height="0.158416" stroke="black" stroke-width="1" fill="blue" opacity="1" tooltip="enable"><title>(0.0616915,2)</title></rect><rect x="372" y="199.604" width="6" height="0.39604" stroke="black" stroke-width="1" fill="blue" opacity="1" tooltip="enable"><title>(0.0627028,5)</title></rect><rect x="378" y="199.604" width="6" height="0.39604" stroke="black" stroke-width="1" fill="blue" opacity="1" tooltip="enable"><title>(0.0637142,5)</title></rect><rect x="384" y="199.604" width="6" height="0.39604" stroke="black" stroke-width="1" fill="blue" opacity="1" tooltip="enable"><title>(0.0647255,5)</title></rect><rect x="390" y="199.921" width="6" height="0.0792079" stroke="black" stroke-width="1" fill="blue" opacity="1" tooltip="enable"><title>(0.0657368,1)</title></rect><rect x="396" y="199.208" width="6" height="0.792079" stroke="black" stroke-width="1" fill="blue" opacity="1" tooltip="enable"><title>(0.0667482,10)</title></rect><rect x="402" y="200" width="6" height="0" stroke="black" stroke-width="1" fill="blue" opacity="1" tooltip="enable"><title>(0.0677595,0)</title></rect><rect x="408" y="200" width="6" height="0" stroke="black" stroke-width="1" fill="blue" opacity="1" tooltip="enable"><title>(0.0687709,0)</title></rect><rect x="414" y="199.842" width="6" height="0.158416" stroke="black" stroke-width="1" fill="blue" opacity="1" tooltip="enable"><title>(0.0697822,2)</title></rect><rect x="420" y="199.842" width="6" height="0.158416" stroke="black" stroke-width="1" fill="blue" opacity="1" tooltip="enable"><title>(0.0707935,2)</title></rect><rect x="426" y="199.683" width="6" height="0.316832" stroke="black" stroke-width="1" fill="blue" opacity="1" tooltip="enable"><title>(0.0718049,4)</title></rect><rect x="432" y="200" width="6" height="0" stroke="black" stroke-width="1" fill="blue" opacity="1" tooltip="enable"><title>(0.0728162,0)</title></rect><rect x="438" y="199.842" width="6" height="0.158416" stroke="black" stroke-width="1" fill="blue" opacity="1" tooltip="enable"><title>(0.0738275,2)</title></rect><rect x="444" y="199.525" width="6" height="0.475248" stroke="black" stroke-width="1" fill="blue" opacity="1" tooltip="enable"><title>(0.0748389,6)</title></rect><rect x="450" y="200" width="6" height="0" stroke="black" stroke-width="1" fill="blue" opacity="1" tooltip="enable"><title>(0.0758502,0)</title></rect><rect x="456" y="200" width="6" height="0" stroke="black" stroke-width="1" fill="blue" opacity="1" tooltip="enable"><title>(0.0768615,0)</title></rect><rect x="462" y="199.446" width="6" height="0.554455" stroke="black" stroke-width="1" fill="blue" opacity="1" tooltip="enable"><title>(0.0778729,7)</title></rect><rect x="468" y="199.921" width="6" height="0.0792079" stroke="black" stroke-width="1" fill="blue" opacity="1" tooltip="enable"><title>(0.0788842,1)</title></rect><rect x="474" y="200" width="6" height="0" stroke="black" stroke-width="1" fill="blue" opacity="1" tooltip="enable"><title>(0.0798956,0)</title></rect><rect x="480" y="199.842" width="6" height="0.158416" stroke="black" stroke-width="1" fill="blue" opacity="1" tooltip="enable"><title>(0.0809069,2)</title></rect><rect x="486" y="199.842" width="6" height="0.158416" stroke="black" stroke-width="1" fill="blue" opacity="1" tooltip="enable"><title>(0.0819182,2)</title></rect><rect x="492" y="200" width="6" height="0" stroke="black" stroke-width="1" fill="blue" opacity="1" tooltip="enable"><title>(0.0829296,0)</title></rect><rect x="498" y="200" width="6" height="0" stroke="black" stroke-width="1" fill="blue" opacity="1" tooltip="enable"><title>(0.0839409,0)</title></rect><rect x="504" y="200" width="6" height="0" stroke="black" stroke-width="1" fill="blue" opacity="1" tooltip="enable"><title>(0.0849522,0)</title></rect><rect x="510" y="200" width="6" height="0" stroke="black" stroke-width="1" fill="blue" opacity="1" tooltip="enable"><title>(0.0859636,0)</title></rect><rect x="516" y="200" width="6" height="0" stroke="black" stroke-width="1" fill="blue" opacity="1" tooltip="enable"><title>(0.0869749,0)</title></rect><rect x="522" y="200" width="6" height="0" stroke="black" stroke-width="1" fill="blue" opacity="1" tooltip="enable"><title>(0.0879862,0)</title></rect><rect x="528" y="200" width="6" height="0" stroke="black" stroke-width="1" fill="blue" opacity="1" tooltip="enable"><title>(0.0889976,0)</title></rect><rect x="534" y="200" width="6" height="0" stroke="black" stroke-width="1" fill="blue" opacity="1" tooltip="enable"><title>(0.0900089,0)</title></rect><rect x="540" y="200" width="6" height="0" stroke="black" stroke-width="1" fill="blue" opacity="1" tooltip="enable"><title>(0.0910202,0)</title></rect><rect x="546" y="200" width="6" height="0" stroke="black" stroke-width="1" fill="blue" opacity="1" tooltip="enable"><title>(0.0920316,0)</title></rect><rect x="552" y="200" width="6" height="0" stroke="black" stroke-width="1" fill="blue" opacity="1" tooltip="enable"><title>(0.0930429,0)</title></rect><rect x="558" y="200" width="6" height="0" stroke="black" stroke-width="1" fill="blue" opacity="1" tooltip="enable"><title>(0.0940543,0)</title></rect><rect x="564" y="200" width="6" height="0" stroke="black" stroke-width="1" fill="blue" opacity="1" tooltip="enable"><title>(0.0950656,0)</title></rect><rect x="570" y="200" width="6" height="0" stroke="black" stroke-width="1" fill="blue" opacity="1" tooltip="enable"><title>(0.0960769,0)</title></rect><rect x="576" y="199.525" width="6" height="0.475248" stroke="black" stroke-width="1" fill="blue" opacity="1" tooltip="enable"><title>(0.0970883,6)</title></rect><rect x="582" y="200" width="6" height="0" stroke="black" stroke-width="1" fill="blue" opacity="1" tooltip="enable"><title>(0.0980996,0)</title></rect><rect x="588" y="200" width="6" height="0" stroke="black" stroke-width="1" fill="blue" opacity="1" tooltip="enable"><title>(0.0991109,0)</title></rect><rect x="594" y="199.921" width="6" height="0.0792079" stroke="black" stroke-width="1" fill="blue" opacity="1" tooltip="enable"><title>(0.100122,1)</title></rect><text x="30" y="240" font-size="20" fill="black">0</text>
<text x="600" y="240" font-size="20" fill="black">0.101134</text>
<polyline points="0,220,600,220" stroke="black" stroke-width="1" fill="none" opacity="1"/>
<text x="720" y="20" font-size="20" fill="black">2525</text>
<text x="720" y="200" font-size="20" fill="black">0</text>
<polyline points="660,0,660,200" stroke="black" stroke-width="1" fill="none" opacity="1"/>
</svg>