<?xml version="1.0" standalone="yes"?>
<!-- SVG graphic -->
<svg xmlns='http://www.w3.org/2000/svg' xmlns:xlink='http://www.w3.org/1999/xlink'
 version="1.1">
<rect x="0" y="28.4536" width="6" height="171.546" stroke="black" stroke-width="1" fill="blue" opacity="1" tooltip="enable"><title>(0,832)</title></rect><rect x="6" y="0" width="6" height="200" stroke="black" stroke-width="1" fill="blue" opacity="1" tooltip="enable"><title>(0.00134514,970)</title></rect><rect x="12" y="15.4639" width="6" height="184.536" stroke="black" stroke-width="1" fill="blue" opacity="1" tooltip="enable"><title>(0.00269029,895)</title></rect><rect x="18" y="63.9175" width="6" height="136.082" stroke="black" stroke-width="1" fill="blue" opacity="1" tooltip="enable"><title>(0.00403543,660)</title></rect><rect x="24" y="97.5258" width="6" height="102.474" stroke="black" stroke-width="1" fill="blue" opacity="1" tooltip="enable"><title>(0.00538058,497)</title></rect><rect x="30" y="113.196" width="6" height="86.8041" stroke="black" stroke-width="1" fill="blue" opacity="1" tooltip="enable"><title>(0.00672572,421)</title></rect><rect x="36" y="128.66" width="6" height="71.3402" stroke="black" stroke-width="1" fill="blue" opacity="1" tooltip="enable"><title>(0.00807087,346)</title></rect><rect x="42" y="127.216" width="6" height="72.7835" stroke="black" stroke-width="1" fill="blue" opacity="1" tooltip="enable"><title>(0.00941601,353)</title></rect><rect x="48" y="128.247" width="6" height="71.7526" stroke="black" stroke-width="1" fill="blue" opacity="1" tooltip="enable"><title>(0.0107612,348)</title></rect><rect x="54" y="142.474" width="6" height="57.5258" stroke="black" stroke-width="1" fill="blue" opacity="1" tooltip="enable"><title>(0.0121063,279)</title></rect><rect x="60" y="159.794" width="6" height="40.2062" stroke="black" stroke-width="1" fill="blue" opacity="1" tooltip="enable"><title>(0.0134514,195)</title></rect><rect x="66" y="157.732" width="6" height="42.268" stroke="black" stroke-width="1" fill="blue" opacity="1" tooltip="enable"><title>(0.0147966,205)</title></rect><rect x="72" y="158.557" width="6" height="41.4433" stroke="black" stroke-width="1" fill="blue" opacity="1" tooltip="enable"><title>(0.0161417,201)</title></rect><rect x="78" y="164.536" width="6" height="35.4639" stroke="black" stroke-width="1" fill="blue" opacity="1" tooltip="enable"><title>(0.0174869,172)</title></rect><rect x="84" y="172.371" width="6" height="27.6289" stroke="black" stroke-width="1" fill="blue" opacity="1" tooltip="enable"><title>(0.018832,134)</title></rect><rect x="90" y="176.907" width="6" height="23.0928" stroke="black" stroke-width="1" fill="blue" opacity="1" tooltip="enable"><title>(0.0201772,112)</title></rect><rect x="96" y="178.969" width="6" height="21.0309" stroke="black" stroke-width="1" fill="blue" opacity="1" tooltip="enable"><title>(0.0215223,102)</title></rect><rect x="102" y="181.031" width="6" height="18.9691" stroke="black" stroke-width="1" fill="blue" opacity="1" tooltip="enable"><title>(0.0228675,92)</title></rect><rect x="108" y="185.979" width="6" height="14.0206" stroke="black" stroke-width="1" fill="blue" opacity="1" tooltip="enable"><title>(0.0242126,68)</title></rect><rect x="114" y="189.072" width="6" height="10.9278" stroke="black" stroke-width="1" fill="blue" opacity="1" tooltip="enable"><title>(0.0255577,53)</title></rect><rect x="120" y="185.567" width="6" height="14.433" stroke="black" stroke-width="1" fill="blue" opacity="1" tooltip="enable"><title>(0.0269029,70)</title></rect><rect x="126" y="186.186" width="6" height="13.8144" stroke="black" stroke-width="1" fill="blue" opacity="1" tooltip="enable"><title>(0.028248,67)</title></rect><rect x="132" y="190.103" width="6" height="9.89691" stroke="black" stroke-width="1" fill="blue" opacity="1" tooltip="enable"><title>(0.0295932,48)</title></rect><rect x="138" y="189.691" width="6" height="10.3093" stroke="black" stroke-width="1" fill="blue" opacity="1" tooltip="enable"><title>(0.0309383,50)</title></rect><rect x="144" y="191.753" width="6" height="8.24742" stroke="black" stroke-width="1" fill="blue" opacity="1" tooltip="enable"><title>(0.0322835,40)</title></rect><rect x="150" y="192.99" width="6" height="7.01031" stroke="black" stroke-width="1" fill="blue" opacity="1" tooltip="enable"><title>(0.0336286,34)</title></rect><rect x="156" y="192.165" width="6" height="7.83505" stroke="black" stroke-width="1" fill="blue" opacity="1" tooltip="enable"><title>(0.0349738,38)</title></rect><rect x="162" y="190.515" width="6" height="9.48454" stroke="black" stroke-width="1" fill="blue" opacity="1" tooltip="enable"><title>(0.0363189,46)</title></rect><rect x="168" y="192.99" width="6" height="7.01031" stroke="black" stroke-width="1" fill="blue" opacity="1" tooltip="enable"><title>(0.037664,34)</title></rect><rect x="174" y="191.753" width="6" height="8.24742" stroke="black" stroke-width="1" fill="blue" opacity="1" tooltip="enable"><title>(0.0390092,40)</title></rect><rect x="180" y="195.876" width="6" height="4.12371" stroke="black" stroke-width="1" fill="blue" opacity="1" tooltip="enable"><title>(0.0403543,20)</title></rect><rect x="186" y="191.753" width="6" height="8.24742" stroke="black" stroke-width="1" fill="blue" opacity="1" tooltip="enable"><title>(0.0416995,40)</title></rect><rect x="192" y="191.753" width="6" height="8.24742" stroke="black" stroke-width="1" fill="blue" opacity="1" tooltip="enable"><title>(0.0430446,40)</title></rect><rect x="198" y="192.577" width="6" height="7.42268" stroke="black" stroke-width="1" fill="blue" opacity="1" tooltip="enable"><title>(0.0443898,36)</title></rect><rect x="204" y="195.052" width="6" height="4.94845" stroke="black" stroke-width="1" fill="blue" opacity="1" tooltip="enable"><title>(0.0457349,24)</title></rect><rect x="210" y="194.639" width="6" height="5.36082" stroke="black" stroke-width="1" fill="blue" opacity="1" tooltip="enable"><title>(0.0470801,26)</title></rect><rect x="216" y="195.464" width="6" height="4.53608" stroke="black" stroke-width="1" fill="blue" opacity="1" tooltip="enable"><title>(0.0484252,22)</title></rect><rect x="222" y="193.402" width="6" height="6.59794" stroke="black" stroke-width="1" fill="blue" opacity="1" tooltip="enable"><title>(0.0497703,32)</title></rect><rect x="228" y="195.052" width="6" height="4.94845" stroke="black" stroke-width="1" fill="blue" opacity="1" tooltip="enable"><title>(0.0511155,24)</title></rect><rect x="234" y="195.464" width="6" height="4.53608" stroke="black" stroke-width="1" fill="blue" opacity="1" tooltip="enable"><title>(0.0524606,22)</title></rect><rect x="240" y="194.639" width="6" height="5.36082" stroke="black" stroke-width="1" fill="blue" opacity="1" tooltip="enable"><title>(0.0538058,26)</title></rect><rect x="246" y="197.526" width="6" height="2.47423" stroke="black" stroke-width="1" fill="blue" opacity="1" tooltip="enable"><title>(0.0551509,12)</title></rect><rect x="252" y="197.526" width="6" height="2.47423" stroke="black" stroke-width="1" fill="blue" opacity="1" tooltip="enable"><title>(0.0564961,12)</title></rect><rect x="258" y="197.938" width="6" height="2.06186" stroke="black" stroke-width="1" fill="blue" opacity="1" tooltip="enable"><title>(0.0578412,10)</title></rect><rect x="264" y="194.433" width="6" height="5.56701" stroke="black" stroke-width="1" fill="blue" opacity="1" tooltip="enable"><title>(0.0591864,27)</title></rect><rect x="270" y="198.557" width="6" height="1.4433" stroke="black" stroke-width="1" fill="blue" opacity="1" tooltip="enable"><title>(0.0605315,7)</title></rect><rect x="276" y="197.113" width="6" height="2.8866" stroke="black" stroke-width="1" fill="blue" opacity="1" tooltip="enable"><title>(0.0618766,14)</title></rect><rect x="282" y="197.526" width="6" height="2.47423" stroke="black" stroke-width="1" fill="blue" opacity="1" tooltip="enable"><title>(0.0632218,12)</title></rect><rect x="288" y="198.351" width="6" height="1.64948" stroke="black" stroke-width="1" fill="blue" opacity="1" tooltip="enable"><title>(0.0645669,8)</title></rect><rect x="294" y="196.701" width="6" height="3.29897" stroke="black" stroke-width="1" fill="blue" opacity="1" tooltip="enable"><title>(0.0659121,16)</title></rect><rect x="300" y="197.113" width="6" height="2.8866" stroke="black" stroke-width="1" fill="blue" opacity="1" tooltip="enable"><title>(0.0672572,14)</title></rect><rect x="306" y="198.969" width="6" height="1.03093" stroke="black" stroke-width="1" fill="blue" opacity="1" tooltip="enable"><title>(0.0686024,5)</title></rect><rect x="312" y="197.32" width="6" height="2.68041" stroke="black" stroke-width="1" fill="blue" opacity="1" tooltip="enable"><title>(0.0699475,13)</title></rect><rect x="318" y="198.351" width="6" height="1.64948" stroke="black" stroke-width="1" fill="blue" opacity="1" tooltip="enable"><title>(0.0712927,8)</title></rect><rect x="324" y="196.289" width="6" height="3.71134" stroke="black" stroke-width="1" fill="blue" opacity="1" tooltip="enable"><title>(0.0726378,18)</title></rect><rect x="330" y="198.351" width="6" height="1.64948" stroke="black" stroke-width="1" fill="blue" opacity="1" tooltip="enable"><title>(0.0739829,8)</title></rect><rect x="336" y="197.113" width="6" height="2.8866" stroke="black" stroke-width="1" fill="blue" opacity="1" tooltip="enable"><title>(0.0753281,14)</title></rect><rect x="342" y="198.351" width="6" height="1.64948" stroke="black" stroke-width="1" fill="blue" opacity="1" tooltip="enable"><title>(0.0766732,8)</title></rect><rect x="348" y="198.351" width="6" height="1.64948" stroke="black" stroke-width="1" fill="blue" opacity="1" tooltip="enable"><title>(0.0780184,8)</title></rect><rect x="354" y="197.938" width="6" height="2.06186" stroke="black" stroke-width="1" fill="blue" opacity="1" tooltip="enable"><title>(0.0793635,10)</title></rect><rect x="360" y="200" width="6" height="0" stroke="black" stroke-width="1" fill="blue" opacity="1" tooltip="enable"><title>(0.0807087,0)</title></rect><rect x="366" y="199.588" width="6" height="0.412371" stroke="black" stroke-width="1" fill="blue" opacity="1" tooltip="enable"><title>(0.0820538,2)</title></rect><rect x="372" y="198.763" width="6" height="1.23711" stroke="black" stroke-width="1" fill="blue" opacity="1" tooltip="enable"><title>(0.083399,6)</title></rect><rect x="378" y="198.763" width="6" height="1.23711" stroke="black" stroke-width="1" fill="blue" opacity="1" tooltip="enable"><title>(0.0847441,6)</title></rect><rect x="384" y="199.175" width="6" height="0.824742" stroke="black" stroke-width="1" fill="blue" opacity="1" tooltip="enable"><title>(0.0860892,4)</title></rect><rect x="390" y="200" width="6" height="0" stroke="black" stroke-width="1" fill="blue" opacity="1" tooltip="enable"><title>(0.0874344,0)</title></rect><rect x="396" y="200" width="6" height="0" stroke="black" stroke-width="1" fill="blue" opacity="1" tooltip="enable"><title>(0.0887795,0)</title></rect><rect x="402" y="199.588" width="6" height="0.412371" stroke="black" stroke-width="1" fill="blue" opacity="1" tooltip="enable"><title>(0.0901247,2)</title></rect><rect x="408" y="200" width="6" height="0" stroke="black" stroke-width="1" fill="blue" opacity="1" tooltip="enable"><title>(0.0914698,0)</title></rect><rect x="414" y="199.175" width="6" height="0.824742" stroke="black" stroke-width="1" fill="blue" opacity="1" tooltip="enable"><title>(0.092815,4)</title></rect><rect x="420" y="199.588" width="6" height="0.412371" stroke="black" stroke-width="1" fill="blue" opacity="1" tooltip="enable"><title>(0.0941601,2)</title></rect><rect x="426" y="200" width="6" height="0" stroke="black" stroke-width="1" fill="blue" opacity="1" tooltip="enable"><title>(0.0955053,0)</title></rect><rect x="432" y="198.763" width="6" height="1.23711" stroke="black" stroke-width="1" fill="blue" opacity="1" tooltip="enable"><title>(0.0968504,6)</title></rect><rect x="438" y="199.588" width="6" height="0.412371" stroke="black" stroke-width="1" fill="blue" opacity="1" tooltip="enable"><title>(0.0981956,2)</title></rect><rect x="444" y="199.588" width="6" height="0.412371" stroke="black" stroke-width="1" fill="blue" opacity="1" tooltip="enable"><title>(0.0995407,2)</title></rect><rect x="450" y="199.588" width="6" height="0.412371" stroke="black" stroke-width="1" fill="blue" opacity="1" tooltip="enable"><title>(0.100886,2)</title></rect><rect x="456" y="200" width="6" height="0" stroke="black" stroke-width="1" fill="blue" opacity="1" tooltip="enable"><title>(0.102231,0)</title></rect><rect x="462" y="200" width="6" height="0" stroke="black" stroke-width="1" fill="blue" opacity="1" tooltip="enable"><title>(0.103576,0)</title></rect><rect x="468" y="200" width="6" height="0" stroke="black" stroke-width="1" fill="blue" opacity="1" tooltip="enable"><title>(0.104921,0)</title></rect><rect x="474" y="200" width="6" height="0" stroke="black" stroke-width="1" fill="blue" opacity="1" tooltip="enable"><title>(0.106266,0)</title></rect><rect x="480" y="200" width="6" height="0" stroke="black" stroke-width="1" fill="blue" opacity="1" tooltip="enable"><title>(0.107612,0)</title></rect><rect x="486" y="200" width="6" height="0" stroke="black" stroke-width="1" fill="blue" opacity="1" tooltip="enable"><title>(0.108957,0)</title></rect><rect x="492" y="199.588" width="6" height="0.412371" stroke="black" stroke-width="1" fill="blue" opacity="1" tooltip="enable"><title>(0.110302,2)</title></rect><rect x="498" y="200" width="6" height="0" stroke="black" stroke-width="1" fill="blue" opacity="1" tooltip="enable"><title>(0.111647,0)</title></rect><rect x="504" y="200" width="6" height="0" stroke="black" stroke-width="1" fill="blue" opacity="1" tooltip="enable"><title>(0.112992,0)</title></rect><rect x="510" y="199.588" width="6" height="0.412371" stroke="black" stroke-width="1" fill="blue" opacity="1" tooltip="enable"><title>(0.114337,2)</title></rect><rect x="516" y="199.175" width="6" height="0.824742" stroke="black" stroke-width="1" fill="blue" opacity="1" tooltip="enable"><title>(0.115682,4)</title></rect><rect x="522" y="200" width="6" height="0" stroke="black" stroke-width="1" fill="blue" opacity="1" tooltip="enable"><title>(0.117028,0)</title></rect><rect x="528" y="200" width="6" height="0" stroke="black" stroke-width="1" fill="blue" opacity="1" tooltip="enable"><title>(0.118373,0)</title></rect><rect x="534" y="199.588" width="6" height="0.412371" stroke="black" stroke-width="1" fill="blue" opacity="1" tooltip="enable"><title>(0.119718,2)</title></rect><rect x="540" y="200" width="6" height="0" stroke="black" stroke-width="1" fill="blue" opacity="1" tooltip="enable"><title>(0.121063,0)</title></rect><rect x="546" y="199.175" width="6" height="0.824742" stroke="black" stroke-width="1" fill="blue" opacity="1" tooltip="enable"><title>(0.122408,4)</title></rect><rect x="552" y="200" width="6" height="0" stroke="black" stroke-width="1" fill="blue" opacity="1" tooltip="enable"><title>(0.123753,0)</title></rect><rect x="558" y="199.588" width="6" height="0.412371" stroke="black" stroke-width="1" fill="blue" opacity="1" tooltip="enable"><title>(0.125098,2)</title></rect><rect x="564" y="200" width="6" height="0" stroke="black" stroke-width="1" fill="blue" opacity="1" tooltip="enable"><title>(0.126444,0)</title></rect><rect x="570" y="200" width="6" height="0" stroke="black" stroke-width="1" fill="blue" opacity="1" tooltip="enable"><title>(0.127789,0)</title></rect><rect x="576" y="200" width="6" height="0" stroke="black" stroke-width="1" fill="blue" opacity="1" tooltip="enable"><title>(0.129134,0)</title></rect><rect x="582" y="199.588" width="6" height="0.412371" stroke="black" stroke-width="1" fill="blue" opacity="1" tooltip="enable"><title>(0.130479,2)</title></rect><rect x="588" y="199.175" width="6" height="0.824742" stroke="black" stroke-width="1" fill="blue" opacity="1" tooltip="enable"><title>(0.131824,4)</title></rect><rect x="594" y="199.794" width="6" height="0.206186" stroke="black" stroke-width="1" fill="blue" opacity="1" tooltip="enable"><title>(0.133169,1)</title></rect><text x="30" y="240" font-size="20" fill="black">0</text>
<text x="600" y="240" font-size="20" fill="black">0.134514</text>
<polyline points="0,220,600,220" stroke="black" stroke-width="1" fill="none" opacity="1"/>
<text x="720" y="20" font-size="20" fill="black">970</text>
<text x="720" y="200" font-size="20" fill="black">0</text>
<polyline points="660,0,660,200" stroke="black" stroke-width="1" fill="none" opacity="1"/>
</svg>