<?xml version="1.0" standalone="yes"?>
<!-- SVG graphic -->
<svg xmlns='http://www.w3.org/2000/svg' xmlns:xlink='http://www.w3.org/1999/xlink'
 version="1.1">
<rect x="0" y="1.52588e-05" width="6" height="200" stroke="black" stroke-width="1" fill="blue" opacity="1" tooltip="enable"><title>(0,1505)</title></rect><rect x="6" y="24.3189" width="6" height="175.681" stroke="black" stroke-width="1" fill="blue" opacity="1" tooltip="enable"><title>(0.00124151,1322)</title></rect><rect x="12" y="102.193" width="6" height="97.8073" stroke="black" stroke-width="1" fill="blue" opacity="1" tooltip="enable"><title>(0.00248302,736)</title></rect><rect x="18" y="120.664" width="6" height="79.3355" stroke="black" stroke-width="1" fill="blue" opacity="1" tooltip="enable"><title>(0.00372453,597)</title></rect><rect x="24" y="153.09" width="6" height="46.9103" stroke="black" stroke-width="1" fill="blue" opacity="1" tooltip="enable"><title>(0.00496604,353)</title></rect><rect x="30" y="179.402" width="6" height="20.598" stroke="black" stroke-width="1" fill="blue" opacity="1" tooltip="enable"><title>(0.00620755,155)</title></rect><rect x="36" y="183.256" width="6" height="16.7442" stroke="black" stroke-width="1" fill="blue" opacity="1" tooltip="enable"><title>(0.00744906,126)</title></rect><rect x="42" y="179.801" width="6" height="20.1993" stroke="black" stroke-width="1" fill="blue" opacity="1" tooltip="enable"><title>(0.00869057,152)</title></rect><rect x="48" y="184.053" width="6" height="15.9468" stroke="black" stroke-width="1" fill="blue" opacity="1" tooltip="enable"><title>(0.00993208,120)</title></rect><rect x="54" y="184.053" width="6" height="15.9468" stroke="black" stroke-width="1" fill="blue" opacity="1" tooltip="enable"><title>(0.0111736,120)</title></rect><rect x="60" y="181.927" width="6" height="18.0731" stroke="black" stroke-width="1" fill="blue" opacity="1" tooltip="enable"><title>(0.0124151,136)</title></rect><rect x="66" y="181.927" width="6" height="18.0731" stroke="black" stroke-width="1" fill="blue" opacity="1" tooltip="enable"><title>(0.0136566,136)</title></rect><rect x="72" y="179.801" width="6" height="20.1993" stroke="black" stroke-width="1" fill="blue" opacity="1" tooltip="enable"><title>(0.0148981,152)</title></rect><rect x="78" y="185.914" width="6" height="14.0864" stroke="black" stroke-width="1" fill="blue" opacity="1" tooltip="enable"><title>(0.0161396,106)</title></rect><rect x="84" y="182.724" width="6" height="17.2757" stroke="black" stroke-width="1" fill="blue" opacity="1" tooltip="enable"><title>(0.0173811,130)</title></rect><rect x="90" y="185.914" width="6" height="14.0864" stroke="black" stroke-width="1" fill="blue" opacity="1" tooltip="enable"><title>(0.0186227,106)</title></rect><rect x="96" y="187.243" width="6" height="12.7575" stroke="black" stroke-width="1" fill="blue" opacity="1" tooltip="enable"><title>(0.0198642,96)</title></rect><rect x="102" y="188.306" width="6" height="11.6944" stroke="black" stroke-width="1" fill="blue" opacity="1" tooltip="enable"><title>(0.0211057,88)</title></rect><rect x="108" y="188.571" width="6" height="11.4286" stroke="black" stroke-width="1" fill="blue" opacity="1" tooltip="enable"><title>(0.0223472,86)</title></rect><rect x="114" y="185.382" width="6" height="14.6179" stroke="black" stroke-width="1" fill="blue" opacity="1" tooltip="enable"><title>(0.0235887,110)</title></rect><rect x="120" y="189.502" width="6" height="10.4983" stroke="black" stroke-width="1" fill="blue" opacity="1" tooltip="enable"><title>(0.0248302,79)</title></rect><rect x="126" y="189.502" width="6" height="10.4983" stroke="black" stroke-width="1" fill="blue" opacity="1" tooltip="enable"><title>(0.0260717,79)</title></rect><rect x="132" y="189.236" width="6" height="10.7641" stroke="black" stroke-width="1" fill="blue" opacity="1" tooltip="enable"><title>(0.0273132,81)</title></rect><rect x="138" y="187.641" width="6" height="12.3588" stroke="black" stroke-width="1" fill="blue" opacity="1" tooltip="enable"><title>(0.0285547,93)</title></rect><rect x="144" y="190.565" width="6" height="9.43521" stroke="black" stroke-width="1" fill="blue" opacity="1" tooltip="enable"><title>(0.0297963,71)</title></rect><rect x="150" y="191.096" width="6" height="8.90365" stroke="black" stroke-width="1" fill="blue" opacity="1" tooltip="enable"><title>(0.0310378,67)</title></rect><rect x="156" y="191.495" width="6" height="8.50498" stroke="black" stroke-width="1" fill="blue" opacity="1" tooltip="enable"><title>(0.0322793,64)</title></rect><rect x="162" y="192.824" width="6" height="7.17608" stroke="black" stroke-width="1" fill="blue" opacity="1" tooltip="enable"><title>(0.0335208,54)</title></rect><rect x="168" y="194.419" width="6" height="5.5814" stroke="black" stroke-width="1" fill="blue" opacity="1" tooltip="enable"><title>(0.0347623,42)</title></rect><rect x="174" y="194.419" width="6" height="5.5814" stroke="black" stroke-width="1" fill="blue" opacity="1" tooltip="enable"><title>(0.0360038,42)</title></rect><rect x="180" y="196.545" width="6" height="3.45515" stroke="black" stroke-width="1" fill="blue" opacity="1" tooltip="enable"><title>(0.0372453,26)</title></rect><rect x="186" y="193.223" width="6" height="6.77741" stroke="black" stroke-width="1" fill="blue" opacity="1" tooltip="enable"><title>(0.0384868,51)</title></rect><rect x="192" y="193.223" width="6" height="6.77741" stroke="black" stroke-width="1" fill="blue" opacity="1" tooltip="enable"><title>(0.0397283,51)</title></rect><rect x="198" y="195.349" width="6" height="4.65116" stroke="black" stroke-width="1" fill="blue" opacity="1" tooltip="enable"><title>(0.0409698,35)</title></rect><rect x="204" y="194.817" width="6" height="5.18272" stroke="black" stroke-width="1" fill="blue" opacity="1" tooltip="enable"><title>(0.0422114,39)</title></rect><rect x="210" y="197.076" width="6" height="2.92359" stroke="black" stroke-width="1" fill="blue" opacity="1" tooltip="enable"><title>(0.0434529,22)</title></rect><rect x="216" y="195.748" width="6" height="4.25249" stroke="black" stroke-width="1" fill="blue" opacity="1" tooltip="enable"><title>(0.0446944,32)</title></rect><rect x="222" y="194.684" width="6" height="5.31561" stroke="black" stroke-width="1" fill="blue" opacity="1" tooltip="enable"><title>(0.0459359,40)</title></rect><rect x="228" y="194.286" width="6" height="5.71429" stroke="black" stroke-width="1" fill="blue" opacity="1" tooltip="enable"><title>(0.0471774,43)</title></rect><rect x="234" y="192.425" width="6" height="7.57475" stroke="black" stroke-width="1" fill="blue" opacity="1" tooltip="enable"><title>(0.0484189,57)</title></rect><rect x="240" y="193.754" width="6" height="6.24585" stroke="black" stroke-width="1" fill="blue" opacity="1" tooltip="enable"><title>(0.0496604,47)</title></rect><rect x="246" y="193.754" width="6" height="6.24585" stroke="black" stroke-width="1" fill="blue" opacity="1" tooltip="enable"><title>(0.0509019,47)</title></rect><rect x="252" y="192.824" width="6" height="7.17608" stroke="black" stroke-width="1" fill="blue" opacity="1" tooltip="enable"><title>(0.0521434,54)</title></rect><rect x="258" y="195.349" width="6" height="4.65116" stroke="black" stroke-width="1" fill="blue" opacity="1" tooltip="enable"><title>(0.0533849,35)</title></rect><rect x="264" y="195.88" width="6" height="4.1196" stroke="black" stroke-width="1" fill="blue" opacity="1" tooltip="enable"><title>(0.0546265,31)</title></rect><rect x="270" y="196.146" width="6" height="3.85382" stroke="black" stroke-width="1" fill="blue" opacity="1" tooltip="enable"><title>(0.055868,29)</title></rect><rect x="276" y="196.944" width="6" height="3.05648" stroke="black" stroke-width="1" fill="blue" opacity="1" tooltip="enable"><title>(0.0571095,23)</title></rect><rect x="282" y="195.482" width="6" height="4.51827" stroke="black" stroke-width="1" fill="blue" opacity="1" tooltip="enable"><title>(0.058351,34)</title></rect><rect x="288" y="194.95" width="6" height="5.04983" stroke="black" stroke-width="1" fill="blue" opacity="1" tooltip="enable"><title>(0.0595925,38)</title></rect><rect x="294" y="196.811" width="6" height="3.18937" stroke="black" stroke-width="1" fill="blue" opacity="1" tooltip="enable"><title>(0.060834,24)</title></rect><rect x="300" y="197.076" width="6" height="2.92359" stroke="black" stroke-width="1" fill="blue" opacity="1" tooltip="enable"><title>(0.0620755,22)</title></rect><rect x="306" y="196.811" width="6" height="3.18937" stroke="black" stroke-width="1" fill="blue" opacity="1" tooltip="enable"><title>(0.063317,24)</title></rect><rect x="312" y="198.937" width="6" height="1.06312" stroke="black" stroke-width="1" fill="blue" opacity="1" tooltip="enable"><title>(0.0645585,8)</title></rect><rect x="318" y="198.671" width="6" height="1.3289" stroke="black" stroke-width="1" fill="blue" opacity="1" tooltip="enable"><title>(0.0658,10)</title></rect><rect x="324" y="198.671" width="6" height="1.3289" stroke="black" stroke-width="1" fill="blue" opacity="1" tooltip="enable"><title>(0.0670416,10)</title></rect><rect x="330" y="199.468" width="6" height="0.531561" stroke="black" stroke-width="1" fill="blue" opacity="1" tooltip="enable"><title>(0.0682831,4)</title></rect><rect x="336" y="198.671" width="6" height="1.3289" stroke="black" stroke-width="1" fill="blue" opacity="1" tooltip="enable"><title>(0.0695246,10)</title></rect><rect x="342" y="198.937" width="6" height="1.06312" stroke="black" stroke-width="1" fill="blue" opacity="1" tooltip="enable"><title>(0.0707661,8)</title></rect><rect x="348" y="198.405" width="6" height="1.59468" stroke="black" stroke-width="1" fill="blue" opacity="1" tooltip="enable"><title>(0.0720076,12)</title></rect><rect x="354" y="198.671" width="6" height="1.3289" stroke="black" stroke-width="1" fill="blue" opacity="1" tooltip="enable"><title>(0.0732491,10)</title></rect><rect x="360" y="199.203" width="6" height="0.797342" stroke="black" stroke-width="1" fill="blue" opacity="1" tooltip="enable"><title>(0.0744906,6)</title></rect><rect x="366" y="199.734" width="6" height="0.265781" stroke="black" stroke-width="1" fill="blue" opacity="1" tooltip="enable"><title>(0.0757321,2)</title></rect><rect x="372" y="199.734" width="6" height="0.265781" stroke="black" stroke-width="1" fill="blue" opacity="1" tooltip="enable"><title>(0.0769736,2)</title></rect><rect x="378" y="198.937" width="6" height="1.06312" stroke="black" stroke-width="1" fill="blue" opacity="1" tooltip="enable"><title>(0.0782152,8)</title></rect><rect x="384" y="198.538" width="6" height="1.46179" stroke="black" stroke-width="1" fill="blue" opacity="1" tooltip="enable"><title>(0.0794567,11)</title></rect><rect x="390" y="199.07" width="6" height="0.930233" stroke="black" stroke-width="1" fill="blue" opacity="1" tooltip="enable"><title>(0.0806982,7)</title></rect><rect x="396" y="199.203" width="6" height="0.797342" stroke="black" stroke-width="1" fill="blue" opacity="1" tooltip="enable"><title>(0.0819397,6)</title></rect><rect x="402" y="199.734" width="6" height="0.265781" stroke="black" stroke-width="1" fill="blue" opacity="1" tooltip="enable"><title>(0.0831812,2)</title></rect><rect x="408" y="198.937" width="6" height="1.06312" stroke="black" stroke-width="1" fill="blue" opacity="1" tooltip="enable"><title>(0.0844227,8)</title></rect><rect x="414" y="199.468" width="6" height="0.531561" stroke="black" stroke-width="1" fill="blue" opacity="1" tooltip="enable"><title>(0.0856642,4)</title></rect><rect x="420" y="200" width="6" height="0" stroke="black" stroke-width="1" fill="blue" opacity="1" tooltip="enable"><title>(0.0869057,0)</title></rect><rect x="426" y="200" width="6" height="0" stroke="black" stroke-width="1" fill="blue" opacity="1" tooltip="enable"><title>(0.0881472,0)</title></rect><rect x="432" y="199.203" width="6" height="0.797342" stroke="black" stroke-width="1" fill="blue" opacity="1" tooltip="enable"><title>(0.0893888,6)</title></rect><rect x="438" y="199.468" width="6" height="0.531561" stroke="black" stroke-width="1" fill="blue" opacity="1" tooltip="enable"><title>(0.0906303,4)</title></rect><rect x="444" y="199.734" width="6" height="0.265781" stroke="black" stroke-width="1" fill="blue" opacity="1" tooltip="enable"><title>(0.0918718,2)</title></rect><rect x="450" y="199.734" width="6" height="0.265781" stroke="black" stroke-width="1" fill="blue" opacity="1" tooltip="enable"><title>(0.0931133,2)</title></rect><rect x="456" y="200" width="6" height="0" stroke="black" stroke-width="1" fill="blue" opacity="1" tooltip="enable"><title>(0.0943548,0)</title></rect><rect x="462" y="198.405" width="6" height="1.59468" stroke="black" stroke-width="1" fill="blue" opacity="1" tooltip="enable"><title>(0.0955963,12)</title></rect><rect x="468" y="199.601" width="6" height="0.398671" stroke="black" stroke-width="1" fill="blue" opacity="1" tooltip="enable"><title>(0.0968378,3)</title></rect><rect x="474" y="199.867" width="6" height="0.13289" stroke="black" stroke-width="1" fill="blue" opacity="1" tooltip="enable"><title>(0.0980793,1)</title></rect><rect x="480" y="200" width="6" height="0" stroke="black" stroke-width="1" fill="blue" opacity="1" tooltip="enable"><title>(0.0993208,0)</title></rect><rect x="486" y="199.468" width="6" height="0.531561" stroke="black" stroke-width="1" fill="blue" opacity="1" tooltip="enable"><title>(0.100562,4)</title></rect><rect x="492" y="200" width="6" height="0" stroke="black" stroke-width="1" fill="blue" opacity="1" tooltip="enable"><title>(0.101804,0)</title></rect><rect x="498" y="199.468" width="6" height="0.531561" stroke="black" stroke-width="1" fill="blue" opacity="1" tooltip="enable"><title>(0.103045,4)</title></rect><rect x="504" y="199.734" width="6" height="0.265781" stroke="black" stroke-width="1" fill="blue" opacity="1" tooltip="enable"><title>(0.104287,2)</title></rect><rect x="510" y="199.734" width="6" height="0.265781" stroke="black" stroke-width="1" fill="blue" opacity="1" tooltip="enable"><title>(0.105528,2)</title></rect><rect x="516" y="199.734" width="6" height="0.265781" stroke="black" stroke-width="1" fill="blue" opacity="1" tooltip="enable"><title>(0.10677,2)</title></rect><rect x="522" y="199.734" width="6" height="0.265781" stroke="black" stroke-width="1" fill="blue" opacity="1" tooltip="enable"><title>(0.108011,2)</title></rect><rect x="528" y="199.468" width="6" height="0.531561" stroke="black" stroke-width="1" fill="blue" opacity="1" tooltip="enable"><title>(0.109253,4)</title></rect><rect x="534" y="199.734" width="6" height="0.265781" stroke="black" stroke-width="1" fill="blue" opacity="1" tooltip="enable"><title>(0.110494,2)</title></rect><rect x="540" y="199.468" width="6" height="0.531561" stroke="black" stroke-width="1" fill="blue" opacity="1" tooltip="enable"><title>(0.111736,4)</title></rect><rect x="546" y="199.734" width="6" height="0.265781" stroke="black" stroke-width="1" fill="blue" opacity="1" tooltip="enable"><title>(0.112977,2)</title></rect><rect x="552" y="200" width="6" height="0" stroke="black" stroke-width="1" fill="blue" opacity="1" tooltip="enable"><title>(0.114219,0)</title></rect><rect x="558" y="199.734" width="6" height="0.265781" stroke="black" stroke-width="1" fill="blue" opacity="1" tooltip="enable"><title>(0.11546,2)</title></rect><rect x="564" y="200" width="6" height="0" stroke="black" stroke-width="1" fill="blue" opacity="1" tooltip="enable"><title>(0.116702,0)</title></rect><rect x="570" y="200" width="6" height="0" stroke="black" stroke-width="1" fill="blue" opacity="1" tooltip="enable"><title>(0.117943,0)</title></rect><rect x="576" y="200" width="6" height="0" stroke="black" stroke-width="1" fill="blue" opacity="1" tooltip="enable"><title>(0.119185,0)</title></rect><rect x="582" y="200" width="6" height="0" stroke="black" stroke-width="1" fill="blue" opacity="1" tooltip="enable"><title>(0.120427,0)</title></rect><rect x="588" y="200" width="6" height="0" stroke="black" stroke-width="1" fill="blue" opacity="1" tooltip="enable"><title>(0.121668,0)</title></rect><rect x="594" y="199.601" width="6" height="0.398671" stroke="black" stroke-width="1" fill="blue" opacity="1" tooltip="enable"><title>(0.12291,3)</title></rect><text x="30" y="240" font-size="20" fill="black">0</text>
<text x="600" y="240" font-size="20" fill="black">0.124151</text>
<polyline points="0,220,600,220" stroke="black" stroke-width="1" fill="none" opacity="1"/>
<text x="720" y="20" font-size="20" fill="black">1505</text>
<text x="720" y="200" font-size="20" fill="black">0</text>
<polyline points="660,0,660,200" stroke="black" stroke-width="1" fill="none" opacity="1"/>
</svg>