<?xml version="1.0" standalone="yes"?>
<!-- SVG graphic -->
<svg xmlns='http://www.w3.org/2000/svg' xmlns:xlink='http://www.w3.org/1999/xlink'
 version="1.1">
<rect x="0" y="-1.52588e-05" width="6" height="200" stroke="black" stroke-width="1" fill="blue" opacity="1" tooltip="enable"><title>(0,2564)</title></rect><rect x="6" y="114.665" width="6" height="85.3354" stroke="black" stroke-width="1" fill="blue" opacity="1" tooltip="enable"><title>(0.00121042,1094)</title></rect><rect x="12" y="150.39" width="6" height="49.61" stroke="black" stroke-width="1" fill="blue" opacity="1" tooltip="enable"><title>(0.00242084,636)</title></rect><rect x="18" y="179.719" width="6" height="20.2808" stroke="black" stroke-width="1" fill="blue" opacity="1" tooltip="enable"><title>(0.00363126,260)</title></rect><rect x="24" y="185.335" width="6" height="14.6646" stroke="black" stroke-width="1" fill="blue" opacity="1" tooltip="enable"><title>(0.00484168,188)</title></rect><rect x="30" y="186.427" width="6" height="13.5725" stroke="black" stroke-width="1" fill="blue" opacity="1" tooltip="enable"><title>(0.0060521,174)</title></rect><rect x="36" y="189.392" width="6" height="10.6084" stroke="black" stroke-width="1" fill="blue" opacity="1" tooltip="enable"><title>(0.00726252,136)</title></rect><rect x="42" y="189.86" width="6" height="10.1404" stroke="black" stroke-width="1" fill="blue" opacity="1" tooltip="enable"><title>(0.00847294,130)</title></rect><rect x="48" y="188.456" width="6" height="11.5445" stroke="black" stroke-width="1" fill="blue" opacity="1" tooltip="enable"><title>(0.00968337,148)</title></rect><rect x="54" y="188.924" width="6" height="11.0764" stroke="black" stroke-width="1" fill="blue" opacity="1" tooltip="enable"><title>(0.0108938,142)</title></rect><rect x="60" y="187.988" width="6" height="12.0125" stroke="black" stroke-width="1" fill="blue" opacity="1" tooltip="enable"><title>(0.0121042,154)</title></rect><rect x="66" y="189.704" width="6" height="10.2964" stroke="black" stroke-width="1" fill="blue" opacity="1" tooltip="enable"><title>(0.0133146,132)</title></rect><rect x="72" y="188.456" width="6" height="11.5445" stroke="black" stroke-width="1" fill="blue" opacity="1" tooltip="enable"><title>(0.014525,148)</title></rect><rect x="78" y="192.122" width="6" height="7.87832" stroke="black" stroke-width="1" fill="blue" opacity="1" tooltip="enable"><title>(0.0157355,101)</title></rect><rect x="84" y="191.03" width="6" height="8.97036" stroke="black" stroke-width="1" fill="blue" opacity="1" tooltip="enable"><title>(0.0169459,115)</title></rect><rect x="90" y="191.42" width="6" height="8.58034" stroke="black" stroke-width="1" fill="blue" opacity="1" tooltip="enable"><title>(0.0181563,110)</title></rect><rect x="96" y="191.108" width="6" height="8.89236" stroke="black" stroke-width="1" fill="blue" opacity="1" tooltip="enable"><title>(0.0193667,114)</title></rect><rect x="102" y="193.448" width="6" height="6.55226" stroke="black" stroke-width="1" fill="blue" opacity="1" tooltip="enable"><title>(0.0205772,84)</title></rect><rect x="108" y="193.838" width="6" height="6.16225" stroke="black" stroke-width="1" fill="blue" opacity="1" tooltip="enable"><title>(0.0217876,79)</title></rect><rect x="114" y="194.15" width="6" height="5.85023" stroke="black" stroke-width="1" fill="blue" opacity="1" tooltip="enable"><title>(0.022998,75)</title></rect><rect x="120" y="194.228" width="6" height="5.77223" stroke="black" stroke-width="1" fill="blue" opacity="1" tooltip="enable"><title>(0.0242084,74)</title></rect><rect x="126" y="194.54" width="6" height="5.46022" stroke="black" stroke-width="1" fill="blue" opacity="1" tooltip="enable"><title>(0.0254188,70)</title></rect><rect x="132" y="195.32" width="6" height="4.68019" stroke="black" stroke-width="1" fill="blue" opacity="1" tooltip="enable"><title>(0.0266293,60)</title></rect><rect x="138" y="194.072" width="6" height="5.92824" stroke="black" stroke-width="1" fill="blue" opacity="1" tooltip="enable"><title>(0.0278397,76)</title></rect><rect x="144" y="196.412" width="6" height="3.58814" stroke="black" stroke-width="1" fill="blue" opacity="1" tooltip="enable"><title>(0.0290501,46)</title></rect><rect x="150" y="196.178" width="6" height="3.82215" stroke="black" stroke-width="1" fill="blue" opacity="1" tooltip="enable"><title>(0.0302605,49)</title></rect><rect x="156" y="197.114" width="6" height="2.88612" stroke="black" stroke-width="1" fill="blue" opacity="1" tooltip="enable"><title>(0.0314709,37)</title></rect><rect x="162" y="196.256" width="6" height="3.74415" stroke="black" stroke-width="1" fill="blue" opacity="1" tooltip="enable"><title>(0.0326814,48)</title></rect><rect x="168" y="196.256" width="6" height="3.74415" stroke="black" stroke-width="1" fill="blue" opacity="1" tooltip="enable"><title>(0.0338918,48)</title></rect><rect x="174" y="196.88" width="6" height="3.12012" stroke="black" stroke-width="1" fill="blue" opacity="1" tooltip="enable"><title>(0.0351022,40)</title></rect><rect x="180" y="195.476" width="6" height="4.52418" stroke="black" stroke-width="1" fill="blue" opacity="1" tooltip="enable"><title>(0.0363126,58)</title></rect><rect x="186" y="196.178" width="6" height="3.82215" stroke="black" stroke-width="1" fill="blue" opacity="1" tooltip="enable"><title>(0.037523,49)</title></rect><rect x="192" y="196.958" width="6" height="3.04212" stroke="black" stroke-width="1" fill="blue" opacity="1" tooltip="enable"><title>(0.0387335,39)</title></rect><rect x="198" y="195.242" width="6" height="4.75819" stroke="black" stroke-width="1" fill="blue" opacity="1" tooltip="enable"><title>(0.0399439,61)</title></rect><rect x="204" y="196.334" width="6" height="3.66615" stroke="black" stroke-width="1" fill="blue" opacity="1" tooltip="enable"><title>(0.0411543,47)</title></rect><rect x="210" y="196.256" width="6" height="3.74415" stroke="black" stroke-width="1" fill="blue" opacity="1" tooltip="enable"><title>(0.0423647,48)</title></rect><rect x="216" y="197.036" width="6" height="2.96412" stroke="black" stroke-width="1" fill="blue" opacity="1" tooltip="enable"><title>(0.0435751,38)</title></rect><rect x="222" y="197.348" width="6" height="2.65211" stroke="black" stroke-width="1" fill="blue" opacity="1" tooltip="enable"><title>(0.0447856,34)</title></rect><rect x="228" y="197.504" width="6" height="2.4961" stroke="black" stroke-width="1" fill="blue" opacity="1" tooltip="enable"><title>(0.045996,32)</title></rect><rect x="234" y="197.426" width="6" height="2.5741" stroke="black" stroke-width="1" fill="blue" opacity="1" tooltip="enable"><title>(0.0472064,33)</title></rect><rect x="240" y="197.738" width="6" height="2.26209" stroke="black" stroke-width="1" fill="blue" opacity="1" tooltip="enable"><title>(0.0484168,29)</title></rect><rect x="246" y="196.568" width="6" height="3.43214" stroke="black" stroke-width="1" fill="blue" opacity="1" tooltip="enable"><title>(0.0496272,44)</title></rect><rect x="252" y="197.894" width="6" height="2.10608" stroke="black" stroke-width="1" fill="blue" opacity="1" tooltip="enable"><title>(0.0508377,27)</title></rect><rect x="258" y="198.128" width="6" height="1.87207" stroke="black" stroke-width="1" fill="blue" opacity="1" tooltip="enable"><title>(0.0520481,24)</title></rect><rect x="264" y="197.816" width="6" height="2.18409" stroke="black" stroke-width="1" fill="blue" opacity="1" tooltip="enable"><title>(0.0532585,28)</title></rect><rect x="270" y="197.738" width="6" height="2.26209" stroke="black" stroke-width="1" fill="blue" opacity="1" tooltip="enable"><title>(0.0544689,29)</title></rect><rect x="276" y="198.128" width="6" height="1.87207" stroke="black" stroke-width="1" fill="blue" opacity="1" tooltip="enable"><title>(0.0556794,24)</title></rect><rect x="282" y="198.596" width="6" height="1.40406" stroke="black" stroke-width="1" fill="blue" opacity="1" tooltip="enable"><title>(0.0568898,18)</title></rect><rect x="288" y="199.22" width="6" height="0.780031" stroke="black" stroke-width="1" fill="blue" opacity="1" tooltip="enable"><title>(0.0581002,10)</title></rect><rect x="294" y="198.128" width="6" height="1.87207" stroke="black" stroke-width="1" fill="blue" opacity="1" tooltip="enable"><title>(0.0593106,24)</title></rect><rect x="300" y="198.752" width="6" height="1.24805" stroke="black" stroke-width="1" fill="blue" opacity="1" tooltip="enable"><title>(0.060521,16)</title></rect><rect x="306" y="199.22" width="6" height="0.780031" stroke="black" stroke-width="1" fill="blue" opacity="1" tooltip="enable"><title>(0.0617315,10)</title></rect><rect x="312" y="199.064" width="6" height="0.936037" stroke="black" stroke-width="1" fill="blue" opacity="1" tooltip="enable"><title>(0.0629419,12)</title></rect><rect x="318" y="199.376" width="6" height="0.624025" stroke="black" stroke-width="1" fill="blue" opacity="1" tooltip="enable"><title>(0.0641523,8)</title></rect><rect x="324" y="199.064" width="6" height="0.936037" stroke="black" stroke-width="1" fill="blue" opacity="1" tooltip="enable"><title>(0.0653627,12)</title></rect><rect x="330" y="198.284" width="6" height="1.71607" stroke="black" stroke-width="1" fill="blue" opacity="1" tooltip="enable"><title>(0.0665731,22)</title></rect><rect x="336" y="199.688" width="6" height="0.312012" stroke="black" stroke-width="1" fill="blue" opacity="1" tooltip="enable"><title>(0.0677836,4)</title></rect><rect x="342" y="199.844" width="6" height="0.156006" stroke="black" stroke-width="1" fill="blue" opacity="1" tooltip="enable"><title>(0.068994,2)</title></rect><rect x="348" y="200" width="6" height="0" stroke="black" stroke-width="1" fill="blue" opacity="1" tooltip="enable"><title>(0.0702044,0)</title></rect><rect x="354" y="199.766" width="6" height="0.234009" stroke="black" stroke-width="1" fill="blue" opacity="1" tooltip="enable"><title>(0.0714148,3)</title></rect><rect x="360" y="199.61" width="6" height="0.390016" stroke="black" stroke-width="1" fill="blue" opacity="1" tooltip="enable"><title>(0.0726252,5)</title></rect><rect x="366" y="199.22" width="6" height="0.780031" stroke="black" stroke-width="1" fill="blue" opacity="1" tooltip="enable"><title>(0.0738357,10)</title></rect><rect x="372" y="199.376" width="6" height="0.624025" stroke="black" stroke-width="1" fill="blue" opacity="1" tooltip="enable"><title>(0.0750461,8)</title></rect><rect x="378" y="199.376" width="6" height="0.624025" stroke="black" stroke-width="1" fill="blue" opacity="1" tooltip="enable"><title>(0.0762565,8)</title></rect><rect x="384" y="199.844" width="6" height="0.156006" stroke="black" stroke-width="1" fill="blue" opacity="1" tooltip="enable"><title>(0.0774669,2)</title></rect><rect x="390" y="199.532" width="6" height="0.468019" stroke="black" stroke-width="1" fill="blue" opacity="1" tooltip="enable"><title>(0.0786773,6)</title></rect><rect x="396" y="199.688" width="6" height="0.312012" stroke="black" stroke-width="1" fill="blue" opacity="1" tooltip="enable"><title>(0.0798878,4)</title></rect><rect x="402" y="199.532" width="6" height="0.468019" stroke="black" stroke-width="1" fill="blue" opacity="1" tooltip="enable"><title>(0.0810982,6)</title></rect><rect x="408" y="200" width="6" height="0" stroke="black" stroke-width="1" fill="blue" opacity="1" tooltip="enable"><title>(0.0823086,0)</title></rect><rect x="414" y="199.844" width="6" height="0.156006" stroke="black" stroke-width="1" fill="blue" opacity="1" tooltip="enable"><title>(0.083519,2)</title></rect><rect x="420" y="200" width="6" height="0" stroke="black" stroke-width="1" fill="blue" opacity="1" tooltip="enable"><title>(0.0847294,0)</title></rect><rect x="426" y="199.844" width="6" height="0.156006" stroke="black" stroke-width="1" fill="blue" opacity="1" tooltip="enable"><title>(0.0859399,2)</title></rect><rect x="432" y="199.688" width="6" height="0.312012" stroke="black" stroke-width="1" fill="blue" opacity="1" tooltip="enable"><title>(0.0871503,4)</title></rect><rect x="438" y="200" width="6" height="0" stroke="black" stroke-width="1" fill="blue" opacity="1" tooltip="enable"><title>(0.0883607,0)</title></rect><rect x="444" y="199.844" width="6" height="0.156006" stroke="black" stroke-width="1" fill="blue" opacity="1" tooltip="enable"><title>(0.0895711,2)</title></rect><rect x="450" y="200" width="6" height="0" stroke="black" stroke-width="1" fill="blue" opacity="1" tooltip="enable"><title>(0.0907815,0)</title></rect><rect x="456" y="200" width="6" height="0" stroke="black" stroke-width="1" fill="blue" opacity="1" tooltip="enable"><title>(0.091992,0)</title></rect><rect x="462" y="199.688" width="6" height="0.312012" stroke="black" stroke-width="1" fill="blue" opacity="1" tooltip="enable"><title>(0.0932024,4)</title></rect><rect x="468" y="199.844" width="6" height="0.156006" stroke="black" stroke-width="1" fill="blue" opacity="1" tooltip="enable"><title>(0.0944128,2)</title></rect><rect x="474" y="199.844" width="6" height="0.156006" stroke="black" stroke-width="1" fill="blue" opacity="1" tooltip="enable"><title>(0.0956232,2)</title></rect><rect x="480" y="199.844" width="6" height="0.156006" stroke="black" stroke-width="1" fill="blue" opacity="1" tooltip="enable"><title>(0.0968337,2)</title></rect><rect x="486" y="199.688" width="6" height="0.312012" stroke="black" stroke-width="1" fill="blue" opacity="1" tooltip="enable"><title>(0.0980441,4)</title></rect><rect x="492" y="199.844" width="6" height="0.156006" stroke="black" stroke-width="1" fill="blue" opacity="1" tooltip="enable"><title>(0.0992545,2)</title></rect><rect x="498" y="199.922" width="6" height="0.0780031" stroke="black" stroke-width="1" fill="blue" opacity="1" tooltip="enable"><title>(0.100465,1)</title></rect><rect x="504" y="199.766" width="6" height="0.234009" stroke="black" stroke-width="1" fill="blue" opacity="1" tooltip="enable"><title>(0.101675,3)</title></rect><rect x="510" y="200" width="6" height="0" stroke="black" stroke-width="1" fill="blue" opacity="1" tooltip="enable"><title>(0.102886,0)</title></rect><rect x="516" y="200" width="6" height="0" stroke="black" stroke-width="1" fill="blue" opacity="1" tooltip="enable"><title>(0.104096,0)</title></rect><rect x="522" y="200" width="6" height="0" stroke="black" stroke-width="1" fill="blue" opacity="1" tooltip="enable"><title>(0.105307,0)</title></rect><rect x="528" y="200" width="6" height="0" stroke="black" stroke-width="1" fill="blue" opacity="1" tooltip="enable"><title>(0.106517,0)</title></rect><rect x="534" y="200" width="6" height="0" stroke="black" stroke-width="1" fill="blue" opacity="1" tooltip="enable"><title>(0.107727,0)</title></rect><rect x="540" y="200" width="6" height="0" stroke="black" stroke-width="1" fill="blue" opacity="1" tooltip="enable"><title>(0.108938,0)</title></rect><rect x="546" y="200" width="6" height="0" stroke="black" stroke-width="1" fill="blue" opacity="1" tooltip="enable"><title>(0.110148,0)</title></rect><rect x="552" y="199.844" width="6" height="0.156006" stroke="black" stroke-width="1" fill="blue" opacity="1" tooltip="enable"><title>(0.111359,2)</title></rect><rect x="558" y="200" width="6" height="0" stroke="black" stroke-width="1" fill="blue" opacity="1" tooltip="enable"><title>(0.112569,0)</title></rect><rect x="564" y="200" width="6" height="0" stroke="black" stroke-width="1" fill="blue" opacity="1" tooltip="enable"><title>(0.11378,0)</title></rect><rect x="570" y="200" width="6" height="0" stroke="black" stroke-width="1" fill="blue" opacity="1" tooltip="enable"><title>(0.11499,0)</title></rect><rect x="576" y="200" width="6" height="0" stroke="black" stroke-width="1" fill="blue" opacity="1" tooltip="enable"><title>(0.1162,0)</title></rect><rect x="582" y="200" width="6" height="0" stroke="black" stroke-width="1" fill="blue" opacity="1" tooltip="enable"><title>(0.117411,0)</title></rect><rect x="588" y="200" width="6" height="0" stroke="black" stroke-width="1" fill="blue" opacity="1" tooltip="enable"><title>(0.118621,0)</title></rect><rect x="594" y="199.922" width="6" height="0.0780031" stroke="black" stroke-width="1" fill="blue" opacity="1" tooltip="enable"><title>(0.119832,1)</title></rect><text x="30" y="240" font-size="20" fill="black">0</text>
<text x="600" y="240" font-size="20" fill="black">0.121042</text>
<polyline points="0,220,600,220" stroke="black" stroke-width="1" fill="none" opacity="1"/>
<text x="720" y="20" font-size="20" fill="black">2564</text>
<text x="720" y="200" font-size="20" fill="black">0</text>
<polyline points="660,0,660,200" stroke="black" stroke-width="1" fill="none" opacity="1"/>
</svg>