<?xml version="1.0" standalone="yes"?>
<!-- SVG graphic -->
<svg xmlns='http://www.w3.org/2000/svg' xmlns:xlink='http://www.w3.org/1999/xlink'
 version="1.1">
<rect x="0" y="0" width="6" height="200" stroke="black" stroke-width="1" fill="blue" opacity="1" tooltip="enable"><title>(0,2278)</title></rect><rect x="6" y="44.6883" width="6" height="155.312" stroke="black" stroke-width="1" fill="blue" opacity="1" tooltip="enable"><title>(0.00157579,1769)</title></rect><rect x="12" y="175.241" width="6" height="24.7586" stroke="black" stroke-width="1" fill="blue" opacity="1" tooltip="enable"><title>(0.00315157,282)</title></rect><rect x="18" y="185.601" width="6" height="14.3986" stroke="black" stroke-width="1" fill="blue" opacity="1" tooltip="enable"><title>(0.00472736,164)</title></rect><rect x="24" y="181.299" width="6" height="18.7006" stroke="black" stroke-width="1" fill="blue" opacity="1" tooltip="enable"><title>(0.00630315,213)</title></rect><rect x="30" y="187.709" width="6" height="12.2915" stroke="black" stroke-width="1" fill="blue" opacity="1" tooltip="enable"><title>(0.00787894,140)</title></rect><rect x="36" y="187.796" width="6" height="12.2037" stroke="black" stroke-width="1" fill="blue" opacity="1" tooltip="enable"><title>(0.00945473,139)</title></rect><rect x="42" y="183.933" width="6" height="16.0667" stroke="black" stroke-width="1" fill="blue" opacity="1" tooltip="enable"><title>(0.0110305,183)</title></rect><rect x="48" y="187.27" width="6" height="12.7305" stroke="black" stroke-width="1" fill="blue" opacity="1" tooltip="enable"><title>(0.0126063,145)</title></rect><rect x="54" y="184.811" width="6" height="15.1888" stroke="black" stroke-width="1" fill="blue" opacity="1" tooltip="enable"><title>(0.0141821,173)</title></rect><rect x="60" y="184.372" width="6" height="15.6277" stroke="black" stroke-width="1" fill="blue" opacity="1" tooltip="enable"><title>(0.0157579,178)</title></rect><rect x="66" y="185.338" width="6" height="14.662" stroke="black" stroke-width="1" fill="blue" opacity="1" tooltip="enable"><title>(0.0173337,167)</title></rect><rect x="72" y="185.689" width="6" height="14.3108" stroke="black" stroke-width="1" fill="blue" opacity="1" tooltip="enable"><title>(0.0189095,163)</title></rect><rect x="78" y="186.918" width="6" height="13.0817" stroke="black" stroke-width="1" fill="blue" opacity="1" tooltip="enable"><title>(0.0204852,149)</title></rect><rect x="84" y="184.899" width="6" height="15.101" stroke="black" stroke-width="1" fill="blue" opacity="1" tooltip="enable"><title>(0.022061,172)</title></rect><rect x="90" y="186.128" width="6" height="13.8718" stroke="black" stroke-width="1" fill="blue" opacity="1" tooltip="enable"><title>(0.0236368,158)</title></rect><rect x="96" y="187.094" width="6" height="12.9061" stroke="black" stroke-width="1" fill="blue" opacity="1" tooltip="enable"><title>(0.0252126,147)</title></rect><rect x="102" y="185.075" width="6" height="14.9254" stroke="black" stroke-width="1" fill="blue" opacity="1" tooltip="enable"><title>(0.0267884,170)</title></rect><rect x="108" y="186.655" width="6" height="13.345" stroke="black" stroke-width="1" fill="blue" opacity="1" tooltip="enable"><title>(0.0283642,152)</title></rect><rect x="114" y="186.655" width="6" height="13.345" stroke="black" stroke-width="1" fill="blue" opacity="1" tooltip="enable"><title>(0.02994,152)</title></rect><rect x="120" y="185.514" width="6" height="14.4864" stroke="black" stroke-width="1" fill="blue" opacity="1" tooltip="enable"><title>(0.0315158,165)</title></rect><rect x="126" y="188.85" width="6" height="11.1501" stroke="black" stroke-width="1" fill="blue" opacity="1" tooltip="enable"><title>(0.0330915,127)</title></rect><rect x="132" y="190.518" width="6" height="9.482" stroke="black" stroke-width="1" fill="blue" opacity="1" tooltip="enable"><title>(0.0346673,108)</title></rect><rect x="138" y="194.908" width="6" height="5.09219" stroke="black" stroke-width="1" fill="blue" opacity="1" tooltip="enable"><title>(0.0362431,58)</title></rect><rect x="144" y="194.205" width="6" height="5.79456" stroke="black" stroke-width="1" fill="blue" opacity="1" tooltip="enable"><title>(0.0378189,66)</title></rect><rect x="150" y="193.942" width="6" height="6.05795" stroke="black" stroke-width="1" fill="blue" opacity="1" tooltip="enable"><title>(0.0393947,69)</title></rect><rect x="156" y="195.171" width="6" height="4.8288" stroke="black" stroke-width="1" fill="blue" opacity="1" tooltip="enable"><title>(0.0409705,55)</title></rect><rect x="162" y="198.42" width="6" height="1.58033" stroke="black" stroke-width="1" fill="blue" opacity="1" tooltip="enable"><title>(0.0425463,18)</title></rect><rect x="168" y="197.893" width="6" height="2.10711" stroke="black" stroke-width="1" fill="blue" opacity="1" tooltip="enable"><title>(0.0441221,24)</title></rect><rect x="174" y="198.946" width="6" height="1.05356" stroke="black" stroke-width="1" fill="blue" opacity="1" tooltip="enable"><title>(0.0456978,12)</title></rect><rect x="180" y="198.771" width="6" height="1.22915" stroke="black" stroke-width="1" fill="blue" opacity="1" tooltip="enable"><title>(0.0472736,14)</title></rect><rect x="186" y="198.068" width="6" height="1.93152" stroke="black" stroke-width="1" fill="blue" opacity="1" tooltip="enable"><title>(0.0488494,22)</title></rect><rect x="192" y="199.298" width="6" height="0.702371" stroke="black" stroke-width="1" fill="blue" opacity="1" tooltip="enable"><title>(0.0504252,8)</title></rect><rect x="198" y="199.122" width="6" height="0.877963" stroke="black" stroke-width="1" fill="blue" opacity="1" tooltip="enable"><title>(0.052001,10)</title></rect><rect x="204" y="199.473" width="6" height="0.526778" stroke="black" stroke-width="1" fill="blue" opacity="1" tooltip="enable"><title>(0.0535768,6)</title></rect><rect x="210" y="198.595" width="6" height="1.40474" stroke="black" stroke-width="1" fill="blue" opacity="1" tooltip="enable"><title>(0.0551526,16)</title></rect><rect x="216" y="199.824" width="6" height="0.175593" stroke="black" stroke-width="1" fill="blue" opacity="1" tooltip="enable"><title>(0.0567284,2)</title></rect><rect x="222" y="199.473" width="6" height="0.526778" stroke="black" stroke-width="1" fill="blue" opacity="1" tooltip="enable"><title>(0.0583041,6)</title></rect><rect x="228" y="199.473" width="6" height="0.526778" stroke="black" stroke-width="1" fill="blue" opacity="1" tooltip="enable"><title>(0.0598799,6)</title></rect><rect x="234" y="199.912" width="6" height="0.0877963" stroke="black" stroke-width="1" fill="blue" opacity="1" tooltip="enable"><title>(0.0614557,1)</title></rect><rect x="240" y="199.21" width="6" height="0.790167" stroke="black" stroke-width="1" fill="blue" opacity="1" tooltip="enable"><title>(0.0630315,9)</title></rect><rect x="246" y="199.649" width="6" height="0.351185" stroke="black" stroke-width="1" fill="blue" opacity="1" tooltip="enable"><title>(0.0646073,4)</title></rect><rect x="252" y="199.122" width="6" height="0.877963" stroke="black" stroke-width="1" fill="blue" opacity="1" tooltip="enable"><title>(0.0661831,10)</title></rect><rect x="258" y="199.649" width="6" height="0.351185" stroke="black" stroke-width="1" fill="blue" opacity="1" tooltip="enable"><title>(0.0677589,4)</title></rect><rect x="264" y="199.649" width="6" height="0.351185" stroke="black" stroke-width="1" fill="blue" opacity="1" tooltip="enable"><title>(0.0693346,4)</title></rect><rect x="270" y="200" width="6" height="0" stroke="black" stroke-width="1" fill="blue" opacity="1" tooltip="enable"><title>(0.0709104,0)</title></rect><rect x="276" y="199.649" width="6" height="0.351185" stroke="black" stroke-width="1" fill="blue" opacity="1" tooltip="enable"><title>(0.0724862,4)</title></rect><rect x="282" y="199.824" width="6" height="0.175593" stroke="black" stroke-width="1" fill="blue" opacity="1" tooltip="enable"><title>(0.074062,2)</title></rect><rect x="288" y="199.824" width="6" height="0.175593" stroke="black" stroke-width="1" fill="blue" opacity="1" tooltip="enable"><title>(0.0756378,2)</title></rect><rect x="294" y="200" width="6" height="0" stroke="black" stroke-width="1" fill="blue" opacity="1" tooltip="enable"><title>(0.0772136,0)</title></rect><rect x="300" y="199.824" width="6" height="0.175593" stroke="black" stroke-width="1" fill="blue" opacity="1" tooltip="enable"><title>(0.0787894,2)</title></rect><rect x="306" y="199.649" width="6" height="0.351185" stroke="black" stroke-width="1" fill="blue" opacity="1" tooltip="enable"><title>(0.0803652,4)</title></rect><rect x="312" y="200" width="6" height="0" stroke="black" stroke-width="1" fill="blue" opacity="1" tooltip="enable"><title>(0.0819409,0)</title></rect><rect x="318" y="200" width="6" height="0" stroke="black" stroke-width="1" fill="blue" opacity="1" tooltip="enable"><title>(0.0835167,0)</title></rect><rect x="324" y="199.824" width="6" height="0.175593" stroke="black" stroke-width="1" fill="blue" opacity="1" tooltip="enable"><title>(0.0850925,2)</title></rect><rect x="330" y="200" width="6" height="0" stroke="black" stroke-width="1" fill="blue" opacity="1" tooltip="enable"><title>(0.0866683,0)</title></rect><rect x="336" y="200" width="6" height="0" stroke="black" stroke-width="1" fill="blue" opacity="1" tooltip="enable"><title>(0.0882441,0)</title></rect><rect x="342" y="199.824" width="6" height="0.175593" stroke="black" stroke-width="1" fill="blue" opacity="1" tooltip="enable"><title>(0.0898199,2)</title></rect><rect x="348" y="199.824" width="6" height="0.175593" stroke="black" stroke-width="1" fill="blue" opacity="1" tooltip="enable"><title>(0.0913957,2)</title></rect><rect x="354" y="199.473" width="6" height="0.526778" stroke="black" stroke-width="1" fill="blue" opacity="1" tooltip="enable"><title>(0.0929715,6)</title></rect><rect x="360" y="199.824" width="6" height="0.175593" stroke="black" stroke-width="1" fill="blue" opacity="1" tooltip="enable"><title>(0.0945473,2)</title></rect><rect x="366" y="200" width="6" height="0" stroke="black" stroke-width="1" fill="blue" opacity="1" tooltip="enable"><title>(0.096123,0)</title></rect><rect x="372" y="199.649" width="6" height="0.351185" stroke="black" stroke-width="1" fill="blue" opacity="1" tooltip="enable"><title>(0.0976988,4)</title></rect><rect x="378" y="199.824" width="6" height="0.175593" stroke="black" stroke-width="1" fill="blue" opacity="1" tooltip="enable"><title>(0.0992746,2)</title></rect><rect x="384" y="199.824" width="6" height="0.175593" stroke="black" stroke-width="1" fill="blue" opacity="1" tooltip="enable"><title>(0.10085,2)</title></rect><rect x="390" y="200" width="6" height="0" stroke="black" stroke-width="1" fill="blue" opacity="1" tooltip="enable"><title>(0.102426,0)</title></rect><rect x="396" y="200" width="6" height="0" stroke="black" stroke-width="1" fill="blue" opacity="1" tooltip="enable"><title>(0.104002,0)</title></rect><rect x="402" y="199.473" width="6" height="0.526778" stroke="black" stroke-width="1" fill="blue" opacity="1" tooltip="enable"><title>(0.105578,6)</title></rect><rect x="408" y="199.649" width="6" height="0.351185" stroke="black" stroke-width="1" fill="blue" opacity="1" tooltip="enable"><title>(0.107154,4)</title></rect><rect x="414" y="200" width="6" height="0" stroke="black" stroke-width="1" fill="blue" opacity="1" tooltip="enable"><title>(0.108729,0)</title></rect><rect x="420" y="199.824" width="6" height="0.175593" stroke="black" stroke-width="1" fill="blue" opacity="1" tooltip="enable"><title>(0.110305,2)</title></rect><rect x="426" y="199.649" width="6" height="0.351185" stroke="black" stroke-width="1" fill="blue" opacity="1" tooltip="enable"><title>(0.111881,4)</title></rect><rect x="432" y="199.824" width="6" height="0.175593" stroke="black" stroke-width="1" fill="blue" opacity="1" tooltip="enable"><title>(0.113457,2)</title></rect><rect x="438" y="200" width="6" height="0" stroke="black" stroke-width="1" fill="blue" opacity="1" tooltip="enable"><title>(0.115032,0)</title></rect><rect x="444" y="199.473" width="6" height="0.526778" stroke="black" stroke-width="1" fill="blue" opacity="1" tooltip="enable"><title>(0.116608,6)</title></rect><rect x="450" y="199.912" width="6" height="0.0877963" stroke="black" stroke-width="1" fill="blue" opacity="1" tooltip="enable"><title>(0.118184,1)</title></rect><rect x="456" y="199.912" width="6" height="0.0877963" stroke="black" stroke-width="1" fill="blue" opacity="1" tooltip="enable"><title>(0.11976,1)</title></rect><rect x="462" y="200" width="6" height="0" stroke="black" stroke-width="1" fill="blue" opacity="1" tooltip="enable"><title>(0.121336,0)</title></rect><rect x="468" y="200" width="6" height="0" stroke="black" stroke-width="1" fill="blue" opacity="1" tooltip="enable"><title>(0.122911,0)</title></rect><rect x="474" y="199.824" width="6" height="0.175593" stroke="black" stroke-width="1" fill="blue" opacity="1" tooltip="enable"><title>(0.124487,2)</title></rect><rect x="480" y="200" width="6" height="0" stroke="black" stroke-width="1" fill="blue" opacity="1" tooltip="enable"><title>(0.126063,0)</title></rect><rect x="486" y="199.824" width="6" height="0.175593" stroke="black" stroke-width="1" fill="blue" opacity="1" tooltip="enable"><title>(0.127639,2)</title></rect><rect x="492" y="199.824" width="6" height="0.175593" stroke="black" stroke-width="1" fill="blue" opacity="1" tooltip="enable"><title>(0.129215,2)</title></rect><rect x="498" y="199.649" width="6" height="0.351185" stroke="black" stroke-width="1" fill="blue" opacity="1" tooltip="enable"><title>(0.13079,4)</title></rect><rect x="504" y="200" width="6" height="0" stroke="black" stroke-width="1" fill="blue" opacity="1" tooltip="enable"><title>(0.132366,0)</title></rect><rect x="510" y="200" width="6" height="0" stroke="black" stroke-width="1" fill="blue" opacity="1" tooltip="enable"><title>(0.133942,0)</title></rect><rect x="516" y="199.824" width="6" height="0.175593" stroke="black" stroke-width="1" fill="blue" opacity="1" tooltip="enable"><title>(0.135518,2)</title></rect><rect x="522" y="200" width="6" height="0" stroke="black" stroke-width="1" fill="blue" opacity="1" tooltip="enable"><title>(0.137094,0)</title></rect><rect x="528" y="199.824" width="6" height="0.175593" stroke="black" stroke-width="1" fill="blue" opacity="1" tooltip="enable"><title>(0.138669,2)</title></rect><rect x="534" y="199.824" width="6" height="0.175593" stroke="black" stroke-width="1" fill="blue" opacity="1" tooltip="enable"><title>(0.140245,2)</title></rect><rect x="540" y="200" width="6" height="0" stroke="black" stroke-width="1" fill="blue" opacity="1" tooltip="enable"><title>(0.141821,0)</title></rect><rect x="546" y="200" width="6" height="0" stroke="black" stroke-width="1" fill="blue" opacity="1" tooltip="enable"><title>(0.143397,0)</title></rect><rect x="552" y="199.912" width="6" height="0.0877963" stroke="black" stroke-width="1" fill="blue" opacity="1" tooltip="enable"><title>(0.144972,1)</title></rect><rect x="558" y="199.912" width="6" height="0.0877963" stroke="black" stroke-width="1" fill="blue" opacity="1" tooltip="enable"><title>(0.146548,1)</title></rect><rect x="564" y="200" width="6" height="0" stroke="black" stroke-width="1" fill="blue" opacity="1" tooltip="enable"><title>(0.148124,0)</title></rect><rect x="570" y="200" width="6" height="0" stroke="black" stroke-width="1" fill="blue" opacity="1" tooltip="enable"><title>(0.1497,0)</title></rect><rect x="576" y="200" width="6" height="0" stroke="black" stroke-width="1" fill="blue" opacity="1" tooltip="enable"><title>(0.151276,0)</title></rect><rect x="582" y="200" width="6" height="0" stroke="black" stroke-width="1" fill="blue" opacity="1" tooltip="enable"><title>(0.152851,0)</title></rect><rect x="588" y="200" width="6" height="0" stroke="black" stroke-width="1" fill="blue" opacity="1" tooltip="enable"><title>(0.154427,0)</title></rect><rect x="594" y="199.912" width="6" height="0.0877963" stroke="black" stroke-width="1" fill="blue" opacity="1" tooltip="enable"><title>(0.156003,1)</title></rect><text x="30" y="240" font-size="20" fill="black">0</text>
<text x="600" y="240" font-size="20" fill="black">0.157579</text>
<polyline points="0,220,600,220" stroke="black" stroke-width="1" fill="none" opacity="1"/>
<text x="720" y="20" font-size="20" fill="black">2278</text>
<text x="720" y="200" font-size="20" fill="black">0</text>
<polyline points="660,0,660,200" stroke="black" stroke-width="1" fill="none" opacity="1"/>
</svg>