<?xml version="1.0" standalone="yes"?>
<!-- SVG graphic -->
<svg xmlns='http://www.w3.org/2000/svg' xmlns:xlink='http://www.w3.org/1999/xlink'
 version="1.1">
<rect x="0" y="20.3704" width="6" height="179.63" stroke="black" stroke-width="1" fill="blue" opacity="1" tooltip="enable"><title>(0,1164)</title></rect><rect x="6" y="26.3889" width="6" height="173.611" stroke="black" stroke-width="1" fill="blue" opacity="1" tooltip="enable"><title>(0.00126525,1125)</title></rect><rect x="12" y="0" width="6" height="200" stroke="black" stroke-width="1" fill="blue" opacity="1" tooltip="enable"><title>(0.00253049,1296)</title></rect><rect x="18" y="114.043" width="6" height="85.9568" stroke="black" stroke-width="1" fill="blue" opacity="1" tooltip="enable"><title>(0.00379574,557)</title></rect><rect x="24" y="168.21" width="6" height="31.7901" stroke="black" stroke-width="1" fill="blue" opacity="1" tooltip="enable"><title>(0.00506098,206)</title></rect><rect x="30" y="171.759" width="6" height="28.2407" stroke="black" stroke-width="1" fill="blue" opacity="1" tooltip="enable"><title>(0.00632623,183)</title></rect><rect x="36" y="178.241" width="6" height="21.7593" stroke="black" stroke-width="1" fill="blue" opacity="1" tooltip="enable"><title>(0.00759148,141)</title></rect><rect x="42" y="184.568" width="6" height="15.4321" stroke="black" stroke-width="1" fill="blue" opacity="1" tooltip="enable"><title>(0.00885672,100)</title></rect><rect x="48" y="185.031" width="6" height="14.9691" stroke="black" stroke-width="1" fill="blue" opacity="1" tooltip="enable"><title>(0.010122,97)</title></rect><rect x="54" y="185.031" width="6" height="14.9691" stroke="black" stroke-width="1" fill="blue" opacity="1" tooltip="enable"><title>(0.0113872,97)</title></rect><rect x="60" y="179.012" width="6" height="20.9877" stroke="black" stroke-width="1" fill="blue" opacity="1" tooltip="enable"><title>(0.0126525,136)</title></rect><rect x="66" y="182.099" width="6" height="17.9012" stroke="black" stroke-width="1" fill="blue" opacity="1" tooltip="enable"><title>(0.0139177,116)</title></rect><rect x="72" y="185.494" width="6" height="14.5062" stroke="black" stroke-width="1" fill="blue" opacity="1" tooltip="enable"><title>(0.015183,94)</title></rect><rect x="78" y="185.648" width="6" height="14.3519" stroke="black" stroke-width="1" fill="blue" opacity="1" tooltip="enable"><title>(0.0164482,93)</title></rect><rect x="84" y="187.963" width="6" height="12.037" stroke="black" stroke-width="1" fill="blue" opacity="1" tooltip="enable"><title>(0.0177134,78)</title></rect><rect x="90" y="187.654" width="6" height="12.3457" stroke="black" stroke-width="1" fill="blue" opacity="1" tooltip="enable"><title>(0.0189787,80)</title></rect><rect x="96" y="183.179" width="6" height="16.821" stroke="black" stroke-width="1" fill="blue" opacity="1" tooltip="enable"><title>(0.0202439,109)</title></rect><rect x="102" y="187.654" width="6" height="12.3457" stroke="black" stroke-width="1" fill="blue" opacity="1" tooltip="enable"><title>(0.0215092,80)</title></rect><rect x="108" y="186.111" width="6" height="13.8889" stroke="black" stroke-width="1" fill="blue" opacity="1" tooltip="enable"><title>(0.0227744,90)</title></rect><rect x="114" y="185.185" width="6" height="14.8148" stroke="black" stroke-width="1" fill="blue" opacity="1" tooltip="enable"><title>(0.0240397,96)</title></rect><rect x="120" y="179.63" width="6" height="20.3704" stroke="black" stroke-width="1" fill="blue" opacity="1" tooltip="enable"><title>(0.0253049,132)</title></rect><rect x="126" y="182.716" width="6" height="17.284" stroke="black" stroke-width="1" fill="blue" opacity="1" tooltip="enable"><title>(0.0265702,112)</title></rect><rect x="132" y="178.549" width="6" height="21.4506" stroke="black" stroke-width="1" fill="blue" opacity="1" tooltip="enable"><title>(0.0278354,139)</title></rect><rect x="138" y="181.019" width="6" height="18.9815" stroke="black" stroke-width="1" fill="blue" opacity="1" tooltip="enable"><title>(0.0291007,123)</title></rect><rect x="144" y="183.642" width="6" height="16.358" stroke="black" stroke-width="1" fill="blue" opacity="1" tooltip="enable"><title>(0.0303659,106)</title></rect><rect x="150" y="184.105" width="6" height="15.8951" stroke="black" stroke-width="1" fill="blue" opacity="1" tooltip="enable"><title>(0.0316311,103)</title></rect><rect x="156" y="188.117" width="6" height="11.8827" stroke="black" stroke-width="1" fill="blue" opacity="1" tooltip="enable"><title>(0.0328964,77)</title></rect><rect x="162" y="181.019" width="6" height="18.9815" stroke="black" stroke-width="1" fill="blue" opacity="1" tooltip="enable"><title>(0.0341616,123)</title></rect><rect x="168" y="189.352" width="6" height="10.6481" stroke="black" stroke-width="1" fill="blue" opacity="1" tooltip="enable"><title>(0.0354269,69)</title></rect><rect x="174" y="183.333" width="6" height="16.6667" stroke="black" stroke-width="1" fill="blue" opacity="1" tooltip="enable"><title>(0.0366921,108)</title></rect><rect x="180" y="187.5" width="6" height="12.5" stroke="black" stroke-width="1" fill="blue" opacity="1" tooltip="enable"><title>(0.0379574,81)</title></rect><rect x="186" y="185.494" width="6" height="14.5062" stroke="black" stroke-width="1" fill="blue" opacity="1" tooltip="enable"><title>(0.0392226,94)</title></rect><rect x="192" y="190.741" width="6" height="9.25926" stroke="black" stroke-width="1" fill="blue" opacity="1" tooltip="enable"><title>(0.0404879,60)</title></rect><rect x="198" y="187.191" width="6" height="12.8086" stroke="black" stroke-width="1" fill="blue" opacity="1" tooltip="enable"><title>(0.0417531,83)</title></rect><rect x="204" y="190.278" width="6" height="9.72222" stroke="black" stroke-width="1" fill="blue" opacity="1" tooltip="enable"><title>(0.0430184,63)</title></rect><rect x="210" y="190.586" width="6" height="9.41358" stroke="black" stroke-width="1" fill="blue" opacity="1" tooltip="enable"><title>(0.0442836,61)</title></rect><rect x="216" y="192.13" width="6" height="7.87037" stroke="black" stroke-width="1" fill="blue" opacity="1" tooltip="enable"><title>(0.0455489,51)</title></rect><rect x="222" y="191.049" width="6" height="8.95062" stroke="black" stroke-width="1" fill="blue" opacity="1" tooltip="enable"><title>(0.0468141,58)</title></rect><rect x="228" y="191.204" width="6" height="8.7963" stroke="black" stroke-width="1" fill="blue" opacity="1" tooltip="enable"><title>(0.0480793,57)</title></rect><rect x="234" y="193.673" width="6" height="6.32716" stroke="black" stroke-width="1" fill="blue" opacity="1" tooltip="enable"><title>(0.0493446,41)</title></rect><rect x="240" y="196.451" width="6" height="3.54938" stroke="black" stroke-width="1" fill="blue" opacity="1" tooltip="enable"><title>(0.0506098,23)</title></rect><rect x="246" y="196.914" width="6" height="3.08642" stroke="black" stroke-width="1" fill="blue" opacity="1" tooltip="enable"><title>(0.0518751,20)</title></rect><rect x="252" y="196.914" width="6" height="3.08642" stroke="black" stroke-width="1" fill="blue" opacity="1" tooltip="enable"><title>(0.0531403,20)</title></rect><rect x="258" y="195.988" width="6" height="4.01235" stroke="black" stroke-width="1" fill="blue" opacity="1" tooltip="enable"><title>(0.0544056,26)</title></rect><rect x="264" y="197.222" width="6" height="2.77778" stroke="black" stroke-width="1" fill="blue" opacity="1" tooltip="enable"><title>(0.0556708,18)</title></rect><rect x="270" y="198.611" width="6" height="1.38889" stroke="black" stroke-width="1" fill="blue" opacity="1" tooltip="enable"><title>(0.0569361,9)</title></rect><rect x="276" y="198.302" width="6" height="1.69753" stroke="black" stroke-width="1" fill="blue" opacity="1" tooltip="enable"><title>(0.0582013,11)</title></rect><rect x="282" y="199.074" width="6" height="0.925926" stroke="black" stroke-width="1" fill="blue" opacity="1" tooltip="enable"><title>(0.0594666,6)</title></rect><rect x="288" y="199.383" width="6" height="0.617284" stroke="black" stroke-width="1" fill="blue" opacity="1" tooltip="enable"><title>(0.0607318,4)</title></rect><rect x="294" y="198.457" width="6" height="1.54321" stroke="black" stroke-width="1" fill="blue" opacity="1" tooltip="enable"><title>(0.0619971,10)</title></rect><rect x="300" y="197.84" width="6" height="2.16049" stroke="black" stroke-width="1" fill="blue" opacity="1" tooltip="enable"><title>(0.0632623,14)</title></rect><rect x="306" y="199.074" width="6" height="0.925926" stroke="black" stroke-width="1" fill="blue" opacity="1" tooltip="enable"><title>(0.0645275,6)</title></rect><rect x="312" y="197.531" width="6" height="2.46914" stroke="black" stroke-width="1" fill="blue" opacity="1" tooltip="enable"><title>(0.0657928,16)</title></rect><rect x="318" y="199.074" width="6" height="0.925926" stroke="black" stroke-width="1" fill="blue" opacity="1" tooltip="enable"><title>(0.067058,6)</title></rect><rect x="324" y="199.074" width="6" height="0.925926" stroke="black" stroke-width="1" fill="blue" opacity="1" tooltip="enable"><title>(0.0683233,6)</title></rect><rect x="330" y="199.383" width="6" height="0.617284" stroke="black" stroke-width="1" fill="blue" opacity="1" tooltip="enable"><title>(0.0695885,4)</title></rect><rect x="336" y="198.765" width="6" height="1.23457" stroke="black" stroke-width="1" fill="blue" opacity="1" tooltip="enable"><title>(0.0708538,8)</title></rect><rect x="342" y="199.074" width="6" height="0.925926" stroke="black" stroke-width="1" fill="blue" opacity="1" tooltip="enable"><title>(0.072119,6)</title></rect><rect x="348" y="199.537" width="6" height="0.462963" stroke="black" stroke-width="1" fill="blue" opacity="1" tooltip="enable"><title>(0.0733843,3)</title></rect><rect x="354" y="197.685" width="6" height="2.31481" stroke="black" stroke-width="1" fill="blue" opacity="1" tooltip="enable"><title>(0.0746495,15)</title></rect><rect x="360" y="199.074" width="6" height="0.925926" stroke="black" stroke-width="1" fill="blue" opacity="1" tooltip="enable"><title>(0.0759148,6)</title></rect><rect x="366" y="199.074" width="6" height="0.925926" stroke="black" stroke-width="1" fill="blue" opacity="1" tooltip="enable"><title>(0.07718,6)</title></rect><rect x="372" y="199.691" width="6" height="0.308642" stroke="black" stroke-width="1" fill="blue" opacity="1" tooltip="enable"><title>(0.0784452,2)</title></rect><rect x="378" y="199.691" width="6" height="0.308642" stroke="black" stroke-width="1" fill="blue" opacity="1" tooltip="enable"><title>(0.0797105,2)</title></rect><rect x="384" y="199.383" width="6" height="0.617284" stroke="black" stroke-width="1" fill="blue" opacity="1" tooltip="enable"><title>(0.0809757,4)</title></rect><rect x="390" y="200" width="6" height="0" stroke="black" stroke-width="1" fill="blue" opacity="1" tooltip="enable"><title>(0.082241,0)</title></rect><rect x="396" y="200" width="6" height="0" stroke="black" stroke-width="1" fill="blue" opacity="1" tooltip="enable"><title>(0.0835062,0)</title></rect><rect x="402" y="198.611" width="6" height="1.38889" stroke="black" stroke-width="1" fill="blue" opacity="1" tooltip="enable"><title>(0.0847715,9)</title></rect><rect x="408" y="198.611" width="6" height="1.38889" stroke="black" stroke-width="1" fill="blue" opacity="1" tooltip="enable"><title>(0.0860367,9)</title></rect><rect x="414" y="199.074" width="6" height="0.925926" stroke="black" stroke-width="1" fill="blue" opacity="1" tooltip="enable"><title>(0.087302,6)</title></rect><rect x="420" y="199.691" width="6" height="0.308642" stroke="black" stroke-width="1" fill="blue" opacity="1" tooltip="enable"><title>(0.0885672,2)</title></rect><rect x="426" y="200" width="6" height="0" stroke="black" stroke-width="1" fill="blue" opacity="1" tooltip="enable"><title>(0.0898325,0)</title></rect><rect x="432" y="199.383" width="6" height="0.617284" stroke="black" stroke-width="1" fill="blue" opacity="1" tooltip="enable"><title>(0.0910977,4)</title></rect><rect x="438" y="198.457" width="6" height="1.54321" stroke="black" stroke-width="1" fill="blue" opacity="1" tooltip="enable"><title>(0.092363,10)</title></rect><rect x="444" y="199.691" width="6" height="0.308642" stroke="black" stroke-width="1" fill="blue" opacity="1" tooltip="enable"><title>(0.0936282,2)</title></rect><rect x="450" y="199.691" width="6" height="0.308642" stroke="black" stroke-width="1" fill="blue" opacity="1" tooltip="enable"><title>(0.0948934,2)</title></rect><rect x="456" y="200" width="6" height="0" stroke="black" stroke-width="1" fill="blue" opacity="1" tooltip="enable"><title>(0.0961587,0)</title></rect><rect x="462" y="199.691" width="6" height="0.308642" stroke="black" stroke-width="1" fill="blue" opacity="1" tooltip="enable"><title>(0.0974239,2)</title></rect><rect x="468" y="199.691" width="6" height="0.308642" stroke="black" stroke-width="1" fill="blue" opacity="1" tooltip="enable"><title>(0.0986892,2)</title></rect><rect x="474" y="200" width="6" height="0" stroke="black" stroke-width="1" fill="blue" opacity="1" tooltip="enable"><title>(0.0999544,0)</title></rect><rect x="480" y="200" width="6" height="0" stroke="black" stroke-width="1" fill="blue" opacity="1" tooltip="enable"><title>(0.10122,0)</title></rect><rect x="486" y="200" width="6" height="0" stroke="black" stroke-width="1" fill="blue" opacity="1" tooltip="enable"><title>(0.102485,0)</title></rect><rect x="492" y="200" width="6" height="0" stroke="black" stroke-width="1" fill="blue" opacity="1" tooltip="enable"><title>(0.10375,0)</title></rect><rect x="498" y="199.846" width="6" height="0.154321" stroke="black" stroke-width="1" fill="blue" opacity="1" tooltip="enable"><title>(0.105015,1)</title></rect><rect x="504" y="199.537" width="6" height="0.462963" stroke="black" stroke-width="1" fill="blue" opacity="1" tooltip="enable"><title>(0.106281,3)</title></rect><rect x="510" y="199.691" width="6" height="0.308642" stroke="black" stroke-width="1" fill="blue" opacity="1" tooltip="enable"><title>(0.107546,2)</title></rect><rect x="516" y="200" width="6" height="0" stroke="black" stroke-width="1" fill="blue" opacity="1" tooltip="enable"><title>(0.108811,0)</title></rect><rect x="522" y="199.691" width="6" height="0.308642" stroke="black" stroke-width="1" fill="blue" opacity="1" tooltip="enable"><title>(0.110076,2)</title></rect><rect x="528" y="200" width="6" height="0" stroke="black" stroke-width="1" fill="blue" opacity="1" tooltip="enable"><title>(0.111342,0)</title></rect><rect x="534" y="199.074" width="6" height="0.925926" stroke="black" stroke-width="1" fill="blue" opacity="1" tooltip="enable"><title>(0.112607,6)</title></rect><rect x="540" y="200" width="6" height="0" stroke="black" stroke-width="1" fill="blue" opacity="1" tooltip="enable"><title>(0.113872,0)</title></rect><rect x="546" y="199.691" width="6" height="0.308642" stroke="black" stroke-width="1" fill="blue" opacity="1" tooltip="enable"><title>(0.115137,2)</title></rect><rect x="552" y="199.691" width="6" height="0.308642" stroke="black" stroke-width="1" fill="blue" opacity="1" tooltip="enable"><title>(0.116403,2)</title></rect><rect x="558" y="200" width="6" height="0" stroke="black" stroke-width="1" fill="blue" opacity="1" tooltip="enable"><title>(0.117668,0)</title></rect><rect x="564" y="199.691" width="6" height="0.308642" stroke="black" stroke-width="1" fill="blue" opacity="1" tooltip="enable"><title>(0.118933,2)</title></rect><rect x="570" y="200" width="6" height="0" stroke="black" stroke-width="1" fill="blue" opacity="1" tooltip="enable"><title>(0.120198,0)</title></rect><rect x="576" y="200" width="6" height="0" stroke="black" stroke-width="1" fill="blue" opacity="1" tooltip="enable"><title>(0.121464,0)</title></rect><rect x="582" y="200" width="6" height="0" stroke="black" stroke-width="1" fill="blue" opacity="1" tooltip="enable"><title>(0.122729,0)</title></rect><rect x="588" y="200" width="6" height="0" stroke="black" stroke-width="1" fill="blue" opacity="1" tooltip="enable"><title>(0.123994,0)</title></rect><rect x="594" y="199.846" width="6" height="0.154321" stroke="black" stroke-width="1" fill="blue" opacity="1" tooltip="enable"><title>(0.125259,1)</title></rect><text x="30" y="240" font-size="20" fill="black">0</text>
<text x="600" y="240" font-size="20" fill="black">0.126525</text>
<polyline points="0,220,600,220" stroke="black" stroke-width="1" fill="none" opacity="1"/>
<text x="720" y="20" font-size="20" fill="black">1296</text>
<text x="720" y="200" font-size="20" fill="black">0</text>
<polyline points="660,0,660,200" stroke="black" stroke-width="1" fill="none" opacity="1"/>
</svg>