<?xml version="1.0" standalone="yes"?>
<!-- SVG graphic -->
<svg xmlns='http://www.w3.org/2000/svg' xmlns:xlink='http://www.w3.org/1999/xlink'
 version="1.1">
<rect x="0" y="0" width="6" height="200" stroke="black" stroke-width="1" fill="blue" opacity="1" tooltip="enable"><title>(0,1892)</title></rect><rect x="6" y="38.3721" width="6" height="161.628" stroke="black" stroke-width="1" fill="blue" opacity="1" tooltip="enable"><title>(0.00175368,1529)</title></rect><rect x="12" y="91.4376" width="6" height="108.562" stroke="black" stroke-width="1" fill="blue" opacity="1" tooltip="enable"><title>(0.00350736,1027)</title></rect><rect x="18" y="152.96" width="6" height="47.0402" stroke="black" stroke-width="1" fill="blue" opacity="1" tooltip="enable"><title>(0.00526104,445)</title></rect><rect x="24" y="170.19" width="6" height="29.8097" stroke="black" stroke-width="1" fill="blue" opacity="1" tooltip="enable"><title>(0.00701472,282)</title></rect><rect x="30" y="173.89" width="6" height="26.1099" stroke="black" stroke-width="1" fill="blue" opacity="1" tooltip="enable"><title>(0.0087684,247)</title></rect><rect x="36" y="173.256" width="6" height="26.7442" stroke="black" stroke-width="1" fill="blue" opacity="1" tooltip="enable"><title>(0.0105221,253)</title></rect><rect x="42" y="178.541" width="6" height="21.4588" stroke="black" stroke-width="1" fill="blue" opacity="1" tooltip="enable"><title>(0.0122758,203)</title></rect><rect x="48" y="179.175" width="6" height="20.8245" stroke="black" stroke-width="1" fill="blue" opacity="1" tooltip="enable"><title>(0.0140294,197)</title></rect><rect x="54" y="179.81" width="6" height="20.1903" stroke="black" stroke-width="1" fill="blue" opacity="1" tooltip="enable"><title>(0.0157831,191)</title></rect><rect x="60" y="179.915" width="6" height="20.0846" stroke="black" stroke-width="1" fill="blue" opacity="1" tooltip="enable"><title>(0.0175368,190)</title></rect><rect x="66" y="179.175" width="6" height="20.8245" stroke="black" stroke-width="1" fill="blue" opacity="1" tooltip="enable"><title>(0.0192905,197)</title></rect><rect x="72" y="179.175" width="6" height="20.8245" stroke="black" stroke-width="1" fill="blue" opacity="1" tooltip="enable"><title>(0.0210442,197)</title></rect><rect x="78" y="182.77" width="6" height="17.2304" stroke="black" stroke-width="1" fill="blue" opacity="1" tooltip="enable"><title>(0.0227978,163)</title></rect><rect x="84" y="182.135" width="6" height="17.8647" stroke="black" stroke-width="1" fill="blue" opacity="1" tooltip="enable"><title>(0.0245515,169)</title></rect><rect x="90" y="182.03" width="6" height="17.9704" stroke="black" stroke-width="1" fill="blue" opacity="1" tooltip="enable"><title>(0.0263052,170)</title></rect><rect x="96" y="186.469" width="6" height="13.5307" stroke="black" stroke-width="1" fill="blue" opacity="1" tooltip="enable"><title>(0.0280589,128)</title></rect><rect x="102" y="189.746" width="6" height="10.2537" stroke="black" stroke-width="1" fill="blue" opacity="1" tooltip="enable"><title>(0.0298126,97)</title></rect><rect x="108" y="190.803" width="6" height="9.19662" stroke="black" stroke-width="1" fill="blue" opacity="1" tooltip="enable"><title>(0.0315662,87)</title></rect><rect x="114" y="192.283" width="6" height="7.7167" stroke="black" stroke-width="1" fill="blue" opacity="1" tooltip="enable"><title>(0.0333199,73)</title></rect><rect x="120" y="193.446" width="6" height="6.55391" stroke="black" stroke-width="1" fill="blue" opacity="1" tooltip="enable"><title>(0.0350736,62)</title></rect><rect x="126" y="196.089" width="6" height="3.91121" stroke="black" stroke-width="1" fill="blue" opacity="1" tooltip="enable"><title>(0.0368273,37)</title></rect><rect x="132" y="196.195" width="6" height="3.8055" stroke="black" stroke-width="1" fill="blue" opacity="1" tooltip="enable"><title>(0.038581,36)</title></rect><rect x="138" y="198.203" width="6" height="1.79704" stroke="black" stroke-width="1" fill="blue" opacity="1" tooltip="enable"><title>(0.0403346,17)</title></rect><rect x="144" y="197.357" width="6" height="2.64271" stroke="black" stroke-width="1" fill="blue" opacity="1" tooltip="enable"><title>(0.0420883,25)</title></rect><rect x="150" y="198.943" width="6" height="1.05708" stroke="black" stroke-width="1" fill="blue" opacity="1" tooltip="enable"><title>(0.043842,10)</title></rect><rect x="156" y="197.463" width="6" height="2.537" stroke="black" stroke-width="1" fill="blue" opacity="1" tooltip="enable"><title>(0.0455957,24)</title></rect><rect x="162" y="198.732" width="6" height="1.2685" stroke="black" stroke-width="1" fill="blue" opacity="1" tooltip="enable"><title>(0.0473494,12)</title></rect><rect x="168" y="197.886" width="6" height="2.11417" stroke="black" stroke-width="1" fill="blue" opacity="1" tooltip="enable"><title>(0.049103,20)</title></rect><rect x="174" y="199.366" width="6" height="0.63425" stroke="black" stroke-width="1" fill="blue" opacity="1" tooltip="enable"><title>(0.0508567,6)</title></rect><rect x="180" y="199.789" width="6" height="0.211416" stroke="black" stroke-width="1" fill="blue" opacity="1" tooltip="enable"><title>(0.0526104,2)</title></rect><rect x="186" y="199.471" width="6" height="0.528541" stroke="black" stroke-width="1" fill="blue" opacity="1" tooltip="enable"><title>(0.0543641,5)</title></rect><rect x="192" y="199.683" width="6" height="0.317125" stroke="black" stroke-width="1" fill="blue" opacity="1" tooltip="enable"><title>(0.0561178,3)</title></rect><rect x="198" y="200" width="6" height="0" stroke="black" stroke-width="1" fill="blue" opacity="1" tooltip="enable"><title>(0.0578714,0)</title></rect><rect x="204" y="199.789" width="6" height="0.211416" stroke="black" stroke-width="1" fill="blue" opacity="1" tooltip="enable"><title>(0.0596251,2)</title></rect><rect x="210" y="200" width="6" height="0" stroke="black" stroke-width="1" fill="blue" opacity="1" tooltip="enable"><title>(0.0613788,0)</title></rect><rect x="216" y="200" width="6" height="0" stroke="black" stroke-width="1" fill="blue" opacity="1" tooltip="enable"><title>(0.0631325,0)</title></rect><rect x="222" y="200" width="6" height="0" stroke="black" stroke-width="1" fill="blue" opacity="1" tooltip="enable"><title>(0.0648862,0)</title></rect><rect x="228" y="200" width="6" height="0" stroke="black" stroke-width="1" fill="blue" opacity="1" tooltip="enable"><title>(0.0666398,0)</title></rect><rect x="234" y="200" width="6" height="0" stroke="black" stroke-width="1" fill="blue" opacity="1" tooltip="enable"><title>(0.0683935,0)</title></rect><rect x="240" y="200" width="6" height="0" stroke="black" stroke-width="1" fill="blue" opacity="1" tooltip="enable"><title>(0.0701472,0)</title></rect><rect x="246" y="200" width="6" height="0" stroke="black" stroke-width="1" fill="blue" opacity="1" tooltip="enable"><title>(0.0719009,0)</title></rect><rect x="252" y="200" width="6" height="0" stroke="black" stroke-width="1" fill="blue" opacity="1" tooltip="enable"><title>(0.0736546,0)</title></rect><rect x="258" y="200" width="6" height="0" stroke="black" stroke-width="1" fill="blue" opacity="1" tooltip="enable"><title>(0.0754082,0)</title></rect><rect x="264" y="200" width="6" height="0" stroke="black" stroke-width="1" fill="blue" opacity="1" tooltip="enable"><title>(0.0771619,0)</title></rect><rect x="270" y="200" width="6" height="0" stroke="black" stroke-width="1" fill="blue" opacity="1" tooltip="enable"><title>(0.0789156,0)</title></rect><rect x="276" y="200" width="6" height="0" stroke="black" stroke-width="1" fill="blue" opacity="1" tooltip="enable"><title>(0.0806693,0)</title></rect><rect x="282" y="200" width="6" height="0" stroke="black" stroke-width="1" fill="blue" opacity="1" tooltip="enable"><title>(0.082423,0)</title></rect><rect x="288" y="200" width="6" height="0" stroke="black" stroke-width="1" fill="blue" opacity="1" tooltip="enable"><title>(0.0841766,0)</title></rect><rect x="294" y="200" width="6" height="0" stroke="black" stroke-width="1" fill="blue" opacity="1" tooltip="enable"><title>(0.0859303,0)</title></rect><rect x="300" y="200" width="6" height="0" stroke="black" stroke-width="1" fill="blue" opacity="1" tooltip="enable"><title>(0.087684,0)</title></rect><rect x="306" y="200" width="6" height="0" stroke="black" stroke-width="1" fill="blue" opacity="1" tooltip="enable"><title>(0.0894377,0)</title></rect><rect x="312" y="200" width="6" height="0" stroke="black" stroke-width="1" fill="blue" opacity="1" tooltip="enable"><title>(0.0911914,0)</title></rect><rect x="318" y="200" width="6" height="0" stroke="black" stroke-width="1" fill="blue" opacity="1" tooltip="enable"><title>(0.092945,0)</title></rect><rect x="324" y="200" width="6" height="0" stroke="black" stroke-width="1" fill="blue" opacity="1" tooltip="enable"><title>(0.0946987,0)</title></rect><rect x="330" y="200" width="6" height="0" stroke="black" stroke-width="1" fill="blue" opacity="1" tooltip="enable"><title>(0.0964524,0)</title></rect><rect x="336" y="200" width="6" height="0" stroke="black" stroke-width="1" fill="blue" opacity="1" tooltip="enable"><title>(0.0982061,0)</title></rect><rect x="342" y="200" width="6" height="0" stroke="black" stroke-width="1" fill="blue" opacity="1" tooltip="enable"><title>(0.0999598,0)</title></rect><rect x="348" y="200" width="6" height="0" stroke="black" stroke-width="1" fill="blue" opacity="1" tooltip="enable"><title>(0.101713,0)</title></rect><rect x="354" y="200" width="6" height="0" stroke="black" stroke-width="1" fill="blue" opacity="1" tooltip="enable"><title>(0.103467,0)</title></rect><rect x="360" y="200" width="6" height="0" stroke="black" stroke-width="1" fill="blue" opacity="1" tooltip="enable"><title>(0.105221,0)</title></rect><rect x="366" y="200" width="6" height="0" stroke="black" stroke-width="1" fill="blue" opacity="1" tooltip="enable"><title>(0.106974,0)</title></rect><rect x="372" y="200" width="6" height="0" stroke="black" stroke-width="1" fill="blue" opacity="1" tooltip="enable"><title>(0.108728,0)</title></rect><rect x="378" y="200" width="6" height="0" stroke="black" stroke-width="1" fill="blue" opacity="1" tooltip="enable"><title>(0.110482,0)</title></rect><rect x="384" y="200" width="6" height="0" stroke="black" stroke-width="1" fill="blue" opacity="1" tooltip="enable"><title>(0.112236,0)</title></rect><rect x="390" y="200" width="6" height="0" stroke="black" stroke-width="1" fill="blue" opacity="1" tooltip="enable"><title>(0.113989,0)</title></rect><rect x="396" y="200" width="6" height="0" stroke="black" stroke-width="1" fill="blue" opacity="1" tooltip="enable"><title>(0.115743,0)</title></rect><rect x="402" y="200" width="6" height="0" stroke="black" stroke-width="1" fill="blue" opacity="1" tooltip="enable"><title>(0.117497,0)</title></rect><rect x="408" y="200" width="6" height="0" stroke="black" stroke-width="1" fill="blue" opacity="1" tooltip="enable"><title>(0.11925,0)</title></rect><rect x="414" y="200" width="6" height="0" stroke="black" stroke-width="1" fill="blue" opacity="1" tooltip="enable"><title>(0.121004,0)</title></rect><rect x="420" y="200" width="6" height="0" stroke="black" stroke-width="1" fill="blue" opacity="1" tooltip="enable"><title>(0.122758,0)</title></rect><rect x="426" y="200" width="6" height="0" stroke="black" stroke-width="1" fill="blue" opacity="1" tooltip="enable"><title>(0.124511,0)</title></rect><rect x="432" y="200" width="6" height="0" stroke="black" stroke-width="1" fill="blue" opacity="1" tooltip="enable"><title>(0.126265,0)</title></rect><rect x="438" y="200" width="6" height="0" stroke="black" stroke-width="1" fill="blue" opacity="1" tooltip="enable"><title>(0.128019,0)</title></rect><rect x="444" y="200" width="6" height="0" stroke="black" stroke-width="1" fill="blue" opacity="1" tooltip="enable"><title>(0.129772,0)</title></rect><rect x="450" y="200" width="6" height="0" stroke="black" stroke-width="1" fill="blue" opacity="1" tooltip="enable"><title>(0.131526,0)</title></rect><rect x="456" y="200" width="6" height="0" stroke="black" stroke-width="1" fill="blue" opacity="1" tooltip="enable"><title>(0.13328,0)</title></rect><rect x="462" y="200" width="6" height="0" stroke="black" stroke-width="1" fill="blue" opacity="1" tooltip="enable"><title>(0.135033,0)</title></rect><rect x="468" y="200" width="6" height="0" stroke="black" stroke-width="1" fill="blue" opacity="1" tooltip="enable"><title>(0.136787,0)</title></rect><rect x="474" y="200" width="6" height="0" stroke="black" stroke-width="1" fill="blue" opacity="1" tooltip="enable"><title>(0.138541,0)</title></rect><rect x="480" y="200" width="6" height="0" stroke="black" stroke-width="1" fill="blue" opacity="1" tooltip="enable"><title>(0.140294,0)</title></rect><rect x="486" y="200" width="6" height="0" stroke="black" stroke-width="1" fill="blue" opacity="1" tooltip="enable"><title>(0.142048,0)</title></rect><rect x="492" y="200" width="6" height="0" stroke="black" stroke-width="1" fill="blue" opacity="1" tooltip="enable"><title>(0.143802,0)</title></rect><rect x="498" y="200" width="6" height="0" stroke="black" stroke-width="1" fill="blue" opacity="1" tooltip="enable"><title>(0.145555,0)</title></rect><rect x="504" y="200" width="6" height="0" stroke="black" stroke-width="1" fill="blue" opacity="1" tooltip="enable"><title>(0.147309,0)</title></rect><rect x="510" y="200" width="6" height="0" stroke="black" stroke-width="1" fill="blue" opacity="1" tooltip="enable"><title>(0.149063,0)</title></rect><rect x="516" y="200" width="6" height="0" stroke="black" stroke-width="1" fill="blue" opacity="1" tooltip="enable"><title>(0.150816,0)</title></rect><rect x="522" y="200" width="6" height="0" stroke="black" stroke-width="1" fill="blue" opacity="1" tooltip="enable"><title>(0.15257,0)</title></rect><rect x="528" y="200" width="6" height="0" stroke="black" stroke-width="1" fill="blue" opacity="1" tooltip="enable"><title>(0.154324,0)</title></rect><rect x="534" y="200" width="6" height="0" stroke="black" stroke-width="1" fill="blue" opacity="1" tooltip="enable"><title>(0.156078,0)</title></rect><rect x="540" y="200" width="6" height="0" stroke="black" stroke-width="1" fill="blue" opacity="1" tooltip="enable"><title>(0.157831,0)</title></rect><rect x="546" y="200" width="6" height="0" stroke="black" stroke-width="1" fill="blue" opacity="1" tooltip="enable"><title>(0.159585,0)</title></rect><rect x="552" y="200" width="6" height="0" stroke="black" stroke-width="1" fill="blue" opacity="1" tooltip="enable"><title>(0.161339,0)</title></rect><rect x="558" y="200" width="6" height="0" stroke="black" stroke-width="1" fill="blue" opacity="1" tooltip="enable"><title>(0.163092,0)</title></rect><rect x="564" y="200" width="6" height="0" stroke="black" stroke-width="1" fill="blue" opacity="1" tooltip="enable"><title>(0.164846,0)</title></rect><rect x="570" y="200" width="6" height="0" stroke="black" stroke-width="1" fill="blue" opacity="1" tooltip="enable"><title>(0.1666,0)</title></rect><rect x="576" y="200" width="6" height="0" stroke="black" stroke-width="1" fill="blue" opacity="1" tooltip="enable"><title>(0.168353,0)</title></rect><rect x="582" y="200" width="6" height="0" stroke="black" stroke-width="1" fill="blue" opacity="1" tooltip="enable"><title>(0.170107,0)</title></rect><rect x="588" y="200" width="6" height="0" stroke="black" stroke-width="1" fill="blue" opacity="1" tooltip="enable"><title>(0.171861,0)</title></rect><rect x="594" y="199.894" width="6" height="0.105708" stroke="black" stroke-width="1" fill="blue" opacity="1" tooltip="enable"><title>(0.173614,1)</title></rect><text x="30" y="240" font-size="20" fill="black">0</text>
<text x="600" y="240" font-size="20" fill="black">0.175368</text>
<polyline points="0,220,600,220" stroke="black" stroke-width="1" fill="none" opacity="1"/>
<text x="720" y="20" font-size="20" fill="black">1892</text>
<text x="720" y="200" font-size="20" fill="black">0</text>
<polyline points="660,0,660,200" stroke="black" stroke-width="1" fill="none" opacity="1"/>
</svg>