<?xml version="1.0" standalone="yes"?>
<!-- SVG graphic -->
<svg xmlns='http://www.w3.org/2000/svg' xmlns:xlink='http://www.w3.org/1999/xlink'
 version="1.1">
<rect x="0" y="6.56764" width="6" height="193.432" stroke="black" stroke-width="1" fill="blue" opacity="1" tooltip="enable"><title>(0,1237)</title></rect><rect x="6" y="13.9171" width="6" height="186.083" stroke="black" stroke-width="1" fill="blue" opacity="1" tooltip="enable"><title>(0.00126843,1190)</title></rect><rect x="12" y="1.52588e-05" width="6" height="200" stroke="black" stroke-width="1" fill="blue" opacity="1" tooltip="enable"><title>(0.00253687,1279)</title></rect><rect x="18" y="128.382" width="6" height="71.6184" stroke="black" stroke-width="1" fill="blue" opacity="1" tooltip="enable"><title>(0.0038053,458)</title></rect><rect x="24" y="168.882" width="6" height="31.1181" stroke="black" stroke-width="1" fill="blue" opacity="1" tooltip="enable"><title>(0.00507374,199)</title></rect><rect x="30" y="170.602" width="6" height="29.398" stroke="black" stroke-width="1" fill="blue" opacity="1" tooltip="enable"><title>(0.00634217,188)</title></rect><rect x="36" y="180.141" width="6" height="19.8593" stroke="black" stroke-width="1" fill="blue" opacity="1" tooltip="enable"><title>(0.00761061,127)</title></rect><rect x="42" y="186.239" width="6" height="13.7607" stroke="black" stroke-width="1" fill="blue" opacity="1" tooltip="enable"><title>(0.00887904,88)</title></rect><rect x="48" y="183.737" width="6" height="16.2627" stroke="black" stroke-width="1" fill="blue" opacity="1" tooltip="enable"><title>(0.0101475,104)</title></rect><rect x="54" y="184.05" width="6" height="15.95" stroke="black" stroke-width="1" fill="blue" opacity="1" tooltip="enable"><title>(0.0114159,102)</title></rect><rect x="60" y="180.297" width="6" height="19.7029" stroke="black" stroke-width="1" fill="blue" opacity="1" tooltip="enable"><title>(0.0126843,126)</title></rect><rect x="66" y="179.359" width="6" height="20.6411" stroke="black" stroke-width="1" fill="blue" opacity="1" tooltip="enable"><title>(0.0139528,132)</title></rect><rect x="72" y="188.116" width="6" height="11.8843" stroke="black" stroke-width="1" fill="blue" opacity="1" tooltip="enable"><title>(0.0152212,76)</title></rect><rect x="78" y="184.988" width="6" height="15.0117" stroke="black" stroke-width="1" fill="blue" opacity="1" tooltip="enable"><title>(0.0164896,96)</title></rect><rect x="84" y="186.552" width="6" height="13.448" stroke="black" stroke-width="1" fill="blue" opacity="1" tooltip="enable"><title>(0.0177581,86)</title></rect><rect x="90" y="187.334" width="6" height="12.6661" stroke="black" stroke-width="1" fill="blue" opacity="1" tooltip="enable"><title>(0.0190265,81)</title></rect><rect x="96" y="183.894" width="6" height="16.1063" stroke="black" stroke-width="1" fill="blue" opacity="1" tooltip="enable"><title>(0.020295,103)</title></rect><rect x="102" y="185.145" width="6" height="14.8554" stroke="black" stroke-width="1" fill="blue" opacity="1" tooltip="enable"><title>(0.0215634,95)</title></rect><rect x="108" y="186.552" width="6" height="13.448" stroke="black" stroke-width="1" fill="blue" opacity="1" tooltip="enable"><title>(0.0228318,86)</title></rect><rect x="114" y="184.676" width="6" height="15.3245" stroke="black" stroke-width="1" fill="blue" opacity="1" tooltip="enable"><title>(0.0241003,98)</title></rect><rect x="120" y="180.61" width="6" height="19.3901" stroke="black" stroke-width="1" fill="blue" opacity="1" tooltip="enable"><title>(0.0253687,124)</title></rect><rect x="126" y="181.704" width="6" height="18.2955" stroke="black" stroke-width="1" fill="blue" opacity="1" tooltip="enable"><title>(0.0266371,117)</title></rect><rect x="132" y="179.202" width="6" height="20.7975" stroke="black" stroke-width="1" fill="blue" opacity="1" tooltip="enable"><title>(0.0279056,133)</title></rect><rect x="138" y="180.297" width="6" height="19.7029" stroke="black" stroke-width="1" fill="blue" opacity="1" tooltip="enable"><title>(0.029174,126)</title></rect><rect x="144" y="183.894" width="6" height="16.1063" stroke="black" stroke-width="1" fill="blue" opacity="1" tooltip="enable"><title>(0.0304424,103)</title></rect><rect x="150" y="183.894" width="6" height="16.1063" stroke="black" stroke-width="1" fill="blue" opacity="1" tooltip="enable"><title>(0.0317109,103)</title></rect><rect x="156" y="186.239" width="6" height="13.7607" stroke="black" stroke-width="1" fill="blue" opacity="1" tooltip="enable"><title>(0.0329793,88)</title></rect><rect x="162" y="182.017" width="6" height="17.9828" stroke="black" stroke-width="1" fill="blue" opacity="1" tooltip="enable"><title>(0.0342477,115)</title></rect><rect x="168" y="188.428" width="6" height="11.5715" stroke="black" stroke-width="1" fill="blue" opacity="1" tooltip="enable"><title>(0.0355162,74)</title></rect><rect x="174" y="184.519" width="6" height="15.4808" stroke="black" stroke-width="1" fill="blue" opacity="1" tooltip="enable"><title>(0.0367846,99)</title></rect><rect x="180" y="186.083" width="6" height="13.9171" stroke="black" stroke-width="1" fill="blue" opacity="1" tooltip="enable"><title>(0.038053,89)</title></rect><rect x="186" y="186.083" width="6" height="13.9171" stroke="black" stroke-width="1" fill="blue" opacity="1" tooltip="enable"><title>(0.0393215,89)</title></rect><rect x="192" y="190.774" width="6" height="9.22596" stroke="black" stroke-width="1" fill="blue" opacity="1" tooltip="enable"><title>(0.0405899,59)</title></rect><rect x="198" y="187.334" width="6" height="12.6661" stroke="black" stroke-width="1" fill="blue" opacity="1" tooltip="enable"><title>(0.0418583,81)</title></rect><rect x="204" y="190.461" width="6" height="9.5387" stroke="black" stroke-width="1" fill="blue" opacity="1" tooltip="enable"><title>(0.0431268,61)</title></rect><rect x="210" y="188.898" width="6" height="11.1024" stroke="black" stroke-width="1" fill="blue" opacity="1" tooltip="enable"><title>(0.0443952,71)</title></rect><rect x="216" y="192.807" width="6" height="7.19312" stroke="black" stroke-width="1" fill="blue" opacity="1" tooltip="enable"><title>(0.0456636,46)</title></rect><rect x="222" y="190.774" width="6" height="9.22596" stroke="black" stroke-width="1" fill="blue" opacity="1" tooltip="enable"><title>(0.0469321,59)</title></rect><rect x="228" y="191.869" width="6" height="8.13135" stroke="black" stroke-width="1" fill="blue" opacity="1" tooltip="enable"><title>(0.0482005,52)</title></rect><rect x="234" y="193.12" width="6" height="6.88037" stroke="black" stroke-width="1" fill="blue" opacity="1" tooltip="enable"><title>(0.0494689,44)</title></rect><rect x="240" y="196.873" width="6" height="3.12744" stroke="black" stroke-width="1" fill="blue" opacity="1" tooltip="enable"><title>(0.0507374,20)</title></rect><rect x="246" y="196.873" width="6" height="3.12744" stroke="black" stroke-width="1" fill="blue" opacity="1" tooltip="enable"><title>(0.0520058,20)</title></rect><rect x="252" y="196.56" width="6" height="3.44019" stroke="black" stroke-width="1" fill="blue" opacity="1" tooltip="enable"><title>(0.0532742,22)</title></rect><rect x="258" y="196.716" width="6" height="3.28382" stroke="black" stroke-width="1" fill="blue" opacity="1" tooltip="enable"><title>(0.0545427,21)</title></rect><rect x="264" y="195.934" width="6" height="4.06568" stroke="black" stroke-width="1" fill="blue" opacity="1" tooltip="enable"><title>(0.0558111,26)</title></rect><rect x="270" y="199.531" width="6" height="0.469116" stroke="black" stroke-width="1" fill="blue" opacity="1" tooltip="enable"><title>(0.0570796,3)</title></rect><rect x="276" y="198.28" width="6" height="1.72009" stroke="black" stroke-width="1" fill="blue" opacity="1" tooltip="enable"><title>(0.058348,11)</title></rect><rect x="282" y="199.218" width="6" height="0.781861" stroke="black" stroke-width="1" fill="blue" opacity="1" tooltip="enable"><title>(0.0596164,5)</title></rect><rect x="288" y="199.062" width="6" height="0.938233" stroke="black" stroke-width="1" fill="blue" opacity="1" tooltip="enable"><title>(0.0608849,6)</title></rect><rect x="294" y="198.436" width="6" height="1.56372" stroke="black" stroke-width="1" fill="blue" opacity="1" tooltip="enable"><title>(0.0621533,10)</title></rect><rect x="300" y="198.124" width="6" height="1.87647" stroke="black" stroke-width="1" fill="blue" opacity="1" tooltip="enable"><title>(0.0634217,12)</title></rect><rect x="306" y="198.905" width="6" height="1.09461" stroke="black" stroke-width="1" fill="blue" opacity="1" tooltip="enable"><title>(0.0646902,7)</title></rect><rect x="312" y="197.342" width="6" height="2.65833" stroke="black" stroke-width="1" fill="blue" opacity="1" tooltip="enable"><title>(0.0659586,17)</title></rect><rect x="318" y="199.375" width="6" height="0.625489" stroke="black" stroke-width="1" fill="blue" opacity="1" tooltip="enable"><title>(0.067227,4)</title></rect><rect x="324" y="199.062" width="6" height="0.938233" stroke="black" stroke-width="1" fill="blue" opacity="1" tooltip="enable"><title>(0.0684955,6)</title></rect><rect x="330" y="199.375" width="6" height="0.625489" stroke="black" stroke-width="1" fill="blue" opacity="1" tooltip="enable"><title>(0.0697639,4)</title></rect><rect x="336" y="198.749" width="6" height="1.25098" stroke="black" stroke-width="1" fill="blue" opacity="1" tooltip="enable"><title>(0.0710323,8)</title></rect><rect x="342" y="199.062" width="6" height="0.938233" stroke="black" stroke-width="1" fill="blue" opacity="1" tooltip="enable"><title>(0.0723008,6)</title></rect><rect x="348" y="199.375" width="6" height="0.625489" stroke="black" stroke-width="1" fill="blue" opacity="1" tooltip="enable"><title>(0.0735692,4)</title></rect><rect x="354" y="197.342" width="6" height="2.65833" stroke="black" stroke-width="1" fill="blue" opacity="1" tooltip="enable"><title>(0.0748376,17)</title></rect><rect x="360" y="199.531" width="6" height="0.469116" stroke="black" stroke-width="1" fill="blue" opacity="1" tooltip="enable"><title>(0.0761061,3)</title></rect><rect x="366" y="199.062" width="6" height="0.938233" stroke="black" stroke-width="1" fill="blue" opacity="1" tooltip="enable"><title>(0.0773745,6)</title></rect><rect x="372" y="199.687" width="6" height="0.312744" stroke="black" stroke-width="1" fill="blue" opacity="1" tooltip="enable"><title>(0.0786429,2)</title></rect><rect x="378" y="199.687" width="6" height="0.312744" stroke="black" stroke-width="1" fill="blue" opacity="1" tooltip="enable"><title>(0.0799114,2)</title></rect><rect x="384" y="199.375" width="6" height="0.625489" stroke="black" stroke-width="1" fill="blue" opacity="1" tooltip="enable"><title>(0.0811798,4)</title></rect><rect x="390" y="200" width="6" height="0" stroke="black" stroke-width="1" fill="blue" opacity="1" tooltip="enable"><title>(0.0824482,0)</title></rect><rect x="396" y="199.687" width="6" height="0.312744" stroke="black" stroke-width="1" fill="blue" opacity="1" tooltip="enable"><title>(0.0837167,2)</title></rect><rect x="402" y="198.905" width="6" height="1.09461" stroke="black" stroke-width="1" fill="blue" opacity="1" tooltip="enable"><title>(0.0849851,7)</title></rect><rect x="408" y="198.593" width="6" height="1.40735" stroke="black" stroke-width="1" fill="blue" opacity="1" tooltip="enable"><title>(0.0862535,9)</title></rect><rect x="414" y="199.062" width="6" height="0.938233" stroke="black" stroke-width="1" fill="blue" opacity="1" tooltip="enable"><title>(0.087522,6)</title></rect><rect x="420" y="199.687" width="6" height="0.312744" stroke="black" stroke-width="1" fill="blue" opacity="1" tooltip="enable"><title>(0.0887904,2)</title></rect><rect x="426" y="200" width="6" height="0" stroke="black" stroke-width="1" fill="blue" opacity="1" tooltip="enable"><title>(0.0900588,0)</title></rect><rect x="432" y="199.375" width="6" height="0.625489" stroke="black" stroke-width="1" fill="blue" opacity="1" tooltip="enable"><title>(0.0913273,4)</title></rect><rect x="438" y="198.436" width="6" height="1.56372" stroke="black" stroke-width="1" fill="blue" opacity="1" tooltip="enable"><title>(0.0925957,10)</title></rect><rect x="444" y="199.687" width="6" height="0.312744" stroke="black" stroke-width="1" fill="blue" opacity="1" tooltip="enable"><title>(0.0938642,2)</title></rect><rect x="450" y="199.687" width="6" height="0.312744" stroke="black" stroke-width="1" fill="blue" opacity="1" tooltip="enable"><title>(0.0951326,2)</title></rect><rect x="456" y="200" width="6" height="0" stroke="black" stroke-width="1" fill="blue" opacity="1" tooltip="enable"><title>(0.096401,0)</title></rect><rect x="462" y="199.687" width="6" height="0.312744" stroke="black" stroke-width="1" fill="blue" opacity="1" tooltip="enable"><title>(0.0976695,2)</title></rect><rect x="468" y="199.687" width="6" height="0.312744" stroke="black" stroke-width="1" fill="blue" opacity="1" tooltip="enable"><title>(0.0989379,2)</title></rect><rect x="474" y="200" width="6" height="0" stroke="black" stroke-width="1" fill="blue" opacity="1" tooltip="enable"><title>(0.100206,0)</title></rect><rect x="480" y="200" width="6" height="0" stroke="black" stroke-width="1" fill="blue" opacity="1" tooltip="enable"><title>(0.101475,0)</title></rect><rect x="486" y="200" width="6" height="0" stroke="black" stroke-width="1" fill="blue" opacity="1" tooltip="enable"><title>(0.102743,0)</title></rect><rect x="492" y="200" width="6" height="0" stroke="black" stroke-width="1" fill="blue" opacity="1" tooltip="enable"><title>(0.104012,0)</title></rect><rect x="498" y="199.844" width="6" height="0.156372" stroke="black" stroke-width="1" fill="blue" opacity="1" tooltip="enable"><title>(0.10528,1)</title></rect><rect x="504" y="199.531" width="6" height="0.469116" stroke="black" stroke-width="1" fill="blue" opacity="1" tooltip="enable"><title>(0.106548,3)</title></rect><rect x="510" y="199.687" width="6" height="0.312744" stroke="black" stroke-width="1" fill="blue" opacity="1" tooltip="enable"><title>(0.107817,2)</title></rect><rect x="516" y="200" width="6" height="0" stroke="black" stroke-width="1" fill="blue" opacity="1" tooltip="enable"><title>(0.109085,0)</title></rect><rect x="522" y="199.687" width="6" height="0.312744" stroke="black" stroke-width="1" fill="blue" opacity="1" tooltip="enable"><title>(0.110354,2)</title></rect><rect x="528" y="200" width="6" height="0" stroke="black" stroke-width="1" fill="blue" opacity="1" tooltip="enable"><title>(0.111622,0)</title></rect><rect x="534" y="199.062" width="6" height="0.938233" stroke="black" stroke-width="1" fill="blue" opacity="1" tooltip="enable"><title>(0.112891,6)</title></rect><rect x="540" y="200" width="6" height="0" stroke="black" stroke-width="1" fill="blue" opacity="1" tooltip="enable"><title>(0.114159,0)</title></rect><rect x="546" y="199.687" width="6" height="0.312744" stroke="black" stroke-width="1" fill="blue" opacity="1" tooltip="enable"><title>(0.115428,2)</title></rect><rect x="552" y="199.687" width="6" height="0.312744" stroke="black" stroke-width="1" fill="blue" opacity="1" tooltip="enable"><title>(0.116696,2)</title></rect><rect x="558" y="200" width="6" height="0" stroke="black" stroke-width="1" fill="blue" opacity="1" tooltip="enable"><title>(0.117964,0)</title></rect><rect x="564" y="199.687" width="6" height="0.312744" stroke="black" stroke-width="1" fill="blue" opacity="1" tooltip="enable"><title>(0.119233,2)</title></rect><rect x="570" y="200" width="6" height="0" stroke="black" stroke-width="1" fill="blue" opacity="1" tooltip="enable"><title>(0.120501,0)</title></rect><rect x="576" y="200" width="6" height="0" stroke="black" stroke-width="1" fill="blue" opacity="1" tooltip="enable"><title>(0.12177,0)</title></rect><rect x="582" y="200" width="6" height="0" stroke="black" stroke-width="1" fill="blue" opacity="1" tooltip="enable"><title>(0.123038,0)</title></rect><rect x="588" y="200" width="6" height="0" stroke="black" stroke-width="1" fill="blue" opacity="1" tooltip="enable"><title>(0.124307,0)</title></rect><rect x="594" y="199.844" width="6" height="0.156372" stroke="black" stroke-width="1" fill="blue" opacity="1" tooltip="enable"><title>(0.125575,1)</title></rect><text x="30" y="240" font-size="20" fill="black">0</text>
<text x="600" y="240" font-size="20" fill="black">0.126843</text>
<polyline points="0,220,600,220" stroke="black" stroke-width="1" fill="none" opacity="1"/>
<text x="720" y="20" font-size="20" fill="black">1279</text>
<text x="720" y="200" font-size="20" fill="black">0</text>
<polyline points="660,0,660,200" stroke="black" stroke-width="1" fill="none" opacity="1"/>
</svg>