<?xml version="1.0" standalone="yes"?>
<!-- SVG graphic -->
<svg xmlns='http://www.w3.org/2000/svg' xmlns:xlink='http://www.w3.org/1999/xlink'
 version="1.1">
<rect x="0" y="0" width="6" height="200" stroke="black" stroke-width="1" fill="blue" opacity="1" tooltip="enable"><title>(0,1653)</title></rect><rect x="6" y="15.003" width="6" height="184.997" stroke="black" stroke-width="1" fill="blue" opacity="1" tooltip="enable"><title>(0.0013437,1529)</title></rect><rect x="12" y="81.5487" width="6" height="118.451" stroke="black" stroke-width="1" fill="blue" opacity="1" tooltip="enable"><title>(0.0026874,979)</title></rect><rect x="18" y="155.475" width="6" height="44.5251" stroke="black" stroke-width="1" fill="blue" opacity="1" tooltip="enable"><title>(0.00403109,368)</title></rect><rect x="24" y="180.52" width="6" height="19.4797" stroke="black" stroke-width="1" fill="blue" opacity="1" tooltip="enable"><title>(0.00537479,161)</title></rect><rect x="30" y="185.239" width="6" height="14.761" stroke="black" stroke-width="1" fill="blue" opacity="1" tooltip="enable"><title>(0.00671849,122)</title></rect><rect x="36" y="182.335" width="6" height="17.6649" stroke="black" stroke-width="1" fill="blue" opacity="1" tooltip="enable"><title>(0.00806219,146)</title></rect><rect x="42" y="179.552" width="6" height="20.4477" stroke="black" stroke-width="1" fill="blue" opacity="1" tooltip="enable"><title>(0.00940589,169)</title></rect><rect x="48" y="182.577" width="6" height="17.4229" stroke="black" stroke-width="1" fill="blue" opacity="1" tooltip="enable"><title>(0.0107496,144)</title></rect><rect x="54" y="184.876" width="6" height="15.124" stroke="black" stroke-width="1" fill="blue" opacity="1" tooltip="enable"><title>(0.0120933,125)</title></rect><rect x="60" y="180.52" width="6" height="19.4797" stroke="black" stroke-width="1" fill="blue" opacity="1" tooltip="enable"><title>(0.013437,161)</title></rect><rect x="66" y="183.424" width="6" height="16.5759" stroke="black" stroke-width="1" fill="blue" opacity="1" tooltip="enable"><title>(0.0147807,137)</title></rect><rect x="72" y="183.424" width="6" height="16.5759" stroke="black" stroke-width="1" fill="blue" opacity="1" tooltip="enable"><title>(0.0161244,137)</title></rect><rect x="78" y="185.118" width="6" height="14.882" stroke="black" stroke-width="1" fill="blue" opacity="1" tooltip="enable"><title>(0.0174681,123)</title></rect><rect x="84" y="185.844" width="6" height="14.1561" stroke="black" stroke-width="1" fill="blue" opacity="1" tooltip="enable"><title>(0.0188118,117)</title></rect><rect x="90" y="184.392" width="6" height="15.608" stroke="black" stroke-width="1" fill="blue" opacity="1" tooltip="enable"><title>(0.0201555,129)</title></rect><rect x="96" y="183.424" width="6" height="16.5759" stroke="black" stroke-width="1" fill="blue" opacity="1" tooltip="enable"><title>(0.0214992,137)</title></rect><rect x="102" y="181.73" width="6" height="18.2698" stroke="black" stroke-width="1" fill="blue" opacity="1" tooltip="enable"><title>(0.0228429,151)</title></rect><rect x="108" y="183.303" width="6" height="16.6969" stroke="black" stroke-width="1" fill="blue" opacity="1" tooltip="enable"><title>(0.0241866,138)</title></rect><rect x="114" y="185.118" width="6" height="14.882" stroke="black" stroke-width="1" fill="blue" opacity="1" tooltip="enable"><title>(0.0255303,123)</title></rect><rect x="120" y="185.965" width="6" height="14.0351" stroke="black" stroke-width="1" fill="blue" opacity="1" tooltip="enable"><title>(0.026874,116)</title></rect><rect x="126" y="188.022" width="6" height="11.9782" stroke="black" stroke-width="1" fill="blue" opacity="1" tooltip="enable"><title>(0.0282177,99)</title></rect><rect x="132" y="184.997" width="6" height="15.003" stroke="black" stroke-width="1" fill="blue" opacity="1" tooltip="enable"><title>(0.0295614,124)</title></rect><rect x="138" y="188.385" width="6" height="11.6152" stroke="black" stroke-width="1" fill="blue" opacity="1" tooltip="enable"><title>(0.0309051,96)</title></rect><rect x="144" y="187.901" width="6" height="12.0992" stroke="black" stroke-width="1" fill="blue" opacity="1" tooltip="enable"><title>(0.0322488,100)</title></rect><rect x="150" y="190.805" width="6" height="9.1954" stroke="black" stroke-width="1" fill="blue" opacity="1" tooltip="enable"><title>(0.0335925,76)</title></rect><rect x="156" y="187.175" width="6" height="12.8252" stroke="black" stroke-width="1" fill="blue" opacity="1" tooltip="enable"><title>(0.0349362,106)</title></rect><rect x="162" y="191.047" width="6" height="8.95342" stroke="black" stroke-width="1" fill="blue" opacity="1" tooltip="enable"><title>(0.0362799,74)</title></rect><rect x="168" y="193.103" width="6" height="6.89655" stroke="black" stroke-width="1" fill="blue" opacity="1" tooltip="enable"><title>(0.0376236,57)</title></rect><rect x="174" y="193.587" width="6" height="6.41258" stroke="black" stroke-width="1" fill="blue" opacity="1" tooltip="enable"><title>(0.0389672,53)</title></rect><rect x="180" y="193.95" width="6" height="6.04961" stroke="black" stroke-width="1" fill="blue" opacity="1" tooltip="enable"><title>(0.0403109,50)</title></rect><rect x="186" y="196.007" width="6" height="3.99274" stroke="black" stroke-width="1" fill="blue" opacity="1" tooltip="enable"><title>(0.0416546,33)</title></rect><rect x="192" y="195.281" width="6" height="4.71869" stroke="black" stroke-width="1" fill="blue" opacity="1" tooltip="enable"><title>(0.0429983,39)</title></rect><rect x="198" y="195.16" width="6" height="4.83969" stroke="black" stroke-width="1" fill="blue" opacity="1" tooltip="enable"><title>(0.044342,40)</title></rect><rect x="204" y="195.886" width="6" height="4.11373" stroke="black" stroke-width="1" fill="blue" opacity="1" tooltip="enable"><title>(0.0456857,34)</title></rect><rect x="210" y="198.185" width="6" height="1.81488" stroke="black" stroke-width="1" fill="blue" opacity="1" tooltip="enable"><title>(0.0470294,15)</title></rect><rect x="216" y="197.58" width="6" height="2.41984" stroke="black" stroke-width="1" fill="blue" opacity="1" tooltip="enable"><title>(0.0483731,20)</title></rect><rect x="222" y="196.612" width="6" height="3.38778" stroke="black" stroke-width="1" fill="blue" opacity="1" tooltip="enable"><title>(0.0497168,28)</title></rect><rect x="228" y="197.459" width="6" height="2.54083" stroke="black" stroke-width="1" fill="blue" opacity="1" tooltip="enable"><title>(0.0510605,21)</title></rect><rect x="234" y="197.943" width="6" height="2.05687" stroke="black" stroke-width="1" fill="blue" opacity="1" tooltip="enable"><title>(0.0524042,17)</title></rect><rect x="240" y="199.395" width="6" height="0.604961" stroke="black" stroke-width="1" fill="blue" opacity="1" tooltip="enable"><title>(0.0537479,5)</title></rect><rect x="246" y="198.79" width="6" height="1.20992" stroke="black" stroke-width="1" fill="blue" opacity="1" tooltip="enable"><title>(0.0550916,10)</title></rect><rect x="252" y="199.274" width="6" height="0.725953" stroke="black" stroke-width="1" fill="blue" opacity="1" tooltip="enable"><title>(0.0564353,6)</title></rect><rect x="258" y="199.274" width="6" height="0.725953" stroke="black" stroke-width="1" fill="blue" opacity="1" tooltip="enable"><title>(0.057779,6)</title></rect><rect x="264" y="199.274" width="6" height="0.725953" stroke="black" stroke-width="1" fill="blue" opacity="1" tooltip="enable"><title>(0.0591227,6)</title></rect><rect x="270" y="199.274" width="6" height="0.725953" stroke="black" stroke-width="1" fill="blue" opacity="1" tooltip="enable"><title>(0.0604664,6)</title></rect><rect x="276" y="199.758" width="6" height="0.241984" stroke="black" stroke-width="1" fill="blue" opacity="1" tooltip="enable"><title>(0.0618101,2)</title></rect><rect x="282" y="200" width="6" height="0" stroke="black" stroke-width="1" fill="blue" opacity="1" tooltip="enable"><title>(0.0631538,0)</title></rect><rect x="288" y="199.758" width="6" height="0.241984" stroke="black" stroke-width="1" fill="blue" opacity="1" tooltip="enable"><title>(0.0644975,2)</title></rect><rect x="294" y="200" width="6" height="0" stroke="black" stroke-width="1" fill="blue" opacity="1" tooltip="enable"><title>(0.0658412,0)</title></rect><rect x="300" y="200" width="6" height="0" stroke="black" stroke-width="1" fill="blue" opacity="1" tooltip="enable"><title>(0.0671849,0)</title></rect><rect x="306" y="200" width="6" height="0" stroke="black" stroke-width="1" fill="blue" opacity="1" tooltip="enable"><title>(0.0685286,0)</title></rect><rect x="312" y="200" width="6" height="0" stroke="black" stroke-width="1" fill="blue" opacity="1" tooltip="enable"><title>(0.0698723,0)</title></rect><rect x="318" y="200" width="6" height="0" stroke="black" stroke-width="1" fill="blue" opacity="1" tooltip="enable"><title>(0.071216,0)</title></rect><rect x="324" y="200" width="6" height="0" stroke="black" stroke-width="1" fill="blue" opacity="1" tooltip="enable"><title>(0.0725597,0)</title></rect><rect x="330" y="200" width="6" height="0" stroke="black" stroke-width="1" fill="blue" opacity="1" tooltip="enable"><title>(0.0739034,0)</title></rect><rect x="336" y="200" width="6" height="0" stroke="black" stroke-width="1" fill="blue" opacity="1" tooltip="enable"><title>(0.0752471,0)</title></rect><rect x="342" y="200" width="6" height="0" stroke="black" stroke-width="1" fill="blue" opacity="1" tooltip="enable"><title>(0.0765908,0)</title></rect><rect x="348" y="200" width="6" height="0" stroke="black" stroke-width="1" fill="blue" opacity="1" tooltip="enable"><title>(0.0779345,0)</title></rect><rect x="354" y="200" width="6" height="0" stroke="black" stroke-width="1" fill="blue" opacity="1" tooltip="enable"><title>(0.0792782,0)</title></rect><rect x="360" y="200" width="6" height="0" stroke="black" stroke-width="1" fill="blue" opacity="1" tooltip="enable"><title>(0.0806219,0)</title></rect><rect x="366" y="200" width="6" height="0" stroke="black" stroke-width="1" fill="blue" opacity="1" tooltip="enable"><title>(0.0819656,0)</title></rect><rect x="372" y="200" width="6" height="0" stroke="black" stroke-width="1" fill="blue" opacity="1" tooltip="enable"><title>(0.0833093,0)</title></rect><rect x="378" y="200" width="6" height="0" stroke="black" stroke-width="1" fill="blue" opacity="1" tooltip="enable"><title>(0.084653,0)</title></rect><rect x="384" y="200" width="6" height="0" stroke="black" stroke-width="1" fill="blue" opacity="1" tooltip="enable"><title>(0.0859967,0)</title></rect><rect x="390" y="200" width="6" height="0" stroke="black" stroke-width="1" fill="blue" opacity="1" tooltip="enable"><title>(0.0873404,0)</title></rect><rect x="396" y="200" width="6" height="0" stroke="black" stroke-width="1" fill="blue" opacity="1" tooltip="enable"><title>(0.0886841,0)</title></rect><rect x="402" y="200" width="6" height="0" stroke="black" stroke-width="1" fill="blue" opacity="1" tooltip="enable"><title>(0.0900278,0)</title></rect><rect x="408" y="200" width="6" height="0" stroke="black" stroke-width="1" fill="blue" opacity="1" tooltip="enable"><title>(0.0913715,0)</title></rect><rect x="414" y="200" width="6" height="0" stroke="black" stroke-width="1" fill="blue" opacity="1" tooltip="enable"><title>(0.0927152,0)</title></rect><rect x="420" y="200" width="6" height="0" stroke="black" stroke-width="1" fill="blue" opacity="1" tooltip="enable"><title>(0.0940589,0)</title></rect><rect x="426" y="200" width="6" height="0" stroke="black" stroke-width="1" fill="blue" opacity="1" tooltip="enable"><title>(0.0954026,0)</title></rect><rect x="432" y="200" width="6" height="0" stroke="black" stroke-width="1" fill="blue" opacity="1" tooltip="enable"><title>(0.0967463,0)</title></rect><rect x="438" y="200" width="6" height="0" stroke="black" stroke-width="1" fill="blue" opacity="1" tooltip="enable"><title>(0.09809,0)</title></rect><rect x="444" y="200" width="6" height="0" stroke="black" stroke-width="1" fill="blue" opacity="1" tooltip="enable"><title>(0.0994337,0)</title></rect><rect x="450" y="200" width="6" height="0" stroke="black" stroke-width="1" fill="blue" opacity="1" tooltip="enable"><title>(0.100777,0)</title></rect><rect x="456" y="200" width="6" height="0" stroke="black" stroke-width="1" fill="blue" opacity="1" tooltip="enable"><title>(0.102121,0)</title></rect><rect x="462" y="200" width="6" height="0" stroke="black" stroke-width="1" fill="blue" opacity="1" tooltip="enable"><title>(0.103465,0)</title></rect><rect x="468" y="200" width="6" height="0" stroke="black" stroke-width="1" fill="blue" opacity="1" tooltip="enable"><title>(0.104808,0)</title></rect><rect x="474" y="200" width="6" height="0" stroke="black" stroke-width="1" fill="blue" opacity="1" tooltip="enable"><title>(0.106152,0)</title></rect><rect x="480" y="200" width="6" height="0" stroke="black" stroke-width="1" fill="blue" opacity="1" tooltip="enable"><title>(0.107496,0)</title></rect><rect x="486" y="199.758" width="6" height="0.241984" stroke="black" stroke-width="1" fill="blue" opacity="1" tooltip="enable"><title>(0.10884,2)</title></rect><rect x="492" y="200" width="6" height="0" stroke="black" stroke-width="1" fill="blue" opacity="1" tooltip="enable"><title>(0.110183,0)</title></rect><rect x="498" y="200" width="6" height="0" stroke="black" stroke-width="1" fill="blue" opacity="1" tooltip="enable"><title>(0.111527,0)</title></rect><rect x="504" y="200" width="6" height="0" stroke="black" stroke-width="1" fill="blue" opacity="1" tooltip="enable"><title>(0.112871,0)</title></rect><rect x="510" y="200" width="6" height="0" stroke="black" stroke-width="1" fill="blue" opacity="1" tooltip="enable"><title>(0.114214,0)</title></rect><rect x="516" y="200" width="6" height="0" stroke="black" stroke-width="1" fill="blue" opacity="1" tooltip="enable"><title>(0.115558,0)</title></rect><rect x="522" y="200" width="6" height="0" stroke="black" stroke-width="1" fill="blue" opacity="1" tooltip="enable"><title>(0.116902,0)</title></rect><rect x="528" y="200" width="6" height="0" stroke="black" stroke-width="1" fill="blue" opacity="1" tooltip="enable"><title>(0.118245,0)</title></rect><rect x="534" y="200" width="6" height="0" stroke="black" stroke-width="1" fill="blue" opacity="1" tooltip="enable"><title>(0.119589,0)</title></rect><rect x="540" y="199.879" width="6" height="0.120992" stroke="black" stroke-width="1" fill="blue" opacity="1" tooltip="enable"><title>(0.120933,1)</title></rect><rect x="546" y="199.879" width="6" height="0.120992" stroke="black" stroke-width="1" fill="blue" opacity="1" tooltip="enable"><title>(0.122277,1)</title></rect><rect x="552" y="200" width="6" height="0" stroke="black" stroke-width="1" fill="blue" opacity="1" tooltip="enable"><title>(0.12362,0)</title></rect><rect x="558" y="199.758" width="6" height="0.241984" stroke="black" stroke-width="1" fill="blue" opacity="1" tooltip="enable"><title>(0.124964,2)</title></rect><rect x="564" y="200" width="6" height="0" stroke="black" stroke-width="1" fill="blue" opacity="1" tooltip="enable"><title>(0.126308,0)</title></rect><rect x="570" y="200" width="6" height="0" stroke="black" stroke-width="1" fill="blue" opacity="1" tooltip="enable"><title>(0.127651,0)</title></rect><rect x="576" y="199.879" width="6" height="0.120992" stroke="black" stroke-width="1" fill="blue" opacity="1" tooltip="enable"><title>(0.128995,1)</title></rect><rect x="582" y="199.879" width="6" height="0.120992" stroke="black" stroke-width="1" fill="blue" opacity="1" tooltip="enable"><title>(0.130339,1)</title></rect><rect x="588" y="200" width="6" height="0" stroke="black" stroke-width="1" fill="blue" opacity="1" tooltip="enable"><title>(0.131682,0)</title></rect><rect x="594" y="199.879" width="6" height="0.120992" stroke="black" stroke-width="1" fill="blue" opacity="1" tooltip="enable"><title>(0.133026,1)</title></rect><text x="30" y="240" font-size="20" fill="black">0</text>
<text x="600" y="240" font-size="20" fill="black">0.13437</text>
<polyline points="0,220,600,220" stroke="black" stroke-width="1" fill="none" opacity="1"/>
<text x="720" y="20" font-size="20" fill="black">1653</text>
<text x="720" y="200" font-size="20" fill="black">0</text>
<polyline points="660,0,660,200" stroke="black" stroke-width="1" fill="none" opacity="1"/>
</svg>