<?xml version="1.0" standalone="yes"?>
<!-- SVG graphic -->
<svg xmlns='http://www.w3.org/2000/svg' xmlns:xlink='http://www.w3.org/1999/xlink'
 version="1.1">
<rect x="0" y="0" width="6" height="200" stroke="black" stroke-width="1" fill="blue" opacity="1" tooltip="enable"><title>(0,1457)</title></rect><rect x="6" y="15.0995" width="6" height="184.9" stroke="black" stroke-width="1" fill="blue" opacity="1" tooltip="enable"><title>(0.00119393,1347)</title></rect><rect x="12" y="51.3384" width="6" height="148.662" stroke="black" stroke-width="1" fill="blue" opacity="1" tooltip="enable"><title>(0.00238786,1083)</title></rect><rect x="18" y="136.445" width="6" height="63.5553" stroke="black" stroke-width="1" fill="blue" opacity="1" tooltip="enable"><title>(0.00358179,463)</title></rect><rect x="24" y="170.076" width="6" height="29.9245" stroke="black" stroke-width="1" fill="blue" opacity="1" tooltip="enable"><title>(0.00477572,218)</title></rect><rect x="30" y="176.939" width="6" height="23.0611" stroke="black" stroke-width="1" fill="blue" opacity="1" tooltip="enable"><title>(0.00596965,168)</title></rect><rect x="36" y="180.782" width="6" height="19.2176" stroke="black" stroke-width="1" fill="blue" opacity="1" tooltip="enable"><title>(0.00716358,140)</title></rect><rect x="42" y="179.135" width="6" height="20.8648" stroke="black" stroke-width="1" fill="blue" opacity="1" tooltip="enable"><title>(0.00835751,152)</title></rect><rect x="48" y="183.253" width="6" height="16.7467" stroke="black" stroke-width="1" fill="blue" opacity="1" tooltip="enable"><title>(0.00955144,122)</title></rect><rect x="54" y="189.019" width="6" height="10.9815" stroke="black" stroke-width="1" fill="blue" opacity="1" tooltip="enable"><title>(0.0107454,80)</title></rect><rect x="60" y="183.802" width="6" height="16.1977" stroke="black" stroke-width="1" fill="blue" opacity="1" tooltip="enable"><title>(0.0119393,118)</title></rect><rect x="66" y="182.979" width="6" height="17.0213" stroke="black" stroke-width="1" fill="blue" opacity="1" tooltip="enable"><title>(0.0131332,124)</title></rect><rect x="72" y="182.292" width="6" height="17.7076" stroke="black" stroke-width="1" fill="blue" opacity="1" tooltip="enable"><title>(0.0143272,129)</title></rect><rect x="78" y="184.214" width="6" height="15.7859" stroke="black" stroke-width="1" fill="blue" opacity="1" tooltip="enable"><title>(0.0155211,115)</title></rect><rect x="84" y="185.861" width="6" height="14.1386" stroke="black" stroke-width="1" fill="blue" opacity="1" tooltip="enable"><title>(0.016715,103)</title></rect><rect x="90" y="185.038" width="6" height="14.9623" stroke="black" stroke-width="1" fill="blue" opacity="1" tooltip="enable"><title>(0.0179089,109)</title></rect><rect x="96" y="186.822" width="6" height="13.1778" stroke="black" stroke-width="1" fill="blue" opacity="1" tooltip="enable"><title>(0.0191029,96)</title></rect><rect x="102" y="184.351" width="6" height="15.6486" stroke="black" stroke-width="1" fill="blue" opacity="1" tooltip="enable"><title>(0.0202968,114)</title></rect><rect x="108" y="184.9" width="6" height="15.0995" stroke="black" stroke-width="1" fill="blue" opacity="1" tooltip="enable"><title>(0.0214907,110)</title></rect><rect x="114" y="186.685" width="6" height="13.315" stroke="black" stroke-width="1" fill="blue" opacity="1" tooltip="enable"><title>(0.0226847,97)</title></rect><rect x="120" y="185.861" width="6" height="14.1386" stroke="black" stroke-width="1" fill="blue" opacity="1" tooltip="enable"><title>(0.0238786,103)</title></rect><rect x="126" y="185.175" width="6" height="14.825" stroke="black" stroke-width="1" fill="blue" opacity="1" tooltip="enable"><title>(0.0250725,108)</title></rect><rect x="132" y="184.214" width="6" height="15.7859" stroke="black" stroke-width="1" fill="blue" opacity="1" tooltip="enable"><title>(0.0262664,115)</title></rect><rect x="138" y="184.9" width="6" height="15.0995" stroke="black" stroke-width="1" fill="blue" opacity="1" tooltip="enable"><title>(0.0274604,110)</title></rect><rect x="144" y="185.861" width="6" height="14.1386" stroke="black" stroke-width="1" fill="blue" opacity="1" tooltip="enable"><title>(0.0286543,103)</title></rect><rect x="150" y="187.646" width="6" height="12.3542" stroke="black" stroke-width="1" fill="blue" opacity="1" tooltip="enable"><title>(0.0298482,90)</title></rect><rect x="156" y="185.999" width="6" height="14.0014" stroke="black" stroke-width="1" fill="blue" opacity="1" tooltip="enable"><title>(0.0310422,102)</title></rect><rect x="162" y="187.097" width="6" height="12.9032" stroke="black" stroke-width="1" fill="blue" opacity="1" tooltip="enable"><title>(0.0322361,94)</title></rect><rect x="168" y="188.469" width="6" height="11.5305" stroke="black" stroke-width="1" fill="blue" opacity="1" tooltip="enable"><title>(0.03343,84)</title></rect><rect x="174" y="188.469" width="6" height="11.5305" stroke="black" stroke-width="1" fill="blue" opacity="1" tooltip="enable"><title>(0.034624,84)</title></rect><rect x="180" y="193.548" width="6" height="6.45161" stroke="black" stroke-width="1" fill="blue" opacity="1" tooltip="enable"><title>(0.0358179,47)</title></rect><rect x="186" y="188.881" width="6" height="11.1187" stroke="black" stroke-width="1" fill="blue" opacity="1" tooltip="enable"><title>(0.0370118,81)</title></rect><rect x="192" y="190.666" width="6" height="9.33425" stroke="black" stroke-width="1" fill="blue" opacity="1" tooltip="enable"><title>(0.0382057,68)</title></rect><rect x="198" y="192.313" width="6" height="7.68703" stroke="black" stroke-width="1" fill="blue" opacity="1" tooltip="enable"><title>(0.0393997,56)</title></rect><rect x="204" y="193.411" width="6" height="6.58888" stroke="black" stroke-width="1" fill="blue" opacity="1" tooltip="enable"><title>(0.0405936,48)</title></rect><rect x="210" y="195.333" width="6" height="4.66712" stroke="black" stroke-width="1" fill="blue" opacity="1" tooltip="enable"><title>(0.0417875,34)</title></rect><rect x="216" y="194.784" width="6" height="5.2162" stroke="black" stroke-width="1" fill="blue" opacity="1" tooltip="enable"><title>(0.0429815,38)</title></rect><rect x="222" y="196.156" width="6" height="3.84351" stroke="black" stroke-width="1" fill="blue" opacity="1" tooltip="enable"><title>(0.0441754,28)</title></rect><rect x="228" y="196.706" width="6" height="3.29444" stroke="black" stroke-width="1" fill="blue" opacity="1" tooltip="enable"><title>(0.0453693,24)</title></rect><rect x="234" y="197.529" width="6" height="2.47083" stroke="black" stroke-width="1" fill="blue" opacity="1" tooltip="enable"><title>(0.0465632,18)</title></rect><rect x="240" y="197.117" width="6" height="2.88264" stroke="black" stroke-width="1" fill="blue" opacity="1" tooltip="enable"><title>(0.0477572,21)</title></rect><rect x="246" y="197.529" width="6" height="2.47083" stroke="black" stroke-width="1" fill="blue" opacity="1" tooltip="enable"><title>(0.0489511,18)</title></rect><rect x="252" y="196.843" width="6" height="3.15717" stroke="black" stroke-width="1" fill="blue" opacity="1" tooltip="enable"><title>(0.050145,23)</title></rect><rect x="258" y="198.353" width="6" height="1.64722" stroke="black" stroke-width="1" fill="blue" opacity="1" tooltip="enable"><title>(0.051339,12)</title></rect><rect x="264" y="197.804" width="6" height="2.19629" stroke="black" stroke-width="1" fill="blue" opacity="1" tooltip="enable"><title>(0.0525329,16)</title></rect><rect x="270" y="198.078" width="6" height="1.92176" stroke="black" stroke-width="1" fill="blue" opacity="1" tooltip="enable"><title>(0.0537268,14)</title></rect><rect x="276" y="199.451" width="6" height="0.549073" stroke="black" stroke-width="1" fill="blue" opacity="1" tooltip="enable"><title>(0.0549208,4)</title></rect><rect x="282" y="199.725" width="6" height="0.274537" stroke="black" stroke-width="1" fill="blue" opacity="1" tooltip="enable"><title>(0.0561147,2)</title></rect><rect x="288" y="198.078" width="6" height="1.92176" stroke="black" stroke-width="1" fill="blue" opacity="1" tooltip="enable"><title>(0.0573086,14)</title></rect><rect x="294" y="198.627" width="6" height="1.37268" stroke="black" stroke-width="1" fill="blue" opacity="1" tooltip="enable"><title>(0.0585025,10)</title></rect><rect x="300" y="199.451" width="6" height="0.549073" stroke="black" stroke-width="1" fill="blue" opacity="1" tooltip="enable"><title>(0.0596965,4)</title></rect><rect x="306" y="199.725" width="6" height="0.274537" stroke="black" stroke-width="1" fill="blue" opacity="1" tooltip="enable"><title>(0.0608904,2)</title></rect><rect x="312" y="199.725" width="6" height="0.274537" stroke="black" stroke-width="1" fill="blue" opacity="1" tooltip="enable"><title>(0.0620843,2)</title></rect><rect x="318" y="199.176" width="6" height="0.82361" stroke="black" stroke-width="1" fill="blue" opacity="1" tooltip="enable"><title>(0.0632783,6)</title></rect><rect x="324" y="199.451" width="6" height="0.549073" stroke="black" stroke-width="1" fill="blue" opacity="1" tooltip="enable"><title>(0.0644722,4)</title></rect><rect x="330" y="199.725" width="6" height="0.274537" stroke="black" stroke-width="1" fill="blue" opacity="1" tooltip="enable"><title>(0.0656661,2)</title></rect><rect x="336" y="199.039" width="6" height="0.960879" stroke="black" stroke-width="1" fill="blue" opacity="1" tooltip="enable"><title>(0.06686,7)</title></rect><rect x="342" y="199.314" width="6" height="0.686342" stroke="black" stroke-width="1" fill="blue" opacity="1" tooltip="enable"><title>(0.068054,5)</title></rect><rect x="348" y="198.353" width="6" height="1.64722" stroke="black" stroke-width="1" fill="blue" opacity="1" tooltip="enable"><title>(0.0692479,12)</title></rect><rect x="354" y="199.176" width="6" height="0.82361" stroke="black" stroke-width="1" fill="blue" opacity="1" tooltip="enable"><title>(0.0704418,6)</title></rect><rect x="360" y="200" width="6" height="0" stroke="black" stroke-width="1" fill="blue" opacity="1" tooltip="enable"><title>(0.0716358,0)</title></rect><rect x="366" y="199.176" width="6" height="0.82361" stroke="black" stroke-width="1" fill="blue" opacity="1" tooltip="enable"><title>(0.0728297,6)</title></rect><rect x="372" y="199.725" width="6" height="0.274537" stroke="black" stroke-width="1" fill="blue" opacity="1" tooltip="enable"><title>(0.0740236,2)</title></rect><rect x="378" y="199.176" width="6" height="0.82361" stroke="black" stroke-width="1" fill="blue" opacity="1" tooltip="enable"><title>(0.0752176,6)</title></rect><rect x="384" y="200" width="6" height="0" stroke="black" stroke-width="1" fill="blue" opacity="1" tooltip="enable"><title>(0.0764115,0)</title></rect><rect x="390" y="199.725" width="6" height="0.274537" stroke="black" stroke-width="1" fill="blue" opacity="1" tooltip="enable"><title>(0.0776054,2)</title></rect><rect x="396" y="199.725" width="6" height="0.274537" stroke="black" stroke-width="1" fill="blue" opacity="1" tooltip="enable"><title>(0.0787993,2)</title></rect><rect x="402" y="199.725" width="6" height="0.274537" stroke="black" stroke-width="1" fill="blue" opacity="1" tooltip="enable"><title>(0.0799933,2)</title></rect><rect x="408" y="199.725" width="6" height="0.274537" stroke="black" stroke-width="1" fill="blue" opacity="1" tooltip="enable"><title>(0.0811872,2)</title></rect><rect x="414" y="199.451" width="6" height="0.549073" stroke="black" stroke-width="1" fill="blue" opacity="1" tooltip="enable"><title>(0.0823811,4)</title></rect><rect x="420" y="199.863" width="6" height="0.137268" stroke="black" stroke-width="1" fill="blue" opacity="1" tooltip="enable"><title>(0.0835751,1)</title></rect><rect x="426" y="199.588" width="6" height="0.411805" stroke="black" stroke-width="1" fill="blue" opacity="1" tooltip="enable"><title>(0.084769,3)</title></rect><rect x="432" y="200" width="6" height="0" stroke="black" stroke-width="1" fill="blue" opacity="1" tooltip="enable"><title>(0.0859629,0)</title></rect><rect x="438" y="200" width="6" height="0" stroke="black" stroke-width="1" fill="blue" opacity="1" tooltip="enable"><title>(0.0871569,0)</title></rect><rect x="444" y="200" width="6" height="0" stroke="black" stroke-width="1" fill="blue" opacity="1" tooltip="enable"><title>(0.0883508,0)</title></rect><rect x="450" y="200" width="6" height="0" stroke="black" stroke-width="1" fill="blue" opacity="1" tooltip="enable"><title>(0.0895447,0)</title></rect><rect x="456" y="200" width="6" height="0" stroke="black" stroke-width="1" fill="blue" opacity="1" tooltip="enable"><title>(0.0907386,0)</title></rect><rect x="462" y="200" width="6" height="0" stroke="black" stroke-width="1" fill="blue" opacity="1" tooltip="enable"><title>(0.0919326,0)</title></rect><rect x="468" y="200" width="6" height="0" stroke="black" stroke-width="1" fill="blue" opacity="1" tooltip="enable"><title>(0.0931265,0)</title></rect><rect x="474" y="200" width="6" height="0" stroke="black" stroke-width="1" fill="blue" opacity="1" tooltip="enable"><title>(0.0943204,0)</title></rect><rect x="480" y="200" width="6" height="0" stroke="black" stroke-width="1" fill="blue" opacity="1" tooltip="enable"><title>(0.0955144,0)</title></rect><rect x="486" y="200" width="6" height="0" stroke="black" stroke-width="1" fill="blue" opacity="1" tooltip="enable"><title>(0.0967083,0)</title></rect><rect x="492" y="200" width="6" height="0" stroke="black" stroke-width="1" fill="blue" opacity="1" tooltip="enable"><title>(0.0979022,0)</title></rect><rect x="498" y="200" width="6" height="0" stroke="black" stroke-width="1" fill="blue" opacity="1" tooltip="enable"><title>(0.0990961,0)</title></rect><rect x="504" y="200" width="6" height="0" stroke="black" stroke-width="1" fill="blue" opacity="1" tooltip="enable"><title>(0.10029,0)</title></rect><rect x="510" y="200" width="6" height="0" stroke="black" stroke-width="1" fill="blue" opacity="1" tooltip="enable"><title>(0.101484,0)</title></rect><rect x="516" y="200" width="6" height="0" stroke="black" stroke-width="1" fill="blue" opacity="1" tooltip="enable"><title>(0.102678,0)</title></rect><rect x="522" y="200" width="6" height="0" stroke="black" stroke-width="1" fill="blue" opacity="1" tooltip="enable"><title>(0.103872,0)</title></rect><rect x="528" y="199.588" width="6" height="0.411805" stroke="black" stroke-width="1" fill="blue" opacity="1" tooltip="enable"><title>(0.105066,3)</title></rect><rect x="534" y="199.863" width="6" height="0.137268" stroke="black" stroke-width="1" fill="blue" opacity="1" tooltip="enable"><title>(0.10626,1)</title></rect><rect x="540" y="200" width="6" height="0" stroke="black" stroke-width="1" fill="blue" opacity="1" tooltip="enable"><title>(0.107454,0)</title></rect><rect x="546" y="200" width="6" height="0" stroke="black" stroke-width="1" fill="blue" opacity="1" tooltip="enable"><title>(0.108648,0)</title></rect><rect x="552" y="200" width="6" height="0" stroke="black" stroke-width="1" fill="blue" opacity="1" tooltip="enable"><title>(0.109842,0)</title></rect><rect x="558" y="200" width="6" height="0" stroke="black" stroke-width="1" fill="blue" opacity="1" tooltip="enable"><title>(0.111035,0)</title></rect><rect x="564" y="200" width="6" height="0" stroke="black" stroke-width="1" fill="blue" opacity="1" tooltip="enable"><title>(0.112229,0)</title></rect><rect x="570" y="200" width="6" height="0" stroke="black" stroke-width="1" fill="blue" opacity="1" tooltip="enable"><title>(0.113423,0)</title></rect><rect x="576" y="200" width="6" height="0" stroke="black" stroke-width="1" fill="blue" opacity="1" tooltip="enable"><title>(0.114617,0)</title></rect><rect x="582" y="200" width="6" height="0" stroke="black" stroke-width="1" fill="blue" opacity="1" tooltip="enable"><title>(0.115811,0)</title></rect><rect x="588" y="200" width="6" height="0" stroke="black" stroke-width="1" fill="blue" opacity="1" tooltip="enable"><title>(0.117005,0)</title></rect><rect x="594" y="199.863" width="6" height="0.137268" stroke="black" stroke-width="1" fill="blue" opacity="1" tooltip="enable"><title>(0.118199,1)</title></rect><text x="30" y="240" font-size="20" fill="black">0</text>
<text x="600" y="240" font-size="20" fill="black">0.119393</text>
<polyline points="0,220,600,220" stroke="black" stroke-width="1" fill="none" opacity="1"/>
<text x="720" y="20" font-size="20" fill="black">1457</text>
<text x="720" y="200" font-size="20" fill="black">0</text>
<polyline points="660,0,660,200" stroke="black" stroke-width="1" fill="none" opacity="1"/>
</svg>