<?xml version="1.0" standalone="yes"?>
<!-- SVG graphic -->
<svg xmlns='http://www.w3.org/2000/svg' xmlns:xlink='http://www.w3.org/1999/xlink'
 version="1.1">
<rect x="0" y="7.33229" width="6" height="192.668" stroke="black" stroke-width="1" fill="blue" opacity="1" tooltip="enable"><title>(0,1235)</title></rect><rect x="6" y="14.9766" width="6" height="185.023" stroke="black" stroke-width="1" fill="blue" opacity="1" tooltip="enable"><title>(0.00126851,1186)</title></rect><rect x="12" y="-1.52588e-05" width="6" height="200" stroke="black" stroke-width="1" fill="blue" opacity="1" tooltip="enable"><title>(0.00253702,1282)</title></rect><rect x="18" y="128.393" width="6" height="71.6069" stroke="black" stroke-width="1" fill="blue" opacity="1" tooltip="enable"><title>(0.00380554,459)</title></rect><rect x="24" y="168.955" width="6" height="31.0452" stroke="black" stroke-width="1" fill="blue" opacity="1" tooltip="enable"><title>(0.00507405,199)</title></rect><rect x="30" y="169.891" width="6" height="30.1092" stroke="black" stroke-width="1" fill="blue" opacity="1" tooltip="enable"><title>(0.00634256,193)</title></rect><rect x="36" y="180.811" width="6" height="19.1888" stroke="black" stroke-width="1" fill="blue" opacity="1" tooltip="enable"><title>(0.00761107,123)</title></rect><rect x="42" y="185.803" width="6" height="14.1966" stroke="black" stroke-width="1" fill="blue" opacity="1" tooltip="enable"><title>(0.00887958,91)</title></rect><rect x="48" y="183.463" width="6" height="16.5367" stroke="black" stroke-width="1" fill="blue" opacity="1" tooltip="enable"><title>(0.0101481,106)</title></rect><rect x="54" y="184.867" width="6" height="15.1326" stroke="black" stroke-width="1" fill="blue" opacity="1" tooltip="enable"><title>(0.0114166,97)</title></rect><rect x="60" y="179.875" width="6" height="20.1248" stroke="black" stroke-width="1" fill="blue" opacity="1" tooltip="enable"><title>(0.0126851,129)</title></rect><rect x="66" y="180.499" width="6" height="19.5008" stroke="black" stroke-width="1" fill="blue" opacity="1" tooltip="enable"><title>(0.0139536,125)</title></rect><rect x="72" y="187.363" width="6" height="12.6365" stroke="black" stroke-width="1" fill="blue" opacity="1" tooltip="enable"><title>(0.0152221,81)</title></rect><rect x="78" y="184.555" width="6" height="15.4446" stroke="black" stroke-width="1" fill="blue" opacity="1" tooltip="enable"><title>(0.0164907,99)</title></rect><rect x="84" y="187.363" width="6" height="12.6365" stroke="black" stroke-width="1" fill="blue" opacity="1" tooltip="enable"><title>(0.0177592,81)</title></rect><rect x="90" y="186.739" width="6" height="13.2605" stroke="black" stroke-width="1" fill="blue" opacity="1" tooltip="enable"><title>(0.0190277,85)</title></rect><rect x="96" y="183.931" width="6" height="16.0686" stroke="black" stroke-width="1" fill="blue" opacity="1" tooltip="enable"><title>(0.0202962,103)</title></rect><rect x="102" y="185.803" width="6" height="14.1966" stroke="black" stroke-width="1" fill="blue" opacity="1" tooltip="enable"><title>(0.0215647,91)</title></rect><rect x="108" y="186.583" width="6" height="13.4165" stroke="black" stroke-width="1" fill="blue" opacity="1" tooltip="enable"><title>(0.0228332,86)</title></rect><rect x="114" y="184.243" width="6" height="15.7566" stroke="black" stroke-width="1" fill="blue" opacity="1" tooltip="enable"><title>(0.0241017,101)</title></rect><rect x="120" y="181.123" width="6" height="18.8768" stroke="black" stroke-width="1" fill="blue" opacity="1" tooltip="enable"><title>(0.0253702,121)</title></rect><rect x="126" y="180.967" width="6" height="19.0328" stroke="black" stroke-width="1" fill="blue" opacity="1" tooltip="enable"><title>(0.0266387,122)</title></rect><rect x="132" y="179.095" width="6" height="20.9048" stroke="black" stroke-width="1" fill="blue" opacity="1" tooltip="enable"><title>(0.0279073,134)</title></rect><rect x="138" y="181.435" width="6" height="18.5647" stroke="black" stroke-width="1" fill="blue" opacity="1" tooltip="enable"><title>(0.0291758,119)</title></rect><rect x="144" y="183.619" width="6" height="16.3807" stroke="black" stroke-width="1" fill="blue" opacity="1" tooltip="enable"><title>(0.0304443,105)</title></rect><rect x="150" y="183.931" width="6" height="16.0686" stroke="black" stroke-width="1" fill="blue" opacity="1" tooltip="enable"><title>(0.0317128,103)</title></rect><rect x="156" y="186.739" width="6" height="13.2605" stroke="black" stroke-width="1" fill="blue" opacity="1" tooltip="enable"><title>(0.0329813,85)</title></rect><rect x="162" y="181.279" width="6" height="18.7207" stroke="black" stroke-width="1" fill="blue" opacity="1" tooltip="enable"><title>(0.0342498,120)</title></rect><rect x="168" y="188.612" width="6" height="11.3885" stroke="black" stroke-width="1" fill="blue" opacity="1" tooltip="enable"><title>(0.0355183,73)</title></rect><rect x="174" y="184.711" width="6" height="15.2886" stroke="black" stroke-width="1" fill="blue" opacity="1" tooltip="enable"><title>(0.0367868,98)</title></rect><rect x="180" y="186.427" width="6" height="13.5725" stroke="black" stroke-width="1" fill="blue" opacity="1" tooltip="enable"><title>(0.0380554,87)</title></rect><rect x="186" y="185.803" width="6" height="14.1966" stroke="black" stroke-width="1" fill="blue" opacity="1" tooltip="enable"><title>(0.0393239,91)</title></rect><rect x="192" y="190.484" width="6" height="9.51638" stroke="black" stroke-width="1" fill="blue" opacity="1" tooltip="enable"><title>(0.0405924,61)</title></rect><rect x="198" y="187.363" width="6" height="12.6365" stroke="black" stroke-width="1" fill="blue" opacity="1" tooltip="enable"><title>(0.0418609,81)</title></rect><rect x="204" y="190.64" width="6" height="9.36037" stroke="black" stroke-width="1" fill="blue" opacity="1" tooltip="enable"><title>(0.0431294,60)</title></rect><rect x="210" y="189.08" width="6" height="10.9204" stroke="black" stroke-width="1" fill="blue" opacity="1" tooltip="enable"><title>(0.0443979,70)</title></rect><rect x="216" y="192.512" width="6" height="7.4883" stroke="black" stroke-width="1" fill="blue" opacity="1" tooltip="enable"><title>(0.0456664,48)</title></rect><rect x="222" y="190.952" width="6" height="9.04836" stroke="black" stroke-width="1" fill="blue" opacity="1" tooltip="enable"><title>(0.0469349,58)</title></rect><rect x="228" y="191.888" width="6" height="8.11232" stroke="black" stroke-width="1" fill="blue" opacity="1" tooltip="enable"><title>(0.0482034,52)</title></rect><rect x="234" y="193.136" width="6" height="6.86427" stroke="black" stroke-width="1" fill="blue" opacity="1" tooltip="enable"><title>(0.049472,44)</title></rect><rect x="240" y="196.88" width="6" height="3.12012" stroke="black" stroke-width="1" fill="blue" opacity="1" tooltip="enable"><title>(0.0507405,20)</title></rect><rect x="246" y="196.88" width="6" height="3.12012" stroke="black" stroke-width="1" fill="blue" opacity="1" tooltip="enable"><title>(0.052009,20)</title></rect><rect x="252" y="196.568" width="6" height="3.43214" stroke="black" stroke-width="1" fill="blue" opacity="1" tooltip="enable"><title>(0.0532775,22)</title></rect><rect x="258" y="196.88" width="6" height="3.12012" stroke="black" stroke-width="1" fill="blue" opacity="1" tooltip="enable"><title>(0.054546,20)</title></rect><rect x="264" y="196.256" width="6" height="3.74415" stroke="black" stroke-width="1" fill="blue" opacity="1" tooltip="enable"><title>(0.0558145,24)</title></rect><rect x="270" y="199.064" width="6" height="0.936037" stroke="black" stroke-width="1" fill="blue" opacity="1" tooltip="enable"><title>(0.057083,6)</title></rect><rect x="276" y="198.44" width="6" height="1.56006" stroke="black" stroke-width="1" fill="blue" opacity="1" tooltip="enable"><title>(0.0583515,10)</title></rect><rect x="282" y="199.064" width="6" height="0.936037" stroke="black" stroke-width="1" fill="blue" opacity="1" tooltip="enable"><title>(0.05962,6)</title></rect><rect x="288" y="199.22" width="6" height="0.780031" stroke="black" stroke-width="1" fill="blue" opacity="1" tooltip="enable"><title>(0.0608886,5)</title></rect><rect x="294" y="198.284" width="6" height="1.71607" stroke="black" stroke-width="1" fill="blue" opacity="1" tooltip="enable"><title>(0.0621571,11)</title></rect><rect x="300" y="198.128" width="6" height="1.87207" stroke="black" stroke-width="1" fill="blue" opacity="1" tooltip="enable"><title>(0.0634256,12)</title></rect><rect x="306" y="199.064" width="6" height="0.936037" stroke="black" stroke-width="1" fill="blue" opacity="1" tooltip="enable"><title>(0.0646941,6)</title></rect><rect x="312" y="197.504" width="6" height="2.4961" stroke="black" stroke-width="1" fill="blue" opacity="1" tooltip="enable"><title>(0.0659626,16)</title></rect><rect x="318" y="199.064" width="6" height="0.936037" stroke="black" stroke-width="1" fill="blue" opacity="1" tooltip="enable"><title>(0.0672311,6)</title></rect><rect x="324" y="199.064" width="6" height="0.936037" stroke="black" stroke-width="1" fill="blue" opacity="1" tooltip="enable"><title>(0.0684996,6)</title></rect><rect x="330" y="199.376" width="6" height="0.624025" stroke="black" stroke-width="1" fill="blue" opacity="1" tooltip="enable"><title>(0.0697681,4)</title></rect><rect x="336" y="198.908" width="6" height="1.09204" stroke="black" stroke-width="1" fill="blue" opacity="1" tooltip="enable"><title>(0.0710367,7)</title></rect><rect x="342" y="198.908" width="6" height="1.09204" stroke="black" stroke-width="1" fill="blue" opacity="1" tooltip="enable"><title>(0.0723052,7)</title></rect><rect x="348" y="199.376" width="6" height="0.624025" stroke="black" stroke-width="1" fill="blue" opacity="1" tooltip="enable"><title>(0.0735737,4)</title></rect><rect x="354" y="197.192" width="6" height="2.80811" stroke="black" stroke-width="1" fill="blue" opacity="1" tooltip="enable"><title>(0.0748422,18)</title></rect><rect x="360" y="199.532" width="6" height="0.468019" stroke="black" stroke-width="1" fill="blue" opacity="1" tooltip="enable"><title>(0.0761107,3)</title></rect><rect x="366" y="199.22" width="6" height="0.780031" stroke="black" stroke-width="1" fill="blue" opacity="1" tooltip="enable"><title>(0.0773792,5)</title></rect><rect x="372" y="199.688" width="6" height="0.312012" stroke="black" stroke-width="1" fill="blue" opacity="1" tooltip="enable"><title>(0.0786477,2)</title></rect><rect x="378" y="199.688" width="6" height="0.312012" stroke="black" stroke-width="1" fill="blue" opacity="1" tooltip="enable"><title>(0.0799162,2)</title></rect><rect x="384" y="199.376" width="6" height="0.624025" stroke="black" stroke-width="1" fill="blue" opacity="1" tooltip="enable"><title>(0.0811847,4)</title></rect><rect x="390" y="200" width="6" height="0" stroke="black" stroke-width="1" fill="blue" opacity="1" tooltip="enable"><title>(0.0824533,0)</title></rect><rect x="396" y="199.688" width="6" height="0.312012" stroke="black" stroke-width="1" fill="blue" opacity="1" tooltip="enable"><title>(0.0837218,2)</title></rect><rect x="402" y="198.752" width="6" height="1.24805" stroke="black" stroke-width="1" fill="blue" opacity="1" tooltip="enable"><title>(0.0849903,8)</title></rect><rect x="408" y="198.752" width="6" height="1.24805" stroke="black" stroke-width="1" fill="blue" opacity="1" tooltip="enable"><title>(0.0862588,8)</title></rect><rect x="414" y="199.064" width="6" height="0.936037" stroke="black" stroke-width="1" fill="blue" opacity="1" tooltip="enable"><title>(0.0875273,6)</title></rect><rect x="420" y="199.688" width="6" height="0.312012" stroke="black" stroke-width="1" fill="blue" opacity="1" tooltip="enable"><title>(0.0887958,2)</title></rect><rect x="426" y="200" width="6" height="0" stroke="black" stroke-width="1" fill="blue" opacity="1" tooltip="enable"><title>(0.0900643,0)</title></rect><rect x="432" y="199.376" width="6" height="0.624025" stroke="black" stroke-width="1" fill="blue" opacity="1" tooltip="enable"><title>(0.0913328,4)</title></rect><rect x="438" y="198.44" width="6" height="1.56006" stroke="black" stroke-width="1" fill="blue" opacity="1" tooltip="enable"><title>(0.0926014,10)</title></rect><rect x="444" y="199.688" width="6" height="0.312012" stroke="black" stroke-width="1" fill="blue" opacity="1" tooltip="enable"><title>(0.0938699,2)</title></rect><rect x="450" y="199.688" width="6" height="0.312012" stroke="black" stroke-width="1" fill="blue" opacity="1" tooltip="enable"><title>(0.0951384,2)</title></rect><rect x="456" y="200" width="6" height="0" stroke="black" stroke-width="1" fill="blue" opacity="1" tooltip="enable"><title>(0.0964069,0)</title></rect><rect x="462" y="199.688" width="6" height="0.312012" stroke="black" stroke-width="1" fill="blue" opacity="1" tooltip="enable"><title>(0.0976754,2)</title></rect><rect x="468" y="199.688" width="6" height="0.312012" stroke="black" stroke-width="1" fill="blue" opacity="1" tooltip="enable"><title>(0.0989439,2)</title></rect><rect x="474" y="200" width="6" height="0" stroke="black" stroke-width="1" fill="blue" opacity="1" tooltip="enable"><title>(0.100212,0)</title></rect><rect x="480" y="200" width="6" height="0" stroke="black" stroke-width="1" fill="blue" opacity="1" tooltip="enable"><title>(0.101481,0)</title></rect><rect x="486" y="200" width="6" height="0" stroke="black" stroke-width="1" fill="blue" opacity="1" tooltip="enable"><title>(0.102749,0)</title></rect><rect x="492" y="200" width="6" height="0" stroke="black" stroke-width="1" fill="blue" opacity="1" tooltip="enable"><title>(0.104018,0)</title></rect><rect x="498" y="199.688" width="6" height="0.312012" stroke="black" stroke-width="1" fill="blue" opacity="1" tooltip="enable"><title>(0.105286,2)</title></rect><rect x="504" y="199.688" width="6" height="0.312012" stroke="black" stroke-width="1" fill="blue" opacity="1" tooltip="enable"><title>(0.106555,2)</title></rect><rect x="510" y="199.688" width="6" height="0.312012" stroke="black" stroke-width="1" fill="blue" opacity="1" tooltip="enable"><title>(0.107823,2)</title></rect><rect x="516" y="200" width="6" height="0" stroke="black" stroke-width="1" fill="blue" opacity="1" tooltip="enable"><title>(0.109092,0)</title></rect><rect x="522" y="199.688" width="6" height="0.312012" stroke="black" stroke-width="1" fill="blue" opacity="1" tooltip="enable"><title>(0.110361,2)</title></rect><rect x="528" y="200" width="6" height="0" stroke="black" stroke-width="1" fill="blue" opacity="1" tooltip="enable"><title>(0.111629,0)</title></rect><rect x="534" y="199.064" width="6" height="0.936037" stroke="black" stroke-width="1" fill="blue" opacity="1" tooltip="enable"><title>(0.112898,6)</title></rect><rect x="540" y="200" width="6" height="0" stroke="black" stroke-width="1" fill="blue" opacity="1" tooltip="enable"><title>(0.114166,0)</title></rect><rect x="546" y="199.688" width="6" height="0.312012" stroke="black" stroke-width="1" fill="blue" opacity="1" tooltip="enable"><title>(0.115435,2)</title></rect><rect x="552" y="199.688" width="6" height="0.312012" stroke="black" stroke-width="1" fill="blue" opacity="1" tooltip="enable"><title>(0.116703,2)</title></rect><rect x="558" y="200" width="6" height="0" stroke="black" stroke-width="1" fill="blue" opacity="1" tooltip="enable"><title>(0.117972,0)</title></rect><rect x="564" y="199.688" width="6" height="0.312012" stroke="black" stroke-width="1" fill="blue" opacity="1" tooltip="enable"><title>(0.11924,2)</title></rect><rect x="570" y="200" width="6" height="0" stroke="black" stroke-width="1" fill="blue" opacity="1" tooltip="enable"><title>(0.120509,0)</title></rect><rect x="576" y="200" width="6" height="0" stroke="black" stroke-width="1" fill="blue" opacity="1" tooltip="enable"><title>(0.121777,0)</title></rect><rect x="582" y="200" width="6" height="0" stroke="black" stroke-width="1" fill="blue" opacity="1" tooltip="enable"><title>(0.123046,0)</title></rect><rect x="588" y="200" width="6" height="0" stroke="black" stroke-width="1" fill="blue" opacity="1" tooltip="enable"><title>(0.124314,0)</title></rect><rect x="594" y="199.844" width="6" height="0.156006" stroke="black" stroke-width="1" fill="blue" opacity="1" tooltip="enable"><title>(0.125583,1)</title></rect><text x="30" y="240" font-size="20" fill="black">0</text>
<text x="600" y="240" font-size="20" fill="black">0.126851</text>
<polyline points="0,220,600,220" stroke="black" stroke-width="1" fill="none" opacity="1"/>
<text x="720" y="20" font-size="20" fill="black">1282</text>
<text x="720" y="200" font-size="20" fill="black">0</text>
<polyline points="660,0,660,200" stroke="black" stroke-width="1" fill="none" opacity="1"/>
</svg>