<?xml version="1.0" standalone="yes"?>
<!-- SVG graphic -->
<svg xmlns='http://www.w3.org/2000/svg' xmlns:xlink='http://www.w3.org/1999/xlink'
 version="1.1">
<rect x="0" y="0" width="6" height="200" stroke="black" stroke-width="1" fill="blue" opacity="1" tooltip="enable"><title>(0,4014)</title></rect><rect x="6" y="181.166" width="6" height="18.8341" stroke="black" stroke-width="1" fill="blue" opacity="1" tooltip="enable"><title>(0.000763846,378)</title></rect><rect x="12" y="192.028" width="6" height="7.9721" stroke="black" stroke-width="1" fill="blue" opacity="1" tooltip="enable"><title>(0.00152769,160)</title></rect><rect x="18" y="191.131" width="6" height="8.86896" stroke="black" stroke-width="1" fill="blue" opacity="1" tooltip="enable"><title>(0.00229154,178)</title></rect><rect x="24" y="192.327" width="6" height="7.67314" stroke="black" stroke-width="1" fill="blue" opacity="1" tooltip="enable"><title>(0.00305538,154)</title></rect><rect x="30" y="191.031" width="6" height="8.96861" stroke="black" stroke-width="1" fill="blue" opacity="1" tooltip="enable"><title>(0.00381923,180)</title></rect><rect x="36" y="191.629" width="6" height="8.3707" stroke="black" stroke-width="1" fill="blue" opacity="1" tooltip="enable"><title>(0.00458307,168)</title></rect><rect x="42" y="192.576" width="6" height="7.42402" stroke="black" stroke-width="1" fill="blue" opacity="1" tooltip="enable"><title>(0.00534692,149)</title></rect><rect x="48" y="192.128" width="6" height="7.87245" stroke="black" stroke-width="1" fill="blue" opacity="1" tooltip="enable"><title>(0.00611076,158)</title></rect><rect x="54" y="194.27" width="6" height="5.72995" stroke="black" stroke-width="1" fill="blue" opacity="1" tooltip="enable"><title>(0.00687461,115)</title></rect><rect x="60" y="194.32" width="6" height="5.68012" stroke="black" stroke-width="1" fill="blue" opacity="1" tooltip="enable"><title>(0.00763846,114)</title></rect><rect x="66" y="194.718" width="6" height="5.28151" stroke="black" stroke-width="1" fill="blue" opacity="1" tooltip="enable"><title>(0.0084023,106)</title></rect><rect x="72" y="195.416" width="6" height="4.58396" stroke="black" stroke-width="1" fill="blue" opacity="1" tooltip="enable"><title>(0.00916615,92)</title></rect><rect x="78" y="194.818" width="6" height="5.18186" stroke="black" stroke-width="1" fill="blue" opacity="1" tooltip="enable"><title>(0.00992999,104)</title></rect><rect x="84" y="195.516" width="6" height="4.4843" stroke="black" stroke-width="1" fill="blue" opacity="1" tooltip="enable"><title>(0.0106938,90)</title></rect><rect x="90" y="195.765" width="6" height="4.23518" stroke="black" stroke-width="1" fill="blue" opacity="1" tooltip="enable"><title>(0.0114577,85)</title></rect><rect x="96" y="196.064" width="6" height="3.93622" stroke="black" stroke-width="1" fill="blue" opacity="1" tooltip="enable"><title>(0.0122215,79)</title></rect><rect x="102" y="196.064" width="6" height="3.93622" stroke="black" stroke-width="1" fill="blue" opacity="1" tooltip="enable"><title>(0.0129854,79)</title></rect><rect x="108" y="196.512" width="6" height="3.48779" stroke="black" stroke-width="1" fill="blue" opacity="1" tooltip="enable"><title>(0.0137492,70)</title></rect><rect x="114" y="196.761" width="6" height="3.23866" stroke="black" stroke-width="1" fill="blue" opacity="1" tooltip="enable"><title>(0.0145131,65)</title></rect><rect x="120" y="197.708" width="6" height="2.29198" stroke="black" stroke-width="1" fill="blue" opacity="1" tooltip="enable"><title>(0.0152769,46)</title></rect><rect x="126" y="196.761" width="6" height="3.23866" stroke="black" stroke-width="1" fill="blue" opacity="1" tooltip="enable"><title>(0.0160408,65)</title></rect><rect x="132" y="197.608" width="6" height="2.39163" stroke="black" stroke-width="1" fill="blue" opacity="1" tooltip="enable"><title>(0.0168046,48)</title></rect><rect x="138" y="196.811" width="6" height="3.18884" stroke="black" stroke-width="1" fill="blue" opacity="1" tooltip="enable"><title>(0.0175684,64)</title></rect><rect x="144" y="196.662" width="6" height="3.33832" stroke="black" stroke-width="1" fill="blue" opacity="1" tooltip="enable"><title>(0.0183323,67)</title></rect><rect x="150" y="197.708" width="6" height="2.29198" stroke="black" stroke-width="1" fill="blue" opacity="1" tooltip="enable"><title>(0.0190961,46)</title></rect><rect x="156" y="197.21" width="6" height="2.79023" stroke="black" stroke-width="1" fill="blue" opacity="1" tooltip="enable"><title>(0.01986,56)</title></rect><rect x="162" y="196.811" width="6" height="3.18884" stroke="black" stroke-width="1" fill="blue" opacity="1" tooltip="enable"><title>(0.0206238,64)</title></rect><rect x="168" y="197.708" width="6" height="2.29198" stroke="black" stroke-width="1" fill="blue" opacity="1" tooltip="enable"><title>(0.0213877,46)</title></rect><rect x="174" y="197.459" width="6" height="2.54111" stroke="black" stroke-width="1" fill="blue" opacity="1" tooltip="enable"><title>(0.0221515,51)</title></rect><rect x="180" y="198.356" width="6" height="1.64425" stroke="black" stroke-width="1" fill="blue" opacity="1" tooltip="enable"><title>(0.0229154,33)</title></rect><rect x="186" y="197.957" width="6" height="2.04285" stroke="black" stroke-width="1" fill="blue" opacity="1" tooltip="enable"><title>(0.0236792,41)</title></rect><rect x="192" y="197.658" width="6" height="2.3418" stroke="black" stroke-width="1" fill="blue" opacity="1" tooltip="enable"><title>(0.0244431,47)</title></rect><rect x="198" y="198.605" width="6" height="1.39512" stroke="black" stroke-width="1" fill="blue" opacity="1" tooltip="enable"><title>(0.0252069,28)</title></rect><rect x="204" y="198.107" width="6" height="1.89337" stroke="black" stroke-width="1" fill="blue" opacity="1" tooltip="enable"><title>(0.0259707,38)</title></rect><rect x="210" y="197.708" width="6" height="2.29198" stroke="black" stroke-width="1" fill="blue" opacity="1" tooltip="enable"><title>(0.0267346,46)</title></rect><rect x="216" y="197.907" width="6" height="2.09268" stroke="black" stroke-width="1" fill="blue" opacity="1" tooltip="enable"><title>(0.0274984,42)</title></rect><rect x="222" y="198.107" width="6" height="1.89337" stroke="black" stroke-width="1" fill="blue" opacity="1" tooltip="enable"><title>(0.0282623,38)</title></rect><rect x="228" y="198.057" width="6" height="1.9432" stroke="black" stroke-width="1" fill="blue" opacity="1" tooltip="enable"><title>(0.0290261,39)</title></rect><rect x="234" y="198.655" width="6" height="1.34529" stroke="black" stroke-width="1" fill="blue" opacity="1" tooltip="enable"><title>(0.02979,27)</title></rect><rect x="240" y="197.907" width="6" height="2.09268" stroke="black" stroke-width="1" fill="blue" opacity="1" tooltip="enable"><title>(0.0305538,42)</title></rect><rect x="246" y="197.907" width="6" height="2.09268" stroke="black" stroke-width="1" fill="blue" opacity="1" tooltip="enable"><title>(0.0313177,42)</title></rect><rect x="252" y="199.003" width="6" height="0.996512" stroke="black" stroke-width="1" fill="blue" opacity="1" tooltip="enable"><title>(0.0320815,20)</title></rect><rect x="258" y="198.555" width="6" height="1.44494" stroke="black" stroke-width="1" fill="blue" opacity="1" tooltip="enable"><title>(0.0328454,29)</title></rect><rect x="264" y="198.356" width="6" height="1.64425" stroke="black" stroke-width="1" fill="blue" opacity="1" tooltip="enable"><title>(0.0336092,33)</title></rect><rect x="270" y="198.605" width="6" height="1.39512" stroke="black" stroke-width="1" fill="blue" opacity="1" tooltip="enable"><title>(0.0343731,28)</title></rect><rect x="276" y="198.804" width="6" height="1.19581" stroke="black" stroke-width="1" fill="blue" opacity="1" tooltip="enable"><title>(0.0351369,24)</title></rect><rect x="282" y="199.003" width="6" height="0.996512" stroke="black" stroke-width="1" fill="blue" opacity="1" tooltip="enable"><title>(0.0359007,20)</title></rect><rect x="288" y="199.103" width="6" height="0.896861" stroke="black" stroke-width="1" fill="blue" opacity="1" tooltip="enable"><title>(0.0366646,18)</title></rect><rect x="294" y="199.103" width="6" height="0.896861" stroke="black" stroke-width="1" fill="blue" opacity="1" tooltip="enable"><title>(0.0374284,18)</title></rect><rect x="300" y="199.203" width="6" height="0.79721" stroke="black" stroke-width="1" fill="blue" opacity="1" tooltip="enable"><title>(0.0381923,16)</title></rect><rect x="306" y="199.302" width="6" height="0.697559" stroke="black" stroke-width="1" fill="blue" opacity="1" tooltip="enable"><title>(0.0389561,14)</title></rect><rect x="312" y="199.302" width="6" height="0.697559" stroke="black" stroke-width="1" fill="blue" opacity="1" tooltip="enable"><title>(0.03972,14)</title></rect><rect x="318" y="199.203" width="6" height="0.79721" stroke="black" stroke-width="1" fill="blue" opacity="1" tooltip="enable"><title>(0.0404838,16)</title></rect><rect x="324" y="199.302" width="6" height="0.697559" stroke="black" stroke-width="1" fill="blue" opacity="1" tooltip="enable"><title>(0.0412477,14)</title></rect><rect x="330" y="199.502" width="6" height="0.498256" stroke="black" stroke-width="1" fill="blue" opacity="1" tooltip="enable"><title>(0.0420115,10)</title></rect><rect x="336" y="199.302" width="6" height="0.697559" stroke="black" stroke-width="1" fill="blue" opacity="1" tooltip="enable"><title>(0.0427754,14)</title></rect><rect x="342" y="199.402" width="6" height="0.597907" stroke="black" stroke-width="1" fill="blue" opacity="1" tooltip="enable"><title>(0.0435392,12)</title></rect><rect x="348" y="199.402" width="6" height="0.597907" stroke="black" stroke-width="1" fill="blue" opacity="1" tooltip="enable"><title>(0.044303,12)</title></rect><rect x="354" y="199.502" width="6" height="0.498256" stroke="black" stroke-width="1" fill="blue" opacity="1" tooltip="enable"><title>(0.0450669,10)</title></rect><rect x="360" y="199.701" width="6" height="0.298954" stroke="black" stroke-width="1" fill="blue" opacity="1" tooltip="enable"><title>(0.0458307,6)</title></rect><rect x="366" y="199.601" width="6" height="0.398605" stroke="black" stroke-width="1" fill="blue" opacity="1" tooltip="enable"><title>(0.0465946,8)</title></rect><rect x="372" y="199.003" width="6" height="0.996512" stroke="black" stroke-width="1" fill="blue" opacity="1" tooltip="enable"><title>(0.0473584,20)</title></rect><rect x="378" y="199.701" width="6" height="0.298954" stroke="black" stroke-width="1" fill="blue" opacity="1" tooltip="enable"><title>(0.0481223,6)</title></rect><rect x="384" y="199.601" width="6" height="0.398605" stroke="black" stroke-width="1" fill="blue" opacity="1" tooltip="enable"><title>(0.0488861,8)</title></rect><rect x="390" y="199.502" width="6" height="0.498256" stroke="black" stroke-width="1" fill="blue" opacity="1" tooltip="enable"><title>(0.04965,10)</title></rect><rect x="396" y="199.801" width="6" height="0.199302" stroke="black" stroke-width="1" fill="blue" opacity="1" tooltip="enable"><title>(0.0504138,4)</title></rect><rect x="402" y="199.701" width="6" height="0.298954" stroke="black" stroke-width="1" fill="blue" opacity="1" tooltip="enable"><title>(0.0511777,6)</title></rect><rect x="408" y="199.701" width="6" height="0.298954" stroke="black" stroke-width="1" fill="blue" opacity="1" tooltip="enable"><title>(0.0519415,6)</title></rect><rect x="414" y="199.95" width="6" height="0.0498256" stroke="black" stroke-width="1" fill="blue" opacity="1" tooltip="enable"><title>(0.0527053,1)</title></rect><rect x="420" y="199.851" width="6" height="0.149477" stroke="black" stroke-width="1" fill="blue" opacity="1" tooltip="enable"><title>(0.0534692,3)</title></rect><rect x="426" y="199.801" width="6" height="0.199302" stroke="black" stroke-width="1" fill="blue" opacity="1" tooltip="enable"><title>(0.054233,4)</title></rect><rect x="432" y="200" width="6" height="0" stroke="black" stroke-width="1" fill="blue" opacity="1" tooltip="enable"><title>(0.0549969,0)</title></rect><rect x="438" y="199.701" width="6" height="0.298954" stroke="black" stroke-width="1" fill="blue" opacity="1" tooltip="enable"><title>(0.0557607,6)</title></rect><rect x="444" y="200" width="6" height="0" stroke="black" stroke-width="1" fill="blue" opacity="1" tooltip="enable"><title>(0.0565246,0)</title></rect><rect x="450" y="199.9" width="6" height="0.0996512" stroke="black" stroke-width="1" fill="blue" opacity="1" tooltip="enable"><title>(0.0572884,2)</title></rect><rect x="456" y="199.9" width="6" height="0.0996512" stroke="black" stroke-width="1" fill="blue" opacity="1" tooltip="enable"><title>(0.0580523,2)</title></rect><rect x="462" y="199.9" width="6" height="0.0996512" stroke="black" stroke-width="1" fill="blue" opacity="1" tooltip="enable"><title>(0.0588161,2)</title></rect><rect x="468" y="199.9" width="6" height="0.0996512" stroke="black" stroke-width="1" fill="blue" opacity="1" tooltip="enable"><title>(0.05958,2)</title></rect><rect x="474" y="199.801" width="6" height="0.199302" stroke="black" stroke-width="1" fill="blue" opacity="1" tooltip="enable"><title>(0.0603438,4)</title></rect><rect x="480" y="199.9" width="6" height="0.0996512" stroke="black" stroke-width="1" fill="blue" opacity="1" tooltip="enable"><title>(0.0611076,2)</title></rect><rect x="486" y="199.9" width="6" height="0.0996512" stroke="black" stroke-width="1" fill="blue" opacity="1" tooltip="enable"><title>(0.0618715,2)</title></rect><rect x="492" y="199.9" width="6" height="0.0996512" stroke="black" stroke-width="1" fill="blue" opacity="1" tooltip="enable"><title>(0.0626353,2)</title></rect><rect x="498" y="200" width="6" height="0" stroke="black" stroke-width="1" fill="blue" opacity="1" tooltip="enable"><title>(0.0633992,0)</title></rect><rect x="504" y="200" width="6" height="0" stroke="black" stroke-width="1" fill="blue" opacity="1" tooltip="enable"><title>(0.064163,0)</title></rect><rect x="510" y="200" width="6" height="0" stroke="black" stroke-width="1" fill="blue" opacity="1" tooltip="enable"><title>(0.0649269,0)</title></rect><rect x="516" y="200" width="6" height="0" stroke="black" stroke-width="1" fill="blue" opacity="1" tooltip="enable"><title>(0.0656907,0)</title></rect><rect x="522" y="199.801" width="6" height="0.199302" stroke="black" stroke-width="1" fill="blue" opacity="1" tooltip="enable"><title>(0.0664546,4)</title></rect><rect x="528" y="199.9" width="6" height="0.0996512" stroke="black" stroke-width="1" fill="blue" opacity="1" tooltip="enable"><title>(0.0672184,2)</title></rect><rect x="534" y="200" width="6" height="0" stroke="black" stroke-width="1" fill="blue" opacity="1" tooltip="enable"><title>(0.0679823,0)</title></rect><rect x="540" y="200" width="6" height="0" stroke="black" stroke-width="1" fill="blue" opacity="1" tooltip="enable"><title>(0.0687461,0)</title></rect><rect x="546" y="199.9" width="6" height="0.0996512" stroke="black" stroke-width="1" fill="blue" opacity="1" tooltip="enable"><title>(0.06951,2)</title></rect><rect x="552" y="199.9" width="6" height="0.0996512" stroke="black" stroke-width="1" fill="blue" opacity="1" tooltip="enable"><title>(0.0702738,2)</title></rect><rect x="558" y="199.9" width="6" height="0.0996512" stroke="black" stroke-width="1" fill="blue" opacity="1" tooltip="enable"><title>(0.0710376,2)</title></rect><rect x="564" y="199.9" width="6" height="0.0996512" stroke="black" stroke-width="1" fill="blue" opacity="1" tooltip="enable"><title>(0.0718015,2)</title></rect><rect x="570" y="200" width="6" height="0" stroke="black" stroke-width="1" fill="blue" opacity="1" tooltip="enable"><title>(0.0725653,0)</title></rect><rect x="576" y="199.9" width="6" height="0.0996512" stroke="black" stroke-width="1" fill="blue" opacity="1" tooltip="enable"><title>(0.0733292,2)</title></rect><rect x="582" y="200" width="6" height="0" stroke="black" stroke-width="1" fill="blue" opacity="1" tooltip="enable"><title>(0.074093,0)</title></rect><rect x="588" y="200" width="6" height="0" stroke="black" stroke-width="1" fill="blue" opacity="1" tooltip="enable"><title>(0.0748569,0)</title></rect><rect x="594" y="199.95" width="6" height="0.0498256" stroke="black" stroke-width="1" fill="blue" opacity="1" tooltip="enable"><title>(0.0756207,1)</title></rect><text x="30" y="240" font-size="20" fill="black">0</text>
<text x="600" y="240" font-size="20" fill="black">0.0763846</text>
<polyline points="0,220,600,220" stroke="black" stroke-width="1" fill="none" opacity="1"/>
<text x="720" y="20" font-size="20" fill="black">4014</text>
<text x="720" y="200" font-size="20" fill="black">0</text>
<polyline points="660,0,660,200" stroke="black" stroke-width="1" fill="none" opacity="1"/>
</svg>