<?xml version="1.0" standalone="yes"?>
<!-- SVG graphic -->
<svg xmlns='http://www.w3.org/2000/svg' xmlns:xlink='http://www.w3.org/1999/xlink'
 version="1.1">
<rect x="0" y="0" width="6" height="200" stroke="black" stroke-width="1" fill="blue" opacity="1" tooltip="enable"><title>(0,1328)</title></rect><rect x="6" y="7.37952" width="6" height="192.62" stroke="black" stroke-width="1" fill="blue" opacity="1" tooltip="enable"><title>(0.00126995,1279)</title></rect><rect x="12" y="69.7289" width="6" height="130.271" stroke="black" stroke-width="1" fill="blue" opacity="1" tooltip="enable"><title>(0.0025399,865)</title></rect><rect x="18" y="113.102" width="6" height="86.8976" stroke="black" stroke-width="1" fill="blue" opacity="1" tooltip="enable"><title>(0.00380985,577)</title></rect><rect x="24" y="151.958" width="6" height="48.0422" stroke="black" stroke-width="1" fill="blue" opacity="1" tooltip="enable"><title>(0.0050798,319)</title></rect><rect x="30" y="159.036" width="6" height="40.9639" stroke="black" stroke-width="1" fill="blue" opacity="1" tooltip="enable"><title>(0.00634976,272)</title></rect><rect x="36" y="162.801" width="6" height="37.1988" stroke="black" stroke-width="1" fill="blue" opacity="1" tooltip="enable"><title>(0.00761971,247)</title></rect><rect x="42" y="170.482" width="6" height="29.5181" stroke="black" stroke-width="1" fill="blue" opacity="1" tooltip="enable"><title>(0.00888966,196)</title></rect><rect x="48" y="179.669" width="6" height="20.3313" stroke="black" stroke-width="1" fill="blue" opacity="1" tooltip="enable"><title>(0.0101596,135)</title></rect><rect x="54" y="177.108" width="6" height="22.8916" stroke="black" stroke-width="1" fill="blue" opacity="1" tooltip="enable"><title>(0.0114296,152)</title></rect><rect x="60" y="182.078" width="6" height="17.9217" stroke="black" stroke-width="1" fill="blue" opacity="1" tooltip="enable"><title>(0.0126995,119)</title></rect><rect x="66" y="175.452" width="6" height="24.5482" stroke="black" stroke-width="1" fill="blue" opacity="1" tooltip="enable"><title>(0.0139695,163)</title></rect><rect x="72" y="176.506" width="6" height="23.494" stroke="black" stroke-width="1" fill="blue" opacity="1" tooltip="enable"><title>(0.0152394,156)</title></rect><rect x="78" y="180.422" width="6" height="19.5783" stroke="black" stroke-width="1" fill="blue" opacity="1" tooltip="enable"><title>(0.0165094,130)</title></rect><rect x="84" y="181.175" width="6" height="18.8253" stroke="black" stroke-width="1" fill="blue" opacity="1" tooltip="enable"><title>(0.0177793,125)</title></rect><rect x="90" y="180.572" width="6" height="19.4277" stroke="black" stroke-width="1" fill="blue" opacity="1" tooltip="enable"><title>(0.0190493,129)</title></rect><rect x="96" y="185.843" width="6" height="14.1566" stroke="black" stroke-width="1" fill="blue" opacity="1" tooltip="enable"><title>(0.0203192,94)</title></rect><rect x="102" y="186.446" width="6" height="13.5542" stroke="black" stroke-width="1" fill="blue" opacity="1" tooltip="enable"><title>(0.0215892,90)</title></rect><rect x="108" y="186.747" width="6" height="13.253" stroke="black" stroke-width="1" fill="blue" opacity="1" tooltip="enable"><title>(0.0228591,88)</title></rect><rect x="114" y="184.036" width="6" height="15.9639" stroke="black" stroke-width="1" fill="blue" opacity="1" tooltip="enable"><title>(0.0241291,106)</title></rect><rect x="120" y="185.241" width="6" height="14.759" stroke="black" stroke-width="1" fill="blue" opacity="1" tooltip="enable"><title>(0.025399,98)</title></rect><rect x="126" y="186.596" width="6" height="13.4036" stroke="black" stroke-width="1" fill="blue" opacity="1" tooltip="enable"><title>(0.026669,89)</title></rect><rect x="132" y="186.596" width="6" height="13.4036" stroke="black" stroke-width="1" fill="blue" opacity="1" tooltip="enable"><title>(0.0279389,89)</title></rect><rect x="138" y="187.349" width="6" height="12.6506" stroke="black" stroke-width="1" fill="blue" opacity="1" tooltip="enable"><title>(0.0292089,84)</title></rect><rect x="144" y="187.651" width="6" height="12.3494" stroke="black" stroke-width="1" fill="blue" opacity="1" tooltip="enable"><title>(0.0304788,82)</title></rect><rect x="150" y="193.072" width="6" height="6.92771" stroke="black" stroke-width="1" fill="blue" opacity="1" tooltip="enable"><title>(0.0317488,46)</title></rect><rect x="156" y="190.06" width="6" height="9.93976" stroke="black" stroke-width="1" fill="blue" opacity="1" tooltip="enable"><title>(0.0330187,66)</title></rect><rect x="162" y="185.542" width="6" height="14.4578" stroke="black" stroke-width="1" fill="blue" opacity="1" tooltip="enable"><title>(0.0342887,96)</title></rect><rect x="168" y="195.181" width="6" height="4.81928" stroke="black" stroke-width="1" fill="blue" opacity="1" tooltip="enable"><title>(0.0355586,32)</title></rect><rect x="174" y="192.62" width="6" height="7.37952" stroke="black" stroke-width="1" fill="blue" opacity="1" tooltip="enable"><title>(0.0368286,49)</title></rect><rect x="180" y="193.825" width="6" height="6.1747" stroke="black" stroke-width="1" fill="blue" opacity="1" tooltip="enable"><title>(0.0380985,41)</title></rect><rect x="186" y="193.072" width="6" height="6.92771" stroke="black" stroke-width="1" fill="blue" opacity="1" tooltip="enable"><title>(0.0393685,46)</title></rect><rect x="192" y="196.687" width="6" height="3.31325" stroke="black" stroke-width="1" fill="blue" opacity="1" tooltip="enable"><title>(0.0406384,22)</title></rect><rect x="198" y="191.867" width="6" height="8.13253" stroke="black" stroke-width="1" fill="blue" opacity="1" tooltip="enable"><title>(0.0419084,54)</title></rect><rect x="204" y="197.892" width="6" height="2.10843" stroke="black" stroke-width="1" fill="blue" opacity="1" tooltip="enable"><title>(0.0431783,14)</title></rect><rect x="210" y="196.687" width="6" height="3.31325" stroke="black" stroke-width="1" fill="blue" opacity="1" tooltip="enable"><title>(0.0444483,22)</title></rect><rect x="216" y="194.88" width="6" height="5.12048" stroke="black" stroke-width="1" fill="blue" opacity="1" tooltip="enable"><title>(0.0457182,34)</title></rect><rect x="222" y="196.084" width="6" height="3.91566" stroke="black" stroke-width="1" fill="blue" opacity="1" tooltip="enable"><title>(0.0469882,26)</title></rect><rect x="228" y="197.44" width="6" height="2.56024" stroke="black" stroke-width="1" fill="blue" opacity="1" tooltip="enable"><title>(0.0482581,17)</title></rect><rect x="234" y="196.235" width="6" height="3.76506" stroke="black" stroke-width="1" fill="blue" opacity="1" tooltip="enable"><title>(0.0495281,25)</title></rect><rect x="240" y="196.988" width="6" height="3.01205" stroke="black" stroke-width="1" fill="blue" opacity="1" tooltip="enable"><title>(0.050798,20)</title></rect><rect x="246" y="199.096" width="6" height="0.903615" stroke="black" stroke-width="1" fill="blue" opacity="1" tooltip="enable"><title>(0.052068,6)</title></rect><rect x="252" y="197.44" width="6" height="2.56024" stroke="black" stroke-width="1" fill="blue" opacity="1" tooltip="enable"><title>(0.0533379,17)</title></rect><rect x="258" y="196.235" width="6" height="3.76506" stroke="black" stroke-width="1" fill="blue" opacity="1" tooltip="enable"><title>(0.0546079,25)</title></rect><rect x="264" y="198.193" width="6" height="1.80723" stroke="black" stroke-width="1" fill="blue" opacity="1" tooltip="enable"><title>(0.0558778,12)</title></rect><rect x="270" y="198.193" width="6" height="1.80723" stroke="black" stroke-width="1" fill="blue" opacity="1" tooltip="enable"><title>(0.0571478,12)</title></rect><rect x="276" y="196.988" width="6" height="3.01205" stroke="black" stroke-width="1" fill="blue" opacity="1" tooltip="enable"><title>(0.0584178,20)</title></rect><rect x="282" y="196.687" width="6" height="3.31325" stroke="black" stroke-width="1" fill="blue" opacity="1" tooltip="enable"><title>(0.0596877,22)</title></rect><rect x="288" y="197.289" width="6" height="2.71084" stroke="black" stroke-width="1" fill="blue" opacity="1" tooltip="enable"><title>(0.0609577,18)</title></rect><rect x="294" y="198.795" width="6" height="1.20482" stroke="black" stroke-width="1" fill="blue" opacity="1" tooltip="enable"><title>(0.0622276,8)</title></rect><rect x="300" y="197.289" width="6" height="2.71084" stroke="black" stroke-width="1" fill="blue" opacity="1" tooltip="enable"><title>(0.0634976,18)</title></rect><rect x="306" y="198.343" width="6" height="1.65663" stroke="black" stroke-width="1" fill="blue" opacity="1" tooltip="enable"><title>(0.0647675,11)</title></rect><rect x="312" y="197.44" width="6" height="2.56024" stroke="black" stroke-width="1" fill="blue" opacity="1" tooltip="enable"><title>(0.0660375,17)</title></rect><rect x="318" y="197.44" width="6" height="2.56024" stroke="black" stroke-width="1" fill="blue" opacity="1" tooltip="enable"><title>(0.0673074,17)</title></rect><rect x="324" y="197.139" width="6" height="2.86145" stroke="black" stroke-width="1" fill="blue" opacity="1" tooltip="enable"><title>(0.0685774,19)</title></rect><rect x="330" y="197.892" width="6" height="2.10843" stroke="black" stroke-width="1" fill="blue" opacity="1" tooltip="enable"><title>(0.0698473,14)</title></rect><rect x="336" y="196.988" width="6" height="3.01205" stroke="black" stroke-width="1" fill="blue" opacity="1" tooltip="enable"><title>(0.0711173,20)</title></rect><rect x="342" y="197.59" width="6" height="2.40964" stroke="black" stroke-width="1" fill="blue" opacity="1" tooltip="enable"><title>(0.0723872,16)</title></rect><rect x="348" y="198.795" width="6" height="1.20482" stroke="black" stroke-width="1" fill="blue" opacity="1" tooltip="enable"><title>(0.0736572,8)</title></rect><rect x="354" y="199.096" width="6" height="0.903615" stroke="black" stroke-width="1" fill="blue" opacity="1" tooltip="enable"><title>(0.0749271,6)</title></rect><rect x="360" y="197.59" width="6" height="2.40964" stroke="black" stroke-width="1" fill="blue" opacity="1" tooltip="enable"><title>(0.0761971,16)</title></rect><rect x="366" y="198.494" width="6" height="1.50602" stroke="black" stroke-width="1" fill="blue" opacity="1" tooltip="enable"><title>(0.077467,10)</title></rect><rect x="372" y="198.795" width="6" height="1.20482" stroke="black" stroke-width="1" fill="blue" opacity="1" tooltip="enable"><title>(0.078737,8)</title></rect><rect x="378" y="199.398" width="6" height="0.60241" stroke="black" stroke-width="1" fill="blue" opacity="1" tooltip="enable"><title>(0.0800069,4)</title></rect><rect x="384" y="198.795" width="6" height="1.20482" stroke="black" stroke-width="1" fill="blue" opacity="1" tooltip="enable"><title>(0.0812769,8)</title></rect><rect x="390" y="199.699" width="6" height="0.301205" stroke="black" stroke-width="1" fill="blue" opacity="1" tooltip="enable"><title>(0.0825468,2)</title></rect><rect x="396" y="199.398" width="6" height="0.60241" stroke="black" stroke-width="1" fill="blue" opacity="1" tooltip="enable"><title>(0.0838168,4)</title></rect><rect x="402" y="199.699" width="6" height="0.301205" stroke="black" stroke-width="1" fill="blue" opacity="1" tooltip="enable"><title>(0.0850867,2)</title></rect><rect x="408" y="199.096" width="6" height="0.903615" stroke="black" stroke-width="1" fill="blue" opacity="1" tooltip="enable"><title>(0.0863567,6)</title></rect><rect x="414" y="200" width="6" height="0" stroke="black" stroke-width="1" fill="blue" opacity="1" tooltip="enable"><title>(0.0876266,0)</title></rect><rect x="420" y="199.699" width="6" height="0.301205" stroke="black" stroke-width="1" fill="blue" opacity="1" tooltip="enable"><title>(0.0888966,2)</title></rect><rect x="426" y="199.398" width="6" height="0.60241" stroke="black" stroke-width="1" fill="blue" opacity="1" tooltip="enable"><title>(0.0901665,4)</title></rect><rect x="432" y="199.699" width="6" height="0.301205" stroke="black" stroke-width="1" fill="blue" opacity="1" tooltip="enable"><title>(0.0914365,2)</title></rect><rect x="438" y="199.096" width="6" height="0.903615" stroke="black" stroke-width="1" fill="blue" opacity="1" tooltip="enable"><title>(0.0927064,6)</title></rect><rect x="444" y="199.699" width="6" height="0.301205" stroke="black" stroke-width="1" fill="blue" opacity="1" tooltip="enable"><title>(0.0939764,2)</title></rect><rect x="450" y="200" width="6" height="0" stroke="black" stroke-width="1" fill="blue" opacity="1" tooltip="enable"><title>(0.0952463,0)</title></rect><rect x="456" y="200" width="6" height="0" stroke="black" stroke-width="1" fill="blue" opacity="1" tooltip="enable"><title>(0.0965163,0)</title></rect><rect x="462" y="199.699" width="6" height="0.301205" stroke="black" stroke-width="1" fill="blue" opacity="1" tooltip="enable"><title>(0.0977862,2)</title></rect><rect x="468" y="199.699" width="6" height="0.301205" stroke="black" stroke-width="1" fill="blue" opacity="1" tooltip="enable"><title>(0.0990562,2)</title></rect><rect x="474" y="200" width="6" height="0" stroke="black" stroke-width="1" fill="blue" opacity="1" tooltip="enable"><title>(0.100326,0)</title></rect><rect x="480" y="200" width="6" height="0" stroke="black" stroke-width="1" fill="blue" opacity="1" tooltip="enable"><title>(0.101596,0)</title></rect><rect x="486" y="199.699" width="6" height="0.301205" stroke="black" stroke-width="1" fill="blue" opacity="1" tooltip="enable"><title>(0.102866,2)</title></rect><rect x="492" y="200" width="6" height="0" stroke="black" stroke-width="1" fill="blue" opacity="1" tooltip="enable"><title>(0.104136,0)</title></rect><rect x="498" y="200" width="6" height="0" stroke="black" stroke-width="1" fill="blue" opacity="1" tooltip="enable"><title>(0.105406,0)</title></rect><rect x="504" y="199.699" width="6" height="0.301205" stroke="black" stroke-width="1" fill="blue" opacity="1" tooltip="enable"><title>(0.106676,2)</title></rect><rect x="510" y="200" width="6" height="0" stroke="black" stroke-width="1" fill="blue" opacity="1" tooltip="enable"><title>(0.107946,0)</title></rect><rect x="516" y="200" width="6" height="0" stroke="black" stroke-width="1" fill="blue" opacity="1" tooltip="enable"><title>(0.109216,0)</title></rect><rect x="522" y="200" width="6" height="0" stroke="black" stroke-width="1" fill="blue" opacity="1" tooltip="enable"><title>(0.110486,0)</title></rect><rect x="528" y="200" width="6" height="0" stroke="black" stroke-width="1" fill="blue" opacity="1" tooltip="enable"><title>(0.111756,0)</title></rect><rect x="534" y="200" width="6" height="0" stroke="black" stroke-width="1" fill="blue" opacity="1" tooltip="enable"><title>(0.113026,0)</title></rect><rect x="540" y="200" width="6" height="0" stroke="black" stroke-width="1" fill="blue" opacity="1" tooltip="enable"><title>(0.114296,0)</title></rect><rect x="546" y="200" width="6" height="0" stroke="black" stroke-width="1" fill="blue" opacity="1" tooltip="enable"><title>(0.115566,0)</title></rect><rect x="552" y="200" width="6" height="0" stroke="black" stroke-width="1" fill="blue" opacity="1" tooltip="enable"><title>(0.116836,0)</title></rect><rect x="558" y="200" width="6" height="0" stroke="black" stroke-width="1" fill="blue" opacity="1" tooltip="enable"><title>(0.118105,0)</title></rect><rect x="564" y="199.699" width="6" height="0.301205" stroke="black" stroke-width="1" fill="blue" opacity="1" tooltip="enable"><title>(0.119375,2)</title></rect><rect x="570" y="200" width="6" height="0" stroke="black" stroke-width="1" fill="blue" opacity="1" tooltip="enable"><title>(0.120645,0)</title></rect><rect x="576" y="200" width="6" height="0" stroke="black" stroke-width="1" fill="blue" opacity="1" tooltip="enable"><title>(0.121915,0)</title></rect><rect x="582" y="199.398" width="6" height="0.60241" stroke="black" stroke-width="1" fill="blue" opacity="1" tooltip="enable"><title>(0.123185,4)</title></rect><rect x="588" y="200" width="6" height="0" stroke="black" stroke-width="1" fill="blue" opacity="1" tooltip="enable"><title>(0.124455,0)</title></rect><rect x="594" y="199.849" width="6" height="0.150602" stroke="black" stroke-width="1" fill="blue" opacity="1" tooltip="enable"><title>(0.125725,1)</title></rect><text x="30" y="240" font-size="20" fill="black">0</text>
<text x="600" y="240" font-size="20" fill="black">0.126995</text>
<polyline points="0,220,600,220" stroke="black" stroke-width="1" fill="none" opacity="1"/>
<text x="720" y="20" font-size="20" fill="black">1328</text>
<text x="720" y="200" font-size="20" fill="black">0</text>
<polyline points="660,0,660,200" stroke="black" stroke-width="1" fill="none" opacity="1"/>
</svg>