<?xml version="1.0" standalone="yes"?>
<!-- SVG graphic -->
<svg xmlns='http://www.w3.org/2000/svg' xmlns:xlink='http://www.w3.org/1999/xlink'
 version="1.1">
<rect x="0" y="0" width="6" height="200" stroke="black" stroke-width="1" fill="blue" opacity="1" tooltip="enable"><title>(0,1926)</title></rect><rect x="6" y="38.5254" width="6" height="161.475" stroke="black" stroke-width="1" fill="blue" opacity="1" tooltip="enable"><title>(0.00176074,1555)</title></rect><rect x="12" y="94.704" width="6" height="105.296" stroke="black" stroke-width="1" fill="blue" opacity="1" tooltip="enable"><title>(0.00352149,1014)</title></rect><rect x="18" y="155.763" width="6" height="44.2368" stroke="black" stroke-width="1" fill="blue" opacity="1" tooltip="enable"><title>(0.00528223,426)</title></rect><rect x="24" y="172.274" width="6" height="27.7259" stroke="black" stroke-width="1" fill="blue" opacity="1" tooltip="enable"><title>(0.00704297,267)</title></rect><rect x="30" y="174.247" width="6" height="25.7529" stroke="black" stroke-width="1" fill="blue" opacity="1" tooltip="enable"><title>(0.00880372,248)</title></rect><rect x="36" y="174.455" width="6" height="25.5452" stroke="black" stroke-width="1" fill="blue" opacity="1" tooltip="enable"><title>(0.0105645,246)</title></rect><rect x="42" y="179.232" width="6" height="20.7684" stroke="black" stroke-width="1" fill="blue" opacity="1" tooltip="enable"><title>(0.0123252,200)</title></rect><rect x="48" y="179.232" width="6" height="20.7684" stroke="black" stroke-width="1" fill="blue" opacity="1" tooltip="enable"><title>(0.0140859,200)</title></rect><rect x="54" y="180.478" width="6" height="19.5223" stroke="black" stroke-width="1" fill="blue" opacity="1" tooltip="enable"><title>(0.0158467,188)</title></rect><rect x="60" y="179.855" width="6" height="20.1454" stroke="black" stroke-width="1" fill="blue" opacity="1" tooltip="enable"><title>(0.0176074,194)</title></rect><rect x="66" y="179.439" width="6" height="20.5607" stroke="black" stroke-width="1" fill="blue" opacity="1" tooltip="enable"><title>(0.0193682,198)</title></rect><rect x="72" y="179.855" width="6" height="20.1454" stroke="black" stroke-width="1" fill="blue" opacity="1" tooltip="enable"><title>(0.0211289,194)</title></rect><rect x="78" y="183.074" width="6" height="16.9263" stroke="black" stroke-width="1" fill="blue" opacity="1" tooltip="enable"><title>(0.0228897,163)</title></rect><rect x="84" y="182.243" width="6" height="17.757" stroke="black" stroke-width="1" fill="blue" opacity="1" tooltip="enable"><title>(0.0246504,171)</title></rect><rect x="90" y="182.866" width="6" height="17.134" stroke="black" stroke-width="1" fill="blue" opacity="1" tooltip="enable"><title>(0.0264112,165)</title></rect><rect x="96" y="186.397" width="6" height="13.6033" stroke="black" stroke-width="1" fill="blue" opacity="1" tooltip="enable"><title>(0.0281719,131)</title></rect><rect x="102" y="190.135" width="6" height="9.86501" stroke="black" stroke-width="1" fill="blue" opacity="1" tooltip="enable"><title>(0.0299326,95)</title></rect><rect x="108" y="190.862" width="6" height="9.13811" stroke="black" stroke-width="1" fill="blue" opacity="1" tooltip="enable"><title>(0.0316934,88)</title></rect><rect x="114" y="192.627" width="6" height="7.37279" stroke="black" stroke-width="1" fill="blue" opacity="1" tooltip="enable"><title>(0.0334541,71)</title></rect><rect x="120" y="193.769" width="6" height="6.23053" stroke="black" stroke-width="1" fill="blue" opacity="1" tooltip="enable"><title>(0.0352149,60)</title></rect><rect x="126" y="196.262" width="6" height="3.73832" stroke="black" stroke-width="1" fill="blue" opacity="1" tooltip="enable"><title>(0.0369756,36)</title></rect><rect x="132" y="196.262" width="6" height="3.73832" stroke="black" stroke-width="1" fill="blue" opacity="1" tooltip="enable"><title>(0.0387364,36)</title></rect><rect x="138" y="197.923" width="6" height="2.07684" stroke="black" stroke-width="1" fill="blue" opacity="1" tooltip="enable"><title>(0.0404971,20)</title></rect><rect x="144" y="197.715" width="6" height="2.28453" stroke="black" stroke-width="1" fill="blue" opacity="1" tooltip="enable"><title>(0.0422578,22)</title></rect><rect x="150" y="198.962" width="6" height="1.03842" stroke="black" stroke-width="1" fill="blue" opacity="1" tooltip="enable"><title>(0.0440186,10)</title></rect><rect x="156" y="197.508" width="6" height="2.49221" stroke="black" stroke-width="1" fill="blue" opacity="1" tooltip="enable"><title>(0.0457793,24)</title></rect><rect x="162" y="198.65" width="6" height="1.34995" stroke="black" stroke-width="1" fill="blue" opacity="1" tooltip="enable"><title>(0.0475401,13)</title></rect><rect x="168" y="198.027" width="6" height="1.973" stroke="black" stroke-width="1" fill="blue" opacity="1" tooltip="enable"><title>(0.0493008,19)</title></rect><rect x="174" y="199.585" width="6" height="0.415369" stroke="black" stroke-width="1" fill="blue" opacity="1" tooltip="enable"><title>(0.0510616,4)</title></rect><rect x="180" y="199.481" width="6" height="0.519211" stroke="black" stroke-width="1" fill="blue" opacity="1" tooltip="enable"><title>(0.0528223,5)</title></rect><rect x="186" y="199.688" width="6" height="0.311526" stroke="black" stroke-width="1" fill="blue" opacity="1" tooltip="enable"><title>(0.054583,3)</title></rect><rect x="192" y="199.585" width="6" height="0.415369" stroke="black" stroke-width="1" fill="blue" opacity="1" tooltip="enable"><title>(0.0563438,4)</title></rect><rect x="198" y="200" width="6" height="0" stroke="black" stroke-width="1" fill="blue" opacity="1" tooltip="enable"><title>(0.0581045,0)</title></rect><rect x="204" y="199.792" width="6" height="0.207684" stroke="black" stroke-width="1" fill="blue" opacity="1" tooltip="enable"><title>(0.0598653,2)</title></rect><rect x="210" y="200" width="6" height="0" stroke="black" stroke-width="1" fill="blue" opacity="1" tooltip="enable"><title>(0.061626,0)</title></rect><rect x="216" y="200" width="6" height="0" stroke="black" stroke-width="1" fill="blue" opacity="1" tooltip="enable"><title>(0.0633868,0)</title></rect><rect x="222" y="200" width="6" height="0" stroke="black" stroke-width="1" fill="blue" opacity="1" tooltip="enable"><title>(0.0651475,0)</title></rect><rect x="228" y="200" width="6" height="0" stroke="black" stroke-width="1" fill="blue" opacity="1" tooltip="enable"><title>(0.0669082,0)</title></rect><rect x="234" y="200" width="6" height="0" stroke="black" stroke-width="1" fill="blue" opacity="1" tooltip="enable"><title>(0.068669,0)</title></rect><rect x="240" y="200" width="6" height="0" stroke="black" stroke-width="1" fill="blue" opacity="1" tooltip="enable"><title>(0.0704297,0)</title></rect><rect x="246" y="200" width="6" height="0" stroke="black" stroke-width="1" fill="blue" opacity="1" tooltip="enable"><title>(0.0721905,0)</title></rect><rect x="252" y="200" width="6" height="0" stroke="black" stroke-width="1" fill="blue" opacity="1" tooltip="enable"><title>(0.0739512,0)</title></rect><rect x="258" y="200" width="6" height="0" stroke="black" stroke-width="1" fill="blue" opacity="1" tooltip="enable"><title>(0.075712,0)</title></rect><rect x="264" y="200" width="6" height="0" stroke="black" stroke-width="1" fill="blue" opacity="1" tooltip="enable"><title>(0.0774727,0)</title></rect><rect x="270" y="200" width="6" height="0" stroke="black" stroke-width="1" fill="blue" opacity="1" tooltip="enable"><title>(0.0792335,0)</title></rect><rect x="276" y="200" width="6" height="0" stroke="black" stroke-width="1" fill="blue" opacity="1" tooltip="enable"><title>(0.0809942,0)</title></rect><rect x="282" y="200" width="6" height="0" stroke="black" stroke-width="1" fill="blue" opacity="1" tooltip="enable"><title>(0.0827549,0)</title></rect><rect x="288" y="200" width="6" height="0" stroke="black" stroke-width="1" fill="blue" opacity="1" tooltip="enable"><title>(0.0845157,0)</title></rect><rect x="294" y="200" width="6" height="0" stroke="black" stroke-width="1" fill="blue" opacity="1" tooltip="enable"><title>(0.0862764,0)</title></rect><rect x="300" y="200" width="6" height="0" stroke="black" stroke-width="1" fill="blue" opacity="1" tooltip="enable"><title>(0.0880372,0)</title></rect><rect x="306" y="200" width="6" height="0" stroke="black" stroke-width="1" fill="blue" opacity="1" tooltip="enable"><title>(0.0897979,0)</title></rect><rect x="312" y="200" width="6" height="0" stroke="black" stroke-width="1" fill="blue" opacity="1" tooltip="enable"><title>(0.0915587,0)</title></rect><rect x="318" y="200" width="6" height="0" stroke="black" stroke-width="1" fill="blue" opacity="1" tooltip="enable"><title>(0.0933194,0)</title></rect><rect x="324" y="200" width="6" height="0" stroke="black" stroke-width="1" fill="blue" opacity="1" tooltip="enable"><title>(0.0950801,0)</title></rect><rect x="330" y="200" width="6" height="0" stroke="black" stroke-width="1" fill="blue" opacity="1" tooltip="enable"><title>(0.0968409,0)</title></rect><rect x="336" y="200" width="6" height="0" stroke="black" stroke-width="1" fill="blue" opacity="1" tooltip="enable"><title>(0.0986016,0)</title></rect><rect x="342" y="200" width="6" height="0" stroke="black" stroke-width="1" fill="blue" opacity="1" tooltip="enable"><title>(0.100362,0)</title></rect><rect x="348" y="200" width="6" height="0" stroke="black" stroke-width="1" fill="blue" opacity="1" tooltip="enable"><title>(0.102123,0)</title></rect><rect x="354" y="200" width="6" height="0" stroke="black" stroke-width="1" fill="blue" opacity="1" tooltip="enable"><title>(0.103884,0)</title></rect><rect x="360" y="200" width="6" height="0" stroke="black" stroke-width="1" fill="blue" opacity="1" tooltip="enable"><title>(0.105645,0)</title></rect><rect x="366" y="200" width="6" height="0" stroke="black" stroke-width="1" fill="blue" opacity="1" tooltip="enable"><title>(0.107405,0)</title></rect><rect x="372" y="200" width="6" height="0" stroke="black" stroke-width="1" fill="blue" opacity="1" tooltip="enable"><title>(0.109166,0)</title></rect><rect x="378" y="200" width="6" height="0" stroke="black" stroke-width="1" fill="blue" opacity="1" tooltip="enable"><title>(0.110927,0)</title></rect><rect x="384" y="200" width="6" height="0" stroke="black" stroke-width="1" fill="blue" opacity="1" tooltip="enable"><title>(0.112688,0)</title></rect><rect x="390" y="200" width="6" height="0" stroke="black" stroke-width="1" fill="blue" opacity="1" tooltip="enable"><title>(0.114448,0)</title></rect><rect x="396" y="200" width="6" height="0" stroke="black" stroke-width="1" fill="blue" opacity="1" tooltip="enable"><title>(0.116209,0)</title></rect><rect x="402" y="200" width="6" height="0" stroke="black" stroke-width="1" fill="blue" opacity="1" tooltip="enable"><title>(0.11797,0)</title></rect><rect x="408" y="200" width="6" height="0" stroke="black" stroke-width="1" fill="blue" opacity="1" tooltip="enable"><title>(0.119731,0)</title></rect><rect x="414" y="200" width="6" height="0" stroke="black" stroke-width="1" fill="blue" opacity="1" tooltip="enable"><title>(0.121491,0)</title></rect><rect x="420" y="200" width="6" height="0" stroke="black" stroke-width="1" fill="blue" opacity="1" tooltip="enable"><title>(0.123252,0)</title></rect><rect x="426" y="200" width="6" height="0" stroke="black" stroke-width="1" fill="blue" opacity="1" tooltip="enable"><title>(0.125013,0)</title></rect><rect x="432" y="200" width="6" height="0" stroke="black" stroke-width="1" fill="blue" opacity="1" tooltip="enable"><title>(0.126774,0)</title></rect><rect x="438" y="200" width="6" height="0" stroke="black" stroke-width="1" fill="blue" opacity="1" tooltip="enable"><title>(0.128534,0)</title></rect><rect x="444" y="200" width="6" height="0" stroke="black" stroke-width="1" fill="blue" opacity="1" tooltip="enable"><title>(0.130295,0)</title></rect><rect x="450" y="200" width="6" height="0" stroke="black" stroke-width="1" fill="blue" opacity="1" tooltip="enable"><title>(0.132056,0)</title></rect><rect x="456" y="200" width="6" height="0" stroke="black" stroke-width="1" fill="blue" opacity="1" tooltip="enable"><title>(0.133816,0)</title></rect><rect x="462" y="200" width="6" height="0" stroke="black" stroke-width="1" fill="blue" opacity="1" tooltip="enable"><title>(0.135577,0)</title></rect><rect x="468" y="200" width="6" height="0" stroke="black" stroke-width="1" fill="blue" opacity="1" tooltip="enable"><title>(0.137338,0)</title></rect><rect x="474" y="200" width="6" height="0" stroke="black" stroke-width="1" fill="blue" opacity="1" tooltip="enable"><title>(0.139099,0)</title></rect><rect x="480" y="200" width="6" height="0" stroke="black" stroke-width="1" fill="blue" opacity="1" tooltip="enable"><title>(0.140859,0)</title></rect><rect x="486" y="200" width="6" height="0" stroke="black" stroke-width="1" fill="blue" opacity="1" tooltip="enable"><title>(0.14262,0)</title></rect><rect x="492" y="200" width="6" height="0" stroke="black" stroke-width="1" fill="blue" opacity="1" tooltip="enable"><title>(0.144381,0)</title></rect><rect x="498" y="200" width="6" height="0" stroke="black" stroke-width="1" fill="blue" opacity="1" tooltip="enable"><title>(0.146142,0)</title></rect><rect x="504" y="200" width="6" height="0" stroke="black" stroke-width="1" fill="blue" opacity="1" tooltip="enable"><title>(0.147902,0)</title></rect><rect x="510" y="200" width="6" height="0" stroke="black" stroke-width="1" fill="blue" opacity="1" tooltip="enable"><title>(0.149663,0)</title></rect><rect x="516" y="200" width="6" height="0" stroke="black" stroke-width="1" fill="blue" opacity="1" tooltip="enable"><title>(0.151424,0)</title></rect><rect x="522" y="200" width="6" height="0" stroke="black" stroke-width="1" fill="blue" opacity="1" tooltip="enable"><title>(0.153185,0)</title></rect><rect x="528" y="200" width="6" height="0" stroke="black" stroke-width="1" fill="blue" opacity="1" tooltip="enable"><title>(0.154945,0)</title></rect><rect x="534" y="200" width="6" height="0" stroke="black" stroke-width="1" fill="blue" opacity="1" tooltip="enable"><title>(0.156706,0)</title></rect><rect x="540" y="200" width="6" height="0" stroke="black" stroke-width="1" fill="blue" opacity="1" tooltip="enable"><title>(0.158467,0)</title></rect><rect x="546" y="200" width="6" height="0" stroke="black" stroke-width="1" fill="blue" opacity="1" tooltip="enable"><title>(0.160228,0)</title></rect><rect x="552" y="200" width="6" height="0" stroke="black" stroke-width="1" fill="blue" opacity="1" tooltip="enable"><title>(0.161988,0)</title></rect><rect x="558" y="200" width="6" height="0" stroke="black" stroke-width="1" fill="blue" opacity="1" tooltip="enable"><title>(0.163749,0)</title></rect><rect x="564" y="200" width="6" height="0" stroke="black" stroke-width="1" fill="blue" opacity="1" tooltip="enable"><title>(0.16551,0)</title></rect><rect x="570" y="200" width="6" height="0" stroke="black" stroke-width="1" fill="blue" opacity="1" tooltip="enable"><title>(0.167271,0)</title></rect><rect x="576" y="200" width="6" height="0" stroke="black" stroke-width="1" fill="blue" opacity="1" tooltip="enable"><title>(0.169031,0)</title></rect><rect x="582" y="200" width="6" height="0" stroke="black" stroke-width="1" fill="blue" opacity="1" tooltip="enable"><title>(0.170792,0)</title></rect><rect x="588" y="200" width="6" height="0" stroke="black" stroke-width="1" fill="blue" opacity="1" tooltip="enable"><title>(0.172553,0)</title></rect><rect x="594" y="199.792" width="6" height="0.207684" stroke="black" stroke-width="1" fill="blue" opacity="1" tooltip="enable"><title>(0.174314,2)</title></rect><text x="30" y="240" font-size="20" fill="black">0</text>
<text x="600" y="240" font-size="20" fill="black">0.176074</text>
<polyline points="0,220,600,220" stroke="black" stroke-width="1" fill="none" opacity="1"/>
<text x="720" y="20" font-size="20" fill="black">1926</text>
<text x="720" y="200" font-size="20" fill="black">0</text>
<polyline points="660,0,660,200" stroke="black" stroke-width="1" fill="none" opacity="1"/>
</svg>