<?xml version="1.0" standalone="yes"?>
<!-- SVG graphic -->
<svg xmlns='http://www.w3.org/2000/svg' xmlns:xlink='http://www.w3.org/1999/xlink'
 version="1.1">
<rect x="0" y="0" width="6" height="200" stroke="black" stroke-width="1" fill="blue" opacity="1" tooltip="enable"><title>(0,4304)</title></rect><rect x="6" y="184.294" width="6" height="15.7063" stroke="black" stroke-width="1" fill="blue" opacity="1" tooltip="enable"><title>(0.00263016,338)</title></rect><rect x="12" y="183.829" width="6" height="16.171" stroke="black" stroke-width="1" fill="blue" opacity="1" tooltip="enable"><title>(0.00526032,348)</title></rect><rect x="18" y="183.225" width="6" height="16.7751" stroke="black" stroke-width="1" fill="blue" opacity="1" tooltip="enable"><title>(0.00789048,361)</title></rect><rect x="24" y="183.132" width="6" height="16.868" stroke="black" stroke-width="1" fill="blue" opacity="1" tooltip="enable"><title>(0.0105206,363)</title></rect><rect x="30" y="186.896" width="6" height="13.1041" stroke="black" stroke-width="1" fill="blue" opacity="1" tooltip="enable"><title>(0.0131508,282)</title></rect><rect x="36" y="187.779" width="6" height="12.2212" stroke="black" stroke-width="1" fill="blue" opacity="1" tooltip="enable"><title>(0.015781,263)</title></rect><rect x="42" y="188.801" width="6" height="11.1989" stroke="black" stroke-width="1" fill="blue" opacity="1" tooltip="enable"><title>(0.0184111,241)</title></rect><rect x="48" y="191.543" width="6" height="8.45725" stroke="black" stroke-width="1" fill="blue" opacity="1" tooltip="enable"><title>(0.0210413,182)</title></rect><rect x="54" y="191.31" width="6" height="8.68959" stroke="black" stroke-width="1" fill="blue" opacity="1" tooltip="enable"><title>(0.0236714,187)</title></rect><rect x="60" y="191.961" width="6" height="8.03903" stroke="black" stroke-width="1" fill="blue" opacity="1" tooltip="enable"><title>(0.0263016,173)</title></rect><rect x="66" y="194.006" width="6" height="5.99442" stroke="black" stroke-width="1" fill="blue" opacity="1" tooltip="enable"><title>(0.0289318,129)</title></rect><rect x="72" y="194.796" width="6" height="5.20446" stroke="black" stroke-width="1" fill="blue" opacity="1" tooltip="enable"><title>(0.0315619,112)</title></rect><rect x="78" y="195.585" width="6" height="4.4145" stroke="black" stroke-width="1" fill="blue" opacity="1" tooltip="enable"><title>(0.0341921,95)</title></rect><rect x="84" y="196.097" width="6" height="3.90335" stroke="black" stroke-width="1" fill="blue" opacity="1" tooltip="enable"><title>(0.0368223,84)</title></rect><rect x="90" y="196.933" width="6" height="3.06691" stroke="black" stroke-width="1" fill="blue" opacity="1" tooltip="enable"><title>(0.0394524,66)</title></rect><rect x="96" y="197.119" width="6" height="2.88104" stroke="black" stroke-width="1" fill="blue" opacity="1" tooltip="enable"><title>(0.0420826,62)</title></rect><rect x="102" y="196.747" width="6" height="3.25279" stroke="black" stroke-width="1" fill="blue" opacity="1" tooltip="enable"><title>(0.0447127,70)</title></rect><rect x="108" y="197.351" width="6" height="2.6487" stroke="black" stroke-width="1" fill="blue" opacity="1" tooltip="enable"><title>(0.0473429,57)</title></rect><rect x="114" y="197.444" width="6" height="2.55576" stroke="black" stroke-width="1" fill="blue" opacity="1" tooltip="enable"><title>(0.0499731,55)</title></rect><rect x="120" y="198.513" width="6" height="1.48699" stroke="black" stroke-width="1" fill="blue" opacity="1" tooltip="enable"><title>(0.0526032,32)</title></rect><rect x="126" y="198.327" width="6" height="1.67286" stroke="black" stroke-width="1" fill="blue" opacity="1" tooltip="enable"><title>(0.0552334,36)</title></rect><rect x="132" y="198.885" width="6" height="1.11524" stroke="black" stroke-width="1" fill="blue" opacity="1" tooltip="enable"><title>(0.0578635,24)</title></rect><rect x="138" y="199.21" width="6" height="0.789963" stroke="black" stroke-width="1" fill="blue" opacity="1" tooltip="enable"><title>(0.0604937,17)</title></rect><rect x="144" y="199.396" width="6" height="0.604089" stroke="black" stroke-width="1" fill="blue" opacity="1" tooltip="enable"><title>(0.0631239,13)</title></rect><rect x="150" y="199.21" width="6" height="0.789963" stroke="black" stroke-width="1" fill="blue" opacity="1" tooltip="enable"><title>(0.065754,17)</title></rect><rect x="156" y="199.489" width="6" height="0.511152" stroke="black" stroke-width="1" fill="blue" opacity="1" tooltip="enable"><title>(0.0683842,11)</title></rect><rect x="162" y="199.257" width="6" height="0.743494" stroke="black" stroke-width="1" fill="blue" opacity="1" tooltip="enable"><title>(0.0710143,16)</title></rect><rect x="168" y="199.814" width="6" height="0.185874" stroke="black" stroke-width="1" fill="blue" opacity="1" tooltip="enable"><title>(0.0736445,4)</title></rect><rect x="174" y="199.721" width="6" height="0.27881" stroke="black" stroke-width="1" fill="blue" opacity="1" tooltip="enable"><title>(0.0762747,6)</title></rect><rect x="180" y="199.535" width="6" height="0.464684" stroke="black" stroke-width="1" fill="blue" opacity="1" tooltip="enable"><title>(0.0789048,10)</title></rect><rect x="186" y="199.814" width="6" height="0.185874" stroke="black" stroke-width="1" fill="blue" opacity="1" tooltip="enable"><title>(0.081535,4)</title></rect><rect x="192" y="199.907" width="6" height="0.0929368" stroke="black" stroke-width="1" fill="blue" opacity="1" tooltip="enable"><title>(0.0841651,2)</title></rect><rect x="198" y="199.721" width="6" height="0.27881" stroke="black" stroke-width="1" fill="blue" opacity="1" tooltip="enable"><title>(0.0867953,6)</title></rect><rect x="204" y="199.954" width="6" height="0.0464684" stroke="black" stroke-width="1" fill="blue" opacity="1" tooltip="enable"><title>(0.0894255,1)</title></rect><rect x="210" y="199.954" width="6" height="0.0464684" stroke="black" stroke-width="1" fill="blue" opacity="1" tooltip="enable"><title>(0.0920556,1)</title></rect><rect x="216" y="199.861" width="6" height="0.139405" stroke="black" stroke-width="1" fill="blue" opacity="1" tooltip="enable"><title>(0.0946858,3)</title></rect><rect x="222" y="199.814" width="6" height="0.185874" stroke="black" stroke-width="1" fill="blue" opacity="1" tooltip="enable"><title>(0.097316,4)</title></rect><rect x="228" y="199.861" width="6" height="0.139405" stroke="black" stroke-width="1" fill="blue" opacity="1" tooltip="enable"><title>(0.0999461,3)</title></rect><rect x="234" y="200" width="6" height="0" stroke="black" stroke-width="1" fill="blue" opacity="1" tooltip="enable"><title>(0.102576,0)</title></rect><rect x="240" y="200" width="6" height="0" stroke="black" stroke-width="1" fill="blue" opacity="1" tooltip="enable"><title>(0.105206,0)</title></rect><rect x="246" y="200" width="6" height="0" stroke="black" stroke-width="1" fill="blue" opacity="1" tooltip="enable"><title>(0.107837,0)</title></rect><rect x="252" y="200" width="6" height="0" stroke="black" stroke-width="1" fill="blue" opacity="1" tooltip="enable"><title>(0.110467,0)</title></rect><rect x="258" y="199.721" width="6" height="0.27881" stroke="black" stroke-width="1" fill="blue" opacity="1" tooltip="enable"><title>(0.113097,6)</title></rect><rect x="264" y="199.907" width="6" height="0.0929368" stroke="black" stroke-width="1" fill="blue" opacity="1" tooltip="enable"><title>(0.115727,2)</title></rect><rect x="270" y="200" width="6" height="0" stroke="black" stroke-width="1" fill="blue" opacity="1" tooltip="enable"><title>(0.118357,0)</title></rect><rect x="276" y="200" width="6" height="0" stroke="black" stroke-width="1" fill="blue" opacity="1" tooltip="enable"><title>(0.120987,0)</title></rect><rect x="282" y="200" width="6" height="0" stroke="black" stroke-width="1" fill="blue" opacity="1" tooltip="enable"><title>(0.123618,0)</title></rect><rect x="288" y="200" width="6" height="0" stroke="black" stroke-width="1" fill="blue" opacity="1" tooltip="enable"><title>(0.126248,0)</title></rect><rect x="294" y="200" width="6" height="0" stroke="black" stroke-width="1" fill="blue" opacity="1" tooltip="enable"><title>(0.128878,0)</title></rect><rect x="300" y="200" width="6" height="0" stroke="black" stroke-width="1" fill="blue" opacity="1" tooltip="enable"><title>(0.131508,0)</title></rect><rect x="306" y="200" width="6" height="0" stroke="black" stroke-width="1" fill="blue" opacity="1" tooltip="enable"><title>(0.134138,0)</title></rect><rect x="312" y="200" width="6" height="0" stroke="black" stroke-width="1" fill="blue" opacity="1" tooltip="enable"><title>(0.136768,0)</title></rect><rect x="318" y="200" width="6" height="0" stroke="black" stroke-width="1" fill="blue" opacity="1" tooltip="enable"><title>(0.139399,0)</title></rect><rect x="324" y="200" width="6" height="0" stroke="black" stroke-width="1" fill="blue" opacity="1" tooltip="enable"><title>(0.142029,0)</title></rect><rect x="330" y="199.907" width="6" height="0.0929368" stroke="black" stroke-width="1" fill="blue" opacity="1" tooltip="enable"><title>(0.144659,2)</title></rect><rect x="336" y="199.907" width="6" height="0.0929368" stroke="black" stroke-width="1" fill="blue" opacity="1" tooltip="enable"><title>(0.147289,2)</title></rect><rect x="342" y="200" width="6" height="0" stroke="black" stroke-width="1" fill="blue" opacity="1" tooltip="enable"><title>(0.149919,0)</title></rect><rect x="348" y="200" width="6" height="0" stroke="black" stroke-width="1" fill="blue" opacity="1" tooltip="enable"><title>(0.152549,0)</title></rect><rect x="354" y="200" width="6" height="0" stroke="black" stroke-width="1" fill="blue" opacity="1" tooltip="enable"><title>(0.155179,0)</title></rect><rect x="360" y="200" width="6" height="0" stroke="black" stroke-width="1" fill="blue" opacity="1" tooltip="enable"><title>(0.15781,0)</title></rect><rect x="366" y="200" width="6" height="0" stroke="black" stroke-width="1" fill="blue" opacity="1" tooltip="enable"><title>(0.16044,0)</title></rect><rect x="372" y="200" width="6" height="0" stroke="black" stroke-width="1" fill="blue" opacity="1" tooltip="enable"><title>(0.16307,0)</title></rect><rect x="378" y="200" width="6" height="0" stroke="black" stroke-width="1" fill="blue" opacity="1" tooltip="enable"><title>(0.1657,0)</title></rect><rect x="384" y="200" width="6" height="0" stroke="black" stroke-width="1" fill="blue" opacity="1" tooltip="enable"><title>(0.16833,0)</title></rect><rect x="390" y="200" width="6" height="0" stroke="black" stroke-width="1" fill="blue" opacity="1" tooltip="enable"><title>(0.17096,0)</title></rect><rect x="396" y="200" width="6" height="0" stroke="black" stroke-width="1" fill="blue" opacity="1" tooltip="enable"><title>(0.173591,0)</title></rect><rect x="402" y="200" width="6" height="0" stroke="black" stroke-width="1" fill="blue" opacity="1" tooltip="enable"><title>(0.176221,0)</title></rect><rect x="408" y="200" width="6" height="0" stroke="black" stroke-width="1" fill="blue" opacity="1" tooltip="enable"><title>(0.178851,0)</title></rect><rect x="414" y="200" width="6" height="0" stroke="black" stroke-width="1" fill="blue" opacity="1" tooltip="enable"><title>(0.181481,0)</title></rect><rect x="420" y="200" width="6" height="0" stroke="black" stroke-width="1" fill="blue" opacity="1" tooltip="enable"><title>(0.184111,0)</title></rect><rect x="426" y="200" width="6" height="0" stroke="black" stroke-width="1" fill="blue" opacity="1" tooltip="enable"><title>(0.186741,0)</title></rect><rect x="432" y="200" width="6" height="0" stroke="black" stroke-width="1" fill="blue" opacity="1" tooltip="enable"><title>(0.189372,0)</title></rect><rect x="438" y="200" width="6" height="0" stroke="black" stroke-width="1" fill="blue" opacity="1" tooltip="enable"><title>(0.192002,0)</title></rect><rect x="444" y="200" width="6" height="0" stroke="black" stroke-width="1" fill="blue" opacity="1" tooltip="enable"><title>(0.194632,0)</title></rect><rect x="450" y="200" width="6" height="0" stroke="black" stroke-width="1" fill="blue" opacity="1" tooltip="enable"><title>(0.197262,0)</title></rect><rect x="456" y="200" width="6" height="0" stroke="black" stroke-width="1" fill="blue" opacity="1" tooltip="enable"><title>(0.199892,0)</title></rect><rect x="462" y="200" width="6" height="0" stroke="black" stroke-width="1" fill="blue" opacity="1" tooltip="enable"><title>(0.202522,0)</title></rect><rect x="468" y="200" width="6" height="0" stroke="black" stroke-width="1" fill="blue" opacity="1" tooltip="enable"><title>(0.205153,0)</title></rect><rect x="474" y="200" width="6" height="0" stroke="black" stroke-width="1" fill="blue" opacity="1" tooltip="enable"><title>(0.207783,0)</title></rect><rect x="480" y="200" width="6" height="0" stroke="black" stroke-width="1" fill="blue" opacity="1" tooltip="enable"><title>(0.210413,0)</title></rect><rect x="486" y="200" width="6" height="0" stroke="black" stroke-width="1" fill="blue" opacity="1" tooltip="enable"><title>(0.213043,0)</title></rect><rect x="492" y="200" width="6" height="0" stroke="black" stroke-width="1" fill="blue" opacity="1" tooltip="enable"><title>(0.215673,0)</title></rect><rect x="498" y="200" width="6" height="0" stroke="black" stroke-width="1" fill="blue" opacity="1" tooltip="enable"><title>(0.218303,0)</title></rect><rect x="504" y="200" width="6" height="0" stroke="black" stroke-width="1" fill="blue" opacity="1" tooltip="enable"><title>(0.220933,0)</title></rect><rect x="510" y="200" width="6" height="0" stroke="black" stroke-width="1" fill="blue" opacity="1" tooltip="enable"><title>(0.223564,0)</title></rect><rect x="516" y="200" width="6" height="0" stroke="black" stroke-width="1" fill="blue" opacity="1" tooltip="enable"><title>(0.226194,0)</title></rect><rect x="522" y="200" width="6" height="0" stroke="black" stroke-width="1" fill="blue" opacity="1" tooltip="enable"><title>(0.228824,0)</title></rect><rect x="528" y="200" width="6" height="0" stroke="black" stroke-width="1" fill="blue" opacity="1" tooltip="enable"><title>(0.231454,0)</title></rect><rect x="534" y="200" width="6" height="0" stroke="black" stroke-width="1" fill="blue" opacity="1" tooltip="enable"><title>(0.234084,0)</title></rect><rect x="540" y="200" width="6" height="0" stroke="black" stroke-width="1" fill="blue" opacity="1" tooltip="enable"><title>(0.236714,0)</title></rect><rect x="546" y="200" width="6" height="0" stroke="black" stroke-width="1" fill="blue" opacity="1" tooltip="enable"><title>(0.239345,0)</title></rect><rect x="552" y="200" width="6" height="0" stroke="black" stroke-width="1" fill="blue" opacity="1" tooltip="enable"><title>(0.241975,0)</title></rect><rect x="558" y="200" width="6" height="0" stroke="black" stroke-width="1" fill="blue" opacity="1" tooltip="enable"><title>(0.244605,0)</title></rect><rect x="564" y="200" width="6" height="0" stroke="black" stroke-width="1" fill="blue" opacity="1" tooltip="enable"><title>(0.247235,0)</title></rect><rect x="570" y="200" width="6" height="0" stroke="black" stroke-width="1" fill="blue" opacity="1" tooltip="enable"><title>(0.249865,0)</title></rect><rect x="576" y="200" width="6" height="0" stroke="black" stroke-width="1" fill="blue" opacity="1" tooltip="enable"><title>(0.252495,0)</title></rect><rect x="582" y="199.814" width="6" height="0.185874" stroke="black" stroke-width="1" fill="blue" opacity="1" tooltip="enable"><title>(0.255126,4)</title></rect><rect x="588" y="200" width="6" height="0" stroke="black" stroke-width="1" fill="blue" opacity="1" tooltip="enable"><title>(0.257756,0)</title></rect><rect x="594" y="199.954" width="6" height="0.0464684" stroke="black" stroke-width="1" fill="blue" opacity="1" tooltip="enable"><title>(0.260386,1)</title></rect><text x="30" y="240" font-size="20" fill="black">0</text>
<text x="600" y="240" font-size="20" fill="black">0.263016</text>
<polyline points="0,220,600,220" stroke="black" stroke-width="1" fill="none" opacity="1"/>
<text x="720" y="20" font-size="20" fill="black">4304</text>
<text x="720" y="200" font-size="20" fill="black">0</text>
<polyline points="660,0,660,200" stroke="black" stroke-width="1" fill="none" opacity="1"/>
</svg>