<?xml version="1.0" standalone="yes"?>
<!-- SVG graphic -->
<svg xmlns='http://www.w3.org/2000/svg' xmlns:xlink='http://www.w3.org/1999/xlink'
 version="1.1">
<rect x="0" y="0" width="6" height="200" stroke="black" stroke-width="1" fill="blue" opacity="1" tooltip="enable"><title>(0,1985)</title></rect><rect x="6" y="34.2569" width="6" height="165.743" stroke="black" stroke-width="1" fill="blue" opacity="1" tooltip="enable"><title>(0.00166241,1645)</title></rect><rect x="12" y="124.635" width="6" height="75.3652" stroke="black" stroke-width="1" fill="blue" opacity="1" tooltip="enable"><title>(0.00332482,748)</title></rect><rect x="18" y="174.71" width="6" height="25.2897" stroke="black" stroke-width="1" fill="blue" opacity="1" tooltip="enable"><title>(0.00498723,251)</title></rect><rect x="24" y="182.065" width="6" height="17.9345" stroke="black" stroke-width="1" fill="blue" opacity="1" tooltip="enable"><title>(0.00664964,178)</title></rect><rect x="30" y="183.174" width="6" height="16.8262" stroke="black" stroke-width="1" fill="blue" opacity="1" tooltip="enable"><title>(0.00831205,167)</title></rect><rect x="36" y="181.662" width="6" height="18.3375" stroke="black" stroke-width="1" fill="blue" opacity="1" tooltip="enable"><title>(0.00997446,182)</title></rect><rect x="42" y="183.476" width="6" height="16.5239" stroke="black" stroke-width="1" fill="blue" opacity="1" tooltip="enable"><title>(0.0116369,164)</title></rect><rect x="48" y="182.872" width="6" height="17.1285" stroke="black" stroke-width="1" fill="blue" opacity="1" tooltip="enable"><title>(0.0132993,170)</title></rect><rect x="54" y="181.159" width="6" height="18.8413" stroke="black" stroke-width="1" fill="blue" opacity="1" tooltip="enable"><title>(0.0149617,187)</title></rect><rect x="60" y="186.801" width="6" height="13.199" stroke="black" stroke-width="1" fill="blue" opacity="1" tooltip="enable"><title>(0.0166241,131)</title></rect><rect x="66" y="180.655" width="6" height="19.3451" stroke="black" stroke-width="1" fill="blue" opacity="1" tooltip="enable"><title>(0.0182865,192)</title></rect><rect x="72" y="181.662" width="6" height="18.3375" stroke="black" stroke-width="1" fill="blue" opacity="1" tooltip="enable"><title>(0.0199489,182)</title></rect><rect x="78" y="185.189" width="6" height="14.8111" stroke="black" stroke-width="1" fill="blue" opacity="1" tooltip="enable"><title>(0.0216113,147)</title></rect><rect x="84" y="184.887" width="6" height="15.1133" stroke="black" stroke-width="1" fill="blue" opacity="1" tooltip="enable"><title>(0.0232738,150)</title></rect><rect x="90" y="187.204" width="6" height="12.796" stroke="black" stroke-width="1" fill="blue" opacity="1" tooltip="enable"><title>(0.0249362,127)</title></rect><rect x="96" y="187.708" width="6" height="12.2922" stroke="black" stroke-width="1" fill="blue" opacity="1" tooltip="enable"><title>(0.0265986,122)</title></rect><rect x="102" y="187.506" width="6" height="12.4937" stroke="black" stroke-width="1" fill="blue" opacity="1" tooltip="enable"><title>(0.028261,124)</title></rect><rect x="108" y="187.909" width="6" height="12.0907" stroke="black" stroke-width="1" fill="blue" opacity="1" tooltip="enable"><title>(0.0299234,120)</title></rect><rect x="114" y="184.987" width="6" height="15.0126" stroke="black" stroke-width="1" fill="blue" opacity="1" tooltip="enable"><title>(0.0315858,149)</title></rect><rect x="120" y="191.033" width="6" height="8.96725" stroke="black" stroke-width="1" fill="blue" opacity="1" tooltip="enable"><title>(0.0332482,89)</title></rect><rect x="126" y="191.94" width="6" height="8.06045" stroke="black" stroke-width="1" fill="blue" opacity="1" tooltip="enable"><title>(0.0349106,80)</title></rect><rect x="132" y="190.529" width="6" height="9.47103" stroke="black" stroke-width="1" fill="blue" opacity="1" tooltip="enable"><title>(0.036573,94)</title></rect><rect x="138" y="192.04" width="6" height="7.9597" stroke="black" stroke-width="1" fill="blue" opacity="1" tooltip="enable"><title>(0.0382354,79)</title></rect><rect x="144" y="194.257" width="6" height="5.74307" stroke="black" stroke-width="1" fill="blue" opacity="1" tooltip="enable"><title>(0.0398979,57)</title></rect><rect x="150" y="194.761" width="6" height="5.2393" stroke="black" stroke-width="1" fill="blue" opacity="1" tooltip="enable"><title>(0.0415603,52)</title></rect><rect x="156" y="192.947" width="6" height="7.0529" stroke="black" stroke-width="1" fill="blue" opacity="1" tooltip="enable"><title>(0.0432227,70)</title></rect><rect x="162" y="194.257" width="6" height="5.74307" stroke="black" stroke-width="1" fill="blue" opacity="1" tooltip="enable"><title>(0.0448851,57)</title></rect><rect x="168" y="195.869" width="6" height="4.13098" stroke="black" stroke-width="1" fill="blue" opacity="1" tooltip="enable"><title>(0.0465475,41)</title></rect><rect x="174" y="195.567" width="6" height="4.43325" stroke="black" stroke-width="1" fill="blue" opacity="1" tooltip="enable"><title>(0.0482099,44)</title></rect><rect x="180" y="196.977" width="6" height="3.02267" stroke="black" stroke-width="1" fill="blue" opacity="1" tooltip="enable"><title>(0.0498723,30)</title></rect><rect x="186" y="197.179" width="6" height="2.82116" stroke="black" stroke-width="1" fill="blue" opacity="1" tooltip="enable"><title>(0.0515347,28)</title></rect><rect x="192" y="197.783" width="6" height="2.21662" stroke="black" stroke-width="1" fill="blue" opacity="1" tooltip="enable"><title>(0.0531971,22)</title></rect><rect x="198" y="198.791" width="6" height="1.20907" stroke="black" stroke-width="1" fill="blue" opacity="1" tooltip="enable"><title>(0.0548596,12)</title></rect><rect x="204" y="197.985" width="6" height="2.01511" stroke="black" stroke-width="1" fill="blue" opacity="1" tooltip="enable"><title>(0.056522,20)</title></rect><rect x="210" y="197.783" width="6" height="2.21662" stroke="black" stroke-width="1" fill="blue" opacity="1" tooltip="enable"><title>(0.0581844,22)</title></rect><rect x="216" y="198.992" width="6" height="1.00756" stroke="black" stroke-width="1" fill="blue" opacity="1" tooltip="enable"><title>(0.0598468,10)</title></rect><rect x="222" y="199.395" width="6" height="0.604534" stroke="black" stroke-width="1" fill="blue" opacity="1" tooltip="enable"><title>(0.0615092,6)</title></rect><rect x="228" y="199.597" width="6" height="0.403023" stroke="black" stroke-width="1" fill="blue" opacity="1" tooltip="enable"><title>(0.0631716,4)</title></rect><rect x="234" y="199.194" width="6" height="0.806045" stroke="black" stroke-width="1" fill="blue" opacity="1" tooltip="enable"><title>(0.064834,8)</title></rect><rect x="240" y="199.798" width="6" height="0.201511" stroke="black" stroke-width="1" fill="blue" opacity="1" tooltip="enable"><title>(0.0664964,2)</title></rect><rect x="246" y="200" width="6" height="0" stroke="black" stroke-width="1" fill="blue" opacity="1" tooltip="enable"><title>(0.0681588,0)</title></rect><rect x="252" y="199.597" width="6" height="0.403023" stroke="black" stroke-width="1" fill="blue" opacity="1" tooltip="enable"><title>(0.0698213,4)</title></rect><rect x="258" y="200" width="6" height="0" stroke="black" stroke-width="1" fill="blue" opacity="1" tooltip="enable"><title>(0.0714837,0)</title></rect><rect x="264" y="199.194" width="6" height="0.806045" stroke="black" stroke-width="1" fill="blue" opacity="1" tooltip="enable"><title>(0.0731461,8)</title></rect><rect x="270" y="199.597" width="6" height="0.403023" stroke="black" stroke-width="1" fill="blue" opacity="1" tooltip="enable"><title>(0.0748085,4)</title></rect><rect x="276" y="199.597" width="6" height="0.403023" stroke="black" stroke-width="1" fill="blue" opacity="1" tooltip="enable"><title>(0.0764709,4)</title></rect><rect x="282" y="199.798" width="6" height="0.201511" stroke="black" stroke-width="1" fill="blue" opacity="1" tooltip="enable"><title>(0.0781333,2)</title></rect><rect x="288" y="200" width="6" height="0" stroke="black" stroke-width="1" fill="blue" opacity="1" tooltip="enable"><title>(0.0797957,0)</title></rect><rect x="294" y="200" width="6" height="0" stroke="black" stroke-width="1" fill="blue" opacity="1" tooltip="enable"><title>(0.0814581,0)</title></rect><rect x="300" y="199.798" width="6" height="0.201511" stroke="black" stroke-width="1" fill="blue" opacity="1" tooltip="enable"><title>(0.0831205,2)</title></rect><rect x="306" y="199.798" width="6" height="0.201511" stroke="black" stroke-width="1" fill="blue" opacity="1" tooltip="enable"><title>(0.084783,2)</title></rect><rect x="312" y="199.798" width="6" height="0.201511" stroke="black" stroke-width="1" fill="blue" opacity="1" tooltip="enable"><title>(0.0864454,2)</title></rect><rect x="318" y="199.798" width="6" height="0.201511" stroke="black" stroke-width="1" fill="blue" opacity="1" tooltip="enable"><title>(0.0881078,2)</title></rect><rect x="324" y="199.798" width="6" height="0.201511" stroke="black" stroke-width="1" fill="blue" opacity="1" tooltip="enable"><title>(0.0897702,2)</title></rect><rect x="330" y="200" width="6" height="0" stroke="black" stroke-width="1" fill="blue" opacity="1" tooltip="enable"><title>(0.0914326,0)</title></rect><rect x="336" y="200" width="6" height="0" stroke="black" stroke-width="1" fill="blue" opacity="1" tooltip="enable"><title>(0.093095,0)</title></rect><rect x="342" y="199.798" width="6" height="0.201511" stroke="black" stroke-width="1" fill="blue" opacity="1" tooltip="enable"><title>(0.0947574,2)</title></rect><rect x="348" y="200" width="6" height="0" stroke="black" stroke-width="1" fill="blue" opacity="1" tooltip="enable"><title>(0.0964198,0)</title></rect><rect x="354" y="200" width="6" height="0" stroke="black" stroke-width="1" fill="blue" opacity="1" tooltip="enable"><title>(0.0980822,0)</title></rect><rect x="360" y="199.395" width="6" height="0.604534" stroke="black" stroke-width="1" fill="blue" opacity="1" tooltip="enable"><title>(0.0997447,6)</title></rect><rect x="366" y="199.798" width="6" height="0.201511" stroke="black" stroke-width="1" fill="blue" opacity="1" tooltip="enable"><title>(0.101407,2)</title></rect><rect x="372" y="200" width="6" height="0" stroke="black" stroke-width="1" fill="blue" opacity="1" tooltip="enable"><title>(0.103069,0)</title></rect><rect x="378" y="200" width="6" height="0" stroke="black" stroke-width="1" fill="blue" opacity="1" tooltip="enable"><title>(0.104732,0)</title></rect><rect x="384" y="200" width="6" height="0" stroke="black" stroke-width="1" fill="blue" opacity="1" tooltip="enable"><title>(0.106394,0)</title></rect><rect x="390" y="200" width="6" height="0" stroke="black" stroke-width="1" fill="blue" opacity="1" tooltip="enable"><title>(0.108057,0)</title></rect><rect x="396" y="199.597" width="6" height="0.403023" stroke="black" stroke-width="1" fill="blue" opacity="1" tooltip="enable"><title>(0.109719,4)</title></rect><rect x="402" y="199.798" width="6" height="0.201511" stroke="black" stroke-width="1" fill="blue" opacity="1" tooltip="enable"><title>(0.111382,2)</title></rect><rect x="408" y="200" width="6" height="0" stroke="black" stroke-width="1" fill="blue" opacity="1" tooltip="enable"><title>(0.113044,0)</title></rect><rect x="414" y="200" width="6" height="0" stroke="black" stroke-width="1" fill="blue" opacity="1" tooltip="enable"><title>(0.114706,0)</title></rect><rect x="420" y="200" width="6" height="0" stroke="black" stroke-width="1" fill="blue" opacity="1" tooltip="enable"><title>(0.116369,0)</title></rect><rect x="426" y="200" width="6" height="0" stroke="black" stroke-width="1" fill="blue" opacity="1" tooltip="enable"><title>(0.118031,0)</title></rect><rect x="432" y="199.798" width="6" height="0.201511" stroke="black" stroke-width="1" fill="blue" opacity="1" tooltip="enable"><title>(0.119694,2)</title></rect><rect x="438" y="200" width="6" height="0" stroke="black" stroke-width="1" fill="blue" opacity="1" tooltip="enable"><title>(0.121356,0)</title></rect><rect x="444" y="200" width="6" height="0" stroke="black" stroke-width="1" fill="blue" opacity="1" tooltip="enable"><title>(0.123018,0)</title></rect><rect x="450" y="200" width="6" height="0" stroke="black" stroke-width="1" fill="blue" opacity="1" tooltip="enable"><title>(0.124681,0)</title></rect><rect x="456" y="200" width="6" height="0" stroke="black" stroke-width="1" fill="blue" opacity="1" tooltip="enable"><title>(0.126343,0)</title></rect><rect x="462" y="200" width="6" height="0" stroke="black" stroke-width="1" fill="blue" opacity="1" tooltip="enable"><title>(0.128006,0)</title></rect><rect x="468" y="200" width="6" height="0" stroke="black" stroke-width="1" fill="blue" opacity="1" tooltip="enable"><title>(0.129668,0)</title></rect><rect x="474" y="200" width="6" height="0" stroke="black" stroke-width="1" fill="blue" opacity="1" tooltip="enable"><title>(0.13133,0)</title></rect><rect x="480" y="200" width="6" height="0" stroke="black" stroke-width="1" fill="blue" opacity="1" tooltip="enable"><title>(0.132993,0)</title></rect><rect x="486" y="200" width="6" height="0" stroke="black" stroke-width="1" fill="blue" opacity="1" tooltip="enable"><title>(0.134655,0)</title></rect><rect x="492" y="200" width="6" height="0" stroke="black" stroke-width="1" fill="blue" opacity="1" tooltip="enable"><title>(0.136318,0)</title></rect><rect x="498" y="200" width="6" height="0" stroke="black" stroke-width="1" fill="blue" opacity="1" tooltip="enable"><title>(0.13798,0)</title></rect><rect x="504" y="200" width="6" height="0" stroke="black" stroke-width="1" fill="blue" opacity="1" tooltip="enable"><title>(0.139643,0)</title></rect><rect x="510" y="200" width="6" height="0" stroke="black" stroke-width="1" fill="blue" opacity="1" tooltip="enable"><title>(0.141305,0)</title></rect><rect x="516" y="200" width="6" height="0" stroke="black" stroke-width="1" fill="blue" opacity="1" tooltip="enable"><title>(0.142967,0)</title></rect><rect x="522" y="200" width="6" height="0" stroke="black" stroke-width="1" fill="blue" opacity="1" tooltip="enable"><title>(0.14463,0)</title></rect><rect x="528" y="200" width="6" height="0" stroke="black" stroke-width="1" fill="blue" opacity="1" tooltip="enable"><title>(0.146292,0)</title></rect><rect x="534" y="200" width="6" height="0" stroke="black" stroke-width="1" fill="blue" opacity="1" tooltip="enable"><title>(0.147955,0)</title></rect><rect x="540" y="200" width="6" height="0" stroke="black" stroke-width="1" fill="blue" opacity="1" tooltip="enable"><title>(0.149617,0)</title></rect><rect x="546" y="200" width="6" height="0" stroke="black" stroke-width="1" fill="blue" opacity="1" tooltip="enable"><title>(0.151279,0)</title></rect><rect x="552" y="200" width="6" height="0" stroke="black" stroke-width="1" fill="blue" opacity="1" tooltip="enable"><title>(0.152942,0)</title></rect><rect x="558" y="200" width="6" height="0" stroke="black" stroke-width="1" fill="blue" opacity="1" tooltip="enable"><title>(0.154604,0)</title></rect><rect x="564" y="200" width="6" height="0" stroke="black" stroke-width="1" fill="blue" opacity="1" tooltip="enable"><title>(0.156267,0)</title></rect><rect x="570" y="200" width="6" height="0" stroke="black" stroke-width="1" fill="blue" opacity="1" tooltip="enable"><title>(0.157929,0)</title></rect><rect x="576" y="200" width="6" height="0" stroke="black" stroke-width="1" fill="blue" opacity="1" tooltip="enable"><title>(0.159591,0)</title></rect><rect x="582" y="200" width="6" height="0" stroke="black" stroke-width="1" fill="blue" opacity="1" tooltip="enable"><title>(0.161254,0)</title></rect><rect x="588" y="200" width="6" height="0" stroke="black" stroke-width="1" fill="blue" opacity="1" tooltip="enable"><title>(0.162916,0)</title></rect><rect x="594" y="199.899" width="6" height="0.100756" stroke="black" stroke-width="1" fill="blue" opacity="1" tooltip="enable"><title>(0.164579,1)</title></rect><text x="30" y="240" font-size="20" fill="black">0</text>
<text x="600" y="240" font-size="20" fill="black">0.166241</text>
<polyline points="0,220,600,220" stroke="black" stroke-width="1" fill="none" opacity="1"/>
<text x="720" y="20" font-size="20" fill="black">1985</text>
<text x="720" y="200" font-size="20" fill="black">0</text>
<polyline points="660,0,660,200" stroke="black" stroke-width="1" fill="none" opacity="1"/>
</svg>