<?xml version="1.0" standalone="yes"?>
<!-- SVG graphic -->
<svg xmlns='http://www.w3.org/2000/svg' xmlns:xlink='http://www.w3.org/1999/xlink'
 version="1.1">
<rect x="0" y="0" width="6" height="200" stroke="black" stroke-width="1" fill="blue" opacity="1" tooltip="enable"><title>(0,2120)</title></rect><rect x="6" y="67.2641" width="6" height="132.736" stroke="black" stroke-width="1" fill="blue" opacity="1" tooltip="enable"><title>(0.000552217,1407)</title></rect><rect x="12" y="130" width="6" height="70" stroke="black" stroke-width="1" fill="blue" opacity="1" tooltip="enable"><title>(0.00110443,742)</title></rect><rect x="18" y="181.981" width="6" height="18.0189" stroke="black" stroke-width="1" fill="blue" opacity="1" tooltip="enable"><title>(0.00165665,191)</title></rect><rect x="24" y="192.075" width="6" height="7.92453" stroke="black" stroke-width="1" fill="blue" opacity="1" tooltip="enable"><title>(0.00220887,84)</title></rect><rect x="30" y="189.057" width="6" height="10.9434" stroke="black" stroke-width="1" fill="blue" opacity="1" tooltip="enable"><title>(0.00276108,116)</title></rect><rect x="36" y="190.566" width="6" height="9.43396" stroke="black" stroke-width="1" fill="blue" opacity="1" tooltip="enable"><title>(0.0033133,100)</title></rect><rect x="42" y="192.453" width="6" height="7.54717" stroke="black" stroke-width="1" fill="blue" opacity="1" tooltip="enable"><title>(0.00386552,80)</title></rect><rect x="48" y="192.075" width="6" height="7.92453" stroke="black" stroke-width="1" fill="blue" opacity="1" tooltip="enable"><title>(0.00441774,84)</title></rect><rect x="54" y="192.075" width="6" height="7.92453" stroke="black" stroke-width="1" fill="blue" opacity="1" tooltip="enable"><title>(0.00496995,84)</title></rect><rect x="60" y="190.566" width="6" height="9.43396" stroke="black" stroke-width="1" fill="blue" opacity="1" tooltip="enable"><title>(0.00552217,100)</title></rect><rect x="66" y="191.321" width="6" height="8.67924" stroke="black" stroke-width="1" fill="blue" opacity="1" tooltip="enable"><title>(0.00607439,92)</title></rect><rect x="72" y="190.849" width="6" height="9.15094" stroke="black" stroke-width="1" fill="blue" opacity="1" tooltip="enable"><title>(0.0066266,97)</title></rect><rect x="78" y="190.943" width="6" height="9.0566" stroke="black" stroke-width="1" fill="blue" opacity="1" tooltip="enable"><title>(0.00717882,96)</title></rect><rect x="84" y="188.491" width="6" height="11.5094" stroke="black" stroke-width="1" fill="blue" opacity="1" tooltip="enable"><title>(0.00773104,122)</title></rect><rect x="90" y="191.981" width="6" height="8.01887" stroke="black" stroke-width="1" fill="blue" opacity="1" tooltip="enable"><title>(0.00828325,85)</title></rect><rect x="96" y="191.698" width="6" height="8.30189" stroke="black" stroke-width="1" fill="blue" opacity="1" tooltip="enable"><title>(0.00883547,88)</title></rect><rect x="102" y="190.943" width="6" height="9.0566" stroke="black" stroke-width="1" fill="blue" opacity="1" tooltip="enable"><title>(0.00938769,96)</title></rect><rect x="108" y="191.698" width="6" height="8.30189" stroke="black" stroke-width="1" fill="blue" opacity="1" tooltip="enable"><title>(0.0099399,88)</title></rect><rect x="114" y="192.264" width="6" height="7.73585" stroke="black" stroke-width="1" fill="blue" opacity="1" tooltip="enable"><title>(0.0104921,82)</title></rect><rect x="120" y="190.377" width="6" height="9.62264" stroke="black" stroke-width="1" fill="blue" opacity="1" tooltip="enable"><title>(0.0110443,102)</title></rect><rect x="126" y="191.887" width="6" height="8.11321" stroke="black" stroke-width="1" fill="blue" opacity="1" tooltip="enable"><title>(0.0115966,86)</title></rect><rect x="132" y="189.623" width="6" height="10.3774" stroke="black" stroke-width="1" fill="blue" opacity="1" tooltip="enable"><title>(0.0121488,110)</title></rect><rect x="138" y="192.83" width="6" height="7.16981" stroke="black" stroke-width="1" fill="blue" opacity="1" tooltip="enable"><title>(0.012701,76)</title></rect><rect x="144" y="192.453" width="6" height="7.54717" stroke="black" stroke-width="1" fill="blue" opacity="1" tooltip="enable"><title>(0.0132532,80)</title></rect><rect x="150" y="192.17" width="6" height="7.83019" stroke="black" stroke-width="1" fill="blue" opacity="1" tooltip="enable"><title>(0.0138054,83)</title></rect><rect x="156" y="193.491" width="6" height="6.50943" stroke="black" stroke-width="1" fill="blue" opacity="1" tooltip="enable"><title>(0.0143576,69)</title></rect><rect x="162" y="193.208" width="6" height="6.79245" stroke="black" stroke-width="1" fill="blue" opacity="1" tooltip="enable"><title>(0.0149099,72)</title></rect><rect x="168" y="194.717" width="6" height="5.28302" stroke="black" stroke-width="1" fill="blue" opacity="1" tooltip="enable"><title>(0.0154621,56)</title></rect><rect x="174" y="195.66" width="6" height="4.33962" stroke="black" stroke-width="1" fill="blue" opacity="1" tooltip="enable"><title>(0.0160143,46)</title></rect><rect x="180" y="193.962" width="6" height="6.03774" stroke="black" stroke-width="1" fill="blue" opacity="1" tooltip="enable"><title>(0.0165665,64)</title></rect><rect x="186" y="194.434" width="6" height="5.56604" stroke="black" stroke-width="1" fill="blue" opacity="1" tooltip="enable"><title>(0.0171187,59)</title></rect><rect x="192" y="194.811" width="6" height="5.18868" stroke="black" stroke-width="1" fill="blue" opacity="1" tooltip="enable"><title>(0.0176709,55)</title></rect><rect x="198" y="194.811" width="6" height="5.18868" stroke="black" stroke-width="1" fill="blue" opacity="1" tooltip="enable"><title>(0.0182232,55)</title></rect><rect x="204" y="196.038" width="6" height="3.96226" stroke="black" stroke-width="1" fill="blue" opacity="1" tooltip="enable"><title>(0.0187754,42)</title></rect><rect x="210" y="193.679" width="6" height="6.32076" stroke="black" stroke-width="1" fill="blue" opacity="1" tooltip="enable"><title>(0.0193276,67)</title></rect><rect x="216" y="195.094" width="6" height="4.90566" stroke="black" stroke-width="1" fill="blue" opacity="1" tooltip="enable"><title>(0.0198798,52)</title></rect><rect x="222" y="196.226" width="6" height="3.77358" stroke="black" stroke-width="1" fill="blue" opacity="1" tooltip="enable"><title>(0.020432,40)</title></rect><rect x="228" y="193.396" width="6" height="6.60377" stroke="black" stroke-width="1" fill="blue" opacity="1" tooltip="enable"><title>(0.0209842,70)</title></rect><rect x="234" y="193.774" width="6" height="6.22642" stroke="black" stroke-width="1" fill="blue" opacity="1" tooltip="enable"><title>(0.0215365,66)</title></rect><rect x="240" y="197.925" width="6" height="2.07547" stroke="black" stroke-width="1" fill="blue" opacity="1" tooltip="enable"><title>(0.0220887,22)</title></rect><rect x="246" y="196.887" width="6" height="3.11321" stroke="black" stroke-width="1" fill="blue" opacity="1" tooltip="enable"><title>(0.0226409,33)</title></rect><rect x="252" y="195.755" width="6" height="4.24528" stroke="black" stroke-width="1" fill="blue" opacity="1" tooltip="enable"><title>(0.0231931,45)</title></rect><rect x="258" y="198.208" width="6" height="1.79245" stroke="black" stroke-width="1" fill="blue" opacity="1" tooltip="enable"><title>(0.0237453,19)</title></rect><rect x="264" y="194.34" width="6" height="5.66038" stroke="black" stroke-width="1" fill="blue" opacity="1" tooltip="enable"><title>(0.0242975,60)</title></rect><rect x="270" y="196.887" width="6" height="3.11321" stroke="black" stroke-width="1" fill="blue" opacity="1" tooltip="enable"><title>(0.0248498,33)</title></rect><rect x="276" y="197.264" width="6" height="2.73585" stroke="black" stroke-width="1" fill="blue" opacity="1" tooltip="enable"><title>(0.025402,29)</title></rect><rect x="282" y="195.094" width="6" height="4.90566" stroke="black" stroke-width="1" fill="blue" opacity="1" tooltip="enable"><title>(0.0259542,52)</title></rect><rect x="288" y="197.358" width="6" height="2.64151" stroke="black" stroke-width="1" fill="blue" opacity="1" tooltip="enable"><title>(0.0265064,28)</title></rect><rect x="294" y="198.019" width="6" height="1.98113" stroke="black" stroke-width="1" fill="blue" opacity="1" tooltip="enable"><title>(0.0270586,21)</title></rect><rect x="300" y="196.604" width="6" height="3.39623" stroke="black" stroke-width="1" fill="blue" opacity="1" tooltip="enable"><title>(0.0276108,36)</title></rect><rect x="306" y="197.358" width="6" height="2.64151" stroke="black" stroke-width="1" fill="blue" opacity="1" tooltip="enable"><title>(0.0281631,28)</title></rect><rect x="312" y="197.925" width="6" height="2.07547" stroke="black" stroke-width="1" fill="blue" opacity="1" tooltip="enable"><title>(0.0287153,22)</title></rect><rect x="318" y="197.358" width="6" height="2.64151" stroke="black" stroke-width="1" fill="blue" opacity="1" tooltip="enable"><title>(0.0292675,28)</title></rect><rect x="324" y="197.075" width="6" height="2.92453" stroke="black" stroke-width="1" fill="blue" opacity="1" tooltip="enable"><title>(0.0298197,31)</title></rect><rect x="330" y="198.585" width="6" height="1.41509" stroke="black" stroke-width="1" fill="blue" opacity="1" tooltip="enable"><title>(0.0303719,15)</title></rect><rect x="336" y="198.113" width="6" height="1.88679" stroke="black" stroke-width="1" fill="blue" opacity="1" tooltip="enable"><title>(0.0309241,20)</title></rect><rect x="342" y="197.547" width="6" height="2.45283" stroke="black" stroke-width="1" fill="blue" opacity="1" tooltip="enable"><title>(0.0314764,26)</title></rect><rect x="348" y="198.679" width="6" height="1.32075" stroke="black" stroke-width="1" fill="blue" opacity="1" tooltip="enable"><title>(0.0320286,14)</title></rect><rect x="354" y="198.585" width="6" height="1.41509" stroke="black" stroke-width="1" fill="blue" opacity="1" tooltip="enable"><title>(0.0325808,15)</title></rect><rect x="360" y="198.774" width="6" height="1.22642" stroke="black" stroke-width="1" fill="blue" opacity="1" tooltip="enable"><title>(0.033133,13)</title></rect><rect x="366" y="198.962" width="6" height="1.03774" stroke="black" stroke-width="1" fill="blue" opacity="1" tooltip="enable"><title>(0.0336852,11)</title></rect><rect x="372" y="199.34" width="6" height="0.660377" stroke="black" stroke-width="1" fill="blue" opacity="1" tooltip="enable"><title>(0.0342374,7)</title></rect><rect x="378" y="198.396" width="6" height="1.60377" stroke="black" stroke-width="1" fill="blue" opacity="1" tooltip="enable"><title>(0.0347897,17)</title></rect><rect x="384" y="198.962" width="6" height="1.03774" stroke="black" stroke-width="1" fill="blue" opacity="1" tooltip="enable"><title>(0.0353419,11)</title></rect><rect x="390" y="199.245" width="6" height="0.754717" stroke="black" stroke-width="1" fill="blue" opacity="1" tooltip="enable"><title>(0.0358941,8)</title></rect><rect x="396" y="199.245" width="6" height="0.754717" stroke="black" stroke-width="1" fill="blue" opacity="1" tooltip="enable"><title>(0.0364463,8)</title></rect><rect x="402" y="199.245" width="6" height="0.754717" stroke="black" stroke-width="1" fill="blue" opacity="1" tooltip="enable"><title>(0.0369985,8)</title></rect><rect x="408" y="199.811" width="6" height="0.188679" stroke="black" stroke-width="1" fill="blue" opacity="1" tooltip="enable"><title>(0.0375507,2)</title></rect><rect x="414" y="199.245" width="6" height="0.754717" stroke="black" stroke-width="1" fill="blue" opacity="1" tooltip="enable"><title>(0.038103,8)</title></rect><rect x="420" y="200" width="6" height="0" stroke="black" stroke-width="1" fill="blue" opacity="1" tooltip="enable"><title>(0.0386552,0)</title></rect><rect x="426" y="199.811" width="6" height="0.188679" stroke="black" stroke-width="1" fill="blue" opacity="1" tooltip="enable"><title>(0.0392074,2)</title></rect><rect x="432" y="199.811" width="6" height="0.188679" stroke="black" stroke-width="1" fill="blue" opacity="1" tooltip="enable"><title>(0.0397596,2)</title></rect><rect x="438" y="199.811" width="6" height="0.188679" stroke="black" stroke-width="1" fill="blue" opacity="1" tooltip="enable"><title>(0.0403118,2)</title></rect><rect x="444" y="199.811" width="6" height="0.188679" stroke="black" stroke-width="1" fill="blue" opacity="1" tooltip="enable"><title>(0.0408641,2)</title></rect><rect x="450" y="199.623" width="6" height="0.377358" stroke="black" stroke-width="1" fill="blue" opacity="1" tooltip="enable"><title>(0.0414163,4)</title></rect><rect x="456" y="200" width="6" height="0" stroke="black" stroke-width="1" fill="blue" opacity="1" tooltip="enable"><title>(0.0419685,0)</title></rect><rect x="462" y="199.906" width="6" height="0.0943396" stroke="black" stroke-width="1" fill="blue" opacity="1" tooltip="enable"><title>(0.0425207,1)</title></rect><rect x="468" y="199.906" width="6" height="0.0943396" stroke="black" stroke-width="1" fill="blue" opacity="1" tooltip="enable"><title>(0.0430729,1)</title></rect><rect x="474" y="200" width="6" height="0" stroke="black" stroke-width="1" fill="blue" opacity="1" tooltip="enable"><title>(0.0436251,0)</title></rect><rect x="480" y="200" width="6" height="0" stroke="black" stroke-width="1" fill="blue" opacity="1" tooltip="enable"><title>(0.0441773,0)</title></rect><rect x="486" y="199.811" width="6" height="0.188679" stroke="black" stroke-width="1" fill="blue" opacity="1" tooltip="enable"><title>(0.0447296,2)</title></rect><rect x="492" y="199.623" width="6" height="0.377358" stroke="black" stroke-width="1" fill="blue" opacity="1" tooltip="enable"><title>(0.0452818,4)</title></rect><rect x="498" y="200" width="6" height="0" stroke="black" stroke-width="1" fill="blue" opacity="1" tooltip="enable"><title>(0.045834,0)</title></rect><rect x="504" y="200" width="6" height="0" stroke="black" stroke-width="1" fill="blue" opacity="1" tooltip="enable"><title>(0.0463862,0)</title></rect><rect x="510" y="200" width="6" height="0" stroke="black" stroke-width="1" fill="blue" opacity="1" tooltip="enable"><title>(0.0469384,0)</title></rect><rect x="516" y="200" width="6" height="0" stroke="black" stroke-width="1" fill="blue" opacity="1" tooltip="enable"><title>(0.0474907,0)</title></rect><rect x="522" y="199.811" width="6" height="0.188679" stroke="black" stroke-width="1" fill="blue" opacity="1" tooltip="enable"><title>(0.0480429,2)</title></rect><rect x="528" y="199.811" width="6" height="0.188679" stroke="black" stroke-width="1" fill="blue" opacity="1" tooltip="enable"><title>(0.0485951,2)</title></rect><rect x="534" y="200" width="6" height="0" stroke="black" stroke-width="1" fill="blue" opacity="1" tooltip="enable"><title>(0.0491473,0)</title></rect><rect x="540" y="200" width="6" height="0" stroke="black" stroke-width="1" fill="blue" opacity="1" tooltip="enable"><title>(0.0496995,0)</title></rect><rect x="546" y="200" width="6" height="0" stroke="black" stroke-width="1" fill="blue" opacity="1" tooltip="enable"><title>(0.0502517,0)</title></rect><rect x="552" y="200" width="6" height="0" stroke="black" stroke-width="1" fill="blue" opacity="1" tooltip="enable"><title>(0.050804,0)</title></rect><rect x="558" y="200" width="6" height="0" stroke="black" stroke-width="1" fill="blue" opacity="1" tooltip="enable"><title>(0.0513562,0)</title></rect><rect x="564" y="200" width="6" height="0" stroke="black" stroke-width="1" fill="blue" opacity="1" tooltip="enable"><title>(0.0519084,0)</title></rect><rect x="570" y="200" width="6" height="0" stroke="black" stroke-width="1" fill="blue" opacity="1" tooltip="enable"><title>(0.0524606,0)</title></rect><rect x="576" y="200" width="6" height="0" stroke="black" stroke-width="1" fill="blue" opacity="1" tooltip="enable"><title>(0.0530128,0)</title></rect><rect x="582" y="200" width="6" height="0" stroke="black" stroke-width="1" fill="blue" opacity="1" tooltip="enable"><title>(0.053565,0)</title></rect><rect x="588" y="200" width="6" height="0" stroke="black" stroke-width="1" fill="blue" opacity="1" tooltip="enable"><title>(0.0541173,0)</title></rect><rect x="594" y="199.906" width="6" height="0.0943396" stroke="black" stroke-width="1" fill="blue" opacity="1" tooltip="enable"><title>(0.0546695,1)</title></rect><text x="30" y="240" font-size="20" fill="black">0</text>
<text x="600" y="240" font-size="20" fill="black">0.0552217</text>
<polyline points="0,220,600,220" stroke="black" stroke-width="1" fill="none" opacity="1"/>
<text x="720" y="20" font-size="20" fill="black">2120</text>
<text x="720" y="200" font-size="20" fill="black">0</text>
<polyline points="660,0,660,200" stroke="black" stroke-width="1" fill="none" opacity="1"/>
</svg>