<?xml version="1.0" encoding="UTF-8" standalone="no"?>
<!DOCTYPE svg PUBLIC "-//W3C//DTD SVG 1.1//EN"
 "http://www.w3.org/Graphics/SVG/1.1/DTD/svg11.dtd">
<!-- Generated by graphviz version 2.43.0 (0)
 -->
<!-- Title: %3 Pages: 1 -->
<svg width="893pt" height="264pt"
 viewBox="0.00 0.00 893.00 264.00" xmlns="http://www.w3.org/2000/svg" xmlns:xlink="http://www.w3.org/1999/xlink">
<g id="graph0" class="graph" transform="scale(1 1) rotate(0) translate(4 260)">
<title>%3</title>
<polygon fill="white" stroke="transparent" points="-4,4 -4,-260 889,-260 889,4 -4,4"/>
<!-- Root -->
<g id="node1" class="node">
<title>Root</title>
<polygon fill="none" stroke="black" points="598.5,-256 544.5,-256 544.5,-220 598.5,-220 598.5,-256"/>
<text text-anchor="middle" x="571.5" y="-234.3" font-family="Times,serif" font-size="14.00">Root</text>
</g>
<!-- Rootfxy
0.01~0.03 -->
<g id="node2" class="node">
<title>Rootfxy
0.01~0.03</title>
<polygon fill="none" stroke="black" points="142.5,-184 50.5,-184 50.5,-146 142.5,-146 142.5,-184"/>
<text text-anchor="middle" x="96.5" y="-168.8" font-family="Times,serif" font-size="14.00">fxy</text>
<text text-anchor="middle" x="96.5" y="-153.8" font-family="Times,serif" font-size="14.00">0.01~0.03</text>
</g>
<!-- Root&#45;&gt;Rootfxy
0.01~0.03 -->
<g id="edge1" class="edge">
<title>Root&#45;&gt;Rootfxy
0.01~0.03</title>
<path fill="none" stroke="black" d="M544.08,-233.16C483.39,-224.63 333.1,-203.33 207.5,-184 189.68,-181.26 170.26,-178.15 152.73,-175.3"/>
<polygon fill="black" stroke="black" points="153.08,-171.81 142.65,-173.65 151.95,-178.72 153.08,-171.81"/>
</g>
<!-- Rootfxy
0.05~0.07 -->
<g id="node5" class="node">
<title>Rootfxy
0.05~0.07</title>
<polygon fill="none" stroke="black" points="308.5,-184 216.5,-184 216.5,-146 308.5,-146 308.5,-184"/>
<text text-anchor="middle" x="262.5" y="-168.8" font-family="Times,serif" font-size="14.00">fxy</text>
<text text-anchor="middle" x="262.5" y="-153.8" font-family="Times,serif" font-size="14.00">0.05~0.07</text>
</g>
<!-- Root&#45;&gt;Rootfxy
0.05~0.07 -->
<g id="edge4" class="edge">
<title>Root&#45;&gt;Rootfxy
0.05~0.07</title>
<path fill="none" stroke="black" d="M544.35,-230.76C493.99,-219.19 385.18,-194.19 318.46,-178.86"/>
<polygon fill="black" stroke="black" points="319.06,-175.4 308.53,-176.58 317.49,-182.23 319.06,-175.4"/>
</g>
<!-- Rootfxy
0.07~0.09 -->
<g id="node10" class="node">
<title>Rootfxy
0.07~0.09</title>
<polygon fill="none" stroke="black" points="523.5,-184 431.5,-184 431.5,-146 523.5,-146 523.5,-184"/>
<text text-anchor="middle" x="477.5" y="-168.8" font-family="Times,serif" font-size="14.00">fxy</text>
<text text-anchor="middle" x="477.5" y="-153.8" font-family="Times,serif" font-size="14.00">0.07~0.09</text>
</g>
<!-- Root&#45;&gt;Rootfxy
0.07~0.09 -->
<g id="edge9" class="edge">
<title>Root&#45;&gt;Rootfxy
0.07~0.09</title>
<path fill="none" stroke="black" d="M548.75,-219.81C536.98,-210.93 522.42,-199.93 509.54,-190.2"/>
<polygon fill="black" stroke="black" points="511.45,-187.25 501.36,-184.02 507.23,-192.84 511.45,-187.25"/>
</g>
<!-- Rootfxy
&lt;0.01 -->
<g id="node15" class="node">
<title>Rootfxy
&lt;0.01</title>
<polygon fill="none" stroke="black" points="601.5,-184 541.5,-184 541.5,-146 601.5,-146 601.5,-184"/>
<text text-anchor="middle" x="571.5" y="-168.8" font-family="Times,serif" font-size="14.00">fxy</text>
<text text-anchor="middle" x="571.5" y="-153.8" font-family="Times,serif" font-size="14.00">&lt;0.01</text>
</g>
<!-- Root&#45;&gt;Rootfxy
&lt;0.01 -->
<g id="edge14" class="edge">
<title>Root&#45;&gt;Rootfxy
&lt;0.01</title>
<path fill="none" stroke="black" d="M571.5,-219.81C571.5,-212.11 571.5,-202.82 571.5,-194.15"/>
<polygon fill="black" stroke="black" points="575,-194.02 571.5,-184.02 568,-194.02 575,-194.02"/>
</g>
<!-- Rootfxy
&lt;0.05 -->
<g id="node18" class="node">
<title>Rootfxy
&lt;0.05</title>
<polygon fill="none" stroke="black" points="686.5,-184 626.5,-184 626.5,-146 686.5,-146 686.5,-184"/>
<text text-anchor="middle" x="656.5" y="-168.8" font-family="Times,serif" font-size="14.00">fxy</text>
<text text-anchor="middle" x="656.5" y="-153.8" font-family="Times,serif" font-size="14.00">&lt;0.05</text>
</g>
<!-- Root&#45;&gt;Rootfxy
&lt;0.05 -->
<g id="edge17" class="edge">
<title>Root&#45;&gt;Rootfxy
&lt;0.05</title>
<path fill="none" stroke="black" d="M592.08,-219.81C602.62,-211.01 615.63,-200.14 627.2,-190.48"/>
<polygon fill="black" stroke="black" points="629.5,-193.12 634.93,-184.02 625.01,-187.74 629.5,-193.12"/>
</g>
<!-- Rootfxy
&gt;=0.03 -->
<g id="node21" class="node">
<title>Rootfxy
&gt;=0.03</title>
<polygon fill="none" stroke="black" points="784.5,-184 712.5,-184 712.5,-146 784.5,-146 784.5,-184"/>
<text text-anchor="middle" x="748.5" y="-168.8" font-family="Times,serif" font-size="14.00">fxy</text>
<text text-anchor="middle" x="748.5" y="-153.8" font-family="Times,serif" font-size="14.00">&gt;=0.03</text>
</g>
<!-- Root&#45;&gt;Rootfxy
&gt;=0.03 -->
<g id="edge20" class="edge">
<title>Root&#45;&gt;Rootfxy
&gt;=0.03</title>
<path fill="none" stroke="black" d="M598.77,-226.06C626.48,-214.95 669.91,-197.53 702.87,-184.3"/>
<polygon fill="black" stroke="black" points="704.32,-187.49 712.3,-180.52 701.72,-180.99 704.32,-187.49"/>
</g>
<!-- Rootfxy
&gt;=0.09 -->
<g id="node24" class="node">
<title>Rootfxy
&gt;=0.09</title>
<polygon fill="none" stroke="black" points="880.5,-184 808.5,-184 808.5,-146 880.5,-146 880.5,-184"/>
<text text-anchor="middle" x="844.5" y="-168.8" font-family="Times,serif" font-size="14.00">fxy</text>
<text text-anchor="middle" x="844.5" y="-153.8" font-family="Times,serif" font-size="14.00">&gt;=0.09</text>
</g>
<!-- Root&#45;&gt;Rootfxy
&gt;=0.09 -->
<g id="edge23" class="edge">
<title>Root&#45;&gt;Rootfxy
&gt;=0.09</title>
<path fill="none" stroke="black" d="M598.74,-231.46C640.85,-222.68 724.14,-204.46 793.5,-184 795.17,-183.51 796.87,-182.99 798.58,-182.46"/>
<polygon fill="black" stroke="black" points="800,-185.67 808.43,-179.26 797.84,-179.02 800,-185.67"/>
</g>
<!-- Rootfxy
0.01~0.03cxy
&gt;=0.275 -->
<g id="node3" class="node">
<title>Rootfxy
0.01~0.03cxy
&gt;=0.275</title>
<polygon fill="none" stroke="black" points="81,-110 0,-110 0,-72 81,-72 81,-110"/>
<text text-anchor="middle" x="40.5" y="-94.8" font-family="Times,serif" font-size="14.00">cxy</text>
<text text-anchor="middle" x="40.5" y="-79.8" font-family="Times,serif" font-size="14.00">&gt;=0.275</text>
</g>
<!-- Rootfxy
0.01~0.03&#45;&gt;Rootfxy
0.01~0.03cxy
&gt;=0.275 -->
<g id="edge2" class="edge">
<title>Rootfxy
0.01~0.03&#45;&gt;Rootfxy
0.01~0.03cxy
&gt;=0.275</title>
<path fill="none" stroke="black" d="M82.37,-145.83C75.92,-137.54 68.16,-127.56 61.07,-118.45"/>
<polygon fill="black" stroke="black" points="63.72,-116.16 54.82,-110.41 58.2,-120.46 63.72,-116.16"/>
</g>
<!-- 981a44719a91594d2875841f7b31f2ea261ff31f9c6b4fcbbd22cdc20d630404 -->
<g id="node4" class="node">
<title>981a44719a91594d2875841f7b31f2ea261ff31f9c6b4fcbbd22cdc20d630404</title>
<polygon fill="none" stroke="black" points="67.5,-36 13.5,-36 13.5,0 67.5,0 67.5,-36"/>
<text text-anchor="middle" x="40.5" y="-14.3" font-family="Times,serif" font-size="14.00">接受</text>
</g>
<!-- Rootfxy
0.01~0.03cxy
&gt;=0.275&#45;&gt;981a44719a91594d2875841f7b31f2ea261ff31f9c6b4fcbbd22cdc20d630404 -->
<g id="edge3" class="edge">
<title>Rootfxy
0.01~0.03cxy
&gt;=0.275&#45;&gt;981a44719a91594d2875841f7b31f2ea261ff31f9c6b4fcbbd22cdc20d630404</title>
<path fill="none" stroke="black" d="M40.5,-71.72C40.5,-63.97 40.5,-54.79 40.5,-46.27"/>
<polygon fill="black" stroke="black" points="44,-46 40.5,-36 37,-46 44,-46"/>
</g>
<!-- Rootfxy
0.05~0.07cxy
0.025~0.275 -->
<g id="node6" class="node">
<title>Rootfxy
0.05~0.07cxy
0.025~0.275</title>
<polygon fill="none" stroke="black" points="209.5,-110 99.5,-110 99.5,-72 209.5,-72 209.5,-110"/>
<text text-anchor="middle" x="154.5" y="-94.8" font-family="Times,serif" font-size="14.00">cxy</text>
<text text-anchor="middle" x="154.5" y="-79.8" font-family="Times,serif" font-size="14.00">0.025~0.275</text>
</g>
<!-- Rootfxy
0.05~0.07&#45;&gt;Rootfxy
0.05~0.07cxy
0.025~0.275 -->
<g id="edge5" class="edge">
<title>Rootfxy
0.05~0.07&#45;&gt;Rootfxy
0.05~0.07cxy
0.025~0.275</title>
<path fill="none" stroke="black" d="M235.25,-145.83C221.56,-136.71 204.81,-125.54 190.12,-115.74"/>
<polygon fill="black" stroke="black" points="192.01,-112.8 181.74,-110.16 188.12,-118.62 192.01,-112.8"/>
</g>
<!-- Rootfxy
0.05~0.07cxy
&lt;0.025 -->
<g id="node8" class="node">
<title>Rootfxy
0.05~0.07cxy
&lt;0.025</title>
<polygon fill="none" stroke="black" points="297,-110 228,-110 228,-72 297,-72 297,-110"/>
<text text-anchor="middle" x="262.5" y="-94.8" font-family="Times,serif" font-size="14.00">cxy</text>
<text text-anchor="middle" x="262.5" y="-79.8" font-family="Times,serif" font-size="14.00">&lt;0.025</text>
</g>
<!-- Rootfxy
0.05~0.07&#45;&gt;Rootfxy
0.05~0.07cxy
&lt;0.025 -->
<g id="edge7" class="edge">
<title>Rootfxy
0.05~0.07&#45;&gt;Rootfxy
0.05~0.07cxy
&lt;0.025</title>
<path fill="none" stroke="black" d="M262.5,-145.83C262.5,-138.13 262.5,-128.97 262.5,-120.42"/>
<polygon fill="black" stroke="black" points="266,-120.41 262.5,-110.41 259,-120.41 266,-120.41"/>
</g>
<!-- b9de86d1747b5452d0b2a527bddec33744c65b6a0a41b57f71f812dbb26a5e9f -->
<g id="node7" class="node">
<title>b9de86d1747b5452d0b2a527bddec33744c65b6a0a41b57f71f812dbb26a5e9f</title>
<polygon fill="none" stroke="black" points="181.5,-36 127.5,-36 127.5,0 181.5,0 181.5,-36"/>
<text text-anchor="middle" x="154.5" y="-14.3" font-family="Times,serif" font-size="14.00">接受</text>
</g>
<!-- Rootfxy
0.05~0.07cxy
0.025~0.275&#45;&gt;b9de86d1747b5452d0b2a527bddec33744c65b6a0a41b57f71f812dbb26a5e9f -->
<g id="edge6" class="edge">
<title>Rootfxy
0.05~0.07cxy
0.025~0.275&#45;&gt;b9de86d1747b5452d0b2a527bddec33744c65b6a0a41b57f71f812dbb26a5e9f</title>
<path fill="none" stroke="black" d="M154.5,-71.72C154.5,-63.97 154.5,-54.79 154.5,-46.27"/>
<polygon fill="black" stroke="black" points="158,-46 154.5,-36 151,-46 158,-46"/>
</g>
<!-- ba635956b11cdba153dbe6d6358ea83a2c1fc1cf8f20c2b3b6b90054060711e1 -->
<g id="node9" class="node">
<title>ba635956b11cdba153dbe6d6358ea83a2c1fc1cf8f20c2b3b6b90054060711e1</title>
<polygon fill="none" stroke="black" points="289.5,-36 235.5,-36 235.5,0 289.5,0 289.5,-36"/>
<text text-anchor="middle" x="262.5" y="-14.3" font-family="Times,serif" font-size="14.00">拒绝</text>
</g>
<!-- Rootfxy
0.05~0.07cxy
&lt;0.025&#45;&gt;ba635956b11cdba153dbe6d6358ea83a2c1fc1cf8f20c2b3b6b90054060711e1 -->
<g id="edge8" class="edge">
<title>Rootfxy
0.05~0.07cxy
&lt;0.025&#45;&gt;ba635956b11cdba153dbe6d6358ea83a2c1fc1cf8f20c2b3b6b90054060711e1</title>
<path fill="none" stroke="black" d="M262.5,-71.72C262.5,-63.97 262.5,-54.79 262.5,-46.27"/>
<polygon fill="black" stroke="black" points="266,-46 262.5,-36 259,-46 266,-46"/>
</g>
<!-- Rootfxy
0.07~0.09cxy
0.175~0.275 -->
<g id="node11" class="node">
<title>Rootfxy
0.07~0.09cxy
0.175~0.275</title>
<polygon fill="none" stroke="black" points="425.5,-110 315.5,-110 315.5,-72 425.5,-72 425.5,-110"/>
<text text-anchor="middle" x="370.5" y="-94.8" font-family="Times,serif" font-size="14.00">cxy</text>
<text text-anchor="middle" x="370.5" y="-79.8" font-family="Times,serif" font-size="14.00">0.175~0.275</text>
</g>
<!-- Rootfxy
0.07~0.09&#45;&gt;Rootfxy
0.07~0.09cxy
0.175~0.275 -->
<g id="edge10" class="edge">
<title>Rootfxy
0.07~0.09&#45;&gt;Rootfxy
0.07~0.09cxy
0.175~0.275</title>
<path fill="none" stroke="black" d="M450.5,-145.83C437.07,-136.79 420.65,-125.75 406.2,-116.02"/>
<polygon fill="black" stroke="black" points="407.74,-112.84 397.49,-110.16 403.83,-118.65 407.74,-112.84"/>
</g>
<!-- Rootfxy
0.07~0.09cxy
&lt;0.175 -->
<g id="node13" class="node">
<title>Rootfxy
0.07~0.09cxy
&lt;0.175</title>
<polygon fill="none" stroke="black" points="513,-110 444,-110 444,-72 513,-72 513,-110"/>
<text text-anchor="middle" x="478.5" y="-94.8" font-family="Times,serif" font-size="14.00">cxy</text>
<text text-anchor="middle" x="478.5" y="-79.8" font-family="Times,serif" font-size="14.00">&lt;0.175</text>
</g>
<!-- Rootfxy
0.07~0.09&#45;&gt;Rootfxy
0.07~0.09cxy
&lt;0.175 -->
<g id="edge12" class="edge">
<title>Rootfxy
0.07~0.09&#45;&gt;Rootfxy
0.07~0.09cxy
&lt;0.175</title>
<path fill="none" stroke="black" d="M477.75,-145.83C477.86,-138.13 477.99,-128.97 478.11,-120.42"/>
<polygon fill="black" stroke="black" points="481.6,-120.46 478.24,-110.41 474.61,-120.36 481.6,-120.46"/>
</g>
<!-- c65ca31efa807feb9b28071b2ba685921ce911ec7bb486b9925267fe70bc6ec5 -->
<g id="node12" class="node">
<title>c65ca31efa807feb9b28071b2ba685921ce911ec7bb486b9925267fe70bc6ec5</title>
<polygon fill="none" stroke="black" points="397.5,-36 343.5,-36 343.5,0 397.5,0 397.5,-36"/>
<text text-anchor="middle" x="370.5" y="-14.3" font-family="Times,serif" font-size="14.00">接受</text>
</g>
<!-- Rootfxy
0.07~0.09cxy
0.175~0.275&#45;&gt;c65ca31efa807feb9b28071b2ba685921ce911ec7bb486b9925267fe70bc6ec5 -->
<g id="edge11" class="edge">
<title>Rootfxy
0.07~0.09cxy
0.175~0.275&#45;&gt;c65ca31efa807feb9b28071b2ba685921ce911ec7bb486b9925267fe70bc6ec5</title>
<path fill="none" stroke="black" d="M370.5,-71.72C370.5,-63.97 370.5,-54.79 370.5,-46.27"/>
<polygon fill="black" stroke="black" points="374,-46 370.5,-36 367,-46 374,-46"/>
</g>
<!-- f71b3987710f8e9209463de075d0483521ca7b64b2a64f9afada484ebb054dad -->
<g id="node14" class="node">
<title>f71b3987710f8e9209463de075d0483521ca7b64b2a64f9afada484ebb054dad</title>
<polygon fill="none" stroke="black" points="505.5,-36 451.5,-36 451.5,0 505.5,0 505.5,-36"/>
<text text-anchor="middle" x="478.5" y="-14.3" font-family="Times,serif" font-size="14.00">拒绝</text>
</g>
<!-- Rootfxy
0.07~0.09cxy
&lt;0.175&#45;&gt;f71b3987710f8e9209463de075d0483521ca7b64b2a64f9afada484ebb054dad -->
<g id="edge13" class="edge">
<title>Rootfxy
0.07~0.09cxy
&lt;0.175&#45;&gt;f71b3987710f8e9209463de075d0483521ca7b64b2a64f9afada484ebb054dad</title>
<path fill="none" stroke="black" d="M478.5,-71.72C478.5,-63.97 478.5,-54.79 478.5,-46.27"/>
<polygon fill="black" stroke="black" points="482,-46 478.5,-36 475,-46 482,-46"/>
</g>
<!-- Rootfxy
&lt;0.01cxy
&gt;=0.275 -->
<g id="node16" class="node">
<title>Rootfxy
&lt;0.01cxy
&gt;=0.275</title>
<polygon fill="none" stroke="black" points="612,-110 531,-110 531,-72 612,-72 612,-110"/>
<text text-anchor="middle" x="571.5" y="-94.8" font-family="Times,serif" font-size="14.00">cxy</text>
<text text-anchor="middle" x="571.5" y="-79.8" font-family="Times,serif" font-size="14.00">&gt;=0.275</text>
</g>
<!-- Rootfxy
&lt;0.01&#45;&gt;Rootfxy
&lt;0.01cxy
&gt;=0.275 -->
<g id="edge15" class="edge">
<title>Rootfxy
&lt;0.01&#45;&gt;Rootfxy
&lt;0.01cxy
&gt;=0.275</title>
<path fill="none" stroke="black" d="M571.5,-145.83C571.5,-138.13 571.5,-128.97 571.5,-120.42"/>
<polygon fill="black" stroke="black" points="575,-120.41 571.5,-110.41 568,-120.41 575,-120.41"/>
</g>
<!-- 6e92d647fbdda65aca587b3dd6e1ae6e4c84572e58b5da0fab3aad6c0b449982 -->
<g id="node17" class="node">
<title>6e92d647fbdda65aca587b3dd6e1ae6e4c84572e58b5da0fab3aad6c0b449982</title>
<polygon fill="none" stroke="black" points="598.5,-36 544.5,-36 544.5,0 598.5,0 598.5,-36"/>
<text text-anchor="middle" x="571.5" y="-14.3" font-family="Times,serif" font-size="14.00">拒绝</text>
</g>
<!-- Rootfxy
&lt;0.01cxy
&gt;=0.275&#45;&gt;6e92d647fbdda65aca587b3dd6e1ae6e4c84572e58b5da0fab3aad6c0b449982 -->
<g id="edge16" class="edge">
<title>Rootfxy
&lt;0.01cxy
&gt;=0.275&#45;&gt;6e92d647fbdda65aca587b3dd6e1ae6e4c84572e58b5da0fab3aad6c0b449982</title>
<path fill="none" stroke="black" d="M571.5,-71.72C571.5,-63.97 571.5,-54.79 571.5,-46.27"/>
<polygon fill="black" stroke="black" points="575,-46 571.5,-36 568,-46 575,-46"/>
</g>
<!-- Rootfxy
&lt;0.05cxy
&lt;0.275 -->
<g id="node19" class="node">
<title>Rootfxy
&lt;0.05cxy
&lt;0.275</title>
<polygon fill="none" stroke="black" points="699,-110 630,-110 630,-72 699,-72 699,-110"/>
<text text-anchor="middle" x="664.5" y="-94.8" font-family="Times,serif" font-size="14.00">cxy</text>
<text text-anchor="middle" x="664.5" y="-79.8" font-family="Times,serif" font-size="14.00">&lt;0.275</text>
</g>
<!-- Rootfxy
&lt;0.05&#45;&gt;Rootfxy
&lt;0.05cxy
&lt;0.275 -->
<g id="edge18" class="edge">
<title>Rootfxy
&lt;0.05&#45;&gt;Rootfxy
&lt;0.05cxy
&lt;0.275</title>
<path fill="none" stroke="black" d="M658.52,-145.83C659.37,-138.13 660.39,-128.97 661.34,-120.42"/>
<polygon fill="black" stroke="black" points="664.83,-120.74 662.45,-110.41 657.87,-119.97 664.83,-120.74"/>
</g>
<!-- 93e0704ae2dc9d0b5d04c245245b1dc679155051e4db91a5c970971427b8bffd -->
<g id="node20" class="node">
<title>93e0704ae2dc9d0b5d04c245245b1dc679155051e4db91a5c970971427b8bffd</title>
<polygon fill="none" stroke="black" points="691.5,-36 637.5,-36 637.5,0 691.5,0 691.5,-36"/>
<text text-anchor="middle" x="664.5" y="-14.3" font-family="Times,serif" font-size="14.00">接受</text>
</g>
<!-- Rootfxy
&lt;0.05cxy
&lt;0.275&#45;&gt;93e0704ae2dc9d0b5d04c245245b1dc679155051e4db91a5c970971427b8bffd -->
<g id="edge19" class="edge">
<title>Rootfxy
&lt;0.05cxy
&lt;0.275&#45;&gt;93e0704ae2dc9d0b5d04c245245b1dc679155051e4db91a5c970971427b8bffd</title>
<path fill="none" stroke="black" d="M664.5,-71.72C664.5,-63.97 664.5,-54.79 664.5,-46.27"/>
<polygon fill="black" stroke="black" points="668,-46 664.5,-36 661,-46 668,-46"/>
</g>
<!-- Rootfxy
&gt;=0.03cxy
&gt;=0.275 -->
<g id="node22" class="node">
<title>Rootfxy
&gt;=0.03cxy
&gt;=0.275</title>
<polygon fill="none" stroke="black" points="798,-110 717,-110 717,-72 798,-72 798,-110"/>
<text text-anchor="middle" x="757.5" y="-94.8" font-family="Times,serif" font-size="14.00">cxy</text>
<text text-anchor="middle" x="757.5" y="-79.8" font-family="Times,serif" font-size="14.00">&gt;=0.275</text>
</g>
<!-- Rootfxy
&gt;=0.03&#45;&gt;Rootfxy
&gt;=0.03cxy
&gt;=0.275 -->
<g id="edge21" class="edge">
<title>Rootfxy
&gt;=0.03&#45;&gt;Rootfxy
&gt;=0.03cxy
&gt;=0.275</title>
<path fill="none" stroke="black" d="M750.77,-145.83C751.73,-138.13 752.88,-128.97 753.95,-120.42"/>
<polygon fill="black" stroke="black" points="757.43,-120.77 755.2,-110.41 750.48,-119.9 757.43,-120.77"/>
</g>
<!-- e052e4d7ff611a2b3de0d0d32b1f9a4e3b0b106ab1d0df34b27748d598b96b40 -->
<g id="node23" class="node">
<title>e052e4d7ff611a2b3de0d0d32b1f9a4e3b0b106ab1d0df34b27748d598b96b40</title>
<polygon fill="none" stroke="black" points="784.5,-36 730.5,-36 730.5,0 784.5,0 784.5,-36"/>
<text text-anchor="middle" x="757.5" y="-14.3" font-family="Times,serif" font-size="14.00">拒绝</text>
</g>
<!-- Rootfxy
&gt;=0.03cxy
&gt;=0.275&#45;&gt;e052e4d7ff611a2b3de0d0d32b1f9a4e3b0b106ab1d0df34b27748d598b96b40 -->
<g id="edge22" class="edge">
<title>Rootfxy
&gt;=0.03cxy
&gt;=0.275&#45;&gt;e052e4d7ff611a2b3de0d0d32b1f9a4e3b0b106ab1d0df34b27748d598b96b40</title>
<path fill="none" stroke="black" d="M757.5,-71.72C757.5,-63.97 757.5,-54.79 757.5,-46.27"/>
<polygon fill="black" stroke="black" points="761,-46 757.5,-36 754,-46 761,-46"/>
</g>
<!-- Rootfxy
&gt;=0.09cxy
&lt;0.275 -->
<g id="node25" class="node">
<title>Rootfxy
&gt;=0.09cxy
&lt;0.275</title>
<polygon fill="none" stroke="black" points="885,-110 816,-110 816,-72 885,-72 885,-110"/>
<text text-anchor="middle" x="850.5" y="-94.8" font-family="Times,serif" font-size="14.00">cxy</text>
<text text-anchor="middle" x="850.5" y="-79.8" font-family="Times,serif" font-size="14.00">&lt;0.275</text>
</g>
<!-- Rootfxy
&gt;=0.09&#45;&gt;Rootfxy
&gt;=0.09cxy
&lt;0.275 -->
<g id="edge24" class="edge">
<title>Rootfxy
&gt;=0.09&#45;&gt;Rootfxy
&gt;=0.09cxy
&lt;0.275</title>
<path fill="none" stroke="black" d="M846.01,-145.83C846.66,-138.13 847.42,-128.97 848.13,-120.42"/>
<polygon fill="black" stroke="black" points="851.62,-120.67 848.97,-110.41 844.65,-120.09 851.62,-120.67"/>
</g>
<!-- 9637bfd9cb918147d2adf6eefb51dea270b000c1d25656b49c94c10de023b030 -->
<g id="node26" class="node">
<title>9637bfd9cb918147d2adf6eefb51dea270b000c1d25656b49c94c10de023b030</title>
<polygon fill="none" stroke="black" points="877.5,-36 823.5,-36 823.5,0 877.5,0 877.5,-36"/>
<text text-anchor="middle" x="850.5" y="-14.3" font-family="Times,serif" font-size="14.00">拒绝</text>
</g>
<!-- Rootfxy
&gt;=0.09cxy
&lt;0.275&#45;&gt;9637bfd9cb918147d2adf6eefb51dea270b000c1d25656b49c94c10de023b030 -->
<g id="edge25" class="edge">
<title>Rootfxy
&gt;=0.09cxy
&lt;0.275&#45;&gt;9637bfd9cb918147d2adf6eefb51dea270b000c1d25656b49c94c10de023b030</title>
<path fill="none" stroke="black" d="M850.5,-71.72C850.5,-63.97 850.5,-54.79 850.5,-46.27"/>
<polygon fill="black" stroke="black" points="854,-46 850.5,-36 847,-46 854,-46"/>
</g>
</g>
</svg>
