<?xml version="1.0" encoding="UTF-8" standalone="no"?>
<!DOCTYPE svg PUBLIC "-//W3C//DTD SVG 1.1//EN"
 "http://www.w3.org/Graphics/SVG/1.1/DTD/svg11.dtd">
<!-- Generated by graphviz version 2.43.0 (0)
 -->
<!-- Title: %3 Pages: 1 -->
<svg width="1302pt" height="264pt"
 viewBox="0.00 0.00 1302.00 264.00" xmlns="http://www.w3.org/2000/svg" xmlns:xlink="http://www.w3.org/1999/xlink">
<g id="graph0" class="graph" transform="scale(1 1) rotate(0) translate(4 260)">
<title>%3</title>
<polygon fill="white" stroke="transparent" points="-4,4 -4,-260 1298,-260 1298,4 -4,4"/>
<!-- Root -->
<g id="node1" class="node">
<title>Root</title>
<polygon fill="none" stroke="black" points="638.5,-256 584.5,-256 584.5,-220 638.5,-220 638.5,-256"/>
<text text-anchor="middle" x="611.5" y="-234.3" font-family="Times,serif" font-size="14.00">Root</text>
</g>
<!-- Rootcxy
&lt;&#45;0.35 -->
<g id="node2" class="node">
<title>Rootcxy
&lt;&#45;0.35</title>
<polygon fill="none" stroke="black" points="65,-184 0,-184 0,-146 65,-146 65,-184"/>
<text text-anchor="middle" x="32.5" y="-168.8" font-family="Times,serif" font-size="14.00">cxy</text>
<text text-anchor="middle" x="32.5" y="-153.8" font-family="Times,serif" font-size="14.00">&lt;&#45;0.35</text>
</g>
<!-- Root&#45;&gt;Rootcxy
&lt;&#45;0.35 -->
<g id="edge1" class="edge">
<title>Root&#45;&gt;Rootcxy
&lt;&#45;0.35</title>
<path fill="none" stroke="black" d="M584.46,-237.23C506.18,-237.28 272.94,-233.18 74.88,-183.6"/>
<polygon fill="black" stroke="black" points="75.74,-180.21 65.18,-181.13 74.01,-186.99 75.74,-180.21"/>
</g>
<!-- Rootfxy
&#45;0.005~0.015 -->
<g id="node4" class="node">
<title>Rootfxy
&#45;0.005~0.015</title>
<polygon fill="none" stroke="black" points="197.5,-184 83.5,-184 83.5,-146 197.5,-146 197.5,-184"/>
<text text-anchor="middle" x="140.5" y="-168.8" font-family="Times,serif" font-size="14.00">fxy</text>
<text text-anchor="middle" x="140.5" y="-153.8" font-family="Times,serif" font-size="14.00">&#45;0.005~0.015</text>
</g>
<!-- Root&#45;&gt;Rootfxy
&#45;0.005~0.015 -->
<g id="edge3" class="edge">
<title>Root&#45;&gt;Rootfxy
&#45;0.005~0.015</title>
<path fill="none" stroke="black" d="M584.27,-234.73C520.23,-229.11 354.94,-213.02 207.74,-184.1"/>
<polygon fill="black" stroke="black" points="208.11,-180.61 197.62,-182.09 206.75,-187.48 208.11,-180.61"/>
</g>
<!-- Rootfxy
&#45;0.025~0.015 -->
<g id="node7" class="node">
<title>Rootfxy
&#45;0.025~0.015</title>
<polygon fill="none" stroke="black" points="329.5,-184 215.5,-184 215.5,-146 329.5,-146 329.5,-184"/>
<text text-anchor="middle" x="272.5" y="-168.8" font-family="Times,serif" font-size="14.00">fxy</text>
<text text-anchor="middle" x="272.5" y="-153.8" font-family="Times,serif" font-size="14.00">&#45;0.025~0.015</text>
</g>
<!-- Root&#45;&gt;Rootfxy
&#45;0.025~0.015 -->
<g id="edge6" class="edge">
<title>Root&#45;&gt;Rootfxy
&#45;0.025~0.015</title>
<path fill="none" stroke="black" d="M584.23,-232.4C536.58,-224.21 434.89,-206.08 339.48,-184.15"/>
<polygon fill="black" stroke="black" points="340.2,-180.72 329.67,-181.87 338.62,-187.54 340.2,-180.72"/>
</g>
<!-- Rootfxy
&#45;0.045~&#45;0.005 -->
<g id="node10" class="node">
<title>Rootfxy
&#45;0.045~&#45;0.005</title>
<polygon fill="none" stroke="black" points="467,-184 348,-184 348,-146 467,-146 467,-184"/>
<text text-anchor="middle" x="407.5" y="-168.8" font-family="Times,serif" font-size="14.00">fxy</text>
<text text-anchor="middle" x="407.5" y="-153.8" font-family="Times,serif" font-size="14.00">&#45;0.045~&#45;0.005</text>
</g>
<!-- Root&#45;&gt;Rootfxy
&#45;0.045~&#45;0.005 -->
<g id="edge9" class="edge">
<title>Root&#45;&gt;Rootfxy
&#45;0.045~&#45;0.005</title>
<path fill="none" stroke="black" d="M584.41,-227.57C555.14,-217.38 507.51,-200.81 469.05,-187.42"/>
<polygon fill="black" stroke="black" points="470.08,-184.07 459.48,-184.09 467.78,-190.68 470.08,-184.07"/>
</g>
<!-- Rootfxy
&#45;0.045~&#45;0.025 -->
<g id="node13" class="node">
<title>Rootfxy
&#45;0.045~&#45;0.025</title>
<polygon fill="none" stroke="black" points="604,-184 485,-184 485,-146 604,-146 604,-184"/>
<text text-anchor="middle" x="544.5" y="-168.8" font-family="Times,serif" font-size="14.00">fxy</text>
<text text-anchor="middle" x="544.5" y="-153.8" font-family="Times,serif" font-size="14.00">&#45;0.045~&#45;0.025</text>
</g>
<!-- Root&#45;&gt;Rootfxy
&#45;0.045~&#45;0.025 -->
<g id="edge12" class="edge">
<title>Root&#45;&gt;Rootfxy
&#45;0.045~&#45;0.025</title>
<path fill="none" stroke="black" d="M595.28,-219.81C587.21,-211.26 577.3,-200.76 568.39,-191.31"/>
<polygon fill="black" stroke="black" points="570.91,-188.89 561.5,-184.02 565.82,-193.69 570.91,-188.89"/>
</g>
<!-- Rootfxy
&#45;0.045~0.015 -->
<g id="node16" class="node">
<title>Rootfxy
&#45;0.045~0.015</title>
<polygon fill="none" stroke="black" points="736.5,-184 622.5,-184 622.5,-146 736.5,-146 736.5,-184"/>
<text text-anchor="middle" x="679.5" y="-168.8" font-family="Times,serif" font-size="14.00">fxy</text>
<text text-anchor="middle" x="679.5" y="-153.8" font-family="Times,serif" font-size="14.00">&#45;0.045~0.015</text>
</g>
<!-- Root&#45;&gt;Rootfxy
&#45;0.045~0.015 -->
<g id="edge15" class="edge">
<title>Root&#45;&gt;Rootfxy
&#45;0.045~0.015</title>
<path fill="none" stroke="black" d="M627.96,-219.81C636.15,-211.26 646.21,-200.76 655.26,-191.31"/>
<polygon fill="black" stroke="black" points="657.85,-193.66 662.24,-184.02 652.8,-188.82 657.85,-193.66"/>
</g>
<!-- Rootfxy
0.015~0.025 -->
<g id="node19" class="node">
<title>Rootfxy
0.015~0.025</title>
<polygon fill="none" stroke="black" points="864.5,-184 754.5,-184 754.5,-146 864.5,-146 864.5,-184"/>
<text text-anchor="middle" x="809.5" y="-168.8" font-family="Times,serif" font-size="14.00">fxy</text>
<text text-anchor="middle" x="809.5" y="-153.8" font-family="Times,serif" font-size="14.00">0.015~0.025</text>
</g>
<!-- Root&#45;&gt;Rootfxy
0.015~0.025 -->
<g id="edge18" class="edge">
<title>Root&#45;&gt;Rootfxy
0.015~0.025</title>
<path fill="none" stroke="black" d="M638.62,-227.28C667.01,-217.1 712.51,-200.78 749.42,-187.54"/>
<polygon fill="black" stroke="black" points="750.86,-190.75 759.09,-184.08 748.5,-184.16 750.86,-190.75"/>
</g>
<!-- Rootfxy
&lt;&#45;0.045 -->
<g id="node24" class="node">
<title>Rootfxy
&lt;&#45;0.045</title>
<polygon fill="none" stroke="black" points="958.5,-184 884.5,-184 884.5,-146 958.5,-146 958.5,-184"/>
<text text-anchor="middle" x="921.5" y="-168.8" font-family="Times,serif" font-size="14.00">fxy</text>
<text text-anchor="middle" x="921.5" y="-153.8" font-family="Times,serif" font-size="14.00">&lt;&#45;0.045</text>
</g>
<!-- Root&#45;&gt;Rootfxy
&lt;&#45;0.045 -->
<g id="edge23" class="edge">
<title>Root&#45;&gt;Rootfxy
&lt;&#45;0.045</title>
<path fill="none" stroke="black" d="M638.62,-232.98C686.56,-225.54 789.19,-208.17 873.5,-184 873.95,-183.87 874.4,-183.74 874.85,-183.61"/>
<polygon fill="black" stroke="black" points="876.01,-186.91 884.48,-180.55 873.89,-180.24 876.01,-186.91"/>
</g>
<!-- Rootfxy
&gt;=0.015 -->
<g id="node27" class="node">
<title>Rootfxy
&gt;=0.015</title>
<polygon fill="none" stroke="black" points="1064,-184 983,-184 983,-146 1064,-146 1064,-184"/>
<text text-anchor="middle" x="1023.5" y="-168.8" font-family="Times,serif" font-size="14.00">fxy</text>
<text text-anchor="middle" x="1023.5" y="-153.8" font-family="Times,serif" font-size="14.00">&gt;=0.015</text>
</g>
<!-- Root&#45;&gt;Rootfxy
&gt;=0.015 -->
<g id="edge26" class="edge">
<title>Root&#45;&gt;Rootfxy
&gt;=0.015</title>
<path fill="none" stroke="black" d="M638.58,-234.49C698.46,-228.62 846.41,-212.28 967.5,-184 969.21,-183.6 970.94,-183.17 972.69,-182.73"/>
<polygon fill="black" stroke="black" points="974.02,-185.99 982.73,-179.95 972.16,-179.24 974.02,-185.99"/>
</g>
<!-- Rootfxy
&gt;=0.025 -->
<g id="node30" class="node">
<title>Rootfxy
&gt;=0.025</title>
<polygon fill="none" stroke="black" points="1189,-184 1108,-184 1108,-146 1189,-146 1189,-184"/>
<text text-anchor="middle" x="1148.5" y="-168.8" font-family="Times,serif" font-size="14.00">fxy</text>
<text text-anchor="middle" x="1148.5" y="-153.8" font-family="Times,serif" font-size="14.00">&gt;=0.025</text>
</g>
<!-- Root&#45;&gt;Rootfxy
&gt;=0.025 -->
<g id="edge29" class="edge">
<title>Root&#45;&gt;Rootfxy
&gt;=0.025</title>
<path fill="none" stroke="black" d="M638.68,-235C710.14,-229.51 909.03,-212.65 1072.5,-184 1080.76,-182.55 1089.46,-180.76 1097.9,-178.86"/>
<polygon fill="black" stroke="black" points="1098.71,-182.27 1107.66,-176.61 1097.13,-175.45 1098.71,-182.27"/>
</g>
<!-- 3bdcb274e48b914f8c533179ae6bfe6fd68a1eb53d248a6174d29bbcd82260a4 -->
<g id="node3" class="node">
<title>3bdcb274e48b914f8c533179ae6bfe6fd68a1eb53d248a6174d29bbcd82260a4</title>
<polygon fill="none" stroke="black" points="59.5,-109 5.5,-109 5.5,-73 59.5,-73 59.5,-109"/>
<text text-anchor="middle" x="32.5" y="-87.3" font-family="Times,serif" font-size="14.00">拒绝</text>
</g>
<!-- Rootcxy
&lt;&#45;0.35&#45;&gt;3bdcb274e48b914f8c533179ae6bfe6fd68a1eb53d248a6174d29bbcd82260a4 -->
<g id="edge2" class="edge">
<title>Rootcxy
&lt;&#45;0.35&#45;&gt;3bdcb274e48b914f8c533179ae6bfe6fd68a1eb53d248a6174d29bbcd82260a4</title>
<path fill="none" stroke="black" d="M32.5,-145.83C32.5,-137.89 32.5,-128.41 32.5,-119.63"/>
<polygon fill="black" stroke="black" points="36,-119.42 32.5,-109.42 29,-119.42 36,-119.42"/>
</g>
<!-- Rootfxy
&#45;0.005~0.015cxy
&#45;0.35~&#45;0.25 -->
<g id="node5" class="node">
<title>Rootfxy
&#45;0.005~0.015cxy
&#45;0.35~&#45;0.25</title>
<polygon fill="none" stroke="black" points="191,-110 90,-110 90,-72 191,-72 191,-110"/>
<text text-anchor="middle" x="140.5" y="-94.8" font-family="Times,serif" font-size="14.00">cxy</text>
<text text-anchor="middle" x="140.5" y="-79.8" font-family="Times,serif" font-size="14.00">&#45;0.35~&#45;0.25</text>
</g>
<!-- Rootfxy
&#45;0.005~0.015&#45;&gt;Rootfxy
&#45;0.005~0.015cxy
&#45;0.35~&#45;0.25 -->
<g id="edge4" class="edge">
<title>Rootfxy
&#45;0.005~0.015&#45;&gt;Rootfxy
&#45;0.005~0.015cxy
&#45;0.35~&#45;0.25</title>
<path fill="none" stroke="black" d="M140.5,-145.83C140.5,-138.13 140.5,-128.97 140.5,-120.42"/>
<polygon fill="black" stroke="black" points="144,-120.41 140.5,-110.41 137,-120.41 144,-120.41"/>
</g>
<!-- 446d8de9c8d868fdcaf652b80dc9f7f1d19a7df18e60ca0d84922713dcc46d19 -->
<g id="node6" class="node">
<title>446d8de9c8d868fdcaf652b80dc9f7f1d19a7df18e60ca0d84922713dcc46d19</title>
<polygon fill="none" stroke="black" points="167.5,-36 113.5,-36 113.5,0 167.5,0 167.5,-36"/>
<text text-anchor="middle" x="140.5" y="-14.3" font-family="Times,serif" font-size="14.00">拒绝</text>
</g>
<!-- Rootfxy
&#45;0.005~0.015cxy
&#45;0.35~&#45;0.25&#45;&gt;446d8de9c8d868fdcaf652b80dc9f7f1d19a7df18e60ca0d84922713dcc46d19 -->
<g id="edge5" class="edge">
<title>Rootfxy
&#45;0.005~0.015cxy
&#45;0.35~&#45;0.25&#45;&gt;446d8de9c8d868fdcaf652b80dc9f7f1d19a7df18e60ca0d84922713dcc46d19</title>
<path fill="none" stroke="black" d="M140.5,-71.72C140.5,-63.97 140.5,-54.79 140.5,-46.27"/>
<polygon fill="black" stroke="black" points="144,-46 140.5,-36 137,-46 144,-46"/>
</g>
<!-- Rootfxy
&#45;0.025~0.015cxy
&#45;0.25~0.15 -->
<g id="node8" class="node">
<title>Rootfxy
&#45;0.025~0.015cxy
&#45;0.25~0.15</title>
<polygon fill="none" stroke="black" points="320.5,-110 224.5,-110 224.5,-72 320.5,-72 320.5,-110"/>
<text text-anchor="middle" x="272.5" y="-94.8" font-family="Times,serif" font-size="14.00">cxy</text>
<text text-anchor="middle" x="272.5" y="-79.8" font-family="Times,serif" font-size="14.00">&#45;0.25~0.15</text>
</g>
<!-- Rootfxy
&#45;0.025~0.015&#45;&gt;Rootfxy
&#45;0.025~0.015cxy
&#45;0.25~0.15 -->
<g id="edge7" class="edge">
<title>Rootfxy
&#45;0.025~0.015&#45;&gt;Rootfxy
&#45;0.025~0.015cxy
&#45;0.25~0.15</title>
<path fill="none" stroke="black" d="M272.5,-145.83C272.5,-138.13 272.5,-128.97 272.5,-120.42"/>
<polygon fill="black" stroke="black" points="276,-120.41 272.5,-110.41 269,-120.41 276,-120.41"/>
</g>
<!-- 33dc806174baaf9e016b47db29ae68c86a5b90e2ff79db6abbac72028245e0d5 -->
<g id="node9" class="node">
<title>33dc806174baaf9e016b47db29ae68c86a5b90e2ff79db6abbac72028245e0d5</title>
<polygon fill="none" stroke="black" points="299.5,-36 245.5,-36 245.5,0 299.5,0 299.5,-36"/>
<text text-anchor="middle" x="272.5" y="-14.3" font-family="Times,serif" font-size="14.00">接受</text>
</g>
<!-- Rootfxy
&#45;0.025~0.015cxy
&#45;0.25~0.15&#45;&gt;33dc806174baaf9e016b47db29ae68c86a5b90e2ff79db6abbac72028245e0d5 -->
<g id="edge8" class="edge">
<title>Rootfxy
&#45;0.025~0.015cxy
&#45;0.25~0.15&#45;&gt;33dc806174baaf9e016b47db29ae68c86a5b90e2ff79db6abbac72028245e0d5</title>
<path fill="none" stroke="black" d="M272.5,-71.72C272.5,-63.97 272.5,-54.79 272.5,-46.27"/>
<polygon fill="black" stroke="black" points="276,-46 272.5,-36 269,-46 276,-46"/>
</g>
<!-- Rootfxy
&#45;0.045~&#45;0.005cxy
&#45;0.35~&#45;0.25 -->
<g id="node11" class="node">
<title>Rootfxy
&#45;0.045~&#45;0.005cxy
&#45;0.35~&#45;0.25</title>
<polygon fill="none" stroke="black" points="457,-110 356,-110 356,-72 457,-72 457,-110"/>
<text text-anchor="middle" x="406.5" y="-94.8" font-family="Times,serif" font-size="14.00">cxy</text>
<text text-anchor="middle" x="406.5" y="-79.8" font-family="Times,serif" font-size="14.00">&#45;0.35~&#45;0.25</text>
</g>
<!-- Rootfxy
&#45;0.045~&#45;0.005&#45;&gt;Rootfxy
&#45;0.045~&#45;0.005cxy
&#45;0.35~&#45;0.25 -->
<g id="edge10" class="edge">
<title>Rootfxy
&#45;0.045~&#45;0.005&#45;&gt;Rootfxy
&#45;0.045~&#45;0.005cxy
&#45;0.35~&#45;0.25</title>
<path fill="none" stroke="black" d="M407.25,-145.83C407.14,-138.13 407.01,-128.97 406.89,-120.42"/>
<polygon fill="black" stroke="black" points="410.39,-120.36 406.76,-110.41 403.4,-120.46 410.39,-120.36"/>
</g>
<!-- 135ccf8ba78906fad7b8b1a659c9b9b4a7c604e1622591b8011f58222253dc03 -->
<g id="node12" class="node">
<title>135ccf8ba78906fad7b8b1a659c9b9b4a7c604e1622591b8011f58222253dc03</title>
<polygon fill="none" stroke="black" points="433.5,-36 379.5,-36 379.5,0 433.5,0 433.5,-36"/>
<text text-anchor="middle" x="406.5" y="-14.3" font-family="Times,serif" font-size="14.00">接受</text>
</g>
<!-- Rootfxy
&#45;0.045~&#45;0.005cxy
&#45;0.35~&#45;0.25&#45;&gt;135ccf8ba78906fad7b8b1a659c9b9b4a7c604e1622591b8011f58222253dc03 -->
<g id="edge11" class="edge">
<title>Rootfxy
&#45;0.045~&#45;0.005cxy
&#45;0.35~&#45;0.25&#45;&gt;135ccf8ba78906fad7b8b1a659c9b9b4a7c604e1622591b8011f58222253dc03</title>
<path fill="none" stroke="black" d="M406.5,-71.72C406.5,-63.97 406.5,-54.79 406.5,-46.27"/>
<polygon fill="black" stroke="black" points="410,-46 406.5,-36 403,-46 410,-46"/>
</g>
<!-- Rootfxy
&#45;0.045~&#45;0.025cxy
&#45;0.25~0.15 -->
<g id="node14" class="node">
<title>Rootfxy
&#45;0.045~&#45;0.025cxy
&#45;0.25~0.15</title>
<polygon fill="none" stroke="black" points="571.5,-110 475.5,-110 475.5,-72 571.5,-72 571.5,-110"/>
<text text-anchor="middle" x="523.5" y="-94.8" font-family="Times,serif" font-size="14.00">cxy</text>
<text text-anchor="middle" x="523.5" y="-79.8" font-family="Times,serif" font-size="14.00">&#45;0.25~0.15</text>
</g>
<!-- Rootfxy
&#45;0.045~&#45;0.025&#45;&gt;Rootfxy
&#45;0.045~&#45;0.025cxy
&#45;0.25~0.15 -->
<g id="edge13" class="edge">
<title>Rootfxy
&#45;0.045~&#45;0.025&#45;&gt;Rootfxy
&#45;0.045~&#45;0.025cxy
&#45;0.25~0.15</title>
<path fill="none" stroke="black" d="M539.2,-145.83C536.93,-138.05 534.23,-128.77 531.71,-120.13"/>
<polygon fill="black" stroke="black" points="535.03,-119.03 528.87,-110.41 528.31,-120.99 535.03,-119.03"/>
</g>
<!-- 29a8542634c071adcd23a6bc80f24198b8ce89f4a06c9b94b7557fc041edb954 -->
<g id="node15" class="node">
<title>29a8542634c071adcd23a6bc80f24198b8ce89f4a06c9b94b7557fc041edb954</title>
<polygon fill="none" stroke="black" points="550.5,-36 496.5,-36 496.5,0 550.5,0 550.5,-36"/>
<text text-anchor="middle" x="523.5" y="-14.3" font-family="Times,serif" font-size="14.00">拒绝</text>
</g>
<!-- Rootfxy
&#45;0.045~&#45;0.025cxy
&#45;0.25~0.15&#45;&gt;29a8542634c071adcd23a6bc80f24198b8ce89f4a06c9b94b7557fc041edb954 -->
<g id="edge14" class="edge">
<title>Rootfxy
&#45;0.045~&#45;0.025cxy
&#45;0.25~0.15&#45;&gt;29a8542634c071adcd23a6bc80f24198b8ce89f4a06c9b94b7557fc041edb954</title>
<path fill="none" stroke="black" d="M523.5,-71.72C523.5,-63.97 523.5,-54.79 523.5,-46.27"/>
<polygon fill="black" stroke="black" points="527,-46 523.5,-36 520,-46 527,-46"/>
</g>
<!-- Rootfxy
&#45;0.045~0.015cxy
&gt;=0.15 -->
<g id="node17" class="node">
<title>Rootfxy
&#45;0.045~0.015cxy
&gt;=0.15</title>
<polygon fill="none" stroke="black" points="661.5,-110 589.5,-110 589.5,-72 661.5,-72 661.5,-110"/>
<text text-anchor="middle" x="625.5" y="-94.8" font-family="Times,serif" font-size="14.00">cxy</text>
<text text-anchor="middle" x="625.5" y="-79.8" font-family="Times,serif" font-size="14.00">&gt;=0.15</text>
</g>
<!-- Rootfxy
&#45;0.045~0.015&#45;&gt;Rootfxy
&#45;0.045~0.015cxy
&gt;=0.15 -->
<g id="edge16" class="edge">
<title>Rootfxy
&#45;0.045~0.015&#45;&gt;Rootfxy
&#45;0.045~0.015cxy
&gt;=0.15</title>
<path fill="none" stroke="black" d="M665.87,-145.83C659.65,-137.54 652.17,-127.56 645.34,-118.45"/>
<polygon fill="black" stroke="black" points="648.11,-116.31 639.31,-110.41 642.51,-120.51 648.11,-116.31"/>
</g>
<!-- 7e0d0b5d524a47372ad41565abf4046c13543892603ac194ddcaafb95efb46d6 -->
<g id="node18" class="node">
<title>7e0d0b5d524a47372ad41565abf4046c13543892603ac194ddcaafb95efb46d6</title>
<polygon fill="none" stroke="black" points="652.5,-36 598.5,-36 598.5,0 652.5,0 652.5,-36"/>
<text text-anchor="middle" x="625.5" y="-14.3" font-family="Times,serif" font-size="14.00">拒绝</text>
</g>
<!-- Rootfxy
&#45;0.045~0.015cxy
&gt;=0.15&#45;&gt;7e0d0b5d524a47372ad41565abf4046c13543892603ac194ddcaafb95efb46d6 -->
<g id="edge17" class="edge">
<title>Rootfxy
&#45;0.045~0.015cxy
&gt;=0.15&#45;&gt;7e0d0b5d524a47372ad41565abf4046c13543892603ac194ddcaafb95efb46d6</title>
<path fill="none" stroke="black" d="M625.5,-71.72C625.5,-63.97 625.5,-54.79 625.5,-46.27"/>
<polygon fill="black" stroke="black" points="629,-46 625.5,-36 622,-46 629,-46"/>
</g>
<!-- Rootfxy
0.015~0.025cxy
&#45;0.15~0.05 -->
<g id="node20" class="node">
<title>Rootfxy
0.015~0.025cxy
&#45;0.15~0.05</title>
<polygon fill="none" stroke="black" points="775.5,-110 679.5,-110 679.5,-72 775.5,-72 775.5,-110"/>
<text text-anchor="middle" x="727.5" y="-94.8" font-family="Times,serif" font-size="14.00">cxy</text>
<text text-anchor="middle" x="727.5" y="-79.8" font-family="Times,serif" font-size="14.00">&#45;0.15~0.05</text>
</g>
<!-- Rootfxy
0.015~0.025&#45;&gt;Rootfxy
0.015~0.025cxy
&#45;0.15~0.05 -->
<g id="edge19" class="edge">
<title>Rootfxy
0.015~0.025&#45;&gt;Rootfxy
0.015~0.025cxy
&#45;0.15~0.05</title>
<path fill="none" stroke="black" d="M788.81,-145.83C778.81,-137.05 766.64,-126.37 755.8,-116.85"/>
<polygon fill="black" stroke="black" points="758.01,-114.13 748.19,-110.16 753.39,-119.39 758.01,-114.13"/>
</g>
<!-- Rootfxy
0.015~0.025cxy
&gt;=0.05 -->
<g id="node22" class="node">
<title>Rootfxy
0.015~0.025cxy
&gt;=0.05</title>
<polygon fill="none" stroke="black" points="865.5,-110 793.5,-110 793.5,-72 865.5,-72 865.5,-110"/>
<text text-anchor="middle" x="829.5" y="-94.8" font-family="Times,serif" font-size="14.00">cxy</text>
<text text-anchor="middle" x="829.5" y="-79.8" font-family="Times,serif" font-size="14.00">&gt;=0.05</text>
</g>
<!-- Rootfxy
0.015~0.025&#45;&gt;Rootfxy
0.015~0.025cxy
&gt;=0.05 -->
<g id="edge21" class="edge">
<title>Rootfxy
0.015~0.025&#45;&gt;Rootfxy
0.015~0.025cxy
&gt;=0.05</title>
<path fill="none" stroke="black" d="M814.55,-145.83C816.71,-138.05 819.29,-128.77 821.68,-120.13"/>
<polygon fill="black" stroke="black" points="825.08,-120.99 824.39,-110.41 818.34,-119.11 825.08,-120.99"/>
</g>
<!-- 0ad8e75e397894ed90f4d3de595dcff15e651130db5dc6603470b097b5ed31f1 -->
<g id="node21" class="node">
<title>0ad8e75e397894ed90f4d3de595dcff15e651130db5dc6603470b097b5ed31f1</title>
<polygon fill="none" stroke="black" points="754.5,-36 700.5,-36 700.5,0 754.5,0 754.5,-36"/>
<text text-anchor="middle" x="727.5" y="-14.3" font-family="Times,serif" font-size="14.00">接受</text>
</g>
<!-- Rootfxy
0.015~0.025cxy
&#45;0.15~0.05&#45;&gt;0ad8e75e397894ed90f4d3de595dcff15e651130db5dc6603470b097b5ed31f1 -->
<g id="edge20" class="edge">
<title>Rootfxy
0.015~0.025cxy
&#45;0.15~0.05&#45;&gt;0ad8e75e397894ed90f4d3de595dcff15e651130db5dc6603470b097b5ed31f1</title>
<path fill="none" stroke="black" d="M727.5,-71.72C727.5,-63.97 727.5,-54.79 727.5,-46.27"/>
<polygon fill="black" stroke="black" points="731,-46 727.5,-36 724,-46 731,-46"/>
</g>
<!-- e9d6243f70190aafaa71628efa8928cc29e8b43acfae590365df7d8871b7a495 -->
<g id="node23" class="node">
<title>e9d6243f70190aafaa71628efa8928cc29e8b43acfae590365df7d8871b7a495</title>
<polygon fill="none" stroke="black" points="856.5,-36 802.5,-36 802.5,0 856.5,0 856.5,-36"/>
<text text-anchor="middle" x="829.5" y="-14.3" font-family="Times,serif" font-size="14.00">拒绝</text>
</g>
<!-- Rootfxy
0.015~0.025cxy
&gt;=0.05&#45;&gt;e9d6243f70190aafaa71628efa8928cc29e8b43acfae590365df7d8871b7a495 -->
<g id="edge22" class="edge">
<title>Rootfxy
0.015~0.025cxy
&gt;=0.05&#45;&gt;e9d6243f70190aafaa71628efa8928cc29e8b43acfae590365df7d8871b7a495</title>
<path fill="none" stroke="black" d="M829.5,-71.72C829.5,-63.97 829.5,-54.79 829.5,-46.27"/>
<polygon fill="black" stroke="black" points="833,-46 829.5,-36 826,-46 833,-46"/>
</g>
<!-- Rootfxy
&lt;&#45;0.045cxy
&gt;=&#45;0.35 -->
<g id="node25" class="node">
<title>Rootfxy
&lt;&#45;0.045cxy
&gt;=&#45;0.35</title>
<polygon fill="none" stroke="black" points="961,-110 884,-110 884,-72 961,-72 961,-110"/>
<text text-anchor="middle" x="922.5" y="-94.8" font-family="Times,serif" font-size="14.00">cxy</text>
<text text-anchor="middle" x="922.5" y="-79.8" font-family="Times,serif" font-size="14.00">&gt;=&#45;0.35</text>
</g>
<!-- Rootfxy
&lt;&#45;0.045&#45;&gt;Rootfxy
&lt;&#45;0.045cxy
&gt;=&#45;0.35 -->
<g id="edge24" class="edge">
<title>Rootfxy
&lt;&#45;0.045&#45;&gt;Rootfxy
&lt;&#45;0.045cxy
&gt;=&#45;0.35</title>
<path fill="none" stroke="black" d="M921.75,-145.83C921.86,-138.13 921.99,-128.97 922.11,-120.42"/>
<polygon fill="black" stroke="black" points="925.6,-120.46 922.24,-110.41 918.61,-120.36 925.6,-120.46"/>
</g>
<!-- 6038b9ba37beea0a6b47fc7b462574436274493d4f6ca9f9ed8fe038ed7c4f38 -->
<g id="node26" class="node">
<title>6038b9ba37beea0a6b47fc7b462574436274493d4f6ca9f9ed8fe038ed7c4f38</title>
<polygon fill="none" stroke="black" points="949.5,-36 895.5,-36 895.5,0 949.5,0 949.5,-36"/>
<text text-anchor="middle" x="922.5" y="-14.3" font-family="Times,serif" font-size="14.00">拒绝</text>
</g>
<!-- Rootfxy
&lt;&#45;0.045cxy
&gt;=&#45;0.35&#45;&gt;6038b9ba37beea0a6b47fc7b462574436274493d4f6ca9f9ed8fe038ed7c4f38 -->
<g id="edge25" class="edge">
<title>Rootfxy
&lt;&#45;0.045cxy
&gt;=&#45;0.35&#45;&gt;6038b9ba37beea0a6b47fc7b462574436274493d4f6ca9f9ed8fe038ed7c4f38</title>
<path fill="none" stroke="black" d="M922.5,-71.72C922.5,-63.97 922.5,-54.79 922.5,-46.27"/>
<polygon fill="black" stroke="black" points="926,-46 922.5,-36 919,-46 926,-46"/>
</g>
<!-- Rootfxy
&gt;=0.015cxy
&#45;0.35~&#45;0.15 -->
<g id="node28" class="node">
<title>Rootfxy
&gt;=0.015cxy
&#45;0.35~&#45;0.15</title>
<polygon fill="none" stroke="black" points="1080,-110 979,-110 979,-72 1080,-72 1080,-110"/>
<text text-anchor="middle" x="1029.5" y="-94.8" font-family="Times,serif" font-size="14.00">cxy</text>
<text text-anchor="middle" x="1029.5" y="-79.8" font-family="Times,serif" font-size="14.00">&#45;0.35~&#45;0.15</text>
</g>
<!-- Rootfxy
&gt;=0.015&#45;&gt;Rootfxy
&gt;=0.015cxy
&#45;0.35~&#45;0.15 -->
<g id="edge27" class="edge">
<title>Rootfxy
&gt;=0.015&#45;&gt;Rootfxy
&gt;=0.015cxy
&#45;0.35~&#45;0.15</title>
<path fill="none" stroke="black" d="M1025.01,-145.83C1025.66,-138.13 1026.42,-128.97 1027.13,-120.42"/>
<polygon fill="black" stroke="black" points="1030.62,-120.67 1027.97,-110.41 1023.65,-120.09 1030.62,-120.67"/>
</g>
<!-- fabeb649ea9111b393c464bf43a3f63e89ca015624a7d7d439432b86da31ee18 -->
<g id="node29" class="node">
<title>fabeb649ea9111b393c464bf43a3f63e89ca015624a7d7d439432b86da31ee18</title>
<polygon fill="none" stroke="black" points="1056.5,-36 1002.5,-36 1002.5,0 1056.5,0 1056.5,-36"/>
<text text-anchor="middle" x="1029.5" y="-14.3" font-family="Times,serif" font-size="14.00">拒绝</text>
</g>
<!-- Rootfxy
&gt;=0.015cxy
&#45;0.35~&#45;0.15&#45;&gt;fabeb649ea9111b393c464bf43a3f63e89ca015624a7d7d439432b86da31ee18 -->
<g id="edge28" class="edge">
<title>Rootfxy
&gt;=0.015cxy
&#45;0.35~&#45;0.15&#45;&gt;fabeb649ea9111b393c464bf43a3f63e89ca015624a7d7d439432b86da31ee18</title>
<path fill="none" stroke="black" d="M1029.5,-71.72C1029.5,-63.97 1029.5,-54.79 1029.5,-46.27"/>
<polygon fill="black" stroke="black" points="1033,-46 1029.5,-36 1026,-46 1033,-46"/>
</g>
<!-- Rootfxy
&gt;=0.025cxy
&#45;0.15~&#45;0.05 -->
<g id="node31" class="node">
<title>Rootfxy
&gt;=0.025cxy
&#45;0.15~&#45;0.05</title>
<polygon fill="none" stroke="black" points="1199,-110 1098,-110 1098,-72 1199,-72 1199,-110"/>
<text text-anchor="middle" x="1148.5" y="-94.8" font-family="Times,serif" font-size="14.00">cxy</text>
<text text-anchor="middle" x="1148.5" y="-79.8" font-family="Times,serif" font-size="14.00">&#45;0.15~&#45;0.05</text>
</g>
<!-- Rootfxy
&gt;=0.025&#45;&gt;Rootfxy
&gt;=0.025cxy
&#45;0.15~&#45;0.05 -->
<g id="edge30" class="edge">
<title>Rootfxy
&gt;=0.025&#45;&gt;Rootfxy
&gt;=0.025cxy
&#45;0.15~&#45;0.05</title>
<path fill="none" stroke="black" d="M1148.5,-145.83C1148.5,-138.13 1148.5,-128.97 1148.5,-120.42"/>
<polygon fill="black" stroke="black" points="1152,-120.41 1148.5,-110.41 1145,-120.41 1152,-120.41"/>
</g>
<!-- Rootfxy
&gt;=0.025cxy
&gt;=&#45;0.05 -->
<g id="node33" class="node">
<title>Rootfxy
&gt;=0.025cxy
&gt;=&#45;0.05</title>
<polygon fill="none" stroke="black" points="1294,-110 1217,-110 1217,-72 1294,-72 1294,-110"/>
<text text-anchor="middle" x="1255.5" y="-94.8" font-family="Times,serif" font-size="14.00">cxy</text>
<text text-anchor="middle" x="1255.5" y="-79.8" font-family="Times,serif" font-size="14.00">&gt;=&#45;0.05</text>
</g>
<!-- Rootfxy
&gt;=0.025&#45;&gt;Rootfxy
&gt;=0.025cxy
&gt;=&#45;0.05 -->
<g id="edge32" class="edge">
<title>Rootfxy
&gt;=0.025&#45;&gt;Rootfxy
&gt;=0.025cxy
&gt;=&#45;0.05</title>
<path fill="none" stroke="black" d="M1175.5,-145.83C1188.93,-136.79 1205.35,-125.75 1219.8,-116.02"/>
<polygon fill="black" stroke="black" points="1222.17,-118.65 1228.51,-110.16 1218.26,-112.84 1222.17,-118.65"/>
</g>
<!-- 7a35c8a22a108d0be43ba639d102700b7b8c6131324f9a50c38852529b6fa714 -->
<g id="node32" class="node">
<title>7a35c8a22a108d0be43ba639d102700b7b8c6131324f9a50c38852529b6fa714</title>
<polygon fill="none" stroke="black" points="1175.5,-36 1121.5,-36 1121.5,0 1175.5,0 1175.5,-36"/>
<text text-anchor="middle" x="1148.5" y="-14.3" font-family="Times,serif" font-size="14.00">拒绝</text>
</g>
<!-- Rootfxy
&gt;=0.025cxy
&#45;0.15~&#45;0.05&#45;&gt;7a35c8a22a108d0be43ba639d102700b7b8c6131324f9a50c38852529b6fa714 -->
<g id="edge31" class="edge">
<title>Rootfxy
&gt;=0.025cxy
&#45;0.15~&#45;0.05&#45;&gt;7a35c8a22a108d0be43ba639d102700b7b8c6131324f9a50c38852529b6fa714</title>
<path fill="none" stroke="black" d="M1148.5,-71.72C1148.5,-63.97 1148.5,-54.79 1148.5,-46.27"/>
<polygon fill="black" stroke="black" points="1152,-46 1148.5,-36 1145,-46 1152,-46"/>
</g>
<!-- a67cc112ac1ac073b789b6e259c9f5a70d6dd6de426cae6d7fd2a40a0462d052 -->
<g id="node34" class="node">
<title>a67cc112ac1ac073b789b6e259c9f5a70d6dd6de426cae6d7fd2a40a0462d052</title>
<polygon fill="none" stroke="black" points="1282.5,-36 1228.5,-36 1228.5,0 1282.5,0 1282.5,-36"/>
<text text-anchor="middle" x="1255.5" y="-14.3" font-family="Times,serif" font-size="14.00">拒绝</text>
</g>
<!-- Rootfxy
&gt;=0.025cxy
&gt;=&#45;0.05&#45;&gt;a67cc112ac1ac073b789b6e259c9f5a70d6dd6de426cae6d7fd2a40a0462d052 -->
<g id="edge33" class="edge">
<title>Rootfxy
&gt;=0.025cxy
&gt;=&#45;0.05&#45;&gt;a67cc112ac1ac073b789b6e259c9f5a70d6dd6de426cae6d7fd2a40a0462d052</title>
<path fill="none" stroke="black" d="M1255.5,-71.72C1255.5,-63.97 1255.5,-54.79 1255.5,-46.27"/>
<polygon fill="black" stroke="black" points="1259,-46 1255.5,-36 1252,-46 1259,-46"/>
</g>
</g>
</svg>
