<?xml version="1.0" standalone="yes"?>
<!-- SVG graphic -->
<svg xmlns='http://www.w3.org/2000/svg' xmlns:xlink='http://www.w3.org/1999/xlink'
 version="1.1">
<rect x="0" y="0" width="6" height="200" stroke="black" stroke-width="1" fill="blue" opacity="1" tooltip="enable"><title>(0,2148)</title></rect><rect x="6" y="77.3743" width="6" height="122.626" stroke="black" stroke-width="1" fill="blue" opacity="1" tooltip="enable"><title>(0.00128658,1317)</title></rect><rect x="12" y="136.778" width="6" height="63.2216" stroke="black" stroke-width="1" fill="blue" opacity="1" tooltip="enable"><title>(0.00257317,679)</title></rect><rect x="18" y="160.242" width="6" height="39.7579" stroke="black" stroke-width="1" fill="blue" opacity="1" tooltip="enable"><title>(0.00385975,427)</title></rect><rect x="24" y="180.912" width="6" height="19.0875" stroke="black" stroke-width="1" fill="blue" opacity="1" tooltip="enable"><title>(0.00514633,205)</title></rect><rect x="30" y="181.192" width="6" height="18.8082" stroke="black" stroke-width="1" fill="blue" opacity="1" tooltip="enable"><title>(0.00643291,202)</title></rect><rect x="36" y="179.888" width="6" height="20.1117" stroke="black" stroke-width="1" fill="blue" opacity="1" tooltip="enable"><title>(0.0077195,216)</title></rect><rect x="42" y="181.75" width="6" height="18.2495" stroke="black" stroke-width="1" fill="blue" opacity="1" tooltip="enable"><title>(0.00900608,196)</title></rect><rect x="48" y="184.264" width="6" height="15.7356" stroke="black" stroke-width="1" fill="blue" opacity="1" tooltip="enable"><title>(0.0102927,169)</title></rect><rect x="54" y="185.94" width="6" height="14.0596" stroke="black" stroke-width="1" fill="blue" opacity="1" tooltip="enable"><title>(0.0115792,151)</title></rect><rect x="60" y="185.568" width="6" height="14.432" stroke="black" stroke-width="1" fill="blue" opacity="1" tooltip="enable"><title>(0.0128658,155)</title></rect><rect x="66" y="184.916" width="6" height="15.0838" stroke="black" stroke-width="1" fill="blue" opacity="1" tooltip="enable"><title>(0.0141524,162)</title></rect><rect x="72" y="187.896" width="6" height="12.1043" stroke="black" stroke-width="1" fill="blue" opacity="1" tooltip="enable"><title>(0.015439,130)</title></rect><rect x="78" y="186.499" width="6" height="13.5009" stroke="black" stroke-width="1" fill="blue" opacity="1" tooltip="enable"><title>(0.0167256,145)</title></rect><rect x="84" y="188.827" width="6" height="11.1732" stroke="black" stroke-width="1" fill="blue" opacity="1" tooltip="enable"><title>(0.0180122,120)</title></rect><rect x="90" y="190.689" width="6" height="9.31099" stroke="black" stroke-width="1" fill="blue" opacity="1" tooltip="enable"><title>(0.0192987,100)</title></rect><rect x="96" y="191.527" width="6" height="8.473" stroke="black" stroke-width="1" fill="blue" opacity="1" tooltip="enable"><title>(0.0205853,91)</title></rect><rect x="102" y="188.827" width="6" height="11.1732" stroke="black" stroke-width="1" fill="blue" opacity="1" tooltip="enable"><title>(0.0218719,120)</title></rect><rect x="108" y="189.572" width="6" height="10.4283" stroke="black" stroke-width="1" fill="blue" opacity="1" tooltip="enable"><title>(0.0231585,112)</title></rect><rect x="114" y="191.061" width="6" height="8.93855" stroke="black" stroke-width="1" fill="blue" opacity="1" tooltip="enable"><title>(0.0244451,96)</title></rect><rect x="120" y="191.899" width="6" height="8.10056" stroke="black" stroke-width="1" fill="blue" opacity="1" tooltip="enable"><title>(0.0257317,87)</title></rect><rect x="126" y="192.737" width="6" height="7.26257" stroke="black" stroke-width="1" fill="blue" opacity="1" tooltip="enable"><title>(0.0270182,78)</title></rect><rect x="132" y="195.531" width="6" height="4.46927" stroke="black" stroke-width="1" fill="blue" opacity="1" tooltip="enable"><title>(0.0283048,48)</title></rect><rect x="138" y="195.717" width="6" height="4.28305" stroke="black" stroke-width="1" fill="blue" opacity="1" tooltip="enable"><title>(0.0295914,46)</title></rect><rect x="144" y="193.482" width="6" height="6.51769" stroke="black" stroke-width="1" fill="blue" opacity="1" tooltip="enable"><title>(0.030878,70)</title></rect><rect x="150" y="195.345" width="6" height="4.65549" stroke="black" stroke-width="1" fill="blue" opacity="1" tooltip="enable"><title>(0.0321646,50)</title></rect><rect x="156" y="196.834" width="6" height="3.16574" stroke="black" stroke-width="1" fill="blue" opacity="1" tooltip="enable"><title>(0.0334512,34)</title></rect><rect x="162" y="195.345" width="6" height="4.65549" stroke="black" stroke-width="1" fill="blue" opacity="1" tooltip="enable"><title>(0.0347377,50)</title></rect><rect x="168" y="195.903" width="6" height="4.09683" stroke="black" stroke-width="1" fill="blue" opacity="1" tooltip="enable"><title>(0.0360243,44)</title></rect><rect x="174" y="195.717" width="6" height="4.28305" stroke="black" stroke-width="1" fill="blue" opacity="1" tooltip="enable"><title>(0.0373109,46)</title></rect><rect x="180" y="195.903" width="6" height="4.09683" stroke="black" stroke-width="1" fill="blue" opacity="1" tooltip="enable"><title>(0.0385975,44)</title></rect><rect x="186" y="196.182" width="6" height="3.8175" stroke="black" stroke-width="1" fill="blue" opacity="1" tooltip="enable"><title>(0.0398841,41)</title></rect><rect x="192" y="196.648" width="6" height="3.35196" stroke="black" stroke-width="1" fill="blue" opacity="1" tooltip="enable"><title>(0.0411707,36)</title></rect><rect x="198" y="197.114" width="6" height="2.88641" stroke="black" stroke-width="1" fill="blue" opacity="1" tooltip="enable"><title>(0.0424572,31)</title></rect><rect x="204" y="196.834" width="6" height="3.16574" stroke="black" stroke-width="1" fill="blue" opacity="1" tooltip="enable"><title>(0.0437438,34)</title></rect><rect x="210" y="197.02" width="6" height="2.97952" stroke="black" stroke-width="1" fill="blue" opacity="1" tooltip="enable"><title>(0.0450304,32)</title></rect><rect x="216" y="197.393" width="6" height="2.60708" stroke="black" stroke-width="1" fill="blue" opacity="1" tooltip="enable"><title>(0.046317,28)</title></rect><rect x="222" y="196.462" width="6" height="3.53818" stroke="black" stroke-width="1" fill="blue" opacity="1" tooltip="enable"><title>(0.0476036,38)</title></rect><rect x="228" y="198.51" width="6" height="1.48976" stroke="black" stroke-width="1" fill="blue" opacity="1" tooltip="enable"><title>(0.0488902,16)</title></rect><rect x="234" y="197.207" width="6" height="2.7933" stroke="black" stroke-width="1" fill="blue" opacity="1" tooltip="enable"><title>(0.0501767,30)</title></rect><rect x="240" y="197.952" width="6" height="2.04842" stroke="black" stroke-width="1" fill="blue" opacity="1" tooltip="enable"><title>(0.0514633,22)</title></rect><rect x="246" y="197.952" width="6" height="2.04842" stroke="black" stroke-width="1" fill="blue" opacity="1" tooltip="enable"><title>(0.0527499,22)</title></rect><rect x="252" y="198.883" width="6" height="1.11732" stroke="black" stroke-width="1" fill="blue" opacity="1" tooltip="enable"><title>(0.0540365,12)</title></rect><rect x="258" y="198.883" width="6" height="1.11732" stroke="black" stroke-width="1" fill="blue" opacity="1" tooltip="enable"><title>(0.0553231,12)</title></rect><rect x="264" y="199.069" width="6" height="0.931099" stroke="black" stroke-width="1" fill="blue" opacity="1" tooltip="enable"><title>(0.0566096,10)</title></rect><rect x="270" y="199.441" width="6" height="0.558659" stroke="black" stroke-width="1" fill="blue" opacity="1" tooltip="enable"><title>(0.0578962,6)</title></rect><rect x="276" y="199.814" width="6" height="0.18622" stroke="black" stroke-width="1" fill="blue" opacity="1" tooltip="enable"><title>(0.0591828,2)</title></rect><rect x="282" y="200" width="6" height="0" stroke="black" stroke-width="1" fill="blue" opacity="1" tooltip="enable"><title>(0.0604694,0)</title></rect><rect x="288" y="200" width="6" height="0" stroke="black" stroke-width="1" fill="blue" opacity="1" tooltip="enable"><title>(0.061756,0)</title></rect><rect x="294" y="200" width="6" height="0" stroke="black" stroke-width="1" fill="blue" opacity="1" tooltip="enable"><title>(0.0630426,0)</title></rect><rect x="300" y="199.814" width="6" height="0.18622" stroke="black" stroke-width="1" fill="blue" opacity="1" tooltip="enable"><title>(0.0643291,2)</title></rect><rect x="306" y="199.814" width="6" height="0.18622" stroke="black" stroke-width="1" fill="blue" opacity="1" tooltip="enable"><title>(0.0656157,2)</title></rect><rect x="312" y="199.628" width="6" height="0.372439" stroke="black" stroke-width="1" fill="blue" opacity="1" tooltip="enable"><title>(0.0669023,4)</title></rect><rect x="318" y="199.441" width="6" height="0.558659" stroke="black" stroke-width="1" fill="blue" opacity="1" tooltip="enable"><title>(0.0681889,6)</title></rect><rect x="324" y="200" width="6" height="0" stroke="black" stroke-width="1" fill="blue" opacity="1" tooltip="enable"><title>(0.0694755,0)</title></rect><rect x="330" y="199.255" width="6" height="0.744879" stroke="black" stroke-width="1" fill="blue" opacity="1" tooltip="enable"><title>(0.0707621,8)</title></rect><rect x="336" y="199.628" width="6" height="0.372439" stroke="black" stroke-width="1" fill="blue" opacity="1" tooltip="enable"><title>(0.0720486,4)</title></rect><rect x="342" y="199.814" width="6" height="0.18622" stroke="black" stroke-width="1" fill="blue" opacity="1" tooltip="enable"><title>(0.0733352,2)</title></rect><rect x="348" y="199.628" width="6" height="0.372439" stroke="black" stroke-width="1" fill="blue" opacity="1" tooltip="enable"><title>(0.0746218,4)</title></rect><rect x="354" y="199.814" width="6" height="0.18622" stroke="black" stroke-width="1" fill="blue" opacity="1" tooltip="enable"><title>(0.0759084,2)</title></rect><rect x="360" y="199.628" width="6" height="0.372439" stroke="black" stroke-width="1" fill="blue" opacity="1" tooltip="enable"><title>(0.077195,4)</title></rect><rect x="366" y="200" width="6" height="0" stroke="black" stroke-width="1" fill="blue" opacity="1" tooltip="enable"><title>(0.0784816,0)</title></rect><rect x="372" y="199.814" width="6" height="0.18622" stroke="black" stroke-width="1" fill="blue" opacity="1" tooltip="enable"><title>(0.0797681,2)</title></rect><rect x="378" y="199.814" width="6" height="0.18622" stroke="black" stroke-width="1" fill="blue" opacity="1" tooltip="enable"><title>(0.0810547,2)</title></rect><rect x="384" y="199.721" width="6" height="0.27933" stroke="black" stroke-width="1" fill="blue" opacity="1" tooltip="enable"><title>(0.0823413,3)</title></rect><rect x="390" y="199.721" width="6" height="0.27933" stroke="black" stroke-width="1" fill="blue" opacity="1" tooltip="enable"><title>(0.0836279,3)</title></rect><rect x="396" y="199.814" width="6" height="0.18622" stroke="black" stroke-width="1" fill="blue" opacity="1" tooltip="enable"><title>(0.0849145,2)</title></rect><rect x="402" y="199.069" width="6" height="0.931099" stroke="black" stroke-width="1" fill="blue" opacity="1" tooltip="enable"><title>(0.0862011,10)</title></rect><rect x="408" y="199.814" width="6" height="0.18622" stroke="black" stroke-width="1" fill="blue" opacity="1" tooltip="enable"><title>(0.0874876,2)</title></rect><rect x="414" y="200" width="6" height="0" stroke="black" stroke-width="1" fill="blue" opacity="1" tooltip="enable"><title>(0.0887742,0)</title></rect><rect x="420" y="199.628" width="6" height="0.372439" stroke="black" stroke-width="1" fill="blue" opacity="1" tooltip="enable"><title>(0.0900608,4)</title></rect><rect x="426" y="199.628" width="6" height="0.372439" stroke="black" stroke-width="1" fill="blue" opacity="1" tooltip="enable"><title>(0.0913474,4)</title></rect><rect x="432" y="200" width="6" height="0" stroke="black" stroke-width="1" fill="blue" opacity="1" tooltip="enable"><title>(0.092634,0)</title></rect><rect x="438" y="199.814" width="6" height="0.18622" stroke="black" stroke-width="1" fill="blue" opacity="1" tooltip="enable"><title>(0.0939206,2)</title></rect><rect x="444" y="200" width="6" height="0" stroke="black" stroke-width="1" fill="blue" opacity="1" tooltip="enable"><title>(0.0952071,0)</title></rect><rect x="450" y="199.628" width="6" height="0.372439" stroke="black" stroke-width="1" fill="blue" opacity="1" tooltip="enable"><title>(0.0964937,4)</title></rect><rect x="456" y="200" width="6" height="0" stroke="black" stroke-width="1" fill="blue" opacity="1" tooltip="enable"><title>(0.0977803,0)</title></rect><rect x="462" y="200" width="6" height="0" stroke="black" stroke-width="1" fill="blue" opacity="1" tooltip="enable"><title>(0.0990669,0)</title></rect><rect x="468" y="199.814" width="6" height="0.18622" stroke="black" stroke-width="1" fill="blue" opacity="1" tooltip="enable"><title>(0.100353,2)</title></rect><rect x="474" y="199.814" width="6" height="0.18622" stroke="black" stroke-width="1" fill="blue" opacity="1" tooltip="enable"><title>(0.10164,2)</title></rect><rect x="480" y="200" width="6" height="0" stroke="black" stroke-width="1" fill="blue" opacity="1" tooltip="enable"><title>(0.102927,0)</title></rect><rect x="486" y="200" width="6" height="0" stroke="black" stroke-width="1" fill="blue" opacity="1" tooltip="enable"><title>(0.104213,0)</title></rect><rect x="492" y="199.721" width="6" height="0.27933" stroke="black" stroke-width="1" fill="blue" opacity="1" tooltip="enable"><title>(0.1055,3)</title></rect><rect x="498" y="199.907" width="6" height="0.0931099" stroke="black" stroke-width="1" fill="blue" opacity="1" tooltip="enable"><title>(0.106786,1)</title></rect><rect x="504" y="200" width="6" height="0" stroke="black" stroke-width="1" fill="blue" opacity="1" tooltip="enable"><title>(0.108073,0)</title></rect><rect x="510" y="200" width="6" height="0" stroke="black" stroke-width="1" fill="blue" opacity="1" tooltip="enable"><title>(0.10936,0)</title></rect><rect x="516" y="200" width="6" height="0" stroke="black" stroke-width="1" fill="blue" opacity="1" tooltip="enable"><title>(0.110646,0)</title></rect><rect x="522" y="200" width="6" height="0" stroke="black" stroke-width="1" fill="blue" opacity="1" tooltip="enable"><title>(0.111933,0)</title></rect><rect x="528" y="199.814" width="6" height="0.18622" stroke="black" stroke-width="1" fill="blue" opacity="1" tooltip="enable"><title>(0.113219,2)</title></rect><rect x="534" y="200" width="6" height="0" stroke="black" stroke-width="1" fill="blue" opacity="1" tooltip="enable"><title>(0.114506,0)</title></rect><rect x="540" y="200" width="6" height="0" stroke="black" stroke-width="1" fill="blue" opacity="1" tooltip="enable"><title>(0.115792,0)</title></rect><rect x="546" y="200" width="6" height="0" stroke="black" stroke-width="1" fill="blue" opacity="1" tooltip="enable"><title>(0.117079,0)</title></rect><rect x="552" y="200" width="6" height="0" stroke="black" stroke-width="1" fill="blue" opacity="1" tooltip="enable"><title>(0.118366,0)</title></rect><rect x="558" y="200" width="6" height="0" stroke="black" stroke-width="1" fill="blue" opacity="1" tooltip="enable"><title>(0.119652,0)</title></rect><rect x="564" y="200" width="6" height="0" stroke="black" stroke-width="1" fill="blue" opacity="1" tooltip="enable"><title>(0.120939,0)</title></rect><rect x="570" y="200" width="6" height="0" stroke="black" stroke-width="1" fill="blue" opacity="1" tooltip="enable"><title>(0.122225,0)</title></rect><rect x="576" y="200" width="6" height="0" stroke="black" stroke-width="1" fill="blue" opacity="1" tooltip="enable"><title>(0.123512,0)</title></rect><rect x="582" y="200" width="6" height="0" stroke="black" stroke-width="1" fill="blue" opacity="1" tooltip="enable"><title>(0.124799,0)</title></rect><rect x="588" y="199.814" width="6" height="0.18622" stroke="black" stroke-width="1" fill="blue" opacity="1" tooltip="enable"><title>(0.126085,2)</title></rect><rect x="594" y="199.907" width="6" height="0.0931099" stroke="black" stroke-width="1" fill="blue" opacity="1" tooltip="enable"><title>(0.127372,1)</title></rect><text x="30" y="240" font-size="20" fill="black">0</text>
<text x="600" y="240" font-size="20" fill="black">0.128658</text>
<polyline points="0,220,600,220" stroke="black" stroke-width="1" fill="none" opacity="1"/>
<text x="720" y="20" font-size="20" fill="black">2148</text>
<text x="720" y="200" font-size="20" fill="black">0</text>
<polyline points="660,0,660,200" stroke="black" stroke-width="1" fill="none" opacity="1"/>
</svg>