<?xml version="1.0" standalone="yes"?>
<!-- SVG graphic -->
<svg xmlns='http://www.w3.org/2000/svg' xmlns:xlink='http://www.w3.org/1999/xlink'
 version="1.1">
<rect x="0" y="0" width="6" height="200" stroke="black" stroke-width="1" fill="blue" opacity="1" tooltip="enable"><title>(0,3837)</title></rect><rect x="6" y="168.726" width="6" height="31.2744" stroke="black" stroke-width="1" fill="blue" opacity="1" tooltip="enable"><title>(0.00188552,600)</title></rect><rect x="12" y="187.751" width="6" height="12.2492" stroke="black" stroke-width="1" fill="blue" opacity="1" tooltip="enable"><title>(0.00377104,235)</title></rect><rect x="18" y="191.712" width="6" height="8.28773" stroke="black" stroke-width="1" fill="blue" opacity="1" tooltip="enable"><title>(0.00565656,159)</title></rect><rect x="24" y="188.741" width="6" height="11.2588" stroke="black" stroke-width="1" fill="blue" opacity="1" tooltip="enable"><title>(0.00754207,216)</title></rect><rect x="30" y="189.315" width="6" height="10.6854" stroke="black" stroke-width="1" fill="blue" opacity="1" tooltip="enable"><title>(0.00942759,205)</title></rect><rect x="36" y="192.286" width="6" height="7.71436" stroke="black" stroke-width="1" fill="blue" opacity="1" tooltip="enable"><title>(0.0113131,148)</title></rect><rect x="42" y="192.911" width="6" height="7.08887" stroke="black" stroke-width="1" fill="blue" opacity="1" tooltip="enable"><title>(0.0131986,136)</title></rect><rect x="48" y="190.513" width="6" height="9.48658" stroke="black" stroke-width="1" fill="blue" opacity="1" tooltip="enable"><title>(0.0150841,182)</title></rect><rect x="54" y="192.859" width="6" height="7.141" stroke="black" stroke-width="1" fill="blue" opacity="1" tooltip="enable"><title>(0.0169697,137)</title></rect><rect x="60" y="192.181" width="6" height="7.81861" stroke="black" stroke-width="1" fill="blue" opacity="1" tooltip="enable"><title>(0.0188552,150)</title></rect><rect x="66" y="191.817" width="6" height="8.18348" stroke="black" stroke-width="1" fill="blue" opacity="1" tooltip="enable"><title>(0.0207407,157)</title></rect><rect x="72" y="193.015" width="6" height="6.98462" stroke="black" stroke-width="1" fill="blue" opacity="1" tooltip="enable"><title>(0.0226262,134)</title></rect><rect x="78" y="192.911" width="6" height="7.08887" stroke="black" stroke-width="1" fill="blue" opacity="1" tooltip="enable"><title>(0.0245117,136)</title></rect><rect x="84" y="192.442" width="6" height="7.55799" stroke="black" stroke-width="1" fill="blue" opacity="1" tooltip="enable"><title>(0.0263973,145)</title></rect><rect x="90" y="194.318" width="6" height="5.68152" stroke="black" stroke-width="1" fill="blue" opacity="1" tooltip="enable"><title>(0.0282828,109)</title></rect><rect x="96" y="194.006" width="6" height="5.99427" stroke="black" stroke-width="1" fill="blue" opacity="1" tooltip="enable"><title>(0.0301683,115)</title></rect><rect x="102" y="193.068" width="6" height="6.9325" stroke="black" stroke-width="1" fill="blue" opacity="1" tooltip="enable"><title>(0.0320538,133)</title></rect><rect x="108" y="193.015" width="6" height="6.98462" stroke="black" stroke-width="1" fill="blue" opacity="1" tooltip="enable"><title>(0.0339393,134)</title></rect><rect x="114" y="192.651" width="6" height="7.34949" stroke="black" stroke-width="1" fill="blue" opacity="1" tooltip="enable"><title>(0.0358249,141)</title></rect><rect x="120" y="194.84" width="6" height="5.16028" stroke="black" stroke-width="1" fill="blue" opacity="1" tooltip="enable"><title>(0.0377104,99)</title></rect><rect x="126" y="194.996" width="6" height="5.00391" stroke="black" stroke-width="1" fill="blue" opacity="1" tooltip="enable"><title>(0.0395959,96)</title></rect><rect x="132" y="195.83" width="6" height="4.16992" stroke="black" stroke-width="1" fill="blue" opacity="1" tooltip="enable"><title>(0.0414814,80)</title></rect><rect x="138" y="197.602" width="6" height="2.39771" stroke="black" stroke-width="1" fill="blue" opacity="1" tooltip="enable"><title>(0.0433669,46)</title></rect><rect x="144" y="196.456" width="6" height="3.54444" stroke="black" stroke-width="1" fill="blue" opacity="1" tooltip="enable"><title>(0.0452524,68)</title></rect><rect x="150" y="196.873" width="6" height="3.12744" stroke="black" stroke-width="1" fill="blue" opacity="1" tooltip="enable"><title>(0.047138,60)</title></rect><rect x="156" y="198.124" width="6" height="1.87647" stroke="black" stroke-width="1" fill="blue" opacity="1" tooltip="enable"><title>(0.0490235,36)</title></rect><rect x="162" y="198.228" width="6" height="1.77222" stroke="black" stroke-width="1" fill="blue" opacity="1" tooltip="enable"><title>(0.050909,34)</title></rect><rect x="168" y="198.332" width="6" height="1.66797" stroke="black" stroke-width="1" fill="blue" opacity="1" tooltip="enable"><title>(0.0527945,32)</title></rect><rect x="174" y="198.019" width="6" height="1.98071" stroke="black" stroke-width="1" fill="blue" opacity="1" tooltip="enable"><title>(0.05468,38)</title></rect><rect x="180" y="198.332" width="6" height="1.66797" stroke="black" stroke-width="1" fill="blue" opacity="1" tooltip="enable"><title>(0.0565656,32)</title></rect><rect x="186" y="198.958" width="6" height="1.04248" stroke="black" stroke-width="1" fill="blue" opacity="1" tooltip="enable"><title>(0.0584511,20)</title></rect><rect x="192" y="199.166" width="6" height="0.833985" stroke="black" stroke-width="1" fill="blue" opacity="1" tooltip="enable"><title>(0.0603366,16)</title></rect><rect x="198" y="198.749" width="6" height="1.25098" stroke="black" stroke-width="1" fill="blue" opacity="1" tooltip="enable"><title>(0.0622221,24)</title></rect><rect x="204" y="199.375" width="6" height="0.625489" stroke="black" stroke-width="1" fill="blue" opacity="1" tooltip="enable"><title>(0.0641076,12)</title></rect><rect x="210" y="199.375" width="6" height="0.625489" stroke="black" stroke-width="1" fill="blue" opacity="1" tooltip="enable"><title>(0.0659932,12)</title></rect><rect x="216" y="199.062" width="6" height="0.938233" stroke="black" stroke-width="1" fill="blue" opacity="1" tooltip="enable"><title>(0.0678787,18)</title></rect><rect x="222" y="199.583" width="6" height="0.416992" stroke="black" stroke-width="1" fill="blue" opacity="1" tooltip="enable"><title>(0.0697642,8)</title></rect><rect x="228" y="199.583" width="6" height="0.416992" stroke="black" stroke-width="1" fill="blue" opacity="1" tooltip="enable"><title>(0.0716497,8)</title></rect><rect x="234" y="199.792" width="6" height="0.208496" stroke="black" stroke-width="1" fill="blue" opacity="1" tooltip="enable"><title>(0.0735352,4)</title></rect><rect x="240" y="199.375" width="6" height="0.625489" stroke="black" stroke-width="1" fill="blue" opacity="1" tooltip="enable"><title>(0.0754208,12)</title></rect><rect x="246" y="199.27" width="6" height="0.729737" stroke="black" stroke-width="1" fill="blue" opacity="1" tooltip="enable"><title>(0.0773063,14)</title></rect><rect x="252" y="199.687" width="6" height="0.312744" stroke="black" stroke-width="1" fill="blue" opacity="1" tooltip="enable"><title>(0.0791918,6)</title></rect><rect x="258" y="199.896" width="6" height="0.104248" stroke="black" stroke-width="1" fill="blue" opacity="1" tooltip="enable"><title>(0.0810773,2)</title></rect><rect x="264" y="199.896" width="6" height="0.104248" stroke="black" stroke-width="1" fill="blue" opacity="1" tooltip="enable"><title>(0.0829628,2)</title></rect><rect x="270" y="200" width="6" height="0" stroke="black" stroke-width="1" fill="blue" opacity="1" tooltip="enable"><title>(0.0848483,0)</title></rect><rect x="276" y="200" width="6" height="0" stroke="black" stroke-width="1" fill="blue" opacity="1" tooltip="enable"><title>(0.0867339,0)</title></rect><rect x="282" y="199.896" width="6" height="0.104248" stroke="black" stroke-width="1" fill="blue" opacity="1" tooltip="enable"><title>(0.0886194,2)</title></rect><rect x="288" y="199.896" width="6" height="0.104248" stroke="black" stroke-width="1" fill="blue" opacity="1" tooltip="enable"><title>(0.0905049,2)</title></rect><rect x="294" y="200" width="6" height="0" stroke="black" stroke-width="1" fill="blue" opacity="1" tooltip="enable"><title>(0.0923904,0)</title></rect><rect x="300" y="200" width="6" height="0" stroke="black" stroke-width="1" fill="blue" opacity="1" tooltip="enable"><title>(0.0942759,0)</title></rect><rect x="306" y="200" width="6" height="0" stroke="black" stroke-width="1" fill="blue" opacity="1" tooltip="enable"><title>(0.0961615,0)</title></rect><rect x="312" y="200" width="6" height="0" stroke="black" stroke-width="1" fill="blue" opacity="1" tooltip="enable"><title>(0.098047,0)</title></rect><rect x="318" y="200" width="6" height="0" stroke="black" stroke-width="1" fill="blue" opacity="1" tooltip="enable"><title>(0.0999325,0)</title></rect><rect x="324" y="200" width="6" height="0" stroke="black" stroke-width="1" fill="blue" opacity="1" tooltip="enable"><title>(0.101818,0)</title></rect><rect x="330" y="200" width="6" height="0" stroke="black" stroke-width="1" fill="blue" opacity="1" tooltip="enable"><title>(0.103704,0)</title></rect><rect x="336" y="199.896" width="6" height="0.104248" stroke="black" stroke-width="1" fill="blue" opacity="1" tooltip="enable"><title>(0.105589,2)</title></rect><rect x="342" y="200" width="6" height="0" stroke="black" stroke-width="1" fill="blue" opacity="1" tooltip="enable"><title>(0.107475,0)</title></rect><rect x="348" y="199.896" width="6" height="0.104248" stroke="black" stroke-width="1" fill="blue" opacity="1" tooltip="enable"><title>(0.10936,2)</title></rect><rect x="354" y="200" width="6" height="0" stroke="black" stroke-width="1" fill="blue" opacity="1" tooltip="enable"><title>(0.111246,0)</title></rect><rect x="360" y="200" width="6" height="0" stroke="black" stroke-width="1" fill="blue" opacity="1" tooltip="enable"><title>(0.113131,0)</title></rect><rect x="366" y="200" width="6" height="0" stroke="black" stroke-width="1" fill="blue" opacity="1" tooltip="enable"><title>(0.115017,0)</title></rect><rect x="372" y="200" width="6" height="0" stroke="black" stroke-width="1" fill="blue" opacity="1" tooltip="enable"><title>(0.116902,0)</title></rect><rect x="378" y="200" width="6" height="0" stroke="black" stroke-width="1" fill="blue" opacity="1" tooltip="enable"><title>(0.118788,0)</title></rect><rect x="384" y="200" width="6" height="0" stroke="black" stroke-width="1" fill="blue" opacity="1" tooltip="enable"><title>(0.120673,0)</title></rect><rect x="390" y="200" width="6" height="0" stroke="black" stroke-width="1" fill="blue" opacity="1" tooltip="enable"><title>(0.122559,0)</title></rect><rect x="396" y="200" width="6" height="0" stroke="black" stroke-width="1" fill="blue" opacity="1" tooltip="enable"><title>(0.124444,0)</title></rect><rect x="402" y="200" width="6" height="0" stroke="black" stroke-width="1" fill="blue" opacity="1" tooltip="enable"><title>(0.12633,0)</title></rect><rect x="408" y="200" width="6" height="0" stroke="black" stroke-width="1" fill="blue" opacity="1" tooltip="enable"><title>(0.128215,0)</title></rect><rect x="414" y="200" width="6" height="0" stroke="black" stroke-width="1" fill="blue" opacity="1" tooltip="enable"><title>(0.130101,0)</title></rect><rect x="420" y="200" width="6" height="0" stroke="black" stroke-width="1" fill="blue" opacity="1" tooltip="enable"><title>(0.131986,0)</title></rect><rect x="426" y="200" width="6" height="0" stroke="black" stroke-width="1" fill="blue" opacity="1" tooltip="enable"><title>(0.133872,0)</title></rect><rect x="432" y="200" width="6" height="0" stroke="black" stroke-width="1" fill="blue" opacity="1" tooltip="enable"><title>(0.135757,0)</title></rect><rect x="438" y="200" width="6" height="0" stroke="black" stroke-width="1" fill="blue" opacity="1" tooltip="enable"><title>(0.137643,0)</title></rect><rect x="444" y="200" width="6" height="0" stroke="black" stroke-width="1" fill="blue" opacity="1" tooltip="enable"><title>(0.139528,0)</title></rect><rect x="450" y="200" width="6" height="0" stroke="black" stroke-width="1" fill="blue" opacity="1" tooltip="enable"><title>(0.141414,0)</title></rect><rect x="456" y="200" width="6" height="0" stroke="black" stroke-width="1" fill="blue" opacity="1" tooltip="enable"><title>(0.143299,0)</title></rect><rect x="462" y="200" width="6" height="0" stroke="black" stroke-width="1" fill="blue" opacity="1" tooltip="enable"><title>(0.145185,0)</title></rect><rect x="468" y="200" width="6" height="0" stroke="black" stroke-width="1" fill="blue" opacity="1" tooltip="enable"><title>(0.14707,0)</title></rect><rect x="474" y="200" width="6" height="0" stroke="black" stroke-width="1" fill="blue" opacity="1" tooltip="enable"><title>(0.148956,0)</title></rect><rect x="480" y="199.896" width="6" height="0.104248" stroke="black" stroke-width="1" fill="blue" opacity="1" tooltip="enable"><title>(0.150842,2)</title></rect><rect x="486" y="200" width="6" height="0" stroke="black" stroke-width="1" fill="blue" opacity="1" tooltip="enable"><title>(0.152727,0)</title></rect><rect x="492" y="200" width="6" height="0" stroke="black" stroke-width="1" fill="blue" opacity="1" tooltip="enable"><title>(0.154613,0)</title></rect><rect x="498" y="200" width="6" height="0" stroke="black" stroke-width="1" fill="blue" opacity="1" tooltip="enable"><title>(0.156498,0)</title></rect><rect x="504" y="200" width="6" height="0" stroke="black" stroke-width="1" fill="blue" opacity="1" tooltip="enable"><title>(0.158384,0)</title></rect><rect x="510" y="200" width="6" height="0" stroke="black" stroke-width="1" fill="blue" opacity="1" tooltip="enable"><title>(0.160269,0)</title></rect><rect x="516" y="200" width="6" height="0" stroke="black" stroke-width="1" fill="blue" opacity="1" tooltip="enable"><title>(0.162155,0)</title></rect><rect x="522" y="200" width="6" height="0" stroke="black" stroke-width="1" fill="blue" opacity="1" tooltip="enable"><title>(0.16404,0)</title></rect><rect x="528" y="200" width="6" height="0" stroke="black" stroke-width="1" fill="blue" opacity="1" tooltip="enable"><title>(0.165926,0)</title></rect><rect x="534" y="200" width="6" height="0" stroke="black" stroke-width="1" fill="blue" opacity="1" tooltip="enable"><title>(0.167811,0)</title></rect><rect x="540" y="200" width="6" height="0" stroke="black" stroke-width="1" fill="blue" opacity="1" tooltip="enable"><title>(0.169697,0)</title></rect><rect x="546" y="200" width="6" height="0" stroke="black" stroke-width="1" fill="blue" opacity="1" tooltip="enable"><title>(0.171582,0)</title></rect><rect x="552" y="200" width="6" height="0" stroke="black" stroke-width="1" fill="blue" opacity="1" tooltip="enable"><title>(0.173468,0)</title></rect><rect x="558" y="200" width="6" height="0" stroke="black" stroke-width="1" fill="blue" opacity="1" tooltip="enable"><title>(0.175353,0)</title></rect><rect x="564" y="200" width="6" height="0" stroke="black" stroke-width="1" fill="blue" opacity="1" tooltip="enable"><title>(0.177239,0)</title></rect><rect x="570" y="200" width="6" height="0" stroke="black" stroke-width="1" fill="blue" opacity="1" tooltip="enable"><title>(0.179124,0)</title></rect><rect x="576" y="200" width="6" height="0" stroke="black" stroke-width="1" fill="blue" opacity="1" tooltip="enable"><title>(0.18101,0)</title></rect><rect x="582" y="200" width="6" height="0" stroke="black" stroke-width="1" fill="blue" opacity="1" tooltip="enable"><title>(0.182895,0)</title></rect><rect x="588" y="200" width="6" height="0" stroke="black" stroke-width="1" fill="blue" opacity="1" tooltip="enable"><title>(0.184781,0)</title></rect><rect x="594" y="199.948" width="6" height="0.0521241" stroke="black" stroke-width="1" fill="blue" opacity="1" tooltip="enable"><title>(0.186666,1)</title></rect><text x="30" y="240" font-size="20" fill="black">0</text>
<text x="600" y="240" font-size="20" fill="black">0.188552</text>
<polyline points="0,220,600,220" stroke="black" stroke-width="1" fill="none" opacity="1"/>
<text x="720" y="20" font-size="20" fill="black">3837</text>
<text x="720" y="200" font-size="20" fill="black">0</text>
<polyline points="660,0,660,200" stroke="black" stroke-width="1" fill="none" opacity="1"/>
</svg>