<?xml version="1.0" standalone="yes"?>
<!-- SVG graphic -->
<svg xmlns='http://www.w3.org/2000/svg' xmlns:xlink='http://www.w3.org/1999/xlink'
 version="1.1">
<rect x="0" y="0" width="6" height="200" stroke="black" stroke-width="1" fill="blue" opacity="1" tooltip="enable"><title>(0,1333)</title></rect><rect x="6" y="7.80194" width="6" height="192.198" stroke="black" stroke-width="1" fill="blue" opacity="1" tooltip="enable"><title>(0.00126897,1281)</title></rect><rect x="12" y="69.6174" width="6" height="130.383" stroke="black" stroke-width="1" fill="blue" opacity="1" tooltip="enable"><title>(0.00253795,869)</title></rect><rect x="18" y="114.329" width="6" height="85.6714" stroke="black" stroke-width="1" fill="blue" opacity="1" tooltip="enable"><title>(0.00380692,571)</title></rect><rect x="24" y="151.238" width="6" height="48.7622" stroke="black" stroke-width="1" fill="blue" opacity="1" tooltip="enable"><title>(0.0050759,325)</title></rect><rect x="30" y="160.69" width="6" height="39.3098" stroke="black" stroke-width="1" fill="blue" opacity="1" tooltip="enable"><title>(0.00634487,262)</title></rect><rect x="36" y="162.341" width="6" height="37.6594" stroke="black" stroke-width="1" fill="blue" opacity="1" tooltip="enable"><title>(0.00761385,251)</title></rect><rect x="42" y="171.343" width="6" height="28.6572" stroke="black" stroke-width="1" fill="blue" opacity="1" tooltip="enable"><title>(0.00888282,191)</title></rect><rect x="48" y="179.145" width="6" height="20.8552" stroke="black" stroke-width="1" fill="blue" opacity="1" tooltip="enable"><title>(0.0101518,139)</title></rect><rect x="54" y="178.395" width="6" height="21.6054" stroke="black" stroke-width="1" fill="blue" opacity="1" tooltip="enable"><title>(0.0114208,144)</title></rect><rect x="60" y="181.395" width="6" height="18.6047" stroke="black" stroke-width="1" fill="blue" opacity="1" tooltip="enable"><title>(0.0126897,124)</title></rect><rect x="66" y="176.294" width="6" height="23.7059" stroke="black" stroke-width="1" fill="blue" opacity="1" tooltip="enable"><title>(0.0139587,158)</title></rect><rect x="72" y="175.694" width="6" height="24.3061" stroke="black" stroke-width="1" fill="blue" opacity="1" tooltip="enable"><title>(0.0152277,162)</title></rect><rect x="78" y="180.795" width="6" height="19.2048" stroke="black" stroke-width="1" fill="blue" opacity="1" tooltip="enable"><title>(0.0164967,128)</title></rect><rect x="84" y="181.695" width="6" height="18.3046" stroke="black" stroke-width="1" fill="blue" opacity="1" tooltip="enable"><title>(0.0177656,122)</title></rect><rect x="90" y="181.395" width="6" height="18.6047" stroke="black" stroke-width="1" fill="blue" opacity="1" tooltip="enable"><title>(0.0190346,124)</title></rect><rect x="96" y="184.996" width="6" height="15.0038" stroke="black" stroke-width="1" fill="blue" opacity="1" tooltip="enable"><title>(0.0203036,100)</title></rect><rect x="102" y="187.097" width="6" height="12.9032" stroke="black" stroke-width="1" fill="blue" opacity="1" tooltip="enable"><title>(0.0215726,86)</title></rect><rect x="108" y="186.197" width="6" height="13.8035" stroke="black" stroke-width="1" fill="blue" opacity="1" tooltip="enable"><title>(0.0228415,92)</title></rect><rect x="114" y="184.696" width="6" height="15.3038" stroke="black" stroke-width="1" fill="blue" opacity="1" tooltip="enable"><title>(0.0241105,102)</title></rect><rect x="120" y="184.096" width="6" height="15.904" stroke="black" stroke-width="1" fill="blue" opacity="1" tooltip="enable"><title>(0.0253795,106)</title></rect><rect x="126" y="187.397" width="6" height="12.6032" stroke="black" stroke-width="1" fill="blue" opacity="1" tooltip="enable"><title>(0.0266485,84)</title></rect><rect x="132" y="186.497" width="6" height="13.5034" stroke="black" stroke-width="1" fill="blue" opacity="1" tooltip="enable"><title>(0.0279174,90)</title></rect><rect x="138" y="187.397" width="6" height="12.6032" stroke="black" stroke-width="1" fill="blue" opacity="1" tooltip="enable"><title>(0.0291864,84)</title></rect><rect x="144" y="187.697" width="6" height="12.3031" stroke="black" stroke-width="1" fill="blue" opacity="1" tooltip="enable"><title>(0.0304554,82)</title></rect><rect x="150" y="192.798" width="6" height="7.2018" stroke="black" stroke-width="1" fill="blue" opacity="1" tooltip="enable"><title>(0.0317244,48)</title></rect><rect x="156" y="189.947" width="6" height="10.0525" stroke="black" stroke-width="1" fill="blue" opacity="1" tooltip="enable"><title>(0.0329933,67)</title></rect><rect x="162" y="186.197" width="6" height="13.8035" stroke="black" stroke-width="1" fill="blue" opacity="1" tooltip="enable"><title>(0.0342623,92)</title></rect><rect x="168" y="194.899" width="6" height="5.10128" stroke="black" stroke-width="1" fill="blue" opacity="1" tooltip="enable"><title>(0.0355313,34)</title></rect><rect x="174" y="192.498" width="6" height="7.50188" stroke="black" stroke-width="1" fill="blue" opacity="1" tooltip="enable"><title>(0.0368003,50)</title></rect><rect x="180" y="193.698" width="6" height="6.30158" stroke="black" stroke-width="1" fill="blue" opacity="1" tooltip="enable"><title>(0.0380692,42)</title></rect><rect x="186" y="193.248" width="6" height="6.75169" stroke="black" stroke-width="1" fill="blue" opacity="1" tooltip="enable"><title>(0.0393382,45)</title></rect><rect x="192" y="197.299" width="6" height="2.70068" stroke="black" stroke-width="1" fill="blue" opacity="1" tooltip="enable"><title>(0.0406072,18)</title></rect><rect x="198" y="191.748" width="6" height="8.25206" stroke="black" stroke-width="1" fill="blue" opacity="1" tooltip="enable"><title>(0.0418762,55)</title></rect><rect x="204" y="197.149" width="6" height="2.85071" stroke="black" stroke-width="1" fill="blue" opacity="1" tooltip="enable"><title>(0.0431451,19)</title></rect><rect x="210" y="196.999" width="6" height="3.00075" stroke="black" stroke-width="1" fill="blue" opacity="1" tooltip="enable"><title>(0.0444141,20)</title></rect><rect x="216" y="194.299" width="6" height="5.70143" stroke="black" stroke-width="1" fill="blue" opacity="1" tooltip="enable"><title>(0.0456831,38)</title></rect><rect x="222" y="196.999" width="6" height="3.00075" stroke="black" stroke-width="1" fill="blue" opacity="1" tooltip="enable"><title>(0.0469521,20)</title></rect><rect x="228" y="197.299" width="6" height="2.70068" stroke="black" stroke-width="1" fill="blue" opacity="1" tooltip="enable"><title>(0.048221,18)</title></rect><rect x="234" y="196.099" width="6" height="3.90098" stroke="black" stroke-width="1" fill="blue" opacity="1" tooltip="enable"><title>(0.04949,26)</title></rect><rect x="240" y="196.999" width="6" height="3.00075" stroke="black" stroke-width="1" fill="blue" opacity="1" tooltip="enable"><title>(0.050759,20)</title></rect><rect x="246" y="199.1" width="6" height="0.900225" stroke="black" stroke-width="1" fill="blue" opacity="1" tooltip="enable"><title>(0.052028,6)</title></rect><rect x="252" y="197.299" width="6" height="2.70068" stroke="black" stroke-width="1" fill="blue" opacity="1" tooltip="enable"><title>(0.0532969,18)</title></rect><rect x="258" y="196.399" width="6" height="3.6009" stroke="black" stroke-width="1" fill="blue" opacity="1" tooltip="enable"><title>(0.0545659,24)</title></rect><rect x="264" y="198.2" width="6" height="1.80045" stroke="black" stroke-width="1" fill="blue" opacity="1" tooltip="enable"><title>(0.0558349,12)</title></rect><rect x="270" y="198.2" width="6" height="1.80045" stroke="black" stroke-width="1" fill="blue" opacity="1" tooltip="enable"><title>(0.0571039,12)</title></rect><rect x="276" y="196.999" width="6" height="3.00075" stroke="black" stroke-width="1" fill="blue" opacity="1" tooltip="enable"><title>(0.0583728,20)</title></rect><rect x="282" y="196.699" width="6" height="3.30083" stroke="black" stroke-width="1" fill="blue" opacity="1" tooltip="enable"><title>(0.0596418,22)</title></rect><rect x="288" y="197.299" width="6" height="2.70068" stroke="black" stroke-width="1" fill="blue" opacity="1" tooltip="enable"><title>(0.0609108,18)</title></rect><rect x="294" y="198.8" width="6" height="1.2003" stroke="black" stroke-width="1" fill="blue" opacity="1" tooltip="enable"><title>(0.0621798,8)</title></rect><rect x="300" y="197.299" width="6" height="2.70068" stroke="black" stroke-width="1" fill="blue" opacity="1" tooltip="enable"><title>(0.0634487,18)</title></rect><rect x="306" y="198.2" width="6" height="1.80045" stroke="black" stroke-width="1" fill="blue" opacity="1" tooltip="enable"><title>(0.0647177,12)</title></rect><rect x="312" y="197.899" width="6" height="2.10053" stroke="black" stroke-width="1" fill="blue" opacity="1" tooltip="enable"><title>(0.0659867,14)</title></rect><rect x="318" y="197.299" width="6" height="2.70068" stroke="black" stroke-width="1" fill="blue" opacity="1" tooltip="enable"><title>(0.0672557,18)</title></rect><rect x="324" y="196.999" width="6" height="3.00075" stroke="black" stroke-width="1" fill="blue" opacity="1" tooltip="enable"><title>(0.0685246,20)</title></rect><rect x="330" y="197.749" width="6" height="2.25056" stroke="black" stroke-width="1" fill="blue" opacity="1" tooltip="enable"><title>(0.0697936,15)</title></rect><rect x="336" y="197.299" width="6" height="2.70068" stroke="black" stroke-width="1" fill="blue" opacity="1" tooltip="enable"><title>(0.0710626,18)</title></rect><rect x="342" y="197.449" width="6" height="2.55064" stroke="black" stroke-width="1" fill="blue" opacity="1" tooltip="enable"><title>(0.0723316,17)</title></rect><rect x="348" y="199.1" width="6" height="0.900225" stroke="black" stroke-width="1" fill="blue" opacity="1" tooltip="enable"><title>(0.0736005,6)</title></rect><rect x="354" y="198.8" width="6" height="1.2003" stroke="black" stroke-width="1" fill="blue" opacity="1" tooltip="enable"><title>(0.0748695,8)</title></rect><rect x="360" y="197.749" width="6" height="2.25056" stroke="black" stroke-width="1" fill="blue" opacity="1" tooltip="enable"><title>(0.0761385,15)</title></rect><rect x="366" y="198.35" width="6" height="1.65041" stroke="black" stroke-width="1" fill="blue" opacity="1" tooltip="enable"><title>(0.0774075,11)</title></rect><rect x="372" y="198.8" width="6" height="1.2003" stroke="black" stroke-width="1" fill="blue" opacity="1" tooltip="enable"><title>(0.0786764,8)</title></rect><rect x="378" y="199.4" width="6" height="0.60015" stroke="black" stroke-width="1" fill="blue" opacity="1" tooltip="enable"><title>(0.0799454,4)</title></rect><rect x="384" y="199.1" width="6" height="0.900225" stroke="black" stroke-width="1" fill="blue" opacity="1" tooltip="enable"><title>(0.0812144,6)</title></rect><rect x="390" y="199.7" width="6" height="0.300075" stroke="black" stroke-width="1" fill="blue" opacity="1" tooltip="enable"><title>(0.0824834,2)</title></rect><rect x="396" y="199.1" width="6" height="0.900225" stroke="black" stroke-width="1" fill="blue" opacity="1" tooltip="enable"><title>(0.0837523,6)</title></rect><rect x="402" y="199.7" width="6" height="0.300075" stroke="black" stroke-width="1" fill="blue" opacity="1" tooltip="enable"><title>(0.0850213,2)</title></rect><rect x="408" y="199.1" width="6" height="0.900225" stroke="black" stroke-width="1" fill="blue" opacity="1" tooltip="enable"><title>(0.0862903,6)</title></rect><rect x="414" y="200" width="6" height="0" stroke="black" stroke-width="1" fill="blue" opacity="1" tooltip="enable"><title>(0.0875593,0)</title></rect><rect x="420" y="199.4" width="6" height="0.60015" stroke="black" stroke-width="1" fill="blue" opacity="1" tooltip="enable"><title>(0.0888282,4)</title></rect><rect x="426" y="199.7" width="6" height="0.300075" stroke="black" stroke-width="1" fill="blue" opacity="1" tooltip="enable"><title>(0.0900972,2)</title></rect><rect x="432" y="199.7" width="6" height="0.300075" stroke="black" stroke-width="1" fill="blue" opacity="1" tooltip="enable"><title>(0.0913662,2)</title></rect><rect x="438" y="199.25" width="6" height="0.750188" stroke="black" stroke-width="1" fill="blue" opacity="1" tooltip="enable"><title>(0.0926352,5)</title></rect><rect x="444" y="199.55" width="6" height="0.450113" stroke="black" stroke-width="1" fill="blue" opacity="1" tooltip="enable"><title>(0.0939041,3)</title></rect><rect x="450" y="200" width="6" height="0" stroke="black" stroke-width="1" fill="blue" opacity="1" tooltip="enable"><title>(0.0951731,0)</title></rect><rect x="456" y="200" width="6" height="0" stroke="black" stroke-width="1" fill="blue" opacity="1" tooltip="enable"><title>(0.0964421,0)</title></rect><rect x="462" y="200" width="6" height="0" stroke="black" stroke-width="1" fill="blue" opacity="1" tooltip="enable"><title>(0.097711,0)</title></rect><rect x="468" y="199.7" width="6" height="0.300075" stroke="black" stroke-width="1" fill="blue" opacity="1" tooltip="enable"><title>(0.09898,2)</title></rect><rect x="474" y="199.7" width="6" height="0.300075" stroke="black" stroke-width="1" fill="blue" opacity="1" tooltip="enable"><title>(0.100249,2)</title></rect><rect x="480" y="200" width="6" height="0" stroke="black" stroke-width="1" fill="blue" opacity="1" tooltip="enable"><title>(0.101518,0)</title></rect><rect x="486" y="199.7" width="6" height="0.300075" stroke="black" stroke-width="1" fill="blue" opacity="1" tooltip="enable"><title>(0.102787,2)</title></rect><rect x="492" y="200" width="6" height="0" stroke="black" stroke-width="1" fill="blue" opacity="1" tooltip="enable"><title>(0.104056,0)</title></rect><rect x="498" y="200" width="6" height="0" stroke="black" stroke-width="1" fill="blue" opacity="1" tooltip="enable"><title>(0.105325,0)</title></rect><rect x="504" y="199.7" width="6" height="0.300075" stroke="black" stroke-width="1" fill="blue" opacity="1" tooltip="enable"><title>(0.106594,2)</title></rect><rect x="510" y="200" width="6" height="0" stroke="black" stroke-width="1" fill="blue" opacity="1" tooltip="enable"><title>(0.107863,0)</title></rect><rect x="516" y="200" width="6" height="0" stroke="black" stroke-width="1" fill="blue" opacity="1" tooltip="enable"><title>(0.109132,0)</title></rect><rect x="522" y="200" width="6" height="0" stroke="black" stroke-width="1" fill="blue" opacity="1" tooltip="enable"><title>(0.110401,0)</title></rect><rect x="528" y="200" width="6" height="0" stroke="black" stroke-width="1" fill="blue" opacity="1" tooltip="enable"><title>(0.11167,0)</title></rect><rect x="534" y="200" width="6" height="0" stroke="black" stroke-width="1" fill="blue" opacity="1" tooltip="enable"><title>(0.112939,0)</title></rect><rect x="540" y="200" width="6" height="0" stroke="black" stroke-width="1" fill="blue" opacity="1" tooltip="enable"><title>(0.114208,0)</title></rect><rect x="546" y="200" width="6" height="0" stroke="black" stroke-width="1" fill="blue" opacity="1" tooltip="enable"><title>(0.115477,0)</title></rect><rect x="552" y="200" width="6" height="0" stroke="black" stroke-width="1" fill="blue" opacity="1" tooltip="enable"><title>(0.116746,0)</title></rect><rect x="558" y="200" width="6" height="0" stroke="black" stroke-width="1" fill="blue" opacity="1" tooltip="enable"><title>(0.118015,0)</title></rect><rect x="564" y="199.7" width="6" height="0.300075" stroke="black" stroke-width="1" fill="blue" opacity="1" tooltip="enable"><title>(0.119284,2)</title></rect><rect x="570" y="200" width="6" height="0" stroke="black" stroke-width="1" fill="blue" opacity="1" tooltip="enable"><title>(0.120553,0)</title></rect><rect x="576" y="200" width="6" height="0" stroke="black" stroke-width="1" fill="blue" opacity="1" tooltip="enable"><title>(0.121822,0)</title></rect><rect x="582" y="199.4" width="6" height="0.60015" stroke="black" stroke-width="1" fill="blue" opacity="1" tooltip="enable"><title>(0.123091,4)</title></rect><rect x="588" y="200" width="6" height="0" stroke="black" stroke-width="1" fill="blue" opacity="1" tooltip="enable"><title>(0.12436,0)</title></rect><rect x="594" y="199.85" width="6" height="0.150038" stroke="black" stroke-width="1" fill="blue" opacity="1" tooltip="enable"><title>(0.125629,1)</title></rect><text x="30" y="240" font-size="20" fill="black">0</text>
<text x="600" y="240" font-size="20" fill="black">0.126897</text>
<polyline points="0,220,600,220" stroke="black" stroke-width="1" fill="none" opacity="1"/>
<text x="720" y="20" font-size="20" fill="black">1333</text>
<text x="720" y="200" font-size="20" fill="black">0</text>
<polyline points="660,0,660,200" stroke="black" stroke-width="1" fill="none" opacity="1"/>
</svg>