<?xml version="1.0" standalone="yes"?>
<!-- SVG graphic -->
<svg xmlns='http://www.w3.org/2000/svg' xmlns:xlink='http://www.w3.org/1999/xlink'
 version="1.1">
<rect x="0" y="0" width="6" height="200" stroke="black" stroke-width="1" fill="blue" opacity="1" tooltip="enable"><title>(0,2024)</title></rect><rect x="6" y="65.6127" width="6" height="134.387" stroke="black" stroke-width="1" fill="blue" opacity="1" tooltip="enable"><title>(0.00138717,1360)</title></rect><rect x="12" y="137.154" width="6" height="62.8458" stroke="black" stroke-width="1" fill="blue" opacity="1" tooltip="enable"><title>(0.00277434,636)</title></rect><rect x="18" y="161.265" width="6" height="38.7352" stroke="black" stroke-width="1" fill="blue" opacity="1" tooltip="enable"><title>(0.00416152,392)</title></rect><rect x="24" y="176.186" width="6" height="23.8142" stroke="black" stroke-width="1" fill="blue" opacity="1" tooltip="enable"><title>(0.00554869,241)</title></rect><rect x="30" y="185.87" width="6" height="14.1304" stroke="black" stroke-width="1" fill="blue" opacity="1" tooltip="enable"><title>(0.00693586,143)</title></rect><rect x="36" y="189.921" width="6" height="10.0791" stroke="black" stroke-width="1" fill="blue" opacity="1" tooltip="enable"><title>(0.00832304,102)</title></rect><rect x="42" y="184.289" width="6" height="15.7115" stroke="black" stroke-width="1" fill="blue" opacity="1" tooltip="enable"><title>(0.00971021,159)</title></rect><rect x="48" y="186.858" width="6" height="13.1423" stroke="black" stroke-width="1" fill="blue" opacity="1" tooltip="enable"><title>(0.0110974,133)</title></rect><rect x="54" y="186.364" width="6" height="13.6364" stroke="black" stroke-width="1" fill="blue" opacity="1" tooltip="enable"><title>(0.0124846,138)</title></rect><rect x="60" y="188.241" width="6" height="11.7589" stroke="black" stroke-width="1" fill="blue" opacity="1" tooltip="enable"><title>(0.0138717,119)</title></rect><rect x="66" y="185.573" width="6" height="14.4269" stroke="black" stroke-width="1" fill="blue" opacity="1" tooltip="enable"><title>(0.0152589,146)</title></rect><rect x="72" y="183.3" width="6" height="16.6996" stroke="black" stroke-width="1" fill="blue" opacity="1" tooltip="enable"><title>(0.0166461,169)</title></rect><rect x="78" y="187.945" width="6" height="12.0553" stroke="black" stroke-width="1" fill="blue" opacity="1" tooltip="enable"><title>(0.0180332,122)</title></rect><rect x="84" y="188.735" width="6" height="11.2648" stroke="black" stroke-width="1" fill="blue" opacity="1" tooltip="enable"><title>(0.0194204,114)</title></rect><rect x="90" y="187.945" width="6" height="12.0553" stroke="black" stroke-width="1" fill="blue" opacity="1" tooltip="enable"><title>(0.0208076,122)</title></rect><rect x="96" y="189.13" width="6" height="10.8696" stroke="black" stroke-width="1" fill="blue" opacity="1" tooltip="enable"><title>(0.0221948,110)</title></rect><rect x="102" y="187.253" width="6" height="12.747" stroke="black" stroke-width="1" fill="blue" opacity="1" tooltip="enable"><title>(0.0235819,129)</title></rect><rect x="108" y="192.589" width="6" height="7.41107" stroke="black" stroke-width="1" fill="blue" opacity="1" tooltip="enable"><title>(0.0249691,75)</title></rect><rect x="114" y="192.095" width="6" height="7.90514" stroke="black" stroke-width="1" fill="blue" opacity="1" tooltip="enable"><title>(0.0263563,80)</title></rect><rect x="120" y="191.304" width="6" height="8.69565" stroke="black" stroke-width="1" fill="blue" opacity="1" tooltip="enable"><title>(0.0277434,88)</title></rect><rect x="126" y="192.194" width="6" height="7.80632" stroke="black" stroke-width="1" fill="blue" opacity="1" tooltip="enable"><title>(0.0291306,79)</title></rect><rect x="132" y="191.798" width="6" height="8.20158" stroke="black" stroke-width="1" fill="blue" opacity="1" tooltip="enable"><title>(0.0305178,83)</title></rect><rect x="138" y="194.17" width="6" height="5.83004" stroke="black" stroke-width="1" fill="blue" opacity="1" tooltip="enable"><title>(0.031905,59)</title></rect><rect x="144" y="191.798" width="6" height="8.20158" stroke="black" stroke-width="1" fill="blue" opacity="1" tooltip="enable"><title>(0.0332921,83)</title></rect><rect x="150" y="191.008" width="6" height="8.99209" stroke="black" stroke-width="1" fill="blue" opacity="1" tooltip="enable"><title>(0.0346793,91)</title></rect><rect x="156" y="193.182" width="6" height="6.81818" stroke="black" stroke-width="1" fill="blue" opacity="1" tooltip="enable"><title>(0.0360665,69)</title></rect><rect x="162" y="192.885" width="6" height="7.11462" stroke="black" stroke-width="1" fill="blue" opacity="1" tooltip="enable"><title>(0.0374537,72)</title></rect><rect x="168" y="196.838" width="6" height="3.16206" stroke="black" stroke-width="1" fill="blue" opacity="1" tooltip="enable"><title>(0.0388408,32)</title></rect><rect x="174" y="194.466" width="6" height="5.5336" stroke="black" stroke-width="1" fill="blue" opacity="1" tooltip="enable"><title>(0.040228,56)</title></rect><rect x="180" y="195.652" width="6" height="4.34783" stroke="black" stroke-width="1" fill="blue" opacity="1" tooltip="enable"><title>(0.0416152,44)</title></rect><rect x="186" y="196.047" width="6" height="3.95257" stroke="black" stroke-width="1" fill="blue" opacity="1" tooltip="enable"><title>(0.0430023,40)</title></rect><rect x="192" y="196.64" width="6" height="3.35968" stroke="black" stroke-width="1" fill="blue" opacity="1" tooltip="enable"><title>(0.0443895,34)</title></rect><rect x="198" y="195.257" width="6" height="4.74308" stroke="black" stroke-width="1" fill="blue" opacity="1" tooltip="enable"><title>(0.0457767,48)</title></rect><rect x="204" y="195.85" width="6" height="4.1502" stroke="black" stroke-width="1" fill="blue" opacity="1" tooltip="enable"><title>(0.0471639,42)</title></rect><rect x="210" y="195.652" width="6" height="4.34783" stroke="black" stroke-width="1" fill="blue" opacity="1" tooltip="enable"><title>(0.048551,44)</title></rect><rect x="216" y="196.838" width="6" height="3.16206" stroke="black" stroke-width="1" fill="blue" opacity="1" tooltip="enable"><title>(0.0499382,32)</title></rect><rect x="222" y="198.024" width="6" height="1.97628" stroke="black" stroke-width="1" fill="blue" opacity="1" tooltip="enable"><title>(0.0513254,20)</title></rect><rect x="228" y="196.542" width="6" height="3.4585" stroke="black" stroke-width="1" fill="blue" opacity="1" tooltip="enable"><title>(0.0527126,35)</title></rect><rect x="234" y="196.344" width="6" height="3.65613" stroke="black" stroke-width="1" fill="blue" opacity="1" tooltip="enable"><title>(0.0540997,37)</title></rect><rect x="240" y="196.542" width="6" height="3.4585" stroke="black" stroke-width="1" fill="blue" opacity="1" tooltip="enable"><title>(0.0554869,35)</title></rect><rect x="246" y="196.838" width="6" height="3.16206" stroke="black" stroke-width="1" fill="blue" opacity="1" tooltip="enable"><title>(0.0568741,32)</title></rect><rect x="252" y="198.32" width="6" height="1.67984" stroke="black" stroke-width="1" fill="blue" opacity="1" tooltip="enable"><title>(0.0582612,17)</title></rect><rect x="258" y="197.431" width="6" height="2.56917" stroke="black" stroke-width="1" fill="blue" opacity="1" tooltip="enable"><title>(0.0596484,26)</title></rect><rect x="264" y="197.826" width="6" height="2.17391" stroke="black" stroke-width="1" fill="blue" opacity="1" tooltip="enable"><title>(0.0610356,22)</title></rect><rect x="270" y="197.628" width="6" height="2.37154" stroke="black" stroke-width="1" fill="blue" opacity="1" tooltip="enable"><title>(0.0624228,24)</title></rect><rect x="276" y="198.221" width="6" height="1.77866" stroke="black" stroke-width="1" fill="blue" opacity="1" tooltip="enable"><title>(0.0638099,18)</title></rect><rect x="282" y="197.826" width="6" height="2.17391" stroke="black" stroke-width="1" fill="blue" opacity="1" tooltip="enable"><title>(0.0651971,22)</title></rect><rect x="288" y="199.209" width="6" height="0.790514" stroke="black" stroke-width="1" fill="blue" opacity="1" tooltip="enable"><title>(0.0665843,8)</title></rect><rect x="294" y="197.036" width="6" height="2.96443" stroke="black" stroke-width="1" fill="blue" opacity="1" tooltip="enable"><title>(0.0679715,30)</title></rect><rect x="300" y="198.221" width="6" height="1.77866" stroke="black" stroke-width="1" fill="blue" opacity="1" tooltip="enable"><title>(0.0693586,18)</title></rect><rect x="306" y="198.814" width="6" height="1.18577" stroke="black" stroke-width="1" fill="blue" opacity="1" tooltip="enable"><title>(0.0707458,12)</title></rect><rect x="312" y="199.605" width="6" height="0.395257" stroke="black" stroke-width="1" fill="blue" opacity="1" tooltip="enable"><title>(0.072133,4)</title></rect><rect x="318" y="199.012" width="6" height="0.988142" stroke="black" stroke-width="1" fill="blue" opacity="1" tooltip="enable"><title>(0.0735201,10)</title></rect><rect x="324" y="198.913" width="6" height="1.08696" stroke="black" stroke-width="1" fill="blue" opacity="1" tooltip="enable"><title>(0.0749073,11)</title></rect><rect x="330" y="199.111" width="6" height="0.889328" stroke="black" stroke-width="1" fill="blue" opacity="1" tooltip="enable"><title>(0.0762945,9)</title></rect><rect x="336" y="197.826" width="6" height="2.17391" stroke="black" stroke-width="1" fill="blue" opacity="1" tooltip="enable"><title>(0.0776817,22)</title></rect><rect x="342" y="198.419" width="6" height="1.58103" stroke="black" stroke-width="1" fill="blue" opacity="1" tooltip="enable"><title>(0.0790688,16)</title></rect><rect x="348" y="199.605" width="6" height="0.395257" stroke="black" stroke-width="1" fill="blue" opacity="1" tooltip="enable"><title>(0.080456,4)</title></rect><rect x="354" y="199.605" width="6" height="0.395257" stroke="black" stroke-width="1" fill="blue" opacity="1" tooltip="enable"><title>(0.0818432,4)</title></rect><rect x="360" y="198.913" width="6" height="1.08696" stroke="black" stroke-width="1" fill="blue" opacity="1" tooltip="enable"><title>(0.0832304,11)</title></rect><rect x="366" y="199.704" width="6" height="0.296443" stroke="black" stroke-width="1" fill="blue" opacity="1" tooltip="enable"><title>(0.0846175,3)</title></rect><rect x="372" y="199.012" width="6" height="0.988142" stroke="black" stroke-width="1" fill="blue" opacity="1" tooltip="enable"><title>(0.0860047,10)</title></rect><rect x="378" y="199.605" width="6" height="0.395257" stroke="black" stroke-width="1" fill="blue" opacity="1" tooltip="enable"><title>(0.0873919,4)</title></rect><rect x="384" y="199.407" width="6" height="0.592885" stroke="black" stroke-width="1" fill="blue" opacity="1" tooltip="enable"><title>(0.088779,6)</title></rect><rect x="390" y="200" width="6" height="0" stroke="black" stroke-width="1" fill="blue" opacity="1" tooltip="enable"><title>(0.0901662,0)</title></rect><rect x="396" y="200" width="6" height="0" stroke="black" stroke-width="1" fill="blue" opacity="1" tooltip="enable"><title>(0.0915534,0)</title></rect><rect x="402" y="200" width="6" height="0" stroke="black" stroke-width="1" fill="blue" opacity="1" tooltip="enable"><title>(0.0929406,0)</title></rect><rect x="408" y="200" width="6" height="0" stroke="black" stroke-width="1" fill="blue" opacity="1" tooltip="enable"><title>(0.0943277,0)</title></rect><rect x="414" y="199.802" width="6" height="0.197628" stroke="black" stroke-width="1" fill="blue" opacity="1" tooltip="enable"><title>(0.0957149,2)</title></rect><rect x="420" y="200" width="6" height="0" stroke="black" stroke-width="1" fill="blue" opacity="1" tooltip="enable"><title>(0.0971021,0)</title></rect><rect x="426" y="200" width="6" height="0" stroke="black" stroke-width="1" fill="blue" opacity="1" tooltip="enable"><title>(0.0984892,0)</title></rect><rect x="432" y="200" width="6" height="0" stroke="black" stroke-width="1" fill="blue" opacity="1" tooltip="enable"><title>(0.0998764,0)</title></rect><rect x="438" y="199.605" width="6" height="0.395257" stroke="black" stroke-width="1" fill="blue" opacity="1" tooltip="enable"><title>(0.101264,4)</title></rect><rect x="444" y="200" width="6" height="0" stroke="black" stroke-width="1" fill="blue" opacity="1" tooltip="enable"><title>(0.102651,0)</title></rect><rect x="450" y="200" width="6" height="0" stroke="black" stroke-width="1" fill="blue" opacity="1" tooltip="enable"><title>(0.104038,0)</title></rect><rect x="456" y="200" width="6" height="0" stroke="black" stroke-width="1" fill="blue" opacity="1" tooltip="enable"><title>(0.105425,0)</title></rect><rect x="462" y="199.605" width="6" height="0.395257" stroke="black" stroke-width="1" fill="blue" opacity="1" tooltip="enable"><title>(0.106812,4)</title></rect><rect x="468" y="200" width="6" height="0" stroke="black" stroke-width="1" fill="blue" opacity="1" tooltip="enable"><title>(0.108199,0)</title></rect><rect x="474" y="200" width="6" height="0" stroke="black" stroke-width="1" fill="blue" opacity="1" tooltip="enable"><title>(0.109587,0)</title></rect><rect x="480" y="200" width="6" height="0" stroke="black" stroke-width="1" fill="blue" opacity="1" tooltip="enable"><title>(0.110974,0)</title></rect><rect x="486" y="200" width="6" height="0" stroke="black" stroke-width="1" fill="blue" opacity="1" tooltip="enable"><title>(0.112361,0)</title></rect><rect x="492" y="199.802" width="6" height="0.197628" stroke="black" stroke-width="1" fill="blue" opacity="1" tooltip="enable"><title>(0.113748,2)</title></rect><rect x="498" y="200" width="6" height="0" stroke="black" stroke-width="1" fill="blue" opacity="1" tooltip="enable"><title>(0.115135,0)</title></rect><rect x="504" y="200" width="6" height="0" stroke="black" stroke-width="1" fill="blue" opacity="1" tooltip="enable"><title>(0.116522,0)</title></rect><rect x="510" y="199.802" width="6" height="0.197628" stroke="black" stroke-width="1" fill="blue" opacity="1" tooltip="enable"><title>(0.11791,2)</title></rect><rect x="516" y="200" width="6" height="0" stroke="black" stroke-width="1" fill="blue" opacity="1" tooltip="enable"><title>(0.119297,0)</title></rect><rect x="522" y="200" width="6" height="0" stroke="black" stroke-width="1" fill="blue" opacity="1" tooltip="enable"><title>(0.120684,0)</title></rect><rect x="528" y="200" width="6" height="0" stroke="black" stroke-width="1" fill="blue" opacity="1" tooltip="enable"><title>(0.122071,0)</title></rect><rect x="534" y="200" width="6" height="0" stroke="black" stroke-width="1" fill="blue" opacity="1" tooltip="enable"><title>(0.123458,0)</title></rect><rect x="540" y="200" width="6" height="0" stroke="black" stroke-width="1" fill="blue" opacity="1" tooltip="enable"><title>(0.124846,0)</title></rect><rect x="546" y="200" width="6" height="0" stroke="black" stroke-width="1" fill="blue" opacity="1" tooltip="enable"><title>(0.126233,0)</title></rect><rect x="552" y="200" width="6" height="0" stroke="black" stroke-width="1" fill="blue" opacity="1" tooltip="enable"><title>(0.12762,0)</title></rect><rect x="558" y="200" width="6" height="0" stroke="black" stroke-width="1" fill="blue" opacity="1" tooltip="enable"><title>(0.129007,0)</title></rect><rect x="564" y="200" width="6" height="0" stroke="black" stroke-width="1" fill="blue" opacity="1" tooltip="enable"><title>(0.130394,0)</title></rect><rect x="570" y="200" width="6" height="0" stroke="black" stroke-width="1" fill="blue" opacity="1" tooltip="enable"><title>(0.131781,0)</title></rect><rect x="576" y="199.802" width="6" height="0.197628" stroke="black" stroke-width="1" fill="blue" opacity="1" tooltip="enable"><title>(0.133169,2)</title></rect><rect x="582" y="199.802" width="6" height="0.197628" stroke="black" stroke-width="1" fill="blue" opacity="1" tooltip="enable"><title>(0.134556,2)</title></rect><rect x="588" y="200" width="6" height="0" stroke="black" stroke-width="1" fill="blue" opacity="1" tooltip="enable"><title>(0.135943,0)</title></rect><rect x="594" y="199.901" width="6" height="0.0988142" stroke="black" stroke-width="1" fill="blue" opacity="1" tooltip="enable"><title>(0.13733,1)</title></rect><text x="30" y="240" font-size="20" fill="black">0</text>
<text x="600" y="240" font-size="20" fill="black">0.138717</text>
<polyline points="0,220,600,220" stroke="black" stroke-width="1" fill="none" opacity="1"/>
<text x="720" y="20" font-size="20" fill="black">2024</text>
<text x="720" y="200" font-size="20" fill="black">0</text>
<polyline points="660,0,660,200" stroke="black" stroke-width="1" fill="none" opacity="1"/>
</svg>