<?xml version="1.0" standalone="yes"?>
<!-- SVG graphic -->
<svg xmlns='http://www.w3.org/2000/svg' xmlns:xlink='http://www.w3.org/1999/xlink'
 version="1.1">
<rect x="0" y="15.8097" width="6" height="184.19" stroke="black" stroke-width="1" fill="blue" opacity="1" tooltip="enable"><title>(0,1200)</title></rect><rect x="6" y="24.2517" width="6" height="175.748" stroke="black" stroke-width="1" fill="blue" opacity="1" tooltip="enable"><title>(0.00126697,1145)</title></rect><rect x="12" y="0" width="6" height="200" stroke="black" stroke-width="1" fill="blue" opacity="1" tooltip="enable"><title>(0.00253393,1303)</title></rect><rect x="18" y="122.64" width="6" height="77.3599" stroke="black" stroke-width="1" fill="blue" opacity="1" tooltip="enable"><title>(0.0038009,504)</title></rect><rect x="24" y="168.995" width="6" height="31.0054" stroke="black" stroke-width="1" fill="blue" opacity="1" tooltip="enable"><title>(0.00506787,202)</title></rect><rect x="30" y="170.837" width="6" height="29.1635" stroke="black" stroke-width="1" fill="blue" opacity="1" tooltip="enable"><title>(0.00633483,190)</title></rect><rect x="36" y="179.893" width="6" height="20.1074" stroke="black" stroke-width="1" fill="blue" opacity="1" tooltip="enable"><title>(0.0076018,131)</title></rect><rect x="42" y="185.265" width="6" height="14.7352" stroke="black" stroke-width="1" fill="blue" opacity="1" tooltip="enable"><title>(0.00886877,96)</title></rect><rect x="48" y="184.497" width="6" height="15.5027" stroke="black" stroke-width="1" fill="blue" opacity="1" tooltip="enable"><title>(0.0101357,101)</title></rect><rect x="54" y="184.344" width="6" height="15.6562" stroke="black" stroke-width="1" fill="blue" opacity="1" tooltip="enable"><title>(0.0114027,102)</title></rect><rect x="60" y="180.507" width="6" height="19.4935" stroke="black" stroke-width="1" fill="blue" opacity="1" tooltip="enable"><title>(0.0126697,127)</title></rect><rect x="66" y="181.274" width="6" height="18.726" stroke="black" stroke-width="1" fill="blue" opacity="1" tooltip="enable"><title>(0.0139366,122)</title></rect><rect x="72" y="186.646" width="6" height="13.3538" stroke="black" stroke-width="1" fill="blue" opacity="1" tooltip="enable"><title>(0.0152036,87)</title></rect><rect x="78" y="185.879" width="6" height="14.1213" stroke="black" stroke-width="1" fill="blue" opacity="1" tooltip="enable"><title>(0.0164706,92)</title></rect><rect x="84" y="187.414" width="6" height="12.5863" stroke="black" stroke-width="1" fill="blue" opacity="1" tooltip="enable"><title>(0.0177375,82)</title></rect><rect x="90" y="187.107" width="6" height="12.8933" stroke="black" stroke-width="1" fill="blue" opacity="1" tooltip="enable"><title>(0.0190045,84)</title></rect><rect x="96" y="183.883" width="6" height="16.1167" stroke="black" stroke-width="1" fill="blue" opacity="1" tooltip="enable"><title>(0.0202715,105)</title></rect><rect x="102" y="186.646" width="6" height="13.3538" stroke="black" stroke-width="1" fill="blue" opacity="1" tooltip="enable"><title>(0.0215384,87)</title></rect><rect x="108" y="186.493" width="6" height="13.5073" stroke="black" stroke-width="1" fill="blue" opacity="1" tooltip="enable"><title>(0.0228054,88)</title></rect><rect x="114" y="186.032" width="6" height="13.9678" stroke="black" stroke-width="1" fill="blue" opacity="1" tooltip="enable"><title>(0.0240724,91)</title></rect><rect x="120" y="179.586" width="6" height="20.4144" stroke="black" stroke-width="1" fill="blue" opacity="1" tooltip="enable"><title>(0.0253393,133)</title></rect><rect x="126" y="182.962" width="6" height="17.0376" stroke="black" stroke-width="1" fill="blue" opacity="1" tooltip="enable"><title>(0.0266063,111)</title></rect><rect x="132" y="178.358" width="6" height="21.6424" stroke="black" stroke-width="1" fill="blue" opacity="1" tooltip="enable"><title>(0.0278733,141)</title></rect><rect x="138" y="181.274" width="6" height="18.726" stroke="black" stroke-width="1" fill="blue" opacity="1" tooltip="enable"><title>(0.0291402,122)</title></rect><rect x="144" y="184.19" width="6" height="15.8097" stroke="black" stroke-width="1" fill="blue" opacity="1" tooltip="enable"><title>(0.0304072,103)</title></rect><rect x="150" y="184.497" width="6" height="15.5027" stroke="black" stroke-width="1" fill="blue" opacity="1" tooltip="enable"><title>(0.0316742,101)</title></rect><rect x="156" y="187.107" width="6" height="12.8933" stroke="black" stroke-width="1" fill="blue" opacity="1" tooltip="enable"><title>(0.0329411,84)</title></rect><rect x="162" y="181.274" width="6" height="18.726" stroke="black" stroke-width="1" fill="blue" opacity="1" tooltip="enable"><title>(0.0342081,122)</title></rect><rect x="168" y="189.102" width="6" height="10.8979" stroke="black" stroke-width="1" fill="blue" opacity="1" tooltip="enable"><title>(0.0354751,71)</title></rect><rect x="174" y="184.19" width="6" height="15.8097" stroke="black" stroke-width="1" fill="blue" opacity="1" tooltip="enable"><title>(0.036742,103)</title></rect><rect x="180" y="187.26" width="6" height="12.7398" stroke="black" stroke-width="1" fill="blue" opacity="1" tooltip="enable"><title>(0.038009,83)</title></rect><rect x="186" y="185.418" width="6" height="14.5817" stroke="black" stroke-width="1" fill="blue" opacity="1" tooltip="enable"><title>(0.039276,95)</title></rect><rect x="192" y="190.79" width="6" height="9.20952" stroke="black" stroke-width="1" fill="blue" opacity="1" tooltip="enable"><title>(0.0405429,60)</title></rect><rect x="198" y="187.567" width="6" height="12.4328" stroke="black" stroke-width="1" fill="blue" opacity="1" tooltip="enable"><title>(0.0418099,81)</title></rect><rect x="204" y="190.023" width="6" height="9.97698" stroke="black" stroke-width="1" fill="blue" opacity="1" tooltip="enable"><title>(0.0430769,65)</title></rect><rect x="210" y="190.944" width="6" height="9.05602" stroke="black" stroke-width="1" fill="blue" opacity="1" tooltip="enable"><title>(0.0443438,59)</title></rect><rect x="216" y="191.711" width="6" height="8.28856" stroke="black" stroke-width="1" fill="blue" opacity="1" tooltip="enable"><title>(0.0456108,54)</title></rect><rect x="222" y="190.944" width="6" height="9.05602" stroke="black" stroke-width="1" fill="blue" opacity="1" tooltip="enable"><title>(0.0468778,59)</title></rect><rect x="228" y="191.711" width="6" height="8.28856" stroke="black" stroke-width="1" fill="blue" opacity="1" tooltip="enable"><title>(0.0481447,54)</title></rect><rect x="234" y="193.553" width="6" height="6.44666" stroke="black" stroke-width="1" fill="blue" opacity="1" tooltip="enable"><title>(0.0494117,42)</title></rect><rect x="240" y="196.777" width="6" height="3.22333" stroke="black" stroke-width="1" fill="blue" opacity="1" tooltip="enable"><title>(0.0506787,21)</title></rect><rect x="246" y="196.777" width="6" height="3.22333" stroke="black" stroke-width="1" fill="blue" opacity="1" tooltip="enable"><title>(0.0519456,21)</title></rect><rect x="252" y="197.237" width="6" height="2.76286" stroke="black" stroke-width="1" fill="blue" opacity="1" tooltip="enable"><title>(0.0532126,18)</title></rect><rect x="258" y="196.009" width="6" height="3.99079" stroke="black" stroke-width="1" fill="blue" opacity="1" tooltip="enable"><title>(0.0544796,26)</title></rect><rect x="264" y="197.237" width="6" height="2.76286" stroke="black" stroke-width="1" fill="blue" opacity="1" tooltip="enable"><title>(0.0557465,18)</title></rect><rect x="270" y="198.619" width="6" height="1.38143" stroke="black" stroke-width="1" fill="blue" opacity="1" tooltip="enable"><title>(0.0570135,9)</title></rect><rect x="276" y="198.312" width="6" height="1.68841" stroke="black" stroke-width="1" fill="blue" opacity="1" tooltip="enable"><title>(0.0582805,11)</title></rect><rect x="282" y="199.079" width="6" height="0.920952" stroke="black" stroke-width="1" fill="blue" opacity="1" tooltip="enable"><title>(0.0595474,6)</title></rect><rect x="288" y="199.386" width="6" height="0.613968" stroke="black" stroke-width="1" fill="blue" opacity="1" tooltip="enable"><title>(0.0608144,4)</title></rect><rect x="294" y="198.465" width="6" height="1.53492" stroke="black" stroke-width="1" fill="blue" opacity="1" tooltip="enable"><title>(0.0620814,10)</title></rect><rect x="300" y="197.851" width="6" height="2.14889" stroke="black" stroke-width="1" fill="blue" opacity="1" tooltip="enable"><title>(0.0633483,14)</title></rect><rect x="306" y="198.926" width="6" height="1.07444" stroke="black" stroke-width="1" fill="blue" opacity="1" tooltip="enable"><title>(0.0646153,7)</title></rect><rect x="312" y="197.698" width="6" height="2.30238" stroke="black" stroke-width="1" fill="blue" opacity="1" tooltip="enable"><title>(0.0658823,15)</title></rect><rect x="318" y="199.079" width="6" height="0.920952" stroke="black" stroke-width="1" fill="blue" opacity="1" tooltip="enable"><title>(0.0671492,6)</title></rect><rect x="324" y="199.079" width="6" height="0.920952" stroke="black" stroke-width="1" fill="blue" opacity="1" tooltip="enable"><title>(0.0684162,6)</title></rect><rect x="330" y="199.386" width="6" height="0.613968" stroke="black" stroke-width="1" fill="blue" opacity="1" tooltip="enable"><title>(0.0696832,4)</title></rect><rect x="336" y="198.772" width="6" height="1.22794" stroke="black" stroke-width="1" fill="blue" opacity="1" tooltip="enable"><title>(0.0709501,8)</title></rect><rect x="342" y="198.926" width="6" height="1.07444" stroke="black" stroke-width="1" fill="blue" opacity="1" tooltip="enable"><title>(0.0722171,7)</title></rect><rect x="348" y="199.54" width="6" height="0.460476" stroke="black" stroke-width="1" fill="blue" opacity="1" tooltip="enable"><title>(0.0734841,3)</title></rect><rect x="354" y="197.544" width="6" height="2.45587" stroke="black" stroke-width="1" fill="blue" opacity="1" tooltip="enable"><title>(0.074751,16)</title></rect><rect x="360" y="199.233" width="6" height="0.76746" stroke="black" stroke-width="1" fill="blue" opacity="1" tooltip="enable"><title>(0.076018,5)</title></rect><rect x="366" y="199.233" width="6" height="0.76746" stroke="black" stroke-width="1" fill="blue" opacity="1" tooltip="enable"><title>(0.077285,5)</title></rect><rect x="372" y="199.693" width="6" height="0.306984" stroke="black" stroke-width="1" fill="blue" opacity="1" tooltip="enable"><title>(0.0785519,2)</title></rect><rect x="378" y="199.693" width="6" height="0.306984" stroke="black" stroke-width="1" fill="blue" opacity="1" tooltip="enable"><title>(0.0798189,2)</title></rect><rect x="384" y="199.386" width="6" height="0.613968" stroke="black" stroke-width="1" fill="blue" opacity="1" tooltip="enable"><title>(0.0810859,4)</title></rect><rect x="390" y="200" width="6" height="0" stroke="black" stroke-width="1" fill="blue" opacity="1" tooltip="enable"><title>(0.0823528,0)</title></rect><rect x="396" y="199.693" width="6" height="0.306984" stroke="black" stroke-width="1" fill="blue" opacity="1" tooltip="enable"><title>(0.0836198,2)</title></rect><rect x="402" y="198.772" width="6" height="1.22794" stroke="black" stroke-width="1" fill="blue" opacity="1" tooltip="enable"><title>(0.0848868,8)</title></rect><rect x="408" y="198.772" width="6" height="1.22794" stroke="black" stroke-width="1" fill="blue" opacity="1" tooltip="enable"><title>(0.0861537,8)</title></rect><rect x="414" y="199.079" width="6" height="0.920952" stroke="black" stroke-width="1" fill="blue" opacity="1" tooltip="enable"><title>(0.0874207,6)</title></rect><rect x="420" y="199.693" width="6" height="0.306984" stroke="black" stroke-width="1" fill="blue" opacity="1" tooltip="enable"><title>(0.0886877,2)</title></rect><rect x="426" y="200" width="6" height="0" stroke="black" stroke-width="1" fill="blue" opacity="1" tooltip="enable"><title>(0.0899546,0)</title></rect><rect x="432" y="199.386" width="6" height="0.613968" stroke="black" stroke-width="1" fill="blue" opacity="1" tooltip="enable"><title>(0.0912216,4)</title></rect><rect x="438" y="198.465" width="6" height="1.53492" stroke="black" stroke-width="1" fill="blue" opacity="1" tooltip="enable"><title>(0.0924886,10)</title></rect><rect x="444" y="199.693" width="6" height="0.306984" stroke="black" stroke-width="1" fill="blue" opacity="1" tooltip="enable"><title>(0.0937555,2)</title></rect><rect x="450" y="199.693" width="6" height="0.306984" stroke="black" stroke-width="1" fill="blue" opacity="1" tooltip="enable"><title>(0.0950225,2)</title></rect><rect x="456" y="200" width="6" height="0" stroke="black" stroke-width="1" fill="blue" opacity="1" tooltip="enable"><title>(0.0962895,0)</title></rect><rect x="462" y="199.693" width="6" height="0.306984" stroke="black" stroke-width="1" fill="blue" opacity="1" tooltip="enable"><title>(0.0975564,2)</title></rect><rect x="468" y="199.693" width="6" height="0.306984" stroke="black" stroke-width="1" fill="blue" opacity="1" tooltip="enable"><title>(0.0988234,2)</title></rect><rect x="474" y="200" width="6" height="0" stroke="black" stroke-width="1" fill="blue" opacity="1" tooltip="enable"><title>(0.10009,0)</title></rect><rect x="480" y="200" width="6" height="0" stroke="black" stroke-width="1" fill="blue" opacity="1" tooltip="enable"><title>(0.101357,0)</title></rect><rect x="486" y="200" width="6" height="0" stroke="black" stroke-width="1" fill="blue" opacity="1" tooltip="enable"><title>(0.102624,0)</title></rect><rect x="492" y="200" width="6" height="0" stroke="black" stroke-width="1" fill="blue" opacity="1" tooltip="enable"><title>(0.103891,0)</title></rect><rect x="498" y="199.693" width="6" height="0.306984" stroke="black" stroke-width="1" fill="blue" opacity="1" tooltip="enable"><title>(0.105158,2)</title></rect><rect x="504" y="199.693" width="6" height="0.306984" stroke="black" stroke-width="1" fill="blue" opacity="1" tooltip="enable"><title>(0.106425,2)</title></rect><rect x="510" y="199.693" width="6" height="0.306984" stroke="black" stroke-width="1" fill="blue" opacity="1" tooltip="enable"><title>(0.107692,2)</title></rect><rect x="516" y="200" width="6" height="0" stroke="black" stroke-width="1" fill="blue" opacity="1" tooltip="enable"><title>(0.108959,0)</title></rect><rect x="522" y="199.693" width="6" height="0.306984" stroke="black" stroke-width="1" fill="blue" opacity="1" tooltip="enable"><title>(0.110226,2)</title></rect><rect x="528" y="200" width="6" height="0" stroke="black" stroke-width="1" fill="blue" opacity="1" tooltip="enable"><title>(0.111493,0)</title></rect><rect x="534" y="199.079" width="6" height="0.920952" stroke="black" stroke-width="1" fill="blue" opacity="1" tooltip="enable"><title>(0.11276,6)</title></rect><rect x="540" y="200" width="6" height="0" stroke="black" stroke-width="1" fill="blue" opacity="1" tooltip="enable"><title>(0.114027,0)</title></rect><rect x="546" y="199.693" width="6" height="0.306984" stroke="black" stroke-width="1" fill="blue" opacity="1" tooltip="enable"><title>(0.115294,2)</title></rect><rect x="552" y="199.693" width="6" height="0.306984" stroke="black" stroke-width="1" fill="blue" opacity="1" tooltip="enable"><title>(0.116561,2)</title></rect><rect x="558" y="200" width="6" height="0" stroke="black" stroke-width="1" fill="blue" opacity="1" tooltip="enable"><title>(0.117828,0)</title></rect><rect x="564" y="199.693" width="6" height="0.306984" stroke="black" stroke-width="1" fill="blue" opacity="1" tooltip="enable"><title>(0.119095,2)</title></rect><rect x="570" y="200" width="6" height="0" stroke="black" stroke-width="1" fill="blue" opacity="1" tooltip="enable"><title>(0.120362,0)</title></rect><rect x="576" y="200" width="6" height="0" stroke="black" stroke-width="1" fill="blue" opacity="1" tooltip="enable"><title>(0.121629,0)</title></rect><rect x="582" y="200" width="6" height="0" stroke="black" stroke-width="1" fill="blue" opacity="1" tooltip="enable"><title>(0.122896,0)</title></rect><rect x="588" y="200" width="6" height="0" stroke="black" stroke-width="1" fill="blue" opacity="1" tooltip="enable"><title>(0.124163,0)</title></rect><rect x="594" y="199.847" width="6" height="0.153492" stroke="black" stroke-width="1" fill="blue" opacity="1" tooltip="enable"><title>(0.12543,1)</title></rect><text x="30" y="240" font-size="20" fill="black">0</text>
<text x="600" y="240" font-size="20" fill="black">0.126697</text>
<polyline points="0,220,600,220" stroke="black" stroke-width="1" fill="none" opacity="1"/>
<text x="720" y="20" font-size="20" fill="black">1303</text>
<text x="720" y="200" font-size="20" fill="black">0</text>
<polyline points="660,0,660,200" stroke="black" stroke-width="1" fill="none" opacity="1"/>
</svg>