<?xml version="1.0" standalone="yes"?>
<!-- SVG graphic -->
<svg xmlns='http://www.w3.org/2000/svg' xmlns:xlink='http://www.w3.org/1999/xlink'
 version="1.1">
<rect x="0" y="0" width="6" height="200" stroke="black" stroke-width="1" fill="blue" opacity="1" tooltip="enable"><title>(0,4271)</title></rect><rect x="6" y="185.249" width="6" height="14.7506" stroke="black" stroke-width="1" fill="blue" opacity="1" tooltip="enable"><title>(0.00128278,315)</title></rect><rect x="12" y="188.996" width="6" height="11.0044" stroke="black" stroke-width="1" fill="blue" opacity="1" tooltip="enable"><title>(0.00256555,235)</title></rect><rect x="18" y="188.715" width="6" height="11.2854" stroke="black" stroke-width="1" fill="blue" opacity="1" tooltip="enable"><title>(0.00384833,241)</title></rect><rect x="24" y="187.169" width="6" height="12.8307" stroke="black" stroke-width="1" fill="blue" opacity="1" tooltip="enable"><title>(0.00513111,274)</title></rect><rect x="30" y="189.511" width="6" height="10.4893" stroke="black" stroke-width="1" fill="blue" opacity="1" tooltip="enable"><title>(0.00641388,224)</title></rect><rect x="36" y="189.417" width="6" height="10.583" stroke="black" stroke-width="1" fill="blue" opacity="1" tooltip="enable"><title>(0.00769666,226)</title></rect><rect x="42" y="190.447" width="6" height="9.5528" stroke="black" stroke-width="1" fill="blue" opacity="1" tooltip="enable"><title>(0.00897944,204)</title></rect><rect x="48" y="192.133" width="6" height="7.86701" stroke="black" stroke-width="1" fill="blue" opacity="1" tooltip="enable"><title>(0.0102622,168)</title></rect><rect x="54" y="192.882" width="6" height="7.11777" stroke="black" stroke-width="1" fill="blue" opacity="1" tooltip="enable"><title>(0.011545,152)</title></rect><rect x="60" y="191.618" width="6" height="8.38211" stroke="black" stroke-width="1" fill="blue" opacity="1" tooltip="enable"><title>(0.0128278,179)</title></rect><rect x="66" y="190.962" width="6" height="9.0377" stroke="black" stroke-width="1" fill="blue" opacity="1" tooltip="enable"><title>(0.0141105,193)</title></rect><rect x="72" y="192.976" width="6" height="7.02412" stroke="black" stroke-width="1" fill="blue" opacity="1" tooltip="enable"><title>(0.0153933,150)</title></rect><rect x="78" y="192.086" width="6" height="7.91384" stroke="black" stroke-width="1" fill="blue" opacity="1" tooltip="enable"><title>(0.0166761,169)</title></rect><rect x="84" y="193.397" width="6" height="6.60267" stroke="black" stroke-width="1" fill="blue" opacity="1" tooltip="enable"><title>(0.0179589,141)</title></rect><rect x="90" y="194.708" width="6" height="5.2915" stroke="black" stroke-width="1" fill="blue" opacity="1" tooltip="enable"><title>(0.0192416,113)</title></rect><rect x="96" y="194.989" width="6" height="5.01054" stroke="black" stroke-width="1" fill="blue" opacity="1" tooltip="enable"><title>(0.0205244,107)</title></rect><rect x="102" y="194.1" width="6" height="5.90026" stroke="black" stroke-width="1" fill="blue" opacity="1" tooltip="enable"><title>(0.0218072,126)</title></rect><rect x="108" y="196.535" width="6" height="3.46523" stroke="black" stroke-width="1" fill="blue" opacity="1" tooltip="enable"><title>(0.02309,74)</title></rect><rect x="114" y="196.628" width="6" height="3.37158" stroke="black" stroke-width="1" fill="blue" opacity="1" tooltip="enable"><title>(0.0243728,72)</title></rect><rect x="120" y="197.565" width="6" height="2.43503" stroke="black" stroke-width="1" fill="blue" opacity="1" tooltip="enable"><title>(0.0256555,52)</title></rect><rect x="126" y="197.94" width="6" height="2.06041" stroke="black" stroke-width="1" fill="blue" opacity="1" tooltip="enable"><title>(0.0269383,44)</title></rect><rect x="132" y="197.378" width="6" height="2.62234" stroke="black" stroke-width="1" fill="blue" opacity="1" tooltip="enable"><title>(0.0282211,56)</title></rect><rect x="138" y="198.314" width="6" height="1.68579" stroke="black" stroke-width="1" fill="blue" opacity="1" tooltip="enable"><title>(0.0295039,36)</title></rect><rect x="144" y="198.876" width="6" height="1.12386" stroke="black" stroke-width="1" fill="blue" opacity="1" tooltip="enable"><title>(0.0307866,24)</title></rect><rect x="150" y="199.063" width="6" height="0.936549" stroke="black" stroke-width="1" fill="blue" opacity="1" tooltip="enable"><title>(0.0320694,20)</title></rect><rect x="156" y="198.782" width="6" height="1.21751" stroke="black" stroke-width="1" fill="blue" opacity="1" tooltip="enable"><title>(0.0333522,26)</title></rect><rect x="162" y="199.251" width="6" height="0.749239" stroke="black" stroke-width="1" fill="blue" opacity="1" tooltip="enable"><title>(0.034635,16)</title></rect><rect x="168" y="199.719" width="6" height="0.280965" stroke="black" stroke-width="1" fill="blue" opacity="1" tooltip="enable"><title>(0.0359177,6)</title></rect><rect x="174" y="199.532" width="6" height="0.468274" stroke="black" stroke-width="1" fill="blue" opacity="1" tooltip="enable"><title>(0.0372005,10)</title></rect><rect x="180" y="199.625" width="6" height="0.37462" stroke="black" stroke-width="1" fill="blue" opacity="1" tooltip="enable"><title>(0.0384833,8)</title></rect><rect x="186" y="199.906" width="6" height="0.0936549" stroke="black" stroke-width="1" fill="blue" opacity="1" tooltip="enable"><title>(0.0397661,2)</title></rect><rect x="192" y="199.906" width="6" height="0.0936549" stroke="black" stroke-width="1" fill="blue" opacity="1" tooltip="enable"><title>(0.0410488,2)</title></rect><rect x="198" y="199.719" width="6" height="0.280965" stroke="black" stroke-width="1" fill="blue" opacity="1" tooltip="enable"><title>(0.0423316,6)</title></rect><rect x="204" y="199.813" width="6" height="0.18731" stroke="black" stroke-width="1" fill="blue" opacity="1" tooltip="enable"><title>(0.0436144,4)</title></rect><rect x="210" y="200" width="6" height="0" stroke="black" stroke-width="1" fill="blue" opacity="1" tooltip="enable"><title>(0.0448972,0)</title></rect><rect x="216" y="200" width="6" height="0" stroke="black" stroke-width="1" fill="blue" opacity="1" tooltip="enable"><title>(0.04618,0)</title></rect><rect x="222" y="199.813" width="6" height="0.18731" stroke="black" stroke-width="1" fill="blue" opacity="1" tooltip="enable"><title>(0.0474627,4)</title></rect><rect x="228" y="200" width="6" height="0" stroke="black" stroke-width="1" fill="blue" opacity="1" tooltip="enable"><title>(0.0487455,0)</title></rect><rect x="234" y="199.813" width="6" height="0.18731" stroke="black" stroke-width="1" fill="blue" opacity="1" tooltip="enable"><title>(0.0500283,4)</title></rect><rect x="240" y="200" width="6" height="0" stroke="black" stroke-width="1" fill="blue" opacity="1" tooltip="enable"><title>(0.0513111,0)</title></rect><rect x="246" y="199.813" width="6" height="0.18731" stroke="black" stroke-width="1" fill="blue" opacity="1" tooltip="enable"><title>(0.0525938,4)</title></rect><rect x="252" y="200" width="6" height="0" stroke="black" stroke-width="1" fill="blue" opacity="1" tooltip="enable"><title>(0.0538766,0)</title></rect><rect x="258" y="199.813" width="6" height="0.18731" stroke="black" stroke-width="1" fill="blue" opacity="1" tooltip="enable"><title>(0.0551594,4)</title></rect><rect x="264" y="199.813" width="6" height="0.18731" stroke="black" stroke-width="1" fill="blue" opacity="1" tooltip="enable"><title>(0.0564422,4)</title></rect><rect x="270" y="200" width="6" height="0" stroke="black" stroke-width="1" fill="blue" opacity="1" tooltip="enable"><title>(0.0577249,0)</title></rect><rect x="276" y="200" width="6" height="0" stroke="black" stroke-width="1" fill="blue" opacity="1" tooltip="enable"><title>(0.0590077,0)</title></rect><rect x="282" y="199.86" width="6" height="0.140482" stroke="black" stroke-width="1" fill="blue" opacity="1" tooltip="enable"><title>(0.0602905,3)</title></rect><rect x="288" y="199.86" width="6" height="0.140482" stroke="black" stroke-width="1" fill="blue" opacity="1" tooltip="enable"><title>(0.0615733,3)</title></rect><rect x="294" y="200" width="6" height="0" stroke="black" stroke-width="1" fill="blue" opacity="1" tooltip="enable"><title>(0.062856,0)</title></rect><rect x="300" y="199.906" width="6" height="0.0936549" stroke="black" stroke-width="1" fill="blue" opacity="1" tooltip="enable"><title>(0.0641388,2)</title></rect><rect x="306" y="200" width="6" height="0" stroke="black" stroke-width="1" fill="blue" opacity="1" tooltip="enable"><title>(0.0654216,0)</title></rect><rect x="312" y="199.813" width="6" height="0.18731" stroke="black" stroke-width="1" fill="blue" opacity="1" tooltip="enable"><title>(0.0667044,4)</title></rect><rect x="318" y="199.906" width="6" height="0.0936549" stroke="black" stroke-width="1" fill="blue" opacity="1" tooltip="enable"><title>(0.0679872,2)</title></rect><rect x="324" y="200" width="6" height="0" stroke="black" stroke-width="1" fill="blue" opacity="1" tooltip="enable"><title>(0.0692699,0)</title></rect><rect x="330" y="200" width="6" height="0" stroke="black" stroke-width="1" fill="blue" opacity="1" tooltip="enable"><title>(0.0705527,0)</title></rect><rect x="336" y="200" width="6" height="0" stroke="black" stroke-width="1" fill="blue" opacity="1" tooltip="enable"><title>(0.0718355,0)</title></rect><rect x="342" y="200" width="6" height="0" stroke="black" stroke-width="1" fill="blue" opacity="1" tooltip="enable"><title>(0.0731183,0)</title></rect><rect x="348" y="199.906" width="6" height="0.0936549" stroke="black" stroke-width="1" fill="blue" opacity="1" tooltip="enable"><title>(0.074401,2)</title></rect><rect x="354" y="199.813" width="6" height="0.18731" stroke="black" stroke-width="1" fill="blue" opacity="1" tooltip="enable"><title>(0.0756838,4)</title></rect><rect x="360" y="199.813" width="6" height="0.18731" stroke="black" stroke-width="1" fill="blue" opacity="1" tooltip="enable"><title>(0.0769666,4)</title></rect><rect x="366" y="199.906" width="6" height="0.0936549" stroke="black" stroke-width="1" fill="blue" opacity="1" tooltip="enable"><title>(0.0782494,2)</title></rect><rect x="372" y="200" width="6" height="0" stroke="black" stroke-width="1" fill="blue" opacity="1" tooltip="enable"><title>(0.0795321,0)</title></rect><rect x="378" y="200" width="6" height="0" stroke="black" stroke-width="1" fill="blue" opacity="1" tooltip="enable"><title>(0.0808149,0)</title></rect><rect x="384" y="200" width="6" height="0" stroke="black" stroke-width="1" fill="blue" opacity="1" tooltip="enable"><title>(0.0820977,0)</title></rect><rect x="390" y="200" width="6" height="0" stroke="black" stroke-width="1" fill="blue" opacity="1" tooltip="enable"><title>(0.0833805,0)</title></rect><rect x="396" y="200" width="6" height="0" stroke="black" stroke-width="1" fill="blue" opacity="1" tooltip="enable"><title>(0.0846632,0)</title></rect><rect x="402" y="200" width="6" height="0" stroke="black" stroke-width="1" fill="blue" opacity="1" tooltip="enable"><title>(0.085946,0)</title></rect><rect x="408" y="200" width="6" height="0" stroke="black" stroke-width="1" fill="blue" opacity="1" tooltip="enable"><title>(0.0872288,0)</title></rect><rect x="414" y="200" width="6" height="0" stroke="black" stroke-width="1" fill="blue" opacity="1" tooltip="enable"><title>(0.0885116,0)</title></rect><rect x="420" y="200" width="6" height="0" stroke="black" stroke-width="1" fill="blue" opacity="1" tooltip="enable"><title>(0.0897944,0)</title></rect><rect x="426" y="200" width="6" height="0" stroke="black" stroke-width="1" fill="blue" opacity="1" tooltip="enable"><title>(0.0910771,0)</title></rect><rect x="432" y="200" width="6" height="0" stroke="black" stroke-width="1" fill="blue" opacity="1" tooltip="enable"><title>(0.0923599,0)</title></rect><rect x="438" y="200" width="6" height="0" stroke="black" stroke-width="1" fill="blue" opacity="1" tooltip="enable"><title>(0.0936427,0)</title></rect><rect x="444" y="200" width="6" height="0" stroke="black" stroke-width="1" fill="blue" opacity="1" tooltip="enable"><title>(0.0949255,0)</title></rect><rect x="450" y="200" width="6" height="0" stroke="black" stroke-width="1" fill="blue" opacity="1" tooltip="enable"><title>(0.0962082,0)</title></rect><rect x="456" y="200" width="6" height="0" stroke="black" stroke-width="1" fill="blue" opacity="1" tooltip="enable"><title>(0.097491,0)</title></rect><rect x="462" y="199.906" width="6" height="0.0936549" stroke="black" stroke-width="1" fill="blue" opacity="1" tooltip="enable"><title>(0.0987738,2)</title></rect><rect x="468" y="200" width="6" height="0" stroke="black" stroke-width="1" fill="blue" opacity="1" tooltip="enable"><title>(0.100057,0)</title></rect><rect x="474" y="200" width="6" height="0" stroke="black" stroke-width="1" fill="blue" opacity="1" tooltip="enable"><title>(0.101339,0)</title></rect><rect x="480" y="200" width="6" height="0" stroke="black" stroke-width="1" fill="blue" opacity="1" tooltip="enable"><title>(0.102622,0)</title></rect><rect x="486" y="200" width="6" height="0" stroke="black" stroke-width="1" fill="blue" opacity="1" tooltip="enable"><title>(0.103905,0)</title></rect><rect x="492" y="200" width="6" height="0" stroke="black" stroke-width="1" fill="blue" opacity="1" tooltip="enable"><title>(0.105188,0)</title></rect><rect x="498" y="199.906" width="6" height="0.0936549" stroke="black" stroke-width="1" fill="blue" opacity="1" tooltip="enable"><title>(0.10647,2)</title></rect><rect x="504" y="200" width="6" height="0" stroke="black" stroke-width="1" fill="blue" opacity="1" tooltip="enable"><title>(0.107753,0)</title></rect><rect x="510" y="200" width="6" height="0" stroke="black" stroke-width="1" fill="blue" opacity="1" tooltip="enable"><title>(0.109036,0)</title></rect><rect x="516" y="200" width="6" height="0" stroke="black" stroke-width="1" fill="blue" opacity="1" tooltip="enable"><title>(0.110319,0)</title></rect><rect x="522" y="200" width="6" height="0" stroke="black" stroke-width="1" fill="blue" opacity="1" tooltip="enable"><title>(0.111602,0)</title></rect><rect x="528" y="200" width="6" height="0" stroke="black" stroke-width="1" fill="blue" opacity="1" tooltip="enable"><title>(0.112884,0)</title></rect><rect x="534" y="200" width="6" height="0" stroke="black" stroke-width="1" fill="blue" opacity="1" tooltip="enable"><title>(0.114167,0)</title></rect><rect x="540" y="200" width="6" height="0" stroke="black" stroke-width="1" fill="blue" opacity="1" tooltip="enable"><title>(0.11545,0)</title></rect><rect x="546" y="200" width="6" height="0" stroke="black" stroke-width="1" fill="blue" opacity="1" tooltip="enable"><title>(0.116733,0)</title></rect><rect x="552" y="200" width="6" height="0" stroke="black" stroke-width="1" fill="blue" opacity="1" tooltip="enable"><title>(0.118015,0)</title></rect><rect x="558" y="200" width="6" height="0" stroke="black" stroke-width="1" fill="blue" opacity="1" tooltip="enable"><title>(0.119298,0)</title></rect><rect x="564" y="200" width="6" height="0" stroke="black" stroke-width="1" fill="blue" opacity="1" tooltip="enable"><title>(0.120581,0)</title></rect><rect x="570" y="200" width="6" height="0" stroke="black" stroke-width="1" fill="blue" opacity="1" tooltip="enable"><title>(0.121864,0)</title></rect><rect x="576" y="200" width="6" height="0" stroke="black" stroke-width="1" fill="blue" opacity="1" tooltip="enable"><title>(0.123147,0)</title></rect><rect x="582" y="200" width="6" height="0" stroke="black" stroke-width="1" fill="blue" opacity="1" tooltip="enable"><title>(0.124429,0)</title></rect><rect x="588" y="199.906" width="6" height="0.0936549" stroke="black" stroke-width="1" fill="blue" opacity="1" tooltip="enable"><title>(0.125712,2)</title></rect><rect x="594" y="199.953" width="6" height="0.0468274" stroke="black" stroke-width="1" fill="blue" opacity="1" tooltip="enable"><title>(0.126995,1)</title></rect><text x="30" y="240" font-size="20" fill="black">0</text>
<text x="600" y="240" font-size="20" fill="black">0.128278</text>
<polyline points="0,220,600,220" stroke="black" stroke-width="1" fill="none" opacity="1"/>
<text x="720" y="20" font-size="20" fill="black">4271</text>
<text x="720" y="200" font-size="20" fill="black">0</text>
<polyline points="660,0,660,200" stroke="black" stroke-width="1" fill="none" opacity="1"/>
</svg>