<?xml version="1.0" standalone="yes"?>
<!-- SVG graphic -->
<svg xmlns='http://www.w3.org/2000/svg' xmlns:xlink='http://www.w3.org/1999/xlink'
 version="1.1">
<rect x="0" y="0" width="6" height="200" stroke="black" stroke-width="1" fill="blue" opacity="1" tooltip="enable"><title>(0,3961)</title></rect><rect x="6" y="175.36" width="6" height="24.6402" stroke="black" stroke-width="1" fill="blue" opacity="1" tooltip="enable"><title>(0.00184632,488)</title></rect><rect x="12" y="189.952" width="6" height="10.048" stroke="black" stroke-width="1" fill="blue" opacity="1" tooltip="enable"><title>(0.00369264,199)</title></rect><rect x="18" y="190.911" width="6" height="9.08861" stroke="black" stroke-width="1" fill="blue" opacity="1" tooltip="enable"><title>(0.00553897,180)</title></rect><rect x="24" y="189.902" width="6" height="10.0985" stroke="black" stroke-width="1" fill="blue" opacity="1" tooltip="enable"><title>(0.00738529,200)</title></rect><rect x="30" y="189.498" width="6" height="10.5024" stroke="black" stroke-width="1" fill="blue" opacity="1" tooltip="enable"><title>(0.00923161,208)</title></rect><rect x="36" y="192.729" width="6" height="7.27089" stroke="black" stroke-width="1" fill="blue" opacity="1" tooltip="enable"><title>(0.0110779,144)</title></rect><rect x="42" y="193.335" width="6" height="6.66498" stroke="black" stroke-width="1" fill="blue" opacity="1" tooltip="enable"><title>(0.0129243,132)</title></rect><rect x="48" y="191.82" width="6" height="8.17975" stroke="black" stroke-width="1" fill="blue" opacity="1" tooltip="enable"><title>(0.0147706,162)</title></rect><rect x="54" y="192.527" width="6" height="7.47286" stroke="black" stroke-width="1" fill="blue" opacity="1" tooltip="enable"><title>(0.0166169,148)</title></rect><rect x="60" y="193.537" width="6" height="6.46301" stroke="black" stroke-width="1" fill="blue" opacity="1" tooltip="enable"><title>(0.0184632,128)</title></rect><rect x="66" y="191.568" width="6" height="8.43221" stroke="black" stroke-width="1" fill="blue" opacity="1" tooltip="enable"><title>(0.0203095,167)</title></rect><rect x="72" y="193.537" width="6" height="6.46301" stroke="black" stroke-width="1" fill="blue" opacity="1" tooltip="enable"><title>(0.0221559,128)</title></rect><rect x="78" y="193.083" width="6" height="6.91745" stroke="black" stroke-width="1" fill="blue" opacity="1" tooltip="enable"><title>(0.0240022,137)</title></rect><rect x="84" y="194.345" width="6" height="5.65514" stroke="black" stroke-width="1" fill="blue" opacity="1" tooltip="enable"><title>(0.0258485,112)</title></rect><rect x="90" y="192.123" width="6" height="7.8768" stroke="black" stroke-width="1" fill="blue" opacity="1" tooltip="enable"><title>(0.0276948,156)</title></rect><rect x="96" y="196.062" width="6" height="3.9384" stroke="black" stroke-width="1" fill="blue" opacity="1" tooltip="enable"><title>(0.0295412,78)</title></rect><rect x="102" y="192.275" width="6" height="7.72532" stroke="black" stroke-width="1" fill="blue" opacity="1" tooltip="enable"><title>(0.0313875,153)</title></rect><rect x="108" y="193.587" width="6" height="6.41252" stroke="black" stroke-width="1" fill="blue" opacity="1" tooltip="enable"><title>(0.0332338,127)</title></rect><rect x="114" y="193.638" width="6" height="6.36203" stroke="black" stroke-width="1" fill="blue" opacity="1" tooltip="enable"><title>(0.0350801,126)</title></rect><rect x="120" y="194.143" width="6" height="5.85711" stroke="black" stroke-width="1" fill="blue" opacity="1" tooltip="enable"><title>(0.0369264,116)</title></rect><rect x="126" y="194.951" width="6" height="5.04923" stroke="black" stroke-width="1" fill="blue" opacity="1" tooltip="enable"><title>(0.0387728,100)</title></rect><rect x="132" y="195.254" width="6" height="4.74628" stroke="black" stroke-width="1" fill="blue" opacity="1" tooltip="enable"><title>(0.0406191,94)</title></rect><rect x="138" y="197.172" width="6" height="2.82757" stroke="black" stroke-width="1" fill="blue" opacity="1" tooltip="enable"><title>(0.0424654,56)</title></rect><rect x="144" y="197.425" width="6" height="2.57511" stroke="black" stroke-width="1" fill="blue" opacity="1" tooltip="enable"><title>(0.0443117,51)</title></rect><rect x="150" y="196.617" width="6" height="3.38298" stroke="black" stroke-width="1" fill="blue" opacity="1" tooltip="enable"><title>(0.046158,67)</title></rect><rect x="156" y="197.374" width="6" height="2.6256" stroke="black" stroke-width="1" fill="blue" opacity="1" tooltip="enable"><title>(0.0480044,52)</title></rect><rect x="162" y="198.283" width="6" height="1.71674" stroke="black" stroke-width="1" fill="blue" opacity="1" tooltip="enable"><title>(0.0498507,34)</title></rect><rect x="168" y="198.182" width="6" height="1.81772" stroke="black" stroke-width="1" fill="blue" opacity="1" tooltip="enable"><title>(0.051697,36)</title></rect><rect x="174" y="198.031" width="6" height="1.9692" stroke="black" stroke-width="1" fill="blue" opacity="1" tooltip="enable"><title>(0.0535433,39)</title></rect><rect x="180" y="198.435" width="6" height="1.56526" stroke="black" stroke-width="1" fill="blue" opacity="1" tooltip="enable"><title>(0.0553897,31)</title></rect><rect x="186" y="198.687" width="6" height="1.3128" stroke="black" stroke-width="1" fill="blue" opacity="1" tooltip="enable"><title>(0.057236,26)</title></rect><rect x="192" y="199.192" width="6" height="0.807877" stroke="black" stroke-width="1" fill="blue" opacity="1" tooltip="enable"><title>(0.0590823,16)</title></rect><rect x="198" y="198.687" width="6" height="1.3128" stroke="black" stroke-width="1" fill="blue" opacity="1" tooltip="enable"><title>(0.0609286,26)</title></rect><rect x="204" y="199.293" width="6" height="0.706892" stroke="black" stroke-width="1" fill="blue" opacity="1" tooltip="enable"><title>(0.0627749,14)</title></rect><rect x="210" y="199.394" width="6" height="0.605908" stroke="black" stroke-width="1" fill="blue" opacity="1" tooltip="enable"><title>(0.0646213,12)</title></rect><rect x="216" y="199.142" width="6" height="0.858369" stroke="black" stroke-width="1" fill="blue" opacity="1" tooltip="enable"><title>(0.0664676,17)</title></rect><rect x="222" y="199.546" width="6" height="0.454431" stroke="black" stroke-width="1" fill="blue" opacity="1" tooltip="enable"><title>(0.0683139,9)</title></rect><rect x="228" y="199.394" width="6" height="0.605908" stroke="black" stroke-width="1" fill="blue" opacity="1" tooltip="enable"><title>(0.0701602,12)</title></rect><rect x="234" y="199.495" width="6" height="0.504923" stroke="black" stroke-width="1" fill="blue" opacity="1" tooltip="enable"><title>(0.0720066,10)</title></rect><rect x="240" y="199.798" width="6" height="0.201969" stroke="black" stroke-width="1" fill="blue" opacity="1" tooltip="enable"><title>(0.0738529,4)</title></rect><rect x="246" y="199.293" width="6" height="0.706892" stroke="black" stroke-width="1" fill="blue" opacity="1" tooltip="enable"><title>(0.0756992,14)</title></rect><rect x="252" y="199.596" width="6" height="0.403938" stroke="black" stroke-width="1" fill="blue" opacity="1" tooltip="enable"><title>(0.0775455,8)</title></rect><rect x="258" y="199.697" width="6" height="0.302954" stroke="black" stroke-width="1" fill="blue" opacity="1" tooltip="enable"><title>(0.0793918,6)</title></rect><rect x="264" y="199.798" width="6" height="0.201969" stroke="black" stroke-width="1" fill="blue" opacity="1" tooltip="enable"><title>(0.0812382,4)</title></rect><rect x="270" y="200" width="6" height="0" stroke="black" stroke-width="1" fill="blue" opacity="1" tooltip="enable"><title>(0.0830845,0)</title></rect><rect x="276" y="200" width="6" height="0" stroke="black" stroke-width="1" fill="blue" opacity="1" tooltip="enable"><title>(0.0849308,0)</title></rect><rect x="282" y="200" width="6" height="0" stroke="black" stroke-width="1" fill="blue" opacity="1" tooltip="enable"><title>(0.0867771,0)</title></rect><rect x="288" y="199.899" width="6" height="0.100985" stroke="black" stroke-width="1" fill="blue" opacity="1" tooltip="enable"><title>(0.0886234,2)</title></rect><rect x="294" y="199.899" width="6" height="0.100985" stroke="black" stroke-width="1" fill="blue" opacity="1" tooltip="enable"><title>(0.0904698,2)</title></rect><rect x="300" y="200" width="6" height="0" stroke="black" stroke-width="1" fill="blue" opacity="1" tooltip="enable"><title>(0.0923161,0)</title></rect><rect x="306" y="200" width="6" height="0" stroke="black" stroke-width="1" fill="blue" opacity="1" tooltip="enable"><title>(0.0941624,0)</title></rect><rect x="312" y="200" width="6" height="0" stroke="black" stroke-width="1" fill="blue" opacity="1" tooltip="enable"><title>(0.0960087,0)</title></rect><rect x="318" y="200" width="6" height="0" stroke="black" stroke-width="1" fill="blue" opacity="1" tooltip="enable"><title>(0.0978551,0)</title></rect><rect x="324" y="200" width="6" height="0" stroke="black" stroke-width="1" fill="blue" opacity="1" tooltip="enable"><title>(0.0997014,0)</title></rect><rect x="330" y="199.899" width="6" height="0.100985" stroke="black" stroke-width="1" fill="blue" opacity="1" tooltip="enable"><title>(0.101548,2)</title></rect><rect x="336" y="200" width="6" height="0" stroke="black" stroke-width="1" fill="blue" opacity="1" tooltip="enable"><title>(0.103394,0)</title></rect><rect x="342" y="200" width="6" height="0" stroke="black" stroke-width="1" fill="blue" opacity="1" tooltip="enable"><title>(0.10524,0)</title></rect><rect x="348" y="199.899" width="6" height="0.100985" stroke="black" stroke-width="1" fill="blue" opacity="1" tooltip="enable"><title>(0.107087,2)</title></rect><rect x="354" y="200" width="6" height="0" stroke="black" stroke-width="1" fill="blue" opacity="1" tooltip="enable"><title>(0.108933,0)</title></rect><rect x="360" y="200" width="6" height="0" stroke="black" stroke-width="1" fill="blue" opacity="1" tooltip="enable"><title>(0.110779,0)</title></rect><rect x="366" y="200" width="6" height="0" stroke="black" stroke-width="1" fill="blue" opacity="1" tooltip="enable"><title>(0.112626,0)</title></rect><rect x="372" y="200" width="6" height="0" stroke="black" stroke-width="1" fill="blue" opacity="1" tooltip="enable"><title>(0.114472,0)</title></rect><rect x="378" y="200" width="6" height="0" stroke="black" stroke-width="1" fill="blue" opacity="1" tooltip="enable"><title>(0.116318,0)</title></rect><rect x="384" y="200" width="6" height="0" stroke="black" stroke-width="1" fill="blue" opacity="1" tooltip="enable"><title>(0.118165,0)</title></rect><rect x="390" y="200" width="6" height="0" stroke="black" stroke-width="1" fill="blue" opacity="1" tooltip="enable"><title>(0.120011,0)</title></rect><rect x="396" y="200" width="6" height="0" stroke="black" stroke-width="1" fill="blue" opacity="1" tooltip="enable"><title>(0.121857,0)</title></rect><rect x="402" y="200" width="6" height="0" stroke="black" stroke-width="1" fill="blue" opacity="1" tooltip="enable"><title>(0.123704,0)</title></rect><rect x="408" y="200" width="6" height="0" stroke="black" stroke-width="1" fill="blue" opacity="1" tooltip="enable"><title>(0.12555,0)</title></rect><rect x="414" y="200" width="6" height="0" stroke="black" stroke-width="1" fill="blue" opacity="1" tooltip="enable"><title>(0.127396,0)</title></rect><rect x="420" y="200" width="6" height="0" stroke="black" stroke-width="1" fill="blue" opacity="1" tooltip="enable"><title>(0.129243,0)</title></rect><rect x="426" y="200" width="6" height="0" stroke="black" stroke-width="1" fill="blue" opacity="1" tooltip="enable"><title>(0.131089,0)</title></rect><rect x="432" y="200" width="6" height="0" stroke="black" stroke-width="1" fill="blue" opacity="1" tooltip="enable"><title>(0.132935,0)</title></rect><rect x="438" y="200" width="6" height="0" stroke="black" stroke-width="1" fill="blue" opacity="1" tooltip="enable"><title>(0.134782,0)</title></rect><rect x="444" y="200" width="6" height="0" stroke="black" stroke-width="1" fill="blue" opacity="1" tooltip="enable"><title>(0.136628,0)</title></rect><rect x="450" y="200" width="6" height="0" stroke="black" stroke-width="1" fill="blue" opacity="1" tooltip="enable"><title>(0.138474,0)</title></rect><rect x="456" y="200" width="6" height="0" stroke="black" stroke-width="1" fill="blue" opacity="1" tooltip="enable"><title>(0.14032,0)</title></rect><rect x="462" y="200" width="6" height="0" stroke="black" stroke-width="1" fill="blue" opacity="1" tooltip="enable"><title>(0.142167,0)</title></rect><rect x="468" y="200" width="6" height="0" stroke="black" stroke-width="1" fill="blue" opacity="1" tooltip="enable"><title>(0.144013,0)</title></rect><rect x="474" y="200" width="6" height="0" stroke="black" stroke-width="1" fill="blue" opacity="1" tooltip="enable"><title>(0.145859,0)</title></rect><rect x="480" y="199.899" width="6" height="0.100985" stroke="black" stroke-width="1" fill="blue" opacity="1" tooltip="enable"><title>(0.147706,2)</title></rect><rect x="486" y="200" width="6" height="0" stroke="black" stroke-width="1" fill="blue" opacity="1" tooltip="enable"><title>(0.149552,0)</title></rect><rect x="492" y="200" width="6" height="0" stroke="black" stroke-width="1" fill="blue" opacity="1" tooltip="enable"><title>(0.151398,0)</title></rect><rect x="498" y="200" width="6" height="0" stroke="black" stroke-width="1" fill="blue" opacity="1" tooltip="enable"><title>(0.153245,0)</title></rect><rect x="504" y="200" width="6" height="0" stroke="black" stroke-width="1" fill="blue" opacity="1" tooltip="enable"><title>(0.155091,0)</title></rect><rect x="510" y="200" width="6" height="0" stroke="black" stroke-width="1" fill="blue" opacity="1" tooltip="enable"><title>(0.156937,0)</title></rect><rect x="516" y="200" width="6" height="0" stroke="black" stroke-width="1" fill="blue" opacity="1" tooltip="enable"><title>(0.158784,0)</title></rect><rect x="522" y="200" width="6" height="0" stroke="black" stroke-width="1" fill="blue" opacity="1" tooltip="enable"><title>(0.16063,0)</title></rect><rect x="528" y="200" width="6" height="0" stroke="black" stroke-width="1" fill="blue" opacity="1" tooltip="enable"><title>(0.162476,0)</title></rect><rect x="534" y="200" width="6" height="0" stroke="black" stroke-width="1" fill="blue" opacity="1" tooltip="enable"><title>(0.164323,0)</title></rect><rect x="540" y="200" width="6" height="0" stroke="black" stroke-width="1" fill="blue" opacity="1" tooltip="enable"><title>(0.166169,0)</title></rect><rect x="546" y="200" width="6" height="0" stroke="black" stroke-width="1" fill="blue" opacity="1" tooltip="enable"><title>(0.168015,0)</title></rect><rect x="552" y="200" width="6" height="0" stroke="black" stroke-width="1" fill="blue" opacity="1" tooltip="enable"><title>(0.169862,0)</title></rect><rect x="558" y="200" width="6" height="0" stroke="black" stroke-width="1" fill="blue" opacity="1" tooltip="enable"><title>(0.171708,0)</title></rect><rect x="564" y="200" width="6" height="0" stroke="black" stroke-width="1" fill="blue" opacity="1" tooltip="enable"><title>(0.173554,0)</title></rect><rect x="570" y="200" width="6" height="0" stroke="black" stroke-width="1" fill="blue" opacity="1" tooltip="enable"><title>(0.175401,0)</title></rect><rect x="576" y="200" width="6" height="0" stroke="black" stroke-width="1" fill="blue" opacity="1" tooltip="enable"><title>(0.177247,0)</title></rect><rect x="582" y="200" width="6" height="0" stroke="black" stroke-width="1" fill="blue" opacity="1" tooltip="enable"><title>(0.179093,0)</title></rect><rect x="588" y="200" width="6" height="0" stroke="black" stroke-width="1" fill="blue" opacity="1" tooltip="enable"><title>(0.18094,0)</title></rect><rect x="594" y="199.95" width="6" height="0.0504923" stroke="black" stroke-width="1" fill="blue" opacity="1" tooltip="enable"><title>(0.182786,1)</title></rect><text x="30" y="240" font-size="20" fill="black">0</text>
<text x="600" y="240" font-size="20" fill="black">0.184632</text>
<polyline points="0,220,600,220" stroke="black" stroke-width="1" fill="none" opacity="1"/>
<text x="720" y="20" font-size="20" fill="black">3961</text>
<text x="720" y="200" font-size="20" fill="black">0</text>
<polyline points="660,0,660,200" stroke="black" stroke-width="1" fill="none" opacity="1"/>
</svg>