<?xml version="1.0" standalone="yes"?>
<!-- SVG graphic -->
<svg xmlns='http://www.w3.org/2000/svg' xmlns:xlink='http://www.w3.org/1999/xlink'
 version="1.1">
<rect x="0" y="0" width="6" height="200" stroke="black" stroke-width="1" fill="blue" opacity="1" tooltip="enable"><title>(0,2941)</title></rect><rect x="6" y="116.423" width="6" height="83.577" stroke="black" stroke-width="1" fill="blue" opacity="1" tooltip="enable"><title>(0.00160035,1229)</title></rect><rect x="12" y="162.87" width="6" height="37.1302" stroke="black" stroke-width="1" fill="blue" opacity="1" tooltip="enable"><title>(0.0032007,546)</title></rect><rect x="18" y="179.463" width="6" height="20.5372" stroke="black" stroke-width="1" fill="blue" opacity="1" tooltip="enable"><title>(0.00480105,302)</title></rect><rect x="24" y="183.951" width="6" height="16.049" stroke="black" stroke-width="1" fill="blue" opacity="1" tooltip="enable"><title>(0.00640139,236)</title></rect><rect x="30" y="184.359" width="6" height="15.6409" stroke="black" stroke-width="1" fill="blue" opacity="1" tooltip="enable"><title>(0.00800174,230)</title></rect><rect x="36" y="186.739" width="6" height="13.2608" stroke="black" stroke-width="1" fill="blue" opacity="1" tooltip="enable"><title>(0.00960209,195)</title></rect><rect x="42" y="185.923" width="6" height="14.0768" stroke="black" stroke-width="1" fill="blue" opacity="1" tooltip="enable"><title>(0.0112024,207)</title></rect><rect x="48" y="186.535" width="6" height="13.4648" stroke="black" stroke-width="1" fill="blue" opacity="1" tooltip="enable"><title>(0.0128028,198)</title></rect><rect x="54" y="190.479" width="6" height="9.52057" stroke="black" stroke-width="1" fill="blue" opacity="1" tooltip="enable"><title>(0.0144031,140)</title></rect><rect x="60" y="188.983" width="6" height="11.0167" stroke="black" stroke-width="1" fill="blue" opacity="1" tooltip="enable"><title>(0.0160035,162)</title></rect><rect x="66" y="191.023" width="6" height="8.97654" stroke="black" stroke-width="1" fill="blue" opacity="1" tooltip="enable"><title>(0.0176038,132)</title></rect><rect x="72" y="192.18" width="6" height="7.82047" stroke="black" stroke-width="1" fill="blue" opacity="1" tooltip="enable"><title>(0.0192042,115)</title></rect><rect x="78" y="193.404" width="6" height="6.5964" stroke="black" stroke-width="1" fill="blue" opacity="1" tooltip="enable"><title>(0.0208045,97)</title></rect><rect x="84" y="194.424" width="6" height="5.57633" stroke="black" stroke-width="1" fill="blue" opacity="1" tooltip="enable"><title>(0.0224049,82)</title></rect><rect x="90" y="195.104" width="6" height="4.89629" stroke="black" stroke-width="1" fill="blue" opacity="1" tooltip="enable"><title>(0.0240052,72)</title></rect><rect x="96" y="194.832" width="6" height="5.16831" stroke="black" stroke-width="1" fill="blue" opacity="1" tooltip="enable"><title>(0.0256056,76)</title></rect><rect x="102" y="193.268" width="6" height="6.7324" stroke="black" stroke-width="1" fill="blue" opacity="1" tooltip="enable"><title>(0.0272059,99)</title></rect><rect x="108" y="194.56" width="6" height="5.44033" stroke="black" stroke-width="1" fill="blue" opacity="1" tooltip="enable"><title>(0.0288063,80)</title></rect><rect x="114" y="195.308" width="6" height="4.69228" stroke="black" stroke-width="1" fill="blue" opacity="1" tooltip="enable"><title>(0.0304066,69)</title></rect><rect x="120" y="195.784" width="6" height="4.21625" stroke="black" stroke-width="1" fill="blue" opacity="1" tooltip="enable"><title>(0.032007,62)</title></rect><rect x="126" y="195.512" width="6" height="4.48827" stroke="black" stroke-width="1" fill="blue" opacity="1" tooltip="enable"><title>(0.0336073,66)</title></rect><rect x="132" y="195.648" width="6" height="4.35226" stroke="black" stroke-width="1" fill="blue" opacity="1" tooltip="enable"><title>(0.0352077,64)</title></rect><rect x="138" y="195.512" width="6" height="4.48827" stroke="black" stroke-width="1" fill="blue" opacity="1" tooltip="enable"><title>(0.036808,66)</title></rect><rect x="144" y="195.376" width="6" height="4.62428" stroke="black" stroke-width="1" fill="blue" opacity="1" tooltip="enable"><title>(0.0384084,68)</title></rect><rect x="150" y="196.736" width="6" height="3.2642" stroke="black" stroke-width="1" fill="blue" opacity="1" tooltip="enable"><title>(0.0400087,48)</title></rect><rect x="156" y="195.648" width="6" height="4.35226" stroke="black" stroke-width="1" fill="blue" opacity="1" tooltip="enable"><title>(0.0416091,64)</title></rect><rect x="162" y="196.872" width="6" height="3.12819" stroke="black" stroke-width="1" fill="blue" opacity="1" tooltip="enable"><title>(0.0432094,46)</title></rect><rect x="168" y="196.736" width="6" height="3.2642" stroke="black" stroke-width="1" fill="blue" opacity="1" tooltip="enable"><title>(0.0448098,48)</title></rect><rect x="174" y="198.096" width="6" height="1.90411" stroke="black" stroke-width="1" fill="blue" opacity="1" tooltip="enable"><title>(0.0464101,28)</title></rect><rect x="180" y="196.872" width="6" height="3.12819" stroke="black" stroke-width="1" fill="blue" opacity="1" tooltip="enable"><title>(0.0480105,46)</title></rect><rect x="186" y="198.096" width="6" height="1.90411" stroke="black" stroke-width="1" fill="blue" opacity="1" tooltip="enable"><title>(0.0496108,28)</title></rect><rect x="192" y="198.64" width="6" height="1.36008" stroke="black" stroke-width="1" fill="blue" opacity="1" tooltip="enable"><title>(0.0512112,20)</title></rect><rect x="198" y="199.048" width="6" height="0.952057" stroke="black" stroke-width="1" fill="blue" opacity="1" tooltip="enable"><title>(0.0528115,14)</title></rect><rect x="204" y="199.048" width="6" height="0.952057" stroke="black" stroke-width="1" fill="blue" opacity="1" tooltip="enable"><title>(0.0544119,14)</title></rect><rect x="210" y="198.98" width="6" height="1.02006" stroke="black" stroke-width="1" fill="blue" opacity="1" tooltip="enable"><title>(0.0560122,15)</title></rect><rect x="216" y="198.844" width="6" height="1.15607" stroke="black" stroke-width="1" fill="blue" opacity="1" tooltip="enable"><title>(0.0576126,17)</title></rect><rect x="222" y="199.184" width="6" height="0.816049" stroke="black" stroke-width="1" fill="blue" opacity="1" tooltip="enable"><title>(0.0592129,12)</title></rect><rect x="228" y="199.524" width="6" height="0.476029" stroke="black" stroke-width="1" fill="blue" opacity="1" tooltip="enable"><title>(0.0608133,7)</title></rect><rect x="234" y="199.66" width="6" height="0.34002" stroke="black" stroke-width="1" fill="blue" opacity="1" tooltip="enable"><title>(0.0624136,5)</title></rect><rect x="240" y="198.504" width="6" height="1.49609" stroke="black" stroke-width="1" fill="blue" opacity="1" tooltip="enable"><title>(0.064014,22)</title></rect><rect x="246" y="199.32" width="6" height="0.680041" stroke="black" stroke-width="1" fill="blue" opacity="1" tooltip="enable"><title>(0.0656143,10)</title></rect><rect x="252" y="199.184" width="6" height="0.816049" stroke="black" stroke-width="1" fill="blue" opacity="1" tooltip="enable"><title>(0.0672146,12)</title></rect><rect x="258" y="199.728" width="6" height="0.272016" stroke="black" stroke-width="1" fill="blue" opacity="1" tooltip="enable"><title>(0.068815,4)</title></rect><rect x="264" y="200" width="6" height="0" stroke="black" stroke-width="1" fill="blue" opacity="1" tooltip="enable"><title>(0.0704153,0)</title></rect><rect x="270" y="200" width="6" height="0" stroke="black" stroke-width="1" fill="blue" opacity="1" tooltip="enable"><title>(0.0720157,0)</title></rect><rect x="276" y="200" width="6" height="0" stroke="black" stroke-width="1" fill="blue" opacity="1" tooltip="enable"><title>(0.073616,0)</title></rect><rect x="282" y="200" width="6" height="0" stroke="black" stroke-width="1" fill="blue" opacity="1" tooltip="enable"><title>(0.0752164,0)</title></rect><rect x="288" y="199.864" width="6" height="0.136008" stroke="black" stroke-width="1" fill="blue" opacity="1" tooltip="enable"><title>(0.0768167,2)</title></rect><rect x="294" y="200" width="6" height="0" stroke="black" stroke-width="1" fill="blue" opacity="1" tooltip="enable"><title>(0.0784171,0)</title></rect><rect x="300" y="200" width="6" height="0" stroke="black" stroke-width="1" fill="blue" opacity="1" tooltip="enable"><title>(0.0800174,0)</title></rect><rect x="306" y="200" width="6" height="0" stroke="black" stroke-width="1" fill="blue" opacity="1" tooltip="enable"><title>(0.0816178,0)</title></rect><rect x="312" y="200" width="6" height="0" stroke="black" stroke-width="1" fill="blue" opacity="1" tooltip="enable"><title>(0.0832181,0)</title></rect><rect x="318" y="200" width="6" height="0" stroke="black" stroke-width="1" fill="blue" opacity="1" tooltip="enable"><title>(0.0848185,0)</title></rect><rect x="324" y="200" width="6" height="0" stroke="black" stroke-width="1" fill="blue" opacity="1" tooltip="enable"><title>(0.0864188,0)</title></rect><rect x="330" y="200" width="6" height="0" stroke="black" stroke-width="1" fill="blue" opacity="1" tooltip="enable"><title>(0.0880192,0)</title></rect><rect x="336" y="200" width="6" height="0" stroke="black" stroke-width="1" fill="blue" opacity="1" tooltip="enable"><title>(0.0896195,0)</title></rect><rect x="342" y="200" width="6" height="0" stroke="black" stroke-width="1" fill="blue" opacity="1" tooltip="enable"><title>(0.0912199,0)</title></rect><rect x="348" y="200" width="6" height="0" stroke="black" stroke-width="1" fill="blue" opacity="1" tooltip="enable"><title>(0.0928202,0)</title></rect><rect x="354" y="200" width="6" height="0" stroke="black" stroke-width="1" fill="blue" opacity="1" tooltip="enable"><title>(0.0944206,0)</title></rect><rect x="360" y="200" width="6" height="0" stroke="black" stroke-width="1" fill="blue" opacity="1" tooltip="enable"><title>(0.0960209,0)</title></rect><rect x="366" y="200" width="6" height="0" stroke="black" stroke-width="1" fill="blue" opacity="1" tooltip="enable"><title>(0.0976213,0)</title></rect><rect x="372" y="200" width="6" height="0" stroke="black" stroke-width="1" fill="blue" opacity="1" tooltip="enable"><title>(0.0992216,0)</title></rect><rect x="378" y="200" width="6" height="0" stroke="black" stroke-width="1" fill="blue" opacity="1" tooltip="enable"><title>(0.100822,0)</title></rect><rect x="384" y="200" width="6" height="0" stroke="black" stroke-width="1" fill="blue" opacity="1" tooltip="enable"><title>(0.102422,0)</title></rect><rect x="390" y="200" width="6" height="0" stroke="black" stroke-width="1" fill="blue" opacity="1" tooltip="enable"><title>(0.104023,0)</title></rect><rect x="396" y="200" width="6" height="0" stroke="black" stroke-width="1" fill="blue" opacity="1" tooltip="enable"><title>(0.105623,0)</title></rect><rect x="402" y="200" width="6" height="0" stroke="black" stroke-width="1" fill="blue" opacity="1" tooltip="enable"><title>(0.107223,0)</title></rect><rect x="408" y="200" width="6" height="0" stroke="black" stroke-width="1" fill="blue" opacity="1" tooltip="enable"><title>(0.108824,0)</title></rect><rect x="414" y="200" width="6" height="0" stroke="black" stroke-width="1" fill="blue" opacity="1" tooltip="enable"><title>(0.110424,0)</title></rect><rect x="420" y="200" width="6" height="0" stroke="black" stroke-width="1" fill="blue" opacity="1" tooltip="enable"><title>(0.112024,0)</title></rect><rect x="426" y="200" width="6" height="0" stroke="black" stroke-width="1" fill="blue" opacity="1" tooltip="enable"><title>(0.113625,0)</title></rect><rect x="432" y="200" width="6" height="0" stroke="black" stroke-width="1" fill="blue" opacity="1" tooltip="enable"><title>(0.115225,0)</title></rect><rect x="438" y="200" width="6" height="0" stroke="black" stroke-width="1" fill="blue" opacity="1" tooltip="enable"><title>(0.116825,0)</title></rect><rect x="444" y="200" width="6" height="0" stroke="black" stroke-width="1" fill="blue" opacity="1" tooltip="enable"><title>(0.118426,0)</title></rect><rect x="450" y="200" width="6" height="0" stroke="black" stroke-width="1" fill="blue" opacity="1" tooltip="enable"><title>(0.120026,0)</title></rect><rect x="456" y="200" width="6" height="0" stroke="black" stroke-width="1" fill="blue" opacity="1" tooltip="enable"><title>(0.121627,0)</title></rect><rect x="462" y="200" width="6" height="0" stroke="black" stroke-width="1" fill="blue" opacity="1" tooltip="enable"><title>(0.123227,0)</title></rect><rect x="468" y="200" width="6" height="0" stroke="black" stroke-width="1" fill="blue" opacity="1" tooltip="enable"><title>(0.124827,0)</title></rect><rect x="474" y="200" width="6" height="0" stroke="black" stroke-width="1" fill="blue" opacity="1" tooltip="enable"><title>(0.126428,0)</title></rect><rect x="480" y="200" width="6" height="0" stroke="black" stroke-width="1" fill="blue" opacity="1" tooltip="enable"><title>(0.128028,0)</title></rect><rect x="486" y="200" width="6" height="0" stroke="black" stroke-width="1" fill="blue" opacity="1" tooltip="enable"><title>(0.129628,0)</title></rect><rect x="492" y="200" width="6" height="0" stroke="black" stroke-width="1" fill="blue" opacity="1" tooltip="enable"><title>(0.131229,0)</title></rect><rect x="498" y="200" width="6" height="0" stroke="black" stroke-width="1" fill="blue" opacity="1" tooltip="enable"><title>(0.132829,0)</title></rect><rect x="504" y="200" width="6" height="0" stroke="black" stroke-width="1" fill="blue" opacity="1" tooltip="enable"><title>(0.134429,0)</title></rect><rect x="510" y="200" width="6" height="0" stroke="black" stroke-width="1" fill="blue" opacity="1" tooltip="enable"><title>(0.13603,0)</title></rect><rect x="516" y="200" width="6" height="0" stroke="black" stroke-width="1" fill="blue" opacity="1" tooltip="enable"><title>(0.13763,0)</title></rect><rect x="522" y="200" width="6" height="0" stroke="black" stroke-width="1" fill="blue" opacity="1" tooltip="enable"><title>(0.13923,0)</title></rect><rect x="528" y="200" width="6" height="0" stroke="black" stroke-width="1" fill="blue" opacity="1" tooltip="enable"><title>(0.140831,0)</title></rect><rect x="534" y="200" width="6" height="0" stroke="black" stroke-width="1" fill="blue" opacity="1" tooltip="enable"><title>(0.142431,0)</title></rect><rect x="540" y="200" width="6" height="0" stroke="black" stroke-width="1" fill="blue" opacity="1" tooltip="enable"><title>(0.144031,0)</title></rect><rect x="546" y="200" width="6" height="0" stroke="black" stroke-width="1" fill="blue" opacity="1" tooltip="enable"><title>(0.145632,0)</title></rect><rect x="552" y="200" width="6" height="0" stroke="black" stroke-width="1" fill="blue" opacity="1" tooltip="enable"><title>(0.147232,0)</title></rect><rect x="558" y="200" width="6" height="0" stroke="black" stroke-width="1" fill="blue" opacity="1" tooltip="enable"><title>(0.148832,0)</title></rect><rect x="564" y="200" width="6" height="0" stroke="black" stroke-width="1" fill="blue" opacity="1" tooltip="enable"><title>(0.150433,0)</title></rect><rect x="570" y="200" width="6" height="0" stroke="black" stroke-width="1" fill="blue" opacity="1" tooltip="enable"><title>(0.152033,0)</title></rect><rect x="576" y="200" width="6" height="0" stroke="black" stroke-width="1" fill="blue" opacity="1" tooltip="enable"><title>(0.153633,0)</title></rect><rect x="582" y="200" width="6" height="0" stroke="black" stroke-width="1" fill="blue" opacity="1" tooltip="enable"><title>(0.155234,0)</title></rect><rect x="588" y="199.864" width="6" height="0.136008" stroke="black" stroke-width="1" fill="blue" opacity="1" tooltip="enable"><title>(0.156834,2)</title></rect><rect x="594" y="199.932" width="6" height="0.0680041" stroke="black" stroke-width="1" fill="blue" opacity="1" tooltip="enable"><title>(0.158435,1)</title></rect><text x="30" y="240" font-size="20" fill="black">0</text>
<text x="600" y="240" font-size="20" fill="black">0.160035</text>
<polyline points="0,220,600,220" stroke="black" stroke-width="1" fill="none" opacity="1"/>
<text x="720" y="20" font-size="20" fill="black">2941</text>
<text x="720" y="200" font-size="20" fill="black">0</text>
<polyline points="660,0,660,200" stroke="black" stroke-width="1" fill="none" opacity="1"/>
</svg>