<?xml version="1.0" standalone="yes"?>
<!-- SVG graphic -->
<svg xmlns='http://www.w3.org/2000/svg' xmlns:xlink='http://www.w3.org/1999/xlink'
 version="1.1">
<rect x="0" y="0" width="6" height="200" stroke="black" stroke-width="1" fill="blue" opacity="1" tooltip="enable"><title>(0,1958)</title></rect><rect x="6" y="57.2012" width="6" height="142.799" stroke="black" stroke-width="1" fill="blue" opacity="1" tooltip="enable"><title>(0.00142482,1398)</title></rect><rect x="12" y="132.686" width="6" height="67.3136" stroke="black" stroke-width="1" fill="blue" opacity="1" tooltip="enable"><title>(0.00284965,659)</title></rect><rect x="18" y="160.163" width="6" height="39.8366" stroke="black" stroke-width="1" fill="blue" opacity="1" tooltip="enable"><title>(0.00427447,390)</title></rect><rect x="24" y="178.447" width="6" height="21.5526" stroke="black" stroke-width="1" fill="blue" opacity="1" tooltip="enable"><title>(0.0056993,211)</title></rect><rect x="30" y="181.614" width="6" height="18.3861" stroke="black" stroke-width="1" fill="blue" opacity="1" tooltip="enable"><title>(0.00712412,180)</title></rect><rect x="36" y="186.721" width="6" height="13.2789" stroke="black" stroke-width="1" fill="blue" opacity="1" tooltip="enable"><title>(0.00854895,130)</title></rect><rect x="42" y="188.968" width="6" height="11.0317" stroke="black" stroke-width="1" fill="blue" opacity="1" tooltip="enable"><title>(0.00997377,108)</title></rect><rect x="48" y="188.151" width="6" height="11.8488" stroke="black" stroke-width="1" fill="blue" opacity="1" tooltip="enable"><title>(0.0113986,116)</title></rect><rect x="54" y="187.743" width="6" height="12.2574" stroke="black" stroke-width="1" fill="blue" opacity="1" tooltip="enable"><title>(0.0128234,120)</title></rect><rect x="60" y="191.216" width="6" height="8.78447" stroke="black" stroke-width="1" fill="blue" opacity="1" tooltip="enable"><title>(0.0142482,86)</title></rect><rect x="66" y="191.216" width="6" height="8.78447" stroke="black" stroke-width="1" fill="blue" opacity="1" tooltip="enable"><title>(0.0156731,86)</title></rect><rect x="72" y="191.42" width="6" height="8.58018" stroke="black" stroke-width="1" fill="blue" opacity="1" tooltip="enable"><title>(0.0170979,84)</title></rect><rect x="78" y="192.033" width="6" height="7.96731" stroke="black" stroke-width="1" fill="blue" opacity="1" tooltip="enable"><title>(0.0185227,78)</title></rect><rect x="84" y="190.807" width="6" height="9.19305" stroke="black" stroke-width="1" fill="blue" opacity="1" tooltip="enable"><title>(0.0199475,90)</title></rect><rect x="90" y="190.603" width="6" height="9.39734" stroke="black" stroke-width="1" fill="blue" opacity="1" tooltip="enable"><title>(0.0213724,92)</title></rect><rect x="96" y="191.216" width="6" height="8.78447" stroke="black" stroke-width="1" fill="blue" opacity="1" tooltip="enable"><title>(0.0227972,86)</title></rect><rect x="102" y="189.785" width="6" height="10.2145" stroke="black" stroke-width="1" fill="blue" opacity="1" tooltip="enable"><title>(0.024222,100)</title></rect><rect x="108" y="189.581" width="6" height="10.4188" stroke="black" stroke-width="1" fill="blue" opacity="1" tooltip="enable"><title>(0.0256468,102)</title></rect><rect x="114" y="189.99" width="6" height="10.0102" stroke="black" stroke-width="1" fill="blue" opacity="1" tooltip="enable"><title>(0.0270717,98)</title></rect><rect x="120" y="190.092" width="6" height="9.90807" stroke="black" stroke-width="1" fill="blue" opacity="1" tooltip="enable"><title>(0.0284965,97)</title></rect><rect x="126" y="187.64" width="6" height="12.3596" stroke="black" stroke-width="1" fill="blue" opacity="1" tooltip="enable"><title>(0.0299213,121)</title></rect><rect x="132" y="190.296" width="6" height="9.70378" stroke="black" stroke-width="1" fill="blue" opacity="1" tooltip="enable"><title>(0.0313461,95)</title></rect><rect x="138" y="191.318" width="6" height="8.68233" stroke="black" stroke-width="1" fill="blue" opacity="1" tooltip="enable"><title>(0.032771,85)</title></rect><rect x="144" y="191.42" width="6" height="8.58018" stroke="black" stroke-width="1" fill="blue" opacity="1" tooltip="enable"><title>(0.0341958,84)</title></rect><rect x="150" y="192.646" width="6" height="7.35444" stroke="black" stroke-width="1" fill="blue" opacity="1" tooltip="enable"><title>(0.0356206,72)</title></rect><rect x="156" y="192.237" width="6" height="7.76302" stroke="black" stroke-width="1" fill="blue" opacity="1" tooltip="enable"><title>(0.0370454,76)</title></rect><rect x="162" y="191.828" width="6" height="8.1716" stroke="black" stroke-width="1" fill="blue" opacity="1" tooltip="enable"><title>(0.0384703,80)</title></rect><rect x="168" y="194.484" width="6" height="5.51583" stroke="black" stroke-width="1" fill="blue" opacity="1" tooltip="enable"><title>(0.0398951,54)</title></rect><rect x="174" y="193.054" width="6" height="6.94586" stroke="black" stroke-width="1" fill="blue" opacity="1" tooltip="enable"><title>(0.0413199,68)</title></rect><rect x="180" y="196.118" width="6" height="3.88151" stroke="black" stroke-width="1" fill="blue" opacity="1" tooltip="enable"><title>(0.0427447,38)</title></rect><rect x="186" y="195.301" width="6" height="4.69867" stroke="black" stroke-width="1" fill="blue" opacity="1" tooltip="enable"><title>(0.0441696,46)</title></rect><rect x="192" y="196.323" width="6" height="3.67722" stroke="black" stroke-width="1" fill="blue" opacity="1" tooltip="enable"><title>(0.0455944,36)</title></rect><rect x="198" y="195.71" width="6" height="4.29009" stroke="black" stroke-width="1" fill="blue" opacity="1" tooltip="enable"><title>(0.0470192,42)</title></rect><rect x="204" y="195.71" width="6" height="4.29009" stroke="black" stroke-width="1" fill="blue" opacity="1" tooltip="enable"><title>(0.048444,42)</title></rect><rect x="210" y="196.221" width="6" height="3.77937" stroke="black" stroke-width="1" fill="blue" opacity="1" tooltip="enable"><title>(0.0498689,37)</title></rect><rect x="216" y="195.812" width="6" height="4.18795" stroke="black" stroke-width="1" fill="blue" opacity="1" tooltip="enable"><title>(0.0512937,41)</title></rect><rect x="222" y="198.264" width="6" height="1.73647" stroke="black" stroke-width="1" fill="blue" opacity="1" tooltip="enable"><title>(0.0527185,17)</title></rect><rect x="228" y="195.199" width="6" height="4.80082" stroke="black" stroke-width="1" fill="blue" opacity="1" tooltip="enable"><title>(0.0541433,47)</title></rect><rect x="234" y="196.936" width="6" height="3.06435" stroke="black" stroke-width="1" fill="blue" opacity="1" tooltip="enable"><title>(0.0555682,30)</title></rect><rect x="240" y="197.242" width="6" height="2.75792" stroke="black" stroke-width="1" fill="blue" opacity="1" tooltip="enable"><title>(0.056993,27)</title></rect><rect x="246" y="197.855" width="6" height="2.14505" stroke="black" stroke-width="1" fill="blue" opacity="1" tooltip="enable"><title>(0.0584178,21)</title></rect><rect x="252" y="197.549" width="6" height="2.45148" stroke="black" stroke-width="1" fill="blue" opacity="1" tooltip="enable"><title>(0.0598426,24)</title></rect><rect x="258" y="197.957" width="6" height="2.0429" stroke="black" stroke-width="1" fill="blue" opacity="1" tooltip="enable"><title>(0.0612675,20)</title></rect><rect x="264" y="197.549" width="6" height="2.45148" stroke="black" stroke-width="1" fill="blue" opacity="1" tooltip="enable"><title>(0.0626923,24)</title></rect><rect x="270" y="198.366" width="6" height="1.63432" stroke="black" stroke-width="1" fill="blue" opacity="1" tooltip="enable"><title>(0.0641171,16)</title></rect><rect x="276" y="198.161" width="6" height="1.83861" stroke="black" stroke-width="1" fill="blue" opacity="1" tooltip="enable"><title>(0.0655419,18)</title></rect><rect x="282" y="196.425" width="6" height="3.57508" stroke="black" stroke-width="1" fill="blue" opacity="1" tooltip="enable"><title>(0.0669667,35)</title></rect><rect x="288" y="197.242" width="6" height="2.75792" stroke="black" stroke-width="1" fill="blue" opacity="1" tooltip="enable"><title>(0.0683916,27)</title></rect><rect x="294" y="197.344" width="6" height="2.65577" stroke="black" stroke-width="1" fill="blue" opacity="1" tooltip="enable"><title>(0.0698164,26)</title></rect><rect x="300" y="196.527" width="6" height="3.47293" stroke="black" stroke-width="1" fill="blue" opacity="1" tooltip="enable"><title>(0.0712412,34)</title></rect><rect x="306" y="197.753" width="6" height="2.24719" stroke="black" stroke-width="1" fill="blue" opacity="1" tooltip="enable"><title>(0.072666,22)</title></rect><rect x="312" y="197.855" width="6" height="2.14505" stroke="black" stroke-width="1" fill="blue" opacity="1" tooltip="enable"><title>(0.0740909,21)</title></rect><rect x="318" y="197.651" width="6" height="2.34934" stroke="black" stroke-width="1" fill="blue" opacity="1" tooltip="enable"><title>(0.0755157,23)</title></rect><rect x="324" y="197.549" width="6" height="2.45148" stroke="black" stroke-width="1" fill="blue" opacity="1" tooltip="enable"><title>(0.0769405,24)</title></rect><rect x="330" y="198.161" width="6" height="1.83861" stroke="black" stroke-width="1" fill="blue" opacity="1" tooltip="enable"><title>(0.0783653,18)</title></rect><rect x="336" y="198.979" width="6" height="1.02145" stroke="black" stroke-width="1" fill="blue" opacity="1" tooltip="enable"><title>(0.0797902,10)</title></rect><rect x="342" y="197.549" width="6" height="2.45148" stroke="black" stroke-width="1" fill="blue" opacity="1" tooltip="enable"><title>(0.081215,24)</title></rect><rect x="348" y="198.876" width="6" height="1.1236" stroke="black" stroke-width="1" fill="blue" opacity="1" tooltip="enable"><title>(0.0826398,11)</title></rect><rect x="354" y="198.876" width="6" height="1.1236" stroke="black" stroke-width="1" fill="blue" opacity="1" tooltip="enable"><title>(0.0840646,11)</title></rect><rect x="360" y="198.876" width="6" height="1.1236" stroke="black" stroke-width="1" fill="blue" opacity="1" tooltip="enable"><title>(0.0854895,11)</title></rect><rect x="366" y="196.833" width="6" height="3.1665" stroke="black" stroke-width="1" fill="blue" opacity="1" tooltip="enable"><title>(0.0869143,31)</title></rect><rect x="372" y="197.957" width="6" height="2.0429" stroke="black" stroke-width="1" fill="blue" opacity="1" tooltip="enable"><title>(0.0883391,20)</title></rect><rect x="378" y="198.774" width="6" height="1.22574" stroke="black" stroke-width="1" fill="blue" opacity="1" tooltip="enable"><title>(0.0897639,12)</title></rect><rect x="384" y="198.57" width="6" height="1.43003" stroke="black" stroke-width="1" fill="blue" opacity="1" tooltip="enable"><title>(0.0911888,14)</title></rect><rect x="390" y="199.387" width="6" height="0.61287" stroke="black" stroke-width="1" fill="blue" opacity="1" tooltip="enable"><title>(0.0926136,6)</title></rect><rect x="396" y="199.591" width="6" height="0.40858" stroke="black" stroke-width="1" fill="blue" opacity="1" tooltip="enable"><title>(0.0940384,4)</title></rect><rect x="402" y="199.183" width="6" height="0.81716" stroke="black" stroke-width="1" fill="blue" opacity="1" tooltip="enable"><title>(0.0954632,8)</title></rect><rect x="408" y="198.774" width="6" height="1.22574" stroke="black" stroke-width="1" fill="blue" opacity="1" tooltip="enable"><title>(0.0968881,12)</title></rect><rect x="414" y="199.387" width="6" height="0.61287" stroke="black" stroke-width="1" fill="blue" opacity="1" tooltip="enable"><title>(0.0983129,6)</title></rect><rect x="420" y="199.387" width="6" height="0.61287" stroke="black" stroke-width="1" fill="blue" opacity="1" tooltip="enable"><title>(0.0997377,6)</title></rect><rect x="426" y="199.796" width="6" height="0.20429" stroke="black" stroke-width="1" fill="blue" opacity="1" tooltip="enable"><title>(0.101163,2)</title></rect><rect x="432" y="199.591" width="6" height="0.40858" stroke="black" stroke-width="1" fill="blue" opacity="1" tooltip="enable"><title>(0.102587,4)</title></rect><rect x="438" y="199.591" width="6" height="0.40858" stroke="black" stroke-width="1" fill="blue" opacity="1" tooltip="enable"><title>(0.104012,4)</title></rect><rect x="444" y="199.183" width="6" height="0.81716" stroke="black" stroke-width="1" fill="blue" opacity="1" tooltip="enable"><title>(0.105437,8)</title></rect><rect x="450" y="199.796" width="6" height="0.20429" stroke="black" stroke-width="1" fill="blue" opacity="1" tooltip="enable"><title>(0.106862,2)</title></rect><rect x="456" y="199.591" width="6" height="0.40858" stroke="black" stroke-width="1" fill="blue" opacity="1" tooltip="enable"><title>(0.108287,4)</title></rect><rect x="462" y="199.183" width="6" height="0.81716" stroke="black" stroke-width="1" fill="blue" opacity="1" tooltip="enable"><title>(0.109711,8)</title></rect><rect x="468" y="199.591" width="6" height="0.40858" stroke="black" stroke-width="1" fill="blue" opacity="1" tooltip="enable"><title>(0.111136,4)</title></rect><rect x="474" y="199.591" width="6" height="0.40858" stroke="black" stroke-width="1" fill="blue" opacity="1" tooltip="enable"><title>(0.112561,4)</title></rect><rect x="480" y="199.796" width="6" height="0.20429" stroke="black" stroke-width="1" fill="blue" opacity="1" tooltip="enable"><title>(0.113986,2)</title></rect><rect x="486" y="199.796" width="6" height="0.20429" stroke="black" stroke-width="1" fill="blue" opacity="1" tooltip="enable"><title>(0.115411,2)</title></rect><rect x="492" y="200" width="6" height="0" stroke="black" stroke-width="1" fill="blue" opacity="1" tooltip="enable"><title>(0.116836,0)</title></rect><rect x="498" y="199.796" width="6" height="0.20429" stroke="black" stroke-width="1" fill="blue" opacity="1" tooltip="enable"><title>(0.11826,2)</title></rect><rect x="504" y="199.796" width="6" height="0.20429" stroke="black" stroke-width="1" fill="blue" opacity="1" tooltip="enable"><title>(0.119685,2)</title></rect><rect x="510" y="200" width="6" height="0" stroke="black" stroke-width="1" fill="blue" opacity="1" tooltip="enable"><title>(0.12111,0)</title></rect><rect x="516" y="200" width="6" height="0" stroke="black" stroke-width="1" fill="blue" opacity="1" tooltip="enable"><title>(0.122535,0)</title></rect><rect x="522" y="200" width="6" height="0" stroke="black" stroke-width="1" fill="blue" opacity="1" tooltip="enable"><title>(0.12396,0)</title></rect><rect x="528" y="200" width="6" height="0" stroke="black" stroke-width="1" fill="blue" opacity="1" tooltip="enable"><title>(0.125385,0)</title></rect><rect x="534" y="200" width="6" height="0" stroke="black" stroke-width="1" fill="blue" opacity="1" tooltip="enable"><title>(0.126809,0)</title></rect><rect x="540" y="200" width="6" height="0" stroke="black" stroke-width="1" fill="blue" opacity="1" tooltip="enable"><title>(0.128234,0)</title></rect><rect x="546" y="200" width="6" height="0" stroke="black" stroke-width="1" fill="blue" opacity="1" tooltip="enable"><title>(0.129659,0)</title></rect><rect x="552" y="200" width="6" height="0" stroke="black" stroke-width="1" fill="blue" opacity="1" tooltip="enable"><title>(0.131084,0)</title></rect><rect x="558" y="200" width="6" height="0" stroke="black" stroke-width="1" fill="blue" opacity="1" tooltip="enable"><title>(0.132509,0)</title></rect><rect x="564" y="200" width="6" height="0" stroke="black" stroke-width="1" fill="blue" opacity="1" tooltip="enable"><title>(0.133933,0)</title></rect><rect x="570" y="200" width="6" height="0" stroke="black" stroke-width="1" fill="blue" opacity="1" tooltip="enable"><title>(0.135358,0)</title></rect><rect x="576" y="199.796" width="6" height="0.20429" stroke="black" stroke-width="1" fill="blue" opacity="1" tooltip="enable"><title>(0.136783,2)</title></rect><rect x="582" y="199.796" width="6" height="0.20429" stroke="black" stroke-width="1" fill="blue" opacity="1" tooltip="enable"><title>(0.138208,2)</title></rect><rect x="588" y="200" width="6" height="0" stroke="black" stroke-width="1" fill="blue" opacity="1" tooltip="enable"><title>(0.139633,0)</title></rect><rect x="594" y="199.898" width="6" height="0.102145" stroke="black" stroke-width="1" fill="blue" opacity="1" tooltip="enable"><title>(0.141058,1)</title></rect><text x="30" y="240" font-size="20" fill="black">0</text>
<text x="600" y="240" font-size="20" fill="black">0.142482</text>
<polyline points="0,220,600,220" stroke="black" stroke-width="1" fill="none" opacity="1"/>
<text x="720" y="20" font-size="20" fill="black">1958</text>
<text x="720" y="200" font-size="20" fill="black">0</text>
<polyline points="660,0,660,200" stroke="black" stroke-width="1" fill="none" opacity="1"/>
</svg>