<?xml version="1.0" standalone="yes"?>
<!-- SVG graphic -->
<svg xmlns='http://www.w3.org/2000/svg' xmlns:xlink='http://www.w3.org/1999/xlink'
 version="1.1">
<rect x="0" y="0" width="6" height="200" stroke="black" stroke-width="1" fill="blue" opacity="1" tooltip="enable"><title>(0,2010)</title></rect><rect x="6" y="34.2289" width="6" height="165.771" stroke="black" stroke-width="1" fill="blue" opacity="1" tooltip="enable"><title>(0.00166171,1666)</title></rect><rect x="12" y="128.756" width="6" height="71.2438" stroke="black" stroke-width="1" fill="blue" opacity="1" tooltip="enable"><title>(0.00332343,716)</title></rect><rect x="18" y="176.119" width="6" height="23.8806" stroke="black" stroke-width="1" fill="blue" opacity="1" tooltip="enable"><title>(0.00498514,240)</title></rect><rect x="24" y="181.891" width="6" height="18.1095" stroke="black" stroke-width="1" fill="blue" opacity="1" tooltip="enable"><title>(0.00664686,182)</title></rect><rect x="30" y="183.881" width="6" height="16.1194" stroke="black" stroke-width="1" fill="blue" opacity="1" tooltip="enable"><title>(0.00830857,162)</title></rect><rect x="36" y="182.488" width="6" height="17.5124" stroke="black" stroke-width="1" fill="blue" opacity="1" tooltip="enable"><title>(0.00997029,176)</title></rect><rect x="42" y="183.483" width="6" height="16.5174" stroke="black" stroke-width="1" fill="blue" opacity="1" tooltip="enable"><title>(0.011632,166)</title></rect><rect x="48" y="183.483" width="6" height="16.5174" stroke="black" stroke-width="1" fill="blue" opacity="1" tooltip="enable"><title>(0.0132937,166)</title></rect><rect x="54" y="181.294" width="6" height="18.7065" stroke="black" stroke-width="1" fill="blue" opacity="1" tooltip="enable"><title>(0.0149554,188)</title></rect><rect x="60" y="186.269" width="6" height="13.7313" stroke="black" stroke-width="1" fill="blue" opacity="1" tooltip="enable"><title>(0.0166171,138)</title></rect><rect x="66" y="181.294" width="6" height="18.7065" stroke="black" stroke-width="1" fill="blue" opacity="1" tooltip="enable"><title>(0.0182789,188)</title></rect><rect x="72" y="182.289" width="6" height="17.7114" stroke="black" stroke-width="1" fill="blue" opacity="1" tooltip="enable"><title>(0.0199406,178)</title></rect><rect x="78" y="185.075" width="6" height="14.9254" stroke="black" stroke-width="1" fill="blue" opacity="1" tooltip="enable"><title>(0.0216023,150)</title></rect><rect x="84" y="184.876" width="6" height="15.1244" stroke="black" stroke-width="1" fill="blue" opacity="1" tooltip="enable"><title>(0.023264,152)</title></rect><rect x="90" y="188.06" width="6" height="11.9403" stroke="black" stroke-width="1" fill="blue" opacity="1" tooltip="enable"><title>(0.0249257,120)</title></rect><rect x="96" y="187.264" width="6" height="12.7363" stroke="black" stroke-width="1" fill="blue" opacity="1" tooltip="enable"><title>(0.0265874,128)</title></rect><rect x="102" y="187.761" width="6" height="12.2388" stroke="black" stroke-width="1" fill="blue" opacity="1" tooltip="enable"><title>(0.0282491,123)</title></rect><rect x="108" y="188.159" width="6" height="11.8408" stroke="black" stroke-width="1" fill="blue" opacity="1" tooltip="enable"><title>(0.0299109,119)</title></rect><rect x="114" y="184.677" width="6" height="15.3234" stroke="black" stroke-width="1" fill="blue" opacity="1" tooltip="enable"><title>(0.0315726,154)</title></rect><rect x="120" y="191.244" width="6" height="8.75622" stroke="black" stroke-width="1" fill="blue" opacity="1" tooltip="enable"><title>(0.0332343,88)</title></rect><rect x="126" y="192.139" width="6" height="7.8607" stroke="black" stroke-width="1" fill="blue" opacity="1" tooltip="enable"><title>(0.034896,79)</title></rect><rect x="132" y="190.647" width="6" height="9.35323" stroke="black" stroke-width="1" fill="blue" opacity="1" tooltip="enable"><title>(0.0365577,94)</title></rect><rect x="138" y="191.94" width="6" height="8.0597" stroke="black" stroke-width="1" fill="blue" opacity="1" tooltip="enable"><title>(0.0382194,81)</title></rect><rect x="144" y="194.428" width="6" height="5.57214" stroke="black" stroke-width="1" fill="blue" opacity="1" tooltip="enable"><title>(0.0398811,56)</title></rect><rect x="150" y="194.726" width="6" height="5.27363" stroke="black" stroke-width="1" fill="blue" opacity="1" tooltip="enable"><title>(0.0415429,53)</title></rect><rect x="156" y="193.333" width="6" height="6.66667" stroke="black" stroke-width="1" fill="blue" opacity="1" tooltip="enable"><title>(0.0432046,67)</title></rect><rect x="162" y="194.129" width="6" height="5.87065" stroke="black" stroke-width="1" fill="blue" opacity="1" tooltip="enable"><title>(0.0448663,59)</title></rect><rect x="168" y="195.92" width="6" height="4.0796" stroke="black" stroke-width="1" fill="blue" opacity="1" tooltip="enable"><title>(0.046528,41)</title></rect><rect x="174" y="195.622" width="6" height="4.37811" stroke="black" stroke-width="1" fill="blue" opacity="1" tooltip="enable"><title>(0.0481897,44)</title></rect><rect x="180" y="197.015" width="6" height="2.98507" stroke="black" stroke-width="1" fill="blue" opacity="1" tooltip="enable"><title>(0.0498514,30)</title></rect><rect x="186" y="197.214" width="6" height="2.78607" stroke="black" stroke-width="1" fill="blue" opacity="1" tooltip="enable"><title>(0.0515132,28)</title></rect><rect x="192" y="197.811" width="6" height="2.18905" stroke="black" stroke-width="1" fill="blue" opacity="1" tooltip="enable"><title>(0.0531749,22)</title></rect><rect x="198" y="198.806" width="6" height="1.19403" stroke="black" stroke-width="1" fill="blue" opacity="1" tooltip="enable"><title>(0.0548366,12)</title></rect><rect x="204" y="198.01" width="6" height="1.99005" stroke="black" stroke-width="1" fill="blue" opacity="1" tooltip="enable"><title>(0.0564983,20)</title></rect><rect x="210" y="197.811" width="6" height="2.18905" stroke="black" stroke-width="1" fill="blue" opacity="1" tooltip="enable"><title>(0.05816,22)</title></rect><rect x="216" y="199.204" width="6" height="0.79602" stroke="black" stroke-width="1" fill="blue" opacity="1" tooltip="enable"><title>(0.0598217,8)</title></rect><rect x="222" y="199.204" width="6" height="0.79602" stroke="black" stroke-width="1" fill="blue" opacity="1" tooltip="enable"><title>(0.0614834,8)</title></rect><rect x="228" y="199.602" width="6" height="0.39801" stroke="black" stroke-width="1" fill="blue" opacity="1" tooltip="enable"><title>(0.0631451,4)</title></rect><rect x="234" y="199.204" width="6" height="0.79602" stroke="black" stroke-width="1" fill="blue" opacity="1" tooltip="enable"><title>(0.0648069,8)</title></rect><rect x="240" y="199.801" width="6" height="0.199005" stroke="black" stroke-width="1" fill="blue" opacity="1" tooltip="enable"><title>(0.0664686,2)</title></rect><rect x="246" y="200" width="6" height="0" stroke="black" stroke-width="1" fill="blue" opacity="1" tooltip="enable"><title>(0.0681303,0)</title></rect><rect x="252" y="199.602" width="6" height="0.39801" stroke="black" stroke-width="1" fill="blue" opacity="1" tooltip="enable"><title>(0.069792,4)</title></rect><rect x="258" y="200" width="6" height="0" stroke="black" stroke-width="1" fill="blue" opacity="1" tooltip="enable"><title>(0.0714537,0)</title></rect><rect x="264" y="199.403" width="6" height="0.597015" stroke="black" stroke-width="1" fill="blue" opacity="1" tooltip="enable"><title>(0.0731154,6)</title></rect><rect x="270" y="199.403" width="6" height="0.597015" stroke="black" stroke-width="1" fill="blue" opacity="1" tooltip="enable"><title>(0.0747771,6)</title></rect><rect x="276" y="199.602" width="6" height="0.39801" stroke="black" stroke-width="1" fill="blue" opacity="1" tooltip="enable"><title>(0.0764389,4)</title></rect><rect x="282" y="199.801" width="6" height="0.199005" stroke="black" stroke-width="1" fill="blue" opacity="1" tooltip="enable"><title>(0.0781006,2)</title></rect><rect x="288" y="200" width="6" height="0" stroke="black" stroke-width="1" fill="blue" opacity="1" tooltip="enable"><title>(0.0797623,0)</title></rect><rect x="294" y="200" width="6" height="0" stroke="black" stroke-width="1" fill="blue" opacity="1" tooltip="enable"><title>(0.081424,0)</title></rect><rect x="300" y="199.801" width="6" height="0.199005" stroke="black" stroke-width="1" fill="blue" opacity="1" tooltip="enable"><title>(0.0830857,2)</title></rect><rect x="306" y="199.801" width="6" height="0.199005" stroke="black" stroke-width="1" fill="blue" opacity="1" tooltip="enable"><title>(0.0847474,2)</title></rect><rect x="312" y="200" width="6" height="0" stroke="black" stroke-width="1" fill="blue" opacity="1" tooltip="enable"><title>(0.0864092,0)</title></rect><rect x="318" y="199.602" width="6" height="0.39801" stroke="black" stroke-width="1" fill="blue" opacity="1" tooltip="enable"><title>(0.0880709,4)</title></rect><rect x="324" y="199.801" width="6" height="0.199005" stroke="black" stroke-width="1" fill="blue" opacity="1" tooltip="enable"><title>(0.0897326,2)</title></rect><rect x="330" y="200" width="6" height="0" stroke="black" stroke-width="1" fill="blue" opacity="1" tooltip="enable"><title>(0.0913943,0)</title></rect><rect x="336" y="200" width="6" height="0" stroke="black" stroke-width="1" fill="blue" opacity="1" tooltip="enable"><title>(0.093056,0)</title></rect><rect x="342" y="199.801" width="6" height="0.199005" stroke="black" stroke-width="1" fill="blue" opacity="1" tooltip="enable"><title>(0.0947177,2)</title></rect><rect x="348" y="200" width="6" height="0" stroke="black" stroke-width="1" fill="blue" opacity="1" tooltip="enable"><title>(0.0963794,0)</title></rect><rect x="354" y="200" width="6" height="0" stroke="black" stroke-width="1" fill="blue" opacity="1" tooltip="enable"><title>(0.0980411,0)</title></rect><rect x="360" y="199.502" width="6" height="0.497512" stroke="black" stroke-width="1" fill="blue" opacity="1" tooltip="enable"><title>(0.0997029,5)</title></rect><rect x="366" y="199.701" width="6" height="0.298507" stroke="black" stroke-width="1" fill="blue" opacity="1" tooltip="enable"><title>(0.101365,3)</title></rect><rect x="372" y="200" width="6" height="0" stroke="black" stroke-width="1" fill="blue" opacity="1" tooltip="enable"><title>(0.103026,0)</title></rect><rect x="378" y="200" width="6" height="0" stroke="black" stroke-width="1" fill="blue" opacity="1" tooltip="enable"><title>(0.104688,0)</title></rect><rect x="384" y="200" width="6" height="0" stroke="black" stroke-width="1" fill="blue" opacity="1" tooltip="enable"><title>(0.10635,0)</title></rect><rect x="390" y="200" width="6" height="0" stroke="black" stroke-width="1" fill="blue" opacity="1" tooltip="enable"><title>(0.108011,0)</title></rect><rect x="396" y="199.701" width="6" height="0.298507" stroke="black" stroke-width="1" fill="blue" opacity="1" tooltip="enable"><title>(0.109673,3)</title></rect><rect x="402" y="199.701" width="6" height="0.298507" stroke="black" stroke-width="1" fill="blue" opacity="1" tooltip="enable"><title>(0.111335,3)</title></rect><rect x="408" y="200" width="6" height="0" stroke="black" stroke-width="1" fill="blue" opacity="1" tooltip="enable"><title>(0.112997,0)</title></rect><rect x="414" y="200" width="6" height="0" stroke="black" stroke-width="1" fill="blue" opacity="1" tooltip="enable"><title>(0.114658,0)</title></rect><rect x="420" y="200" width="6" height="0" stroke="black" stroke-width="1" fill="blue" opacity="1" tooltip="enable"><title>(0.11632,0)</title></rect><rect x="426" y="200" width="6" height="0" stroke="black" stroke-width="1" fill="blue" opacity="1" tooltip="enable"><title>(0.117982,0)</title></rect><rect x="432" y="199.801" width="6" height="0.199005" stroke="black" stroke-width="1" fill="blue" opacity="1" tooltip="enable"><title>(0.119643,2)</title></rect><rect x="438" y="200" width="6" height="0" stroke="black" stroke-width="1" fill="blue" opacity="1" tooltip="enable"><title>(0.121305,0)</title></rect><rect x="444" y="200" width="6" height="0" stroke="black" stroke-width="1" fill="blue" opacity="1" tooltip="enable"><title>(0.122967,0)</title></rect><rect x="450" y="200" width="6" height="0" stroke="black" stroke-width="1" fill="blue" opacity="1" tooltip="enable"><title>(0.124629,0)</title></rect><rect x="456" y="200" width="6" height="0" stroke="black" stroke-width="1" fill="blue" opacity="1" tooltip="enable"><title>(0.12629,0)</title></rect><rect x="462" y="200" width="6" height="0" stroke="black" stroke-width="1" fill="blue" opacity="1" tooltip="enable"><title>(0.127952,0)</title></rect><rect x="468" y="200" width="6" height="0" stroke="black" stroke-width="1" fill="blue" opacity="1" tooltip="enable"><title>(0.129614,0)</title></rect><rect x="474" y="200" width="6" height="0" stroke="black" stroke-width="1" fill="blue" opacity="1" tooltip="enable"><title>(0.131275,0)</title></rect><rect x="480" y="200" width="6" height="0" stroke="black" stroke-width="1" fill="blue" opacity="1" tooltip="enable"><title>(0.132937,0)</title></rect><rect x="486" y="200" width="6" height="0" stroke="black" stroke-width="1" fill="blue" opacity="1" tooltip="enable"><title>(0.134599,0)</title></rect><rect x="492" y="200" width="6" height="0" stroke="black" stroke-width="1" fill="blue" opacity="1" tooltip="enable"><title>(0.136261,0)</title></rect><rect x="498" y="200" width="6" height="0" stroke="black" stroke-width="1" fill="blue" opacity="1" tooltip="enable"><title>(0.137922,0)</title></rect><rect x="504" y="200" width="6" height="0" stroke="black" stroke-width="1" fill="blue" opacity="1" tooltip="enable"><title>(0.139584,0)</title></rect><rect x="510" y="200" width="6" height="0" stroke="black" stroke-width="1" fill="blue" opacity="1" tooltip="enable"><title>(0.141246,0)</title></rect><rect x="516" y="200" width="6" height="0" stroke="black" stroke-width="1" fill="blue" opacity="1" tooltip="enable"><title>(0.142907,0)</title></rect><rect x="522" y="200" width="6" height="0" stroke="black" stroke-width="1" fill="blue" opacity="1" tooltip="enable"><title>(0.144569,0)</title></rect><rect x="528" y="200" width="6" height="0" stroke="black" stroke-width="1" fill="blue" opacity="1" tooltip="enable"><title>(0.146231,0)</title></rect><rect x="534" y="200" width="6" height="0" stroke="black" stroke-width="1" fill="blue" opacity="1" tooltip="enable"><title>(0.147893,0)</title></rect><rect x="540" y="200" width="6" height="0" stroke="black" stroke-width="1" fill="blue" opacity="1" tooltip="enable"><title>(0.149554,0)</title></rect><rect x="546" y="200" width="6" height="0" stroke="black" stroke-width="1" fill="blue" opacity="1" tooltip="enable"><title>(0.151216,0)</title></rect><rect x="552" y="200" width="6" height="0" stroke="black" stroke-width="1" fill="blue" opacity="1" tooltip="enable"><title>(0.152878,0)</title></rect><rect x="558" y="200" width="6" height="0" stroke="black" stroke-width="1" fill="blue" opacity="1" tooltip="enable"><title>(0.154539,0)</title></rect><rect x="564" y="200" width="6" height="0" stroke="black" stroke-width="1" fill="blue" opacity="1" tooltip="enable"><title>(0.156201,0)</title></rect><rect x="570" y="200" width="6" height="0" stroke="black" stroke-width="1" fill="blue" opacity="1" tooltip="enable"><title>(0.157863,0)</title></rect><rect x="576" y="200" width="6" height="0" stroke="black" stroke-width="1" fill="blue" opacity="1" tooltip="enable"><title>(0.159525,0)</title></rect><rect x="582" y="200" width="6" height="0" stroke="black" stroke-width="1" fill="blue" opacity="1" tooltip="enable"><title>(0.161186,0)</title></rect><rect x="588" y="200" width="6" height="0" stroke="black" stroke-width="1" fill="blue" opacity="1" tooltip="enable"><title>(0.162848,0)</title></rect><rect x="594" y="199.9" width="6" height="0.0995025" stroke="black" stroke-width="1" fill="blue" opacity="1" tooltip="enable"><title>(0.16451,1)</title></rect><text x="30" y="240" font-size="20" fill="black">0</text>
<text x="600" y="240" font-size="20" fill="black">0.166171</text>
<polyline points="0,220,600,220" stroke="black" stroke-width="1" fill="none" opacity="1"/>
<text x="720" y="20" font-size="20" fill="black">2010</text>
<text x="720" y="200" font-size="20" fill="black">0</text>
<polyline points="660,0,660,200" stroke="black" stroke-width="1" fill="none" opacity="1"/>
</svg>