<?xml version="1.0" standalone="yes"?>
<!-- SVG graphic -->
<svg xmlns='http://www.w3.org/2000/svg' xmlns:xlink='http://www.w3.org/1999/xlink'
 version="1.1">
<rect x="0" y="0" width="6" height="200" stroke="black" stroke-width="1" fill="blue" opacity="1" tooltip="enable"><title>(0,1653)</title></rect><rect x="6" y="46.582" width="6" height="153.418" stroke="black" stroke-width="1" fill="blue" opacity="1" tooltip="enable"><title>(0.000996536,1268)</title></rect><rect x="12" y="100.665" width="6" height="99.3345" stroke="black" stroke-width="1" fill="blue" opacity="1" tooltip="enable"><title>(0.00199307,821)</title></rect><rect x="18" y="138.899" width="6" height="61.101" stroke="black" stroke-width="1" fill="blue" opacity="1" tooltip="enable"><title>(0.00298961,505)</title></rect><rect x="24" y="170.357" width="6" height="29.6431" stroke="black" stroke-width="1" fill="blue" opacity="1" tooltip="enable"><title>(0.00398615,245)</title></rect><rect x="30" y="184.634" width="6" height="15.366" stroke="black" stroke-width="1" fill="blue" opacity="1" tooltip="enable"><title>(0.00498268,127)</title></rect><rect x="36" y="187.175" width="6" height="12.8252" stroke="black" stroke-width="1" fill="blue" opacity="1" tooltip="enable"><title>(0.00597922,106)</title></rect><rect x="42" y="186.57" width="6" height="13.4301" stroke="black" stroke-width="1" fill="blue" opacity="1" tooltip="enable"><title>(0.00697575,111)</title></rect><rect x="48" y="186.207" width="6" height="13.7931" stroke="black" stroke-width="1" fill="blue" opacity="1" tooltip="enable"><title>(0.00797229,114)</title></rect><rect x="54" y="188.869" width="6" height="11.1313" stroke="black" stroke-width="1" fill="blue" opacity="1" tooltip="enable"><title>(0.00896883,92)</title></rect><rect x="60" y="187.417" width="6" height="12.5832" stroke="black" stroke-width="1" fill="blue" opacity="1" tooltip="enable"><title>(0.00996536,104)</title></rect><rect x="66" y="187.175" width="6" height="12.8252" stroke="black" stroke-width="1" fill="blue" opacity="1" tooltip="enable"><title>(0.0109619,106)</title></rect><rect x="72" y="186.691" width="6" height="13.3091" stroke="black" stroke-width="1" fill="blue" opacity="1" tooltip="enable"><title>(0.0119584,110)</title></rect><rect x="78" y="186.933" width="6" height="13.0672" stroke="black" stroke-width="1" fill="blue" opacity="1" tooltip="enable"><title>(0.012955,108)</title></rect><rect x="84" y="187.659" width="6" height="12.3412" stroke="black" stroke-width="1" fill="blue" opacity="1" tooltip="enable"><title>(0.0139515,102)</title></rect><rect x="90" y="190.079" width="6" height="9.92136" stroke="black" stroke-width="1" fill="blue" opacity="1" tooltip="enable"><title>(0.014948,82)</title></rect><rect x="96" y="188.506" width="6" height="11.4943" stroke="black" stroke-width="1" fill="blue" opacity="1" tooltip="enable"><title>(0.0159446,95)</title></rect><rect x="102" y="188.99" width="6" height="11.0103" stroke="black" stroke-width="1" fill="blue" opacity="1" tooltip="enable"><title>(0.0169411,91)</title></rect><rect x="108" y="187.175" width="6" height="12.8252" stroke="black" stroke-width="1" fill="blue" opacity="1" tooltip="enable"><title>(0.0179377,106)</title></rect><rect x="114" y="187.901" width="6" height="12.0992" stroke="black" stroke-width="1" fill="blue" opacity="1" tooltip="enable"><title>(0.0189342,100)</title></rect><rect x="120" y="188.869" width="6" height="11.1313" stroke="black" stroke-width="1" fill="blue" opacity="1" tooltip="enable"><title>(0.0199307,92)</title></rect><rect x="126" y="188.869" width="6" height="11.1313" stroke="black" stroke-width="1" fill="blue" opacity="1" tooltip="enable"><title>(0.0209273,92)</title></rect><rect x="132" y="190.2" width="6" height="9.80036" stroke="black" stroke-width="1" fill="blue" opacity="1" tooltip="enable"><title>(0.0219238,81)</title></rect><rect x="138" y="191.41" width="6" height="8.59044" stroke="black" stroke-width="1" fill="blue" opacity="1" tooltip="enable"><title>(0.0229203,71)</title></rect><rect x="144" y="191.289" width="6" height="8.71143" stroke="black" stroke-width="1" fill="blue" opacity="1" tooltip="enable"><title>(0.0239169,72)</title></rect><rect x="150" y="192.982" width="6" height="7.01754" stroke="black" stroke-width="1" fill="blue" opacity="1" tooltip="enable"><title>(0.0249134,58)</title></rect><rect x="156" y="190.321" width="6" height="9.67937" stroke="black" stroke-width="1" fill="blue" opacity="1" tooltip="enable"><title>(0.0259099,80)</title></rect><rect x="162" y="190.805" width="6" height="9.1954" stroke="black" stroke-width="1" fill="blue" opacity="1" tooltip="enable"><title>(0.0269065,76)</title></rect><rect x="168" y="193.587" width="6" height="6.41258" stroke="black" stroke-width="1" fill="blue" opacity="1" tooltip="enable"><title>(0.027903,53)</title></rect><rect x="174" y="192.982" width="6" height="7.01754" stroke="black" stroke-width="1" fill="blue" opacity="1" tooltip="enable"><title>(0.0288996,58)</title></rect><rect x="180" y="192.136" width="6" height="7.86449" stroke="black" stroke-width="1" fill="blue" opacity="1" tooltip="enable"><title>(0.0298961,65)</title></rect><rect x="186" y="191.894" width="6" height="8.10647" stroke="black" stroke-width="1" fill="blue" opacity="1" tooltip="enable"><title>(0.0308926,67)</title></rect><rect x="192" y="194.555" width="6" height="5.44465" stroke="black" stroke-width="1" fill="blue" opacity="1" tooltip="enable"><title>(0.0318892,45)</title></rect><rect x="198" y="194.313" width="6" height="5.68663" stroke="black" stroke-width="1" fill="blue" opacity="1" tooltip="enable"><title>(0.0328857,47)</title></rect><rect x="204" y="193.345" width="6" height="6.65457" stroke="black" stroke-width="1" fill="blue" opacity="1" tooltip="enable"><title>(0.0338822,55)</title></rect><rect x="210" y="193.708" width="6" height="6.29159" stroke="black" stroke-width="1" fill="blue" opacity="1" tooltip="enable"><title>(0.0348788,52)</title></rect><rect x="216" y="193.95" width="6" height="6.04961" stroke="black" stroke-width="1" fill="blue" opacity="1" tooltip="enable"><title>(0.0358753,50)</title></rect><rect x="222" y="194.918" width="6" height="5.08167" stroke="black" stroke-width="1" fill="blue" opacity="1" tooltip="enable"><title>(0.0368718,42)</title></rect><rect x="228" y="192.015" width="6" height="7.98548" stroke="black" stroke-width="1" fill="blue" opacity="1" tooltip="enable"><title>(0.0378684,66)</title></rect><rect x="234" y="193.345" width="6" height="6.65457" stroke="black" stroke-width="1" fill="blue" opacity="1" tooltip="enable"><title>(0.0388649,55)</title></rect><rect x="240" y="195.281" width="6" height="4.71869" stroke="black" stroke-width="1" fill="blue" opacity="1" tooltip="enable"><title>(0.0398615,39)</title></rect><rect x="246" y="194.434" width="6" height="5.56564" stroke="black" stroke-width="1" fill="blue" opacity="1" tooltip="enable"><title>(0.040858,46)</title></rect><rect x="252" y="195.16" width="6" height="4.83969" stroke="black" stroke-width="1" fill="blue" opacity="1" tooltip="enable"><title>(0.0418545,40)</title></rect><rect x="258" y="195.039" width="6" height="4.96068" stroke="black" stroke-width="1" fill="blue" opacity="1" tooltip="enable"><title>(0.0428511,41)</title></rect><rect x="264" y="196.733" width="6" height="3.26679" stroke="black" stroke-width="1" fill="blue" opacity="1" tooltip="enable"><title>(0.0438476,27)</title></rect><rect x="270" y="194.313" width="6" height="5.68663" stroke="black" stroke-width="1" fill="blue" opacity="1" tooltip="enable"><title>(0.0448441,47)</title></rect><rect x="276" y="196.491" width="6" height="3.50877" stroke="black" stroke-width="1" fill="blue" opacity="1" tooltip="enable"><title>(0.0458407,29)</title></rect><rect x="282" y="196.733" width="6" height="3.26679" stroke="black" stroke-width="1" fill="blue" opacity="1" tooltip="enable"><title>(0.0468372,27)</title></rect><rect x="288" y="198.064" width="6" height="1.93587" stroke="black" stroke-width="1" fill="blue" opacity="1" tooltip="enable"><title>(0.0478337,16)</title></rect><rect x="294" y="195.765" width="6" height="4.23472" stroke="black" stroke-width="1" fill="blue" opacity="1" tooltip="enable"><title>(0.0488303,35)</title></rect><rect x="300" y="196.612" width="6" height="3.38778" stroke="black" stroke-width="1" fill="blue" opacity="1" tooltip="enable"><title>(0.0498268,28)</title></rect><rect x="306" y="198.548" width="6" height="1.45191" stroke="black" stroke-width="1" fill="blue" opacity="1" tooltip="enable"><title>(0.0508233,12)</title></rect><rect x="312" y="197.217" width="6" height="2.78282" stroke="black" stroke-width="1" fill="blue" opacity="1" tooltip="enable"><title>(0.0518199,23)</title></rect><rect x="318" y="197.822" width="6" height="2.17786" stroke="black" stroke-width="1" fill="blue" opacity="1" tooltip="enable"><title>(0.0528164,18)</title></rect><rect x="324" y="196.975" width="6" height="3.0248" stroke="black" stroke-width="1" fill="blue" opacity="1" tooltip="enable"><title>(0.053813,25)</title></rect><rect x="330" y="197.58" width="6" height="2.41984" stroke="black" stroke-width="1" fill="blue" opacity="1" tooltip="enable"><title>(0.0548095,20)</title></rect><rect x="336" y="197.58" width="6" height="2.41984" stroke="black" stroke-width="1" fill="blue" opacity="1" tooltip="enable"><title>(0.055806,20)</title></rect><rect x="342" y="197.822" width="6" height="2.17786" stroke="black" stroke-width="1" fill="blue" opacity="1" tooltip="enable"><title>(0.0568026,18)</title></rect><rect x="348" y="198.669" width="6" height="1.33091" stroke="black" stroke-width="1" fill="blue" opacity="1" tooltip="enable"><title>(0.0577991,11)</title></rect><rect x="354" y="198.427" width="6" height="1.5729" stroke="black" stroke-width="1" fill="blue" opacity="1" tooltip="enable"><title>(0.0587956,13)</title></rect><rect x="360" y="198.79" width="6" height="1.20992" stroke="black" stroke-width="1" fill="blue" opacity="1" tooltip="enable"><title>(0.0597922,10)</title></rect><rect x="366" y="198.306" width="6" height="1.69389" stroke="black" stroke-width="1" fill="blue" opacity="1" tooltip="enable"><title>(0.0607887,14)</title></rect><rect x="372" y="198.548" width="6" height="1.45191" stroke="black" stroke-width="1" fill="blue" opacity="1" tooltip="enable"><title>(0.0617853,12)</title></rect><rect x="378" y="199.032" width="6" height="0.967937" stroke="black" stroke-width="1" fill="blue" opacity="1" tooltip="enable"><title>(0.0627818,8)</title></rect><rect x="384" y="199.032" width="6" height="0.967937" stroke="black" stroke-width="1" fill="blue" opacity="1" tooltip="enable"><title>(0.0637783,8)</title></rect><rect x="390" y="199.032" width="6" height="0.967937" stroke="black" stroke-width="1" fill="blue" opacity="1" tooltip="enable"><title>(0.0647749,8)</title></rect><rect x="396" y="198.669" width="6" height="1.33091" stroke="black" stroke-width="1" fill="blue" opacity="1" tooltip="enable"><title>(0.0657714,11)</title></rect><rect x="402" y="199.395" width="6" height="0.604961" stroke="black" stroke-width="1" fill="blue" opacity="1" tooltip="enable"><title>(0.0667679,5)</title></rect><rect x="408" y="199.516" width="6" height="0.483969" stroke="black" stroke-width="1" fill="blue" opacity="1" tooltip="enable"><title>(0.0677645,4)</title></rect><rect x="414" y="199.516" width="6" height="0.483969" stroke="black" stroke-width="1" fill="blue" opacity="1" tooltip="enable"><title>(0.068761,4)</title></rect><rect x="420" y="198.064" width="6" height="1.93587" stroke="black" stroke-width="1" fill="blue" opacity="1" tooltip="enable"><title>(0.0697575,16)</title></rect><rect x="426" y="200" width="6" height="0" stroke="black" stroke-width="1" fill="blue" opacity="1" tooltip="enable"><title>(0.0707541,0)</title></rect><rect x="432" y="200" width="6" height="0" stroke="black" stroke-width="1" fill="blue" opacity="1" tooltip="enable"><title>(0.0717506,0)</title></rect><rect x="438" y="200" width="6" height="0" stroke="black" stroke-width="1" fill="blue" opacity="1" tooltip="enable"><title>(0.0727472,0)</title></rect><rect x="444" y="200" width="6" height="0" stroke="black" stroke-width="1" fill="blue" opacity="1" tooltip="enable"><title>(0.0737437,0)</title></rect><rect x="450" y="200" width="6" height="0" stroke="black" stroke-width="1" fill="blue" opacity="1" tooltip="enable"><title>(0.0747402,0)</title></rect><rect x="456" y="200" width="6" height="0" stroke="black" stroke-width="1" fill="blue" opacity="1" tooltip="enable"><title>(0.0757368,0)</title></rect><rect x="462" y="198.79" width="6" height="1.20992" stroke="black" stroke-width="1" fill="blue" opacity="1" tooltip="enable"><title>(0.0767333,10)</title></rect><rect x="468" y="200" width="6" height="0" stroke="black" stroke-width="1" fill="blue" opacity="1" tooltip="enable"><title>(0.0777298,0)</title></rect><rect x="474" y="199.516" width="6" height="0.483969" stroke="black" stroke-width="1" fill="blue" opacity="1" tooltip="enable"><title>(0.0787264,4)</title></rect><rect x="480" y="199.516" width="6" height="0.483969" stroke="black" stroke-width="1" fill="blue" opacity="1" tooltip="enable"><title>(0.0797229,4)</title></rect><rect x="486" y="199.758" width="6" height="0.241984" stroke="black" stroke-width="1" fill="blue" opacity="1" tooltip="enable"><title>(0.0807194,2)</title></rect><rect x="492" y="200" width="6" height="0" stroke="black" stroke-width="1" fill="blue" opacity="1" tooltip="enable"><title>(0.081716,0)</title></rect><rect x="498" y="199.516" width="6" height="0.483969" stroke="black" stroke-width="1" fill="blue" opacity="1" tooltip="enable"><title>(0.0827125,4)</title></rect><rect x="504" y="200" width="6" height="0" stroke="black" stroke-width="1" fill="blue" opacity="1" tooltip="enable"><title>(0.083709,0)</title></rect><rect x="510" y="199.758" width="6" height="0.241984" stroke="black" stroke-width="1" fill="blue" opacity="1" tooltip="enable"><title>(0.0847056,2)</title></rect><rect x="516" y="200" width="6" height="0" stroke="black" stroke-width="1" fill="blue" opacity="1" tooltip="enable"><title>(0.0857021,0)</title></rect><rect x="522" y="199.758" width="6" height="0.241984" stroke="black" stroke-width="1" fill="blue" opacity="1" tooltip="enable"><title>(0.0866987,2)</title></rect><rect x="528" y="200" width="6" height="0" stroke="black" stroke-width="1" fill="blue" opacity="1" tooltip="enable"><title>(0.0876952,0)</title></rect><rect x="534" y="200" width="6" height="0" stroke="black" stroke-width="1" fill="blue" opacity="1" tooltip="enable"><title>(0.0886917,0)</title></rect><rect x="540" y="200" width="6" height="0" stroke="black" stroke-width="1" fill="blue" opacity="1" tooltip="enable"><title>(0.0896883,0)</title></rect><rect x="546" y="200" width="6" height="0" stroke="black" stroke-width="1" fill="blue" opacity="1" tooltip="enable"><title>(0.0906848,0)</title></rect><rect x="552" y="199.758" width="6" height="0.241984" stroke="black" stroke-width="1" fill="blue" opacity="1" tooltip="enable"><title>(0.0916813,2)</title></rect><rect x="558" y="199.516" width="6" height="0.483969" stroke="black" stroke-width="1" fill="blue" opacity="1" tooltip="enable"><title>(0.0926779,4)</title></rect><rect x="564" y="200" width="6" height="0" stroke="black" stroke-width="1" fill="blue" opacity="1" tooltip="enable"><title>(0.0936744,0)</title></rect><rect x="570" y="199.516" width="6" height="0.483969" stroke="black" stroke-width="1" fill="blue" opacity="1" tooltip="enable"><title>(0.094671,4)</title></rect><rect x="576" y="200" width="6" height="0" stroke="black" stroke-width="1" fill="blue" opacity="1" tooltip="enable"><title>(0.0956675,0)</title></rect><rect x="582" y="200" width="6" height="0" stroke="black" stroke-width="1" fill="blue" opacity="1" tooltip="enable"><title>(0.096664,0)</title></rect><rect x="588" y="200" width="6" height="0" stroke="black" stroke-width="1" fill="blue" opacity="1" tooltip="enable"><title>(0.0976606,0)</title></rect><rect x="594" y="199.637" width="6" height="0.362976" stroke="black" stroke-width="1" fill="blue" opacity="1" tooltip="enable"><title>(0.0986571,3)</title></rect><text x="30" y="240" font-size="20" fill="black">0</text>
<text x="600" y="240" font-size="20" fill="black">0.0996536</text>
<polyline points="0,220,600,220" stroke="black" stroke-width="1" fill="none" opacity="1"/>
<text x="720" y="20" font-size="20" fill="black">1653</text>
<text x="720" y="200" font-size="20" fill="black">0</text>
<polyline points="660,0,660,200" stroke="black" stroke-width="1" fill="none" opacity="1"/>
</svg>