<?xml version="1.0" standalone="yes"?>
<!-- SVG graphic -->
<svg xmlns='http://www.w3.org/2000/svg' xmlns:xlink='http://www.w3.org/1999/xlink'
 version="1.1">
<rect x="0" y="36" width="6" height="164" stroke="black" stroke-width="1" fill="blue" opacity="1" tooltip="enable"><title>(0,779)</title></rect><rect x="6" y="19.1579" width="6" height="180.842" stroke="black" stroke-width="1" fill="blue" opacity="1" tooltip="enable"><title>(0.00126969,859)</title></rect><rect x="12" y="0" width="6" height="200" stroke="black" stroke-width="1" fill="blue" opacity="1" tooltip="enable"><title>(0.00253938,950)</title></rect><rect x="18" y="32.2105" width="6" height="167.789" stroke="black" stroke-width="1" fill="blue" opacity="1" tooltip="enable"><title>(0.00380907,797)</title></rect><rect x="24" y="77.0526" width="6" height="122.947" stroke="black" stroke-width="1" fill="blue" opacity="1" tooltip="enable"><title>(0.00507877,584)</title></rect><rect x="30" y="99.3684" width="6" height="100.632" stroke="black" stroke-width="1" fill="blue" opacity="1" tooltip="enable"><title>(0.00634846,478)</title></rect><rect x="36" y="133.895" width="6" height="66.1053" stroke="black" stroke-width="1" fill="blue" opacity="1" tooltip="enable"><title>(0.00761815,314)</title></rect><rect x="42" y="140" width="6" height="60" stroke="black" stroke-width="1" fill="blue" opacity="1" tooltip="enable"><title>(0.00888784,285)</title></rect><rect x="48" y="165.684" width="6" height="34.3158" stroke="black" stroke-width="1" fill="blue" opacity="1" tooltip="enable"><title>(0.0101575,163)</title></rect><rect x="54" y="160" width="6" height="40" stroke="black" stroke-width="1" fill="blue" opacity="1" tooltip="enable"><title>(0.0114272,190)</title></rect><rect x="60" y="162.316" width="6" height="37.6842" stroke="black" stroke-width="1" fill="blue" opacity="1" tooltip="enable"><title>(0.0126969,179)</title></rect><rect x="66" y="167.158" width="6" height="32.8421" stroke="black" stroke-width="1" fill="blue" opacity="1" tooltip="enable"><title>(0.0139666,156)</title></rect><rect x="72" y="167.158" width="6" height="32.8421" stroke="black" stroke-width="1" fill="blue" opacity="1" tooltip="enable"><title>(0.0152363,156)</title></rect><rect x="78" y="161.053" width="6" height="38.9474" stroke="black" stroke-width="1" fill="blue" opacity="1" tooltip="enable"><title>(0.016506,185)</title></rect><rect x="84" y="171.789" width="6" height="28.2105" stroke="black" stroke-width="1" fill="blue" opacity="1" tooltip="enable"><title>(0.0177757,134)</title></rect><rect x="90" y="170.737" width="6" height="29.2632" stroke="black" stroke-width="1" fill="blue" opacity="1" tooltip="enable"><title>(0.0190454,139)</title></rect><rect x="96" y="173.263" width="6" height="26.7368" stroke="black" stroke-width="1" fill="blue" opacity="1" tooltip="enable"><title>(0.0203151,127)</title></rect><rect x="102" y="174.105" width="6" height="25.8947" stroke="black" stroke-width="1" fill="blue" opacity="1" tooltip="enable"><title>(0.0215848,123)</title></rect><rect x="108" y="179.368" width="6" height="20.6316" stroke="black" stroke-width="1" fill="blue" opacity="1" tooltip="enable"><title>(0.0228544,98)</title></rect><rect x="114" y="179.158" width="6" height="20.8421" stroke="black" stroke-width="1" fill="blue" opacity="1" tooltip="enable"><title>(0.0241241,99)</title></rect><rect x="120" y="174.105" width="6" height="25.8947" stroke="black" stroke-width="1" fill="blue" opacity="1" tooltip="enable"><title>(0.0253938,123)</title></rect><rect x="126" y="180.632" width="6" height="19.3684" stroke="black" stroke-width="1" fill="blue" opacity="1" tooltip="enable"><title>(0.0266635,92)</title></rect><rect x="132" y="182.737" width="6" height="17.2632" stroke="black" stroke-width="1" fill="blue" opacity="1" tooltip="enable"><title>(0.0279332,82)</title></rect><rect x="138" y="180.632" width="6" height="19.3684" stroke="black" stroke-width="1" fill="blue" opacity="1" tooltip="enable"><title>(0.0292029,92)</title></rect><rect x="144" y="181.474" width="6" height="18.5263" stroke="black" stroke-width="1" fill="blue" opacity="1" tooltip="enable"><title>(0.0304726,88)</title></rect><rect x="150" y="180" width="6" height="20" stroke="black" stroke-width="1" fill="blue" opacity="1" tooltip="enable"><title>(0.0317423,95)</title></rect><rect x="156" y="185.895" width="6" height="14.1053" stroke="black" stroke-width="1" fill="blue" opacity="1" tooltip="enable"><title>(0.033012,67)</title></rect><rect x="162" y="187.368" width="6" height="12.6316" stroke="black" stroke-width="1" fill="blue" opacity="1" tooltip="enable"><title>(0.0342817,60)</title></rect><rect x="168" y="184.842" width="6" height="15.1579" stroke="black" stroke-width="1" fill="blue" opacity="1" tooltip="enable"><title>(0.0355514,72)</title></rect><rect x="174" y="187.579" width="6" height="12.4211" stroke="black" stroke-width="1" fill="blue" opacity="1" tooltip="enable"><title>(0.0368211,59)</title></rect><rect x="180" y="189.684" width="6" height="10.3158" stroke="black" stroke-width="1" fill="blue" opacity="1" tooltip="enable"><title>(0.0380908,49)</title></rect><rect x="186" y="188.632" width="6" height="11.3684" stroke="black" stroke-width="1" fill="blue" opacity="1" tooltip="enable"><title>(0.0393604,54)</title></rect><rect x="192" y="190.105" width="6" height="9.89474" stroke="black" stroke-width="1" fill="blue" opacity="1" tooltip="enable"><title>(0.0406301,47)</title></rect><rect x="198" y="193.474" width="6" height="6.52632" stroke="black" stroke-width="1" fill="blue" opacity="1" tooltip="enable"><title>(0.0418998,31)</title></rect><rect x="204" y="193.684" width="6" height="6.31579" stroke="black" stroke-width="1" fill="blue" opacity="1" tooltip="enable"><title>(0.0431695,30)</title></rect><rect x="210" y="193.263" width="6" height="6.73684" stroke="black" stroke-width="1" fill="blue" opacity="1" tooltip="enable"><title>(0.0444392,32)</title></rect><rect x="216" y="195.789" width="6" height="4.21053" stroke="black" stroke-width="1" fill="blue" opacity="1" tooltip="enable"><title>(0.0457089,20)</title></rect><rect x="222" y="197.263" width="6" height="2.73684" stroke="black" stroke-width="1" fill="blue" opacity="1" tooltip="enable"><title>(0.0469786,13)</title></rect><rect x="228" y="196.842" width="6" height="3.15789" stroke="black" stroke-width="1" fill="blue" opacity="1" tooltip="enable"><title>(0.0482483,15)</title></rect><rect x="234" y="195.158" width="6" height="4.84211" stroke="black" stroke-width="1" fill="blue" opacity="1" tooltip="enable"><title>(0.049518,23)</title></rect><rect x="240" y="197.263" width="6" height="2.73684" stroke="black" stroke-width="1" fill="blue" opacity="1" tooltip="enable"><title>(0.0507877,13)</title></rect><rect x="246" y="198.316" width="6" height="1.68421" stroke="black" stroke-width="1" fill="blue" opacity="1" tooltip="enable"><title>(0.0520574,8)</title></rect><rect x="252" y="197.684" width="6" height="2.31579" stroke="black" stroke-width="1" fill="blue" opacity="1" tooltip="enable"><title>(0.053327,11)</title></rect><rect x="258" y="198.947" width="6" height="1.05263" stroke="black" stroke-width="1" fill="blue" opacity="1" tooltip="enable"><title>(0.0545967,5)</title></rect><rect x="264" y="199.158" width="6" height="0.842105" stroke="black" stroke-width="1" fill="blue" opacity="1" tooltip="enable"><title>(0.0558664,4)</title></rect><rect x="270" y="199.158" width="6" height="0.842105" stroke="black" stroke-width="1" fill="blue" opacity="1" tooltip="enable"><title>(0.0571361,4)</title></rect><rect x="276" y="198.737" width="6" height="1.26316" stroke="black" stroke-width="1" fill="blue" opacity="1" tooltip="enable"><title>(0.0584058,6)</title></rect><rect x="282" y="200" width="6" height="0" stroke="black" stroke-width="1" fill="blue" opacity="1" tooltip="enable"><title>(0.0596755,0)</title></rect><rect x="288" y="200" width="6" height="0" stroke="black" stroke-width="1" fill="blue" opacity="1" tooltip="enable"><title>(0.0609452,0)</title></rect><rect x="294" y="200" width="6" height="0" stroke="black" stroke-width="1" fill="blue" opacity="1" tooltip="enable"><title>(0.0622149,0)</title></rect><rect x="300" y="199.579" width="6" height="0.421053" stroke="black" stroke-width="1" fill="blue" opacity="1" tooltip="enable"><title>(0.0634846,2)</title></rect><rect x="306" y="200" width="6" height="0" stroke="black" stroke-width="1" fill="blue" opacity="1" tooltip="enable"><title>(0.0647543,0)</title></rect><rect x="312" y="200" width="6" height="0" stroke="black" stroke-width="1" fill="blue" opacity="1" tooltip="enable"><title>(0.066024,0)</title></rect><rect x="318" y="200" width="6" height="0" stroke="black" stroke-width="1" fill="blue" opacity="1" tooltip="enable"><title>(0.0672937,0)</title></rect><rect x="324" y="200" width="6" height="0" stroke="black" stroke-width="1" fill="blue" opacity="1" tooltip="enable"><title>(0.0685633,0)</title></rect><rect x="330" y="200" width="6" height="0" stroke="black" stroke-width="1" fill="blue" opacity="1" tooltip="enable"><title>(0.069833,0)</title></rect><rect x="336" y="200" width="6" height="0" stroke="black" stroke-width="1" fill="blue" opacity="1" tooltip="enable"><title>(0.0711027,0)</title></rect><rect x="342" y="200" width="6" height="0" stroke="black" stroke-width="1" fill="blue" opacity="1" tooltip="enable"><title>(0.0723724,0)</title></rect><rect x="348" y="200" width="6" height="0" stroke="black" stroke-width="1" fill="blue" opacity="1" tooltip="enable"><title>(0.0736421,0)</title></rect><rect x="354" y="200" width="6" height="0" stroke="black" stroke-width="1" fill="blue" opacity="1" tooltip="enable"><title>(0.0749118,0)</title></rect><rect x="360" y="200" width="6" height="0" stroke="black" stroke-width="1" fill="blue" opacity="1" tooltip="enable"><title>(0.0761815,0)</title></rect><rect x="366" y="200" width="6" height="0" stroke="black" stroke-width="1" fill="blue" opacity="1" tooltip="enable"><title>(0.0774512,0)</title></rect><rect x="372" y="200" width="6" height="0" stroke="black" stroke-width="1" fill="blue" opacity="1" tooltip="enable"><title>(0.0787209,0)</title></rect><rect x="378" y="200" width="6" height="0" stroke="black" stroke-width="1" fill="blue" opacity="1" tooltip="enable"><title>(0.0799906,0)</title></rect><rect x="384" y="200" width="6" height="0" stroke="black" stroke-width="1" fill="blue" opacity="1" tooltip="enable"><title>(0.0812603,0)</title></rect><rect x="390" y="200" width="6" height="0" stroke="black" stroke-width="1" fill="blue" opacity="1" tooltip="enable"><title>(0.0825299,0)</title></rect><rect x="396" y="200" width="6" height="0" stroke="black" stroke-width="1" fill="blue" opacity="1" tooltip="enable"><title>(0.0837996,0)</title></rect><rect x="402" y="200" width="6" height="0" stroke="black" stroke-width="1" fill="blue" opacity="1" tooltip="enable"><title>(0.0850693,0)</title></rect><rect x="408" y="200" width="6" height="0" stroke="black" stroke-width="1" fill="blue" opacity="1" tooltip="enable"><title>(0.086339,0)</title></rect><rect x="414" y="200" width="6" height="0" stroke="black" stroke-width="1" fill="blue" opacity="1" tooltip="enable"><title>(0.0876087,0)</title></rect><rect x="420" y="200" width="6" height="0" stroke="black" stroke-width="1" fill="blue" opacity="1" tooltip="enable"><title>(0.0888784,0)</title></rect><rect x="426" y="199.579" width="6" height="0.421053" stroke="black" stroke-width="1" fill="blue" opacity="1" tooltip="enable"><title>(0.0901481,2)</title></rect><rect x="432" y="200" width="6" height="0" stroke="black" stroke-width="1" fill="blue" opacity="1" tooltip="enable"><title>(0.0914178,0)</title></rect><rect x="438" y="200" width="6" height="0" stroke="black" stroke-width="1" fill="blue" opacity="1" tooltip="enable"><title>(0.0926875,0)</title></rect><rect x="444" y="200" width="6" height="0" stroke="black" stroke-width="1" fill="blue" opacity="1" tooltip="enable"><title>(0.0939572,0)</title></rect><rect x="450" y="200" width="6" height="0" stroke="black" stroke-width="1" fill="blue" opacity="1" tooltip="enable"><title>(0.0952269,0)</title></rect><rect x="456" y="200" width="6" height="0" stroke="black" stroke-width="1" fill="blue" opacity="1" tooltip="enable"><title>(0.0964966,0)</title></rect><rect x="462" y="200" width="6" height="0" stroke="black" stroke-width="1" fill="blue" opacity="1" tooltip="enable"><title>(0.0977663,0)</title></rect><rect x="468" y="200" width="6" height="0" stroke="black" stroke-width="1" fill="blue" opacity="1" tooltip="enable"><title>(0.0990359,0)</title></rect><rect x="474" y="200" width="6" height="0" stroke="black" stroke-width="1" fill="blue" opacity="1" tooltip="enable"><title>(0.100306,0)</title></rect><rect x="480" y="200" width="6" height="0" stroke="black" stroke-width="1" fill="blue" opacity="1" tooltip="enable"><title>(0.101575,0)</title></rect><rect x="486" y="200" width="6" height="0" stroke="black" stroke-width="1" fill="blue" opacity="1" tooltip="enable"><title>(0.102845,0)</title></rect><rect x="492" y="200" width="6" height="0" stroke="black" stroke-width="1" fill="blue" opacity="1" tooltip="enable"><title>(0.104115,0)</title></rect><rect x="498" y="200" width="6" height="0" stroke="black" stroke-width="1" fill="blue" opacity="1" tooltip="enable"><title>(0.105384,0)</title></rect><rect x="504" y="199.579" width="6" height="0.421053" stroke="black" stroke-width="1" fill="blue" opacity="1" tooltip="enable"><title>(0.106654,2)</title></rect><rect x="510" y="200" width="6" height="0" stroke="black" stroke-width="1" fill="blue" opacity="1" tooltip="enable"><title>(0.107924,0)</title></rect><rect x="516" y="200" width="6" height="0" stroke="black" stroke-width="1" fill="blue" opacity="1" tooltip="enable"><title>(0.109193,0)</title></rect><rect x="522" y="200" width="6" height="0" stroke="black" stroke-width="1" fill="blue" opacity="1" tooltip="enable"><title>(0.110463,0)</title></rect><rect x="528" y="200" width="6" height="0" stroke="black" stroke-width="1" fill="blue" opacity="1" tooltip="enable"><title>(0.111733,0)</title></rect><rect x="534" y="200" width="6" height="0" stroke="black" stroke-width="1" fill="blue" opacity="1" tooltip="enable"><title>(0.113003,0)</title></rect><rect x="540" y="200" width="6" height="0" stroke="black" stroke-width="1" fill="blue" opacity="1" tooltip="enable"><title>(0.114272,0)</title></rect><rect x="546" y="199.579" width="6" height="0.421053" stroke="black" stroke-width="1" fill="blue" opacity="1" tooltip="enable"><title>(0.115542,2)</title></rect><rect x="552" y="200" width="6" height="0" stroke="black" stroke-width="1" fill="blue" opacity="1" tooltip="enable"><title>(0.116812,0)</title></rect><rect x="558" y="200" width="6" height="0" stroke="black" stroke-width="1" fill="blue" opacity="1" tooltip="enable"><title>(0.118081,0)</title></rect><rect x="564" y="200" width="6" height="0" stroke="black" stroke-width="1" fill="blue" opacity="1" tooltip="enable"><title>(0.119351,0)</title></rect><rect x="570" y="200" width="6" height="0" stroke="black" stroke-width="1" fill="blue" opacity="1" tooltip="enable"><title>(0.120621,0)</title></rect><rect x="576" y="200" width="6" height="0" stroke="black" stroke-width="1" fill="blue" opacity="1" tooltip="enable"><title>(0.12189,0)</title></rect><rect x="582" y="200" width="6" height="0" stroke="black" stroke-width="1" fill="blue" opacity="1" tooltip="enable"><title>(0.12316,0)</title></rect><rect x="588" y="200" width="6" height="0" stroke="black" stroke-width="1" fill="blue" opacity="1" tooltip="enable"><title>(0.12443,0)</title></rect><rect x="594" y="199.789" width="6" height="0.210526" stroke="black" stroke-width="1" fill="blue" opacity="1" tooltip="enable"><title>(0.125699,1)</title></rect><text x="30" y="240" font-size="20" fill="black">0</text>
<text x="600" y="240" font-size="20" fill="black">0.126969</text>
<polyline points="0,220,600,220" stroke="black" stroke-width="1" fill="none" opacity="1"/>
<text x="720" y="20" font-size="20" fill="black">950</text>
<text x="720" y="200" font-size="20" fill="black">0</text>
<polyline points="660,0,660,200" stroke="black" stroke-width="1" fill="none" opacity="1"/>
</svg>