<?xml version="1.0" standalone="yes"?>
<!-- SVG graphic -->
<svg xmlns='http://www.w3.org/2000/svg' xmlns:xlink='http://www.w3.org/1999/xlink'
 version="1.1">
<rect x="0" y="0" width="6" height="200" stroke="black" stroke-width="1" fill="blue" opacity="1" tooltip="enable"><title>(0,4275)</title></rect><rect x="6" y="185.357" width="6" height="14.6433" stroke="black" stroke-width="1" fill="blue" opacity="1" tooltip="enable"><title>(0.0012864,313)</title></rect><rect x="12" y="188.585" width="6" height="11.4152" stroke="black" stroke-width="1" fill="blue" opacity="1" tooltip="enable"><title>(0.0025728,244)</title></rect><rect x="18" y="188.585" width="6" height="11.4152" stroke="black" stroke-width="1" fill="blue" opacity="1" tooltip="enable"><title>(0.0038592,244)</title></rect><rect x="24" y="187.93" width="6" height="12.0702" stroke="black" stroke-width="1" fill="blue" opacity="1" tooltip="enable"><title>(0.00514559,258)</title></rect><rect x="30" y="189.146" width="6" height="10.8538" stroke="black" stroke-width="1" fill="blue" opacity="1" tooltip="enable"><title>(0.00643199,232)</title></rect><rect x="36" y="189.053" width="6" height="10.9474" stroke="black" stroke-width="1" fill="blue" opacity="1" tooltip="enable"><title>(0.00771839,234)</title></rect><rect x="42" y="190.456" width="6" height="9.54386" stroke="black" stroke-width="1" fill="blue" opacity="1" tooltip="enable"><title>(0.00900479,204)</title></rect><rect x="48" y="192.608" width="6" height="7.39181" stroke="black" stroke-width="1" fill="blue" opacity="1" tooltip="enable"><title>(0.0102912,158)</title></rect><rect x="54" y="192.702" width="6" height="7.29825" stroke="black" stroke-width="1" fill="blue" opacity="1" tooltip="enable"><title>(0.0115776,156)</title></rect><rect x="60" y="191.673" width="6" height="8.32749" stroke="black" stroke-width="1" fill="blue" opacity="1" tooltip="enable"><title>(0.012864,178)</title></rect><rect x="66" y="191.205" width="6" height="8.79532" stroke="black" stroke-width="1" fill="blue" opacity="1" tooltip="enable"><title>(0.0141504,188)</title></rect><rect x="72" y="192.327" width="6" height="7.67251" stroke="black" stroke-width="1" fill="blue" opacity="1" tooltip="enable"><title>(0.0154368,164)</title></rect><rect x="78" y="192.234" width="6" height="7.76608" stroke="black" stroke-width="1" fill="blue" opacity="1" tooltip="enable"><title>(0.0167232,166)</title></rect><rect x="84" y="194.058" width="6" height="5.94152" stroke="black" stroke-width="1" fill="blue" opacity="1" tooltip="enable"><title>(0.0180096,127)</title></rect><rect x="90" y="194.292" width="6" height="5.7076" stroke="black" stroke-width="1" fill="blue" opacity="1" tooltip="enable"><title>(0.019296,122)</title></rect><rect x="96" y="195.135" width="6" height="4.8655" stroke="black" stroke-width="1" fill="blue" opacity="1" tooltip="enable"><title>(0.0205824,104)</title></rect><rect x="102" y="194.339" width="6" height="5.66082" stroke="black" stroke-width="1" fill="blue" opacity="1" tooltip="enable"><title>(0.0218688,121)</title></rect><rect x="108" y="195.977" width="6" height="4.02339" stroke="black" stroke-width="1" fill="blue" opacity="1" tooltip="enable"><title>(0.0231552,86)</title></rect><rect x="114" y="197.099" width="6" height="2.90058" stroke="black" stroke-width="1" fill="blue" opacity="1" tooltip="enable"><title>(0.0244416,62)</title></rect><rect x="120" y="197.24" width="6" height="2.76023" stroke="black" stroke-width="1" fill="blue" opacity="1" tooltip="enable"><title>(0.025728,59)</title></rect><rect x="126" y="198.082" width="6" height="1.91813" stroke="black" stroke-width="1" fill="blue" opacity="1" tooltip="enable"><title>(0.0270144,41)</title></rect><rect x="132" y="197.474" width="6" height="2.52632" stroke="black" stroke-width="1" fill="blue" opacity="1" tooltip="enable"><title>(0.0283008,54)</title></rect><rect x="138" y="198.456" width="6" height="1.54386" stroke="black" stroke-width="1" fill="blue" opacity="1" tooltip="enable"><title>(0.0295872,33)</title></rect><rect x="144" y="198.924" width="6" height="1.07602" stroke="black" stroke-width="1" fill="blue" opacity="1" tooltip="enable"><title>(0.0308736,23)</title></rect><rect x="150" y="198.877" width="6" height="1.12281" stroke="black" stroke-width="1" fill="blue" opacity="1" tooltip="enable"><title>(0.03216,24)</title></rect><rect x="156" y="198.971" width="6" height="1.02924" stroke="black" stroke-width="1" fill="blue" opacity="1" tooltip="enable"><title>(0.0334464,22)</title></rect><rect x="162" y="199.251" width="6" height="0.748538" stroke="black" stroke-width="1" fill="blue" opacity="1" tooltip="enable"><title>(0.0347328,16)</title></rect><rect x="168" y="199.719" width="6" height="0.280702" stroke="black" stroke-width="1" fill="blue" opacity="1" tooltip="enable"><title>(0.0360192,6)</title></rect><rect x="174" y="199.439" width="6" height="0.561404" stroke="black" stroke-width="1" fill="blue" opacity="1" tooltip="enable"><title>(0.0373056,12)</title></rect><rect x="180" y="199.719" width="6" height="0.280702" stroke="black" stroke-width="1" fill="blue" opacity="1" tooltip="enable"><title>(0.038592,6)</title></rect><rect x="186" y="199.906" width="6" height="0.0935673" stroke="black" stroke-width="1" fill="blue" opacity="1" tooltip="enable"><title>(0.0398784,2)</title></rect><rect x="192" y="199.813" width="6" height="0.187135" stroke="black" stroke-width="1" fill="blue" opacity="1" tooltip="enable"><title>(0.0411647,4)</title></rect><rect x="198" y="199.813" width="6" height="0.187135" stroke="black" stroke-width="1" fill="blue" opacity="1" tooltip="enable"><title>(0.0424512,4)</title></rect><rect x="204" y="199.813" width="6" height="0.187135" stroke="black" stroke-width="1" fill="blue" opacity="1" tooltip="enable"><title>(0.0437375,4)</title></rect><rect x="210" y="200" width="6" height="0" stroke="black" stroke-width="1" fill="blue" opacity="1" tooltip="enable"><title>(0.0450239,0)</title></rect><rect x="216" y="200" width="6" height="0" stroke="black" stroke-width="1" fill="blue" opacity="1" tooltip="enable"><title>(0.0463103,0)</title></rect><rect x="222" y="199.813" width="6" height="0.187135" stroke="black" stroke-width="1" fill="blue" opacity="1" tooltip="enable"><title>(0.0475967,4)</title></rect><rect x="228" y="199.906" width="6" height="0.0935673" stroke="black" stroke-width="1" fill="blue" opacity="1" tooltip="enable"><title>(0.0488831,2)</title></rect><rect x="234" y="199.906" width="6" height="0.0935673" stroke="black" stroke-width="1" fill="blue" opacity="1" tooltip="enable"><title>(0.0501695,2)</title></rect><rect x="240" y="200" width="6" height="0" stroke="black" stroke-width="1" fill="blue" opacity="1" tooltip="enable"><title>(0.0514559,0)</title></rect><rect x="246" y="199.813" width="6" height="0.187135" stroke="black" stroke-width="1" fill="blue" opacity="1" tooltip="enable"><title>(0.0527423,4)</title></rect><rect x="252" y="200" width="6" height="0" stroke="black" stroke-width="1" fill="blue" opacity="1" tooltip="enable"><title>(0.0540287,0)</title></rect><rect x="258" y="199.813" width="6" height="0.187135" stroke="black" stroke-width="1" fill="blue" opacity="1" tooltip="enable"><title>(0.0553151,4)</title></rect><rect x="264" y="199.813" width="6" height="0.187135" stroke="black" stroke-width="1" fill="blue" opacity="1" tooltip="enable"><title>(0.0566015,4)</title></rect><rect x="270" y="200" width="6" height="0" stroke="black" stroke-width="1" fill="blue" opacity="1" tooltip="enable"><title>(0.0578879,0)</title></rect><rect x="276" y="200" width="6" height="0" stroke="black" stroke-width="1" fill="blue" opacity="1" tooltip="enable"><title>(0.0591743,0)</title></rect><rect x="282" y="199.719" width="6" height="0.280702" stroke="black" stroke-width="1" fill="blue" opacity="1" tooltip="enable"><title>(0.0604607,6)</title></rect><rect x="288" y="200" width="6" height="0" stroke="black" stroke-width="1" fill="blue" opacity="1" tooltip="enable"><title>(0.0617471,0)</title></rect><rect x="294" y="200" width="6" height="0" stroke="black" stroke-width="1" fill="blue" opacity="1" tooltip="enable"><title>(0.0630335,0)</title></rect><rect x="300" y="199.906" width="6" height="0.0935673" stroke="black" stroke-width="1" fill="blue" opacity="1" tooltip="enable"><title>(0.0643199,2)</title></rect><rect x="306" y="200" width="6" height="0" stroke="black" stroke-width="1" fill="blue" opacity="1" tooltip="enable"><title>(0.0656063,0)</title></rect><rect x="312" y="199.813" width="6" height="0.187135" stroke="black" stroke-width="1" fill="blue" opacity="1" tooltip="enable"><title>(0.0668927,4)</title></rect><rect x="318" y="199.906" width="6" height="0.0935673" stroke="black" stroke-width="1" fill="blue" opacity="1" tooltip="enable"><title>(0.0681791,2)</title></rect><rect x="324" y="200" width="6" height="0" stroke="black" stroke-width="1" fill="blue" opacity="1" tooltip="enable"><title>(0.0694655,0)</title></rect><rect x="330" y="200" width="6" height="0" stroke="black" stroke-width="1" fill="blue" opacity="1" tooltip="enable"><title>(0.0707519,0)</title></rect><rect x="336" y="200" width="6" height="0" stroke="black" stroke-width="1" fill="blue" opacity="1" tooltip="enable"><title>(0.0720383,0)</title></rect><rect x="342" y="199.906" width="6" height="0.0935673" stroke="black" stroke-width="1" fill="blue" opacity="1" tooltip="enable"><title>(0.0733247,2)</title></rect><rect x="348" y="200" width="6" height="0" stroke="black" stroke-width="1" fill="blue" opacity="1" tooltip="enable"><title>(0.0746111,0)</title></rect><rect x="354" y="199.719" width="6" height="0.280702" stroke="black" stroke-width="1" fill="blue" opacity="1" tooltip="enable"><title>(0.0758975,6)</title></rect><rect x="360" y="199.906" width="6" height="0.0935673" stroke="black" stroke-width="1" fill="blue" opacity="1" tooltip="enable"><title>(0.0771839,2)</title></rect><rect x="366" y="199.906" width="6" height="0.0935673" stroke="black" stroke-width="1" fill="blue" opacity="1" tooltip="enable"><title>(0.0784703,2)</title></rect><rect x="372" y="200" width="6" height="0" stroke="black" stroke-width="1" fill="blue" opacity="1" tooltip="enable"><title>(0.0797567,0)</title></rect><rect x="378" y="200" width="6" height="0" stroke="black" stroke-width="1" fill="blue" opacity="1" tooltip="enable"><title>(0.0810431,0)</title></rect><rect x="384" y="200" width="6" height="0" stroke="black" stroke-width="1" fill="blue" opacity="1" tooltip="enable"><title>(0.0823295,0)</title></rect><rect x="390" y="200" width="6" height="0" stroke="black" stroke-width="1" fill="blue" opacity="1" tooltip="enable"><title>(0.0836159,0)</title></rect><rect x="396" y="200" width="6" height="0" stroke="black" stroke-width="1" fill="blue" opacity="1" tooltip="enable"><title>(0.0849023,0)</title></rect><rect x="402" y="200" width="6" height="0" stroke="black" stroke-width="1" fill="blue" opacity="1" tooltip="enable"><title>(0.0861887,0)</title></rect><rect x="408" y="200" width="6" height="0" stroke="black" stroke-width="1" fill="blue" opacity="1" tooltip="enable"><title>(0.0874751,0)</title></rect><rect x="414" y="200" width="6" height="0" stroke="black" stroke-width="1" fill="blue" opacity="1" tooltip="enable"><title>(0.0887615,0)</title></rect><rect x="420" y="200" width="6" height="0" stroke="black" stroke-width="1" fill="blue" opacity="1" tooltip="enable"><title>(0.0900479,0)</title></rect><rect x="426" y="200" width="6" height="0" stroke="black" stroke-width="1" fill="blue" opacity="1" tooltip="enable"><title>(0.0913343,0)</title></rect><rect x="432" y="200" width="6" height="0" stroke="black" stroke-width="1" fill="blue" opacity="1" tooltip="enable"><title>(0.0926207,0)</title></rect><rect x="438" y="200" width="6" height="0" stroke="black" stroke-width="1" fill="blue" opacity="1" tooltip="enable"><title>(0.0939071,0)</title></rect><rect x="444" y="200" width="6" height="0" stroke="black" stroke-width="1" fill="blue" opacity="1" tooltip="enable"><title>(0.0951935,0)</title></rect><rect x="450" y="200" width="6" height="0" stroke="black" stroke-width="1" fill="blue" opacity="1" tooltip="enable"><title>(0.0964799,0)</title></rect><rect x="456" y="200" width="6" height="0" stroke="black" stroke-width="1" fill="blue" opacity="1" tooltip="enable"><title>(0.0977663,0)</title></rect><rect x="462" y="199.906" width="6" height="0.0935673" stroke="black" stroke-width="1" fill="blue" opacity="1" tooltip="enable"><title>(0.0990527,2)</title></rect><rect x="468" y="200" width="6" height="0" stroke="black" stroke-width="1" fill="blue" opacity="1" tooltip="enable"><title>(0.100339,0)</title></rect><rect x="474" y="200" width="6" height="0" stroke="black" stroke-width="1" fill="blue" opacity="1" tooltip="enable"><title>(0.101625,0)</title></rect><rect x="480" y="200" width="6" height="0" stroke="black" stroke-width="1" fill="blue" opacity="1" tooltip="enable"><title>(0.102912,0)</title></rect><rect x="486" y="200" width="6" height="0" stroke="black" stroke-width="1" fill="blue" opacity="1" tooltip="enable"><title>(0.104198,0)</title></rect><rect x="492" y="200" width="6" height="0" stroke="black" stroke-width="1" fill="blue" opacity="1" tooltip="enable"><title>(0.105485,0)</title></rect><rect x="498" y="199.906" width="6" height="0.0935673" stroke="black" stroke-width="1" fill="blue" opacity="1" tooltip="enable"><title>(0.106771,2)</title></rect><rect x="504" y="200" width="6" height="0" stroke="black" stroke-width="1" fill="blue" opacity="1" tooltip="enable"><title>(0.108057,0)</title></rect><rect x="510" y="200" width="6" height="0" stroke="black" stroke-width="1" fill="blue" opacity="1" tooltip="enable"><title>(0.109344,0)</title></rect><rect x="516" y="200" width="6" height="0" stroke="black" stroke-width="1" fill="blue" opacity="1" tooltip="enable"><title>(0.11063,0)</title></rect><rect x="522" y="200" width="6" height="0" stroke="black" stroke-width="1" fill="blue" opacity="1" tooltip="enable"><title>(0.111917,0)</title></rect><rect x="528" y="200" width="6" height="0" stroke="black" stroke-width="1" fill="blue" opacity="1" tooltip="enable"><title>(0.113203,0)</title></rect><rect x="534" y="200" width="6" height="0" stroke="black" stroke-width="1" fill="blue" opacity="1" tooltip="enable"><title>(0.114489,0)</title></rect><rect x="540" y="200" width="6" height="0" stroke="black" stroke-width="1" fill="blue" opacity="1" tooltip="enable"><title>(0.115776,0)</title></rect><rect x="546" y="200" width="6" height="0" stroke="black" stroke-width="1" fill="blue" opacity="1" tooltip="enable"><title>(0.117062,0)</title></rect><rect x="552" y="200" width="6" height="0" stroke="black" stroke-width="1" fill="blue" opacity="1" tooltip="enable"><title>(0.118349,0)</title></rect><rect x="558" y="200" width="6" height="0" stroke="black" stroke-width="1" fill="blue" opacity="1" tooltip="enable"><title>(0.119635,0)</title></rect><rect x="564" y="200" width="6" height="0" stroke="black" stroke-width="1" fill="blue" opacity="1" tooltip="enable"><title>(0.120921,0)</title></rect><rect x="570" y="200" width="6" height="0" stroke="black" stroke-width="1" fill="blue" opacity="1" tooltip="enable"><title>(0.122208,0)</title></rect><rect x="576" y="200" width="6" height="0" stroke="black" stroke-width="1" fill="blue" opacity="1" tooltip="enable"><title>(0.123494,0)</title></rect><rect x="582" y="200" width="6" height="0" stroke="black" stroke-width="1" fill="blue" opacity="1" tooltip="enable"><title>(0.124781,0)</title></rect><rect x="588" y="199.906" width="6" height="0.0935673" stroke="black" stroke-width="1" fill="blue" opacity="1" tooltip="enable"><title>(0.126067,2)</title></rect><rect x="594" y="199.953" width="6" height="0.0467836" stroke="black" stroke-width="1" fill="blue" opacity="1" tooltip="enable"><title>(0.127353,1)</title></rect><text x="30" y="240" font-size="20" fill="black">0</text>
<text x="600" y="240" font-size="20" fill="black">0.12864</text>
<polyline points="0,220,600,220" stroke="black" stroke-width="1" fill="none" opacity="1"/>
<text x="720" y="20" font-size="20" fill="black">4275</text>
<text x="720" y="200" font-size="20" fill="black">0</text>
<polyline points="660,0,660,200" stroke="black" stroke-width="1" fill="none" opacity="1"/>
</svg>