<?xml version="1.0" standalone="yes"?>
<!-- SVG graphic -->
<svg xmlns='http://www.w3.org/2000/svg' xmlns:xlink='http://www.w3.org/1999/xlink'
 version="1.1">
<rect x="0" y="0" width="6" height="200" stroke="black" stroke-width="1" fill="blue" opacity="1" tooltip="enable"><title>(0,1817)</title></rect><rect x="6" y="25.5366" width="6" height="174.463" stroke="black" stroke-width="1" fill="blue" opacity="1" tooltip="enable"><title>(0.00134244,1585)</title></rect><rect x="12" y="103.247" width="6" height="96.7529" stroke="black" stroke-width="1" fill="blue" opacity="1" tooltip="enable"><title>(0.00268488,879)</title></rect><rect x="18" y="169.4" width="6" height="30.5999" stroke="black" stroke-width="1" fill="blue" opacity="1" tooltip="enable"><title>(0.00402731,278)</title></rect><rect x="24" y="186.241" width="6" height="13.7589" stroke="black" stroke-width="1" fill="blue" opacity="1" tooltip="enable"><title>(0.00536975,125)</title></rect><rect x="30" y="186.351" width="6" height="13.6489" stroke="black" stroke-width="1" fill="blue" opacity="1" tooltip="enable"><title>(0.00671219,124)</title></rect><rect x="36" y="182.389" width="6" height="17.6114" stroke="black" stroke-width="1" fill="blue" opacity="1" tooltip="enable"><title>(0.00805463,160)</title></rect><rect x="42" y="183.269" width="6" height="16.7309" stroke="black" stroke-width="1" fill="blue" opacity="1" tooltip="enable"><title>(0.00939707,152)</title></rect><rect x="48" y="183.379" width="6" height="16.6208" stroke="black" stroke-width="1" fill="blue" opacity="1" tooltip="enable"><title>(0.0107395,151)</title></rect><rect x="54" y="185.36" width="6" height="14.6395" stroke="black" stroke-width="1" fill="blue" opacity="1" tooltip="enable"><title>(0.0120819,133)</title></rect><rect x="60" y="183.709" width="6" height="16.2906" stroke="black" stroke-width="1" fill="blue" opacity="1" tooltip="enable"><title>(0.0134244,148)</title></rect><rect x="66" y="184.81" width="6" height="15.1899" stroke="black" stroke-width="1" fill="blue" opacity="1" tooltip="enable"><title>(0.0147668,138)</title></rect><rect x="72" y="185.14" width="6" height="14.8597" stroke="black" stroke-width="1" fill="blue" opacity="1" tooltip="enable"><title>(0.0161093,135)</title></rect><rect x="78" y="186.571" width="6" height="13.4287" stroke="black" stroke-width="1" fill="blue" opacity="1" tooltip="enable"><title>(0.0174517,122)</title></rect><rect x="84" y="187.012" width="6" height="12.9884" stroke="black" stroke-width="1" fill="blue" opacity="1" tooltip="enable"><title>(0.0187941,118)</title></rect><rect x="90" y="187.562" width="6" height="12.4381" stroke="black" stroke-width="1" fill="blue" opacity="1" tooltip="enable"><title>(0.0201366,113)</title></rect><rect x="96" y="183.379" width="6" height="16.6208" stroke="black" stroke-width="1" fill="blue" opacity="1" tooltip="enable"><title>(0.021479,151)</title></rect><rect x="102" y="184.59" width="6" height="15.41" stroke="black" stroke-width="1" fill="blue" opacity="1" tooltip="enable"><title>(0.0228214,140)</title></rect><rect x="108" y="183.159" width="6" height="16.8409" stroke="black" stroke-width="1" fill="blue" opacity="1" tooltip="enable"><title>(0.0241639,153)</title></rect><rect x="114" y="186.571" width="6" height="13.4287" stroke="black" stroke-width="1" fill="blue" opacity="1" tooltip="enable"><title>(0.0255063,122)</title></rect><rect x="120" y="187.672" width="6" height="12.328" stroke="black" stroke-width="1" fill="blue" opacity="1" tooltip="enable"><title>(0.0268488,112)</title></rect><rect x="126" y="188.553" width="6" height="11.4474" stroke="black" stroke-width="1" fill="blue" opacity="1" tooltip="enable"><title>(0.0281912,104)</title></rect><rect x="132" y="187.672" width="6" height="12.328" stroke="black" stroke-width="1" fill="blue" opacity="1" tooltip="enable"><title>(0.0295336,112)</title></rect><rect x="138" y="188.883" width="6" height="11.1172" stroke="black" stroke-width="1" fill="blue" opacity="1" tooltip="enable"><title>(0.0308761,101)</title></rect><rect x="144" y="188.442" width="6" height="11.5575" stroke="black" stroke-width="1" fill="blue" opacity="1" tooltip="enable"><title>(0.0322185,105)</title></rect><rect x="150" y="191.524" width="6" height="8.47551" stroke="black" stroke-width="1" fill="blue" opacity="1" tooltip="enable"><title>(0.033561,77)</title></rect><rect x="156" y="188.663" width="6" height="11.3374" stroke="black" stroke-width="1" fill="blue" opacity="1" tooltip="enable"><title>(0.0349034,103)</title></rect><rect x="162" y="191.194" width="6" height="8.80572" stroke="black" stroke-width="1" fill="blue" opacity="1" tooltip="enable"><title>(0.0362458,80)</title></rect><rect x="168" y="193.176" width="6" height="6.82444" stroke="black" stroke-width="1" fill="blue" opacity="1" tooltip="enable"><title>(0.0375883,62)</title></rect><rect x="174" y="194.496" width="6" height="5.50358" stroke="black" stroke-width="1" fill="blue" opacity="1" tooltip="enable"><title>(0.0389307,50)</title></rect><rect x="180" y="194.056" width="6" height="5.94386" stroke="black" stroke-width="1" fill="blue" opacity="1" tooltip="enable"><title>(0.0402731,54)</title></rect><rect x="186" y="197.248" width="6" height="2.75179" stroke="black" stroke-width="1" fill="blue" opacity="1" tooltip="enable"><title>(0.0416156,25)</title></rect><rect x="192" y="195.047" width="6" height="4.95322" stroke="black" stroke-width="1" fill="blue" opacity="1" tooltip="enable"><title>(0.042958,45)</title></rect><rect x="198" y="195.707" width="6" height="4.29279" stroke="black" stroke-width="1" fill="blue" opacity="1" tooltip="enable"><title>(0.0443005,39)</title></rect><rect x="204" y="197.688" width="6" height="2.3115" stroke="black" stroke-width="1" fill="blue" opacity="1" tooltip="enable"><title>(0.0456429,21)</title></rect><rect x="210" y="197.358" width="6" height="2.64172" stroke="black" stroke-width="1" fill="blue" opacity="1" tooltip="enable"><title>(0.0469853,24)</title></rect><rect x="216" y="197.799" width="6" height="2.20143" stroke="black" stroke-width="1" fill="blue" opacity="1" tooltip="enable"><title>(0.0483278,20)</title></rect><rect x="222" y="197.468" width="6" height="2.53165" stroke="black" stroke-width="1" fill="blue" opacity="1" tooltip="enable"><title>(0.0496702,23)</title></rect><rect x="228" y="196.588" width="6" height="3.41222" stroke="black" stroke-width="1" fill="blue" opacity="1" tooltip="enable"><title>(0.0510127,31)</title></rect><rect x="234" y="198.239" width="6" height="1.76114" stroke="black" stroke-width="1" fill="blue" opacity="1" tooltip="enable"><title>(0.0523551,16)</title></rect><rect x="240" y="199.45" width="6" height="0.550358" stroke="black" stroke-width="1" fill="blue" opacity="1" tooltip="enable"><title>(0.0536975,5)</title></rect><rect x="246" y="199.229" width="6" height="0.770501" stroke="black" stroke-width="1" fill="blue" opacity="1" tooltip="enable"><title>(0.05504,7)</title></rect><rect x="252" y="199.56" width="6" height="0.440286" stroke="black" stroke-width="1" fill="blue" opacity="1" tooltip="enable"><title>(0.0563824,4)</title></rect><rect x="258" y="198.899" width="6" height="1.10072" stroke="black" stroke-width="1" fill="blue" opacity="1" tooltip="enable"><title>(0.0577248,10)</title></rect><rect x="264" y="199.56" width="6" height="0.440286" stroke="black" stroke-width="1" fill="blue" opacity="1" tooltip="enable"><title>(0.0590673,4)</title></rect><rect x="270" y="199.119" width="6" height="0.880572" stroke="black" stroke-width="1" fill="blue" opacity="1" tooltip="enable"><title>(0.0604097,8)</title></rect><rect x="276" y="199.78" width="6" height="0.220143" stroke="black" stroke-width="1" fill="blue" opacity="1" tooltip="enable"><title>(0.0617522,2)</title></rect><rect x="282" y="200" width="6" height="0" stroke="black" stroke-width="1" fill="blue" opacity="1" tooltip="enable"><title>(0.0630946,0)</title></rect><rect x="288" y="199.78" width="6" height="0.220143" stroke="black" stroke-width="1" fill="blue" opacity="1" tooltip="enable"><title>(0.064437,2)</title></rect><rect x="294" y="200" width="6" height="0" stroke="black" stroke-width="1" fill="blue" opacity="1" tooltip="enable"><title>(0.0657795,0)</title></rect><rect x="300" y="200" width="6" height="0" stroke="black" stroke-width="1" fill="blue" opacity="1" tooltip="enable"><title>(0.0671219,0)</title></rect><rect x="306" y="200" width="6" height="0" stroke="black" stroke-width="1" fill="blue" opacity="1" tooltip="enable"><title>(0.0684643,0)</title></rect><rect x="312" y="200" width="6" height="0" stroke="black" stroke-width="1" fill="blue" opacity="1" tooltip="enable"><title>(0.0698068,0)</title></rect><rect x="318" y="200" width="6" height="0" stroke="black" stroke-width="1" fill="blue" opacity="1" tooltip="enable"><title>(0.0711492,0)</title></rect><rect x="324" y="200" width="6" height="0" stroke="black" stroke-width="1" fill="blue" opacity="1" tooltip="enable"><title>(0.0724917,0)</title></rect><rect x="330" y="200" width="6" height="0" stroke="black" stroke-width="1" fill="blue" opacity="1" tooltip="enable"><title>(0.0738341,0)</title></rect><rect x="336" y="200" width="6" height="0" stroke="black" stroke-width="1" fill="blue" opacity="1" tooltip="enable"><title>(0.0751765,0)</title></rect><rect x="342" y="200" width="6" height="0" stroke="black" stroke-width="1" fill="blue" opacity="1" tooltip="enable"><title>(0.076519,0)</title></rect><rect x="348" y="200" width="6" height="0" stroke="black" stroke-width="1" fill="blue" opacity="1" tooltip="enable"><title>(0.0778614,0)</title></rect><rect x="354" y="200" width="6" height="0" stroke="black" stroke-width="1" fill="blue" opacity="1" tooltip="enable"><title>(0.0792039,0)</title></rect><rect x="360" y="200" width="6" height="0" stroke="black" stroke-width="1" fill="blue" opacity="1" tooltip="enable"><title>(0.0805463,0)</title></rect><rect x="366" y="200" width="6" height="0" stroke="black" stroke-width="1" fill="blue" opacity="1" tooltip="enable"><title>(0.0818887,0)</title></rect><rect x="372" y="200" width="6" height="0" stroke="black" stroke-width="1" fill="blue" opacity="1" tooltip="enable"><title>(0.0832312,0)</title></rect><rect x="378" y="200" width="6" height="0" stroke="black" stroke-width="1" fill="blue" opacity="1" tooltip="enable"><title>(0.0845736,0)</title></rect><rect x="384" y="200" width="6" height="0" stroke="black" stroke-width="1" fill="blue" opacity="1" tooltip="enable"><title>(0.085916,0)</title></rect><rect x="390" y="200" width="6" height="0" stroke="black" stroke-width="1" fill="blue" opacity="1" tooltip="enable"><title>(0.0872585,0)</title></rect><rect x="396" y="200" width="6" height="0" stroke="black" stroke-width="1" fill="blue" opacity="1" tooltip="enable"><title>(0.0886009,0)</title></rect><rect x="402" y="200" width="6" height="0" stroke="black" stroke-width="1" fill="blue" opacity="1" tooltip="enable"><title>(0.0899434,0)</title></rect><rect x="408" y="200" width="6" height="0" stroke="black" stroke-width="1" fill="blue" opacity="1" tooltip="enable"><title>(0.0912858,0)</title></rect><rect x="414" y="200" width="6" height="0" stroke="black" stroke-width="1" fill="blue" opacity="1" tooltip="enable"><title>(0.0926282,0)</title></rect><rect x="420" y="200" width="6" height="0" stroke="black" stroke-width="1" fill="blue" opacity="1" tooltip="enable"><title>(0.0939707,0)</title></rect><rect x="426" y="200" width="6" height="0" stroke="black" stroke-width="1" fill="blue" opacity="1" tooltip="enable"><title>(0.0953131,0)</title></rect><rect x="432" y="200" width="6" height="0" stroke="black" stroke-width="1" fill="blue" opacity="1" tooltip="enable"><title>(0.0966556,0)</title></rect><rect x="438" y="200" width="6" height="0" stroke="black" stroke-width="1" fill="blue" opacity="1" tooltip="enable"><title>(0.097998,0)</title></rect><rect x="444" y="200" width="6" height="0" stroke="black" stroke-width="1" fill="blue" opacity="1" tooltip="enable"><title>(0.0993404,0)</title></rect><rect x="450" y="200" width="6" height="0" stroke="black" stroke-width="1" fill="blue" opacity="1" tooltip="enable"><title>(0.100683,0)</title></rect><rect x="456" y="200" width="6" height="0" stroke="black" stroke-width="1" fill="blue" opacity="1" tooltip="enable"><title>(0.102025,0)</title></rect><rect x="462" y="200" width="6" height="0" stroke="black" stroke-width="1" fill="blue" opacity="1" tooltip="enable"><title>(0.103368,0)</title></rect><rect x="468" y="200" width="6" height="0" stroke="black" stroke-width="1" fill="blue" opacity="1" tooltip="enable"><title>(0.10471,0)</title></rect><rect x="474" y="200" width="6" height="0" stroke="black" stroke-width="1" fill="blue" opacity="1" tooltip="enable"><title>(0.106053,0)</title></rect><rect x="480" y="200" width="6" height="0" stroke="black" stroke-width="1" fill="blue" opacity="1" tooltip="enable"><title>(0.107395,0)</title></rect><rect x="486" y="199.78" width="6" height="0.220143" stroke="black" stroke-width="1" fill="blue" opacity="1" tooltip="enable"><title>(0.108737,2)</title></rect><rect x="492" y="200" width="6" height="0" stroke="black" stroke-width="1" fill="blue" opacity="1" tooltip="enable"><title>(0.11008,0)</title></rect><rect x="498" y="200" width="6" height="0" stroke="black" stroke-width="1" fill="blue" opacity="1" tooltip="enable"><title>(0.111422,0)</title></rect><rect x="504" y="200" width="6" height="0" stroke="black" stroke-width="1" fill="blue" opacity="1" tooltip="enable"><title>(0.112765,0)</title></rect><rect x="510" y="200" width="6" height="0" stroke="black" stroke-width="1" fill="blue" opacity="1" tooltip="enable"><title>(0.114107,0)</title></rect><rect x="516" y="200" width="6" height="0" stroke="black" stroke-width="1" fill="blue" opacity="1" tooltip="enable"><title>(0.11545,0)</title></rect><rect x="522" y="200" width="6" height="0" stroke="black" stroke-width="1" fill="blue" opacity="1" tooltip="enable"><title>(0.116792,0)</title></rect><rect x="528" y="200" width="6" height="0" stroke="black" stroke-width="1" fill="blue" opacity="1" tooltip="enable"><title>(0.118135,0)</title></rect><rect x="534" y="200" width="6" height="0" stroke="black" stroke-width="1" fill="blue" opacity="1" tooltip="enable"><title>(0.119477,0)</title></rect><rect x="540" y="200" width="6" height="0" stroke="black" stroke-width="1" fill="blue" opacity="1" tooltip="enable"><title>(0.120819,0)</title></rect><rect x="546" y="199.78" width="6" height="0.220143" stroke="black" stroke-width="1" fill="blue" opacity="1" tooltip="enable"><title>(0.122162,2)</title></rect><rect x="552" y="200" width="6" height="0" stroke="black" stroke-width="1" fill="blue" opacity="1" tooltip="enable"><title>(0.123504,0)</title></rect><rect x="558" y="199.78" width="6" height="0.220143" stroke="black" stroke-width="1" fill="blue" opacity="1" tooltip="enable"><title>(0.124847,2)</title></rect><rect x="564" y="200" width="6" height="0" stroke="black" stroke-width="1" fill="blue" opacity="1" tooltip="enable"><title>(0.126189,0)</title></rect><rect x="570" y="200" width="6" height="0" stroke="black" stroke-width="1" fill="blue" opacity="1" tooltip="enable"><title>(0.127532,0)</title></rect><rect x="576" y="199.78" width="6" height="0.220143" stroke="black" stroke-width="1" fill="blue" opacity="1" tooltip="enable"><title>(0.128874,2)</title></rect><rect x="582" y="200" width="6" height="0" stroke="black" stroke-width="1" fill="blue" opacity="1" tooltip="enable"><title>(0.130217,0)</title></rect><rect x="588" y="200" width="6" height="0" stroke="black" stroke-width="1" fill="blue" opacity="1" tooltip="enable"><title>(0.131559,0)</title></rect><rect x="594" y="199.89" width="6" height="0.110072" stroke="black" stroke-width="1" fill="blue" opacity="1" tooltip="enable"><title>(0.132901,1)</title></rect><text x="30" y="240" font-size="20" fill="black">0</text>
<text x="600" y="240" font-size="20" fill="black">0.134244</text>
<polyline points="0,220,600,220" stroke="black" stroke-width="1" fill="none" opacity="1"/>
<text x="720" y="20" font-size="20" fill="black">1817</text>
<text x="720" y="200" font-size="20" fill="black">0</text>
<polyline points="660,0,660,200" stroke="black" stroke-width="1" fill="none" opacity="1"/>
</svg>