<?xml version="1.0" standalone="yes"?>
<!-- SVG graphic -->
<svg xmlns='http://www.w3.org/2000/svg' xmlns:xlink='http://www.w3.org/1999/xlink'
 version="1.1">
<rect x="0" y="0" width="6" height="200" stroke="black" stroke-width="1" fill="blue" opacity="1" tooltip="enable"><title>(0,2000)</title></rect><rect x="6" y="59.7" width="6" height="140.3" stroke="black" stroke-width="1" fill="blue" opacity="1" tooltip="enable"><title>(0.00141943,1403)</title></rect><rect x="12" y="134.3" width="6" height="65.7" stroke="black" stroke-width="1" fill="blue" opacity="1" tooltip="enable"><title>(0.00283887,657)</title></rect><rect x="18" y="166.6" width="6" height="33.4" stroke="black" stroke-width="1" fill="blue" opacity="1" tooltip="enable"><title>(0.0042583,334)</title></rect><rect x="24" y="179.1" width="6" height="20.9" stroke="black" stroke-width="1" fill="blue" opacity="1" tooltip="enable"><title>(0.00567774,209)</title></rect><rect x="30" y="180.9" width="6" height="19.1" stroke="black" stroke-width="1" fill="blue" opacity="1" tooltip="enable"><title>(0.00709717,191)</title></rect><rect x="36" y="187.4" width="6" height="12.6" stroke="black" stroke-width="1" fill="blue" opacity="1" tooltip="enable"><title>(0.00851661,126)</title></rect><rect x="42" y="188.6" width="6" height="11.4" stroke="black" stroke-width="1" fill="blue" opacity="1" tooltip="enable"><title>(0.00993604,114)</title></rect><rect x="48" y="188" width="6" height="12" stroke="black" stroke-width="1" fill="blue" opacity="1" tooltip="enable"><title>(0.0113555,120)</title></rect><rect x="54" y="188.6" width="6" height="11.4" stroke="black" stroke-width="1" fill="blue" opacity="1" tooltip="enable"><title>(0.0127749,114)</title></rect><rect x="60" y="191" width="6" height="9" stroke="black" stroke-width="1" fill="blue" opacity="1" tooltip="enable"><title>(0.0141943,90)</title></rect><rect x="66" y="191.9" width="6" height="8.1" stroke="black" stroke-width="1" fill="blue" opacity="1" tooltip="enable"><title>(0.0156138,81)</title></rect><rect x="72" y="191.3" width="6" height="8.7" stroke="black" stroke-width="1" fill="blue" opacity="1" tooltip="enable"><title>(0.0170332,87)</title></rect><rect x="78" y="192.6" width="6" height="7.4" stroke="black" stroke-width="1" fill="blue" opacity="1" tooltip="enable"><title>(0.0184527,74)</title></rect><rect x="84" y="191" width="6" height="9" stroke="black" stroke-width="1" fill="blue" opacity="1" tooltip="enable"><title>(0.0198721,90)</title></rect><rect x="90" y="190.8" width="6" height="9.2" stroke="black" stroke-width="1" fill="blue" opacity="1" tooltip="enable"><title>(0.0212915,92)</title></rect><rect x="96" y="192" width="6" height="8" stroke="black" stroke-width="1" fill="blue" opacity="1" tooltip="enable"><title>(0.022711,80)</title></rect><rect x="102" y="189.8" width="6" height="10.2" stroke="black" stroke-width="1" fill="blue" opacity="1" tooltip="enable"><title>(0.0241304,102)</title></rect><rect x="108" y="189.4" width="6" height="10.6" stroke="black" stroke-width="1" fill="blue" opacity="1" tooltip="enable"><title>(0.0255498,106)</title></rect><rect x="114" y="190.8" width="6" height="9.2" stroke="black" stroke-width="1" fill="blue" opacity="1" tooltip="enable"><title>(0.0269693,92)</title></rect><rect x="120" y="190.6" width="6" height="9.4" stroke="black" stroke-width="1" fill="blue" opacity="1" tooltip="enable"><title>(0.0283887,94)</title></rect><rect x="126" y="187.6" width="6" height="12.4" stroke="black" stroke-width="1" fill="blue" opacity="1" tooltip="enable"><title>(0.0298081,124)</title></rect><rect x="132" y="190.2" width="6" height="9.8" stroke="black" stroke-width="1" fill="blue" opacity="1" tooltip="enable"><title>(0.0312276,98)</title></rect><rect x="138" y="191.4" width="6" height="8.6" stroke="black" stroke-width="1" fill="blue" opacity="1" tooltip="enable"><title>(0.032647,86)</title></rect><rect x="144" y="191.8" width="6" height="8.2" stroke="black" stroke-width="1" fill="blue" opacity="1" tooltip="enable"><title>(0.0340664,82)</title></rect><rect x="150" y="193.4" width="6" height="6.6" stroke="black" stroke-width="1" fill="blue" opacity="1" tooltip="enable"><title>(0.0354859,66)</title></rect><rect x="156" y="192.2" width="6" height="7.8" stroke="black" stroke-width="1" fill="blue" opacity="1" tooltip="enable"><title>(0.0369053,78)</title></rect><rect x="162" y="191.4" width="6" height="8.6" stroke="black" stroke-width="1" fill="blue" opacity="1" tooltip="enable"><title>(0.0383247,86)</title></rect><rect x="168" y="194.6" width="6" height="5.4" stroke="black" stroke-width="1" fill="blue" opacity="1" tooltip="enable"><title>(0.0397442,54)</title></rect><rect x="174" y="193" width="6" height="7" stroke="black" stroke-width="1" fill="blue" opacity="1" tooltip="enable"><title>(0.0411636,70)</title></rect><rect x="180" y="196.2" width="6" height="3.8" stroke="black" stroke-width="1" fill="blue" opacity="1" tooltip="enable"><title>(0.0425831,38)</title></rect><rect x="186" y="196" width="6" height="4" stroke="black" stroke-width="1" fill="blue" opacity="1" tooltip="enable"><title>(0.0440025,40)</title></rect><rect x="192" y="196.2" width="6" height="3.8" stroke="black" stroke-width="1" fill="blue" opacity="1" tooltip="enable"><title>(0.0454219,38)</title></rect><rect x="198" y="195" width="6" height="5" stroke="black" stroke-width="1" fill="blue" opacity="1" tooltip="enable"><title>(0.0468414,50)</title></rect><rect x="204" y="196" width="6" height="4" stroke="black" stroke-width="1" fill="blue" opacity="1" tooltip="enable"><title>(0.0482608,40)</title></rect><rect x="210" y="196.6" width="6" height="3.4" stroke="black" stroke-width="1" fill="blue" opacity="1" tooltip="enable"><title>(0.0496802,34)</title></rect><rect x="216" y="196.1" width="6" height="3.9" stroke="black" stroke-width="1" fill="blue" opacity="1" tooltip="enable"><title>(0.0510997,39)</title></rect><rect x="222" y="197.9" width="6" height="2.1" stroke="black" stroke-width="1" fill="blue" opacity="1" tooltip="enable"><title>(0.0525191,21)</title></rect><rect x="228" y="195.8" width="6" height="4.2" stroke="black" stroke-width="1" fill="blue" opacity="1" tooltip="enable"><title>(0.0539385,42)</title></rect><rect x="234" y="196.7" width="6" height="3.3" stroke="black" stroke-width="1" fill="blue" opacity="1" tooltip="enable"><title>(0.055358,33)</title></rect><rect x="240" y="197.1" width="6" height="2.9" stroke="black" stroke-width="1" fill="blue" opacity="1" tooltip="enable"><title>(0.0567774,29)</title></rect><rect x="246" y="198" width="6" height="2" stroke="black" stroke-width="1" fill="blue" opacity="1" tooltip="enable"><title>(0.0581968,20)</title></rect><rect x="252" y="197.6" width="6" height="2.4" stroke="black" stroke-width="1" fill="blue" opacity="1" tooltip="enable"><title>(0.0596163,24)</title></rect><rect x="258" y="198" width="6" height="2" stroke="black" stroke-width="1" fill="blue" opacity="1" tooltip="enable"><title>(0.0610357,20)</title></rect><rect x="264" y="197.4" width="6" height="2.6" stroke="black" stroke-width="1" fill="blue" opacity="1" tooltip="enable"><title>(0.0624551,26)</title></rect><rect x="270" y="198.4" width="6" height="1.6" stroke="black" stroke-width="1" fill="blue" opacity="1" tooltip="enable"><title>(0.0638746,16)</title></rect><rect x="276" y="198.2" width="6" height="1.8" stroke="black" stroke-width="1" fill="blue" opacity="1" tooltip="enable"><title>(0.065294,18)</title></rect><rect x="282" y="196.7" width="6" height="3.3" stroke="black" stroke-width="1" fill="blue" opacity="1" tooltip="enable"><title>(0.0667134,33)</title></rect><rect x="288" y="197.7" width="6" height="2.3" stroke="black" stroke-width="1" fill="blue" opacity="1" tooltip="enable"><title>(0.0681329,23)</title></rect><rect x="294" y="196.6" width="6" height="3.4" stroke="black" stroke-width="1" fill="blue" opacity="1" tooltip="enable"><title>(0.0695523,34)</title></rect><rect x="300" y="196.8" width="6" height="3.2" stroke="black" stroke-width="1" fill="blue" opacity="1" tooltip="enable"><title>(0.0709717,32)</title></rect><rect x="306" y="197.6" width="6" height="2.4" stroke="black" stroke-width="1" fill="blue" opacity="1" tooltip="enable"><title>(0.0723912,24)</title></rect><rect x="312" y="198.4" width="6" height="1.6" stroke="black" stroke-width="1" fill="blue" opacity="1" tooltip="enable"><title>(0.0738106,16)</title></rect><rect x="318" y="197.8" width="6" height="2.2" stroke="black" stroke-width="1" fill="blue" opacity="1" tooltip="enable"><title>(0.07523,22)</title></rect><rect x="324" y="197.4" width="6" height="2.6" stroke="black" stroke-width="1" fill="blue" opacity="1" tooltip="enable"><title>(0.0766495,26)</title></rect><rect x="330" y="198" width="6" height="2" stroke="black" stroke-width="1" fill="blue" opacity="1" tooltip="enable"><title>(0.0780689,20)</title></rect><rect x="336" y="199.2" width="6" height="0.8" stroke="black" stroke-width="1" fill="blue" opacity="1" tooltip="enable"><title>(0.0794884,8)</title></rect><rect x="342" y="197.4" width="6" height="2.6" stroke="black" stroke-width="1" fill="blue" opacity="1" tooltip="enable"><title>(0.0809078,26)</title></rect><rect x="348" y="198.8" width="6" height="1.2" stroke="black" stroke-width="1" fill="blue" opacity="1" tooltip="enable"><title>(0.0823272,12)</title></rect><rect x="354" y="199" width="6" height="1" stroke="black" stroke-width="1" fill="blue" opacity="1" tooltip="enable"><title>(0.0837467,10)</title></rect><rect x="360" y="199.2" width="6" height="0.8" stroke="black" stroke-width="1" fill="blue" opacity="1" tooltip="enable"><title>(0.0851661,8)</title></rect><rect x="366" y="197.2" width="6" height="2.8" stroke="black" stroke-width="1" fill="blue" opacity="1" tooltip="enable"><title>(0.0865855,28)</title></rect><rect x="372" y="197.8" width="6" height="2.2" stroke="black" stroke-width="1" fill="blue" opacity="1" tooltip="enable"><title>(0.088005,22)</title></rect><rect x="378" y="198.4" width="6" height="1.6" stroke="black" stroke-width="1" fill="blue" opacity="1" tooltip="enable"><title>(0.0894244,16)</title></rect><rect x="384" y="198.4" width="6" height="1.6" stroke="black" stroke-width="1" fill="blue" opacity="1" tooltip="enable"><title>(0.0908438,16)</title></rect><rect x="390" y="199.6" width="6" height="0.4" stroke="black" stroke-width="1" fill="blue" opacity="1" tooltip="enable"><title>(0.0922633,4)</title></rect><rect x="396" y="199.6" width="6" height="0.4" stroke="black" stroke-width="1" fill="blue" opacity="1" tooltip="enable"><title>(0.0936827,4)</title></rect><rect x="402" y="199.5" width="6" height="0.5" stroke="black" stroke-width="1" fill="blue" opacity="1" tooltip="enable"><title>(0.0951021,5)</title></rect><rect x="408" y="198.3" width="6" height="1.7" stroke="black" stroke-width="1" fill="blue" opacity="1" tooltip="enable"><title>(0.0965216,17)</title></rect><rect x="414" y="199.4" width="6" height="0.6" stroke="black" stroke-width="1" fill="blue" opacity="1" tooltip="enable"><title>(0.097941,6)</title></rect><rect x="420" y="199.4" width="6" height="0.6" stroke="black" stroke-width="1" fill="blue" opacity="1" tooltip="enable"><title>(0.0993605,6)</title></rect><rect x="426" y="199.8" width="6" height="0.2" stroke="black" stroke-width="1" fill="blue" opacity="1" tooltip="enable"><title>(0.10078,2)</title></rect><rect x="432" y="199.5" width="6" height="0.5" stroke="black" stroke-width="1" fill="blue" opacity="1" tooltip="enable"><title>(0.102199,5)</title></rect><rect x="438" y="199.7" width="6" height="0.3" stroke="black" stroke-width="1" fill="blue" opacity="1" tooltip="enable"><title>(0.103619,3)</title></rect><rect x="444" y="199.4" width="6" height="0.6" stroke="black" stroke-width="1" fill="blue" opacity="1" tooltip="enable"><title>(0.105038,6)</title></rect><rect x="450" y="199.7" width="6" height="0.3" stroke="black" stroke-width="1" fill="blue" opacity="1" tooltip="enable"><title>(0.106458,3)</title></rect><rect x="456" y="199.5" width="6" height="0.5" stroke="black" stroke-width="1" fill="blue" opacity="1" tooltip="enable"><title>(0.107877,5)</title></rect><rect x="462" y="199.4" width="6" height="0.6" stroke="black" stroke-width="1" fill="blue" opacity="1" tooltip="enable"><title>(0.109296,6)</title></rect><rect x="468" y="199.4" width="6" height="0.6" stroke="black" stroke-width="1" fill="blue" opacity="1" tooltip="enable"><title>(0.110716,6)</title></rect><rect x="474" y="199.8" width="6" height="0.2" stroke="black" stroke-width="1" fill="blue" opacity="1" tooltip="enable"><title>(0.112135,2)</title></rect><rect x="480" y="199.6" width="6" height="0.4" stroke="black" stroke-width="1" fill="blue" opacity="1" tooltip="enable"><title>(0.113555,4)</title></rect><rect x="486" y="200" width="6" height="0" stroke="black" stroke-width="1" fill="blue" opacity="1" tooltip="enable"><title>(0.114974,0)</title></rect><rect x="492" y="199.8" width="6" height="0.2" stroke="black" stroke-width="1" fill="blue" opacity="1" tooltip="enable"><title>(0.116394,2)</title></rect><rect x="498" y="199.8" width="6" height="0.2" stroke="black" stroke-width="1" fill="blue" opacity="1" tooltip="enable"><title>(0.117813,2)</title></rect><rect x="504" y="200" width="6" height="0" stroke="black" stroke-width="1" fill="blue" opacity="1" tooltip="enable"><title>(0.119233,0)</title></rect><rect x="510" y="199.8" width="6" height="0.2" stroke="black" stroke-width="1" fill="blue" opacity="1" tooltip="enable"><title>(0.120652,2)</title></rect><rect x="516" y="200" width="6" height="0" stroke="black" stroke-width="1" fill="blue" opacity="1" tooltip="enable"><title>(0.122071,0)</title></rect><rect x="522" y="200" width="6" height="0" stroke="black" stroke-width="1" fill="blue" opacity="1" tooltip="enable"><title>(0.123491,0)</title></rect><rect x="528" y="200" width="6" height="0" stroke="black" stroke-width="1" fill="blue" opacity="1" tooltip="enable"><title>(0.12491,0)</title></rect><rect x="534" y="200" width="6" height="0" stroke="black" stroke-width="1" fill="blue" opacity="1" tooltip="enable"><title>(0.12633,0)</title></rect><rect x="540" y="200" width="6" height="0" stroke="black" stroke-width="1" fill="blue" opacity="1" tooltip="enable"><title>(0.127749,0)</title></rect><rect x="546" y="200" width="6" height="0" stroke="black" stroke-width="1" fill="blue" opacity="1" tooltip="enable"><title>(0.129169,0)</title></rect><rect x="552" y="200" width="6" height="0" stroke="black" stroke-width="1" fill="blue" opacity="1" tooltip="enable"><title>(0.130588,0)</title></rect><rect x="558" y="200" width="6" height="0" stroke="black" stroke-width="1" fill="blue" opacity="1" tooltip="enable"><title>(0.132007,0)</title></rect><rect x="564" y="200" width="6" height="0" stroke="black" stroke-width="1" fill="blue" opacity="1" tooltip="enable"><title>(0.133427,0)</title></rect><rect x="570" y="200" width="6" height="0" stroke="black" stroke-width="1" fill="blue" opacity="1" tooltip="enable"><title>(0.134846,0)</title></rect><rect x="576" y="199.8" width="6" height="0.2" stroke="black" stroke-width="1" fill="blue" opacity="1" tooltip="enable"><title>(0.136266,2)</title></rect><rect x="582" y="199.8" width="6" height="0.2" stroke="black" stroke-width="1" fill="blue" opacity="1" tooltip="enable"><title>(0.137685,2)</title></rect><rect x="588" y="200" width="6" height="0" stroke="black" stroke-width="1" fill="blue" opacity="1" tooltip="enable"><title>(0.139105,0)</title></rect><rect x="594" y="199.9" width="6" height="0.1" stroke="black" stroke-width="1" fill="blue" opacity="1" tooltip="enable"><title>(0.140524,1)</title></rect><text x="30" y="240" font-size="20" fill="black">0</text>
<text x="600" y="240" font-size="20" fill="black">0.141943</text>
<polyline points="0,220,600,220" stroke="black" stroke-width="1" fill="none" opacity="1"/>
<text x="720" y="20" font-size="20" fill="black">2000</text>
<text x="720" y="200" font-size="20" fill="black">0</text>
<polyline points="660,0,660,200" stroke="black" stroke-width="1" fill="none" opacity="1"/>
</svg>