<?xml version="1.0" standalone="yes"?>
<!-- SVG graphic -->
<svg xmlns='http://www.w3.org/2000/svg' xmlns:xlink='http://www.w3.org/1999/xlink'
 version="1.1">
<rect x="0" y="0" width="6" height="200" stroke="black" stroke-width="1" fill="blue" opacity="1" tooltip="enable"><title>(0,2011)</title></rect><rect x="6" y="59.3734" width="6" height="140.627" stroke="black" stroke-width="1" fill="blue" opacity="1" tooltip="enable"><title>(0.000548932,1414)</title></rect><rect x="12" y="122.626" width="6" height="77.3744" stroke="black" stroke-width="1" fill="blue" opacity="1" tooltip="enable"><title>(0.00109786,778)</title></rect><rect x="18" y="174.639" width="6" height="25.3605" stroke="black" stroke-width="1" fill="blue" opacity="1" tooltip="enable"><title>(0.00164679,255)</title></rect><rect x="24" y="191.049" width="6" height="8.95077" stroke="black" stroke-width="1" fill="blue" opacity="1" tooltip="enable"><title>(0.00219573,90)</title></rect><rect x="30" y="189.06" width="6" height="10.9398" stroke="black" stroke-width="1" fill="blue" opacity="1" tooltip="enable"><title>(0.00274466,110)</title></rect><rect x="36" y="190.254" width="6" height="9.7464" stroke="black" stroke-width="1" fill="blue" opacity="1" tooltip="enable"><title>(0.00329359,98)</title></rect><rect x="42" y="192.044" width="6" height="7.95624" stroke="black" stroke-width="1" fill="blue" opacity="1" tooltip="enable"><title>(0.00384252,80)</title></rect><rect x="48" y="191.447" width="6" height="8.55296" stroke="black" stroke-width="1" fill="blue" opacity="1" tooltip="enable"><title>(0.00439145,86)</title></rect><rect x="54" y="192.143" width="6" height="7.85679" stroke="black" stroke-width="1" fill="blue" opacity="1" tooltip="enable"><title>(0.00494038,79)</title></rect><rect x="60" y="190.154" width="6" height="9.84585" stroke="black" stroke-width="1" fill="blue" opacity="1" tooltip="enable"><title>(0.00548932,99)</title></rect><rect x="66" y="191.447" width="6" height="8.55296" stroke="black" stroke-width="1" fill="blue" opacity="1" tooltip="enable"><title>(0.00603825,86)</title></rect><rect x="72" y="189.657" width="6" height="10.3431" stroke="black" stroke-width="1" fill="blue" opacity="1" tooltip="enable"><title>(0.00658718,104)</title></rect><rect x="78" y="190.651" width="6" height="9.34858" stroke="black" stroke-width="1" fill="blue" opacity="1" tooltip="enable"><title>(0.00713611,94)</title></rect><rect x="84" y="187.867" width="6" height="12.1333" stroke="black" stroke-width="1" fill="blue" opacity="1" tooltip="enable"><title>(0.00768504,122)</title></rect><rect x="90" y="191.546" width="6" height="8.45351" stroke="black" stroke-width="1" fill="blue" opacity="1" tooltip="enable"><title>(0.00823397,85)</title></rect><rect x="96" y="190.751" width="6" height="9.24913" stroke="black" stroke-width="1" fill="blue" opacity="1" tooltip="enable"><title>(0.00878291,93)</title></rect><rect x="102" y="191.845" width="6" height="8.15515" stroke="black" stroke-width="1" fill="blue" opacity="1" tooltip="enable"><title>(0.00933184,82)</title></rect><rect x="108" y="189.756" width="6" height="10.2437" stroke="black" stroke-width="1" fill="blue" opacity="1" tooltip="enable"><title>(0.00988077,103)</title></rect><rect x="114" y="192.74" width="6" height="7.26007" stroke="black" stroke-width="1" fill="blue" opacity="1" tooltip="enable"><title>(0.0104297,73)</title></rect><rect x="120" y="189.458" width="6" height="10.542" stroke="black" stroke-width="1" fill="blue" opacity="1" tooltip="enable"><title>(0.0109786,106)</title></rect><rect x="126" y="191.447" width="6" height="8.55296" stroke="black" stroke-width="1" fill="blue" opacity="1" tooltip="enable"><title>(0.0115276,86)</title></rect><rect x="132" y="190.055" width="6" height="9.9453" stroke="black" stroke-width="1" fill="blue" opacity="1" tooltip="enable"><title>(0.0120765,100)</title></rect><rect x="138" y="191.845" width="6" height="8.15515" stroke="black" stroke-width="1" fill="blue" opacity="1" tooltip="enable"><title>(0.0126254,82)</title></rect><rect x="144" y="191.248" width="6" height="8.75186" stroke="black" stroke-width="1" fill="blue" opacity="1" tooltip="enable"><title>(0.0131744,88)</title></rect><rect x="150" y="192.64" width="6" height="7.35952" stroke="black" stroke-width="1" fill="blue" opacity="1" tooltip="enable"><title>(0.0137233,74)</title></rect><rect x="156" y="193.635" width="6" height="6.36499" stroke="black" stroke-width="1" fill="blue" opacity="1" tooltip="enable"><title>(0.0142722,64)</title></rect><rect x="162" y="191.845" width="6" height="8.15515" stroke="black" stroke-width="1" fill="blue" opacity="1" tooltip="enable"><title>(0.0148212,82)</title></rect><rect x="168" y="194.431" width="6" height="5.56937" stroke="black" stroke-width="1" fill="blue" opacity="1" tooltip="enable"><title>(0.0153701,56)</title></rect><rect x="174" y="195.027" width="6" height="4.97265" stroke="black" stroke-width="1" fill="blue" opacity="1" tooltip="enable"><title>(0.015919,50)</title></rect><rect x="180" y="194.431" width="6" height="5.56937" stroke="black" stroke-width="1" fill="blue" opacity="1" tooltip="enable"><title>(0.0164679,56)</title></rect><rect x="186" y="193.337" width="6" height="6.66335" stroke="black" stroke-width="1" fill="blue" opacity="1" tooltip="enable"><title>(0.0170169,67)</title></rect><rect x="192" y="194.729" width="6" height="5.27101" stroke="black" stroke-width="1" fill="blue" opacity="1" tooltip="enable"><title>(0.0175658,53)</title></rect><rect x="198" y="195.326" width="6" height="4.67429" stroke="black" stroke-width="1" fill="blue" opacity="1" tooltip="enable"><title>(0.0181147,47)</title></rect><rect x="204" y="194.729" width="6" height="5.27101" stroke="black" stroke-width="1" fill="blue" opacity="1" tooltip="enable"><title>(0.0186637,53)</title></rect><rect x="210" y="194.132" width="6" height="5.86773" stroke="black" stroke-width="1" fill="blue" opacity="1" tooltip="enable"><title>(0.0192126,59)</title></rect><rect x="216" y="193.933" width="6" height="6.06663" stroke="black" stroke-width="1" fill="blue" opacity="1" tooltip="enable"><title>(0.0197615,61)</title></rect><rect x="222" y="197.016" width="6" height="2.98359" stroke="black" stroke-width="1" fill="blue" opacity="1" tooltip="enable"><title>(0.0203105,30)</title></rect><rect x="228" y="193.834" width="6" height="6.16609" stroke="black" stroke-width="1" fill="blue" opacity="1" tooltip="enable"><title>(0.0208594,62)</title></rect><rect x="234" y="194.132" width="6" height="5.86773" stroke="black" stroke-width="1" fill="blue" opacity="1" tooltip="enable"><title>(0.0214083,59)</title></rect><rect x="240" y="195.724" width="6" height="4.27648" stroke="black" stroke-width="1" fill="blue" opacity="1" tooltip="enable"><title>(0.0219573,43)</title></rect><rect x="246" y="197.215" width="6" height="2.78468" stroke="black" stroke-width="1" fill="blue" opacity="1" tooltip="enable"><title>(0.0225062,28)</title></rect><rect x="252" y="195.624" width="6" height="4.37593" stroke="black" stroke-width="1" fill="blue" opacity="1" tooltip="enable"><title>(0.0230551,44)</title></rect><rect x="258" y="197.613" width="6" height="2.38687" stroke="black" stroke-width="1" fill="blue" opacity="1" tooltip="enable"><title>(0.0236041,24)</title></rect><rect x="264" y="194.132" width="6" height="5.86773" stroke="black" stroke-width="1" fill="blue" opacity="1" tooltip="enable"><title>(0.024153,59)</title></rect><rect x="270" y="196.42" width="6" height="3.58031" stroke="black" stroke-width="1" fill="blue" opacity="1" tooltip="enable"><title>(0.0247019,36)</title></rect><rect x="276" y="197.812" width="6" height="2.18797" stroke="black" stroke-width="1" fill="blue" opacity="1" tooltip="enable"><title>(0.0252509,22)</title></rect><rect x="282" y="195.127" width="6" height="4.8732" stroke="black" stroke-width="1" fill="blue" opacity="1" tooltip="enable"><title>(0.0257998,49)</title></rect><rect x="288" y="196.221" width="6" height="3.77921" stroke="black" stroke-width="1" fill="blue" opacity="1" tooltip="enable"><title>(0.0263487,38)</title></rect><rect x="294" y="198.309" width="6" height="1.6907" stroke="black" stroke-width="1" fill="blue" opacity="1" tooltip="enable"><title>(0.0268976,17)</title></rect><rect x="300" y="196.818" width="6" height="3.1825" stroke="black" stroke-width="1" fill="blue" opacity="1" tooltip="enable"><title>(0.0274466,32)</title></rect><rect x="306" y="197.016" width="6" height="2.98359" stroke="black" stroke-width="1" fill="blue" opacity="1" tooltip="enable"><title>(0.0279955,30)</title></rect><rect x="312" y="197.713" width="6" height="2.28742" stroke="black" stroke-width="1" fill="blue" opacity="1" tooltip="enable"><title>(0.0285444,23)</title></rect><rect x="318" y="197.016" width="6" height="2.98359" stroke="black" stroke-width="1" fill="blue" opacity="1" tooltip="enable"><title>(0.0290934,30)</title></rect><rect x="324" y="197.414" width="6" height="2.58578" stroke="black" stroke-width="1" fill="blue" opacity="1" tooltip="enable"><title>(0.0296423,26)</title></rect><rect x="330" y="197.812" width="6" height="2.18797" stroke="black" stroke-width="1" fill="blue" opacity="1" tooltip="enable"><title>(0.0301912,22)</title></rect><rect x="336" y="197.812" width="6" height="2.18797" stroke="black" stroke-width="1" fill="blue" opacity="1" tooltip="enable"><title>(0.0307402,22)</title></rect><rect x="342" y="197.215" width="6" height="2.78468" stroke="black" stroke-width="1" fill="blue" opacity="1" tooltip="enable"><title>(0.0312891,28)</title></rect><rect x="348" y="198.608" width="6" height="1.39234" stroke="black" stroke-width="1" fill="blue" opacity="1" tooltip="enable"><title>(0.031838,14)</title></rect><rect x="354" y="198.807" width="6" height="1.19344" stroke="black" stroke-width="1" fill="blue" opacity="1" tooltip="enable"><title>(0.032387,12)</title></rect><rect x="360" y="199.005" width="6" height="0.99453" stroke="black" stroke-width="1" fill="blue" opacity="1" tooltip="enable"><title>(0.0329359,10)</title></rect><rect x="366" y="198.707" width="6" height="1.29289" stroke="black" stroke-width="1" fill="blue" opacity="1" tooltip="enable"><title>(0.0334848,13)</title></rect><rect x="372" y="198.906" width="6" height="1.09398" stroke="black" stroke-width="1" fill="blue" opacity="1" tooltip="enable"><title>(0.0340338,11)</title></rect><rect x="378" y="199.005" width="6" height="0.99453" stroke="black" stroke-width="1" fill="blue" opacity="1" tooltip="enable"><title>(0.0345827,10)</title></rect><rect x="384" y="198.409" width="6" height="1.59125" stroke="black" stroke-width="1" fill="blue" opacity="1" tooltip="enable"><title>(0.0351316,16)</title></rect><rect x="390" y="199.005" width="6" height="0.99453" stroke="black" stroke-width="1" fill="blue" opacity="1" tooltip="enable"><title>(0.0356806,10)</title></rect><rect x="396" y="199.304" width="6" height="0.696171" stroke="black" stroke-width="1" fill="blue" opacity="1" tooltip="enable"><title>(0.0362295,7)</title></rect><rect x="402" y="199.204" width="6" height="0.795624" stroke="black" stroke-width="1" fill="blue" opacity="1" tooltip="enable"><title>(0.0367784,8)</title></rect><rect x="408" y="199.503" width="6" height="0.497265" stroke="black" stroke-width="1" fill="blue" opacity="1" tooltip="enable"><title>(0.0373273,5)</title></rect><rect x="414" y="199.403" width="6" height="0.596718" stroke="black" stroke-width="1" fill="blue" opacity="1" tooltip="enable"><title>(0.0378763,6)</title></rect><rect x="420" y="199.801" width="6" height="0.198906" stroke="black" stroke-width="1" fill="blue" opacity="1" tooltip="enable"><title>(0.0384252,2)</title></rect><rect x="426" y="199.801" width="6" height="0.198906" stroke="black" stroke-width="1" fill="blue" opacity="1" tooltip="enable"><title>(0.0389741,2)</title></rect><rect x="432" y="199.801" width="6" height="0.198906" stroke="black" stroke-width="1" fill="blue" opacity="1" tooltip="enable"><title>(0.0395231,2)</title></rect><rect x="438" y="199.801" width="6" height="0.198906" stroke="black" stroke-width="1" fill="blue" opacity="1" tooltip="enable"><title>(0.040072,2)</title></rect><rect x="444" y="199.801" width="6" height="0.198906" stroke="black" stroke-width="1" fill="blue" opacity="1" tooltip="enable"><title>(0.0406209,2)</title></rect><rect x="450" y="199.602" width="6" height="0.397812" stroke="black" stroke-width="1" fill="blue" opacity="1" tooltip="enable"><title>(0.0411699,4)</title></rect><rect x="456" y="200" width="6" height="0" stroke="black" stroke-width="1" fill="blue" opacity="1" tooltip="enable"><title>(0.0417188,0)</title></rect><rect x="462" y="199.801" width="6" height="0.198906" stroke="black" stroke-width="1" fill="blue" opacity="1" tooltip="enable"><title>(0.0422677,2)</title></rect><rect x="468" y="200" width="6" height="0" stroke="black" stroke-width="1" fill="blue" opacity="1" tooltip="enable"><title>(0.0428167,0)</title></rect><rect x="474" y="200" width="6" height="0" stroke="black" stroke-width="1" fill="blue" opacity="1" tooltip="enable"><title>(0.0433656,0)</title></rect><rect x="480" y="200" width="6" height="0" stroke="black" stroke-width="1" fill="blue" opacity="1" tooltip="enable"><title>(0.0439145,0)</title></rect><rect x="486" y="199.801" width="6" height="0.198906" stroke="black" stroke-width="1" fill="blue" opacity="1" tooltip="enable"><title>(0.0444635,2)</title></rect><rect x="492" y="199.602" width="6" height="0.397812" stroke="black" stroke-width="1" fill="blue" opacity="1" tooltip="enable"><title>(0.0450124,4)</title></rect><rect x="498" y="200" width="6" height="0" stroke="black" stroke-width="1" fill="blue" opacity="1" tooltip="enable"><title>(0.0455613,0)</title></rect><rect x="504" y="200" width="6" height="0" stroke="black" stroke-width="1" fill="blue" opacity="1" tooltip="enable"><title>(0.0461103,0)</title></rect><rect x="510" y="200" width="6" height="0" stroke="black" stroke-width="1" fill="blue" opacity="1" tooltip="enable"><title>(0.0466592,0)</title></rect><rect x="516" y="200" width="6" height="0" stroke="black" stroke-width="1" fill="blue" opacity="1" tooltip="enable"><title>(0.0472081,0)</title></rect><rect x="522" y="199.801" width="6" height="0.198906" stroke="black" stroke-width="1" fill="blue" opacity="1" tooltip="enable"><title>(0.047757,2)</title></rect><rect x="528" y="199.801" width="6" height="0.198906" stroke="black" stroke-width="1" fill="blue" opacity="1" tooltip="enable"><title>(0.048306,2)</title></rect><rect x="534" y="200" width="6" height="0" stroke="black" stroke-width="1" fill="blue" opacity="1" tooltip="enable"><title>(0.0488549,0)</title></rect><rect x="540" y="200" width="6" height="0" stroke="black" stroke-width="1" fill="blue" opacity="1" tooltip="enable"><title>(0.0494038,0)</title></rect><rect x="546" y="200" width="6" height="0" stroke="black" stroke-width="1" fill="blue" opacity="1" tooltip="enable"><title>(0.0499528,0)</title></rect><rect x="552" y="200" width="6" height="0" stroke="black" stroke-width="1" fill="blue" opacity="1" tooltip="enable"><title>(0.0505017,0)</title></rect><rect x="558" y="200" width="6" height="0" stroke="black" stroke-width="1" fill="blue" opacity="1" tooltip="enable"><title>(0.0510506,0)</title></rect><rect x="564" y="200" width="6" height="0" stroke="black" stroke-width="1" fill="blue" opacity="1" tooltip="enable"><title>(0.0515996,0)</title></rect><rect x="570" y="200" width="6" height="0" stroke="black" stroke-width="1" fill="blue" opacity="1" tooltip="enable"><title>(0.0521485,0)</title></rect><rect x="576" y="200" width="6" height="0" stroke="black" stroke-width="1" fill="blue" opacity="1" tooltip="enable"><title>(0.0526974,0)</title></rect><rect x="582" y="200" width="6" height="0" stroke="black" stroke-width="1" fill="blue" opacity="1" tooltip="enable"><title>(0.0532464,0)</title></rect><rect x="588" y="200" width="6" height="0" stroke="black" stroke-width="1" fill="blue" opacity="1" tooltip="enable"><title>(0.0537953,0)</title></rect><rect x="594" y="199.901" width="6" height="0.099453" stroke="black" stroke-width="1" fill="blue" opacity="1" tooltip="enable"><title>(0.0543442,1)</title></rect><text x="30" y="240" font-size="20" fill="black">0</text>
<text x="600" y="240" font-size="20" fill="black">0.0548932</text>
<polyline points="0,220,600,220" stroke="black" stroke-width="1" fill="none" opacity="1"/>
<text x="720" y="20" font-size="20" fill="black">2011</text>
<text x="720" y="200" font-size="20" fill="black">0</text>
<polyline points="660,0,660,200" stroke="black" stroke-width="1" fill="none" opacity="1"/>
</svg>