<?xml version="1.0" standalone="yes"?>
<!-- SVG graphic -->
<svg xmlns='http://www.w3.org/2000/svg' xmlns:xlink='http://www.w3.org/1999/xlink'
 version="1.1">
<rect x="0" y="0" width="6" height="200" stroke="black" stroke-width="1" fill="blue" opacity="1" tooltip="enable"><title>(0,2156)</title></rect><rect x="6" y="52.5046" width="6" height="147.495" stroke="black" stroke-width="1" fill="blue" opacity="1" tooltip="enable"><title>(0.00163655,1590)</title></rect><rect x="12" y="126.067" width="6" height="73.9332" stroke="black" stroke-width="1" fill="blue" opacity="1" tooltip="enable"><title>(0.0032731,797)</title></rect><rect x="18" y="163.451" width="6" height="36.5492" stroke="black" stroke-width="1" fill="blue" opacity="1" tooltip="enable"><title>(0.00490965,394)</title></rect><rect x="24" y="175.325" width="6" height="24.6753" stroke="black" stroke-width="1" fill="blue" opacity="1" tooltip="enable"><title>(0.0065462,266)</title></rect><rect x="30" y="179.499" width="6" height="20.5009" stroke="black" stroke-width="1" fill="blue" opacity="1" tooltip="enable"><title>(0.00818275,221)</title></rect><rect x="36" y="184.601" width="6" height="15.3989" stroke="black" stroke-width="1" fill="blue" opacity="1" tooltip="enable"><title>(0.0098193,166)</title></rect><rect x="42" y="185.529" width="6" height="14.4712" stroke="black" stroke-width="1" fill="blue" opacity="1" tooltip="enable"><title>(0.0114558,156)</title></rect><rect x="48" y="183.302" width="6" height="16.6976" stroke="black" stroke-width="1" fill="blue" opacity="1" tooltip="enable"><title>(0.0130924,180)</title></rect><rect x="54" y="182.004" width="6" height="17.9963" stroke="black" stroke-width="1" fill="blue" opacity="1" tooltip="enable"><title>(0.0147289,194)</title></rect><rect x="60" y="184.23" width="6" height="15.7699" stroke="black" stroke-width="1" fill="blue" opacity="1" tooltip="enable"><title>(0.0163655,170)</title></rect><rect x="66" y="184.23" width="6" height="15.7699" stroke="black" stroke-width="1" fill="blue" opacity="1" tooltip="enable"><title>(0.018002,170)</title></rect><rect x="72" y="185.065" width="6" height="14.9351" stroke="black" stroke-width="1" fill="blue" opacity="1" tooltip="enable"><title>(0.0196386,161)</title></rect><rect x="78" y="186.456" width="6" height="13.5436" stroke="black" stroke-width="1" fill="blue" opacity="1" tooltip="enable"><title>(0.0212751,146)</title></rect><rect x="84" y="187.57" width="6" height="12.4304" stroke="black" stroke-width="1" fill="blue" opacity="1" tooltip="enable"><title>(0.0229117,134)</title></rect><rect x="90" y="188.219" width="6" height="11.7811" stroke="black" stroke-width="1" fill="blue" opacity="1" tooltip="enable"><title>(0.0245482,127)</title></rect><rect x="96" y="188.59" width="6" height="11.41" stroke="black" stroke-width="1" fill="blue" opacity="1" tooltip="enable"><title>(0.0261848,123)</title></rect><rect x="102" y="187.848" width="6" height="12.1521" stroke="black" stroke-width="1" fill="blue" opacity="1" tooltip="enable"><title>(0.0278213,131)</title></rect><rect x="108" y="189.981" width="6" height="10.0186" stroke="black" stroke-width="1" fill="blue" opacity="1" tooltip="enable"><title>(0.0294579,108)</title></rect><rect x="114" y="192.393" width="6" height="7.60668" stroke="black" stroke-width="1" fill="blue" opacity="1" tooltip="enable"><title>(0.0310944,82)</title></rect><rect x="120" y="192.95" width="6" height="7.05009" stroke="black" stroke-width="1" fill="blue" opacity="1" tooltip="enable"><title>(0.032731,76)</title></rect><rect x="126" y="195.918" width="6" height="4.08163" stroke="black" stroke-width="1" fill="blue" opacity="1" tooltip="enable"><title>(0.0343675,44)</title></rect><rect x="132" y="194.249" width="6" height="5.75139" stroke="black" stroke-width="1" fill="blue" opacity="1" tooltip="enable"><title>(0.0360041,62)</title></rect><rect x="138" y="196.289" width="6" height="3.71058" stroke="black" stroke-width="1" fill="blue" opacity="1" tooltip="enable"><title>(0.0376406,40)</title></rect><rect x="144" y="196.197" width="6" height="3.80334" stroke="black" stroke-width="1" fill="blue" opacity="1" tooltip="enable"><title>(0.0392772,41)</title></rect><rect x="150" y="197.124" width="6" height="2.8757" stroke="black" stroke-width="1" fill="blue" opacity="1" tooltip="enable"><title>(0.0409137,31)</title></rect><rect x="156" y="196.939" width="6" height="3.06122" stroke="black" stroke-width="1" fill="blue" opacity="1" tooltip="enable"><title>(0.0425503,33)</title></rect><rect x="162" y="197.866" width="6" height="2.13358" stroke="black" stroke-width="1" fill="blue" opacity="1" tooltip="enable"><title>(0.0441868,23)</title></rect><rect x="168" y="198.145" width="6" height="1.85529" stroke="black" stroke-width="1" fill="blue" opacity="1" tooltip="enable"><title>(0.0458234,20)</title></rect><rect x="174" y="198.701" width="6" height="1.2987" stroke="black" stroke-width="1" fill="blue" opacity="1" tooltip="enable"><title>(0.0474599,14)</title></rect><rect x="180" y="198.516" width="6" height="1.48423" stroke="black" stroke-width="1" fill="blue" opacity="1" tooltip="enable"><title>(0.0490965,16)</title></rect><rect x="186" y="198.33" width="6" height="1.66976" stroke="black" stroke-width="1" fill="blue" opacity="1" tooltip="enable"><title>(0.050733,18)</title></rect><rect x="192" y="199.443" width="6" height="0.556586" stroke="black" stroke-width="1" fill="blue" opacity="1" tooltip="enable"><title>(0.0523696,6)</title></rect><rect x="198" y="198.516" width="6" height="1.48423" stroke="black" stroke-width="1" fill="blue" opacity="1" tooltip="enable"><title>(0.0540061,16)</title></rect><rect x="204" y="199.072" width="6" height="0.927644" stroke="black" stroke-width="1" fill="blue" opacity="1" tooltip="enable"><title>(0.0556427,10)</title></rect><rect x="210" y="199.258" width="6" height="0.742115" stroke="black" stroke-width="1" fill="blue" opacity="1" tooltip="enable"><title>(0.0572792,8)</title></rect><rect x="216" y="199.629" width="6" height="0.371058" stroke="black" stroke-width="1" fill="blue" opacity="1" tooltip="enable"><title>(0.0589158,4)</title></rect><rect x="222" y="200" width="6" height="0" stroke="black" stroke-width="1" fill="blue" opacity="1" tooltip="enable"><title>(0.0605523,0)</title></rect><rect x="228" y="199.443" width="6" height="0.556586" stroke="black" stroke-width="1" fill="blue" opacity="1" tooltip="enable"><title>(0.0621889,6)</title></rect><rect x="234" y="199.814" width="6" height="0.185529" stroke="black" stroke-width="1" fill="blue" opacity="1" tooltip="enable"><title>(0.0638254,2)</title></rect><rect x="240" y="199.629" width="6" height="0.371058" stroke="black" stroke-width="1" fill="blue" opacity="1" tooltip="enable"><title>(0.065462,4)</title></rect><rect x="246" y="199.443" width="6" height="0.556586" stroke="black" stroke-width="1" fill="blue" opacity="1" tooltip="enable"><title>(0.0670985,6)</title></rect><rect x="252" y="200" width="6" height="0" stroke="black" stroke-width="1" fill="blue" opacity="1" tooltip="enable"><title>(0.0687351,0)</title></rect><rect x="258" y="199.072" width="6" height="0.927644" stroke="black" stroke-width="1" fill="blue" opacity="1" tooltip="enable"><title>(0.0703716,10)</title></rect><rect x="264" y="199.443" width="6" height="0.556586" stroke="black" stroke-width="1" fill="blue" opacity="1" tooltip="enable"><title>(0.0720082,6)</title></rect><rect x="270" y="200" width="6" height="0" stroke="black" stroke-width="1" fill="blue" opacity="1" tooltip="enable"><title>(0.0736447,0)</title></rect><rect x="276" y="199.629" width="6" height="0.371058" stroke="black" stroke-width="1" fill="blue" opacity="1" tooltip="enable"><title>(0.0752813,4)</title></rect><rect x="282" y="200" width="6" height="0" stroke="black" stroke-width="1" fill="blue" opacity="1" tooltip="enable"><title>(0.0769178,0)</title></rect><rect x="288" y="199.814" width="6" height="0.185529" stroke="black" stroke-width="1" fill="blue" opacity="1" tooltip="enable"><title>(0.0785544,2)</title></rect><rect x="294" y="199.814" width="6" height="0.185529" stroke="black" stroke-width="1" fill="blue" opacity="1" tooltip="enable"><title>(0.0801909,2)</title></rect><rect x="300" y="200" width="6" height="0" stroke="black" stroke-width="1" fill="blue" opacity="1" tooltip="enable"><title>(0.0818275,0)</title></rect><rect x="306" y="200" width="6" height="0" stroke="black" stroke-width="1" fill="blue" opacity="1" tooltip="enable"><title>(0.083464,0)</title></rect><rect x="312" y="200" width="6" height="0" stroke="black" stroke-width="1" fill="blue" opacity="1" tooltip="enable"><title>(0.0851006,0)</title></rect><rect x="318" y="199.814" width="6" height="0.185529" stroke="black" stroke-width="1" fill="blue" opacity="1" tooltip="enable"><title>(0.0867371,2)</title></rect><rect x="324" y="199.814" width="6" height="0.185529" stroke="black" stroke-width="1" fill="blue" opacity="1" tooltip="enable"><title>(0.0883737,2)</title></rect><rect x="330" y="200" width="6" height="0" stroke="black" stroke-width="1" fill="blue" opacity="1" tooltip="enable"><title>(0.0900102,0)</title></rect><rect x="336" y="200" width="6" height="0" stroke="black" stroke-width="1" fill="blue" opacity="1" tooltip="enable"><title>(0.0916468,0)</title></rect><rect x="342" y="199.907" width="6" height="0.0927644" stroke="black" stroke-width="1" fill="blue" opacity="1" tooltip="enable"><title>(0.0932833,1)</title></rect><rect x="348" y="199.907" width="6" height="0.0927644" stroke="black" stroke-width="1" fill="blue" opacity="1" tooltip="enable"><title>(0.0949199,1)</title></rect><rect x="354" y="200" width="6" height="0" stroke="black" stroke-width="1" fill="blue" opacity="1" tooltip="enable"><title>(0.0965564,0)</title></rect><rect x="360" y="200" width="6" height="0" stroke="black" stroke-width="1" fill="blue" opacity="1" tooltip="enable"><title>(0.098193,0)</title></rect><rect x="366" y="200" width="6" height="0" stroke="black" stroke-width="1" fill="blue" opacity="1" tooltip="enable"><title>(0.0998295,0)</title></rect><rect x="372" y="200" width="6" height="0" stroke="black" stroke-width="1" fill="blue" opacity="1" tooltip="enable"><title>(0.101466,0)</title></rect><rect x="378" y="200" width="6" height="0" stroke="black" stroke-width="1" fill="blue" opacity="1" tooltip="enable"><title>(0.103103,0)</title></rect><rect x="384" y="199.814" width="6" height="0.185529" stroke="black" stroke-width="1" fill="blue" opacity="1" tooltip="enable"><title>(0.104739,2)</title></rect><rect x="390" y="200" width="6" height="0" stroke="black" stroke-width="1" fill="blue" opacity="1" tooltip="enable"><title>(0.106376,0)</title></rect><rect x="396" y="200" width="6" height="0" stroke="black" stroke-width="1" fill="blue" opacity="1" tooltip="enable"><title>(0.108012,0)</title></rect><rect x="402" y="200" width="6" height="0" stroke="black" stroke-width="1" fill="blue" opacity="1" tooltip="enable"><title>(0.109649,0)</title></rect><rect x="408" y="200" width="6" height="0" stroke="black" stroke-width="1" fill="blue" opacity="1" tooltip="enable"><title>(0.111285,0)</title></rect><rect x="414" y="200" width="6" height="0" stroke="black" stroke-width="1" fill="blue" opacity="1" tooltip="enable"><title>(0.112922,0)</title></rect><rect x="420" y="199.443" width="6" height="0.556586" stroke="black" stroke-width="1" fill="blue" opacity="1" tooltip="enable"><title>(0.114558,6)</title></rect><rect x="426" y="200" width="6" height="0" stroke="black" stroke-width="1" fill="blue" opacity="1" tooltip="enable"><title>(0.116195,0)</title></rect><rect x="432" y="200" width="6" height="0" stroke="black" stroke-width="1" fill="blue" opacity="1" tooltip="enable"><title>(0.117832,0)</title></rect><rect x="438" y="200" width="6" height="0" stroke="black" stroke-width="1" fill="blue" opacity="1" tooltip="enable"><title>(0.119468,0)</title></rect><rect x="444" y="200" width="6" height="0" stroke="black" stroke-width="1" fill="blue" opacity="1" tooltip="enable"><title>(0.121105,0)</title></rect><rect x="450" y="199.814" width="6" height="0.185529" stroke="black" stroke-width="1" fill="blue" opacity="1" tooltip="enable"><title>(0.122741,2)</title></rect><rect x="456" y="200" width="6" height="0" stroke="black" stroke-width="1" fill="blue" opacity="1" tooltip="enable"><title>(0.124378,0)</title></rect><rect x="462" y="200" width="6" height="0" stroke="black" stroke-width="1" fill="blue" opacity="1" tooltip="enable"><title>(0.126014,0)</title></rect><rect x="468" y="200" width="6" height="0" stroke="black" stroke-width="1" fill="blue" opacity="1" tooltip="enable"><title>(0.127651,0)</title></rect><rect x="474" y="200" width="6" height="0" stroke="black" stroke-width="1" fill="blue" opacity="1" tooltip="enable"><title>(0.129287,0)</title></rect><rect x="480" y="200" width="6" height="0" stroke="black" stroke-width="1" fill="blue" opacity="1" tooltip="enable"><title>(0.130924,0)</title></rect><rect x="486" y="200" width="6" height="0" stroke="black" stroke-width="1" fill="blue" opacity="1" tooltip="enable"><title>(0.132561,0)</title></rect><rect x="492" y="199.814" width="6" height="0.185529" stroke="black" stroke-width="1" fill="blue" opacity="1" tooltip="enable"><title>(0.134197,2)</title></rect><rect x="498" y="200" width="6" height="0" stroke="black" stroke-width="1" fill="blue" opacity="1" tooltip="enable"><title>(0.135834,0)</title></rect><rect x="504" y="200" width="6" height="0" stroke="black" stroke-width="1" fill="blue" opacity="1" tooltip="enable"><title>(0.13747,0)</title></rect><rect x="510" y="200" width="6" height="0" stroke="black" stroke-width="1" fill="blue" opacity="1" tooltip="enable"><title>(0.139107,0)</title></rect><rect x="516" y="200" width="6" height="0" stroke="black" stroke-width="1" fill="blue" opacity="1" tooltip="enable"><title>(0.140743,0)</title></rect><rect x="522" y="200" width="6" height="0" stroke="black" stroke-width="1" fill="blue" opacity="1" tooltip="enable"><title>(0.14238,0)</title></rect><rect x="528" y="200" width="6" height="0" stroke="black" stroke-width="1" fill="blue" opacity="1" tooltip="enable"><title>(0.144016,0)</title></rect><rect x="534" y="200" width="6" height="0" stroke="black" stroke-width="1" fill="blue" opacity="1" tooltip="enable"><title>(0.145653,0)</title></rect><rect x="540" y="200" width="6" height="0" stroke="black" stroke-width="1" fill="blue" opacity="1" tooltip="enable"><title>(0.147289,0)</title></rect><rect x="546" y="200" width="6" height="0" stroke="black" stroke-width="1" fill="blue" opacity="1" tooltip="enable"><title>(0.148926,0)</title></rect><rect x="552" y="200" width="6" height="0" stroke="black" stroke-width="1" fill="blue" opacity="1" tooltip="enable"><title>(0.150563,0)</title></rect><rect x="558" y="200" width="6" height="0" stroke="black" stroke-width="1" fill="blue" opacity="1" tooltip="enable"><title>(0.152199,0)</title></rect><rect x="564" y="200" width="6" height="0" stroke="black" stroke-width="1" fill="blue" opacity="1" tooltip="enable"><title>(0.153836,0)</title></rect><rect x="570" y="200" width="6" height="0" stroke="black" stroke-width="1" fill="blue" opacity="1" tooltip="enable"><title>(0.155472,0)</title></rect><rect x="576" y="200" width="6" height="0" stroke="black" stroke-width="1" fill="blue" opacity="1" tooltip="enable"><title>(0.157109,0)</title></rect><rect x="582" y="200" width="6" height="0" stroke="black" stroke-width="1" fill="blue" opacity="1" tooltip="enable"><title>(0.158745,0)</title></rect><rect x="588" y="199.814" width="6" height="0.185529" stroke="black" stroke-width="1" fill="blue" opacity="1" tooltip="enable"><title>(0.160382,2)</title></rect><rect x="594" y="199.722" width="6" height="0.278293" stroke="black" stroke-width="1" fill="blue" opacity="1" tooltip="enable"><title>(0.162018,3)</title></rect><text x="30" y="240" font-size="20" fill="black">0</text>
<text x="600" y="240" font-size="20" fill="black">0.163655</text>
<polyline points="0,220,600,220" stroke="black" stroke-width="1" fill="none" opacity="1"/>
<text x="720" y="20" font-size="20" fill="black">2156</text>
<text x="720" y="200" font-size="20" fill="black">0</text>
<polyline points="660,0,660,200" stroke="black" stroke-width="1" fill="none" opacity="1"/>
</svg>