<?xml version="1.0" standalone="yes"?>
<!-- SVG graphic -->
<svg xmlns='http://www.w3.org/2000/svg' xmlns:xlink='http://www.w3.org/1999/xlink'
 version="1.1">
<rect x="0" y="0" width="6" height="200" stroke="black" stroke-width="1" fill="blue" opacity="1" tooltip="enable"><title>(0,1986)</title></rect><rect x="6" y="83.9879" width="6" height="116.012" stroke="black" stroke-width="1" fill="blue" opacity="1" tooltip="enable"><title>(0.00134529,1152)</title></rect><rect x="12" y="120.544" width="6" height="79.4562" stroke="black" stroke-width="1" fill="blue" opacity="1" tooltip="enable"><title>(0.00269058,789)</title></rect><rect x="18" y="155.086" width="6" height="44.9144" stroke="black" stroke-width="1" fill="blue" opacity="1" tooltip="enable"><title>(0.00403587,446)</title></rect><rect x="24" y="164.35" width="6" height="35.6495" stroke="black" stroke-width="1" fill="blue" opacity="1" tooltip="enable"><title>(0.00538116,354)</title></rect><rect x="30" y="177.14" width="6" height="22.86" stroke="black" stroke-width="1" fill="blue" opacity="1" tooltip="enable"><title>(0.00672645,227)</title></rect><rect x="36" y="176.536" width="6" height="23.4643" stroke="black" stroke-width="1" fill="blue" opacity="1" tooltip="enable"><title>(0.00807174,233)</title></rect><rect x="42" y="176.838" width="6" height="23.1621" stroke="black" stroke-width="1" fill="blue" opacity="1" tooltip="enable"><title>(0.00941703,230)</title></rect><rect x="48" y="177.946" width="6" height="22.0544" stroke="black" stroke-width="1" fill="blue" opacity="1" tooltip="enable"><title>(0.0107623,219)</title></rect><rect x="54" y="179.456" width="6" height="20.5438" stroke="black" stroke-width="1" fill="blue" opacity="1" tooltip="enable"><title>(0.0121076,204)</title></rect><rect x="60" y="179.859" width="6" height="20.141" stroke="black" stroke-width="1" fill="blue" opacity="1" tooltip="enable"><title>(0.0134529,200)</title></rect><rect x="66" y="182.981" width="6" height="17.0191" stroke="black" stroke-width="1" fill="blue" opacity="1" tooltip="enable"><title>(0.0147982,169)</title></rect><rect x="72" y="180.463" width="6" height="19.5368" stroke="black" stroke-width="1" fill="blue" opacity="1" tooltip="enable"><title>(0.0161435,194)</title></rect><rect x="78" y="182.88" width="6" height="17.1198" stroke="black" stroke-width="1" fill="blue" opacity="1" tooltip="enable"><title>(0.0174888,170)</title></rect><rect x="84" y="189.023" width="6" height="10.9768" stroke="black" stroke-width="1" fill="blue" opacity="1" tooltip="enable"><title>(0.0188341,109)</title></rect><rect x="90" y="185.498" width="6" height="14.5015" stroke="black" stroke-width="1" fill="blue" opacity="1" tooltip="enable"><title>(0.0201793,144)</title></rect><rect x="96" y="184.894" width="6" height="15.1057" stroke="black" stroke-width="1" fill="blue" opacity="1" tooltip="enable"><title>(0.0215246,150)</title></rect><rect x="102" y="191.742" width="6" height="8.2578" stroke="black" stroke-width="1" fill="blue" opacity="1" tooltip="enable"><title>(0.0228699,82)</title></rect><rect x="108" y="191.541" width="6" height="8.45922" stroke="black" stroke-width="1" fill="blue" opacity="1" tooltip="enable"><title>(0.0242152,84)</title></rect><rect x="114" y="191.944" width="6" height="8.05639" stroke="black" stroke-width="1" fill="blue" opacity="1" tooltip="enable"><title>(0.0255605,80)</title></rect><rect x="120" y="193.555" width="6" height="6.44512" stroke="black" stroke-width="1" fill="blue" opacity="1" tooltip="enable"><title>(0.0269058,64)</title></rect><rect x="126" y="193.656" width="6" height="6.34441" stroke="black" stroke-width="1" fill="blue" opacity="1" tooltip="enable"><title>(0.0282511,63)</title></rect><rect x="132" y="193.656" width="6" height="6.34441" stroke="black" stroke-width="1" fill="blue" opacity="1" tooltip="enable"><title>(0.0295964,63)</title></rect><rect x="138" y="195.368" width="6" height="4.63243" stroke="black" stroke-width="1" fill="blue" opacity="1" tooltip="enable"><title>(0.0309417,46)</title></rect><rect x="144" y="193.555" width="6" height="6.44512" stroke="black" stroke-width="1" fill="blue" opacity="1" tooltip="enable"><title>(0.032287,64)</title></rect><rect x="150" y="196.777" width="6" height="3.22256" stroke="black" stroke-width="1" fill="blue" opacity="1" tooltip="enable"><title>(0.0336322,32)</title></rect><rect x="156" y="195.972" width="6" height="4.0282" stroke="black" stroke-width="1" fill="blue" opacity="1" tooltip="enable"><title>(0.0349775,40)</title></rect><rect x="162" y="198.389" width="6" height="1.61128" stroke="black" stroke-width="1" fill="blue" opacity="1" tooltip="enable"><title>(0.0363228,16)</title></rect><rect x="168" y="197.281" width="6" height="2.71903" stroke="black" stroke-width="1" fill="blue" opacity="1" tooltip="enable"><title>(0.0376681,27)</title></rect><rect x="174" y="198.288" width="6" height="1.71198" stroke="black" stroke-width="1" fill="blue" opacity="1" tooltip="enable"><title>(0.0390134,17)</title></rect><rect x="180" y="197.684" width="6" height="2.31621" stroke="black" stroke-width="1" fill="blue" opacity="1" tooltip="enable"><title>(0.0403587,23)</title></rect><rect x="186" y="196.878" width="6" height="3.12185" stroke="black" stroke-width="1" fill="blue" opacity="1" tooltip="enable"><title>(0.041704,31)</title></rect><rect x="192" y="197.784" width="6" height="2.21551" stroke="black" stroke-width="1" fill="blue" opacity="1" tooltip="enable"><title>(0.0430493,22)</title></rect><rect x="198" y="199.194" width="6" height="0.80564" stroke="black" stroke-width="1" fill="blue" opacity="1" tooltip="enable"><title>(0.0443946,8)</title></rect><rect x="204" y="199.295" width="6" height="0.704935" stroke="black" stroke-width="1" fill="blue" opacity="1" tooltip="enable"><title>(0.0457399,7)</title></rect><rect x="210" y="199.094" width="6" height="0.906344" stroke="black" stroke-width="1" fill="blue" opacity="1" tooltip="enable"><title>(0.0470851,9)</title></rect><rect x="216" y="199.194" width="6" height="0.80564" stroke="black" stroke-width="1" fill="blue" opacity="1" tooltip="enable"><title>(0.0484304,8)</title></rect><rect x="222" y="197.986" width="6" height="2.0141" stroke="black" stroke-width="1" fill="blue" opacity="1" tooltip="enable"><title>(0.0497757,20)</title></rect><rect x="228" y="198.59" width="6" height="1.40987" stroke="black" stroke-width="1" fill="blue" opacity="1" tooltip="enable"><title>(0.051121,14)</title></rect><rect x="234" y="198.993" width="6" height="1.00705" stroke="black" stroke-width="1" fill="blue" opacity="1" tooltip="enable"><title>(0.0524663,10)</title></rect><rect x="240" y="199.396" width="6" height="0.60423" stroke="black" stroke-width="1" fill="blue" opacity="1" tooltip="enable"><title>(0.0538116,6)</title></rect><rect x="246" y="199.194" width="6" height="0.80564" stroke="black" stroke-width="1" fill="blue" opacity="1" tooltip="enable"><title>(0.0551569,8)</title></rect><rect x="252" y="199.396" width="6" height="0.60423" stroke="black" stroke-width="1" fill="blue" opacity="1" tooltip="enable"><title>(0.0565022,6)</title></rect><rect x="258" y="198.389" width="6" height="1.61128" stroke="black" stroke-width="1" fill="blue" opacity="1" tooltip="enable"><title>(0.0578475,16)</title></rect><rect x="264" y="199.396" width="6" height="0.60423" stroke="black" stroke-width="1" fill="blue" opacity="1" tooltip="enable"><title>(0.0591928,6)</title></rect><rect x="270" y="199.094" width="6" height="0.906344" stroke="black" stroke-width="1" fill="blue" opacity="1" tooltip="enable"><title>(0.060538,9)</title></rect><rect x="276" y="199.094" width="6" height="0.906344" stroke="black" stroke-width="1" fill="blue" opacity="1" tooltip="enable"><title>(0.0618833,9)</title></rect><rect x="282" y="198.892" width="6" height="1.10775" stroke="black" stroke-width="1" fill="blue" opacity="1" tooltip="enable"><title>(0.0632286,11)</title></rect><rect x="288" y="198.892" width="6" height="1.10775" stroke="black" stroke-width="1" fill="blue" opacity="1" tooltip="enable"><title>(0.0645739,11)</title></rect><rect x="294" y="199.194" width="6" height="0.80564" stroke="black" stroke-width="1" fill="blue" opacity="1" tooltip="enable"><title>(0.0659192,8)</title></rect><rect x="300" y="199.194" width="6" height="0.80564" stroke="black" stroke-width="1" fill="blue" opacity="1" tooltip="enable"><title>(0.0672645,8)</title></rect><rect x="306" y="199.194" width="6" height="0.80564" stroke="black" stroke-width="1" fill="blue" opacity="1" tooltip="enable"><title>(0.0686098,8)</title></rect><rect x="312" y="199.396" width="6" height="0.60423" stroke="black" stroke-width="1" fill="blue" opacity="1" tooltip="enable"><title>(0.0699551,6)</title></rect><rect x="318" y="199.194" width="6" height="0.80564" stroke="black" stroke-width="1" fill="blue" opacity="1" tooltip="enable"><title>(0.0713004,8)</title></rect><rect x="324" y="199.194" width="6" height="0.80564" stroke="black" stroke-width="1" fill="blue" opacity="1" tooltip="enable"><title>(0.0726457,8)</title></rect><rect x="330" y="199.396" width="6" height="0.60423" stroke="black" stroke-width="1" fill="blue" opacity="1" tooltip="enable"><title>(0.0739909,6)</title></rect><rect x="336" y="199.194" width="6" height="0.80564" stroke="black" stroke-width="1" fill="blue" opacity="1" tooltip="enable"><title>(0.0753362,8)</title></rect><rect x="342" y="199.799" width="6" height="0.20141" stroke="black" stroke-width="1" fill="blue" opacity="1" tooltip="enable"><title>(0.0766815,2)</title></rect><rect x="348" y="199.396" width="6" height="0.60423" stroke="black" stroke-width="1" fill="blue" opacity="1" tooltip="enable"><title>(0.0780268,6)</title></rect><rect x="354" y="199.799" width="6" height="0.20141" stroke="black" stroke-width="1" fill="blue" opacity="1" tooltip="enable"><title>(0.0793721,2)</title></rect><rect x="360" y="199.899" width="6" height="0.100705" stroke="black" stroke-width="1" fill="blue" opacity="1" tooltip="enable"><title>(0.0807174,1)</title></rect><rect x="366" y="199.698" width="6" height="0.302115" stroke="black" stroke-width="1" fill="blue" opacity="1" tooltip="enable"><title>(0.0820627,3)</title></rect><rect x="372" y="199.799" width="6" height="0.20141" stroke="black" stroke-width="1" fill="blue" opacity="1" tooltip="enable"><title>(0.083408,2)</title></rect><rect x="378" y="200" width="6" height="0" stroke="black" stroke-width="1" fill="blue" opacity="1" tooltip="enable"><title>(0.0847533,0)</title></rect><rect x="384" y="199.799" width="6" height="0.20141" stroke="black" stroke-width="1" fill="blue" opacity="1" tooltip="enable"><title>(0.0860986,2)</title></rect><rect x="390" y="199.597" width="6" height="0.40282" stroke="black" stroke-width="1" fill="blue" opacity="1" tooltip="enable"><title>(0.0874438,4)</title></rect><rect x="396" y="200" width="6" height="0" stroke="black" stroke-width="1" fill="blue" opacity="1" tooltip="enable"><title>(0.0887891,0)</title></rect><rect x="402" y="199.396" width="6" height="0.60423" stroke="black" stroke-width="1" fill="blue" opacity="1" tooltip="enable"><title>(0.0901344,6)</title></rect><rect x="408" y="199.396" width="6" height="0.60423" stroke="black" stroke-width="1" fill="blue" opacity="1" tooltip="enable"><title>(0.0914797,6)</title></rect><rect x="414" y="199.799" width="6" height="0.20141" stroke="black" stroke-width="1" fill="blue" opacity="1" tooltip="enable"><title>(0.092825,2)</title></rect><rect x="420" y="199.698" width="6" height="0.302115" stroke="black" stroke-width="1" fill="blue" opacity="1" tooltip="enable"><title>(0.0941703,3)</title></rect><rect x="426" y="199.899" width="6" height="0.100705" stroke="black" stroke-width="1" fill="blue" opacity="1" tooltip="enable"><title>(0.0955156,1)</title></rect><rect x="432" y="200" width="6" height="0" stroke="black" stroke-width="1" fill="blue" opacity="1" tooltip="enable"><title>(0.0968609,0)</title></rect><rect x="438" y="200" width="6" height="0" stroke="black" stroke-width="1" fill="blue" opacity="1" tooltip="enable"><title>(0.0982062,0)</title></rect><rect x="444" y="199.799" width="6" height="0.20141" stroke="black" stroke-width="1" fill="blue" opacity="1" tooltip="enable"><title>(0.0995515,2)</title></rect><rect x="450" y="200" width="6" height="0" stroke="black" stroke-width="1" fill="blue" opacity="1" tooltip="enable"><title>(0.100897,0)</title></rect><rect x="456" y="199.799" width="6" height="0.20141" stroke="black" stroke-width="1" fill="blue" opacity="1" tooltip="enable"><title>(0.102242,2)</title></rect><rect x="462" y="200" width="6" height="0" stroke="black" stroke-width="1" fill="blue" opacity="1" tooltip="enable"><title>(0.103587,0)</title></rect><rect x="468" y="200" width="6" height="0" stroke="black" stroke-width="1" fill="blue" opacity="1" tooltip="enable"><title>(0.104933,0)</title></rect><rect x="474" y="200" width="6" height="0" stroke="black" stroke-width="1" fill="blue" opacity="1" tooltip="enable"><title>(0.106278,0)</title></rect><rect x="480" y="200" width="6" height="0" stroke="black" stroke-width="1" fill="blue" opacity="1" tooltip="enable"><title>(0.107623,0)</title></rect><rect x="486" y="200" width="6" height="0" stroke="black" stroke-width="1" fill="blue" opacity="1" tooltip="enable"><title>(0.108968,0)</title></rect><rect x="492" y="200" width="6" height="0" stroke="black" stroke-width="1" fill="blue" opacity="1" tooltip="enable"><title>(0.110314,0)</title></rect><rect x="498" y="200" width="6" height="0" stroke="black" stroke-width="1" fill="blue" opacity="1" tooltip="enable"><title>(0.111659,0)</title></rect><rect x="504" y="199.899" width="6" height="0.100705" stroke="black" stroke-width="1" fill="blue" opacity="1" tooltip="enable"><title>(0.113004,1)</title></rect><rect x="510" y="199.899" width="6" height="0.100705" stroke="black" stroke-width="1" fill="blue" opacity="1" tooltip="enable"><title>(0.11435,1)</title></rect><rect x="516" y="200" width="6" height="0" stroke="black" stroke-width="1" fill="blue" opacity="1" tooltip="enable"><title>(0.115695,0)</title></rect><rect x="522" y="200" width="6" height="0" stroke="black" stroke-width="1" fill="blue" opacity="1" tooltip="enable"><title>(0.11704,0)</title></rect><rect x="528" y="200" width="6" height="0" stroke="black" stroke-width="1" fill="blue" opacity="1" tooltip="enable"><title>(0.118386,0)</title></rect><rect x="534" y="200" width="6" height="0" stroke="black" stroke-width="1" fill="blue" opacity="1" tooltip="enable"><title>(0.119731,0)</title></rect><rect x="540" y="200" width="6" height="0" stroke="black" stroke-width="1" fill="blue" opacity="1" tooltip="enable"><title>(0.121076,0)</title></rect><rect x="546" y="200" width="6" height="0" stroke="black" stroke-width="1" fill="blue" opacity="1" tooltip="enable"><title>(0.122421,0)</title></rect><rect x="552" y="199.799" width="6" height="0.20141" stroke="black" stroke-width="1" fill="blue" opacity="1" tooltip="enable"><title>(0.123767,2)</title></rect><rect x="558" y="200" width="6" height="0" stroke="black" stroke-width="1" fill="blue" opacity="1" tooltip="enable"><title>(0.125112,0)</title></rect><rect x="564" y="200" width="6" height="0" stroke="black" stroke-width="1" fill="blue" opacity="1" tooltip="enable"><title>(0.126457,0)</title></rect><rect x="570" y="199.799" width="6" height="0.20141" stroke="black" stroke-width="1" fill="blue" opacity="1" tooltip="enable"><title>(0.127803,2)</title></rect><rect x="576" y="200" width="6" height="0" stroke="black" stroke-width="1" fill="blue" opacity="1" tooltip="enable"><title>(0.129148,0)</title></rect><rect x="582" y="200" width="6" height="0" stroke="black" stroke-width="1" fill="blue" opacity="1" tooltip="enable"><title>(0.130493,0)</title></rect><rect x="588" y="200" width="6" height="0" stroke="black" stroke-width="1" fill="blue" opacity="1" tooltip="enable"><title>(0.131838,0)</title></rect><rect x="594" y="199.899" width="6" height="0.100705" stroke="black" stroke-width="1" fill="blue" opacity="1" tooltip="enable"><title>(0.133184,1)</title></rect><text x="30" y="240" font-size="20" fill="black">0</text>
<text x="600" y="240" font-size="20" fill="black">0.134529</text>
<polyline points="0,220,600,220" stroke="black" stroke-width="1" fill="none" opacity="1"/>
<text x="720" y="20" font-size="20" fill="black">1986</text>
<text x="720" y="200" font-size="20" fill="black">0</text>
<polyline points="660,0,660,200" stroke="black" stroke-width="1" fill="none" opacity="1"/>
</svg>