<?xml version="1.0" standalone="yes"?>
<!-- SVG graphic -->
<svg xmlns='http://www.w3.org/2000/svg' xmlns:xlink='http://www.w3.org/1999/xlink'
 version="1.1">
<rect x="0" y="30.1031" width="6" height="169.897" stroke="black" stroke-width="1" fill="blue" opacity="1" tooltip="enable"><title>(0,824)</title></rect><rect x="6" y="3.71135" width="6" height="196.289" stroke="black" stroke-width="1" fill="blue" opacity="1" tooltip="enable"><title>(0.00130749,952)</title></rect><rect x="12" y="0" width="6" height="200" stroke="black" stroke-width="1" fill="blue" opacity="1" tooltip="enable"><title>(0.00261497,970)</title></rect><rect x="18" y="33.1959" width="6" height="166.804" stroke="black" stroke-width="1" fill="blue" opacity="1" tooltip="enable"><title>(0.00392246,809)</title></rect><rect x="24" y="81.2371" width="6" height="118.763" stroke="black" stroke-width="1" fill="blue" opacity="1" tooltip="enable"><title>(0.00522994,576)</title></rect><rect x="30" y="109.072" width="6" height="90.9278" stroke="black" stroke-width="1" fill="blue" opacity="1" tooltip="enable"><title>(0.00653743,441)</title></rect><rect x="36" y="140" width="6" height="60" stroke="black" stroke-width="1" fill="blue" opacity="1" tooltip="enable"><title>(0.00784492,291)</title></rect><rect x="42" y="152.577" width="6" height="47.4227" stroke="black" stroke-width="1" fill="blue" opacity="1" tooltip="enable"><title>(0.0091524,230)</title></rect><rect x="48" y="164.124" width="6" height="35.8763" stroke="black" stroke-width="1" fill="blue" opacity="1" tooltip="enable"><title>(0.0104599,174)</title></rect><rect x="54" y="161.856" width="6" height="38.1443" stroke="black" stroke-width="1" fill="blue" opacity="1" tooltip="enable"><title>(0.0117674,185)</title></rect><rect x="60" y="165.567" width="6" height="34.433" stroke="black" stroke-width="1" fill="blue" opacity="1" tooltip="enable"><title>(0.0130749,167)</title></rect><rect x="66" y="167.835" width="6" height="32.1649" stroke="black" stroke-width="1" fill="blue" opacity="1" tooltip="enable"><title>(0.0143823,156)</title></rect><rect x="72" y="161.856" width="6" height="38.1443" stroke="black" stroke-width="1" fill="blue" opacity="1" tooltip="enable"><title>(0.0156898,185)</title></rect><rect x="78" y="167.423" width="6" height="32.5773" stroke="black" stroke-width="1" fill="blue" opacity="1" tooltip="enable"><title>(0.0169973,158)</title></rect><rect x="84" y="168.66" width="6" height="31.3402" stroke="black" stroke-width="1" fill="blue" opacity="1" tooltip="enable"><title>(0.0183048,152)</title></rect><rect x="90" y="171.959" width="6" height="28.0412" stroke="black" stroke-width="1" fill="blue" opacity="1" tooltip="enable"><title>(0.0196123,136)</title></rect><rect x="96" y="173.814" width="6" height="26.1856" stroke="black" stroke-width="1" fill="blue" opacity="1" tooltip="enable"><title>(0.0209198,127)</title></rect><rect x="102" y="174.639" width="6" height="25.3608" stroke="black" stroke-width="1" fill="blue" opacity="1" tooltip="enable"><title>(0.0222273,123)</title></rect><rect x="108" y="183.093" width="6" height="16.9072" stroke="black" stroke-width="1" fill="blue" opacity="1" tooltip="enable"><title>(0.0235347,82)</title></rect><rect x="114" y="175.052" width="6" height="24.9485" stroke="black" stroke-width="1" fill="blue" opacity="1" tooltip="enable"><title>(0.0248422,121)</title></rect><rect x="120" y="175.876" width="6" height="24.1237" stroke="black" stroke-width="1" fill="blue" opacity="1" tooltip="enable"><title>(0.0261497,117)</title></rect><rect x="126" y="182.68" width="6" height="17.3196" stroke="black" stroke-width="1" fill="blue" opacity="1" tooltip="enable"><title>(0.0274572,84)</title></rect><rect x="132" y="178.969" width="6" height="21.0309" stroke="black" stroke-width="1" fill="blue" opacity="1" tooltip="enable"><title>(0.0287647,102)</title></rect><rect x="138" y="182.474" width="6" height="17.5258" stroke="black" stroke-width="1" fill="blue" opacity="1" tooltip="enable"><title>(0.0300722,85)</title></rect><rect x="144" y="183.711" width="6" height="16.2887" stroke="black" stroke-width="1" fill="blue" opacity="1" tooltip="enable"><title>(0.0313797,79)</title></rect><rect x="150" y="179.381" width="6" height="20.6186" stroke="black" stroke-width="1" fill="blue" opacity="1" tooltip="enable"><title>(0.0326871,100)</title></rect><rect x="156" y="189.278" width="6" height="10.7216" stroke="black" stroke-width="1" fill="blue" opacity="1" tooltip="enable"><title>(0.0339946,52)</title></rect><rect x="162" y="183.918" width="6" height="16.0825" stroke="black" stroke-width="1" fill="blue" opacity="1" tooltip="enable"><title>(0.0353021,78)</title></rect><rect x="168" y="186.804" width="6" height="13.1959" stroke="black" stroke-width="1" fill="blue" opacity="1" tooltip="enable"><title>(0.0366096,64)</title></rect><rect x="174" y="189.691" width="6" height="10.3093" stroke="black" stroke-width="1" fill="blue" opacity="1" tooltip="enable"><title>(0.0379171,50)</title></rect><rect x="180" y="188.247" width="6" height="11.7526" stroke="black" stroke-width="1" fill="blue" opacity="1" tooltip="enable"><title>(0.0392246,57)</title></rect><rect x="186" y="191.546" width="6" height="8.45361" stroke="black" stroke-width="1" fill="blue" opacity="1" tooltip="enable"><title>(0.0405321,41)</title></rect><rect x="192" y="192.165" width="6" height="7.83505" stroke="black" stroke-width="1" fill="blue" opacity="1" tooltip="enable"><title>(0.0418396,38)</title></rect><rect x="198" y="194.845" width="6" height="5.15464" stroke="black" stroke-width="1" fill="blue" opacity="1" tooltip="enable"><title>(0.043147,25)</title></rect><rect x="204" y="192.784" width="6" height="7.21649" stroke="black" stroke-width="1" fill="blue" opacity="1" tooltip="enable"><title>(0.0444545,35)</title></rect><rect x="210" y="195.464" width="6" height="4.53608" stroke="black" stroke-width="1" fill="blue" opacity="1" tooltip="enable"><title>(0.045762,22)</title></rect><rect x="216" y="197.113" width="6" height="2.8866" stroke="black" stroke-width="1" fill="blue" opacity="1" tooltip="enable"><title>(0.0470695,14)</title></rect><rect x="222" y="196.701" width="6" height="3.29897" stroke="black" stroke-width="1" fill="blue" opacity="1" tooltip="enable"><title>(0.048377,16)</title></rect><rect x="228" y="195.876" width="6" height="4.12371" stroke="black" stroke-width="1" fill="blue" opacity="1" tooltip="enable"><title>(0.0496845,20)</title></rect><rect x="234" y="197.113" width="6" height="2.8866" stroke="black" stroke-width="1" fill="blue" opacity="1" tooltip="enable"><title>(0.050992,14)</title></rect><rect x="240" y="198.351" width="6" height="1.64948" stroke="black" stroke-width="1" fill="blue" opacity="1" tooltip="enable"><title>(0.0522994,8)</title></rect><rect x="246" y="197.113" width="6" height="2.8866" stroke="black" stroke-width="1" fill="blue" opacity="1" tooltip="enable"><title>(0.0536069,14)</title></rect><rect x="252" y="199.588" width="6" height="0.412371" stroke="black" stroke-width="1" fill="blue" opacity="1" tooltip="enable"><title>(0.0549144,2)</title></rect><rect x="258" y="198.351" width="6" height="1.64948" stroke="black" stroke-width="1" fill="blue" opacity="1" tooltip="enable"><title>(0.0562219,8)</title></rect><rect x="264" y="199.588" width="6" height="0.412371" stroke="black" stroke-width="1" fill="blue" opacity="1" tooltip="enable"><title>(0.0575294,2)</title></rect><rect x="270" y="199.175" width="6" height="0.824742" stroke="black" stroke-width="1" fill="blue" opacity="1" tooltip="enable"><title>(0.0588369,4)</title></rect><rect x="276" y="200" width="6" height="0" stroke="black" stroke-width="1" fill="blue" opacity="1" tooltip="enable"><title>(0.0601444,0)</title></rect><rect x="282" y="200" width="6" height="0" stroke="black" stroke-width="1" fill="blue" opacity="1" tooltip="enable"><title>(0.0614518,0)</title></rect><rect x="288" y="200" width="6" height="0" stroke="black" stroke-width="1" fill="blue" opacity="1" tooltip="enable"><title>(0.0627593,0)</title></rect><rect x="294" y="199.588" width="6" height="0.412371" stroke="black" stroke-width="1" fill="blue" opacity="1" tooltip="enable"><title>(0.0640668,2)</title></rect><rect x="300" y="200" width="6" height="0" stroke="black" stroke-width="1" fill="blue" opacity="1" tooltip="enable"><title>(0.0653743,0)</title></rect><rect x="306" y="200" width="6" height="0" stroke="black" stroke-width="1" fill="blue" opacity="1" tooltip="enable"><title>(0.0666818,0)</title></rect><rect x="312" y="200" width="6" height="0" stroke="black" stroke-width="1" fill="blue" opacity="1" tooltip="enable"><title>(0.0679893,0)</title></rect><rect x="318" y="200" width="6" height="0" stroke="black" stroke-width="1" fill="blue" opacity="1" tooltip="enable"><title>(0.0692968,0)</title></rect><rect x="324" y="200" width="6" height="0" stroke="black" stroke-width="1" fill="blue" opacity="1" tooltip="enable"><title>(0.0706042,0)</title></rect><rect x="330" y="200" width="6" height="0" stroke="black" stroke-width="1" fill="blue" opacity="1" tooltip="enable"><title>(0.0719117,0)</title></rect><rect x="336" y="200" width="6" height="0" stroke="black" stroke-width="1" fill="blue" opacity="1" tooltip="enable"><title>(0.0732192,0)</title></rect><rect x="342" y="200" width="6" height="0" stroke="black" stroke-width="1" fill="blue" opacity="1" tooltip="enable"><title>(0.0745267,0)</title></rect><rect x="348" y="200" width="6" height="0" stroke="black" stroke-width="1" fill="blue" opacity="1" tooltip="enable"><title>(0.0758342,0)</title></rect><rect x="354" y="200" width="6" height="0" stroke="black" stroke-width="1" fill="blue" opacity="1" tooltip="enable"><title>(0.0771417,0)</title></rect><rect x="360" y="200" width="6" height="0" stroke="black" stroke-width="1" fill="blue" opacity="1" tooltip="enable"><title>(0.0784492,0)</title></rect><rect x="366" y="200" width="6" height="0" stroke="black" stroke-width="1" fill="blue" opacity="1" tooltip="enable"><title>(0.0797566,0)</title></rect><rect x="372" y="200" width="6" height="0" stroke="black" stroke-width="1" fill="blue" opacity="1" tooltip="enable"><title>(0.0810641,0)</title></rect><rect x="378" y="200" width="6" height="0" stroke="black" stroke-width="1" fill="blue" opacity="1" tooltip="enable"><title>(0.0823716,0)</title></rect><rect x="384" y="200" width="6" height="0" stroke="black" stroke-width="1" fill="blue" opacity="1" tooltip="enable"><title>(0.0836791,0)</title></rect><rect x="390" y="200" width="6" height="0" stroke="black" stroke-width="1" fill="blue" opacity="1" tooltip="enable"><title>(0.0849866,0)</title></rect><rect x="396" y="200" width="6" height="0" stroke="black" stroke-width="1" fill="blue" opacity="1" tooltip="enable"><title>(0.0862941,0)</title></rect><rect x="402" y="200" width="6" height="0" stroke="black" stroke-width="1" fill="blue" opacity="1" tooltip="enable"><title>(0.0876016,0)</title></rect><rect x="408" y="200" width="6" height="0" stroke="black" stroke-width="1" fill="blue" opacity="1" tooltip="enable"><title>(0.0889091,0)</title></rect><rect x="414" y="199.588" width="6" height="0.412371" stroke="black" stroke-width="1" fill="blue" opacity="1" tooltip="enable"><title>(0.0902165,2)</title></rect><rect x="420" y="200" width="6" height="0" stroke="black" stroke-width="1" fill="blue" opacity="1" tooltip="enable"><title>(0.091524,0)</title></rect><rect x="426" y="200" width="6" height="0" stroke="black" stroke-width="1" fill="blue" opacity="1" tooltip="enable"><title>(0.0928315,0)</title></rect><rect x="432" y="200" width="6" height="0" stroke="black" stroke-width="1" fill="blue" opacity="1" tooltip="enable"><title>(0.094139,0)</title></rect><rect x="438" y="200" width="6" height="0" stroke="black" stroke-width="1" fill="blue" opacity="1" tooltip="enable"><title>(0.0954465,0)</title></rect><rect x="444" y="200" width="6" height="0" stroke="black" stroke-width="1" fill="blue" opacity="1" tooltip="enable"><title>(0.096754,0)</title></rect><rect x="450" y="200" width="6" height="0" stroke="black" stroke-width="1" fill="blue" opacity="1" tooltip="enable"><title>(0.0980614,0)</title></rect><rect x="456" y="200" width="6" height="0" stroke="black" stroke-width="1" fill="blue" opacity="1" tooltip="enable"><title>(0.0993689,0)</title></rect><rect x="462" y="200" width="6" height="0" stroke="black" stroke-width="1" fill="blue" opacity="1" tooltip="enable"><title>(0.100676,0)</title></rect><rect x="468" y="200" width="6" height="0" stroke="black" stroke-width="1" fill="blue" opacity="1" tooltip="enable"><title>(0.101984,0)</title></rect><rect x="474" y="200" width="6" height="0" stroke="black" stroke-width="1" fill="blue" opacity="1" tooltip="enable"><title>(0.103291,0)</title></rect><rect x="480" y="200" width="6" height="0" stroke="black" stroke-width="1" fill="blue" opacity="1" tooltip="enable"><title>(0.104599,0)</title></rect><rect x="486" y="200" width="6" height="0" stroke="black" stroke-width="1" fill="blue" opacity="1" tooltip="enable"><title>(0.105906,0)</title></rect><rect x="492" y="200" width="6" height="0" stroke="black" stroke-width="1" fill="blue" opacity="1" tooltip="enable"><title>(0.107214,0)</title></rect><rect x="498" y="200" width="6" height="0" stroke="black" stroke-width="1" fill="blue" opacity="1" tooltip="enable"><title>(0.108521,0)</title></rect><rect x="504" y="200" width="6" height="0" stroke="black" stroke-width="1" fill="blue" opacity="1" tooltip="enable"><title>(0.109829,0)</title></rect><rect x="510" y="199.588" width="6" height="0.412371" stroke="black" stroke-width="1" fill="blue" opacity="1" tooltip="enable"><title>(0.111136,2)</title></rect><rect x="516" y="200" width="6" height="0" stroke="black" stroke-width="1" fill="blue" opacity="1" tooltip="enable"><title>(0.112444,0)</title></rect><rect x="522" y="200" width="6" height="0" stroke="black" stroke-width="1" fill="blue" opacity="1" tooltip="enable"><title>(0.113751,0)</title></rect><rect x="528" y="200" width="6" height="0" stroke="black" stroke-width="1" fill="blue" opacity="1" tooltip="enable"><title>(0.115059,0)</title></rect><rect x="534" y="200" width="6" height="0" stroke="black" stroke-width="1" fill="blue" opacity="1" tooltip="enable"><title>(0.116366,0)</title></rect><rect x="540" y="199.588" width="6" height="0.412371" stroke="black" stroke-width="1" fill="blue" opacity="1" tooltip="enable"><title>(0.117674,2)</title></rect><rect x="546" y="200" width="6" height="0" stroke="black" stroke-width="1" fill="blue" opacity="1" tooltip="enable"><title>(0.118981,0)</title></rect><rect x="552" y="200" width="6" height="0" stroke="black" stroke-width="1" fill="blue" opacity="1" tooltip="enable"><title>(0.120289,0)</title></rect><rect x="558" y="200" width="6" height="0" stroke="black" stroke-width="1" fill="blue" opacity="1" tooltip="enable"><title>(0.121596,0)</title></rect><rect x="564" y="200" width="6" height="0" stroke="black" stroke-width="1" fill="blue" opacity="1" tooltip="enable"><title>(0.122904,0)</title></rect><rect x="570" y="200" width="6" height="0" stroke="black" stroke-width="1" fill="blue" opacity="1" tooltip="enable"><title>(0.124211,0)</title></rect><rect x="576" y="200" width="6" height="0" stroke="black" stroke-width="1" fill="blue" opacity="1" tooltip="enable"><title>(0.125519,0)</title></rect><rect x="582" y="200" width="6" height="0" stroke="black" stroke-width="1" fill="blue" opacity="1" tooltip="enable"><title>(0.126826,0)</title></rect><rect x="588" y="200" width="6" height="0" stroke="black" stroke-width="1" fill="blue" opacity="1" tooltip="enable"><title>(0.128134,0)</title></rect><rect x="594" y="199.794" width="6" height="0.206186" stroke="black" stroke-width="1" fill="blue" opacity="1" tooltip="enable"><title>(0.129441,1)</title></rect><text x="30" y="240" font-size="20" fill="black">0</text>
<text x="600" y="240" font-size="20" fill="black">0.130749</text>
<polyline points="0,220,600,220" stroke="black" stroke-width="1" fill="none" opacity="1"/>
<text x="720" y="20" font-size="20" fill="black">970</text>
<text x="720" y="200" font-size="20" fill="black">0</text>
<polyline points="660,0,660,200" stroke="black" stroke-width="1" fill="none" opacity="1"/>
</svg>