<?xml version="1.0" standalone="yes"?>
<!-- SVG graphic -->
<svg xmlns='http://www.w3.org/2000/svg' xmlns:xlink='http://www.w3.org/1999/xlink'
 version="1.1">
<rect x="0" y="0" width="6" height="200" stroke="black" stroke-width="1" fill="blue" opacity="1" tooltip="enable"><title>(0,1228)</title></rect><rect x="6" y="75.8958" width="6" height="124.104" stroke="black" stroke-width="1" fill="blue" opacity="1" tooltip="enable"><title>(0.00131147,762)</title></rect><rect x="12" y="116.124" width="6" height="83.8762" stroke="black" stroke-width="1" fill="blue" opacity="1" tooltip="enable"><title>(0.00262295,515)</title></rect><rect x="18" y="133.876" width="6" height="66.1238" stroke="black" stroke-width="1" fill="blue" opacity="1" tooltip="enable"><title>(0.00393442,406)</title></rect><rect x="24" y="142.182" width="6" height="57.8176" stroke="black" stroke-width="1" fill="blue" opacity="1" tooltip="enable"><title>(0.00524589,355)</title></rect><rect x="30" y="150.326" width="6" height="49.6743" stroke="black" stroke-width="1" fill="blue" opacity="1" tooltip="enable"><title>(0.00655737,305)</title></rect><rect x="36" y="152.28" width="6" height="47.7199" stroke="black" stroke-width="1" fill="blue" opacity="1" tooltip="enable"><title>(0.00786884,293)</title></rect><rect x="42" y="161.889" width="6" height="38.1107" stroke="black" stroke-width="1" fill="blue" opacity="1" tooltip="enable"><title>(0.00918031,234)</title></rect><rect x="48" y="166.612" width="6" height="33.3876" stroke="black" stroke-width="1" fill="blue" opacity="1" tooltip="enable"><title>(0.0104918,205)</title></rect><rect x="54" y="165.798" width="6" height="34.202" stroke="black" stroke-width="1" fill="blue" opacity="1" tooltip="enable"><title>(0.0118033,210)</title></rect><rect x="60" y="166.124" width="6" height="33.8762" stroke="black" stroke-width="1" fill="blue" opacity="1" tooltip="enable"><title>(0.0131147,208)</title></rect><rect x="66" y="171.336" width="6" height="28.6645" stroke="black" stroke-width="1" fill="blue" opacity="1" tooltip="enable"><title>(0.0144262,176)</title></rect><rect x="72" y="168.567" width="6" height="31.4332" stroke="black" stroke-width="1" fill="blue" opacity="1" tooltip="enable"><title>(0.0157377,193)</title></rect><rect x="78" y="168.404" width="6" height="31.5961" stroke="black" stroke-width="1" fill="blue" opacity="1" tooltip="enable"><title>(0.0170492,194)</title></rect><rect x="84" y="170.684" width="6" height="29.316" stroke="black" stroke-width="1" fill="blue" opacity="1" tooltip="enable"><title>(0.0183606,180)</title></rect><rect x="90" y="179.153" width="6" height="20.8469" stroke="black" stroke-width="1" fill="blue" opacity="1" tooltip="enable"><title>(0.0196721,128)</title></rect><rect x="96" y="178.664" width="6" height="21.3355" stroke="black" stroke-width="1" fill="blue" opacity="1" tooltip="enable"><title>(0.0209836,131)</title></rect><rect x="102" y="186.156" width="6" height="13.8436" stroke="black" stroke-width="1" fill="blue" opacity="1" tooltip="enable"><title>(0.022295,85)</title></rect><rect x="108" y="187.134" width="6" height="12.8664" stroke="black" stroke-width="1" fill="blue" opacity="1" tooltip="enable"><title>(0.0236065,79)</title></rect><rect x="114" y="184.039" width="6" height="15.9609" stroke="black" stroke-width="1" fill="blue" opacity="1" tooltip="enable"><title>(0.024918,98)</title></rect><rect x="120" y="190.065" width="6" height="9.93485" stroke="black" stroke-width="1" fill="blue" opacity="1" tooltip="enable"><title>(0.0262295,61)</title></rect><rect x="126" y="183.55" width="6" height="16.4495" stroke="black" stroke-width="1" fill="blue" opacity="1" tooltip="enable"><title>(0.0275409,101)</title></rect><rect x="132" y="181.107" width="6" height="18.8925" stroke="black" stroke-width="1" fill="blue" opacity="1" tooltip="enable"><title>(0.0288524,116)</title></rect><rect x="138" y="185.179" width="6" height="14.8208" stroke="black" stroke-width="1" fill="blue" opacity="1" tooltip="enable"><title>(0.0301639,91)</title></rect><rect x="144" y="184.528" width="6" height="15.4723" stroke="black" stroke-width="1" fill="blue" opacity="1" tooltip="enable"><title>(0.0314754,95)</title></rect><rect x="150" y="187.459" width="6" height="12.5407" stroke="black" stroke-width="1" fill="blue" opacity="1" tooltip="enable"><title>(0.0327868,77)</title></rect><rect x="156" y="189.739" width="6" height="10.2606" stroke="black" stroke-width="1" fill="blue" opacity="1" tooltip="enable"><title>(0.0340983,63)</title></rect><rect x="162" y="184.039" width="6" height="15.9609" stroke="black" stroke-width="1" fill="blue" opacity="1" tooltip="enable"><title>(0.0354098,98)</title></rect><rect x="168" y="186.971" width="6" height="13.0293" stroke="black" stroke-width="1" fill="blue" opacity="1" tooltip="enable"><title>(0.0367213,80)</title></rect><rect x="174" y="188.599" width="6" height="11.4007" stroke="black" stroke-width="1" fill="blue" opacity="1" tooltip="enable"><title>(0.0380327,70)</title></rect><rect x="180" y="189.414" width="6" height="10.5863" stroke="black" stroke-width="1" fill="blue" opacity="1" tooltip="enable"><title>(0.0393442,65)</title></rect><rect x="186" y="190.228" width="6" height="9.77199" stroke="black" stroke-width="1" fill="blue" opacity="1" tooltip="enable"><title>(0.0406557,60)</title></rect><rect x="192" y="190.717" width="6" height="9.28339" stroke="black" stroke-width="1" fill="blue" opacity="1" tooltip="enable"><title>(0.0419671,57)</title></rect><rect x="198" y="189.739" width="6" height="10.2606" stroke="black" stroke-width="1" fill="blue" opacity="1" tooltip="enable"><title>(0.0432786,63)</title></rect><rect x="204" y="190.065" width="6" height="9.93485" stroke="black" stroke-width="1" fill="blue" opacity="1" tooltip="enable"><title>(0.0445901,61)</title></rect><rect x="210" y="194.625" width="6" height="5.37459" stroke="black" stroke-width="1" fill="blue" opacity="1" tooltip="enable"><title>(0.0459016,33)</title></rect><rect x="216" y="193.974" width="6" height="6.02606" stroke="black" stroke-width="1" fill="blue" opacity="1" tooltip="enable"><title>(0.047213,37)</title></rect><rect x="222" y="193.322" width="6" height="6.67752" stroke="black" stroke-width="1" fill="blue" opacity="1" tooltip="enable"><title>(0.0485245,41)</title></rect><rect x="228" y="194.137" width="6" height="5.86319" stroke="black" stroke-width="1" fill="blue" opacity="1" tooltip="enable"><title>(0.049836,36)</title></rect><rect x="234" y="194.625" width="6" height="5.37459" stroke="black" stroke-width="1" fill="blue" opacity="1" tooltip="enable"><title>(0.0511475,33)</title></rect><rect x="240" y="195.765" width="6" height="4.23453" stroke="black" stroke-width="1" fill="blue" opacity="1" tooltip="enable"><title>(0.0524589,26)</title></rect><rect x="246" y="193.648" width="6" height="6.35179" stroke="black" stroke-width="1" fill="blue" opacity="1" tooltip="enable"><title>(0.0537704,39)</title></rect><rect x="252" y="194.788" width="6" height="5.21173" stroke="black" stroke-width="1" fill="blue" opacity="1" tooltip="enable"><title>(0.0550819,32)</title></rect><rect x="258" y="193.648" width="6" height="6.35179" stroke="black" stroke-width="1" fill="blue" opacity="1" tooltip="enable"><title>(0.0563934,39)</title></rect><rect x="264" y="196.091" width="6" height="3.90879" stroke="black" stroke-width="1" fill="blue" opacity="1" tooltip="enable"><title>(0.0577048,24)</title></rect><rect x="270" y="195.114" width="6" height="4.88599" stroke="black" stroke-width="1" fill="blue" opacity="1" tooltip="enable"><title>(0.0590163,30)</title></rect><rect x="276" y="192.345" width="6" height="7.65472" stroke="black" stroke-width="1" fill="blue" opacity="1" tooltip="enable"><title>(0.0603278,47)</title></rect><rect x="282" y="192.834" width="6" height="7.16612" stroke="black" stroke-width="1" fill="blue" opacity="1" tooltip="enable"><title>(0.0616392,44)</title></rect><rect x="288" y="195.603" width="6" height="4.39739" stroke="black" stroke-width="1" fill="blue" opacity="1" tooltip="enable"><title>(0.0629507,27)</title></rect><rect x="294" y="194.951" width="6" height="5.04886" stroke="black" stroke-width="1" fill="blue" opacity="1" tooltip="enable"><title>(0.0642622,31)</title></rect><rect x="300" y="196.254" width="6" height="3.74593" stroke="black" stroke-width="1" fill="blue" opacity="1" tooltip="enable"><title>(0.0655737,23)</title></rect><rect x="306" y="196.743" width="6" height="3.25733" stroke="black" stroke-width="1" fill="blue" opacity="1" tooltip="enable"><title>(0.0668851,20)</title></rect><rect x="312" y="198.046" width="6" height="1.9544" stroke="black" stroke-width="1" fill="blue" opacity="1" tooltip="enable"><title>(0.0681966,12)</title></rect><rect x="318" y="197.394" width="6" height="2.60586" stroke="black" stroke-width="1" fill="blue" opacity="1" tooltip="enable"><title>(0.0695081,16)</title></rect><rect x="324" y="197.394" width="6" height="2.60586" stroke="black" stroke-width="1" fill="blue" opacity="1" tooltip="enable"><title>(0.0708196,16)</title></rect><rect x="330" y="196.254" width="6" height="3.74593" stroke="black" stroke-width="1" fill="blue" opacity="1" tooltip="enable"><title>(0.072131,23)</title></rect><rect x="336" y="196.58" width="6" height="3.4202" stroke="black" stroke-width="1" fill="blue" opacity="1" tooltip="enable"><title>(0.0734425,21)</title></rect><rect x="342" y="197.394" width="6" height="2.60586" stroke="black" stroke-width="1" fill="blue" opacity="1" tooltip="enable"><title>(0.074754,16)</title></rect><rect x="348" y="196.58" width="6" height="3.4202" stroke="black" stroke-width="1" fill="blue" opacity="1" tooltip="enable"><title>(0.0760655,21)</title></rect><rect x="354" y="197.72" width="6" height="2.28013" stroke="black" stroke-width="1" fill="blue" opacity="1" tooltip="enable"><title>(0.0773769,14)</title></rect><rect x="360" y="198.208" width="6" height="1.79153" stroke="black" stroke-width="1" fill="blue" opacity="1" tooltip="enable"><title>(0.0786884,11)</title></rect><rect x="366" y="197.883" width="6" height="2.11726" stroke="black" stroke-width="1" fill="blue" opacity="1" tooltip="enable"><title>(0.0799999,13)</title></rect><rect x="372" y="195.928" width="6" height="4.07166" stroke="black" stroke-width="1" fill="blue" opacity="1" tooltip="enable"><title>(0.0813114,25)</title></rect><rect x="378" y="197.557" width="6" height="2.443" stroke="black" stroke-width="1" fill="blue" opacity="1" tooltip="enable"><title>(0.0826228,15)</title></rect><rect x="384" y="199.023" width="6" height="0.977199" stroke="black" stroke-width="1" fill="blue" opacity="1" tooltip="enable"><title>(0.0839343,6)</title></rect><rect x="390" y="199.511" width="6" height="0.488599" stroke="black" stroke-width="1" fill="blue" opacity="1" tooltip="enable"><title>(0.0852458,3)</title></rect><rect x="396" y="199.023" width="6" height="0.977199" stroke="black" stroke-width="1" fill="blue" opacity="1" tooltip="enable"><title>(0.0865572,6)</title></rect><rect x="402" y="199.186" width="6" height="0.814332" stroke="black" stroke-width="1" fill="blue" opacity="1" tooltip="enable"><title>(0.0878687,5)</title></rect><rect x="408" y="198.534" width="6" height="1.4658" stroke="black" stroke-width="1" fill="blue" opacity="1" tooltip="enable"><title>(0.0891802,9)</title></rect><rect x="414" y="199.511" width="6" height="0.488599" stroke="black" stroke-width="1" fill="blue" opacity="1" tooltip="enable"><title>(0.0904917,3)</title></rect><rect x="420" y="199.349" width="6" height="0.651466" stroke="black" stroke-width="1" fill="blue" opacity="1" tooltip="enable"><title>(0.0918031,4)</title></rect><rect x="426" y="200" width="6" height="0" stroke="black" stroke-width="1" fill="blue" opacity="1" tooltip="enable"><title>(0.0931146,0)</title></rect><rect x="432" y="199.511" width="6" height="0.488599" stroke="black" stroke-width="1" fill="blue" opacity="1" tooltip="enable"><title>(0.0944261,3)</title></rect><rect x="438" y="198.371" width="6" height="1.62866" stroke="black" stroke-width="1" fill="blue" opacity="1" tooltip="enable"><title>(0.0957376,10)</title></rect><rect x="444" y="199.674" width="6" height="0.325733" stroke="black" stroke-width="1" fill="blue" opacity="1" tooltip="enable"><title>(0.097049,2)</title></rect><rect x="450" y="199.511" width="6" height="0.488599" stroke="black" stroke-width="1" fill="blue" opacity="1" tooltip="enable"><title>(0.0983605,3)</title></rect><rect x="456" y="199.511" width="6" height="0.488599" stroke="black" stroke-width="1" fill="blue" opacity="1" tooltip="enable"><title>(0.099672,3)</title></rect><rect x="462" y="199.837" width="6" height="0.162866" stroke="black" stroke-width="1" fill="blue" opacity="1" tooltip="enable"><title>(0.100983,1)</title></rect><rect x="468" y="199.837" width="6" height="0.162866" stroke="black" stroke-width="1" fill="blue" opacity="1" tooltip="enable"><title>(0.102295,1)</title></rect><rect x="474" y="199.186" width="6" height="0.814332" stroke="black" stroke-width="1" fill="blue" opacity="1" tooltip="enable"><title>(0.103606,5)</title></rect><rect x="480" y="199.837" width="6" height="0.162866" stroke="black" stroke-width="1" fill="blue" opacity="1" tooltip="enable"><title>(0.104918,1)</title></rect><rect x="486" y="199.674" width="6" height="0.325733" stroke="black" stroke-width="1" fill="blue" opacity="1" tooltip="enable"><title>(0.106229,2)</title></rect><rect x="492" y="200" width="6" height="0" stroke="black" stroke-width="1" fill="blue" opacity="1" tooltip="enable"><title>(0.107541,0)</title></rect><rect x="498" y="200" width="6" height="0" stroke="black" stroke-width="1" fill="blue" opacity="1" tooltip="enable"><title>(0.108852,0)</title></rect><rect x="504" y="200" width="6" height="0" stroke="black" stroke-width="1" fill="blue" opacity="1" tooltip="enable"><title>(0.110164,0)</title></rect><rect x="510" y="199.023" width="6" height="0.977199" stroke="black" stroke-width="1" fill="blue" opacity="1" tooltip="enable"><title>(0.111475,6)</title></rect><rect x="516" y="199.023" width="6" height="0.977199" stroke="black" stroke-width="1" fill="blue" opacity="1" tooltip="enable"><title>(0.112787,6)</title></rect><rect x="522" y="199.837" width="6" height="0.162866" stroke="black" stroke-width="1" fill="blue" opacity="1" tooltip="enable"><title>(0.114098,1)</title></rect><rect x="528" y="200" width="6" height="0" stroke="black" stroke-width="1" fill="blue" opacity="1" tooltip="enable"><title>(0.11541,0)</title></rect><rect x="534" y="199.349" width="6" height="0.651466" stroke="black" stroke-width="1" fill="blue" opacity="1" tooltip="enable"><title>(0.116721,4)</title></rect><rect x="540" y="200" width="6" height="0" stroke="black" stroke-width="1" fill="blue" opacity="1" tooltip="enable"><title>(0.118033,0)</title></rect><rect x="546" y="199.674" width="6" height="0.325733" stroke="black" stroke-width="1" fill="blue" opacity="1" tooltip="enable"><title>(0.119344,2)</title></rect><rect x="552" y="199.674" width="6" height="0.325733" stroke="black" stroke-width="1" fill="blue" opacity="1" tooltip="enable"><title>(0.120656,2)</title></rect><rect x="558" y="200" width="6" height="0" stroke="black" stroke-width="1" fill="blue" opacity="1" tooltip="enable"><title>(0.121967,0)</title></rect><rect x="564" y="200" width="6" height="0" stroke="black" stroke-width="1" fill="blue" opacity="1" tooltip="enable"><title>(0.123278,0)</title></rect><rect x="570" y="200" width="6" height="0" stroke="black" stroke-width="1" fill="blue" opacity="1" tooltip="enable"><title>(0.12459,0)</title></rect><rect x="576" y="200" width="6" height="0" stroke="black" stroke-width="1" fill="blue" opacity="1" tooltip="enable"><title>(0.125901,0)</title></rect><rect x="582" y="200" width="6" height="0" stroke="black" stroke-width="1" fill="blue" opacity="1" tooltip="enable"><title>(0.127213,0)</title></rect><rect x="588" y="199.674" width="6" height="0.325733" stroke="black" stroke-width="1" fill="blue" opacity="1" tooltip="enable"><title>(0.128524,2)</title></rect><rect x="594" y="199.837" width="6" height="0.162866" stroke="black" stroke-width="1" fill="blue" opacity="1" tooltip="enable"><title>(0.129836,1)</title></rect><text x="30" y="240" font-size="20" fill="black">0</text>
<text x="600" y="240" font-size="20" fill="black">0.131147</text>
<polyline points="0,220,600,220" stroke="black" stroke-width="1" fill="none" opacity="1"/>
<text x="720" y="20" font-size="20" fill="black">1228</text>
<text x="720" y="200" font-size="20" fill="black">0</text>
<polyline points="660,0,660,200" stroke="black" stroke-width="1" fill="none" opacity="1"/>
</svg>