<?xml version="1.0" standalone="yes"?>
<!-- SVG graphic -->
<svg xmlns='http://www.w3.org/2000/svg' xmlns:xlink='http://www.w3.org/1999/xlink'
 version="1.1">
<rect x="0" y="35.245" width="6" height="164.755" stroke="black" stroke-width="1" fill="blue" opacity="1" tooltip="enable"><title>(0,790)</title></rect><rect x="6" y="7.50783" width="6" height="192.492" stroke="black" stroke-width="1" fill="blue" opacity="1" tooltip="enable"><title>(0.0012916,923)</title></rect><rect x="12" y="0" width="6" height="200" stroke="black" stroke-width="1" fill="blue" opacity="1" tooltip="enable"><title>(0.0025832,959)</title></rect><rect x="18" y="37.9562" width="6" height="162.044" stroke="black" stroke-width="1" fill="blue" opacity="1" tooltip="enable"><title>(0.0038748,777)</title></rect><rect x="24" y="79.4578" width="6" height="120.542" stroke="black" stroke-width="1" fill="blue" opacity="1" tooltip="enable"><title>(0.0051664,578)</title></rect><rect x="30" y="101.773" width="6" height="98.2273" stroke="black" stroke-width="1" fill="blue" opacity="1" tooltip="enable"><title>(0.006458,471)</title></rect><rect x="36" y="131.595" width="6" height="68.4046" stroke="black" stroke-width="1" fill="blue" opacity="1" tooltip="enable"><title>(0.0077496,328)</title></rect><rect x="42" y="144.526" width="6" height="55.4745" stroke="black" stroke-width="1" fill="blue" opacity="1" tooltip="enable"><title>(0.0090412,266)</title></rect><rect x="48" y="163.504" width="6" height="36.4963" stroke="black" stroke-width="1" fill="blue" opacity="1" tooltip="enable"><title>(0.0103328,175)</title></rect><rect x="54" y="163.712" width="6" height="36.2878" stroke="black" stroke-width="1" fill="blue" opacity="1" tooltip="enable"><title>(0.0116244,174)</title></rect><rect x="60" y="164.546" width="6" height="35.4536" stroke="black" stroke-width="1" fill="blue" opacity="1" tooltip="enable"><title>(0.012916,170)</title></rect><rect x="66" y="165.172" width="6" height="34.8279" stroke="black" stroke-width="1" fill="blue" opacity="1" tooltip="enable"><title>(0.0142076,167)</title></rect><rect x="72" y="164.964" width="6" height="35.0365" stroke="black" stroke-width="1" fill="blue" opacity="1" tooltip="enable"><title>(0.0154992,168)</title></rect><rect x="78" y="163.295" width="6" height="36.7049" stroke="black" stroke-width="1" fill="blue" opacity="1" tooltip="enable"><title>(0.0167908,176)</title></rect><rect x="84" y="171.637" width="6" height="28.3629" stroke="black" stroke-width="1" fill="blue" opacity="1" tooltip="enable"><title>(0.0180824,136)</title></rect><rect x="90" y="171.429" width="6" height="28.5714" stroke="black" stroke-width="1" fill="blue" opacity="1" tooltip="enable"><title>(0.019374,137)</title></rect><rect x="96" y="173.514" width="6" height="26.4859" stroke="black" stroke-width="1" fill="blue" opacity="1" tooltip="enable"><title>(0.0206656,127)</title></rect><rect x="102" y="174.557" width="6" height="25.4432" stroke="black" stroke-width="1" fill="blue" opacity="1" tooltip="enable"><title>(0.0219572,122)</title></rect><rect x="108" y="182.065" width="6" height="17.9353" stroke="black" stroke-width="1" fill="blue" opacity="1" tooltip="enable"><title>(0.0232488,86)</title></rect><rect x="114" y="176.225" width="6" height="23.7748" stroke="black" stroke-width="1" fill="blue" opacity="1" tooltip="enable"><title>(0.0245404,114)</title></rect><rect x="120" y="175.182" width="6" height="24.8175" stroke="black" stroke-width="1" fill="blue" opacity="1" tooltip="enable"><title>(0.025832,119)</title></rect><rect x="126" y="181.022" width="6" height="18.9781" stroke="black" stroke-width="1" fill="blue" opacity="1" tooltip="enable"><title>(0.0271236,91)</title></rect><rect x="132" y="179.562" width="6" height="20.438" stroke="black" stroke-width="1" fill="blue" opacity="1" tooltip="enable"><title>(0.0284152,98)</title></rect><rect x="138" y="180.188" width="6" height="19.8123" stroke="black" stroke-width="1" fill="blue" opacity="1" tooltip="enable"><title>(0.0297068,95)</title></rect><rect x="144" y="185.819" width="6" height="14.1814" stroke="black" stroke-width="1" fill="blue" opacity="1" tooltip="enable"><title>(0.0309984,68)</title></rect><rect x="150" y="180.605" width="6" height="19.3952" stroke="black" stroke-width="1" fill="blue" opacity="1" tooltip="enable"><title>(0.03229,93)</title></rect><rect x="156" y="188.321" width="6" height="11.6788" stroke="black" stroke-width="1" fill="blue" opacity="1" tooltip="enable"><title>(0.0335816,56)</title></rect><rect x="162" y="182.69" width="6" height="17.3097" stroke="black" stroke-width="1" fill="blue" opacity="1" tooltip="enable"><title>(0.0348732,83)</title></rect><rect x="168" y="187.278" width="6" height="12.7216" stroke="black" stroke-width="1" fill="blue" opacity="1" tooltip="enable"><title>(0.0361648,61)</title></rect><rect x="174" y="189.781" width="6" height="10.219" stroke="black" stroke-width="1" fill="blue" opacity="1" tooltip="enable"><title>(0.0374564,49)</title></rect><rect x="180" y="189.781" width="6" height="10.219" stroke="black" stroke-width="1" fill="blue" opacity="1" tooltip="enable"><title>(0.038748,49)</title></rect><rect x="186" y="188.53" width="6" height="11.4703" stroke="black" stroke-width="1" fill="blue" opacity="1" tooltip="enable"><title>(0.0400396,55)</title></rect><rect x="192" y="191.032" width="6" height="8.96767" stroke="black" stroke-width="1" fill="blue" opacity="1" tooltip="enable"><title>(0.0413312,43)</title></rect><rect x="198" y="196.663" width="6" height="3.33681" stroke="black" stroke-width="1" fill="blue" opacity="1" tooltip="enable"><title>(0.0426228,16)</title></rect><rect x="204" y="190.824" width="6" height="9.17623" stroke="black" stroke-width="1" fill="blue" opacity="1" tooltip="enable"><title>(0.0439144,44)</title></rect><rect x="210" y="196.246" width="6" height="3.75391" stroke="black" stroke-width="1" fill="blue" opacity="1" tooltip="enable"><title>(0.045206,18)</title></rect><rect x="216" y="196.246" width="6" height="3.75391" stroke="black" stroke-width="1" fill="blue" opacity="1" tooltip="enable"><title>(0.0464976,18)</title></rect><rect x="222" y="196.663" width="6" height="3.33681" stroke="black" stroke-width="1" fill="blue" opacity="1" tooltip="enable"><title>(0.0477892,16)</title></rect><rect x="228" y="196.246" width="6" height="3.75391" stroke="black" stroke-width="1" fill="blue" opacity="1" tooltip="enable"><title>(0.0490808,18)</title></rect><rect x="234" y="197.08" width="6" height="2.91971" stroke="black" stroke-width="1" fill="blue" opacity="1" tooltip="enable"><title>(0.0503724,14)</title></rect><rect x="240" y="197.914" width="6" height="2.08551" stroke="black" stroke-width="1" fill="blue" opacity="1" tooltip="enable"><title>(0.051664,10)</title></rect><rect x="246" y="198.332" width="6" height="1.6684" stroke="black" stroke-width="1" fill="blue" opacity="1" tooltip="enable"><title>(0.0529556,8)</title></rect><rect x="252" y="197.914" width="6" height="2.08551" stroke="black" stroke-width="1" fill="blue" opacity="1" tooltip="enable"><title>(0.0542472,10)</title></rect><rect x="258" y="198.332" width="6" height="1.6684" stroke="black" stroke-width="1" fill="blue" opacity="1" tooltip="enable"><title>(0.0555388,8)</title></rect><rect x="264" y="199.583" width="6" height="0.417101" stroke="black" stroke-width="1" fill="blue" opacity="1" tooltip="enable"><title>(0.0568304,2)</title></rect><rect x="270" y="199.166" width="6" height="0.834202" stroke="black" stroke-width="1" fill="blue" opacity="1" tooltip="enable"><title>(0.058122,4)</title></rect><rect x="276" y="200" width="6" height="0" stroke="black" stroke-width="1" fill="blue" opacity="1" tooltip="enable"><title>(0.0594136,0)</title></rect><rect x="282" y="200" width="6" height="0" stroke="black" stroke-width="1" fill="blue" opacity="1" tooltip="enable"><title>(0.0607052,0)</title></rect><rect x="288" y="200" width="6" height="0" stroke="black" stroke-width="1" fill="blue" opacity="1" tooltip="enable"><title>(0.0619968,0)</title></rect><rect x="294" y="199.583" width="6" height="0.417101" stroke="black" stroke-width="1" fill="blue" opacity="1" tooltip="enable"><title>(0.0632884,2)</title></rect><rect x="300" y="200" width="6" height="0" stroke="black" stroke-width="1" fill="blue" opacity="1" tooltip="enable"><title>(0.06458,0)</title></rect><rect x="306" y="200" width="6" height="0" stroke="black" stroke-width="1" fill="blue" opacity="1" tooltip="enable"><title>(0.0658716,0)</title></rect><rect x="312" y="200" width="6" height="0" stroke="black" stroke-width="1" fill="blue" opacity="1" tooltip="enable"><title>(0.0671632,0)</title></rect><rect x="318" y="200" width="6" height="0" stroke="black" stroke-width="1" fill="blue" opacity="1" tooltip="enable"><title>(0.0684548,0)</title></rect><rect x="324" y="200" width="6" height="0" stroke="black" stroke-width="1" fill="blue" opacity="1" tooltip="enable"><title>(0.0697464,0)</title></rect><rect x="330" y="200" width="6" height="0" stroke="black" stroke-width="1" fill="blue" opacity="1" tooltip="enable"><title>(0.071038,0)</title></rect><rect x="336" y="200" width="6" height="0" stroke="black" stroke-width="1" fill="blue" opacity="1" tooltip="enable"><title>(0.0723296,0)</title></rect><rect x="342" y="200" width="6" height="0" stroke="black" stroke-width="1" fill="blue" opacity="1" tooltip="enable"><title>(0.0736212,0)</title></rect><rect x="348" y="200" width="6" height="0" stroke="black" stroke-width="1" fill="blue" opacity="1" tooltip="enable"><title>(0.0749128,0)</title></rect><rect x="354" y="200" width="6" height="0" stroke="black" stroke-width="1" fill="blue" opacity="1" tooltip="enable"><title>(0.0762044,0)</title></rect><rect x="360" y="200" width="6" height="0" stroke="black" stroke-width="1" fill="blue" opacity="1" tooltip="enable"><title>(0.077496,0)</title></rect><rect x="366" y="200" width="6" height="0" stroke="black" stroke-width="1" fill="blue" opacity="1" tooltip="enable"><title>(0.0787876,0)</title></rect><rect x="372" y="200" width="6" height="0" stroke="black" stroke-width="1" fill="blue" opacity="1" tooltip="enable"><title>(0.0800792,0)</title></rect><rect x="378" y="200" width="6" height="0" stroke="black" stroke-width="1" fill="blue" opacity="1" tooltip="enable"><title>(0.0813708,0)</title></rect><rect x="384" y="200" width="6" height="0" stroke="black" stroke-width="1" fill="blue" opacity="1" tooltip="enable"><title>(0.0826624,0)</title></rect><rect x="390" y="200" width="6" height="0" stroke="black" stroke-width="1" fill="blue" opacity="1" tooltip="enable"><title>(0.083954,0)</title></rect><rect x="396" y="200" width="6" height="0" stroke="black" stroke-width="1" fill="blue" opacity="1" tooltip="enable"><title>(0.0852456,0)</title></rect><rect x="402" y="200" width="6" height="0" stroke="black" stroke-width="1" fill="blue" opacity="1" tooltip="enable"><title>(0.0865372,0)</title></rect><rect x="408" y="200" width="6" height="0" stroke="black" stroke-width="1" fill="blue" opacity="1" tooltip="enable"><title>(0.0878288,0)</title></rect><rect x="414" y="199.583" width="6" height="0.417101" stroke="black" stroke-width="1" fill="blue" opacity="1" tooltip="enable"><title>(0.0891204,2)</title></rect><rect x="420" y="200" width="6" height="0" stroke="black" stroke-width="1" fill="blue" opacity="1" tooltip="enable"><title>(0.090412,0)</title></rect><rect x="426" y="200" width="6" height="0" stroke="black" stroke-width="1" fill="blue" opacity="1" tooltip="enable"><title>(0.0917036,0)</title></rect><rect x="432" y="200" width="6" height="0" stroke="black" stroke-width="1" fill="blue" opacity="1" tooltip="enable"><title>(0.0929952,0)</title></rect><rect x="438" y="200" width="6" height="0" stroke="black" stroke-width="1" fill="blue" opacity="1" tooltip="enable"><title>(0.0942868,0)</title></rect><rect x="444" y="200" width="6" height="0" stroke="black" stroke-width="1" fill="blue" opacity="1" tooltip="enable"><title>(0.0955784,0)</title></rect><rect x="450" y="200" width="6" height="0" stroke="black" stroke-width="1" fill="blue" opacity="1" tooltip="enable"><title>(0.09687,0)</title></rect><rect x="456" y="200" width="6" height="0" stroke="black" stroke-width="1" fill="blue" opacity="1" tooltip="enable"><title>(0.0981616,0)</title></rect><rect x="462" y="200" width="6" height="0" stroke="black" stroke-width="1" fill="blue" opacity="1" tooltip="enable"><title>(0.0994532,0)</title></rect><rect x="468" y="200" width="6" height="0" stroke="black" stroke-width="1" fill="blue" opacity="1" tooltip="enable"><title>(0.100745,0)</title></rect><rect x="474" y="200" width="6" height="0" stroke="black" stroke-width="1" fill="blue" opacity="1" tooltip="enable"><title>(0.102036,0)</title></rect><rect x="480" y="200" width="6" height="0" stroke="black" stroke-width="1" fill="blue" opacity="1" tooltip="enable"><title>(0.103328,0)</title></rect><rect x="486" y="200" width="6" height="0" stroke="black" stroke-width="1" fill="blue" opacity="1" tooltip="enable"><title>(0.10462,0)</title></rect><rect x="492" y="200" width="6" height="0" stroke="black" stroke-width="1" fill="blue" opacity="1" tooltip="enable"><title>(0.105911,0)</title></rect><rect x="498" y="200" width="6" height="0" stroke="black" stroke-width="1" fill="blue" opacity="1" tooltip="enable"><title>(0.107203,0)</title></rect><rect x="504" y="200" width="6" height="0" stroke="black" stroke-width="1" fill="blue" opacity="1" tooltip="enable"><title>(0.108494,0)</title></rect><rect x="510" y="199.583" width="6" height="0.417101" stroke="black" stroke-width="1" fill="blue" opacity="1" tooltip="enable"><title>(0.109786,2)</title></rect><rect x="516" y="200" width="6" height="0" stroke="black" stroke-width="1" fill="blue" opacity="1" tooltip="enable"><title>(0.111078,0)</title></rect><rect x="522" y="200" width="6" height="0" stroke="black" stroke-width="1" fill="blue" opacity="1" tooltip="enable"><title>(0.112369,0)</title></rect><rect x="528" y="200" width="6" height="0" stroke="black" stroke-width="1" fill="blue" opacity="1" tooltip="enable"><title>(0.113661,0)</title></rect><rect x="534" y="200" width="6" height="0" stroke="black" stroke-width="1" fill="blue" opacity="1" tooltip="enable"><title>(0.114952,0)</title></rect><rect x="540" y="199.583" width="6" height="0.417101" stroke="black" stroke-width="1" fill="blue" opacity="1" tooltip="enable"><title>(0.116244,2)</title></rect><rect x="546" y="200" width="6" height="0" stroke="black" stroke-width="1" fill="blue" opacity="1" tooltip="enable"><title>(0.117536,0)</title></rect><rect x="552" y="200" width="6" height="0" stroke="black" stroke-width="1" fill="blue" opacity="1" tooltip="enable"><title>(0.118827,0)</title></rect><rect x="558" y="200" width="6" height="0" stroke="black" stroke-width="1" fill="blue" opacity="1" tooltip="enable"><title>(0.120119,0)</title></rect><rect x="564" y="200" width="6" height="0" stroke="black" stroke-width="1" fill="blue" opacity="1" tooltip="enable"><title>(0.12141,0)</title></rect><rect x="570" y="200" width="6" height="0" stroke="black" stroke-width="1" fill="blue" opacity="1" tooltip="enable"><title>(0.122702,0)</title></rect><rect x="576" y="200" width="6" height="0" stroke="black" stroke-width="1" fill="blue" opacity="1" tooltip="enable"><title>(0.123994,0)</title></rect><rect x="582" y="200" width="6" height="0" stroke="black" stroke-width="1" fill="blue" opacity="1" tooltip="enable"><title>(0.125285,0)</title></rect><rect x="588" y="200" width="6" height="0" stroke="black" stroke-width="1" fill="blue" opacity="1" tooltip="enable"><title>(0.126577,0)</title></rect><rect x="594" y="199.791" width="6" height="0.208551" stroke="black" stroke-width="1" fill="blue" opacity="1" tooltip="enable"><title>(0.127868,1)</title></rect><text x="30" y="240" font-size="20" fill="black">0</text>
<text x="600" y="240" font-size="20" fill="black">0.12916</text>
<polyline points="0,220,600,220" stroke="black" stroke-width="1" fill="none" opacity="1"/>
<text x="720" y="20" font-size="20" fill="black">959</text>
<text x="720" y="200" font-size="20" fill="black">0</text>
<polyline points="660,0,660,200" stroke="black" stroke-width="1" fill="none" opacity="1"/>
</svg>