<?xml version="1.0" standalone="yes"?>
<!-- SVG graphic -->
<svg xmlns='http://www.w3.org/2000/svg' xmlns:xlink='http://www.w3.org/1999/xlink'
 version="1.1">
<rect x="0" y="0" width="6" height="200" stroke="black" stroke-width="1" fill="blue" opacity="1" tooltip="enable"><title>(0,1762)</title></rect><rect x="6" y="20.5448" width="6" height="179.455" stroke="black" stroke-width="1" fill="blue" opacity="1" tooltip="enable"><title>(0.00134216,1581)</title></rect><rect x="12" y="97.7299" width="6" height="102.27" stroke="black" stroke-width="1" fill="blue" opacity="1" tooltip="enable"><title>(0.00268432,901)</title></rect><rect x="18" y="165.607" width="6" height="34.3927" stroke="black" stroke-width="1" fill="blue" opacity="1" tooltip="enable"><title>(0.00402648,303)</title></rect><rect x="24" y="183.995" width="6" height="16.0045" stroke="black" stroke-width="1" fill="blue" opacity="1" tooltip="enable"><title>(0.00536864,141)</title></rect><rect x="30" y="185.925" width="6" height="14.0749" stroke="black" stroke-width="1" fill="blue" opacity="1" tooltip="enable"><title>(0.0067108,124)</title></rect><rect x="36" y="183.428" width="6" height="16.5721" stroke="black" stroke-width="1" fill="blue" opacity="1" tooltip="enable"><title>(0.00805296,146)</title></rect><rect x="42" y="180.931" width="6" height="19.0692" stroke="black" stroke-width="1" fill="blue" opacity="1" tooltip="enable"><title>(0.00939512,168)</title></rect><rect x="48" y="183.428" width="6" height="16.5721" stroke="black" stroke-width="1" fill="blue" opacity="1" tooltip="enable"><title>(0.0107373,146)</title></rect><rect x="54" y="185.017" width="6" height="14.983" stroke="black" stroke-width="1" fill="blue" opacity="1" tooltip="enable"><title>(0.0120794,132)</title></rect><rect x="60" y="182.633" width="6" height="17.3666" stroke="black" stroke-width="1" fill="blue" opacity="1" tooltip="enable"><title>(0.0134216,153)</title></rect><rect x="66" y="184.563" width="6" height="15.437" stroke="black" stroke-width="1" fill="blue" opacity="1" tooltip="enable"><title>(0.0147638,136)</title></rect><rect x="72" y="185.131" width="6" height="14.8695" stroke="black" stroke-width="1" fill="blue" opacity="1" tooltip="enable"><title>(0.0161059,131)</title></rect><rect x="78" y="185.244" width="6" height="14.756" stroke="black" stroke-width="1" fill="blue" opacity="1" tooltip="enable"><title>(0.0174481,130)</title></rect><rect x="84" y="187.287" width="6" height="12.7128" stroke="black" stroke-width="1" fill="blue" opacity="1" tooltip="enable"><title>(0.0187902,112)</title></rect><rect x="90" y="185.131" width="6" height="14.8695" stroke="black" stroke-width="1" fill="blue" opacity="1" tooltip="enable"><title>(0.0201324,131)</title></rect><rect x="96" y="183.995" width="6" height="16.0045" stroke="black" stroke-width="1" fill="blue" opacity="1" tooltip="enable"><title>(0.0214746,141)</title></rect><rect x="102" y="183.428" width="6" height="16.5721" stroke="black" stroke-width="1" fill="blue" opacity="1" tooltip="enable"><title>(0.0228167,146)</title></rect><rect x="108" y="183.655" width="6" height="16.3451" stroke="black" stroke-width="1" fill="blue" opacity="1" tooltip="enable"><title>(0.0241589,144)</title></rect><rect x="114" y="186.379" width="6" height="13.6209" stroke="black" stroke-width="1" fill="blue" opacity="1" tooltip="enable"><title>(0.025501,120)</title></rect><rect x="120" y="186.833" width="6" height="13.1669" stroke="black" stroke-width="1" fill="blue" opacity="1" tooltip="enable"><title>(0.0268432,116)</title></rect><rect x="126" y="187.741" width="6" height="12.2588" stroke="black" stroke-width="1" fill="blue" opacity="1" tooltip="enable"><title>(0.0281853,108)</title></rect><rect x="132" y="187.287" width="6" height="12.7128" stroke="black" stroke-width="1" fill="blue" opacity="1" tooltip="enable"><title>(0.0295275,112)</title></rect><rect x="138" y="189.784" width="6" height="10.2157" stroke="black" stroke-width="1" fill="blue" opacity="1" tooltip="enable"><title>(0.0308697,90)</title></rect><rect x="144" y="187.514" width="6" height="12.4858" stroke="black" stroke-width="1" fill="blue" opacity="1" tooltip="enable"><title>(0.0322118,110)</title></rect><rect x="150" y="190.806" width="6" height="9.1941" stroke="black" stroke-width="1" fill="blue" opacity="1" tooltip="enable"><title>(0.033554,81)</title></rect><rect x="156" y="189.217" width="6" height="10.7832" stroke="black" stroke-width="1" fill="blue" opacity="1" tooltip="enable"><title>(0.0348961,95)</title></rect><rect x="162" y="191.26" width="6" height="8.74007" stroke="black" stroke-width="1" fill="blue" opacity="1" tooltip="enable"><title>(0.0362383,77)</title></rect><rect x="168" y="193.53" width="6" height="6.46992" stroke="black" stroke-width="1" fill="blue" opacity="1" tooltip="enable"><title>(0.0375805,57)</title></rect><rect x="174" y="193.871" width="6" height="6.1294" stroke="black" stroke-width="1" fill="blue" opacity="1" tooltip="enable"><title>(0.0389226,54)</title></rect><rect x="180" y="193.871" width="6" height="6.1294" stroke="black" stroke-width="1" fill="blue" opacity="1" tooltip="enable"><title>(0.0402648,54)</title></rect><rect x="186" y="196.822" width="6" height="3.17821" stroke="black" stroke-width="1" fill="blue" opacity="1" tooltip="enable"><title>(0.0416069,28)</title></rect><rect x="192" y="194.892" width="6" height="5.10783" stroke="black" stroke-width="1" fill="blue" opacity="1" tooltip="enable"><title>(0.0429491,45)</title></rect><rect x="198" y="195.687" width="6" height="4.31328" stroke="black" stroke-width="1" fill="blue" opacity="1" tooltip="enable"><title>(0.0442913,38)</title></rect><rect x="204" y="196.708" width="6" height="3.29171" stroke="black" stroke-width="1" fill="blue" opacity="1" tooltip="enable"><title>(0.0456334,29)</title></rect><rect x="210" y="197.957" width="6" height="2.04313" stroke="black" stroke-width="1" fill="blue" opacity="1" tooltip="enable"><title>(0.0469756,18)</title></rect><rect x="216" y="197.957" width="6" height="2.04313" stroke="black" stroke-width="1" fill="blue" opacity="1" tooltip="enable"><title>(0.0483177,18)</title></rect><rect x="222" y="196.822" width="6" height="3.17821" stroke="black" stroke-width="1" fill="blue" opacity="1" tooltip="enable"><title>(0.0496599,28)</title></rect><rect x="228" y="196.822" width="6" height="3.17821" stroke="black" stroke-width="1" fill="blue" opacity="1" tooltip="enable"><title>(0.0510021,28)</title></rect><rect x="234" y="198.638" width="6" height="1.36209" stroke="black" stroke-width="1" fill="blue" opacity="1" tooltip="enable"><title>(0.0523442,12)</title></rect><rect x="240" y="199.319" width="6" height="0.681044" stroke="black" stroke-width="1" fill="blue" opacity="1" tooltip="enable"><title>(0.0536864,6)</title></rect><rect x="246" y="198.865" width="6" height="1.13507" stroke="black" stroke-width="1" fill="blue" opacity="1" tooltip="enable"><title>(0.0550285,10)</title></rect><rect x="252" y="199.546" width="6" height="0.45403" stroke="black" stroke-width="1" fill="blue" opacity="1" tooltip="enable"><title>(0.0563707,4)</title></rect><rect x="258" y="199.092" width="6" height="0.908059" stroke="black" stroke-width="1" fill="blue" opacity="1" tooltip="enable"><title>(0.0577129,8)</title></rect><rect x="264" y="199.432" width="6" height="0.567537" stroke="black" stroke-width="1" fill="blue" opacity="1" tooltip="enable"><title>(0.059055,5)</title></rect><rect x="270" y="199.205" width="6" height="0.794552" stroke="black" stroke-width="1" fill="blue" opacity="1" tooltip="enable"><title>(0.0603972,7)</title></rect><rect x="276" y="199.773" width="6" height="0.227015" stroke="black" stroke-width="1" fill="blue" opacity="1" tooltip="enable"><title>(0.0617393,2)</title></rect><rect x="282" y="200" width="6" height="0" stroke="black" stroke-width="1" fill="blue" opacity="1" tooltip="enable"><title>(0.0630815,0)</title></rect><rect x="288" y="199.773" width="6" height="0.227015" stroke="black" stroke-width="1" fill="blue" opacity="1" tooltip="enable"><title>(0.0644237,2)</title></rect><rect x="294" y="200" width="6" height="0" stroke="black" stroke-width="1" fill="blue" opacity="1" tooltip="enable"><title>(0.0657658,0)</title></rect><rect x="300" y="200" width="6" height="0" stroke="black" stroke-width="1" fill="blue" opacity="1" tooltip="enable"><title>(0.067108,0)</title></rect><rect x="306" y="200" width="6" height="0" stroke="black" stroke-width="1" fill="blue" opacity="1" tooltip="enable"><title>(0.0684501,0)</title></rect><rect x="312" y="200" width="6" height="0" stroke="black" stroke-width="1" fill="blue" opacity="1" tooltip="enable"><title>(0.0697923,0)</title></rect><rect x="318" y="200" width="6" height="0" stroke="black" stroke-width="1" fill="blue" opacity="1" tooltip="enable"><title>(0.0711344,0)</title></rect><rect x="324" y="200" width="6" height="0" stroke="black" stroke-width="1" fill="blue" opacity="1" tooltip="enable"><title>(0.0724766,0)</title></rect><rect x="330" y="200" width="6" height="0" stroke="black" stroke-width="1" fill="blue" opacity="1" tooltip="enable"><title>(0.0738188,0)</title></rect><rect x="336" y="200" width="6" height="0" stroke="black" stroke-width="1" fill="blue" opacity="1" tooltip="enable"><title>(0.0751609,0)</title></rect><rect x="342" y="200" width="6" height="0" stroke="black" stroke-width="1" fill="blue" opacity="1" tooltip="enable"><title>(0.0765031,0)</title></rect><rect x="348" y="200" width="6" height="0" stroke="black" stroke-width="1" fill="blue" opacity="1" tooltip="enable"><title>(0.0778452,0)</title></rect><rect x="354" y="200" width="6" height="0" stroke="black" stroke-width="1" fill="blue" opacity="1" tooltip="enable"><title>(0.0791874,0)</title></rect><rect x="360" y="200" width="6" height="0" stroke="black" stroke-width="1" fill="blue" opacity="1" tooltip="enable"><title>(0.0805296,0)</title></rect><rect x="366" y="200" width="6" height="0" stroke="black" stroke-width="1" fill="blue" opacity="1" tooltip="enable"><title>(0.0818717,0)</title></rect><rect x="372" y="200" width="6" height="0" stroke="black" stroke-width="1" fill="blue" opacity="1" tooltip="enable"><title>(0.0832139,0)</title></rect><rect x="378" y="200" width="6" height="0" stroke="black" stroke-width="1" fill="blue" opacity="1" tooltip="enable"><title>(0.0845561,0)</title></rect><rect x="384" y="200" width="6" height="0" stroke="black" stroke-width="1" fill="blue" opacity="1" tooltip="enable"><title>(0.0858982,0)</title></rect><rect x="390" y="200" width="6" height="0" stroke="black" stroke-width="1" fill="blue" opacity="1" tooltip="enable"><title>(0.0872404,0)</title></rect><rect x="396" y="200" width="6" height="0" stroke="black" stroke-width="1" fill="blue" opacity="1" tooltip="enable"><title>(0.0885825,0)</title></rect><rect x="402" y="200" width="6" height="0" stroke="black" stroke-width="1" fill="blue" opacity="1" tooltip="enable"><title>(0.0899247,0)</title></rect><rect x="408" y="200" width="6" height="0" stroke="black" stroke-width="1" fill="blue" opacity="1" tooltip="enable"><title>(0.0912668,0)</title></rect><rect x="414" y="200" width="6" height="0" stroke="black" stroke-width="1" fill="blue" opacity="1" tooltip="enable"><title>(0.092609,0)</title></rect><rect x="420" y="200" width="6" height="0" stroke="black" stroke-width="1" fill="blue" opacity="1" tooltip="enable"><title>(0.0939512,0)</title></rect><rect x="426" y="200" width="6" height="0" stroke="black" stroke-width="1" fill="blue" opacity="1" tooltip="enable"><title>(0.0952933,0)</title></rect><rect x="432" y="200" width="6" height="0" stroke="black" stroke-width="1" fill="blue" opacity="1" tooltip="enable"><title>(0.0966355,0)</title></rect><rect x="438" y="200" width="6" height="0" stroke="black" stroke-width="1" fill="blue" opacity="1" tooltip="enable"><title>(0.0979776,0)</title></rect><rect x="444" y="200" width="6" height="0" stroke="black" stroke-width="1" fill="blue" opacity="1" tooltip="enable"><title>(0.0993198,0)</title></rect><rect x="450" y="200" width="6" height="0" stroke="black" stroke-width="1" fill="blue" opacity="1" tooltip="enable"><title>(0.100662,0)</title></rect><rect x="456" y="200" width="6" height="0" stroke="black" stroke-width="1" fill="blue" opacity="1" tooltip="enable"><title>(0.102004,0)</title></rect><rect x="462" y="200" width="6" height="0" stroke="black" stroke-width="1" fill="blue" opacity="1" tooltip="enable"><title>(0.103346,0)</title></rect><rect x="468" y="200" width="6" height="0" stroke="black" stroke-width="1" fill="blue" opacity="1" tooltip="enable"><title>(0.104688,0)</title></rect><rect x="474" y="200" width="6" height="0" stroke="black" stroke-width="1" fill="blue" opacity="1" tooltip="enable"><title>(0.106031,0)</title></rect><rect x="480" y="200" width="6" height="0" stroke="black" stroke-width="1" fill="blue" opacity="1" tooltip="enable"><title>(0.107373,0)</title></rect><rect x="486" y="199.773" width="6" height="0.227015" stroke="black" stroke-width="1" fill="blue" opacity="1" tooltip="enable"><title>(0.108715,2)</title></rect><rect x="492" y="200" width="6" height="0" stroke="black" stroke-width="1" fill="blue" opacity="1" tooltip="enable"><title>(0.110057,0)</title></rect><rect x="498" y="200" width="6" height="0" stroke="black" stroke-width="1" fill="blue" opacity="1" tooltip="enable"><title>(0.111399,0)</title></rect><rect x="504" y="200" width="6" height="0" stroke="black" stroke-width="1" fill="blue" opacity="1" tooltip="enable"><title>(0.112741,0)</title></rect><rect x="510" y="200" width="6" height="0" stroke="black" stroke-width="1" fill="blue" opacity="1" tooltip="enable"><title>(0.114084,0)</title></rect><rect x="516" y="200" width="6" height="0" stroke="black" stroke-width="1" fill="blue" opacity="1" tooltip="enable"><title>(0.115426,0)</title></rect><rect x="522" y="200" width="6" height="0" stroke="black" stroke-width="1" fill="blue" opacity="1" tooltip="enable"><title>(0.116768,0)</title></rect><rect x="528" y="200" width="6" height="0" stroke="black" stroke-width="1" fill="blue" opacity="1" tooltip="enable"><title>(0.11811,0)</title></rect><rect x="534" y="200" width="6" height="0" stroke="black" stroke-width="1" fill="blue" opacity="1" tooltip="enable"><title>(0.119452,0)</title></rect><rect x="540" y="200" width="6" height="0" stroke="black" stroke-width="1" fill="blue" opacity="1" tooltip="enable"><title>(0.120794,0)</title></rect><rect x="546" y="199.773" width="6" height="0.227015" stroke="black" stroke-width="1" fill="blue" opacity="1" tooltip="enable"><title>(0.122137,2)</title></rect><rect x="552" y="200" width="6" height="0" stroke="black" stroke-width="1" fill="blue" opacity="1" tooltip="enable"><title>(0.123479,0)</title></rect><rect x="558" y="199.773" width="6" height="0.227015" stroke="black" stroke-width="1" fill="blue" opacity="1" tooltip="enable"><title>(0.124821,2)</title></rect><rect x="564" y="200" width="6" height="0" stroke="black" stroke-width="1" fill="blue" opacity="1" tooltip="enable"><title>(0.126163,0)</title></rect><rect x="570" y="200" width="6" height="0" stroke="black" stroke-width="1" fill="blue" opacity="1" tooltip="enable"><title>(0.127505,0)</title></rect><rect x="576" y="199.886" width="6" height="0.113507" stroke="black" stroke-width="1" fill="blue" opacity="1" tooltip="enable"><title>(0.128847,1)</title></rect><rect x="582" y="199.886" width="6" height="0.113507" stroke="black" stroke-width="1" fill="blue" opacity="1" tooltip="enable"><title>(0.130189,1)</title></rect><rect x="588" y="200" width="6" height="0" stroke="black" stroke-width="1" fill="blue" opacity="1" tooltip="enable"><title>(0.131532,0)</title></rect><rect x="594" y="199.886" width="6" height="0.113507" stroke="black" stroke-width="1" fill="blue" opacity="1" tooltip="enable"><title>(0.132874,1)</title></rect><text x="30" y="240" font-size="20" fill="black">0</text>
<text x="600" y="240" font-size="20" fill="black">0.134216</text>
<polyline points="0,220,600,220" stroke="black" stroke-width="1" fill="none" opacity="1"/>
<text x="720" y="20" font-size="20" fill="black">1762</text>
<text x="720" y="200" font-size="20" fill="black">0</text>
<polyline points="660,0,660,200" stroke="black" stroke-width="1" fill="none" opacity="1"/>
</svg>