<?xml version="1.0" standalone="yes"?>
<!-- SVG graphic -->
<svg xmlns='http://www.w3.org/2000/svg' xmlns:xlink='http://www.w3.org/1999/xlink'
 version="1.1">
<rect x="0" y="0" width="6" height="200" stroke="black" stroke-width="1" fill="blue" opacity="1" tooltip="enable"><title>(0,3276)</title></rect><rect x="6" y="146.581" width="6" height="53.4188" stroke="black" stroke-width="1" fill="blue" opacity="1" tooltip="enable"><title>(0.0007282,875)</title></rect><rect x="12" y="189.316" width="6" height="10.6838" stroke="black" stroke-width="1" fill="blue" opacity="1" tooltip="enable"><title>(0.0014564,175)</title></rect><rect x="18" y="194.505" width="6" height="5.49451" stroke="black" stroke-width="1" fill="blue" opacity="1" tooltip="enable"><title>(0.0021846,90)</title></rect><rect x="24" y="194.139" width="6" height="5.86081" stroke="black" stroke-width="1" fill="blue" opacity="1" tooltip="enable"><title>(0.0029128,96)</title></rect><rect x="30" y="193.773" width="6" height="6.22711" stroke="black" stroke-width="1" fill="blue" opacity="1" tooltip="enable"><title>(0.003641,102)</title></rect><rect x="36" y="193.895" width="6" height="6.10501" stroke="black" stroke-width="1" fill="blue" opacity="1" tooltip="enable"><title>(0.0043692,100)</title></rect><rect x="42" y="194.261" width="6" height="5.73871" stroke="black" stroke-width="1" fill="blue" opacity="1" tooltip="enable"><title>(0.0050974,94)</title></rect><rect x="48" y="192.674" width="6" height="7.32601" stroke="black" stroke-width="1" fill="blue" opacity="1" tooltip="enable"><title>(0.0058256,120)</title></rect><rect x="54" y="193.712" width="6" height="6.28816" stroke="black" stroke-width="1" fill="blue" opacity="1" tooltip="enable"><title>(0.0065538,103)</title></rect><rect x="60" y="194.078" width="6" height="5.92186" stroke="black" stroke-width="1" fill="blue" opacity="1" tooltip="enable"><title>(0.007282,97)</title></rect><rect x="66" y="193.529" width="6" height="6.47131" stroke="black" stroke-width="1" fill="blue" opacity="1" tooltip="enable"><title>(0.0080102,106)</title></rect><rect x="72" y="194.383" width="6" height="5.61661" stroke="black" stroke-width="1" fill="blue" opacity="1" tooltip="enable"><title>(0.0087384,92)</title></rect><rect x="78" y="193.956" width="6" height="6.04396" stroke="black" stroke-width="1" fill="blue" opacity="1" tooltip="enable"><title>(0.0094666,99)</title></rect><rect x="84" y="194.933" width="6" height="5.06715" stroke="black" stroke-width="1" fill="blue" opacity="1" tooltip="enable"><title>(0.0101948,83)</title></rect><rect x="90" y="193.712" width="6" height="6.28816" stroke="black" stroke-width="1" fill="blue" opacity="1" tooltip="enable"><title>(0.010923,103)</title></rect><rect x="96" y="194.567" width="6" height="5.43346" stroke="black" stroke-width="1" fill="blue" opacity="1" tooltip="enable"><title>(0.0116512,89)</title></rect><rect x="102" y="194.322" width="6" height="5.67766" stroke="black" stroke-width="1" fill="blue" opacity="1" tooltip="enable"><title>(0.0123794,93)</title></rect><rect x="108" y="193.895" width="6" height="6.10501" stroke="black" stroke-width="1" fill="blue" opacity="1" tooltip="enable"><title>(0.0131076,100)</title></rect><rect x="114" y="194.322" width="6" height="5.67766" stroke="black" stroke-width="1" fill="blue" opacity="1" tooltip="enable"><title>(0.0138358,93)</title></rect><rect x="120" y="193.773" width="6" height="6.22711" stroke="black" stroke-width="1" fill="blue" opacity="1" tooltip="enable"><title>(0.014564,102)</title></rect><rect x="126" y="195.177" width="6" height="4.82295" stroke="black" stroke-width="1" fill="blue" opacity="1" tooltip="enable"><title>(0.0152922,79)</title></rect><rect x="132" y="196.764" width="6" height="3.23565" stroke="black" stroke-width="1" fill="blue" opacity="1" tooltip="enable"><title>(0.0160204,53)</title></rect><rect x="138" y="196.337" width="6" height="3.663" stroke="black" stroke-width="1" fill="blue" opacity="1" tooltip="enable"><title>(0.0167486,60)</title></rect><rect x="144" y="195.421" width="6" height="4.57875" stroke="black" stroke-width="1" fill="blue" opacity="1" tooltip="enable"><title>(0.0174768,75)</title></rect><rect x="150" y="194.75" width="6" height="5.25031" stroke="black" stroke-width="1" fill="blue" opacity="1" tooltip="enable"><title>(0.018205,86)</title></rect><rect x="156" y="195.91" width="6" height="4.09035" stroke="black" stroke-width="1" fill="blue" opacity="1" tooltip="enable"><title>(0.0189332,67)</title></rect><rect x="162" y="196.764" width="6" height="3.23565" stroke="black" stroke-width="1" fill="blue" opacity="1" tooltip="enable"><title>(0.0196614,53)</title></rect><rect x="168" y="195.238" width="6" height="4.7619" stroke="black" stroke-width="1" fill="blue" opacity="1" tooltip="enable"><title>(0.0203896,78)</title></rect><rect x="174" y="194.994" width="6" height="5.0061" stroke="black" stroke-width="1" fill="blue" opacity="1" tooltip="enable"><title>(0.0211178,82)</title></rect><rect x="180" y="195.421" width="6" height="4.57875" stroke="black" stroke-width="1" fill="blue" opacity="1" tooltip="enable"><title>(0.021846,75)</title></rect><rect x="186" y="196.154" width="6" height="3.84615" stroke="black" stroke-width="1" fill="blue" opacity="1" tooltip="enable"><title>(0.0225742,63)</title></rect><rect x="192" y="195.177" width="6" height="4.82295" stroke="black" stroke-width="1" fill="blue" opacity="1" tooltip="enable"><title>(0.0233024,79)</title></rect><rect x="198" y="196.825" width="6" height="3.1746" stroke="black" stroke-width="1" fill="blue" opacity="1" tooltip="enable"><title>(0.0240306,52)</title></rect><rect x="204" y="197.436" width="6" height="2.5641" stroke="black" stroke-width="1" fill="blue" opacity="1" tooltip="enable"><title>(0.0247588,42)</title></rect><rect x="210" y="195.116" width="6" height="4.88401" stroke="black" stroke-width="1" fill="blue" opacity="1" tooltip="enable"><title>(0.025487,80)</title></rect><rect x="216" y="195.177" width="6" height="4.82295" stroke="black" stroke-width="1" fill="blue" opacity="1" tooltip="enable"><title>(0.0262152,79)</title></rect><rect x="222" y="195.543" width="6" height="4.45665" stroke="black" stroke-width="1" fill="blue" opacity="1" tooltip="enable"><title>(0.0269434,73)</title></rect><rect x="228" y="196.825" width="6" height="3.1746" stroke="black" stroke-width="1" fill="blue" opacity="1" tooltip="enable"><title>(0.0276716,52)</title></rect><rect x="234" y="196.581" width="6" height="3.4188" stroke="black" stroke-width="1" fill="blue" opacity="1" tooltip="enable"><title>(0.0283998,56)</title></rect><rect x="240" y="197.497" width="6" height="2.50305" stroke="black" stroke-width="1" fill="blue" opacity="1" tooltip="enable"><title>(0.029128,41)</title></rect><rect x="246" y="196.154" width="6" height="3.84615" stroke="black" stroke-width="1" fill="blue" opacity="1" tooltip="enable"><title>(0.0298562,63)</title></rect><rect x="252" y="198.352" width="6" height="1.64835" stroke="black" stroke-width="1" fill="blue" opacity="1" tooltip="enable"><title>(0.0305844,27)</title></rect><rect x="258" y="198.169" width="6" height="1.8315" stroke="black" stroke-width="1" fill="blue" opacity="1" tooltip="enable"><title>(0.0313126,30)</title></rect><rect x="264" y="197.741" width="6" height="2.25885" stroke="black" stroke-width="1" fill="blue" opacity="1" tooltip="enable"><title>(0.0320408,37)</title></rect><rect x="270" y="197.802" width="6" height="2.1978" stroke="black" stroke-width="1" fill="blue" opacity="1" tooltip="enable"><title>(0.032769,36)</title></rect><rect x="276" y="198.596" width="6" height="1.40415" stroke="black" stroke-width="1" fill="blue" opacity="1" tooltip="enable"><title>(0.0334972,23)</title></rect><rect x="282" y="197.497" width="6" height="2.50305" stroke="black" stroke-width="1" fill="blue" opacity="1" tooltip="enable"><title>(0.0342254,41)</title></rect><rect x="288" y="198.779" width="6" height="1.221" stroke="black" stroke-width="1" fill="blue" opacity="1" tooltip="enable"><title>(0.0349536,20)</title></rect><rect x="294" y="198.474" width="6" height="1.52625" stroke="black" stroke-width="1" fill="blue" opacity="1" tooltip="enable"><title>(0.0356818,25)</title></rect><rect x="300" y="198.107" width="6" height="1.89255" stroke="black" stroke-width="1" fill="blue" opacity="1" tooltip="enable"><title>(0.03641,31)</title></rect><rect x="306" y="198.657" width="6" height="1.3431" stroke="black" stroke-width="1" fill="blue" opacity="1" tooltip="enable"><title>(0.0371382,22)</title></rect><rect x="312" y="198.718" width="6" height="1.28205" stroke="black" stroke-width="1" fill="blue" opacity="1" tooltip="enable"><title>(0.0378664,21)</title></rect><rect x="318" y="199.084" width="6" height="0.915751" stroke="black" stroke-width="1" fill="blue" opacity="1" tooltip="enable"><title>(0.0385946,15)</title></rect><rect x="324" y="198.352" width="6" height="1.64835" stroke="black" stroke-width="1" fill="blue" opacity="1" tooltip="enable"><title>(0.0393228,27)</title></rect><rect x="330" y="198.474" width="6" height="1.52625" stroke="black" stroke-width="1" fill="blue" opacity="1" tooltip="enable"><title>(0.040051,25)</title></rect><rect x="336" y="199.267" width="6" height="0.732601" stroke="black" stroke-width="1" fill="blue" opacity="1" tooltip="enable"><title>(0.0407792,12)</title></rect><rect x="342" y="199.328" width="6" height="0.671551" stroke="black" stroke-width="1" fill="blue" opacity="1" tooltip="enable"><title>(0.0415074,11)</title></rect><rect x="348" y="199.451" width="6" height="0.549451" stroke="black" stroke-width="1" fill="blue" opacity="1" tooltip="enable"><title>(0.0422356,9)</title></rect><rect x="354" y="199.389" width="6" height="0.610501" stroke="black" stroke-width="1" fill="blue" opacity="1" tooltip="enable"><title>(0.0429638,10)</title></rect><rect x="360" y="199.634" width="6" height="0.3663" stroke="black" stroke-width="1" fill="blue" opacity="1" tooltip="enable"><title>(0.043692,6)</title></rect><rect x="366" y="199.573" width="6" height="0.42735" stroke="black" stroke-width="1" fill="blue" opacity="1" tooltip="enable"><title>(0.0444202,7)</title></rect><rect x="372" y="199.573" width="6" height="0.42735" stroke="black" stroke-width="1" fill="blue" opacity="1" tooltip="enable"><title>(0.0451484,7)</title></rect><rect x="378" y="199.512" width="6" height="0.4884" stroke="black" stroke-width="1" fill="blue" opacity="1" tooltip="enable"><title>(0.0458766,8)</title></rect><rect x="384" y="199.878" width="6" height="0.1221" stroke="black" stroke-width="1" fill="blue" opacity="1" tooltip="enable"><title>(0.0466048,2)</title></rect><rect x="390" y="199.756" width="6" height="0.2442" stroke="black" stroke-width="1" fill="blue" opacity="1" tooltip="enable"><title>(0.047333,4)</title></rect><rect x="396" y="199.573" width="6" height="0.42735" stroke="black" stroke-width="1" fill="blue" opacity="1" tooltip="enable"><title>(0.0480612,7)</title></rect><rect x="402" y="199.328" width="6" height="0.671551" stroke="black" stroke-width="1" fill="blue" opacity="1" tooltip="enable"><title>(0.0487894,11)</title></rect><rect x="408" y="199.512" width="6" height="0.4884" stroke="black" stroke-width="1" fill="blue" opacity="1" tooltip="enable"><title>(0.0495176,8)</title></rect><rect x="414" y="199.512" width="6" height="0.4884" stroke="black" stroke-width="1" fill="blue" opacity="1" tooltip="enable"><title>(0.0502458,8)</title></rect><rect x="420" y="199.634" width="6" height="0.3663" stroke="black" stroke-width="1" fill="blue" opacity="1" tooltip="enable"><title>(0.050974,6)</title></rect><rect x="426" y="199.634" width="6" height="0.3663" stroke="black" stroke-width="1" fill="blue" opacity="1" tooltip="enable"><title>(0.0517022,6)</title></rect><rect x="432" y="200" width="6" height="0" stroke="black" stroke-width="1" fill="blue" opacity="1" tooltip="enable"><title>(0.0524304,0)</title></rect><rect x="438" y="199.756" width="6" height="0.2442" stroke="black" stroke-width="1" fill="blue" opacity="1" tooltip="enable"><title>(0.0531586,4)</title></rect><rect x="444" y="199.634" width="6" height="0.3663" stroke="black" stroke-width="1" fill="blue" opacity="1" tooltip="enable"><title>(0.0538868,6)</title></rect><rect x="450" y="199.878" width="6" height="0.1221" stroke="black" stroke-width="1" fill="blue" opacity="1" tooltip="enable"><title>(0.054615,2)</title></rect><rect x="456" y="199.878" width="6" height="0.1221" stroke="black" stroke-width="1" fill="blue" opacity="1" tooltip="enable"><title>(0.0553432,2)</title></rect><rect x="462" y="200" width="6" height="0" stroke="black" stroke-width="1" fill="blue" opacity="1" tooltip="enable"><title>(0.0560714,0)</title></rect><rect x="468" y="200" width="6" height="0" stroke="black" stroke-width="1" fill="blue" opacity="1" tooltip="enable"><title>(0.0567996,0)</title></rect><rect x="474" y="200" width="6" height="0" stroke="black" stroke-width="1" fill="blue" opacity="1" tooltip="enable"><title>(0.0575278,0)</title></rect><rect x="480" y="200" width="6" height="0" stroke="black" stroke-width="1" fill="blue" opacity="1" tooltip="enable"><title>(0.058256,0)</title></rect><rect x="486" y="200" width="6" height="0" stroke="black" stroke-width="1" fill="blue" opacity="1" tooltip="enable"><title>(0.0589842,0)</title></rect><rect x="492" y="200" width="6" height="0" stroke="black" stroke-width="1" fill="blue" opacity="1" tooltip="enable"><title>(0.0597124,0)</title></rect><rect x="498" y="200" width="6" height="0" stroke="black" stroke-width="1" fill="blue" opacity="1" tooltip="enable"><title>(0.0604406,0)</title></rect><rect x="504" y="200" width="6" height="0" stroke="black" stroke-width="1" fill="blue" opacity="1" tooltip="enable"><title>(0.0611688,0)</title></rect><rect x="510" y="200" width="6" height="0" stroke="black" stroke-width="1" fill="blue" opacity="1" tooltip="enable"><title>(0.061897,0)</title></rect><rect x="516" y="199.878" width="6" height="0.1221" stroke="black" stroke-width="1" fill="blue" opacity="1" tooltip="enable"><title>(0.0626252,2)</title></rect><rect x="522" y="200" width="6" height="0" stroke="black" stroke-width="1" fill="blue" opacity="1" tooltip="enable"><title>(0.0633534,0)</title></rect><rect x="528" y="200" width="6" height="0" stroke="black" stroke-width="1" fill="blue" opacity="1" tooltip="enable"><title>(0.0640816,0)</title></rect><rect x="534" y="199.878" width="6" height="0.1221" stroke="black" stroke-width="1" fill="blue" opacity="1" tooltip="enable"><title>(0.0648098,2)</title></rect><rect x="540" y="199.878" width="6" height="0.1221" stroke="black" stroke-width="1" fill="blue" opacity="1" tooltip="enable"><title>(0.065538,2)</title></rect><rect x="546" y="200" width="6" height="0" stroke="black" stroke-width="1" fill="blue" opacity="1" tooltip="enable"><title>(0.0662662,0)</title></rect><rect x="552" y="200" width="6" height="0" stroke="black" stroke-width="1" fill="blue" opacity="1" tooltip="enable"><title>(0.0669944,0)</title></rect><rect x="558" y="200" width="6" height="0" stroke="black" stroke-width="1" fill="blue" opacity="1" tooltip="enable"><title>(0.0677226,0)</title></rect><rect x="564" y="200" width="6" height="0" stroke="black" stroke-width="1" fill="blue" opacity="1" tooltip="enable"><title>(0.0684508,0)</title></rect><rect x="570" y="200" width="6" height="0" stroke="black" stroke-width="1" fill="blue" opacity="1" tooltip="enable"><title>(0.069179,0)</title></rect><rect x="576" y="200" width="6" height="0" stroke="black" stroke-width="1" fill="blue" opacity="1" tooltip="enable"><title>(0.0699072,0)</title></rect><rect x="582" y="200" width="6" height="0" stroke="black" stroke-width="1" fill="blue" opacity="1" tooltip="enable"><title>(0.0706354,0)</title></rect><rect x="588" y="200" width="6" height="0" stroke="black" stroke-width="1" fill="blue" opacity="1" tooltip="enable"><title>(0.0713636,0)</title></rect><rect x="594" y="199.939" width="6" height="0.0610501" stroke="black" stroke-width="1" fill="blue" opacity="1" tooltip="enable"><title>(0.0720918,1)</title></rect><text x="30" y="240" font-size="20" fill="black">0</text>
<text x="600" y="240" font-size="20" fill="black">0.07282</text>
<polyline points="0,220,600,220" stroke="black" stroke-width="1" fill="none" opacity="1"/>
<text x="720" y="20" font-size="20" fill="black">3276</text>
<text x="720" y="200" font-size="20" fill="black">0</text>
<polyline points="660,0,660,200" stroke="black" stroke-width="1" fill="none" opacity="1"/>
</svg>