<?xml version="1.0" standalone="yes"?>
<!-- SVG graphic -->
<svg xmlns='http://www.w3.org/2000/svg' xmlns:xlink='http://www.w3.org/1999/xlink'
 version="1.1">
<rect x="0" y="7.6443" width="6" height="192.356" stroke="black" stroke-width="1" fill="blue" opacity="1" tooltip="enable"><title>(0,1233)</title></rect><rect x="6" y="18.8768" width="6" height="181.123" stroke="black" stroke-width="1" fill="blue" opacity="1" tooltip="enable"><title>(0.00126888,1161)</title></rect><rect x="12" y="-1.52588e-05" width="6" height="200" stroke="black" stroke-width="1" fill="blue" opacity="1" tooltip="enable"><title>(0.00253775,1282)</title></rect><rect x="18" y="123.713" width="6" height="76.2871" stroke="black" stroke-width="1" fill="blue" opacity="1" tooltip="enable"><title>(0.00380663,489)</title></rect><rect x="24" y="170.047" width="6" height="29.9532" stroke="black" stroke-width="1" fill="blue" opacity="1" tooltip="enable"><title>(0.00507551,192)</title></rect><rect x="30" y="169.111" width="6" height="30.8892" stroke="black" stroke-width="1" fill="blue" opacity="1" tooltip="enable"><title>(0.00634439,198)</title></rect><rect x="36" y="179.875" width="6" height="20.1248" stroke="black" stroke-width="1" fill="blue" opacity="1" tooltip="enable"><title>(0.00761326,129)</title></rect><rect x="42" y="184.243" width="6" height="15.7566" stroke="black" stroke-width="1" fill="blue" opacity="1" tooltip="enable"><title>(0.00888214,101)</title></rect><rect x="48" y="185.179" width="6" height="14.8206" stroke="black" stroke-width="1" fill="blue" opacity="1" tooltip="enable"><title>(0.010151,95)</title></rect><rect x="54" y="185.179" width="6" height="14.8206" stroke="black" stroke-width="1" fill="blue" opacity="1" tooltip="enable"><title>(0.0114199,95)</title></rect><rect x="60" y="179.719" width="6" height="20.2808" stroke="black" stroke-width="1" fill="blue" opacity="1" tooltip="enable"><title>(0.0126888,130)</title></rect><rect x="66" y="182.059" width="6" height="17.9407" stroke="black" stroke-width="1" fill="blue" opacity="1" tooltip="enable"><title>(0.0139576,115)</title></rect><rect x="72" y="185.803" width="6" height="14.1966" stroke="black" stroke-width="1" fill="blue" opacity="1" tooltip="enable"><title>(0.0152265,91)</title></rect><rect x="78" y="185.179" width="6" height="14.8206" stroke="black" stroke-width="1" fill="blue" opacity="1" tooltip="enable"><title>(0.0164954,95)</title></rect><rect x="84" y="187.207" width="6" height="12.7925" stroke="black" stroke-width="1" fill="blue" opacity="1" tooltip="enable"><title>(0.0177643,82)</title></rect><rect x="90" y="187.051" width="6" height="12.9485" stroke="black" stroke-width="1" fill="blue" opacity="1" tooltip="enable"><title>(0.0190332,83)</title></rect><rect x="96" y="184.087" width="6" height="15.9126" stroke="black" stroke-width="1" fill="blue" opacity="1" tooltip="enable"><title>(0.020302,102)</title></rect><rect x="102" y="186.739" width="6" height="13.2605" stroke="black" stroke-width="1" fill="blue" opacity="1" tooltip="enable"><title>(0.0215709,85)</title></rect><rect x="108" y="185.335" width="6" height="14.6646" stroke="black" stroke-width="1" fill="blue" opacity="1" tooltip="enable"><title>(0.0228398,94)</title></rect><rect x="114" y="186.271" width="6" height="13.7285" stroke="black" stroke-width="1" fill="blue" opacity="1" tooltip="enable"><title>(0.0241087,88)</title></rect><rect x="120" y="179.407" width="6" height="20.5928" stroke="black" stroke-width="1" fill="blue" opacity="1" tooltip="enable"><title>(0.0253775,132)</title></rect><rect x="126" y="181.123" width="6" height="18.8768" stroke="black" stroke-width="1" fill="blue" opacity="1" tooltip="enable"><title>(0.0266464,121)</title></rect><rect x="132" y="179.719" width="6" height="20.2808" stroke="black" stroke-width="1" fill="blue" opacity="1" tooltip="enable"><title>(0.0279153,130)</title></rect><rect x="138" y="180.187" width="6" height="19.8128" stroke="black" stroke-width="1" fill="blue" opacity="1" tooltip="enable"><title>(0.0291842,127)</title></rect><rect x="144" y="183.931" width="6" height="16.0686" stroke="black" stroke-width="1" fill="blue" opacity="1" tooltip="enable"><title>(0.030453,103)</title></rect><rect x="150" y="184.087" width="6" height="15.9126" stroke="black" stroke-width="1" fill="blue" opacity="1" tooltip="enable"><title>(0.0317219,102)</title></rect><rect x="156" y="187.363" width="6" height="12.6365" stroke="black" stroke-width="1" fill="blue" opacity="1" tooltip="enable"><title>(0.0329908,81)</title></rect><rect x="162" y="180.811" width="6" height="19.1888" stroke="black" stroke-width="1" fill="blue" opacity="1" tooltip="enable"><title>(0.0342597,123)</title></rect><rect x="168" y="188.924" width="6" height="11.0764" stroke="black" stroke-width="1" fill="blue" opacity="1" tooltip="enable"><title>(0.0355286,71)</title></rect><rect x="174" y="183.619" width="6" height="16.3807" stroke="black" stroke-width="1" fill="blue" opacity="1" tooltip="enable"><title>(0.0367974,105)</title></rect><rect x="180" y="187.363" width="6" height="12.6365" stroke="black" stroke-width="1" fill="blue" opacity="1" tooltip="enable"><title>(0.0380663,81)</title></rect><rect x="186" y="184.711" width="6" height="15.2886" stroke="black" stroke-width="1" fill="blue" opacity="1" tooltip="enable"><title>(0.0393352,98)</title></rect><rect x="192" y="191.576" width="6" height="8.42434" stroke="black" stroke-width="1" fill="blue" opacity="1" tooltip="enable"><title>(0.0406041,54)</title></rect><rect x="198" y="187.051" width="6" height="12.9485" stroke="black" stroke-width="1" fill="blue" opacity="1" tooltip="enable"><title>(0.0418729,83)</title></rect><rect x="204" y="190.172" width="6" height="9.82839" stroke="black" stroke-width="1" fill="blue" opacity="1" tooltip="enable"><title>(0.0431418,63)</title></rect><rect x="210" y="190.484" width="6" height="9.51638" stroke="black" stroke-width="1" fill="blue" opacity="1" tooltip="enable"><title>(0.0444107,61)</title></rect><rect x="216" y="191.732" width="6" height="8.26833" stroke="black" stroke-width="1" fill="blue" opacity="1" tooltip="enable"><title>(0.0456796,53)</title></rect><rect x="222" y="190.952" width="6" height="9.04836" stroke="black" stroke-width="1" fill="blue" opacity="1" tooltip="enable"><title>(0.0469485,58)</title></rect><rect x="228" y="191.732" width="6" height="8.26833" stroke="black" stroke-width="1" fill="blue" opacity="1" tooltip="enable"><title>(0.0482173,53)</title></rect><rect x="234" y="193.292" width="6" height="6.70827" stroke="black" stroke-width="1" fill="blue" opacity="1" tooltip="enable"><title>(0.0494862,43)</title></rect><rect x="240" y="196.568" width="6" height="3.43214" stroke="black" stroke-width="1" fill="blue" opacity="1" tooltip="enable"><title>(0.0507551,22)</title></rect><rect x="246" y="197.036" width="6" height="2.96412" stroke="black" stroke-width="1" fill="blue" opacity="1" tooltip="enable"><title>(0.052024,19)</title></rect><rect x="252" y="197.036" width="6" height="2.96412" stroke="black" stroke-width="1" fill="blue" opacity="1" tooltip="enable"><title>(0.0532928,19)</title></rect><rect x="258" y="195.632" width="6" height="4.36818" stroke="black" stroke-width="1" fill="blue" opacity="1" tooltip="enable"><title>(0.0545617,28)</title></rect><rect x="264" y="197.504" width="6" height="2.4961" stroke="black" stroke-width="1" fill="blue" opacity="1" tooltip="enable"><title>(0.0558306,16)</title></rect><rect x="270" y="198.44" width="6" height="1.56006" stroke="black" stroke-width="1" fill="blue" opacity="1" tooltip="enable"><title>(0.0570995,10)</title></rect><rect x="276" y="198.752" width="6" height="1.24805" stroke="black" stroke-width="1" fill="blue" opacity="1" tooltip="enable"><title>(0.0583683,8)</title></rect><rect x="282" y="198.44" width="6" height="1.56006" stroke="black" stroke-width="1" fill="blue" opacity="1" tooltip="enable"><title>(0.0596372,10)</title></rect><rect x="288" y="200" width="6" height="0" stroke="black" stroke-width="1" fill="blue" opacity="1" tooltip="enable"><title>(0.0609061,0)</title></rect><rect x="294" y="198.128" width="6" height="1.87207" stroke="black" stroke-width="1" fill="blue" opacity="1" tooltip="enable"><title>(0.062175,12)</title></rect><rect x="300" y="198.128" width="6" height="1.87207" stroke="black" stroke-width="1" fill="blue" opacity="1" tooltip="enable"><title>(0.0634439,12)</title></rect><rect x="306" y="198.752" width="6" height="1.24805" stroke="black" stroke-width="1" fill="blue" opacity="1" tooltip="enable"><title>(0.0647127,8)</title></rect><rect x="312" y="197.504" width="6" height="2.4961" stroke="black" stroke-width="1" fill="blue" opacity="1" tooltip="enable"><title>(0.0659816,16)</title></rect><rect x="318" y="198.596" width="6" height="1.40406" stroke="black" stroke-width="1" fill="blue" opacity="1" tooltip="enable"><title>(0.0672505,9)</title></rect><rect x="324" y="199.532" width="6" height="0.468019" stroke="black" stroke-width="1" fill="blue" opacity="1" tooltip="enable"><title>(0.0685194,3)</title></rect><rect x="330" y="199.064" width="6" height="0.936037" stroke="black" stroke-width="1" fill="blue" opacity="1" tooltip="enable"><title>(0.0697882,6)</title></rect><rect x="336" y="198.908" width="6" height="1.09204" stroke="black" stroke-width="1" fill="blue" opacity="1" tooltip="enable"><title>(0.0710571,7)</title></rect><rect x="342" y="198.908" width="6" height="1.09204" stroke="black" stroke-width="1" fill="blue" opacity="1" tooltip="enable"><title>(0.072326,7)</title></rect><rect x="348" y="199.688" width="6" height="0.312012" stroke="black" stroke-width="1" fill="blue" opacity="1" tooltip="enable"><title>(0.0735949,2)</title></rect><rect x="354" y="197.504" width="6" height="2.4961" stroke="black" stroke-width="1" fill="blue" opacity="1" tooltip="enable"><title>(0.0748637,16)</title></rect><rect x="360" y="199.064" width="6" height="0.936037" stroke="black" stroke-width="1" fill="blue" opacity="1" tooltip="enable"><title>(0.0761326,6)</title></rect><rect x="366" y="199.376" width="6" height="0.624025" stroke="black" stroke-width="1" fill="blue" opacity="1" tooltip="enable"><title>(0.0774015,4)</title></rect><rect x="372" y="199.688" width="6" height="0.312012" stroke="black" stroke-width="1" fill="blue" opacity="1" tooltip="enable"><title>(0.0786704,2)</title></rect><rect x="378" y="199.688" width="6" height="0.312012" stroke="black" stroke-width="1" fill="blue" opacity="1" tooltip="enable"><title>(0.0799393,2)</title></rect><rect x="384" y="199.376" width="6" height="0.624025" stroke="black" stroke-width="1" fill="blue" opacity="1" tooltip="enable"><title>(0.0812081,4)</title></rect><rect x="390" y="200" width="6" height="0" stroke="black" stroke-width="1" fill="blue" opacity="1" tooltip="enable"><title>(0.082477,0)</title></rect><rect x="396" y="199.688" width="6" height="0.312012" stroke="black" stroke-width="1" fill="blue" opacity="1" tooltip="enable"><title>(0.0837459,2)</title></rect><rect x="402" y="198.752" width="6" height="1.24805" stroke="black" stroke-width="1" fill="blue" opacity="1" tooltip="enable"><title>(0.0850148,8)</title></rect><rect x="408" y="198.44" width="6" height="1.56006" stroke="black" stroke-width="1" fill="blue" opacity="1" tooltip="enable"><title>(0.0862836,10)</title></rect><rect x="414" y="199.376" width="6" height="0.624025" stroke="black" stroke-width="1" fill="blue" opacity="1" tooltip="enable"><title>(0.0875525,4)</title></rect><rect x="420" y="199.688" width="6" height="0.312012" stroke="black" stroke-width="1" fill="blue" opacity="1" tooltip="enable"><title>(0.0888214,2)</title></rect><rect x="426" y="200" width="6" height="0" stroke="black" stroke-width="1" fill="blue" opacity="1" tooltip="enable"><title>(0.0900903,0)</title></rect><rect x="432" y="199.376" width="6" height="0.624025" stroke="black" stroke-width="1" fill="blue" opacity="1" tooltip="enable"><title>(0.0913592,4)</title></rect><rect x="438" y="198.44" width="6" height="1.56006" stroke="black" stroke-width="1" fill="blue" opacity="1" tooltip="enable"><title>(0.092628,10)</title></rect><rect x="444" y="199.688" width="6" height="0.312012" stroke="black" stroke-width="1" fill="blue" opacity="1" tooltip="enable"><title>(0.0938969,2)</title></rect><rect x="450" y="199.688" width="6" height="0.312012" stroke="black" stroke-width="1" fill="blue" opacity="1" tooltip="enable"><title>(0.0951658,2)</title></rect><rect x="456" y="200" width="6" height="0" stroke="black" stroke-width="1" fill="blue" opacity="1" tooltip="enable"><title>(0.0964347,0)</title></rect><rect x="462" y="199.688" width="6" height="0.312012" stroke="black" stroke-width="1" fill="blue" opacity="1" tooltip="enable"><title>(0.0977035,2)</title></rect><rect x="468" y="199.688" width="6" height="0.312012" stroke="black" stroke-width="1" fill="blue" opacity="1" tooltip="enable"><title>(0.0989724,2)</title></rect><rect x="474" y="200" width="6" height="0" stroke="black" stroke-width="1" fill="blue" opacity="1" tooltip="enable"><title>(0.100241,0)</title></rect><rect x="480" y="200" width="6" height="0" stroke="black" stroke-width="1" fill="blue" opacity="1" tooltip="enable"><title>(0.10151,0)</title></rect><rect x="486" y="200" width="6" height="0" stroke="black" stroke-width="1" fill="blue" opacity="1" tooltip="enable"><title>(0.102779,0)</title></rect><rect x="492" y="200" width="6" height="0" stroke="black" stroke-width="1" fill="blue" opacity="1" tooltip="enable"><title>(0.104048,0)</title></rect><rect x="498" y="199.688" width="6" height="0.312012" stroke="black" stroke-width="1" fill="blue" opacity="1" tooltip="enable"><title>(0.105317,2)</title></rect><rect x="504" y="199.688" width="6" height="0.312012" stroke="black" stroke-width="1" fill="blue" opacity="1" tooltip="enable"><title>(0.106586,2)</title></rect><rect x="510" y="199.844" width="6" height="0.156006" stroke="black" stroke-width="1" fill="blue" opacity="1" tooltip="enable"><title>(0.107855,1)</title></rect><rect x="516" y="199.844" width="6" height="0.156006" stroke="black" stroke-width="1" fill="blue" opacity="1" tooltip="enable"><title>(0.109123,1)</title></rect><rect x="522" y="199.688" width="6" height="0.312012" stroke="black" stroke-width="1" fill="blue" opacity="1" tooltip="enable"><title>(0.110392,2)</title></rect><rect x="528" y="199.688" width="6" height="0.312012" stroke="black" stroke-width="1" fill="blue" opacity="1" tooltip="enable"><title>(0.111661,2)</title></rect><rect x="534" y="199.376" width="6" height="0.624025" stroke="black" stroke-width="1" fill="blue" opacity="1" tooltip="enable"><title>(0.11293,4)</title></rect><rect x="540" y="200" width="6" height="0" stroke="black" stroke-width="1" fill="blue" opacity="1" tooltip="enable"><title>(0.114199,0)</title></rect><rect x="546" y="199.688" width="6" height="0.312012" stroke="black" stroke-width="1" fill="blue" opacity="1" tooltip="enable"><title>(0.115468,2)</title></rect><rect x="552" y="199.688" width="6" height="0.312012" stroke="black" stroke-width="1" fill="blue" opacity="1" tooltip="enable"><title>(0.116737,2)</title></rect><rect x="558" y="200" width="6" height="0" stroke="black" stroke-width="1" fill="blue" opacity="1" tooltip="enable"><title>(0.118006,0)</title></rect><rect x="564" y="199.688" width="6" height="0.312012" stroke="black" stroke-width="1" fill="blue" opacity="1" tooltip="enable"><title>(0.119274,2)</title></rect><rect x="570" y="200" width="6" height="0" stroke="black" stroke-width="1" fill="blue" opacity="1" tooltip="enable"><title>(0.120543,0)</title></rect><rect x="576" y="200" width="6" height="0" stroke="black" stroke-width="1" fill="blue" opacity="1" tooltip="enable"><title>(0.121812,0)</title></rect><rect x="582" y="200" width="6" height="0" stroke="black" stroke-width="1" fill="blue" opacity="1" tooltip="enable"><title>(0.123081,0)</title></rect><rect x="588" y="200" width="6" height="0" stroke="black" stroke-width="1" fill="blue" opacity="1" tooltip="enable"><title>(0.12435,0)</title></rect><rect x="594" y="199.844" width="6" height="0.156006" stroke="black" stroke-width="1" fill="blue" opacity="1" tooltip="enable"><title>(0.125619,1)</title></rect><text x="30" y="240" font-size="20" fill="black">0</text>
<text x="600" y="240" font-size="20" fill="black">0.126888</text>
<polyline points="0,220,600,220" stroke="black" stroke-width="1" fill="none" opacity="1"/>
<text x="720" y="20" font-size="20" fill="black">1282</text>
<text x="720" y="200" font-size="20" fill="black">0</text>
<polyline points="660,0,660,200" stroke="black" stroke-width="1" fill="none" opacity="1"/>
</svg>