<?xml version="1.0" standalone="yes"?>
<!-- SVG graphic -->
<svg xmlns='http://www.w3.org/2000/svg' xmlns:xlink='http://www.w3.org/1999/xlink'
 version="1.1">
<rect x="0" y="29.912" width="6" height="170.088" stroke="black" stroke-width="1" fill="blue" opacity="1" tooltip="enable"><title>(0,870)</title></rect><rect x="6" y="0" width="6" height="200" stroke="black" stroke-width="1" fill="blue" opacity="1" tooltip="enable"><title>(0.00134163,1023)</title></rect><rect x="12" y="29.3255" width="6" height="170.674" stroke="black" stroke-width="1" fill="blue" opacity="1" tooltip="enable"><title>(0.00268326,873)</title></rect><rect x="18" y="70.7722" width="6" height="129.228" stroke="black" stroke-width="1" fill="blue" opacity="1" tooltip="enable"><title>(0.00402489,661)</title></rect><rect x="24" y="104.985" width="6" height="95.0147" stroke="black" stroke-width="1" fill="blue" opacity="1" tooltip="enable"><title>(0.00536652,486)</title></rect><rect x="30" y="122.776" width="6" height="77.2239" stroke="black" stroke-width="1" fill="blue" opacity="1" tooltip="enable"><title>(0.00670815,395)</title></rect><rect x="36" y="131.965" width="6" height="68.0352" stroke="black" stroke-width="1" fill="blue" opacity="1" tooltip="enable"><title>(0.00804977,348)</title></rect><rect x="42" y="129.228" width="6" height="70.7722" stroke="black" stroke-width="1" fill="blue" opacity="1" tooltip="enable"><title>(0.0093914,362)</title></rect><rect x="48" y="132.356" width="6" height="67.6442" stroke="black" stroke-width="1" fill="blue" opacity="1" tooltip="enable"><title>(0.010733,346)</title></rect><rect x="54" y="148.974" width="6" height="51.0264" stroke="black" stroke-width="1" fill="blue" opacity="1" tooltip="enable"><title>(0.0120747,261)</title></rect><rect x="60" y="161.681" width="6" height="38.3187" stroke="black" stroke-width="1" fill="blue" opacity="1" tooltip="enable"><title>(0.0134163,196)</title></rect><rect x="66" y="159.14" width="6" height="40.8602" stroke="black" stroke-width="1" fill="blue" opacity="1" tooltip="enable"><title>(0.0147579,209)</title></rect><rect x="72" y="161.681" width="6" height="38.3187" stroke="black" stroke-width="1" fill="blue" opacity="1" tooltip="enable"><title>(0.0160995,196)</title></rect><rect x="78" y="169.501" width="6" height="30.4985" stroke="black" stroke-width="1" fill="blue" opacity="1" tooltip="enable"><title>(0.0174412,156)</title></rect><rect x="84" y="172.239" width="6" height="27.7615" stroke="black" stroke-width="1" fill="blue" opacity="1" tooltip="enable"><title>(0.0187828,142)</title></rect><rect x="90" y="182.991" width="6" height="17.0088" stroke="black" stroke-width="1" fill="blue" opacity="1" tooltip="enable"><title>(0.0201244,87)</title></rect><rect x="96" y="175.953" width="6" height="24.0469" stroke="black" stroke-width="1" fill="blue" opacity="1" tooltip="enable"><title>(0.0214661,123)</title></rect><rect x="102" y="187.488" width="6" height="12.5122" stroke="black" stroke-width="1" fill="blue" opacity="1" tooltip="enable"><title>(0.0228077,64)</title></rect><rect x="108" y="185.142" width="6" height="14.8583" stroke="black" stroke-width="1" fill="blue" opacity="1" tooltip="enable"><title>(0.0241493,76)</title></rect><rect x="114" y="188.27" width="6" height="11.7302" stroke="black" stroke-width="1" fill="blue" opacity="1" tooltip="enable"><title>(0.025491,60)</title></rect><rect x="120" y="187.097" width="6" height="12.9032" stroke="black" stroke-width="1" fill="blue" opacity="1" tooltip="enable"><title>(0.0268326,66)</title></rect><rect x="126" y="187.488" width="6" height="12.5122" stroke="black" stroke-width="1" fill="blue" opacity="1" tooltip="enable"><title>(0.0281742,64)</title></rect><rect x="132" y="188.661" width="6" height="11.3392" stroke="black" stroke-width="1" fill="blue" opacity="1" tooltip="enable"><title>(0.0295158,58)</title></rect><rect x="138" y="191.984" width="6" height="8.01564" stroke="black" stroke-width="1" fill="blue" opacity="1" tooltip="enable"><title>(0.0308575,41)</title></rect><rect x="144" y="191.398" width="6" height="8.60215" stroke="black" stroke-width="1" fill="blue" opacity="1" tooltip="enable"><title>(0.0321991,44)</title></rect><rect x="150" y="193.548" width="6" height="6.45161" stroke="black" stroke-width="1" fill="blue" opacity="1" tooltip="enable"><title>(0.0335407,33)</title></rect><rect x="156" y="191.398" width="6" height="8.60215" stroke="black" stroke-width="1" fill="blue" opacity="1" tooltip="enable"><title>(0.0348824,44)</title></rect><rect x="162" y="191.789" width="6" height="8.21114" stroke="black" stroke-width="1" fill="blue" opacity="1" tooltip="enable"><title>(0.036224,42)</title></rect><rect x="168" y="192.962" width="6" height="7.03812" stroke="black" stroke-width="1" fill="blue" opacity="1" tooltip="enable"><title>(0.0375656,36)</title></rect><rect x="174" y="192.571" width="6" height="7.42913" stroke="black" stroke-width="1" fill="blue" opacity="1" tooltip="enable"><title>(0.0389072,38)</title></rect><rect x="180" y="195.894" width="6" height="4.10557" stroke="black" stroke-width="1" fill="blue" opacity="1" tooltip="enable"><title>(0.0402489,21)</title></rect><rect x="186" y="191.593" width="6" height="8.40665" stroke="black" stroke-width="1" fill="blue" opacity="1" tooltip="enable"><title>(0.0415905,43)</title></rect><rect x="192" y="192.962" width="6" height="7.03812" stroke="black" stroke-width="1" fill="blue" opacity="1" tooltip="enable"><title>(0.0429321,36)</title></rect><rect x="198" y="191.789" width="6" height="8.21114" stroke="black" stroke-width="1" fill="blue" opacity="1" tooltip="enable"><title>(0.0442738,42)</title></rect><rect x="204" y="195.699" width="6" height="4.30108" stroke="black" stroke-width="1" fill="blue" opacity="1" tooltip="enable"><title>(0.0456154,22)</title></rect><rect x="210" y="194.917" width="6" height="5.08309" stroke="black" stroke-width="1" fill="blue" opacity="1" tooltip="enable"><title>(0.046957,26)</title></rect><rect x="216" y="196.481" width="6" height="3.51906" stroke="black" stroke-width="1" fill="blue" opacity="1" tooltip="enable"><title>(0.0482987,18)</title></rect><rect x="222" y="193.353" width="6" height="6.64712" stroke="black" stroke-width="1" fill="blue" opacity="1" tooltip="enable"><title>(0.0496403,34)</title></rect><rect x="228" y="195.308" width="6" height="4.69208" stroke="black" stroke-width="1" fill="blue" opacity="1" tooltip="enable"><title>(0.0509819,24)</title></rect><rect x="234" y="194.917" width="6" height="5.08309" stroke="black" stroke-width="1" fill="blue" opacity="1" tooltip="enable"><title>(0.0523235,26)</title></rect><rect x="240" y="195.308" width="6" height="4.69208" stroke="black" stroke-width="1" fill="blue" opacity="1" tooltip="enable"><title>(0.0536652,24)</title></rect><rect x="246" y="197.263" width="6" height="2.73705" stroke="black" stroke-width="1" fill="blue" opacity="1" tooltip="enable"><title>(0.0550068,14)</title></rect><rect x="252" y="198.045" width="6" height="1.95503" stroke="black" stroke-width="1" fill="blue" opacity="1" tooltip="enable"><title>(0.0563484,10)</title></rect><rect x="258" y="198.045" width="6" height="1.95503" stroke="black" stroke-width="1" fill="blue" opacity="1" tooltip="enable"><title>(0.0576901,10)</title></rect><rect x="264" y="196.09" width="6" height="3.91007" stroke="black" stroke-width="1" fill="blue" opacity="1" tooltip="enable"><title>(0.0590317,20)</title></rect><rect x="270" y="197.263" width="6" height="2.73705" stroke="black" stroke-width="1" fill="blue" opacity="1" tooltip="enable"><title>(0.0603733,14)</title></rect><rect x="276" y="197.654" width="6" height="2.34604" stroke="black" stroke-width="1" fill="blue" opacity="1" tooltip="enable"><title>(0.0617149,12)</title></rect><rect x="282" y="197.654" width="6" height="2.34604" stroke="black" stroke-width="1" fill="blue" opacity="1" tooltip="enable"><title>(0.0630566,12)</title></rect><rect x="288" y="198.045" width="6" height="1.95503" stroke="black" stroke-width="1" fill="blue" opacity="1" tooltip="enable"><title>(0.0643982,10)</title></rect><rect x="294" y="197.263" width="6" height="2.73705" stroke="black" stroke-width="1" fill="blue" opacity="1" tooltip="enable"><title>(0.0657398,14)</title></rect><rect x="300" y="197.654" width="6" height="2.34604" stroke="black" stroke-width="1" fill="blue" opacity="1" tooltip="enable"><title>(0.0670815,12)</title></rect><rect x="306" y="198.827" width="6" height="1.17302" stroke="black" stroke-width="1" fill="blue" opacity="1" tooltip="enable"><title>(0.0684231,6)</title></rect><rect x="312" y="197.263" width="6" height="2.73705" stroke="black" stroke-width="1" fill="blue" opacity="1" tooltip="enable"><title>(0.0697647,14)</title></rect><rect x="318" y="198.436" width="6" height="1.56403" stroke="black" stroke-width="1" fill="blue" opacity="1" tooltip="enable"><title>(0.0711063,8)</title></rect><rect x="324" y="196.872" width="6" height="3.12805" stroke="black" stroke-width="1" fill="blue" opacity="1" tooltip="enable"><title>(0.072448,16)</title></rect><rect x="330" y="197.654" width="6" height="2.34604" stroke="black" stroke-width="1" fill="blue" opacity="1" tooltip="enable"><title>(0.0737896,12)</title></rect><rect x="336" y="197.263" width="6" height="2.73705" stroke="black" stroke-width="1" fill="blue" opacity="1" tooltip="enable"><title>(0.0751312,14)</title></rect><rect x="342" y="198.827" width="6" height="1.17302" stroke="black" stroke-width="1" fill="blue" opacity="1" tooltip="enable"><title>(0.0764729,6)</title></rect><rect x="348" y="198.045" width="6" height="1.95503" stroke="black" stroke-width="1" fill="blue" opacity="1" tooltip="enable"><title>(0.0778145,10)</title></rect><rect x="354" y="198.436" width="6" height="1.56403" stroke="black" stroke-width="1" fill="blue" opacity="1" tooltip="enable"><title>(0.0791561,8)</title></rect><rect x="360" y="200" width="6" height="0" stroke="black" stroke-width="1" fill="blue" opacity="1" tooltip="enable"><title>(0.0804978,0)</title></rect><rect x="366" y="199.218" width="6" height="0.782014" stroke="black" stroke-width="1" fill="blue" opacity="1" tooltip="enable"><title>(0.0818394,4)</title></rect><rect x="372" y="198.827" width="6" height="1.17302" stroke="black" stroke-width="1" fill="blue" opacity="1" tooltip="enable"><title>(0.083181,6)</title></rect><rect x="378" y="198.827" width="6" height="1.17302" stroke="black" stroke-width="1" fill="blue" opacity="1" tooltip="enable"><title>(0.0845226,6)</title></rect><rect x="384" y="199.609" width="6" height="0.391007" stroke="black" stroke-width="1" fill="blue" opacity="1" tooltip="enable"><title>(0.0858643,2)</title></rect><rect x="390" y="200" width="6" height="0" stroke="black" stroke-width="1" fill="blue" opacity="1" tooltip="enable"><title>(0.0872059,0)</title></rect><rect x="396" y="200" width="6" height="0" stroke="black" stroke-width="1" fill="blue" opacity="1" tooltip="enable"><title>(0.0885475,0)</title></rect><rect x="402" y="199.609" width="6" height="0.391007" stroke="black" stroke-width="1" fill="blue" opacity="1" tooltip="enable"><title>(0.0898892,2)</title></rect><rect x="408" y="199.413" width="6" height="0.58651" stroke="black" stroke-width="1" fill="blue" opacity="1" tooltip="enable"><title>(0.0912308,3)</title></rect><rect x="414" y="199.804" width="6" height="0.195503" stroke="black" stroke-width="1" fill="blue" opacity="1" tooltip="enable"><title>(0.0925724,1)</title></rect><rect x="420" y="199.609" width="6" height="0.391007" stroke="black" stroke-width="1" fill="blue" opacity="1" tooltip="enable"><title>(0.093914,2)</title></rect><rect x="426" y="200" width="6" height="0" stroke="black" stroke-width="1" fill="blue" opacity="1" tooltip="enable"><title>(0.0952557,0)</title></rect><rect x="432" y="198.827" width="6" height="1.17302" stroke="black" stroke-width="1" fill="blue" opacity="1" tooltip="enable"><title>(0.0965973,6)</title></rect><rect x="438" y="199.609" width="6" height="0.391007" stroke="black" stroke-width="1" fill="blue" opacity="1" tooltip="enable"><title>(0.0979389,2)</title></rect><rect x="444" y="199.609" width="6" height="0.391007" stroke="black" stroke-width="1" fill="blue" opacity="1" tooltip="enable"><title>(0.0992806,2)</title></rect><rect x="450" y="200" width="6" height="0" stroke="black" stroke-width="1" fill="blue" opacity="1" tooltip="enable"><title>(0.100622,0)</title></rect><rect x="456" y="199.609" width="6" height="0.391007" stroke="black" stroke-width="1" fill="blue" opacity="1" tooltip="enable"><title>(0.101964,2)</title></rect><rect x="462" y="200" width="6" height="0" stroke="black" stroke-width="1" fill="blue" opacity="1" tooltip="enable"><title>(0.103305,0)</title></rect><rect x="468" y="200" width="6" height="0" stroke="black" stroke-width="1" fill="blue" opacity="1" tooltip="enable"><title>(0.104647,0)</title></rect><rect x="474" y="200" width="6" height="0" stroke="black" stroke-width="1" fill="blue" opacity="1" tooltip="enable"><title>(0.105989,0)</title></rect><rect x="480" y="200" width="6" height="0" stroke="black" stroke-width="1" fill="blue" opacity="1" tooltip="enable"><title>(0.10733,0)</title></rect><rect x="486" y="200" width="6" height="0" stroke="black" stroke-width="1" fill="blue" opacity="1" tooltip="enable"><title>(0.108672,0)</title></rect><rect x="492" y="199.609" width="6" height="0.391007" stroke="black" stroke-width="1" fill="blue" opacity="1" tooltip="enable"><title>(0.110014,2)</title></rect><rect x="498" y="200" width="6" height="0" stroke="black" stroke-width="1" fill="blue" opacity="1" tooltip="enable"><title>(0.111355,0)</title></rect><rect x="504" y="200" width="6" height="0" stroke="black" stroke-width="1" fill="blue" opacity="1" tooltip="enable"><title>(0.112697,0)</title></rect><rect x="510" y="199.609" width="6" height="0.391007" stroke="black" stroke-width="1" fill="blue" opacity="1" tooltip="enable"><title>(0.114038,2)</title></rect><rect x="516" y="199.218" width="6" height="0.782014" stroke="black" stroke-width="1" fill="blue" opacity="1" tooltip="enable"><title>(0.11538,4)</title></rect><rect x="522" y="200" width="6" height="0" stroke="black" stroke-width="1" fill="blue" opacity="1" tooltip="enable"><title>(0.116722,0)</title></rect><rect x="528" y="200" width="6" height="0" stroke="black" stroke-width="1" fill="blue" opacity="1" tooltip="enable"><title>(0.118063,0)</title></rect><rect x="534" y="199.609" width="6" height="0.391007" stroke="black" stroke-width="1" fill="blue" opacity="1" tooltip="enable"><title>(0.119405,2)</title></rect><rect x="540" y="199.609" width="6" height="0.391007" stroke="black" stroke-width="1" fill="blue" opacity="1" tooltip="enable"><title>(0.120747,2)</title></rect><rect x="546" y="199.609" width="6" height="0.391007" stroke="black" stroke-width="1" fill="blue" opacity="1" tooltip="enable"><title>(0.122088,2)</title></rect><rect x="552" y="200" width="6" height="0" stroke="black" stroke-width="1" fill="blue" opacity="1" tooltip="enable"><title>(0.12343,0)</title></rect><rect x="558" y="199.609" width="6" height="0.391007" stroke="black" stroke-width="1" fill="blue" opacity="1" tooltip="enable"><title>(0.124772,2)</title></rect><rect x="564" y="200" width="6" height="0" stroke="black" stroke-width="1" fill="blue" opacity="1" tooltip="enable"><title>(0.126113,0)</title></rect><rect x="570" y="200" width="6" height="0" stroke="black" stroke-width="1" fill="blue" opacity="1" tooltip="enable"><title>(0.127455,0)</title></rect><rect x="576" y="200" width="6" height="0" stroke="black" stroke-width="1" fill="blue" opacity="1" tooltip="enable"><title>(0.128796,0)</title></rect><rect x="582" y="199.609" width="6" height="0.391007" stroke="black" stroke-width="1" fill="blue" opacity="1" tooltip="enable"><title>(0.130138,2)</title></rect><rect x="588" y="199.218" width="6" height="0.782014" stroke="black" stroke-width="1" fill="blue" opacity="1" tooltip="enable"><title>(0.13148,4)</title></rect><rect x="594" y="199.804" width="6" height="0.195503" stroke="black" stroke-width="1" fill="blue" opacity="1" tooltip="enable"><title>(0.132821,1)</title></rect><text x="30" y="240" font-size="20" fill="black">0</text>
<text x="600" y="240" font-size="20" fill="black">0.134163</text>
<polyline points="0,220,600,220" stroke="black" stroke-width="1" fill="none" opacity="1"/>
<text x="720" y="20" font-size="20" fill="black">1023</text>
<text x="720" y="200" font-size="20" fill="black">0</text>
<polyline points="660,0,660,200" stroke="black" stroke-width="1" fill="none" opacity="1"/>
</svg>