<?xml version="1.0" standalone="yes"?>
<!-- SVG graphic -->
<svg xmlns='http://www.w3.org/2000/svg' xmlns:xlink='http://www.w3.org/1999/xlink'
 version="1.1">
<rect x="0" y="0" width="6" height="200" stroke="black" stroke-width="1" fill="blue" opacity="1" tooltip="enable"><title>(0,1362)</title></rect><rect x="6" y="28.1938" width="6" height="171.806" stroke="black" stroke-width="1" fill="blue" opacity="1" tooltip="enable"><title>(0.000826958,1170)</title></rect><rect x="12" y="87.9589" width="6" height="112.041" stroke="black" stroke-width="1" fill="blue" opacity="1" tooltip="enable"><title>(0.00165392,763)</title></rect><rect x="18" y="121.88" width="6" height="78.1204" stroke="black" stroke-width="1" fill="blue" opacity="1" tooltip="enable"><title>(0.00248087,532)</title></rect><rect x="24" y="133.627" width="6" height="66.373" stroke="black" stroke-width="1" fill="blue" opacity="1" tooltip="enable"><title>(0.00330783,452)</title></rect><rect x="30" y="151.101" width="6" height="48.8987" stroke="black" stroke-width="1" fill="blue" opacity="1" tooltip="enable"><title>(0.00413479,333)</title></rect><rect x="36" y="160.499" width="6" height="39.5007" stroke="black" stroke-width="1" fill="blue" opacity="1" tooltip="enable"><title>(0.00496175,269)</title></rect><rect x="42" y="176.946" width="6" height="23.0543" stroke="black" stroke-width="1" fill="blue" opacity="1" tooltip="enable"><title>(0.0057887,157)</title></rect><rect x="48" y="182.673" width="6" height="17.3275" stroke="black" stroke-width="1" fill="blue" opacity="1" tooltip="enable"><title>(0.00661566,118)</title></rect><rect x="54" y="179.883" width="6" height="20.1175" stroke="black" stroke-width="1" fill="blue" opacity="1" tooltip="enable"><title>(0.00744262,137)</title></rect><rect x="60" y="182.819" width="6" height="17.1806" stroke="black" stroke-width="1" fill="blue" opacity="1" tooltip="enable"><title>(0.00826958,117)</title></rect><rect x="66" y="183.847" width="6" height="16.1527" stroke="black" stroke-width="1" fill="blue" opacity="1" tooltip="enable"><title>(0.00909654,110)</title></rect><rect x="72" y="179.589" width="6" height="20.4112" stroke="black" stroke-width="1" fill="blue" opacity="1" tooltip="enable"><title>(0.00992349,139)</title></rect><rect x="78" y="183.407" width="6" height="16.5932" stroke="black" stroke-width="1" fill="blue" opacity="1" tooltip="enable"><title>(0.0107505,113)</title></rect><rect x="84" y="186.49" width="6" height="13.5095" stroke="black" stroke-width="1" fill="blue" opacity="1" tooltip="enable"><title>(0.0115774,92)</title></rect><rect x="90" y="185.609" width="6" height="14.3906" stroke="black" stroke-width="1" fill="blue" opacity="1" tooltip="enable"><title>(0.0124044,98)</title></rect><rect x="96" y="185.316" width="6" height="14.6843" stroke="black" stroke-width="1" fill="blue" opacity="1" tooltip="enable"><title>(0.0132313,100)</title></rect><rect x="102" y="186.931" width="6" height="13.069" stroke="black" stroke-width="1" fill="blue" opacity="1" tooltip="enable"><title>(0.0140583,89)</title></rect><rect x="108" y="185.169" width="6" height="14.8311" stroke="black" stroke-width="1" fill="blue" opacity="1" tooltip="enable"><title>(0.0148852,101)</title></rect><rect x="114" y="188.84" width="6" height="11.1601" stroke="black" stroke-width="1" fill="blue" opacity="1" tooltip="enable"><title>(0.0157122,76)</title></rect><rect x="120" y="184.435" width="6" height="15.5653" stroke="black" stroke-width="1" fill="blue" opacity="1" tooltip="enable"><title>(0.0165392,106)</title></rect><rect x="126" y="190.896" width="6" height="9.10426" stroke="black" stroke-width="1" fill="blue" opacity="1" tooltip="enable"><title>(0.0173661,62)</title></rect><rect x="132" y="190.308" width="6" height="9.69163" stroke="black" stroke-width="1" fill="blue" opacity="1" tooltip="enable"><title>(0.0181931,66)</title></rect><rect x="138" y="191.777" width="6" height="8.2232" stroke="black" stroke-width="1" fill="blue" opacity="1" tooltip="enable"><title>(0.01902,56)</title></rect><rect x="144" y="190.602" width="6" height="9.39794" stroke="black" stroke-width="1" fill="blue" opacity="1" tooltip="enable"><title>(0.019847,64)</title></rect><rect x="150" y="194.567" width="6" height="5.43319" stroke="black" stroke-width="1" fill="blue" opacity="1" tooltip="enable"><title>(0.0206739,37)</title></rect><rect x="156" y="192.952" width="6" height="7.04846" stroke="black" stroke-width="1" fill="blue" opacity="1" tooltip="enable"><title>(0.0215009,48)</title></rect><rect x="162" y="192.511" width="6" height="7.48899" stroke="black" stroke-width="1" fill="blue" opacity="1" tooltip="enable"><title>(0.0223279,51)</title></rect><rect x="168" y="193.245" width="6" height="6.75477" stroke="black" stroke-width="1" fill="blue" opacity="1" tooltip="enable"><title>(0.0231548,46)</title></rect><rect x="174" y="192.217" width="6" height="7.78267" stroke="black" stroke-width="1" fill="blue" opacity="1" tooltip="enable"><title>(0.0239818,53)</title></rect><rect x="180" y="193.098" width="6" height="6.90162" stroke="black" stroke-width="1" fill="blue" opacity="1" tooltip="enable"><title>(0.0248087,47)</title></rect><rect x="186" y="193.833" width="6" height="6.1674" stroke="black" stroke-width="1" fill="blue" opacity="1" tooltip="enable"><title>(0.0256357,42)</title></rect><rect x="192" y="195.595" width="6" height="4.40529" stroke="black" stroke-width="1" fill="blue" opacity="1" tooltip="enable"><title>(0.0264626,30)</title></rect><rect x="198" y="192.658" width="6" height="7.34214" stroke="black" stroke-width="1" fill="blue" opacity="1" tooltip="enable"><title>(0.0272896,50)</title></rect><rect x="204" y="193.686" width="6" height="6.31424" stroke="black" stroke-width="1" fill="blue" opacity="1" tooltip="enable"><title>(0.0281166,43)</title></rect><rect x="210" y="196.035" width="6" height="3.96476" stroke="black" stroke-width="1" fill="blue" opacity="1" tooltip="enable"><title>(0.0289435,27)</title></rect><rect x="216" y="196.182" width="6" height="3.81791" stroke="black" stroke-width="1" fill="blue" opacity="1" tooltip="enable"><title>(0.0297705,26)</title></rect><rect x="222" y="196.329" width="6" height="3.67107" stroke="black" stroke-width="1" fill="blue" opacity="1" tooltip="enable"><title>(0.0305974,25)</title></rect><rect x="228" y="195.742" width="6" height="4.25844" stroke="black" stroke-width="1" fill="blue" opacity="1" tooltip="enable"><title>(0.0314244,29)</title></rect><rect x="234" y="196.182" width="6" height="3.81791" stroke="black" stroke-width="1" fill="blue" opacity="1" tooltip="enable"><title>(0.0322514,26)</title></rect><rect x="240" y="196.769" width="6" height="3.23054" stroke="black" stroke-width="1" fill="blue" opacity="1" tooltip="enable"><title>(0.0330783,22)</title></rect><rect x="246" y="197.944" width="6" height="2.0558" stroke="black" stroke-width="1" fill="blue" opacity="1" tooltip="enable"><title>(0.0339053,14)</title></rect><rect x="252" y="194.273" width="6" height="5.72687" stroke="black" stroke-width="1" fill="blue" opacity="1" tooltip="enable"><title>(0.0347322,39)</title></rect><rect x="258" y="196.035" width="6" height="3.96476" stroke="black" stroke-width="1" fill="blue" opacity="1" tooltip="enable"><title>(0.0355592,27)</title></rect><rect x="264" y="193.539" width="6" height="6.46109" stroke="black" stroke-width="1" fill="blue" opacity="1" tooltip="enable"><title>(0.0363861,44)</title></rect><rect x="270" y="194.126" width="6" height="5.87372" stroke="black" stroke-width="1" fill="blue" opacity="1" tooltip="enable"><title>(0.0372131,40)</title></rect><rect x="276" y="195.154" width="6" height="4.84582" stroke="black" stroke-width="1" fill="blue" opacity="1" tooltip="enable"><title>(0.0380401,33)</title></rect><rect x="282" y="196.623" width="6" height="3.37739" stroke="black" stroke-width="1" fill="blue" opacity="1" tooltip="enable"><title>(0.038867,23)</title></rect><rect x="288" y="194.861" width="6" height="5.1395" stroke="black" stroke-width="1" fill="blue" opacity="1" tooltip="enable"><title>(0.039694,35)</title></rect><rect x="294" y="195.742" width="6" height="4.25844" stroke="black" stroke-width="1" fill="blue" opacity="1" tooltip="enable"><title>(0.0405209,29)</title></rect><rect x="300" y="198.238" width="6" height="1.76211" stroke="black" stroke-width="1" fill="blue" opacity="1" tooltip="enable"><title>(0.0413479,12)</title></rect><rect x="306" y="195.301" width="6" height="4.69897" stroke="black" stroke-width="1" fill="blue" opacity="1" tooltip="enable"><title>(0.0421748,32)</title></rect><rect x="312" y="195.007" width="6" height="4.99266" stroke="black" stroke-width="1" fill="blue" opacity="1" tooltip="enable"><title>(0.0430018,34)</title></rect><rect x="318" y="196.476" width="6" height="3.52423" stroke="black" stroke-width="1" fill="blue" opacity="1" tooltip="enable"><title>(0.0438288,24)</title></rect><rect x="324" y="199.413" width="6" height="0.587372" stroke="black" stroke-width="1" fill="blue" opacity="1" tooltip="enable"><title>(0.0446557,4)</title></rect><rect x="330" y="196.329" width="6" height="3.67107" stroke="black" stroke-width="1" fill="blue" opacity="1" tooltip="enable"><title>(0.0454827,25)</title></rect><rect x="336" y="196.623" width="6" height="3.37739" stroke="black" stroke-width="1" fill="blue" opacity="1" tooltip="enable"><title>(0.0463096,23)</title></rect><rect x="342" y="195.742" width="6" height="4.25844" stroke="black" stroke-width="1" fill="blue" opacity="1" tooltip="enable"><title>(0.0471366,29)</title></rect><rect x="348" y="197.21" width="6" height="2.79001" stroke="black" stroke-width="1" fill="blue" opacity="1" tooltip="enable"><title>(0.0479636,19)</title></rect><rect x="354" y="198.678" width="6" height="1.32159" stroke="black" stroke-width="1" fill="blue" opacity="1" tooltip="enable"><title>(0.0487905,9)</title></rect><rect x="360" y="196.916" width="6" height="3.0837" stroke="black" stroke-width="1" fill="blue" opacity="1" tooltip="enable"><title>(0.0496175,21)</title></rect><rect x="366" y="198.972" width="6" height="1.0279" stroke="black" stroke-width="1" fill="blue" opacity="1" tooltip="enable"><title>(0.0504444,7)</title></rect><rect x="372" y="196.329" width="6" height="3.67107" stroke="black" stroke-width="1" fill="blue" opacity="1" tooltip="enable"><title>(0.0512714,25)</title></rect><rect x="378" y="197.504" width="6" height="2.49633" stroke="black" stroke-width="1" fill="blue" opacity="1" tooltip="enable"><title>(0.0520983,17)</title></rect><rect x="384" y="198.238" width="6" height="1.76211" stroke="black" stroke-width="1" fill="blue" opacity="1" tooltip="enable"><title>(0.0529253,12)</title></rect><rect x="390" y="197.797" width="6" height="2.20264" stroke="black" stroke-width="1" fill="blue" opacity="1" tooltip="enable"><title>(0.0537523,15)</title></rect><rect x="396" y="198.825" width="6" height="1.17474" stroke="black" stroke-width="1" fill="blue" opacity="1" tooltip="enable"><title>(0.0545792,8)</title></rect><rect x="402" y="197.797" width="6" height="2.20264" stroke="black" stroke-width="1" fill="blue" opacity="1" tooltip="enable"><title>(0.0554062,15)</title></rect><rect x="408" y="197.797" width="6" height="2.20264" stroke="black" stroke-width="1" fill="blue" opacity="1" tooltip="enable"><title>(0.0562331,15)</title></rect><rect x="414" y="198.238" width="6" height="1.76211" stroke="black" stroke-width="1" fill="blue" opacity="1" tooltip="enable"><title>(0.0570601,12)</title></rect><rect x="420" y="199.119" width="6" height="0.881057" stroke="black" stroke-width="1" fill="blue" opacity="1" tooltip="enable"><title>(0.057887,6)</title></rect><rect x="426" y="198.532" width="6" height="1.46843" stroke="black" stroke-width="1" fill="blue" opacity="1" tooltip="enable"><title>(0.058714,10)</title></rect><rect x="432" y="199.706" width="6" height="0.293686" stroke="black" stroke-width="1" fill="blue" opacity="1" tooltip="enable"><title>(0.059541,2)</title></rect><rect x="438" y="197.944" width="6" height="2.0558" stroke="black" stroke-width="1" fill="blue" opacity="1" tooltip="enable"><title>(0.0603679,14)</title></rect><rect x="444" y="199.706" width="6" height="0.293686" stroke="black" stroke-width="1" fill="blue" opacity="1" tooltip="enable"><title>(0.0611949,2)</title></rect><rect x="450" y="199.706" width="6" height="0.293686" stroke="black" stroke-width="1" fill="blue" opacity="1" tooltip="enable"><title>(0.0620218,2)</title></rect><rect x="456" y="199.119" width="6" height="0.881057" stroke="black" stroke-width="1" fill="blue" opacity="1" tooltip="enable"><title>(0.0628488,6)</title></rect><rect x="462" y="199.119" width="6" height="0.881057" stroke="black" stroke-width="1" fill="blue" opacity="1" tooltip="enable"><title>(0.0636758,6)</title></rect><rect x="468" y="199.413" width="6" height="0.587372" stroke="black" stroke-width="1" fill="blue" opacity="1" tooltip="enable"><title>(0.0645027,4)</title></rect><rect x="474" y="200" width="6" height="0" stroke="black" stroke-width="1" fill="blue" opacity="1" tooltip="enable"><title>(0.0653297,0)</title></rect><rect x="480" y="199.413" width="6" height="0.587372" stroke="black" stroke-width="1" fill="blue" opacity="1" tooltip="enable"><title>(0.0661566,4)</title></rect><rect x="486" y="200" width="6" height="0" stroke="black" stroke-width="1" fill="blue" opacity="1" tooltip="enable"><title>(0.0669836,0)</title></rect><rect x="492" y="199.706" width="6" height="0.293686" stroke="black" stroke-width="1" fill="blue" opacity="1" tooltip="enable"><title>(0.0678105,2)</title></rect><rect x="498" y="199.706" width="6" height="0.293686" stroke="black" stroke-width="1" fill="blue" opacity="1" tooltip="enable"><title>(0.0686375,2)</title></rect><rect x="504" y="199.706" width="6" height="0.293686" stroke="black" stroke-width="1" fill="blue" opacity="1" tooltip="enable"><title>(0.0694645,2)</title></rect><rect x="510" y="200" width="6" height="0" stroke="black" stroke-width="1" fill="blue" opacity="1" tooltip="enable"><title>(0.0702914,0)</title></rect><rect x="516" y="200" width="6" height="0" stroke="black" stroke-width="1" fill="blue" opacity="1" tooltip="enable"><title>(0.0711184,0)</title></rect><rect x="522" y="199.413" width="6" height="0.587372" stroke="black" stroke-width="1" fill="blue" opacity="1" tooltip="enable"><title>(0.0719453,4)</title></rect><rect x="528" y="199.706" width="6" height="0.293686" stroke="black" stroke-width="1" fill="blue" opacity="1" tooltip="enable"><title>(0.0727723,2)</title></rect><rect x="534" y="200" width="6" height="0" stroke="black" stroke-width="1" fill="blue" opacity="1" tooltip="enable"><title>(0.0735992,0)</title></rect><rect x="540" y="200" width="6" height="0" stroke="black" stroke-width="1" fill="blue" opacity="1" tooltip="enable"><title>(0.0744262,0)</title></rect><rect x="546" y="200" width="6" height="0" stroke="black" stroke-width="1" fill="blue" opacity="1" tooltip="enable"><title>(0.0752532,0)</title></rect><rect x="552" y="200" width="6" height="0" stroke="black" stroke-width="1" fill="blue" opacity="1" tooltip="enable"><title>(0.0760801,0)</title></rect><rect x="558" y="200" width="6" height="0" stroke="black" stroke-width="1" fill="blue" opacity="1" tooltip="enable"><title>(0.0769071,0)</title></rect><rect x="564" y="200" width="6" height="0" stroke="black" stroke-width="1" fill="blue" opacity="1" tooltip="enable"><title>(0.077734,0)</title></rect><rect x="570" y="199.706" width="6" height="0.293686" stroke="black" stroke-width="1" fill="blue" opacity="1" tooltip="enable"><title>(0.078561,2)</title></rect><rect x="576" y="199.706" width="6" height="0.293686" stroke="black" stroke-width="1" fill="blue" opacity="1" tooltip="enable"><title>(0.0793879,2)</title></rect><rect x="582" y="200" width="6" height="0" stroke="black" stroke-width="1" fill="blue" opacity="1" tooltip="enable"><title>(0.0802149,0)</title></rect><rect x="588" y="200" width="6" height="0" stroke="black" stroke-width="1" fill="blue" opacity="1" tooltip="enable"><title>(0.0810419,0)</title></rect><rect x="594" y="199.853" width="6" height="0.146843" stroke="black" stroke-width="1" fill="blue" opacity="1" tooltip="enable"><title>(0.0818688,1)</title></rect><text x="30" y="240" font-size="20" fill="black">0</text>
<text x="600" y="240" font-size="20" fill="black">0.0826958</text>
<polyline points="0,220,600,220" stroke="black" stroke-width="1" fill="none" opacity="1"/>
<text x="720" y="20" font-size="20" fill="black">1362</text>
<text x="720" y="200" font-size="20" fill="black">0</text>
<polyline points="660,0,660,200" stroke="black" stroke-width="1" fill="none" opacity="1"/>
</svg>