<?xml version="1.0" standalone="yes"?>
<!-- SVG graphic -->
<svg xmlns='http://www.w3.org/2000/svg' xmlns:xlink='http://www.w3.org/1999/xlink'
 version="1.1">
<rect x="0" y="0" width="6" height="200" stroke="black" stroke-width="1" fill="blue" opacity="1" tooltip="enable"><title>(0,2104)</title></rect><rect x="6" y="71.4829" width="6" height="128.517" stroke="black" stroke-width="1" fill="blue" opacity="1" tooltip="enable"><title>(0.00128655,1352)</title></rect><rect x="12" y="135.551" width="6" height="64.4487" stroke="black" stroke-width="1" fill="blue" opacity="1" tooltip="enable"><title>(0.00257309,678)</title></rect><rect x="18" y="158.745" width="6" height="41.2548" stroke="black" stroke-width="1" fill="blue" opacity="1" tooltip="enable"><title>(0.00385964,434)</title></rect><rect x="24" y="180.608" width="6" height="19.3916" stroke="black" stroke-width="1" fill="blue" opacity="1" tooltip="enable"><title>(0.00514618,204)</title></rect><rect x="30" y="180.323" width="6" height="19.6768" stroke="black" stroke-width="1" fill="blue" opacity="1" tooltip="enable"><title>(0.00643273,207)</title></rect><rect x="36" y="179.373" width="6" height="20.6274" stroke="black" stroke-width="1" fill="blue" opacity="1" tooltip="enable"><title>(0.00771927,217)</title></rect><rect x="42" y="181.844" width="6" height="18.1559" stroke="black" stroke-width="1" fill="blue" opacity="1" tooltip="enable"><title>(0.00900582,191)</title></rect><rect x="48" y="183.365" width="6" height="16.635" stroke="black" stroke-width="1" fill="blue" opacity="1" tooltip="enable"><title>(0.0102924,175)</title></rect><rect x="54" y="186.122" width="6" height="13.8783" stroke="black" stroke-width="1" fill="blue" opacity="1" tooltip="enable"><title>(0.0115789,146)</title></rect><rect x="60" y="184.696" width="6" height="15.3042" stroke="black" stroke-width="1" fill="blue" opacity="1" tooltip="enable"><title>(0.0128655,161)</title></rect><rect x="66" y="184.316" width="6" height="15.6844" stroke="black" stroke-width="1" fill="blue" opacity="1" tooltip="enable"><title>(0.014152,165)</title></rect><rect x="72" y="187.928" width="6" height="12.0722" stroke="black" stroke-width="1" fill="blue" opacity="1" tooltip="enable"><title>(0.0154385,127)</title></rect><rect x="78" y="186.597" width="6" height="13.403" stroke="black" stroke-width="1" fill="blue" opacity="1" tooltip="enable"><title>(0.0167251,141)</title></rect><rect x="84" y="188.973" width="6" height="11.0266" stroke="black" stroke-width="1" fill="blue" opacity="1" tooltip="enable"><title>(0.0180116,116)</title></rect><rect x="90" y="190.114" width="6" height="9.88593" stroke="black" stroke-width="1" fill="blue" opacity="1" tooltip="enable"><title>(0.0192982,104)</title></rect><rect x="96" y="191.54" width="6" height="8.46008" stroke="black" stroke-width="1" fill="blue" opacity="1" tooltip="enable"><title>(0.0205847,89)</title></rect><rect x="102" y="188.593" width="6" height="11.4068" stroke="black" stroke-width="1" fill="blue" opacity="1" tooltip="enable"><title>(0.0218713,120)</title></rect><rect x="108" y="189.163" width="6" height="10.8365" stroke="black" stroke-width="1" fill="blue" opacity="1" tooltip="enable"><title>(0.0231578,114)</title></rect><rect x="114" y="191.16" width="6" height="8.8403" stroke="black" stroke-width="1" fill="blue" opacity="1" tooltip="enable"><title>(0.0244444,93)</title></rect><rect x="120" y="191.445" width="6" height="8.55513" stroke="black" stroke-width="1" fill="blue" opacity="1" tooltip="enable"><title>(0.0257309,90)</title></rect><rect x="126" y="192.966" width="6" height="7.03422" stroke="black" stroke-width="1" fill="blue" opacity="1" tooltip="enable"><title>(0.0270174,74)</title></rect><rect x="132" y="195.152" width="6" height="4.84791" stroke="black" stroke-width="1" fill="blue" opacity="1" tooltip="enable"><title>(0.028304,51)</title></rect><rect x="138" y="195.532" width="6" height="4.46768" stroke="black" stroke-width="1" fill="blue" opacity="1" tooltip="enable"><title>(0.0295905,47)</title></rect><rect x="144" y="193.346" width="6" height="6.65399" stroke="black" stroke-width="1" fill="blue" opacity="1" tooltip="enable"><title>(0.0308771,70)</title></rect><rect x="150" y="195.247" width="6" height="4.75285" stroke="black" stroke-width="1" fill="blue" opacity="1" tooltip="enable"><title>(0.0321636,50)</title></rect><rect x="156" y="196.958" width="6" height="3.04183" stroke="black" stroke-width="1" fill="blue" opacity="1" tooltip="enable"><title>(0.0334502,32)</title></rect><rect x="162" y="195.437" width="6" height="4.56274" stroke="black" stroke-width="1" fill="blue" opacity="1" tooltip="enable"><title>(0.0347367,48)</title></rect><rect x="168" y="195.437" width="6" height="4.56274" stroke="black" stroke-width="1" fill="blue" opacity="1" tooltip="enable"><title>(0.0360233,48)</title></rect><rect x="174" y="195.627" width="6" height="4.37262" stroke="black" stroke-width="1" fill="blue" opacity="1" tooltip="enable"><title>(0.0373098,46)</title></rect><rect x="180" y="196.008" width="6" height="3.9924" stroke="black" stroke-width="1" fill="blue" opacity="1" tooltip="enable"><title>(0.0385964,42)</title></rect><rect x="186" y="195.913" width="6" height="4.08745" stroke="black" stroke-width="1" fill="blue" opacity="1" tooltip="enable"><title>(0.0398829,43)</title></rect><rect x="192" y="196.673" width="6" height="3.327" stroke="black" stroke-width="1" fill="blue" opacity="1" tooltip="enable"><title>(0.0411694,35)</title></rect><rect x="198" y="196.958" width="6" height="3.04183" stroke="black" stroke-width="1" fill="blue" opacity="1" tooltip="enable"><title>(0.042456,32)</title></rect><rect x="204" y="196.768" width="6" height="3.23194" stroke="black" stroke-width="1" fill="blue" opacity="1" tooltip="enable"><title>(0.0437425,34)</title></rect><rect x="210" y="196.958" width="6" height="3.04183" stroke="black" stroke-width="1" fill="blue" opacity="1" tooltip="enable"><title>(0.0450291,32)</title></rect><rect x="216" y="197.338" width="6" height="2.6616" stroke="black" stroke-width="1" fill="blue" opacity="1" tooltip="enable"><title>(0.0463156,28)</title></rect><rect x="222" y="196.388" width="6" height="3.61217" stroke="black" stroke-width="1" fill="blue" opacity="1" tooltip="enable"><title>(0.0476022,38)</title></rect><rect x="228" y="198.194" width="6" height="1.80608" stroke="black" stroke-width="1" fill="blue" opacity="1" tooltip="enable"><title>(0.0488887,19)</title></rect><rect x="234" y="197.433" width="6" height="2.56654" stroke="black" stroke-width="1" fill="blue" opacity="1" tooltip="enable"><title>(0.0501753,27)</title></rect><rect x="240" y="197.909" width="6" height="2.09125" stroke="black" stroke-width="1" fill="blue" opacity="1" tooltip="enable"><title>(0.0514618,22)</title></rect><rect x="246" y="197.909" width="6" height="2.09125" stroke="black" stroke-width="1" fill="blue" opacity="1" tooltip="enable"><title>(0.0527484,22)</title></rect><rect x="252" y="198.859" width="6" height="1.14068" stroke="black" stroke-width="1" fill="blue" opacity="1" tooltip="enable"><title>(0.0540349,12)</title></rect><rect x="258" y="198.669" width="6" height="1.3308" stroke="black" stroke-width="1" fill="blue" opacity="1" tooltip="enable"><title>(0.0553214,14)</title></rect><rect x="264" y="199.24" width="6" height="0.760456" stroke="black" stroke-width="1" fill="blue" opacity="1" tooltip="enable"><title>(0.056608,8)</title></rect><rect x="270" y="199.43" width="6" height="0.570342" stroke="black" stroke-width="1" fill="blue" opacity="1" tooltip="enable"><title>(0.0578945,6)</title></rect><rect x="276" y="199.81" width="6" height="0.190114" stroke="black" stroke-width="1" fill="blue" opacity="1" tooltip="enable"><title>(0.0591811,2)</title></rect><rect x="282" y="200" width="6" height="0" stroke="black" stroke-width="1" fill="blue" opacity="1" tooltip="enable"><title>(0.0604676,0)</title></rect><rect x="288" y="200" width="6" height="0" stroke="black" stroke-width="1" fill="blue" opacity="1" tooltip="enable"><title>(0.0617542,0)</title></rect><rect x="294" y="200" width="6" height="0" stroke="black" stroke-width="1" fill="blue" opacity="1" tooltip="enable"><title>(0.0630407,0)</title></rect><rect x="300" y="200" width="6" height="0" stroke="black" stroke-width="1" fill="blue" opacity="1" tooltip="enable"><title>(0.0643273,0)</title></rect><rect x="306" y="199.62" width="6" height="0.380228" stroke="black" stroke-width="1" fill="blue" opacity="1" tooltip="enable"><title>(0.0656138,4)</title></rect><rect x="312" y="199.62" width="6" height="0.380228" stroke="black" stroke-width="1" fill="blue" opacity="1" tooltip="enable"><title>(0.0669004,4)</title></rect><rect x="318" y="199.43" width="6" height="0.570342" stroke="black" stroke-width="1" fill="blue" opacity="1" tooltip="enable"><title>(0.0681869,6)</title></rect><rect x="324" y="200" width="6" height="0" stroke="black" stroke-width="1" fill="blue" opacity="1" tooltip="enable"><title>(0.0694734,0)</title></rect><rect x="330" y="199.24" width="6" height="0.760456" stroke="black" stroke-width="1" fill="blue" opacity="1" tooltip="enable"><title>(0.07076,8)</title></rect><rect x="336" y="199.62" width="6" height="0.380228" stroke="black" stroke-width="1" fill="blue" opacity="1" tooltip="enable"><title>(0.0720465,4)</title></rect><rect x="342" y="199.81" width="6" height="0.190114" stroke="black" stroke-width="1" fill="blue" opacity="1" tooltip="enable"><title>(0.0733331,2)</title></rect><rect x="348" y="199.62" width="6" height="0.380228" stroke="black" stroke-width="1" fill="blue" opacity="1" tooltip="enable"><title>(0.0746196,4)</title></rect><rect x="354" y="199.81" width="6" height="0.190114" stroke="black" stroke-width="1" fill="blue" opacity="1" tooltip="enable"><title>(0.0759062,2)</title></rect><rect x="360" y="199.62" width="6" height="0.380228" stroke="black" stroke-width="1" fill="blue" opacity="1" tooltip="enable"><title>(0.0771927,4)</title></rect><rect x="366" y="199.905" width="6" height="0.095057" stroke="black" stroke-width="1" fill="blue" opacity="1" tooltip="enable"><title>(0.0784793,1)</title></rect><rect x="372" y="199.905" width="6" height="0.095057" stroke="black" stroke-width="1" fill="blue" opacity="1" tooltip="enable"><title>(0.0797658,1)</title></rect><rect x="378" y="199.81" width="6" height="0.190114" stroke="black" stroke-width="1" fill="blue" opacity="1" tooltip="enable"><title>(0.0810523,2)</title></rect><rect x="384" y="199.62" width="6" height="0.380228" stroke="black" stroke-width="1" fill="blue" opacity="1" tooltip="enable"><title>(0.0823389,4)</title></rect><rect x="390" y="199.81" width="6" height="0.190114" stroke="black" stroke-width="1" fill="blue" opacity="1" tooltip="enable"><title>(0.0836254,2)</title></rect><rect x="396" y="199.81" width="6" height="0.190114" stroke="black" stroke-width="1" fill="blue" opacity="1" tooltip="enable"><title>(0.084912,2)</title></rect><rect x="402" y="199.049" width="6" height="0.95057" stroke="black" stroke-width="1" fill="blue" opacity="1" tooltip="enable"><title>(0.0861985,10)</title></rect><rect x="408" y="199.81" width="6" height="0.190114" stroke="black" stroke-width="1" fill="blue" opacity="1" tooltip="enable"><title>(0.0874851,2)</title></rect><rect x="414" y="200" width="6" height="0" stroke="black" stroke-width="1" fill="blue" opacity="1" tooltip="enable"><title>(0.0887716,0)</title></rect><rect x="420" y="199.62" width="6" height="0.380228" stroke="black" stroke-width="1" fill="blue" opacity="1" tooltip="enable"><title>(0.0900582,4)</title></rect><rect x="426" y="199.62" width="6" height="0.380228" stroke="black" stroke-width="1" fill="blue" opacity="1" tooltip="enable"><title>(0.0913447,4)</title></rect><rect x="432" y="200" width="6" height="0" stroke="black" stroke-width="1" fill="blue" opacity="1" tooltip="enable"><title>(0.0926313,0)</title></rect><rect x="438" y="199.81" width="6" height="0.190114" stroke="black" stroke-width="1" fill="blue" opacity="1" tooltip="enable"><title>(0.0939178,2)</title></rect><rect x="444" y="200" width="6" height="0" stroke="black" stroke-width="1" fill="blue" opacity="1" tooltip="enable"><title>(0.0952043,0)</title></rect><rect x="450" y="199.62" width="6" height="0.380228" stroke="black" stroke-width="1" fill="blue" opacity="1" tooltip="enable"><title>(0.0964909,4)</title></rect><rect x="456" y="200" width="6" height="0" stroke="black" stroke-width="1" fill="blue" opacity="1" tooltip="enable"><title>(0.0977774,0)</title></rect><rect x="462" y="200" width="6" height="0" stroke="black" stroke-width="1" fill="blue" opacity="1" tooltip="enable"><title>(0.099064,0)</title></rect><rect x="468" y="199.81" width="6" height="0.190114" stroke="black" stroke-width="1" fill="blue" opacity="1" tooltip="enable"><title>(0.100351,2)</title></rect><rect x="474" y="199.81" width="6" height="0.190114" stroke="black" stroke-width="1" fill="blue" opacity="1" tooltip="enable"><title>(0.101637,2)</title></rect><rect x="480" y="200" width="6" height="0" stroke="black" stroke-width="1" fill="blue" opacity="1" tooltip="enable"><title>(0.102924,0)</title></rect><rect x="486" y="200" width="6" height="0" stroke="black" stroke-width="1" fill="blue" opacity="1" tooltip="enable"><title>(0.10421,0)</title></rect><rect x="492" y="199.715" width="6" height="0.285171" stroke="black" stroke-width="1" fill="blue" opacity="1" tooltip="enable"><title>(0.105497,3)</title></rect><rect x="498" y="199.905" width="6" height="0.095057" stroke="black" stroke-width="1" fill="blue" opacity="1" tooltip="enable"><title>(0.106783,1)</title></rect><rect x="504" y="200" width="6" height="0" stroke="black" stroke-width="1" fill="blue" opacity="1" tooltip="enable"><title>(0.10807,0)</title></rect><rect x="510" y="200" width="6" height="0" stroke="black" stroke-width="1" fill="blue" opacity="1" tooltip="enable"><title>(0.109356,0)</title></rect><rect x="516" y="200" width="6" height="0" stroke="black" stroke-width="1" fill="blue" opacity="1" tooltip="enable"><title>(0.110643,0)</title></rect><rect x="522" y="200" width="6" height="0" stroke="black" stroke-width="1" fill="blue" opacity="1" tooltip="enable"><title>(0.111929,0)</title></rect><rect x="528" y="199.81" width="6" height="0.190114" stroke="black" stroke-width="1" fill="blue" opacity="1" tooltip="enable"><title>(0.113216,2)</title></rect><rect x="534" y="200" width="6" height="0" stroke="black" stroke-width="1" fill="blue" opacity="1" tooltip="enable"><title>(0.114503,0)</title></rect><rect x="540" y="200" width="6" height="0" stroke="black" stroke-width="1" fill="blue" opacity="1" tooltip="enable"><title>(0.115789,0)</title></rect><rect x="546" y="200" width="6" height="0" stroke="black" stroke-width="1" fill="blue" opacity="1" tooltip="enable"><title>(0.117076,0)</title></rect><rect x="552" y="200" width="6" height="0" stroke="black" stroke-width="1" fill="blue" opacity="1" tooltip="enable"><title>(0.118362,0)</title></rect><rect x="558" y="200" width="6" height="0" stroke="black" stroke-width="1" fill="blue" opacity="1" tooltip="enable"><title>(0.119649,0)</title></rect><rect x="564" y="200" width="6" height="0" stroke="black" stroke-width="1" fill="blue" opacity="1" tooltip="enable"><title>(0.120935,0)</title></rect><rect x="570" y="200" width="6" height="0" stroke="black" stroke-width="1" fill="blue" opacity="1" tooltip="enable"><title>(0.122222,0)</title></rect><rect x="576" y="200" width="6" height="0" stroke="black" stroke-width="1" fill="blue" opacity="1" tooltip="enable"><title>(0.123508,0)</title></rect><rect x="582" y="200" width="6" height="0" stroke="black" stroke-width="1" fill="blue" opacity="1" tooltip="enable"><title>(0.124795,0)</title></rect><rect x="588" y="199.81" width="6" height="0.190114" stroke="black" stroke-width="1" fill="blue" opacity="1" tooltip="enable"><title>(0.126081,2)</title></rect><rect x="594" y="199.905" width="6" height="0.095057" stroke="black" stroke-width="1" fill="blue" opacity="1" tooltip="enable"><title>(0.127368,1)</title></rect><text x="30" y="240" font-size="20" fill="black">0</text>
<text x="600" y="240" font-size="20" fill="black">0.128655</text>
<polyline points="0,220,600,220" stroke="black" stroke-width="1" fill="none" opacity="1"/>
<text x="720" y="20" font-size="20" fill="black">2104</text>
<text x="720" y="200" font-size="20" fill="black">0</text>
<polyline points="660,0,660,200" stroke="black" stroke-width="1" fill="none" opacity="1"/>
</svg>