<?xml version="1.0" standalone="yes"?>
<!-- SVG graphic -->
<svg xmlns='http://www.w3.org/2000/svg' xmlns:xlink='http://www.w3.org/1999/xlink'
 version="1.1">
<rect x="0" y="15.7854" width="6" height="184.215" stroke="black" stroke-width="1" fill="blue" opacity="1" tooltip="enable"><title>(0,1202)</title></rect><rect x="6" y="25.1341" width="6" height="174.866" stroke="black" stroke-width="1" fill="blue" opacity="1" tooltip="enable"><title>(0.00126692,1141)</title></rect><rect x="12" y="0" width="6" height="200" stroke="black" stroke-width="1" fill="blue" opacity="1" tooltip="enable"><title>(0.00253384,1305)</title></rect><rect x="18" y="122.605" width="6" height="77.3946" stroke="black" stroke-width="1" fill="blue" opacity="1" tooltip="enable"><title>(0.00380077,505)</title></rect><rect x="24" y="169.349" width="6" height="30.6513" stroke="black" stroke-width="1" fill="blue" opacity="1" tooltip="enable"><title>(0.00506769,200)</title></rect><rect x="30" y="170.575" width="6" height="29.4253" stroke="black" stroke-width="1" fill="blue" opacity="1" tooltip="enable"><title>(0.00633461,192)</title></rect><rect x="36" y="179.923" width="6" height="20.0766" stroke="black" stroke-width="1" fill="blue" opacity="1" tooltip="enable"><title>(0.00760153,131)</title></rect><rect x="42" y="185.9" width="6" height="14.0996" stroke="black" stroke-width="1" fill="blue" opacity="1" tooltip="enable"><title>(0.00886845,92)</title></rect><rect x="48" y="183.755" width="6" height="16.2452" stroke="black" stroke-width="1" fill="blue" opacity="1" tooltip="enable"><title>(0.0101354,106)</title></rect><rect x="54" y="185.441" width="6" height="14.5594" stroke="black" stroke-width="1" fill="blue" opacity="1" tooltip="enable"><title>(0.0114023,95)</title></rect><rect x="60" y="179.923" width="6" height="20.0766" stroke="black" stroke-width="1" fill="blue" opacity="1" tooltip="enable"><title>(0.0126692,131)</title></rect><rect x="66" y="181.303" width="6" height="18.6973" stroke="black" stroke-width="1" fill="blue" opacity="1" tooltip="enable"><title>(0.0139361,122)</title></rect><rect x="72" y="186.667" width="6" height="13.3333" stroke="black" stroke-width="1" fill="blue" opacity="1" tooltip="enable"><title>(0.0152031,87)</title></rect><rect x="78" y="185.594" width="6" height="14.4061" stroke="black" stroke-width="1" fill="blue" opacity="1" tooltip="enable"><title>(0.01647,94)</title></rect><rect x="84" y="187.28" width="6" height="12.7203" stroke="black" stroke-width="1" fill="blue" opacity="1" tooltip="enable"><title>(0.0177369,83)</title></rect><rect x="90" y="187.739" width="6" height="12.2605" stroke="black" stroke-width="1" fill="blue" opacity="1" tooltip="enable"><title>(0.0190038,80)</title></rect><rect x="96" y="183.448" width="6" height="16.5517" stroke="black" stroke-width="1" fill="blue" opacity="1" tooltip="enable"><title>(0.0202707,108)</title></rect><rect x="102" y="186.973" width="6" height="13.0268" stroke="black" stroke-width="1" fill="blue" opacity="1" tooltip="enable"><title>(0.0215377,85)</title></rect><rect x="108" y="187.28" width="6" height="12.7203" stroke="black" stroke-width="1" fill="blue" opacity="1" tooltip="enable"><title>(0.0228046,83)</title></rect><rect x="114" y="184.521" width="6" height="15.4789" stroke="black" stroke-width="1" fill="blue" opacity="1" tooltip="enable"><title>(0.0240715,101)</title></rect><rect x="120" y="180.23" width="6" height="19.7701" stroke="black" stroke-width="1" fill="blue" opacity="1" tooltip="enable"><title>(0.0253384,129)</title></rect><rect x="126" y="182.835" width="6" height="17.1648" stroke="black" stroke-width="1" fill="blue" opacity="1" tooltip="enable"><title>(0.0266054,112)</title></rect><rect x="132" y="178.851" width="6" height="21.1494" stroke="black" stroke-width="1" fill="blue" opacity="1" tooltip="enable"><title>(0.0278723,138)</title></rect><rect x="138" y="181.149" width="6" height="18.8506" stroke="black" stroke-width="1" fill="blue" opacity="1" tooltip="enable"><title>(0.0291392,123)</title></rect><rect x="144" y="184.368" width="6" height="15.6322" stroke="black" stroke-width="1" fill="blue" opacity="1" tooltip="enable"><title>(0.0304061,102)</title></rect><rect x="150" y="184.215" width="6" height="15.7854" stroke="black" stroke-width="1" fill="blue" opacity="1" tooltip="enable"><title>(0.031673,103)</title></rect><rect x="156" y="186.36" width="6" height="13.6398" stroke="black" stroke-width="1" fill="blue" opacity="1" tooltip="enable"><title>(0.03294,89)</title></rect><rect x="162" y="182.069" width="6" height="17.931" stroke="black" stroke-width="1" fill="blue" opacity="1" tooltip="enable"><title>(0.0342069,117)</title></rect><rect x="168" y="188.659" width="6" height="11.341" stroke="black" stroke-width="1" fill="blue" opacity="1" tooltip="enable"><title>(0.0354738,74)</title></rect><rect x="174" y="184.828" width="6" height="15.1724" stroke="black" stroke-width="1" fill="blue" opacity="1" tooltip="enable"><title>(0.0367407,99)</title></rect><rect x="180" y="186.82" width="6" height="13.1801" stroke="black" stroke-width="1" fill="blue" opacity="1" tooltip="enable"><title>(0.0380077,86)</title></rect><rect x="186" y="185.747" width="6" height="14.2529" stroke="black" stroke-width="1" fill="blue" opacity="1" tooltip="enable"><title>(0.0392746,93)</title></rect><rect x="192" y="190.498" width="6" height="9.50191" stroke="black" stroke-width="1" fill="blue" opacity="1" tooltip="enable"><title>(0.0405415,62)</title></rect><rect x="198" y="187.739" width="6" height="12.2605" stroke="black" stroke-width="1" fill="blue" opacity="1" tooltip="enable"><title>(0.0418084,80)</title></rect><rect x="204" y="190.345" width="6" height="9.65517" stroke="black" stroke-width="1" fill="blue" opacity="1" tooltip="enable"><title>(0.0430753,63)</title></rect><rect x="210" y="190.498" width="6" height="9.50191" stroke="black" stroke-width="1" fill="blue" opacity="1" tooltip="enable"><title>(0.0443423,62)</title></rect><rect x="216" y="191.724" width="6" height="8.27586" stroke="black" stroke-width="1" fill="blue" opacity="1" tooltip="enable"><title>(0.0456092,54)</title></rect><rect x="222" y="191.111" width="6" height="8.88889" stroke="black" stroke-width="1" fill="blue" opacity="1" tooltip="enable"><title>(0.0468761,58)</title></rect><rect x="228" y="191.877" width="6" height="8.12261" stroke="black" stroke-width="1" fill="blue" opacity="1" tooltip="enable"><title>(0.048143,53)</title></rect><rect x="234" y="193.41" width="6" height="6.59004" stroke="black" stroke-width="1" fill="blue" opacity="1" tooltip="enable"><title>(0.04941,43)</title></rect><rect x="240" y="196.935" width="6" height="3.06513" stroke="black" stroke-width="1" fill="blue" opacity="1" tooltip="enable"><title>(0.0506769,20)</title></rect><rect x="246" y="196.782" width="6" height="3.21839" stroke="black" stroke-width="1" fill="blue" opacity="1" tooltip="enable"><title>(0.0519438,21)</title></rect><rect x="252" y="197.241" width="6" height="2.75862" stroke="black" stroke-width="1" fill="blue" opacity="1" tooltip="enable"><title>(0.0532107,18)</title></rect><rect x="258" y="196.015" width="6" height="3.98467" stroke="black" stroke-width="1" fill="blue" opacity="1" tooltip="enable"><title>(0.0544776,26)</title></rect><rect x="264" y="196.935" width="6" height="3.06513" stroke="black" stroke-width="1" fill="blue" opacity="1" tooltip="enable"><title>(0.0557446,20)</title></rect><rect x="270" y="198.927" width="6" height="1.0728" stroke="black" stroke-width="1" fill="blue" opacity="1" tooltip="enable"><title>(0.0570115,7)</title></rect><rect x="276" y="198.314" width="6" height="1.68582" stroke="black" stroke-width="1" fill="blue" opacity="1" tooltip="enable"><title>(0.0582784,11)</title></rect><rect x="282" y="199.08" width="6" height="0.91954" stroke="black" stroke-width="1" fill="blue" opacity="1" tooltip="enable"><title>(0.0595453,6)</title></rect><rect x="288" y="199.387" width="6" height="0.613027" stroke="black" stroke-width="1" fill="blue" opacity="1" tooltip="enable"><title>(0.0608122,4)</title></rect><rect x="294" y="198.161" width="6" height="1.83908" stroke="black" stroke-width="1" fill="blue" opacity="1" tooltip="enable"><title>(0.0620792,12)</title></rect><rect x="300" y="198.161" width="6" height="1.83908" stroke="black" stroke-width="1" fill="blue" opacity="1" tooltip="enable"><title>(0.0633461,12)</title></rect><rect x="306" y="199.08" width="6" height="0.91954" stroke="black" stroke-width="1" fill="blue" opacity="1" tooltip="enable"><title>(0.064613,6)</title></rect><rect x="312" y="197.548" width="6" height="2.45211" stroke="black" stroke-width="1" fill="blue" opacity="1" tooltip="enable"><title>(0.0658799,16)</title></rect><rect x="318" y="199.08" width="6" height="0.91954" stroke="black" stroke-width="1" fill="blue" opacity="1" tooltip="enable"><title>(0.0671469,6)</title></rect><rect x="324" y="199.08" width="6" height="0.91954" stroke="black" stroke-width="1" fill="blue" opacity="1" tooltip="enable"><title>(0.0684138,6)</title></rect><rect x="330" y="199.387" width="6" height="0.613027" stroke="black" stroke-width="1" fill="blue" opacity="1" tooltip="enable"><title>(0.0696807,4)</title></rect><rect x="336" y="198.774" width="6" height="1.22605" stroke="black" stroke-width="1" fill="blue" opacity="1" tooltip="enable"><title>(0.0709476,8)</title></rect><rect x="342" y="199.08" width="6" height="0.91954" stroke="black" stroke-width="1" fill="blue" opacity="1" tooltip="enable"><title>(0.0722146,6)</title></rect><rect x="348" y="199.387" width="6" height="0.613027" stroke="black" stroke-width="1" fill="blue" opacity="1" tooltip="enable"><title>(0.0734815,4)</title></rect><rect x="354" y="197.548" width="6" height="2.45211" stroke="black" stroke-width="1" fill="blue" opacity="1" tooltip="enable"><title>(0.0747484,16)</title></rect><rect x="360" y="199.387" width="6" height="0.613027" stroke="black" stroke-width="1" fill="blue" opacity="1" tooltip="enable"><title>(0.0760153,4)</title></rect><rect x="366" y="199.08" width="6" height="0.91954" stroke="black" stroke-width="1" fill="blue" opacity="1" tooltip="enable"><title>(0.0772822,6)</title></rect><rect x="372" y="199.693" width="6" height="0.306513" stroke="black" stroke-width="1" fill="blue" opacity="1" tooltip="enable"><title>(0.0785492,2)</title></rect><rect x="378" y="199.693" width="6" height="0.306513" stroke="black" stroke-width="1" fill="blue" opacity="1" tooltip="enable"><title>(0.0798161,2)</title></rect><rect x="384" y="199.387" width="6" height="0.613027" stroke="black" stroke-width="1" fill="blue" opacity="1" tooltip="enable"><title>(0.081083,4)</title></rect><rect x="390" y="200" width="6" height="0" stroke="black" stroke-width="1" fill="blue" opacity="1" tooltip="enable"><title>(0.0823499,0)</title></rect><rect x="396" y="199.847" width="6" height="0.153257" stroke="black" stroke-width="1" fill="blue" opacity="1" tooltip="enable"><title>(0.0836169,1)</title></rect><rect x="402" y="198.621" width="6" height="1.37931" stroke="black" stroke-width="1" fill="blue" opacity="1" tooltip="enable"><title>(0.0848838,9)</title></rect><rect x="408" y="198.774" width="6" height="1.22605" stroke="black" stroke-width="1" fill="blue" opacity="1" tooltip="enable"><title>(0.0861507,8)</title></rect><rect x="414" y="199.08" width="6" height="0.91954" stroke="black" stroke-width="1" fill="blue" opacity="1" tooltip="enable"><title>(0.0874176,6)</title></rect><rect x="420" y="199.693" width="6" height="0.306513" stroke="black" stroke-width="1" fill="blue" opacity="1" tooltip="enable"><title>(0.0886845,2)</title></rect><rect x="426" y="200" width="6" height="0" stroke="black" stroke-width="1" fill="blue" opacity="1" tooltip="enable"><title>(0.0899515,0)</title></rect><rect x="432" y="199.387" width="6" height="0.613027" stroke="black" stroke-width="1" fill="blue" opacity="1" tooltip="enable"><title>(0.0912184,4)</title></rect><rect x="438" y="198.467" width="6" height="1.53257" stroke="black" stroke-width="1" fill="blue" opacity="1" tooltip="enable"><title>(0.0924853,10)</title></rect><rect x="444" y="199.693" width="6" height="0.306513" stroke="black" stroke-width="1" fill="blue" opacity="1" tooltip="enable"><title>(0.0937522,2)</title></rect><rect x="450" y="199.693" width="6" height="0.306513" stroke="black" stroke-width="1" fill="blue" opacity="1" tooltip="enable"><title>(0.0950191,2)</title></rect><rect x="456" y="200" width="6" height="0" stroke="black" stroke-width="1" fill="blue" opacity="1" tooltip="enable"><title>(0.0962861,0)</title></rect><rect x="462" y="199.693" width="6" height="0.306513" stroke="black" stroke-width="1" fill="blue" opacity="1" tooltip="enable"><title>(0.097553,2)</title></rect><rect x="468" y="199.693" width="6" height="0.306513" stroke="black" stroke-width="1" fill="blue" opacity="1" tooltip="enable"><title>(0.0988199,2)</title></rect><rect x="474" y="200" width="6" height="0" stroke="black" stroke-width="1" fill="blue" opacity="1" tooltip="enable"><title>(0.100087,0)</title></rect><rect x="480" y="200" width="6" height="0" stroke="black" stroke-width="1" fill="blue" opacity="1" tooltip="enable"><title>(0.101354,0)</title></rect><rect x="486" y="200" width="6" height="0" stroke="black" stroke-width="1" fill="blue" opacity="1" tooltip="enable"><title>(0.102621,0)</title></rect><rect x="492" y="200" width="6" height="0" stroke="black" stroke-width="1" fill="blue" opacity="1" tooltip="enable"><title>(0.103888,0)</title></rect><rect x="498" y="199.693" width="6" height="0.306513" stroke="black" stroke-width="1" fill="blue" opacity="1" tooltip="enable"><title>(0.105155,2)</title></rect><rect x="504" y="199.693" width="6" height="0.306513" stroke="black" stroke-width="1" fill="blue" opacity="1" tooltip="enable"><title>(0.106421,2)</title></rect><rect x="510" y="199.693" width="6" height="0.306513" stroke="black" stroke-width="1" fill="blue" opacity="1" tooltip="enable"><title>(0.107688,2)</title></rect><rect x="516" y="200" width="6" height="0" stroke="black" stroke-width="1" fill="blue" opacity="1" tooltip="enable"><title>(0.108955,0)</title></rect><rect x="522" y="199.693" width="6" height="0.306513" stroke="black" stroke-width="1" fill="blue" opacity="1" tooltip="enable"><title>(0.110222,2)</title></rect><rect x="528" y="200" width="6" height="0" stroke="black" stroke-width="1" fill="blue" opacity="1" tooltip="enable"><title>(0.111489,0)</title></rect><rect x="534" y="199.08" width="6" height="0.91954" stroke="black" stroke-width="1" fill="blue" opacity="1" tooltip="enable"><title>(0.112756,6)</title></rect><rect x="540" y="200" width="6" height="0" stroke="black" stroke-width="1" fill="blue" opacity="1" tooltip="enable"><title>(0.114023,0)</title></rect><rect x="546" y="199.693" width="6" height="0.306513" stroke="black" stroke-width="1" fill="blue" opacity="1" tooltip="enable"><title>(0.11529,2)</title></rect><rect x="552" y="199.693" width="6" height="0.306513" stroke="black" stroke-width="1" fill="blue" opacity="1" tooltip="enable"><title>(0.116557,2)</title></rect><rect x="558" y="200" width="6" height="0" stroke="black" stroke-width="1" fill="blue" opacity="1" tooltip="enable"><title>(0.117824,0)</title></rect><rect x="564" y="199.693" width="6" height="0.306513" stroke="black" stroke-width="1" fill="blue" opacity="1" tooltip="enable"><title>(0.119091,2)</title></rect><rect x="570" y="200" width="6" height="0" stroke="black" stroke-width="1" fill="blue" opacity="1" tooltip="enable"><title>(0.120358,0)</title></rect><rect x="576" y="200" width="6" height="0" stroke="black" stroke-width="1" fill="blue" opacity="1" tooltip="enable"><title>(0.121624,0)</title></rect><rect x="582" y="200" width="6" height="0" stroke="black" stroke-width="1" fill="blue" opacity="1" tooltip="enable"><title>(0.122891,0)</title></rect><rect x="588" y="200" width="6" height="0" stroke="black" stroke-width="1" fill="blue" opacity="1" tooltip="enable"><title>(0.124158,0)</title></rect><rect x="594" y="199.847" width="6" height="0.153257" stroke="black" stroke-width="1" fill="blue" opacity="1" tooltip="enable"><title>(0.125425,1)</title></rect><text x="30" y="240" font-size="20" fill="black">0</text>
<text x="600" y="240" font-size="20" fill="black">0.126692</text>
<polyline points="0,220,600,220" stroke="black" stroke-width="1" fill="none" opacity="1"/>
<text x="720" y="20" font-size="20" fill="black">1305</text>
<text x="720" y="200" font-size="20" fill="black">0</text>
<polyline points="660,0,660,200" stroke="black" stroke-width="1" fill="none" opacity="1"/>
</svg>