<?xml version="1.0" standalone="yes"?>
<!-- SVG graphic -->
<svg xmlns='http://www.w3.org/2000/svg' xmlns:xlink='http://www.w3.org/1999/xlink'
 version="1.1">
<rect x="0" y="0" width="6" height="200" stroke="black" stroke-width="1" fill="blue" opacity="1" tooltip="enable"><title>(0,1981)</title></rect><rect x="6" y="40.2827" width="6" height="159.717" stroke="black" stroke-width="1" fill="blue" opacity="1" tooltip="enable"><title>(0.00176619,1582)</title></rect><rect x="12" y="103.988" width="6" height="96.0121" stroke="black" stroke-width="1" fill="blue" opacity="1" tooltip="enable"><title>(0.00353237,951)</title></rect><rect x="18" y="158.203" width="6" height="41.7971" stroke="black" stroke-width="1" fill="blue" opacity="1" tooltip="enable"><title>(0.00529856,414)</title></rect><rect x="24" y="173.347" width="6" height="26.6532" stroke="black" stroke-width="1" fill="blue" opacity="1" tooltip="enable"><title>(0.00706475,264)</title></rect><rect x="30" y="174.76" width="6" height="25.2398" stroke="black" stroke-width="1" fill="blue" opacity="1" tooltip="enable"><title>(0.00883093,250)</title></rect><rect x="36" y="174.962" width="6" height="25.0379" stroke="black" stroke-width="1" fill="blue" opacity="1" tooltip="enable"><title>(0.0105971,248)</title></rect><rect x="42" y="180.01" width="6" height="19.9899" stroke="black" stroke-width="1" fill="blue" opacity="1" tooltip="enable"><title>(0.0123633,198)</title></rect><rect x="48" y="179.606" width="6" height="20.3937" stroke="black" stroke-width="1" fill="blue" opacity="1" tooltip="enable"><title>(0.0141295,202)</title></rect><rect x="54" y="181.524" width="6" height="18.4755" stroke="black" stroke-width="1" fill="blue" opacity="1" tooltip="enable"><title>(0.0158957,183)</title></rect><rect x="60" y="180.616" width="6" height="19.3841" stroke="black" stroke-width="1" fill="blue" opacity="1" tooltip="enable"><title>(0.0176619,192)</title></rect><rect x="66" y="179.404" width="6" height="20.5957" stroke="black" stroke-width="1" fill="blue" opacity="1" tooltip="enable"><title>(0.0194281,204)</title></rect><rect x="72" y="180.919" width="6" height="19.0813" stroke="black" stroke-width="1" fill="blue" opacity="1" tooltip="enable"><title>(0.0211942,189)</title></rect><rect x="78" y="183.039" width="6" height="16.9611" stroke="black" stroke-width="1" fill="blue" opacity="1" tooltip="enable"><title>(0.0229604,168)</title></rect><rect x="84" y="182.837" width="6" height="17.163" stroke="black" stroke-width="1" fill="blue" opacity="1" tooltip="enable"><title>(0.0247266,170)</title></rect><rect x="90" y="183.847" width="6" height="16.1535" stroke="black" stroke-width="1" fill="blue" opacity="1" tooltip="enable"><title>(0.0264928,160)</title></rect><rect x="96" y="186.27" width="6" height="13.7304" stroke="black" stroke-width="1" fill="blue" opacity="1" tooltip="enable"><title>(0.028259,136)</title></rect><rect x="102" y="190.914" width="6" height="9.08632" stroke="black" stroke-width="1" fill="blue" opacity="1" tooltip="enable"><title>(0.0300252,90)</title></rect><rect x="108" y="190.813" width="6" height="9.18728" stroke="black" stroke-width="1" fill="blue" opacity="1" tooltip="enable"><title>(0.0317914,91)</title></rect><rect x="114" y="192.63" width="6" height="7.37002" stroke="black" stroke-width="1" fill="blue" opacity="1" tooltip="enable"><title>(0.0335575,73)</title></rect><rect x="120" y="194.346" width="6" height="5.65371" stroke="black" stroke-width="1" fill="blue" opacity="1" tooltip="enable"><title>(0.0353237,56)</title></rect><rect x="126" y="196.365" width="6" height="3.63453" stroke="black" stroke-width="1" fill="blue" opacity="1" tooltip="enable"><title>(0.0370899,36)</title></rect><rect x="132" y="196.365" width="6" height="3.63453" stroke="black" stroke-width="1" fill="blue" opacity="1" tooltip="enable"><title>(0.0388561,36)</title></rect><rect x="138" y="197.981" width="6" height="2.01918" stroke="black" stroke-width="1" fill="blue" opacity="1" tooltip="enable"><title>(0.0406223,20)</title></rect><rect x="144" y="197.981" width="6" height="2.01918" stroke="black" stroke-width="1" fill="blue" opacity="1" tooltip="enable"><title>(0.0423885,20)</title></rect><rect x="150" y="198.788" width="6" height="1.21151" stroke="black" stroke-width="1" fill="blue" opacity="1" tooltip="enable"><title>(0.0441547,12)</title></rect><rect x="156" y="197.779" width="6" height="2.2211" stroke="black" stroke-width="1" fill="blue" opacity="1" tooltip="enable"><title>(0.0459208,22)</title></rect><rect x="162" y="198.587" width="6" height="1.41343" stroke="black" stroke-width="1" fill="blue" opacity="1" tooltip="enable"><title>(0.047687,14)</title></rect><rect x="168" y="197.981" width="6" height="2.01918" stroke="black" stroke-width="1" fill="blue" opacity="1" tooltip="enable"><title>(0.0494532,20)</title></rect><rect x="174" y="199.798" width="6" height="0.201918" stroke="black" stroke-width="1" fill="blue" opacity="1" tooltip="enable"><title>(0.0512194,2)</title></rect><rect x="180" y="199.394" width="6" height="0.605755" stroke="black" stroke-width="1" fill="blue" opacity="1" tooltip="enable"><title>(0.0529856,6)</title></rect><rect x="186" y="199.798" width="6" height="0.201918" stroke="black" stroke-width="1" fill="blue" opacity="1" tooltip="enable"><title>(0.0547518,2)</title></rect><rect x="192" y="199.596" width="6" height="0.403836" stroke="black" stroke-width="1" fill="blue" opacity="1" tooltip="enable"><title>(0.056518,4)</title></rect><rect x="198" y="200" width="6" height="0" stroke="black" stroke-width="1" fill="blue" opacity="1" tooltip="enable"><title>(0.0582842,0)</title></rect><rect x="204" y="199.798" width="6" height="0.201918" stroke="black" stroke-width="1" fill="blue" opacity="1" tooltip="enable"><title>(0.0600503,2)</title></rect><rect x="210" y="200" width="6" height="0" stroke="black" stroke-width="1" fill="blue" opacity="1" tooltip="enable"><title>(0.0618165,0)</title></rect><rect x="216" y="200" width="6" height="0" stroke="black" stroke-width="1" fill="blue" opacity="1" tooltip="enable"><title>(0.0635827,0)</title></rect><rect x="222" y="200" width="6" height="0" stroke="black" stroke-width="1" fill="blue" opacity="1" tooltip="enable"><title>(0.0653489,0)</title></rect><rect x="228" y="200" width="6" height="0" stroke="black" stroke-width="1" fill="blue" opacity="1" tooltip="enable"><title>(0.0671151,0)</title></rect><rect x="234" y="200" width="6" height="0" stroke="black" stroke-width="1" fill="blue" opacity="1" tooltip="enable"><title>(0.0688813,0)</title></rect><rect x="240" y="200" width="6" height="0" stroke="black" stroke-width="1" fill="blue" opacity="1" tooltip="enable"><title>(0.0706475,0)</title></rect><rect x="246" y="200" width="6" height="0" stroke="black" stroke-width="1" fill="blue" opacity="1" tooltip="enable"><title>(0.0724136,0)</title></rect><rect x="252" y="200" width="6" height="0" stroke="black" stroke-width="1" fill="blue" opacity="1" tooltip="enable"><title>(0.0741798,0)</title></rect><rect x="258" y="200" width="6" height="0" stroke="black" stroke-width="1" fill="blue" opacity="1" tooltip="enable"><title>(0.075946,0)</title></rect><rect x="264" y="200" width="6" height="0" stroke="black" stroke-width="1" fill="blue" opacity="1" tooltip="enable"><title>(0.0777122,0)</title></rect><rect x="270" y="200" width="6" height="0" stroke="black" stroke-width="1" fill="blue" opacity="1" tooltip="enable"><title>(0.0794784,0)</title></rect><rect x="276" y="200" width="6" height="0" stroke="black" stroke-width="1" fill="blue" opacity="1" tooltip="enable"><title>(0.0812446,0)</title></rect><rect x="282" y="200" width="6" height="0" stroke="black" stroke-width="1" fill="blue" opacity="1" tooltip="enable"><title>(0.0830108,0)</title></rect><rect x="288" y="200" width="6" height="0" stroke="black" stroke-width="1" fill="blue" opacity="1" tooltip="enable"><title>(0.0847769,0)</title></rect><rect x="294" y="200" width="6" height="0" stroke="black" stroke-width="1" fill="blue" opacity="1" tooltip="enable"><title>(0.0865431,0)</title></rect><rect x="300" y="200" width="6" height="0" stroke="black" stroke-width="1" fill="blue" opacity="1" tooltip="enable"><title>(0.0883093,0)</title></rect><rect x="306" y="200" width="6" height="0" stroke="black" stroke-width="1" fill="blue" opacity="1" tooltip="enable"><title>(0.0900755,0)</title></rect><rect x="312" y="200" width="6" height="0" stroke="black" stroke-width="1" fill="blue" opacity="1" tooltip="enable"><title>(0.0918417,0)</title></rect><rect x="318" y="200" width="6" height="0" stroke="black" stroke-width="1" fill="blue" opacity="1" tooltip="enable"><title>(0.0936079,0)</title></rect><rect x="324" y="200" width="6" height="0" stroke="black" stroke-width="1" fill="blue" opacity="1" tooltip="enable"><title>(0.0953741,0)</title></rect><rect x="330" y="200" width="6" height="0" stroke="black" stroke-width="1" fill="blue" opacity="1" tooltip="enable"><title>(0.0971403,0)</title></rect><rect x="336" y="200" width="6" height="0" stroke="black" stroke-width="1" fill="blue" opacity="1" tooltip="enable"><title>(0.0989064,0)</title></rect><rect x="342" y="200" width="6" height="0" stroke="black" stroke-width="1" fill="blue" opacity="1" tooltip="enable"><title>(0.100673,0)</title></rect><rect x="348" y="200" width="6" height="0" stroke="black" stroke-width="1" fill="blue" opacity="1" tooltip="enable"><title>(0.102439,0)</title></rect><rect x="354" y="200" width="6" height="0" stroke="black" stroke-width="1" fill="blue" opacity="1" tooltip="enable"><title>(0.104205,0)</title></rect><rect x="360" y="200" width="6" height="0" stroke="black" stroke-width="1" fill="blue" opacity="1" tooltip="enable"><title>(0.105971,0)</title></rect><rect x="366" y="200" width="6" height="0" stroke="black" stroke-width="1" fill="blue" opacity="1" tooltip="enable"><title>(0.107737,0)</title></rect><rect x="372" y="200" width="6" height="0" stroke="black" stroke-width="1" fill="blue" opacity="1" tooltip="enable"><title>(0.109504,0)</title></rect><rect x="378" y="200" width="6" height="0" stroke="black" stroke-width="1" fill="blue" opacity="1" tooltip="enable"><title>(0.11127,0)</title></rect><rect x="384" y="200" width="6" height="0" stroke="black" stroke-width="1" fill="blue" opacity="1" tooltip="enable"><title>(0.113036,0)</title></rect><rect x="390" y="200" width="6" height="0" stroke="black" stroke-width="1" fill="blue" opacity="1" tooltip="enable"><title>(0.114802,0)</title></rect><rect x="396" y="200" width="6" height="0" stroke="black" stroke-width="1" fill="blue" opacity="1" tooltip="enable"><title>(0.116568,0)</title></rect><rect x="402" y="200" width="6" height="0" stroke="black" stroke-width="1" fill="blue" opacity="1" tooltip="enable"><title>(0.118334,0)</title></rect><rect x="408" y="200" width="6" height="0" stroke="black" stroke-width="1" fill="blue" opacity="1" tooltip="enable"><title>(0.120101,0)</title></rect><rect x="414" y="200" width="6" height="0" stroke="black" stroke-width="1" fill="blue" opacity="1" tooltip="enable"><title>(0.121867,0)</title></rect><rect x="420" y="200" width="6" height="0" stroke="black" stroke-width="1" fill="blue" opacity="1" tooltip="enable"><title>(0.123633,0)</title></rect><rect x="426" y="200" width="6" height="0" stroke="black" stroke-width="1" fill="blue" opacity="1" tooltip="enable"><title>(0.125399,0)</title></rect><rect x="432" y="200" width="6" height="0" stroke="black" stroke-width="1" fill="blue" opacity="1" tooltip="enable"><title>(0.127165,0)</title></rect><rect x="438" y="200" width="6" height="0" stroke="black" stroke-width="1" fill="blue" opacity="1" tooltip="enable"><title>(0.128932,0)</title></rect><rect x="444" y="200" width="6" height="0" stroke="black" stroke-width="1" fill="blue" opacity="1" tooltip="enable"><title>(0.130698,0)</title></rect><rect x="450" y="200" width="6" height="0" stroke="black" stroke-width="1" fill="blue" opacity="1" tooltip="enable"><title>(0.132464,0)</title></rect><rect x="456" y="200" width="6" height="0" stroke="black" stroke-width="1" fill="blue" opacity="1" tooltip="enable"><title>(0.13423,0)</title></rect><rect x="462" y="200" width="6" height="0" stroke="black" stroke-width="1" fill="blue" opacity="1" tooltip="enable"><title>(0.135996,0)</title></rect><rect x="468" y="200" width="6" height="0" stroke="black" stroke-width="1" fill="blue" opacity="1" tooltip="enable"><title>(0.137763,0)</title></rect><rect x="474" y="200" width="6" height="0" stroke="black" stroke-width="1" fill="blue" opacity="1" tooltip="enable"><title>(0.139529,0)</title></rect><rect x="480" y="200" width="6" height="0" stroke="black" stroke-width="1" fill="blue" opacity="1" tooltip="enable"><title>(0.141295,0)</title></rect><rect x="486" y="200" width="6" height="0" stroke="black" stroke-width="1" fill="blue" opacity="1" tooltip="enable"><title>(0.143061,0)</title></rect><rect x="492" y="200" width="6" height="0" stroke="black" stroke-width="1" fill="blue" opacity="1" tooltip="enable"><title>(0.144827,0)</title></rect><rect x="498" y="200" width="6" height="0" stroke="black" stroke-width="1" fill="blue" opacity="1" tooltip="enable"><title>(0.146593,0)</title></rect><rect x="504" y="200" width="6" height="0" stroke="black" stroke-width="1" fill="blue" opacity="1" tooltip="enable"><title>(0.14836,0)</title></rect><rect x="510" y="200" width="6" height="0" stroke="black" stroke-width="1" fill="blue" opacity="1" tooltip="enable"><title>(0.150126,0)</title></rect><rect x="516" y="200" width="6" height="0" stroke="black" stroke-width="1" fill="blue" opacity="1" tooltip="enable"><title>(0.151892,0)</title></rect><rect x="522" y="200" width="6" height="0" stroke="black" stroke-width="1" fill="blue" opacity="1" tooltip="enable"><title>(0.153658,0)</title></rect><rect x="528" y="200" width="6" height="0" stroke="black" stroke-width="1" fill="blue" opacity="1" tooltip="enable"><title>(0.155424,0)</title></rect><rect x="534" y="200" width="6" height="0" stroke="black" stroke-width="1" fill="blue" opacity="1" tooltip="enable"><title>(0.157191,0)</title></rect><rect x="540" y="200" width="6" height="0" stroke="black" stroke-width="1" fill="blue" opacity="1" tooltip="enable"><title>(0.158957,0)</title></rect><rect x="546" y="200" width="6" height="0" stroke="black" stroke-width="1" fill="blue" opacity="1" tooltip="enable"><title>(0.160723,0)</title></rect><rect x="552" y="200" width="6" height="0" stroke="black" stroke-width="1" fill="blue" opacity="1" tooltip="enable"><title>(0.162489,0)</title></rect><rect x="558" y="200" width="6" height="0" stroke="black" stroke-width="1" fill="blue" opacity="1" tooltip="enable"><title>(0.164255,0)</title></rect><rect x="564" y="200" width="6" height="0" stroke="black" stroke-width="1" fill="blue" opacity="1" tooltip="enable"><title>(0.166022,0)</title></rect><rect x="570" y="200" width="6" height="0" stroke="black" stroke-width="1" fill="blue" opacity="1" tooltip="enable"><title>(0.167788,0)</title></rect><rect x="576" y="200" width="6" height="0" stroke="black" stroke-width="1" fill="blue" opacity="1" tooltip="enable"><title>(0.169554,0)</title></rect><rect x="582" y="200" width="6" height="0" stroke="black" stroke-width="1" fill="blue" opacity="1" tooltip="enable"><title>(0.17132,0)</title></rect><rect x="588" y="200" width="6" height="0" stroke="black" stroke-width="1" fill="blue" opacity="1" tooltip="enable"><title>(0.173086,0)</title></rect><rect x="594" y="199.899" width="6" height="0.100959" stroke="black" stroke-width="1" fill="blue" opacity="1" tooltip="enable"><title>(0.174852,1)</title></rect><text x="30" y="240" font-size="20" fill="black">0</text>
<text x="600" y="240" font-size="20" fill="black">0.176619</text>
<polyline points="0,220,600,220" stroke="black" stroke-width="1" fill="none" opacity="1"/>
<text x="720" y="20" font-size="20" fill="black">1981</text>
<text x="720" y="200" font-size="20" fill="black">0</text>
<polyline points="660,0,660,200" stroke="black" stroke-width="1" fill="none" opacity="1"/>
</svg>