<?xml version="1.0" standalone="yes"?>
<!-- SVG graphic -->
<svg xmlns='http://www.w3.org/2000/svg' xmlns:xlink='http://www.w3.org/1999/xlink'
width="65px" height="65px" preserveAspectRatio="xMinYMin meet" viewBox="0 0 65 65" version="1.1">
<rect x="5" y="0" width="2.5" height="2.5" fill="rgb(172,0,82)" opacity="1"/>
<rect x="10" y="0" width="2.5" height="2.5" fill="rgb(62,0,192)" opacity="1"/>
<rect x="15" y="0" width="2.5" height="2.5" fill="rgb(39,0,215)" opacity="1"/>
<rect x="20" y="0" width="2.5" height="2.5" fill="rgb(24,0,230)" opacity="1"/>
<rect x="25" y="0" width="2.5" height="2.5" fill="rgb(16,0,238)" opacity="1"/>
<rect x="30" y="0" width="2.5" height="2.5" fill="rgb(13,0,241)" opacity="1"/>
<rect x="35" y="0" width="2.5" height="2.5" fill="rgb(12,0,242)" opacity="1"/>
<rect x="40" y="0" width="2.5" height="2.5" fill="rgb(9,0,245)" opacity="1"/>
<rect x="45" y="0" width="2.5" height="2.5" fill="rgb(9,0,245)" opacity="1"/>
<rect x="10" y="5" width="2.5" height="2.5" fill="rgb(172,0,82)" opacity="1"/>
<rect x="15" y="5" width="2.5" height="2.5" fill="rgb(88,0,166)" opacity="1"/>
<rect x="20" y="5" width="2.5" height="2.5" fill="rgb(38,0,216)" opacity="1"/>
<rect x="25" y="5" width="2.5" height="2.5" fill="rgb(23,0,231)" opacity="1"/>
<rect x="30" y="5" width="2.5" height="2.5" fill="rgb(16,0,238)" opacity="1"/>
<rect x="35" y="5" width="2.5" height="2.5" fill="rgb(14,0,240)" opacity="1"/>
<rect x="40" y="5" width="2.5" height="2.5" fill="rgb(11,0,243)" opacity="1"/>
<rect x="45" y="5" width="2.5" height="2.5" fill="rgb(10,0,244)" opacity="1"/>
<rect x="15" y="10" width="2.5" height="2.5" fill="rgb(255,0,0)" opacity="1"/>
<rect x="20" y="10" width="2.5" height="2.5" fill="rgb(87,0,167)" opacity="1"/>
<rect x="25" y="10" width="2.5" height="2.5" fill="rgb(40,0,214)" opacity="1"/>
<rect x="30" y="10" width="2.5" height="2.5" fill="rgb(21,0,233)" opacity="1"/>
<rect x="35" y="10" width="2.5" height="2.5" fill="rgb(17,0,237)" opacity="1"/>
<rect x="40" y="10" width="2.5" height="2.5" fill="rgb(12,0,242)" opacity="1"/>
<rect x="45" y="10" width="2.5" height="2.5" fill="rgb(11,0,243)" opacity="1"/>
<rect x="20" y="15" width="2.5" height="2.5" fill="rgb(183,0,71)" opacity="1"/>
<rect x="25" y="15" width="2.5" height="2.5" fill="rgb(62,0,192)" opacity="1"/>
<rect x="30" y="15" width="2.5" height="2.5" fill="rgb(29,0,225)" opacity="1"/>
<rect x="35" y="15" width="2.5" height="2.5" fill="rgb(18,0,236)" opacity="1"/>
<rect x="40" y="15" width="2.5" height="2.5" fill="rgb(14,0,240)" opacity="1"/>
<rect x="45" y="15" width="2.5" height="2.5" fill="rgb(11,0,243)" opacity="1"/>
<rect x="25" y="20" width="2.5" height="2.5" fill="rgb(174,0,80)" opacity="1"/>
<rect x="30" y="20" width="2.5" height="2.5" fill="rgb(64,0,190)" opacity="1"/>
<rect x="35" y="20" width="2.5" height="2.5" fill="rgb(30,0,224)" opacity="1"/>
<rect x="40" y="20" width="2.5" height="2.5" fill="rgb(18,0,236)" opacity="1"/>
<rect x="45" y="20" width="2.5" height="2.5" fill="rgb(14,0,240)" opacity="1"/>
<rect x="30" y="25" width="2.5" height="2.5" fill="rgb(170,0,84)" opacity="1"/>
<rect x="35" y="25" width="2.5" height="2.5" fill="rgb(61,0,193)" opacity="1"/>
<rect x="40" y="25" width="2.5" height="2.5" fill="rgb(28,0,226)" opacity="1"/>
<rect x="45" y="25" width="2.5" height="2.5" fill="rgb(17,0,237)" opacity="1"/>
<rect x="35" y="30" width="2.5" height="2.5" fill="rgb(174,0,80)" opacity="1"/>
<rect x="40" y="30" width="2.5" height="2.5" fill="rgb(62,0,192)" opacity="1"/>
<rect x="45" y="30" width="2.5" height="2.5" fill="rgb(29,0,225)" opacity="1"/>
<rect x="40" y="35" width="2.5" height="2.5" fill="rgb(170,0,84)" opacity="1"/>
<rect x="45" y="35" width="2.5" height="2.5" fill="rgb(64,0,190)" opacity="1"/>
<rect x="45" y="40" width="2.5" height="2.5" fill="rgb(177,0,77)" opacity="1"/>
<text x="55" y="5" font-size="5" fill="black">0</text>
<text x="55" y="45" font-size="5" fill="black">10</text>
<polyline points="55,10,55,40" stroke="black" stroke-width="1" fill="none" opacity="1"/>
<text x="5" y="55" font-size="5" fill="black">0</text>
<text x="45" y="55" font-size="5" fill="black">10</text>
<polyline points="10,55,40,55" stroke="black" stroke-width="1" fill="none" opacity="1"/>
</svg>