<?xml version="1.0" encoding="UTF-8" standalone="no"?>
<!DOCTYPE svg PUBLIC "-//W3C//DTD SVG 1.1//EN"
 "http://www.w3.org/Graphics/SVG/1.1/DTD/svg11.dtd">
<!-- Generated by graphviz version 2.43.0 (0)
 -->
<!-- Title: 1 Pages: 1 -->
<svg width="263pt" height="266pt"
 viewBox="0.00 0.00 263.24 266.27" xmlns="http://www.w3.org/2000/svg" xmlns:xlink="http://www.w3.org/1999/xlink">
<g id="graph0" class="graph" transform="scale(1 1) rotate(0) translate(4 262.27)">
<title>1</title>
<polygon fill="white" stroke="transparent" points="-4,4 -4,-262.27 259.24,-262.27 259.24,4 -4,4"/>
<!-- n8 -->
<g id="node1" class="node">
<title>n8</title>
<ellipse fill="none" stroke="black" cx="22.75" cy="-132.86" rx="23" ry="23"/>
<text text-anchor="middle" x="22.75" y="-129.16" font-family="Times,serif" font-size="14.00">n8</text>
</g>
<!-- n9 -->
<g id="node2" class="node">
<title>n9</title>
<ellipse fill="none" stroke="black" cx="230.88" cy="-167.66" rx="23" ry="23"/>
<text text-anchor="middle" x="230.88" y="-163.96" font-family="Times,serif" font-size="14.00">n9</text>
</g>
<!-- n8&#45;&#45;n9 -->
<g id="edge1" class="edge">
<title>n8&#45;&#45;n9</title>
<path fill="none" stroke="black" d="M45.42,-136.65C85.45,-143.34 168.22,-157.18 208.23,-163.87"/>
</g>
<!-- n7 -->
<g id="node3" class="node">
<title>n7</title>
<ellipse fill="none" stroke="black" cx="110.69" cy="-22.75" rx="23" ry="23"/>
<text text-anchor="middle" x="110.69" y="-19.05" font-family="Times,serif" font-size="14.00">n7</text>
</g>
<!-- n7&#45;&#45;n8 -->
<g id="edge3" class="edge">
<title>n7&#45;&#45;n8</title>
<path fill="none" stroke="black" d="M96.17,-40.93C79.78,-61.45 53.28,-94.63 37,-115.01"/>
</g>
<!-- n7&#45;&#45;n9 -->
<g id="edge2" class="edge">
<title>n7&#45;&#45;n9</title>
<path fill="none" stroke="black" d="M125.43,-40.52C148.49,-68.33 192.88,-121.84 216.02,-149.74"/>
</g>
<!-- n6 -->
<g id="node4" class="node">
<title>n6</title>
<ellipse fill="none" stroke="black" cx="112.93" cy="-235.52" rx="23" ry="23"/>
<text text-anchor="middle" x="112.93" y="-231.82" font-family="Times,serif" font-size="14.00">n6</text>
</g>
<!-- n6&#45;&#45;n8 -->
<g id="edge5" class="edge">
<title>n6&#45;&#45;n8</title>
<path fill="none" stroke="black" d="M97.63,-218.11C80.95,-199.11 54.41,-168.91 37.82,-150.02"/>
</g>
<!-- n6&#45;&#45;n9 -->
<g id="edge4" class="edge">
<title>n6&#45;&#45;n9</title>
<path fill="none" stroke="black" d="M132.67,-224.17C154.44,-211.64 189.27,-191.6 211.07,-179.06"/>
</g>
<!-- n6&#45;&#45;n7 -->
<g id="edge6" class="edge">
<title>n6&#45;&#45;n7</title>
<path fill="none" stroke="black" d="M112.69,-212.75C112.26,-171.91 111.36,-86.64 110.93,-45.68"/>
</g>
<!-- n5 -->
<g id="node5" class="node">
<title>n5</title>
<ellipse fill="none" stroke="black" cx="183.18" cy="-221.15" rx="23" ry="23"/>
<text text-anchor="middle" x="183.18" y="-217.45" font-family="Times,serif" font-size="14.00">n5</text>
</g>
<!-- n5&#45;&#45;n8 -->
<g id="edge8" class="edge">
<title>n5&#45;&#45;n8</title>
<path fill="none" stroke="black" d="M163.19,-210.15C132.36,-193.18 73.57,-160.83 42.74,-143.86"/>
</g>
<!-- n5&#45;&#45;n9 -->
<g id="edge7" class="edge">
<title>n5&#45;&#45;n9</title>
<path fill="none" stroke="black" d="M198.54,-203.93C203.98,-197.83 210.11,-190.95 215.55,-184.85"/>
</g>
<!-- n5&#45;&#45;n7 -->
<g id="edge9" class="edge">
<title>n5&#45;&#45;n7</title>
<path fill="none" stroke="black" d="M175.29,-199.54C161.34,-161.38 132.51,-82.48 118.58,-44.33"/>
</g>
<!-- n5&#45;&#45;n6 -->
<g id="edge10" class="edge">
<title>n5&#45;&#45;n6</title>
<path fill="none" stroke="black" d="M160.57,-225.78C152.55,-227.42 143.52,-229.27 135.5,-230.91"/>
</g>
<!-- n4 -->
<g id="node6" class="node">
<title>n4</title>
<ellipse fill="none" stroke="black" cx="52.07" cy="-198.51" rx="23" ry="23"/>
<text text-anchor="middle" x="52.07" y="-194.81" font-family="Times,serif" font-size="14.00">n4</text>
</g>
<!-- n4&#45;&#45;n8 -->
<g id="edge12" class="edge">
<title>n4&#45;&#45;n8</title>
<path fill="none" stroke="black" d="M42.8,-177.74C39.37,-170.07 35.49,-161.39 32.07,-153.72"/>
</g>
<!-- n4&#45;&#45;n9 -->
<g id="edge11" class="edge">
<title>n4&#45;&#45;n9</title>
<path fill="none" stroke="black" d="M74.72,-194.6C109.11,-188.67 174.13,-177.45 208.41,-171.53"/>
</g>
<!-- n4&#45;&#45;n7 -->
<g id="edge13" class="edge">
<title>n4&#45;&#45;n7</title>
<path fill="none" stroke="black" d="M59.38,-176.6C70.67,-142.74 92.24,-78.07 103.48,-44.38"/>
</g>
<!-- n4&#45;&#45;n6 -->
<g id="edge14" class="edge">
<title>n4&#45;&#45;n6</title>
<path fill="none" stroke="black" d="M71.66,-210.43C78.61,-214.65 86.43,-219.41 93.38,-223.63"/>
</g>
<!-- n4&#45;&#45;n5 -->
<g id="edge15" class="edge">
<title>n4&#45;&#45;n5</title>
<path fill="none" stroke="black" d="M74.61,-202.4C98.63,-206.55 136.43,-213.08 160.5,-217.24"/>
</g>
<!-- n3 -->
<g id="node7" class="node">
<title>n3</title>
<ellipse fill="none" stroke="black" cx="46.61" cy="-62.42" rx="23" ry="23"/>
<text text-anchor="middle" x="46.61" y="-58.72" font-family="Times,serif" font-size="14.00">n3</text>
</g>
<!-- n3&#45;&#45;n8 -->
<g id="edge17" class="edge">
<title>n3&#45;&#45;n8</title>
<path fill="none" stroke="black" d="M39.19,-84.32C36.29,-92.88 32.97,-102.67 30.08,-111.21"/>
</g>
<!-- n3&#45;&#45;n9 -->
<g id="edge16" class="edge">
<title>n3&#45;&#45;n9</title>
<path fill="none" stroke="black" d="M66.68,-73.88C102.22,-94.18 175.79,-136.2 211.11,-156.37"/>
</g>
<!-- n3&#45;&#45;n7 -->
<g id="edge18" class="edge">
<title>n3&#45;&#45;n7</title>
<path fill="none" stroke="black" d="M66.18,-50.3C74.13,-45.38 83.3,-39.71 91.23,-34.79"/>
</g>
<!-- n3&#45;&#45;n6 -->
<g id="edge19" class="edge">
<title>n3&#45;&#45;n6</title>
<path fill="none" stroke="black" d="M54.87,-83.99C67.65,-117.34 92.05,-181.03 104.77,-214.22"/>
</g>
<!-- n3&#45;&#45;n5 -->
<g id="edge20" class="edge">
<title>n3&#45;&#45;n5</title>
<path fill="none" stroke="black" d="M61.48,-79.71C87.75,-110.24 142.07,-173.37 168.33,-203.89"/>
</g>
<!-- n3&#45;&#45;n4 -->
<g id="edge21" class="edge">
<title>n3&#45;&#45;n4</title>
<path fill="none" stroke="black" d="M47.52,-85.2C48.53,-110.32 50.15,-150.5 51.16,-175.66"/>
</g>
<!-- n2 -->
<g id="node8" class="node">
<title>n2</title>
<ellipse fill="none" stroke="black" cx="232.49" cy="-94.32" rx="23" ry="23"/>
<text text-anchor="middle" x="232.49" y="-90.62" font-family="Times,serif" font-size="14.00">n2</text>
</g>
<!-- n2&#45;&#45;n8 -->
<g id="edge23" class="edge">
<title>n2&#45;&#45;n8</title>
<path fill="none" stroke="black" d="M210.05,-98.45C169.78,-105.84 85.73,-121.29 45.35,-128.7"/>
</g>
<!-- n2&#45;&#45;n9 -->
<g id="edge22" class="edge">
<title>n2&#45;&#45;n9</title>
<path fill="none" stroke="black" d="M231.99,-117.13C231.79,-125.96 231.57,-136.04 231.38,-144.87"/>
</g>
<!-- n2&#45;&#45;n7 -->
<g id="edge24" class="edge">
<title>n2&#45;&#45;n7</title>
<path fill="none" stroke="black" d="M212.65,-82.66C190,-69.35 153.17,-47.71 130.52,-34.4"/>
</g>
<!-- n2&#45;&#45;n6 -->
<g id="edge25" class="edge">
<title>n2&#45;&#45;n6</title>
<path fill="none" stroke="black" d="M217.59,-111.92C194.55,-139.13 150.57,-191.08 127.64,-218.15"/>
</g>
<!-- n2&#45;&#45;n5 -->
<g id="edge26" class="edge">
<title>n2&#45;&#45;n5</title>
<path fill="none" stroke="black" d="M224.24,-115.55C215.14,-138.96 200.58,-176.42 191.46,-199.86"/>
</g>
<!-- n2&#45;&#45;n4 -->
<g id="edge27" class="edge">
<title>n2&#45;&#45;n4</title>
<path fill="none" stroke="black" d="M212.49,-105.87C177.72,-125.95 106.53,-167.06 71.89,-187.07"/>
</g>
<!-- n2&#45;&#45;n3 -->
<g id="edge28" class="edge">
<title>n2&#45;&#45;n3</title>
<path fill="none" stroke="black" d="M210.07,-90.47C174.34,-84.34 104.89,-72.42 69.11,-66.28"/>
</g>
<!-- n1 -->
<g id="node9" class="node">
<title>n1</title>
<ellipse fill="none" stroke="black" cx="131.1" cy="-122.52" rx="23" ry="23"/>
<text text-anchor="middle" x="131.1" y="-118.82" font-family="Times,serif" font-size="14.00">n1</text>
</g>
<!-- n1&#45;&#45;n8 -->
<g id="edge30" class="edge">
<title>n1&#45;&#45;n8</title>
<path fill="none" stroke="black" d="M108.39,-124.69C89.9,-126.45 63.92,-128.93 45.43,-130.69"/>
</g>
<!-- n1&#45;&#45;n9 -->
<g id="edge29" class="edge">
<title>n1&#45;&#45;n9</title>
<path fill="none" stroke="black" d="M152.26,-132.09C169.31,-139.81 193.14,-150.59 210.09,-158.26"/>
</g>
<!-- n1&#45;&#45;n7 -->
<g id="edge31" class="edge">
<title>n1&#45;&#45;n7</title>
<path fill="none" stroke="black" d="M126.47,-99.88C123.13,-83.55 118.64,-61.61 115.3,-45.3"/>
</g>
<!-- n1&#45;&#45;n6 -->
<g id="edge32" class="edge">
<title>n1&#45;&#45;n6</title>
<path fill="none" stroke="black" d="M127.47,-145.12C124.3,-164.83 119.73,-193.27 116.56,-212.97"/>
</g>
<!-- n1&#45;&#45;n5 -->
<g id="edge33" class="edge">
<title>n1&#45;&#45;n5</title>
<path fill="none" stroke="black" d="M141.89,-142.96C150.83,-159.89 163.47,-183.82 172.41,-200.74"/>
</g>
<!-- n1&#45;&#45;n4 -->
<g id="edge34" class="edge">
<title>n1&#45;&#45;n4</title>
<path fill="none" stroke="black" d="M114.34,-138.64C100.84,-151.62 81.96,-169.77 68.54,-182.68"/>
</g>
<!-- n1&#45;&#45;n3 -->
<g id="edge35" class="edge">
<title>n1&#45;&#45;n3</title>
<path fill="none" stroke="black" d="M112.35,-109.18C98.35,-99.22 79.3,-85.67 65.31,-75.72"/>
</g>
<!-- n1&#45;&#45;n2 -->
<g id="edge36" class="edge">
<title>n1&#45;&#45;n2</title>
<path fill="none" stroke="black" d="M153.1,-116.4C170.11,-111.67 193.54,-105.16 210.53,-100.43"/>
</g>
<!-- n0 -->
<g id="node10" class="node">
<title>n0</title>
<ellipse fill="none" stroke="black" cx="185.58" cy="-35.93" rx="23" ry="23"/>
<text text-anchor="middle" x="185.58" y="-32.23" font-family="Times,serif" font-size="14.00">n0</text>
</g>
<!-- n0&#45;&#45;n8 -->
<g id="edge38" class="edge">
<title>n0&#45;&#45;n8</title>
<path fill="none" stroke="black" d="M165.94,-47.62C134.64,-66.25 73.8,-102.47 42.46,-121.12"/>
</g>
<!-- n0&#45;&#45;n9 -->
<g id="edge37" class="edge">
<title>n0&#45;&#45;n9</title>
<path fill="none" stroke="black" d="M193.06,-57.68C201.45,-82.09 214.99,-121.45 223.38,-145.87"/>
</g>
<!-- n0&#45;&#45;n7 -->
<g id="edge39" class="edge">
<title>n0&#45;&#45;n7</title>
<path fill="none" stroke="black" d="M163.11,-31.97C153.63,-30.31 142.62,-28.37 133.14,-26.7"/>
</g>
<!-- n0&#45;&#45;n6 -->
<g id="edge40" class="edge">
<title>n0&#45;&#45;n6</title>
<path fill="none" stroke="black" d="M177.67,-57.67C163.65,-96.16 134.65,-175.85 120.72,-214.11"/>
</g>
<!-- n0&#45;&#45;n5 -->
<g id="edge41" class="edge">
<title>n0&#45;&#45;n5</title>
<path fill="none" stroke="black" d="M185.28,-59.01C184.82,-94.7 183.94,-162.85 183.48,-198.36"/>
</g>
<!-- n0&#45;&#45;n4 -->
<g id="edge42" class="edge">
<title>n0&#45;&#45;n4</title>
<path fill="none" stroke="black" d="M171.04,-53.64C145.36,-84.91 92.27,-149.56 66.6,-180.82"/>
</g>
<!-- n0&#45;&#45;n3 -->
<g id="edge43" class="edge">
<title>n0&#45;&#45;n3</title>
<path fill="none" stroke="black" d="M162.94,-40.24C137.1,-45.17 95.07,-53.18 69.23,-58.1"/>
</g>
<!-- n0&#45;&#45;n2 -->
<g id="edge44" class="edge">
<title>n0&#45;&#45;n2</title>
<path fill="none" stroke="black" d="M199.91,-53.77C205.62,-60.88 212.19,-69.05 217.93,-76.19"/>
</g>
<!-- n0&#45;&#45;n1 -->
<g id="edge45" class="edge">
<title>n0&#45;&#45;n1</title>
<path fill="none" stroke="black" d="M173.22,-55.58C164.24,-69.85 152.15,-89.07 143.23,-103.25"/>
</g>
</g>
</svg>
