<?xml version="1.0" standalone="yes"?>
<!-- SVG graphic -->
<svg xmlns='http://www.w3.org/2000/svg' xmlns:xlink='http://www.w3.org/1999/xlink'
 version="1.1">
<rect x="0" y="0" width="6" height="200" stroke="black" stroke-width="1" fill="blue" opacity="1" tooltip="enable"><title>(0,1372)</title></rect><rect x="6" y="13.8484" width="6" height="186.152" stroke="black" stroke-width="1" fill="blue" opacity="1" tooltip="enable"><title>(0.00126431,1277)</title></rect><rect x="12" y="71.2828" width="6" height="128.717" stroke="black" stroke-width="1" fill="blue" opacity="1" tooltip="enable"><title>(0.00252861,883)</title></rect><rect x="18" y="122.595" width="6" height="77.4052" stroke="black" stroke-width="1" fill="blue" opacity="1" tooltip="enable"><title>(0.00379292,531)</title></rect><rect x="24" y="152.187" width="6" height="47.8134" stroke="black" stroke-width="1" fill="blue" opacity="1" tooltip="enable"><title>(0.00505723,328)</title></rect><rect x="30" y="160.058" width="6" height="39.9417" stroke="black" stroke-width="1" fill="blue" opacity="1" tooltip="enable"><title>(0.00632154,274)</title></rect><rect x="36" y="164.869" width="6" height="35.1312" stroke="black" stroke-width="1" fill="blue" opacity="1" tooltip="enable"><title>(0.00758584,241)</title></rect><rect x="42" y="175.219" width="6" height="24.7813" stroke="black" stroke-width="1" fill="blue" opacity="1" tooltip="enable"><title>(0.00885015,170)</title></rect><rect x="48" y="178.426" width="6" height="21.5743" stroke="black" stroke-width="1" fill="blue" opacity="1" tooltip="enable"><title>(0.0101145,148)</title></rect><rect x="54" y="181.341" width="6" height="18.6589" stroke="black" stroke-width="1" fill="blue" opacity="1" tooltip="enable"><title>(0.0113788,128)</title></rect><rect x="60" y="180.758" width="6" height="19.242" stroke="black" stroke-width="1" fill="blue" opacity="1" tooltip="enable"><title>(0.0126431,132)</title></rect><rect x="66" y="176.822" width="6" height="23.1778" stroke="black" stroke-width="1" fill="blue" opacity="1" tooltip="enable"><title>(0.0139074,159)</title></rect><rect x="72" y="177.405" width="6" height="22.5948" stroke="black" stroke-width="1" fill="blue" opacity="1" tooltip="enable"><title>(0.0151717,155)</title></rect><rect x="78" y="179.883" width="6" height="20.1166" stroke="black" stroke-width="1" fill="blue" opacity="1" tooltip="enable"><title>(0.016436,138)</title></rect><rect x="84" y="184.257" width="6" height="15.7434" stroke="black" stroke-width="1" fill="blue" opacity="1" tooltip="enable"><title>(0.0177003,108)</title></rect><rect x="90" y="179.883" width="6" height="20.1166" stroke="black" stroke-width="1" fill="blue" opacity="1" tooltip="enable"><title>(0.0189646,138)</title></rect><rect x="96" y="186.006" width="6" height="13.9942" stroke="black" stroke-width="1" fill="blue" opacity="1" tooltip="enable"><title>(0.0202289,96)</title></rect><rect x="102" y="187.464" width="6" height="12.5364" stroke="black" stroke-width="1" fill="blue" opacity="1" tooltip="enable"><title>(0.0214932,86)</title></rect><rect x="108" y="187.172" width="6" height="12.828" stroke="black" stroke-width="1" fill="blue" opacity="1" tooltip="enable"><title>(0.0227575,88)</title></rect><rect x="114" y="184.694" width="6" height="15.3061" stroke="black" stroke-width="1" fill="blue" opacity="1" tooltip="enable"><title>(0.0240218,105)</title></rect><rect x="120" y="183.819" width="6" height="16.1808" stroke="black" stroke-width="1" fill="blue" opacity="1" tooltip="enable"><title>(0.0252861,111)</title></rect><rect x="126" y="187.901" width="6" height="12.0991" stroke="black" stroke-width="1" fill="blue" opacity="1" tooltip="enable"><title>(0.0265505,83)</title></rect><rect x="132" y="187.026" width="6" height="12.9738" stroke="black" stroke-width="1" fill="blue" opacity="1" tooltip="enable"><title>(0.0278148,89)</title></rect><rect x="138" y="187.318" width="6" height="12.6822" stroke="black" stroke-width="1" fill="blue" opacity="1" tooltip="enable"><title>(0.0290791,87)</title></rect><rect x="144" y="188.484" width="6" height="11.516" stroke="black" stroke-width="1" fill="blue" opacity="1" tooltip="enable"><title>(0.0303434,79)</title></rect><rect x="150" y="193.003" width="6" height="6.99708" stroke="black" stroke-width="1" fill="blue" opacity="1" tooltip="enable"><title>(0.0316077,48)</title></rect><rect x="156" y="189.796" width="6" height="10.2041" stroke="black" stroke-width="1" fill="blue" opacity="1" tooltip="enable"><title>(0.032872,70)</title></rect><rect x="162" y="187.318" width="6" height="12.6822" stroke="black" stroke-width="1" fill="blue" opacity="1" tooltip="enable"><title>(0.0341363,87)</title></rect><rect x="168" y="194.023" width="6" height="5.97668" stroke="black" stroke-width="1" fill="blue" opacity="1" tooltip="enable"><title>(0.0354006,41)</title></rect><rect x="174" y="193.586" width="6" height="6.41399" stroke="black" stroke-width="1" fill="blue" opacity="1" tooltip="enable"><title>(0.0366649,44)</title></rect><rect x="180" y="193.586" width="6" height="6.41399" stroke="black" stroke-width="1" fill="blue" opacity="1" tooltip="enable"><title>(0.0379292,44)</title></rect><rect x="186" y="193.294" width="6" height="6.70554" stroke="black" stroke-width="1" fill="blue" opacity="1" tooltip="enable"><title>(0.0391935,46)</title></rect><rect x="192" y="196.939" width="6" height="3.06122" stroke="black" stroke-width="1" fill="blue" opacity="1" tooltip="enable"><title>(0.0404578,21)</title></rect><rect x="198" y="192.128" width="6" height="7.87172" stroke="black" stroke-width="1" fill="blue" opacity="1" tooltip="enable"><title>(0.0417221,54)</title></rect><rect x="204" y="197.522" width="6" height="2.47813" stroke="black" stroke-width="1" fill="blue" opacity="1" tooltip="enable"><title>(0.0429864,17)</title></rect><rect x="210" y="197.376" width="6" height="2.62391" stroke="black" stroke-width="1" fill="blue" opacity="1" tooltip="enable"><title>(0.0442508,18)</title></rect><rect x="216" y="194.315" width="6" height="5.68513" stroke="black" stroke-width="1" fill="blue" opacity="1" tooltip="enable"><title>(0.0455151,39)</title></rect><rect x="222" y="196.647" width="6" height="3.35277" stroke="black" stroke-width="1" fill="blue" opacity="1" tooltip="enable"><title>(0.0467794,23)</title></rect><rect x="228" y="197.376" width="6" height="2.62391" stroke="black" stroke-width="1" fill="blue" opacity="1" tooltip="enable"><title>(0.0480437,18)</title></rect><rect x="234" y="195.918" width="6" height="4.08163" stroke="black" stroke-width="1" fill="blue" opacity="1" tooltip="enable"><title>(0.049308,28)</title></rect><rect x="240" y="197.376" width="6" height="2.62391" stroke="black" stroke-width="1" fill="blue" opacity="1" tooltip="enable"><title>(0.0505723,18)</title></rect><rect x="246" y="199.125" width="6" height="0.874636" stroke="black" stroke-width="1" fill="blue" opacity="1" tooltip="enable"><title>(0.0518366,6)</title></rect><rect x="252" y="197.376" width="6" height="2.62391" stroke="black" stroke-width="1" fill="blue" opacity="1" tooltip="enable"><title>(0.0531009,18)</title></rect><rect x="258" y="196.501" width="6" height="3.49854" stroke="black" stroke-width="1" fill="blue" opacity="1" tooltip="enable"><title>(0.0543652,24)</title></rect><rect x="264" y="198.251" width="6" height="1.74927" stroke="black" stroke-width="1" fill="blue" opacity="1" tooltip="enable"><title>(0.0556295,12)</title></rect><rect x="270" y="197.959" width="6" height="2.04082" stroke="black" stroke-width="1" fill="blue" opacity="1" tooltip="enable"><title>(0.0568938,14)</title></rect><rect x="276" y="196.793" width="6" height="3.207" stroke="black" stroke-width="1" fill="blue" opacity="1" tooltip="enable"><title>(0.0581581,22)</title></rect><rect x="282" y="196.793" width="6" height="3.207" stroke="black" stroke-width="1" fill="blue" opacity="1" tooltip="enable"><title>(0.0594224,22)</title></rect><rect x="288" y="198.251" width="6" height="1.74927" stroke="black" stroke-width="1" fill="blue" opacity="1" tooltip="enable"><title>(0.0606867,12)</title></rect><rect x="294" y="197.959" width="6" height="2.04082" stroke="black" stroke-width="1" fill="blue" opacity="1" tooltip="enable"><title>(0.0619511,14)</title></rect><rect x="300" y="198.251" width="6" height="1.74927" stroke="black" stroke-width="1" fill="blue" opacity="1" tooltip="enable"><title>(0.0632154,12)</title></rect><rect x="306" y="197.959" width="6" height="2.04082" stroke="black" stroke-width="1" fill="blue" opacity="1" tooltip="enable"><title>(0.0644797,14)</title></rect><rect x="312" y="197.668" width="6" height="2.33236" stroke="black" stroke-width="1" fill="blue" opacity="1" tooltip="enable"><title>(0.065744,16)</title></rect><rect x="318" y="197.959" width="6" height="2.04082" stroke="black" stroke-width="1" fill="blue" opacity="1" tooltip="enable"><title>(0.0670083,14)</title></rect><rect x="324" y="196.793" width="6" height="3.207" stroke="black" stroke-width="1" fill="blue" opacity="1" tooltip="enable"><title>(0.0682726,22)</title></rect><rect x="330" y="197.959" width="6" height="2.04082" stroke="black" stroke-width="1" fill="blue" opacity="1" tooltip="enable"><title>(0.0695369,14)</title></rect><rect x="336" y="197.668" width="6" height="2.33236" stroke="black" stroke-width="1" fill="blue" opacity="1" tooltip="enable"><title>(0.0708012,16)</title></rect><rect x="342" y="196.793" width="6" height="3.207" stroke="black" stroke-width="1" fill="blue" opacity="1" tooltip="enable"><title>(0.0720655,22)</title></rect><rect x="348" y="199.417" width="6" height="0.58309" stroke="black" stroke-width="1" fill="blue" opacity="1" tooltip="enable"><title>(0.0733298,4)</title></rect><rect x="354" y="198.834" width="6" height="1.16618" stroke="black" stroke-width="1" fill="blue" opacity="1" tooltip="enable"><title>(0.0745941,8)</title></rect><rect x="360" y="197.959" width="6" height="2.04082" stroke="black" stroke-width="1" fill="blue" opacity="1" tooltip="enable"><title>(0.0758584,14)</title></rect><rect x="366" y="198.251" width="6" height="1.74927" stroke="black" stroke-width="1" fill="blue" opacity="1" tooltip="enable"><title>(0.0771227,12)</title></rect><rect x="372" y="199.125" width="6" height="0.874636" stroke="black" stroke-width="1" fill="blue" opacity="1" tooltip="enable"><title>(0.078387,6)</title></rect><rect x="378" y="199.125" width="6" height="0.874636" stroke="black" stroke-width="1" fill="blue" opacity="1" tooltip="enable"><title>(0.0796514,6)</title></rect><rect x="384" y="199.125" width="6" height="0.874636" stroke="black" stroke-width="1" fill="blue" opacity="1" tooltip="enable"><title>(0.0809157,6)</title></rect><rect x="390" y="199.708" width="6" height="0.291545" stroke="black" stroke-width="1" fill="blue" opacity="1" tooltip="enable"><title>(0.08218,2)</title></rect><rect x="396" y="199.417" width="6" height="0.58309" stroke="black" stroke-width="1" fill="blue" opacity="1" tooltip="enable"><title>(0.0834443,4)</title></rect><rect x="402" y="199.708" width="6" height="0.291545" stroke="black" stroke-width="1" fill="blue" opacity="1" tooltip="enable"><title>(0.0847086,2)</title></rect><rect x="408" y="198.834" width="6" height="1.16618" stroke="black" stroke-width="1" fill="blue" opacity="1" tooltip="enable"><title>(0.0859729,8)</title></rect><rect x="414" y="200" width="6" height="0" stroke="black" stroke-width="1" fill="blue" opacity="1" tooltip="enable"><title>(0.0872372,0)</title></rect><rect x="420" y="199.417" width="6" height="0.58309" stroke="black" stroke-width="1" fill="blue" opacity="1" tooltip="enable"><title>(0.0885015,4)</title></rect><rect x="426" y="200" width="6" height="0" stroke="black" stroke-width="1" fill="blue" opacity="1" tooltip="enable"><title>(0.0897658,0)</title></rect><rect x="432" y="199.417" width="6" height="0.58309" stroke="black" stroke-width="1" fill="blue" opacity="1" tooltip="enable"><title>(0.0910301,4)</title></rect><rect x="438" y="199.417" width="6" height="0.58309" stroke="black" stroke-width="1" fill="blue" opacity="1" tooltip="enable"><title>(0.0922944,4)</title></rect><rect x="444" y="199.417" width="6" height="0.58309" stroke="black" stroke-width="1" fill="blue" opacity="1" tooltip="enable"><title>(0.0935587,4)</title></rect><rect x="450" y="200" width="6" height="0" stroke="black" stroke-width="1" fill="blue" opacity="1" tooltip="enable"><title>(0.094823,0)</title></rect><rect x="456" y="200" width="6" height="0" stroke="black" stroke-width="1" fill="blue" opacity="1" tooltip="enable"><title>(0.0960873,0)</title></rect><rect x="462" y="200" width="6" height="0" stroke="black" stroke-width="1" fill="blue" opacity="1" tooltip="enable"><title>(0.0973517,0)</title></rect><rect x="468" y="199.708" width="6" height="0.291545" stroke="black" stroke-width="1" fill="blue" opacity="1" tooltip="enable"><title>(0.098616,2)</title></rect><rect x="474" y="199.708" width="6" height="0.291545" stroke="black" stroke-width="1" fill="blue" opacity="1" tooltip="enable"><title>(0.0998803,2)</title></rect><rect x="480" y="200" width="6" height="0" stroke="black" stroke-width="1" fill="blue" opacity="1" tooltip="enable"><title>(0.101145,0)</title></rect><rect x="486" y="199.708" width="6" height="0.291545" stroke="black" stroke-width="1" fill="blue" opacity="1" tooltip="enable"><title>(0.102409,2)</title></rect><rect x="492" y="200" width="6" height="0" stroke="black" stroke-width="1" fill="blue" opacity="1" tooltip="enable"><title>(0.103673,0)</title></rect><rect x="498" y="200" width="6" height="0" stroke="black" stroke-width="1" fill="blue" opacity="1" tooltip="enable"><title>(0.104937,0)</title></rect><rect x="504" y="199.708" width="6" height="0.291545" stroke="black" stroke-width="1" fill="blue" opacity="1" tooltip="enable"><title>(0.106202,2)</title></rect><rect x="510" y="200" width="6" height="0" stroke="black" stroke-width="1" fill="blue" opacity="1" tooltip="enable"><title>(0.107466,0)</title></rect><rect x="516" y="200" width="6" height="0" stroke="black" stroke-width="1" fill="blue" opacity="1" tooltip="enable"><title>(0.10873,0)</title></rect><rect x="522" y="200" width="6" height="0" stroke="black" stroke-width="1" fill="blue" opacity="1" tooltip="enable"><title>(0.109995,0)</title></rect><rect x="528" y="200" width="6" height="0" stroke="black" stroke-width="1" fill="blue" opacity="1" tooltip="enable"><title>(0.111259,0)</title></rect><rect x="534" y="200" width="6" height="0" stroke="black" stroke-width="1" fill="blue" opacity="1" tooltip="enable"><title>(0.112523,0)</title></rect><rect x="540" y="200" width="6" height="0" stroke="black" stroke-width="1" fill="blue" opacity="1" tooltip="enable"><title>(0.113788,0)</title></rect><rect x="546" y="200" width="6" height="0" stroke="black" stroke-width="1" fill="blue" opacity="1" tooltip="enable"><title>(0.115052,0)</title></rect><rect x="552" y="200" width="6" height="0" stroke="black" stroke-width="1" fill="blue" opacity="1" tooltip="enable"><title>(0.116316,0)</title></rect><rect x="558" y="200" width="6" height="0" stroke="black" stroke-width="1" fill="blue" opacity="1" tooltip="enable"><title>(0.117581,0)</title></rect><rect x="564" y="199.708" width="6" height="0.291545" stroke="black" stroke-width="1" fill="blue" opacity="1" tooltip="enable"><title>(0.118845,2)</title></rect><rect x="570" y="200" width="6" height="0" stroke="black" stroke-width="1" fill="blue" opacity="1" tooltip="enable"><title>(0.120109,0)</title></rect><rect x="576" y="200" width="6" height="0" stroke="black" stroke-width="1" fill="blue" opacity="1" tooltip="enable"><title>(0.121373,0)</title></rect><rect x="582" y="199.417" width="6" height="0.58309" stroke="black" stroke-width="1" fill="blue" opacity="1" tooltip="enable"><title>(0.122638,4)</title></rect><rect x="588" y="200" width="6" height="0" stroke="black" stroke-width="1" fill="blue" opacity="1" tooltip="enable"><title>(0.123902,0)</title></rect><rect x="594" y="199.854" width="6" height="0.145773" stroke="black" stroke-width="1" fill="blue" opacity="1" tooltip="enable"><title>(0.125166,1)</title></rect><text x="30" y="240" font-size="20" fill="black">0</text>
<text x="600" y="240" font-size="20" fill="black">0.126431</text>
<polyline points="0,220,600,220" stroke="black" stroke-width="1" fill="none" opacity="1"/>
<text x="720" y="20" font-size="20" fill="black">1372</text>
<text x="720" y="200" font-size="20" fill="black">0</text>
<polyline points="660,0,660,200" stroke="black" stroke-width="1" fill="none" opacity="1"/>
</svg>