<?xml version="1.0" standalone="yes"?>
<!-- SVG graphic -->
<svg xmlns='http://www.w3.org/2000/svg' xmlns:xlink='http://www.w3.org/1999/xlink'
 version="1.1">
<rect x="0" y="0" width="6" height="200" stroke="black" stroke-width="1" fill="blue" opacity="1" tooltip="enable"><title>(0,1657)</title></rect><rect x="6" y="60.8328" width="6" height="139.167" stroke="black" stroke-width="1" fill="blue" opacity="1" tooltip="enable"><title>(0.00115659,1153)</title></rect><rect x="12" y="111.285" width="6" height="88.7145" stroke="black" stroke-width="1" fill="blue" opacity="1" tooltip="enable"><title>(0.00231318,735)</title></rect><rect x="18" y="128.304" width="6" height="71.6958" stroke="black" stroke-width="1" fill="blue" opacity="1" tooltip="enable"><title>(0.00346978,594)</title></rect><rect x="24" y="151.479" width="6" height="48.5214" stroke="black" stroke-width="1" fill="blue" opacity="1" tooltip="enable"><title>(0.00462637,402)</title></rect><rect x="30" y="153.289" width="6" height="46.7109" stroke="black" stroke-width="1" fill="blue" opacity="1" tooltip="enable"><title>(0.00578296,387)</title></rect><rect x="36" y="159.565" width="6" height="40.4345" stroke="black" stroke-width="1" fill="blue" opacity="1" tooltip="enable"><title>(0.00693955,335)</title></rect><rect x="42" y="167.894" width="6" height="32.1062" stroke="black" stroke-width="1" fill="blue" opacity="1" tooltip="enable"><title>(0.00809614,266)</title></rect><rect x="48" y="171.998" width="6" height="28.0024" stroke="black" stroke-width="1" fill="blue" opacity="1" tooltip="enable"><title>(0.00925274,232)</title></rect><rect x="54" y="177.188" width="6" height="22.8123" stroke="black" stroke-width="1" fill="blue" opacity="1" tooltip="enable"><title>(0.0104093,189)</title></rect><rect x="60" y="181.05" width="6" height="18.9499" stroke="black" stroke-width="1" fill="blue" opacity="1" tooltip="enable"><title>(0.0115659,157)</title></rect><rect x="66" y="182.257" width="6" height="17.7429" stroke="black" stroke-width="1" fill="blue" opacity="1" tooltip="enable"><title>(0.0127225,147)</title></rect><rect x="72" y="186.723" width="6" height="13.277" stroke="black" stroke-width="1" fill="blue" opacity="1" tooltip="enable"><title>(0.0138791,110)</title></rect><rect x="78" y="188.896" width="6" height="11.1044" stroke="black" stroke-width="1" fill="blue" opacity="1" tooltip="enable"><title>(0.0150357,92)</title></rect><rect x="84" y="187.206" width="6" height="12.7942" stroke="black" stroke-width="1" fill="blue" opacity="1" tooltip="enable"><title>(0.0161923,106)</title></rect><rect x="90" y="187.689" width="6" height="12.3114" stroke="black" stroke-width="1" fill="blue" opacity="1" tooltip="enable"><title>(0.0173489,102)</title></rect><rect x="96" y="190.827" width="6" height="9.1732" stroke="black" stroke-width="1" fill="blue" opacity="1" tooltip="enable"><title>(0.0185055,76)</title></rect><rect x="102" y="193.965" width="6" height="6.035" stroke="black" stroke-width="1" fill="blue" opacity="1" tooltip="enable"><title>(0.0196621,50)</title></rect><rect x="108" y="191.913" width="6" height="8.0869" stroke="black" stroke-width="1" fill="blue" opacity="1" tooltip="enable"><title>(0.0208187,67)</title></rect><rect x="114" y="195.051" width="6" height="4.9487" stroke="black" stroke-width="1" fill="blue" opacity="1" tooltip="enable"><title>(0.0219752,41)</title></rect><rect x="120" y="193.724" width="6" height="6.2764" stroke="black" stroke-width="1" fill="blue" opacity="1" tooltip="enable"><title>(0.0231318,52)</title></rect><rect x="126" y="193.241" width="6" height="6.7592" stroke="black" stroke-width="1" fill="blue" opacity="1" tooltip="enable"><title>(0.0242884,56)</title></rect><rect x="132" y="194.086" width="6" height="5.9143" stroke="black" stroke-width="1" fill="blue" opacity="1" tooltip="enable"><title>(0.025445,49)</title></rect><rect x="138" y="190.465" width="6" height="9.53531" stroke="black" stroke-width="1" fill="blue" opacity="1" tooltip="enable"><title>(0.0266016,79)</title></rect><rect x="144" y="191.792" width="6" height="8.2076" stroke="black" stroke-width="1" fill="blue" opacity="1" tooltip="enable"><title>(0.0277582,68)</title></rect><rect x="150" y="196.62" width="6" height="3.3796" stroke="black" stroke-width="1" fill="blue" opacity="1" tooltip="enable"><title>(0.0289148,28)</title></rect><rect x="156" y="194.689" width="6" height="5.3108" stroke="black" stroke-width="1" fill="blue" opacity="1" tooltip="enable"><title>(0.0300714,44)</title></rect><rect x="162" y="196.741" width="6" height="3.2589" stroke="black" stroke-width="1" fill="blue" opacity="1" tooltip="enable"><title>(0.031228,27)</title></rect><rect x="168" y="196.379" width="6" height="3.621" stroke="black" stroke-width="1" fill="blue" opacity="1" tooltip="enable"><title>(0.0323846,30)</title></rect><rect x="174" y="195.534" width="6" height="4.4659" stroke="black" stroke-width="1" fill="blue" opacity="1" tooltip="enable"><title>(0.0335412,37)</title></rect><rect x="180" y="197.345" width="6" height="2.6554" stroke="black" stroke-width="1" fill="blue" opacity="1" tooltip="enable"><title>(0.0346978,22)</title></rect><rect x="186" y="197.586" width="6" height="2.414" stroke="black" stroke-width="1" fill="blue" opacity="1" tooltip="enable"><title>(0.0358544,20)</title></rect><rect x="192" y="195.413" width="6" height="4.5866" stroke="black" stroke-width="1" fill="blue" opacity="1" tooltip="enable"><title>(0.0370109,38)</title></rect><rect x="198" y="196.379" width="6" height="3.621" stroke="black" stroke-width="1" fill="blue" opacity="1" tooltip="enable"><title>(0.0381675,30)</title></rect><rect x="204" y="197.345" width="6" height="2.6554" stroke="black" stroke-width="1" fill="blue" opacity="1" tooltip="enable"><title>(0.0393241,22)</title></rect><rect x="210" y="197.103" width="6" height="2.8968" stroke="black" stroke-width="1" fill="blue" opacity="1" tooltip="enable"><title>(0.0404807,24)</title></rect><rect x="216" y="195.896" width="6" height="4.1038" stroke="black" stroke-width="1" fill="blue" opacity="1" tooltip="enable"><title>(0.0416373,34)</title></rect><rect x="222" y="198.431" width="6" height="1.5691" stroke="black" stroke-width="1" fill="blue" opacity="1" tooltip="enable"><title>(0.0427939,13)</title></rect><rect x="228" y="197.224" width="6" height="2.7761" stroke="black" stroke-width="1" fill="blue" opacity="1" tooltip="enable"><title>(0.0439505,23)</title></rect><rect x="234" y="197.224" width="6" height="2.7761" stroke="black" stroke-width="1" fill="blue" opacity="1" tooltip="enable"><title>(0.0451071,23)</title></rect><rect x="240" y="197.465" width="6" height="2.5347" stroke="black" stroke-width="1" fill="blue" opacity="1" tooltip="enable"><title>(0.0462637,21)</title></rect><rect x="246" y="196.62" width="6" height="3.3796" stroke="black" stroke-width="1" fill="blue" opacity="1" tooltip="enable"><title>(0.0474203,28)</title></rect><rect x="252" y="198.31" width="6" height="1.6898" stroke="black" stroke-width="1" fill="blue" opacity="1" tooltip="enable"><title>(0.0485769,14)</title></rect><rect x="258" y="196.5" width="6" height="3.5003" stroke="black" stroke-width="1" fill="blue" opacity="1" tooltip="enable"><title>(0.0497335,29)</title></rect><rect x="264" y="197.224" width="6" height="2.7761" stroke="black" stroke-width="1" fill="blue" opacity="1" tooltip="enable"><title>(0.05089,23)</title></rect><rect x="270" y="198.31" width="6" height="1.6898" stroke="black" stroke-width="1" fill="blue" opacity="1" tooltip="enable"><title>(0.0520466,14)</title></rect><rect x="276" y="197.827" width="6" height="2.1726" stroke="black" stroke-width="1" fill="blue" opacity="1" tooltip="enable"><title>(0.0532032,18)</title></rect><rect x="282" y="198.069" width="6" height="1.9312" stroke="black" stroke-width="1" fill="blue" opacity="1" tooltip="enable"><title>(0.0543598,16)</title></rect><rect x="288" y="198.069" width="6" height="1.9312" stroke="black" stroke-width="1" fill="blue" opacity="1" tooltip="enable"><title>(0.0555164,16)</title></rect><rect x="294" y="198.793" width="6" height="1.207" stroke="black" stroke-width="1" fill="blue" opacity="1" tooltip="enable"><title>(0.056673,10)</title></rect><rect x="300" y="198.552" width="6" height="1.4484" stroke="black" stroke-width="1" fill="blue" opacity="1" tooltip="enable"><title>(0.0578296,12)</title></rect><rect x="306" y="197.707" width="6" height="2.2933" stroke="black" stroke-width="1" fill="blue" opacity="1" tooltip="enable"><title>(0.0589862,19)</title></rect><rect x="312" y="198.914" width="6" height="1.0863" stroke="black" stroke-width="1" fill="blue" opacity="1" tooltip="enable"><title>(0.0601428,9)</title></rect><rect x="318" y="198.793" width="6" height="1.207" stroke="black" stroke-width="1" fill="blue" opacity="1" tooltip="enable"><title>(0.0612994,10)</title></rect><rect x="324" y="197.827" width="6" height="2.1726" stroke="black" stroke-width="1" fill="blue" opacity="1" tooltip="enable"><title>(0.062456,18)</title></rect><rect x="330" y="199.517" width="6" height="0.4828" stroke="black" stroke-width="1" fill="blue" opacity="1" tooltip="enable"><title>(0.0636126,4)</title></rect><rect x="336" y="199.276" width="6" height="0.7242" stroke="black" stroke-width="1" fill="blue" opacity="1" tooltip="enable"><title>(0.0647691,6)</title></rect><rect x="342" y="199.276" width="6" height="0.7242" stroke="black" stroke-width="1" fill="blue" opacity="1" tooltip="enable"><title>(0.0659257,6)</title></rect><rect x="348" y="198.552" width="6" height="1.4484" stroke="black" stroke-width="1" fill="blue" opacity="1" tooltip="enable"><title>(0.0670823,12)</title></rect><rect x="354" y="199.759" width="6" height="0.2414" stroke="black" stroke-width="1" fill="blue" opacity="1" tooltip="enable"><title>(0.0682389,2)</title></rect><rect x="360" y="199.276" width="6" height="0.7242" stroke="black" stroke-width="1" fill="blue" opacity="1" tooltip="enable"><title>(0.0693955,6)</title></rect><rect x="366" y="199.034" width="6" height="0.9656" stroke="black" stroke-width="1" fill="blue" opacity="1" tooltip="enable"><title>(0.0705521,8)</title></rect><rect x="372" y="199.517" width="6" height="0.4828" stroke="black" stroke-width="1" fill="blue" opacity="1" tooltip="enable"><title>(0.0717087,4)</title></rect><rect x="378" y="199.759" width="6" height="0.2414" stroke="black" stroke-width="1" fill="blue" opacity="1" tooltip="enable"><title>(0.0728653,2)</title></rect><rect x="384" y="199.276" width="6" height="0.7242" stroke="black" stroke-width="1" fill="blue" opacity="1" tooltip="enable"><title>(0.0740219,6)</title></rect><rect x="390" y="198.552" width="6" height="1.4484" stroke="black" stroke-width="1" fill="blue" opacity="1" tooltip="enable"><title>(0.0751785,12)</title></rect><rect x="396" y="199.034" width="6" height="0.9656" stroke="black" stroke-width="1" fill="blue" opacity="1" tooltip="enable"><title>(0.0763351,8)</title></rect><rect x="402" y="199.034" width="6" height="0.9656" stroke="black" stroke-width="1" fill="blue" opacity="1" tooltip="enable"><title>(0.0774917,8)</title></rect><rect x="408" y="199.517" width="6" height="0.4828" stroke="black" stroke-width="1" fill="blue" opacity="1" tooltip="enable"><title>(0.0786483,4)</title></rect><rect x="414" y="199.759" width="6" height="0.2414" stroke="black" stroke-width="1" fill="blue" opacity="1" tooltip="enable"><title>(0.0798048,2)</title></rect><rect x="420" y="200" width="6" height="0" stroke="black" stroke-width="1" fill="blue" opacity="1" tooltip="enable"><title>(0.0809614,0)</title></rect><rect x="426" y="200" width="6" height="0" stroke="black" stroke-width="1" fill="blue" opacity="1" tooltip="enable"><title>(0.082118,0)</title></rect><rect x="432" y="199.759" width="6" height="0.2414" stroke="black" stroke-width="1" fill="blue" opacity="1" tooltip="enable"><title>(0.0832746,2)</title></rect><rect x="438" y="199.517" width="6" height="0.4828" stroke="black" stroke-width="1" fill="blue" opacity="1" tooltip="enable"><title>(0.0844312,4)</title></rect><rect x="444" y="200" width="6" height="0" stroke="black" stroke-width="1" fill="blue" opacity="1" tooltip="enable"><title>(0.0855878,0)</title></rect><rect x="450" y="200" width="6" height="0" stroke="black" stroke-width="1" fill="blue" opacity="1" tooltip="enable"><title>(0.0867444,0)</title></rect><rect x="456" y="199.276" width="6" height="0.7242" stroke="black" stroke-width="1" fill="blue" opacity="1" tooltip="enable"><title>(0.087901,6)</title></rect><rect x="462" y="200" width="6" height="0" stroke="black" stroke-width="1" fill="blue" opacity="1" tooltip="enable"><title>(0.0890576,0)</title></rect><rect x="468" y="199.517" width="6" height="0.4828" stroke="black" stroke-width="1" fill="blue" opacity="1" tooltip="enable"><title>(0.0902142,4)</title></rect><rect x="474" y="199.759" width="6" height="0.2414" stroke="black" stroke-width="1" fill="blue" opacity="1" tooltip="enable"><title>(0.0913708,2)</title></rect><rect x="480" y="200" width="6" height="0" stroke="black" stroke-width="1" fill="blue" opacity="1" tooltip="enable"><title>(0.0925274,0)</title></rect><rect x="486" y="200" width="6" height="0" stroke="black" stroke-width="1" fill="blue" opacity="1" tooltip="enable"><title>(0.093684,0)</title></rect><rect x="492" y="200" width="6" height="0" stroke="black" stroke-width="1" fill="blue" opacity="1" tooltip="enable"><title>(0.0948405,0)</title></rect><rect x="498" y="200" width="6" height="0" stroke="black" stroke-width="1" fill="blue" opacity="1" tooltip="enable"><title>(0.0959971,0)</title></rect><rect x="504" y="200" width="6" height="0" stroke="black" stroke-width="1" fill="blue" opacity="1" tooltip="enable"><title>(0.0971537,0)</title></rect><rect x="510" y="200" width="6" height="0" stroke="black" stroke-width="1" fill="blue" opacity="1" tooltip="enable"><title>(0.0983103,0)</title></rect><rect x="516" y="200" width="6" height="0" stroke="black" stroke-width="1" fill="blue" opacity="1" tooltip="enable"><title>(0.0994669,0)</title></rect><rect x="522" y="200" width="6" height="0" stroke="black" stroke-width="1" fill="blue" opacity="1" tooltip="enable"><title>(0.100624,0)</title></rect><rect x="528" y="200" width="6" height="0" stroke="black" stroke-width="1" fill="blue" opacity="1" tooltip="enable"><title>(0.10178,0)</title></rect><rect x="534" y="199.759" width="6" height="0.2414" stroke="black" stroke-width="1" fill="blue" opacity="1" tooltip="enable"><title>(0.102937,2)</title></rect><rect x="540" y="200" width="6" height="0" stroke="black" stroke-width="1" fill="blue" opacity="1" tooltip="enable"><title>(0.104093,0)</title></rect><rect x="546" y="200" width="6" height="0" stroke="black" stroke-width="1" fill="blue" opacity="1" tooltip="enable"><title>(0.10525,0)</title></rect><rect x="552" y="199.517" width="6" height="0.4828" stroke="black" stroke-width="1" fill="blue" opacity="1" tooltip="enable"><title>(0.106406,4)</title></rect><rect x="558" y="199.759" width="6" height="0.2414" stroke="black" stroke-width="1" fill="blue" opacity="1" tooltip="enable"><title>(0.107563,2)</title></rect><rect x="564" y="199.759" width="6" height="0.2414" stroke="black" stroke-width="1" fill="blue" opacity="1" tooltip="enable"><title>(0.10872,2)</title></rect><rect x="570" y="200" width="6" height="0" stroke="black" stroke-width="1" fill="blue" opacity="1" tooltip="enable"><title>(0.109876,0)</title></rect><rect x="576" y="199.517" width="6" height="0.4828" stroke="black" stroke-width="1" fill="blue" opacity="1" tooltip="enable"><title>(0.111033,4)</title></rect><rect x="582" y="200" width="6" height="0" stroke="black" stroke-width="1" fill="blue" opacity="1" tooltip="enable"><title>(0.112189,0)</title></rect><rect x="588" y="199.759" width="6" height="0.2414" stroke="black" stroke-width="1" fill="blue" opacity="1" tooltip="enable"><title>(0.113346,2)</title></rect><rect x="594" y="199.879" width="6" height="0.1207" stroke="black" stroke-width="1" fill="blue" opacity="1" tooltip="enable"><title>(0.114503,1)</title></rect><text x="30" y="240" font-size="20" fill="black">0</text>
<text x="600" y="240" font-size="20" fill="black">0.115659</text>
<polyline points="0,220,600,220" stroke="black" stroke-width="1" fill="none" opacity="1"/>
<text x="720" y="20" font-size="20" fill="black">1657</text>
<text x="720" y="200" font-size="20" fill="black">0</text>
<polyline points="660,0,660,200" stroke="black" stroke-width="1" fill="none" opacity="1"/>
</svg>