<?xml version="1.0" standalone="yes"?>
<!-- SVG graphic -->
<svg xmlns='http://www.w3.org/2000/svg' xmlns:xlink='http://www.w3.org/1999/xlink'
 version="1.1">
<rect x="0" y="22.7868" width="6" height="177.213" stroke="black" stroke-width="1" fill="blue" opacity="1" tooltip="enable"><title>(0,1151)</title></rect><rect x="6" y="30.485" width="6" height="169.515" stroke="black" stroke-width="1" fill="blue" opacity="1" tooltip="enable"><title>(0.00126439,1101)</title></rect><rect x="12" y="0" width="6" height="200" stroke="black" stroke-width="1" fill="blue" opacity="1" tooltip="enable"><title>(0.00252878,1299)</title></rect><rect x="18" y="109.623" width="6" height="90.3772" stroke="black" stroke-width="1" fill="blue" opacity="1" tooltip="enable"><title>(0.00379317,587)</title></rect><rect x="24" y="168.283" width="6" height="31.7167" stroke="black" stroke-width="1" fill="blue" opacity="1" tooltip="enable"><title>(0.00505756,206)</title></rect><rect x="30" y="171.671" width="6" height="28.3295" stroke="black" stroke-width="1" fill="blue" opacity="1" tooltip="enable"><title>(0.00632195,184)</title></rect><rect x="36" y="177.829" width="6" height="22.1709" stroke="black" stroke-width="1" fill="blue" opacity="1" tooltip="enable"><title>(0.00758634,144)</title></rect><rect x="42" y="184.758" width="6" height="15.2425" stroke="black" stroke-width="1" fill="blue" opacity="1" tooltip="enable"><title>(0.00885073,99)</title></rect><rect x="48" y="185.065" width="6" height="14.9346" stroke="black" stroke-width="1" fill="blue" opacity="1" tooltip="enable"><title>(0.0101151,97)</title></rect><rect x="54" y="185.681" width="6" height="14.3187" stroke="black" stroke-width="1" fill="blue" opacity="1" tooltip="enable"><title>(0.0113795,93)</title></rect><rect x="60" y="179.369" width="6" height="20.6313" stroke="black" stroke-width="1" fill="blue" opacity="1" tooltip="enable"><title>(0.0126439,134)</title></rect><rect x="66" y="181.216" width="6" height="18.7837" stroke="black" stroke-width="1" fill="blue" opacity="1" tooltip="enable"><title>(0.0139083,122)</title></rect><rect x="72" y="185.527" width="6" height="14.4727" stroke="black" stroke-width="1" fill="blue" opacity="1" tooltip="enable"><title>(0.0151727,94)</title></rect><rect x="78" y="185.681" width="6" height="14.3187" stroke="black" stroke-width="1" fill="blue" opacity="1" tooltip="enable"><title>(0.0164371,93)</title></rect><rect x="84" y="188.299" width="6" height="11.7013" stroke="black" stroke-width="1" fill="blue" opacity="1" tooltip="enable"><title>(0.0177015,76)</title></rect><rect x="90" y="187.221" width="6" height="12.7791" stroke="black" stroke-width="1" fill="blue" opacity="1" tooltip="enable"><title>(0.0189658,83)</title></rect><rect x="96" y="182.602" width="6" height="17.398" stroke="black" stroke-width="1" fill="blue" opacity="1" tooltip="enable"><title>(0.0202302,113)</title></rect><rect x="102" y="188.299" width="6" height="11.7013" stroke="black" stroke-width="1" fill="blue" opacity="1" tooltip="enable"><title>(0.0214946,76)</title></rect><rect x="108" y="185.989" width="6" height="14.0108" stroke="black" stroke-width="1" fill="blue" opacity="1" tooltip="enable"><title>(0.022759,91)</title></rect><rect x="114" y="185.527" width="6" height="14.4727" stroke="black" stroke-width="1" fill="blue" opacity="1" tooltip="enable"><title>(0.0240234,94)</title></rect><rect x="120" y="179.831" width="6" height="20.1694" stroke="black" stroke-width="1" fill="blue" opacity="1" tooltip="enable"><title>(0.0252878,131)</title></rect><rect x="126" y="182.91" width="6" height="17.0901" stroke="black" stroke-width="1" fill="blue" opacity="1" tooltip="enable"><title>(0.0265522,111)</title></rect><rect x="132" y="178.599" width="6" height="21.4011" stroke="black" stroke-width="1" fill="blue" opacity="1" tooltip="enable"><title>(0.0278166,139)</title></rect><rect x="138" y="180.754" width="6" height="19.2456" stroke="black" stroke-width="1" fill="blue" opacity="1" tooltip="enable"><title>(0.029081,125)</title></rect><rect x="144" y="183.834" width="6" height="16.1663" stroke="black" stroke-width="1" fill="blue" opacity="1" tooltip="enable"><title>(0.0303453,105)</title></rect><rect x="150" y="184.45" width="6" height="15.5504" stroke="black" stroke-width="1" fill="blue" opacity="1" tooltip="enable"><title>(0.0316097,101)</title></rect><rect x="156" y="187.991" width="6" height="12.0092" stroke="black" stroke-width="1" fill="blue" opacity="1" tooltip="enable"><title>(0.0328741,78)</title></rect><rect x="162" y="181.062" width="6" height="18.9376" stroke="black" stroke-width="1" fill="blue" opacity="1" tooltip="enable"><title>(0.0341385,123)</title></rect><rect x="168" y="188.915" width="6" height="11.0855" stroke="black" stroke-width="1" fill="blue" opacity="1" tooltip="enable"><title>(0.0354029,72)</title></rect><rect x="174" y="183.68" width="6" height="16.3202" stroke="black" stroke-width="1" fill="blue" opacity="1" tooltip="enable"><title>(0.0366673,106)</title></rect><rect x="180" y="187.837" width="6" height="12.1632" stroke="black" stroke-width="1" fill="blue" opacity="1" tooltip="enable"><title>(0.0379317,79)</title></rect><rect x="186" y="185.989" width="6" height="14.0108" stroke="black" stroke-width="1" fill="blue" opacity="1" tooltip="enable"><title>(0.0391961,91)</title></rect><rect x="192" y="189.684" width="6" height="10.3156" stroke="black" stroke-width="1" fill="blue" opacity="1" tooltip="enable"><title>(0.0404605,67)</title></rect><rect x="198" y="187.529" width="6" height="12.4711" stroke="black" stroke-width="1" fill="blue" opacity="1" tooltip="enable"><title>(0.0417248,81)</title></rect><rect x="204" y="190.146" width="6" height="9.85373" stroke="black" stroke-width="1" fill="blue" opacity="1" tooltip="enable"><title>(0.0429892,64)</title></rect><rect x="210" y="190.608" width="6" height="9.39184" stroke="black" stroke-width="1" fill="blue" opacity="1" tooltip="enable"><title>(0.0442536,61)</title></rect><rect x="216" y="191.994" width="6" height="8.00616" stroke="black" stroke-width="1" fill="blue" opacity="1" tooltip="enable"><title>(0.045518,52)</title></rect><rect x="222" y="191.224" width="6" height="8.77598" stroke="black" stroke-width="1" fill="blue" opacity="1" tooltip="enable"><title>(0.0467824,57)</title></rect><rect x="228" y="191.224" width="6" height="8.77598" stroke="black" stroke-width="1" fill="blue" opacity="1" tooltip="enable"><title>(0.0480468,57)</title></rect><rect x="234" y="193.533" width="6" height="6.46651" stroke="black" stroke-width="1" fill="blue" opacity="1" tooltip="enable"><title>(0.0493112,42)</title></rect><rect x="240" y="196.459" width="6" height="3.54119" stroke="black" stroke-width="1" fill="blue" opacity="1" tooltip="enable"><title>(0.0505756,23)</title></rect><rect x="246" y="196.921" width="6" height="3.07929" stroke="black" stroke-width="1" fill="blue" opacity="1" tooltip="enable"><title>(0.05184,20)</title></rect><rect x="252" y="196.921" width="6" height="3.07929" stroke="black" stroke-width="1" fill="blue" opacity="1" tooltip="enable"><title>(0.0531043,20)</title></rect><rect x="258" y="195.997" width="6" height="4.00308" stroke="black" stroke-width="1" fill="blue" opacity="1" tooltip="enable"><title>(0.0543687,26)</title></rect><rect x="264" y="197.229" width="6" height="2.77136" stroke="black" stroke-width="1" fill="blue" opacity="1" tooltip="enable"><title>(0.0556331,18)</title></rect><rect x="270" y="198.768" width="6" height="1.23172" stroke="black" stroke-width="1" fill="blue" opacity="1" tooltip="enable"><title>(0.0568975,8)</title></rect><rect x="276" y="198.152" width="6" height="1.84758" stroke="black" stroke-width="1" fill="blue" opacity="1" tooltip="enable"><title>(0.0581619,12)</title></rect><rect x="282" y="199.076" width="6" height="0.923788" stroke="black" stroke-width="1" fill="blue" opacity="1" tooltip="enable"><title>(0.0594263,6)</title></rect><rect x="288" y="199.538" width="6" height="0.461894" stroke="black" stroke-width="1" fill="blue" opacity="1" tooltip="enable"><title>(0.0606907,3)</title></rect><rect x="294" y="198.306" width="6" height="1.69361" stroke="black" stroke-width="1" fill="blue" opacity="1" tooltip="enable"><title>(0.0619551,11)</title></rect><rect x="300" y="197.844" width="6" height="2.1555" stroke="black" stroke-width="1" fill="blue" opacity="1" tooltip="enable"><title>(0.0632195,14)</title></rect><rect x="306" y="199.076" width="6" height="0.923788" stroke="black" stroke-width="1" fill="blue" opacity="1" tooltip="enable"><title>(0.0644839,6)</title></rect><rect x="312" y="197.537" width="6" height="2.46343" stroke="black" stroke-width="1" fill="blue" opacity="1" tooltip="enable"><title>(0.0657482,16)</title></rect><rect x="318" y="199.076" width="6" height="0.923788" stroke="black" stroke-width="1" fill="blue" opacity="1" tooltip="enable"><title>(0.0670126,6)</title></rect><rect x="324" y="199.076" width="6" height="0.923788" stroke="black" stroke-width="1" fill="blue" opacity="1" tooltip="enable"><title>(0.068277,6)</title></rect><rect x="330" y="199.384" width="6" height="0.615858" stroke="black" stroke-width="1" fill="blue" opacity="1" tooltip="enable"><title>(0.0695414,4)</title></rect><rect x="336" y="198.768" width="6" height="1.23172" stroke="black" stroke-width="1" fill="blue" opacity="1" tooltip="enable"><title>(0.0708058,8)</title></rect><rect x="342" y="199.076" width="6" height="0.923788" stroke="black" stroke-width="1" fill="blue" opacity="1" tooltip="enable"><title>(0.0720702,6)</title></rect><rect x="348" y="199.538" width="6" height="0.461894" stroke="black" stroke-width="1" fill="blue" opacity="1" tooltip="enable"><title>(0.0733346,3)</title></rect><rect x="354" y="197.691" width="6" height="2.30947" stroke="black" stroke-width="1" fill="blue" opacity="1" tooltip="enable"><title>(0.074599,15)</title></rect><rect x="360" y="199.076" width="6" height="0.923788" stroke="black" stroke-width="1" fill="blue" opacity="1" tooltip="enable"><title>(0.0758634,6)</title></rect><rect x="366" y="199.076" width="6" height="0.923788" stroke="black" stroke-width="1" fill="blue" opacity="1" tooltip="enable"><title>(0.0771277,6)</title></rect><rect x="372" y="199.692" width="6" height="0.307929" stroke="black" stroke-width="1" fill="blue" opacity="1" tooltip="enable"><title>(0.0783921,2)</title></rect><rect x="378" y="199.692" width="6" height="0.307929" stroke="black" stroke-width="1" fill="blue" opacity="1" tooltip="enable"><title>(0.0796565,2)</title></rect><rect x="384" y="199.384" width="6" height="0.615858" stroke="black" stroke-width="1" fill="blue" opacity="1" tooltip="enable"><title>(0.0809209,4)</title></rect><rect x="390" y="200" width="6" height="0" stroke="black" stroke-width="1" fill="blue" opacity="1" tooltip="enable"><title>(0.0821853,0)</title></rect><rect x="396" y="200" width="6" height="0" stroke="black" stroke-width="1" fill="blue" opacity="1" tooltip="enable"><title>(0.0834497,0)</title></rect><rect x="402" y="198.614" width="6" height="1.38568" stroke="black" stroke-width="1" fill="blue" opacity="1" tooltip="enable"><title>(0.0847141,9)</title></rect><rect x="408" y="198.614" width="6" height="1.38568" stroke="black" stroke-width="1" fill="blue" opacity="1" tooltip="enable"><title>(0.0859785,9)</title></rect><rect x="414" y="199.076" width="6" height="0.923788" stroke="black" stroke-width="1" fill="blue" opacity="1" tooltip="enable"><title>(0.0872429,6)</title></rect><rect x="420" y="199.692" width="6" height="0.307929" stroke="black" stroke-width="1" fill="blue" opacity="1" tooltip="enable"><title>(0.0885072,2)</title></rect><rect x="426" y="200" width="6" height="0" stroke="black" stroke-width="1" fill="blue" opacity="1" tooltip="enable"><title>(0.0897716,0)</title></rect><rect x="432" y="199.538" width="6" height="0.461894" stroke="black" stroke-width="1" fill="blue" opacity="1" tooltip="enable"><title>(0.091036,3)</title></rect><rect x="438" y="198.306" width="6" height="1.69361" stroke="black" stroke-width="1" fill="blue" opacity="1" tooltip="enable"><title>(0.0923004,11)</title></rect><rect x="444" y="199.692" width="6" height="0.307929" stroke="black" stroke-width="1" fill="blue" opacity="1" tooltip="enable"><title>(0.0935648,2)</title></rect><rect x="450" y="199.692" width="6" height="0.307929" stroke="black" stroke-width="1" fill="blue" opacity="1" tooltip="enable"><title>(0.0948292,2)</title></rect><rect x="456" y="200" width="6" height="0" stroke="black" stroke-width="1" fill="blue" opacity="1" tooltip="enable"><title>(0.0960936,0)</title></rect><rect x="462" y="199.692" width="6" height="0.307929" stroke="black" stroke-width="1" fill="blue" opacity="1" tooltip="enable"><title>(0.097358,2)</title></rect><rect x="468" y="199.692" width="6" height="0.307929" stroke="black" stroke-width="1" fill="blue" opacity="1" tooltip="enable"><title>(0.0986224,2)</title></rect><rect x="474" y="200" width="6" height="0" stroke="black" stroke-width="1" fill="blue" opacity="1" tooltip="enable"><title>(0.0998868,0)</title></rect><rect x="480" y="200" width="6" height="0" stroke="black" stroke-width="1" fill="blue" opacity="1" tooltip="enable"><title>(0.101151,0)</title></rect><rect x="486" y="200" width="6" height="0" stroke="black" stroke-width="1" fill="blue" opacity="1" tooltip="enable"><title>(0.102416,0)</title></rect><rect x="492" y="200" width="6" height="0" stroke="black" stroke-width="1" fill="blue" opacity="1" tooltip="enable"><title>(0.10368,0)</title></rect><rect x="498" y="199.846" width="6" height="0.153965" stroke="black" stroke-width="1" fill="blue" opacity="1" tooltip="enable"><title>(0.104944,1)</title></rect><rect x="504" y="199.538" width="6" height="0.461894" stroke="black" stroke-width="1" fill="blue" opacity="1" tooltip="enable"><title>(0.106209,3)</title></rect><rect x="510" y="199.692" width="6" height="0.307929" stroke="black" stroke-width="1" fill="blue" opacity="1" tooltip="enable"><title>(0.107473,2)</title></rect><rect x="516" y="200" width="6" height="0" stroke="black" stroke-width="1" fill="blue" opacity="1" tooltip="enable"><title>(0.108737,0)</title></rect><rect x="522" y="199.692" width="6" height="0.307929" stroke="black" stroke-width="1" fill="blue" opacity="1" tooltip="enable"><title>(0.110002,2)</title></rect><rect x="528" y="200" width="6" height="0" stroke="black" stroke-width="1" fill="blue" opacity="1" tooltip="enable"><title>(0.111266,0)</title></rect><rect x="534" y="199.076" width="6" height="0.923788" stroke="black" stroke-width="1" fill="blue" opacity="1" tooltip="enable"><title>(0.112531,6)</title></rect><rect x="540" y="200" width="6" height="0" stroke="black" stroke-width="1" fill="blue" opacity="1" tooltip="enable"><title>(0.113795,0)</title></rect><rect x="546" y="199.692" width="6" height="0.307929" stroke="black" stroke-width="1" fill="blue" opacity="1" tooltip="enable"><title>(0.115059,2)</title></rect><rect x="552" y="199.692" width="6" height="0.307929" stroke="black" stroke-width="1" fill="blue" opacity="1" tooltip="enable"><title>(0.116324,2)</title></rect><rect x="558" y="200" width="6" height="0" stroke="black" stroke-width="1" fill="blue" opacity="1" tooltip="enable"><title>(0.117588,0)</title></rect><rect x="564" y="199.692" width="6" height="0.307929" stroke="black" stroke-width="1" fill="blue" opacity="1" tooltip="enable"><title>(0.118853,2)</title></rect><rect x="570" y="200" width="6" height="0" stroke="black" stroke-width="1" fill="blue" opacity="1" tooltip="enable"><title>(0.120117,0)</title></rect><rect x="576" y="200" width="6" height="0" stroke="black" stroke-width="1" fill="blue" opacity="1" tooltip="enable"><title>(0.121381,0)</title></rect><rect x="582" y="200" width="6" height="0" stroke="black" stroke-width="1" fill="blue" opacity="1" tooltip="enable"><title>(0.122646,0)</title></rect><rect x="588" y="200" width="6" height="0" stroke="black" stroke-width="1" fill="blue" opacity="1" tooltip="enable"><title>(0.12391,0)</title></rect><rect x="594" y="199.846" width="6" height="0.153965" stroke="black" stroke-width="1" fill="blue" opacity="1" tooltip="enable"><title>(0.125175,1)</title></rect><text x="30" y="240" font-size="20" fill="black">0</text>
<text x="600" y="240" font-size="20" fill="black">0.126439</text>
<polyline points="0,220,600,220" stroke="black" stroke-width="1" fill="none" opacity="1"/>
<text x="720" y="20" font-size="20" fill="black">1299</text>
<text x="720" y="200" font-size="20" fill="black">0</text>
<polyline points="660,0,660,200" stroke="black" stroke-width="1" fill="none" opacity="1"/>
</svg>