<?xml version="1.0" standalone="yes"?>
<!-- SVG graphic -->
<svg xmlns='http://www.w3.org/2000/svg' xmlns:xlink='http://www.w3.org/1999/xlink'
 version="1.1">
<rect x="0" y="0" width="6" height="200" stroke="black" stroke-width="1" fill="blue" opacity="1" tooltip="enable"><title>(0,1189)</title></rect><rect x="6" y="2.01849" width="6" height="197.982" stroke="black" stroke-width="1" fill="blue" opacity="1" tooltip="enable"><title>(0.00092917,1177)</title></rect><rect x="12" y="55.677" width="6" height="144.323" stroke="black" stroke-width="1" fill="blue" opacity="1" tooltip="enable"><title>(0.00185834,858)</title></rect><rect x="18" y="84.2725" width="6" height="115.728" stroke="black" stroke-width="1" fill="blue" opacity="1" tooltip="enable"><title>(0.00278751,688)</title></rect><rect x="24" y="140.118" width="6" height="59.8823" stroke="black" stroke-width="1" fill="blue" opacity="1" tooltip="enable"><title>(0.00371668,356)</title></rect><rect x="30" y="170.732" width="6" height="29.2683" stroke="black" stroke-width="1" fill="blue" opacity="1" tooltip="enable"><title>(0.00464585,174)</title></rect><rect x="36" y="181.161" width="6" height="18.8394" stroke="black" stroke-width="1" fill="blue" opacity="1" tooltip="enable"><title>(0.00557502,112)</title></rect><rect x="42" y="187.553" width="6" height="12.4474" stroke="black" stroke-width="1" fill="blue" opacity="1" tooltip="enable"><title>(0.00650419,74)</title></rect><rect x="48" y="183.347" width="6" height="16.6526" stroke="black" stroke-width="1" fill="blue" opacity="1" tooltip="enable"><title>(0.00743336,99)</title></rect><rect x="54" y="183.011" width="6" height="16.9891" stroke="black" stroke-width="1" fill="blue" opacity="1" tooltip="enable"><title>(0.00836253,101)</title></rect><rect x="60" y="184.357" width="6" height="15.6434" stroke="black" stroke-width="1" fill="blue" opacity="1" tooltip="enable"><title>(0.0092917,93)</title></rect><rect x="66" y="184.525" width="6" height="15.4752" stroke="black" stroke-width="1" fill="blue" opacity="1" tooltip="enable"><title>(0.0102209,92)</title></rect><rect x="72" y="182.843" width="6" height="17.1573" stroke="black" stroke-width="1" fill="blue" opacity="1" tooltip="enable"><title>(0.01115,102)</title></rect><rect x="78" y="185.198" width="6" height="14.8024" stroke="black" stroke-width="1" fill="blue" opacity="1" tooltip="enable"><title>(0.0120792,88)</title></rect><rect x="84" y="181.665" width="6" height="18.3347" stroke="black" stroke-width="1" fill="blue" opacity="1" tooltip="enable"><title>(0.0130084,109)</title></rect><rect x="90" y="184.861" width="6" height="15.1388" stroke="black" stroke-width="1" fill="blue" opacity="1" tooltip="enable"><title>(0.0139375,90)</title></rect><rect x="96" y="185.702" width="6" height="14.2977" stroke="black" stroke-width="1" fill="blue" opacity="1" tooltip="enable"><title>(0.0148667,85)</title></rect><rect x="102" y="190.58" width="6" height="9.41968" stroke="black" stroke-width="1" fill="blue" opacity="1" tooltip="enable"><title>(0.0157959,56)</title></rect><rect x="108" y="186.207" width="6" height="13.7931" stroke="black" stroke-width="1" fill="blue" opacity="1" tooltip="enable"><title>(0.0167251,82)</title></rect><rect x="114" y="186.543" width="6" height="13.4567" stroke="black" stroke-width="1" fill="blue" opacity="1" tooltip="enable"><title>(0.0176542,80)</title></rect><rect x="120" y="185.87" width="6" height="14.1295" stroke="black" stroke-width="1" fill="blue" opacity="1" tooltip="enable"><title>(0.0185834,84)</title></rect><rect x="126" y="189.066" width="6" height="10.9336" stroke="black" stroke-width="1" fill="blue" opacity="1" tooltip="enable"><title>(0.0195126,65)</title></rect><rect x="132" y="188.73" width="6" height="11.27" stroke="black" stroke-width="1" fill="blue" opacity="1" tooltip="enable"><title>(0.0204417,67)</title></rect><rect x="138" y="187.216" width="6" height="12.7839" stroke="black" stroke-width="1" fill="blue" opacity="1" tooltip="enable"><title>(0.0213709,76)</title></rect><rect x="144" y="184.693" width="6" height="15.307" stroke="black" stroke-width="1" fill="blue" opacity="1" tooltip="enable"><title>(0.0223001,91)</title></rect><rect x="150" y="186.712" width="6" height="13.2885" stroke="black" stroke-width="1" fill="blue" opacity="1" tooltip="enable"><title>(0.0232292,79)</title></rect><rect x="156" y="180.151" width="6" height="19.8486" stroke="black" stroke-width="1" fill="blue" opacity="1" tooltip="enable"><title>(0.0241584,118)</title></rect><rect x="162" y="186.88" width="6" height="13.1203" stroke="black" stroke-width="1" fill="blue" opacity="1" tooltip="enable"><title>(0.0250876,78)</title></rect><rect x="168" y="186.207" width="6" height="13.7931" stroke="black" stroke-width="1" fill="blue" opacity="1" tooltip="enable"><title>(0.0260167,82)</title></rect><rect x="174" y="189.066" width="6" height="10.9336" stroke="black" stroke-width="1" fill="blue" opacity="1" tooltip="enable"><title>(0.0269459,65)</title></rect><rect x="180" y="184.861" width="6" height="15.1388" stroke="black" stroke-width="1" fill="blue" opacity="1" tooltip="enable"><title>(0.0278751,90)</title></rect><rect x="186" y="186.207" width="6" height="13.7931" stroke="black" stroke-width="1" fill="blue" opacity="1" tooltip="enable"><title>(0.0288043,82)</title></rect><rect x="192" y="185.198" width="6" height="14.8024" stroke="black" stroke-width="1" fill="blue" opacity="1" tooltip="enable"><title>(0.0297334,88)</title></rect><rect x="198" y="186.543" width="6" height="13.4567" stroke="black" stroke-width="1" fill="blue" opacity="1" tooltip="enable"><title>(0.0306626,80)</title></rect><rect x="204" y="185.534" width="6" height="14.4659" stroke="black" stroke-width="1" fill="blue" opacity="1" tooltip="enable"><title>(0.0315918,86)</title></rect><rect x="210" y="185.198" width="6" height="14.8024" stroke="black" stroke-width="1" fill="blue" opacity="1" tooltip="enable"><title>(0.0325209,88)</title></rect><rect x="216" y="189.739" width="6" height="10.2607" stroke="black" stroke-width="1" fill="blue" opacity="1" tooltip="enable"><title>(0.0334501,61)</title></rect><rect x="222" y="187.721" width="6" height="12.2792" stroke="black" stroke-width="1" fill="blue" opacity="1" tooltip="enable"><title>(0.0343793,73)</title></rect><rect x="228" y="189.235" width="6" height="10.7653" stroke="black" stroke-width="1" fill="blue" opacity="1" tooltip="enable"><title>(0.0353084,64)</title></rect><rect x="234" y="189.403" width="6" height="10.5971" stroke="black" stroke-width="1" fill="blue" opacity="1" tooltip="enable"><title>(0.0362376,63)</title></rect><rect x="240" y="187.048" width="6" height="12.9521" stroke="black" stroke-width="1" fill="blue" opacity="1" tooltip="enable"><title>(0.0371668,77)</title></rect><rect x="246" y="191.59" width="6" height="8.41043" stroke="black" stroke-width="1" fill="blue" opacity="1" tooltip="enable"><title>(0.038096,50)</title></rect><rect x="252" y="191.926" width="6" height="8.07401" stroke="black" stroke-width="1" fill="blue" opacity="1" tooltip="enable"><title>(0.0390251,48)</title></rect><rect x="258" y="191.758" width="6" height="8.24222" stroke="black" stroke-width="1" fill="blue" opacity="1" tooltip="enable"><title>(0.0399543,49)</title></rect><rect x="264" y="192.599" width="6" height="7.40118" stroke="black" stroke-width="1" fill="blue" opacity="1" tooltip="enable"><title>(0.0408835,44)</title></rect><rect x="270" y="192.599" width="6" height="7.40118" stroke="black" stroke-width="1" fill="blue" opacity="1" tooltip="enable"><title>(0.0418126,44)</title></rect><rect x="276" y="193.272" width="6" height="6.72834" stroke="black" stroke-width="1" fill="blue" opacity="1" tooltip="enable"><title>(0.0427418,40)</title></rect><rect x="282" y="191.085" width="6" height="8.91506" stroke="black" stroke-width="1" fill="blue" opacity="1" tooltip="enable"><title>(0.043671,53)</title></rect><rect x="288" y="193.944" width="6" height="6.05551" stroke="black" stroke-width="1" fill="blue" opacity="1" tooltip="enable"><title>(0.0446001,36)</title></rect><rect x="294" y="193.103" width="6" height="6.89655" stroke="black" stroke-width="1" fill="blue" opacity="1" tooltip="enable"><title>(0.0455293,41)</title></rect><rect x="300" y="194.113" width="6" height="5.8873" stroke="black" stroke-width="1" fill="blue" opacity="1" tooltip="enable"><title>(0.0464585,35)</title></rect><rect x="306" y="196.804" width="6" height="3.19596" stroke="black" stroke-width="1" fill="blue" opacity="1" tooltip="enable"><title>(0.0473876,19)</title></rect><rect x="312" y="197.477" width="6" height="2.52313" stroke="black" stroke-width="1" fill="blue" opacity="1" tooltip="enable"><title>(0.0483168,15)</title></rect><rect x="318" y="194.617" width="6" height="5.38267" stroke="black" stroke-width="1" fill="blue" opacity="1" tooltip="enable"><title>(0.049246,32)</title></rect><rect x="324" y="196.972" width="6" height="3.02775" stroke="black" stroke-width="1" fill="blue" opacity="1" tooltip="enable"><title>(0.0501752,18)</title></rect><rect x="330" y="195.963" width="6" height="4.03701" stroke="black" stroke-width="1" fill="blue" opacity="1" tooltip="enable"><title>(0.0511043,24)</title></rect><rect x="336" y="198.991" width="6" height="1.00925" stroke="black" stroke-width="1" fill="blue" opacity="1" tooltip="enable"><title>(0.0520335,6)</title></rect><rect x="342" y="198.654" width="6" height="1.34567" stroke="black" stroke-width="1" fill="blue" opacity="1" tooltip="enable"><title>(0.0529627,8)</title></rect><rect x="348" y="198.318" width="6" height="1.68209" stroke="black" stroke-width="1" fill="blue" opacity="1" tooltip="enable"><title>(0.0538918,10)</title></rect><rect x="354" y="199.327" width="6" height="0.672834" stroke="black" stroke-width="1" fill="blue" opacity="1" tooltip="enable"><title>(0.054821,4)</title></rect><rect x="360" y="199.327" width="6" height="0.672834" stroke="black" stroke-width="1" fill="blue" opacity="1" tooltip="enable"><title>(0.0557502,4)</title></rect><rect x="366" y="199.327" width="6" height="0.672834" stroke="black" stroke-width="1" fill="blue" opacity="1" tooltip="enable"><title>(0.0566793,4)</title></rect><rect x="372" y="199.327" width="6" height="0.672834" stroke="black" stroke-width="1" fill="blue" opacity="1" tooltip="enable"><title>(0.0576085,4)</title></rect><rect x="378" y="199.327" width="6" height="0.672834" stroke="black" stroke-width="1" fill="blue" opacity="1" tooltip="enable"><title>(0.0585377,4)</title></rect><rect x="384" y="198.991" width="6" height="1.00925" stroke="black" stroke-width="1" fill="blue" opacity="1" tooltip="enable"><title>(0.0594669,6)</title></rect><rect x="390" y="199.327" width="6" height="0.672834" stroke="black" stroke-width="1" fill="blue" opacity="1" tooltip="enable"><title>(0.060396,4)</title></rect><rect x="396" y="199.327" width="6" height="0.672834" stroke="black" stroke-width="1" fill="blue" opacity="1" tooltip="enable"><title>(0.0613252,4)</title></rect><rect x="402" y="199.327" width="6" height="0.672834" stroke="black" stroke-width="1" fill="blue" opacity="1" tooltip="enable"><title>(0.0622544,4)</title></rect><rect x="408" y="199.664" width="6" height="0.336417" stroke="black" stroke-width="1" fill="blue" opacity="1" tooltip="enable"><title>(0.0631835,2)</title></rect><rect x="414" y="200" width="6" height="0" stroke="black" stroke-width="1" fill="blue" opacity="1" tooltip="enable"><title>(0.0641127,0)</title></rect><rect x="420" y="199.664" width="6" height="0.336417" stroke="black" stroke-width="1" fill="blue" opacity="1" tooltip="enable"><title>(0.0650419,2)</title></rect><rect x="426" y="199.664" width="6" height="0.336417" stroke="black" stroke-width="1" fill="blue" opacity="1" tooltip="enable"><title>(0.065971,2)</title></rect><rect x="432" y="200" width="6" height="0" stroke="black" stroke-width="1" fill="blue" opacity="1" tooltip="enable"><title>(0.0669002,0)</title></rect><rect x="438" y="200" width="6" height="0" stroke="black" stroke-width="1" fill="blue" opacity="1" tooltip="enable"><title>(0.0678294,0)</title></rect><rect x="444" y="199.664" width="6" height="0.336417" stroke="black" stroke-width="1" fill="blue" opacity="1" tooltip="enable"><title>(0.0687585,2)</title></rect><rect x="450" y="200" width="6" height="0" stroke="black" stroke-width="1" fill="blue" opacity="1" tooltip="enable"><title>(0.0696877,0)</title></rect><rect x="456" y="199.664" width="6" height="0.336417" stroke="black" stroke-width="1" fill="blue" opacity="1" tooltip="enable"><title>(0.0706169,2)</title></rect><rect x="462" y="200" width="6" height="0" stroke="black" stroke-width="1" fill="blue" opacity="1" tooltip="enable"><title>(0.0715461,0)</title></rect><rect x="468" y="199.664" width="6" height="0.336417" stroke="black" stroke-width="1" fill="blue" opacity="1" tooltip="enable"><title>(0.0724752,2)</title></rect><rect x="474" y="199.664" width="6" height="0.336417" stroke="black" stroke-width="1" fill="blue" opacity="1" tooltip="enable"><title>(0.0734044,2)</title></rect><rect x="480" y="199.664" width="6" height="0.336417" stroke="black" stroke-width="1" fill="blue" opacity="1" tooltip="enable"><title>(0.0743336,2)</title></rect><rect x="486" y="200" width="6" height="0" stroke="black" stroke-width="1" fill="blue" opacity="1" tooltip="enable"><title>(0.0752627,0)</title></rect><rect x="492" y="200" width="6" height="0" stroke="black" stroke-width="1" fill="blue" opacity="1" tooltip="enable"><title>(0.0761919,0)</title></rect><rect x="498" y="200" width="6" height="0" stroke="black" stroke-width="1" fill="blue" opacity="1" tooltip="enable"><title>(0.0771211,0)</title></rect><rect x="504" y="199.664" width="6" height="0.336417" stroke="black" stroke-width="1" fill="blue" opacity="1" tooltip="enable"><title>(0.0780502,2)</title></rect><rect x="510" y="200" width="6" height="0" stroke="black" stroke-width="1" fill="blue" opacity="1" tooltip="enable"><title>(0.0789794,0)</title></rect><rect x="516" y="200" width="6" height="0" stroke="black" stroke-width="1" fill="blue" opacity="1" tooltip="enable"><title>(0.0799086,0)</title></rect><rect x="522" y="200" width="6" height="0" stroke="black" stroke-width="1" fill="blue" opacity="1" tooltip="enable"><title>(0.0808378,0)</title></rect><rect x="528" y="200" width="6" height="0" stroke="black" stroke-width="1" fill="blue" opacity="1" tooltip="enable"><title>(0.0817669,0)</title></rect><rect x="534" y="200" width="6" height="0" stroke="black" stroke-width="1" fill="blue" opacity="1" tooltip="enable"><title>(0.0826961,0)</title></rect><rect x="540" y="199.664" width="6" height="0.336417" stroke="black" stroke-width="1" fill="blue" opacity="1" tooltip="enable"><title>(0.0836253,2)</title></rect><rect x="546" y="199.664" width="6" height="0.336417" stroke="black" stroke-width="1" fill="blue" opacity="1" tooltip="enable"><title>(0.0845544,2)</title></rect><rect x="552" y="200" width="6" height="0" stroke="black" stroke-width="1" fill="blue" opacity="1" tooltip="enable"><title>(0.0854836,0)</title></rect><rect x="558" y="199.664" width="6" height="0.336417" stroke="black" stroke-width="1" fill="blue" opacity="1" tooltip="enable"><title>(0.0864128,2)</title></rect><rect x="564" y="200" width="6" height="0" stroke="black" stroke-width="1" fill="blue" opacity="1" tooltip="enable"><title>(0.0873419,0)</title></rect><rect x="570" y="200" width="6" height="0" stroke="black" stroke-width="1" fill="blue" opacity="1" tooltip="enable"><title>(0.0882711,0)</title></rect><rect x="576" y="200" width="6" height="0" stroke="black" stroke-width="1" fill="blue" opacity="1" tooltip="enable"><title>(0.0892003,0)</title></rect><rect x="582" y="200" width="6" height="0" stroke="black" stroke-width="1" fill="blue" opacity="1" tooltip="enable"><title>(0.0901294,0)</title></rect><rect x="588" y="200" width="6" height="0" stroke="black" stroke-width="1" fill="blue" opacity="1" tooltip="enable"><title>(0.0910586,0)</title></rect><rect x="594" y="199.495" width="6" height="0.504626" stroke="black" stroke-width="1" fill="blue" opacity="1" tooltip="enable"><title>(0.0919878,3)</title></rect><text x="30" y="240" font-size="20" fill="black">0</text>
<text x="600" y="240" font-size="20" fill="black">0.092917</text>
<polyline points="0,220,600,220" stroke="black" stroke-width="1" fill="none" opacity="1"/>
<text x="720" y="20" font-size="20" fill="black">1189</text>
<text x="720" y="200" font-size="20" fill="black">0</text>
<polyline points="660,0,660,200" stroke="black" stroke-width="1" fill="none" opacity="1"/>
</svg>