<?xml version="1.0" standalone="yes"?>
<!-- SVG graphic -->
<svg xmlns='http://www.w3.org/2000/svg' xmlns:xlink='http://www.w3.org/1999/xlink'
 version="1.1">
<rect x="0" y="29.003" width="6" height="170.997" stroke="black" stroke-width="1" fill="blue" opacity="1" tooltip="enable"><title>(0,849)</title></rect><rect x="6" y="3.42397" width="6" height="196.576" stroke="black" stroke-width="1" fill="blue" opacity="1" tooltip="enable"><title>(0.00132409,976)</title></rect><rect x="12" y="0" width="6" height="200" stroke="black" stroke-width="1" fill="blue" opacity="1" tooltip="enable"><title>(0.00264817,993)</title></rect><rect x="18" y="42.4975" width="6" height="157.503" stroke="black" stroke-width="1" fill="blue" opacity="1" tooltip="enable"><title>(0.00397226,782)</title></rect><rect x="24" y="83.3837" width="6" height="116.616" stroke="black" stroke-width="1" fill="blue" opacity="1" tooltip="enable"><title>(0.00529634,579)</title></rect><rect x="30" y="111.38" width="6" height="88.6203" stroke="black" stroke-width="1" fill="blue" opacity="1" tooltip="enable"><title>(0.00662043,440)</title></rect><rect x="36" y="143.404" width="6" height="56.5962" stroke="black" stroke-width="1" fill="blue" opacity="1" tooltip="enable"><title>(0.00794451,281)</title></rect><rect x="42" y="151.46" width="6" height="48.5398" stroke="black" stroke-width="1" fill="blue" opacity="1" tooltip="enable"><title>(0.0092686,241)</title></rect><rect x="48" y="165.962" width="6" height="34.0383" stroke="black" stroke-width="1" fill="blue" opacity="1" tooltip="enable"><title>(0.0105927,169)</title></rect><rect x="54" y="164.955" width="6" height="35.0453" stroke="black" stroke-width="1" fill="blue" opacity="1" tooltip="enable"><title>(0.0119168,174)</title></rect><rect x="60" y="163.948" width="6" height="36.0524" stroke="black" stroke-width="1" fill="blue" opacity="1" tooltip="enable"><title>(0.0132409,179)</title></rect><rect x="66" y="169.386" width="6" height="30.6143" stroke="black" stroke-width="1" fill="blue" opacity="1" tooltip="enable"><title>(0.0145649,152)</title></rect><rect x="72" y="163.948" width="6" height="36.0524" stroke="black" stroke-width="1" fill="blue" opacity="1" tooltip="enable"><title>(0.015889,179)</title></rect><rect x="78" y="166.969" width="6" height="33.0312" stroke="black" stroke-width="1" fill="blue" opacity="1" tooltip="enable"><title>(0.0172131,164)</title></rect><rect x="84" y="168.177" width="6" height="31.8228" stroke="black" stroke-width="1" fill="blue" opacity="1" tooltip="enable"><title>(0.0185372,158)</title></rect><rect x="90" y="174.22" width="6" height="25.7805" stroke="black" stroke-width="1" fill="blue" opacity="1" tooltip="enable"><title>(0.0198613,128)</title></rect><rect x="96" y="172.608" width="6" height="27.3917" stroke="black" stroke-width="1" fill="blue" opacity="1" tooltip="enable"><title>(0.0211854,136)</title></rect><rect x="102" y="180.262" width="6" height="19.7382" stroke="black" stroke-width="1" fill="blue" opacity="1" tooltip="enable"><title>(0.0225095,98)</title></rect><rect x="108" y="178.651" width="6" height="21.3494" stroke="black" stroke-width="1" fill="blue" opacity="1" tooltip="enable"><title>(0.0238335,106)</title></rect><rect x="114" y="175.025" width="6" height="24.9748" stroke="black" stroke-width="1" fill="blue" opacity="1" tooltip="enable"><title>(0.0251576,124)</title></rect><rect x="120" y="180.06" width="6" height="19.9396" stroke="black" stroke-width="1" fill="blue" opacity="1" tooltip="enable"><title>(0.0264817,99)</title></rect><rect x="126" y="182.88" width="6" height="17.1198" stroke="black" stroke-width="1" fill="blue" opacity="1" tooltip="enable"><title>(0.0278058,85)</title></rect><rect x="132" y="179.053" width="6" height="20.9466" stroke="black" stroke-width="1" fill="blue" opacity="1" tooltip="enable"><title>(0.0291299,104)</title></rect><rect x="138" y="182.679" width="6" height="17.3212" stroke="black" stroke-width="1" fill="blue" opacity="1" tooltip="enable"><title>(0.030454,86)</title></rect><rect x="144" y="182.075" width="6" height="17.9255" stroke="black" stroke-width="1" fill="blue" opacity="1" tooltip="enable"><title>(0.031778,89)</title></rect><rect x="150" y="185.498" width="6" height="14.5015" stroke="black" stroke-width="1" fill="blue" opacity="1" tooltip="enable"><title>(0.0331021,72)</title></rect><rect x="156" y="187.714" width="6" height="12.286" stroke="black" stroke-width="1" fill="blue" opacity="1" tooltip="enable"><title>(0.0344262,61)</title></rect><rect x="162" y="183.686" width="6" height="16.3142" stroke="black" stroke-width="1" fill="blue" opacity="1" tooltip="enable"><title>(0.0357503,81)</title></rect><rect x="168" y="188.721" width="6" height="11.279" stroke="black" stroke-width="1" fill="blue" opacity="1" tooltip="enable"><title>(0.0370744,56)</title></rect><rect x="174" y="189.93" width="6" height="10.0705" stroke="black" stroke-width="1" fill="blue" opacity="1" tooltip="enable"><title>(0.0383985,50)</title></rect><rect x="180" y="188.721" width="6" height="11.279" stroke="black" stroke-width="1" fill="blue" opacity="1" tooltip="enable"><title>(0.0397226,56)</title></rect><rect x="186" y="190.131" width="6" height="9.86908" stroke="black" stroke-width="1" fill="blue" opacity="1" tooltip="enable"><title>(0.0410466,49)</title></rect><rect x="192" y="195.77" width="6" height="4.22961" stroke="black" stroke-width="1" fill="blue" opacity="1" tooltip="enable"><title>(0.0423707,21)</title></rect><rect x="198" y="192.145" width="6" height="7.85499" stroke="black" stroke-width="1" fill="blue" opacity="1" tooltip="enable"><title>(0.0436948,39)</title></rect><rect x="204" y="194.763" width="6" height="5.23666" stroke="black" stroke-width="1" fill="blue" opacity="1" tooltip="enable"><title>(0.0450189,26)</title></rect><rect x="210" y="196.777" width="6" height="3.22256" stroke="black" stroke-width="1" fill="blue" opacity="1" tooltip="enable"><title>(0.046343,16)</title></rect><rect x="216" y="196.979" width="6" height="3.02115" stroke="black" stroke-width="1" fill="blue" opacity="1" tooltip="enable"><title>(0.0476671,15)</title></rect><rect x="222" y="196.173" width="6" height="3.82679" stroke="black" stroke-width="1" fill="blue" opacity="1" tooltip="enable"><title>(0.0489912,19)</title></rect><rect x="228" y="196.777" width="6" height="3.22256" stroke="black" stroke-width="1" fill="blue" opacity="1" tooltip="enable"><title>(0.0503152,16)</title></rect><rect x="234" y="197.986" width="6" height="2.0141" stroke="black" stroke-width="1" fill="blue" opacity="1" tooltip="enable"><title>(0.0516393,10)</title></rect><rect x="240" y="198.389" width="6" height="1.61128" stroke="black" stroke-width="1" fill="blue" opacity="1" tooltip="enable"><title>(0.0529634,8)</title></rect><rect x="246" y="198.389" width="6" height="1.61128" stroke="black" stroke-width="1" fill="blue" opacity="1" tooltip="enable"><title>(0.0542875,8)</title></rect><rect x="252" y="198.59" width="6" height="1.40987" stroke="black" stroke-width="1" fill="blue" opacity="1" tooltip="enable"><title>(0.0556116,7)</title></rect><rect x="258" y="198.993" width="6" height="1.00705" stroke="black" stroke-width="1" fill="blue" opacity="1" tooltip="enable"><title>(0.0569357,5)</title></rect><rect x="264" y="199.194" width="6" height="0.80564" stroke="black" stroke-width="1" fill="blue" opacity="1" tooltip="enable"><title>(0.0582598,4)</title></rect><rect x="270" y="200" width="6" height="0" stroke="black" stroke-width="1" fill="blue" opacity="1" tooltip="enable"><title>(0.0595838,0)</title></rect><rect x="276" y="200" width="6" height="0" stroke="black" stroke-width="1" fill="blue" opacity="1" tooltip="enable"><title>(0.0609079,0)</title></rect><rect x="282" y="200" width="6" height="0" stroke="black" stroke-width="1" fill="blue" opacity="1" tooltip="enable"><title>(0.062232,0)</title></rect><rect x="288" y="199.597" width="6" height="0.40282" stroke="black" stroke-width="1" fill="blue" opacity="1" tooltip="enable"><title>(0.0635561,2)</title></rect><rect x="294" y="200" width="6" height="0" stroke="black" stroke-width="1" fill="blue" opacity="1" tooltip="enable"><title>(0.0648802,0)</title></rect><rect x="300" y="200" width="6" height="0" stroke="black" stroke-width="1" fill="blue" opacity="1" tooltip="enable"><title>(0.0662043,0)</title></rect><rect x="306" y="200" width="6" height="0" stroke="black" stroke-width="1" fill="blue" opacity="1" tooltip="enable"><title>(0.0675284,0)</title></rect><rect x="312" y="200" width="6" height="0" stroke="black" stroke-width="1" fill="blue" opacity="1" tooltip="enable"><title>(0.0688524,0)</title></rect><rect x="318" y="200" width="6" height="0" stroke="black" stroke-width="1" fill="blue" opacity="1" tooltip="enable"><title>(0.0701765,0)</title></rect><rect x="324" y="200" width="6" height="0" stroke="black" stroke-width="1" fill="blue" opacity="1" tooltip="enable"><title>(0.0715006,0)</title></rect><rect x="330" y="200" width="6" height="0" stroke="black" stroke-width="1" fill="blue" opacity="1" tooltip="enable"><title>(0.0728247,0)</title></rect><rect x="336" y="200" width="6" height="0" stroke="black" stroke-width="1" fill="blue" opacity="1" tooltip="enable"><title>(0.0741488,0)</title></rect><rect x="342" y="200" width="6" height="0" stroke="black" stroke-width="1" fill="blue" opacity="1" tooltip="enable"><title>(0.0754729,0)</title></rect><rect x="348" y="200" width="6" height="0" stroke="black" stroke-width="1" fill="blue" opacity="1" tooltip="enable"><title>(0.076797,0)</title></rect><rect x="354" y="200" width="6" height="0" stroke="black" stroke-width="1" fill="blue" opacity="1" tooltip="enable"><title>(0.078121,0)</title></rect><rect x="360" y="200" width="6" height="0" stroke="black" stroke-width="1" fill="blue" opacity="1" tooltip="enable"><title>(0.0794451,0)</title></rect><rect x="366" y="200" width="6" height="0" stroke="black" stroke-width="1" fill="blue" opacity="1" tooltip="enable"><title>(0.0807692,0)</title></rect><rect x="372" y="200" width="6" height="0" stroke="black" stroke-width="1" fill="blue" opacity="1" tooltip="enable"><title>(0.0820933,0)</title></rect><rect x="378" y="200" width="6" height="0" stroke="black" stroke-width="1" fill="blue" opacity="1" tooltip="enable"><title>(0.0834174,0)</title></rect><rect x="384" y="200" width="6" height="0" stroke="black" stroke-width="1" fill="blue" opacity="1" tooltip="enable"><title>(0.0847415,0)</title></rect><rect x="390" y="200" width="6" height="0" stroke="black" stroke-width="1" fill="blue" opacity="1" tooltip="enable"><title>(0.0860656,0)</title></rect><rect x="396" y="200" width="6" height="0" stroke="black" stroke-width="1" fill="blue" opacity="1" tooltip="enable"><title>(0.0873896,0)</title></rect><rect x="402" y="200" width="6" height="0" stroke="black" stroke-width="1" fill="blue" opacity="1" tooltip="enable"><title>(0.0887137,0)</title></rect><rect x="408" y="199.597" width="6" height="0.40282" stroke="black" stroke-width="1" fill="blue" opacity="1" tooltip="enable"><title>(0.0900378,2)</title></rect><rect x="414" y="200" width="6" height="0" stroke="black" stroke-width="1" fill="blue" opacity="1" tooltip="enable"><title>(0.0913619,0)</title></rect><rect x="420" y="200" width="6" height="0" stroke="black" stroke-width="1" fill="blue" opacity="1" tooltip="enable"><title>(0.092686,0)</title></rect><rect x="426" y="200" width="6" height="0" stroke="black" stroke-width="1" fill="blue" opacity="1" tooltip="enable"><title>(0.0940101,0)</title></rect><rect x="432" y="200" width="6" height="0" stroke="black" stroke-width="1" fill="blue" opacity="1" tooltip="enable"><title>(0.0953342,0)</title></rect><rect x="438" y="200" width="6" height="0" stroke="black" stroke-width="1" fill="blue" opacity="1" tooltip="enable"><title>(0.0966582,0)</title></rect><rect x="444" y="200" width="6" height="0" stroke="black" stroke-width="1" fill="blue" opacity="1" tooltip="enable"><title>(0.0979823,0)</title></rect><rect x="450" y="200" width="6" height="0" stroke="black" stroke-width="1" fill="blue" opacity="1" tooltip="enable"><title>(0.0993064,0)</title></rect><rect x="456" y="200" width="6" height="0" stroke="black" stroke-width="1" fill="blue" opacity="1" tooltip="enable"><title>(0.10063,0)</title></rect><rect x="462" y="200" width="6" height="0" stroke="black" stroke-width="1" fill="blue" opacity="1" tooltip="enable"><title>(0.101955,0)</title></rect><rect x="468" y="200" width="6" height="0" stroke="black" stroke-width="1" fill="blue" opacity="1" tooltip="enable"><title>(0.103279,0)</title></rect><rect x="474" y="200" width="6" height="0" stroke="black" stroke-width="1" fill="blue" opacity="1" tooltip="enable"><title>(0.104603,0)</title></rect><rect x="480" y="200" width="6" height="0" stroke="black" stroke-width="1" fill="blue" opacity="1" tooltip="enable"><title>(0.105927,0)</title></rect><rect x="486" y="200" width="6" height="0" stroke="black" stroke-width="1" fill="blue" opacity="1" tooltip="enable"><title>(0.107251,0)</title></rect><rect x="492" y="200" width="6" height="0" stroke="black" stroke-width="1" fill="blue" opacity="1" tooltip="enable"><title>(0.108575,0)</title></rect><rect x="498" y="200" width="6" height="0" stroke="black" stroke-width="1" fill="blue" opacity="1" tooltip="enable"><title>(0.109899,0)</title></rect><rect x="504" y="200" width="6" height="0" stroke="black" stroke-width="1" fill="blue" opacity="1" tooltip="enable"><title>(0.111223,0)</title></rect><rect x="510" y="199.597" width="6" height="0.40282" stroke="black" stroke-width="1" fill="blue" opacity="1" tooltip="enable"><title>(0.112547,2)</title></rect><rect x="516" y="200" width="6" height="0" stroke="black" stroke-width="1" fill="blue" opacity="1" tooltip="enable"><title>(0.113871,0)</title></rect><rect x="522" y="200" width="6" height="0" stroke="black" stroke-width="1" fill="blue" opacity="1" tooltip="enable"><title>(0.115195,0)</title></rect><rect x="528" y="200" width="6" height="0" stroke="black" stroke-width="1" fill="blue" opacity="1" tooltip="enable"><title>(0.11652,0)</title></rect><rect x="534" y="199.799" width="6" height="0.20141" stroke="black" stroke-width="1" fill="blue" opacity="1" tooltip="enable"><title>(0.117844,1)</title></rect><rect x="540" y="199.799" width="6" height="0.20141" stroke="black" stroke-width="1" fill="blue" opacity="1" tooltip="enable"><title>(0.119168,1)</title></rect><rect x="546" y="200" width="6" height="0" stroke="black" stroke-width="1" fill="blue" opacity="1" tooltip="enable"><title>(0.120492,0)</title></rect><rect x="552" y="200" width="6" height="0" stroke="black" stroke-width="1" fill="blue" opacity="1" tooltip="enable"><title>(0.121816,0)</title></rect><rect x="558" y="200" width="6" height="0" stroke="black" stroke-width="1" fill="blue" opacity="1" tooltip="enable"><title>(0.12314,0)</title></rect><rect x="564" y="200" width="6" height="0" stroke="black" stroke-width="1" fill="blue" opacity="1" tooltip="enable"><title>(0.124464,0)</title></rect><rect x="570" y="200" width="6" height="0" stroke="black" stroke-width="1" fill="blue" opacity="1" tooltip="enable"><title>(0.125788,0)</title></rect><rect x="576" y="200" width="6" height="0" stroke="black" stroke-width="1" fill="blue" opacity="1" tooltip="enable"><title>(0.127112,0)</title></rect><rect x="582" y="200" width="6" height="0" stroke="black" stroke-width="1" fill="blue" opacity="1" tooltip="enable"><title>(0.128436,0)</title></rect><rect x="588" y="200" width="6" height="0" stroke="black" stroke-width="1" fill="blue" opacity="1" tooltip="enable"><title>(0.12976,0)</title></rect><rect x="594" y="199.799" width="6" height="0.20141" stroke="black" stroke-width="1" fill="blue" opacity="1" tooltip="enable"><title>(0.131084,1)</title></rect><text x="30" y="240" font-size="20" fill="black">0</text>
<text x="600" y="240" font-size="20" fill="black">0.132409</text>
<polyline points="0,220,600,220" stroke="black" stroke-width="1" fill="none" opacity="1"/>
<text x="720" y="20" font-size="20" fill="black">993</text>
<text x="720" y="200" font-size="20" fill="black">0</text>
<polyline points="660,0,660,200" stroke="black" stroke-width="1" fill="none" opacity="1"/>
</svg>