<?xml version="1.0" standalone="yes"?>
<!-- SVG graphic -->
<svg xmlns='http://www.w3.org/2000/svg' xmlns:xlink='http://www.w3.org/1999/xlink'
 version="1.1">
<rect x="0" y="0" width="6" height="200" stroke="black" stroke-width="1" fill="blue" opacity="1" tooltip="enable"><title>(0,3128)</title></rect><rect x="6" y="121.483" width="6" height="78.5166" stroke="black" stroke-width="1" fill="blue" opacity="1" tooltip="enable"><title>(0.00210122,1228)</title></rect><rect x="12" y="185.614" width="6" height="14.3862" stroke="black" stroke-width="1" fill="blue" opacity="1" tooltip="enable"><title>(0.00420244,225)</title></rect><rect x="18" y="186.957" width="6" height="13.0435" stroke="black" stroke-width="1" fill="blue" opacity="1" tooltip="enable"><title>(0.00630366,204)</title></rect><rect x="24" y="188.811" width="6" height="11.1893" stroke="black" stroke-width="1" fill="blue" opacity="1" tooltip="enable"><title>(0.00840488,175)</title></rect><rect x="30" y="187.596" width="6" height="12.4041" stroke="black" stroke-width="1" fill="blue" opacity="1" tooltip="enable"><title>(0.0105061,194)</title></rect><rect x="36" y="186.573" width="6" height="13.4271" stroke="black" stroke-width="1" fill="blue" opacity="1" tooltip="enable"><title>(0.0126073,210)</title></rect><rect x="42" y="186.765" width="6" height="13.2353" stroke="black" stroke-width="1" fill="blue" opacity="1" tooltip="enable"><title>(0.0147085,207)</title></rect><rect x="48" y="189.578" width="6" height="10.422" stroke="black" stroke-width="1" fill="blue" opacity="1" tooltip="enable"><title>(0.0168098,163)</title></rect><rect x="54" y="187.596" width="6" height="12.4041" stroke="black" stroke-width="1" fill="blue" opacity="1" tooltip="enable"><title>(0.018911,194)</title></rect><rect x="60" y="188.491" width="6" height="11.509" stroke="black" stroke-width="1" fill="blue" opacity="1" tooltip="enable"><title>(0.0210122,180)</title></rect><rect x="66" y="191.624" width="6" height="8.37596" stroke="black" stroke-width="1" fill="blue" opacity="1" tooltip="enable"><title>(0.0231134,131)</title></rect><rect x="72" y="190.665" width="6" height="9.33504" stroke="black" stroke-width="1" fill="blue" opacity="1" tooltip="enable"><title>(0.0252146,146)</title></rect><rect x="78" y="188.619" width="6" height="11.3811" stroke="black" stroke-width="1" fill="blue" opacity="1" tooltip="enable"><title>(0.0273158,178)</title></rect><rect x="84" y="190.601" width="6" height="9.39898" stroke="black" stroke-width="1" fill="blue" opacity="1" tooltip="enable"><title>(0.0294171,147)</title></rect><rect x="90" y="193.095" width="6" height="6.90537" stroke="black" stroke-width="1" fill="blue" opacity="1" tooltip="enable"><title>(0.0315183,108)</title></rect><rect x="96" y="192.327" width="6" height="7.67263" stroke="black" stroke-width="1" fill="blue" opacity="1" tooltip="enable"><title>(0.0336195,120)</title></rect><rect x="102" y="192.711" width="6" height="7.289" stroke="black" stroke-width="1" fill="blue" opacity="1" tooltip="enable"><title>(0.0357207,114)</title></rect><rect x="108" y="193.223" width="6" height="6.77749" stroke="black" stroke-width="1" fill="blue" opacity="1" tooltip="enable"><title>(0.0378219,106)</title></rect><rect x="114" y="195.269" width="6" height="4.73146" stroke="black" stroke-width="1" fill="blue" opacity="1" tooltip="enable"><title>(0.0399232,74)</title></rect><rect x="120" y="195.141" width="6" height="4.85933" stroke="black" stroke-width="1" fill="blue" opacity="1" tooltip="enable"><title>(0.0420244,76)</title></rect><rect x="126" y="195.78" width="6" height="4.21995" stroke="black" stroke-width="1" fill="blue" opacity="1" tooltip="enable"><title>(0.0441256,66)</title></rect><rect x="132" y="195.524" width="6" height="4.4757" stroke="black" stroke-width="1" fill="blue" opacity="1" tooltip="enable"><title>(0.0462268,70)</title></rect><rect x="138" y="197.315" width="6" height="2.68542" stroke="black" stroke-width="1" fill="blue" opacity="1" tooltip="enable"><title>(0.048328,42)</title></rect><rect x="144" y="196.547" width="6" height="3.45269" stroke="black" stroke-width="1" fill="blue" opacity="1" tooltip="enable"><title>(0.0504293,54)</title></rect><rect x="150" y="196.867" width="6" height="3.13299" stroke="black" stroke-width="1" fill="blue" opacity="1" tooltip="enable"><title>(0.0525305,49)</title></rect><rect x="156" y="197.123" width="6" height="2.87724" stroke="black" stroke-width="1" fill="blue" opacity="1" tooltip="enable"><title>(0.0546317,45)</title></rect><rect x="162" y="196.419" width="6" height="3.58056" stroke="black" stroke-width="1" fill="blue" opacity="1" tooltip="enable"><title>(0.0567329,56)</title></rect><rect x="168" y="198.082" width="6" height="1.91816" stroke="black" stroke-width="1" fill="blue" opacity="1" tooltip="enable"><title>(0.0588341,30)</title></rect><rect x="174" y="196.419" width="6" height="3.58056" stroke="black" stroke-width="1" fill="blue" opacity="1" tooltip="enable"><title>(0.0609354,56)</title></rect><rect x="180" y="196.292" width="6" height="3.70844" stroke="black" stroke-width="1" fill="blue" opacity="1" tooltip="enable"><title>(0.0630366,58)</title></rect><rect x="186" y="197.57" width="6" height="2.42967" stroke="black" stroke-width="1" fill="blue" opacity="1" tooltip="enable"><title>(0.0651378,38)</title></rect><rect x="192" y="197.826" width="6" height="2.17391" stroke="black" stroke-width="1" fill="blue" opacity="1" tooltip="enable"><title>(0.067239,34)</title></rect><rect x="198" y="197.698" width="6" height="2.30179" stroke="black" stroke-width="1" fill="blue" opacity="1" tooltip="enable"><title>(0.0693402,36)</title></rect><rect x="204" y="198.849" width="6" height="1.1509" stroke="black" stroke-width="1" fill="blue" opacity="1" tooltip="enable"><title>(0.0714415,18)</title></rect><rect x="210" y="199.297" width="6" height="0.703325" stroke="black" stroke-width="1" fill="blue" opacity="1" tooltip="enable"><title>(0.0735427,11)</title></rect><rect x="216" y="199.169" width="6" height="0.831202" stroke="black" stroke-width="1" fill="blue" opacity="1" tooltip="enable"><title>(0.0756439,13)</title></rect><rect x="222" y="199.616" width="6" height="0.383632" stroke="black" stroke-width="1" fill="blue" opacity="1" tooltip="enable"><title>(0.0777451,6)</title></rect><rect x="228" y="199.488" width="6" height="0.511509" stroke="black" stroke-width="1" fill="blue" opacity="1" tooltip="enable"><title>(0.0798463,8)</title></rect><rect x="234" y="200" width="6" height="0" stroke="black" stroke-width="1" fill="blue" opacity="1" tooltip="enable"><title>(0.0819476,0)</title></rect><rect x="240" y="200" width="6" height="0" stroke="black" stroke-width="1" fill="blue" opacity="1" tooltip="enable"><title>(0.0840488,0)</title></rect><rect x="246" y="200" width="6" height="0" stroke="black" stroke-width="1" fill="blue" opacity="1" tooltip="enable"><title>(0.08615,0)</title></rect><rect x="252" y="200" width="6" height="0" stroke="black" stroke-width="1" fill="blue" opacity="1" tooltip="enable"><title>(0.0882512,0)</title></rect><rect x="258" y="200" width="6" height="0" stroke="black" stroke-width="1" fill="blue" opacity="1" tooltip="enable"><title>(0.0903524,0)</title></rect><rect x="264" y="200" width="6" height="0" stroke="black" stroke-width="1" fill="blue" opacity="1" tooltip="enable"><title>(0.0924537,0)</title></rect><rect x="270" y="200" width="6" height="0" stroke="black" stroke-width="1" fill="blue" opacity="1" tooltip="enable"><title>(0.0945549,0)</title></rect><rect x="276" y="200" width="6" height="0" stroke="black" stroke-width="1" fill="blue" opacity="1" tooltip="enable"><title>(0.0966561,0)</title></rect><rect x="282" y="200" width="6" height="0" stroke="black" stroke-width="1" fill="blue" opacity="1" tooltip="enable"><title>(0.0987573,0)</title></rect><rect x="288" y="200" width="6" height="0" stroke="black" stroke-width="1" fill="blue" opacity="1" tooltip="enable"><title>(0.100859,0)</title></rect><rect x="294" y="200" width="6" height="0" stroke="black" stroke-width="1" fill="blue" opacity="1" tooltip="enable"><title>(0.10296,0)</title></rect><rect x="300" y="200" width="6" height="0" stroke="black" stroke-width="1" fill="blue" opacity="1" tooltip="enable"><title>(0.105061,0)</title></rect><rect x="306" y="200" width="6" height="0" stroke="black" stroke-width="1" fill="blue" opacity="1" tooltip="enable"><title>(0.107162,0)</title></rect><rect x="312" y="200" width="6" height="0" stroke="black" stroke-width="1" fill="blue" opacity="1" tooltip="enable"><title>(0.109263,0)</title></rect><rect x="318" y="200" width="6" height="0" stroke="black" stroke-width="1" fill="blue" opacity="1" tooltip="enable"><title>(0.111365,0)</title></rect><rect x="324" y="200" width="6" height="0" stroke="black" stroke-width="1" fill="blue" opacity="1" tooltip="enable"><title>(0.113466,0)</title></rect><rect x="330" y="200" width="6" height="0" stroke="black" stroke-width="1" fill="blue" opacity="1" tooltip="enable"><title>(0.115567,0)</title></rect><rect x="336" y="200" width="6" height="0" stroke="black" stroke-width="1" fill="blue" opacity="1" tooltip="enable"><title>(0.117668,0)</title></rect><rect x="342" y="200" width="6" height="0" stroke="black" stroke-width="1" fill="blue" opacity="1" tooltip="enable"><title>(0.119769,0)</title></rect><rect x="348" y="200" width="6" height="0" stroke="black" stroke-width="1" fill="blue" opacity="1" tooltip="enable"><title>(0.121871,0)</title></rect><rect x="354" y="200" width="6" height="0" stroke="black" stroke-width="1" fill="blue" opacity="1" tooltip="enable"><title>(0.123972,0)</title></rect><rect x="360" y="200" width="6" height="0" stroke="black" stroke-width="1" fill="blue" opacity="1" tooltip="enable"><title>(0.126073,0)</title></rect><rect x="366" y="200" width="6" height="0" stroke="black" stroke-width="1" fill="blue" opacity="1" tooltip="enable"><title>(0.128174,0)</title></rect><rect x="372" y="200" width="6" height="0" stroke="black" stroke-width="1" fill="blue" opacity="1" tooltip="enable"><title>(0.130276,0)</title></rect><rect x="378" y="200" width="6" height="0" stroke="black" stroke-width="1" fill="blue" opacity="1" tooltip="enable"><title>(0.132377,0)</title></rect><rect x="384" y="200" width="6" height="0" stroke="black" stroke-width="1" fill="blue" opacity="1" tooltip="enable"><title>(0.134478,0)</title></rect><rect x="390" y="200" width="6" height="0" stroke="black" stroke-width="1" fill="blue" opacity="1" tooltip="enable"><title>(0.136579,0)</title></rect><rect x="396" y="200" width="6" height="0" stroke="black" stroke-width="1" fill="blue" opacity="1" tooltip="enable"><title>(0.13868,0)</title></rect><rect x="402" y="200" width="6" height="0" stroke="black" stroke-width="1" fill="blue" opacity="1" tooltip="enable"><title>(0.140782,0)</title></rect><rect x="408" y="200" width="6" height="0" stroke="black" stroke-width="1" fill="blue" opacity="1" tooltip="enable"><title>(0.142883,0)</title></rect><rect x="414" y="200" width="6" height="0" stroke="black" stroke-width="1" fill="blue" opacity="1" tooltip="enable"><title>(0.144984,0)</title></rect><rect x="420" y="200" width="6" height="0" stroke="black" stroke-width="1" fill="blue" opacity="1" tooltip="enable"><title>(0.147085,0)</title></rect><rect x="426" y="200" width="6" height="0" stroke="black" stroke-width="1" fill="blue" opacity="1" tooltip="enable"><title>(0.149187,0)</title></rect><rect x="432" y="200" width="6" height="0" stroke="black" stroke-width="1" fill="blue" opacity="1" tooltip="enable"><title>(0.151288,0)</title></rect><rect x="438" y="200" width="6" height="0" stroke="black" stroke-width="1" fill="blue" opacity="1" tooltip="enable"><title>(0.153389,0)</title></rect><rect x="444" y="200" width="6" height="0" stroke="black" stroke-width="1" fill="blue" opacity="1" tooltip="enable"><title>(0.15549,0)</title></rect><rect x="450" y="200" width="6" height="0" stroke="black" stroke-width="1" fill="blue" opacity="1" tooltip="enable"><title>(0.157591,0)</title></rect><rect x="456" y="200" width="6" height="0" stroke="black" stroke-width="1" fill="blue" opacity="1" tooltip="enable"><title>(0.159693,0)</title></rect><rect x="462" y="200" width="6" height="0" stroke="black" stroke-width="1" fill="blue" opacity="1" tooltip="enable"><title>(0.161794,0)</title></rect><rect x="468" y="200" width="6" height="0" stroke="black" stroke-width="1" fill="blue" opacity="1" tooltip="enable"><title>(0.163895,0)</title></rect><rect x="474" y="200" width="6" height="0" stroke="black" stroke-width="1" fill="blue" opacity="1" tooltip="enable"><title>(0.165996,0)</title></rect><rect x="480" y="200" width="6" height="0" stroke="black" stroke-width="1" fill="blue" opacity="1" tooltip="enable"><title>(0.168098,0)</title></rect><rect x="486" y="200" width="6" height="0" stroke="black" stroke-width="1" fill="blue" opacity="1" tooltip="enable"><title>(0.170199,0)</title></rect><rect x="492" y="200" width="6" height="0" stroke="black" stroke-width="1" fill="blue" opacity="1" tooltip="enable"><title>(0.1723,0)</title></rect><rect x="498" y="200" width="6" height="0" stroke="black" stroke-width="1" fill="blue" opacity="1" tooltip="enable"><title>(0.174401,0)</title></rect><rect x="504" y="200" width="6" height="0" stroke="black" stroke-width="1" fill="blue" opacity="1" tooltip="enable"><title>(0.176502,0)</title></rect><rect x="510" y="200" width="6" height="0" stroke="black" stroke-width="1" fill="blue" opacity="1" tooltip="enable"><title>(0.178604,0)</title></rect><rect x="516" y="200" width="6" height="0" stroke="black" stroke-width="1" fill="blue" opacity="1" tooltip="enable"><title>(0.180705,0)</title></rect><rect x="522" y="200" width="6" height="0" stroke="black" stroke-width="1" fill="blue" opacity="1" tooltip="enable"><title>(0.182806,0)</title></rect><rect x="528" y="200" width="6" height="0" stroke="black" stroke-width="1" fill="blue" opacity="1" tooltip="enable"><title>(0.184907,0)</title></rect><rect x="534" y="200" width="6" height="0" stroke="black" stroke-width="1" fill="blue" opacity="1" tooltip="enable"><title>(0.187009,0)</title></rect><rect x="540" y="200" width="6" height="0" stroke="black" stroke-width="1" fill="blue" opacity="1" tooltip="enable"><title>(0.18911,0)</title></rect><rect x="546" y="200" width="6" height="0" stroke="black" stroke-width="1" fill="blue" opacity="1" tooltip="enable"><title>(0.191211,0)</title></rect><rect x="552" y="200" width="6" height="0" stroke="black" stroke-width="1" fill="blue" opacity="1" tooltip="enable"><title>(0.193312,0)</title></rect><rect x="558" y="200" width="6" height="0" stroke="black" stroke-width="1" fill="blue" opacity="1" tooltip="enable"><title>(0.195413,0)</title></rect><rect x="564" y="200" width="6" height="0" stroke="black" stroke-width="1" fill="blue" opacity="1" tooltip="enable"><title>(0.197515,0)</title></rect><rect x="570" y="200" width="6" height="0" stroke="black" stroke-width="1" fill="blue" opacity="1" tooltip="enable"><title>(0.199616,0)</title></rect><rect x="576" y="200" width="6" height="0" stroke="black" stroke-width="1" fill="blue" opacity="1" tooltip="enable"><title>(0.201717,0)</title></rect><rect x="582" y="200" width="6" height="0" stroke="black" stroke-width="1" fill="blue" opacity="1" tooltip="enable"><title>(0.203818,0)</title></rect><rect x="588" y="200" width="6" height="0" stroke="black" stroke-width="1" fill="blue" opacity="1" tooltip="enable"><title>(0.205919,0)</title></rect><rect x="594" y="199.936" width="6" height="0.0639386" stroke="black" stroke-width="1" fill="blue" opacity="1" tooltip="enable"><title>(0.208021,1)</title></rect><text x="30" y="240" font-size="20" fill="black">0</text>
<text x="600" y="240" font-size="20" fill="black">0.210122</text>
<polyline points="0,220,600,220" stroke="black" stroke-width="1" fill="none" opacity="1"/>
<text x="720" y="20" font-size="20" fill="black">3128</text>
<text x="720" y="200" font-size="20" fill="black">0</text>
<polyline points="660,0,660,200" stroke="black" stroke-width="1" fill="none" opacity="1"/>
</svg>