<?xml version="1.0" standalone="yes"?>
<!-- SVG graphic -->
<svg xmlns='http://www.w3.org/2000/svg' xmlns:xlink='http://www.w3.org/1999/xlink'
 version="1.1">
<rect x="0" y="1.52588e-05" width="6" height="200" stroke="black" stroke-width="1" fill="blue" opacity="1" tooltip="enable"><title>(0,1477)</title></rect><rect x="6" y="22.8842" width="6" height="177.116" stroke="black" stroke-width="1" fill="blue" opacity="1" tooltip="enable"><title>(0.0012424,1308)</title></rect><rect x="12" y="98.3074" width="6" height="101.693" stroke="black" stroke-width="1" fill="blue" opacity="1" tooltip="enable"><title>(0.0024848,751)</title></rect><rect x="18" y="118.348" width="6" height="81.652" stroke="black" stroke-width="1" fill="blue" opacity="1" tooltip="enable"><title>(0.0037272,603)</title></rect><rect x="24" y="151.253" width="6" height="48.7475" stroke="black" stroke-width="1" fill="blue" opacity="1" tooltip="enable"><title>(0.0049696,360)</title></rect><rect x="30" y="177.116" width="6" height="22.8842" stroke="black" stroke-width="1" fill="blue" opacity="1" tooltip="enable"><title>(0.006212,169)</title></rect><rect x="36" y="182.938" width="6" height="17.0616" stroke="black" stroke-width="1" fill="blue" opacity="1" tooltip="enable"><title>(0.0074544,126)</title></rect><rect x="42" y="178.334" width="6" height="21.6655" stroke="black" stroke-width="1" fill="blue" opacity="1" tooltip="enable"><title>(0.0086968,160)</title></rect><rect x="48" y="184.834" width="6" height="15.1659" stroke="black" stroke-width="1" fill="blue" opacity="1" tooltip="enable"><title>(0.0099392,112)</title></rect><rect x="54" y="182.938" width="6" height="17.0616" stroke="black" stroke-width="1" fill="blue" opacity="1" tooltip="enable"><title>(0.0111816,126)</title></rect><rect x="60" y="182.126" width="6" height="17.8741" stroke="black" stroke-width="1" fill="blue" opacity="1" tooltip="enable"><title>(0.012424,132)</title></rect><rect x="66" y="181.043" width="6" height="18.9573" stroke="black" stroke-width="1" fill="blue" opacity="1" tooltip="enable"><title>(0.0136664,140)</title></rect><rect x="72" y="180.23" width="6" height="19.7698" stroke="black" stroke-width="1" fill="blue" opacity="1" tooltip="enable"><title>(0.0149088,146)</title></rect><rect x="78" y="185.105" width="6" height="14.8951" stroke="black" stroke-width="1" fill="blue" opacity="1" tooltip="enable"><title>(0.0161512,110)</title></rect><rect x="84" y="182.938" width="6" height="17.0616" stroke="black" stroke-width="1" fill="blue" opacity="1" tooltip="enable"><title>(0.0173936,126)</title></rect><rect x="90" y="185.647" width="6" height="14.3534" stroke="black" stroke-width="1" fill="blue" opacity="1" tooltip="enable"><title>(0.018636,106)</title></rect><rect x="96" y="186.73" width="6" height="13.2701" stroke="black" stroke-width="1" fill="blue" opacity="1" tooltip="enable"><title>(0.0198784,98)</title></rect><rect x="102" y="188.355" width="6" height="11.6452" stroke="black" stroke-width="1" fill="blue" opacity="1" tooltip="enable"><title>(0.0211208,86)</title></rect><rect x="108" y="187.678" width="6" height="12.3223" stroke="black" stroke-width="1" fill="blue" opacity="1" tooltip="enable"><title>(0.0223632,91)</title></rect><rect x="114" y="185.782" width="6" height="14.218" stroke="black" stroke-width="1" fill="blue" opacity="1" tooltip="enable"><title>(0.0236056,105)</title></rect><rect x="120" y="189.167" width="6" height="10.8328" stroke="black" stroke-width="1" fill="blue" opacity="1" tooltip="enable"><title>(0.024848,80)</title></rect><rect x="126" y="189.167" width="6" height="10.8328" stroke="black" stroke-width="1" fill="blue" opacity="1" tooltip="enable"><title>(0.0260904,80)</title></rect><rect x="132" y="189.438" width="6" height="10.5619" stroke="black" stroke-width="1" fill="blue" opacity="1" tooltip="enable"><title>(0.0273328,78)</title></rect><rect x="138" y="187.001" width="6" height="12.9993" stroke="black" stroke-width="1" fill="blue" opacity="1" tooltip="enable"><title>(0.0285752,96)</title></rect><rect x="144" y="190.115" width="6" height="9.8849" stroke="black" stroke-width="1" fill="blue" opacity="1" tooltip="enable"><title>(0.0298176,73)</title></rect><rect x="150" y="191.063" width="6" height="8.93703" stroke="black" stroke-width="1" fill="blue" opacity="1" tooltip="enable"><title>(0.03106,66)</title></rect><rect x="156" y="191.198" width="6" height="8.80162" stroke="black" stroke-width="1" fill="blue" opacity="1" tooltip="enable"><title>(0.0323024,65)</title></rect><rect x="162" y="193.23" width="6" height="6.77048" stroke="black" stroke-width="1" fill="blue" opacity="1" tooltip="enable"><title>(0.0335448,50)</title></rect><rect x="168" y="194.042" width="6" height="5.95802" stroke="black" stroke-width="1" fill="blue" opacity="1" tooltip="enable"><title>(0.0347872,44)</title></rect><rect x="174" y="194.313" width="6" height="5.6872" stroke="black" stroke-width="1" fill="blue" opacity="1" tooltip="enable"><title>(0.0360296,42)</title></rect><rect x="180" y="196.479" width="6" height="3.52065" stroke="black" stroke-width="1" fill="blue" opacity="1" tooltip="enable"><title>(0.037272,26)</title></rect><rect x="186" y="193.23" width="6" height="6.77048" stroke="black" stroke-width="1" fill="blue" opacity="1" tooltip="enable"><title>(0.0385144,50)</title></rect><rect x="192" y="193.23" width="6" height="6.77048" stroke="black" stroke-width="1" fill="blue" opacity="1" tooltip="enable"><title>(0.0397568,50)</title></rect><rect x="198" y="195.396" width="6" height="4.60393" stroke="black" stroke-width="1" fill="blue" opacity="1" tooltip="enable"><title>(0.0409992,34)</title></rect><rect x="204" y="194.313" width="6" height="5.6872" stroke="black" stroke-width="1" fill="blue" opacity="1" tooltip="enable"><title>(0.0422416,42)</title></rect><rect x="210" y="197.021" width="6" height="2.97901" stroke="black" stroke-width="1" fill="blue" opacity="1" tooltip="enable"><title>(0.043484,22)</title></rect><rect x="216" y="195.667" width="6" height="4.33311" stroke="black" stroke-width="1" fill="blue" opacity="1" tooltip="enable"><title>(0.0447264,32)</title></rect><rect x="222" y="194.854" width="6" height="5.14557" stroke="black" stroke-width="1" fill="blue" opacity="1" tooltip="enable"><title>(0.0459688,38)</title></rect><rect x="228" y="193.771" width="6" height="6.22884" stroke="black" stroke-width="1" fill="blue" opacity="1" tooltip="enable"><title>(0.0472112,46)</title></rect><rect x="234" y="192.688" width="6" height="7.31212" stroke="black" stroke-width="1" fill="blue" opacity="1" tooltip="enable"><title>(0.0484536,54)</title></rect><rect x="240" y="193.094" width="6" height="6.90589" stroke="black" stroke-width="1" fill="blue" opacity="1" tooltip="enable"><title>(0.049696,51)</title></rect><rect x="246" y="194.177" width="6" height="5.82261" stroke="black" stroke-width="1" fill="blue" opacity="1" tooltip="enable"><title>(0.0509384,43)</title></rect><rect x="252" y="192.688" width="6" height="7.31212" stroke="black" stroke-width="1" fill="blue" opacity="1" tooltip="enable"><title>(0.0521808,54)</title></rect><rect x="258" y="195.261" width="6" height="4.73934" stroke="black" stroke-width="1" fill="blue" opacity="1" tooltip="enable"><title>(0.0534232,35)</title></rect><rect x="264" y="195.667" width="6" height="4.33311" stroke="black" stroke-width="1" fill="blue" opacity="1" tooltip="enable"><title>(0.0546656,32)</title></rect><rect x="270" y="196.073" width="6" height="3.92688" stroke="black" stroke-width="1" fill="blue" opacity="1" tooltip="enable"><title>(0.055908,29)</title></rect><rect x="276" y="197.021" width="6" height="2.97901" stroke="black" stroke-width="1" fill="blue" opacity="1" tooltip="enable"><title>(0.0571504,22)</title></rect><rect x="282" y="195.396" width="6" height="4.60393" stroke="black" stroke-width="1" fill="blue" opacity="1" tooltip="enable"><title>(0.0583928,34)</title></rect><rect x="288" y="195.125" width="6" height="4.87475" stroke="black" stroke-width="1" fill="blue" opacity="1" tooltip="enable"><title>(0.0596352,36)</title></rect><rect x="294" y="196.344" width="6" height="3.65606" stroke="black" stroke-width="1" fill="blue" opacity="1" tooltip="enable"><title>(0.0608776,27)</title></rect><rect x="300" y="197.156" width="6" height="2.8436" stroke="black" stroke-width="1" fill="blue" opacity="1" tooltip="enable"><title>(0.06212,21)</title></rect><rect x="306" y="196.75" width="6" height="3.24983" stroke="black" stroke-width="1" fill="blue" opacity="1" tooltip="enable"><title>(0.0633624,24)</title></rect><rect x="312" y="198.917" width="6" height="1.08328" stroke="black" stroke-width="1" fill="blue" opacity="1" tooltip="enable"><title>(0.0646048,8)</title></rect><rect x="318" y="198.51" width="6" height="1.48951" stroke="black" stroke-width="1" fill="blue" opacity="1" tooltip="enable"><title>(0.0658472,11)</title></rect><rect x="324" y="199.052" width="6" height="0.947867" stroke="black" stroke-width="1" fill="blue" opacity="1" tooltip="enable"><title>(0.0670896,7)</title></rect><rect x="330" y="199.458" width="6" height="0.541638" stroke="black" stroke-width="1" fill="blue" opacity="1" tooltip="enable"><title>(0.068332,4)</title></rect><rect x="336" y="198.51" width="6" height="1.48951" stroke="black" stroke-width="1" fill="blue" opacity="1" tooltip="enable"><title>(0.0695744,11)</title></rect><rect x="342" y="198.781" width="6" height="1.21869" stroke="black" stroke-width="1" fill="blue" opacity="1" tooltip="enable"><title>(0.0708168,9)</title></rect><rect x="348" y="198.375" width="6" height="1.62492" stroke="black" stroke-width="1" fill="blue" opacity="1" tooltip="enable"><title>(0.0720592,12)</title></rect><rect x="354" y="198.646" width="6" height="1.3541" stroke="black" stroke-width="1" fill="blue" opacity="1" tooltip="enable"><title>(0.0733016,10)</title></rect><rect x="360" y="199.188" width="6" height="0.812458" stroke="black" stroke-width="1" fill="blue" opacity="1" tooltip="enable"><title>(0.074544,6)</title></rect><rect x="366" y="199.729" width="6" height="0.270819" stroke="black" stroke-width="1" fill="blue" opacity="1" tooltip="enable"><title>(0.0757864,2)</title></rect><rect x="372" y="199.458" width="6" height="0.541638" stroke="black" stroke-width="1" fill="blue" opacity="1" tooltip="enable"><title>(0.0770288,4)</title></rect><rect x="378" y="199.188" width="6" height="0.812458" stroke="black" stroke-width="1" fill="blue" opacity="1" tooltip="enable"><title>(0.0782712,6)</title></rect><rect x="384" y="198.375" width="6" height="1.62492" stroke="black" stroke-width="1" fill="blue" opacity="1" tooltip="enable"><title>(0.0795136,12)</title></rect><rect x="390" y="199.188" width="6" height="0.812458" stroke="black" stroke-width="1" fill="blue" opacity="1" tooltip="enable"><title>(0.080756,6)</title></rect><rect x="396" y="199.323" width="6" height="0.677048" stroke="black" stroke-width="1" fill="blue" opacity="1" tooltip="enable"><title>(0.0819984,5)</title></rect><rect x="402" y="199.594" width="6" height="0.406229" stroke="black" stroke-width="1" fill="blue" opacity="1" tooltip="enable"><title>(0.0832408,3)</title></rect><rect x="408" y="198.917" width="6" height="1.08328" stroke="black" stroke-width="1" fill="blue" opacity="1" tooltip="enable"><title>(0.0844832,8)</title></rect><rect x="414" y="199.458" width="6" height="0.541638" stroke="black" stroke-width="1" fill="blue" opacity="1" tooltip="enable"><title>(0.0857256,4)</title></rect><rect x="420" y="200" width="6" height="0" stroke="black" stroke-width="1" fill="blue" opacity="1" tooltip="enable"><title>(0.086968,0)</title></rect><rect x="426" y="200" width="6" height="0" stroke="black" stroke-width="1" fill="blue" opacity="1" tooltip="enable"><title>(0.0882104,0)</title></rect><rect x="432" y="199.188" width="6" height="0.812458" stroke="black" stroke-width="1" fill="blue" opacity="1" tooltip="enable"><title>(0.0894528,6)</title></rect><rect x="438" y="199.458" width="6" height="0.541638" stroke="black" stroke-width="1" fill="blue" opacity="1" tooltip="enable"><title>(0.0906952,4)</title></rect><rect x="444" y="200" width="6" height="0" stroke="black" stroke-width="1" fill="blue" opacity="1" tooltip="enable"><title>(0.0919376,0)</title></rect><rect x="450" y="199.458" width="6" height="0.541638" stroke="black" stroke-width="1" fill="blue" opacity="1" tooltip="enable"><title>(0.09318,4)</title></rect><rect x="456" y="200" width="6" height="0" stroke="black" stroke-width="1" fill="blue" opacity="1" tooltip="enable"><title>(0.0944224,0)</title></rect><rect x="462" y="198.646" width="6" height="1.3541" stroke="black" stroke-width="1" fill="blue" opacity="1" tooltip="enable"><title>(0.0956648,10)</title></rect><rect x="468" y="199.323" width="6" height="0.677048" stroke="black" stroke-width="1" fill="blue" opacity="1" tooltip="enable"><title>(0.0969072,5)</title></rect><rect x="474" y="199.865" width="6" height="0.13541" stroke="black" stroke-width="1" fill="blue" opacity="1" tooltip="enable"><title>(0.0981496,1)</title></rect><rect x="480" y="200" width="6" height="0" stroke="black" stroke-width="1" fill="blue" opacity="1" tooltip="enable"><title>(0.099392,0)</title></rect><rect x="486" y="199.458" width="6" height="0.541638" stroke="black" stroke-width="1" fill="blue" opacity="1" tooltip="enable"><title>(0.100634,4)</title></rect><rect x="492" y="200" width="6" height="0" stroke="black" stroke-width="1" fill="blue" opacity="1" tooltip="enable"><title>(0.101877,0)</title></rect><rect x="498" y="199.458" width="6" height="0.541638" stroke="black" stroke-width="1" fill="blue" opacity="1" tooltip="enable"><title>(0.103119,4)</title></rect><rect x="504" y="199.729" width="6" height="0.270819" stroke="black" stroke-width="1" fill="blue" opacity="1" tooltip="enable"><title>(0.104362,2)</title></rect><rect x="510" y="199.729" width="6" height="0.270819" stroke="black" stroke-width="1" fill="blue" opacity="1" tooltip="enable"><title>(0.105604,2)</title></rect><rect x="516" y="199.729" width="6" height="0.270819" stroke="black" stroke-width="1" fill="blue" opacity="1" tooltip="enable"><title>(0.106846,2)</title></rect><rect x="522" y="199.729" width="6" height="0.270819" stroke="black" stroke-width="1" fill="blue" opacity="1" tooltip="enable"><title>(0.108089,2)</title></rect><rect x="528" y="199.458" width="6" height="0.541638" stroke="black" stroke-width="1" fill="blue" opacity="1" tooltip="enable"><title>(0.109331,4)</title></rect><rect x="534" y="199.729" width="6" height="0.270819" stroke="black" stroke-width="1" fill="blue" opacity="1" tooltip="enable"><title>(0.110574,2)</title></rect><rect x="540" y="199.458" width="6" height="0.541638" stroke="black" stroke-width="1" fill="blue" opacity="1" tooltip="enable"><title>(0.111816,4)</title></rect><rect x="546" y="199.729" width="6" height="0.270819" stroke="black" stroke-width="1" fill="blue" opacity="1" tooltip="enable"><title>(0.113058,2)</title></rect><rect x="552" y="200" width="6" height="0" stroke="black" stroke-width="1" fill="blue" opacity="1" tooltip="enable"><title>(0.114301,0)</title></rect><rect x="558" y="199.729" width="6" height="0.270819" stroke="black" stroke-width="1" fill="blue" opacity="1" tooltip="enable"><title>(0.115543,2)</title></rect><rect x="564" y="200" width="6" height="0" stroke="black" stroke-width="1" fill="blue" opacity="1" tooltip="enable"><title>(0.116786,0)</title></rect><rect x="570" y="200" width="6" height="0" stroke="black" stroke-width="1" fill="blue" opacity="1" tooltip="enable"><title>(0.118028,0)</title></rect><rect x="576" y="200" width="6" height="0" stroke="black" stroke-width="1" fill="blue" opacity="1" tooltip="enable"><title>(0.11927,0)</title></rect><rect x="582" y="200" width="6" height="0" stroke="black" stroke-width="1" fill="blue" opacity="1" tooltip="enable"><title>(0.120513,0)</title></rect><rect x="588" y="200" width="6" height="0" stroke="black" stroke-width="1" fill="blue" opacity="1" tooltip="enable"><title>(0.121755,0)</title></rect><rect x="594" y="199.594" width="6" height="0.406229" stroke="black" stroke-width="1" fill="blue" opacity="1" tooltip="enable"><title>(0.122998,3)</title></rect><text x="30" y="240" font-size="20" fill="black">0</text>
<text x="600" y="240" font-size="20" fill="black">0.12424</text>
<polyline points="0,220,600,220" stroke="black" stroke-width="1" fill="none" opacity="1"/>
<text x="720" y="20" font-size="20" fill="black">1477</text>
<text x="720" y="200" font-size="20" fill="black">0</text>
<polyline points="660,0,660,200" stroke="black" stroke-width="1" fill="none" opacity="1"/>
</svg>