<?xml version="1.0" standalone="yes"?>
<!-- SVG graphic -->
<svg xmlns='http://www.w3.org/2000/svg' xmlns:xlink='http://www.w3.org/1999/xlink'
 version="1.1">
<rect x="0" y="0" width="6" height="200" stroke="black" stroke-width="1" fill="blue" opacity="1" tooltip="enable"><title>(0,2942)</title></rect><rect x="6" y="115.432" width="6" height="84.5683" stroke="black" stroke-width="1" fill="blue" opacity="1" tooltip="enable"><title>(0.00159152,1244)</title></rect><rect x="12" y="163.358" width="6" height="36.6417" stroke="black" stroke-width="1" fill="blue" opacity="1" tooltip="enable"><title>(0.00318303,539)</title></rect><rect x="18" y="180.354" width="6" height="19.6465" stroke="black" stroke-width="1" fill="blue" opacity="1" tooltip="enable"><title>(0.00477455,289)</title></rect><rect x="24" y="183.956" width="6" height="16.0435" stroke="black" stroke-width="1" fill="blue" opacity="1" tooltip="enable"><title>(0.00636607,236)</title></rect><rect x="30" y="184.5" width="6" height="15.4997" stroke="black" stroke-width="1" fill="blue" opacity="1" tooltip="enable"><title>(0.00795758,228)</title></rect><rect x="36" y="186.744" width="6" height="13.2563" stroke="black" stroke-width="1" fill="blue" opacity="1" tooltip="enable"><title>(0.0095491,195)</title></rect><rect x="42" y="186.608" width="6" height="13.3923" stroke="black" stroke-width="1" fill="blue" opacity="1" tooltip="enable"><title>(0.0111406,197)</title></rect><rect x="48" y="185.86" width="6" height="14.14" stroke="black" stroke-width="1" fill="blue" opacity="1" tooltip="enable"><title>(0.0127321,208)</title></rect><rect x="54" y="191.027" width="6" height="8.97349" stroke="black" stroke-width="1" fill="blue" opacity="1" tooltip="enable"><title>(0.0143236,132)</title></rect><rect x="60" y="188.851" width="6" height="11.1489" stroke="black" stroke-width="1" fill="blue" opacity="1" tooltip="enable"><title>(0.0159152,164)</title></rect><rect x="66" y="190.551" width="6" height="9.44935" stroke="black" stroke-width="1" fill="blue" opacity="1" tooltip="enable"><title>(0.0175067,139)</title></rect><rect x="72" y="192.726" width="6" height="7.27396" stroke="black" stroke-width="1" fill="blue" opacity="1" tooltip="enable"><title>(0.0190982,107)</title></rect><rect x="78" y="192.794" width="6" height="7.20598" stroke="black" stroke-width="1" fill="blue" opacity="1" tooltip="enable"><title>(0.0206897,106)</title></rect><rect x="84" y="194.426" width="6" height="5.57444" stroke="black" stroke-width="1" fill="blue" opacity="1" tooltip="enable"><title>(0.0222812,82)</title></rect><rect x="90" y="195.513" width="6" height="4.48674" stroke="black" stroke-width="1" fill="blue" opacity="1" tooltip="enable"><title>(0.0238727,66)</title></rect><rect x="96" y="194.901" width="6" height="5.09857" stroke="black" stroke-width="1" fill="blue" opacity="1" tooltip="enable"><title>(0.0254643,75)</title></rect><rect x="102" y="193.134" width="6" height="6.86608" stroke="black" stroke-width="1" fill="blue" opacity="1" tooltip="enable"><title>(0.0270558,101)</title></rect><rect x="108" y="194.154" width="6" height="5.84636" stroke="black" stroke-width="1" fill="blue" opacity="1" tooltip="enable"><title>(0.0286473,86)</title></rect><rect x="114" y="195.377" width="6" height="4.62271" stroke="black" stroke-width="1" fill="blue" opacity="1" tooltip="enable"><title>(0.0302388,68)</title></rect><rect x="120" y="196.329" width="6" height="3.67097" stroke="black" stroke-width="1" fill="blue" opacity="1" tooltip="enable"><title>(0.0318303,54)</title></rect><rect x="126" y="195.309" width="6" height="4.69069" stroke="black" stroke-width="1" fill="blue" opacity="1" tooltip="enable"><title>(0.0334218,69)</title></rect><rect x="132" y="195.309" width="6" height="4.69069" stroke="black" stroke-width="1" fill="blue" opacity="1" tooltip="enable"><title>(0.0350134,69)</title></rect><rect x="138" y="195.377" width="6" height="4.62271" stroke="black" stroke-width="1" fill="blue" opacity="1" tooltip="enable"><title>(0.0366049,68)</title></rect><rect x="144" y="195.445" width="6" height="4.55472" stroke="black" stroke-width="1" fill="blue" opacity="1" tooltip="enable"><title>(0.0381964,67)</title></rect><rect x="150" y="196.805" width="6" height="3.19511" stroke="black" stroke-width="1" fill="blue" opacity="1" tooltip="enable"><title>(0.0397879,47)</title></rect><rect x="156" y="196.533" width="6" height="3.46703" stroke="black" stroke-width="1" fill="blue" opacity="1" tooltip="enable"><title>(0.0413794,51)</title></rect><rect x="162" y="195.989" width="6" height="4.01088" stroke="black" stroke-width="1" fill="blue" opacity="1" tooltip="enable"><title>(0.0429709,59)</title></rect><rect x="168" y="197.009" width="6" height="2.99116" stroke="black" stroke-width="1" fill="blue" opacity="1" tooltip="enable"><title>(0.0445625,44)</title></rect><rect x="174" y="198.097" width="6" height="1.90347" stroke="black" stroke-width="1" fill="blue" opacity="1" tooltip="enable"><title>(0.046154,28)</title></rect><rect x="180" y="196.601" width="6" height="3.39905" stroke="black" stroke-width="1" fill="blue" opacity="1" tooltip="enable"><title>(0.0477455,50)</title></rect><rect x="186" y="197.961" width="6" height="2.03943" stroke="black" stroke-width="1" fill="blue" opacity="1" tooltip="enable"><title>(0.049337,30)</title></rect><rect x="192" y="198.776" width="6" height="1.22366" stroke="black" stroke-width="1" fill="blue" opacity="1" tooltip="enable"><title>(0.0509285,18)</title></rect><rect x="198" y="198.776" width="6" height="1.22366" stroke="black" stroke-width="1" fill="blue" opacity="1" tooltip="enable"><title>(0.05252,18)</title></rect><rect x="204" y="199.048" width="6" height="0.951734" stroke="black" stroke-width="1" fill="blue" opacity="1" tooltip="enable"><title>(0.0541116,14)</title></rect><rect x="210" y="199.32" width="6" height="0.67981" stroke="black" stroke-width="1" fill="blue" opacity="1" tooltip="enable"><title>(0.0557031,10)</title></rect><rect x="216" y="198.912" width="6" height="1.0877" stroke="black" stroke-width="1" fill="blue" opacity="1" tooltip="enable"><title>(0.0572946,16)</title></rect><rect x="222" y="198.912" width="6" height="1.0877" stroke="black" stroke-width="1" fill="blue" opacity="1" tooltip="enable"><title>(0.0588861,16)</title></rect><rect x="228" y="199.592" width="6" height="0.407886" stroke="black" stroke-width="1" fill="blue" opacity="1" tooltip="enable"><title>(0.0604776,6)</title></rect><rect x="234" y="199.456" width="6" height="0.543848" stroke="black" stroke-width="1" fill="blue" opacity="1" tooltip="enable"><title>(0.0620691,8)</title></rect><rect x="240" y="198.912" width="6" height="1.0877" stroke="black" stroke-width="1" fill="blue" opacity="1" tooltip="enable"><title>(0.0636607,16)</title></rect><rect x="246" y="199.048" width="6" height="0.951734" stroke="black" stroke-width="1" fill="blue" opacity="1" tooltip="enable"><title>(0.0652522,14)</title></rect><rect x="252" y="199.32" width="6" height="0.67981" stroke="black" stroke-width="1" fill="blue" opacity="1" tooltip="enable"><title>(0.0668437,10)</title></rect><rect x="258" y="199.524" width="6" height="0.475867" stroke="black" stroke-width="1" fill="blue" opacity="1" tooltip="enable"><title>(0.0684352,7)</title></rect><rect x="264" y="199.932" width="6" height="0.067981" stroke="black" stroke-width="1" fill="blue" opacity="1" tooltip="enable"><title>(0.0700267,1)</title></rect><rect x="270" y="200" width="6" height="0" stroke="black" stroke-width="1" fill="blue" opacity="1" tooltip="enable"><title>(0.0716182,0)</title></rect><rect x="276" y="200" width="6" height="0" stroke="black" stroke-width="1" fill="blue" opacity="1" tooltip="enable"><title>(0.0732098,0)</title></rect><rect x="282" y="199.864" width="6" height="0.135962" stroke="black" stroke-width="1" fill="blue" opacity="1" tooltip="enable"><title>(0.0748013,2)</title></rect><rect x="288" y="200" width="6" height="0" stroke="black" stroke-width="1" fill="blue" opacity="1" tooltip="enable"><title>(0.0763928,0)</title></rect><rect x="294" y="200" width="6" height="0" stroke="black" stroke-width="1" fill="blue" opacity="1" tooltip="enable"><title>(0.0779843,0)</title></rect><rect x="300" y="200" width="6" height="0" stroke="black" stroke-width="1" fill="blue" opacity="1" tooltip="enable"><title>(0.0795758,0)</title></rect><rect x="306" y="200" width="6" height="0" stroke="black" stroke-width="1" fill="blue" opacity="1" tooltip="enable"><title>(0.0811673,0)</title></rect><rect x="312" y="200" width="6" height="0" stroke="black" stroke-width="1" fill="blue" opacity="1" tooltip="enable"><title>(0.0827589,0)</title></rect><rect x="318" y="200" width="6" height="0" stroke="black" stroke-width="1" fill="blue" opacity="1" tooltip="enable"><title>(0.0843504,0)</title></rect><rect x="324" y="200" width="6" height="0" stroke="black" stroke-width="1" fill="blue" opacity="1" tooltip="enable"><title>(0.0859419,0)</title></rect><rect x="330" y="200" width="6" height="0" stroke="black" stroke-width="1" fill="blue" opacity="1" tooltip="enable"><title>(0.0875334,0)</title></rect><rect x="336" y="200" width="6" height="0" stroke="black" stroke-width="1" fill="blue" opacity="1" tooltip="enable"><title>(0.0891249,0)</title></rect><rect x="342" y="200" width="6" height="0" stroke="black" stroke-width="1" fill="blue" opacity="1" tooltip="enable"><title>(0.0907164,0)</title></rect><rect x="348" y="200" width="6" height="0" stroke="black" stroke-width="1" fill="blue" opacity="1" tooltip="enable"><title>(0.0923079,0)</title></rect><rect x="354" y="200" width="6" height="0" stroke="black" stroke-width="1" fill="blue" opacity="1" tooltip="enable"><title>(0.0938995,0)</title></rect><rect x="360" y="200" width="6" height="0" stroke="black" stroke-width="1" fill="blue" opacity="1" tooltip="enable"><title>(0.095491,0)</title></rect><rect x="366" y="200" width="6" height="0" stroke="black" stroke-width="1" fill="blue" opacity="1" tooltip="enable"><title>(0.0970825,0)</title></rect><rect x="372" y="200" width="6" height="0" stroke="black" stroke-width="1" fill="blue" opacity="1" tooltip="enable"><title>(0.098674,0)</title></rect><rect x="378" y="200" width="6" height="0" stroke="black" stroke-width="1" fill="blue" opacity="1" tooltip="enable"><title>(0.100266,0)</title></rect><rect x="384" y="200" width="6" height="0" stroke="black" stroke-width="1" fill="blue" opacity="1" tooltip="enable"><title>(0.101857,0)</title></rect><rect x="390" y="200" width="6" height="0" stroke="black" stroke-width="1" fill="blue" opacity="1" tooltip="enable"><title>(0.103449,0)</title></rect><rect x="396" y="200" width="6" height="0" stroke="black" stroke-width="1" fill="blue" opacity="1" tooltip="enable"><title>(0.10504,0)</title></rect><rect x="402" y="200" width="6" height="0" stroke="black" stroke-width="1" fill="blue" opacity="1" tooltip="enable"><title>(0.106632,0)</title></rect><rect x="408" y="200" width="6" height="0" stroke="black" stroke-width="1" fill="blue" opacity="1" tooltip="enable"><title>(0.108223,0)</title></rect><rect x="414" y="200" width="6" height="0" stroke="black" stroke-width="1" fill="blue" opacity="1" tooltip="enable"><title>(0.109815,0)</title></rect><rect x="420" y="200" width="6" height="0" stroke="black" stroke-width="1" fill="blue" opacity="1" tooltip="enable"><title>(0.111406,0)</title></rect><rect x="426" y="200" width="6" height="0" stroke="black" stroke-width="1" fill="blue" opacity="1" tooltip="enable"><title>(0.112998,0)</title></rect><rect x="432" y="200" width="6" height="0" stroke="black" stroke-width="1" fill="blue" opacity="1" tooltip="enable"><title>(0.114589,0)</title></rect><rect x="438" y="200" width="6" height="0" stroke="black" stroke-width="1" fill="blue" opacity="1" tooltip="enable"><title>(0.116181,0)</title></rect><rect x="444" y="200" width="6" height="0" stroke="black" stroke-width="1" fill="blue" opacity="1" tooltip="enable"><title>(0.117772,0)</title></rect><rect x="450" y="200" width="6" height="0" stroke="black" stroke-width="1" fill="blue" opacity="1" tooltip="enable"><title>(0.119364,0)</title></rect><rect x="456" y="200" width="6" height="0" stroke="black" stroke-width="1" fill="blue" opacity="1" tooltip="enable"><title>(0.120955,0)</title></rect><rect x="462" y="200" width="6" height="0" stroke="black" stroke-width="1" fill="blue" opacity="1" tooltip="enable"><title>(0.122547,0)</title></rect><rect x="468" y="200" width="6" height="0" stroke="black" stroke-width="1" fill="blue" opacity="1" tooltip="enable"><title>(0.124138,0)</title></rect><rect x="474" y="200" width="6" height="0" stroke="black" stroke-width="1" fill="blue" opacity="1" tooltip="enable"><title>(0.12573,0)</title></rect><rect x="480" y="200" width="6" height="0" stroke="black" stroke-width="1" fill="blue" opacity="1" tooltip="enable"><title>(0.127321,0)</title></rect><rect x="486" y="200" width="6" height="0" stroke="black" stroke-width="1" fill="blue" opacity="1" tooltip="enable"><title>(0.128913,0)</title></rect><rect x="492" y="200" width="6" height="0" stroke="black" stroke-width="1" fill="blue" opacity="1" tooltip="enable"><title>(0.130504,0)</title></rect><rect x="498" y="200" width="6" height="0" stroke="black" stroke-width="1" fill="blue" opacity="1" tooltip="enable"><title>(0.132096,0)</title></rect><rect x="504" y="200" width="6" height="0" stroke="black" stroke-width="1" fill="blue" opacity="1" tooltip="enable"><title>(0.133687,0)</title></rect><rect x="510" y="200" width="6" height="0" stroke="black" stroke-width="1" fill="blue" opacity="1" tooltip="enable"><title>(0.135279,0)</title></rect><rect x="516" y="200" width="6" height="0" stroke="black" stroke-width="1" fill="blue" opacity="1" tooltip="enable"><title>(0.13687,0)</title></rect><rect x="522" y="200" width="6" height="0" stroke="black" stroke-width="1" fill="blue" opacity="1" tooltip="enable"><title>(0.138462,0)</title></rect><rect x="528" y="200" width="6" height="0" stroke="black" stroke-width="1" fill="blue" opacity="1" tooltip="enable"><title>(0.140053,0)</title></rect><rect x="534" y="200" width="6" height="0" stroke="black" stroke-width="1" fill="blue" opacity="1" tooltip="enable"><title>(0.141645,0)</title></rect><rect x="540" y="200" width="6" height="0" stroke="black" stroke-width="1" fill="blue" opacity="1" tooltip="enable"><title>(0.143236,0)</title></rect><rect x="546" y="200" width="6" height="0" stroke="black" stroke-width="1" fill="blue" opacity="1" tooltip="enable"><title>(0.144828,0)</title></rect><rect x="552" y="200" width="6" height="0" stroke="black" stroke-width="1" fill="blue" opacity="1" tooltip="enable"><title>(0.14642,0)</title></rect><rect x="558" y="200" width="6" height="0" stroke="black" stroke-width="1" fill="blue" opacity="1" tooltip="enable"><title>(0.148011,0)</title></rect><rect x="564" y="200" width="6" height="0" stroke="black" stroke-width="1" fill="blue" opacity="1" tooltip="enable"><title>(0.149603,0)</title></rect><rect x="570" y="200" width="6" height="0" stroke="black" stroke-width="1" fill="blue" opacity="1" tooltip="enable"><title>(0.151194,0)</title></rect><rect x="576" y="200" width="6" height="0" stroke="black" stroke-width="1" fill="blue" opacity="1" tooltip="enable"><title>(0.152786,0)</title></rect><rect x="582" y="200" width="6" height="0" stroke="black" stroke-width="1" fill="blue" opacity="1" tooltip="enable"><title>(0.154377,0)</title></rect><rect x="588" y="199.864" width="6" height="0.135962" stroke="black" stroke-width="1" fill="blue" opacity="1" tooltip="enable"><title>(0.155969,2)</title></rect><rect x="594" y="199.932" width="6" height="0.067981" stroke="black" stroke-width="1" fill="blue" opacity="1" tooltip="enable"><title>(0.15756,1)</title></rect><text x="30" y="240" font-size="20" fill="black">0</text>
<text x="600" y="240" font-size="20" fill="black">0.159152</text>
<polyline points="0,220,600,220" stroke="black" stroke-width="1" fill="none" opacity="1"/>
<text x="720" y="20" font-size="20" fill="black">2942</text>
<text x="720" y="200" font-size="20" fill="black">0</text>
<polyline points="660,0,660,200" stroke="black" stroke-width="1" fill="none" opacity="1"/>
</svg>