<?xml version="1.0" standalone="yes"?>
<!-- SVG graphic -->
<svg xmlns='http://www.w3.org/2000/svg' xmlns:xlink='http://www.w3.org/1999/xlink'
 version="1.1">
<rect x="0" y="0" width="6" height="200" stroke="black" stroke-width="1" fill="blue" opacity="1" tooltip="enable"><title>(0,2582)</title></rect><rect x="6" y="95.5848" width="6" height="104.415" stroke="black" stroke-width="1" fill="blue" opacity="1" tooltip="enable"><title>(0.00100922,1348)</title></rect><rect x="12" y="165.763" width="6" height="34.237" stroke="black" stroke-width="1" fill="blue" opacity="1" tooltip="enable"><title>(0.00201845,442)</title></rect><rect x="18" y="181.952" width="6" height="18.048" stroke="black" stroke-width="1" fill="blue" opacity="1" tooltip="enable"><title>(0.00302767,233)</title></rect><rect x="24" y="188.304" width="6" height="11.6964" stroke="black" stroke-width="1" fill="blue" opacity="1" tooltip="enable"><title>(0.0040369,151)</title></rect><rect x="30" y="187.994" width="6" height="12.0062" stroke="black" stroke-width="1" fill="blue" opacity="1" tooltip="enable"><title>(0.00504612,155)</title></rect><rect x="36" y="190.085" width="6" height="9.91479" stroke="black" stroke-width="1" fill="blue" opacity="1" tooltip="enable"><title>(0.00605535,128)</title></rect><rect x="42" y="186.832" width="6" height="13.1681" stroke="black" stroke-width="1" fill="blue" opacity="1" tooltip="enable"><title>(0.00706457,170)</title></rect><rect x="48" y="184.973" width="6" height="15.0271" stroke="black" stroke-width="1" fill="blue" opacity="1" tooltip="enable"><title>(0.00807379,194)</title></rect><rect x="54" y="189.311" width="6" height="10.6894" stroke="black" stroke-width="1" fill="blue" opacity="1" tooltip="enable"><title>(0.00908302,138)</title></rect><rect x="60" y="189.233" width="6" height="10.7668" stroke="black" stroke-width="1" fill="blue" opacity="1" tooltip="enable"><title>(0.0100922,139)</title></rect><rect x="66" y="190.085" width="6" height="9.91479" stroke="black" stroke-width="1" fill="blue" opacity="1" tooltip="enable"><title>(0.0111015,128)</title></rect><rect x="72" y="189.698" width="6" height="10.3021" stroke="black" stroke-width="1" fill="blue" opacity="1" tooltip="enable"><title>(0.0121107,133)</title></rect><rect x="78" y="188.459" width="6" height="11.5414" stroke="black" stroke-width="1" fill="blue" opacity="1" tooltip="enable"><title>(0.0131199,149)</title></rect><rect x="84" y="189.543" width="6" height="10.457" stroke="black" stroke-width="1" fill="blue" opacity="1" tooltip="enable"><title>(0.0141291,135)</title></rect><rect x="90" y="190.008" width="6" height="9.99225" stroke="black" stroke-width="1" fill="blue" opacity="1" tooltip="enable"><title>(0.0151384,129)</title></rect><rect x="96" y="191.712" width="6" height="8.28815" stroke="black" stroke-width="1" fill="blue" opacity="1" tooltip="enable"><title>(0.0161476,107)</title></rect><rect x="102" y="192.409" width="6" height="7.59101" stroke="black" stroke-width="1" fill="blue" opacity="1" tooltip="enable"><title>(0.0171568,98)</title></rect><rect x="108" y="191.092" width="6" height="8.90782" stroke="black" stroke-width="1" fill="blue" opacity="1" tooltip="enable"><title>(0.018166,115)</title></rect><rect x="114" y="193.339" width="6" height="6.6615" stroke="black" stroke-width="1" fill="blue" opacity="1" tooltip="enable"><title>(0.0191753,86)</title></rect><rect x="120" y="194.268" width="6" height="5.73199" stroke="black" stroke-width="1" fill="blue" opacity="1" tooltip="enable"><title>(0.0201845,74)</title></rect><rect x="126" y="192.719" width="6" height="7.28118" stroke="black" stroke-width="1" fill="blue" opacity="1" tooltip="enable"><title>(0.0211937,94)</title></rect><rect x="132" y="192.564" width="6" height="7.4361" stroke="black" stroke-width="1" fill="blue" opacity="1" tooltip="enable"><title>(0.0222029,96)</title></rect><rect x="138" y="193.958" width="6" height="6.04183" stroke="black" stroke-width="1" fill="blue" opacity="1" tooltip="enable"><title>(0.0232122,78)</title></rect><rect x="144" y="195.352" width="6" height="4.64756" stroke="black" stroke-width="1" fill="blue" opacity="1" tooltip="enable"><title>(0.0242214,60)</title></rect><rect x="150" y="195.352" width="6" height="4.64756" stroke="black" stroke-width="1" fill="blue" opacity="1" tooltip="enable"><title>(0.0252306,60)</title></rect><rect x="156" y="195.198" width="6" height="4.80248" stroke="black" stroke-width="1" fill="blue" opacity="1" tooltip="enable"><title>(0.0262398,62)</title></rect><rect x="162" y="197.057" width="6" height="2.94345" stroke="black" stroke-width="1" fill="blue" opacity="1" tooltip="enable"><title>(0.0272491,38)</title></rect><rect x="168" y="194.888" width="6" height="5.11232" stroke="black" stroke-width="1" fill="blue" opacity="1" tooltip="enable"><title>(0.0282583,66)</title></rect><rect x="174" y="197.057" width="6" height="2.94345" stroke="black" stroke-width="1" fill="blue" opacity="1" tooltip="enable"><title>(0.0292675,38)</title></rect><rect x="180" y="198.296" width="6" height="1.70411" stroke="black" stroke-width="1" fill="blue" opacity="1" tooltip="enable"><title>(0.0302767,22)</title></rect><rect x="186" y="197.366" width="6" height="2.63362" stroke="black" stroke-width="1" fill="blue" opacity="1" tooltip="enable"><title>(0.031286,34)</title></rect><rect x="192" y="197.211" width="6" height="2.78854" stroke="black" stroke-width="1" fill="blue" opacity="1" tooltip="enable"><title>(0.0322952,36)</title></rect><rect x="198" y="198.451" width="6" height="1.54919" stroke="black" stroke-width="1" fill="blue" opacity="1" tooltip="enable"><title>(0.0333044,20)</title></rect><rect x="204" y="197.986" width="6" height="2.01394" stroke="black" stroke-width="1" fill="blue" opacity="1" tooltip="enable"><title>(0.0343136,26)</title></rect><rect x="210" y="198.064" width="6" height="1.93648" stroke="black" stroke-width="1" fill="blue" opacity="1" tooltip="enable"><title>(0.0353229,25)</title></rect><rect x="216" y="197.521" width="6" height="2.4787" stroke="black" stroke-width="1" fill="blue" opacity="1" tooltip="enable"><title>(0.0363321,32)</title></rect><rect x="222" y="198.218" width="6" height="1.78156" stroke="black" stroke-width="1" fill="blue" opacity="1" tooltip="enable"><title>(0.0373413,23)</title></rect><rect x="228" y="198.141" width="6" height="1.85902" stroke="black" stroke-width="1" fill="blue" opacity="1" tooltip="enable"><title>(0.0383505,24)</title></rect><rect x="234" y="198.141" width="6" height="1.85902" stroke="black" stroke-width="1" fill="blue" opacity="1" tooltip="enable"><title>(0.0393597,24)</title></rect><rect x="240" y="197.366" width="6" height="2.63362" stroke="black" stroke-width="1" fill="blue" opacity="1" tooltip="enable"><title>(0.040369,34)</title></rect><rect x="246" y="197.366" width="6" height="2.63362" stroke="black" stroke-width="1" fill="blue" opacity="1" tooltip="enable"><title>(0.0413782,34)</title></rect><rect x="252" y="197.986" width="6" height="2.01394" stroke="black" stroke-width="1" fill="blue" opacity="1" tooltip="enable"><title>(0.0423874,26)</title></rect><rect x="258" y="199.613" width="6" height="0.387297" stroke="black" stroke-width="1" fill="blue" opacity="1" tooltip="enable"><title>(0.0433966,5)</title></rect><rect x="264" y="198.373" width="6" height="1.62665" stroke="black" stroke-width="1" fill="blue" opacity="1" tooltip="enable"><title>(0.0444059,21)</title></rect><rect x="270" y="198.606" width="6" height="1.39427" stroke="black" stroke-width="1" fill="blue" opacity="1" tooltip="enable"><title>(0.0454151,18)</title></rect><rect x="276" y="199.69" width="6" height="0.309837" stroke="black" stroke-width="1" fill="blue" opacity="1" tooltip="enable"><title>(0.0464243,4)</title></rect><rect x="282" y="199.69" width="6" height="0.309837" stroke="black" stroke-width="1" fill="blue" opacity="1" tooltip="enable"><title>(0.0474335,4)</title></rect><rect x="288" y="199.07" width="6" height="0.929512" stroke="black" stroke-width="1" fill="blue" opacity="1" tooltip="enable"><title>(0.0484428,12)</title></rect><rect x="294" y="199.535" width="6" height="0.464756" stroke="black" stroke-width="1" fill="blue" opacity="1" tooltip="enable"><title>(0.049452,6)</title></rect><rect x="300" y="199.38" width="6" height="0.619675" stroke="black" stroke-width="1" fill="blue" opacity="1" tooltip="enable"><title>(0.0504612,8)</title></rect><rect x="306" y="199.613" width="6" height="0.387297" stroke="black" stroke-width="1" fill="blue" opacity="1" tooltip="enable"><title>(0.0514704,5)</title></rect><rect x="312" y="199.458" width="6" height="0.542215" stroke="black" stroke-width="1" fill="blue" opacity="1" tooltip="enable"><title>(0.0524797,7)</title></rect><rect x="318" y="199.225" width="6" height="0.774593" stroke="black" stroke-width="1" fill="blue" opacity="1" tooltip="enable"><title>(0.0534889,10)</title></rect><rect x="324" y="199.38" width="6" height="0.619675" stroke="black" stroke-width="1" fill="blue" opacity="1" tooltip="enable"><title>(0.0544981,8)</title></rect><rect x="330" y="199.69" width="6" height="0.309837" stroke="black" stroke-width="1" fill="blue" opacity="1" tooltip="enable"><title>(0.0555073,4)</title></rect><rect x="336" y="198.451" width="6" height="1.54919" stroke="black" stroke-width="1" fill="blue" opacity="1" tooltip="enable"><title>(0.0565166,20)</title></rect><rect x="342" y="199.613" width="6" height="0.387297" stroke="black" stroke-width="1" fill="blue" opacity="1" tooltip="enable"><title>(0.0575258,5)</title></rect><rect x="348" y="199.535" width="6" height="0.464756" stroke="black" stroke-width="1" fill="blue" opacity="1" tooltip="enable"><title>(0.058535,6)</title></rect><rect x="354" y="199.768" width="6" height="0.232378" stroke="black" stroke-width="1" fill="blue" opacity="1" tooltip="enable"><title>(0.0595442,3)</title></rect><rect x="360" y="199.69" width="6" height="0.309837" stroke="black" stroke-width="1" fill="blue" opacity="1" tooltip="enable"><title>(0.0605535,4)</title></rect><rect x="366" y="199.845" width="6" height="0.154919" stroke="black" stroke-width="1" fill="blue" opacity="1" tooltip="enable"><title>(0.0615627,2)</title></rect><rect x="372" y="199.69" width="6" height="0.309837" stroke="black" stroke-width="1" fill="blue" opacity="1" tooltip="enable"><title>(0.0625719,4)</title></rect><rect x="378" y="199.535" width="6" height="0.464756" stroke="black" stroke-width="1" fill="blue" opacity="1" tooltip="enable"><title>(0.0635811,6)</title></rect><rect x="384" y="199.69" width="6" height="0.309837" stroke="black" stroke-width="1" fill="blue" opacity="1" tooltip="enable"><title>(0.0645904,4)</title></rect><rect x="390" y="199.845" width="6" height="0.154919" stroke="black" stroke-width="1" fill="blue" opacity="1" tooltip="enable"><title>(0.0655996,2)</title></rect><rect x="396" y="199.225" width="6" height="0.774593" stroke="black" stroke-width="1" fill="blue" opacity="1" tooltip="enable"><title>(0.0666088,10)</title></rect><rect x="402" y="200" width="6" height="0" stroke="black" stroke-width="1" fill="blue" opacity="1" tooltip="enable"><title>(0.067618,0)</title></rect><rect x="408" y="200" width="6" height="0" stroke="black" stroke-width="1" fill="blue" opacity="1" tooltip="enable"><title>(0.0686273,0)</title></rect><rect x="414" y="199.845" width="6" height="0.154919" stroke="black" stroke-width="1" fill="blue" opacity="1" tooltip="enable"><title>(0.0696365,2)</title></rect><rect x="420" y="199.845" width="6" height="0.154919" stroke="black" stroke-width="1" fill="blue" opacity="1" tooltip="enable"><title>(0.0706457,2)</title></rect><rect x="426" y="199.845" width="6" height="0.154919" stroke="black" stroke-width="1" fill="blue" opacity="1" tooltip="enable"><title>(0.0716549,2)</title></rect><rect x="432" y="199.845" width="6" height="0.154919" stroke="black" stroke-width="1" fill="blue" opacity="1" tooltip="enable"><title>(0.0726642,2)</title></rect><rect x="438" y="199.845" width="6" height="0.154919" stroke="black" stroke-width="1" fill="blue" opacity="1" tooltip="enable"><title>(0.0736734,2)</title></rect><rect x="444" y="199.535" width="6" height="0.464756" stroke="black" stroke-width="1" fill="blue" opacity="1" tooltip="enable"><title>(0.0746826,6)</title></rect><rect x="450" y="200" width="6" height="0" stroke="black" stroke-width="1" fill="blue" opacity="1" tooltip="enable"><title>(0.0756918,0)</title></rect><rect x="456" y="200" width="6" height="0" stroke="black" stroke-width="1" fill="blue" opacity="1" tooltip="enable"><title>(0.0767011,0)</title></rect><rect x="462" y="199.535" width="6" height="0.464756" stroke="black" stroke-width="1" fill="blue" opacity="1" tooltip="enable"><title>(0.0777103,6)</title></rect><rect x="468" y="199.845" width="6" height="0.154919" stroke="black" stroke-width="1" fill="blue" opacity="1" tooltip="enable"><title>(0.0787195,2)</title></rect><rect x="474" y="200" width="6" height="0" stroke="black" stroke-width="1" fill="blue" opacity="1" tooltip="enable"><title>(0.0797287,0)</title></rect><rect x="480" y="199.845" width="6" height="0.154919" stroke="black" stroke-width="1" fill="blue" opacity="1" tooltip="enable"><title>(0.0807379,2)</title></rect><rect x="486" y="199.845" width="6" height="0.154919" stroke="black" stroke-width="1" fill="blue" opacity="1" tooltip="enable"><title>(0.0817472,2)</title></rect><rect x="492" y="200" width="6" height="0" stroke="black" stroke-width="1" fill="blue" opacity="1" tooltip="enable"><title>(0.0827564,0)</title></rect><rect x="498" y="200" width="6" height="0" stroke="black" stroke-width="1" fill="blue" opacity="1" tooltip="enable"><title>(0.0837656,0)</title></rect><rect x="504" y="200" width="6" height="0" stroke="black" stroke-width="1" fill="blue" opacity="1" tooltip="enable"><title>(0.0847748,0)</title></rect><rect x="510" y="200" width="6" height="0" stroke="black" stroke-width="1" fill="blue" opacity="1" tooltip="enable"><title>(0.0857841,0)</title></rect><rect x="516" y="200" width="6" height="0" stroke="black" stroke-width="1" fill="blue" opacity="1" tooltip="enable"><title>(0.0867933,0)</title></rect><rect x="522" y="200" width="6" height="0" stroke="black" stroke-width="1" fill="blue" opacity="1" tooltip="enable"><title>(0.0878025,0)</title></rect><rect x="528" y="200" width="6" height="0" stroke="black" stroke-width="1" fill="blue" opacity="1" tooltip="enable"><title>(0.0888117,0)</title></rect><rect x="534" y="200" width="6" height="0" stroke="black" stroke-width="1" fill="blue" opacity="1" tooltip="enable"><title>(0.089821,0)</title></rect><rect x="540" y="200" width="6" height="0" stroke="black" stroke-width="1" fill="blue" opacity="1" tooltip="enable"><title>(0.0908302,0)</title></rect><rect x="546" y="200" width="6" height="0" stroke="black" stroke-width="1" fill="blue" opacity="1" tooltip="enable"><title>(0.0918394,0)</title></rect><rect x="552" y="200" width="6" height="0" stroke="black" stroke-width="1" fill="blue" opacity="1" tooltip="enable"><title>(0.0928486,0)</title></rect><rect x="558" y="200" width="6" height="0" stroke="black" stroke-width="1" fill="blue" opacity="1" tooltip="enable"><title>(0.0938579,0)</title></rect><rect x="564" y="200" width="6" height="0" stroke="black" stroke-width="1" fill="blue" opacity="1" tooltip="enable"><title>(0.0948671,0)</title></rect><rect x="570" y="200" width="6" height="0" stroke="black" stroke-width="1" fill="blue" opacity="1" tooltip="enable"><title>(0.0958763,0)</title></rect><rect x="576" y="199.535" width="6" height="0.464756" stroke="black" stroke-width="1" fill="blue" opacity="1" tooltip="enable"><title>(0.0968855,6)</title></rect><rect x="582" y="200" width="6" height="0" stroke="black" stroke-width="1" fill="blue" opacity="1" tooltip="enable"><title>(0.0978948,0)</title></rect><rect x="588" y="200" width="6" height="0" stroke="black" stroke-width="1" fill="blue" opacity="1" tooltip="enable"><title>(0.098904,0)</title></rect><rect x="594" y="199.923" width="6" height="0.0774593" stroke="black" stroke-width="1" fill="blue" opacity="1" tooltip="enable"><title>(0.0999132,1)</title></rect><text x="30" y="240" font-size="20" fill="black">0</text>
<text x="600" y="240" font-size="20" fill="black">0.100922</text>
<polyline points="0,220,600,220" stroke="black" stroke-width="1" fill="none" opacity="1"/>
<text x="720" y="20" font-size="20" fill="black">2582</text>
<text x="720" y="200" font-size="20" fill="black">0</text>
<polyline points="660,0,660,200" stroke="black" stroke-width="1" fill="none" opacity="1"/>
</svg>