<?xml version="1.0" standalone="yes"?>
<!-- SVG graphic -->
<svg xmlns='http://www.w3.org/2000/svg' xmlns:xlink='http://www.w3.org/1999/xlink'
 version="1.1">
<rect x="0" y="0" width="6" height="200" stroke="black" stroke-width="1" fill="blue" opacity="1" tooltip="enable"><title>(0,1927)</title></rect><rect x="6" y="38.4017" width="6" height="161.598" stroke="black" stroke-width="1" fill="blue" opacity="1" tooltip="enable"><title>(0.00176425,1557)</title></rect><rect x="12" y="95.589" width="6" height="104.411" stroke="black" stroke-width="1" fill="blue" opacity="1" tooltip="enable"><title>(0.00352849,1006)</title></rect><rect x="18" y="154.229" width="6" height="45.7706" stroke="black" stroke-width="1" fill="blue" opacity="1" tooltip="enable"><title>(0.00529274,441)</title></rect><rect x="24" y="172.6" width="6" height="27.4001" stroke="black" stroke-width="1" fill="blue" opacity="1" tooltip="enable"><title>(0.00705699,264)</title></rect><rect x="30" y="174.779" width="6" height="25.2206" stroke="black" stroke-width="1" fill="blue" opacity="1" tooltip="enable"><title>(0.00882123,243)</title></rect><rect x="36" y="173.638" width="6" height="26.3622" stroke="black" stroke-width="1" fill="blue" opacity="1" tooltip="enable"><title>(0.0105855,254)</title></rect><rect x="42" y="179.45" width="6" height="20.5501" stroke="black" stroke-width="1" fill="blue" opacity="1" tooltip="enable"><title>(0.0123497,198)</title></rect><rect x="48" y="179.554" width="6" height="20.4463" stroke="black" stroke-width="1" fill="blue" opacity="1" tooltip="enable"><title>(0.014114,197)</title></rect><rect x="54" y="180.592" width="6" height="19.4084" stroke="black" stroke-width="1" fill="blue" opacity="1" tooltip="enable"><title>(0.0158782,187)</title></rect><rect x="60" y="180.799" width="6" height="19.2008" stroke="black" stroke-width="1" fill="blue" opacity="1" tooltip="enable"><title>(0.0176425,185)</title></rect><rect x="66" y="179.346" width="6" height="20.6539" stroke="black" stroke-width="1" fill="blue" opacity="1" tooltip="enable"><title>(0.0194067,199)</title></rect><rect x="72" y="179.242" width="6" height="20.7577" stroke="black" stroke-width="1" fill="blue" opacity="1" tooltip="enable"><title>(0.021171,200)</title></rect><rect x="78" y="183.913" width="6" height="16.0872" stroke="black" stroke-width="1" fill="blue" opacity="1" tooltip="enable"><title>(0.0229352,155)</title></rect><rect x="84" y="181.422" width="6" height="18.5781" stroke="black" stroke-width="1" fill="blue" opacity="1" tooltip="enable"><title>(0.0246995,179)</title></rect><rect x="90" y="182.564" width="6" height="17.4364" stroke="black" stroke-width="1" fill="blue" opacity="1" tooltip="enable"><title>(0.0264637,168)</title></rect><rect x="96" y="186.508" width="6" height="13.4925" stroke="black" stroke-width="1" fill="blue" opacity="1" tooltip="enable"><title>(0.0282279,130)</title></rect><rect x="102" y="190.659" width="6" height="9.34094" stroke="black" stroke-width="1" fill="blue" opacity="1" tooltip="enable"><title>(0.0299922,90)</title></rect><rect x="108" y="190.659" width="6" height="9.34094" stroke="black" stroke-width="1" fill="blue" opacity="1" tooltip="enable"><title>(0.0317564,90)</title></rect><rect x="114" y="192.216" width="6" height="7.78412" stroke="black" stroke-width="1" fill="blue" opacity="1" tooltip="enable"><title>(0.0335207,75)</title></rect><rect x="120" y="194.084" width="6" height="5.91593" stroke="black" stroke-width="1" fill="blue" opacity="1" tooltip="enable"><title>(0.0352849,57)</title></rect><rect x="126" y="196.471" width="6" height="3.5288" stroke="black" stroke-width="1" fill="blue" opacity="1" tooltip="enable"><title>(0.0370492,34)</title></rect><rect x="132" y="196.056" width="6" height="3.94395" stroke="black" stroke-width="1" fill="blue" opacity="1" tooltip="enable"><title>(0.0388134,38)</title></rect><rect x="138" y="198.028" width="6" height="1.97198" stroke="black" stroke-width="1" fill="blue" opacity="1" tooltip="enable"><title>(0.0405777,19)</title></rect><rect x="144" y="197.82" width="6" height="2.17955" stroke="black" stroke-width="1" fill="blue" opacity="1" tooltip="enable"><title>(0.0423419,21)</title></rect><rect x="150" y="198.755" width="6" height="1.24546" stroke="black" stroke-width="1" fill="blue" opacity="1" tooltip="enable"><title>(0.0441062,12)</title></rect><rect x="156" y="197.717" width="6" height="2.28334" stroke="black" stroke-width="1" fill="blue" opacity="1" tooltip="enable"><title>(0.0458704,22)</title></rect><rect x="162" y="198.755" width="6" height="1.24546" stroke="black" stroke-width="1" fill="blue" opacity="1" tooltip="enable"><title>(0.0476347,12)</title></rect><rect x="168" y="197.924" width="6" height="2.07577" stroke="black" stroke-width="1" fill="blue" opacity="1" tooltip="enable"><title>(0.0493989,20)</title></rect><rect x="174" y="199.481" width="6" height="0.518941" stroke="black" stroke-width="1" fill="blue" opacity="1" tooltip="enable"><title>(0.0511632,5)</title></rect><rect x="180" y="199.481" width="6" height="0.518941" stroke="black" stroke-width="1" fill="blue" opacity="1" tooltip="enable"><title>(0.0529274,5)</title></rect><rect x="186" y="199.585" width="6" height="0.415153" stroke="black" stroke-width="1" fill="blue" opacity="1" tooltip="enable"><title>(0.0546916,4)</title></rect><rect x="192" y="199.792" width="6" height="0.207577" stroke="black" stroke-width="1" fill="blue" opacity="1" tooltip="enable"><title>(0.0564559,2)</title></rect><rect x="198" y="200" width="6" height="0" stroke="black" stroke-width="1" fill="blue" opacity="1" tooltip="enable"><title>(0.0582201,0)</title></rect><rect x="204" y="199.792" width="6" height="0.207577" stroke="black" stroke-width="1" fill="blue" opacity="1" tooltip="enable"><title>(0.0599844,2)</title></rect><rect x="210" y="200" width="6" height="0" stroke="black" stroke-width="1" fill="blue" opacity="1" tooltip="enable"><title>(0.0617486,0)</title></rect><rect x="216" y="200" width="6" height="0" stroke="black" stroke-width="1" fill="blue" opacity="1" tooltip="enable"><title>(0.0635129,0)</title></rect><rect x="222" y="200" width="6" height="0" stroke="black" stroke-width="1" fill="blue" opacity="1" tooltip="enable"><title>(0.0652771,0)</title></rect><rect x="228" y="200" width="6" height="0" stroke="black" stroke-width="1" fill="blue" opacity="1" tooltip="enable"><title>(0.0670414,0)</title></rect><rect x="234" y="200" width="6" height="0" stroke="black" stroke-width="1" fill="blue" opacity="1" tooltip="enable"><title>(0.0688056,0)</title></rect><rect x="240" y="200" width="6" height="0" stroke="black" stroke-width="1" fill="blue" opacity="1" tooltip="enable"><title>(0.0705699,0)</title></rect><rect x="246" y="200" width="6" height="0" stroke="black" stroke-width="1" fill="blue" opacity="1" tooltip="enable"><title>(0.0723341,0)</title></rect><rect x="252" y="200" width="6" height="0" stroke="black" stroke-width="1" fill="blue" opacity="1" tooltip="enable"><title>(0.0740984,0)</title></rect><rect x="258" y="200" width="6" height="0" stroke="black" stroke-width="1" fill="blue" opacity="1" tooltip="enable"><title>(0.0758626,0)</title></rect><rect x="264" y="200" width="6" height="0" stroke="black" stroke-width="1" fill="blue" opacity="1" tooltip="enable"><title>(0.0776269,0)</title></rect><rect x="270" y="200" width="6" height="0" stroke="black" stroke-width="1" fill="blue" opacity="1" tooltip="enable"><title>(0.0793911,0)</title></rect><rect x="276" y="200" width="6" height="0" stroke="black" stroke-width="1" fill="blue" opacity="1" tooltip="enable"><title>(0.0811553,0)</title></rect><rect x="282" y="200" width="6" height="0" stroke="black" stroke-width="1" fill="blue" opacity="1" tooltip="enable"><title>(0.0829196,0)</title></rect><rect x="288" y="200" width="6" height="0" stroke="black" stroke-width="1" fill="blue" opacity="1" tooltip="enable"><title>(0.0846838,0)</title></rect><rect x="294" y="200" width="6" height="0" stroke="black" stroke-width="1" fill="blue" opacity="1" tooltip="enable"><title>(0.0864481,0)</title></rect><rect x="300" y="200" width="6" height="0" stroke="black" stroke-width="1" fill="blue" opacity="1" tooltip="enable"><title>(0.0882123,0)</title></rect><rect x="306" y="200" width="6" height="0" stroke="black" stroke-width="1" fill="blue" opacity="1" tooltip="enable"><title>(0.0899766,0)</title></rect><rect x="312" y="200" width="6" height="0" stroke="black" stroke-width="1" fill="blue" opacity="1" tooltip="enable"><title>(0.0917408,0)</title></rect><rect x="318" y="200" width="6" height="0" stroke="black" stroke-width="1" fill="blue" opacity="1" tooltip="enable"><title>(0.0935051,0)</title></rect><rect x="324" y="200" width="6" height="0" stroke="black" stroke-width="1" fill="blue" opacity="1" tooltip="enable"><title>(0.0952693,0)</title></rect><rect x="330" y="200" width="6" height="0" stroke="black" stroke-width="1" fill="blue" opacity="1" tooltip="enable"><title>(0.0970336,0)</title></rect><rect x="336" y="200" width="6" height="0" stroke="black" stroke-width="1" fill="blue" opacity="1" tooltip="enable"><title>(0.0987978,0)</title></rect><rect x="342" y="200" width="6" height="0" stroke="black" stroke-width="1" fill="blue" opacity="1" tooltip="enable"><title>(0.100562,0)</title></rect><rect x="348" y="200" width="6" height="0" stroke="black" stroke-width="1" fill="blue" opacity="1" tooltip="enable"><title>(0.102326,0)</title></rect><rect x="354" y="200" width="6" height="0" stroke="black" stroke-width="1" fill="blue" opacity="1" tooltip="enable"><title>(0.104091,0)</title></rect><rect x="360" y="200" width="6" height="0" stroke="black" stroke-width="1" fill="blue" opacity="1" tooltip="enable"><title>(0.105855,0)</title></rect><rect x="366" y="200" width="6" height="0" stroke="black" stroke-width="1" fill="blue" opacity="1" tooltip="enable"><title>(0.107619,0)</title></rect><rect x="372" y="200" width="6" height="0" stroke="black" stroke-width="1" fill="blue" opacity="1" tooltip="enable"><title>(0.109383,0)</title></rect><rect x="378" y="200" width="6" height="0" stroke="black" stroke-width="1" fill="blue" opacity="1" tooltip="enable"><title>(0.111148,0)</title></rect><rect x="384" y="200" width="6" height="0" stroke="black" stroke-width="1" fill="blue" opacity="1" tooltip="enable"><title>(0.112912,0)</title></rect><rect x="390" y="200" width="6" height="0" stroke="black" stroke-width="1" fill="blue" opacity="1" tooltip="enable"><title>(0.114676,0)</title></rect><rect x="396" y="200" width="6" height="0" stroke="black" stroke-width="1" fill="blue" opacity="1" tooltip="enable"><title>(0.11644,0)</title></rect><rect x="402" y="200" width="6" height="0" stroke="black" stroke-width="1" fill="blue" opacity="1" tooltip="enable"><title>(0.118205,0)</title></rect><rect x="408" y="200" width="6" height="0" stroke="black" stroke-width="1" fill="blue" opacity="1" tooltip="enable"><title>(0.119969,0)</title></rect><rect x="414" y="200" width="6" height="0" stroke="black" stroke-width="1" fill="blue" opacity="1" tooltip="enable"><title>(0.121733,0)</title></rect><rect x="420" y="200" width="6" height="0" stroke="black" stroke-width="1" fill="blue" opacity="1" tooltip="enable"><title>(0.123497,0)</title></rect><rect x="426" y="200" width="6" height="0" stroke="black" stroke-width="1" fill="blue" opacity="1" tooltip="enable"><title>(0.125262,0)</title></rect><rect x="432" y="200" width="6" height="0" stroke="black" stroke-width="1" fill="blue" opacity="1" tooltip="enable"><title>(0.127026,0)</title></rect><rect x="438" y="200" width="6" height="0" stroke="black" stroke-width="1" fill="blue" opacity="1" tooltip="enable"><title>(0.12879,0)</title></rect><rect x="444" y="200" width="6" height="0" stroke="black" stroke-width="1" fill="blue" opacity="1" tooltip="enable"><title>(0.130554,0)</title></rect><rect x="450" y="200" width="6" height="0" stroke="black" stroke-width="1" fill="blue" opacity="1" tooltip="enable"><title>(0.132318,0)</title></rect><rect x="456" y="200" width="6" height="0" stroke="black" stroke-width="1" fill="blue" opacity="1" tooltip="enable"><title>(0.134083,0)</title></rect><rect x="462" y="200" width="6" height="0" stroke="black" stroke-width="1" fill="blue" opacity="1" tooltip="enable"><title>(0.135847,0)</title></rect><rect x="468" y="200" width="6" height="0" stroke="black" stroke-width="1" fill="blue" opacity="1" tooltip="enable"><title>(0.137611,0)</title></rect><rect x="474" y="200" width="6" height="0" stroke="black" stroke-width="1" fill="blue" opacity="1" tooltip="enable"><title>(0.139375,0)</title></rect><rect x="480" y="200" width="6" height="0" stroke="black" stroke-width="1" fill="blue" opacity="1" tooltip="enable"><title>(0.14114,0)</title></rect><rect x="486" y="200" width="6" height="0" stroke="black" stroke-width="1" fill="blue" opacity="1" tooltip="enable"><title>(0.142904,0)</title></rect><rect x="492" y="200" width="6" height="0" stroke="black" stroke-width="1" fill="blue" opacity="1" tooltip="enable"><title>(0.144668,0)</title></rect><rect x="498" y="200" width="6" height="0" stroke="black" stroke-width="1" fill="blue" opacity="1" tooltip="enable"><title>(0.146432,0)</title></rect><rect x="504" y="200" width="6" height="0" stroke="black" stroke-width="1" fill="blue" opacity="1" tooltip="enable"><title>(0.148197,0)</title></rect><rect x="510" y="200" width="6" height="0" stroke="black" stroke-width="1" fill="blue" opacity="1" tooltip="enable"><title>(0.149961,0)</title></rect><rect x="516" y="200" width="6" height="0" stroke="black" stroke-width="1" fill="blue" opacity="1" tooltip="enable"><title>(0.151725,0)</title></rect><rect x="522" y="200" width="6" height="0" stroke="black" stroke-width="1" fill="blue" opacity="1" tooltip="enable"><title>(0.153489,0)</title></rect><rect x="528" y="200" width="6" height="0" stroke="black" stroke-width="1" fill="blue" opacity="1" tooltip="enable"><title>(0.155254,0)</title></rect><rect x="534" y="200" width="6" height="0" stroke="black" stroke-width="1" fill="blue" opacity="1" tooltip="enable"><title>(0.157018,0)</title></rect><rect x="540" y="200" width="6" height="0" stroke="black" stroke-width="1" fill="blue" opacity="1" tooltip="enable"><title>(0.158782,0)</title></rect><rect x="546" y="200" width="6" height="0" stroke="black" stroke-width="1" fill="blue" opacity="1" tooltip="enable"><title>(0.160546,0)</title></rect><rect x="552" y="200" width="6" height="0" stroke="black" stroke-width="1" fill="blue" opacity="1" tooltip="enable"><title>(0.162311,0)</title></rect><rect x="558" y="200" width="6" height="0" stroke="black" stroke-width="1" fill="blue" opacity="1" tooltip="enable"><title>(0.164075,0)</title></rect><rect x="564" y="200" width="6" height="0" stroke="black" stroke-width="1" fill="blue" opacity="1" tooltip="enable"><title>(0.165839,0)</title></rect><rect x="570" y="200" width="6" height="0" stroke="black" stroke-width="1" fill="blue" opacity="1" tooltip="enable"><title>(0.167603,0)</title></rect><rect x="576" y="200" width="6" height="0" stroke="black" stroke-width="1" fill="blue" opacity="1" tooltip="enable"><title>(0.169368,0)</title></rect><rect x="582" y="200" width="6" height="0" stroke="black" stroke-width="1" fill="blue" opacity="1" tooltip="enable"><title>(0.171132,0)</title></rect><rect x="588" y="200" width="6" height="0" stroke="black" stroke-width="1" fill="blue" opacity="1" tooltip="enable"><title>(0.172896,0)</title></rect><rect x="594" y="199.792" width="6" height="0.207577" stroke="black" stroke-width="1" fill="blue" opacity="1" tooltip="enable"><title>(0.17466,2)</title></rect><text x="30" y="240" font-size="20" fill="black">0</text>
<text x="600" y="240" font-size="20" fill="black">0.176425</text>
<polyline points="0,220,600,220" stroke="black" stroke-width="1" fill="none" opacity="1"/>
<text x="720" y="20" font-size="20" fill="black">1927</text>
<text x="720" y="200" font-size="20" fill="black">0</text>
<polyline points="660,0,660,200" stroke="black" stroke-width="1" fill="none" opacity="1"/>
</svg>