<?xml version="1.0" standalone="yes"?>
<!-- SVG graphic -->
<svg xmlns='http://www.w3.org/2000/svg' xmlns:xlink='http://www.w3.org/1999/xlink'
 version="1.1">
<rect x="0" y="0" width="6" height="200" stroke="black" stroke-width="1" fill="blue" opacity="1" tooltip="enable"><title>(0,2812)</title></rect><rect x="6" y="112.02" width="6" height="87.9801" stroke="black" stroke-width="1" fill="blue" opacity="1" tooltip="enable"><title>(0.00100059,1237)</title></rect><rect x="12" y="175.107" width="6" height="24.8933" stroke="black" stroke-width="1" fill="blue" opacity="1" tooltip="enable"><title>(0.00200118,350)</title></rect><rect x="18" y="185.42" width="6" height="14.5804" stroke="black" stroke-width="1" fill="blue" opacity="1" tooltip="enable"><title>(0.00300178,205)</title></rect><rect x="24" y="189.189" width="6" height="10.8108" stroke="black" stroke-width="1" fill="blue" opacity="1" tooltip="enable"><title>(0.00400237,152)</title></rect><rect x="30" y="189.9" width="6" height="10.0996" stroke="black" stroke-width="1" fill="blue" opacity="1" tooltip="enable"><title>(0.00500296,142)</title></rect><rect x="36" y="189.758" width="6" height="10.2418" stroke="black" stroke-width="1" fill="blue" opacity="1" tooltip="enable"><title>(0.00600355,144)</title></rect><rect x="42" y="188.336" width="6" height="11.6643" stroke="black" stroke-width="1" fill="blue" opacity="1" tooltip="enable"><title>(0.00700414,164)</title></rect><rect x="48" y="187.198" width="6" height="12.8023" stroke="black" stroke-width="1" fill="blue" opacity="1" tooltip="enable"><title>(0.00800473,180)</title></rect><rect x="54" y="189.118" width="6" height="10.8819" stroke="black" stroke-width="1" fill="blue" opacity="1" tooltip="enable"><title>(0.00900533,153)</title></rect><rect x="60" y="190.896" width="6" height="9.10384" stroke="black" stroke-width="1" fill="blue" opacity="1" tooltip="enable"><title>(0.0100059,128)</title></rect><rect x="66" y="191.394" width="6" height="8.60597" stroke="black" stroke-width="1" fill="blue" opacity="1" tooltip="enable"><title>(0.0110065,121)</title></rect><rect x="72" y="190.612" width="6" height="9.38834" stroke="black" stroke-width="1" fill="blue" opacity="1" tooltip="enable"><title>(0.0120071,132)</title></rect><rect x="78" y="188.905" width="6" height="11.0953" stroke="black" stroke-width="1" fill="blue" opacity="1" tooltip="enable"><title>(0.0130077,156)</title></rect><rect x="84" y="190.896" width="6" height="9.10384" stroke="black" stroke-width="1" fill="blue" opacity="1" tooltip="enable"><title>(0.0140083,128)</title></rect><rect x="90" y="190.754" width="6" height="9.24609" stroke="black" stroke-width="1" fill="blue" opacity="1" tooltip="enable"><title>(0.0150089,130)</title></rect><rect x="96" y="191.892" width="6" height="8.10811" stroke="black" stroke-width="1" fill="blue" opacity="1" tooltip="enable"><title>(0.0160095,114)</title></rect><rect x="102" y="192.745" width="6" height="7.25462" stroke="black" stroke-width="1" fill="blue" opacity="1" tooltip="enable"><title>(0.0170101,102)</title></rect><rect x="108" y="193.67" width="6" height="6.33001" stroke="black" stroke-width="1" fill="blue" opacity="1" tooltip="enable"><title>(0.0180107,89)</title></rect><rect x="114" y="191.607" width="6" height="8.3926" stroke="black" stroke-width="1" fill="blue" opacity="1" tooltip="enable"><title>(0.0190112,118)</title></rect><rect x="120" y="195.164" width="6" height="4.83642" stroke="black" stroke-width="1" fill="blue" opacity="1" tooltip="enable"><title>(0.0200118,68)</title></rect><rect x="126" y="193.954" width="6" height="6.04552" stroke="black" stroke-width="1" fill="blue" opacity="1" tooltip="enable"><title>(0.0210124,85)</title></rect><rect x="132" y="193.03" width="6" height="6.97013" stroke="black" stroke-width="1" fill="blue" opacity="1" tooltip="enable"><title>(0.022013,98)</title></rect><rect x="138" y="194.879" width="6" height="5.12091" stroke="black" stroke-width="1" fill="blue" opacity="1" tooltip="enable"><title>(0.0230136,72)</title></rect><rect x="144" y="194.31" width="6" height="5.6899" stroke="black" stroke-width="1" fill="blue" opacity="1" tooltip="enable"><title>(0.0240142,80)</title></rect><rect x="150" y="196.088" width="6" height="3.91181" stroke="black" stroke-width="1" fill="blue" opacity="1" tooltip="enable"><title>(0.0250148,55)</title></rect><rect x="156" y="195.661" width="6" height="4.33855" stroke="black" stroke-width="1" fill="blue" opacity="1" tooltip="enable"><title>(0.0260154,61)</title></rect><rect x="162" y="196.657" width="6" height="3.34282" stroke="black" stroke-width="1" fill="blue" opacity="1" tooltip="enable"><title>(0.027016,47)</title></rect><rect x="168" y="195.946" width="6" height="4.05405" stroke="black" stroke-width="1" fill="blue" opacity="1" tooltip="enable"><title>(0.0280166,57)</title></rect><rect x="174" y="197.155" width="6" height="2.84495" stroke="black" stroke-width="1" fill="blue" opacity="1" tooltip="enable"><title>(0.0290172,40)</title></rect><rect x="180" y="198.72" width="6" height="1.28023" stroke="black" stroke-width="1" fill="blue" opacity="1" tooltip="enable"><title>(0.0300178,18)</title></rect><rect x="186" y="197.724" width="6" height="2.27596" stroke="black" stroke-width="1" fill="blue" opacity="1" tooltip="enable"><title>(0.0310183,32)</title></rect><rect x="192" y="196.871" width="6" height="3.12945" stroke="black" stroke-width="1" fill="blue" opacity="1" tooltip="enable"><title>(0.0320189,44)</title></rect><rect x="198" y="198.578" width="6" height="1.42248" stroke="black" stroke-width="1" fill="blue" opacity="1" tooltip="enable"><title>(0.0330195,20)</title></rect><rect x="204" y="198.222" width="6" height="1.77809" stroke="black" stroke-width="1" fill="blue" opacity="1" tooltip="enable"><title>(0.0340201,25)</title></rect><rect x="210" y="198.649" width="6" height="1.35135" stroke="black" stroke-width="1" fill="blue" opacity="1" tooltip="enable"><title>(0.0350207,19)</title></rect><rect x="216" y="197.368" width="6" height="2.63158" stroke="black" stroke-width="1" fill="blue" opacity="1" tooltip="enable"><title>(0.0360213,37)</title></rect><rect x="222" y="198.506" width="6" height="1.4936" stroke="black" stroke-width="1" fill="blue" opacity="1" tooltip="enable"><title>(0.0370219,21)</title></rect><rect x="228" y="198.151" width="6" height="1.84922" stroke="black" stroke-width="1" fill="blue" opacity="1" tooltip="enable"><title>(0.0380225,26)</title></rect><rect x="234" y="198.435" width="6" height="1.56472" stroke="black" stroke-width="1" fill="blue" opacity="1" tooltip="enable"><title>(0.0390231,22)</title></rect><rect x="240" y="197.724" width="6" height="2.27596" stroke="black" stroke-width="1" fill="blue" opacity="1" tooltip="enable"><title>(0.0400237,32)</title></rect><rect x="246" y="198.009" width="6" height="1.99147" stroke="black" stroke-width="1" fill="blue" opacity="1" tooltip="enable"><title>(0.0410243,28)</title></rect><rect x="252" y="197.724" width="6" height="2.27596" stroke="black" stroke-width="1" fill="blue" opacity="1" tooltip="enable"><title>(0.0420249,32)</title></rect><rect x="258" y="198.862" width="6" height="1.13798" stroke="black" stroke-width="1" fill="blue" opacity="1" tooltip="enable"><title>(0.0430254,16)</title></rect><rect x="264" y="199.502" width="6" height="0.497866" stroke="black" stroke-width="1" fill="blue" opacity="1" tooltip="enable"><title>(0.044026,7)</title></rect><rect x="270" y="197.795" width="6" height="2.20484" stroke="black" stroke-width="1" fill="blue" opacity="1" tooltip="enable"><title>(0.0450266,31)</title></rect><rect x="276" y="199.715" width="6" height="0.284495" stroke="black" stroke-width="1" fill="blue" opacity="1" tooltip="enable"><title>(0.0460272,4)</title></rect><rect x="282" y="199.573" width="6" height="0.426743" stroke="black" stroke-width="1" fill="blue" opacity="1" tooltip="enable"><title>(0.0470278,6)</title></rect><rect x="288" y="199.573" width="6" height="0.426743" stroke="black" stroke-width="1" fill="blue" opacity="1" tooltip="enable"><title>(0.0480284,6)</title></rect><rect x="294" y="199.36" width="6" height="0.640114" stroke="black" stroke-width="1" fill="blue" opacity="1" tooltip="enable"><title>(0.049029,9)</title></rect><rect x="300" y="199.644" width="6" height="0.355619" stroke="black" stroke-width="1" fill="blue" opacity="1" tooltip="enable"><title>(0.0500296,5)</title></rect><rect x="306" y="199.431" width="6" height="0.56899" stroke="black" stroke-width="1" fill="blue" opacity="1" tooltip="enable"><title>(0.0510302,8)</title></rect><rect x="312" y="199.289" width="6" height="0.711238" stroke="black" stroke-width="1" fill="blue" opacity="1" tooltip="enable"><title>(0.0520308,10)</title></rect><rect x="318" y="199.644" width="6" height="0.355619" stroke="black" stroke-width="1" fill="blue" opacity="1" tooltip="enable"><title>(0.0530314,5)</title></rect><rect x="324" y="199.147" width="6" height="0.853485" stroke="black" stroke-width="1" fill="blue" opacity="1" tooltip="enable"><title>(0.054032,12)</title></rect><rect x="330" y="199.644" width="6" height="0.355619" stroke="black" stroke-width="1" fill="blue" opacity="1" tooltip="enable"><title>(0.0550325,5)</title></rect><rect x="336" y="199.787" width="6" height="0.213371" stroke="black" stroke-width="1" fill="blue" opacity="1" tooltip="enable"><title>(0.0560331,3)</title></rect><rect x="342" y="199.075" width="6" height="0.924609" stroke="black" stroke-width="1" fill="blue" opacity="1" tooltip="enable"><title>(0.0570337,13)</title></rect><rect x="348" y="199.147" width="6" height="0.853485" stroke="black" stroke-width="1" fill="blue" opacity="1" tooltip="enable"><title>(0.0580343,12)</title></rect><rect x="354" y="199.858" width="6" height="0.142248" stroke="black" stroke-width="1" fill="blue" opacity="1" tooltip="enable"><title>(0.0590349,2)</title></rect><rect x="360" y="199.858" width="6" height="0.142248" stroke="black" stroke-width="1" fill="blue" opacity="1" tooltip="enable"><title>(0.0600355,2)</title></rect><rect x="366" y="199.715" width="6" height="0.284495" stroke="black" stroke-width="1" fill="blue" opacity="1" tooltip="enable"><title>(0.0610361,4)</title></rect><rect x="372" y="199.858" width="6" height="0.142248" stroke="black" stroke-width="1" fill="blue" opacity="1" tooltip="enable"><title>(0.0620367,2)</title></rect><rect x="378" y="199.644" width="6" height="0.355619" stroke="black" stroke-width="1" fill="blue" opacity="1" tooltip="enable"><title>(0.0630373,5)</title></rect><rect x="384" y="199.787" width="6" height="0.213371" stroke="black" stroke-width="1" fill="blue" opacity="1" tooltip="enable"><title>(0.0640379,3)</title></rect><rect x="390" y="199.787" width="6" height="0.213371" stroke="black" stroke-width="1" fill="blue" opacity="1" tooltip="enable"><title>(0.0650385,3)</title></rect><rect x="396" y="199.573" width="6" height="0.426743" stroke="black" stroke-width="1" fill="blue" opacity="1" tooltip="enable"><title>(0.0660391,6)</title></rect><rect x="402" y="199.715" width="6" height="0.284495" stroke="black" stroke-width="1" fill="blue" opacity="1" tooltip="enable"><title>(0.0670396,4)</title></rect><rect x="408" y="199.644" width="6" height="0.355619" stroke="black" stroke-width="1" fill="blue" opacity="1" tooltip="enable"><title>(0.0680402,5)</title></rect><rect x="414" y="199.858" width="6" height="0.142248" stroke="black" stroke-width="1" fill="blue" opacity="1" tooltip="enable"><title>(0.0690408,2)</title></rect><rect x="420" y="199.787" width="6" height="0.213371" stroke="black" stroke-width="1" fill="blue" opacity="1" tooltip="enable"><title>(0.0700414,3)</title></rect><rect x="426" y="199.929" width="6" height="0.0711238" stroke="black" stroke-width="1" fill="blue" opacity="1" tooltip="enable"><title>(0.071042,1)</title></rect><rect x="432" y="200" width="6" height="0" stroke="black" stroke-width="1" fill="blue" opacity="1" tooltip="enable"><title>(0.0720426,0)</title></rect><rect x="438" y="199.715" width="6" height="0.284495" stroke="black" stroke-width="1" fill="blue" opacity="1" tooltip="enable"><title>(0.0730432,4)</title></rect><rect x="444" y="199.715" width="6" height="0.284495" stroke="black" stroke-width="1" fill="blue" opacity="1" tooltip="enable"><title>(0.0740438,4)</title></rect><rect x="450" y="200" width="6" height="0" stroke="black" stroke-width="1" fill="blue" opacity="1" tooltip="enable"><title>(0.0750444,0)</title></rect><rect x="456" y="199.858" width="6" height="0.142248" stroke="black" stroke-width="1" fill="blue" opacity="1" tooltip="enable"><title>(0.076045,2)</title></rect><rect x="462" y="199.715" width="6" height="0.284495" stroke="black" stroke-width="1" fill="blue" opacity="1" tooltip="enable"><title>(0.0770456,4)</title></rect><rect x="468" y="199.715" width="6" height="0.284495" stroke="black" stroke-width="1" fill="blue" opacity="1" tooltip="enable"><title>(0.0780462,4)</title></rect><rect x="474" y="200" width="6" height="0" stroke="black" stroke-width="1" fill="blue" opacity="1" tooltip="enable"><title>(0.0790467,0)</title></rect><rect x="480" y="199.929" width="6" height="0.0711238" stroke="black" stroke-width="1" fill="blue" opacity="1" tooltip="enable"><title>(0.0800473,1)</title></rect><rect x="486" y="199.787" width="6" height="0.213371" stroke="black" stroke-width="1" fill="blue" opacity="1" tooltip="enable"><title>(0.0810479,3)</title></rect><rect x="492" y="200" width="6" height="0" stroke="black" stroke-width="1" fill="blue" opacity="1" tooltip="enable"><title>(0.0820485,0)</title></rect><rect x="498" y="200" width="6" height="0" stroke="black" stroke-width="1" fill="blue" opacity="1" tooltip="enable"><title>(0.0830491,0)</title></rect><rect x="504" y="200" width="6" height="0" stroke="black" stroke-width="1" fill="blue" opacity="1" tooltip="enable"><title>(0.0840497,0)</title></rect><rect x="510" y="200" width="6" height="0" stroke="black" stroke-width="1" fill="blue" opacity="1" tooltip="enable"><title>(0.0850503,0)</title></rect><rect x="516" y="200" width="6" height="0" stroke="black" stroke-width="1" fill="blue" opacity="1" tooltip="enable"><title>(0.0860509,0)</title></rect><rect x="522" y="200" width="6" height="0" stroke="black" stroke-width="1" fill="blue" opacity="1" tooltip="enable"><title>(0.0870515,0)</title></rect><rect x="528" y="200" width="6" height="0" stroke="black" stroke-width="1" fill="blue" opacity="1" tooltip="enable"><title>(0.0880521,0)</title></rect><rect x="534" y="200" width="6" height="0" stroke="black" stroke-width="1" fill="blue" opacity="1" tooltip="enable"><title>(0.0890527,0)</title></rect><rect x="540" y="200" width="6" height="0" stroke="black" stroke-width="1" fill="blue" opacity="1" tooltip="enable"><title>(0.0900533,0)</title></rect><rect x="546" y="200" width="6" height="0" stroke="black" stroke-width="1" fill="blue" opacity="1" tooltip="enable"><title>(0.0910539,0)</title></rect><rect x="552" y="200" width="6" height="0" stroke="black" stroke-width="1" fill="blue" opacity="1" tooltip="enable"><title>(0.0920544,0)</title></rect><rect x="558" y="200" width="6" height="0" stroke="black" stroke-width="1" fill="blue" opacity="1" tooltip="enable"><title>(0.093055,0)</title></rect><rect x="564" y="200" width="6" height="0" stroke="black" stroke-width="1" fill="blue" opacity="1" tooltip="enable"><title>(0.0940556,0)</title></rect><rect x="570" y="200" width="6" height="0" stroke="black" stroke-width="1" fill="blue" opacity="1" tooltip="enable"><title>(0.0950562,0)</title></rect><rect x="576" y="199.573" width="6" height="0.426743" stroke="black" stroke-width="1" fill="blue" opacity="1" tooltip="enable"><title>(0.0960568,6)</title></rect><rect x="582" y="200" width="6" height="0" stroke="black" stroke-width="1" fill="blue" opacity="1" tooltip="enable"><title>(0.0970574,0)</title></rect><rect x="588" y="200" width="6" height="0" stroke="black" stroke-width="1" fill="blue" opacity="1" tooltip="enable"><title>(0.098058,0)</title></rect><rect x="594" y="199.929" width="6" height="0.0711238" stroke="black" stroke-width="1" fill="blue" opacity="1" tooltip="enable"><title>(0.0990586,1)</title></rect><text x="30" y="240" font-size="20" fill="black">0</text>
<text x="600" y="240" font-size="20" fill="black">0.100059</text>
<polyline points="0,220,600,220" stroke="black" stroke-width="1" fill="none" opacity="1"/>
<text x="720" y="20" font-size="20" fill="black">2812</text>
<text x="720" y="200" font-size="20" fill="black">0</text>
<polyline points="660,0,660,200" stroke="black" stroke-width="1" fill="none" opacity="1"/>
</svg>