<?xml version="1.0" standalone="yes"?>
<!-- SVG graphic -->
<svg xmlns='http://www.w3.org/2000/svg' xmlns:xlink='http://www.w3.org/1999/xlink'
 version="1.1">
<rect x="0" y="0" width="6" height="200" stroke="black" stroke-width="1" fill="blue" opacity="1" tooltip="enable"><title>(0,2475)</title></rect><rect x="6" y="95.2727" width="6" height="104.727" stroke="black" stroke-width="1" fill="blue" opacity="1" tooltip="enable"><title>(0.00446623,1296)</title></rect><rect x="12" y="132.929" width="6" height="67.0707" stroke="black" stroke-width="1" fill="blue" opacity="1" tooltip="enable"><title>(0.00893246,830)</title></rect><rect x="18" y="160.566" width="6" height="39.4343" stroke="black" stroke-width="1" fill="blue" opacity="1" tooltip="enable"><title>(0.0133987,488)</title></rect><rect x="24" y="167.515" width="6" height="32.4848" stroke="black" stroke-width="1" fill="blue" opacity="1" tooltip="enable"><title>(0.0178649,402)</title></rect><rect x="30" y="177.535" width="6" height="22.4646" stroke="black" stroke-width="1" fill="blue" opacity="1" tooltip="enable"><title>(0.0223311,278)</title></rect><rect x="36" y="180.687" width="6" height="19.3131" stroke="black" stroke-width="1" fill="blue" opacity="1" tooltip="enable"><title>(0.0267974,239)</title></rect><rect x="42" y="177.131" width="6" height="22.8687" stroke="black" stroke-width="1" fill="blue" opacity="1" tooltip="enable"><title>(0.0312636,283)</title></rect><rect x="48" y="178.747" width="6" height="21.2525" stroke="black" stroke-width="1" fill="blue" opacity="1" tooltip="enable"><title>(0.0357298,263)</title></rect><rect x="54" y="183.596" width="6" height="16.404" stroke="black" stroke-width="1" fill="blue" opacity="1" tooltip="enable"><title>(0.0401961,203)</title></rect><rect x="60" y="180.525" width="6" height="19.4747" stroke="black" stroke-width="1" fill="blue" opacity="1" tooltip="enable"><title>(0.0446623,241)</title></rect><rect x="66" y="182.707" width="6" height="17.2929" stroke="black" stroke-width="1" fill="blue" opacity="1" tooltip="enable"><title>(0.0491285,214)</title></rect><rect x="72" y="188.283" width="6" height="11.7172" stroke="black" stroke-width="1" fill="blue" opacity="1" tooltip="enable"><title>(0.0535947,145)</title></rect><rect x="78" y="190.465" width="6" height="9.53535" stroke="black" stroke-width="1" fill="blue" opacity="1" tooltip="enable"><title>(0.058061,118)</title></rect><rect x="84" y="193.778" width="6" height="6.22222" stroke="black" stroke-width="1" fill="blue" opacity="1" tooltip="enable"><title>(0.0625272,77)</title></rect><rect x="90" y="193.293" width="6" height="6.70707" stroke="black" stroke-width="1" fill="blue" opacity="1" tooltip="enable"><title>(0.0669934,83)</title></rect><rect x="96" y="194.747" width="6" height="5.25253" stroke="black" stroke-width="1" fill="blue" opacity="1" tooltip="enable"><title>(0.0714596,65)</title></rect><rect x="102" y="193.616" width="6" height="6.38384" stroke="black" stroke-width="1" fill="blue" opacity="1" tooltip="enable"><title>(0.0759259,79)</title></rect><rect x="108" y="195.879" width="6" height="4.12121" stroke="black" stroke-width="1" fill="blue" opacity="1" tooltip="enable"><title>(0.0803921,51)</title></rect><rect x="114" y="196.929" width="6" height="3.07071" stroke="black" stroke-width="1" fill="blue" opacity="1" tooltip="enable"><title>(0.0848583,38)</title></rect><rect x="120" y="197.091" width="6" height="2.90909" stroke="black" stroke-width="1" fill="blue" opacity="1" tooltip="enable"><title>(0.0893246,36)</title></rect><rect x="126" y="196.202" width="6" height="3.79798" stroke="black" stroke-width="1" fill="blue" opacity="1" tooltip="enable"><title>(0.0937908,47)</title></rect><rect x="132" y="197.737" width="6" height="2.26263" stroke="black" stroke-width="1" fill="blue" opacity="1" tooltip="enable"><title>(0.098257,28)</title></rect><rect x="138" y="199.434" width="6" height="0.565657" stroke="black" stroke-width="1" fill="blue" opacity="1" tooltip="enable"><title>(0.102723,7)</title></rect><rect x="144" y="199.838" width="6" height="0.161616" stroke="black" stroke-width="1" fill="blue" opacity="1" tooltip="enable"><title>(0.107189,2)</title></rect><rect x="150" y="199.515" width="6" height="0.484848" stroke="black" stroke-width="1" fill="blue" opacity="1" tooltip="enable"><title>(0.111656,6)</title></rect><rect x="156" y="200" width="6" height="0" stroke="black" stroke-width="1" fill="blue" opacity="1" tooltip="enable"><title>(0.116122,0)</title></rect><rect x="162" y="199.838" width="6" height="0.161616" stroke="black" stroke-width="1" fill="blue" opacity="1" tooltip="enable"><title>(0.120588,2)</title></rect><rect x="168" y="200" width="6" height="0" stroke="black" stroke-width="1" fill="blue" opacity="1" tooltip="enable"><title>(0.125054,0)</title></rect><rect x="174" y="200" width="6" height="0" stroke="black" stroke-width="1" fill="blue" opacity="1" tooltip="enable"><title>(0.129521,0)</title></rect><rect x="180" y="200" width="6" height="0" stroke="black" stroke-width="1" fill="blue" opacity="1" tooltip="enable"><title>(0.133987,0)</title></rect><rect x="186" y="200" width="6" height="0" stroke="black" stroke-width="1" fill="blue" opacity="1" tooltip="enable"><title>(0.138453,0)</title></rect><rect x="192" y="200" width="6" height="0" stroke="black" stroke-width="1" fill="blue" opacity="1" tooltip="enable"><title>(0.142919,0)</title></rect><rect x="198" y="200" width="6" height="0" stroke="black" stroke-width="1" fill="blue" opacity="1" tooltip="enable"><title>(0.147386,0)</title></rect><rect x="204" y="200" width="6" height="0" stroke="black" stroke-width="1" fill="blue" opacity="1" tooltip="enable"><title>(0.151852,0)</title></rect><rect x="210" y="200" width="6" height="0" stroke="black" stroke-width="1" fill="blue" opacity="1" tooltip="enable"><title>(0.156318,0)</title></rect><rect x="216" y="200" width="6" height="0" stroke="black" stroke-width="1" fill="blue" opacity="1" tooltip="enable"><title>(0.160784,0)</title></rect><rect x="222" y="200" width="6" height="0" stroke="black" stroke-width="1" fill="blue" opacity="1" tooltip="enable"><title>(0.16525,0)</title></rect><rect x="228" y="200" width="6" height="0" stroke="black" stroke-width="1" fill="blue" opacity="1" tooltip="enable"><title>(0.169717,0)</title></rect><rect x="234" y="200" width="6" height="0" stroke="black" stroke-width="1" fill="blue" opacity="1" tooltip="enable"><title>(0.174183,0)</title></rect><rect x="240" y="200" width="6" height="0" stroke="black" stroke-width="1" fill="blue" opacity="1" tooltip="enable"><title>(0.178649,0)</title></rect><rect x="246" y="200" width="6" height="0" stroke="black" stroke-width="1" fill="blue" opacity="1" tooltip="enable"><title>(0.183115,0)</title></rect><rect x="252" y="200" width="6" height="0" stroke="black" stroke-width="1" fill="blue" opacity="1" tooltip="enable"><title>(0.187582,0)</title></rect><rect x="258" y="200" width="6" height="0" stroke="black" stroke-width="1" fill="blue" opacity="1" tooltip="enable"><title>(0.192048,0)</title></rect><rect x="264" y="200" width="6" height="0" stroke="black" stroke-width="1" fill="blue" opacity="1" tooltip="enable"><title>(0.196514,0)</title></rect><rect x="270" y="200" width="6" height="0" stroke="black" stroke-width="1" fill="blue" opacity="1" tooltip="enable"><title>(0.20098,0)</title></rect><rect x="276" y="200" width="6" height="0" stroke="black" stroke-width="1" fill="blue" opacity="1" tooltip="enable"><title>(0.205446,0)</title></rect><rect x="282" y="200" width="6" height="0" stroke="black" stroke-width="1" fill="blue" opacity="1" tooltip="enable"><title>(0.209913,0)</title></rect><rect x="288" y="200" width="6" height="0" stroke="black" stroke-width="1" fill="blue" opacity="1" tooltip="enable"><title>(0.214379,0)</title></rect><rect x="294" y="200" width="6" height="0" stroke="black" stroke-width="1" fill="blue" opacity="1" tooltip="enable"><title>(0.218845,0)</title></rect><rect x="300" y="200" width="6" height="0" stroke="black" stroke-width="1" fill="blue" opacity="1" tooltip="enable"><title>(0.223311,0)</title></rect><rect x="306" y="200" width="6" height="0" stroke="black" stroke-width="1" fill="blue" opacity="1" tooltip="enable"><title>(0.227778,0)</title></rect><rect x="312" y="200" width="6" height="0" stroke="black" stroke-width="1" fill="blue" opacity="1" tooltip="enable"><title>(0.232244,0)</title></rect><rect x="318" y="200" width="6" height="0" stroke="black" stroke-width="1" fill="blue" opacity="1" tooltip="enable"><title>(0.23671,0)</title></rect><rect x="324" y="200" width="6" height="0" stroke="black" stroke-width="1" fill="blue" opacity="1" tooltip="enable"><title>(0.241176,0)</title></rect><rect x="330" y="200" width="6" height="0" stroke="black" stroke-width="1" fill="blue" opacity="1" tooltip="enable"><title>(0.245643,0)</title></rect><rect x="336" y="200" width="6" height="0" stroke="black" stroke-width="1" fill="blue" opacity="1" tooltip="enable"><title>(0.250109,0)</title></rect><rect x="342" y="200" width="6" height="0" stroke="black" stroke-width="1" fill="blue" opacity="1" tooltip="enable"><title>(0.254575,0)</title></rect><rect x="348" y="200" width="6" height="0" stroke="black" stroke-width="1" fill="blue" opacity="1" tooltip="enable"><title>(0.259041,0)</title></rect><rect x="354" y="200" width="6" height="0" stroke="black" stroke-width="1" fill="blue" opacity="1" tooltip="enable"><title>(0.263507,0)</title></rect><rect x="360" y="200" width="6" height="0" stroke="black" stroke-width="1" fill="blue" opacity="1" tooltip="enable"><title>(0.267974,0)</title></rect><rect x="366" y="200" width="6" height="0" stroke="black" stroke-width="1" fill="blue" opacity="1" tooltip="enable"><title>(0.27244,0)</title></rect><rect x="372" y="200" width="6" height="0" stroke="black" stroke-width="1" fill="blue" opacity="1" tooltip="enable"><title>(0.276906,0)</title></rect><rect x="378" y="200" width="6" height="0" stroke="black" stroke-width="1" fill="blue" opacity="1" tooltip="enable"><title>(0.281372,0)</title></rect><rect x="384" y="200" width="6" height="0" stroke="black" stroke-width="1" fill="blue" opacity="1" tooltip="enable"><title>(0.285839,0)</title></rect><rect x="390" y="200" width="6" height="0" stroke="black" stroke-width="1" fill="blue" opacity="1" tooltip="enable"><title>(0.290305,0)</title></rect><rect x="396" y="200" width="6" height="0" stroke="black" stroke-width="1" fill="blue" opacity="1" tooltip="enable"><title>(0.294771,0)</title></rect><rect x="402" y="200" width="6" height="0" stroke="black" stroke-width="1" fill="blue" opacity="1" tooltip="enable"><title>(0.299237,0)</title></rect><rect x="408" y="200" width="6" height="0" stroke="black" stroke-width="1" fill="blue" opacity="1" tooltip="enable"><title>(0.303703,0)</title></rect><rect x="414" y="200" width="6" height="0" stroke="black" stroke-width="1" fill="blue" opacity="1" tooltip="enable"><title>(0.30817,0)</title></rect><rect x="420" y="200" width="6" height="0" stroke="black" stroke-width="1" fill="blue" opacity="1" tooltip="enable"><title>(0.312636,0)</title></rect><rect x="426" y="200" width="6" height="0" stroke="black" stroke-width="1" fill="blue" opacity="1" tooltip="enable"><title>(0.317102,0)</title></rect><rect x="432" y="200" width="6" height="0" stroke="black" stroke-width="1" fill="blue" opacity="1" tooltip="enable"><title>(0.321568,0)</title></rect><rect x="438" y="200" width="6" height="0" stroke="black" stroke-width="1" fill="blue" opacity="1" tooltip="enable"><title>(0.326035,0)</title></rect><rect x="444" y="200" width="6" height="0" stroke="black" stroke-width="1" fill="blue" opacity="1" tooltip="enable"><title>(0.330501,0)</title></rect><rect x="450" y="200" width="6" height="0" stroke="black" stroke-width="1" fill="blue" opacity="1" tooltip="enable"><title>(0.334967,0)</title></rect><rect x="456" y="200" width="6" height="0" stroke="black" stroke-width="1" fill="blue" opacity="1" tooltip="enable"><title>(0.339433,0)</title></rect><rect x="462" y="200" width="6" height="0" stroke="black" stroke-width="1" fill="blue" opacity="1" tooltip="enable"><title>(0.3439,0)</title></rect><rect x="468" y="200" width="6" height="0" stroke="black" stroke-width="1" fill="blue" opacity="1" tooltip="enable"><title>(0.348366,0)</title></rect><rect x="474" y="200" width="6" height="0" stroke="black" stroke-width="1" fill="blue" opacity="1" tooltip="enable"><title>(0.352832,0)</title></rect><rect x="480" y="200" width="6" height="0" stroke="black" stroke-width="1" fill="blue" opacity="1" tooltip="enable"><title>(0.357298,0)</title></rect><rect x="486" y="200" width="6" height="0" stroke="black" stroke-width="1" fill="blue" opacity="1" tooltip="enable"><title>(0.361764,0)</title></rect><rect x="492" y="200" width="6" height="0" stroke="black" stroke-width="1" fill="blue" opacity="1" tooltip="enable"><title>(0.366231,0)</title></rect><rect x="498" y="200" width="6" height="0" stroke="black" stroke-width="1" fill="blue" opacity="1" tooltip="enable"><title>(0.370697,0)</title></rect><rect x="504" y="200" width="6" height="0" stroke="black" stroke-width="1" fill="blue" opacity="1" tooltip="enable"><title>(0.375163,0)</title></rect><rect x="510" y="200" width="6" height="0" stroke="black" stroke-width="1" fill="blue" opacity="1" tooltip="enable"><title>(0.379629,0)</title></rect><rect x="516" y="200" width="6" height="0" stroke="black" stroke-width="1" fill="blue" opacity="1" tooltip="enable"><title>(0.384096,0)</title></rect><rect x="522" y="199.838" width="6" height="0.161616" stroke="black" stroke-width="1" fill="blue" opacity="1" tooltip="enable"><title>(0.388562,2)</title></rect><rect x="528" y="200" width="6" height="0" stroke="black" stroke-width="1" fill="blue" opacity="1" tooltip="enable"><title>(0.393028,0)</title></rect><rect x="534" y="200" width="6" height="0" stroke="black" stroke-width="1" fill="blue" opacity="1" tooltip="enable"><title>(0.397494,0)</title></rect><rect x="540" y="200" width="6" height="0" stroke="black" stroke-width="1" fill="blue" opacity="1" tooltip="enable"><title>(0.40196,0)</title></rect><rect x="546" y="200" width="6" height="0" stroke="black" stroke-width="1" fill="blue" opacity="1" tooltip="enable"><title>(0.406427,0)</title></rect><rect x="552" y="200" width="6" height="0" stroke="black" stroke-width="1" fill="blue" opacity="1" tooltip="enable"><title>(0.410893,0)</title></rect><rect x="558" y="200" width="6" height="0" stroke="black" stroke-width="1" fill="blue" opacity="1" tooltip="enable"><title>(0.415359,0)</title></rect><rect x="564" y="200" width="6" height="0" stroke="black" stroke-width="1" fill="blue" opacity="1" tooltip="enable"><title>(0.419825,0)</title></rect><rect x="570" y="200" width="6" height="0" stroke="black" stroke-width="1" fill="blue" opacity="1" tooltip="enable"><title>(0.424292,0)</title></rect><rect x="576" y="200" width="6" height="0" stroke="black" stroke-width="1" fill="blue" opacity="1" tooltip="enable"><title>(0.428758,0)</title></rect><rect x="582" y="200" width="6" height="0" stroke="black" stroke-width="1" fill="blue" opacity="1" tooltip="enable"><title>(0.433224,0)</title></rect><rect x="588" y="200" width="6" height="0" stroke="black" stroke-width="1" fill="blue" opacity="1" tooltip="enable"><title>(0.43769,0)</title></rect><rect x="594" y="199.919" width="6" height="0.0808081" stroke="black" stroke-width="1" fill="blue" opacity="1" tooltip="enable"><title>(0.442157,1)</title></rect><text x="30" y="240" font-size="20" fill="black">0</text>
<text x="600" y="240" font-size="20" fill="black">0.446623</text>
<polyline points="0,220,600,220" stroke="black" stroke-width="1" fill="none" opacity="1"/>
<text x="720" y="20" font-size="20" fill="black">2475</text>
<text x="720" y="200" font-size="20" fill="black">0</text>
<polyline points="660,0,660,200" stroke="black" stroke-width="1" fill="none" opacity="1"/>
</svg>