<?xml version="1.0" standalone="yes"?>
<!-- SVG graphic -->
<svg xmlns='http://www.w3.org/2000/svg' xmlns:xlink='http://www.w3.org/1999/xlink'
 version="1.1">
<rect x="0" y="0" width="6" height="200" stroke="black" stroke-width="1" fill="blue" opacity="1" tooltip="enable"><title>(0,1133)</title></rect><rect x="6" y="73.2568" width="6" height="126.743" stroke="black" stroke-width="1" fill="blue" opacity="1" tooltip="enable"><title>(0.00158417,718)</title></rect><rect x="12" y="121.977" width="6" height="78.0229" stroke="black" stroke-width="1" fill="blue" opacity="1" tooltip="enable"><title>(0.00316834,442)</title></rect><rect x="18" y="133.098" width="6" height="66.902" stroke="black" stroke-width="1" fill="blue" opacity="1" tooltip="enable"><title>(0.0047525,379)</title></rect><rect x="24" y="132.215" width="6" height="67.7846" stroke="black" stroke-width="1" fill="blue" opacity="1" tooltip="enable"><title>(0.00633667,384)</title></rect><rect x="30" y="151.809" width="6" height="48.1906" stroke="black" stroke-width="1" fill="blue" opacity="1" tooltip="enable"><title>(0.00792084,273)</title></rect><rect x="36" y="145.102" width="6" height="54.8985" stroke="black" stroke-width="1" fill="blue" opacity="1" tooltip="enable"><title>(0.00950501,311)</title></rect><rect x="42" y="151.633" width="6" height="48.3672" stroke="black" stroke-width="1" fill="blue" opacity="1" tooltip="enable"><title>(0.0110892,274)</title></rect><rect x="48" y="151.986" width="6" height="48.0141" stroke="black" stroke-width="1" fill="blue" opacity="1" tooltip="enable"><title>(0.0126733,272)</title></rect><rect x="54" y="158.517" width="6" height="41.4828" stroke="black" stroke-width="1" fill="blue" opacity="1" tooltip="enable"><title>(0.0142575,235)</title></rect><rect x="60" y="171.756" width="6" height="28.2436" stroke="black" stroke-width="1" fill="blue" opacity="1" tooltip="enable"><title>(0.0158417,160)</title></rect><rect x="66" y="177.582" width="6" height="22.4184" stroke="black" stroke-width="1" fill="blue" opacity="1" tooltip="enable"><title>(0.0174258,127)</title></rect><rect x="72" y="177.935" width="6" height="22.0653" stroke="black" stroke-width="1" fill="blue" opacity="1" tooltip="enable"><title>(0.01901,125)</title></rect><rect x="78" y="178.994" width="6" height="21.0062" stroke="black" stroke-width="1" fill="blue" opacity="1" tooltip="enable"><title>(0.0205942,119)</title></rect><rect x="84" y="180.583" width="6" height="19.4175" stroke="black" stroke-width="1" fill="blue" opacity="1" tooltip="enable"><title>(0.0221784,110)</title></rect><rect x="90" y="183.76" width="6" height="16.2401" stroke="black" stroke-width="1" fill="blue" opacity="1" tooltip="enable"><title>(0.0237625,92)</title></rect><rect x="96" y="181.818" width="6" height="18.1818" stroke="black" stroke-width="1" fill="blue" opacity="1" tooltip="enable"><title>(0.0253467,103)</title></rect><rect x="102" y="183.407" width="6" height="16.5931" stroke="black" stroke-width="1" fill="blue" opacity="1" tooltip="enable"><title>(0.0269309,94)</title></rect><rect x="108" y="176.699" width="6" height="23.301" stroke="black" stroke-width="1" fill="blue" opacity="1" tooltip="enable"><title>(0.028515,132)</title></rect><rect x="114" y="179.17" width="6" height="20.8297" stroke="black" stroke-width="1" fill="blue" opacity="1" tooltip="enable"><title>(0.0300992,118)</title></rect><rect x="120" y="174.404" width="6" height="25.5958" stroke="black" stroke-width="1" fill="blue" opacity="1" tooltip="enable"><title>(0.0316834,145)</title></rect><rect x="126" y="184.466" width="6" height="15.534" stroke="black" stroke-width="1" fill="blue" opacity="1" tooltip="enable"><title>(0.0332675,88)</title></rect><rect x="132" y="175.11" width="6" height="24.8897" stroke="black" stroke-width="1" fill="blue" opacity="1" tooltip="enable"><title>(0.0348517,141)</title></rect><rect x="138" y="174.757" width="6" height="25.2427" stroke="black" stroke-width="1" fill="blue" opacity="1" tooltip="enable"><title>(0.0364359,143)</title></rect><rect x="144" y="170.697" width="6" height="29.3027" stroke="black" stroke-width="1" fill="blue" opacity="1" tooltip="enable"><title>(0.03802,166)</title></rect><rect x="150" y="174.228" width="6" height="25.7723" stroke="black" stroke-width="1" fill="blue" opacity="1" tooltip="enable"><title>(0.0396042,146)</title></rect><rect x="156" y="186.408" width="6" height="13.5922" stroke="black" stroke-width="1" fill="blue" opacity="1" tooltip="enable"><title>(0.0411884,77)</title></rect><rect x="162" y="186.761" width="6" height="13.2392" stroke="black" stroke-width="1" fill="blue" opacity="1" tooltip="enable"><title>(0.0427725,75)</title></rect><rect x="168" y="182.348" width="6" height="17.6523" stroke="black" stroke-width="1" fill="blue" opacity="1" tooltip="enable"><title>(0.0443567,100)</title></rect><rect x="174" y="184.819" width="6" height="15.1809" stroke="black" stroke-width="1" fill="blue" opacity="1" tooltip="enable"><title>(0.0459409,86)</title></rect><rect x="180" y="186.231" width="6" height="13.7688" stroke="black" stroke-width="1" fill="blue" opacity="1" tooltip="enable"><title>(0.047525,78)</title></rect><rect x="186" y="187.114" width="6" height="12.8861" stroke="black" stroke-width="1" fill="blue" opacity="1" tooltip="enable"><title>(0.0491092,73)</title></rect><rect x="192" y="185.172" width="6" height="14.8279" stroke="black" stroke-width="1" fill="blue" opacity="1" tooltip="enable"><title>(0.0506934,84)</title></rect><rect x="198" y="188.526" width="6" height="11.474" stroke="black" stroke-width="1" fill="blue" opacity="1" tooltip="enable"><title>(0.0522775,65)</title></rect><rect x="204" y="187.643" width="6" height="12.3566" stroke="black" stroke-width="1" fill="blue" opacity="1" tooltip="enable"><title>(0.0538617,70)</title></rect><rect x="210" y="191.88" width="6" height="8.12004" stroke="black" stroke-width="1" fill="blue" opacity="1" tooltip="enable"><title>(0.0554459,46)</title></rect><rect x="216" y="191.174" width="6" height="8.82613" stroke="black" stroke-width="1" fill="blue" opacity="1" tooltip="enable"><title>(0.05703,50)</title></rect><rect x="222" y="188.35" width="6" height="11.6505" stroke="black" stroke-width="1" fill="blue" opacity="1" tooltip="enable"><title>(0.0586142,66)</title></rect><rect x="228" y="192.939" width="6" height="7.0609" stroke="black" stroke-width="1" fill="blue" opacity="1" tooltip="enable"><title>(0.0601984,40)</title></rect><rect x="234" y="191.527" width="6" height="8.47308" stroke="black" stroke-width="1" fill="blue" opacity="1" tooltip="enable"><title>(0.0617825,48)</title></rect><rect x="240" y="192.41" width="6" height="7.59047" stroke="black" stroke-width="1" fill="blue" opacity="1" tooltip="enable"><title>(0.0633667,43)</title></rect><rect x="246" y="195.94" width="6" height="4.06002" stroke="black" stroke-width="1" fill="blue" opacity="1" tooltip="enable"><title>(0.0649509,23)</title></rect><rect x="252" y="195.94" width="6" height="4.06002" stroke="black" stroke-width="1" fill="blue" opacity="1" tooltip="enable"><title>(0.066535,23)</title></rect><rect x="258" y="195.234" width="6" height="4.76611" stroke="black" stroke-width="1" fill="blue" opacity="1" tooltip="enable"><title>(0.0681192,27)</title></rect><rect x="264" y="197.882" width="6" height="2.11827" stroke="black" stroke-width="1" fill="blue" opacity="1" tooltip="enable"><title>(0.0697034,12)</title></rect><rect x="270" y="197.352" width="6" height="2.64784" stroke="black" stroke-width="1" fill="blue" opacity="1" tooltip="enable"><title>(0.0712876,15)</title></rect><rect x="276" y="196.646" width="6" height="3.35393" stroke="black" stroke-width="1" fill="blue" opacity="1" tooltip="enable"><title>(0.0728717,19)</title></rect><rect x="282" y="195.94" width="6" height="4.06002" stroke="black" stroke-width="1" fill="blue" opacity="1" tooltip="enable"><title>(0.0744559,23)</title></rect><rect x="288" y="197.352" width="6" height="2.64784" stroke="black" stroke-width="1" fill="blue" opacity="1" tooltip="enable"><title>(0.0760401,15)</title></rect><rect x="294" y="195.057" width="6" height="4.94263" stroke="black" stroke-width="1" fill="blue" opacity="1" tooltip="enable"><title>(0.0776242,28)</title></rect><rect x="300" y="196.823" width="6" height="3.17741" stroke="black" stroke-width="1" fill="blue" opacity="1" tooltip="enable"><title>(0.0792084,18)</title></rect><rect x="306" y="196.823" width="6" height="3.17741" stroke="black" stroke-width="1" fill="blue" opacity="1" tooltip="enable"><title>(0.0807926,18)</title></rect><rect x="312" y="195.234" width="6" height="4.76611" stroke="black" stroke-width="1" fill="blue" opacity="1" tooltip="enable"><title>(0.0823767,27)</title></rect><rect x="318" y="195.234" width="6" height="4.76611" stroke="black" stroke-width="1" fill="blue" opacity="1" tooltip="enable"><title>(0.0839609,27)</title></rect><rect x="324" y="196.823" width="6" height="3.17741" stroke="black" stroke-width="1" fill="blue" opacity="1" tooltip="enable"><title>(0.0855451,18)</title></rect><rect x="330" y="197.705" width="6" height="2.29479" stroke="black" stroke-width="1" fill="blue" opacity="1" tooltip="enable"><title>(0.0871292,13)</title></rect><rect x="336" y="198.764" width="6" height="1.23566" stroke="black" stroke-width="1" fill="blue" opacity="1" tooltip="enable"><title>(0.0887134,7)</title></rect><rect x="342" y="197.176" width="6" height="2.82436" stroke="black" stroke-width="1" fill="blue" opacity="1" tooltip="enable"><title>(0.0902976,16)</title></rect><rect x="348" y="196.823" width="6" height="3.17741" stroke="black" stroke-width="1" fill="blue" opacity="1" tooltip="enable"><title>(0.0918817,18)</title></rect><rect x="354" y="198.235" width="6" height="1.76523" stroke="black" stroke-width="1" fill="blue" opacity="1" tooltip="enable"><title>(0.0934659,10)</title></rect><rect x="360" y="197.529" width="6" height="2.47132" stroke="black" stroke-width="1" fill="blue" opacity="1" tooltip="enable"><title>(0.0950501,14)</title></rect><rect x="366" y="198.058" width="6" height="1.94175" stroke="black" stroke-width="1" fill="blue" opacity="1" tooltip="enable"><title>(0.0966342,11)</title></rect><rect x="372" y="198.411" width="6" height="1.5887" stroke="black" stroke-width="1" fill="blue" opacity="1" tooltip="enable"><title>(0.0982184,9)</title></rect><rect x="378" y="197.882" width="6" height="2.11827" stroke="black" stroke-width="1" fill="blue" opacity="1" tooltip="enable"><title>(0.0998026,12)</title></rect><rect x="384" y="199.117" width="6" height="0.882613" stroke="black" stroke-width="1" fill="blue" opacity="1" tooltip="enable"><title>(0.101387,5)</title></rect><rect x="390" y="199.117" width="6" height="0.882613" stroke="black" stroke-width="1" fill="blue" opacity="1" tooltip="enable"><title>(0.102971,5)</title></rect><rect x="396" y="197.529" width="6" height="2.47132" stroke="black" stroke-width="1" fill="blue" opacity="1" tooltip="enable"><title>(0.104555,14)</title></rect><rect x="402" y="198.235" width="6" height="1.76523" stroke="black" stroke-width="1" fill="blue" opacity="1" tooltip="enable"><title>(0.106139,10)</title></rect><rect x="408" y="197.882" width="6" height="2.11827" stroke="black" stroke-width="1" fill="blue" opacity="1" tooltip="enable"><title>(0.107723,12)</title></rect><rect x="414" y="198.235" width="6" height="1.76523" stroke="black" stroke-width="1" fill="blue" opacity="1" tooltip="enable"><title>(0.109308,10)</title></rect><rect x="420" y="199.47" width="6" height="0.529568" stroke="black" stroke-width="1" fill="blue" opacity="1" tooltip="enable"><title>(0.110892,3)</title></rect><rect x="426" y="196.293" width="6" height="3.70697" stroke="black" stroke-width="1" fill="blue" opacity="1" tooltip="enable"><title>(0.112476,21)</title></rect><rect x="432" y="197.352" width="6" height="2.64784" stroke="black" stroke-width="1" fill="blue" opacity="1" tooltip="enable"><title>(0.11406,15)</title></rect><rect x="438" y="197.352" width="6" height="2.64784" stroke="black" stroke-width="1" fill="blue" opacity="1" tooltip="enable"><title>(0.115644,15)</title></rect><rect x="444" y="197.882" width="6" height="2.11827" stroke="black" stroke-width="1" fill="blue" opacity="1" tooltip="enable"><title>(0.117228,12)</title></rect><rect x="450" y="198.764" width="6" height="1.23566" stroke="black" stroke-width="1" fill="blue" opacity="1" tooltip="enable"><title>(0.118813,7)</title></rect><rect x="456" y="199.117" width="6" height="0.882613" stroke="black" stroke-width="1" fill="blue" opacity="1" tooltip="enable"><title>(0.120397,5)</title></rect><rect x="462" y="199.294" width="6" height="0.70609" stroke="black" stroke-width="1" fill="blue" opacity="1" tooltip="enable"><title>(0.121981,4)</title></rect><rect x="468" y="199.294" width="6" height="0.70609" stroke="black" stroke-width="1" fill="blue" opacity="1" tooltip="enable"><title>(0.123565,4)</title></rect><rect x="474" y="199.47" width="6" height="0.529568" stroke="black" stroke-width="1" fill="blue" opacity="1" tooltip="enable"><title>(0.125149,3)</title></rect><rect x="480" y="199.823" width="6" height="0.176523" stroke="black" stroke-width="1" fill="blue" opacity="1" tooltip="enable"><title>(0.126733,1)</title></rect><rect x="486" y="199.294" width="6" height="0.70609" stroke="black" stroke-width="1" fill="blue" opacity="1" tooltip="enable"><title>(0.128318,4)</title></rect><rect x="492" y="199.647" width="6" height="0.353045" stroke="black" stroke-width="1" fill="blue" opacity="1" tooltip="enable"><title>(0.129902,2)</title></rect><rect x="498" y="199.647" width="6" height="0.353045" stroke="black" stroke-width="1" fill="blue" opacity="1" tooltip="enable"><title>(0.131486,2)</title></rect><rect x="504" y="200" width="6" height="0" stroke="black" stroke-width="1" fill="blue" opacity="1" tooltip="enable"><title>(0.13307,0)</title></rect><rect x="510" y="200" width="6" height="0" stroke="black" stroke-width="1" fill="blue" opacity="1" tooltip="enable"><title>(0.134654,0)</title></rect><rect x="516" y="199.647" width="6" height="0.353045" stroke="black" stroke-width="1" fill="blue" opacity="1" tooltip="enable"><title>(0.136238,2)</title></rect><rect x="522" y="199.647" width="6" height="0.353045" stroke="black" stroke-width="1" fill="blue" opacity="1" tooltip="enable"><title>(0.137823,2)</title></rect><rect x="528" y="199.294" width="6" height="0.70609" stroke="black" stroke-width="1" fill="blue" opacity="1" tooltip="enable"><title>(0.139407,4)</title></rect><rect x="534" y="200" width="6" height="0" stroke="black" stroke-width="1" fill="blue" opacity="1" tooltip="enable"><title>(0.140991,0)</title></rect><rect x="540" y="199.647" width="6" height="0.353045" stroke="black" stroke-width="1" fill="blue" opacity="1" tooltip="enable"><title>(0.142575,2)</title></rect><rect x="546" y="200" width="6" height="0" stroke="black" stroke-width="1" fill="blue" opacity="1" tooltip="enable"><title>(0.144159,0)</title></rect><rect x="552" y="200" width="6" height="0" stroke="black" stroke-width="1" fill="blue" opacity="1" tooltip="enable"><title>(0.145743,0)</title></rect><rect x="558" y="200" width="6" height="0" stroke="black" stroke-width="1" fill="blue" opacity="1" tooltip="enable"><title>(0.147328,0)</title></rect><rect x="564" y="200" width="6" height="0" stroke="black" stroke-width="1" fill="blue" opacity="1" tooltip="enable"><title>(0.148912,0)</title></rect><rect x="570" y="200" width="6" height="0" stroke="black" stroke-width="1" fill="blue" opacity="1" tooltip="enable"><title>(0.150496,0)</title></rect><rect x="576" y="200" width="6" height="0" stroke="black" stroke-width="1" fill="blue" opacity="1" tooltip="enable"><title>(0.15208,0)</title></rect><rect x="582" y="199.823" width="6" height="0.176523" stroke="black" stroke-width="1" fill="blue" opacity="1" tooltip="enable"><title>(0.153664,1)</title></rect><rect x="588" y="200" width="6" height="0" stroke="black" stroke-width="1" fill="blue" opacity="1" tooltip="enable"><title>(0.155248,0)</title></rect><rect x="594" y="200" width="6" height="0" stroke="black" stroke-width="1" fill="blue" opacity="1" tooltip="enable"><title>(0.156833,0)</title></rect><text x="30" y="240" font-size="20" fill="black">0</text>
<text x="600" y="240" font-size="20" fill="black">0.158417</text>
<polyline points="0,220,600,220" stroke="black" stroke-width="1" fill="none" opacity="1"/>
<text x="720" y="20" font-size="20" fill="black">1133</text>
<text x="720" y="200" font-size="20" fill="black">0</text>
<polyline points="660,0,660,200" stroke="black" stroke-width="1" fill="none" opacity="1"/>
</svg>