<?xml version="1.0" standalone="yes"?>
<!-- SVG graphic -->
<svg xmlns='http://www.w3.org/2000/svg' xmlns:xlink='http://www.w3.org/1999/xlink'
 version="1.1">
<rect x="0" y="0" width="6" height="200" stroke="black" stroke-width="1" fill="blue" opacity="1" tooltip="enable"><title>(0,1974)</title></rect><rect x="6" y="61.4995" width="6" height="138.501" stroke="black" stroke-width="1" fill="blue" opacity="1" tooltip="enable"><title>(0.00138803,1367)</title></rect><rect x="12" y="133.739" width="6" height="66.2614" stroke="black" stroke-width="1" fill="blue" opacity="1" tooltip="enable"><title>(0.00277606,654)</title></rect><rect x="18" y="158.359" width="6" height="41.6413" stroke="black" stroke-width="1" fill="blue" opacity="1" tooltip="enable"><title>(0.00416409,411)</title></rect><rect x="24" y="176.089" width="6" height="23.9108" stroke="black" stroke-width="1" fill="blue" opacity="1" tooltip="enable"><title>(0.00555211,236)</title></rect><rect x="30" y="184.802" width="6" height="15.1976" stroke="black" stroke-width="1" fill="blue" opacity="1" tooltip="enable"><title>(0.00694014,150)</title></rect><rect x="36" y="188.652" width="6" height="11.3475" stroke="black" stroke-width="1" fill="blue" opacity="1" tooltip="enable"><title>(0.00832817,112)</title></rect><rect x="42" y="183.992" width="6" height="16.0081" stroke="black" stroke-width="1" fill="blue" opacity="1" tooltip="enable"><title>(0.0097162,158)</title></rect><rect x="48" y="187.031" width="6" height="12.9686" stroke="black" stroke-width="1" fill="blue" opacity="1" tooltip="enable"><title>(0.0111042,128)</title></rect><rect x="54" y="186.424" width="6" height="13.5765" stroke="black" stroke-width="1" fill="blue" opacity="1" tooltip="enable"><title>(0.0124923,134)</title></rect><rect x="60" y="187.437" width="6" height="12.5633" stroke="black" stroke-width="1" fill="blue" opacity="1" tooltip="enable"><title>(0.0138803,124)</title></rect><rect x="66" y="184.296" width="6" height="15.7042" stroke="black" stroke-width="1" fill="blue" opacity="1" tooltip="enable"><title>(0.0152683,155)</title></rect><rect x="72" y="183.891" width="6" height="16.1094" stroke="black" stroke-width="1" fill="blue" opacity="1" tooltip="enable"><title>(0.0166563,159)</title></rect><rect x="78" y="187.031" width="6" height="12.9686" stroke="black" stroke-width="1" fill="blue" opacity="1" tooltip="enable"><title>(0.0180444,128)</title></rect><rect x="84" y="188.956" width="6" height="11.0436" stroke="black" stroke-width="1" fill="blue" opacity="1" tooltip="enable"><title>(0.0194324,109)</title></rect><rect x="90" y="187.335" width="6" height="12.6646" stroke="black" stroke-width="1" fill="blue" opacity="1" tooltip="enable"><title>(0.0208204,125)</title></rect><rect x="96" y="188.652" width="6" height="11.3475" stroke="black" stroke-width="1" fill="blue" opacity="1" tooltip="enable"><title>(0.0222085,112)</title></rect><rect x="102" y="187.031" width="6" height="12.9686" stroke="black" stroke-width="1" fill="blue" opacity="1" tooltip="enable"><title>(0.0235965,128)</title></rect><rect x="108" y="192.908" width="6" height="7.0922" stroke="black" stroke-width="1" fill="blue" opacity="1" tooltip="enable"><title>(0.0249845,70)</title></rect><rect x="114" y="190.983" width="6" height="9.01722" stroke="black" stroke-width="1" fill="blue" opacity="1" tooltip="enable"><title>(0.0263725,89)</title></rect><rect x="120" y="191.793" width="6" height="8.20669" stroke="black" stroke-width="1" fill="blue" opacity="1" tooltip="enable"><title>(0.0277606,81)</title></rect><rect x="126" y="192.3" width="6" height="7.7001" stroke="black" stroke-width="1" fill="blue" opacity="1" tooltip="enable"><title>(0.0291486,76)</title></rect><rect x="132" y="191.591" width="6" height="8.40932" stroke="black" stroke-width="1" fill="blue" opacity="1" tooltip="enable"><title>(0.0305366,83)</title></rect><rect x="138" y="193.617" width="6" height="6.38298" stroke="black" stroke-width="1" fill="blue" opacity="1" tooltip="enable"><title>(0.0319247,63)</title></rect><rect x="144" y="191.287" width="6" height="8.71327" stroke="black" stroke-width="1" fill="blue" opacity="1" tooltip="enable"><title>(0.0333127,86)</title></rect><rect x="150" y="190.679" width="6" height="9.32118" stroke="black" stroke-width="1" fill="blue" opacity="1" tooltip="enable"><title>(0.0347007,92)</title></rect><rect x="156" y="193.617" width="6" height="6.38298" stroke="black" stroke-width="1" fill="blue" opacity="1" tooltip="enable"><title>(0.0360887,63)</title></rect><rect x="162" y="193.11" width="6" height="6.88956" stroke="black" stroke-width="1" fill="blue" opacity="1" tooltip="enable"><title>(0.0374768,68)</title></rect><rect x="168" y="196.454" width="6" height="3.5461" stroke="black" stroke-width="1" fill="blue" opacity="1" tooltip="enable"><title>(0.0388648,35)</title></rect><rect x="174" y="194.225" width="6" height="5.77508" stroke="black" stroke-width="1" fill="blue" opacity="1" tooltip="enable"><title>(0.0402528,57)</title></rect><rect x="180" y="195.035" width="6" height="4.96454" stroke="black" stroke-width="1" fill="blue" opacity="1" tooltip="enable"><title>(0.0416409,49)</title></rect><rect x="186" y="196.555" width="6" height="3.44478" stroke="black" stroke-width="1" fill="blue" opacity="1" tooltip="enable"><title>(0.0430289,34)</title></rect><rect x="192" y="196.555" width="6" height="3.44478" stroke="black" stroke-width="1" fill="blue" opacity="1" tooltip="enable"><title>(0.0444169,34)</title></rect><rect x="198" y="195.339" width="6" height="4.66059" stroke="black" stroke-width="1" fill="blue" opacity="1" tooltip="enable"><title>(0.0458049,46)</title></rect><rect x="204" y="195.339" width="6" height="4.66059" stroke="black" stroke-width="1" fill="blue" opacity="1" tooltip="enable"><title>(0.047193,46)</title></rect><rect x="210" y="195.947" width="6" height="4.05268" stroke="black" stroke-width="1" fill="blue" opacity="1" tooltip="enable"><title>(0.048581,40)</title></rect><rect x="216" y="196.758" width="6" height="3.24215" stroke="black" stroke-width="1" fill="blue" opacity="1" tooltip="enable"><title>(0.049969,32)</title></rect><rect x="222" y="197.67" width="6" height="2.33029" stroke="black" stroke-width="1" fill="blue" opacity="1" tooltip="enable"><title>(0.0513571,23)</title></rect><rect x="228" y="196.657" width="6" height="3.34347" stroke="black" stroke-width="1" fill="blue" opacity="1" tooltip="enable"><title>(0.0527451,33)</title></rect><rect x="234" y="196.15" width="6" height="3.85005" stroke="black" stroke-width="1" fill="blue" opacity="1" tooltip="enable"><title>(0.0541331,38)</title></rect><rect x="240" y="196.353" width="6" height="3.64742" stroke="black" stroke-width="1" fill="blue" opacity="1" tooltip="enable"><title>(0.0555211,36)</title></rect><rect x="246" y="196.96" width="6" height="3.03951" stroke="black" stroke-width="1" fill="blue" opacity="1" tooltip="enable"><title>(0.0569092,30)</title></rect><rect x="252" y="198.278" width="6" height="1.72239" stroke="black" stroke-width="1" fill="blue" opacity="1" tooltip="enable"><title>(0.0582972,17)</title></rect><rect x="258" y="197.264" width="6" height="2.73556" stroke="black" stroke-width="1" fill="blue" opacity="1" tooltip="enable"><title>(0.0596852,27)</title></rect><rect x="264" y="197.771" width="6" height="2.22898" stroke="black" stroke-width="1" fill="blue" opacity="1" tooltip="enable"><title>(0.0610733,22)</title></rect><rect x="270" y="197.771" width="6" height="2.22898" stroke="black" stroke-width="1" fill="blue" opacity="1" tooltip="enable"><title>(0.0624613,22)</title></rect><rect x="276" y="198.176" width="6" height="1.82371" stroke="black" stroke-width="1" fill="blue" opacity="1" tooltip="enable"><title>(0.0638493,18)</title></rect><rect x="282" y="197.568" width="6" height="2.43161" stroke="black" stroke-width="1" fill="blue" opacity="1" tooltip="enable"><title>(0.0652374,24)</title></rect><rect x="288" y="199.189" width="6" height="0.810537" stroke="black" stroke-width="1" fill="blue" opacity="1" tooltip="enable"><title>(0.0666254,8)</title></rect><rect x="294" y="196.96" width="6" height="3.03951" stroke="black" stroke-width="1" fill="blue" opacity="1" tooltip="enable"><title>(0.0680134,30)</title></rect><rect x="300" y="198.176" width="6" height="1.82371" stroke="black" stroke-width="1" fill="blue" opacity="1" tooltip="enable"><title>(0.0694014,18)</title></rect><rect x="306" y="198.784" width="6" height="1.21581" stroke="black" stroke-width="1" fill="blue" opacity="1" tooltip="enable"><title>(0.0707895,12)</title></rect><rect x="312" y="199.392" width="6" height="0.607903" stroke="black" stroke-width="1" fill="blue" opacity="1" tooltip="enable"><title>(0.0721775,6)</title></rect><rect x="318" y="199.189" width="6" height="0.810537" stroke="black" stroke-width="1" fill="blue" opacity="1" tooltip="enable"><title>(0.0735655,8)</title></rect><rect x="324" y="198.784" width="6" height="1.21581" stroke="black" stroke-width="1" fill="blue" opacity="1" tooltip="enable"><title>(0.0749536,12)</title></rect><rect x="330" y="199.189" width="6" height="0.810537" stroke="black" stroke-width="1" fill="blue" opacity="1" tooltip="enable"><title>(0.0763416,8)</title></rect><rect x="336" y="197.771" width="6" height="2.22898" stroke="black" stroke-width="1" fill="blue" opacity="1" tooltip="enable"><title>(0.0777296,22)</title></rect><rect x="342" y="198.379" width="6" height="1.62107" stroke="black" stroke-width="1" fill="blue" opacity="1" tooltip="enable"><title>(0.0791176,16)</title></rect><rect x="348" y="199.595" width="6" height="0.405268" stroke="black" stroke-width="1" fill="blue" opacity="1" tooltip="enable"><title>(0.0805057,4)</title></rect><rect x="354" y="199.595" width="6" height="0.405268" stroke="black" stroke-width="1" fill="blue" opacity="1" tooltip="enable"><title>(0.0818937,4)</title></rect><rect x="360" y="198.784" width="6" height="1.21581" stroke="black" stroke-width="1" fill="blue" opacity="1" tooltip="enable"><title>(0.0832817,12)</title></rect><rect x="366" y="199.797" width="6" height="0.202634" stroke="black" stroke-width="1" fill="blue" opacity="1" tooltip="enable"><title>(0.0846698,2)</title></rect><rect x="372" y="198.987" width="6" height="1.01317" stroke="black" stroke-width="1" fill="blue" opacity="1" tooltip="enable"><title>(0.0860578,10)</title></rect><rect x="378" y="199.595" width="6" height="0.405268" stroke="black" stroke-width="1" fill="blue" opacity="1" tooltip="enable"><title>(0.0874458,4)</title></rect><rect x="384" y="199.392" width="6" height="0.607903" stroke="black" stroke-width="1" fill="blue" opacity="1" tooltip="enable"><title>(0.0888338,6)</title></rect><rect x="390" y="200" width="6" height="0" stroke="black" stroke-width="1" fill="blue" opacity="1" tooltip="enable"><title>(0.0902219,0)</title></rect><rect x="396" y="200" width="6" height="0" stroke="black" stroke-width="1" fill="blue" opacity="1" tooltip="enable"><title>(0.0916099,0)</title></rect><rect x="402" y="200" width="6" height="0" stroke="black" stroke-width="1" fill="blue" opacity="1" tooltip="enable"><title>(0.0929979,0)</title></rect><rect x="408" y="200" width="6" height="0" stroke="black" stroke-width="1" fill="blue" opacity="1" tooltip="enable"><title>(0.094386,0)</title></rect><rect x="414" y="199.797" width="6" height="0.202634" stroke="black" stroke-width="1" fill="blue" opacity="1" tooltip="enable"><title>(0.095774,2)</title></rect><rect x="420" y="200" width="6" height="0" stroke="black" stroke-width="1" fill="blue" opacity="1" tooltip="enable"><title>(0.097162,0)</title></rect><rect x="426" y="200" width="6" height="0" stroke="black" stroke-width="1" fill="blue" opacity="1" tooltip="enable"><title>(0.09855,0)</title></rect><rect x="432" y="200" width="6" height="0" stroke="black" stroke-width="1" fill="blue" opacity="1" tooltip="enable"><title>(0.0999381,0)</title></rect><rect x="438" y="199.595" width="6" height="0.405268" stroke="black" stroke-width="1" fill="blue" opacity="1" tooltip="enable"><title>(0.101326,4)</title></rect><rect x="444" y="200" width="6" height="0" stroke="black" stroke-width="1" fill="blue" opacity="1" tooltip="enable"><title>(0.102714,0)</title></rect><rect x="450" y="200" width="6" height="0" stroke="black" stroke-width="1" fill="blue" opacity="1" tooltip="enable"><title>(0.104102,0)</title></rect><rect x="456" y="200" width="6" height="0" stroke="black" stroke-width="1" fill="blue" opacity="1" tooltip="enable"><title>(0.10549,0)</title></rect><rect x="462" y="199.595" width="6" height="0.405268" stroke="black" stroke-width="1" fill="blue" opacity="1" tooltip="enable"><title>(0.106878,4)</title></rect><rect x="468" y="200" width="6" height="0" stroke="black" stroke-width="1" fill="blue" opacity="1" tooltip="enable"><title>(0.108266,0)</title></rect><rect x="474" y="200" width="6" height="0" stroke="black" stroke-width="1" fill="blue" opacity="1" tooltip="enable"><title>(0.109654,0)</title></rect><rect x="480" y="200" width="6" height="0" stroke="black" stroke-width="1" fill="blue" opacity="1" tooltip="enable"><title>(0.111042,0)</title></rect><rect x="486" y="200" width="6" height="0" stroke="black" stroke-width="1" fill="blue" opacity="1" tooltip="enable"><title>(0.11243,0)</title></rect><rect x="492" y="199.797" width="6" height="0.202634" stroke="black" stroke-width="1" fill="blue" opacity="1" tooltip="enable"><title>(0.113818,2)</title></rect><rect x="498" y="200" width="6" height="0" stroke="black" stroke-width="1" fill="blue" opacity="1" tooltip="enable"><title>(0.115206,0)</title></rect><rect x="504" y="200" width="6" height="0" stroke="black" stroke-width="1" fill="blue" opacity="1" tooltip="enable"><title>(0.116594,0)</title></rect><rect x="510" y="199.797" width="6" height="0.202634" stroke="black" stroke-width="1" fill="blue" opacity="1" tooltip="enable"><title>(0.117982,2)</title></rect><rect x="516" y="200" width="6" height="0" stroke="black" stroke-width="1" fill="blue" opacity="1" tooltip="enable"><title>(0.11937,0)</title></rect><rect x="522" y="200" width="6" height="0" stroke="black" stroke-width="1" fill="blue" opacity="1" tooltip="enable"><title>(0.120758,0)</title></rect><rect x="528" y="200" width="6" height="0" stroke="black" stroke-width="1" fill="blue" opacity="1" tooltip="enable"><title>(0.122147,0)</title></rect><rect x="534" y="200" width="6" height="0" stroke="black" stroke-width="1" fill="blue" opacity="1" tooltip="enable"><title>(0.123535,0)</title></rect><rect x="540" y="200" width="6" height="0" stroke="black" stroke-width="1" fill="blue" opacity="1" tooltip="enable"><title>(0.124923,0)</title></rect><rect x="546" y="200" width="6" height="0" stroke="black" stroke-width="1" fill="blue" opacity="1" tooltip="enable"><title>(0.126311,0)</title></rect><rect x="552" y="200" width="6" height="0" stroke="black" stroke-width="1" fill="blue" opacity="1" tooltip="enable"><title>(0.127699,0)</title></rect><rect x="558" y="200" width="6" height="0" stroke="black" stroke-width="1" fill="blue" opacity="1" tooltip="enable"><title>(0.129087,0)</title></rect><rect x="564" y="200" width="6" height="0" stroke="black" stroke-width="1" fill="blue" opacity="1" tooltip="enable"><title>(0.130475,0)</title></rect><rect x="570" y="200" width="6" height="0" stroke="black" stroke-width="1" fill="blue" opacity="1" tooltip="enable"><title>(0.131863,0)</title></rect><rect x="576" y="199.797" width="6" height="0.202634" stroke="black" stroke-width="1" fill="blue" opacity="1" tooltip="enable"><title>(0.133251,2)</title></rect><rect x="582" y="199.797" width="6" height="0.202634" stroke="black" stroke-width="1" fill="blue" opacity="1" tooltip="enable"><title>(0.134639,2)</title></rect><rect x="588" y="200" width="6" height="0" stroke="black" stroke-width="1" fill="blue" opacity="1" tooltip="enable"><title>(0.136027,0)</title></rect><rect x="594" y="199.899" width="6" height="0.101317" stroke="black" stroke-width="1" fill="blue" opacity="1" tooltip="enable"><title>(0.137415,1)</title></rect><text x="30" y="240" font-size="20" fill="black">0</text>
<text x="600" y="240" font-size="20" fill="black">0.138803</text>
<polyline points="0,220,600,220" stroke="black" stroke-width="1" fill="none" opacity="1"/>
<text x="720" y="20" font-size="20" fill="black">1974</text>
<text x="720" y="200" font-size="20" fill="black">0</text>
<polyline points="660,0,660,200" stroke="black" stroke-width="1" fill="none" opacity="1"/>
</svg>