<?xml version="1.0" standalone="yes"?>
<!-- SVG graphic -->
<svg xmlns='http://www.w3.org/2000/svg' xmlns:xlink='http://www.w3.org/1999/xlink'
 version="1.1">
<rect x="0" y="0" width="6" height="200" stroke="black" stroke-width="1" fill="blue" opacity="1" tooltip="enable"><title>(0,2092)</title></rect><rect x="6" y="53.9197" width="6" height="146.08" stroke="black" stroke-width="1" fill="blue" opacity="1" tooltip="enable"><title>(0.00162987,1528)</title></rect><rect x="12" y="116.826" width="6" height="83.174" stroke="black" stroke-width="1" fill="blue" opacity="1" tooltip="enable"><title>(0.00325973,870)</title></rect><rect x="18" y="159.178" width="6" height="40.8222" stroke="black" stroke-width="1" fill="blue" opacity="1" tooltip="enable"><title>(0.0048896,427)</title></rect><rect x="24" y="172.371" width="6" height="27.6291" stroke="black" stroke-width="1" fill="blue" opacity="1" tooltip="enable"><title>(0.00651947,289)</title></rect><rect x="30" y="178.298" width="6" height="21.7017" stroke="black" stroke-width="1" fill="blue" opacity="1" tooltip="enable"><title>(0.00814934,227)</title></rect><rect x="36" y="185.373" width="6" height="14.6272" stroke="black" stroke-width="1" fill="blue" opacity="1" tooltip="enable"><title>(0.0097792,153)</title></rect><rect x="42" y="184.704" width="6" height="15.2964" stroke="black" stroke-width="1" fill="blue" opacity="1" tooltip="enable"><title>(0.0114091,160)</title></rect><rect x="48" y="182.983" width="6" height="17.0172" stroke="black" stroke-width="1" fill="blue" opacity="1" tooltip="enable"><title>(0.0130389,178)</title></rect><rect x="54" y="181.262" width="6" height="18.7381" stroke="black" stroke-width="1" fill="blue" opacity="1" tooltip="enable"><title>(0.0146688,196)</title></rect><rect x="60" y="183.748" width="6" height="16.2524" stroke="black" stroke-width="1" fill="blue" opacity="1" tooltip="enable"><title>(0.0162987,170)</title></rect><rect x="66" y="183.461" width="6" height="16.5392" stroke="black" stroke-width="1" fill="blue" opacity="1" tooltip="enable"><title>(0.0179285,173)</title></rect><rect x="72" y="185.182" width="6" height="14.8184" stroke="black" stroke-width="1" fill="blue" opacity="1" tooltip="enable"><title>(0.0195584,155)</title></rect><rect x="78" y="185.564" width="6" height="14.4359" stroke="black" stroke-width="1" fill="blue" opacity="1" tooltip="enable"><title>(0.0211883,151)</title></rect><rect x="84" y="186.807" width="6" height="13.1931" stroke="black" stroke-width="1" fill="blue" opacity="1" tooltip="enable"><title>(0.0228181,138)</title></rect><rect x="90" y="188.05" width="6" height="11.9503" stroke="black" stroke-width="1" fill="blue" opacity="1" tooltip="enable"><title>(0.024448,125)</title></rect><rect x="96" y="188.91" width="6" height="11.0899" stroke="black" stroke-width="1" fill="blue" opacity="1" tooltip="enable"><title>(0.0260779,116)</title></rect><rect x="102" y="188.241" width="6" height="11.7591" stroke="black" stroke-width="1" fill="blue" opacity="1" tooltip="enable"><title>(0.0277077,123)</title></rect><rect x="108" y="189.101" width="6" height="10.8987" stroke="black" stroke-width="1" fill="blue" opacity="1" tooltip="enable"><title>(0.0293376,114)</title></rect><rect x="114" y="191.969" width="6" height="8.03059" stroke="black" stroke-width="1" fill="blue" opacity="1" tooltip="enable"><title>(0.0309675,84)</title></rect><rect x="120" y="192.065" width="6" height="7.93499" stroke="black" stroke-width="1" fill="blue" opacity="1" tooltip="enable"><title>(0.0325973,83)</title></rect><rect x="126" y="195.794" width="6" height="4.2065" stroke="black" stroke-width="1" fill="blue" opacity="1" tooltip="enable"><title>(0.0342272,44)</title></rect><rect x="132" y="194.646" width="6" height="5.35373" stroke="black" stroke-width="1" fill="blue" opacity="1" tooltip="enable"><title>(0.0358571,56)</title></rect><rect x="138" y="196.176" width="6" height="3.82409" stroke="black" stroke-width="1" fill="blue" opacity="1" tooltip="enable"><title>(0.0374869,40)</title></rect><rect x="144" y="195.698" width="6" height="4.3021" stroke="black" stroke-width="1" fill="blue" opacity="1" tooltip="enable"><title>(0.0391168,45)</title></rect><rect x="150" y="196.845" width="6" height="3.15488" stroke="black" stroke-width="1" fill="blue" opacity="1" tooltip="enable"><title>(0.0407467,33)</title></rect><rect x="156" y="197.514" width="6" height="2.48566" stroke="black" stroke-width="1" fill="blue" opacity="1" tooltip="enable"><title>(0.0423765,26)</title></rect><rect x="162" y="197.514" width="6" height="2.48566" stroke="black" stroke-width="1" fill="blue" opacity="1" tooltip="enable"><title>(0.0440064,26)</title></rect><rect x="168" y="198.47" width="6" height="1.52964" stroke="black" stroke-width="1" fill="blue" opacity="1" tooltip="enable"><title>(0.0456363,16)</title></rect><rect x="174" y="198.47" width="6" height="1.52964" stroke="black" stroke-width="1" fill="blue" opacity="1" tooltip="enable"><title>(0.0472661,16)</title></rect><rect x="180" y="198.47" width="6" height="1.52964" stroke="black" stroke-width="1" fill="blue" opacity="1" tooltip="enable"><title>(0.048896,16)</title></rect><rect x="186" y="198.662" width="6" height="1.33843" stroke="black" stroke-width="1" fill="blue" opacity="1" tooltip="enable"><title>(0.0505259,14)</title></rect><rect x="192" y="198.853" width="6" height="1.14723" stroke="black" stroke-width="1" fill="blue" opacity="1" tooltip="enable"><title>(0.0521558,12)</title></rect><rect x="198" y="198.47" width="6" height="1.52964" stroke="black" stroke-width="1" fill="blue" opacity="1" tooltip="enable"><title>(0.0537856,16)</title></rect><rect x="204" y="199.235" width="6" height="0.764818" stroke="black" stroke-width="1" fill="blue" opacity="1" tooltip="enable"><title>(0.0554155,8)</title></rect><rect x="210" y="199.235" width="6" height="0.764818" stroke="black" stroke-width="1" fill="blue" opacity="1" tooltip="enable"><title>(0.0570454,8)</title></rect><rect x="216" y="199.426" width="6" height="0.573614" stroke="black" stroke-width="1" fill="blue" opacity="1" tooltip="enable"><title>(0.0586752,6)</title></rect><rect x="222" y="200" width="6" height="0" stroke="black" stroke-width="1" fill="blue" opacity="1" tooltip="enable"><title>(0.0603051,0)</title></rect><rect x="228" y="199.426" width="6" height="0.573614" stroke="black" stroke-width="1" fill="blue" opacity="1" tooltip="enable"><title>(0.061935,6)</title></rect><rect x="234" y="199.809" width="6" height="0.191205" stroke="black" stroke-width="1" fill="blue" opacity="1" tooltip="enable"><title>(0.0635648,2)</title></rect><rect x="240" y="199.618" width="6" height="0.382409" stroke="black" stroke-width="1" fill="blue" opacity="1" tooltip="enable"><title>(0.0651947,4)</title></rect><rect x="246" y="199.618" width="6" height="0.382409" stroke="black" stroke-width="1" fill="blue" opacity="1" tooltip="enable"><title>(0.0668246,4)</title></rect><rect x="252" y="199.809" width="6" height="0.191205" stroke="black" stroke-width="1" fill="blue" opacity="1" tooltip="enable"><title>(0.0684544,2)</title></rect><rect x="258" y="199.044" width="6" height="0.956023" stroke="black" stroke-width="1" fill="blue" opacity="1" tooltip="enable"><title>(0.0700843,10)</title></rect><rect x="264" y="199.426" width="6" height="0.573614" stroke="black" stroke-width="1" fill="blue" opacity="1" tooltip="enable"><title>(0.0717142,6)</title></rect><rect x="270" y="200" width="6" height="0" stroke="black" stroke-width="1" fill="blue" opacity="1" tooltip="enable"><title>(0.073344,0)</title></rect><rect x="276" y="199.713" width="6" height="0.286807" stroke="black" stroke-width="1" fill="blue" opacity="1" tooltip="enable"><title>(0.0749739,3)</title></rect><rect x="282" y="199.904" width="6" height="0.0956023" stroke="black" stroke-width="1" fill="blue" opacity="1" tooltip="enable"><title>(0.0766038,1)</title></rect><rect x="288" y="199.809" width="6" height="0.191205" stroke="black" stroke-width="1" fill="blue" opacity="1" tooltip="enable"><title>(0.0782336,2)</title></rect><rect x="294" y="199.809" width="6" height="0.191205" stroke="black" stroke-width="1" fill="blue" opacity="1" tooltip="enable"><title>(0.0798635,2)</title></rect><rect x="300" y="200" width="6" height="0" stroke="black" stroke-width="1" fill="blue" opacity="1" tooltip="enable"><title>(0.0814934,0)</title></rect><rect x="306" y="200" width="6" height="0" stroke="black" stroke-width="1" fill="blue" opacity="1" tooltip="enable"><title>(0.0831232,0)</title></rect><rect x="312" y="200" width="6" height="0" stroke="black" stroke-width="1" fill="blue" opacity="1" tooltip="enable"><title>(0.0847531,0)</title></rect><rect x="318" y="200" width="6" height="0" stroke="black" stroke-width="1" fill="blue" opacity="1" tooltip="enable"><title>(0.086383,0)</title></rect><rect x="324" y="199.618" width="6" height="0.382409" stroke="black" stroke-width="1" fill="blue" opacity="1" tooltip="enable"><title>(0.0880128,4)</title></rect><rect x="330" y="200" width="6" height="0" stroke="black" stroke-width="1" fill="blue" opacity="1" tooltip="enable"><title>(0.0896427,0)</title></rect><rect x="336" y="200" width="6" height="0" stroke="black" stroke-width="1" fill="blue" opacity="1" tooltip="enable"><title>(0.0912726,0)</title></rect><rect x="342" y="200" width="6" height="0" stroke="black" stroke-width="1" fill="blue" opacity="1" tooltip="enable"><title>(0.0929024,0)</title></rect><rect x="348" y="199.809" width="6" height="0.191205" stroke="black" stroke-width="1" fill="blue" opacity="1" tooltip="enable"><title>(0.0945323,2)</title></rect><rect x="354" y="200" width="6" height="0" stroke="black" stroke-width="1" fill="blue" opacity="1" tooltip="enable"><title>(0.0961622,0)</title></rect><rect x="360" y="200" width="6" height="0" stroke="black" stroke-width="1" fill="blue" opacity="1" tooltip="enable"><title>(0.097792,0)</title></rect><rect x="366" y="200" width="6" height="0" stroke="black" stroke-width="1" fill="blue" opacity="1" tooltip="enable"><title>(0.0994219,0)</title></rect><rect x="372" y="200" width="6" height="0" stroke="black" stroke-width="1" fill="blue" opacity="1" tooltip="enable"><title>(0.101052,0)</title></rect><rect x="378" y="200" width="6" height="0" stroke="black" stroke-width="1" fill="blue" opacity="1" tooltip="enable"><title>(0.102682,0)</title></rect><rect x="384" y="199.809" width="6" height="0.191205" stroke="black" stroke-width="1" fill="blue" opacity="1" tooltip="enable"><title>(0.104312,2)</title></rect><rect x="390" y="200" width="6" height="0" stroke="black" stroke-width="1" fill="blue" opacity="1" tooltip="enable"><title>(0.105941,0)</title></rect><rect x="396" y="200" width="6" height="0" stroke="black" stroke-width="1" fill="blue" opacity="1" tooltip="enable"><title>(0.107571,0)</title></rect><rect x="402" y="200" width="6" height="0" stroke="black" stroke-width="1" fill="blue" opacity="1" tooltip="enable"><title>(0.109201,0)</title></rect><rect x="408" y="200" width="6" height="0" stroke="black" stroke-width="1" fill="blue" opacity="1" tooltip="enable"><title>(0.110831,0)</title></rect><rect x="414" y="200" width="6" height="0" stroke="black" stroke-width="1" fill="blue" opacity="1" tooltip="enable"><title>(0.112461,0)</title></rect><rect x="420" y="199.618" width="6" height="0.382409" stroke="black" stroke-width="1" fill="blue" opacity="1" tooltip="enable"><title>(0.114091,4)</title></rect><rect x="426" y="199.809" width="6" height="0.191205" stroke="black" stroke-width="1" fill="blue" opacity="1" tooltip="enable"><title>(0.115721,2)</title></rect><rect x="432" y="200" width="6" height="0" stroke="black" stroke-width="1" fill="blue" opacity="1" tooltip="enable"><title>(0.11735,0)</title></rect><rect x="438" y="200" width="6" height="0" stroke="black" stroke-width="1" fill="blue" opacity="1" tooltip="enable"><title>(0.11898,0)</title></rect><rect x="444" y="200" width="6" height="0" stroke="black" stroke-width="1" fill="blue" opacity="1" tooltip="enable"><title>(0.12061,0)</title></rect><rect x="450" y="199.809" width="6" height="0.191205" stroke="black" stroke-width="1" fill="blue" opacity="1" tooltip="enable"><title>(0.12224,2)</title></rect><rect x="456" y="200" width="6" height="0" stroke="black" stroke-width="1" fill="blue" opacity="1" tooltip="enable"><title>(0.12387,0)</title></rect><rect x="462" y="200" width="6" height="0" stroke="black" stroke-width="1" fill="blue" opacity="1" tooltip="enable"><title>(0.1255,0)</title></rect><rect x="468" y="200" width="6" height="0" stroke="black" stroke-width="1" fill="blue" opacity="1" tooltip="enable"><title>(0.12713,0)</title></rect><rect x="474" y="200" width="6" height="0" stroke="black" stroke-width="1" fill="blue" opacity="1" tooltip="enable"><title>(0.12876,0)</title></rect><rect x="480" y="200" width="6" height="0" stroke="black" stroke-width="1" fill="blue" opacity="1" tooltip="enable"><title>(0.130389,0)</title></rect><rect x="486" y="200" width="6" height="0" stroke="black" stroke-width="1" fill="blue" opacity="1" tooltip="enable"><title>(0.132019,0)</title></rect><rect x="492" y="199.809" width="6" height="0.191205" stroke="black" stroke-width="1" fill="blue" opacity="1" tooltip="enable"><title>(0.133649,2)</title></rect><rect x="498" y="200" width="6" height="0" stroke="black" stroke-width="1" fill="blue" opacity="1" tooltip="enable"><title>(0.135279,0)</title></rect><rect x="504" y="200" width="6" height="0" stroke="black" stroke-width="1" fill="blue" opacity="1" tooltip="enable"><title>(0.136909,0)</title></rect><rect x="510" y="200" width="6" height="0" stroke="black" stroke-width="1" fill="blue" opacity="1" tooltip="enable"><title>(0.138539,0)</title></rect><rect x="516" y="200" width="6" height="0" stroke="black" stroke-width="1" fill="blue" opacity="1" tooltip="enable"><title>(0.140169,0)</title></rect><rect x="522" y="200" width="6" height="0" stroke="black" stroke-width="1" fill="blue" opacity="1" tooltip="enable"><title>(0.141798,0)</title></rect><rect x="528" y="200" width="6" height="0" stroke="black" stroke-width="1" fill="blue" opacity="1" tooltip="enable"><title>(0.143428,0)</title></rect><rect x="534" y="200" width="6" height="0" stroke="black" stroke-width="1" fill="blue" opacity="1" tooltip="enable"><title>(0.145058,0)</title></rect><rect x="540" y="200" width="6" height="0" stroke="black" stroke-width="1" fill="blue" opacity="1" tooltip="enable"><title>(0.146688,0)</title></rect><rect x="546" y="200" width="6" height="0" stroke="black" stroke-width="1" fill="blue" opacity="1" tooltip="enable"><title>(0.148318,0)</title></rect><rect x="552" y="200" width="6" height="0" stroke="black" stroke-width="1" fill="blue" opacity="1" tooltip="enable"><title>(0.149948,0)</title></rect><rect x="558" y="200" width="6" height="0" stroke="black" stroke-width="1" fill="blue" opacity="1" tooltip="enable"><title>(0.151578,0)</title></rect><rect x="564" y="200" width="6" height="0" stroke="black" stroke-width="1" fill="blue" opacity="1" tooltip="enable"><title>(0.153208,0)</title></rect><rect x="570" y="200" width="6" height="0" stroke="black" stroke-width="1" fill="blue" opacity="1" tooltip="enable"><title>(0.154837,0)</title></rect><rect x="576" y="200" width="6" height="0" stroke="black" stroke-width="1" fill="blue" opacity="1" tooltip="enable"><title>(0.156467,0)</title></rect><rect x="582" y="200" width="6" height="0" stroke="black" stroke-width="1" fill="blue" opacity="1" tooltip="enable"><title>(0.158097,0)</title></rect><rect x="588" y="199.809" width="6" height="0.191205" stroke="black" stroke-width="1" fill="blue" opacity="1" tooltip="enable"><title>(0.159727,2)</title></rect><rect x="594" y="199.713" width="6" height="0.286807" stroke="black" stroke-width="1" fill="blue" opacity="1" tooltip="enable"><title>(0.161357,3)</title></rect><text x="30" y="240" font-size="20" fill="black">0</text>
<text x="600" y="240" font-size="20" fill="black">0.162987</text>
<polyline points="0,220,600,220" stroke="black" stroke-width="1" fill="none" opacity="1"/>
<text x="720" y="20" font-size="20" fill="black">2092</text>
<text x="720" y="200" font-size="20" fill="black">0</text>
<polyline points="660,0,660,200" stroke="black" stroke-width="1" fill="none" opacity="1"/>
</svg>