<?xml version="1.0" standalone="yes"?>
<!-- SVG graphic -->
<svg xmlns='http://www.w3.org/2000/svg' xmlns:xlink='http://www.w3.org/1999/xlink'
 version="1.1">
<rect x="0" y="0" width="6" height="200" stroke="black" stroke-width="1" fill="blue" opacity="1" tooltip="enable"><title>(0,4258)</title></rect><rect x="6" y="184.688" width="6" height="15.3124" stroke="black" stroke-width="1" fill="blue" opacity="1" tooltip="enable"><title>(0.00127825,326)</title></rect><rect x="12" y="188.257" width="6" height="11.7426" stroke="black" stroke-width="1" fill="blue" opacity="1" tooltip="enable"><title>(0.00255649,250)</title></rect><rect x="18" y="189.385" width="6" height="10.6153" stroke="black" stroke-width="1" fill="blue" opacity="1" tooltip="enable"><title>(0.00383474,226)</title></rect><rect x="24" y="187.412" width="6" height="12.5881" stroke="black" stroke-width="1" fill="blue" opacity="1" tooltip="enable"><title>(0.00511299,268)</title></rect><rect x="30" y="189.713" width="6" height="10.2865" stroke="black" stroke-width="1" fill="blue" opacity="1" tooltip="enable"><title>(0.00639124,219)</title></rect><rect x="36" y="188.68" width="6" height="11.3199" stroke="black" stroke-width="1" fill="blue" opacity="1" tooltip="enable"><title>(0.00766948,241)</title></rect><rect x="42" y="190.23" width="6" height="9.76985" stroke="black" stroke-width="1" fill="blue" opacity="1" tooltip="enable"><title>(0.00894773,208)</title></rect><rect x="48" y="192.579" width="6" height="7.42132" stroke="black" stroke-width="1" fill="blue" opacity="1" tooltip="enable"><title>(0.010226,158)</title></rect><rect x="54" y="192.814" width="6" height="7.18647" stroke="black" stroke-width="1" fill="blue" opacity="1" tooltip="enable"><title>(0.0115042,153)</title></rect><rect x="60" y="191.498" width="6" height="8.50164" stroke="black" stroke-width="1" fill="blue" opacity="1" tooltip="enable"><title>(0.0127825,181)</title></rect><rect x="66" y="191.264" width="6" height="8.7365" stroke="black" stroke-width="1" fill="blue" opacity="1" tooltip="enable"><title>(0.0140607,186)</title></rect><rect x="72" y="192.438" width="6" height="7.56224" stroke="black" stroke-width="1" fill="blue" opacity="1" tooltip="enable"><title>(0.015339,161)</title></rect><rect x="78" y="192.72" width="6" height="7.28041" stroke="black" stroke-width="1" fill="blue" opacity="1" tooltip="enable"><title>(0.0166172,155)</title></rect><rect x="84" y="193.236" width="6" height="6.76374" stroke="black" stroke-width="1" fill="blue" opacity="1" tooltip="enable"><title>(0.0178955,144)</title></rect><rect x="90" y="194.457" width="6" height="5.54251" stroke="black" stroke-width="1" fill="blue" opacity="1" tooltip="enable"><title>(0.0191737,118)</title></rect><rect x="96" y="195.209" width="6" height="4.79098" stroke="black" stroke-width="1" fill="blue" opacity="1" tooltip="enable"><title>(0.020452,102)</title></rect><rect x="102" y="193.894" width="6" height="6.10615" stroke="black" stroke-width="1" fill="blue" opacity="1" tooltip="enable"><title>(0.0217302,130)</title></rect><rect x="108" y="196.618" width="6" height="3.38187" stroke="black" stroke-width="1" fill="blue" opacity="1" tooltip="enable"><title>(0.0230084,72)</title></rect><rect x="114" y="196.477" width="6" height="3.52278" stroke="black" stroke-width="1" fill="blue" opacity="1" tooltip="enable"><title>(0.0242867,75)</title></rect><rect x="120" y="197.417" width="6" height="2.58337" stroke="black" stroke-width="1" fill="blue" opacity="1" tooltip="enable"><title>(0.0255649,55)</title></rect><rect x="126" y="198.168" width="6" height="1.83185" stroke="black" stroke-width="1" fill="blue" opacity="1" tooltip="enable"><title>(0.0268432,39)</title></rect><rect x="132" y="197.229" width="6" height="2.77125" stroke="black" stroke-width="1" fill="blue" opacity="1" tooltip="enable"><title>(0.0281214,59)</title></rect><rect x="138" y="198.403" width="6" height="1.59699" stroke="black" stroke-width="1" fill="blue" opacity="1" tooltip="enable"><title>(0.0293997,34)</title></rect><rect x="144" y="198.779" width="6" height="1.22123" stroke="black" stroke-width="1" fill="blue" opacity="1" tooltip="enable"><title>(0.0306779,26)</title></rect><rect x="150" y="199.061" width="6" height="0.939408" stroke="black" stroke-width="1" fill="blue" opacity="1" tooltip="enable"><title>(0.0319562,20)</title></rect><rect x="156" y="198.779" width="6" height="1.22123" stroke="black" stroke-width="1" fill="blue" opacity="1" tooltip="enable"><title>(0.0332344,26)</title></rect><rect x="162" y="199.295" width="6" height="0.704556" stroke="black" stroke-width="1" fill="blue" opacity="1" tooltip="enable"><title>(0.0345127,15)</title></rect><rect x="168" y="199.577" width="6" height="0.422734" stroke="black" stroke-width="1" fill="blue" opacity="1" tooltip="enable"><title>(0.0357909,9)</title></rect><rect x="174" y="199.624" width="6" height="0.375763" stroke="black" stroke-width="1" fill="blue" opacity="1" tooltip="enable"><title>(0.0370692,8)</title></rect><rect x="180" y="199.624" width="6" height="0.375763" stroke="black" stroke-width="1" fill="blue" opacity="1" tooltip="enable"><title>(0.0383474,8)</title></rect><rect x="186" y="199.812" width="6" height="0.187882" stroke="black" stroke-width="1" fill="blue" opacity="1" tooltip="enable"><title>(0.0396257,4)</title></rect><rect x="192" y="200" width="6" height="0" stroke="black" stroke-width="1" fill="blue" opacity="1" tooltip="enable"><title>(0.0409039,0)</title></rect><rect x="198" y="199.624" width="6" height="0.375763" stroke="black" stroke-width="1" fill="blue" opacity="1" tooltip="enable"><title>(0.0421822,8)</title></rect><rect x="204" y="199.906" width="6" height="0.0939408" stroke="black" stroke-width="1" fill="blue" opacity="1" tooltip="enable"><title>(0.0434604,2)</title></rect><rect x="210" y="199.906" width="6" height="0.0939408" stroke="black" stroke-width="1" fill="blue" opacity="1" tooltip="enable"><title>(0.0447386,2)</title></rect><rect x="216" y="200" width="6" height="0" stroke="black" stroke-width="1" fill="blue" opacity="1" tooltip="enable"><title>(0.0460169,0)</title></rect><rect x="222" y="199.812" width="6" height="0.187882" stroke="black" stroke-width="1" fill="blue" opacity="1" tooltip="enable"><title>(0.0472951,4)</title></rect><rect x="228" y="200" width="6" height="0" stroke="black" stroke-width="1" fill="blue" opacity="1" tooltip="enable"><title>(0.0485734,0)</title></rect><rect x="234" y="199.812" width="6" height="0.187882" stroke="black" stroke-width="1" fill="blue" opacity="1" tooltip="enable"><title>(0.0498516,4)</title></rect><rect x="240" y="200" width="6" height="0" stroke="black" stroke-width="1" fill="blue" opacity="1" tooltip="enable"><title>(0.0511299,0)</title></rect><rect x="246" y="199.812" width="6" height="0.187882" stroke="black" stroke-width="1" fill="blue" opacity="1" tooltip="enable"><title>(0.0524081,4)</title></rect><rect x="252" y="200" width="6" height="0" stroke="black" stroke-width="1" fill="blue" opacity="1" tooltip="enable"><title>(0.0536864,0)</title></rect><rect x="258" y="199.906" width="6" height="0.0939408" stroke="black" stroke-width="1" fill="blue" opacity="1" tooltip="enable"><title>(0.0549646,2)</title></rect><rect x="264" y="199.718" width="6" height="0.281822" stroke="black" stroke-width="1" fill="blue" opacity="1" tooltip="enable"><title>(0.0562429,6)</title></rect><rect x="270" y="200" width="6" height="0" stroke="black" stroke-width="1" fill="blue" opacity="1" tooltip="enable"><title>(0.0575211,0)</title></rect><rect x="276" y="200" width="6" height="0" stroke="black" stroke-width="1" fill="blue" opacity="1" tooltip="enable"><title>(0.0587994,0)</title></rect><rect x="282" y="199.906" width="6" height="0.0939408" stroke="black" stroke-width="1" fill="blue" opacity="1" tooltip="enable"><title>(0.0600776,2)</title></rect><rect x="288" y="199.812" width="6" height="0.187882" stroke="black" stroke-width="1" fill="blue" opacity="1" tooltip="enable"><title>(0.0613559,4)</title></rect><rect x="294" y="200" width="6" height="0" stroke="black" stroke-width="1" fill="blue" opacity="1" tooltip="enable"><title>(0.0626341,0)</title></rect><rect x="300" y="200" width="6" height="0" stroke="black" stroke-width="1" fill="blue" opacity="1" tooltip="enable"><title>(0.0639124,0)</title></rect><rect x="306" y="199.906" width="6" height="0.0939408" stroke="black" stroke-width="1" fill="blue" opacity="1" tooltip="enable"><title>(0.0651906,2)</title></rect><rect x="312" y="199.812" width="6" height="0.187882" stroke="black" stroke-width="1" fill="blue" opacity="1" tooltip="enable"><title>(0.0664688,4)</title></rect><rect x="318" y="199.906" width="6" height="0.0939408" stroke="black" stroke-width="1" fill="blue" opacity="1" tooltip="enable"><title>(0.0677471,2)</title></rect><rect x="324" y="200" width="6" height="0" stroke="black" stroke-width="1" fill="blue" opacity="1" tooltip="enable"><title>(0.0690253,0)</title></rect><rect x="330" y="200" width="6" height="0" stroke="black" stroke-width="1" fill="blue" opacity="1" tooltip="enable"><title>(0.0703036,0)</title></rect><rect x="336" y="200" width="6" height="0" stroke="black" stroke-width="1" fill="blue" opacity="1" tooltip="enable"><title>(0.0715818,0)</title></rect><rect x="342" y="200" width="6" height="0" stroke="black" stroke-width="1" fill="blue" opacity="1" tooltip="enable"><title>(0.0728601,0)</title></rect><rect x="348" y="199.906" width="6" height="0.0939408" stroke="black" stroke-width="1" fill="blue" opacity="1" tooltip="enable"><title>(0.0741383,2)</title></rect><rect x="354" y="199.906" width="6" height="0.0939408" stroke="black" stroke-width="1" fill="blue" opacity="1" tooltip="enable"><title>(0.0754166,2)</title></rect><rect x="360" y="199.718" width="6" height="0.281822" stroke="black" stroke-width="1" fill="blue" opacity="1" tooltip="enable"><title>(0.0766948,6)</title></rect><rect x="366" y="200" width="6" height="0" stroke="black" stroke-width="1" fill="blue" opacity="1" tooltip="enable"><title>(0.0779731,0)</title></rect><rect x="372" y="199.906" width="6" height="0.0939408" stroke="black" stroke-width="1" fill="blue" opacity="1" tooltip="enable"><title>(0.0792513,2)</title></rect><rect x="378" y="200" width="6" height="0" stroke="black" stroke-width="1" fill="blue" opacity="1" tooltip="enable"><title>(0.0805296,0)</title></rect><rect x="384" y="200" width="6" height="0" stroke="black" stroke-width="1" fill="blue" opacity="1" tooltip="enable"><title>(0.0818078,0)</title></rect><rect x="390" y="200" width="6" height="0" stroke="black" stroke-width="1" fill="blue" opacity="1" tooltip="enable"><title>(0.0830861,0)</title></rect><rect x="396" y="200" width="6" height="0" stroke="black" stroke-width="1" fill="blue" opacity="1" tooltip="enable"><title>(0.0843643,0)</title></rect><rect x="402" y="200" width="6" height="0" stroke="black" stroke-width="1" fill="blue" opacity="1" tooltip="enable"><title>(0.0856426,0)</title></rect><rect x="408" y="200" width="6" height="0" stroke="black" stroke-width="1" fill="blue" opacity="1" tooltip="enable"><title>(0.0869208,0)</title></rect><rect x="414" y="200" width="6" height="0" stroke="black" stroke-width="1" fill="blue" opacity="1" tooltip="enable"><title>(0.088199,0)</title></rect><rect x="420" y="200" width="6" height="0" stroke="black" stroke-width="1" fill="blue" opacity="1" tooltip="enable"><title>(0.0894773,0)</title></rect><rect x="426" y="200" width="6" height="0" stroke="black" stroke-width="1" fill="blue" opacity="1" tooltip="enable"><title>(0.0907555,0)</title></rect><rect x="432" y="200" width="6" height="0" stroke="black" stroke-width="1" fill="blue" opacity="1" tooltip="enable"><title>(0.0920338,0)</title></rect><rect x="438" y="200" width="6" height="0" stroke="black" stroke-width="1" fill="blue" opacity="1" tooltip="enable"><title>(0.093312,0)</title></rect><rect x="444" y="200" width="6" height="0" stroke="black" stroke-width="1" fill="blue" opacity="1" tooltip="enable"><title>(0.0945903,0)</title></rect><rect x="450" y="200" width="6" height="0" stroke="black" stroke-width="1" fill="blue" opacity="1" tooltip="enable"><title>(0.0958685,0)</title></rect><rect x="456" y="200" width="6" height="0" stroke="black" stroke-width="1" fill="blue" opacity="1" tooltip="enable"><title>(0.0971468,0)</title></rect><rect x="462" y="199.906" width="6" height="0.0939408" stroke="black" stroke-width="1" fill="blue" opacity="1" tooltip="enable"><title>(0.098425,2)</title></rect><rect x="468" y="200" width="6" height="0" stroke="black" stroke-width="1" fill="blue" opacity="1" tooltip="enable"><title>(0.0997033,0)</title></rect><rect x="474" y="200" width="6" height="0" stroke="black" stroke-width="1" fill="blue" opacity="1" tooltip="enable"><title>(0.100982,0)</title></rect><rect x="480" y="200" width="6" height="0" stroke="black" stroke-width="1" fill="blue" opacity="1" tooltip="enable"><title>(0.10226,0)</title></rect><rect x="486" y="200" width="6" height="0" stroke="black" stroke-width="1" fill="blue" opacity="1" tooltip="enable"><title>(0.103538,0)</title></rect><rect x="492" y="200" width="6" height="0" stroke="black" stroke-width="1" fill="blue" opacity="1" tooltip="enable"><title>(0.104816,0)</title></rect><rect x="498" y="199.906" width="6" height="0.0939408" stroke="black" stroke-width="1" fill="blue" opacity="1" tooltip="enable"><title>(0.106095,2)</title></rect><rect x="504" y="200" width="6" height="0" stroke="black" stroke-width="1" fill="blue" opacity="1" tooltip="enable"><title>(0.107373,0)</title></rect><rect x="510" y="200" width="6" height="0" stroke="black" stroke-width="1" fill="blue" opacity="1" tooltip="enable"><title>(0.108651,0)</title></rect><rect x="516" y="200" width="6" height="0" stroke="black" stroke-width="1" fill="blue" opacity="1" tooltip="enable"><title>(0.109929,0)</title></rect><rect x="522" y="200" width="6" height="0" stroke="black" stroke-width="1" fill="blue" opacity="1" tooltip="enable"><title>(0.111208,0)</title></rect><rect x="528" y="200" width="6" height="0" stroke="black" stroke-width="1" fill="blue" opacity="1" tooltip="enable"><title>(0.112486,0)</title></rect><rect x="534" y="200" width="6" height="0" stroke="black" stroke-width="1" fill="blue" opacity="1" tooltip="enable"><title>(0.113764,0)</title></rect><rect x="540" y="200" width="6" height="0" stroke="black" stroke-width="1" fill="blue" opacity="1" tooltip="enable"><title>(0.115042,0)</title></rect><rect x="546" y="200" width="6" height="0" stroke="black" stroke-width="1" fill="blue" opacity="1" tooltip="enable"><title>(0.11632,0)</title></rect><rect x="552" y="200" width="6" height="0" stroke="black" stroke-width="1" fill="blue" opacity="1" tooltip="enable"><title>(0.117599,0)</title></rect><rect x="558" y="200" width="6" height="0" stroke="black" stroke-width="1" fill="blue" opacity="1" tooltip="enable"><title>(0.118877,0)</title></rect><rect x="564" y="200" width="6" height="0" stroke="black" stroke-width="1" fill="blue" opacity="1" tooltip="enable"><title>(0.120155,0)</title></rect><rect x="570" y="200" width="6" height="0" stroke="black" stroke-width="1" fill="blue" opacity="1" tooltip="enable"><title>(0.121433,0)</title></rect><rect x="576" y="200" width="6" height="0" stroke="black" stroke-width="1" fill="blue" opacity="1" tooltip="enable"><title>(0.122712,0)</title></rect><rect x="582" y="200" width="6" height="0" stroke="black" stroke-width="1" fill="blue" opacity="1" tooltip="enable"><title>(0.12399,0)</title></rect><rect x="588" y="199.906" width="6" height="0.0939408" stroke="black" stroke-width="1" fill="blue" opacity="1" tooltip="enable"><title>(0.125268,2)</title></rect><rect x="594" y="199.953" width="6" height="0.0469704" stroke="black" stroke-width="1" fill="blue" opacity="1" tooltip="enable"><title>(0.126546,1)</title></rect><text x="30" y="240" font-size="20" fill="black">0</text>
<text x="600" y="240" font-size="20" fill="black">0.127825</text>
<polyline points="0,220,600,220" stroke="black" stroke-width="1" fill="none" opacity="1"/>
<text x="720" y="20" font-size="20" fill="black">4258</text>
<text x="720" y="200" font-size="20" fill="black">0</text>
<polyline points="660,0,660,200" stroke="black" stroke-width="1" fill="none" opacity="1"/>
</svg>