<?xml version="1.0" standalone="yes"?>
<!-- SVG graphic -->
<svg xmlns='http://www.w3.org/2000/svg' xmlns:xlink='http://www.w3.org/1999/xlink'
 version="1.1">
<rect x="0" y="0" width="6" height="200" stroke="black" stroke-width="1" fill="blue" opacity="1" tooltip="enable"><title>(0,1928)</title></rect><rect x="6" y="40.249" width="6" height="159.751" stroke="black" stroke-width="1" fill="blue" opacity="1" tooltip="enable"><title>(0.00176536,1540)</title></rect><rect x="12" y="94.2946" width="6" height="105.705" stroke="black" stroke-width="1" fill="blue" opacity="1" tooltip="enable"><title>(0.00353071,1019)</title></rect><rect x="18" y="153.631" width="6" height="46.3693" stroke="black" stroke-width="1" fill="blue" opacity="1" tooltip="enable"><title>(0.00529607,447)</title></rect><rect x="24" y="173.029" width="6" height="26.971" stroke="black" stroke-width="1" fill="blue" opacity="1" tooltip="enable"><title>(0.00706142,260)</title></rect><rect x="30" y="174.378" width="6" height="25.6224" stroke="black" stroke-width="1" fill="blue" opacity="1" tooltip="enable"><title>(0.00882678,247)</title></rect><rect x="36" y="173.755" width="6" height="26.2448" stroke="black" stroke-width="1" fill="blue" opacity="1" tooltip="enable"><title>(0.0105921,253)</title></rect><rect x="42" y="179.149" width="6" height="20.8506" stroke="black" stroke-width="1" fill="blue" opacity="1" tooltip="enable"><title>(0.0123575,201)</title></rect><rect x="48" y="179.876" width="6" height="20.1245" stroke="black" stroke-width="1" fill="blue" opacity="1" tooltip="enable"><title>(0.0141228,194)</title></rect><rect x="54" y="180.602" width="6" height="19.3983" stroke="black" stroke-width="1" fill="blue" opacity="1" tooltip="enable"><title>(0.0158882,187)</title></rect><rect x="60" y="181.224" width="6" height="18.7759" stroke="black" stroke-width="1" fill="blue" opacity="1" tooltip="enable"><title>(0.0176536,181)</title></rect><rect x="66" y="178.942" width="6" height="21.0581" stroke="black" stroke-width="1" fill="blue" opacity="1" tooltip="enable"><title>(0.0194189,203)</title></rect><rect x="72" y="179.461" width="6" height="20.5394" stroke="black" stroke-width="1" fill="blue" opacity="1" tooltip="enable"><title>(0.0211843,198)</title></rect><rect x="78" y="184.025" width="6" height="15.9751" stroke="black" stroke-width="1" fill="blue" opacity="1" tooltip="enable"><title>(0.0229496,154)</title></rect><rect x="84" y="181.328" width="6" height="18.6722" stroke="black" stroke-width="1" fill="blue" opacity="1" tooltip="enable"><title>(0.024715,180)</title></rect><rect x="90" y="182.365" width="6" height="17.6349" stroke="black" stroke-width="1" fill="blue" opacity="1" tooltip="enable"><title>(0.0264803,170)</title></rect><rect x="96" y="187.137" width="6" height="12.8631" stroke="black" stroke-width="1" fill="blue" opacity="1" tooltip="enable"><title>(0.0282457,124)</title></rect><rect x="102" y="190.249" width="6" height="9.75104" stroke="black" stroke-width="1" fill="blue" opacity="1" tooltip="enable"><title>(0.0300111,94)</title></rect><rect x="108" y="190.768" width="6" height="9.23237" stroke="black" stroke-width="1" fill="blue" opacity="1" tooltip="enable"><title>(0.0317764,89)</title></rect><rect x="114" y="192.22" width="6" height="7.78008" stroke="black" stroke-width="1" fill="blue" opacity="1" tooltip="enable"><title>(0.0335418,75)</title></rect><rect x="120" y="194.191" width="6" height="5.80913" stroke="black" stroke-width="1" fill="blue" opacity="1" tooltip="enable"><title>(0.0353071,56)</title></rect><rect x="126" y="196.266" width="6" height="3.73444" stroke="black" stroke-width="1" fill="blue" opacity="1" tooltip="enable"><title>(0.0370725,36)</title></rect><rect x="132" y="196.058" width="6" height="3.94191" stroke="black" stroke-width="1" fill="blue" opacity="1" tooltip="enable"><title>(0.0388378,38)</title></rect><rect x="138" y="198.133" width="6" height="1.86722" stroke="black" stroke-width="1" fill="blue" opacity="1" tooltip="enable"><title>(0.0406032,18)</title></rect><rect x="144" y="197.718" width="6" height="2.28216" stroke="black" stroke-width="1" fill="blue" opacity="1" tooltip="enable"><title>(0.0423685,22)</title></rect><rect x="150" y="198.755" width="6" height="1.24481" stroke="black" stroke-width="1" fill="blue" opacity="1" tooltip="enable"><title>(0.0441339,12)</title></rect><rect x="156" y="197.718" width="6" height="2.28216" stroke="black" stroke-width="1" fill="blue" opacity="1" tooltip="enable"><title>(0.0458993,22)</title></rect><rect x="162" y="198.755" width="6" height="1.24481" stroke="black" stroke-width="1" fill="blue" opacity="1" tooltip="enable"><title>(0.0476646,12)</title></rect><rect x="168" y="197.822" width="6" height="2.17842" stroke="black" stroke-width="1" fill="blue" opacity="1" tooltip="enable"><title>(0.04943,21)</title></rect><rect x="174" y="199.481" width="6" height="0.518672" stroke="black" stroke-width="1" fill="blue" opacity="1" tooltip="enable"><title>(0.0511953,5)</title></rect><rect x="180" y="199.585" width="6" height="0.414938" stroke="black" stroke-width="1" fill="blue" opacity="1" tooltip="enable"><title>(0.0529607,4)</title></rect><rect x="186" y="199.585" width="6" height="0.414938" stroke="black" stroke-width="1" fill="blue" opacity="1" tooltip="enable"><title>(0.054726,4)</title></rect><rect x="192" y="199.793" width="6" height="0.207469" stroke="black" stroke-width="1" fill="blue" opacity="1" tooltip="enable"><title>(0.0564914,2)</title></rect><rect x="198" y="200" width="6" height="0" stroke="black" stroke-width="1" fill="blue" opacity="1" tooltip="enable"><title>(0.0582568,0)</title></rect><rect x="204" y="199.793" width="6" height="0.207469" stroke="black" stroke-width="1" fill="blue" opacity="1" tooltip="enable"><title>(0.0600221,2)</title></rect><rect x="210" y="200" width="6" height="0" stroke="black" stroke-width="1" fill="blue" opacity="1" tooltip="enable"><title>(0.0617875,0)</title></rect><rect x="216" y="200" width="6" height="0" stroke="black" stroke-width="1" fill="blue" opacity="1" tooltip="enable"><title>(0.0635528,0)</title></rect><rect x="222" y="200" width="6" height="0" stroke="black" stroke-width="1" fill="blue" opacity="1" tooltip="enable"><title>(0.0653182,0)</title></rect><rect x="228" y="200" width="6" height="0" stroke="black" stroke-width="1" fill="blue" opacity="1" tooltip="enable"><title>(0.0670835,0)</title></rect><rect x="234" y="200" width="6" height="0" stroke="black" stroke-width="1" fill="blue" opacity="1" tooltip="enable"><title>(0.0688489,0)</title></rect><rect x="240" y="200" width="6" height="0" stroke="black" stroke-width="1" fill="blue" opacity="1" tooltip="enable"><title>(0.0706142,0)</title></rect><rect x="246" y="200" width="6" height="0" stroke="black" stroke-width="1" fill="blue" opacity="1" tooltip="enable"><title>(0.0723796,0)</title></rect><rect x="252" y="200" width="6" height="0" stroke="black" stroke-width="1" fill="blue" opacity="1" tooltip="enable"><title>(0.074145,0)</title></rect><rect x="258" y="200" width="6" height="0" stroke="black" stroke-width="1" fill="blue" opacity="1" tooltip="enable"><title>(0.0759103,0)</title></rect><rect x="264" y="200" width="6" height="0" stroke="black" stroke-width="1" fill="blue" opacity="1" tooltip="enable"><title>(0.0776757,0)</title></rect><rect x="270" y="200" width="6" height="0" stroke="black" stroke-width="1" fill="blue" opacity="1" tooltip="enable"><title>(0.079441,0)</title></rect><rect x="276" y="200" width="6" height="0" stroke="black" stroke-width="1" fill="blue" opacity="1" tooltip="enable"><title>(0.0812064,0)</title></rect><rect x="282" y="200" width="6" height="0" stroke="black" stroke-width="1" fill="blue" opacity="1" tooltip="enable"><title>(0.0829717,0)</title></rect><rect x="288" y="200" width="6" height="0" stroke="black" stroke-width="1" fill="blue" opacity="1" tooltip="enable"><title>(0.0847371,0)</title></rect><rect x="294" y="200" width="6" height="0" stroke="black" stroke-width="1" fill="blue" opacity="1" tooltip="enable"><title>(0.0865024,0)</title></rect><rect x="300" y="200" width="6" height="0" stroke="black" stroke-width="1" fill="blue" opacity="1" tooltip="enable"><title>(0.0882678,0)</title></rect><rect x="306" y="200" width="6" height="0" stroke="black" stroke-width="1" fill="blue" opacity="1" tooltip="enable"><title>(0.0900332,0)</title></rect><rect x="312" y="200" width="6" height="0" stroke="black" stroke-width="1" fill="blue" opacity="1" tooltip="enable"><title>(0.0917985,0)</title></rect><rect x="318" y="200" width="6" height="0" stroke="black" stroke-width="1" fill="blue" opacity="1" tooltip="enable"><title>(0.0935639,0)</title></rect><rect x="324" y="200" width="6" height="0" stroke="black" stroke-width="1" fill="blue" opacity="1" tooltip="enable"><title>(0.0953292,0)</title></rect><rect x="330" y="200" width="6" height="0" stroke="black" stroke-width="1" fill="blue" opacity="1" tooltip="enable"><title>(0.0970946,0)</title></rect><rect x="336" y="200" width="6" height="0" stroke="black" stroke-width="1" fill="blue" opacity="1" tooltip="enable"><title>(0.0988599,0)</title></rect><rect x="342" y="200" width="6" height="0" stroke="black" stroke-width="1" fill="blue" opacity="1" tooltip="enable"><title>(0.100625,0)</title></rect><rect x="348" y="200" width="6" height="0" stroke="black" stroke-width="1" fill="blue" opacity="1" tooltip="enable"><title>(0.102391,0)</title></rect><rect x="354" y="200" width="6" height="0" stroke="black" stroke-width="1" fill="blue" opacity="1" tooltip="enable"><title>(0.104156,0)</title></rect><rect x="360" y="200" width="6" height="0" stroke="black" stroke-width="1" fill="blue" opacity="1" tooltip="enable"><title>(0.105921,0)</title></rect><rect x="366" y="200" width="6" height="0" stroke="black" stroke-width="1" fill="blue" opacity="1" tooltip="enable"><title>(0.107687,0)</title></rect><rect x="372" y="200" width="6" height="0" stroke="black" stroke-width="1" fill="blue" opacity="1" tooltip="enable"><title>(0.109452,0)</title></rect><rect x="378" y="200" width="6" height="0" stroke="black" stroke-width="1" fill="blue" opacity="1" tooltip="enable"><title>(0.111217,0)</title></rect><rect x="384" y="200" width="6" height="0" stroke="black" stroke-width="1" fill="blue" opacity="1" tooltip="enable"><title>(0.112983,0)</title></rect><rect x="390" y="200" width="6" height="0" stroke="black" stroke-width="1" fill="blue" opacity="1" tooltip="enable"><title>(0.114748,0)</title></rect><rect x="396" y="200" width="6" height="0" stroke="black" stroke-width="1" fill="blue" opacity="1" tooltip="enable"><title>(0.116514,0)</title></rect><rect x="402" y="200" width="6" height="0" stroke="black" stroke-width="1" fill="blue" opacity="1" tooltip="enable"><title>(0.118279,0)</title></rect><rect x="408" y="200" width="6" height="0" stroke="black" stroke-width="1" fill="blue" opacity="1" tooltip="enable"><title>(0.120044,0)</title></rect><rect x="414" y="200" width="6" height="0" stroke="black" stroke-width="1" fill="blue" opacity="1" tooltip="enable"><title>(0.12181,0)</title></rect><rect x="420" y="200" width="6" height="0" stroke="black" stroke-width="1" fill="blue" opacity="1" tooltip="enable"><title>(0.123575,0)</title></rect><rect x="426" y="200" width="6" height="0" stroke="black" stroke-width="1" fill="blue" opacity="1" tooltip="enable"><title>(0.12534,0)</title></rect><rect x="432" y="200" width="6" height="0" stroke="black" stroke-width="1" fill="blue" opacity="1" tooltip="enable"><title>(0.127106,0)</title></rect><rect x="438" y="200" width="6" height="0" stroke="black" stroke-width="1" fill="blue" opacity="1" tooltip="enable"><title>(0.128871,0)</title></rect><rect x="444" y="200" width="6" height="0" stroke="black" stroke-width="1" fill="blue" opacity="1" tooltip="enable"><title>(0.130636,0)</title></rect><rect x="450" y="200" width="6" height="0" stroke="black" stroke-width="1" fill="blue" opacity="1" tooltip="enable"><title>(0.132402,0)</title></rect><rect x="456" y="200" width="6" height="0" stroke="black" stroke-width="1" fill="blue" opacity="1" tooltip="enable"><title>(0.134167,0)</title></rect><rect x="462" y="200" width="6" height="0" stroke="black" stroke-width="1" fill="blue" opacity="1" tooltip="enable"><title>(0.135932,0)</title></rect><rect x="468" y="200" width="6" height="0" stroke="black" stroke-width="1" fill="blue" opacity="1" tooltip="enable"><title>(0.137698,0)</title></rect><rect x="474" y="200" width="6" height="0" stroke="black" stroke-width="1" fill="blue" opacity="1" tooltip="enable"><title>(0.139463,0)</title></rect><rect x="480" y="200" width="6" height="0" stroke="black" stroke-width="1" fill="blue" opacity="1" tooltip="enable"><title>(0.141228,0)</title></rect><rect x="486" y="200" width="6" height="0" stroke="black" stroke-width="1" fill="blue" opacity="1" tooltip="enable"><title>(0.142994,0)</title></rect><rect x="492" y="200" width="6" height="0" stroke="black" stroke-width="1" fill="blue" opacity="1" tooltip="enable"><title>(0.144759,0)</title></rect><rect x="498" y="200" width="6" height="0" stroke="black" stroke-width="1" fill="blue" opacity="1" tooltip="enable"><title>(0.146525,0)</title></rect><rect x="504" y="200" width="6" height="0" stroke="black" stroke-width="1" fill="blue" opacity="1" tooltip="enable"><title>(0.14829,0)</title></rect><rect x="510" y="200" width="6" height="0" stroke="black" stroke-width="1" fill="blue" opacity="1" tooltip="enable"><title>(0.150055,0)</title></rect><rect x="516" y="200" width="6" height="0" stroke="black" stroke-width="1" fill="blue" opacity="1" tooltip="enable"><title>(0.151821,0)</title></rect><rect x="522" y="200" width="6" height="0" stroke="black" stroke-width="1" fill="blue" opacity="1" tooltip="enable"><title>(0.153586,0)</title></rect><rect x="528" y="200" width="6" height="0" stroke="black" stroke-width="1" fill="blue" opacity="1" tooltip="enable"><title>(0.155351,0)</title></rect><rect x="534" y="200" width="6" height="0" stroke="black" stroke-width="1" fill="blue" opacity="1" tooltip="enable"><title>(0.157117,0)</title></rect><rect x="540" y="200" width="6" height="0" stroke="black" stroke-width="1" fill="blue" opacity="1" tooltip="enable"><title>(0.158882,0)</title></rect><rect x="546" y="200" width="6" height="0" stroke="black" stroke-width="1" fill="blue" opacity="1" tooltip="enable"><title>(0.160647,0)</title></rect><rect x="552" y="200" width="6" height="0" stroke="black" stroke-width="1" fill="blue" opacity="1" tooltip="enable"><title>(0.162413,0)</title></rect><rect x="558" y="200" width="6" height="0" stroke="black" stroke-width="1" fill="blue" opacity="1" tooltip="enable"><title>(0.164178,0)</title></rect><rect x="564" y="200" width="6" height="0" stroke="black" stroke-width="1" fill="blue" opacity="1" tooltip="enable"><title>(0.165943,0)</title></rect><rect x="570" y="200" width="6" height="0" stroke="black" stroke-width="1" fill="blue" opacity="1" tooltip="enable"><title>(0.167709,0)</title></rect><rect x="576" y="200" width="6" height="0" stroke="black" stroke-width="1" fill="blue" opacity="1" tooltip="enable"><title>(0.169474,0)</title></rect><rect x="582" y="200" width="6" height="0" stroke="black" stroke-width="1" fill="blue" opacity="1" tooltip="enable"><title>(0.17124,0)</title></rect><rect x="588" y="200" width="6" height="0" stroke="black" stroke-width="1" fill="blue" opacity="1" tooltip="enable"><title>(0.173005,0)</title></rect><rect x="594" y="199.793" width="6" height="0.207469" stroke="black" stroke-width="1" fill="blue" opacity="1" tooltip="enable"><title>(0.17477,2)</title></rect><text x="30" y="240" font-size="20" fill="black">0</text>
<text x="600" y="240" font-size="20" fill="black">0.176536</text>
<polyline points="0,220,600,220" stroke="black" stroke-width="1" fill="none" opacity="1"/>
<text x="720" y="20" font-size="20" fill="black">1928</text>
<text x="720" y="200" font-size="20" fill="black">0</text>
<polyline points="660,0,660,200" stroke="black" stroke-width="1" fill="none" opacity="1"/>
</svg>