<?xml version="1.0" standalone="yes"?>
<!-- SVG graphic -->
<svg xmlns='http://www.w3.org/2000/svg' xmlns:xlink='http://www.w3.org/1999/xlink'
 version="1.1">
<rect x="0" y="0" width="6" height="200" stroke="black" stroke-width="1" fill="blue" opacity="1" tooltip="enable"><title>(0,1630)</title></rect><rect x="6" y="12.5153" width="6" height="187.485" stroke="black" stroke-width="1" fill="blue" opacity="1" tooltip="enable"><title>(0.00134378,1528)</title></rect><rect x="12" y="80" width="6" height="120" stroke="black" stroke-width="1" fill="blue" opacity="1" tooltip="enable"><title>(0.00268756,978)</title></rect><rect x="18" y="152.515" width="6" height="47.4847" stroke="black" stroke-width="1" fill="blue" opacity="1" tooltip="enable"><title>(0.00403134,387)</title></rect><rect x="24" y="179.755" width="6" height="20.2454" stroke="black" stroke-width="1" fill="blue" opacity="1" tooltip="enable"><title>(0.00537512,165)</title></rect><rect x="30" y="183.681" width="6" height="16.319" stroke="black" stroke-width="1" fill="blue" opacity="1" tooltip="enable"><title>(0.0067189,133)</title></rect><rect x="36" y="182.945" width="6" height="17.0552" stroke="black" stroke-width="1" fill="blue" opacity="1" tooltip="enable"><title>(0.00806268,139)</title></rect><rect x="42" y="178.65" width="6" height="21.3497" stroke="black" stroke-width="1" fill="blue" opacity="1" tooltip="enable"><title>(0.00940646,174)</title></rect><rect x="48" y="182.454" width="6" height="17.546" stroke="black" stroke-width="1" fill="blue" opacity="1" tooltip="enable"><title>(0.0107502,143)</title></rect><rect x="54" y="183.681" width="6" height="16.319" stroke="black" stroke-width="1" fill="blue" opacity="1" tooltip="enable"><title>(0.012094,133)</title></rect><rect x="60" y="182.209" width="6" height="17.7914" stroke="black" stroke-width="1" fill="blue" opacity="1" tooltip="enable"><title>(0.0134378,145)</title></rect><rect x="66" y="182.699" width="6" height="17.3006" stroke="black" stroke-width="1" fill="blue" opacity="1" tooltip="enable"><title>(0.0147816,141)</title></rect><rect x="72" y="182.331" width="6" height="17.6687" stroke="black" stroke-width="1" fill="blue" opacity="1" tooltip="enable"><title>(0.0161254,144)</title></rect><rect x="78" y="186.626" width="6" height="13.3742" stroke="black" stroke-width="1" fill="blue" opacity="1" tooltip="enable"><title>(0.0174691,109)</title></rect><rect x="84" y="184.785" width="6" height="15.2147" stroke="black" stroke-width="1" fill="blue" opacity="1" tooltip="enable"><title>(0.0188129,124)</title></rect><rect x="90" y="183.681" width="6" height="16.319" stroke="black" stroke-width="1" fill="blue" opacity="1" tooltip="enable"><title>(0.0201567,133)</title></rect><rect x="96" y="183.313" width="6" height="16.6871" stroke="black" stroke-width="1" fill="blue" opacity="1" tooltip="enable"><title>(0.0215005,136)</title></rect><rect x="102" y="180.736" width="6" height="19.2638" stroke="black" stroke-width="1" fill="blue" opacity="1" tooltip="enable"><title>(0.0228443,157)</title></rect><rect x="108" y="183.804" width="6" height="16.1963" stroke="black" stroke-width="1" fill="blue" opacity="1" tooltip="enable"><title>(0.024188,132)</title></rect><rect x="114" y="184.908" width="6" height="15.092" stroke="black" stroke-width="1" fill="blue" opacity="1" tooltip="enable"><title>(0.0255318,123)</title></rect><rect x="120" y="185.644" width="6" height="14.3558" stroke="black" stroke-width="1" fill="blue" opacity="1" tooltip="enable"><title>(0.0268756,117)</title></rect><rect x="126" y="187.853" width="6" height="12.1472" stroke="black" stroke-width="1" fill="blue" opacity="1" tooltip="enable"><title>(0.0282194,99)</title></rect><rect x="132" y="185.521" width="6" height="14.4785" stroke="black" stroke-width="1" fill="blue" opacity="1" tooltip="enable"><title>(0.0295632,118)</title></rect><rect x="138" y="188.589" width="6" height="11.411" stroke="black" stroke-width="1" fill="blue" opacity="1" tooltip="enable"><title>(0.0309069,93)</title></rect><rect x="144" y="187.117" width="6" height="12.8834" stroke="black" stroke-width="1" fill="blue" opacity="1" tooltip="enable"><title>(0.0322507,105)</title></rect><rect x="150" y="189.693" width="6" height="10.3067" stroke="black" stroke-width="1" fill="blue" opacity="1" tooltip="enable"><title>(0.0335945,84)</title></rect><rect x="156" y="188.834" width="6" height="11.1656" stroke="black" stroke-width="1" fill="blue" opacity="1" tooltip="enable"><title>(0.0349383,91)</title></rect><rect x="162" y="189.571" width="6" height="10.4294" stroke="black" stroke-width="1" fill="blue" opacity="1" tooltip="enable"><title>(0.0362821,85)</title></rect><rect x="168" y="193.62" width="6" height="6.38037" stroke="black" stroke-width="1" fill="blue" opacity="1" tooltip="enable"><title>(0.0376258,52)</title></rect><rect x="174" y="193.62" width="6" height="6.38037" stroke="black" stroke-width="1" fill="blue" opacity="1" tooltip="enable"><title>(0.0389696,52)</title></rect><rect x="180" y="193.62" width="6" height="6.38037" stroke="black" stroke-width="1" fill="blue" opacity="1" tooltip="enable"><title>(0.0403134,52)</title></rect><rect x="186" y="195.828" width="6" height="4.17178" stroke="black" stroke-width="1" fill="blue" opacity="1" tooltip="enable"><title>(0.0416572,34)</title></rect><rect x="192" y="195.583" width="6" height="4.41718" stroke="black" stroke-width="1" fill="blue" opacity="1" tooltip="enable"><title>(0.043001,36)</title></rect><rect x="198" y="194.969" width="6" height="5.03067" stroke="black" stroke-width="1" fill="blue" opacity="1" tooltip="enable"><title>(0.0443447,41)</title></rect><rect x="204" y="195.951" width="6" height="4.04908" stroke="black" stroke-width="1" fill="blue" opacity="1" tooltip="enable"><title>(0.0456885,33)</title></rect><rect x="210" y="198.037" width="6" height="1.96319" stroke="black" stroke-width="1" fill="blue" opacity="1" tooltip="enable"><title>(0.0470323,16)</title></rect><rect x="216" y="197.546" width="6" height="2.45399" stroke="black" stroke-width="1" fill="blue" opacity="1" tooltip="enable"><title>(0.0483761,20)</title></rect><rect x="222" y="196.074" width="6" height="3.92638" stroke="black" stroke-width="1" fill="blue" opacity="1" tooltip="enable"><title>(0.0497199,32)</title></rect><rect x="228" y="197.791" width="6" height="2.20859" stroke="black" stroke-width="1" fill="blue" opacity="1" tooltip="enable"><title>(0.0510636,18)</title></rect><rect x="234" y="198.282" width="6" height="1.71779" stroke="black" stroke-width="1" fill="blue" opacity="1" tooltip="enable"><title>(0.0524074,14)</title></rect><rect x="240" y="199.264" width="6" height="0.736196" stroke="black" stroke-width="1" fill="blue" opacity="1" tooltip="enable"><title>(0.0537512,6)</title></rect><rect x="246" y="198.773" width="6" height="1.22699" stroke="black" stroke-width="1" fill="blue" opacity="1" tooltip="enable"><title>(0.055095,10)</title></rect><rect x="252" y="199.141" width="6" height="0.858896" stroke="black" stroke-width="1" fill="blue" opacity="1" tooltip="enable"><title>(0.0564388,7)</title></rect><rect x="258" y="199.387" width="6" height="0.613497" stroke="black" stroke-width="1" fill="blue" opacity="1" tooltip="enable"><title>(0.0577825,5)</title></rect><rect x="264" y="199.264" width="6" height="0.736196" stroke="black" stroke-width="1" fill="blue" opacity="1" tooltip="enable"><title>(0.0591263,6)</title></rect><rect x="270" y="199.264" width="6" height="0.736196" stroke="black" stroke-width="1" fill="blue" opacity="1" tooltip="enable"><title>(0.0604701,6)</title></rect><rect x="276" y="199.755" width="6" height="0.245399" stroke="black" stroke-width="1" fill="blue" opacity="1" tooltip="enable"><title>(0.0618139,2)</title></rect><rect x="282" y="200" width="6" height="0" stroke="black" stroke-width="1" fill="blue" opacity="1" tooltip="enable"><title>(0.0631577,0)</title></rect><rect x="288" y="199.755" width="6" height="0.245399" stroke="black" stroke-width="1" fill="blue" opacity="1" tooltip="enable"><title>(0.0645014,2)</title></rect><rect x="294" y="200" width="6" height="0" stroke="black" stroke-width="1" fill="blue" opacity="1" tooltip="enable"><title>(0.0658452,0)</title></rect><rect x="300" y="200" width="6" height="0" stroke="black" stroke-width="1" fill="blue" opacity="1" tooltip="enable"><title>(0.067189,0)</title></rect><rect x="306" y="200" width="6" height="0" stroke="black" stroke-width="1" fill="blue" opacity="1" tooltip="enable"><title>(0.0685328,0)</title></rect><rect x="312" y="200" width="6" height="0" stroke="black" stroke-width="1" fill="blue" opacity="1" tooltip="enable"><title>(0.0698766,0)</title></rect><rect x="318" y="200" width="6" height="0" stroke="black" stroke-width="1" fill="blue" opacity="1" tooltip="enable"><title>(0.0712203,0)</title></rect><rect x="324" y="200" width="6" height="0" stroke="black" stroke-width="1" fill="blue" opacity="1" tooltip="enable"><title>(0.0725641,0)</title></rect><rect x="330" y="200" width="6" height="0" stroke="black" stroke-width="1" fill="blue" opacity="1" tooltip="enable"><title>(0.0739079,0)</title></rect><rect x="336" y="200" width="6" height="0" stroke="black" stroke-width="1" fill="blue" opacity="1" tooltip="enable"><title>(0.0752517,0)</title></rect><rect x="342" y="200" width="6" height="0" stroke="black" stroke-width="1" fill="blue" opacity="1" tooltip="enable"><title>(0.0765955,0)</title></rect><rect x="348" y="200" width="6" height="0" stroke="black" stroke-width="1" fill="blue" opacity="1" tooltip="enable"><title>(0.0779392,0)</title></rect><rect x="354" y="200" width="6" height="0" stroke="black" stroke-width="1" fill="blue" opacity="1" tooltip="enable"><title>(0.079283,0)</title></rect><rect x="360" y="200" width="6" height="0" stroke="black" stroke-width="1" fill="blue" opacity="1" tooltip="enable"><title>(0.0806268,0)</title></rect><rect x="366" y="200" width="6" height="0" stroke="black" stroke-width="1" fill="blue" opacity="1" tooltip="enable"><title>(0.0819706,0)</title></rect><rect x="372" y="200" width="6" height="0" stroke="black" stroke-width="1" fill="blue" opacity="1" tooltip="enable"><title>(0.0833144,0)</title></rect><rect x="378" y="200" width="6" height="0" stroke="black" stroke-width="1" fill="blue" opacity="1" tooltip="enable"><title>(0.0846581,0)</title></rect><rect x="384" y="200" width="6" height="0" stroke="black" stroke-width="1" fill="blue" opacity="1" tooltip="enable"><title>(0.0860019,0)</title></rect><rect x="390" y="200" width="6" height="0" stroke="black" stroke-width="1" fill="blue" opacity="1" tooltip="enable"><title>(0.0873457,0)</title></rect><rect x="396" y="200" width="6" height="0" stroke="black" stroke-width="1" fill="blue" opacity="1" tooltip="enable"><title>(0.0886895,0)</title></rect><rect x="402" y="200" width="6" height="0" stroke="black" stroke-width="1" fill="blue" opacity="1" tooltip="enable"><title>(0.0900333,0)</title></rect><rect x="408" y="200" width="6" height="0" stroke="black" stroke-width="1" fill="blue" opacity="1" tooltip="enable"><title>(0.091377,0)</title></rect><rect x="414" y="200" width="6" height="0" stroke="black" stroke-width="1" fill="blue" opacity="1" tooltip="enable"><title>(0.0927208,0)</title></rect><rect x="420" y="200" width="6" height="0" stroke="black" stroke-width="1" fill="blue" opacity="1" tooltip="enable"><title>(0.0940646,0)</title></rect><rect x="426" y="200" width="6" height="0" stroke="black" stroke-width="1" fill="blue" opacity="1" tooltip="enable"><title>(0.0954084,0)</title></rect><rect x="432" y="200" width="6" height="0" stroke="black" stroke-width="1" fill="blue" opacity="1" tooltip="enable"><title>(0.0967522,0)</title></rect><rect x="438" y="200" width="6" height="0" stroke="black" stroke-width="1" fill="blue" opacity="1" tooltip="enable"><title>(0.0980959,0)</title></rect><rect x="444" y="200" width="6" height="0" stroke="black" stroke-width="1" fill="blue" opacity="1" tooltip="enable"><title>(0.0994397,0)</title></rect><rect x="450" y="200" width="6" height="0" stroke="black" stroke-width="1" fill="blue" opacity="1" tooltip="enable"><title>(0.100783,0)</title></rect><rect x="456" y="200" width="6" height="0" stroke="black" stroke-width="1" fill="blue" opacity="1" tooltip="enable"><title>(0.102127,0)</title></rect><rect x="462" y="200" width="6" height="0" stroke="black" stroke-width="1" fill="blue" opacity="1" tooltip="enable"><title>(0.103471,0)</title></rect><rect x="468" y="200" width="6" height="0" stroke="black" stroke-width="1" fill="blue" opacity="1" tooltip="enable"><title>(0.104815,0)</title></rect><rect x="474" y="200" width="6" height="0" stroke="black" stroke-width="1" fill="blue" opacity="1" tooltip="enable"><title>(0.106159,0)</title></rect><rect x="480" y="200" width="6" height="0" stroke="black" stroke-width="1" fill="blue" opacity="1" tooltip="enable"><title>(0.107502,0)</title></rect><rect x="486" y="199.755" width="6" height="0.245399" stroke="black" stroke-width="1" fill="blue" opacity="1" tooltip="enable"><title>(0.108846,2)</title></rect><rect x="492" y="200" width="6" height="0" stroke="black" stroke-width="1" fill="blue" opacity="1" tooltip="enable"><title>(0.11019,0)</title></rect><rect x="498" y="200" width="6" height="0" stroke="black" stroke-width="1" fill="blue" opacity="1" tooltip="enable"><title>(0.111534,0)</title></rect><rect x="504" y="200" width="6" height="0" stroke="black" stroke-width="1" fill="blue" opacity="1" tooltip="enable"><title>(0.112878,0)</title></rect><rect x="510" y="200" width="6" height="0" stroke="black" stroke-width="1" fill="blue" opacity="1" tooltip="enable"><title>(0.114221,0)</title></rect><rect x="516" y="200" width="6" height="0" stroke="black" stroke-width="1" fill="blue" opacity="1" tooltip="enable"><title>(0.115565,0)</title></rect><rect x="522" y="200" width="6" height="0" stroke="black" stroke-width="1" fill="blue" opacity="1" tooltip="enable"><title>(0.116909,0)</title></rect><rect x="528" y="200" width="6" height="0" stroke="black" stroke-width="1" fill="blue" opacity="1" tooltip="enable"><title>(0.118253,0)</title></rect><rect x="534" y="200" width="6" height="0" stroke="black" stroke-width="1" fill="blue" opacity="1" tooltip="enable"><title>(0.119596,0)</title></rect><rect x="540" y="199.877" width="6" height="0.122699" stroke="black" stroke-width="1" fill="blue" opacity="1" tooltip="enable"><title>(0.12094,1)</title></rect><rect x="546" y="199.877" width="6" height="0.122699" stroke="black" stroke-width="1" fill="blue" opacity="1" tooltip="enable"><title>(0.122284,1)</title></rect><rect x="552" y="200" width="6" height="0" stroke="black" stroke-width="1" fill="blue" opacity="1" tooltip="enable"><title>(0.123628,0)</title></rect><rect x="558" y="199.755" width="6" height="0.245399" stroke="black" stroke-width="1" fill="blue" opacity="1" tooltip="enable"><title>(0.124972,2)</title></rect><rect x="564" y="200" width="6" height="0" stroke="black" stroke-width="1" fill="blue" opacity="1" tooltip="enable"><title>(0.126315,0)</title></rect><rect x="570" y="200" width="6" height="0" stroke="black" stroke-width="1" fill="blue" opacity="1" tooltip="enable"><title>(0.127659,0)</title></rect><rect x="576" y="199.877" width="6" height="0.122699" stroke="black" stroke-width="1" fill="blue" opacity="1" tooltip="enable"><title>(0.129003,1)</title></rect><rect x="582" y="199.877" width="6" height="0.122699" stroke="black" stroke-width="1" fill="blue" opacity="1" tooltip="enable"><title>(0.130347,1)</title></rect><rect x="588" y="200" width="6" height="0" stroke="black" stroke-width="1" fill="blue" opacity="1" tooltip="enable"><title>(0.13169,0)</title></rect><rect x="594" y="199.877" width="6" height="0.122699" stroke="black" stroke-width="1" fill="blue" opacity="1" tooltip="enable"><title>(0.133034,1)</title></rect><text x="30" y="240" font-size="20" fill="black">0</text>
<text x="600" y="240" font-size="20" fill="black">0.134378</text>
<polyline points="0,220,600,220" stroke="black" stroke-width="1" fill="none" opacity="1"/>
<text x="720" y="20" font-size="20" fill="black">1630</text>
<text x="720" y="200" font-size="20" fill="black">0</text>
<polyline points="660,0,660,200" stroke="black" stroke-width="1" fill="none" opacity="1"/>
</svg>