<?xml version="1.0" standalone="yes"?>
<!-- SVG graphic -->
<svg xmlns='http://www.w3.org/2000/svg' xmlns:xlink='http://www.w3.org/1999/xlink'
 version="1.1">
<rect x="0" y="12.2191" width="6" height="187.781" stroke="black" stroke-width="1" fill="blue" opacity="1" tooltip="enable"><title>(0,1337)</title></rect><rect x="6" y="0" width="6" height="200" stroke="black" stroke-width="1" fill="blue" opacity="1" tooltip="enable"><title>(0.00141271,1424)</title></rect><rect x="12" y="50.8427" width="6" height="149.157" stroke="black" stroke-width="1" fill="blue" opacity="1" tooltip="enable"><title>(0.00282541,1062)</title></rect><rect x="18" y="118.82" width="6" height="81.1798" stroke="black" stroke-width="1" fill="blue" opacity="1" tooltip="enable"><title>(0.00423812,578)</title></rect><rect x="24" y="171.629" width="6" height="28.3708" stroke="black" stroke-width="1" fill="blue" opacity="1" tooltip="enable"><title>(0.00565083,202)</title></rect><rect x="30" y="181.601" width="6" height="18.3989" stroke="black" stroke-width="1" fill="blue" opacity="1" tooltip="enable"><title>(0.00706354,131)</title></rect><rect x="36" y="182.303" width="6" height="17.6966" stroke="black" stroke-width="1" fill="blue" opacity="1" tooltip="enable"><title>(0.00847624,126)</title></rect><rect x="42" y="185.534" width="6" height="14.4663" stroke="black" stroke-width="1" fill="blue" opacity="1" tooltip="enable"><title>(0.00988895,103)</title></rect><rect x="48" y="180.197" width="6" height="19.8034" stroke="black" stroke-width="1" fill="blue" opacity="1" tooltip="enable"><title>(0.0113017,141)</title></rect><rect x="54" y="187.921" width="6" height="12.0787" stroke="black" stroke-width="1" fill="blue" opacity="1" tooltip="enable"><title>(0.0127144,86)</title></rect><rect x="60" y="184.972" width="6" height="15.0281" stroke="black" stroke-width="1" fill="blue" opacity="1" tooltip="enable"><title>(0.0141271,107)</title></rect><rect x="66" y="185.534" width="6" height="14.4663" stroke="black" stroke-width="1" fill="blue" opacity="1" tooltip="enable"><title>(0.0155398,103)</title></rect><rect x="72" y="181.18" width="6" height="18.8202" stroke="black" stroke-width="1" fill="blue" opacity="1" tooltip="enable"><title>(0.0169525,134)</title></rect><rect x="78" y="181.32" width="6" height="18.6798" stroke="black" stroke-width="1" fill="blue" opacity="1" tooltip="enable"><title>(0.0183652,133)</title></rect><rect x="84" y="181.742" width="6" height="18.2584" stroke="black" stroke-width="1" fill="blue" opacity="1" tooltip="enable"><title>(0.0197779,130)</title></rect><rect x="90" y="181.601" width="6" height="18.3989" stroke="black" stroke-width="1" fill="blue" opacity="1" tooltip="enable"><title>(0.0211906,131)</title></rect><rect x="96" y="181.32" width="6" height="18.6798" stroke="black" stroke-width="1" fill="blue" opacity="1" tooltip="enable"><title>(0.0226033,133)</title></rect><rect x="102" y="181.882" width="6" height="18.118" stroke="black" stroke-width="1" fill="blue" opacity="1" tooltip="enable"><title>(0.024016,129)</title></rect><rect x="108" y="181.601" width="6" height="18.3989" stroke="black" stroke-width="1" fill="blue" opacity="1" tooltip="enable"><title>(0.0254287,131)</title></rect><rect x="114" y="184.129" width="6" height="15.8708" stroke="black" stroke-width="1" fill="blue" opacity="1" tooltip="enable"><title>(0.0268414,113)</title></rect><rect x="120" y="182.584" width="6" height="17.4157" stroke="black" stroke-width="1" fill="blue" opacity="1" tooltip="enable"><title>(0.0282541,124)</title></rect><rect x="126" y="188.483" width="6" height="11.5169" stroke="black" stroke-width="1" fill="blue" opacity="1" tooltip="enable"><title>(0.0296669,82)</title></rect><rect x="132" y="186.938" width="6" height="13.0618" stroke="black" stroke-width="1" fill="blue" opacity="1" tooltip="enable"><title>(0.0310796,93)</title></rect><rect x="138" y="183.427" width="6" height="16.573" stroke="black" stroke-width="1" fill="blue" opacity="1" tooltip="enable"><title>(0.0324923,118)</title></rect><rect x="144" y="183.708" width="6" height="16.2921" stroke="black" stroke-width="1" fill="blue" opacity="1" tooltip="enable"><title>(0.033905,116)</title></rect><rect x="150" y="183.146" width="6" height="16.8539" stroke="black" stroke-width="1" fill="blue" opacity="1" tooltip="enable"><title>(0.0353177,120)</title></rect><rect x="156" y="183.848" width="6" height="16.1517" stroke="black" stroke-width="1" fill="blue" opacity="1" tooltip="enable"><title>(0.0367304,115)</title></rect><rect x="162" y="189.045" width="6" height="10.9551" stroke="black" stroke-width="1" fill="blue" opacity="1" tooltip="enable"><title>(0.0381431,78)</title></rect><rect x="168" y="188.202" width="6" height="11.7978" stroke="black" stroke-width="1" fill="blue" opacity="1" tooltip="enable"><title>(0.0395558,84)</title></rect><rect x="174" y="187.5" width="6" height="12.5" stroke="black" stroke-width="1" fill="blue" opacity="1" tooltip="enable"><title>(0.0409685,89)</title></rect><rect x="180" y="191.433" width="6" height="8.56742" stroke="black" stroke-width="1" fill="blue" opacity="1" tooltip="enable"><title>(0.0423812,61)</title></rect><rect x="186" y="192.416" width="6" height="7.58427" stroke="black" stroke-width="1" fill="blue" opacity="1" tooltip="enable"><title>(0.0437939,54)</title></rect><rect x="192" y="191.433" width="6" height="8.56742" stroke="black" stroke-width="1" fill="blue" opacity="1" tooltip="enable"><title>(0.0452066,61)</title></rect><rect x="198" y="191.713" width="6" height="8.28652" stroke="black" stroke-width="1" fill="blue" opacity="1" tooltip="enable"><title>(0.0466193,59)</title></rect><rect x="204" y="197.191" width="6" height="2.80899" stroke="black" stroke-width="1" fill="blue" opacity="1" tooltip="enable"><title>(0.0480321,20)</title></rect><rect x="210" y="195.646" width="6" height="4.35393" stroke="black" stroke-width="1" fill="blue" opacity="1" tooltip="enable"><title>(0.0494448,31)</title></rect><rect x="216" y="195.927" width="6" height="4.07303" stroke="black" stroke-width="1" fill="blue" opacity="1" tooltip="enable"><title>(0.0508575,29)</title></rect><rect x="222" y="197.191" width="6" height="2.80899" stroke="black" stroke-width="1" fill="blue" opacity="1" tooltip="enable"><title>(0.0522702,20)</title></rect><rect x="228" y="196.91" width="6" height="3.08989" stroke="black" stroke-width="1" fill="blue" opacity="1" tooltip="enable"><title>(0.0536829,22)</title></rect><rect x="234" y="196.348" width="6" height="3.65169" stroke="black" stroke-width="1" fill="blue" opacity="1" tooltip="enable"><title>(0.0550956,26)</title></rect><rect x="240" y="197.331" width="6" height="2.66854" stroke="black" stroke-width="1" fill="blue" opacity="1" tooltip="enable"><title>(0.0565083,19)</title></rect><rect x="246" y="196.77" width="6" height="3.23034" stroke="black" stroke-width="1" fill="blue" opacity="1" tooltip="enable"><title>(0.057921,23)</title></rect><rect x="252" y="198.315" width="6" height="1.68539" stroke="black" stroke-width="1" fill="blue" opacity="1" tooltip="enable"><title>(0.0593337,12)</title></rect><rect x="258" y="198.876" width="6" height="1.1236" stroke="black" stroke-width="1" fill="blue" opacity="1" tooltip="enable"><title>(0.0607464,8)</title></rect><rect x="264" y="197.472" width="6" height="2.52809" stroke="black" stroke-width="1" fill="blue" opacity="1" tooltip="enable"><title>(0.0621591,18)</title></rect><rect x="270" y="199.157" width="6" height="0.842697" stroke="black" stroke-width="1" fill="blue" opacity="1" tooltip="enable"><title>(0.0635718,6)</title></rect><rect x="276" y="197.753" width="6" height="2.24719" stroke="black" stroke-width="1" fill="blue" opacity="1" tooltip="enable"><title>(0.0649845,16)</title></rect><rect x="282" y="198.174" width="6" height="1.82584" stroke="black" stroke-width="1" fill="blue" opacity="1" tooltip="enable"><title>(0.0663972,13)</title></rect><rect x="288" y="199.579" width="6" height="0.421348" stroke="black" stroke-width="1" fill="blue" opacity="1" tooltip="enable"><title>(0.06781,3)</title></rect><rect x="294" y="200" width="6" height="0" stroke="black" stroke-width="1" fill="blue" opacity="1" tooltip="enable"><title>(0.0692227,0)</title></rect><rect x="300" y="200" width="6" height="0" stroke="black" stroke-width="1" fill="blue" opacity="1" tooltip="enable"><title>(0.0706354,0)</title></rect><rect x="306" y="200" width="6" height="0" stroke="black" stroke-width="1" fill="blue" opacity="1" tooltip="enable"><title>(0.0720481,0)</title></rect><rect x="312" y="199.438" width="6" height="0.561798" stroke="black" stroke-width="1" fill="blue" opacity="1" tooltip="enable"><title>(0.0734608,4)</title></rect><rect x="318" y="199.719" width="6" height="0.280899" stroke="black" stroke-width="1" fill="blue" opacity="1" tooltip="enable"><title>(0.0748735,2)</title></rect><rect x="324" y="199.719" width="6" height="0.280899" stroke="black" stroke-width="1" fill="blue" opacity="1" tooltip="enable"><title>(0.0762862,2)</title></rect><rect x="330" y="199.719" width="6" height="0.280899" stroke="black" stroke-width="1" fill="blue" opacity="1" tooltip="enable"><title>(0.0776989,2)</title></rect><rect x="336" y="200" width="6" height="0" stroke="black" stroke-width="1" fill="blue" opacity="1" tooltip="enable"><title>(0.0791116,0)</title></rect><rect x="342" y="199.719" width="6" height="0.280899" stroke="black" stroke-width="1" fill="blue" opacity="1" tooltip="enable"><title>(0.0805243,2)</title></rect><rect x="348" y="200" width="6" height="0" stroke="black" stroke-width="1" fill="blue" opacity="1" tooltip="enable"><title>(0.081937,0)</title></rect><rect x="354" y="200" width="6" height="0" stroke="black" stroke-width="1" fill="blue" opacity="1" tooltip="enable"><title>(0.0833497,0)</title></rect><rect x="360" y="200" width="6" height="0" stroke="black" stroke-width="1" fill="blue" opacity="1" tooltip="enable"><title>(0.0847624,0)</title></rect><rect x="366" y="200" width="6" height="0" stroke="black" stroke-width="1" fill="blue" opacity="1" tooltip="enable"><title>(0.0861752,0)</title></rect><rect x="372" y="200" width="6" height="0" stroke="black" stroke-width="1" fill="blue" opacity="1" tooltip="enable"><title>(0.0875879,0)</title></rect><rect x="378" y="199.157" width="6" height="0.842697" stroke="black" stroke-width="1" fill="blue" opacity="1" tooltip="enable"><title>(0.0890006,6)</title></rect><rect x="384" y="200" width="6" height="0" stroke="black" stroke-width="1" fill="blue" opacity="1" tooltip="enable"><title>(0.0904133,0)</title></rect><rect x="390" y="199.719" width="6" height="0.280899" stroke="black" stroke-width="1" fill="blue" opacity="1" tooltip="enable"><title>(0.091826,2)</title></rect><rect x="396" y="200" width="6" height="0" stroke="black" stroke-width="1" fill="blue" opacity="1" tooltip="enable"><title>(0.0932387,0)</title></rect><rect x="402" y="200" width="6" height="0" stroke="black" stroke-width="1" fill="blue" opacity="1" tooltip="enable"><title>(0.0946514,0)</title></rect><rect x="408" y="199.719" width="6" height="0.280899" stroke="black" stroke-width="1" fill="blue" opacity="1" tooltip="enable"><title>(0.0960641,2)</title></rect><rect x="414" y="199.719" width="6" height="0.280899" stroke="black" stroke-width="1" fill="blue" opacity="1" tooltip="enable"><title>(0.0974768,2)</title></rect><rect x="420" y="199.719" width="6" height="0.280899" stroke="black" stroke-width="1" fill="blue" opacity="1" tooltip="enable"><title>(0.0988895,2)</title></rect><rect x="426" y="200" width="6" height="0" stroke="black" stroke-width="1" fill="blue" opacity="1" tooltip="enable"><title>(0.100302,0)</title></rect><rect x="432" y="200" width="6" height="0" stroke="black" stroke-width="1" fill="blue" opacity="1" tooltip="enable"><title>(0.101715,0)</title></rect><rect x="438" y="200" width="6" height="0" stroke="black" stroke-width="1" fill="blue" opacity="1" tooltip="enable"><title>(0.103128,0)</title></rect><rect x="444" y="199.438" width="6" height="0.561798" stroke="black" stroke-width="1" fill="blue" opacity="1" tooltip="enable"><title>(0.10454,4)</title></rect><rect x="450" y="200" width="6" height="0" stroke="black" stroke-width="1" fill="blue" opacity="1" tooltip="enable"><title>(0.105953,0)</title></rect><rect x="456" y="199.719" width="6" height="0.280899" stroke="black" stroke-width="1" fill="blue" opacity="1" tooltip="enable"><title>(0.107366,2)</title></rect><rect x="462" y="200" width="6" height="0" stroke="black" stroke-width="1" fill="blue" opacity="1" tooltip="enable"><title>(0.108778,0)</title></rect><rect x="468" y="200" width="6" height="0" stroke="black" stroke-width="1" fill="blue" opacity="1" tooltip="enable"><title>(0.110191,0)</title></rect><rect x="474" y="199.719" width="6" height="0.280899" stroke="black" stroke-width="1" fill="blue" opacity="1" tooltip="enable"><title>(0.111604,2)</title></rect><rect x="480" y="200" width="6" height="0" stroke="black" stroke-width="1" fill="blue" opacity="1" tooltip="enable"><title>(0.113017,0)</title></rect><rect x="486" y="200" width="6" height="0" stroke="black" stroke-width="1" fill="blue" opacity="1" tooltip="enable"><title>(0.114429,0)</title></rect><rect x="492" y="199.719" width="6" height="0.280899" stroke="black" stroke-width="1" fill="blue" opacity="1" tooltip="enable"><title>(0.115842,2)</title></rect><rect x="498" y="200" width="6" height="0" stroke="black" stroke-width="1" fill="blue" opacity="1" tooltip="enable"><title>(0.117255,0)</title></rect><rect x="504" y="200" width="6" height="0" stroke="black" stroke-width="1" fill="blue" opacity="1" tooltip="enable"><title>(0.118667,0)</title></rect><rect x="510" y="200" width="6" height="0" stroke="black" stroke-width="1" fill="blue" opacity="1" tooltip="enable"><title>(0.12008,0)</title></rect><rect x="516" y="199.719" width="6" height="0.280899" stroke="black" stroke-width="1" fill="blue" opacity="1" tooltip="enable"><title>(0.121493,2)</title></rect><rect x="522" y="200" width="6" height="0" stroke="black" stroke-width="1" fill="blue" opacity="1" tooltip="enable"><title>(0.122906,0)</title></rect><rect x="528" y="200" width="6" height="0" stroke="black" stroke-width="1" fill="blue" opacity="1" tooltip="enable"><title>(0.124318,0)</title></rect><rect x="534" y="199.86" width="6" height="0.140449" stroke="black" stroke-width="1" fill="blue" opacity="1" tooltip="enable"><title>(0.125731,1)</title></rect><rect x="540" y="199.86" width="6" height="0.140449" stroke="black" stroke-width="1" fill="blue" opacity="1" tooltip="enable"><title>(0.127144,1)</title></rect><rect x="546" y="200" width="6" height="0" stroke="black" stroke-width="1" fill="blue" opacity="1" tooltip="enable"><title>(0.128556,0)</title></rect><rect x="552" y="200" width="6" height="0" stroke="black" stroke-width="1" fill="blue" opacity="1" tooltip="enable"><title>(0.129969,0)</title></rect><rect x="558" y="199.438" width="6" height="0.561798" stroke="black" stroke-width="1" fill="blue" opacity="1" tooltip="enable"><title>(0.131382,4)</title></rect><rect x="564" y="200" width="6" height="0" stroke="black" stroke-width="1" fill="blue" opacity="1" tooltip="enable"><title>(0.132794,0)</title></rect><rect x="570" y="200" width="6" height="0" stroke="black" stroke-width="1" fill="blue" opacity="1" tooltip="enable"><title>(0.134207,0)</title></rect><rect x="576" y="200" width="6" height="0" stroke="black" stroke-width="1" fill="blue" opacity="1" tooltip="enable"><title>(0.13562,0)</title></rect><rect x="582" y="200" width="6" height="0" stroke="black" stroke-width="1" fill="blue" opacity="1" tooltip="enable"><title>(0.137033,0)</title></rect><rect x="588" y="200" width="6" height="0" stroke="black" stroke-width="1" fill="blue" opacity="1" tooltip="enable"><title>(0.138445,0)</title></rect><rect x="594" y="199.86" width="6" height="0.140449" stroke="black" stroke-width="1" fill="blue" opacity="1" tooltip="enable"><title>(0.139858,1)</title></rect><text x="30" y="240" font-size="20" fill="black">0</text>
<text x="600" y="240" font-size="20" fill="black">0.141271</text>
<polyline points="0,220,600,220" stroke="black" stroke-width="1" fill="none" opacity="1"/>
<text x="720" y="20" font-size="20" fill="black">1424</text>
<text x="720" y="200" font-size="20" fill="black">0</text>
<polyline points="660,0,660,200" stroke="black" stroke-width="1" fill="none" opacity="1"/>
</svg>