<?xml version="1.0" standalone="yes"?>
<!-- SVG graphic -->
<svg xmlns='http://www.w3.org/2000/svg' xmlns:xlink='http://www.w3.org/1999/xlink'
 version="1.1">
<rect x="0" y="0" width="6" height="200" stroke="black" stroke-width="1" fill="blue" opacity="1" tooltip="enable"><title>(0,1678)</title></rect><rect x="6" y="49.1061" width="6" height="150.894" stroke="black" stroke-width="1" fill="blue" opacity="1" tooltip="enable"><title>(0.000995672,1266)</title></rect><rect x="12" y="102.265" width="6" height="97.7354" stroke="black" stroke-width="1" fill="blue" opacity="1" tooltip="enable"><title>(0.00199134,820)</title></rect><rect x="18" y="141.001" width="6" height="58.9988" stroke="black" stroke-width="1" fill="blue" opacity="1" tooltip="enable"><title>(0.00298702,495)</title></rect><rect x="24" y="172.706" width="6" height="27.2944" stroke="black" stroke-width="1" fill="blue" opacity="1" tooltip="enable"><title>(0.00398269,229)</title></rect><rect x="30" y="184.148" width="6" height="15.8522" stroke="black" stroke-width="1" fill="blue" opacity="1" tooltip="enable"><title>(0.00497836,133)</title></rect><rect x="36" y="187.604" width="6" height="12.3957" stroke="black" stroke-width="1" fill="blue" opacity="1" tooltip="enable"><title>(0.00597403,104)</title></rect><rect x="42" y="185.936" width="6" height="14.0644" stroke="black" stroke-width="1" fill="blue" opacity="1" tooltip="enable"><title>(0.0069697,118)</title></rect><rect x="48" y="187.485" width="6" height="12.5149" stroke="black" stroke-width="1" fill="blue" opacity="1" tooltip="enable"><title>(0.00796537,105)</title></rect><rect x="54" y="188.796" width="6" height="11.2038" stroke="black" stroke-width="1" fill="blue" opacity="1" tooltip="enable"><title>(0.00896105,94)</title></rect><rect x="60" y="187.843" width="6" height="12.1573" stroke="black" stroke-width="1" fill="blue" opacity="1" tooltip="enable"><title>(0.00995672,102)</title></rect><rect x="66" y="186.889" width="6" height="13.1108" stroke="black" stroke-width="1" fill="blue" opacity="1" tooltip="enable"><title>(0.0109524,110)</title></rect><rect x="72" y="186.889" width="6" height="13.1108" stroke="black" stroke-width="1" fill="blue" opacity="1" tooltip="enable"><title>(0.0119481,110)</title></rect><rect x="78" y="187.366" width="6" height="12.6341" stroke="black" stroke-width="1" fill="blue" opacity="1" tooltip="enable"><title>(0.0129437,106)</title></rect><rect x="84" y="188.081" width="6" height="11.919" stroke="black" stroke-width="1" fill="blue" opacity="1" tooltip="enable"><title>(0.0139394,100)</title></rect><rect x="90" y="190.107" width="6" height="9.89273" stroke="black" stroke-width="1" fill="blue" opacity="1" tooltip="enable"><title>(0.0149351,83)</title></rect><rect x="96" y="188.796" width="6" height="11.2038" stroke="black" stroke-width="1" fill="blue" opacity="1" tooltip="enable"><title>(0.0159307,94)</title></rect><rect x="102" y="189.154" width="6" height="10.8462" stroke="black" stroke-width="1" fill="blue" opacity="1" tooltip="enable"><title>(0.0169264,91)</title></rect><rect x="108" y="186.77" width="6" height="13.23" stroke="black" stroke-width="1" fill="blue" opacity="1" tooltip="enable"><title>(0.0179221,111)</title></rect><rect x="114" y="188.319" width="6" height="11.6806" stroke="black" stroke-width="1" fill="blue" opacity="1" tooltip="enable"><title>(0.0189178,98)</title></rect><rect x="120" y="188.915" width="6" height="11.0846" stroke="black" stroke-width="1" fill="blue" opacity="1" tooltip="enable"><title>(0.0199134,93)</title></rect><rect x="126" y="189.273" width="6" height="10.7271" stroke="black" stroke-width="1" fill="blue" opacity="1" tooltip="enable"><title>(0.0209091,90)</title></rect><rect x="132" y="190.226" width="6" height="9.77354" stroke="black" stroke-width="1" fill="blue" opacity="1" tooltip="enable"><title>(0.0219048,82)</title></rect><rect x="138" y="191.895" width="6" height="8.10489" stroke="black" stroke-width="1" fill="blue" opacity="1" tooltip="enable"><title>(0.0229005,68)</title></rect><rect x="144" y="191.418" width="6" height="8.58165" stroke="black" stroke-width="1" fill="blue" opacity="1" tooltip="enable"><title>(0.0238961,72)</title></rect><rect x="150" y="192.849" width="6" height="7.15137" stroke="black" stroke-width="1" fill="blue" opacity="1" tooltip="enable"><title>(0.0248918,60)</title></rect><rect x="156" y="190.465" width="6" height="9.53516" stroke="black" stroke-width="1" fill="blue" opacity="1" tooltip="enable"><title>(0.0258875,80)</title></rect><rect x="162" y="190.942" width="6" height="9.0584" stroke="black" stroke-width="1" fill="blue" opacity="1" tooltip="enable"><title>(0.0268831,76)</title></rect><rect x="168" y="194.398" width="6" height="5.60191" stroke="black" stroke-width="1" fill="blue" opacity="1" tooltip="enable"><title>(0.0278788,47)</title></rect><rect x="174" y="192.491" width="6" height="7.50894" stroke="black" stroke-width="1" fill="blue" opacity="1" tooltip="enable"><title>(0.0288745,63)</title></rect><rect x="180" y="192.61" width="6" height="7.38975" stroke="black" stroke-width="1" fill="blue" opacity="1" tooltip="enable"><title>(0.0298702,62)</title></rect><rect x="186" y="191.657" width="6" height="8.34327" stroke="black" stroke-width="1" fill="blue" opacity="1" tooltip="enable"><title>(0.0308658,70)</title></rect><rect x="192" y="194.517" width="6" height="5.48272" stroke="black" stroke-width="1" fill="blue" opacity="1" tooltip="enable"><title>(0.0318615,46)</title></rect><rect x="198" y="194.875" width="6" height="5.12515" stroke="black" stroke-width="1" fill="blue" opacity="1" tooltip="enable"><title>(0.0328572,43)</title></rect><rect x="204" y="192.968" width="6" height="7.03218" stroke="black" stroke-width="1" fill="blue" opacity="1" tooltip="enable"><title>(0.0338528,59)</title></rect><rect x="210" y="194.041" width="6" height="5.95948" stroke="black" stroke-width="1" fill="blue" opacity="1" tooltip="enable"><title>(0.0348485,50)</title></rect><rect x="216" y="194.16" width="6" height="5.84029" stroke="black" stroke-width="1" fill="blue" opacity="1" tooltip="enable"><title>(0.0358442,49)</title></rect><rect x="222" y="194.636" width="6" height="5.36353" stroke="black" stroke-width="1" fill="blue" opacity="1" tooltip="enable"><title>(0.0368399,45)</title></rect><rect x="228" y="192.133" width="6" height="7.86651" stroke="black" stroke-width="1" fill="blue" opacity="1" tooltip="enable"><title>(0.0378355,66)</title></rect><rect x="234" y="193.802" width="6" height="6.19785" stroke="black" stroke-width="1" fill="blue" opacity="1" tooltip="enable"><title>(0.0388312,52)</title></rect><rect x="240" y="194.994" width="6" height="5.00596" stroke="black" stroke-width="1" fill="blue" opacity="1" tooltip="enable"><title>(0.0398269,42)</title></rect><rect x="246" y="194.756" width="6" height="5.24434" stroke="black" stroke-width="1" fill="blue" opacity="1" tooltip="enable"><title>(0.0408225,44)</title></rect><rect x="252" y="194.994" width="6" height="5.00596" stroke="black" stroke-width="1" fill="blue" opacity="1" tooltip="enable"><title>(0.0418182,42)</title></rect><rect x="258" y="195.471" width="6" height="4.5292" stroke="black" stroke-width="1" fill="blue" opacity="1" tooltip="enable"><title>(0.0428139,38)</title></rect><rect x="264" y="196.305" width="6" height="3.69487" stroke="black" stroke-width="1" fill="blue" opacity="1" tooltip="enable"><title>(0.0438096,31)</title></rect><rect x="270" y="194.517" width="6" height="5.48272" stroke="black" stroke-width="1" fill="blue" opacity="1" tooltip="enable"><title>(0.0448052,46)</title></rect><rect x="276" y="196.544" width="6" height="3.4565" stroke="black" stroke-width="1" fill="blue" opacity="1" tooltip="enable"><title>(0.0458009,29)</title></rect><rect x="282" y="196.901" width="6" height="3.09893" stroke="black" stroke-width="1" fill="blue" opacity="1" tooltip="enable"><title>(0.0467966,26)</title></rect><rect x="288" y="197.974" width="6" height="2.02622" stroke="black" stroke-width="1" fill="blue" opacity="1" tooltip="enable"><title>(0.0477922,17)</title></rect><rect x="294" y="195.828" width="6" height="4.17163" stroke="black" stroke-width="1" fill="blue" opacity="1" tooltip="enable"><title>(0.0487879,35)</title></rect><rect x="300" y="196.782" width="6" height="3.21812" stroke="black" stroke-width="1" fill="blue" opacity="1" tooltip="enable"><title>(0.0497836,27)</title></rect><rect x="306" y="198.451" width="6" height="1.54946" stroke="black" stroke-width="1" fill="blue" opacity="1" tooltip="enable"><title>(0.0507793,13)</title></rect><rect x="312" y="197.259" width="6" height="2.74136" stroke="black" stroke-width="1" fill="blue" opacity="1" tooltip="enable"><title>(0.0517749,23)</title></rect><rect x="318" y="197.974" width="6" height="2.02622" stroke="black" stroke-width="1" fill="blue" opacity="1" tooltip="enable"><title>(0.0527706,17)</title></rect><rect x="324" y="196.901" width="6" height="3.09893" stroke="black" stroke-width="1" fill="blue" opacity="1" tooltip="enable"><title>(0.0537663,26)</title></rect><rect x="330" y="197.616" width="6" height="2.38379" stroke="black" stroke-width="1" fill="blue" opacity="1" tooltip="enable"><title>(0.054762,20)</title></rect><rect x="336" y="197.616" width="6" height="2.38379" stroke="black" stroke-width="1" fill="blue" opacity="1" tooltip="enable"><title>(0.0557576,20)</title></rect><rect x="342" y="197.855" width="6" height="2.14541" stroke="black" stroke-width="1" fill="blue" opacity="1" tooltip="enable"><title>(0.0567533,18)</title></rect><rect x="348" y="198.689" width="6" height="1.31108" stroke="black" stroke-width="1" fill="blue" opacity="1" tooltip="enable"><title>(0.057749,11)</title></rect><rect x="354" y="198.451" width="6" height="1.54946" stroke="black" stroke-width="1" fill="blue" opacity="1" tooltip="enable"><title>(0.0587446,13)</title></rect><rect x="360" y="198.808" width="6" height="1.1919" stroke="black" stroke-width="1" fill="blue" opacity="1" tooltip="enable"><title>(0.0597403,10)</title></rect><rect x="366" y="198.57" width="6" height="1.43027" stroke="black" stroke-width="1" fill="blue" opacity="1" tooltip="enable"><title>(0.060736,12)</title></rect><rect x="372" y="198.451" width="6" height="1.54946" stroke="black" stroke-width="1" fill="blue" opacity="1" tooltip="enable"><title>(0.0617317,13)</title></rect><rect x="378" y="198.927" width="6" height="1.07271" stroke="black" stroke-width="1" fill="blue" opacity="1" tooltip="enable"><title>(0.0627273,9)</title></rect><rect x="384" y="199.046" width="6" height="0.953516" stroke="black" stroke-width="1" fill="blue" opacity="1" tooltip="enable"><title>(0.063723,8)</title></rect><rect x="390" y="199.046" width="6" height="0.953516" stroke="black" stroke-width="1" fill="blue" opacity="1" tooltip="enable"><title>(0.0647187,8)</title></rect><rect x="396" y="198.689" width="6" height="1.31108" stroke="black" stroke-width="1" fill="blue" opacity="1" tooltip="enable"><title>(0.0657143,11)</title></rect><rect x="402" y="199.404" width="6" height="0.595948" stroke="black" stroke-width="1" fill="blue" opacity="1" tooltip="enable"><title>(0.06671,5)</title></rect><rect x="408" y="199.523" width="6" height="0.476758" stroke="black" stroke-width="1" fill="blue" opacity="1" tooltip="enable"><title>(0.0677057,4)</title></rect><rect x="414" y="199.523" width="6" height="0.476758" stroke="black" stroke-width="1" fill="blue" opacity="1" tooltip="enable"><title>(0.0687014,4)</title></rect><rect x="420" y="198.093" width="6" height="1.90703" stroke="black" stroke-width="1" fill="blue" opacity="1" tooltip="enable"><title>(0.069697,16)</title></rect><rect x="426" y="200" width="6" height="0" stroke="black" stroke-width="1" fill="blue" opacity="1" tooltip="enable"><title>(0.0706927,0)</title></rect><rect x="432" y="200" width="6" height="0" stroke="black" stroke-width="1" fill="blue" opacity="1" tooltip="enable"><title>(0.0716884,0)</title></rect><rect x="438" y="200" width="6" height="0" stroke="black" stroke-width="1" fill="blue" opacity="1" tooltip="enable"><title>(0.072684,0)</title></rect><rect x="444" y="200" width="6" height="0" stroke="black" stroke-width="1" fill="blue" opacity="1" tooltip="enable"><title>(0.0736797,0)</title></rect><rect x="450" y="200" width="6" height="0" stroke="black" stroke-width="1" fill="blue" opacity="1" tooltip="enable"><title>(0.0746754,0)</title></rect><rect x="456" y="199.881" width="6" height="0.11919" stroke="black" stroke-width="1" fill="blue" opacity="1" tooltip="enable"><title>(0.0756711,1)</title></rect><rect x="462" y="199.166" width="6" height="0.834327" stroke="black" stroke-width="1" fill="blue" opacity="1" tooltip="enable"><title>(0.0766667,7)</title></rect><rect x="468" y="199.762" width="6" height="0.238379" stroke="black" stroke-width="1" fill="blue" opacity="1" tooltip="enable"><title>(0.0776624,2)</title></rect><rect x="474" y="199.523" width="6" height="0.476758" stroke="black" stroke-width="1" fill="blue" opacity="1" tooltip="enable"><title>(0.0786581,4)</title></rect><rect x="480" y="199.523" width="6" height="0.476758" stroke="black" stroke-width="1" fill="blue" opacity="1" tooltip="enable"><title>(0.0796538,4)</title></rect><rect x="486" y="199.762" width="6" height="0.238379" stroke="black" stroke-width="1" fill="blue" opacity="1" tooltip="enable"><title>(0.0806494,2)</title></rect><rect x="492" y="200" width="6" height="0" stroke="black" stroke-width="1" fill="blue" opacity="1" tooltip="enable"><title>(0.0816451,0)</title></rect><rect x="498" y="199.523" width="6" height="0.476758" stroke="black" stroke-width="1" fill="blue" opacity="1" tooltip="enable"><title>(0.0826408,4)</title></rect><rect x="504" y="200" width="6" height="0" stroke="black" stroke-width="1" fill="blue" opacity="1" tooltip="enable"><title>(0.0836364,0)</title></rect><rect x="510" y="199.762" width="6" height="0.238379" stroke="black" stroke-width="1" fill="blue" opacity="1" tooltip="enable"><title>(0.0846321,2)</title></rect><rect x="516" y="200" width="6" height="0" stroke="black" stroke-width="1" fill="blue" opacity="1" tooltip="enable"><title>(0.0856278,0)</title></rect><rect x="522" y="199.762" width="6" height="0.238379" stroke="black" stroke-width="1" fill="blue" opacity="1" tooltip="enable"><title>(0.0866235,2)</title></rect><rect x="528" y="200" width="6" height="0" stroke="black" stroke-width="1" fill="blue" opacity="1" tooltip="enable"><title>(0.0876191,0)</title></rect><rect x="534" y="200" width="6" height="0" stroke="black" stroke-width="1" fill="blue" opacity="1" tooltip="enable"><title>(0.0886148,0)</title></rect><rect x="540" y="200" width="6" height="0" stroke="black" stroke-width="1" fill="blue" opacity="1" tooltip="enable"><title>(0.0896105,0)</title></rect><rect x="546" y="200" width="6" height="0" stroke="black" stroke-width="1" fill="blue" opacity="1" tooltip="enable"><title>(0.0906061,0)</title></rect><rect x="552" y="199.762" width="6" height="0.238379" stroke="black" stroke-width="1" fill="blue" opacity="1" tooltip="enable"><title>(0.0916018,2)</title></rect><rect x="558" y="199.523" width="6" height="0.476758" stroke="black" stroke-width="1" fill="blue" opacity="1" tooltip="enable"><title>(0.0925975,4)</title></rect><rect x="564" y="200" width="6" height="0" stroke="black" stroke-width="1" fill="blue" opacity="1" tooltip="enable"><title>(0.0935932,0)</title></rect><rect x="570" y="199.523" width="6" height="0.476758" stroke="black" stroke-width="1" fill="blue" opacity="1" tooltip="enable"><title>(0.0945888,4)</title></rect><rect x="576" y="200" width="6" height="0" stroke="black" stroke-width="1" fill="blue" opacity="1" tooltip="enable"><title>(0.0955845,0)</title></rect><rect x="582" y="200" width="6" height="0" stroke="black" stroke-width="1" fill="blue" opacity="1" tooltip="enable"><title>(0.0965802,0)</title></rect><rect x="588" y="200" width="6" height="0" stroke="black" stroke-width="1" fill="blue" opacity="1" tooltip="enable"><title>(0.0975759,0)</title></rect><rect x="594" y="199.642" width="6" height="0.357569" stroke="black" stroke-width="1" fill="blue" opacity="1" tooltip="enable"><title>(0.0985715,3)</title></rect><text x="30" y="240" font-size="20" fill="black">0</text>
<text x="600" y="240" font-size="20" fill="black">0.0995672</text>
<polyline points="0,220,600,220" stroke="black" stroke-width="1" fill="none" opacity="1"/>
<text x="720" y="20" font-size="20" fill="black">1678</text>
<text x="720" y="200" font-size="20" fill="black">0</text>
<polyline points="660,0,660,200" stroke="black" stroke-width="1" fill="none" opacity="1"/>
</svg>