<?xml version="1.0" standalone="yes"?>
<!-- SVG graphic -->
<svg xmlns='http://www.w3.org/2000/svg' xmlns:xlink='http://www.w3.org/1999/xlink'
 version="1.1">
<rect x="0" y="0" width="6" height="200" stroke="black" stroke-width="1" fill="blue" opacity="1" tooltip="enable"><title>(0,1363)</title></rect><rect x="6" y="29.4938" width="6" height="170.506" stroke="black" stroke-width="1" fill="blue" opacity="1" tooltip="enable"><title>(0.000827718,1162)</title></rect><rect x="12" y="88.0411" width="6" height="111.959" stroke="black" stroke-width="1" fill="blue" opacity="1" tooltip="enable"><title>(0.00165544,763)</title></rect><rect x="18" y="122.377" width="6" height="77.6229" stroke="black" stroke-width="1" fill="blue" opacity="1" tooltip="enable"><title>(0.00248315,529)</title></rect><rect x="24" y="132.208" width="6" height="67.7916" stroke="black" stroke-width="1" fill="blue" opacity="1" tooltip="enable"><title>(0.00331087,462)</title></rect><rect x="30" y="152.018" width="6" height="47.9824" stroke="black" stroke-width="1" fill="blue" opacity="1" tooltip="enable"><title>(0.00413859,327)</title></rect><rect x="36" y="158.767" width="6" height="41.2326" stroke="black" stroke-width="1" fill="blue" opacity="1" tooltip="enable"><title>(0.00496631,281)</title></rect><rect x="42" y="177.55" width="6" height="22.4505" stroke="black" stroke-width="1" fill="blue" opacity="1" tooltip="enable"><title>(0.00579403,153)</title></rect><rect x="48" y="182.685" width="6" height="17.3147" stroke="black" stroke-width="1" fill="blue" opacity="1" tooltip="enable"><title>(0.00662174,118)</title></rect><rect x="54" y="179.31" width="6" height="20.6897" stroke="black" stroke-width="1" fill="blue" opacity="1" tooltip="enable"><title>(0.00744946,141)</title></rect><rect x="60" y="183.712" width="6" height="16.2876" stroke="black" stroke-width="1" fill="blue" opacity="1" tooltip="enable"><title>(0.00827718,111)</title></rect><rect x="66" y="182.245" width="6" height="17.755" stroke="black" stroke-width="1" fill="blue" opacity="1" tooltip="enable"><title>(0.0091049,121)</title></rect><rect x="72" y="181.071" width="6" height="18.9288" stroke="black" stroke-width="1" fill="blue" opacity="1" tooltip="enable"><title>(0.00993262,129)</title></rect><rect x="78" y="182.392" width="6" height="17.6082" stroke="black" stroke-width="1" fill="blue" opacity="1" tooltip="enable"><title>(0.0107603,120)</title></rect><rect x="84" y="187.381" width="6" height="12.6192" stroke="black" stroke-width="1" fill="blue" opacity="1" tooltip="enable"><title>(0.0115881,86)</title></rect><rect x="90" y="185.62" width="6" height="14.38" stroke="black" stroke-width="1" fill="blue" opacity="1" tooltip="enable"><title>(0.0124158,98)</title></rect><rect x="96" y="185.033" width="6" height="14.967" stroke="black" stroke-width="1" fill="blue" opacity="1" tooltip="enable"><title>(0.0132435,102)</title></rect><rect x="102" y="186.794" width="6" height="13.2062" stroke="black" stroke-width="1" fill="blue" opacity="1" tooltip="enable"><title>(0.0140712,90)</title></rect><rect x="108" y="185.62" width="6" height="14.38" stroke="black" stroke-width="1" fill="blue" opacity="1" tooltip="enable"><title>(0.0148989,98)</title></rect><rect x="114" y="189.435" width="6" height="10.5649" stroke="black" stroke-width="1" fill="blue" opacity="1" tooltip="enable"><title>(0.0157266,72)</title></rect><rect x="120" y="183.859" width="6" height="16.1409" stroke="black" stroke-width="1" fill="blue" opacity="1" tooltip="enable"><title>(0.0165544,110)</title></rect><rect x="126" y="190.902" width="6" height="9.09758" stroke="black" stroke-width="1" fill="blue" opacity="1" tooltip="enable"><title>(0.0173821,62)</title></rect><rect x="132" y="190.902" width="6" height="9.09758" stroke="black" stroke-width="1" fill="blue" opacity="1" tooltip="enable"><title>(0.0182098,62)</title></rect><rect x="138" y="191.196" width="6" height="8.80411" stroke="black" stroke-width="1" fill="blue" opacity="1" tooltip="enable"><title>(0.0190375,60)</title></rect><rect x="144" y="190.315" width="6" height="9.68452" stroke="black" stroke-width="1" fill="blue" opacity="1" tooltip="enable"><title>(0.0198652,66)</title></rect><rect x="150" y="194.864" width="6" height="5.13573" stroke="black" stroke-width="1" fill="blue" opacity="1" tooltip="enable"><title>(0.020693,35)</title></rect><rect x="156" y="192.81" width="6" height="7.19002" stroke="black" stroke-width="1" fill="blue" opacity="1" tooltip="enable"><title>(0.0215207,49)</title></rect><rect x="162" y="192.076" width="6" height="7.9237" stroke="black" stroke-width="1" fill="blue" opacity="1" tooltip="enable"><title>(0.0223484,54)</title></rect><rect x="168" y="193.69" width="6" height="6.30961" stroke="black" stroke-width="1" fill="blue" opacity="1" tooltip="enable"><title>(0.0231761,43)</title></rect><rect x="174" y="192.81" width="6" height="7.19002" stroke="black" stroke-width="1" fill="blue" opacity="1" tooltip="enable"><title>(0.0240038,49)</title></rect><rect x="180" y="193.103" width="6" height="6.89655" stroke="black" stroke-width="1" fill="blue" opacity="1" tooltip="enable"><title>(0.0248315,47)</title></rect><rect x="186" y="193.837" width="6" height="6.16288" stroke="black" stroke-width="1" fill="blue" opacity="1" tooltip="enable"><title>(0.0256593,42)</title></rect><rect x="192" y="195.158" width="6" height="4.84226" stroke="black" stroke-width="1" fill="blue" opacity="1" tooltip="enable"><title>(0.026487,33)</title></rect><rect x="198" y="193.103" width="6" height="6.89655" stroke="black" stroke-width="1" fill="blue" opacity="1" tooltip="enable"><title>(0.0273147,47)</title></rect><rect x="204" y="193.103" width="6" height="6.89655" stroke="black" stroke-width="1" fill="blue" opacity="1" tooltip="enable"><title>(0.0281424,47)</title></rect><rect x="210" y="196.625" width="6" height="3.37491" stroke="black" stroke-width="1" fill="blue" opacity="1" tooltip="enable"><title>(0.0289701,23)</title></rect><rect x="216" y="195.598" width="6" height="4.40205" stroke="black" stroke-width="1" fill="blue" opacity="1" tooltip="enable"><title>(0.0297979,30)</title></rect><rect x="222" y="196.919" width="6" height="3.08144" stroke="black" stroke-width="1" fill="blue" opacity="1" tooltip="enable"><title>(0.0306256,21)</title></rect><rect x="228" y="195.598" width="6" height="4.40205" stroke="black" stroke-width="1" fill="blue" opacity="1" tooltip="enable"><title>(0.0314533,30)</title></rect><rect x="234" y="196.038" width="6" height="3.96185" stroke="black" stroke-width="1" fill="blue" opacity="1" tooltip="enable"><title>(0.032281,27)</title></rect><rect x="240" y="196.919" width="6" height="3.08144" stroke="black" stroke-width="1" fill="blue" opacity="1" tooltip="enable"><title>(0.0331087,21)</title></rect><rect x="246" y="197.359" width="6" height="2.64123" stroke="black" stroke-width="1" fill="blue" opacity="1" tooltip="enable"><title>(0.0339364,18)</title></rect><rect x="252" y="194.571" width="6" height="5.4292" stroke="black" stroke-width="1" fill="blue" opacity="1" tooltip="enable"><title>(0.0347642,37)</title></rect><rect x="258" y="195.304" width="6" height="4.69552" stroke="black" stroke-width="1" fill="blue" opacity="1" tooltip="enable"><title>(0.0355919,32)</title></rect><rect x="264" y="194.277" width="6" height="5.72267" stroke="black" stroke-width="1" fill="blue" opacity="1" tooltip="enable"><title>(0.0364196,39)</title></rect><rect x="270" y="194.571" width="6" height="5.4292" stroke="black" stroke-width="1" fill="blue" opacity="1" tooltip="enable"><title>(0.0372473,37)</title></rect><rect x="276" y="195.158" width="6" height="4.84226" stroke="black" stroke-width="1" fill="blue" opacity="1" tooltip="enable"><title>(0.038075,33)</title></rect><rect x="282" y="196.185" width="6" height="3.81511" stroke="black" stroke-width="1" fill="blue" opacity="1" tooltip="enable"><title>(0.0389028,26)</title></rect><rect x="288" y="194.864" width="6" height="5.13573" stroke="black" stroke-width="1" fill="blue" opacity="1" tooltip="enable"><title>(0.0397305,35)</title></rect><rect x="294" y="196.038" width="6" height="3.96185" stroke="black" stroke-width="1" fill="blue" opacity="1" tooltip="enable"><title>(0.0405582,27)</title></rect><rect x="300" y="198.386" width="6" height="1.61409" stroke="black" stroke-width="1" fill="blue" opacity="1" tooltip="enable"><title>(0.0413859,11)</title></rect><rect x="306" y="195.158" width="6" height="4.84226" stroke="black" stroke-width="1" fill="blue" opacity="1" tooltip="enable"><title>(0.0422136,33)</title></rect><rect x="312" y="195.451" width="6" height="4.54879" stroke="black" stroke-width="1" fill="blue" opacity="1" tooltip="enable"><title>(0.0430413,31)</title></rect><rect x="318" y="196.038" width="6" height="3.96185" stroke="black" stroke-width="1" fill="blue" opacity="1" tooltip="enable"><title>(0.0438691,27)</title></rect><rect x="324" y="198.973" width="6" height="1.02715" stroke="black" stroke-width="1" fill="blue" opacity="1" tooltip="enable"><title>(0.0446968,7)</title></rect><rect x="330" y="196.038" width="6" height="3.96185" stroke="black" stroke-width="1" fill="blue" opacity="1" tooltip="enable"><title>(0.0455245,27)</title></rect><rect x="336" y="196.919" width="6" height="3.08144" stroke="black" stroke-width="1" fill="blue" opacity="1" tooltip="enable"><title>(0.0463522,21)</title></rect><rect x="342" y="196.038" width="6" height="3.96185" stroke="black" stroke-width="1" fill="blue" opacity="1" tooltip="enable"><title>(0.0471799,27)</title></rect><rect x="348" y="197.065" width="6" height="2.9347" stroke="black" stroke-width="1" fill="blue" opacity="1" tooltip="enable"><title>(0.0480077,20)</title></rect><rect x="354" y="198.533" width="6" height="1.46735" stroke="black" stroke-width="1" fill="blue" opacity="1" tooltip="enable"><title>(0.0488354,10)</title></rect><rect x="360" y="197.065" width="6" height="2.9347" stroke="black" stroke-width="1" fill="blue" opacity="1" tooltip="enable"><title>(0.0496631,20)</title></rect><rect x="366" y="199.12" width="6" height="0.880411" stroke="black" stroke-width="1" fill="blue" opacity="1" tooltip="enable"><title>(0.0504908,6)</title></rect><rect x="372" y="196.185" width="6" height="3.81511" stroke="black" stroke-width="1" fill="blue" opacity="1" tooltip="enable"><title>(0.0513185,26)</title></rect><rect x="378" y="197.652" width="6" height="2.34776" stroke="black" stroke-width="1" fill="blue" opacity="1" tooltip="enable"><title>(0.0521462,16)</title></rect><rect x="384" y="198.239" width="6" height="1.76082" stroke="black" stroke-width="1" fill="blue" opacity="1" tooltip="enable"><title>(0.052974,12)</title></rect><rect x="390" y="197.946" width="6" height="2.05429" stroke="black" stroke-width="1" fill="blue" opacity="1" tooltip="enable"><title>(0.0538017,14)</title></rect><rect x="396" y="198.386" width="6" height="1.61409" stroke="black" stroke-width="1" fill="blue" opacity="1" tooltip="enable"><title>(0.0546294,11)</title></rect><rect x="402" y="197.946" width="6" height="2.05429" stroke="black" stroke-width="1" fill="blue" opacity="1" tooltip="enable"><title>(0.0554571,14)</title></rect><rect x="408" y="198.092" width="6" height="1.90756" stroke="black" stroke-width="1" fill="blue" opacity="1" tooltip="enable"><title>(0.0562848,13)</title></rect><rect x="414" y="197.799" width="6" height="2.20103" stroke="black" stroke-width="1" fill="blue" opacity="1" tooltip="enable"><title>(0.0571126,15)</title></rect><rect x="420" y="199.56" width="6" height="0.440205" stroke="black" stroke-width="1" fill="blue" opacity="1" tooltip="enable"><title>(0.0579403,3)</title></rect><rect x="426" y="198.533" width="6" height="1.46735" stroke="black" stroke-width="1" fill="blue" opacity="1" tooltip="enable"><title>(0.058768,10)</title></rect><rect x="432" y="199.707" width="6" height="0.29347" stroke="black" stroke-width="1" fill="blue" opacity="1" tooltip="enable"><title>(0.0595957,2)</title></rect><rect x="438" y="197.946" width="6" height="2.05429" stroke="black" stroke-width="1" fill="blue" opacity="1" tooltip="enable"><title>(0.0604234,14)</title></rect><rect x="444" y="199.56" width="6" height="0.440205" stroke="black" stroke-width="1" fill="blue" opacity="1" tooltip="enable"><title>(0.0612511,3)</title></rect><rect x="450" y="199.853" width="6" height="0.146735" stroke="black" stroke-width="1" fill="blue" opacity="1" tooltip="enable"><title>(0.0620789,1)</title></rect><rect x="456" y="199.12" width="6" height="0.880411" stroke="black" stroke-width="1" fill="blue" opacity="1" tooltip="enable"><title>(0.0629066,6)</title></rect><rect x="462" y="199.12" width="6" height="0.880411" stroke="black" stroke-width="1" fill="blue" opacity="1" tooltip="enable"><title>(0.0637343,6)</title></rect><rect x="468" y="199.413" width="6" height="0.586941" stroke="black" stroke-width="1" fill="blue" opacity="1" tooltip="enable"><title>(0.064562,4)</title></rect><rect x="474" y="200" width="6" height="0" stroke="black" stroke-width="1" fill="blue" opacity="1" tooltip="enable"><title>(0.0653897,0)</title></rect><rect x="480" y="199.413" width="6" height="0.586941" stroke="black" stroke-width="1" fill="blue" opacity="1" tooltip="enable"><title>(0.0662175,4)</title></rect><rect x="486" y="200" width="6" height="0" stroke="black" stroke-width="1" fill="blue" opacity="1" tooltip="enable"><title>(0.0670452,0)</title></rect><rect x="492" y="199.707" width="6" height="0.29347" stroke="black" stroke-width="1" fill="blue" opacity="1" tooltip="enable"><title>(0.0678729,2)</title></rect><rect x="498" y="199.707" width="6" height="0.29347" stroke="black" stroke-width="1" fill="blue" opacity="1" tooltip="enable"><title>(0.0687006,2)</title></rect><rect x="504" y="199.707" width="6" height="0.29347" stroke="black" stroke-width="1" fill="blue" opacity="1" tooltip="enable"><title>(0.0695283,2)</title></rect><rect x="510" y="200" width="6" height="0" stroke="black" stroke-width="1" fill="blue" opacity="1" tooltip="enable"><title>(0.070356,0)</title></rect><rect x="516" y="200" width="6" height="0" stroke="black" stroke-width="1" fill="blue" opacity="1" tooltip="enable"><title>(0.0711838,0)</title></rect><rect x="522" y="199.413" width="6" height="0.586941" stroke="black" stroke-width="1" fill="blue" opacity="1" tooltip="enable"><title>(0.0720115,4)</title></rect><rect x="528" y="199.707" width="6" height="0.29347" stroke="black" stroke-width="1" fill="blue" opacity="1" tooltip="enable"><title>(0.0728392,2)</title></rect><rect x="534" y="200" width="6" height="0" stroke="black" stroke-width="1" fill="blue" opacity="1" tooltip="enable"><title>(0.0736669,0)</title></rect><rect x="540" y="200" width="6" height="0" stroke="black" stroke-width="1" fill="blue" opacity="1" tooltip="enable"><title>(0.0744946,0)</title></rect><rect x="546" y="200" width="6" height="0" stroke="black" stroke-width="1" fill="blue" opacity="1" tooltip="enable"><title>(0.0753224,0)</title></rect><rect x="552" y="200" width="6" height="0" stroke="black" stroke-width="1" fill="blue" opacity="1" tooltip="enable"><title>(0.0761501,0)</title></rect><rect x="558" y="200" width="6" height="0" stroke="black" stroke-width="1" fill="blue" opacity="1" tooltip="enable"><title>(0.0769778,0)</title></rect><rect x="564" y="200" width="6" height="0" stroke="black" stroke-width="1" fill="blue" opacity="1" tooltip="enable"><title>(0.0778055,0)</title></rect><rect x="570" y="199.707" width="6" height="0.29347" stroke="black" stroke-width="1" fill="blue" opacity="1" tooltip="enable"><title>(0.0786332,2)</title></rect><rect x="576" y="199.707" width="6" height="0.29347" stroke="black" stroke-width="1" fill="blue" opacity="1" tooltip="enable"><title>(0.0794609,2)</title></rect><rect x="582" y="200" width="6" height="0" stroke="black" stroke-width="1" fill="blue" opacity="1" tooltip="enable"><title>(0.0802887,0)</title></rect><rect x="588" y="200" width="6" height="0" stroke="black" stroke-width="1" fill="blue" opacity="1" tooltip="enable"><title>(0.0811164,0)</title></rect><rect x="594" y="199.853" width="6" height="0.146735" stroke="black" stroke-width="1" fill="blue" opacity="1" tooltip="enable"><title>(0.0819441,1)</title></rect><text x="30" y="240" font-size="20" fill="black">0</text>
<text x="600" y="240" font-size="20" fill="black">0.0827718</text>
<polyline points="0,220,600,220" stroke="black" stroke-width="1" fill="none" opacity="1"/>
<text x="720" y="20" font-size="20" fill="black">1363</text>
<text x="720" y="200" font-size="20" fill="black">0</text>
<polyline points="660,0,660,200" stroke="black" stroke-width="1" fill="none" opacity="1"/>
</svg>