<?xml version="1.0" standalone="yes"?>
<!-- SVG graphic -->
<svg xmlns='http://www.w3.org/2000/svg' xmlns:xlink='http://www.w3.org/1999/xlink'
 version="1.1">
<rect x="0" y="0" width="6" height="200" stroke="black" stroke-width="1" fill="blue" opacity="1" tooltip="enable"><title>(0,901)</title></rect><rect x="6" y="2.21976" width="6" height="197.78" stroke="black" stroke-width="1" fill="blue" opacity="1" tooltip="enable"><title>(0.00100325,891)</title></rect><rect x="12" y="33.9623" width="6" height="166.038" stroke="black" stroke-width="1" fill="blue" opacity="1" tooltip="enable"><title>(0.0020065,748)</title></rect><rect x="18" y="30.4107" width="6" height="169.589" stroke="black" stroke-width="1" fill="blue" opacity="1" tooltip="enable"><title>(0.00300975,764)</title></rect><rect x="24" y="59.0455" width="6" height="140.954" stroke="black" stroke-width="1" fill="blue" opacity="1" tooltip="enable"><title>(0.004013,635)</title></rect><rect x="30" y="93.2297" width="6" height="106.77" stroke="black" stroke-width="1" fill="blue" opacity="1" tooltip="enable"><title>(0.00501624,481)</title></rect><rect x="36" y="122.974" width="6" height="77.0255" stroke="black" stroke-width="1" fill="blue" opacity="1" tooltip="enable"><title>(0.00601949,347)</title></rect><rect x="42" y="147.836" width="6" height="52.1643" stroke="black" stroke-width="1" fill="blue" opacity="1" tooltip="enable"><title>(0.00702274,235)</title></rect><rect x="48" y="160.266" width="6" height="39.7336" stroke="black" stroke-width="1" fill="blue" opacity="1" tooltip="enable"><title>(0.00802599,179)</title></rect><rect x="54" y="163.596" width="6" height="36.404" stroke="black" stroke-width="1" fill="blue" opacity="1" tooltip="enable"><title>(0.00902924,164)</title></rect><rect x="60" y="174.917" width="6" height="25.0832" stroke="black" stroke-width="1" fill="blue" opacity="1" tooltip="enable"><title>(0.0100325,113)</title></rect><rect x="66" y="172.919" width="6" height="27.081" stroke="black" stroke-width="1" fill="blue" opacity="1" tooltip="enable"><title>(0.0110357,122)</title></rect><rect x="72" y="175.139" width="6" height="24.8613" stroke="black" stroke-width="1" fill="blue" opacity="1" tooltip="enable"><title>(0.012039,112)</title></rect><rect x="78" y="179.578" width="6" height="20.4218" stroke="black" stroke-width="1" fill="blue" opacity="1" tooltip="enable"><title>(0.0130422,92)</title></rect><rect x="84" y="171.587" width="6" height="28.4129" stroke="black" stroke-width="1" fill="blue" opacity="1" tooltip="enable"><title>(0.0140455,128)</title></rect><rect x="90" y="174.917" width="6" height="25.0832" stroke="black" stroke-width="1" fill="blue" opacity="1" tooltip="enable"><title>(0.0150487,113)</title></rect><rect x="96" y="172.253" width="6" height="27.7469" stroke="black" stroke-width="1" fill="blue" opacity="1" tooltip="enable"><title>(0.016052,125)</title></rect><rect x="102" y="172.475" width="6" height="27.525" stroke="black" stroke-width="1" fill="blue" opacity="1" tooltip="enable"><title>(0.0170552,124)</title></rect><rect x="108" y="173.363" width="6" height="26.6371" stroke="black" stroke-width="1" fill="blue" opacity="1" tooltip="enable"><title>(0.0180585,120)</title></rect><rect x="114" y="180.022" width="6" height="19.9778" stroke="black" stroke-width="1" fill="blue" opacity="1" tooltip="enable"><title>(0.0190617,90)</title></rect><rect x="120" y="176.471" width="6" height="23.5294" stroke="black" stroke-width="1" fill="blue" opacity="1" tooltip="enable"><title>(0.020065,106)</title></rect><rect x="126" y="178.69" width="6" height="21.3097" stroke="black" stroke-width="1" fill="blue" opacity="1" tooltip="enable"><title>(0.0210682,96)</title></rect><rect x="132" y="176.693" width="6" height="23.3074" stroke="black" stroke-width="1" fill="blue" opacity="1" tooltip="enable"><title>(0.0220715,105)</title></rect><rect x="138" y="181.132" width="6" height="18.8679" stroke="black" stroke-width="1" fill="blue" opacity="1" tooltip="enable"><title>(0.0230747,85)</title></rect><rect x="144" y="178.468" width="6" height="21.5316" stroke="black" stroke-width="1" fill="blue" opacity="1" tooltip="enable"><title>(0.024078,97)</title></rect><rect x="150" y="182.686" width="6" height="17.3141" stroke="black" stroke-width="1" fill="blue" opacity="1" tooltip="enable"><title>(0.0250812,78)</title></rect><rect x="156" y="182.908" width="6" height="17.0921" stroke="black" stroke-width="1" fill="blue" opacity="1" tooltip="enable"><title>(0.0260845,77)</title></rect><rect x="162" y="175.139" width="6" height="24.8613" stroke="black" stroke-width="1" fill="blue" opacity="1" tooltip="enable"><title>(0.0270877,112)</title></rect><rect x="168" y="185.128" width="6" height="14.8724" stroke="black" stroke-width="1" fill="blue" opacity="1" tooltip="enable"><title>(0.028091,67)</title></rect><rect x="174" y="187.347" width="6" height="12.6526" stroke="black" stroke-width="1" fill="blue" opacity="1" tooltip="enable"><title>(0.0290942,57)</title></rect><rect x="180" y="185.794" width="6" height="14.2064" stroke="black" stroke-width="1" fill="blue" opacity="1" tooltip="enable"><title>(0.0300975,64)</title></rect><rect x="186" y="182.686" width="6" height="17.3141" stroke="black" stroke-width="1" fill="blue" opacity="1" tooltip="enable"><title>(0.0311007,78)</title></rect><rect x="192" y="190.455" width="6" height="9.54495" stroke="black" stroke-width="1" fill="blue" opacity="1" tooltip="enable"><title>(0.032104,43)</title></rect><rect x="198" y="190.899" width="6" height="9.101" stroke="black" stroke-width="1" fill="blue" opacity="1" tooltip="enable"><title>(0.0331072,41)</title></rect><rect x="204" y="187.125" width="6" height="12.8746" stroke="black" stroke-width="1" fill="blue" opacity="1" tooltip="enable"><title>(0.0341105,58)</title></rect><rect x="210" y="192.009" width="6" height="7.99112" stroke="black" stroke-width="1" fill="blue" opacity="1" tooltip="enable"><title>(0.0351137,36)</title></rect><rect x="216" y="194.673" width="6" height="5.32741" stroke="black" stroke-width="1" fill="blue" opacity="1" tooltip="enable"><title>(0.036117,24)</title></rect><rect x="222" y="191.565" width="6" height="8.43507" stroke="black" stroke-width="1" fill="blue" opacity="1" tooltip="enable"><title>(0.0371202,38)</title></rect><rect x="228" y="194.895" width="6" height="5.10544" stroke="black" stroke-width="1" fill="blue" opacity="1" tooltip="enable"><title>(0.0381235,23)</title></rect><rect x="234" y="192.675" width="6" height="7.32519" stroke="black" stroke-width="1" fill="blue" opacity="1" tooltip="enable"><title>(0.0391267,33)</title></rect><rect x="240" y="194.451" width="6" height="5.54939" stroke="black" stroke-width="1" fill="blue" opacity="1" tooltip="enable"><title>(0.04013,25)</title></rect><rect x="246" y="194.007" width="6" height="5.99334" stroke="black" stroke-width="1" fill="blue" opacity="1" tooltip="enable"><title>(0.0411332,27)</title></rect><rect x="252" y="196.892" width="6" height="3.10766" stroke="black" stroke-width="1" fill="blue" opacity="1" tooltip="enable"><title>(0.0421364,14)</title></rect><rect x="258" y="198.446" width="6" height="1.55383" stroke="black" stroke-width="1" fill="blue" opacity="1" tooltip="enable"><title>(0.0431397,7)</title></rect><rect x="264" y="196.67" width="6" height="3.32963" stroke="black" stroke-width="1" fill="blue" opacity="1" tooltip="enable"><title>(0.044143,15)</title></rect><rect x="270" y="197.336" width="6" height="2.66371" stroke="black" stroke-width="1" fill="blue" opacity="1" tooltip="enable"><title>(0.0451462,12)</title></rect><rect x="276" y="197.78" width="6" height="2.21976" stroke="black" stroke-width="1" fill="blue" opacity="1" tooltip="enable"><title>(0.0461494,10)</title></rect><rect x="282" y="200" width="6" height="0" stroke="black" stroke-width="1" fill="blue" opacity="1" tooltip="enable"><title>(0.0471527,0)</title></rect><rect x="288" y="197.78" width="6" height="2.21976" stroke="black" stroke-width="1" fill="blue" opacity="1" tooltip="enable"><title>(0.0481559,10)</title></rect><rect x="294" y="199.334" width="6" height="0.665927" stroke="black" stroke-width="1" fill="blue" opacity="1" tooltip="enable"><title>(0.0491592,3)</title></rect><rect x="300" y="199.778" width="6" height="0.221976" stroke="black" stroke-width="1" fill="blue" opacity="1" tooltip="enable"><title>(0.0501624,1)</title></rect><rect x="306" y="199.112" width="6" height="0.887902" stroke="black" stroke-width="1" fill="blue" opacity="1" tooltip="enable"><title>(0.0511657,4)</title></rect><rect x="312" y="199.112" width="6" height="0.887902" stroke="black" stroke-width="1" fill="blue" opacity="1" tooltip="enable"><title>(0.0521689,4)</title></rect><rect x="318" y="198.668" width="6" height="1.33185" stroke="black" stroke-width="1" fill="blue" opacity="1" tooltip="enable"><title>(0.0531722,6)</title></rect><rect x="324" y="199.556" width="6" height="0.443951" stroke="black" stroke-width="1" fill="blue" opacity="1" tooltip="enable"><title>(0.0541754,2)</title></rect><rect x="330" y="197.336" width="6" height="2.66371" stroke="black" stroke-width="1" fill="blue" opacity="1" tooltip="enable"><title>(0.0551787,12)</title></rect><rect x="336" y="200" width="6" height="0" stroke="black" stroke-width="1" fill="blue" opacity="1" tooltip="enable"><title>(0.0561819,0)</title></rect><rect x="342" y="199.112" width="6" height="0.887902" stroke="black" stroke-width="1" fill="blue" opacity="1" tooltip="enable"><title>(0.0571852,4)</title></rect><rect x="348" y="199.556" width="6" height="0.443951" stroke="black" stroke-width="1" fill="blue" opacity="1" tooltip="enable"><title>(0.0581884,2)</title></rect><rect x="354" y="200" width="6" height="0" stroke="black" stroke-width="1" fill="blue" opacity="1" tooltip="enable"><title>(0.0591917,0)</title></rect><rect x="360" y="200" width="6" height="0" stroke="black" stroke-width="1" fill="blue" opacity="1" tooltip="enable"><title>(0.0601949,0)</title></rect><rect x="366" y="200" width="6" height="0" stroke="black" stroke-width="1" fill="blue" opacity="1" tooltip="enable"><title>(0.0611982,0)</title></rect><rect x="372" y="199.112" width="6" height="0.887902" stroke="black" stroke-width="1" fill="blue" opacity="1" tooltip="enable"><title>(0.0622014,4)</title></rect><rect x="378" y="199.556" width="6" height="0.443951" stroke="black" stroke-width="1" fill="blue" opacity="1" tooltip="enable"><title>(0.0632047,2)</title></rect><rect x="384" y="199.556" width="6" height="0.443951" stroke="black" stroke-width="1" fill="blue" opacity="1" tooltip="enable"><title>(0.0642079,2)</title></rect><rect x="390" y="200" width="6" height="0" stroke="black" stroke-width="1" fill="blue" opacity="1" tooltip="enable"><title>(0.0652112,0)</title></rect><rect x="396" y="199.556" width="6" height="0.443951" stroke="black" stroke-width="1" fill="blue" opacity="1" tooltip="enable"><title>(0.0662144,2)</title></rect><rect x="402" y="200" width="6" height="0" stroke="black" stroke-width="1" fill="blue" opacity="1" tooltip="enable"><title>(0.0672177,0)</title></rect><rect x="408" y="199.556" width="6" height="0.443951" stroke="black" stroke-width="1" fill="blue" opacity="1" tooltip="enable"><title>(0.0682209,2)</title></rect><rect x="414" y="199.556" width="6" height="0.443951" stroke="black" stroke-width="1" fill="blue" opacity="1" tooltip="enable"><title>(0.0692242,2)</title></rect><rect x="420" y="199.556" width="6" height="0.443951" stroke="black" stroke-width="1" fill="blue" opacity="1" tooltip="enable"><title>(0.0702274,2)</title></rect><rect x="426" y="199.112" width="6" height="0.887902" stroke="black" stroke-width="1" fill="blue" opacity="1" tooltip="enable"><title>(0.0712307,4)</title></rect><rect x="432" y="199.556" width="6" height="0.443951" stroke="black" stroke-width="1" fill="blue" opacity="1" tooltip="enable"><title>(0.0722339,2)</title></rect><rect x="438" y="200" width="6" height="0" stroke="black" stroke-width="1" fill="blue" opacity="1" tooltip="enable"><title>(0.0732372,0)</title></rect><rect x="444" y="200" width="6" height="0" stroke="black" stroke-width="1" fill="blue" opacity="1" tooltip="enable"><title>(0.0742404,0)</title></rect><rect x="450" y="200" width="6" height="0" stroke="black" stroke-width="1" fill="blue" opacity="1" tooltip="enable"><title>(0.0752437,0)</title></rect><rect x="456" y="199.556" width="6" height="0.443951" stroke="black" stroke-width="1" fill="blue" opacity="1" tooltip="enable"><title>(0.0762469,2)</title></rect><rect x="462" y="199.778" width="6" height="0.221976" stroke="black" stroke-width="1" fill="blue" opacity="1" tooltip="enable"><title>(0.0772502,1)</title></rect><rect x="468" y="199.778" width="6" height="0.221976" stroke="black" stroke-width="1" fill="blue" opacity="1" tooltip="enable"><title>(0.0782534,1)</title></rect><rect x="474" y="200" width="6" height="0" stroke="black" stroke-width="1" fill="blue" opacity="1" tooltip="enable"><title>(0.0792567,0)</title></rect><rect x="480" y="200" width="6" height="0" stroke="black" stroke-width="1" fill="blue" opacity="1" tooltip="enable"><title>(0.0802599,0)</title></rect><rect x="486" y="199.556" width="6" height="0.443951" stroke="black" stroke-width="1" fill="blue" opacity="1" tooltip="enable"><title>(0.0812632,2)</title></rect><rect x="492" y="199.556" width="6" height="0.443951" stroke="black" stroke-width="1" fill="blue" opacity="1" tooltip="enable"><title>(0.0822664,2)</title></rect><rect x="498" y="200" width="6" height="0" stroke="black" stroke-width="1" fill="blue" opacity="1" tooltip="enable"><title>(0.0832697,0)</title></rect><rect x="504" y="200" width="6" height="0" stroke="black" stroke-width="1" fill="blue" opacity="1" tooltip="enable"><title>(0.0842729,0)</title></rect><rect x="510" y="199.778" width="6" height="0.221976" stroke="black" stroke-width="1" fill="blue" opacity="1" tooltip="enable"><title>(0.0852762,1)</title></rect><rect x="516" y="199.778" width="6" height="0.221976" stroke="black" stroke-width="1" fill="blue" opacity="1" tooltip="enable"><title>(0.0862794,1)</title></rect><rect x="522" y="199.778" width="6" height="0.221976" stroke="black" stroke-width="1" fill="blue" opacity="1" tooltip="enable"><title>(0.0872827,1)</title></rect><rect x="528" y="199.778" width="6" height="0.221976" stroke="black" stroke-width="1" fill="blue" opacity="1" tooltip="enable"><title>(0.0882859,1)</title></rect><rect x="534" y="200" width="6" height="0" stroke="black" stroke-width="1" fill="blue" opacity="1" tooltip="enable"><title>(0.0892891,0)</title></rect><rect x="540" y="200" width="6" height="0" stroke="black" stroke-width="1" fill="blue" opacity="1" tooltip="enable"><title>(0.0902924,0)</title></rect><rect x="546" y="200" width="6" height="0" stroke="black" stroke-width="1" fill="blue" opacity="1" tooltip="enable"><title>(0.0912956,0)</title></rect><rect x="552" y="199.556" width="6" height="0.443951" stroke="black" stroke-width="1" fill="blue" opacity="1" tooltip="enable"><title>(0.0922989,2)</title></rect><rect x="558" y="200" width="6" height="0" stroke="black" stroke-width="1" fill="blue" opacity="1" tooltip="enable"><title>(0.0933021,0)</title></rect><rect x="564" y="200" width="6" height="0" stroke="black" stroke-width="1" fill="blue" opacity="1" tooltip="enable"><title>(0.0943054,0)</title></rect><rect x="570" y="199.556" width="6" height="0.443951" stroke="black" stroke-width="1" fill="blue" opacity="1" tooltip="enable"><title>(0.0953086,2)</title></rect><rect x="576" y="200" width="6" height="0" stroke="black" stroke-width="1" fill="blue" opacity="1" tooltip="enable"><title>(0.0963119,0)</title></rect><rect x="582" y="200" width="6" height="0" stroke="black" stroke-width="1" fill="blue" opacity="1" tooltip="enable"><title>(0.0973151,0)</title></rect><rect x="588" y="200" width="6" height="0" stroke="black" stroke-width="1" fill="blue" opacity="1" tooltip="enable"><title>(0.0983184,0)</title></rect><rect x="594" y="199.778" width="6" height="0.221976" stroke="black" stroke-width="1" fill="blue" opacity="1" tooltip="enable"><title>(0.0993216,1)</title></rect><text x="30" y="240" font-size="20" fill="black">0</text>
<text x="600" y="240" font-size="20" fill="black">0.100325</text>
<polyline points="0,220,600,220" stroke="black" stroke-width="1" fill="none" opacity="1"/>
<text x="720" y="20" font-size="20" fill="black">901</text>
<text x="720" y="200" font-size="20" fill="black">0</text>
<polyline points="660,0,660,200" stroke="black" stroke-width="1" fill="none" opacity="1"/>
</svg>