<?xml version="1.0" standalone="yes"?>
<!-- SVG graphic -->
<svg xmlns='http://www.w3.org/2000/svg' xmlns:xlink='http://www.w3.org/1999/xlink'
 version="1.1">
<rect x="0" y="0" width="6" height="200" stroke="black" stroke-width="1" fill="blue" opacity="1" tooltip="enable"><title>(0,2581)</title></rect><rect x="6" y="116.389" width="6" height="83.611" stroke="black" stroke-width="1" fill="blue" opacity="1" tooltip="enable"><title>(0.00121053,1079)</title></rect><rect x="12" y="150.872" width="6" height="49.1282" stroke="black" stroke-width="1" fill="blue" opacity="1" tooltip="enable"><title>(0.00242106,634)</title></rect><rect x="18" y="180.008" width="6" height="19.9923" stroke="black" stroke-width="1" fill="blue" opacity="1" tooltip="enable"><title>(0.00363159,258)</title></rect><rect x="24" y="185.277" width="6" height="14.723" stroke="black" stroke-width="1" fill="blue" opacity="1" tooltip="enable"><title>(0.00484212,190)</title></rect><rect x="30" y="186.517" width="6" height="13.4831" stroke="black" stroke-width="1" fill="blue" opacity="1" tooltip="enable"><title>(0.00605265,174)</title></rect><rect x="36" y="189.461" width="6" height="10.5386" stroke="black" stroke-width="1" fill="blue" opacity="1" tooltip="enable"><title>(0.00726318,136)</title></rect><rect x="42" y="189.926" width="6" height="10.0736" stroke="black" stroke-width="1" fill="blue" opacity="1" tooltip="enable"><title>(0.00847371,130)</title></rect><rect x="48" y="188.687" width="6" height="11.3134" stroke="black" stroke-width="1" fill="blue" opacity="1" tooltip="enable"><title>(0.00968424,146)</title></rect><rect x="54" y="188.842" width="6" height="11.1585" stroke="black" stroke-width="1" fill="blue" opacity="1" tooltip="enable"><title>(0.0108948,144)</title></rect><rect x="60" y="188.067" width="6" height="11.9334" stroke="black" stroke-width="1" fill="blue" opacity="1" tooltip="enable"><title>(0.0121053,154)</title></rect><rect x="66" y="189.694" width="6" height="10.3061" stroke="black" stroke-width="1" fill="blue" opacity="1" tooltip="enable"><title>(0.0133158,133)</title></rect><rect x="72" y="188.609" width="6" height="11.3909" stroke="black" stroke-width="1" fill="blue" opacity="1" tooltip="enable"><title>(0.0145264,147)</title></rect><rect x="78" y="192.329" width="6" height="7.67145" stroke="black" stroke-width="1" fill="blue" opacity="1" tooltip="enable"><title>(0.0157369,99)</title></rect><rect x="84" y="191.011" width="6" height="8.98876" stroke="black" stroke-width="1" fill="blue" opacity="1" tooltip="enable"><title>(0.0169474,116)</title></rect><rect x="90" y="191.244" width="6" height="8.7563" stroke="black" stroke-width="1" fill="blue" opacity="1" tooltip="enable"><title>(0.0181579,113)</title></rect><rect x="96" y="191.321" width="6" height="8.67881" stroke="black" stroke-width="1" fill="blue" opacity="1" tooltip="enable"><title>(0.0193685,112)</title></rect><rect x="102" y="193.491" width="6" height="6.50911" stroke="black" stroke-width="1" fill="blue" opacity="1" tooltip="enable"><title>(0.020579,84)</title></rect><rect x="108" y="193.878" width="6" height="6.12166" stroke="black" stroke-width="1" fill="blue" opacity="1" tooltip="enable"><title>(0.0217895,79)</title></rect><rect x="114" y="194.188" width="6" height="5.8117" stroke="black" stroke-width="1" fill="blue" opacity="1" tooltip="enable"><title>(0.0230001,75)</title></rect><rect x="120" y="194.266" width="6" height="5.73421" stroke="black" stroke-width="1" fill="blue" opacity="1" tooltip="enable"><title>(0.0242106,74)</title></rect><rect x="126" y="194.421" width="6" height="5.57923" stroke="black" stroke-width="1" fill="blue" opacity="1" tooltip="enable"><title>(0.0254211,72)</title></rect><rect x="132" y="195.816" width="6" height="4.18442" stroke="black" stroke-width="1" fill="blue" opacity="1" tooltip="enable"><title>(0.0266317,54)</title></rect><rect x="138" y="193.801" width="6" height="6.19915" stroke="black" stroke-width="1" fill="blue" opacity="1" tooltip="enable"><title>(0.0278422,80)</title></rect><rect x="144" y="196.435" width="6" height="3.56451" stroke="black" stroke-width="1" fill="blue" opacity="1" tooltip="enable"><title>(0.0290527,46)</title></rect><rect x="150" y="196.048" width="6" height="3.95196" stroke="black" stroke-width="1" fill="blue" opacity="1" tooltip="enable"><title>(0.0302632,51)</title></rect><rect x="156" y="197.288" width="6" height="2.71213" stroke="black" stroke-width="1" fill="blue" opacity="1" tooltip="enable"><title>(0.0314738,35)</title></rect><rect x="162" y="196.281" width="6" height="3.71949" stroke="black" stroke-width="1" fill="blue" opacity="1" tooltip="enable"><title>(0.0326843,48)</title></rect><rect x="168" y="196.281" width="6" height="3.71949" stroke="black" stroke-width="1" fill="blue" opacity="1" tooltip="enable"><title>(0.0338948,48)</title></rect><rect x="174" y="196.9" width="6" height="3.09957" stroke="black" stroke-width="1" fill="blue" opacity="1" tooltip="enable"><title>(0.0351054,40)</title></rect><rect x="180" y="195.506" width="6" height="4.49438" stroke="black" stroke-width="1" fill="blue" opacity="1" tooltip="enable"><title>(0.0363159,58)</title></rect><rect x="186" y="196.126" width="6" height="3.87447" stroke="black" stroke-width="1" fill="blue" opacity="1" tooltip="enable"><title>(0.0375264,50)</title></rect><rect x="192" y="197.055" width="6" height="2.9446" stroke="black" stroke-width="1" fill="blue" opacity="1" tooltip="enable"><title>(0.038737,38)</title></rect><rect x="198" y="195.196" width="6" height="4.80434" stroke="black" stroke-width="1" fill="blue" opacity="1" tooltip="enable"><title>(0.0399475,62)</title></rect><rect x="204" y="196.435" width="6" height="3.56451" stroke="black" stroke-width="1" fill="blue" opacity="1" tooltip="enable"><title>(0.041158,46)</title></rect><rect x="210" y="196.281" width="6" height="3.71949" stroke="black" stroke-width="1" fill="blue" opacity="1" tooltip="enable"><title>(0.0423685,48)</title></rect><rect x="216" y="197.055" width="6" height="2.9446" stroke="black" stroke-width="1" fill="blue" opacity="1" tooltip="enable"><title>(0.0435791,38)</title></rect><rect x="222" y="197.365" width="6" height="2.63464" stroke="black" stroke-width="1" fill="blue" opacity="1" tooltip="enable"><title>(0.0447896,34)</title></rect><rect x="228" y="197.52" width="6" height="2.47966" stroke="black" stroke-width="1" fill="blue" opacity="1" tooltip="enable"><title>(0.0460001,32)</title></rect><rect x="234" y="197.365" width="6" height="2.63464" stroke="black" stroke-width="1" fill="blue" opacity="1" tooltip="enable"><title>(0.0472107,34)</title></rect><rect x="240" y="197.83" width="6" height="2.1697" stroke="black" stroke-width="1" fill="blue" opacity="1" tooltip="enable"><title>(0.0484212,28)</title></rect><rect x="246" y="196.59" width="6" height="3.40953" stroke="black" stroke-width="1" fill="blue" opacity="1" tooltip="enable"><title>(0.0496317,44)</title></rect><rect x="252" y="197.908" width="6" height="2.09221" stroke="black" stroke-width="1" fill="blue" opacity="1" tooltip="enable"><title>(0.0508423,27)</title></rect><rect x="258" y="198.14" width="6" height="1.85974" stroke="black" stroke-width="1" fill="blue" opacity="1" tooltip="enable"><title>(0.0520528,24)</title></rect><rect x="264" y="197.83" width="6" height="2.1697" stroke="black" stroke-width="1" fill="blue" opacity="1" tooltip="enable"><title>(0.0532633,28)</title></rect><rect x="270" y="197.753" width="6" height="2.24719" stroke="black" stroke-width="1" fill="blue" opacity="1" tooltip="enable"><title>(0.0544738,29)</title></rect><rect x="276" y="198.14" width="6" height="1.85974" stroke="black" stroke-width="1" fill="blue" opacity="1" tooltip="enable"><title>(0.0556844,24)</title></rect><rect x="282" y="198.605" width="6" height="1.39481" stroke="black" stroke-width="1" fill="blue" opacity="1" tooltip="enable"><title>(0.0568949,18)</title></rect><rect x="288" y="199.225" width="6" height="0.774893" stroke="black" stroke-width="1" fill="blue" opacity="1" tooltip="enable"><title>(0.0581054,10)</title></rect><rect x="294" y="198.14" width="6" height="1.85974" stroke="black" stroke-width="1" fill="blue" opacity="1" tooltip="enable"><title>(0.059316,24)</title></rect><rect x="300" y="198.915" width="6" height="1.08485" stroke="black" stroke-width="1" fill="blue" opacity="1" tooltip="enable"><title>(0.0605265,14)</title></rect><rect x="306" y="199.07" width="6" height="0.929872" stroke="black" stroke-width="1" fill="blue" opacity="1" tooltip="enable"><title>(0.061737,12)</title></rect><rect x="312" y="199.07" width="6" height="0.929872" stroke="black" stroke-width="1" fill="blue" opacity="1" tooltip="enable"><title>(0.0629475,12)</title></rect><rect x="318" y="199.38" width="6" height="0.619915" stroke="black" stroke-width="1" fill="blue" opacity="1" tooltip="enable"><title>(0.0641581,8)</title></rect><rect x="324" y="199.07" width="6" height="0.929872" stroke="black" stroke-width="1" fill="blue" opacity="1" tooltip="enable"><title>(0.0653686,12)</title></rect><rect x="330" y="198.295" width="6" height="1.70477" stroke="black" stroke-width="1" fill="blue" opacity="1" tooltip="enable"><title>(0.0665791,22)</title></rect><rect x="336" y="199.69" width="6" height="0.309957" stroke="black" stroke-width="1" fill="blue" opacity="1" tooltip="enable"><title>(0.0677897,4)</title></rect><rect x="342" y="199.845" width="6" height="0.154979" stroke="black" stroke-width="1" fill="blue" opacity="1" tooltip="enable"><title>(0.0690002,2)</title></rect><rect x="348" y="200" width="6" height="0" stroke="black" stroke-width="1" fill="blue" opacity="1" tooltip="enable"><title>(0.0702107,0)</title></rect><rect x="354" y="199.69" width="6" height="0.309957" stroke="black" stroke-width="1" fill="blue" opacity="1" tooltip="enable"><title>(0.0714213,4)</title></rect><rect x="360" y="199.69" width="6" height="0.309957" stroke="black" stroke-width="1" fill="blue" opacity="1" tooltip="enable"><title>(0.0726318,4)</title></rect><rect x="366" y="199.225" width="6" height="0.774893" stroke="black" stroke-width="1" fill="blue" opacity="1" tooltip="enable"><title>(0.0738423,10)</title></rect><rect x="372" y="199.38" width="6" height="0.619915" stroke="black" stroke-width="1" fill="blue" opacity="1" tooltip="enable"><title>(0.0750528,8)</title></rect><rect x="378" y="199.38" width="6" height="0.619915" stroke="black" stroke-width="1" fill="blue" opacity="1" tooltip="enable"><title>(0.0762634,8)</title></rect><rect x="384" y="199.845" width="6" height="0.154979" stroke="black" stroke-width="1" fill="blue" opacity="1" tooltip="enable"><title>(0.0774739,2)</title></rect><rect x="390" y="199.535" width="6" height="0.464936" stroke="black" stroke-width="1" fill="blue" opacity="1" tooltip="enable"><title>(0.0786844,6)</title></rect><rect x="396" y="199.69" width="6" height="0.309957" stroke="black" stroke-width="1" fill="blue" opacity="1" tooltip="enable"><title>(0.079895,4)</title></rect><rect x="402" y="199.535" width="6" height="0.464936" stroke="black" stroke-width="1" fill="blue" opacity="1" tooltip="enable"><title>(0.0811055,6)</title></rect><rect x="408" y="200" width="6" height="0" stroke="black" stroke-width="1" fill="blue" opacity="1" tooltip="enable"><title>(0.082316,0)</title></rect><rect x="414" y="199.845" width="6" height="0.154979" stroke="black" stroke-width="1" fill="blue" opacity="1" tooltip="enable"><title>(0.0835266,2)</title></rect><rect x="420" y="200" width="6" height="0" stroke="black" stroke-width="1" fill="blue" opacity="1" tooltip="enable"><title>(0.0847371,0)</title></rect><rect x="426" y="199.845" width="6" height="0.154979" stroke="black" stroke-width="1" fill="blue" opacity="1" tooltip="enable"><title>(0.0859476,2)</title></rect><rect x="432" y="199.69" width="6" height="0.309957" stroke="black" stroke-width="1" fill="blue" opacity="1" tooltip="enable"><title>(0.0871582,4)</title></rect><rect x="438" y="200" width="6" height="0" stroke="black" stroke-width="1" fill="blue" opacity="1" tooltip="enable"><title>(0.0883687,0)</title></rect><rect x="444" y="199.845" width="6" height="0.154979" stroke="black" stroke-width="1" fill="blue" opacity="1" tooltip="enable"><title>(0.0895792,2)</title></rect><rect x="450" y="200" width="6" height="0" stroke="black" stroke-width="1" fill="blue" opacity="1" tooltip="enable"><title>(0.0907897,0)</title></rect><rect x="456" y="200" width="6" height="0" stroke="black" stroke-width="1" fill="blue" opacity="1" tooltip="enable"><title>(0.0920003,0)</title></rect><rect x="462" y="199.69" width="6" height="0.309957" stroke="black" stroke-width="1" fill="blue" opacity="1" tooltip="enable"><title>(0.0932108,4)</title></rect><rect x="468" y="199.845" width="6" height="0.154979" stroke="black" stroke-width="1" fill="blue" opacity="1" tooltip="enable"><title>(0.0944213,2)</title></rect><rect x="474" y="199.845" width="6" height="0.154979" stroke="black" stroke-width="1" fill="blue" opacity="1" tooltip="enable"><title>(0.0956319,2)</title></rect><rect x="480" y="199.845" width="6" height="0.154979" stroke="black" stroke-width="1" fill="blue" opacity="1" tooltip="enable"><title>(0.0968424,2)</title></rect><rect x="486" y="199.69" width="6" height="0.309957" stroke="black" stroke-width="1" fill="blue" opacity="1" tooltip="enable"><title>(0.0980529,4)</title></rect><rect x="492" y="199.845" width="6" height="0.154979" stroke="black" stroke-width="1" fill="blue" opacity="1" tooltip="enable"><title>(0.0992635,2)</title></rect><rect x="498" y="199.845" width="6" height="0.154979" stroke="black" stroke-width="1" fill="blue" opacity="1" tooltip="enable"><title>(0.100474,2)</title></rect><rect x="504" y="199.845" width="6" height="0.154979" stroke="black" stroke-width="1" fill="blue" opacity="1" tooltip="enable"><title>(0.101685,2)</title></rect><rect x="510" y="200" width="6" height="0" stroke="black" stroke-width="1" fill="blue" opacity="1" tooltip="enable"><title>(0.102895,0)</title></rect><rect x="516" y="200" width="6" height="0" stroke="black" stroke-width="1" fill="blue" opacity="1" tooltip="enable"><title>(0.104106,0)</title></rect><rect x="522" y="200" width="6" height="0" stroke="black" stroke-width="1" fill="blue" opacity="1" tooltip="enable"><title>(0.105316,0)</title></rect><rect x="528" y="200" width="6" height="0" stroke="black" stroke-width="1" fill="blue" opacity="1" tooltip="enable"><title>(0.106527,0)</title></rect><rect x="534" y="200" width="6" height="0" stroke="black" stroke-width="1" fill="blue" opacity="1" tooltip="enable"><title>(0.107737,0)</title></rect><rect x="540" y="200" width="6" height="0" stroke="black" stroke-width="1" fill="blue" opacity="1" tooltip="enable"><title>(0.108948,0)</title></rect><rect x="546" y="200" width="6" height="0" stroke="black" stroke-width="1" fill="blue" opacity="1" tooltip="enable"><title>(0.110158,0)</title></rect><rect x="552" y="199.845" width="6" height="0.154979" stroke="black" stroke-width="1" fill="blue" opacity="1" tooltip="enable"><title>(0.111369,2)</title></rect><rect x="558" y="200" width="6" height="0" stroke="black" stroke-width="1" fill="blue" opacity="1" tooltip="enable"><title>(0.112579,0)</title></rect><rect x="564" y="200" width="6" height="0" stroke="black" stroke-width="1" fill="blue" opacity="1" tooltip="enable"><title>(0.11379,0)</title></rect><rect x="570" y="200" width="6" height="0" stroke="black" stroke-width="1" fill="blue" opacity="1" tooltip="enable"><title>(0.115,0)</title></rect><rect x="576" y="200" width="6" height="0" stroke="black" stroke-width="1" fill="blue" opacity="1" tooltip="enable"><title>(0.116211,0)</title></rect><rect x="582" y="200" width="6" height="0" stroke="black" stroke-width="1" fill="blue" opacity="1" tooltip="enable"><title>(0.117421,0)</title></rect><rect x="588" y="200" width="6" height="0" stroke="black" stroke-width="1" fill="blue" opacity="1" tooltip="enable"><title>(0.118632,0)</title></rect><rect x="594" y="199.923" width="6" height="0.0774893" stroke="black" stroke-width="1" fill="blue" opacity="1" tooltip="enable"><title>(0.119842,1)</title></rect><text x="30" y="240" font-size="20" fill="black">0</text>
<text x="600" y="240" font-size="20" fill="black">0.121053</text>
<polyline points="0,220,600,220" stroke="black" stroke-width="1" fill="none" opacity="1"/>
<text x="720" y="20" font-size="20" fill="black">2581</text>
<text x="720" y="200" font-size="20" fill="black">0</text>
<polyline points="660,0,660,200" stroke="black" stroke-width="1" fill="none" opacity="1"/>
</svg>