<?xml version="1.0" standalone="yes"?>
<!-- SVG graphic -->
<svg xmlns='http://www.w3.org/2000/svg' xmlns:xlink='http://www.w3.org/1999/xlink'
 version="1.1">
<rect x="0" y="27.5304" width="6" height="172.47" stroke="black" stroke-width="1" fill="blue" opacity="1" tooltip="enable"><title>(0,852)</title></rect><rect x="6" y="0" width="6" height="200" stroke="black" stroke-width="1" fill="blue" opacity="1" tooltip="enable"><title>(0.00134374,988)</title></rect><rect x="12" y="22.2672" width="6" height="177.733" stroke="black" stroke-width="1" fill="blue" opacity="1" tooltip="enable"><title>(0.00268749,878)</title></rect><rect x="18" y="66.8016" width="6" height="133.198" stroke="black" stroke-width="1" fill="blue" opacity="1" tooltip="enable"><title>(0.00403123,658)</title></rect><rect x="24" y="97.166" width="6" height="102.834" stroke="black" stroke-width="1" fill="blue" opacity="1" tooltip="enable"><title>(0.00537498,508)</title></rect><rect x="30" y="117.611" width="6" height="82.3887" stroke="black" stroke-width="1" fill="blue" opacity="1" tooltip="enable"><title>(0.00671872,407)</title></rect><rect x="36" y="130.162" width="6" height="69.8381" stroke="black" stroke-width="1" fill="blue" opacity="1" tooltip="enable"><title>(0.00806246,345)</title></rect><rect x="42" y="128.745" width="6" height="71.2551" stroke="black" stroke-width="1" fill="blue" opacity="1" tooltip="enable"><title>(0.00940621,352)</title></rect><rect x="48" y="128.543" width="6" height="71.4575" stroke="black" stroke-width="1" fill="blue" opacity="1" tooltip="enable"><title>(0.01075,353)</title></rect><rect x="54" y="142.915" width="6" height="57.085" stroke="black" stroke-width="1" fill="blue" opacity="1" tooltip="enable"><title>(0.0120937,282)</title></rect><rect x="60" y="161.741" width="6" height="38.2591" stroke="black" stroke-width="1" fill="blue" opacity="1" tooltip="enable"><title>(0.0134374,189)</title></rect><rect x="66" y="158.3" width="6" height="41.7004" stroke="black" stroke-width="1" fill="blue" opacity="1" tooltip="enable"><title>(0.0147812,206)</title></rect><rect x="72" y="160.931" width="6" height="39.0688" stroke="black" stroke-width="1" fill="blue" opacity="1" tooltip="enable"><title>(0.0161249,193)</title></rect><rect x="78" y="166.397" width="6" height="33.6032" stroke="black" stroke-width="1" fill="blue" opacity="1" tooltip="enable"><title>(0.0174687,166)</title></rect><rect x="84" y="172.672" width="6" height="27.3279" stroke="black" stroke-width="1" fill="blue" opacity="1" tooltip="enable"><title>(0.0188124,135)</title></rect><rect x="90" y="178.745" width="6" height="21.2551" stroke="black" stroke-width="1" fill="blue" opacity="1" tooltip="enable"><title>(0.0201562,105)</title></rect><rect x="96" y="177.126" width="6" height="22.8745" stroke="black" stroke-width="1" fill="blue" opacity="1" tooltip="enable"><title>(0.0214999,113)</title></rect><rect x="102" y="184.413" width="6" height="15.587" stroke="black" stroke-width="1" fill="blue" opacity="1" tooltip="enable"><title>(0.0228436,77)</title></rect><rect x="108" y="185.425" width="6" height="14.5749" stroke="black" stroke-width="1" fill="blue" opacity="1" tooltip="enable"><title>(0.0241874,72)</title></rect><rect x="114" y="188.462" width="6" height="11.5385" stroke="black" stroke-width="1" fill="blue" opacity="1" tooltip="enable"><title>(0.0255311,57)</title></rect><rect x="120" y="185.83" width="6" height="14.17" stroke="black" stroke-width="1" fill="blue" opacity="1" tooltip="enable"><title>(0.0268749,70)</title></rect><rect x="126" y="186.64" width="6" height="13.3603" stroke="black" stroke-width="1" fill="blue" opacity="1" tooltip="enable"><title>(0.0282186,66)</title></rect><rect x="132" y="190.486" width="6" height="9.51417" stroke="black" stroke-width="1" fill="blue" opacity="1" tooltip="enable"><title>(0.0295624,47)</title></rect><rect x="138" y="190.891" width="6" height="9.10931" stroke="black" stroke-width="1" fill="blue" opacity="1" tooltip="enable"><title>(0.0309061,45)</title></rect><rect x="144" y="191.498" width="6" height="8.50202" stroke="black" stroke-width="1" fill="blue" opacity="1" tooltip="enable"><title>(0.0322499,42)</title></rect><rect x="150" y="192.713" width="6" height="7.28745" stroke="black" stroke-width="1" fill="blue" opacity="1" tooltip="enable"><title>(0.0335936,36)</title></rect><rect x="156" y="192.713" width="6" height="7.28745" stroke="black" stroke-width="1" fill="blue" opacity="1" tooltip="enable"><title>(0.0349373,36)</title></rect><rect x="162" y="189.879" width="6" height="10.1215" stroke="black" stroke-width="1" fill="blue" opacity="1" tooltip="enable"><title>(0.0362811,50)</title></rect><rect x="168" y="192.713" width="6" height="7.28745" stroke="black" stroke-width="1" fill="blue" opacity="1" tooltip="enable"><title>(0.0376248,36)</title></rect><rect x="174" y="192.308" width="6" height="7.69231" stroke="black" stroke-width="1" fill="blue" opacity="1" tooltip="enable"><title>(0.0389686,38)</title></rect><rect x="180" y="196.356" width="6" height="3.64372" stroke="black" stroke-width="1" fill="blue" opacity="1" tooltip="enable"><title>(0.0403123,18)</title></rect><rect x="186" y="191.498" width="6" height="8.50202" stroke="black" stroke-width="1" fill="blue" opacity="1" tooltip="enable"><title>(0.0416561,42)</title></rect><rect x="192" y="191.903" width="6" height="8.09717" stroke="black" stroke-width="1" fill="blue" opacity="1" tooltip="enable"><title>(0.0429998,40)</title></rect><rect x="198" y="192.308" width="6" height="7.69231" stroke="black" stroke-width="1" fill="blue" opacity="1" tooltip="enable"><title>(0.0443436,38)</title></rect><rect x="204" y="195.142" width="6" height="4.8583" stroke="black" stroke-width="1" fill="blue" opacity="1" tooltip="enable"><title>(0.0456873,24)</title></rect><rect x="210" y="195.142" width="6" height="4.8583" stroke="black" stroke-width="1" fill="blue" opacity="1" tooltip="enable"><title>(0.047031,24)</title></rect><rect x="216" y="195.951" width="6" height="4.04858" stroke="black" stroke-width="1" fill="blue" opacity="1" tooltip="enable"><title>(0.0483748,20)</title></rect><rect x="222" y="193.117" width="6" height="6.88259" stroke="black" stroke-width="1" fill="blue" opacity="1" tooltip="enable"><title>(0.0497185,34)</title></rect><rect x="228" y="195.142" width="6" height="4.8583" stroke="black" stroke-width="1" fill="blue" opacity="1" tooltip="enable"><title>(0.0510623,24)</title></rect><rect x="234" y="195.344" width="6" height="4.65587" stroke="black" stroke-width="1" fill="blue" opacity="1" tooltip="enable"><title>(0.052406,23)</title></rect><rect x="240" y="194.534" width="6" height="5.46559" stroke="black" stroke-width="1" fill="blue" opacity="1" tooltip="enable"><title>(0.0537498,27)</title></rect><rect x="246" y="197.976" width="6" height="2.02429" stroke="black" stroke-width="1" fill="blue" opacity="1" tooltip="enable"><title>(0.0550935,10)</title></rect><rect x="252" y="197.166" width="6" height="2.83401" stroke="black" stroke-width="1" fill="blue" opacity="1" tooltip="enable"><title>(0.0564372,14)</title></rect><rect x="258" y="198.785" width="6" height="1.21457" stroke="black" stroke-width="1" fill="blue" opacity="1" tooltip="enable"><title>(0.057781,6)</title></rect><rect x="264" y="194.534" width="6" height="5.46559" stroke="black" stroke-width="1" fill="blue" opacity="1" tooltip="enable"><title>(0.0591247,27)</title></rect><rect x="270" y="198.178" width="6" height="1.82186" stroke="black" stroke-width="1" fill="blue" opacity="1" tooltip="enable"><title>(0.0604685,9)</title></rect><rect x="276" y="197.166" width="6" height="2.83401" stroke="black" stroke-width="1" fill="blue" opacity="1" tooltip="enable"><title>(0.0618122,14)</title></rect><rect x="282" y="197.571" width="6" height="2.42915" stroke="black" stroke-width="1" fill="blue" opacity="1" tooltip="enable"><title>(0.063156,12)</title></rect><rect x="288" y="197.571" width="6" height="2.42915" stroke="black" stroke-width="1" fill="blue" opacity="1" tooltip="enable"><title>(0.0644997,12)</title></rect><rect x="294" y="197.571" width="6" height="2.42915" stroke="black" stroke-width="1" fill="blue" opacity="1" tooltip="enable"><title>(0.0658435,12)</title></rect><rect x="300" y="197.571" width="6" height="2.42915" stroke="black" stroke-width="1" fill="blue" opacity="1" tooltip="enable"><title>(0.0671872,12)</title></rect><rect x="306" y="198.785" width="6" height="1.21457" stroke="black" stroke-width="1" fill="blue" opacity="1" tooltip="enable"><title>(0.0685309,6)</title></rect><rect x="312" y="197.166" width="6" height="2.83401" stroke="black" stroke-width="1" fill="blue" opacity="1" tooltip="enable"><title>(0.0698747,14)</title></rect><rect x="318" y="198.381" width="6" height="1.61943" stroke="black" stroke-width="1" fill="blue" opacity="1" tooltip="enable"><title>(0.0712184,8)</title></rect><rect x="324" y="196.559" width="6" height="3.4413" stroke="black" stroke-width="1" fill="blue" opacity="1" tooltip="enable"><title>(0.0725622,17)</title></rect><rect x="330" y="198.178" width="6" height="1.82186" stroke="black" stroke-width="1" fill="blue" opacity="1" tooltip="enable"><title>(0.0739059,9)</title></rect><rect x="336" y="197.166" width="6" height="2.83401" stroke="black" stroke-width="1" fill="blue" opacity="1" tooltip="enable"><title>(0.0752497,14)</title></rect><rect x="342" y="198.381" width="6" height="1.61943" stroke="black" stroke-width="1" fill="blue" opacity="1" tooltip="enable"><title>(0.0765934,8)</title></rect><rect x="348" y="197.976" width="6" height="2.02429" stroke="black" stroke-width="1" fill="blue" opacity="1" tooltip="enable"><title>(0.0779371,10)</title></rect><rect x="354" y="198.381" width="6" height="1.61943" stroke="black" stroke-width="1" fill="blue" opacity="1" tooltip="enable"><title>(0.0792809,8)</title></rect><rect x="360" y="200" width="6" height="0" stroke="black" stroke-width="1" fill="blue" opacity="1" tooltip="enable"><title>(0.0806246,0)</title></rect><rect x="366" y="199.19" width="6" height="0.809717" stroke="black" stroke-width="1" fill="blue" opacity="1" tooltip="enable"><title>(0.0819684,4)</title></rect><rect x="372" y="199.19" width="6" height="0.809717" stroke="black" stroke-width="1" fill="blue" opacity="1" tooltip="enable"><title>(0.0833121,4)</title></rect><rect x="378" y="198.785" width="6" height="1.21457" stroke="black" stroke-width="1" fill="blue" opacity="1" tooltip="enable"><title>(0.0846559,6)</title></rect><rect x="384" y="199.19" width="6" height="0.809717" stroke="black" stroke-width="1" fill="blue" opacity="1" tooltip="enable"><title>(0.0859996,4)</title></rect><rect x="390" y="200" width="6" height="0" stroke="black" stroke-width="1" fill="blue" opacity="1" tooltip="enable"><title>(0.0873434,0)</title></rect><rect x="396" y="200" width="6" height="0" stroke="black" stroke-width="1" fill="blue" opacity="1" tooltip="enable"><title>(0.0886871,0)</title></rect><rect x="402" y="199.595" width="6" height="0.404858" stroke="black" stroke-width="1" fill="blue" opacity="1" tooltip="enable"><title>(0.0900308,2)</title></rect><rect x="408" y="200" width="6" height="0" stroke="black" stroke-width="1" fill="blue" opacity="1" tooltip="enable"><title>(0.0913746,0)</title></rect><rect x="414" y="199.19" width="6" height="0.809717" stroke="black" stroke-width="1" fill="blue" opacity="1" tooltip="enable"><title>(0.0927183,4)</title></rect><rect x="420" y="199.595" width="6" height="0.404858" stroke="black" stroke-width="1" fill="blue" opacity="1" tooltip="enable"><title>(0.0940621,2)</title></rect><rect x="426" y="200" width="6" height="0" stroke="black" stroke-width="1" fill="blue" opacity="1" tooltip="enable"><title>(0.0954058,0)</title></rect><rect x="432" y="198.785" width="6" height="1.21457" stroke="black" stroke-width="1" fill="blue" opacity="1" tooltip="enable"><title>(0.0967496,6)</title></rect><rect x="438" y="199.595" width="6" height="0.404858" stroke="black" stroke-width="1" fill="blue" opacity="1" tooltip="enable"><title>(0.0980933,2)</title></rect><rect x="444" y="199.595" width="6" height="0.404858" stroke="black" stroke-width="1" fill="blue" opacity="1" tooltip="enable"><title>(0.0994371,2)</title></rect><rect x="450" y="200" width="6" height="0" stroke="black" stroke-width="1" fill="blue" opacity="1" tooltip="enable"><title>(0.100781,0)</title></rect><rect x="456" y="199.595" width="6" height="0.404858" stroke="black" stroke-width="1" fill="blue" opacity="1" tooltip="enable"><title>(0.102125,2)</title></rect><rect x="462" y="200" width="6" height="0" stroke="black" stroke-width="1" fill="blue" opacity="1" tooltip="enable"><title>(0.103468,0)</title></rect><rect x="468" y="200" width="6" height="0" stroke="black" stroke-width="1" fill="blue" opacity="1" tooltip="enable"><title>(0.104812,0)</title></rect><rect x="474" y="200" width="6" height="0" stroke="black" stroke-width="1" fill="blue" opacity="1" tooltip="enable"><title>(0.106156,0)</title></rect><rect x="480" y="200" width="6" height="0" stroke="black" stroke-width="1" fill="blue" opacity="1" tooltip="enable"><title>(0.1075,0)</title></rect><rect x="486" y="200" width="6" height="0" stroke="black" stroke-width="1" fill="blue" opacity="1" tooltip="enable"><title>(0.108843,0)</title></rect><rect x="492" y="199.595" width="6" height="0.404858" stroke="black" stroke-width="1" fill="blue" opacity="1" tooltip="enable"><title>(0.110187,2)</title></rect><rect x="498" y="200" width="6" height="0" stroke="black" stroke-width="1" fill="blue" opacity="1" tooltip="enable"><title>(0.111531,0)</title></rect><rect x="504" y="200" width="6" height="0" stroke="black" stroke-width="1" fill="blue" opacity="1" tooltip="enable"><title>(0.112874,0)</title></rect><rect x="510" y="199.595" width="6" height="0.404858" stroke="black" stroke-width="1" fill="blue" opacity="1" tooltip="enable"><title>(0.114218,2)</title></rect><rect x="516" y="199.19" width="6" height="0.809717" stroke="black" stroke-width="1" fill="blue" opacity="1" tooltip="enable"><title>(0.115562,4)</title></rect><rect x="522" y="200" width="6" height="0" stroke="black" stroke-width="1" fill="blue" opacity="1" tooltip="enable"><title>(0.116906,0)</title></rect><rect x="528" y="200" width="6" height="0" stroke="black" stroke-width="1" fill="blue" opacity="1" tooltip="enable"><title>(0.118249,0)</title></rect><rect x="534" y="199.595" width="6" height="0.404858" stroke="black" stroke-width="1" fill="blue" opacity="1" tooltip="enable"><title>(0.119593,2)</title></rect><rect x="540" y="199.595" width="6" height="0.404858" stroke="black" stroke-width="1" fill="blue" opacity="1" tooltip="enable"><title>(0.120937,2)</title></rect><rect x="546" y="199.595" width="6" height="0.404858" stroke="black" stroke-width="1" fill="blue" opacity="1" tooltip="enable"><title>(0.122281,2)</title></rect><rect x="552" y="200" width="6" height="0" stroke="black" stroke-width="1" fill="blue" opacity="1" tooltip="enable"><title>(0.123624,0)</title></rect><rect x="558" y="199.595" width="6" height="0.404858" stroke="black" stroke-width="1" fill="blue" opacity="1" tooltip="enable"><title>(0.124968,2)</title></rect><rect x="564" y="200" width="6" height="0" stroke="black" stroke-width="1" fill="blue" opacity="1" tooltip="enable"><title>(0.126312,0)</title></rect><rect x="570" y="200" width="6" height="0" stroke="black" stroke-width="1" fill="blue" opacity="1" tooltip="enable"><title>(0.127656,0)</title></rect><rect x="576" y="200" width="6" height="0" stroke="black" stroke-width="1" fill="blue" opacity="1" tooltip="enable"><title>(0.128999,0)</title></rect><rect x="582" y="199.595" width="6" height="0.404858" stroke="black" stroke-width="1" fill="blue" opacity="1" tooltip="enable"><title>(0.130343,2)</title></rect><rect x="588" y="199.19" width="6" height="0.809717" stroke="black" stroke-width="1" fill="blue" opacity="1" tooltip="enable"><title>(0.131687,4)</title></rect><rect x="594" y="199.798" width="6" height="0.202429" stroke="black" stroke-width="1" fill="blue" opacity="1" tooltip="enable"><title>(0.133031,1)</title></rect><text x="30" y="240" font-size="20" fill="black">0</text>
<text x="600" y="240" font-size="20" fill="black">0.134374</text>
<polyline points="0,220,600,220" stroke="black" stroke-width="1" fill="none" opacity="1"/>
<text x="720" y="20" font-size="20" fill="black">988</text>
<text x="720" y="200" font-size="20" fill="black">0</text>
<polyline points="660,0,660,200" stroke="black" stroke-width="1" fill="none" opacity="1"/>
</svg>