<?xml version="1.0" standalone="yes"?>
<!-- SVG graphic -->
<svg xmlns='http://www.w3.org/2000/svg' xmlns:xlink='http://www.w3.org/1999/xlink'
 version="1.1">
<rect x="0" y="0" width="6" height="200" stroke="black" stroke-width="1" fill="blue" opacity="1" tooltip="enable"><title>(0,1936)</title></rect><rect x="6" y="38.0165" width="6" height="161.983" stroke="black" stroke-width="1" fill="blue" opacity="1" tooltip="enable"><title>(0.00175952,1568)</title></rect><rect x="12" y="98.5537" width="6" height="101.446" stroke="black" stroke-width="1" fill="blue" opacity="1" tooltip="enable"><title>(0.00351904,982)</title></rect><rect x="18" y="155.579" width="6" height="44.4215" stroke="black" stroke-width="1" fill="blue" opacity="1" tooltip="enable"><title>(0.00527857,430)</title></rect><rect x="24" y="172.521" width="6" height="27.4793" stroke="black" stroke-width="1" fill="blue" opacity="1" tooltip="enable"><title>(0.00703809,266)</title></rect><rect x="30" y="173.967" width="6" height="26.0331" stroke="black" stroke-width="1" fill="blue" opacity="1" tooltip="enable"><title>(0.00879761,252)</title></rect><rect x="36" y="173.967" width="6" height="26.0331" stroke="black" stroke-width="1" fill="blue" opacity="1" tooltip="enable"><title>(0.0105571,252)</title></rect><rect x="42" y="179.752" width="6" height="20.2479" stroke="black" stroke-width="1" fill="blue" opacity="1" tooltip="enable"><title>(0.0123167,196)</title></rect><rect x="48" y="179.339" width="6" height="20.6612" stroke="black" stroke-width="1" fill="blue" opacity="1" tooltip="enable"><title>(0.0140762,200)</title></rect><rect x="54" y="180.992" width="6" height="19.0083" stroke="black" stroke-width="1" fill="blue" opacity="1" tooltip="enable"><title>(0.0158357,184)</title></rect><rect x="60" y="179.649" width="6" height="20.3512" stroke="black" stroke-width="1" fill="blue" opacity="1" tooltip="enable"><title>(0.0175952,197)</title></rect><rect x="66" y="179.649" width="6" height="20.3512" stroke="black" stroke-width="1" fill="blue" opacity="1" tooltip="enable"><title>(0.0193547,197)</title></rect><rect x="72" y="179.959" width="6" height="20.0413" stroke="black" stroke-width="1" fill="blue" opacity="1" tooltip="enable"><title>(0.0211143,194)</title></rect><rect x="78" y="182.541" width="6" height="17.4587" stroke="black" stroke-width="1" fill="blue" opacity="1" tooltip="enable"><title>(0.0228738,169)</title></rect><rect x="84" y="182.645" width="6" height="17.3554" stroke="black" stroke-width="1" fill="blue" opacity="1" tooltip="enable"><title>(0.0246333,168)</title></rect><rect x="90" y="183.264" width="6" height="16.7355" stroke="black" stroke-width="1" fill="blue" opacity="1" tooltip="enable"><title>(0.0263928,162)</title></rect><rect x="96" y="186.364" width="6" height="13.6364" stroke="black" stroke-width="1" fill="blue" opacity="1" tooltip="enable"><title>(0.0281524,132)</title></rect><rect x="102" y="190.186" width="6" height="9.81405" stroke="black" stroke-width="1" fill="blue" opacity="1" tooltip="enable"><title>(0.0299119,95)</title></rect><rect x="108" y="190.496" width="6" height="9.50413" stroke="black" stroke-width="1" fill="blue" opacity="1" tooltip="enable"><title>(0.0316714,92)</title></rect><rect x="114" y="193.079" width="6" height="6.92149" stroke="black" stroke-width="1" fill="blue" opacity="1" tooltip="enable"><title>(0.0334309,67)</title></rect><rect x="120" y="193.698" width="6" height="6.30165" stroke="black" stroke-width="1" fill="blue" opacity="1" tooltip="enable"><title>(0.0351905,61)</title></rect><rect x="126" y="196.074" width="6" height="3.92562" stroke="black" stroke-width="1" fill="blue" opacity="1" tooltip="enable"><title>(0.03695,38)</title></rect><rect x="132" y="196.488" width="6" height="3.5124" stroke="black" stroke-width="1" fill="blue" opacity="1" tooltip="enable"><title>(0.0387095,34)</title></rect><rect x="138" y="197.934" width="6" height="2.06612" stroke="black" stroke-width="1" fill="blue" opacity="1" tooltip="enable"><title>(0.040469,20)</title></rect><rect x="144" y="197.727" width="6" height="2.27273" stroke="black" stroke-width="1" fill="blue" opacity="1" tooltip="enable"><title>(0.0422285,22)</title></rect><rect x="150" y="198.967" width="6" height="1.03306" stroke="black" stroke-width="1" fill="blue" opacity="1" tooltip="enable"><title>(0.0439881,10)</title></rect><rect x="156" y="197.521" width="6" height="2.47934" stroke="black" stroke-width="1" fill="blue" opacity="1" tooltip="enable"><title>(0.0457476,24)</title></rect><rect x="162" y="198.554" width="6" height="1.44628" stroke="black" stroke-width="1" fill="blue" opacity="1" tooltip="enable"><title>(0.0475071,14)</title></rect><rect x="168" y="198.141" width="6" height="1.8595" stroke="black" stroke-width="1" fill="blue" opacity="1" tooltip="enable"><title>(0.0492666,18)</title></rect><rect x="174" y="199.587" width="6" height="0.413223" stroke="black" stroke-width="1" fill="blue" opacity="1" tooltip="enable"><title>(0.0510262,4)</title></rect><rect x="180" y="199.483" width="6" height="0.516529" stroke="black" stroke-width="1" fill="blue" opacity="1" tooltip="enable"><title>(0.0527857,5)</title></rect><rect x="186" y="199.69" width="6" height="0.309917" stroke="black" stroke-width="1" fill="blue" opacity="1" tooltip="enable"><title>(0.0545452,3)</title></rect><rect x="192" y="199.587" width="6" height="0.413223" stroke="black" stroke-width="1" fill="blue" opacity="1" tooltip="enable"><title>(0.0563047,4)</title></rect><rect x="198" y="200" width="6" height="0" stroke="black" stroke-width="1" fill="blue" opacity="1" tooltip="enable"><title>(0.0580642,0)</title></rect><rect x="204" y="199.793" width="6" height="0.206612" stroke="black" stroke-width="1" fill="blue" opacity="1" tooltip="enable"><title>(0.0598238,2)</title></rect><rect x="210" y="200" width="6" height="0" stroke="black" stroke-width="1" fill="blue" opacity="1" tooltip="enable"><title>(0.0615833,0)</title></rect><rect x="216" y="200" width="6" height="0" stroke="black" stroke-width="1" fill="blue" opacity="1" tooltip="enable"><title>(0.0633428,0)</title></rect><rect x="222" y="200" width="6" height="0" stroke="black" stroke-width="1" fill="blue" opacity="1" tooltip="enable"><title>(0.0651023,0)</title></rect><rect x="228" y="200" width="6" height="0" stroke="black" stroke-width="1" fill="blue" opacity="1" tooltip="enable"><title>(0.0668619,0)</title></rect><rect x="234" y="200" width="6" height="0" stroke="black" stroke-width="1" fill="blue" opacity="1" tooltip="enable"><title>(0.0686214,0)</title></rect><rect x="240" y="200" width="6" height="0" stroke="black" stroke-width="1" fill="blue" opacity="1" tooltip="enable"><title>(0.0703809,0)</title></rect><rect x="246" y="200" width="6" height="0" stroke="black" stroke-width="1" fill="blue" opacity="1" tooltip="enable"><title>(0.0721404,0)</title></rect><rect x="252" y="200" width="6" height="0" stroke="black" stroke-width="1" fill="blue" opacity="1" tooltip="enable"><title>(0.0738999,0)</title></rect><rect x="258" y="200" width="6" height="0" stroke="black" stroke-width="1" fill="blue" opacity="1" tooltip="enable"><title>(0.0756595,0)</title></rect><rect x="264" y="200" width="6" height="0" stroke="black" stroke-width="1" fill="blue" opacity="1" tooltip="enable"><title>(0.077419,0)</title></rect><rect x="270" y="200" width="6" height="0" stroke="black" stroke-width="1" fill="blue" opacity="1" tooltip="enable"><title>(0.0791785,0)</title></rect><rect x="276" y="200" width="6" height="0" stroke="black" stroke-width="1" fill="blue" opacity="1" tooltip="enable"><title>(0.080938,0)</title></rect><rect x="282" y="200" width="6" height="0" stroke="black" stroke-width="1" fill="blue" opacity="1" tooltip="enable"><title>(0.0826976,0)</title></rect><rect x="288" y="200" width="6" height="0" stroke="black" stroke-width="1" fill="blue" opacity="1" tooltip="enable"><title>(0.0844571,0)</title></rect><rect x="294" y="200" width="6" height="0" stroke="black" stroke-width="1" fill="blue" opacity="1" tooltip="enable"><title>(0.0862166,0)</title></rect><rect x="300" y="200" width="6" height="0" stroke="black" stroke-width="1" fill="blue" opacity="1" tooltip="enable"><title>(0.0879761,0)</title></rect><rect x="306" y="200" width="6" height="0" stroke="black" stroke-width="1" fill="blue" opacity="1" tooltip="enable"><title>(0.0897356,0)</title></rect><rect x="312" y="200" width="6" height="0" stroke="black" stroke-width="1" fill="blue" opacity="1" tooltip="enable"><title>(0.0914952,0)</title></rect><rect x="318" y="200" width="6" height="0" stroke="black" stroke-width="1" fill="blue" opacity="1" tooltip="enable"><title>(0.0932547,0)</title></rect><rect x="324" y="200" width="6" height="0" stroke="black" stroke-width="1" fill="blue" opacity="1" tooltip="enable"><title>(0.0950142,0)</title></rect><rect x="330" y="200" width="6" height="0" stroke="black" stroke-width="1" fill="blue" opacity="1" tooltip="enable"><title>(0.0967737,0)</title></rect><rect x="336" y="200" width="6" height="0" stroke="black" stroke-width="1" fill="blue" opacity="1" tooltip="enable"><title>(0.0985333,0)</title></rect><rect x="342" y="200" width="6" height="0" stroke="black" stroke-width="1" fill="blue" opacity="1" tooltip="enable"><title>(0.100293,0)</title></rect><rect x="348" y="200" width="6" height="0" stroke="black" stroke-width="1" fill="blue" opacity="1" tooltip="enable"><title>(0.102052,0)</title></rect><rect x="354" y="200" width="6" height="0" stroke="black" stroke-width="1" fill="blue" opacity="1" tooltip="enable"><title>(0.103812,0)</title></rect><rect x="360" y="200" width="6" height="0" stroke="black" stroke-width="1" fill="blue" opacity="1" tooltip="enable"><title>(0.105571,0)</title></rect><rect x="366" y="200" width="6" height="0" stroke="black" stroke-width="1" fill="blue" opacity="1" tooltip="enable"><title>(0.107331,0)</title></rect><rect x="372" y="200" width="6" height="0" stroke="black" stroke-width="1" fill="blue" opacity="1" tooltip="enable"><title>(0.10909,0)</title></rect><rect x="378" y="200" width="6" height="0" stroke="black" stroke-width="1" fill="blue" opacity="1" tooltip="enable"><title>(0.11085,0)</title></rect><rect x="384" y="200" width="6" height="0" stroke="black" stroke-width="1" fill="blue" opacity="1" tooltip="enable"><title>(0.112609,0)</title></rect><rect x="390" y="200" width="6" height="0" stroke="black" stroke-width="1" fill="blue" opacity="1" tooltip="enable"><title>(0.114369,0)</title></rect><rect x="396" y="200" width="6" height="0" stroke="black" stroke-width="1" fill="blue" opacity="1" tooltip="enable"><title>(0.116128,0)</title></rect><rect x="402" y="200" width="6" height="0" stroke="black" stroke-width="1" fill="blue" opacity="1" tooltip="enable"><title>(0.117888,0)</title></rect><rect x="408" y="200" width="6" height="0" stroke="black" stroke-width="1" fill="blue" opacity="1" tooltip="enable"><title>(0.119648,0)</title></rect><rect x="414" y="200" width="6" height="0" stroke="black" stroke-width="1" fill="blue" opacity="1" tooltip="enable"><title>(0.121407,0)</title></rect><rect x="420" y="200" width="6" height="0" stroke="black" stroke-width="1" fill="blue" opacity="1" tooltip="enable"><title>(0.123167,0)</title></rect><rect x="426" y="200" width="6" height="0" stroke="black" stroke-width="1" fill="blue" opacity="1" tooltip="enable"><title>(0.124926,0)</title></rect><rect x="432" y="200" width="6" height="0" stroke="black" stroke-width="1" fill="blue" opacity="1" tooltip="enable"><title>(0.126686,0)</title></rect><rect x="438" y="200" width="6" height="0" stroke="black" stroke-width="1" fill="blue" opacity="1" tooltip="enable"><title>(0.128445,0)</title></rect><rect x="444" y="200" width="6" height="0" stroke="black" stroke-width="1" fill="blue" opacity="1" tooltip="enable"><title>(0.130205,0)</title></rect><rect x="450" y="200" width="6" height="0" stroke="black" stroke-width="1" fill="blue" opacity="1" tooltip="enable"><title>(0.131964,0)</title></rect><rect x="456" y="200" width="6" height="0" stroke="black" stroke-width="1" fill="blue" opacity="1" tooltip="enable"><title>(0.133724,0)</title></rect><rect x="462" y="200" width="6" height="0" stroke="black" stroke-width="1" fill="blue" opacity="1" tooltip="enable"><title>(0.135483,0)</title></rect><rect x="468" y="200" width="6" height="0" stroke="black" stroke-width="1" fill="blue" opacity="1" tooltip="enable"><title>(0.137243,0)</title></rect><rect x="474" y="200" width="6" height="0" stroke="black" stroke-width="1" fill="blue" opacity="1" tooltip="enable"><title>(0.139002,0)</title></rect><rect x="480" y="200" width="6" height="0" stroke="black" stroke-width="1" fill="blue" opacity="1" tooltip="enable"><title>(0.140762,0)</title></rect><rect x="486" y="200" width="6" height="0" stroke="black" stroke-width="1" fill="blue" opacity="1" tooltip="enable"><title>(0.142521,0)</title></rect><rect x="492" y="200" width="6" height="0" stroke="black" stroke-width="1" fill="blue" opacity="1" tooltip="enable"><title>(0.144281,0)</title></rect><rect x="498" y="200" width="6" height="0" stroke="black" stroke-width="1" fill="blue" opacity="1" tooltip="enable"><title>(0.14604,0)</title></rect><rect x="504" y="200" width="6" height="0" stroke="black" stroke-width="1" fill="blue" opacity="1" tooltip="enable"><title>(0.1478,0)</title></rect><rect x="510" y="200" width="6" height="0" stroke="black" stroke-width="1" fill="blue" opacity="1" tooltip="enable"><title>(0.149559,0)</title></rect><rect x="516" y="200" width="6" height="0" stroke="black" stroke-width="1" fill="blue" opacity="1" tooltip="enable"><title>(0.151319,0)</title></rect><rect x="522" y="200" width="6" height="0" stroke="black" stroke-width="1" fill="blue" opacity="1" tooltip="enable"><title>(0.153078,0)</title></rect><rect x="528" y="200" width="6" height="0" stroke="black" stroke-width="1" fill="blue" opacity="1" tooltip="enable"><title>(0.154838,0)</title></rect><rect x="534" y="200" width="6" height="0" stroke="black" stroke-width="1" fill="blue" opacity="1" tooltip="enable"><title>(0.156598,0)</title></rect><rect x="540" y="200" width="6" height="0" stroke="black" stroke-width="1" fill="blue" opacity="1" tooltip="enable"><title>(0.158357,0)</title></rect><rect x="546" y="200" width="6" height="0" stroke="black" stroke-width="1" fill="blue" opacity="1" tooltip="enable"><title>(0.160117,0)</title></rect><rect x="552" y="200" width="6" height="0" stroke="black" stroke-width="1" fill="blue" opacity="1" tooltip="enable"><title>(0.161876,0)</title></rect><rect x="558" y="200" width="6" height="0" stroke="black" stroke-width="1" fill="blue" opacity="1" tooltip="enable"><title>(0.163636,0)</title></rect><rect x="564" y="200" width="6" height="0" stroke="black" stroke-width="1" fill="blue" opacity="1" tooltip="enable"><title>(0.165395,0)</title></rect><rect x="570" y="200" width="6" height="0" stroke="black" stroke-width="1" fill="blue" opacity="1" tooltip="enable"><title>(0.167155,0)</title></rect><rect x="576" y="200" width="6" height="0" stroke="black" stroke-width="1" fill="blue" opacity="1" tooltip="enable"><title>(0.168914,0)</title></rect><rect x="582" y="200" width="6" height="0" stroke="black" stroke-width="1" fill="blue" opacity="1" tooltip="enable"><title>(0.170674,0)</title></rect><rect x="588" y="200" width="6" height="0" stroke="black" stroke-width="1" fill="blue" opacity="1" tooltip="enable"><title>(0.172433,0)</title></rect><rect x="594" y="199.897" width="6" height="0.103306" stroke="black" stroke-width="1" fill="blue" opacity="1" tooltip="enable"><title>(0.174193,1)</title></rect><text x="30" y="240" font-size="20" fill="black">0</text>
<text x="600" y="240" font-size="20" fill="black">0.175952</text>
<polyline points="0,220,600,220" stroke="black" stroke-width="1" fill="none" opacity="1"/>
<text x="720" y="20" font-size="20" fill="black">1936</text>
<text x="720" y="200" font-size="20" fill="black">0</text>
<polyline points="660,0,660,200" stroke="black" stroke-width="1" fill="none" opacity="1"/>
</svg>