<?xml version="1.0" standalone="yes"?>
<!-- SVG graphic -->
<svg xmlns='http://www.w3.org/2000/svg' xmlns:xlink='http://www.w3.org/1999/xlink'
 version="1.1">
<rect x="0" y="31.0345" width="6" height="168.966" stroke="black" stroke-width="1" fill="blue" opacity="1" tooltip="enable"><title>(0,833)</title></rect><rect x="6" y="9.53346" width="6" height="190.467" stroke="black" stroke-width="1" fill="blue" opacity="1" tooltip="enable"><title>(0.00130941,939)</title></rect><rect x="12" y="0" width="6" height="200" stroke="black" stroke-width="1" fill="blue" opacity="1" tooltip="enable"><title>(0.00261883,986)</title></rect><rect x="18" y="41.1765" width="6" height="158.824" stroke="black" stroke-width="1" fill="blue" opacity="1" tooltip="enable"><title>(0.00392824,783)</title></rect><rect x="24" y="81.5416" width="6" height="118.458" stroke="black" stroke-width="1" fill="blue" opacity="1" tooltip="enable"><title>(0.00523765,584)</title></rect><rect x="30" y="108.925" width="6" height="91.0751" stroke="black" stroke-width="1" fill="blue" opacity="1" tooltip="enable"><title>(0.00654706,449)</title></rect><rect x="36" y="140.974" width="6" height="59.0264" stroke="black" stroke-width="1" fill="blue" opacity="1" tooltip="enable"><title>(0.00785648,291)</title></rect><rect x="42" y="148.682" width="6" height="51.3185" stroke="black" stroke-width="1" fill="blue" opacity="1" tooltip="enable"><title>(0.00916589,253)</title></rect><rect x="48" y="162.88" width="6" height="37.1197" stroke="black" stroke-width="1" fill="blue" opacity="1" tooltip="enable"><title>(0.0104753,183)</title></rect><rect x="54" y="167.14" width="6" height="32.86" stroke="black" stroke-width="1" fill="blue" opacity="1" tooltip="enable"><title>(0.0117847,162)</title></rect><rect x="60" y="163.083" width="6" height="36.9168" stroke="black" stroke-width="1" fill="blue" opacity="1" tooltip="enable"><title>(0.0130941,182)</title></rect><rect x="66" y="168.763" width="6" height="31.2373" stroke="black" stroke-width="1" fill="blue" opacity="1" tooltip="enable"><title>(0.0144035,154)</title></rect><rect x="72" y="165.517" width="6" height="34.4828" stroke="black" stroke-width="1" fill="blue" opacity="1" tooltip="enable"><title>(0.015713,170)</title></rect><rect x="78" y="164.909" width="6" height="35.0913" stroke="black" stroke-width="1" fill="blue" opacity="1" tooltip="enable"><title>(0.0170224,173)</title></rect><rect x="84" y="169.371" width="6" height="30.6288" stroke="black" stroke-width="1" fill="blue" opacity="1" tooltip="enable"><title>(0.0183318,151)</title></rect><rect x="90" y="174.848" width="6" height="25.1521" stroke="black" stroke-width="1" fill="blue" opacity="1" tooltip="enable"><title>(0.0196412,124)</title></rect><rect x="96" y="172.414" width="6" height="27.5862" stroke="black" stroke-width="1" fill="blue" opacity="1" tooltip="enable"><title>(0.0209506,136)</title></rect><rect x="102" y="177.89" width="6" height="22.1095" stroke="black" stroke-width="1" fill="blue" opacity="1" tooltip="enable"><title>(0.02226,109)</title></rect><rect x="108" y="181.339" width="6" height="18.6613" stroke="black" stroke-width="1" fill="blue" opacity="1" tooltip="enable"><title>(0.0235694,92)</title></rect><rect x="114" y="174.442" width="6" height="25.5578" stroke="black" stroke-width="1" fill="blue" opacity="1" tooltip="enable"><title>(0.0248788,126)</title></rect><rect x="120" y="177.688" width="6" height="22.3124" stroke="black" stroke-width="1" fill="blue" opacity="1" tooltip="enable"><title>(0.0261883,110)</title></rect><rect x="126" y="183.367" width="6" height="16.6329" stroke="black" stroke-width="1" fill="blue" opacity="1" tooltip="enable"><title>(0.0274977,82)</title></rect><rect x="132" y="178.905" width="6" height="21.0953" stroke="black" stroke-width="1" fill="blue" opacity="1" tooltip="enable"><title>(0.0288071,104)</title></rect><rect x="138" y="181.947" width="6" height="18.0527" stroke="black" stroke-width="1" fill="blue" opacity="1" tooltip="enable"><title>(0.0301165,89)</title></rect><rect x="144" y="182.556" width="6" height="17.4442" stroke="black" stroke-width="1" fill="blue" opacity="1" tooltip="enable"><title>(0.0314259,86)</title></rect><rect x="150" y="184.381" width="6" height="15.6187" stroke="black" stroke-width="1" fill="blue" opacity="1" tooltip="enable"><title>(0.0327353,77)</title></rect><rect x="156" y="187.424" width="6" height="12.5761" stroke="black" stroke-width="1" fill="blue" opacity="1" tooltip="enable"><title>(0.0340447,62)</title></rect><rect x="162" y="184.584" width="6" height="15.4158" stroke="black" stroke-width="1" fill="blue" opacity="1" tooltip="enable"><title>(0.0353541,76)</title></rect><rect x="168" y="187.424" width="6" height="12.5761" stroke="black" stroke-width="1" fill="blue" opacity="1" tooltip="enable"><title>(0.0366636,62)</title></rect><rect x="174" y="190.669" width="6" height="9.33063" stroke="black" stroke-width="1" fill="blue" opacity="1" tooltip="enable"><title>(0.037973,46)</title></rect><rect x="180" y="188.235" width="6" height="11.7647" stroke="black" stroke-width="1" fill="blue" opacity="1" tooltip="enable"><title>(0.0392824,58)</title></rect><rect x="186" y="190.264" width="6" height="9.73631" stroke="black" stroke-width="1" fill="blue" opacity="1" tooltip="enable"><title>(0.0405918,48)</title></rect><rect x="192" y="193.509" width="6" height="6.49087" stroke="black" stroke-width="1" fill="blue" opacity="1" tooltip="enable"><title>(0.0419012,32)</title></rect><rect x="198" y="193.712" width="6" height="6.28803" stroke="black" stroke-width="1" fill="blue" opacity="1" tooltip="enable"><title>(0.0432106,31)</title></rect><rect x="204" y="193.712" width="6" height="6.28803" stroke="black" stroke-width="1" fill="blue" opacity="1" tooltip="enable"><title>(0.04452,31)</title></rect><rect x="210" y="196.349" width="6" height="3.65112" stroke="black" stroke-width="1" fill="blue" opacity="1" tooltip="enable"><title>(0.0458294,18)</title></rect><rect x="216" y="197.566" width="6" height="2.43408" stroke="black" stroke-width="1" fill="blue" opacity="1" tooltip="enable"><title>(0.0471389,12)</title></rect><rect x="222" y="195.943" width="6" height="4.0568" stroke="black" stroke-width="1" fill="blue" opacity="1" tooltip="enable"><title>(0.0484483,20)</title></rect><rect x="228" y="195.943" width="6" height="4.0568" stroke="black" stroke-width="1" fill="blue" opacity="1" tooltip="enable"><title>(0.0497577,20)</title></rect><rect x="234" y="197.972" width="6" height="2.0284" stroke="black" stroke-width="1" fill="blue" opacity="1" tooltip="enable"><title>(0.0510671,10)</title></rect><rect x="240" y="198.377" width="6" height="1.62272" stroke="black" stroke-width="1" fill="blue" opacity="1" tooltip="enable"><title>(0.0523765,8)</title></rect><rect x="246" y="197.566" width="6" height="2.43408" stroke="black" stroke-width="1" fill="blue" opacity="1" tooltip="enable"><title>(0.0536859,12)</title></rect><rect x="252" y="199.594" width="6" height="0.40568" stroke="black" stroke-width="1" fill="blue" opacity="1" tooltip="enable"><title>(0.0549953,2)</title></rect><rect x="258" y="197.972" width="6" height="2.0284" stroke="black" stroke-width="1" fill="blue" opacity="1" tooltip="enable"><title>(0.0563047,10)</title></rect><rect x="264" y="199.594" width="6" height="0.40568" stroke="black" stroke-width="1" fill="blue" opacity="1" tooltip="enable"><title>(0.0576142,2)</title></rect><rect x="270" y="199.594" width="6" height="0.40568" stroke="black" stroke-width="1" fill="blue" opacity="1" tooltip="enable"><title>(0.0589236,2)</title></rect><rect x="276" y="200" width="6" height="0" stroke="black" stroke-width="1" fill="blue" opacity="1" tooltip="enable"><title>(0.060233,0)</title></rect><rect x="282" y="200" width="6" height="0" stroke="black" stroke-width="1" fill="blue" opacity="1" tooltip="enable"><title>(0.0615424,0)</title></rect><rect x="288" y="199.594" width="6" height="0.40568" stroke="black" stroke-width="1" fill="blue" opacity="1" tooltip="enable"><title>(0.0628518,2)</title></rect><rect x="294" y="200" width="6" height="0" stroke="black" stroke-width="1" fill="blue" opacity="1" tooltip="enable"><title>(0.0641612,0)</title></rect><rect x="300" y="200" width="6" height="0" stroke="black" stroke-width="1" fill="blue" opacity="1" tooltip="enable"><title>(0.0654706,0)</title></rect><rect x="306" y="200" width="6" height="0" stroke="black" stroke-width="1" fill="blue" opacity="1" tooltip="enable"><title>(0.06678,0)</title></rect><rect x="312" y="200" width="6" height="0" stroke="black" stroke-width="1" fill="blue" opacity="1" tooltip="enable"><title>(0.0680895,0)</title></rect><rect x="318" y="200" width="6" height="0" stroke="black" stroke-width="1" fill="blue" opacity="1" tooltip="enable"><title>(0.0693989,0)</title></rect><rect x="324" y="200" width="6" height="0" stroke="black" stroke-width="1" fill="blue" opacity="1" tooltip="enable"><title>(0.0707083,0)</title></rect><rect x="330" y="200" width="6" height="0" stroke="black" stroke-width="1" fill="blue" opacity="1" tooltip="enable"><title>(0.0720177,0)</title></rect><rect x="336" y="200" width="6" height="0" stroke="black" stroke-width="1" fill="blue" opacity="1" tooltip="enable"><title>(0.0733271,0)</title></rect><rect x="342" y="200" width="6" height="0" stroke="black" stroke-width="1" fill="blue" opacity="1" tooltip="enable"><title>(0.0746365,0)</title></rect><rect x="348" y="200" width="6" height="0" stroke="black" stroke-width="1" fill="blue" opacity="1" tooltip="enable"><title>(0.0759459,0)</title></rect><rect x="354" y="200" width="6" height="0" stroke="black" stroke-width="1" fill="blue" opacity="1" tooltip="enable"><title>(0.0772553,0)</title></rect><rect x="360" y="200" width="6" height="0" stroke="black" stroke-width="1" fill="blue" opacity="1" tooltip="enable"><title>(0.0785648,0)</title></rect><rect x="366" y="200" width="6" height="0" stroke="black" stroke-width="1" fill="blue" opacity="1" tooltip="enable"><title>(0.0798742,0)</title></rect><rect x="372" y="200" width="6" height="0" stroke="black" stroke-width="1" fill="blue" opacity="1" tooltip="enable"><title>(0.0811836,0)</title></rect><rect x="378" y="200" width="6" height="0" stroke="black" stroke-width="1" fill="blue" opacity="1" tooltip="enable"><title>(0.082493,0)</title></rect><rect x="384" y="200" width="6" height="0" stroke="black" stroke-width="1" fill="blue" opacity="1" tooltip="enable"><title>(0.0838024,0)</title></rect><rect x="390" y="200" width="6" height="0" stroke="black" stroke-width="1" fill="blue" opacity="1" tooltip="enable"><title>(0.0851118,0)</title></rect><rect x="396" y="200" width="6" height="0" stroke="black" stroke-width="1" fill="blue" opacity="1" tooltip="enable"><title>(0.0864212,0)</title></rect><rect x="402" y="200" width="6" height="0" stroke="black" stroke-width="1" fill="blue" opacity="1" tooltip="enable"><title>(0.0877307,0)</title></rect><rect x="408" y="200" width="6" height="0" stroke="black" stroke-width="1" fill="blue" opacity="1" tooltip="enable"><title>(0.0890401,0)</title></rect><rect x="414" y="199.594" width="6" height="0.40568" stroke="black" stroke-width="1" fill="blue" opacity="1" tooltip="enable"><title>(0.0903495,2)</title></rect><rect x="420" y="200" width="6" height="0" stroke="black" stroke-width="1" fill="blue" opacity="1" tooltip="enable"><title>(0.0916589,0)</title></rect><rect x="426" y="200" width="6" height="0" stroke="black" stroke-width="1" fill="blue" opacity="1" tooltip="enable"><title>(0.0929683,0)</title></rect><rect x="432" y="200" width="6" height="0" stroke="black" stroke-width="1" fill="blue" opacity="1" tooltip="enable"><title>(0.0942777,0)</title></rect><rect x="438" y="200" width="6" height="0" stroke="black" stroke-width="1" fill="blue" opacity="1" tooltip="enable"><title>(0.0955871,0)</title></rect><rect x="444" y="200" width="6" height="0" stroke="black" stroke-width="1" fill="blue" opacity="1" tooltip="enable"><title>(0.0968965,0)</title></rect><rect x="450" y="200" width="6" height="0" stroke="black" stroke-width="1" fill="blue" opacity="1" tooltip="enable"><title>(0.098206,0)</title></rect><rect x="456" y="200" width="6" height="0" stroke="black" stroke-width="1" fill="blue" opacity="1" tooltip="enable"><title>(0.0995154,0)</title></rect><rect x="462" y="200" width="6" height="0" stroke="black" stroke-width="1" fill="blue" opacity="1" tooltip="enable"><title>(0.100825,0)</title></rect><rect x="468" y="200" width="6" height="0" stroke="black" stroke-width="1" fill="blue" opacity="1" tooltip="enable"><title>(0.102134,0)</title></rect><rect x="474" y="200" width="6" height="0" stroke="black" stroke-width="1" fill="blue" opacity="1" tooltip="enable"><title>(0.103444,0)</title></rect><rect x="480" y="200" width="6" height="0" stroke="black" stroke-width="1" fill="blue" opacity="1" tooltip="enable"><title>(0.104753,0)</title></rect><rect x="486" y="200" width="6" height="0" stroke="black" stroke-width="1" fill="blue" opacity="1" tooltip="enable"><title>(0.106062,0)</title></rect><rect x="492" y="200" width="6" height="0" stroke="black" stroke-width="1" fill="blue" opacity="1" tooltip="enable"><title>(0.107372,0)</title></rect><rect x="498" y="200" width="6" height="0" stroke="black" stroke-width="1" fill="blue" opacity="1" tooltip="enable"><title>(0.108681,0)</title></rect><rect x="504" y="200" width="6" height="0" stroke="black" stroke-width="1" fill="blue" opacity="1" tooltip="enable"><title>(0.109991,0)</title></rect><rect x="510" y="199.594" width="6" height="0.40568" stroke="black" stroke-width="1" fill="blue" opacity="1" tooltip="enable"><title>(0.1113,2)</title></rect><rect x="516" y="200" width="6" height="0" stroke="black" stroke-width="1" fill="blue" opacity="1" tooltip="enable"><title>(0.112609,0)</title></rect><rect x="522" y="200" width="6" height="0" stroke="black" stroke-width="1" fill="blue" opacity="1" tooltip="enable"><title>(0.113919,0)</title></rect><rect x="528" y="200" width="6" height="0" stroke="black" stroke-width="1" fill="blue" opacity="1" tooltip="enable"><title>(0.115228,0)</title></rect><rect x="534" y="200" width="6" height="0" stroke="black" stroke-width="1" fill="blue" opacity="1" tooltip="enable"><title>(0.116538,0)</title></rect><rect x="540" y="199.594" width="6" height="0.40568" stroke="black" stroke-width="1" fill="blue" opacity="1" tooltip="enable"><title>(0.117847,2)</title></rect><rect x="546" y="200" width="6" height="0" stroke="black" stroke-width="1" fill="blue" opacity="1" tooltip="enable"><title>(0.119157,0)</title></rect><rect x="552" y="200" width="6" height="0" stroke="black" stroke-width="1" fill="blue" opacity="1" tooltip="enable"><title>(0.120466,0)</title></rect><rect x="558" y="200" width="6" height="0" stroke="black" stroke-width="1" fill="blue" opacity="1" tooltip="enable"><title>(0.121775,0)</title></rect><rect x="564" y="200" width="6" height="0" stroke="black" stroke-width="1" fill="blue" opacity="1" tooltip="enable"><title>(0.123085,0)</title></rect><rect x="570" y="200" width="6" height="0" stroke="black" stroke-width="1" fill="blue" opacity="1" tooltip="enable"><title>(0.124394,0)</title></rect><rect x="576" y="200" width="6" height="0" stroke="black" stroke-width="1" fill="blue" opacity="1" tooltip="enable"><title>(0.125704,0)</title></rect><rect x="582" y="200" width="6" height="0" stroke="black" stroke-width="1" fill="blue" opacity="1" tooltip="enable"><title>(0.127013,0)</title></rect><rect x="588" y="200" width="6" height="0" stroke="black" stroke-width="1" fill="blue" opacity="1" tooltip="enable"><title>(0.128322,0)</title></rect><rect x="594" y="199.797" width="6" height="0.20284" stroke="black" stroke-width="1" fill="blue" opacity="1" tooltip="enable"><title>(0.129632,1)</title></rect><text x="30" y="240" font-size="20" fill="black">0</text>
<text x="600" y="240" font-size="20" fill="black">0.130941</text>
<polyline points="0,220,600,220" stroke="black" stroke-width="1" fill="none" opacity="1"/>
<text x="720" y="20" font-size="20" fill="black">986</text>
<text x="720" y="200" font-size="20" fill="black">0</text>
<polyline points="660,0,660,200" stroke="black" stroke-width="1" fill="none" opacity="1"/>
</svg>