<?xml version="1.0" standalone="yes"?>
<!-- SVG graphic -->
<svg xmlns='http://www.w3.org/2000/svg' xmlns:xlink='http://www.w3.org/1999/xlink'
 version="1.1">
<rect x="0" y="0" width="6" height="200" stroke="black" stroke-width="1" fill="blue" opacity="1" tooltip="enable"><title>(0,2524)</title></rect><rect x="6" y="111.886" width="6" height="88.1141" stroke="black" stroke-width="1" fill="blue" opacity="1" tooltip="enable"><title>(0.00120971,1112)</title></rect><rect x="12" y="148.415" width="6" height="51.5848" stroke="black" stroke-width="1" fill="blue" opacity="1" tooltip="enable"><title>(0.00241943,651)</title></rect><rect x="18" y="178.843" width="6" height="21.1569" stroke="black" stroke-width="1" fill="blue" opacity="1" tooltip="enable"><title>(0.00362914,267)</title></rect><rect x="24" y="185.578" width="6" height="14.4216" stroke="black" stroke-width="1" fill="blue" opacity="1" tooltip="enable"><title>(0.00483886,182)</title></rect><rect x="30" y="186.054" width="6" height="13.9461" stroke="black" stroke-width="1" fill="blue" opacity="1" tooltip="enable"><title>(0.00604857,176)</title></rect><rect x="36" y="189.065" width="6" height="10.935" stroke="black" stroke-width="1" fill="blue" opacity="1" tooltip="enable"><title>(0.00725829,138)</title></rect><rect x="42" y="189.382" width="6" height="10.6181" stroke="black" stroke-width="1" fill="blue" opacity="1" tooltip="enable"><title>(0.008468,134)</title></rect><rect x="48" y="188.273" width="6" height="11.7274" stroke="black" stroke-width="1" fill="blue" opacity="1" tooltip="enable"><title>(0.00967772,148)</title></rect><rect x="54" y="188.906" width="6" height="11.0935" stroke="black" stroke-width="1" fill="blue" opacity="1" tooltip="enable"><title>(0.0108874,140)</title></rect><rect x="60" y="187.956" width="6" height="12.0444" stroke="black" stroke-width="1" fill="blue" opacity="1" tooltip="enable"><title>(0.0120971,152)</title></rect><rect x="66" y="189.54" width="6" height="10.4596" stroke="black" stroke-width="1" fill="blue" opacity="1" tooltip="enable"><title>(0.0133069,132)</title></rect><rect x="72" y="188.273" width="6" height="11.7274" stroke="black" stroke-width="1" fill="blue" opacity="1" tooltip="enable"><title>(0.0145166,148)</title></rect><rect x="78" y="191.759" width="6" height="8.24089" stroke="black" stroke-width="1" fill="blue" opacity="1" tooltip="enable"><title>(0.0157263,104)</title></rect><rect x="84" y="191.046" width="6" height="8.95404" stroke="black" stroke-width="1" fill="blue" opacity="1" tooltip="enable"><title>(0.016936,113)</title></rect><rect x="90" y="191.284" width="6" height="8.71632" stroke="black" stroke-width="1" fill="blue" opacity="1" tooltip="enable"><title>(0.0181457,110)</title></rect><rect x="96" y="190.729" width="6" height="9.271" stroke="black" stroke-width="1" fill="blue" opacity="1" tooltip="enable"><title>(0.0193554,117)</title></rect><rect x="102" y="193.661" width="6" height="6.33914" stroke="black" stroke-width="1" fill="blue" opacity="1" tooltip="enable"><title>(0.0205651,80)</title></rect><rect x="108" y="193.661" width="6" height="6.33914" stroke="black" stroke-width="1" fill="blue" opacity="1" tooltip="enable"><title>(0.0217749,80)</title></rect><rect x="114" y="193.74" width="6" height="6.2599" stroke="black" stroke-width="1" fill="blue" opacity="1" tooltip="enable"><title>(0.0229846,79)</title></rect><rect x="120" y="194.612" width="6" height="5.38827" stroke="black" stroke-width="1" fill="blue" opacity="1" tooltip="enable"><title>(0.0241943,68)</title></rect><rect x="126" y="194.374" width="6" height="5.62599" stroke="black" stroke-width="1" fill="blue" opacity="1" tooltip="enable"><title>(0.025404,71)</title></rect><rect x="132" y="195.087" width="6" height="4.91284" stroke="black" stroke-width="1" fill="blue" opacity="1" tooltip="enable"><title>(0.0266137,62)</title></rect><rect x="138" y="193.899" width="6" height="6.10143" stroke="black" stroke-width="1" fill="blue" opacity="1" tooltip="enable"><title>(0.0278234,77)</title></rect><rect x="144" y="196.593" width="6" height="3.40729" stroke="black" stroke-width="1" fill="blue" opacity="1" tooltip="enable"><title>(0.0290331,43)</title></rect><rect x="150" y="196.038" width="6" height="3.96197" stroke="black" stroke-width="1" fill="blue" opacity="1" tooltip="enable"><title>(0.0302429,50)</title></rect><rect x="156" y="196.989" width="6" height="3.01109" stroke="black" stroke-width="1" fill="blue" opacity="1" tooltip="enable"><title>(0.0314526,38)</title></rect><rect x="162" y="196.197" width="6" height="3.80349" stroke="black" stroke-width="1" fill="blue" opacity="1" tooltip="enable"><title>(0.0326623,48)</title></rect><rect x="168" y="196.197" width="6" height="3.80349" stroke="black" stroke-width="1" fill="blue" opacity="1" tooltip="enable"><title>(0.033872,48)</title></rect><rect x="174" y="196.83" width="6" height="3.16957" stroke="black" stroke-width="1" fill="blue" opacity="1" tooltip="enable"><title>(0.0350817,40)</title></rect><rect x="180" y="195.404" width="6" height="4.59588" stroke="black" stroke-width="1" fill="blue" opacity="1" tooltip="enable"><title>(0.0362914,58)</title></rect><rect x="186" y="196.276" width="6" height="3.72425" stroke="black" stroke-width="1" fill="blue" opacity="1" tooltip="enable"><title>(0.0375011,47)</title></rect><rect x="192" y="196.751" width="6" height="3.24881" stroke="black" stroke-width="1" fill="blue" opacity="1" tooltip="enable"><title>(0.0387109,41)</title></rect><rect x="198" y="195.404" width="6" height="4.59588" stroke="black" stroke-width="1" fill="blue" opacity="1" tooltip="enable"><title>(0.0399206,58)</title></rect><rect x="204" y="196.117" width="6" height="3.88273" stroke="black" stroke-width="1" fill="blue" opacity="1" tooltip="enable"><title>(0.0411303,49)</title></rect><rect x="210" y="196.117" width="6" height="3.88273" stroke="black" stroke-width="1" fill="blue" opacity="1" tooltip="enable"><title>(0.04234,49)</title></rect><rect x="216" y="196.989" width="6" height="3.01109" stroke="black" stroke-width="1" fill="blue" opacity="1" tooltip="enable"><title>(0.0435497,38)</title></rect><rect x="222" y="197.306" width="6" height="2.69414" stroke="black" stroke-width="1" fill="blue" opacity="1" tooltip="enable"><title>(0.0447594,34)</title></rect><rect x="228" y="197.544" width="6" height="2.45642" stroke="black" stroke-width="1" fill="blue" opacity="1" tooltip="enable"><title>(0.0459692,31)</title></rect><rect x="234" y="197.385" width="6" height="2.6149" stroke="black" stroke-width="1" fill="blue" opacity="1" tooltip="enable"><title>(0.0471789,33)</title></rect><rect x="240" y="197.623" width="6" height="2.37718" stroke="black" stroke-width="1" fill="blue" opacity="1" tooltip="enable"><title>(0.0483886,30)</title></rect><rect x="246" y="196.513" width="6" height="3.48653" stroke="black" stroke-width="1" fill="blue" opacity="1" tooltip="enable"><title>(0.0495983,44)</title></rect><rect x="252" y="197.94" width="6" height="2.06022" stroke="black" stroke-width="1" fill="blue" opacity="1" tooltip="enable"><title>(0.050808,26)</title></rect><rect x="258" y="198.098" width="6" height="1.90174" stroke="black" stroke-width="1" fill="blue" opacity="1" tooltip="enable"><title>(0.0520177,24)</title></rect><rect x="264" y="197.781" width="6" height="2.2187" stroke="black" stroke-width="1" fill="blue" opacity="1" tooltip="enable"><title>(0.0532274,28)</title></rect><rect x="270" y="197.702" width="6" height="2.29794" stroke="black" stroke-width="1" fill="blue" opacity="1" tooltip="enable"><title>(0.0544371,29)</title></rect><rect x="276" y="198.019" width="6" height="1.98098" stroke="black" stroke-width="1" fill="blue" opacity="1" tooltip="enable"><title>(0.0556469,25)</title></rect><rect x="282" y="198.574" width="6" height="1.42631" stroke="black" stroke-width="1" fill="blue" opacity="1" tooltip="enable"><title>(0.0568566,18)</title></rect><rect x="288" y="199.287" width="6" height="0.713154" stroke="black" stroke-width="1" fill="blue" opacity="1" tooltip="enable"><title>(0.0580663,9)</title></rect><rect x="294" y="198.019" width="6" height="1.98098" stroke="black" stroke-width="1" fill="blue" opacity="1" tooltip="enable"><title>(0.059276,25)</title></rect><rect x="300" y="198.732" width="6" height="1.26783" stroke="black" stroke-width="1" fill="blue" opacity="1" tooltip="enable"><title>(0.0604857,16)</title></rect><rect x="306" y="199.287" width="6" height="0.713154" stroke="black" stroke-width="1" fill="blue" opacity="1" tooltip="enable"><title>(0.0616954,9)</title></rect><rect x="312" y="198.97" width="6" height="1.03011" stroke="black" stroke-width="1" fill="blue" opacity="1" tooltip="enable"><title>(0.0629051,13)</title></rect><rect x="318" y="199.366" width="6" height="0.633914" stroke="black" stroke-width="1" fill="blue" opacity="1" tooltip="enable"><title>(0.0641149,8)</title></rect><rect x="324" y="199.128" width="6" height="0.871632" stroke="black" stroke-width="1" fill="blue" opacity="1" tooltip="enable"><title>(0.0653246,11)</title></rect><rect x="330" y="198.257" width="6" height="1.74326" stroke="black" stroke-width="1" fill="blue" opacity="1" tooltip="enable"><title>(0.0665343,22)</title></rect><rect x="336" y="199.604" width="6" height="0.396197" stroke="black" stroke-width="1" fill="blue" opacity="1" tooltip="enable"><title>(0.067744,5)</title></rect><rect x="342" y="199.842" width="6" height="0.158479" stroke="black" stroke-width="1" fill="blue" opacity="1" tooltip="enable"><title>(0.0689537,2)</title></rect><rect x="348" y="200" width="6" height="0" stroke="black" stroke-width="1" fill="blue" opacity="1" tooltip="enable"><title>(0.0701634,0)</title></rect><rect x="354" y="199.842" width="6" height="0.158479" stroke="black" stroke-width="1" fill="blue" opacity="1" tooltip="enable"><title>(0.0713731,2)</title></rect><rect x="360" y="199.525" width="6" height="0.475436" stroke="black" stroke-width="1" fill="blue" opacity="1" tooltip="enable"><title>(0.0725829,6)</title></rect><rect x="366" y="199.208" width="6" height="0.792393" stroke="black" stroke-width="1" fill="blue" opacity="1" tooltip="enable"><title>(0.0737926,10)</title></rect><rect x="372" y="199.366" width="6" height="0.633914" stroke="black" stroke-width="1" fill="blue" opacity="1" tooltip="enable"><title>(0.0750023,8)</title></rect><rect x="378" y="199.366" width="6" height="0.633914" stroke="black" stroke-width="1" fill="blue" opacity="1" tooltip="enable"><title>(0.076212,8)</title></rect><rect x="384" y="199.842" width="6" height="0.158479" stroke="black" stroke-width="1" fill="blue" opacity="1" tooltip="enable"><title>(0.0774217,2)</title></rect><rect x="390" y="199.525" width="6" height="0.475436" stroke="black" stroke-width="1" fill="blue" opacity="1" tooltip="enable"><title>(0.0786314,6)</title></rect><rect x="396" y="199.683" width="6" height="0.316957" stroke="black" stroke-width="1" fill="blue" opacity="1" tooltip="enable"><title>(0.0798412,4)</title></rect><rect x="402" y="199.525" width="6" height="0.475436" stroke="black" stroke-width="1" fill="blue" opacity="1" tooltip="enable"><title>(0.0810509,6)</title></rect><rect x="408" y="200" width="6" height="0" stroke="black" stroke-width="1" fill="blue" opacity="1" tooltip="enable"><title>(0.0822606,0)</title></rect><rect x="414" y="199.842" width="6" height="0.158479" stroke="black" stroke-width="1" fill="blue" opacity="1" tooltip="enable"><title>(0.0834703,2)</title></rect><rect x="420" y="200" width="6" height="0" stroke="black" stroke-width="1" fill="blue" opacity="1" tooltip="enable"><title>(0.08468,0)</title></rect><rect x="426" y="199.842" width="6" height="0.158479" stroke="black" stroke-width="1" fill="blue" opacity="1" tooltip="enable"><title>(0.0858897,2)</title></rect><rect x="432" y="199.683" width="6" height="0.316957" stroke="black" stroke-width="1" fill="blue" opacity="1" tooltip="enable"><title>(0.0870994,4)</title></rect><rect x="438" y="200" width="6" height="0" stroke="black" stroke-width="1" fill="blue" opacity="1" tooltip="enable"><title>(0.0883092,0)</title></rect><rect x="444" y="200" width="6" height="0" stroke="black" stroke-width="1" fill="blue" opacity="1" tooltip="enable"><title>(0.0895189,0)</title></rect><rect x="450" y="199.842" width="6" height="0.158479" stroke="black" stroke-width="1" fill="blue" opacity="1" tooltip="enable"><title>(0.0907286,2)</title></rect><rect x="456" y="200" width="6" height="0" stroke="black" stroke-width="1" fill="blue" opacity="1" tooltip="enable"><title>(0.0919383,0)</title></rect><rect x="462" y="199.683" width="6" height="0.316957" stroke="black" stroke-width="1" fill="blue" opacity="1" tooltip="enable"><title>(0.093148,4)</title></rect><rect x="468" y="199.842" width="6" height="0.158479" stroke="black" stroke-width="1" fill="blue" opacity="1" tooltip="enable"><title>(0.0943577,2)</title></rect><rect x="474" y="199.842" width="6" height="0.158479" stroke="black" stroke-width="1" fill="blue" opacity="1" tooltip="enable"><title>(0.0955674,2)</title></rect><rect x="480" y="199.842" width="6" height="0.158479" stroke="black" stroke-width="1" fill="blue" opacity="1" tooltip="enable"><title>(0.0967772,2)</title></rect><rect x="486" y="199.683" width="6" height="0.316957" stroke="black" stroke-width="1" fill="blue" opacity="1" tooltip="enable"><title>(0.0979869,4)</title></rect><rect x="492" y="199.842" width="6" height="0.158479" stroke="black" stroke-width="1" fill="blue" opacity="1" tooltip="enable"><title>(0.0991966,2)</title></rect><rect x="498" y="199.921" width="6" height="0.0792393" stroke="black" stroke-width="1" fill="blue" opacity="1" tooltip="enable"><title>(0.100406,1)</title></rect><rect x="504" y="199.762" width="6" height="0.237718" stroke="black" stroke-width="1" fill="blue" opacity="1" tooltip="enable"><title>(0.101616,3)</title></rect><rect x="510" y="200" width="6" height="0" stroke="black" stroke-width="1" fill="blue" opacity="1" tooltip="enable"><title>(0.102826,0)</title></rect><rect x="516" y="200" width="6" height="0" stroke="black" stroke-width="1" fill="blue" opacity="1" tooltip="enable"><title>(0.104035,0)</title></rect><rect x="522" y="200" width="6" height="0" stroke="black" stroke-width="1" fill="blue" opacity="1" tooltip="enable"><title>(0.105245,0)</title></rect><rect x="528" y="200" width="6" height="0" stroke="black" stroke-width="1" fill="blue" opacity="1" tooltip="enable"><title>(0.106455,0)</title></rect><rect x="534" y="200" width="6" height="0" stroke="black" stroke-width="1" fill="blue" opacity="1" tooltip="enable"><title>(0.107665,0)</title></rect><rect x="540" y="200" width="6" height="0" stroke="black" stroke-width="1" fill="blue" opacity="1" tooltip="enable"><title>(0.108874,0)</title></rect><rect x="546" y="200" width="6" height="0" stroke="black" stroke-width="1" fill="blue" opacity="1" tooltip="enable"><title>(0.110084,0)</title></rect><rect x="552" y="199.842" width="6" height="0.158479" stroke="black" stroke-width="1" fill="blue" opacity="1" tooltip="enable"><title>(0.111294,2)</title></rect><rect x="558" y="200" width="6" height="0" stroke="black" stroke-width="1" fill="blue" opacity="1" tooltip="enable"><title>(0.112503,0)</title></rect><rect x="564" y="200" width="6" height="0" stroke="black" stroke-width="1" fill="blue" opacity="1" tooltip="enable"><title>(0.113713,0)</title></rect><rect x="570" y="200" width="6" height="0" stroke="black" stroke-width="1" fill="blue" opacity="1" tooltip="enable"><title>(0.114923,0)</title></rect><rect x="576" y="200" width="6" height="0" stroke="black" stroke-width="1" fill="blue" opacity="1" tooltip="enable"><title>(0.116133,0)</title></rect><rect x="582" y="200" width="6" height="0" stroke="black" stroke-width="1" fill="blue" opacity="1" tooltip="enable"><title>(0.117342,0)</title></rect><rect x="588" y="200" width="6" height="0" stroke="black" stroke-width="1" fill="blue" opacity="1" tooltip="enable"><title>(0.118552,0)</title></rect><rect x="594" y="199.921" width="6" height="0.0792393" stroke="black" stroke-width="1" fill="blue" opacity="1" tooltip="enable"><title>(0.119762,1)</title></rect><text x="30" y="240" font-size="20" fill="black">0</text>
<text x="600" y="240" font-size="20" fill="black">0.120971</text>
<polyline points="0,220,600,220" stroke="black" stroke-width="1" fill="none" opacity="1"/>
<text x="720" y="20" font-size="20" fill="black">2524</text>
<text x="720" y="200" font-size="20" fill="black">0</text>
<polyline points="660,0,660,200" stroke="black" stroke-width="1" fill="none" opacity="1"/>
</svg>