<?xml version="1.0" standalone="yes"?>
<!-- SVG graphic -->
<svg xmlns='http://www.w3.org/2000/svg' xmlns:xlink='http://www.w3.org/1999/xlink'
 version="1.1">
<rect x="0" y="0" width="6" height="200" stroke="black" stroke-width="1" fill="blue" opacity="1" tooltip="enable"><title>(0,1894)</title></rect><rect x="6" y="36.5364" width="6" height="163.464" stroke="black" stroke-width="1" fill="blue" opacity="1" tooltip="enable"><title>(0.00175083,1548)</title></rect><rect x="12" y="93.5586" width="6" height="106.441" stroke="black" stroke-width="1" fill="blue" opacity="1" tooltip="enable"><title>(0.00350165,1008)</title></rect><rect x="18" y="153.537" width="6" height="46.4625" stroke="black" stroke-width="1" fill="blue" opacity="1" tooltip="enable"><title>(0.00525248,440)</title></rect><rect x="24" y="170.433" width="6" height="29.5671" stroke="black" stroke-width="1" fill="blue" opacity="1" tooltip="enable"><title>(0.00700331,280)</title></rect><rect x="30" y="173.918" width="6" height="26.0824" stroke="black" stroke-width="1" fill="blue" opacity="1" tooltip="enable"><title>(0.00875413,247)</title></rect><rect x="36" y="172.756" width="6" height="27.2439" stroke="black" stroke-width="1" fill="blue" opacity="1" tooltip="enable"><title>(0.010505,258)</title></rect><rect x="42" y="178.775" width="6" height="21.2249" stroke="black" stroke-width="1" fill="blue" opacity="1" tooltip="enable"><title>(0.0122558,201)</title></rect><rect x="48" y="179.092" width="6" height="20.9081" stroke="black" stroke-width="1" fill="blue" opacity="1" tooltip="enable"><title>(0.0140066,198)</title></rect><rect x="54" y="180.148" width="6" height="19.8522" stroke="black" stroke-width="1" fill="blue" opacity="1" tooltip="enable"><title>(0.0157574,188)</title></rect><rect x="60" y="179.514" width="6" height="20.4857" stroke="black" stroke-width="1" fill="blue" opacity="1" tooltip="enable"><title>(0.0175083,194)</title></rect><rect x="66" y="179.303" width="6" height="20.6969" stroke="black" stroke-width="1" fill="blue" opacity="1" tooltip="enable"><title>(0.0192591,196)</title></rect><rect x="72" y="179.197" width="6" height="20.8025" stroke="black" stroke-width="1" fill="blue" opacity="1" tooltip="enable"><title>(0.0210099,197)</title></rect><rect x="78" y="182.049" width="6" height="17.9514" stroke="black" stroke-width="1" fill="blue" opacity="1" tooltip="enable"><title>(0.0227607,170)</title></rect><rect x="84" y="182.577" width="6" height="17.4234" stroke="black" stroke-width="1" fill="blue" opacity="1" tooltip="enable"><title>(0.0245116,165)</title></rect><rect x="90" y="182.471" width="6" height="17.529" stroke="black" stroke-width="1" fill="blue" opacity="1" tooltip="enable"><title>(0.0262624,166)</title></rect><rect x="96" y="186.272" width="6" height="13.7276" stroke="black" stroke-width="1" fill="blue" opacity="1" tooltip="enable"><title>(0.0280132,130)</title></rect><rect x="102" y="189.968" width="6" height="10.0317" stroke="black" stroke-width="1" fill="blue" opacity="1" tooltip="enable"><title>(0.0297641,95)</title></rect><rect x="108" y="190.707" width="6" height="9.2925" stroke="black" stroke-width="1" fill="blue" opacity="1" tooltip="enable"><title>(0.0315149,88)</title></rect><rect x="114" y="192.186" width="6" height="7.81415" stroke="black" stroke-width="1" fill="blue" opacity="1" tooltip="enable"><title>(0.0332657,74)</title></rect><rect x="120" y="193.347" width="6" height="6.65259" stroke="black" stroke-width="1" fill="blue" opacity="1" tooltip="enable"><title>(0.0350165,63)</title></rect><rect x="126" y="196.093" width="6" height="3.90708" stroke="black" stroke-width="1" fill="blue" opacity="1" tooltip="enable"><title>(0.0367674,37)</title></rect><rect x="132" y="196.304" width="6" height="3.69588" stroke="black" stroke-width="1" fill="blue" opacity="1" tooltip="enable"><title>(0.0385182,35)</title></rect><rect x="138" y="198.205" width="6" height="1.79514" stroke="black" stroke-width="1" fill="blue" opacity="1" tooltip="enable"><title>(0.040269,17)</title></rect><rect x="144" y="197.36" width="6" height="2.63992" stroke="black" stroke-width="1" fill="blue" opacity="1" tooltip="enable"><title>(0.0420198,25)</title></rect><rect x="150" y="198.944" width="6" height="1.05597" stroke="black" stroke-width="1" fill="blue" opacity="1" tooltip="enable"><title>(0.0437707,10)</title></rect><rect x="156" y="197.466" width="6" height="2.53432" stroke="black" stroke-width="1" fill="blue" opacity="1" tooltip="enable"><title>(0.0455215,24)</title></rect><rect x="162" y="198.627" width="6" height="1.37276" stroke="black" stroke-width="1" fill="blue" opacity="1" tooltip="enable"><title>(0.0472723,13)</title></rect><rect x="168" y="197.994" width="6" height="2.00634" stroke="black" stroke-width="1" fill="blue" opacity="1" tooltip="enable"><title>(0.0490231,19)</title></rect><rect x="174" y="199.578" width="6" height="0.422386" stroke="black" stroke-width="1" fill="blue" opacity="1" tooltip="enable"><title>(0.050774,4)</title></rect><rect x="180" y="199.578" width="6" height="0.422386" stroke="black" stroke-width="1" fill="blue" opacity="1" tooltip="enable"><title>(0.0525248,4)</title></rect><rect x="186" y="199.578" width="6" height="0.422386" stroke="black" stroke-width="1" fill="blue" opacity="1" tooltip="enable"><title>(0.0542756,4)</title></rect><rect x="192" y="199.578" width="6" height="0.422386" stroke="black" stroke-width="1" fill="blue" opacity="1" tooltip="enable"><title>(0.0560264,4)</title></rect><rect x="198" y="200" width="6" height="0" stroke="black" stroke-width="1" fill="blue" opacity="1" tooltip="enable"><title>(0.0577773,0)</title></rect><rect x="204" y="199.789" width="6" height="0.211193" stroke="black" stroke-width="1" fill="blue" opacity="1" tooltip="enable"><title>(0.0595281,2)</title></rect><rect x="210" y="200" width="6" height="0" stroke="black" stroke-width="1" fill="blue" opacity="1" tooltip="enable"><title>(0.0612789,0)</title></rect><rect x="216" y="200" width="6" height="0" stroke="black" stroke-width="1" fill="blue" opacity="1" tooltip="enable"><title>(0.0630298,0)</title></rect><rect x="222" y="200" width="6" height="0" stroke="black" stroke-width="1" fill="blue" opacity="1" tooltip="enable"><title>(0.0647806,0)</title></rect><rect x="228" y="200" width="6" height="0" stroke="black" stroke-width="1" fill="blue" opacity="1" tooltip="enable"><title>(0.0665314,0)</title></rect><rect x="234" y="200" width="6" height="0" stroke="black" stroke-width="1" fill="blue" opacity="1" tooltip="enable"><title>(0.0682822,0)</title></rect><rect x="240" y="200" width="6" height="0" stroke="black" stroke-width="1" fill="blue" opacity="1" tooltip="enable"><title>(0.0700331,0)</title></rect><rect x="246" y="200" width="6" height="0" stroke="black" stroke-width="1" fill="blue" opacity="1" tooltip="enable"><title>(0.0717839,0)</title></rect><rect x="252" y="200" width="6" height="0" stroke="black" stroke-width="1" fill="blue" opacity="1" tooltip="enable"><title>(0.0735347,0)</title></rect><rect x="258" y="200" width="6" height="0" stroke="black" stroke-width="1" fill="blue" opacity="1" tooltip="enable"><title>(0.0752855,0)</title></rect><rect x="264" y="200" width="6" height="0" stroke="black" stroke-width="1" fill="blue" opacity="1" tooltip="enable"><title>(0.0770364,0)</title></rect><rect x="270" y="200" width="6" height="0" stroke="black" stroke-width="1" fill="blue" opacity="1" tooltip="enable"><title>(0.0787872,0)</title></rect><rect x="276" y="200" width="6" height="0" stroke="black" stroke-width="1" fill="blue" opacity="1" tooltip="enable"><title>(0.080538,0)</title></rect><rect x="282" y="200" width="6" height="0" stroke="black" stroke-width="1" fill="blue" opacity="1" tooltip="enable"><title>(0.0822888,0)</title></rect><rect x="288" y="200" width="6" height="0" stroke="black" stroke-width="1" fill="blue" opacity="1" tooltip="enable"><title>(0.0840397,0)</title></rect><rect x="294" y="200" width="6" height="0" stroke="black" stroke-width="1" fill="blue" opacity="1" tooltip="enable"><title>(0.0857905,0)</title></rect><rect x="300" y="200" width="6" height="0" stroke="black" stroke-width="1" fill="blue" opacity="1" tooltip="enable"><title>(0.0875413,0)</title></rect><rect x="306" y="200" width="6" height="0" stroke="black" stroke-width="1" fill="blue" opacity="1" tooltip="enable"><title>(0.0892922,0)</title></rect><rect x="312" y="200" width="6" height="0" stroke="black" stroke-width="1" fill="blue" opacity="1" tooltip="enable"><title>(0.091043,0)</title></rect><rect x="318" y="200" width="6" height="0" stroke="black" stroke-width="1" fill="blue" opacity="1" tooltip="enable"><title>(0.0927938,0)</title></rect><rect x="324" y="200" width="6" height="0" stroke="black" stroke-width="1" fill="blue" opacity="1" tooltip="enable"><title>(0.0945446,0)</title></rect><rect x="330" y="200" width="6" height="0" stroke="black" stroke-width="1" fill="blue" opacity="1" tooltip="enable"><title>(0.0962955,0)</title></rect><rect x="336" y="200" width="6" height="0" stroke="black" stroke-width="1" fill="blue" opacity="1" tooltip="enable"><title>(0.0980463,0)</title></rect><rect x="342" y="200" width="6" height="0" stroke="black" stroke-width="1" fill="blue" opacity="1" tooltip="enable"><title>(0.0997971,0)</title></rect><rect x="348" y="200" width="6" height="0" stroke="black" stroke-width="1" fill="blue" opacity="1" tooltip="enable"><title>(0.101548,0)</title></rect><rect x="354" y="200" width="6" height="0" stroke="black" stroke-width="1" fill="blue" opacity="1" tooltip="enable"><title>(0.103299,0)</title></rect><rect x="360" y="200" width="6" height="0" stroke="black" stroke-width="1" fill="blue" opacity="1" tooltip="enable"><title>(0.10505,0)</title></rect><rect x="366" y="200" width="6" height="0" stroke="black" stroke-width="1" fill="blue" opacity="1" tooltip="enable"><title>(0.1068,0)</title></rect><rect x="372" y="200" width="6" height="0" stroke="black" stroke-width="1" fill="blue" opacity="1" tooltip="enable"><title>(0.108551,0)</title></rect><rect x="378" y="200" width="6" height="0" stroke="black" stroke-width="1" fill="blue" opacity="1" tooltip="enable"><title>(0.110302,0)</title></rect><rect x="384" y="200" width="6" height="0" stroke="black" stroke-width="1" fill="blue" opacity="1" tooltip="enable"><title>(0.112053,0)</title></rect><rect x="390" y="200" width="6" height="0" stroke="black" stroke-width="1" fill="blue" opacity="1" tooltip="enable"><title>(0.113804,0)</title></rect><rect x="396" y="200" width="6" height="0" stroke="black" stroke-width="1" fill="blue" opacity="1" tooltip="enable"><title>(0.115555,0)</title></rect><rect x="402" y="200" width="6" height="0" stroke="black" stroke-width="1" fill="blue" opacity="1" tooltip="enable"><title>(0.117305,0)</title></rect><rect x="408" y="200" width="6" height="0" stroke="black" stroke-width="1" fill="blue" opacity="1" tooltip="enable"><title>(0.119056,0)</title></rect><rect x="414" y="200" width="6" height="0" stroke="black" stroke-width="1" fill="blue" opacity="1" tooltip="enable"><title>(0.120807,0)</title></rect><rect x="420" y="200" width="6" height="0" stroke="black" stroke-width="1" fill="blue" opacity="1" tooltip="enable"><title>(0.122558,0)</title></rect><rect x="426" y="200" width="6" height="0" stroke="black" stroke-width="1" fill="blue" opacity="1" tooltip="enable"><title>(0.124309,0)</title></rect><rect x="432" y="200" width="6" height="0" stroke="black" stroke-width="1" fill="blue" opacity="1" tooltip="enable"><title>(0.12606,0)</title></rect><rect x="438" y="200" width="6" height="0" stroke="black" stroke-width="1" fill="blue" opacity="1" tooltip="enable"><title>(0.12781,0)</title></rect><rect x="444" y="200" width="6" height="0" stroke="black" stroke-width="1" fill="blue" opacity="1" tooltip="enable"><title>(0.129561,0)</title></rect><rect x="450" y="200" width="6" height="0" stroke="black" stroke-width="1" fill="blue" opacity="1" tooltip="enable"><title>(0.131312,0)</title></rect><rect x="456" y="200" width="6" height="0" stroke="black" stroke-width="1" fill="blue" opacity="1" tooltip="enable"><title>(0.133063,0)</title></rect><rect x="462" y="200" width="6" height="0" stroke="black" stroke-width="1" fill="blue" opacity="1" tooltip="enable"><title>(0.134814,0)</title></rect><rect x="468" y="200" width="6" height="0" stroke="black" stroke-width="1" fill="blue" opacity="1" tooltip="enable"><title>(0.136564,0)</title></rect><rect x="474" y="200" width="6" height="0" stroke="black" stroke-width="1" fill="blue" opacity="1" tooltip="enable"><title>(0.138315,0)</title></rect><rect x="480" y="200" width="6" height="0" stroke="black" stroke-width="1" fill="blue" opacity="1" tooltip="enable"><title>(0.140066,0)</title></rect><rect x="486" y="200" width="6" height="0" stroke="black" stroke-width="1" fill="blue" opacity="1" tooltip="enable"><title>(0.141817,0)</title></rect><rect x="492" y="200" width="6" height="0" stroke="black" stroke-width="1" fill="blue" opacity="1" tooltip="enable"><title>(0.143568,0)</title></rect><rect x="498" y="200" width="6" height="0" stroke="black" stroke-width="1" fill="blue" opacity="1" tooltip="enable"><title>(0.145319,0)</title></rect><rect x="504" y="200" width="6" height="0" stroke="black" stroke-width="1" fill="blue" opacity="1" tooltip="enable"><title>(0.147069,0)</title></rect><rect x="510" y="200" width="6" height="0" stroke="black" stroke-width="1" fill="blue" opacity="1" tooltip="enable"><title>(0.14882,0)</title></rect><rect x="516" y="200" width="6" height="0" stroke="black" stroke-width="1" fill="blue" opacity="1" tooltip="enable"><title>(0.150571,0)</title></rect><rect x="522" y="200" width="6" height="0" stroke="black" stroke-width="1" fill="blue" opacity="1" tooltip="enable"><title>(0.152322,0)</title></rect><rect x="528" y="200" width="6" height="0" stroke="black" stroke-width="1" fill="blue" opacity="1" tooltip="enable"><title>(0.154073,0)</title></rect><rect x="534" y="200" width="6" height="0" stroke="black" stroke-width="1" fill="blue" opacity="1" tooltip="enable"><title>(0.155824,0)</title></rect><rect x="540" y="200" width="6" height="0" stroke="black" stroke-width="1" fill="blue" opacity="1" tooltip="enable"><title>(0.157574,0)</title></rect><rect x="546" y="200" width="6" height="0" stroke="black" stroke-width="1" fill="blue" opacity="1" tooltip="enable"><title>(0.159325,0)</title></rect><rect x="552" y="200" width="6" height="0" stroke="black" stroke-width="1" fill="blue" opacity="1" tooltip="enable"><title>(0.161076,0)</title></rect><rect x="558" y="200" width="6" height="0" stroke="black" stroke-width="1" fill="blue" opacity="1" tooltip="enable"><title>(0.162827,0)</title></rect><rect x="564" y="200" width="6" height="0" stroke="black" stroke-width="1" fill="blue" opacity="1" tooltip="enable"><title>(0.164578,0)</title></rect><rect x="570" y="200" width="6" height="0" stroke="black" stroke-width="1" fill="blue" opacity="1" tooltip="enable"><title>(0.166329,0)</title></rect><rect x="576" y="200" width="6" height="0" stroke="black" stroke-width="1" fill="blue" opacity="1" tooltip="enable"><title>(0.168079,0)</title></rect><rect x="582" y="200" width="6" height="0" stroke="black" stroke-width="1" fill="blue" opacity="1" tooltip="enable"><title>(0.16983,0)</title></rect><rect x="588" y="200" width="6" height="0" stroke="black" stroke-width="1" fill="blue" opacity="1" tooltip="enable"><title>(0.171581,0)</title></rect><rect x="594" y="199.894" width="6" height="0.105597" stroke="black" stroke-width="1" fill="blue" opacity="1" tooltip="enable"><title>(0.173332,1)</title></rect><text x="30" y="240" font-size="20" fill="black">0</text>
<text x="600" y="240" font-size="20" fill="black">0.175083</text>
<polyline points="0,220,600,220" stroke="black" stroke-width="1" fill="none" opacity="1"/>
<text x="720" y="20" font-size="20" fill="black">1894</text>
<text x="720" y="200" font-size="20" fill="black">0</text>
<polyline points="660,0,660,200" stroke="black" stroke-width="1" fill="none" opacity="1"/>
</svg>