<?xml version="1.0" standalone="yes"?>
<!-- SVG graphic -->
<svg xmlns='http://www.w3.org/2000/svg' xmlns:xlink='http://www.w3.org/1999/xlink'
 version="1.1">
<rect x="0" y="0" width="6" height="200" stroke="black" stroke-width="1" fill="blue" opacity="1" tooltip="enable"><title>(0,1334)</title></rect><rect x="6" y="40.3298" width="6" height="159.67" stroke="black" stroke-width="1" fill="blue" opacity="1" tooltip="enable"><title>(0.00118785,1065)</title></rect><rect x="12" y="65.8171" width="6" height="134.183" stroke="black" stroke-width="1" fill="blue" opacity="1" tooltip="enable"><title>(0.00237571,895)</title></rect><rect x="18" y="125.337" width="6" height="74.6627" stroke="black" stroke-width="1" fill="blue" opacity="1" tooltip="enable"><title>(0.00356356,498)</title></rect><rect x="24" y="141.079" width="6" height="58.9205" stroke="black" stroke-width="1" fill="blue" opacity="1" tooltip="enable"><title>(0.00475142,393)</title></rect><rect x="30" y="158.321" width="6" height="41.6792" stroke="black" stroke-width="1" fill="blue" opacity="1" tooltip="enable"><title>(0.00593927,278)</title></rect><rect x="36" y="161.469" width="6" height="38.5307" stroke="black" stroke-width="1" fill="blue" opacity="1" tooltip="enable"><title>(0.00712713,257)</title></rect><rect x="42" y="169.565" width="6" height="30.4348" stroke="black" stroke-width="1" fill="blue" opacity="1" tooltip="enable"><title>(0.00831498,203)</title></rect><rect x="48" y="173.763" width="6" height="26.2369" stroke="black" stroke-width="1" fill="blue" opacity="1" tooltip="enable"><title>(0.00950284,175)</title></rect><rect x="54" y="178.261" width="6" height="21.7391" stroke="black" stroke-width="1" fill="blue" opacity="1" tooltip="enable"><title>(0.0106907,145)</title></rect><rect x="60" y="183.358" width="6" height="16.6417" stroke="black" stroke-width="1" fill="blue" opacity="1" tooltip="enable"><title>(0.0118785,111)</title></rect><rect x="66" y="185.607" width="6" height="14.3928" stroke="black" stroke-width="1" fill="blue" opacity="1" tooltip="enable"><title>(0.0130664,96)</title></rect><rect x="72" y="189.805" width="6" height="10.1949" stroke="black" stroke-width="1" fill="blue" opacity="1" tooltip="enable"><title>(0.0142543,68)</title></rect><rect x="78" y="177.661" width="6" height="22.3388" stroke="black" stroke-width="1" fill="blue" opacity="1" tooltip="enable"><title>(0.0154421,149)</title></rect><rect x="84" y="186.807" width="6" height="13.1934" stroke="black" stroke-width="1" fill="blue" opacity="1" tooltip="enable"><title>(0.01663,88)</title></rect><rect x="90" y="187.256" width="6" height="12.7436" stroke="black" stroke-width="1" fill="blue" opacity="1" tooltip="enable"><title>(0.0178178,85)</title></rect><rect x="96" y="185.307" width="6" height="14.6927" stroke="black" stroke-width="1" fill="blue" opacity="1" tooltip="enable"><title>(0.0190057,98)</title></rect><rect x="102" y="183.808" width="6" height="16.1919" stroke="black" stroke-width="1" fill="blue" opacity="1" tooltip="enable"><title>(0.0201935,108)</title></rect><rect x="108" y="182.609" width="6" height="17.3913" stroke="black" stroke-width="1" fill="blue" opacity="1" tooltip="enable"><title>(0.0213814,116)</title></rect><rect x="114" y="183.508" width="6" height="16.4918" stroke="black" stroke-width="1" fill="blue" opacity="1" tooltip="enable"><title>(0.0225692,110)</title></rect><rect x="120" y="184.558" width="6" height="15.4423" stroke="black" stroke-width="1" fill="blue" opacity="1" tooltip="enable"><title>(0.0237571,103)</title></rect><rect x="126" y="183.958" width="6" height="16.042" stroke="black" stroke-width="1" fill="blue" opacity="1" tooltip="enable"><title>(0.024945,107)</title></rect><rect x="132" y="185.457" width="6" height="14.5427" stroke="black" stroke-width="1" fill="blue" opacity="1" tooltip="enable"><title>(0.0261328,97)</title></rect><rect x="138" y="185.007" width="6" height="14.9925" stroke="black" stroke-width="1" fill="blue" opacity="1" tooltip="enable"><title>(0.0273207,100)</title></rect><rect x="144" y="189.805" width="6" height="10.1949" stroke="black" stroke-width="1" fill="blue" opacity="1" tooltip="enable"><title>(0.0285085,68)</title></rect><rect x="150" y="191.604" width="6" height="8.3958" stroke="black" stroke-width="1" fill="blue" opacity="1" tooltip="enable"><title>(0.0296964,56)</title></rect><rect x="156" y="188.156" width="6" height="11.8441" stroke="black" stroke-width="1" fill="blue" opacity="1" tooltip="enable"><title>(0.0308842,79)</title></rect><rect x="162" y="192.204" width="6" height="7.7961" stroke="black" stroke-width="1" fill="blue" opacity="1" tooltip="enable"><title>(0.0320721,52)</title></rect><rect x="168" y="192.204" width="6" height="7.7961" stroke="black" stroke-width="1" fill="blue" opacity="1" tooltip="enable"><title>(0.0332599,52)</title></rect><rect x="174" y="194.453" width="6" height="5.54723" stroke="black" stroke-width="1" fill="blue" opacity="1" tooltip="enable"><title>(0.0344478,37)</title></rect><rect x="180" y="193.253" width="6" height="6.74663" stroke="black" stroke-width="1" fill="blue" opacity="1" tooltip="enable"><title>(0.0356356,45)</title></rect><rect x="186" y="191.904" width="6" height="8.09595" stroke="black" stroke-width="1" fill="blue" opacity="1" tooltip="enable"><title>(0.0368235,54)</title></rect><rect x="192" y="193.253" width="6" height="6.74663" stroke="black" stroke-width="1" fill="blue" opacity="1" tooltip="enable"><title>(0.0380114,45)</title></rect><rect x="198" y="195.652" width="6" height="4.34783" stroke="black" stroke-width="1" fill="blue" opacity="1" tooltip="enable"><title>(0.0391992,29)</title></rect><rect x="204" y="194.603" width="6" height="5.3973" stroke="black" stroke-width="1" fill="blue" opacity="1" tooltip="enable"><title>(0.0403871,36)</title></rect><rect x="210" y="197.451" width="6" height="2.54873" stroke="black" stroke-width="1" fill="blue" opacity="1" tooltip="enable"><title>(0.0415749,17)</title></rect><rect x="216" y="192.054" width="6" height="7.94603" stroke="black" stroke-width="1" fill="blue" opacity="1" tooltip="enable"><title>(0.0427628,53)</title></rect><rect x="222" y="195.202" width="6" height="4.7976" stroke="black" stroke-width="1" fill="blue" opacity="1" tooltip="enable"><title>(0.0439506,32)</title></rect><rect x="228" y="195.052" width="6" height="4.94753" stroke="black" stroke-width="1" fill="blue" opacity="1" tooltip="enable"><title>(0.0451385,33)</title></rect><rect x="234" y="195.802" width="6" height="4.1979" stroke="black" stroke-width="1" fill="blue" opacity="1" tooltip="enable"><title>(0.0463263,28)</title></rect><rect x="240" y="195.652" width="6" height="4.34783" stroke="black" stroke-width="1" fill="blue" opacity="1" tooltip="enable"><title>(0.0475142,29)</title></rect><rect x="246" y="197.301" width="6" height="2.69865" stroke="black" stroke-width="1" fill="blue" opacity="1" tooltip="enable"><title>(0.0487021,18)</title></rect><rect x="252" y="196.702" width="6" height="3.29835" stroke="black" stroke-width="1" fill="blue" opacity="1" tooltip="enable"><title>(0.0498899,22)</title></rect><rect x="258" y="197.001" width="6" height="2.9985" stroke="black" stroke-width="1" fill="blue" opacity="1" tooltip="enable"><title>(0.0510778,20)</title></rect><rect x="264" y="196.852" width="6" height="3.14843" stroke="black" stroke-width="1" fill="blue" opacity="1" tooltip="enable"><title>(0.0522656,21)</title></rect><rect x="270" y="197.451" width="6" height="2.54873" stroke="black" stroke-width="1" fill="blue" opacity="1" tooltip="enable"><title>(0.0534535,17)</title></rect><rect x="276" y="197.901" width="6" height="2.09895" stroke="black" stroke-width="1" fill="blue" opacity="1" tooltip="enable"><title>(0.0546413,14)</title></rect><rect x="282" y="195.802" width="6" height="4.1979" stroke="black" stroke-width="1" fill="blue" opacity="1" tooltip="enable"><title>(0.0558292,28)</title></rect><rect x="288" y="196.852" width="6" height="3.14843" stroke="black" stroke-width="1" fill="blue" opacity="1" tooltip="enable"><title>(0.057017,21)</title></rect><rect x="294" y="197.151" width="6" height="2.84858" stroke="black" stroke-width="1" fill="blue" opacity="1" tooltip="enable"><title>(0.0582049,19)</title></rect><rect x="300" y="198.501" width="6" height="1.49925" stroke="black" stroke-width="1" fill="blue" opacity="1" tooltip="enable"><title>(0.0593927,10)</title></rect><rect x="306" y="196.402" width="6" height="3.5982" stroke="black" stroke-width="1" fill="blue" opacity="1" tooltip="enable"><title>(0.0605806,24)</title></rect><rect x="312" y="198.201" width="6" height="1.7991" stroke="black" stroke-width="1" fill="blue" opacity="1" tooltip="enable"><title>(0.0617684,12)</title></rect><rect x="318" y="198.501" width="6" height="1.49925" stroke="black" stroke-width="1" fill="blue" opacity="1" tooltip="enable"><title>(0.0629563,10)</title></rect><rect x="324" y="197.001" width="6" height="2.9985" stroke="black" stroke-width="1" fill="blue" opacity="1" tooltip="enable"><title>(0.0641442,20)</title></rect><rect x="330" y="197.901" width="6" height="2.09895" stroke="black" stroke-width="1" fill="blue" opacity="1" tooltip="enable"><title>(0.065332,14)</title></rect><rect x="336" y="198.201" width="6" height="1.7991" stroke="black" stroke-width="1" fill="blue" opacity="1" tooltip="enable"><title>(0.0665199,12)</title></rect><rect x="342" y="198.351" width="6" height="1.64918" stroke="black" stroke-width="1" fill="blue" opacity="1" tooltip="enable"><title>(0.0677077,11)</title></rect><rect x="348" y="198.351" width="6" height="1.64918" stroke="black" stroke-width="1" fill="blue" opacity="1" tooltip="enable"><title>(0.0688956,11)</title></rect><rect x="354" y="198.501" width="6" height="1.49925" stroke="black" stroke-width="1" fill="blue" opacity="1" tooltip="enable"><title>(0.0700834,10)</title></rect><rect x="360" y="197.901" width="6" height="2.09895" stroke="black" stroke-width="1" fill="blue" opacity="1" tooltip="enable"><title>(0.0712713,14)</title></rect><rect x="366" y="197.001" width="6" height="2.9985" stroke="black" stroke-width="1" fill="blue" opacity="1" tooltip="enable"><title>(0.0724591,20)</title></rect><rect x="372" y="197.751" width="6" height="2.24888" stroke="black" stroke-width="1" fill="blue" opacity="1" tooltip="enable"><title>(0.073647,15)</title></rect><rect x="378" y="198.051" width="6" height="1.94903" stroke="black" stroke-width="1" fill="blue" opacity="1" tooltip="enable"><title>(0.0748349,13)</title></rect><rect x="384" y="197.001" width="6" height="2.9985" stroke="black" stroke-width="1" fill="blue" opacity="1" tooltip="enable"><title>(0.0760227,20)</title></rect><rect x="390" y="198.501" width="6" height="1.49925" stroke="black" stroke-width="1" fill="blue" opacity="1" tooltip="enable"><title>(0.0772106,10)</title></rect><rect x="396" y="198.501" width="6" height="1.49925" stroke="black" stroke-width="1" fill="blue" opacity="1" tooltip="enable"><title>(0.0783984,10)</title></rect><rect x="402" y="197.001" width="6" height="2.9985" stroke="black" stroke-width="1" fill="blue" opacity="1" tooltip="enable"><title>(0.0795863,20)</title></rect><rect x="408" y="197.751" width="6" height="2.24888" stroke="black" stroke-width="1" fill="blue" opacity="1" tooltip="enable"><title>(0.0807741,15)</title></rect><rect x="414" y="198.351" width="6" height="1.64918" stroke="black" stroke-width="1" fill="blue" opacity="1" tooltip="enable"><title>(0.081962,11)</title></rect><rect x="420" y="198.501" width="6" height="1.49925" stroke="black" stroke-width="1" fill="blue" opacity="1" tooltip="enable"><title>(0.0831498,10)</title></rect><rect x="426" y="199.1" width="6" height="0.89955" stroke="black" stroke-width="1" fill="blue" opacity="1" tooltip="enable"><title>(0.0843377,6)</title></rect><rect x="432" y="199.1" width="6" height="0.89955" stroke="black" stroke-width="1" fill="blue" opacity="1" tooltip="enable"><title>(0.0855255,6)</title></rect><rect x="438" y="199.85" width="6" height="0.149925" stroke="black" stroke-width="1" fill="blue" opacity="1" tooltip="enable"><title>(0.0867134,1)</title></rect><rect x="444" y="198.651" width="6" height="1.34933" stroke="black" stroke-width="1" fill="blue" opacity="1" tooltip="enable"><title>(0.0879013,9)</title></rect><rect x="450" y="198.201" width="6" height="1.7991" stroke="black" stroke-width="1" fill="blue" opacity="1" tooltip="enable"><title>(0.0890891,12)</title></rect><rect x="456" y="199.1" width="6" height="0.89955" stroke="black" stroke-width="1" fill="blue" opacity="1" tooltip="enable"><title>(0.090277,6)</title></rect><rect x="462" y="199.4" width="6" height="0.5997" stroke="black" stroke-width="1" fill="blue" opacity="1" tooltip="enable"><title>(0.0914648,4)</title></rect><rect x="468" y="199.7" width="6" height="0.29985" stroke="black" stroke-width="1" fill="blue" opacity="1" tooltip="enable"><title>(0.0926527,2)</title></rect><rect x="474" y="199.4" width="6" height="0.5997" stroke="black" stroke-width="1" fill="blue" opacity="1" tooltip="enable"><title>(0.0938405,4)</title></rect><rect x="480" y="200" width="6" height="0" stroke="black" stroke-width="1" fill="blue" opacity="1" tooltip="enable"><title>(0.0950284,0)</title></rect><rect x="486" y="200" width="6" height="0" stroke="black" stroke-width="1" fill="blue" opacity="1" tooltip="enable"><title>(0.0962162,0)</title></rect><rect x="492" y="199.55" width="6" height="0.449775" stroke="black" stroke-width="1" fill="blue" opacity="1" tooltip="enable"><title>(0.0974041,3)</title></rect><rect x="498" y="199.85" width="6" height="0.149925" stroke="black" stroke-width="1" fill="blue" opacity="1" tooltip="enable"><title>(0.098592,1)</title></rect><rect x="504" y="199.1" width="6" height="0.89955" stroke="black" stroke-width="1" fill="blue" opacity="1" tooltip="enable"><title>(0.0997798,6)</title></rect><rect x="510" y="199.4" width="6" height="0.5997" stroke="black" stroke-width="1" fill="blue" opacity="1" tooltip="enable"><title>(0.100968,4)</title></rect><rect x="516" y="199.7" width="6" height="0.29985" stroke="black" stroke-width="1" fill="blue" opacity="1" tooltip="enable"><title>(0.102156,2)</title></rect><rect x="522" y="198.501" width="6" height="1.49925" stroke="black" stroke-width="1" fill="blue" opacity="1" tooltip="enable"><title>(0.103343,10)</title></rect><rect x="528" y="199.4" width="6" height="0.5997" stroke="black" stroke-width="1" fill="blue" opacity="1" tooltip="enable"><title>(0.104531,4)</title></rect><rect x="534" y="199.7" width="6" height="0.29985" stroke="black" stroke-width="1" fill="blue" opacity="1" tooltip="enable"><title>(0.105719,2)</title></rect><rect x="540" y="199.7" width="6" height="0.29985" stroke="black" stroke-width="1" fill="blue" opacity="1" tooltip="enable"><title>(0.106907,2)</title></rect><rect x="546" y="199.7" width="6" height="0.29985" stroke="black" stroke-width="1" fill="blue" opacity="1" tooltip="enable"><title>(0.108095,2)</title></rect><rect x="552" y="200" width="6" height="0" stroke="black" stroke-width="1" fill="blue" opacity="1" tooltip="enable"><title>(0.109283,0)</title></rect><rect x="558" y="199.4" width="6" height="0.5997" stroke="black" stroke-width="1" fill="blue" opacity="1" tooltip="enable"><title>(0.110471,4)</title></rect><rect x="564" y="198.801" width="6" height="1.1994" stroke="black" stroke-width="1" fill="blue" opacity="1" tooltip="enable"><title>(0.111658,8)</title></rect><rect x="570" y="200" width="6" height="0" stroke="black" stroke-width="1" fill="blue" opacity="1" tooltip="enable"><title>(0.112846,0)</title></rect><rect x="576" y="199.7" width="6" height="0.29985" stroke="black" stroke-width="1" fill="blue" opacity="1" tooltip="enable"><title>(0.114034,2)</title></rect><rect x="582" y="200" width="6" height="0" stroke="black" stroke-width="1" fill="blue" opacity="1" tooltip="enable"><title>(0.115222,0)</title></rect><rect x="588" y="199.7" width="6" height="0.29985" stroke="black" stroke-width="1" fill="blue" opacity="1" tooltip="enable"><title>(0.11641,2)</title></rect><rect x="594" y="199.85" width="6" height="0.149925" stroke="black" stroke-width="1" fill="blue" opacity="1" tooltip="enable"><title>(0.117598,1)</title></rect><text x="30" y="240" font-size="20" fill="black">0</text>
<text x="600" y="240" font-size="20" fill="black">0.118785</text>
<polyline points="0,220,600,220" stroke="black" stroke-width="1" fill="none" opacity="1"/>
<text x="720" y="20" font-size="20" fill="black">1334</text>
<text x="720" y="200" font-size="20" fill="black">0</text>
<polyline points="660,0,660,200" stroke="black" stroke-width="1" fill="none" opacity="1"/>
</svg>