<?xml version="1.0" standalone="yes"?>
<!-- SVG graphic -->
<svg xmlns='http://www.w3.org/2000/svg' xmlns:xlink='http://www.w3.org/1999/xlink'
 version="1.1">
<rect x="0" y="0" width="6" height="200" stroke="black" stroke-width="1" fill="blue" opacity="1" tooltip="enable"><title>(0,4062)</title></rect><rect x="6" y="183.358" width="6" height="16.642" stroke="black" stroke-width="1" fill="blue" opacity="1" tooltip="enable"><title>(0.00147421,338)</title></rect><rect x="12" y="189.069" width="6" height="10.9306" stroke="black" stroke-width="1" fill="blue" opacity="1" tooltip="enable"><title>(0.00294841,222)</title></rect><rect x="18" y="191.974" width="6" height="8.0256" stroke="black" stroke-width="1" fill="blue" opacity="1" tooltip="enable"><title>(0.00442262,163)</title></rect><rect x="24" y="191.876" width="6" height="8.12408" stroke="black" stroke-width="1" fill="blue" opacity="1" tooltip="enable"><title>(0.00589683,165)</title></rect><rect x="30" y="190.645" width="6" height="9.355" stroke="black" stroke-width="1" fill="blue" opacity="1" tooltip="enable"><title>(0.00737104,190)</title></rect><rect x="36" y="191.482" width="6" height="8.51797" stroke="black" stroke-width="1" fill="blue" opacity="1" tooltip="enable"><title>(0.00884524,173)</title></rect><rect x="42" y="193.845" width="6" height="6.1546" stroke="black" stroke-width="1" fill="blue" opacity="1" tooltip="enable"><title>(0.0103195,125)</title></rect><rect x="48" y="192.959" width="6" height="7.04087" stroke="black" stroke-width="1" fill="blue" opacity="1" tooltip="enable"><title>(0.0117937,143)</title></rect><rect x="54" y="191.285" width="6" height="8.71492" stroke="black" stroke-width="1" fill="blue" opacity="1" tooltip="enable"><title>(0.0132679,177)</title></rect><rect x="60" y="192.861" width="6" height="7.13934" stroke="black" stroke-width="1" fill="blue" opacity="1" tooltip="enable"><title>(0.0147421,145)</title></rect><rect x="66" y="191.334" width="6" height="8.66568" stroke="black" stroke-width="1" fill="blue" opacity="1" tooltip="enable"><title>(0.0162163,176)</title></rect><rect x="72" y="194.092" width="6" height="5.90842" stroke="black" stroke-width="1" fill="blue" opacity="1" tooltip="enable"><title>(0.0176905,120)</title></rect><rect x="78" y="194.436" width="6" height="5.56376" stroke="black" stroke-width="1" fill="blue" opacity="1" tooltip="enable"><title>(0.0191647,113)</title></rect><rect x="84" y="193.107" width="6" height="6.89316" stroke="black" stroke-width="1" fill="blue" opacity="1" tooltip="enable"><title>(0.0206389,140)</title></rect><rect x="90" y="193.993" width="6" height="6.00689" stroke="black" stroke-width="1" fill="blue" opacity="1" tooltip="enable"><title>(0.0221131,122)</title></rect><rect x="96" y="194.289" width="6" height="5.71147" stroke="black" stroke-width="1" fill="blue" opacity="1" tooltip="enable"><title>(0.0235873,116)</title></rect><rect x="102" y="194.83" width="6" height="5.16987" stroke="black" stroke-width="1" fill="blue" opacity="1" tooltip="enable"><title>(0.0250615,105)</title></rect><rect x="108" y="195.766" width="6" height="4.23437" stroke="black" stroke-width="1" fill="blue" opacity="1" tooltip="enable"><title>(0.0265357,86)</title></rect><rect x="114" y="196.061" width="6" height="3.93895" stroke="black" stroke-width="1" fill="blue" opacity="1" tooltip="enable"><title>(0.0280099,80)</title></rect><rect x="120" y="195.47" width="6" height="4.52979" stroke="black" stroke-width="1" fill="blue" opacity="1" tooltip="enable"><title>(0.0294841,92)</title></rect><rect x="126" y="194.535" width="6" height="5.46529" stroke="black" stroke-width="1" fill="blue" opacity="1" tooltip="enable"><title>(0.0309584,111)</title></rect><rect x="132" y="197.144" width="6" height="2.85574" stroke="black" stroke-width="1" fill="blue" opacity="1" tooltip="enable"><title>(0.0324326,58)</title></rect><rect x="138" y="196.652" width="6" height="3.3481" stroke="black" stroke-width="1" fill="blue" opacity="1" tooltip="enable"><title>(0.0339068,68)</title></rect><rect x="144" y="196.849" width="6" height="3.15116" stroke="black" stroke-width="1" fill="blue" opacity="1" tooltip="enable"><title>(0.035381,64)</title></rect><rect x="150" y="197.243" width="6" height="2.75726" stroke="black" stroke-width="1" fill="blue" opacity="1" tooltip="enable"><title>(0.0368552,56)</title></rect><rect x="156" y="197.932" width="6" height="2.06795" stroke="black" stroke-width="1" fill="blue" opacity="1" tooltip="enable"><title>(0.0383294,42)</title></rect><rect x="162" y="198.424" width="6" height="1.57558" stroke="black" stroke-width="1" fill="blue" opacity="1" tooltip="enable"><title>(0.0398036,32)</title></rect><rect x="168" y="198.868" width="6" height="1.13245" stroke="black" stroke-width="1" fill="blue" opacity="1" tooltip="enable"><title>(0.0412778,23)</title></rect><rect x="174" y="197.981" width="6" height="2.01871" stroke="black" stroke-width="1" fill="blue" opacity="1" tooltip="enable"><title>(0.042752,41)</title></rect><rect x="180" y="198.474" width="6" height="1.52634" stroke="black" stroke-width="1" fill="blue" opacity="1" tooltip="enable"><title>(0.0442262,31)</title></rect><rect x="186" y="198.966" width="6" height="1.03397" stroke="black" stroke-width="1" fill="blue" opacity="1" tooltip="enable"><title>(0.0457004,21)</title></rect><rect x="192" y="199.212" width="6" height="0.787789" stroke="black" stroke-width="1" fill="blue" opacity="1" tooltip="enable"><title>(0.0471746,16)</title></rect><rect x="198" y="199.311" width="6" height="0.689316" stroke="black" stroke-width="1" fill="blue" opacity="1" tooltip="enable"><title>(0.0486488,14)</title></rect><rect x="204" y="199.064" width="6" height="0.9355" stroke="black" stroke-width="1" fill="blue" opacity="1" tooltip="enable"><title>(0.0501231,19)</title></rect><rect x="210" y="199.655" width="6" height="0.344658" stroke="black" stroke-width="1" fill="blue" opacity="1" tooltip="enable"><title>(0.0515973,7)</title></rect><rect x="216" y="198.375" width="6" height="1.62482" stroke="black" stroke-width="1" fill="blue" opacity="1" tooltip="enable"><title>(0.0530715,33)</title></rect><rect x="222" y="198.178" width="6" height="1.82176" stroke="black" stroke-width="1" fill="blue" opacity="1" tooltip="enable"><title>(0.0545457,37)</title></rect><rect x="228" y="199.508" width="6" height="0.492368" stroke="black" stroke-width="1" fill="blue" opacity="1" tooltip="enable"><title>(0.0560199,10)</title></rect><rect x="234" y="199.311" width="6" height="0.689316" stroke="black" stroke-width="1" fill="blue" opacity="1" tooltip="enable"><title>(0.0574941,14)</title></rect><rect x="240" y="199.409" width="6" height="0.590842" stroke="black" stroke-width="1" fill="blue" opacity="1" tooltip="enable"><title>(0.0589683,12)</title></rect><rect x="246" y="199.212" width="6" height="0.787789" stroke="black" stroke-width="1" fill="blue" opacity="1" tooltip="enable"><title>(0.0604425,16)</title></rect><rect x="252" y="198.818" width="6" height="1.18168" stroke="black" stroke-width="1" fill="blue" opacity="1" tooltip="enable"><title>(0.0619167,24)</title></rect><rect x="258" y="199.409" width="6" height="0.590842" stroke="black" stroke-width="1" fill="blue" opacity="1" tooltip="enable"><title>(0.0633909,12)</title></rect><rect x="264" y="199.409" width="6" height="0.590842" stroke="black" stroke-width="1" fill="blue" opacity="1" tooltip="enable"><title>(0.0648651,12)</title></rect><rect x="270" y="199.311" width="6" height="0.689316" stroke="black" stroke-width="1" fill="blue" opacity="1" tooltip="enable"><title>(0.0663393,14)</title></rect><rect x="276" y="199.163" width="6" height="0.837026" stroke="black" stroke-width="1" fill="blue" opacity="1" tooltip="enable"><title>(0.0678135,17)</title></rect><rect x="282" y="199.458" width="6" height="0.541605" stroke="black" stroke-width="1" fill="blue" opacity="1" tooltip="enable"><title>(0.0692877,11)</title></rect><rect x="288" y="199.212" width="6" height="0.787789" stroke="black" stroke-width="1" fill="blue" opacity="1" tooltip="enable"><title>(0.0707619,16)</title></rect><rect x="294" y="199.902" width="6" height="0.0984737" stroke="black" stroke-width="1" fill="blue" opacity="1" tooltip="enable"><title>(0.0722362,2)</title></rect><rect x="300" y="199.754" width="6" height="0.246184" stroke="black" stroke-width="1" fill="blue" opacity="1" tooltip="enable"><title>(0.0737104,5)</title></rect><rect x="306" y="199.409" width="6" height="0.590842" stroke="black" stroke-width="1" fill="blue" opacity="1" tooltip="enable"><title>(0.0751846,12)</title></rect><rect x="312" y="199.655" width="6" height="0.344658" stroke="black" stroke-width="1" fill="blue" opacity="1" tooltip="enable"><title>(0.0766588,7)</title></rect><rect x="318" y="199.606" width="6" height="0.393895" stroke="black" stroke-width="1" fill="blue" opacity="1" tooltip="enable"><title>(0.078133,8)</title></rect><rect x="324" y="199.606" width="6" height="0.393895" stroke="black" stroke-width="1" fill="blue" opacity="1" tooltip="enable"><title>(0.0796072,8)</title></rect><rect x="330" y="199.705" width="6" height="0.295421" stroke="black" stroke-width="1" fill="blue" opacity="1" tooltip="enable"><title>(0.0810814,6)</title></rect><rect x="336" y="199.606" width="6" height="0.393895" stroke="black" stroke-width="1" fill="blue" opacity="1" tooltip="enable"><title>(0.0825556,8)</title></rect><rect x="342" y="199.705" width="6" height="0.295421" stroke="black" stroke-width="1" fill="blue" opacity="1" tooltip="enable"><title>(0.0840298,6)</title></rect><rect x="348" y="199.803" width="6" height="0.196947" stroke="black" stroke-width="1" fill="blue" opacity="1" tooltip="enable"><title>(0.085504,4)</title></rect><rect x="354" y="200" width="6" height="0" stroke="black" stroke-width="1" fill="blue" opacity="1" tooltip="enable"><title>(0.0869782,0)</title></rect><rect x="360" y="200" width="6" height="0" stroke="black" stroke-width="1" fill="blue" opacity="1" tooltip="enable"><title>(0.0884524,0)</title></rect><rect x="366" y="200" width="6" height="0" stroke="black" stroke-width="1" fill="blue" opacity="1" tooltip="enable"><title>(0.0899267,0)</title></rect><rect x="372" y="199.902" width="6" height="0.0984737" stroke="black" stroke-width="1" fill="blue" opacity="1" tooltip="enable"><title>(0.0914009,2)</title></rect><rect x="378" y="200" width="6" height="0" stroke="black" stroke-width="1" fill="blue" opacity="1" tooltip="enable"><title>(0.0928751,0)</title></rect><rect x="384" y="199.902" width="6" height="0.0984737" stroke="black" stroke-width="1" fill="blue" opacity="1" tooltip="enable"><title>(0.0943493,2)</title></rect><rect x="390" y="200" width="6" height="0" stroke="black" stroke-width="1" fill="blue" opacity="1" tooltip="enable"><title>(0.0958235,0)</title></rect><rect x="396" y="199.902" width="6" height="0.0984737" stroke="black" stroke-width="1" fill="blue" opacity="1" tooltip="enable"><title>(0.0972977,2)</title></rect><rect x="402" y="199.902" width="6" height="0.0984737" stroke="black" stroke-width="1" fill="blue" opacity="1" tooltip="enable"><title>(0.0987719,2)</title></rect><rect x="408" y="199.902" width="6" height="0.0984737" stroke="black" stroke-width="1" fill="blue" opacity="1" tooltip="enable"><title>(0.100246,2)</title></rect><rect x="414" y="199.803" width="6" height="0.196947" stroke="black" stroke-width="1" fill="blue" opacity="1" tooltip="enable"><title>(0.10172,4)</title></rect><rect x="420" y="200" width="6" height="0" stroke="black" stroke-width="1" fill="blue" opacity="1" tooltip="enable"><title>(0.103195,0)</title></rect><rect x="426" y="199.902" width="6" height="0.0984737" stroke="black" stroke-width="1" fill="blue" opacity="1" tooltip="enable"><title>(0.104669,2)</title></rect><rect x="432" y="200" width="6" height="0" stroke="black" stroke-width="1" fill="blue" opacity="1" tooltip="enable"><title>(0.106143,0)</title></rect><rect x="438" y="199.951" width="6" height="0.0492368" stroke="black" stroke-width="1" fill="blue" opacity="1" tooltip="enable"><title>(0.107617,1)</title></rect><rect x="444" y="199.951" width="6" height="0.0492368" stroke="black" stroke-width="1" fill="blue" opacity="1" tooltip="enable"><title>(0.109091,1)</title></rect><rect x="450" y="200" width="6" height="0" stroke="black" stroke-width="1" fill="blue" opacity="1" tooltip="enable"><title>(0.110566,0)</title></rect><rect x="456" y="199.951" width="6" height="0.0492368" stroke="black" stroke-width="1" fill="blue" opacity="1" tooltip="enable"><title>(0.11204,1)</title></rect><rect x="462" y="199.951" width="6" height="0.0492368" stroke="black" stroke-width="1" fill="blue" opacity="1" tooltip="enable"><title>(0.113514,1)</title></rect><rect x="468" y="199.803" width="6" height="0.196947" stroke="black" stroke-width="1" fill="blue" opacity="1" tooltip="enable"><title>(0.114988,4)</title></rect><rect x="474" y="199.951" width="6" height="0.0492368" stroke="black" stroke-width="1" fill="blue" opacity="1" tooltip="enable"><title>(0.116462,1)</title></rect><rect x="480" y="199.951" width="6" height="0.0492368" stroke="black" stroke-width="1" fill="blue" opacity="1" tooltip="enable"><title>(0.117937,1)</title></rect><rect x="486" y="200" width="6" height="0" stroke="black" stroke-width="1" fill="blue" opacity="1" tooltip="enable"><title>(0.119411,0)</title></rect><rect x="492" y="200" width="6" height="0" stroke="black" stroke-width="1" fill="blue" opacity="1" tooltip="enable"><title>(0.120885,0)</title></rect><rect x="498" y="199.902" width="6" height="0.0984737" stroke="black" stroke-width="1" fill="blue" opacity="1" tooltip="enable"><title>(0.122359,2)</title></rect><rect x="504" y="200" width="6" height="0" stroke="black" stroke-width="1" fill="blue" opacity="1" tooltip="enable"><title>(0.123833,0)</title></rect><rect x="510" y="200" width="6" height="0" stroke="black" stroke-width="1" fill="blue" opacity="1" tooltip="enable"><title>(0.125308,0)</title></rect><rect x="516" y="200" width="6" height="0" stroke="black" stroke-width="1" fill="blue" opacity="1" tooltip="enable"><title>(0.126782,0)</title></rect><rect x="522" y="199.902" width="6" height="0.0984737" stroke="black" stroke-width="1" fill="blue" opacity="1" tooltip="enable"><title>(0.128256,2)</title></rect><rect x="528" y="200" width="6" height="0" stroke="black" stroke-width="1" fill="blue" opacity="1" tooltip="enable"><title>(0.12973,0)</title></rect><rect x="534" y="199.754" width="6" height="0.246184" stroke="black" stroke-width="1" fill="blue" opacity="1" tooltip="enable"><title>(0.131204,5)</title></rect><rect x="540" y="199.852" width="6" height="0.14771" stroke="black" stroke-width="1" fill="blue" opacity="1" tooltip="enable"><title>(0.132679,3)</title></rect><rect x="546" y="200" width="6" height="0" stroke="black" stroke-width="1" fill="blue" opacity="1" tooltip="enable"><title>(0.134153,0)</title></rect><rect x="552" y="199.902" width="6" height="0.0984737" stroke="black" stroke-width="1" fill="blue" opacity="1" tooltip="enable"><title>(0.135627,2)</title></rect><rect x="558" y="199.902" width="6" height="0.0984737" stroke="black" stroke-width="1" fill="blue" opacity="1" tooltip="enable"><title>(0.137101,2)</title></rect><rect x="564" y="199.902" width="6" height="0.0984737" stroke="black" stroke-width="1" fill="blue" opacity="1" tooltip="enable"><title>(0.138575,2)</title></rect><rect x="570" y="200" width="6" height="0" stroke="black" stroke-width="1" fill="blue" opacity="1" tooltip="enable"><title>(0.14005,0)</title></rect><rect x="576" y="200" width="6" height="0" stroke="black" stroke-width="1" fill="blue" opacity="1" tooltip="enable"><title>(0.141524,0)</title></rect><rect x="582" y="199.902" width="6" height="0.0984737" stroke="black" stroke-width="1" fill="blue" opacity="1" tooltip="enable"><title>(0.142998,2)</title></rect><rect x="588" y="199.902" width="6" height="0.0984737" stroke="black" stroke-width="1" fill="blue" opacity="1" tooltip="enable"><title>(0.144472,2)</title></rect><rect x="594" y="199.951" width="6" height="0.0492368" stroke="black" stroke-width="1" fill="blue" opacity="1" tooltip="enable"><title>(0.145947,1)</title></rect><text x="30" y="240" font-size="20" fill="black">0</text>
<text x="600" y="240" font-size="20" fill="black">0.147421</text>
<polyline points="0,220,600,220" stroke="black" stroke-width="1" fill="none" opacity="1"/>
<text x="720" y="20" font-size="20" fill="black">4062</text>
<text x="720" y="200" font-size="20" fill="black">0</text>
<polyline points="660,0,660,200" stroke="black" stroke-width="1" fill="none" opacity="1"/>
</svg>