<?xml version="1.0" standalone="yes"?>
<!-- SVG graphic -->
<svg xmlns='http://www.w3.org/2000/svg' xmlns:xlink='http://www.w3.org/1999/xlink'
 version="1.1">
<rect x="0" y="-1.52588e-05" width="6" height="200" stroke="black" stroke-width="1" fill="blue" opacity="1" tooltip="enable"><title>(0,1413)</title></rect><rect x="6" y="30.7148" width="6" height="169.285" stroke="black" stroke-width="1" fill="blue" opacity="1" tooltip="enable"><title>(0.000827491,1196)</title></rect><rect x="12" y="92.8521" width="6" height="107.148" stroke="black" stroke-width="1" fill="blue" opacity="1" tooltip="enable"><title>(0.00165498,757)</title></rect><rect x="18" y="126.115" width="6" height="73.8854" stroke="black" stroke-width="1" fill="blue" opacity="1" tooltip="enable"><title>(0.00248247,522)</title></rect><rect x="24" y="136.306" width="6" height="63.6943" stroke="black" stroke-width="1" fill="blue" opacity="1" tooltip="enable"><title>(0.00330997,450)</title></rect><rect x="30" y="152.442" width="6" height="47.5584" stroke="black" stroke-width="1" fill="blue" opacity="1" tooltip="enable"><title>(0.00413746,336)</title></rect><rect x="36" y="167.728" width="6" height="32.2718" stroke="black" stroke-width="1" fill="blue" opacity="1" tooltip="enable"><title>(0.00496495,228)</title></rect><rect x="42" y="180.326" width="6" height="19.6745" stroke="black" stroke-width="1" fill="blue" opacity="1" tooltip="enable"><title>(0.00579244,139)</title></rect><rect x="48" y="182.449" width="6" height="17.5513" stroke="black" stroke-width="1" fill="blue" opacity="1" tooltip="enable"><title>(0.00661993,124)</title></rect><rect x="54" y="180.892" width="6" height="19.1083" stroke="black" stroke-width="1" fill="blue" opacity="1" tooltip="enable"><title>(0.00744742,135)</title></rect><rect x="60" y="184.713" width="6" height="15.2866" stroke="black" stroke-width="1" fill="blue" opacity="1" tooltip="enable"><title>(0.00827491,108)</title></rect><rect x="66" y="182.449" width="6" height="17.5513" stroke="black" stroke-width="1" fill="blue" opacity="1" tooltip="enable"><title>(0.00910241,124)</title></rect><rect x="72" y="181.316" width="6" height="18.6837" stroke="black" stroke-width="1" fill="blue" opacity="1" tooltip="enable"><title>(0.0099299,132)</title></rect><rect x="78" y="183.864" width="6" height="16.1359" stroke="black" stroke-width="1" fill="blue" opacity="1" tooltip="enable"><title>(0.0107574,114)</title></rect><rect x="84" y="188.96" width="6" height="11.0403" stroke="black" stroke-width="1" fill="blue" opacity="1" tooltip="enable"><title>(0.0115849,78)</title></rect><rect x="90" y="184.006" width="6" height="15.9943" stroke="black" stroke-width="1" fill="blue" opacity="1" tooltip="enable"><title>(0.0124124,113)</title></rect><rect x="96" y="185.704" width="6" height="14.2958" stroke="black" stroke-width="1" fill="blue" opacity="1" tooltip="enable"><title>(0.0132399,101)</title></rect><rect x="102" y="186.695" width="6" height="13.305" stroke="black" stroke-width="1" fill="blue" opacity="1" tooltip="enable"><title>(0.0140674,94)</title></rect><rect x="108" y="188.252" width="6" height="11.7481" stroke="black" stroke-width="1" fill="blue" opacity="1" tooltip="enable"><title>(0.0148948,83)</title></rect><rect x="114" y="188.252" width="6" height="11.7481" stroke="black" stroke-width="1" fill="blue" opacity="1" tooltip="enable"><title>(0.0157223,83)</title></rect><rect x="120" y="185.846" width="6" height="14.1543" stroke="black" stroke-width="1" fill="blue" opacity="1" tooltip="enable"><title>(0.0165498,100)</title></rect><rect x="126" y="190.375" width="6" height="9.62491" stroke="black" stroke-width="1" fill="blue" opacity="1" tooltip="enable"><title>(0.0173773,68)</title></rect><rect x="132" y="191.083" width="6" height="8.9172" stroke="black" stroke-width="1" fill="blue" opacity="1" tooltip="enable"><title>(0.0182048,63)</title></rect><rect x="138" y="191.366" width="6" height="8.63411" stroke="black" stroke-width="1" fill="blue" opacity="1" tooltip="enable"><title>(0.0190323,61)</title></rect><rect x="144" y="191.507" width="6" height="8.49257" stroke="black" stroke-width="1" fill="blue" opacity="1" tooltip="enable"><title>(0.0198598,60)</title></rect><rect x="150" y="194.338" width="6" height="5.66171" stroke="black" stroke-width="1" fill="blue" opacity="1" tooltip="enable"><title>(0.0206873,40)</title></rect><rect x="156" y="193.631" width="6" height="6.36943" stroke="black" stroke-width="1" fill="blue" opacity="1" tooltip="enable"><title>(0.0215148,45)</title></rect><rect x="162" y="192.781" width="6" height="7.21868" stroke="black" stroke-width="1" fill="blue" opacity="1" tooltip="enable"><title>(0.0223423,51)</title></rect><rect x="168" y="193.772" width="6" height="6.22788" stroke="black" stroke-width="1" fill="blue" opacity="1" tooltip="enable"><title>(0.0231698,44)</title></rect><rect x="174" y="193.206" width="6" height="6.79406" stroke="black" stroke-width="1" fill="blue" opacity="1" tooltip="enable"><title>(0.0239972,48)</title></rect><rect x="180" y="192.215" width="6" height="7.78486" stroke="black" stroke-width="1" fill="blue" opacity="1" tooltip="enable"><title>(0.0248247,55)</title></rect><rect x="186" y="194.48" width="6" height="5.52017" stroke="black" stroke-width="1" fill="blue" opacity="1" tooltip="enable"><title>(0.0256522,39)</title></rect><rect x="192" y="195.754" width="6" height="4.24628" stroke="black" stroke-width="1" fill="blue" opacity="1" tooltip="enable"><title>(0.0264797,30)</title></rect><rect x="198" y="193.489" width="6" height="6.51097" stroke="black" stroke-width="1" fill="blue" opacity="1" tooltip="enable"><title>(0.0273072,46)</title></rect><rect x="204" y="192.64" width="6" height="7.36023" stroke="black" stroke-width="1" fill="blue" opacity="1" tooltip="enable"><title>(0.0281347,52)</title></rect><rect x="210" y="197.169" width="6" height="2.83086" stroke="black" stroke-width="1" fill="blue" opacity="1" tooltip="enable"><title>(0.0289622,20)</title></rect><rect x="216" y="195.471" width="6" height="4.52937" stroke="black" stroke-width="1" fill="blue" opacity="1" tooltip="enable"><title>(0.0297897,32)</title></rect><rect x="222" y="196.886" width="6" height="3.11394" stroke="black" stroke-width="1" fill="blue" opacity="1" tooltip="enable"><title>(0.0306172,22)</title></rect><rect x="228" y="195.895" width="6" height="4.10474" stroke="black" stroke-width="1" fill="blue" opacity="1" tooltip="enable"><title>(0.0314447,29)</title></rect><rect x="234" y="196.603" width="6" height="3.39703" stroke="black" stroke-width="1" fill="blue" opacity="1" tooltip="enable"><title>(0.0322722,24)</title></rect><rect x="240" y="197.028" width="6" height="2.9724" stroke="black" stroke-width="1" fill="blue" opacity="1" tooltip="enable"><title>(0.0330997,21)</title></rect><rect x="246" y="196.32" width="6" height="3.68011" stroke="black" stroke-width="1" fill="blue" opacity="1" tooltip="enable"><title>(0.0339271,26)</title></rect><rect x="252" y="195.471" width="6" height="4.52937" stroke="black" stroke-width="1" fill="blue" opacity="1" tooltip="enable"><title>(0.0347546,32)</title></rect><rect x="258" y="195.612" width="6" height="4.38783" stroke="black" stroke-width="1" fill="blue" opacity="1" tooltip="enable"><title>(0.0355821,31)</title></rect><rect x="264" y="194.338" width="6" height="5.66171" stroke="black" stroke-width="1" fill="blue" opacity="1" tooltip="enable"><title>(0.0364096,40)</title></rect><rect x="270" y="194.621" width="6" height="5.37863" stroke="black" stroke-width="1" fill="blue" opacity="1" tooltip="enable"><title>(0.0372371,38)</title></rect><rect x="276" y="195.471" width="6" height="4.52937" stroke="black" stroke-width="1" fill="blue" opacity="1" tooltip="enable"><title>(0.0380646,32)</title></rect><rect x="282" y="196.461" width="6" height="3.53857" stroke="black" stroke-width="1" fill="blue" opacity="1" tooltip="enable"><title>(0.0388921,25)</title></rect><rect x="288" y="194.48" width="6" height="5.52017" stroke="black" stroke-width="1" fill="blue" opacity="1" tooltip="enable"><title>(0.0397196,39)</title></rect><rect x="294" y="196.461" width="6" height="3.53857" stroke="black" stroke-width="1" fill="blue" opacity="1" tooltip="enable"><title>(0.0405471,25)</title></rect><rect x="300" y="197.594" width="6" height="2.40623" stroke="black" stroke-width="1" fill="blue" opacity="1" tooltip="enable"><title>(0.0413746,17)</title></rect><rect x="306" y="196.178" width="6" height="3.82166" stroke="black" stroke-width="1" fill="blue" opacity="1" tooltip="enable"><title>(0.0422021,27)</title></rect><rect x="312" y="195.471" width="6" height="4.52937" stroke="black" stroke-width="1" fill="blue" opacity="1" tooltip="enable"><title>(0.0430296,32)</title></rect><rect x="318" y="196.037" width="6" height="3.9632" stroke="black" stroke-width="1" fill="blue" opacity="1" tooltip="enable"><title>(0.043857,28)</title></rect><rect x="324" y="198.868" width="6" height="1.13234" stroke="black" stroke-width="1" fill="blue" opacity="1" tooltip="enable"><title>(0.0446845,8)</title></rect><rect x="330" y="196.603" width="6" height="3.39703" stroke="black" stroke-width="1" fill="blue" opacity="1" tooltip="enable"><title>(0.045512,24)</title></rect><rect x="336" y="197.028" width="6" height="2.9724" stroke="black" stroke-width="1" fill="blue" opacity="1" tooltip="enable"><title>(0.0463395,21)</title></rect><rect x="342" y="196.178" width="6" height="3.82166" stroke="black" stroke-width="1" fill="blue" opacity="1" tooltip="enable"><title>(0.047167,27)</title></rect><rect x="348" y="197.169" width="6" height="2.83086" stroke="black" stroke-width="1" fill="blue" opacity="1" tooltip="enable"><title>(0.0479945,20)</title></rect><rect x="354" y="198.585" width="6" height="1.41543" stroke="black" stroke-width="1" fill="blue" opacity="1" tooltip="enable"><title>(0.048822,10)</title></rect><rect x="360" y="197.311" width="6" height="2.68931" stroke="black" stroke-width="1" fill="blue" opacity="1" tooltip="enable"><title>(0.0496495,19)</title></rect><rect x="366" y="198.443" width="6" height="1.55697" stroke="black" stroke-width="1" fill="blue" opacity="1" tooltip="enable"><title>(0.050477,11)</title></rect><rect x="372" y="197.169" width="6" height="2.83086" stroke="black" stroke-width="1" fill="blue" opacity="1" tooltip="enable"><title>(0.0513045,20)</title></rect><rect x="378" y="197.169" width="6" height="2.83086" stroke="black" stroke-width="1" fill="blue" opacity="1" tooltip="enable"><title>(0.052132,20)</title></rect><rect x="384" y="197.735" width="6" height="2.26469" stroke="black" stroke-width="1" fill="blue" opacity="1" tooltip="enable"><title>(0.0529594,16)</title></rect><rect x="390" y="198.726" width="6" height="1.27389" stroke="black" stroke-width="1" fill="blue" opacity="1" tooltip="enable"><title>(0.0537869,9)</title></rect><rect x="396" y="198.443" width="6" height="1.55697" stroke="black" stroke-width="1" fill="blue" opacity="1" tooltip="enable"><title>(0.0546144,11)</title></rect><rect x="402" y="197.594" width="6" height="2.40623" stroke="black" stroke-width="1" fill="blue" opacity="1" tooltip="enable"><title>(0.0554419,17)</title></rect><rect x="408" y="198.726" width="6" height="1.27389" stroke="black" stroke-width="1" fill="blue" opacity="1" tooltip="enable"><title>(0.0562694,9)</title></rect><rect x="414" y="197.452" width="6" height="2.54777" stroke="black" stroke-width="1" fill="blue" opacity="1" tooltip="enable"><title>(0.0570969,18)</title></rect><rect x="420" y="199.292" width="6" height="0.707714" stroke="black" stroke-width="1" fill="blue" opacity="1" tooltip="enable"><title>(0.0579244,5)</title></rect><rect x="426" y="199.292" width="6" height="0.707714" stroke="black" stroke-width="1" fill="blue" opacity="1" tooltip="enable"><title>(0.0587519,5)</title></rect><rect x="432" y="199.434" width="6" height="0.566171" stroke="black" stroke-width="1" fill="blue" opacity="1" tooltip="enable"><title>(0.0595794,4)</title></rect><rect x="438" y="198.018" width="6" height="1.9816" stroke="black" stroke-width="1" fill="blue" opacity="1" tooltip="enable"><title>(0.0604069,14)</title></rect><rect x="444" y="199.717" width="6" height="0.283086" stroke="black" stroke-width="1" fill="blue" opacity="1" tooltip="enable"><title>(0.0612344,2)</title></rect><rect x="450" y="200" width="6" height="0" stroke="black" stroke-width="1" fill="blue" opacity="1" tooltip="enable"><title>(0.0620619,0)</title></rect><rect x="456" y="199.151" width="6" height="0.849257" stroke="black" stroke-width="1" fill="blue" opacity="1" tooltip="enable"><title>(0.0628893,6)</title></rect><rect x="462" y="199.009" width="6" height="0.9908" stroke="black" stroke-width="1" fill="blue" opacity="1" tooltip="enable"><title>(0.0637168,7)</title></rect><rect x="468" y="199.575" width="6" height="0.424628" stroke="black" stroke-width="1" fill="blue" opacity="1" tooltip="enable"><title>(0.0645443,3)</title></rect><rect x="474" y="199.717" width="6" height="0.283086" stroke="black" stroke-width="1" fill="blue" opacity="1" tooltip="enable"><title>(0.0653718,2)</title></rect><rect x="480" y="199.717" width="6" height="0.283086" stroke="black" stroke-width="1" fill="blue" opacity="1" tooltip="enable"><title>(0.0661993,2)</title></rect><rect x="486" y="199.717" width="6" height="0.283086" stroke="black" stroke-width="1" fill="blue" opacity="1" tooltip="enable"><title>(0.0670268,2)</title></rect><rect x="492" y="200" width="6" height="0" stroke="black" stroke-width="1" fill="blue" opacity="1" tooltip="enable"><title>(0.0678543,0)</title></rect><rect x="498" y="199.434" width="6" height="0.566171" stroke="black" stroke-width="1" fill="blue" opacity="1" tooltip="enable"><title>(0.0686818,4)</title></rect><rect x="504" y="200" width="6" height="0" stroke="black" stroke-width="1" fill="blue" opacity="1" tooltip="enable"><title>(0.0695093,0)</title></rect><rect x="510" y="200" width="6" height="0" stroke="black" stroke-width="1" fill="blue" opacity="1" tooltip="enable"><title>(0.0703368,0)</title></rect><rect x="516" y="199.717" width="6" height="0.283086" stroke="black" stroke-width="1" fill="blue" opacity="1" tooltip="enable"><title>(0.0711643,2)</title></rect><rect x="522" y="199.717" width="6" height="0.283086" stroke="black" stroke-width="1" fill="blue" opacity="1" tooltip="enable"><title>(0.0719917,2)</title></rect><rect x="528" y="199.717" width="6" height="0.283086" stroke="black" stroke-width="1" fill="blue" opacity="1" tooltip="enable"><title>(0.0728192,2)</title></rect><rect x="534" y="200" width="6" height="0" stroke="black" stroke-width="1" fill="blue" opacity="1" tooltip="enable"><title>(0.0736467,0)</title></rect><rect x="540" y="200" width="6" height="0" stroke="black" stroke-width="1" fill="blue" opacity="1" tooltip="enable"><title>(0.0744742,0)</title></rect><rect x="546" y="200" width="6" height="0" stroke="black" stroke-width="1" fill="blue" opacity="1" tooltip="enable"><title>(0.0753017,0)</title></rect><rect x="552" y="200" width="6" height="0" stroke="black" stroke-width="1" fill="blue" opacity="1" tooltip="enable"><title>(0.0761292,0)</title></rect><rect x="558" y="200" width="6" height="0" stroke="black" stroke-width="1" fill="blue" opacity="1" tooltip="enable"><title>(0.0769567,0)</title></rect><rect x="564" y="200" width="6" height="0" stroke="black" stroke-width="1" fill="blue" opacity="1" tooltip="enable"><title>(0.0777842,0)</title></rect><rect x="570" y="199.717" width="6" height="0.283086" stroke="black" stroke-width="1" fill="blue" opacity="1" tooltip="enable"><title>(0.0786117,2)</title></rect><rect x="576" y="199.717" width="6" height="0.283086" stroke="black" stroke-width="1" fill="blue" opacity="1" tooltip="enable"><title>(0.0794392,2)</title></rect><rect x="582" y="200" width="6" height="0" stroke="black" stroke-width="1" fill="blue" opacity="1" tooltip="enable"><title>(0.0802667,0)</title></rect><rect x="588" y="200" width="6" height="0" stroke="black" stroke-width="1" fill="blue" opacity="1" tooltip="enable"><title>(0.0810942,0)</title></rect><rect x="594" y="199.858" width="6" height="0.141543" stroke="black" stroke-width="1" fill="blue" opacity="1" tooltip="enable"><title>(0.0819216,1)</title></rect><text x="30" y="240" font-size="20" fill="black">0</text>
<text x="600" y="240" font-size="20" fill="black">0.0827491</text>
<polyline points="0,220,600,220" stroke="black" stroke-width="1" fill="none" opacity="1"/>
<text x="720" y="20" font-size="20" fill="black">1413</text>
<text x="720" y="200" font-size="20" fill="black">0</text>
<polyline points="660,0,660,200" stroke="black" stroke-width="1" fill="none" opacity="1"/>
</svg>