<?xml version="1.0" standalone="yes"?>
<!-- SVG graphic -->
<svg xmlns='http://www.w3.org/2000/svg' xmlns:xlink='http://www.w3.org/1999/xlink'
 version="1.1">
<rect x="0" y="0" width="6" height="200" stroke="black" stroke-width="1" fill="blue" opacity="1" tooltip="enable"><title>(0,2796)</title></rect><rect x="6" y="116.237" width="6" height="83.7625" stroke="black" stroke-width="1" fill="blue" opacity="1" tooltip="enable"><title>(0.00107189,1171)</title></rect><rect x="12" y="176.252" width="6" height="23.7482" stroke="black" stroke-width="1" fill="blue" opacity="1" tooltip="enable"><title>(0.00214378,332)</title></rect><rect x="18" y="186.91" width="6" height="13.0901" stroke="black" stroke-width="1" fill="blue" opacity="1" tooltip="enable"><title>(0.00321567,183)</title></rect><rect x="24" y="188.34" width="6" height="11.6595" stroke="black" stroke-width="1" fill="blue" opacity="1" tooltip="enable"><title>(0.00428756,163)</title></rect><rect x="30" y="188.054" width="6" height="11.9456" stroke="black" stroke-width="1" fill="blue" opacity="1" tooltip="enable"><title>(0.00535945,167)</title></rect><rect x="36" y="189.413" width="6" height="10.5866" stroke="black" stroke-width="1" fill="blue" opacity="1" tooltip="enable"><title>(0.00643134,148)</title></rect><rect x="42" y="188.841" width="6" height="11.1588" stroke="black" stroke-width="1" fill="blue" opacity="1" tooltip="enable"><title>(0.00750323,156)</title></rect><rect x="48" y="190.129" width="6" height="9.87124" stroke="black" stroke-width="1" fill="blue" opacity="1" tooltip="enable"><title>(0.00857512,138)</title></rect><rect x="54" y="190.343" width="6" height="9.65665" stroke="black" stroke-width="1" fill="blue" opacity="1" tooltip="enable"><title>(0.00964701,135)</title></rect><rect x="60" y="190.2" width="6" height="9.79971" stroke="black" stroke-width="1" fill="blue" opacity="1" tooltip="enable"><title>(0.0107189,137)</title></rect><rect x="66" y="190.486" width="6" height="9.51359" stroke="black" stroke-width="1" fill="blue" opacity="1" tooltip="enable"><title>(0.0117908,133)</title></rect><rect x="72" y="187.983" width="6" height="12.0172" stroke="black" stroke-width="1" fill="blue" opacity="1" tooltip="enable"><title>(0.0128627,168)</title></rect><rect x="78" y="191.13" width="6" height="8.86981" stroke="black" stroke-width="1" fill="blue" opacity="1" tooltip="enable"><title>(0.0139346,124)</title></rect><rect x="84" y="190.057" width="6" height="9.94278" stroke="black" stroke-width="1" fill="blue" opacity="1" tooltip="enable"><title>(0.0150065,139)</title></rect><rect x="90" y="192.847" width="6" height="7.15308" stroke="black" stroke-width="1" fill="blue" opacity="1" tooltip="enable"><title>(0.0160783,100)</title></rect><rect x="96" y="191.774" width="6" height="8.22604" stroke="black" stroke-width="1" fill="blue" opacity="1" tooltip="enable"><title>(0.0171502,115)</title></rect><rect x="102" y="191.702" width="6" height="8.29757" stroke="black" stroke-width="1" fill="blue" opacity="1" tooltip="enable"><title>(0.0182221,116)</title></rect><rect x="108" y="191.989" width="6" height="8.01145" stroke="black" stroke-width="1" fill="blue" opacity="1" tooltip="enable"><title>(0.019294,112)</title></rect><rect x="114" y="190.987" width="6" height="9.01288" stroke="black" stroke-width="1" fill="blue" opacity="1" tooltip="enable"><title>(0.0203659,126)</title></rect><rect x="120" y="191.702" width="6" height="8.29757" stroke="black" stroke-width="1" fill="blue" opacity="1" tooltip="enable"><title>(0.0214378,116)</title></rect><rect x="126" y="192.346" width="6" height="7.65379" stroke="black" stroke-width="1" fill="blue" opacity="1" tooltip="enable"><title>(0.0225097,107)</title></rect><rect x="132" y="192.561" width="6" height="7.4392" stroke="black" stroke-width="1" fill="blue" opacity="1" tooltip="enable"><title>(0.0235816,104)</title></rect><rect x="138" y="192.275" width="6" height="7.72532" stroke="black" stroke-width="1" fill="blue" opacity="1" tooltip="enable"><title>(0.0246535,108)</title></rect><rect x="144" y="193.848" width="6" height="6.15165" stroke="black" stroke-width="1" fill="blue" opacity="1" tooltip="enable"><title>(0.0257254,86)</title></rect><rect x="150" y="193.062" width="6" height="6.93848" stroke="black" stroke-width="1" fill="blue" opacity="1" tooltip="enable"><title>(0.0267972,97)</title></rect><rect x="156" y="194.564" width="6" height="5.43634" stroke="black" stroke-width="1" fill="blue" opacity="1" tooltip="enable"><title>(0.0278691,76)</title></rect><rect x="162" y="195.422" width="6" height="4.57797" stroke="black" stroke-width="1" fill="blue" opacity="1" tooltip="enable"><title>(0.028941,64)</title></rect><rect x="168" y="195.207" width="6" height="4.79256" stroke="black" stroke-width="1" fill="blue" opacity="1" tooltip="enable"><title>(0.0300129,67)</title></rect><rect x="174" y="195.35" width="6" height="4.6495" stroke="black" stroke-width="1" fill="blue" opacity="1" tooltip="enable"><title>(0.0310848,65)</title></rect><rect x="180" y="197.496" width="6" height="2.50358" stroke="black" stroke-width="1" fill="blue" opacity="1" tooltip="enable"><title>(0.0321567,35)</title></rect><rect x="186" y="196.71" width="6" height="3.29041" stroke="black" stroke-width="1" fill="blue" opacity="1" tooltip="enable"><title>(0.0332286,46)</title></rect><rect x="192" y="198.927" width="6" height="1.07296" stroke="black" stroke-width="1" fill="blue" opacity="1" tooltip="enable"><title>(0.0343005,15)</title></rect><rect x="198" y="197.353" width="6" height="2.64664" stroke="black" stroke-width="1" fill="blue" opacity="1" tooltip="enable"><title>(0.0353724,37)</title></rect><rect x="204" y="196.638" width="6" height="3.36195" stroke="black" stroke-width="1" fill="blue" opacity="1" tooltip="enable"><title>(0.0364443,47)</title></rect><rect x="210" y="197.496" width="6" height="2.50358" stroke="black" stroke-width="1" fill="blue" opacity="1" tooltip="enable"><title>(0.0375161,35)</title></rect><rect x="216" y="198.283" width="6" height="1.71674" stroke="black" stroke-width="1" fill="blue" opacity="1" tooltip="enable"><title>(0.038588,24)</title></rect><rect x="222" y="199.285" width="6" height="0.715308" stroke="black" stroke-width="1" fill="blue" opacity="1" tooltip="enable"><title>(0.0396599,10)</title></rect><rect x="228" y="199.571" width="6" height="0.429185" stroke="black" stroke-width="1" fill="blue" opacity="1" tooltip="enable"><title>(0.0407318,6)</title></rect><rect x="234" y="199.213" width="6" height="0.786838" stroke="black" stroke-width="1" fill="blue" opacity="1" tooltip="enable"><title>(0.0418037,11)</title></rect><rect x="240" y="199.356" width="6" height="0.643777" stroke="black" stroke-width="1" fill="blue" opacity="1" tooltip="enable"><title>(0.0428756,9)</title></rect><rect x="246" y="199.285" width="6" height="0.715308" stroke="black" stroke-width="1" fill="blue" opacity="1" tooltip="enable"><title>(0.0439475,10)</title></rect><rect x="252" y="198.999" width="6" height="1.00143" stroke="black" stroke-width="1" fill="blue" opacity="1" tooltip="enable"><title>(0.0450194,14)</title></rect><rect x="258" y="199.142" width="6" height="0.858369" stroke="black" stroke-width="1" fill="blue" opacity="1" tooltip="enable"><title>(0.0460913,12)</title></rect><rect x="264" y="199.285" width="6" height="0.715308" stroke="black" stroke-width="1" fill="blue" opacity="1" tooltip="enable"><title>(0.0471631,10)</title></rect><rect x="270" y="198.712" width="6" height="1.28755" stroke="black" stroke-width="1" fill="blue" opacity="1" tooltip="enable"><title>(0.048235,18)</title></rect><rect x="276" y="199.285" width="6" height="0.715308" stroke="black" stroke-width="1" fill="blue" opacity="1" tooltip="enable"><title>(0.0493069,10)</title></rect><rect x="282" y="199.571" width="6" height="0.429185" stroke="black" stroke-width="1" fill="blue" opacity="1" tooltip="enable"><title>(0.0503788,6)</title></rect><rect x="288" y="199.714" width="6" height="0.286123" stroke="black" stroke-width="1" fill="blue" opacity="1" tooltip="enable"><title>(0.0514507,4)</title></rect><rect x="294" y="199.714" width="6" height="0.286123" stroke="black" stroke-width="1" fill="blue" opacity="1" tooltip="enable"><title>(0.0525226,4)</title></rect><rect x="300" y="199.785" width="6" height="0.214592" stroke="black" stroke-width="1" fill="blue" opacity="1" tooltip="enable"><title>(0.0535945,3)</title></rect><rect x="306" y="199.499" width="6" height="0.500715" stroke="black" stroke-width="1" fill="blue" opacity="1" tooltip="enable"><title>(0.0546664,7)</title></rect><rect x="312" y="199.571" width="6" height="0.429185" stroke="black" stroke-width="1" fill="blue" opacity="1" tooltip="enable"><title>(0.0557383,6)</title></rect><rect x="318" y="199.428" width="6" height="0.572246" stroke="black" stroke-width="1" fill="blue" opacity="1" tooltip="enable"><title>(0.0568102,8)</title></rect><rect x="324" y="200" width="6" height="0" stroke="black" stroke-width="1" fill="blue" opacity="1" tooltip="enable"><title>(0.057882,0)</title></rect><rect x="330" y="198.712" width="6" height="1.28755" stroke="black" stroke-width="1" fill="blue" opacity="1" tooltip="enable"><title>(0.0589539,18)</title></rect><rect x="336" y="199.571" width="6" height="0.429185" stroke="black" stroke-width="1" fill="blue" opacity="1" tooltip="enable"><title>(0.0600258,6)</title></rect><rect x="342" y="199.857" width="6" height="0.143062" stroke="black" stroke-width="1" fill="blue" opacity="1" tooltip="enable"><title>(0.0610977,2)</title></rect><rect x="348" y="199.714" width="6" height="0.286123" stroke="black" stroke-width="1" fill="blue" opacity="1" tooltip="enable"><title>(0.0621696,4)</title></rect><rect x="354" y="199.714" width="6" height="0.286123" stroke="black" stroke-width="1" fill="blue" opacity="1" tooltip="enable"><title>(0.0632415,4)</title></rect><rect x="360" y="200" width="6" height="0" stroke="black" stroke-width="1" fill="blue" opacity="1" tooltip="enable"><title>(0.0643134,0)</title></rect><rect x="366" y="199.714" width="6" height="0.286123" stroke="black" stroke-width="1" fill="blue" opacity="1" tooltip="enable"><title>(0.0653853,4)</title></rect><rect x="372" y="199.857" width="6" height="0.143062" stroke="black" stroke-width="1" fill="blue" opacity="1" tooltip="enable"><title>(0.0664572,2)</title></rect><rect x="378" y="200" width="6" height="0" stroke="black" stroke-width="1" fill="blue" opacity="1" tooltip="enable"><title>(0.0675291,0)</title></rect><rect x="384" y="200" width="6" height="0" stroke="black" stroke-width="1" fill="blue" opacity="1" tooltip="enable"><title>(0.0686009,0)</title></rect><rect x="390" y="200" width="6" height="0" stroke="black" stroke-width="1" fill="blue" opacity="1" tooltip="enable"><title>(0.0696728,0)</title></rect><rect x="396" y="200" width="6" height="0" stroke="black" stroke-width="1" fill="blue" opacity="1" tooltip="enable"><title>(0.0707447,0)</title></rect><rect x="402" y="200" width="6" height="0" stroke="black" stroke-width="1" fill="blue" opacity="1" tooltip="enable"><title>(0.0718166,0)</title></rect><rect x="408" y="199.857" width="6" height="0.143062" stroke="black" stroke-width="1" fill="blue" opacity="1" tooltip="enable"><title>(0.0728885,2)</title></rect><rect x="414" y="200" width="6" height="0" stroke="black" stroke-width="1" fill="blue" opacity="1" tooltip="enable"><title>(0.0739604,0)</title></rect><rect x="420" y="199.857" width="6" height="0.143062" stroke="black" stroke-width="1" fill="blue" opacity="1" tooltip="enable"><title>(0.0750323,2)</title></rect><rect x="426" y="199.857" width="6" height="0.143062" stroke="black" stroke-width="1" fill="blue" opacity="1" tooltip="enable"><title>(0.0761042,2)</title></rect><rect x="432" y="200" width="6" height="0" stroke="black" stroke-width="1" fill="blue" opacity="1" tooltip="enable"><title>(0.0771761,0)</title></rect><rect x="438" y="200" width="6" height="0" stroke="black" stroke-width="1" fill="blue" opacity="1" tooltip="enable"><title>(0.0782479,0)</title></rect><rect x="444" y="200" width="6" height="0" stroke="black" stroke-width="1" fill="blue" opacity="1" tooltip="enable"><title>(0.0793198,0)</title></rect><rect x="450" y="200" width="6" height="0" stroke="black" stroke-width="1" fill="blue" opacity="1" tooltip="enable"><title>(0.0803917,0)</title></rect><rect x="456" y="200" width="6" height="0" stroke="black" stroke-width="1" fill="blue" opacity="1" tooltip="enable"><title>(0.0814636,0)</title></rect><rect x="462" y="200" width="6" height="0" stroke="black" stroke-width="1" fill="blue" opacity="1" tooltip="enable"><title>(0.0825355,0)</title></rect><rect x="468" y="200" width="6" height="0" stroke="black" stroke-width="1" fill="blue" opacity="1" tooltip="enable"><title>(0.0836074,0)</title></rect><rect x="474" y="200" width="6" height="0" stroke="black" stroke-width="1" fill="blue" opacity="1" tooltip="enable"><title>(0.0846793,0)</title></rect><rect x="480" y="199.857" width="6" height="0.143062" stroke="black" stroke-width="1" fill="blue" opacity="1" tooltip="enable"><title>(0.0857512,2)</title></rect><rect x="486" y="199.857" width="6" height="0.143062" stroke="black" stroke-width="1" fill="blue" opacity="1" tooltip="enable"><title>(0.0868231,2)</title></rect><rect x="492" y="200" width="6" height="0" stroke="black" stroke-width="1" fill="blue" opacity="1" tooltip="enable"><title>(0.087895,0)</title></rect><rect x="498" y="199.714" width="6" height="0.286123" stroke="black" stroke-width="1" fill="blue" opacity="1" tooltip="enable"><title>(0.0889668,4)</title></rect><rect x="504" y="200" width="6" height="0" stroke="black" stroke-width="1" fill="blue" opacity="1" tooltip="enable"><title>(0.0900387,0)</title></rect><rect x="510" y="199.857" width="6" height="0.143062" stroke="black" stroke-width="1" fill="blue" opacity="1" tooltip="enable"><title>(0.0911106,2)</title></rect><rect x="516" y="200" width="6" height="0" stroke="black" stroke-width="1" fill="blue" opacity="1" tooltip="enable"><title>(0.0921825,0)</title></rect><rect x="522" y="200" width="6" height="0" stroke="black" stroke-width="1" fill="blue" opacity="1" tooltip="enable"><title>(0.0932544,0)</title></rect><rect x="528" y="200" width="6" height="0" stroke="black" stroke-width="1" fill="blue" opacity="1" tooltip="enable"><title>(0.0943263,0)</title></rect><rect x="534" y="200" width="6" height="0" stroke="black" stroke-width="1" fill="blue" opacity="1" tooltip="enable"><title>(0.0953982,0)</title></rect><rect x="540" y="199.857" width="6" height="0.143062" stroke="black" stroke-width="1" fill="blue" opacity="1" tooltip="enable"><title>(0.0964701,2)</title></rect><rect x="546" y="199.857" width="6" height="0.143062" stroke="black" stroke-width="1" fill="blue" opacity="1" tooltip="enable"><title>(0.097542,2)</title></rect><rect x="552" y="200" width="6" height="0" stroke="black" stroke-width="1" fill="blue" opacity="1" tooltip="enable"><title>(0.0986139,0)</title></rect><rect x="558" y="200" width="6" height="0" stroke="black" stroke-width="1" fill="blue" opacity="1" tooltip="enable"><title>(0.0996857,0)</title></rect><rect x="564" y="200" width="6" height="0" stroke="black" stroke-width="1" fill="blue" opacity="1" tooltip="enable"><title>(0.100758,0)</title></rect><rect x="570" y="199.857" width="6" height="0.143062" stroke="black" stroke-width="1" fill="blue" opacity="1" tooltip="enable"><title>(0.10183,2)</title></rect><rect x="576" y="200" width="6" height="0" stroke="black" stroke-width="1" fill="blue" opacity="1" tooltip="enable"><title>(0.102901,0)</title></rect><rect x="582" y="200" width="6" height="0" stroke="black" stroke-width="1" fill="blue" opacity="1" tooltip="enable"><title>(0.103973,0)</title></rect><rect x="588" y="200" width="6" height="0" stroke="black" stroke-width="1" fill="blue" opacity="1" tooltip="enable"><title>(0.105045,0)</title></rect><rect x="594" y="199.928" width="6" height="0.0715308" stroke="black" stroke-width="1" fill="blue" opacity="1" tooltip="enable"><title>(0.106117,1)</title></rect><text x="30" y="240" font-size="20" fill="black">0</text>
<text x="600" y="240" font-size="20" fill="black">0.107189</text>
<polyline points="0,220,600,220" stroke="black" stroke-width="1" fill="none" opacity="1"/>
<text x="720" y="20" font-size="20" fill="black">2796</text>
<text x="720" y="200" font-size="20" fill="black">0</text>
<polyline points="660,0,660,200" stroke="black" stroke-width="1" fill="none" opacity="1"/>
</svg>