<?xml version="1.0" standalone="yes"?>
<!-- SVG graphic -->
<svg xmlns='http://www.w3.org/2000/svg' xmlns:xlink='http://www.w3.org/1999/xlink'
 version="1.1">
<rect x="0" y="0" width="6" height="200" stroke="black" stroke-width="1" fill="blue" opacity="1" tooltip="enable"><title>(0,1143)</title></rect><rect x="6" y="5.5993" width="6" height="194.401" stroke="black" stroke-width="1" fill="blue" opacity="1" tooltip="enable"><title>(0.00126581,1111)</title></rect><rect x="12" y="23.972" width="6" height="176.028" stroke="black" stroke-width="1" fill="blue" opacity="1" tooltip="enable"><title>(0.00253163,1006)</title></rect><rect x="18" y="83.8145" width="6" height="116.185" stroke="black" stroke-width="1" fill="blue" opacity="1" tooltip="enable"><title>(0.00379744,664)</title></rect><rect x="24" y="128.084" width="6" height="71.916" stroke="black" stroke-width="1" fill="blue" opacity="1" tooltip="enable"><title>(0.00506325,411)</title></rect><rect x="30" y="159.93" width="6" height="40.07" stroke="black" stroke-width="1" fill="blue" opacity="1" tooltip="enable"><title>(0.00632907,229)</title></rect><rect x="36" y="163.255" width="6" height="36.7454" stroke="black" stroke-width="1" fill="blue" opacity="1" tooltip="enable"><title>(0.00759488,210)</title></rect><rect x="42" y="168.329" width="6" height="31.671" stroke="black" stroke-width="1" fill="blue" opacity="1" tooltip="enable"><title>(0.0088607,181)</title></rect><rect x="48" y="176.553" width="6" height="23.4471" stroke="black" stroke-width="1" fill="blue" opacity="1" tooltip="enable"><title>(0.0101265,134)</title></rect><rect x="54" y="171.829" width="6" height="28.1715" stroke="black" stroke-width="1" fill="blue" opacity="1" tooltip="enable"><title>(0.0113923,161)</title></rect><rect x="60" y="172.878" width="6" height="27.1216" stroke="black" stroke-width="1" fill="blue" opacity="1" tooltip="enable"><title>(0.0126581,155)</title></rect><rect x="66" y="181.277" width="6" height="18.7227" stroke="black" stroke-width="1" fill="blue" opacity="1" tooltip="enable"><title>(0.013924,107)</title></rect><rect x="72" y="173.403" width="6" height="26.5967" stroke="black" stroke-width="1" fill="blue" opacity="1" tooltip="enable"><title>(0.0151898,152)</title></rect><rect x="78" y="179.878" width="6" height="20.1225" stroke="black" stroke-width="1" fill="blue" opacity="1" tooltip="enable"><title>(0.0164556,115)</title></rect><rect x="84" y="174.103" width="6" height="25.8968" stroke="black" stroke-width="1" fill="blue" opacity="1" tooltip="enable"><title>(0.0177214,148)</title></rect><rect x="90" y="176.378" width="6" height="23.622" stroke="black" stroke-width="1" fill="blue" opacity="1" tooltip="enable"><title>(0.0189872,135)</title></rect><rect x="96" y="173.928" width="6" height="26.0717" stroke="black" stroke-width="1" fill="blue" opacity="1" tooltip="enable"><title>(0.020253,149)</title></rect><rect x="102" y="178.128" width="6" height="21.8723" stroke="black" stroke-width="1" fill="blue" opacity="1" tooltip="enable"><title>(0.0215188,125)</title></rect><rect x="108" y="183.902" width="6" height="16.098" stroke="black" stroke-width="1" fill="blue" opacity="1" tooltip="enable"><title>(0.0227846,92)</title></rect><rect x="114" y="178.478" width="6" height="21.5223" stroke="black" stroke-width="1" fill="blue" opacity="1" tooltip="enable"><title>(0.0240505,123)</title></rect><rect x="120" y="184.952" width="6" height="15.0481" stroke="black" stroke-width="1" fill="blue" opacity="1" tooltip="enable"><title>(0.0253163,86)</title></rect><rect x="126" y="186.002" width="6" height="13.9983" stroke="black" stroke-width="1" fill="blue" opacity="1" tooltip="enable"><title>(0.0265821,80)</title></rect><rect x="132" y="182.677" width="6" height="17.3228" stroke="black" stroke-width="1" fill="blue" opacity="1" tooltip="enable"><title>(0.0278479,99)</title></rect><rect x="138" y="183.377" width="6" height="16.6229" stroke="black" stroke-width="1" fill="blue" opacity="1" tooltip="enable"><title>(0.0291137,95)</title></rect><rect x="144" y="183.552" width="6" height="16.4479" stroke="black" stroke-width="1" fill="blue" opacity="1" tooltip="enable"><title>(0.0303795,94)</title></rect><rect x="150" y="180.927" width="6" height="19.0726" stroke="black" stroke-width="1" fill="blue" opacity="1" tooltip="enable"><title>(0.0316453,109)</title></rect><rect x="156" y="184.427" width="6" height="15.5731" stroke="black" stroke-width="1" fill="blue" opacity="1" tooltip="enable"><title>(0.0329112,89)</title></rect><rect x="162" y="183.027" width="6" height="16.9729" stroke="black" stroke-width="1" fill="blue" opacity="1" tooltip="enable"><title>(0.034177,97)</title></rect><rect x="168" y="185.302" width="6" height="14.6982" stroke="black" stroke-width="1" fill="blue" opacity="1" tooltip="enable"><title>(0.0354428,84)</title></rect><rect x="174" y="189.676" width="6" height="10.3237" stroke="black" stroke-width="1" fill="blue" opacity="1" tooltip="enable"><title>(0.0367086,59)</title></rect><rect x="180" y="190.726" width="6" height="9.27384" stroke="black" stroke-width="1" fill="blue" opacity="1" tooltip="enable"><title>(0.0379744,53)</title></rect><rect x="186" y="187.577" width="6" height="12.4234" stroke="black" stroke-width="1" fill="blue" opacity="1" tooltip="enable"><title>(0.0392402,71)</title></rect><rect x="192" y="192.826" width="6" height="7.1741" stroke="black" stroke-width="1" fill="blue" opacity="1" tooltip="enable"><title>(0.040506,41)</title></rect><rect x="198" y="192.651" width="6" height="7.34908" stroke="black" stroke-width="1" fill="blue" opacity="1" tooltip="enable"><title>(0.0417719,42)</title></rect><rect x="204" y="191.951" width="6" height="8.04899" stroke="black" stroke-width="1" fill="blue" opacity="1" tooltip="enable"><title>(0.0430377,46)</title></rect><rect x="210" y="195.801" width="6" height="4.19947" stroke="black" stroke-width="1" fill="blue" opacity="1" tooltip="enable"><title>(0.0443035,24)</title></rect><rect x="216" y="195.801" width="6" height="4.19947" stroke="black" stroke-width="1" fill="blue" opacity="1" tooltip="enable"><title>(0.0455693,24)</title></rect><rect x="222" y="196.85" width="6" height="3.14961" stroke="black" stroke-width="1" fill="blue" opacity="1" tooltip="enable"><title>(0.0468351,18)</title></rect><rect x="228" y="196.15" width="6" height="3.84952" stroke="black" stroke-width="1" fill="blue" opacity="1" tooltip="enable"><title>(0.0481009,22)</title></rect><rect x="234" y="197.9" width="6" height="2.09974" stroke="black" stroke-width="1" fill="blue" opacity="1" tooltip="enable"><title>(0.0493667,12)</title></rect><rect x="240" y="196.85" width="6" height="3.14961" stroke="black" stroke-width="1" fill="blue" opacity="1" tooltip="enable"><title>(0.0506325,18)</title></rect><rect x="246" y="198.25" width="6" height="1.74978" stroke="black" stroke-width="1" fill="blue" opacity="1" tooltip="enable"><title>(0.0518984,10)</title></rect><rect x="252" y="197.9" width="6" height="2.09974" stroke="black" stroke-width="1" fill="blue" opacity="1" tooltip="enable"><title>(0.0531642,12)</title></rect><rect x="258" y="198.25" width="6" height="1.74978" stroke="black" stroke-width="1" fill="blue" opacity="1" tooltip="enable"><title>(0.05443,10)</title></rect><rect x="264" y="197.725" width="6" height="2.27472" stroke="black" stroke-width="1" fill="blue" opacity="1" tooltip="enable"><title>(0.0556958,13)</title></rect><rect x="270" y="198.25" width="6" height="1.74978" stroke="black" stroke-width="1" fill="blue" opacity="1" tooltip="enable"><title>(0.0569616,10)</title></rect><rect x="276" y="198.075" width="6" height="1.92476" stroke="black" stroke-width="1" fill="blue" opacity="1" tooltip="enable"><title>(0.0582274,11)</title></rect><rect x="282" y="198.25" width="6" height="1.74978" stroke="black" stroke-width="1" fill="blue" opacity="1" tooltip="enable"><title>(0.0594932,10)</title></rect><rect x="288" y="198.95" width="6" height="1.04987" stroke="black" stroke-width="1" fill="blue" opacity="1" tooltip="enable"><title>(0.0607591,6)</title></rect><rect x="294" y="198.6" width="6" height="1.39982" stroke="black" stroke-width="1" fill="blue" opacity="1" tooltip="enable"><title>(0.0620249,8)</title></rect><rect x="300" y="198.25" width="6" height="1.74978" stroke="black" stroke-width="1" fill="blue" opacity="1" tooltip="enable"><title>(0.0632907,10)</title></rect><rect x="306" y="199.65" width="6" height="0.349956" stroke="black" stroke-width="1" fill="blue" opacity="1" tooltip="enable"><title>(0.0645565,2)</title></rect><rect x="312" y="198.775" width="6" height="1.22485" stroke="black" stroke-width="1" fill="blue" opacity="1" tooltip="enable"><title>(0.0658223,7)</title></rect><rect x="318" y="198.775" width="6" height="1.22485" stroke="black" stroke-width="1" fill="blue" opacity="1" tooltip="enable"><title>(0.0670881,7)</title></rect><rect x="324" y="198.6" width="6" height="1.39982" stroke="black" stroke-width="1" fill="blue" opacity="1" tooltip="enable"><title>(0.0683539,8)</title></rect><rect x="330" y="198.6" width="6" height="1.39982" stroke="black" stroke-width="1" fill="blue" opacity="1" tooltip="enable"><title>(0.0696198,8)</title></rect><rect x="336" y="198.6" width="6" height="1.39982" stroke="black" stroke-width="1" fill="blue" opacity="1" tooltip="enable"><title>(0.0708856,8)</title></rect><rect x="342" y="200" width="6" height="0" stroke="black" stroke-width="1" fill="blue" opacity="1" tooltip="enable"><title>(0.0721514,0)</title></rect><rect x="348" y="198.95" width="6" height="1.04987" stroke="black" stroke-width="1" fill="blue" opacity="1" tooltip="enable"><title>(0.0734172,6)</title></rect><rect x="354" y="199.3" width="6" height="0.699912" stroke="black" stroke-width="1" fill="blue" opacity="1" tooltip="enable"><title>(0.074683,4)</title></rect><rect x="360" y="200" width="6" height="0" stroke="black" stroke-width="1" fill="blue" opacity="1" tooltip="enable"><title>(0.0759488,0)</title></rect><rect x="366" y="199.3" width="6" height="0.699912" stroke="black" stroke-width="1" fill="blue" opacity="1" tooltip="enable"><title>(0.0772146,4)</title></rect><rect x="372" y="200" width="6" height="0" stroke="black" stroke-width="1" fill="blue" opacity="1" tooltip="enable"><title>(0.0784805,0)</title></rect><rect x="378" y="199.3" width="6" height="0.699912" stroke="black" stroke-width="1" fill="blue" opacity="1" tooltip="enable"><title>(0.0797463,4)</title></rect><rect x="384" y="198.95" width="6" height="1.04987" stroke="black" stroke-width="1" fill="blue" opacity="1" tooltip="enable"><title>(0.0810121,6)</title></rect><rect x="390" y="199.65" width="6" height="0.349956" stroke="black" stroke-width="1" fill="blue" opacity="1" tooltip="enable"><title>(0.0822779,2)</title></rect><rect x="396" y="198.95" width="6" height="1.04987" stroke="black" stroke-width="1" fill="blue" opacity="1" tooltip="enable"><title>(0.0835437,6)</title></rect><rect x="402" y="200" width="6" height="0" stroke="black" stroke-width="1" fill="blue" opacity="1" tooltip="enable"><title>(0.0848095,0)</title></rect><rect x="408" y="199.65" width="6" height="0.349956" stroke="black" stroke-width="1" fill="blue" opacity="1" tooltip="enable"><title>(0.0860753,2)</title></rect><rect x="414" y="200" width="6" height="0" stroke="black" stroke-width="1" fill="blue" opacity="1" tooltip="enable"><title>(0.0873411,0)</title></rect><rect x="420" y="200" width="6" height="0" stroke="black" stroke-width="1" fill="blue" opacity="1" tooltip="enable"><title>(0.088607,0)</title></rect><rect x="426" y="199.65" width="6" height="0.349956" stroke="black" stroke-width="1" fill="blue" opacity="1" tooltip="enable"><title>(0.0898728,2)</title></rect><rect x="432" y="200" width="6" height="0" stroke="black" stroke-width="1" fill="blue" opacity="1" tooltip="enable"><title>(0.0911386,0)</title></rect><rect x="438" y="199.65" width="6" height="0.349956" stroke="black" stroke-width="1" fill="blue" opacity="1" tooltip="enable"><title>(0.0924044,2)</title></rect><rect x="444" y="200" width="6" height="0" stroke="black" stroke-width="1" fill="blue" opacity="1" tooltip="enable"><title>(0.0936702,0)</title></rect><rect x="450" y="200" width="6" height="0" stroke="black" stroke-width="1" fill="blue" opacity="1" tooltip="enable"><title>(0.094936,0)</title></rect><rect x="456" y="199.3" width="6" height="0.699912" stroke="black" stroke-width="1" fill="blue" opacity="1" tooltip="enable"><title>(0.0962018,4)</title></rect><rect x="462" y="200" width="6" height="0" stroke="black" stroke-width="1" fill="blue" opacity="1" tooltip="enable"><title>(0.0974677,0)</title></rect><rect x="468" y="199.65" width="6" height="0.349956" stroke="black" stroke-width="1" fill="blue" opacity="1" tooltip="enable"><title>(0.0987335,2)</title></rect><rect x="474" y="200" width="6" height="0" stroke="black" stroke-width="1" fill="blue" opacity="1" tooltip="enable"><title>(0.0999993,0)</title></rect><rect x="480" y="200" width="6" height="0" stroke="black" stroke-width="1" fill="blue" opacity="1" tooltip="enable"><title>(0.101265,0)</title></rect><rect x="486" y="200" width="6" height="0" stroke="black" stroke-width="1" fill="blue" opacity="1" tooltip="enable"><title>(0.102531,0)</title></rect><rect x="492" y="200" width="6" height="0" stroke="black" stroke-width="1" fill="blue" opacity="1" tooltip="enable"><title>(0.103797,0)</title></rect><rect x="498" y="200" width="6" height="0" stroke="black" stroke-width="1" fill="blue" opacity="1" tooltip="enable"><title>(0.105063,0)</title></rect><rect x="504" y="200" width="6" height="0" stroke="black" stroke-width="1" fill="blue" opacity="1" tooltip="enable"><title>(0.106328,0)</title></rect><rect x="510" y="200" width="6" height="0" stroke="black" stroke-width="1" fill="blue" opacity="1" tooltip="enable"><title>(0.107594,0)</title></rect><rect x="516" y="200" width="6" height="0" stroke="black" stroke-width="1" fill="blue" opacity="1" tooltip="enable"><title>(0.10886,0)</title></rect><rect x="522" y="200" width="6" height="0" stroke="black" stroke-width="1" fill="blue" opacity="1" tooltip="enable"><title>(0.110126,0)</title></rect><rect x="528" y="200" width="6" height="0" stroke="black" stroke-width="1" fill="blue" opacity="1" tooltip="enable"><title>(0.111392,0)</title></rect><rect x="534" y="200" width="6" height="0" stroke="black" stroke-width="1" fill="blue" opacity="1" tooltip="enable"><title>(0.112657,0)</title></rect><rect x="540" y="200" width="6" height="0" stroke="black" stroke-width="1" fill="blue" opacity="1" tooltip="enable"><title>(0.113923,0)</title></rect><rect x="546" y="200" width="6" height="0" stroke="black" stroke-width="1" fill="blue" opacity="1" tooltip="enable"><title>(0.115189,0)</title></rect><rect x="552" y="200" width="6" height="0" stroke="black" stroke-width="1" fill="blue" opacity="1" tooltip="enable"><title>(0.116455,0)</title></rect><rect x="558" y="200" width="6" height="0" stroke="black" stroke-width="1" fill="blue" opacity="1" tooltip="enable"><title>(0.117721,0)</title></rect><rect x="564" y="200" width="6" height="0" stroke="black" stroke-width="1" fill="blue" opacity="1" tooltip="enable"><title>(0.118986,0)</title></rect><rect x="570" y="200" width="6" height="0" stroke="black" stroke-width="1" fill="blue" opacity="1" tooltip="enable"><title>(0.120252,0)</title></rect><rect x="576" y="200" width="6" height="0" stroke="black" stroke-width="1" fill="blue" opacity="1" tooltip="enable"><title>(0.121518,0)</title></rect><rect x="582" y="200" width="6" height="0" stroke="black" stroke-width="1" fill="blue" opacity="1" tooltip="enable"><title>(0.122784,0)</title></rect><rect x="588" y="200" width="6" height="0" stroke="black" stroke-width="1" fill="blue" opacity="1" tooltip="enable"><title>(0.12405,0)</title></rect><rect x="594" y="199.825" width="6" height="0.174978" stroke="black" stroke-width="1" fill="blue" opacity="1" tooltip="enable"><title>(0.125316,1)</title></rect><text x="30" y="240" font-size="20" fill="black">0</text>
<text x="600" y="240" font-size="20" fill="black">0.126581</text>
<polyline points="0,220,600,220" stroke="black" stroke-width="1" fill="none" opacity="1"/>
<text x="720" y="20" font-size="20" fill="black">1143</text>
<text x="720" y="200" font-size="20" fill="black">0</text>
<polyline points="660,0,660,200" stroke="black" stroke-width="1" fill="none" opacity="1"/>
</svg>