<?xml version="1.0" standalone="yes"?>
<!-- SVG graphic -->
<svg xmlns='http://www.w3.org/2000/svg' xmlns:xlink='http://www.w3.org/1999/xlink'
 version="1.1">
<rect x="0" y="0" width="6" height="200" stroke="black" stroke-width="1" fill="blue" opacity="1" tooltip="enable"><title>(0,3141)</title></rect><rect x="6" y="122.127" width="6" height="77.8733" stroke="black" stroke-width="1" fill="blue" opacity="1" tooltip="enable"><title>(0.00209185,1223)</title></rect><rect x="12" y="186.374" width="6" height="13.6262" stroke="black" stroke-width="1" fill="blue" opacity="1" tooltip="enable"><title>(0.00418369,214)</title></rect><rect x="18" y="186.756" width="6" height="13.2442" stroke="black" stroke-width="1" fill="blue" opacity="1" tooltip="enable"><title>(0.00627554,208)</title></rect><rect x="24" y="189.303" width="6" height="10.6972" stroke="black" stroke-width="1" fill="blue" opacity="1" tooltip="enable"><title>(0.00836738,168)</title></rect><rect x="30" y="187.52" width="6" height="12.4801" stroke="black" stroke-width="1" fill="blue" opacity="1" tooltip="enable"><title>(0.0104592,196)</title></rect><rect x="36" y="186.756" width="6" height="13.2442" stroke="black" stroke-width="1" fill="blue" opacity="1" tooltip="enable"><title>(0.0125511,208)</title></rect><rect x="42" y="187.138" width="6" height="12.8621" stroke="black" stroke-width="1" fill="blue" opacity="1" tooltip="enable"><title>(0.0146429,202)</title></rect><rect x="48" y="189.812" width="6" height="10.1878" stroke="black" stroke-width="1" fill="blue" opacity="1" tooltip="enable"><title>(0.0167348,160)</title></rect><rect x="54" y="187.456" width="6" height="12.5438" stroke="black" stroke-width="1" fill="blue" opacity="1" tooltip="enable"><title>(0.0188266,197)</title></rect><rect x="60" y="188.539" width="6" height="11.4613" stroke="black" stroke-width="1" fill="blue" opacity="1" tooltip="enable"><title>(0.0209185,180)</title></rect><rect x="66" y="191.595" width="6" height="8.40497" stroke="black" stroke-width="1" fill="blue" opacity="1" tooltip="enable"><title>(0.0230103,132)</title></rect><rect x="72" y="191.786" width="6" height="8.21394" stroke="black" stroke-width="1" fill="blue" opacity="1" tooltip="enable"><title>(0.0251021,129)</title></rect><rect x="78" y="188.029" width="6" height="11.9707" stroke="black" stroke-width="1" fill="blue" opacity="1" tooltip="enable"><title>(0.027194,188)</title></rect><rect x="84" y="190.704" width="6" height="9.2964" stroke="black" stroke-width="1" fill="blue" opacity="1" tooltip="enable"><title>(0.0292858,146)</title></rect><rect x="90" y="192.423" width="6" height="7.5772" stroke="black" stroke-width="1" fill="blue" opacity="1" tooltip="enable"><title>(0.0313777,119)</title></rect><rect x="96" y="192.295" width="6" height="7.70455" stroke="black" stroke-width="1" fill="blue" opacity="1" tooltip="enable"><title>(0.0334695,121)</title></rect><rect x="102" y="193.06" width="6" height="6.94046" stroke="black" stroke-width="1" fill="blue" opacity="1" tooltip="enable"><title>(0.0355614,109)</title></rect><rect x="108" y="192.55" width="6" height="7.44986" stroke="black" stroke-width="1" fill="blue" opacity="1" tooltip="enable"><title>(0.0376532,117)</title></rect><rect x="114" y="195.415" width="6" height="4.58453" stroke="black" stroke-width="1" fill="blue" opacity="1" tooltip="enable"><title>(0.0397451,72)</title></rect><rect x="120" y="195.606" width="6" height="4.39351" stroke="black" stroke-width="1" fill="blue" opacity="1" tooltip="enable"><title>(0.0418369,69)</title></rect><rect x="126" y="195.479" width="6" height="4.52085" stroke="black" stroke-width="1" fill="blue" opacity="1" tooltip="enable"><title>(0.0439287,71)</title></rect><rect x="132" y="195.479" width="6" height="4.52085" stroke="black" stroke-width="1" fill="blue" opacity="1" tooltip="enable"><title>(0.0460206,71)</title></rect><rect x="138" y="197.135" width="6" height="2.86533" stroke="black" stroke-width="1" fill="blue" opacity="1" tooltip="enable"><title>(0.0481124,45)</title></rect><rect x="144" y="197.071" width="6" height="2.929" stroke="black" stroke-width="1" fill="blue" opacity="1" tooltip="enable"><title>(0.0502043,46)</title></rect><rect x="150" y="196.562" width="6" height="3.4384" stroke="black" stroke-width="1" fill="blue" opacity="1" tooltip="enable"><title>(0.0522961,54)</title></rect><rect x="156" y="197.198" width="6" height="2.80166" stroke="black" stroke-width="1" fill="blue" opacity="1" tooltip="enable"><title>(0.054388,44)</title></rect><rect x="162" y="196.307" width="6" height="3.69309" stroke="black" stroke-width="1" fill="blue" opacity="1" tooltip="enable"><title>(0.0564798,58)</title></rect><rect x="168" y="198.217" width="6" height="1.78287" stroke="black" stroke-width="1" fill="blue" opacity="1" tooltip="enable"><title>(0.0585717,28)</title></rect><rect x="174" y="196.816" width="6" height="3.1837" stroke="black" stroke-width="1" fill="blue" opacity="1" tooltip="enable"><title>(0.0606635,50)</title></rect><rect x="180" y="196.307" width="6" height="3.69309" stroke="black" stroke-width="1" fill="blue" opacity="1" tooltip="enable"><title>(0.0627554,58)</title></rect><rect x="186" y="197.071" width="6" height="2.929" stroke="black" stroke-width="1" fill="blue" opacity="1" tooltip="enable"><title>(0.0648472,46)</title></rect><rect x="192" y="197.835" width="6" height="2.16492" stroke="black" stroke-width="1" fill="blue" opacity="1" tooltip="enable"><title>(0.066939,34)</title></rect><rect x="198" y="197.835" width="6" height="2.16492" stroke="black" stroke-width="1" fill="blue" opacity="1" tooltip="enable"><title>(0.0690309,34)</title></rect><rect x="204" y="198.727" width="6" height="1.27348" stroke="black" stroke-width="1" fill="blue" opacity="1" tooltip="enable"><title>(0.0711227,20)</title></rect><rect x="210" y="199.236" width="6" height="0.764088" stroke="black" stroke-width="1" fill="blue" opacity="1" tooltip="enable"><title>(0.0732146,12)</title></rect><rect x="216" y="199.109" width="6" height="0.891436" stroke="black" stroke-width="1" fill="blue" opacity="1" tooltip="enable"><title>(0.0753064,14)</title></rect><rect x="222" y="199.618" width="6" height="0.382044" stroke="black" stroke-width="1" fill="blue" opacity="1" tooltip="enable"><title>(0.0773983,6)</title></rect><rect x="228" y="199.618" width="6" height="0.382044" stroke="black" stroke-width="1" fill="blue" opacity="1" tooltip="enable"><title>(0.0794901,6)</title></rect><rect x="234" y="199.873" width="6" height="0.127348" stroke="black" stroke-width="1" fill="blue" opacity="1" tooltip="enable"><title>(0.081582,2)</title></rect><rect x="240" y="200" width="6" height="0" stroke="black" stroke-width="1" fill="blue" opacity="1" tooltip="enable"><title>(0.0836738,0)</title></rect><rect x="246" y="200" width="6" height="0" stroke="black" stroke-width="1" fill="blue" opacity="1" tooltip="enable"><title>(0.0857657,0)</title></rect><rect x="252" y="200" width="6" height="0" stroke="black" stroke-width="1" fill="blue" opacity="1" tooltip="enable"><title>(0.0878575,0)</title></rect><rect x="258" y="200" width="6" height="0" stroke="black" stroke-width="1" fill="blue" opacity="1" tooltip="enable"><title>(0.0899493,0)</title></rect><rect x="264" y="200" width="6" height="0" stroke="black" stroke-width="1" fill="blue" opacity="1" tooltip="enable"><title>(0.0920412,0)</title></rect><rect x="270" y="200" width="6" height="0" stroke="black" stroke-width="1" fill="blue" opacity="1" tooltip="enable"><title>(0.094133,0)</title></rect><rect x="276" y="200" width="6" height="0" stroke="black" stroke-width="1" fill="blue" opacity="1" tooltip="enable"><title>(0.0962249,0)</title></rect><rect x="282" y="200" width="6" height="0" stroke="black" stroke-width="1" fill="blue" opacity="1" tooltip="enable"><title>(0.0983167,0)</title></rect><rect x="288" y="200" width="6" height="0" stroke="black" stroke-width="1" fill="blue" opacity="1" tooltip="enable"><title>(0.100409,0)</title></rect><rect x="294" y="200" width="6" height="0" stroke="black" stroke-width="1" fill="blue" opacity="1" tooltip="enable"><title>(0.1025,0)</title></rect><rect x="300" y="200" width="6" height="0" stroke="black" stroke-width="1" fill="blue" opacity="1" tooltip="enable"><title>(0.104592,0)</title></rect><rect x="306" y="200" width="6" height="0" stroke="black" stroke-width="1" fill="blue" opacity="1" tooltip="enable"><title>(0.106684,0)</title></rect><rect x="312" y="200" width="6" height="0" stroke="black" stroke-width="1" fill="blue" opacity="1" tooltip="enable"><title>(0.108776,0)</title></rect><rect x="318" y="200" width="6" height="0" stroke="black" stroke-width="1" fill="blue" opacity="1" tooltip="enable"><title>(0.110868,0)</title></rect><rect x="324" y="200" width="6" height="0" stroke="black" stroke-width="1" fill="blue" opacity="1" tooltip="enable"><title>(0.11296,0)</title></rect><rect x="330" y="200" width="6" height="0" stroke="black" stroke-width="1" fill="blue" opacity="1" tooltip="enable"><title>(0.115051,0)</title></rect><rect x="336" y="200" width="6" height="0" stroke="black" stroke-width="1" fill="blue" opacity="1" tooltip="enable"><title>(0.117143,0)</title></rect><rect x="342" y="200" width="6" height="0" stroke="black" stroke-width="1" fill="blue" opacity="1" tooltip="enable"><title>(0.119235,0)</title></rect><rect x="348" y="200" width="6" height="0" stroke="black" stroke-width="1" fill="blue" opacity="1" tooltip="enable"><title>(0.121327,0)</title></rect><rect x="354" y="200" width="6" height="0" stroke="black" stroke-width="1" fill="blue" opacity="1" tooltip="enable"><title>(0.123419,0)</title></rect><rect x="360" y="200" width="6" height="0" stroke="black" stroke-width="1" fill="blue" opacity="1" tooltip="enable"><title>(0.125511,0)</title></rect><rect x="366" y="200" width="6" height="0" stroke="black" stroke-width="1" fill="blue" opacity="1" tooltip="enable"><title>(0.127603,0)</title></rect><rect x="372" y="200" width="6" height="0" stroke="black" stroke-width="1" fill="blue" opacity="1" tooltip="enable"><title>(0.129694,0)</title></rect><rect x="378" y="200" width="6" height="0" stroke="black" stroke-width="1" fill="blue" opacity="1" tooltip="enable"><title>(0.131786,0)</title></rect><rect x="384" y="200" width="6" height="0" stroke="black" stroke-width="1" fill="blue" opacity="1" tooltip="enable"><title>(0.133878,0)</title></rect><rect x="390" y="200" width="6" height="0" stroke="black" stroke-width="1" fill="blue" opacity="1" tooltip="enable"><title>(0.13597,0)</title></rect><rect x="396" y="200" width="6" height="0" stroke="black" stroke-width="1" fill="blue" opacity="1" tooltip="enable"><title>(0.138062,0)</title></rect><rect x="402" y="200" width="6" height="0" stroke="black" stroke-width="1" fill="blue" opacity="1" tooltip="enable"><title>(0.140154,0)</title></rect><rect x="408" y="200" width="6" height="0" stroke="black" stroke-width="1" fill="blue" opacity="1" tooltip="enable"><title>(0.142245,0)</title></rect><rect x="414" y="200" width="6" height="0" stroke="black" stroke-width="1" fill="blue" opacity="1" tooltip="enable"><title>(0.144337,0)</title></rect><rect x="420" y="200" width="6" height="0" stroke="black" stroke-width="1" fill="blue" opacity="1" tooltip="enable"><title>(0.146429,0)</title></rect><rect x="426" y="200" width="6" height="0" stroke="black" stroke-width="1" fill="blue" opacity="1" tooltip="enable"><title>(0.148521,0)</title></rect><rect x="432" y="200" width="6" height="0" stroke="black" stroke-width="1" fill="blue" opacity="1" tooltip="enable"><title>(0.150613,0)</title></rect><rect x="438" y="200" width="6" height="0" stroke="black" stroke-width="1" fill="blue" opacity="1" tooltip="enable"><title>(0.152705,0)</title></rect><rect x="444" y="200" width="6" height="0" stroke="black" stroke-width="1" fill="blue" opacity="1" tooltip="enable"><title>(0.154797,0)</title></rect><rect x="450" y="200" width="6" height="0" stroke="black" stroke-width="1" fill="blue" opacity="1" tooltip="enable"><title>(0.156888,0)</title></rect><rect x="456" y="200" width="6" height="0" stroke="black" stroke-width="1" fill="blue" opacity="1" tooltip="enable"><title>(0.15898,0)</title></rect><rect x="462" y="200" width="6" height="0" stroke="black" stroke-width="1" fill="blue" opacity="1" tooltip="enable"><title>(0.161072,0)</title></rect><rect x="468" y="200" width="6" height="0" stroke="black" stroke-width="1" fill="blue" opacity="1" tooltip="enable"><title>(0.163164,0)</title></rect><rect x="474" y="200" width="6" height="0" stroke="black" stroke-width="1" fill="blue" opacity="1" tooltip="enable"><title>(0.165256,0)</title></rect><rect x="480" y="200" width="6" height="0" stroke="black" stroke-width="1" fill="blue" opacity="1" tooltip="enable"><title>(0.167348,0)</title></rect><rect x="486" y="200" width="6" height="0" stroke="black" stroke-width="1" fill="blue" opacity="1" tooltip="enable"><title>(0.169439,0)</title></rect><rect x="492" y="200" width="6" height="0" stroke="black" stroke-width="1" fill="blue" opacity="1" tooltip="enable"><title>(0.171531,0)</title></rect><rect x="498" y="200" width="6" height="0" stroke="black" stroke-width="1" fill="blue" opacity="1" tooltip="enable"><title>(0.173623,0)</title></rect><rect x="504" y="200" width="6" height="0" stroke="black" stroke-width="1" fill="blue" opacity="1" tooltip="enable"><title>(0.175715,0)</title></rect><rect x="510" y="200" width="6" height="0" stroke="black" stroke-width="1" fill="blue" opacity="1" tooltip="enable"><title>(0.177807,0)</title></rect><rect x="516" y="200" width="6" height="0" stroke="black" stroke-width="1" fill="blue" opacity="1" tooltip="enable"><title>(0.179899,0)</title></rect><rect x="522" y="200" width="6" height="0" stroke="black" stroke-width="1" fill="blue" opacity="1" tooltip="enable"><title>(0.181991,0)</title></rect><rect x="528" y="200" width="6" height="0" stroke="black" stroke-width="1" fill="blue" opacity="1" tooltip="enable"><title>(0.184082,0)</title></rect><rect x="534" y="200" width="6" height="0" stroke="black" stroke-width="1" fill="blue" opacity="1" tooltip="enable"><title>(0.186174,0)</title></rect><rect x="540" y="200" width="6" height="0" stroke="black" stroke-width="1" fill="blue" opacity="1" tooltip="enable"><title>(0.188266,0)</title></rect><rect x="546" y="200" width="6" height="0" stroke="black" stroke-width="1" fill="blue" opacity="1" tooltip="enable"><title>(0.190358,0)</title></rect><rect x="552" y="200" width="6" height="0" stroke="black" stroke-width="1" fill="blue" opacity="1" tooltip="enable"><title>(0.19245,0)</title></rect><rect x="558" y="200" width="6" height="0" stroke="black" stroke-width="1" fill="blue" opacity="1" tooltip="enable"><title>(0.194542,0)</title></rect><rect x="564" y="200" width="6" height="0" stroke="black" stroke-width="1" fill="blue" opacity="1" tooltip="enable"><title>(0.196633,0)</title></rect><rect x="570" y="200" width="6" height="0" stroke="black" stroke-width="1" fill="blue" opacity="1" tooltip="enable"><title>(0.198725,0)</title></rect><rect x="576" y="200" width="6" height="0" stroke="black" stroke-width="1" fill="blue" opacity="1" tooltip="enable"><title>(0.200817,0)</title></rect><rect x="582" y="200" width="6" height="0" stroke="black" stroke-width="1" fill="blue" opacity="1" tooltip="enable"><title>(0.202909,0)</title></rect><rect x="588" y="200" width="6" height="0" stroke="black" stroke-width="1" fill="blue" opacity="1" tooltip="enable"><title>(0.205001,0)</title></rect><rect x="594" y="199.936" width="6" height="0.063674" stroke="black" stroke-width="1" fill="blue" opacity="1" tooltip="enable"><title>(0.207093,1)</title></rect><text x="30" y="240" font-size="20" fill="black">0</text>
<text x="600" y="240" font-size="20" fill="black">0.209185</text>
<polyline points="0,220,600,220" stroke="black" stroke-width="1" fill="none" opacity="1"/>
<text x="720" y="20" font-size="20" fill="black">3141</text>
<text x="720" y="200" font-size="20" fill="black">0</text>
<polyline points="660,0,660,200" stroke="black" stroke-width="1" fill="none" opacity="1"/>
</svg>