<?xml version="1.0" standalone="yes"?>
<!-- SVG graphic -->
<svg xmlns='http://www.w3.org/2000/svg' xmlns:xlink='http://www.w3.org/1999/xlink'
 version="1.1">
<rect x="0" y="0" width="6" height="200" stroke="black" stroke-width="1" fill="blue" opacity="1" tooltip="enable"><title>(0,1058)</title></rect><rect x="6" y="8.50661" width="6" height="191.493" stroke="black" stroke-width="1" fill="blue" opacity="1" tooltip="enable"><title>(0.00119531,1013)</title></rect><rect x="12" y="46.6919" width="6" height="153.308" stroke="black" stroke-width="1" fill="blue" opacity="1" tooltip="enable"><title>(0.00239063,811)</title></rect><rect x="18" y="79.206" width="6" height="120.794" stroke="black" stroke-width="1" fill="blue" opacity="1" tooltip="enable"><title>(0.00358594,639)</title></rect><rect x="24" y="89.9811" width="6" height="110.019" stroke="black" stroke-width="1" fill="blue" opacity="1" tooltip="enable"><title>(0.00478125,582)</title></rect><rect x="30" y="112.287" width="6" height="87.7127" stroke="black" stroke-width="1" fill="blue" opacity="1" tooltip="enable"><title>(0.00597657,464)</title></rect><rect x="36" y="131.191" width="6" height="68.8091" stroke="black" stroke-width="1" fill="blue" opacity="1" tooltip="enable"><title>(0.00717188,364)</title></rect><rect x="42" y="141.588" width="6" height="58.4121" stroke="black" stroke-width="1" fill="blue" opacity="1" tooltip="enable"><title>(0.00836719,309)</title></rect><rect x="48" y="144.234" width="6" height="55.7656" stroke="black" stroke-width="1" fill="blue" opacity="1" tooltip="enable"><title>(0.0095625,295)</title></rect><rect x="54" y="162.949" width="6" height="37.051" stroke="black" stroke-width="1" fill="blue" opacity="1" tooltip="enable"><title>(0.0107578,196)</title></rect><rect x="60" y="168.242" width="6" height="31.758" stroke="black" stroke-width="1" fill="blue" opacity="1" tooltip="enable"><title>(0.0119531,168)</title></rect><rect x="66" y="178.261" width="6" height="21.7391" stroke="black" stroke-width="1" fill="blue" opacity="1" tooltip="enable"><title>(0.0131484,115)</title></rect><rect x="72" y="170.699" width="6" height="29.3006" stroke="black" stroke-width="1" fill="blue" opacity="1" tooltip="enable"><title>(0.0143438,155)</title></rect><rect x="78" y="173.535" width="6" height="26.465" stroke="black" stroke-width="1" fill="blue" opacity="1" tooltip="enable"><title>(0.0155391,140)</title></rect><rect x="84" y="175.425" width="6" height="24.5747" stroke="black" stroke-width="1" fill="blue" opacity="1" tooltip="enable"><title>(0.0167344,130)</title></rect><rect x="90" y="181.285" width="6" height="18.7146" stroke="black" stroke-width="1" fill="blue" opacity="1" tooltip="enable"><title>(0.0179297,99)</title></rect><rect x="96" y="182.987" width="6" height="17.0132" stroke="black" stroke-width="1" fill="blue" opacity="1" tooltip="enable"><title>(0.019125,90)</title></rect><rect x="102" y="182.231" width="6" height="17.7694" stroke="black" stroke-width="1" fill="blue" opacity="1" tooltip="enable"><title>(0.0203203,94)</title></rect><rect x="108" y="183.176" width="6" height="16.8242" stroke="black" stroke-width="1" fill="blue" opacity="1" tooltip="enable"><title>(0.0215156,89)</title></rect><rect x="114" y="179.017" width="6" height="20.983" stroke="black" stroke-width="1" fill="blue" opacity="1" tooltip="enable"><title>(0.0227109,111)</title></rect><rect x="120" y="186.389" width="6" height="13.6106" stroke="black" stroke-width="1" fill="blue" opacity="1" tooltip="enable"><title>(0.0239063,72)</title></rect><rect x="126" y="186.389" width="6" height="13.6106" stroke="black" stroke-width="1" fill="blue" opacity="1" tooltip="enable"><title>(0.0251016,72)</title></rect><rect x="132" y="184.877" width="6" height="15.1229" stroke="black" stroke-width="1" fill="blue" opacity="1" tooltip="enable"><title>(0.0262969,80)</title></rect><rect x="138" y="190.737" width="6" height="9.26276" stroke="black" stroke-width="1" fill="blue" opacity="1" tooltip="enable"><title>(0.0274922,49)</title></rect><rect x="144" y="184.688" width="6" height="15.3119" stroke="black" stroke-width="1" fill="blue" opacity="1" tooltip="enable"><title>(0.0286875,81)</title></rect><rect x="150" y="186.957" width="6" height="13.0435" stroke="black" stroke-width="1" fill="blue" opacity="1" tooltip="enable"><title>(0.0298828,69)</title></rect><rect x="156" y="191.115" width="6" height="8.88469" stroke="black" stroke-width="1" fill="blue" opacity="1" tooltip="enable"><title>(0.0310781,47)</title></rect><rect x="162" y="189.036" width="6" height="10.9641" stroke="black" stroke-width="1" fill="blue" opacity="1" tooltip="enable"><title>(0.0322735,58)</title></rect><rect x="168" y="190.548" width="6" height="9.4518" stroke="black" stroke-width="1" fill="blue" opacity="1" tooltip="enable"><title>(0.0334688,50)</title></rect><rect x="174" y="191.871" width="6" height="8.12854" stroke="black" stroke-width="1" fill="blue" opacity="1" tooltip="enable"><title>(0.0346641,43)</title></rect><rect x="180" y="195.841" width="6" height="4.15879" stroke="black" stroke-width="1" fill="blue" opacity="1" tooltip="enable"><title>(0.0358594,22)</title></rect><rect x="186" y="192.06" width="6" height="7.93951" stroke="black" stroke-width="1" fill="blue" opacity="1" tooltip="enable"><title>(0.0370547,42)</title></rect><rect x="192" y="195.274" width="6" height="4.7259" stroke="black" stroke-width="1" fill="blue" opacity="1" tooltip="enable"><title>(0.03825,25)</title></rect><rect x="198" y="192.817" width="6" height="7.18336" stroke="black" stroke-width="1" fill="blue" opacity="1" tooltip="enable"><title>(0.0394453,38)</title></rect><rect x="204" y="193.951" width="6" height="6.04915" stroke="black" stroke-width="1" fill="blue" opacity="1" tooltip="enable"><title>(0.0406406,32)</title></rect><rect x="210" y="195.085" width="6" height="4.91493" stroke="black" stroke-width="1" fill="blue" opacity="1" tooltip="enable"><title>(0.041836,26)</title></rect><rect x="216" y="194.518" width="6" height="5.48204" stroke="black" stroke-width="1" fill="blue" opacity="1" tooltip="enable"><title>(0.0430313,29)</title></rect><rect x="222" y="196.786" width="6" height="3.21361" stroke="black" stroke-width="1" fill="blue" opacity="1" tooltip="enable"><title>(0.0442266,17)</title></rect><rect x="228" y="196.597" width="6" height="3.40265" stroke="black" stroke-width="1" fill="blue" opacity="1" tooltip="enable"><title>(0.0454219,18)</title></rect><rect x="234" y="195.652" width="6" height="4.34783" stroke="black" stroke-width="1" fill="blue" opacity="1" tooltip="enable"><title>(0.0466172,23)</title></rect><rect x="240" y="196.786" width="6" height="3.21361" stroke="black" stroke-width="1" fill="blue" opacity="1" tooltip="enable"><title>(0.0478125,17)</title></rect><rect x="246" y="195.463" width="6" height="4.53686" stroke="black" stroke-width="1" fill="blue" opacity="1" tooltip="enable"><title>(0.0490078,24)</title></rect><rect x="252" y="197.543" width="6" height="2.45747" stroke="black" stroke-width="1" fill="blue" opacity="1" tooltip="enable"><title>(0.0502031,13)</title></rect><rect x="258" y="199.244" width="6" height="0.756144" stroke="black" stroke-width="1" fill="blue" opacity="1" tooltip="enable"><title>(0.0513985,4)</title></rect><rect x="264" y="199.433" width="6" height="0.567108" stroke="black" stroke-width="1" fill="blue" opacity="1" tooltip="enable"><title>(0.0525938,3)</title></rect><rect x="270" y="198.866" width="6" height="1.13422" stroke="black" stroke-width="1" fill="blue" opacity="1" tooltip="enable"><title>(0.0537891,6)</title></rect><rect x="276" y="199.244" width="6" height="0.756144" stroke="black" stroke-width="1" fill="blue" opacity="1" tooltip="enable"><title>(0.0549844,4)</title></rect><rect x="282" y="197.732" width="6" height="2.26843" stroke="black" stroke-width="1" fill="blue" opacity="1" tooltip="enable"><title>(0.0561797,12)</title></rect><rect x="288" y="200" width="6" height="0" stroke="black" stroke-width="1" fill="blue" opacity="1" tooltip="enable"><title>(0.057375,0)</title></rect><rect x="294" y="199.622" width="6" height="0.378072" stroke="black" stroke-width="1" fill="blue" opacity="1" tooltip="enable"><title>(0.0585703,2)</title></rect><rect x="300" y="198.866" width="6" height="1.13422" stroke="black" stroke-width="1" fill="blue" opacity="1" tooltip="enable"><title>(0.0597657,6)</title></rect><rect x="306" y="198.866" width="6" height="1.13422" stroke="black" stroke-width="1" fill="blue" opacity="1" tooltip="enable"><title>(0.060961,6)</title></rect><rect x="312" y="198.866" width="6" height="1.13422" stroke="black" stroke-width="1" fill="blue" opacity="1" tooltip="enable"><title>(0.0621563,6)</title></rect><rect x="318" y="199.622" width="6" height="0.378072" stroke="black" stroke-width="1" fill="blue" opacity="1" tooltip="enable"><title>(0.0633516,2)</title></rect><rect x="324" y="199.244" width="6" height="0.756144" stroke="black" stroke-width="1" fill="blue" opacity="1" tooltip="enable"><title>(0.0645469,4)</title></rect><rect x="330" y="199.622" width="6" height="0.378072" stroke="black" stroke-width="1" fill="blue" opacity="1" tooltip="enable"><title>(0.0657422,2)</title></rect><rect x="336" y="200" width="6" height="0" stroke="black" stroke-width="1" fill="blue" opacity="1" tooltip="enable"><title>(0.0669375,0)</title></rect><rect x="342" y="200" width="6" height="0" stroke="black" stroke-width="1" fill="blue" opacity="1" tooltip="enable"><title>(0.0681328,0)</title></rect><rect x="348" y="199.622" width="6" height="0.378072" stroke="black" stroke-width="1" fill="blue" opacity="1" tooltip="enable"><title>(0.0693282,2)</title></rect><rect x="354" y="199.811" width="6" height="0.189036" stroke="black" stroke-width="1" fill="blue" opacity="1" tooltip="enable"><title>(0.0705235,1)</title></rect><rect x="360" y="199.433" width="6" height="0.567108" stroke="black" stroke-width="1" fill="blue" opacity="1" tooltip="enable"><title>(0.0717188,3)</title></rect><rect x="366" y="199.622" width="6" height="0.378072" stroke="black" stroke-width="1" fill="blue" opacity="1" tooltip="enable"><title>(0.0729141,2)</title></rect><rect x="372" y="200" width="6" height="0" stroke="black" stroke-width="1" fill="blue" opacity="1" tooltip="enable"><title>(0.0741094,0)</title></rect><rect x="378" y="200" width="6" height="0" stroke="black" stroke-width="1" fill="blue" opacity="1" tooltip="enable"><title>(0.0753047,0)</title></rect><rect x="384" y="199.622" width="6" height="0.378072" stroke="black" stroke-width="1" fill="blue" opacity="1" tooltip="enable"><title>(0.0765,2)</title></rect><rect x="390" y="198.866" width="6" height="1.13422" stroke="black" stroke-width="1" fill="blue" opacity="1" tooltip="enable"><title>(0.0776953,6)</title></rect><rect x="396" y="199.244" width="6" height="0.756144" stroke="black" stroke-width="1" fill="blue" opacity="1" tooltip="enable"><title>(0.0788907,4)</title></rect><rect x="402" y="199.244" width="6" height="0.756144" stroke="black" stroke-width="1" fill="blue" opacity="1" tooltip="enable"><title>(0.080086,4)</title></rect><rect x="408" y="198.11" width="6" height="1.89036" stroke="black" stroke-width="1" fill="blue" opacity="1" tooltip="enable"><title>(0.0812813,10)</title></rect><rect x="414" y="199.622" width="6" height="0.378072" stroke="black" stroke-width="1" fill="blue" opacity="1" tooltip="enable"><title>(0.0824766,2)</title></rect><rect x="420" y="199.244" width="6" height="0.756144" stroke="black" stroke-width="1" fill="blue" opacity="1" tooltip="enable"><title>(0.0836719,4)</title></rect><rect x="426" y="200" width="6" height="0" stroke="black" stroke-width="1" fill="blue" opacity="1" tooltip="enable"><title>(0.0848672,0)</title></rect><rect x="432" y="200" width="6" height="0" stroke="black" stroke-width="1" fill="blue" opacity="1" tooltip="enable"><title>(0.0860625,0)</title></rect><rect x="438" y="199.622" width="6" height="0.378072" stroke="black" stroke-width="1" fill="blue" opacity="1" tooltip="enable"><title>(0.0872579,2)</title></rect><rect x="444" y="200" width="6" height="0" stroke="black" stroke-width="1" fill="blue" opacity="1" tooltip="enable"><title>(0.0884532,0)</title></rect><rect x="450" y="200" width="6" height="0" stroke="black" stroke-width="1" fill="blue" opacity="1" tooltip="enable"><title>(0.0896485,0)</title></rect><rect x="456" y="200" width="6" height="0" stroke="black" stroke-width="1" fill="blue" opacity="1" tooltip="enable"><title>(0.0908438,0)</title></rect><rect x="462" y="199.622" width="6" height="0.378072" stroke="black" stroke-width="1" fill="blue" opacity="1" tooltip="enable"><title>(0.0920391,2)</title></rect><rect x="468" y="199.244" width="6" height="0.756144" stroke="black" stroke-width="1" fill="blue" opacity="1" tooltip="enable"><title>(0.0932344,4)</title></rect><rect x="474" y="199.622" width="6" height="0.378072" stroke="black" stroke-width="1" fill="blue" opacity="1" tooltip="enable"><title>(0.0944297,2)</title></rect><rect x="480" y="200" width="6" height="0" stroke="black" stroke-width="1" fill="blue" opacity="1" tooltip="enable"><title>(0.095625,0)</title></rect><rect x="486" y="200" width="6" height="0" stroke="black" stroke-width="1" fill="blue" opacity="1" tooltip="enable"><title>(0.0968204,0)</title></rect><rect x="492" y="199.622" width="6" height="0.378072" stroke="black" stroke-width="1" fill="blue" opacity="1" tooltip="enable"><title>(0.0980157,2)</title></rect><rect x="498" y="200" width="6" height="0" stroke="black" stroke-width="1" fill="blue" opacity="1" tooltip="enable"><title>(0.099211,0)</title></rect><rect x="504" y="199.622" width="6" height="0.378072" stroke="black" stroke-width="1" fill="blue" opacity="1" tooltip="enable"><title>(0.100406,2)</title></rect><rect x="510" y="199.622" width="6" height="0.378072" stroke="black" stroke-width="1" fill="blue" opacity="1" tooltip="enable"><title>(0.101602,2)</title></rect><rect x="516" y="200" width="6" height="0" stroke="black" stroke-width="1" fill="blue" opacity="1" tooltip="enable"><title>(0.102797,0)</title></rect><rect x="522" y="199.622" width="6" height="0.378072" stroke="black" stroke-width="1" fill="blue" opacity="1" tooltip="enable"><title>(0.103992,2)</title></rect><rect x="528" y="200" width="6" height="0" stroke="black" stroke-width="1" fill="blue" opacity="1" tooltip="enable"><title>(0.105188,0)</title></rect><rect x="534" y="199.622" width="6" height="0.378072" stroke="black" stroke-width="1" fill="blue" opacity="1" tooltip="enable"><title>(0.106383,2)</title></rect><rect x="540" y="199.622" width="6" height="0.378072" stroke="black" stroke-width="1" fill="blue" opacity="1" tooltip="enable"><title>(0.107578,2)</title></rect><rect x="546" y="199.622" width="6" height="0.378072" stroke="black" stroke-width="1" fill="blue" opacity="1" tooltip="enable"><title>(0.108773,2)</title></rect><rect x="552" y="199.622" width="6" height="0.378072" stroke="black" stroke-width="1" fill="blue" opacity="1" tooltip="enable"><title>(0.109969,2)</title></rect><rect x="558" y="200" width="6" height="0" stroke="black" stroke-width="1" fill="blue" opacity="1" tooltip="enable"><title>(0.111164,0)</title></rect><rect x="564" y="199.622" width="6" height="0.378072" stroke="black" stroke-width="1" fill="blue" opacity="1" tooltip="enable"><title>(0.112359,2)</title></rect><rect x="570" y="200" width="6" height="0" stroke="black" stroke-width="1" fill="blue" opacity="1" tooltip="enable"><title>(0.113555,0)</title></rect><rect x="576" y="199.622" width="6" height="0.378072" stroke="black" stroke-width="1" fill="blue" opacity="1" tooltip="enable"><title>(0.11475,2)</title></rect><rect x="582" y="199.622" width="6" height="0.378072" stroke="black" stroke-width="1" fill="blue" opacity="1" tooltip="enable"><title>(0.115945,2)</title></rect><rect x="588" y="200" width="6" height="0" stroke="black" stroke-width="1" fill="blue" opacity="1" tooltip="enable"><title>(0.117141,0)</title></rect><rect x="594" y="199.811" width="6" height="0.189036" stroke="black" stroke-width="1" fill="blue" opacity="1" tooltip="enable"><title>(0.118336,1)</title></rect><text x="30" y="240" font-size="20" fill="black">0</text>
<text x="600" y="240" font-size="20" fill="black">0.119531</text>
<polyline points="0,220,600,220" stroke="black" stroke-width="1" fill="none" opacity="1"/>
<text x="720" y="20" font-size="20" fill="black">1058</text>
<text x="720" y="200" font-size="20" fill="black">0</text>
<polyline points="660,0,660,200" stroke="black" stroke-width="1" fill="none" opacity="1"/>
</svg>