<?xml version="1.0" standalone="yes"?>
<!-- SVG graphic -->
<svg xmlns='http://www.w3.org/2000/svg' xmlns:xlink='http://www.w3.org/1999/xlink'
 version="1.1">
<rect x="0" y="0" width="6" height="200" stroke="black" stroke-width="1" fill="blue" opacity="1" tooltip="enable"><title>(0,1308)</title></rect><rect x="6" y="118.654" width="6" height="81.3456" stroke="black" stroke-width="1" fill="blue" opacity="1" tooltip="enable"><title>(0.00153079,532)</title></rect><rect x="12" y="130.428" width="6" height="69.5719" stroke="black" stroke-width="1" fill="blue" opacity="1" tooltip="enable"><title>(0.00306158,455)</title></rect><rect x="18" y="134.862" width="6" height="65.1376" stroke="black" stroke-width="1" fill="blue" opacity="1" tooltip="enable"><title>(0.00459237,426)</title></rect><rect x="24" y="139.602" width="6" height="60.3976" stroke="black" stroke-width="1" fill="blue" opacity="1" tooltip="enable"><title>(0.00612316,395)</title></rect><rect x="30" y="149.694" width="6" height="50.3058" stroke="black" stroke-width="1" fill="blue" opacity="1" tooltip="enable"><title>(0.00765395,329)</title></rect><rect x="36" y="151.223" width="6" height="48.7768" stroke="black" stroke-width="1" fill="blue" opacity="1" tooltip="enable"><title>(0.00918473,319)</title></rect><rect x="42" y="160.55" width="6" height="39.4495" stroke="black" stroke-width="1" fill="blue" opacity="1" tooltip="enable"><title>(0.0107155,258)</title></rect><rect x="48" y="157.034" width="6" height="42.9664" stroke="black" stroke-width="1" fill="blue" opacity="1" tooltip="enable"><title>(0.0122463,281)</title></rect><rect x="54" y="162.538" width="6" height="37.4618" stroke="black" stroke-width="1" fill="blue" opacity="1" tooltip="enable"><title>(0.0137771,245)</title></rect><rect x="60" y="167.125" width="6" height="32.8746" stroke="black" stroke-width="1" fill="blue" opacity="1" tooltip="enable"><title>(0.0153079,215)</title></rect><rect x="66" y="170.795" width="6" height="29.2049" stroke="black" stroke-width="1" fill="blue" opacity="1" tooltip="enable"><title>(0.0168387,191)</title></rect><rect x="72" y="165.443" width="6" height="34.5566" stroke="black" stroke-width="1" fill="blue" opacity="1" tooltip="enable"><title>(0.0183695,226)</title></rect><rect x="78" y="171.407" width="6" height="28.5933" stroke="black" stroke-width="1" fill="blue" opacity="1" tooltip="enable"><title>(0.0199003,187)</title></rect><rect x="84" y="173.089" width="6" height="26.9113" stroke="black" stroke-width="1" fill="blue" opacity="1" tooltip="enable"><title>(0.021431,176)</title></rect><rect x="90" y="177.523" width="6" height="22.4771" stroke="black" stroke-width="1" fill="blue" opacity="1" tooltip="enable"><title>(0.0229618,147)</title></rect><rect x="96" y="177.676" width="6" height="22.3242" stroke="black" stroke-width="1" fill="blue" opacity="1" tooltip="enable"><title>(0.0244926,146)</title></rect><rect x="102" y="178.135" width="6" height="21.8654" stroke="black" stroke-width="1" fill="blue" opacity="1" tooltip="enable"><title>(0.0260234,143)</title></rect><rect x="108" y="184.251" width="6" height="15.7492" stroke="black" stroke-width="1" fill="blue" opacity="1" tooltip="enable"><title>(0.0275542,103)</title></rect><rect x="114" y="188.073" width="6" height="11.9266" stroke="black" stroke-width="1" fill="blue" opacity="1" tooltip="enable"><title>(0.029085,78)</title></rect><rect x="120" y="183.333" width="6" height="16.6667" stroke="black" stroke-width="1" fill="blue" opacity="1" tooltip="enable"><title>(0.0306158,109)</title></rect><rect x="126" y="181.498" width="6" height="18.5015" stroke="black" stroke-width="1" fill="blue" opacity="1" tooltip="enable"><title>(0.0321466,121)</title></rect><rect x="132" y="185.78" width="6" height="14.2202" stroke="black" stroke-width="1" fill="blue" opacity="1" tooltip="enable"><title>(0.0336774,93)</title></rect><rect x="138" y="186.239" width="6" height="13.7615" stroke="black" stroke-width="1" fill="blue" opacity="1" tooltip="enable"><title>(0.0352081,90)</title></rect><rect x="144" y="185.933" width="6" height="14.0673" stroke="black" stroke-width="1" fill="blue" opacity="1" tooltip="enable"><title>(0.0367389,92)</title></rect><rect x="150" y="191.132" width="6" height="8.8685" stroke="black" stroke-width="1" fill="blue" opacity="1" tooltip="enable"><title>(0.0382697,58)</title></rect><rect x="156" y="180.581" width="6" height="19.419" stroke="black" stroke-width="1" fill="blue" opacity="1" tooltip="enable"><title>(0.0398005,127)</title></rect><rect x="162" y="184.404" width="6" height="15.5963" stroke="black" stroke-width="1" fill="blue" opacity="1" tooltip="enable"><title>(0.0413313,102)</title></rect><rect x="168" y="190.979" width="6" height="9.02141" stroke="black" stroke-width="1" fill="blue" opacity="1" tooltip="enable"><title>(0.0428621,59)</title></rect><rect x="174" y="189.144" width="6" height="10.8563" stroke="black" stroke-width="1" fill="blue" opacity="1" tooltip="enable"><title>(0.0443929,71)</title></rect><rect x="180" y="191.437" width="6" height="8.56269" stroke="black" stroke-width="1" fill="blue" opacity="1" tooltip="enable"><title>(0.0459237,56)</title></rect><rect x="186" y="191.896" width="6" height="8.10398" stroke="black" stroke-width="1" fill="blue" opacity="1" tooltip="enable"><title>(0.0474545,53)</title></rect><rect x="192" y="193.578" width="6" height="6.42202" stroke="black" stroke-width="1" fill="blue" opacity="1" tooltip="enable"><title>(0.0489852,42)</title></rect><rect x="198" y="194.19" width="6" height="5.8104" stroke="black" stroke-width="1" fill="blue" opacity="1" tooltip="enable"><title>(0.050516,38)</title></rect><rect x="204" y="193.578" width="6" height="6.42202" stroke="black" stroke-width="1" fill="blue" opacity="1" tooltip="enable"><title>(0.0520468,42)</title></rect><rect x="210" y="192.661" width="6" height="7.33945" stroke="black" stroke-width="1" fill="blue" opacity="1" tooltip="enable"><title>(0.0535776,48)</title></rect><rect x="216" y="193.119" width="6" height="6.88073" stroke="black" stroke-width="1" fill="blue" opacity="1" tooltip="enable"><title>(0.0551084,45)</title></rect><rect x="222" y="192.661" width="6" height="7.33945" stroke="black" stroke-width="1" fill="blue" opacity="1" tooltip="enable"><title>(0.0566392,48)</title></rect><rect x="228" y="194.954" width="6" height="5.04587" stroke="black" stroke-width="1" fill="blue" opacity="1" tooltip="enable"><title>(0.05817,33)</title></rect><rect x="234" y="193.425" width="6" height="6.57492" stroke="black" stroke-width="1" fill="blue" opacity="1" tooltip="enable"><title>(0.0597008,43)</title></rect><rect x="240" y="192.661" width="6" height="7.33945" stroke="black" stroke-width="1" fill="blue" opacity="1" tooltip="enable"><title>(0.0612316,48)</title></rect><rect x="246" y="194.801" width="6" height="5.19878" stroke="black" stroke-width="1" fill="blue" opacity="1" tooltip="enable"><title>(0.0627623,34)</title></rect><rect x="252" y="193.425" width="6" height="6.57492" stroke="black" stroke-width="1" fill="blue" opacity="1" tooltip="enable"><title>(0.0642931,43)</title></rect><rect x="258" y="195.413" width="6" height="4.58716" stroke="black" stroke-width="1" fill="blue" opacity="1" tooltip="enable"><title>(0.0658239,30)</title></rect><rect x="264" y="197.706" width="6" height="2.29358" stroke="black" stroke-width="1" fill="blue" opacity="1" tooltip="enable"><title>(0.0673547,15)</title></rect><rect x="270" y="195.872" width="6" height="4.12844" stroke="black" stroke-width="1" fill="blue" opacity="1" tooltip="enable"><title>(0.0688855,27)</title></rect><rect x="276" y="197.248" width="6" height="2.75229" stroke="black" stroke-width="1" fill="blue" opacity="1" tooltip="enable"><title>(0.0704163,18)</title></rect><rect x="282" y="196.177" width="6" height="3.82263" stroke="black" stroke-width="1" fill="blue" opacity="1" tooltip="enable"><title>(0.0719471,25)</title></rect><rect x="288" y="197.401" width="6" height="2.59939" stroke="black" stroke-width="1" fill="blue" opacity="1" tooltip="enable"><title>(0.0734779,17)</title></rect><rect x="294" y="196.177" width="6" height="3.82263" stroke="black" stroke-width="1" fill="blue" opacity="1" tooltip="enable"><title>(0.0750087,25)</title></rect><rect x="300" y="198.165" width="6" height="1.83486" stroke="black" stroke-width="1" fill="blue" opacity="1" tooltip="enable"><title>(0.0765394,12)</title></rect><rect x="306" y="197.248" width="6" height="2.75229" stroke="black" stroke-width="1" fill="blue" opacity="1" tooltip="enable"><title>(0.0780702,18)</title></rect><rect x="312" y="197.706" width="6" height="2.29358" stroke="black" stroke-width="1" fill="blue" opacity="1" tooltip="enable"><title>(0.079601,15)</title></rect><rect x="318" y="197.554" width="6" height="2.44648" stroke="black" stroke-width="1" fill="blue" opacity="1" tooltip="enable"><title>(0.0811318,16)</title></rect><rect x="324" y="197.859" width="6" height="2.14067" stroke="black" stroke-width="1" fill="blue" opacity="1" tooltip="enable"><title>(0.0826626,14)</title></rect><rect x="330" y="198.165" width="6" height="1.83486" stroke="black" stroke-width="1" fill="blue" opacity="1" tooltip="enable"><title>(0.0841934,12)</title></rect><rect x="336" y="198.471" width="6" height="1.52905" stroke="black" stroke-width="1" fill="blue" opacity="1" tooltip="enable"><title>(0.0857242,10)</title></rect><rect x="342" y="199.235" width="6" height="0.764526" stroke="black" stroke-width="1" fill="blue" opacity="1" tooltip="enable"><title>(0.087255,5)</title></rect><rect x="348" y="198.318" width="6" height="1.68196" stroke="black" stroke-width="1" fill="blue" opacity="1" tooltip="enable"><title>(0.0887858,11)</title></rect><rect x="354" y="199.235" width="6" height="0.764526" stroke="black" stroke-width="1" fill="blue" opacity="1" tooltip="enable"><title>(0.0903165,5)</title></rect><rect x="360" y="199.388" width="6" height="0.611621" stroke="black" stroke-width="1" fill="blue" opacity="1" tooltip="enable"><title>(0.0918473,4)</title></rect><rect x="366" y="199.847" width="6" height="0.152905" stroke="black" stroke-width="1" fill="blue" opacity="1" tooltip="enable"><title>(0.0933781,1)</title></rect><rect x="372" y="198.471" width="6" height="1.52905" stroke="black" stroke-width="1" fill="blue" opacity="1" tooltip="enable"><title>(0.0949089,10)</title></rect><rect x="378" y="198.777" width="6" height="1.22324" stroke="black" stroke-width="1" fill="blue" opacity="1" tooltip="enable"><title>(0.0964397,8)</title></rect><rect x="384" y="199.083" width="6" height="0.917431" stroke="black" stroke-width="1" fill="blue" opacity="1" tooltip="enable"><title>(0.0979705,6)</title></rect><rect x="390" y="199.847" width="6" height="0.152905" stroke="black" stroke-width="1" fill="blue" opacity="1" tooltip="enable"><title>(0.0995013,1)</title></rect><rect x="396" y="200" width="6" height="0" stroke="black" stroke-width="1" fill="blue" opacity="1" tooltip="enable"><title>(0.101032,0)</title></rect><rect x="402" y="199.694" width="6" height="0.30581" stroke="black" stroke-width="1" fill="blue" opacity="1" tooltip="enable"><title>(0.102563,2)</title></rect><rect x="408" y="199.235" width="6" height="0.764526" stroke="black" stroke-width="1" fill="blue" opacity="1" tooltip="enable"><title>(0.104094,5)</title></rect><rect x="414" y="199.541" width="6" height="0.458716" stroke="black" stroke-width="1" fill="blue" opacity="1" tooltip="enable"><title>(0.105624,3)</title></rect><rect x="420" y="199.388" width="6" height="0.611621" stroke="black" stroke-width="1" fill="blue" opacity="1" tooltip="enable"><title>(0.107155,4)</title></rect><rect x="426" y="200" width="6" height="0" stroke="black" stroke-width="1" fill="blue" opacity="1" tooltip="enable"><title>(0.108686,0)</title></rect><rect x="432" y="200" width="6" height="0" stroke="black" stroke-width="1" fill="blue" opacity="1" tooltip="enable"><title>(0.110217,0)</title></rect><rect x="438" y="199.694" width="6" height="0.30581" stroke="black" stroke-width="1" fill="blue" opacity="1" tooltip="enable"><title>(0.111748,2)</title></rect><rect x="444" y="199.083" width="6" height="0.917431" stroke="black" stroke-width="1" fill="blue" opacity="1" tooltip="enable"><title>(0.113278,6)</title></rect><rect x="450" y="199.083" width="6" height="0.917431" stroke="black" stroke-width="1" fill="blue" opacity="1" tooltip="enable"><title>(0.114809,6)</title></rect><rect x="456" y="199.694" width="6" height="0.30581" stroke="black" stroke-width="1" fill="blue" opacity="1" tooltip="enable"><title>(0.11634,2)</title></rect><rect x="462" y="199.388" width="6" height="0.611621" stroke="black" stroke-width="1" fill="blue" opacity="1" tooltip="enable"><title>(0.117871,4)</title></rect><rect x="468" y="199.847" width="6" height="0.152905" stroke="black" stroke-width="1" fill="blue" opacity="1" tooltip="enable"><title>(0.119402,1)</title></rect><rect x="474" y="200" width="6" height="0" stroke="black" stroke-width="1" fill="blue" opacity="1" tooltip="enable"><title>(0.120932,0)</title></rect><rect x="480" y="200" width="6" height="0" stroke="black" stroke-width="1" fill="blue" opacity="1" tooltip="enable"><title>(0.122463,0)</title></rect><rect x="486" y="199.847" width="6" height="0.152905" stroke="black" stroke-width="1" fill="blue" opacity="1" tooltip="enable"><title>(0.123994,1)</title></rect><rect x="492" y="200" width="6" height="0" stroke="black" stroke-width="1" fill="blue" opacity="1" tooltip="enable"><title>(0.125525,0)</title></rect><rect x="498" y="200" width="6" height="0" stroke="black" stroke-width="1" fill="blue" opacity="1" tooltip="enable"><title>(0.127055,0)</title></rect><rect x="504" y="200" width="6" height="0" stroke="black" stroke-width="1" fill="blue" opacity="1" tooltip="enable"><title>(0.128586,0)</title></rect><rect x="510" y="200" width="6" height="0" stroke="black" stroke-width="1" fill="blue" opacity="1" tooltip="enable"><title>(0.130117,0)</title></rect><rect x="516" y="200" width="6" height="0" stroke="black" stroke-width="1" fill="blue" opacity="1" tooltip="enable"><title>(0.131648,0)</title></rect><rect x="522" y="200" width="6" height="0" stroke="black" stroke-width="1" fill="blue" opacity="1" tooltip="enable"><title>(0.133179,0)</title></rect><rect x="528" y="200" width="6" height="0" stroke="black" stroke-width="1" fill="blue" opacity="1" tooltip="enable"><title>(0.134709,0)</title></rect><rect x="534" y="200" width="6" height="0" stroke="black" stroke-width="1" fill="blue" opacity="1" tooltip="enable"><title>(0.13624,0)</title></rect><rect x="540" y="200" width="6" height="0" stroke="black" stroke-width="1" fill="blue" opacity="1" tooltip="enable"><title>(0.137771,0)</title></rect><rect x="546" y="200" width="6" height="0" stroke="black" stroke-width="1" fill="blue" opacity="1" tooltip="enable"><title>(0.139302,0)</title></rect><rect x="552" y="200" width="6" height="0" stroke="black" stroke-width="1" fill="blue" opacity="1" tooltip="enable"><title>(0.140833,0)</title></rect><rect x="558" y="200" width="6" height="0" stroke="black" stroke-width="1" fill="blue" opacity="1" tooltip="enable"><title>(0.142363,0)</title></rect><rect x="564" y="200" width="6" height="0" stroke="black" stroke-width="1" fill="blue" opacity="1" tooltip="enable"><title>(0.143894,0)</title></rect><rect x="570" y="199.847" width="6" height="0.152905" stroke="black" stroke-width="1" fill="blue" opacity="1" tooltip="enable"><title>(0.145425,1)</title></rect><rect x="576" y="199.847" width="6" height="0.152905" stroke="black" stroke-width="1" fill="blue" opacity="1" tooltip="enable"><title>(0.146956,1)</title></rect><rect x="582" y="200" width="6" height="0" stroke="black" stroke-width="1" fill="blue" opacity="1" tooltip="enable"><title>(0.148487,0)</title></rect><rect x="588" y="200" width="6" height="0" stroke="black" stroke-width="1" fill="blue" opacity="1" tooltip="enable"><title>(0.150017,0)</title></rect><rect x="594" y="199.847" width="6" height="0.152905" stroke="black" stroke-width="1" fill="blue" opacity="1" tooltip="enable"><title>(0.151548,1)</title></rect><text x="30" y="240" font-size="20" fill="black">0</text>
<text x="600" y="240" font-size="20" fill="black">0.153079</text>
<polyline points="0,220,600,220" stroke="black" stroke-width="1" fill="none" opacity="1"/>
<text x="720" y="20" font-size="20" fill="black">1308</text>
<text x="720" y="200" font-size="20" fill="black">0</text>
<polyline points="660,0,660,200" stroke="black" stroke-width="1" fill="none" opacity="1"/>
</svg>