<?xml version="1.0" standalone="yes"?>
<!-- SVG graphic -->
<svg xmlns='http://www.w3.org/2000/svg' xmlns:xlink='http://www.w3.org/1999/xlink'
 version="1.1">
<rect x="0" y="1.52588e-05" width="6" height="200" stroke="black" stroke-width="1" fill="blue" opacity="1" tooltip="enable"><title>(0,1283)</title></rect><rect x="6" y="14.8091" width="6" height="185.191" stroke="black" stroke-width="1" fill="blue" opacity="1" tooltip="enable"><title>(0.00143879,1188)</title></rect><rect x="12" y="37.1006" width="6" height="162.899" stroke="black" stroke-width="1" fill="blue" opacity="1" tooltip="enable"><title>(0.00287758,1045)</title></rect><rect x="18" y="94.3102" width="6" height="105.69" stroke="black" stroke-width="1" fill="blue" opacity="1" tooltip="enable"><title>(0.00431637,678)</title></rect><rect x="24" y="125.487" width="6" height="74.5129" stroke="black" stroke-width="1" fill="blue" opacity="1" tooltip="enable"><title>(0.00575517,478)</title></rect><rect x="30" y="148.558" width="6" height="51.4419" stroke="black" stroke-width="1" fill="blue" opacity="1" tooltip="enable"><title>(0.00719396,330)</title></rect><rect x="36" y="164.458" width="6" height="35.5417" stroke="black" stroke-width="1" fill="blue" opacity="1" tooltip="enable"><title>(0.00863275,228)</title></rect><rect x="42" y="168.511" width="6" height="31.4887" stroke="black" stroke-width="1" fill="blue" opacity="1" tooltip="enable"><title>(0.0100715,202)</title></rect><rect x="48" y="170.694" width="6" height="29.3063" stroke="black" stroke-width="1" fill="blue" opacity="1" tooltip="enable"><title>(0.0115103,188)</title></rect><rect x="54" y="171.941" width="6" height="28.0592" stroke="black" stroke-width="1" fill="blue" opacity="1" tooltip="enable"><title>(0.0129491,180)</title></rect><rect x="60" y="174.279" width="6" height="25.721" stroke="black" stroke-width="1" fill="blue" opacity="1" tooltip="enable"><title>(0.0143879,165)</title></rect><rect x="66" y="172.097" width="6" height="27.9034" stroke="black" stroke-width="1" fill="blue" opacity="1" tooltip="enable"><title>(0.0158267,179)</title></rect><rect x="72" y="176.773" width="6" height="23.2268" stroke="black" stroke-width="1" fill="blue" opacity="1" tooltip="enable"><title>(0.0172655,149)</title></rect><rect x="78" y="175.838" width="6" height="24.1621" stroke="black" stroke-width="1" fill="blue" opacity="1" tooltip="enable"><title>(0.0187043,155)</title></rect><rect x="84" y="177.085" width="6" height="22.915" stroke="black" stroke-width="1" fill="blue" opacity="1" tooltip="enable"><title>(0.0201431,147)</title></rect><rect x="90" y="182.073" width="6" height="17.9267" stroke="black" stroke-width="1" fill="blue" opacity="1" tooltip="enable"><title>(0.0215819,115)</title></rect><rect x="96" y="176.773" width="6" height="23.2268" stroke="black" stroke-width="1" fill="blue" opacity="1" tooltip="enable"><title>(0.0230207,149)</title></rect><rect x="102" y="181.138" width="6" height="18.862" stroke="black" stroke-width="1" fill="blue" opacity="1" tooltip="enable"><title>(0.0244595,121)</title></rect><rect x="108" y="185.97" width="6" height="14.0296" stroke="black" stroke-width="1" fill="blue" opacity="1" tooltip="enable"><title>(0.0258982,90)</title></rect><rect x="114" y="186.594" width="6" height="13.4061" stroke="black" stroke-width="1" fill="blue" opacity="1" tooltip="enable"><title>(0.027337,86)</title></rect><rect x="120" y="189.556" width="6" height="10.4443" stroke="black" stroke-width="1" fill="blue" opacity="1" tooltip="enable"><title>(0.0287758,67)</title></rect><rect x="126" y="186.906" width="6" height="13.0943" stroke="black" stroke-width="1" fill="blue" opacity="1" tooltip="enable"><title>(0.0302146,84)</title></rect><rect x="132" y="190.491" width="6" height="9.50896" stroke="black" stroke-width="1" fill="blue" opacity="1" tooltip="enable"><title>(0.0316534,61)</title></rect><rect x="138" y="190.803" width="6" height="9.19719" stroke="black" stroke-width="1" fill="blue" opacity="1" tooltip="enable"><title>(0.0330922,59)</title></rect><rect x="144" y="189.4" width="6" height="10.6002" stroke="black" stroke-width="1" fill="blue" opacity="1" tooltip="enable"><title>(0.034531,68)</title></rect><rect x="150" y="191.738" width="6" height="8.26189" stroke="black" stroke-width="1" fill="blue" opacity="1" tooltip="enable"><title>(0.0359698,53)</title></rect><rect x="156" y="193.297" width="6" height="6.70304" stroke="black" stroke-width="1" fill="blue" opacity="1" tooltip="enable"><title>(0.0374086,43)</title></rect><rect x="162" y="193.297" width="6" height="6.70304" stroke="black" stroke-width="1" fill="blue" opacity="1" tooltip="enable"><title>(0.0388474,43)</title></rect><rect x="168" y="195.168" width="6" height="4.83242" stroke="black" stroke-width="1" fill="blue" opacity="1" tooltip="enable"><title>(0.0402862,31)</title></rect><rect x="174" y="193.609" width="6" height="6.39127" stroke="black" stroke-width="1" fill="blue" opacity="1" tooltip="enable"><title>(0.041725,41)</title></rect><rect x="180" y="193.453" width="6" height="6.54715" stroke="black" stroke-width="1" fill="blue" opacity="1" tooltip="enable"><title>(0.0431638,42)</title></rect><rect x="186" y="193.297" width="6" height="6.70304" stroke="black" stroke-width="1" fill="blue" opacity="1" tooltip="enable"><title>(0.0446025,43)</title></rect><rect x="192" y="195.168" width="6" height="4.83242" stroke="black" stroke-width="1" fill="blue" opacity="1" tooltip="enable"><title>(0.0460413,31)</title></rect><rect x="198" y="196.726" width="6" height="3.27358" stroke="black" stroke-width="1" fill="blue" opacity="1" tooltip="enable"><title>(0.0474801,21)</title></rect><rect x="204" y="197.662" width="6" height="2.33827" stroke="black" stroke-width="1" fill="blue" opacity="1" tooltip="enable"><title>(0.0489189,15)</title></rect><rect x="210" y="198.753" width="6" height="1.24708" stroke="black" stroke-width="1" fill="blue" opacity="1" tooltip="enable"><title>(0.0503577,8)</title></rect><rect x="216" y="198.753" width="6" height="1.24708" stroke="black" stroke-width="1" fill="blue" opacity="1" tooltip="enable"><title>(0.0517965,8)</title></rect><rect x="222" y="199.376" width="6" height="0.623539" stroke="black" stroke-width="1" fill="blue" opacity="1" tooltip="enable"><title>(0.0532353,4)</title></rect><rect x="228" y="198.753" width="6" height="1.24708" stroke="black" stroke-width="1" fill="blue" opacity="1" tooltip="enable"><title>(0.0546741,8)</title></rect><rect x="234" y="199.065" width="6" height="0.935308" stroke="black" stroke-width="1" fill="blue" opacity="1" tooltip="enable"><title>(0.0561129,6)</title></rect><rect x="240" y="199.688" width="6" height="0.311769" stroke="black" stroke-width="1" fill="blue" opacity="1" tooltip="enable"><title>(0.0575517,2)</title></rect><rect x="246" y="199.376" width="6" height="0.623539" stroke="black" stroke-width="1" fill="blue" opacity="1" tooltip="enable"><title>(0.0589905,4)</title></rect><rect x="252" y="199.376" width="6" height="0.623539" stroke="black" stroke-width="1" fill="blue" opacity="1" tooltip="enable"><title>(0.0604292,4)</title></rect><rect x="258" y="199.065" width="6" height="0.935308" stroke="black" stroke-width="1" fill="blue" opacity="1" tooltip="enable"><title>(0.061868,6)</title></rect><rect x="264" y="199.688" width="6" height="0.311769" stroke="black" stroke-width="1" fill="blue" opacity="1" tooltip="enable"><title>(0.0633068,2)</title></rect><rect x="270" y="199.688" width="6" height="0.311769" stroke="black" stroke-width="1" fill="blue" opacity="1" tooltip="enable"><title>(0.0647456,2)</title></rect><rect x="276" y="200" width="6" height="0" stroke="black" stroke-width="1" fill="blue" opacity="1" tooltip="enable"><title>(0.0661844,0)</title></rect><rect x="282" y="198.129" width="6" height="1.87062" stroke="black" stroke-width="1" fill="blue" opacity="1" tooltip="enable"><title>(0.0676232,12)</title></rect><rect x="288" y="199.065" width="6" height="0.935308" stroke="black" stroke-width="1" fill="blue" opacity="1" tooltip="enable"><title>(0.069062,6)</title></rect><rect x="294" y="200" width="6" height="0" stroke="black" stroke-width="1" fill="blue" opacity="1" tooltip="enable"><title>(0.0705008,0)</title></rect><rect x="300" y="199.688" width="6" height="0.311769" stroke="black" stroke-width="1" fill="blue" opacity="1" tooltip="enable"><title>(0.0719396,2)</title></rect><rect x="306" y="199.221" width="6" height="0.779423" stroke="black" stroke-width="1" fill="blue" opacity="1" tooltip="enable"><title>(0.0733784,5)</title></rect><rect x="312" y="199.688" width="6" height="0.311769" stroke="black" stroke-width="1" fill="blue" opacity="1" tooltip="enable"><title>(0.0748172,2)</title></rect><rect x="318" y="198.909" width="6" height="1.09119" stroke="black" stroke-width="1" fill="blue" opacity="1" tooltip="enable"><title>(0.0762559,7)</title></rect><rect x="324" y="199.688" width="6" height="0.311769" stroke="black" stroke-width="1" fill="blue" opacity="1" tooltip="enable"><title>(0.0776948,2)</title></rect><rect x="330" y="200" width="6" height="0" stroke="black" stroke-width="1" fill="blue" opacity="1" tooltip="enable"><title>(0.0791335,0)</title></rect><rect x="336" y="199.688" width="6" height="0.311769" stroke="black" stroke-width="1" fill="blue" opacity="1" tooltip="enable"><title>(0.0805723,2)</title></rect><rect x="342" y="199.532" width="6" height="0.467654" stroke="black" stroke-width="1" fill="blue" opacity="1" tooltip="enable"><title>(0.0820111,3)</title></rect><rect x="348" y="199.688" width="6" height="0.311769" stroke="black" stroke-width="1" fill="blue" opacity="1" tooltip="enable"><title>(0.0834499,2)</title></rect><rect x="354" y="198.909" width="6" height="1.09119" stroke="black" stroke-width="1" fill="blue" opacity="1" tooltip="enable"><title>(0.0848887,7)</title></rect><rect x="360" y="199.844" width="6" height="0.155885" stroke="black" stroke-width="1" fill="blue" opacity="1" tooltip="enable"><title>(0.0863275,1)</title></rect><rect x="366" y="199.532" width="6" height="0.467654" stroke="black" stroke-width="1" fill="blue" opacity="1" tooltip="enable"><title>(0.0877663,3)</title></rect><rect x="372" y="200" width="6" height="0" stroke="black" stroke-width="1" fill="blue" opacity="1" tooltip="enable"><title>(0.0892051,0)</title></rect><rect x="378" y="199.688" width="6" height="0.311769" stroke="black" stroke-width="1" fill="blue" opacity="1" tooltip="enable"><title>(0.0906439,2)</title></rect><rect x="384" y="200" width="6" height="0" stroke="black" stroke-width="1" fill="blue" opacity="1" tooltip="enable"><title>(0.0920827,0)</title></rect><rect x="390" y="199.376" width="6" height="0.623539" stroke="black" stroke-width="1" fill="blue" opacity="1" tooltip="enable"><title>(0.0935215,4)</title></rect><rect x="396" y="200" width="6" height="0" stroke="black" stroke-width="1" fill="blue" opacity="1" tooltip="enable"><title>(0.0949602,0)</title></rect><rect x="402" y="199.688" width="6" height="0.311769" stroke="black" stroke-width="1" fill="blue" opacity="1" tooltip="enable"><title>(0.096399,2)</title></rect><rect x="408" y="199.376" width="6" height="0.623539" stroke="black" stroke-width="1" fill="blue" opacity="1" tooltip="enable"><title>(0.0978378,4)</title></rect><rect x="414" y="200" width="6" height="0" stroke="black" stroke-width="1" fill="blue" opacity="1" tooltip="enable"><title>(0.0992766,0)</title></rect><rect x="420" y="200" width="6" height="0" stroke="black" stroke-width="1" fill="blue" opacity="1" tooltip="enable"><title>(0.100715,0)</title></rect><rect x="426" y="200" width="6" height="0" stroke="black" stroke-width="1" fill="blue" opacity="1" tooltip="enable"><title>(0.102154,0)</title></rect><rect x="432" y="200" width="6" height="0" stroke="black" stroke-width="1" fill="blue" opacity="1" tooltip="enable"><title>(0.103593,0)</title></rect><rect x="438" y="200" width="6" height="0" stroke="black" stroke-width="1" fill="blue" opacity="1" tooltip="enable"><title>(0.105032,0)</title></rect><rect x="444" y="200" width="6" height="0" stroke="black" stroke-width="1" fill="blue" opacity="1" tooltip="enable"><title>(0.106471,0)</title></rect><rect x="450" y="200" width="6" height="0" stroke="black" stroke-width="1" fill="blue" opacity="1" tooltip="enable"><title>(0.107909,0)</title></rect><rect x="456" y="199.688" width="6" height="0.311769" stroke="black" stroke-width="1" fill="blue" opacity="1" tooltip="enable"><title>(0.109348,2)</title></rect><rect x="462" y="200" width="6" height="0" stroke="black" stroke-width="1" fill="blue" opacity="1" tooltip="enable"><title>(0.110787,0)</title></rect><rect x="468" y="200" width="6" height="0" stroke="black" stroke-width="1" fill="blue" opacity="1" tooltip="enable"><title>(0.112226,0)</title></rect><rect x="474" y="199.376" width="6" height="0.623539" stroke="black" stroke-width="1" fill="blue" opacity="1" tooltip="enable"><title>(0.113665,4)</title></rect><rect x="480" y="199.688" width="6" height="0.311769" stroke="black" stroke-width="1" fill="blue" opacity="1" tooltip="enable"><title>(0.115103,2)</title></rect><rect x="486" y="200" width="6" height="0" stroke="black" stroke-width="1" fill="blue" opacity="1" tooltip="enable"><title>(0.116542,0)</title></rect><rect x="492" y="199.688" width="6" height="0.311769" stroke="black" stroke-width="1" fill="blue" opacity="1" tooltip="enable"><title>(0.117981,2)</title></rect><rect x="498" y="200" width="6" height="0" stroke="black" stroke-width="1" fill="blue" opacity="1" tooltip="enable"><title>(0.11942,0)</title></rect><rect x="504" y="200" width="6" height="0" stroke="black" stroke-width="1" fill="blue" opacity="1" tooltip="enable"><title>(0.120858,0)</title></rect><rect x="510" y="200" width="6" height="0" stroke="black" stroke-width="1" fill="blue" opacity="1" tooltip="enable"><title>(0.122297,0)</title></rect><rect x="516" y="200" width="6" height="0" stroke="black" stroke-width="1" fill="blue" opacity="1" tooltip="enable"><title>(0.123736,0)</title></rect><rect x="522" y="199.844" width="6" height="0.155885" stroke="black" stroke-width="1" fill="blue" opacity="1" tooltip="enable"><title>(0.125175,1)</title></rect><rect x="528" y="199.221" width="6" height="0.779423" stroke="black" stroke-width="1" fill="blue" opacity="1" tooltip="enable"><title>(0.126614,5)</title></rect><rect x="534" y="200" width="6" height="0" stroke="black" stroke-width="1" fill="blue" opacity="1" tooltip="enable"><title>(0.128052,0)</title></rect><rect x="540" y="200" width="6" height="0" stroke="black" stroke-width="1" fill="blue" opacity="1" tooltip="enable"><title>(0.129491,0)</title></rect><rect x="546" y="200" width="6" height="0" stroke="black" stroke-width="1" fill="blue" opacity="1" tooltip="enable"><title>(0.13093,0)</title></rect><rect x="552" y="200" width="6" height="0" stroke="black" stroke-width="1" fill="blue" opacity="1" tooltip="enable"><title>(0.132369,0)</title></rect><rect x="558" y="200" width="6" height="0" stroke="black" stroke-width="1" fill="blue" opacity="1" tooltip="enable"><title>(0.133808,0)</title></rect><rect x="564" y="200" width="6" height="0" stroke="black" stroke-width="1" fill="blue" opacity="1" tooltip="enable"><title>(0.135246,0)</title></rect><rect x="570" y="199.688" width="6" height="0.311769" stroke="black" stroke-width="1" fill="blue" opacity="1" tooltip="enable"><title>(0.136685,2)</title></rect><rect x="576" y="199.688" width="6" height="0.311769" stroke="black" stroke-width="1" fill="blue" opacity="1" tooltip="enable"><title>(0.138124,2)</title></rect><rect x="582" y="200" width="6" height="0" stroke="black" stroke-width="1" fill="blue" opacity="1" tooltip="enable"><title>(0.139563,0)</title></rect><rect x="588" y="200" width="6" height="0" stroke="black" stroke-width="1" fill="blue" opacity="1" tooltip="enable"><title>(0.141002,0)</title></rect><rect x="594" y="199.844" width="6" height="0.155885" stroke="black" stroke-width="1" fill="blue" opacity="1" tooltip="enable"><title>(0.14244,1)</title></rect><text x="30" y="240" font-size="20" fill="black">0</text>
<text x="600" y="240" font-size="20" fill="black">0.143879</text>
<polyline points="0,220,600,220" stroke="black" stroke-width="1" fill="none" opacity="1"/>
<text x="720" y="20" font-size="20" fill="black">1283</text>
<text x="720" y="200" font-size="20" fill="black">0</text>
<polyline points="660,0,660,200" stroke="black" stroke-width="1" fill="none" opacity="1"/>
</svg>