<?xml version="1.0" standalone="yes"?>
<!-- SVG graphic -->
<svg xmlns='http://www.w3.org/2000/svg' xmlns:xlink='http://www.w3.org/1999/xlink'
 version="1.1">
<rect x="0" y="0" width="6" height="200" stroke="black" stroke-width="1" fill="blue" opacity="1" tooltip="enable"><title>(0,638)</title></rect><rect x="6" y="12.5392" width="6" height="187.461" stroke="black" stroke-width="1" fill="blue" opacity="1" tooltip="enable"><title>(0.000993382,598)</title></rect><rect x="12" y="27.8997" width="6" height="172.1" stroke="black" stroke-width="1" fill="blue" opacity="1" tooltip="enable"><title>(0.00198676,549)</title></rect><rect x="18" y="36.0502" width="6" height="163.95" stroke="black" stroke-width="1" fill="blue" opacity="1" tooltip="enable"><title>(0.00298015,523)</title></rect><rect x="24" y="41.3793" width="6" height="158.621" stroke="black" stroke-width="1" fill="blue" opacity="1" tooltip="enable"><title>(0.00397353,506)</title></rect><rect x="30" y="62.069" width="6" height="137.931" stroke="black" stroke-width="1" fill="blue" opacity="1" tooltip="enable"><title>(0.00496691,440)</title></rect><rect x="36" y="81.5047" width="6" height="118.495" stroke="black" stroke-width="1" fill="blue" opacity="1" tooltip="enable"><title>(0.00596029,378)</title></rect><rect x="42" y="64.8903" width="6" height="135.11" stroke="black" stroke-width="1" fill="blue" opacity="1" tooltip="enable"><title>(0.00695368,431)</title></rect><rect x="48" y="103.135" width="6" height="96.8652" stroke="black" stroke-width="1" fill="blue" opacity="1" tooltip="enable"><title>(0.00794706,309)</title></rect><rect x="54" y="123.511" width="6" height="76.489" stroke="black" stroke-width="1" fill="blue" opacity="1" tooltip="enable"><title>(0.00894044,244)</title></rect><rect x="60" y="122.571" width="6" height="77.4295" stroke="black" stroke-width="1" fill="blue" opacity="1" tooltip="enable"><title>(0.00993382,247)</title></rect><rect x="66" y="134.169" width="6" height="65.8307" stroke="black" stroke-width="1" fill="blue" opacity="1" tooltip="enable"><title>(0.0109272,210)</title></rect><rect x="72" y="147.022" width="6" height="52.9781" stroke="black" stroke-width="1" fill="blue" opacity="1" tooltip="enable"><title>(0.0119206,169)</title></rect><rect x="78" y="162.069" width="6" height="37.931" stroke="black" stroke-width="1" fill="blue" opacity="1" tooltip="enable"><title>(0.012914,121)</title></rect><rect x="84" y="168.339" width="6" height="31.6614" stroke="black" stroke-width="1" fill="blue" opacity="1" tooltip="enable"><title>(0.0139074,101)</title></rect><rect x="90" y="170.533" width="6" height="29.4671" stroke="black" stroke-width="1" fill="blue" opacity="1" tooltip="enable"><title>(0.0149007,94)</title></rect><rect x="96" y="167.085" width="6" height="32.9154" stroke="black" stroke-width="1" fill="blue" opacity="1" tooltip="enable"><title>(0.0158941,105)</title></rect><rect x="102" y="168.339" width="6" height="31.6614" stroke="black" stroke-width="1" fill="blue" opacity="1" tooltip="enable"><title>(0.0168875,101)</title></rect><rect x="108" y="174.608" width="6" height="25.3918" stroke="black" stroke-width="1" fill="blue" opacity="1" tooltip="enable"><title>(0.0178809,81)</title></rect><rect x="114" y="182.132" width="6" height="17.8683" stroke="black" stroke-width="1" fill="blue" opacity="1" tooltip="enable"><title>(0.0188743,57)</title></rect><rect x="120" y="174.295" width="6" height="25.7053" stroke="black" stroke-width="1" fill="blue" opacity="1" tooltip="enable"><title>(0.0198676,82)</title></rect><rect x="126" y="168.652" width="6" height="31.348" stroke="black" stroke-width="1" fill="blue" opacity="1" tooltip="enable"><title>(0.020861,100)</title></rect><rect x="132" y="171.787" width="6" height="28.2132" stroke="black" stroke-width="1" fill="blue" opacity="1" tooltip="enable"><title>(0.0218544,90)</title></rect><rect x="138" y="175.549" width="6" height="24.4514" stroke="black" stroke-width="1" fill="blue" opacity="1" tooltip="enable"><title>(0.0228478,78)</title></rect><rect x="144" y="184.326" width="6" height="15.674" stroke="black" stroke-width="1" fill="blue" opacity="1" tooltip="enable"><title>(0.0238412,50)</title></rect><rect x="150" y="175.549" width="6" height="24.4514" stroke="black" stroke-width="1" fill="blue" opacity="1" tooltip="enable"><title>(0.0248346,78)</title></rect><rect x="156" y="178.056" width="6" height="21.9436" stroke="black" stroke-width="1" fill="blue" opacity="1" tooltip="enable"><title>(0.0258279,70)</title></rect><rect x="162" y="184.953" width="6" height="15.047" stroke="black" stroke-width="1" fill="blue" opacity="1" tooltip="enable"><title>(0.0268213,48)</title></rect><rect x="168" y="173.668" width="6" height="26.3323" stroke="black" stroke-width="1" fill="blue" opacity="1" tooltip="enable"><title>(0.0278147,84)</title></rect><rect x="174" y="181.818" width="6" height="18.1818" stroke="black" stroke-width="1" fill="blue" opacity="1" tooltip="enable"><title>(0.0288081,58)</title></rect><rect x="180" y="179.937" width="6" height="20.0627" stroke="black" stroke-width="1" fill="blue" opacity="1" tooltip="enable"><title>(0.0298015,64)</title></rect><rect x="186" y="181.191" width="6" height="18.8088" stroke="black" stroke-width="1" fill="blue" opacity="1" tooltip="enable"><title>(0.0307949,60)</title></rect><rect x="192" y="183.699" width="6" height="16.3009" stroke="black" stroke-width="1" fill="blue" opacity="1" tooltip="enable"><title>(0.0317882,52)</title></rect><rect x="198" y="183.699" width="6" height="16.3009" stroke="black" stroke-width="1" fill="blue" opacity="1" tooltip="enable"><title>(0.0327816,52)</title></rect><rect x="204" y="178.37" width="6" height="21.6301" stroke="black" stroke-width="1" fill="blue" opacity="1" tooltip="enable"><title>(0.033775,69)</title></rect><rect x="210" y="177.743" width="6" height="22.2571" stroke="black" stroke-width="1" fill="blue" opacity="1" tooltip="enable"><title>(0.0347684,71)</title></rect><rect x="216" y="178.056" width="6" height="21.9436" stroke="black" stroke-width="1" fill="blue" opacity="1" tooltip="enable"><title>(0.0357618,70)</title></rect><rect x="222" y="176.176" width="6" height="23.8245" stroke="black" stroke-width="1" fill="blue" opacity="1" tooltip="enable"><title>(0.0367552,76)</title></rect><rect x="228" y="184.326" width="6" height="15.674" stroke="black" stroke-width="1" fill="blue" opacity="1" tooltip="enable"><title>(0.0377485,50)</title></rect><rect x="234" y="179.937" width="6" height="20.0627" stroke="black" stroke-width="1" fill="blue" opacity="1" tooltip="enable"><title>(0.0387419,64)</title></rect><rect x="240" y="187.461" width="6" height="12.5392" stroke="black" stroke-width="1" fill="blue" opacity="1" tooltip="enable"><title>(0.0397353,40)</title></rect><rect x="246" y="188.088" width="6" height="11.9122" stroke="black" stroke-width="1" fill="blue" opacity="1" tooltip="enable"><title>(0.0407287,38)</title></rect><rect x="252" y="184.953" width="6" height="15.047" stroke="black" stroke-width="1" fill="blue" opacity="1" tooltip="enable"><title>(0.0417221,48)</title></rect><rect x="258" y="191.85" width="6" height="8.15047" stroke="black" stroke-width="1" fill="blue" opacity="1" tooltip="enable"><title>(0.0427154,26)</title></rect><rect x="264" y="188.088" width="6" height="11.9122" stroke="black" stroke-width="1" fill="blue" opacity="1" tooltip="enable"><title>(0.0437088,38)</title></rect><rect x="270" y="188.715" width="6" height="11.2853" stroke="black" stroke-width="1" fill="blue" opacity="1" tooltip="enable"><title>(0.0447022,36)</title></rect><rect x="276" y="191.223" width="6" height="8.77743" stroke="black" stroke-width="1" fill="blue" opacity="1" tooltip="enable"><title>(0.0456956,28)</title></rect><rect x="282" y="192.163" width="6" height="7.83699" stroke="black" stroke-width="1" fill="blue" opacity="1" tooltip="enable"><title>(0.046689,25)</title></rect><rect x="288" y="193.417" width="6" height="6.58307" stroke="black" stroke-width="1" fill="blue" opacity="1" tooltip="enable"><title>(0.0476824,21)</title></rect><rect x="294" y="188.088" width="6" height="11.9122" stroke="black" stroke-width="1" fill="blue" opacity="1" tooltip="enable"><title>(0.0486757,38)</title></rect><rect x="300" y="184.326" width="6" height="15.674" stroke="black" stroke-width="1" fill="blue" opacity="1" tooltip="enable"><title>(0.0496691,50)</title></rect><rect x="306" y="188.715" width="6" height="11.2853" stroke="black" stroke-width="1" fill="blue" opacity="1" tooltip="enable"><title>(0.0506625,36)</title></rect><rect x="312" y="191.223" width="6" height="8.77743" stroke="black" stroke-width="1" fill="blue" opacity="1" tooltip="enable"><title>(0.0516559,28)</title></rect><rect x="318" y="189.969" width="6" height="10.0313" stroke="black" stroke-width="1" fill="blue" opacity="1" tooltip="enable"><title>(0.0526493,32)</title></rect><rect x="324" y="191.85" width="6" height="8.15047" stroke="black" stroke-width="1" fill="blue" opacity="1" tooltip="enable"><title>(0.0536427,26)</title></rect><rect x="330" y="191.85" width="6" height="8.15047" stroke="black" stroke-width="1" fill="blue" opacity="1" tooltip="enable"><title>(0.054636,26)</title></rect><rect x="336" y="193.103" width="6" height="6.89655" stroke="black" stroke-width="1" fill="blue" opacity="1" tooltip="enable"><title>(0.0556294,22)</title></rect><rect x="342" y="194.984" width="6" height="5.01567" stroke="black" stroke-width="1" fill="blue" opacity="1" tooltip="enable"><title>(0.0566228,16)</title></rect><rect x="348" y="194.357" width="6" height="5.64263" stroke="black" stroke-width="1" fill="blue" opacity="1" tooltip="enable"><title>(0.0576162,18)</title></rect><rect x="354" y="197.492" width="6" height="2.50784" stroke="black" stroke-width="1" fill="blue" opacity="1" tooltip="enable"><title>(0.0586096,8)</title></rect><rect x="360" y="195.611" width="6" height="4.38871" stroke="black" stroke-width="1" fill="blue" opacity="1" tooltip="enable"><title>(0.0596029,14)</title></rect><rect x="366" y="193.73" width="6" height="6.26959" stroke="black" stroke-width="1" fill="blue" opacity="1" tooltip="enable"><title>(0.0605963,20)</title></rect><rect x="372" y="199.373" width="6" height="0.626959" stroke="black" stroke-width="1" fill="blue" opacity="1" tooltip="enable"><title>(0.0615897,2)</title></rect><rect x="378" y="195.611" width="6" height="4.38871" stroke="black" stroke-width="1" fill="blue" opacity="1" tooltip="enable"><title>(0.0625831,14)</title></rect><rect x="384" y="196.238" width="6" height="3.76176" stroke="black" stroke-width="1" fill="blue" opacity="1" tooltip="enable"><title>(0.0635765,12)</title></rect><rect x="390" y="193.73" width="6" height="6.26959" stroke="black" stroke-width="1" fill="blue" opacity="1" tooltip="enable"><title>(0.0645699,20)</title></rect><rect x="396" y="198.746" width="6" height="1.25392" stroke="black" stroke-width="1" fill="blue" opacity="1" tooltip="enable"><title>(0.0655632,4)</title></rect><rect x="402" y="199.373" width="6" height="0.626959" stroke="black" stroke-width="1" fill="blue" opacity="1" tooltip="enable"><title>(0.0665566,2)</title></rect><rect x="408" y="196.865" width="6" height="3.1348" stroke="black" stroke-width="1" fill="blue" opacity="1" tooltip="enable"><title>(0.06755,10)</title></rect><rect x="414" y="198.746" width="6" height="1.25392" stroke="black" stroke-width="1" fill="blue" opacity="1" tooltip="enable"><title>(0.0685434,4)</title></rect><rect x="420" y="199.373" width="6" height="0.626959" stroke="black" stroke-width="1" fill="blue" opacity="1" tooltip="enable"><title>(0.0695368,2)</title></rect><rect x="426" y="200" width="6" height="0" stroke="black" stroke-width="1" fill="blue" opacity="1" tooltip="enable"><title>(0.0705302,0)</title></rect><rect x="432" y="200" width="6" height="0" stroke="black" stroke-width="1" fill="blue" opacity="1" tooltip="enable"><title>(0.0715235,0)</title></rect><rect x="438" y="199.373" width="6" height="0.626959" stroke="black" stroke-width="1" fill="blue" opacity="1" tooltip="enable"><title>(0.0725169,2)</title></rect><rect x="444" y="198.746" width="6" height="1.25392" stroke="black" stroke-width="1" fill="blue" opacity="1" tooltip="enable"><title>(0.0735103,4)</title></rect><rect x="450" y="198.746" width="6" height="1.25392" stroke="black" stroke-width="1" fill="blue" opacity="1" tooltip="enable"><title>(0.0745037,4)</title></rect><rect x="456" y="200" width="6" height="0" stroke="black" stroke-width="1" fill="blue" opacity="1" tooltip="enable"><title>(0.0754971,0)</title></rect><rect x="462" y="200" width="6" height="0" stroke="black" stroke-width="1" fill="blue" opacity="1" tooltip="enable"><title>(0.0764904,0)</title></rect><rect x="468" y="198.746" width="6" height="1.25392" stroke="black" stroke-width="1" fill="blue" opacity="1" tooltip="enable"><title>(0.0774838,4)</title></rect><rect x="474" y="199.373" width="6" height="0.626959" stroke="black" stroke-width="1" fill="blue" opacity="1" tooltip="enable"><title>(0.0784772,2)</title></rect><rect x="480" y="199.373" width="6" height="0.626959" stroke="black" stroke-width="1" fill="blue" opacity="1" tooltip="enable"><title>(0.0794706,2)</title></rect><rect x="486" y="200" width="6" height="0" stroke="black" stroke-width="1" fill="blue" opacity="1" tooltip="enable"><title>(0.080464,0)</title></rect><rect x="492" y="200" width="6" height="0" stroke="black" stroke-width="1" fill="blue" opacity="1" tooltip="enable"><title>(0.0814574,0)</title></rect><rect x="498" y="200" width="6" height="0" stroke="black" stroke-width="1" fill="blue" opacity="1" tooltip="enable"><title>(0.0824507,0)</title></rect><rect x="504" y="200" width="6" height="0" stroke="black" stroke-width="1" fill="blue" opacity="1" tooltip="enable"><title>(0.0834441,0)</title></rect><rect x="510" y="198.746" width="6" height="1.25392" stroke="black" stroke-width="1" fill="blue" opacity="1" tooltip="enable"><title>(0.0844375,4)</title></rect><rect x="516" y="200" width="6" height="0" stroke="black" stroke-width="1" fill="blue" opacity="1" tooltip="enable"><title>(0.0854309,0)</title></rect><rect x="522" y="199.373" width="6" height="0.626959" stroke="black" stroke-width="1" fill="blue" opacity="1" tooltip="enable"><title>(0.0864243,2)</title></rect><rect x="528" y="200" width="6" height="0" stroke="black" stroke-width="1" fill="blue" opacity="1" tooltip="enable"><title>(0.0874177,0)</title></rect><rect x="534" y="200" width="6" height="0" stroke="black" stroke-width="1" fill="blue" opacity="1" tooltip="enable"><title>(0.088411,0)</title></rect><rect x="540" y="200" width="6" height="0" stroke="black" stroke-width="1" fill="blue" opacity="1" tooltip="enable"><title>(0.0894044,0)</title></rect><rect x="546" y="200" width="6" height="0" stroke="black" stroke-width="1" fill="blue" opacity="1" tooltip="enable"><title>(0.0903978,0)</title></rect><rect x="552" y="200" width="6" height="0" stroke="black" stroke-width="1" fill="blue" opacity="1" tooltip="enable"><title>(0.0913912,0)</title></rect><rect x="558" y="200" width="6" height="0" stroke="black" stroke-width="1" fill="blue" opacity="1" tooltip="enable"><title>(0.0923846,0)</title></rect><rect x="564" y="199.373" width="6" height="0.626959" stroke="black" stroke-width="1" fill="blue" opacity="1" tooltip="enable"><title>(0.093378,2)</title></rect><rect x="570" y="200" width="6" height="0" stroke="black" stroke-width="1" fill="blue" opacity="1" tooltip="enable"><title>(0.0943713,0)</title></rect><rect x="576" y="200" width="6" height="0" stroke="black" stroke-width="1" fill="blue" opacity="1" tooltip="enable"><title>(0.0953647,0)</title></rect><rect x="582" y="200" width="6" height="0" stroke="black" stroke-width="1" fill="blue" opacity="1" tooltip="enable"><title>(0.0963581,0)</title></rect><rect x="588" y="200" width="6" height="0" stroke="black" stroke-width="1" fill="blue" opacity="1" tooltip="enable"><title>(0.0973515,0)</title></rect><rect x="594" y="199.687" width="6" height="0.31348" stroke="black" stroke-width="1" fill="blue" opacity="1" tooltip="enable"><title>(0.0983449,1)</title></rect><text x="30" y="240" font-size="20" fill="black">0</text>
<text x="600" y="240" font-size="20" fill="black">0.0993382</text>
<polyline points="0,220,600,220" stroke="black" stroke-width="1" fill="none" opacity="1"/>
<text x="720" y="20" font-size="20" fill="black">638</text>
<text x="720" y="200" font-size="20" fill="black">0</text>
<polyline points="660,0,660,200" stroke="black" stroke-width="1" fill="none" opacity="1"/>
</svg>