<?xml version="1.0" standalone="yes"?>
<!-- SVG graphic -->
<svg xmlns='http://www.w3.org/2000/svg' xmlns:xlink='http://www.w3.org/1999/xlink'
 version="1.1">
<rect x="0" y="0" width="6" height="200" stroke="black" stroke-width="1" fill="blue" opacity="1" tooltip="enable"><title>(0,2099)</title></rect><rect x="6" y="70.7956" width="6" height="129.204" stroke="black" stroke-width="1" fill="blue" opacity="1" tooltip="enable"><title>(0.00128649,1356)</title></rect><rect x="12" y="135.207" width="6" height="64.7928" stroke="black" stroke-width="1" fill="blue" opacity="1" tooltip="enable"><title>(0.00257298,680)</title></rect><rect x="18" y="158.742" width="6" height="41.2577" stroke="black" stroke-width="1" fill="blue" opacity="1" tooltip="enable"><title>(0.00385947,433)</title></rect><rect x="24" y="180.657" width="6" height="19.3425" stroke="black" stroke-width="1" fill="blue" opacity="1" tooltip="enable"><title>(0.00514596,203)</title></rect><rect x="30" y="179.895" width="6" height="20.1048" stroke="black" stroke-width="1" fill="blue" opacity="1" tooltip="enable"><title>(0.00643246,211)</title></rect><rect x="36" y="179.514" width="6" height="20.4859" stroke="black" stroke-width="1" fill="blue" opacity="1" tooltip="enable"><title>(0.00771895,215)</title></rect><rect x="42" y="181.991" width="6" height="18.0086" stroke="black" stroke-width="1" fill="blue" opacity="1" tooltip="enable"><title>(0.00900544,189)</title></rect><rect x="48" y="183.23" width="6" height="16.7699" stroke="black" stroke-width="1" fill="blue" opacity="1" tooltip="enable"><title>(0.0102919,176)</title></rect><rect x="54" y="186.089" width="6" height="13.9114" stroke="black" stroke-width="1" fill="blue" opacity="1" tooltip="enable"><title>(0.0115784,146)</title></rect><rect x="60" y="184.755" width="6" height="15.2454" stroke="black" stroke-width="1" fill="blue" opacity="1" tooltip="enable"><title>(0.0128649,160)</title></rect><rect x="66" y="184.374" width="6" height="15.6265" stroke="black" stroke-width="1" fill="blue" opacity="1" tooltip="enable"><title>(0.0141514,164)</title></rect><rect x="72" y="187.994" width="6" height="12.0057" stroke="black" stroke-width="1" fill="blue" opacity="1" tooltip="enable"><title>(0.0154379,126)</title></rect><rect x="78" y="186.279" width="6" height="13.7208" stroke="black" stroke-width="1" fill="blue" opacity="1" tooltip="enable"><title>(0.0167244,144)</title></rect><rect x="84" y="188.852" width="6" height="11.1482" stroke="black" stroke-width="1" fill="blue" opacity="1" tooltip="enable"><title>(0.0180109,117)</title></rect><rect x="90" y="190.186" width="6" height="9.8142" stroke="black" stroke-width="1" fill="blue" opacity="1" tooltip="enable"><title>(0.0192974,103)</title></rect><rect x="96" y="191.615" width="6" height="8.38495" stroke="black" stroke-width="1" fill="blue" opacity="1" tooltip="enable"><title>(0.0205839,88)</title></rect><rect x="102" y="188.471" width="6" height="11.5293" stroke="black" stroke-width="1" fill="blue" opacity="1" tooltip="enable"><title>(0.0218704,121)</title></rect><rect x="108" y="189.519" width="6" height="10.4812" stroke="black" stroke-width="1" fill="blue" opacity="1" tooltip="enable"><title>(0.0231568,110)</title></rect><rect x="114" y="190.758" width="6" height="9.2425" stroke="black" stroke-width="1" fill="blue" opacity="1" tooltip="enable"><title>(0.0244433,97)</title></rect><rect x="120" y="191.424" width="6" height="8.57551" stroke="black" stroke-width="1" fill="blue" opacity="1" tooltip="enable"><title>(0.0257298,90)</title></rect><rect x="126" y="192.949" width="6" height="7.05098" stroke="black" stroke-width="1" fill="blue" opacity="1" tooltip="enable"><title>(0.0270163,74)</title></rect><rect x="132" y="195.236" width="6" height="4.76417" stroke="black" stroke-width="1" fill="blue" opacity="1" tooltip="enable"><title>(0.0283028,50)</title></rect><rect x="138" y="195.426" width="6" height="4.57361" stroke="black" stroke-width="1" fill="blue" opacity="1" tooltip="enable"><title>(0.0295893,48)</title></rect><rect x="144" y="193.33" width="6" height="6.66984" stroke="black" stroke-width="1" fill="blue" opacity="1" tooltip="enable"><title>(0.0308758,70)</title></rect><rect x="150" y="195.236" width="6" height="4.76417" stroke="black" stroke-width="1" fill="blue" opacity="1" tooltip="enable"><title>(0.0321623,50)</title></rect><rect x="156" y="196.951" width="6" height="3.04907" stroke="black" stroke-width="1" fill="blue" opacity="1" tooltip="enable"><title>(0.0334488,32)</title></rect><rect x="162" y="195.426" width="6" height="4.57361" stroke="black" stroke-width="1" fill="blue" opacity="1" tooltip="enable"><title>(0.0347353,48)</title></rect><rect x="168" y="195.426" width="6" height="4.57361" stroke="black" stroke-width="1" fill="blue" opacity="1" tooltip="enable"><title>(0.0360218,48)</title></rect><rect x="174" y="195.617" width="6" height="4.38304" stroke="black" stroke-width="1" fill="blue" opacity="1" tooltip="enable"><title>(0.0373082,46)</title></rect><rect x="180" y="195.998" width="6" height="4.00191" stroke="black" stroke-width="1" fill="blue" opacity="1" tooltip="enable"><title>(0.0385947,42)</title></rect><rect x="186" y="195.903" width="6" height="4.09719" stroke="black" stroke-width="1" fill="blue" opacity="1" tooltip="enable"><title>(0.0398812,43)</title></rect><rect x="192" y="196.665" width="6" height="3.33492" stroke="black" stroke-width="1" fill="blue" opacity="1" tooltip="enable"><title>(0.0411677,35)</title></rect><rect x="198" y="196.951" width="6" height="3.04907" stroke="black" stroke-width="1" fill="blue" opacity="1" tooltip="enable"><title>(0.0424542,32)</title></rect><rect x="204" y="196.76" width="6" height="3.23964" stroke="black" stroke-width="1" fill="blue" opacity="1" tooltip="enable"><title>(0.0437407,34)</title></rect><rect x="210" y="196.76" width="6" height="3.23964" stroke="black" stroke-width="1" fill="blue" opacity="1" tooltip="enable"><title>(0.0450272,34)</title></rect><rect x="216" y="197.523" width="6" height="2.47737" stroke="black" stroke-width="1" fill="blue" opacity="1" tooltip="enable"><title>(0.0463137,26)</title></rect><rect x="222" y="196.379" width="6" height="3.62077" stroke="black" stroke-width="1" fill="blue" opacity="1" tooltip="enable"><title>(0.0476002,38)</title></rect><rect x="228" y="198.285" width="6" height="1.7151" stroke="black" stroke-width="1" fill="blue" opacity="1" tooltip="enable"><title>(0.0488867,18)</title></rect><rect x="234" y="197.427" width="6" height="2.57265" stroke="black" stroke-width="1" fill="blue" opacity="1" tooltip="enable"><title>(0.0501732,27)</title></rect><rect x="240" y="197.808" width="6" height="2.19152" stroke="black" stroke-width="1" fill="blue" opacity="1" tooltip="enable"><title>(0.0514596,23)</title></rect><rect x="246" y="197.904" width="6" height="2.09624" stroke="black" stroke-width="1" fill="blue" opacity="1" tooltip="enable"><title>(0.0527461,22)</title></rect><rect x="252" y="198.857" width="6" height="1.1434" stroke="black" stroke-width="1" fill="blue" opacity="1" tooltip="enable"><title>(0.0540326,12)</title></rect><rect x="258" y="198.666" width="6" height="1.33397" stroke="black" stroke-width="1" fill="blue" opacity="1" tooltip="enable"><title>(0.0553191,14)</title></rect><rect x="264" y="199.238" width="6" height="0.762268" stroke="black" stroke-width="1" fill="blue" opacity="1" tooltip="enable"><title>(0.0566056,8)</title></rect><rect x="270" y="199.428" width="6" height="0.571701" stroke="black" stroke-width="1" fill="blue" opacity="1" tooltip="enable"><title>(0.0578921,6)</title></rect><rect x="276" y="199.809" width="6" height="0.190567" stroke="black" stroke-width="1" fill="blue" opacity="1" tooltip="enable"><title>(0.0591786,2)</title></rect><rect x="282" y="200" width="6" height="0" stroke="black" stroke-width="1" fill="blue" opacity="1" tooltip="enable"><title>(0.0604651,0)</title></rect><rect x="288" y="200" width="6" height="0" stroke="black" stroke-width="1" fill="blue" opacity="1" tooltip="enable"><title>(0.0617516,0)</title></rect><rect x="294" y="200" width="6" height="0" stroke="black" stroke-width="1" fill="blue" opacity="1" tooltip="enable"><title>(0.0630381,0)</title></rect><rect x="300" y="200" width="6" height="0" stroke="black" stroke-width="1" fill="blue" opacity="1" tooltip="enable"><title>(0.0643246,0)</title></rect><rect x="306" y="199.619" width="6" height="0.381134" stroke="black" stroke-width="1" fill="blue" opacity="1" tooltip="enable"><title>(0.065611,4)</title></rect><rect x="312" y="199.619" width="6" height="0.381134" stroke="black" stroke-width="1" fill="blue" opacity="1" tooltip="enable"><title>(0.0668975,4)</title></rect><rect x="318" y="199.428" width="6" height="0.571701" stroke="black" stroke-width="1" fill="blue" opacity="1" tooltip="enable"><title>(0.068184,6)</title></rect><rect x="324" y="200" width="6" height="0" stroke="black" stroke-width="1" fill="blue" opacity="1" tooltip="enable"><title>(0.0694705,0)</title></rect><rect x="330" y="199.238" width="6" height="0.762268" stroke="black" stroke-width="1" fill="blue" opacity="1" tooltip="enable"><title>(0.070757,8)</title></rect><rect x="336" y="199.619" width="6" height="0.381134" stroke="black" stroke-width="1" fill="blue" opacity="1" tooltip="enable"><title>(0.0720435,4)</title></rect><rect x="342" y="199.809" width="6" height="0.190567" stroke="black" stroke-width="1" fill="blue" opacity="1" tooltip="enable"><title>(0.07333,2)</title></rect><rect x="348" y="199.619" width="6" height="0.381134" stroke="black" stroke-width="1" fill="blue" opacity="1" tooltip="enable"><title>(0.0746165,4)</title></rect><rect x="354" y="199.809" width="6" height="0.190567" stroke="black" stroke-width="1" fill="blue" opacity="1" tooltip="enable"><title>(0.075903,2)</title></rect><rect x="360" y="199.619" width="6" height="0.381134" stroke="black" stroke-width="1" fill="blue" opacity="1" tooltip="enable"><title>(0.0771895,4)</title></rect><rect x="366" y="199.905" width="6" height="0.0952835" stroke="black" stroke-width="1" fill="blue" opacity="1" tooltip="enable"><title>(0.078476,1)</title></rect><rect x="372" y="199.905" width="6" height="0.0952835" stroke="black" stroke-width="1" fill="blue" opacity="1" tooltip="enable"><title>(0.0797625,1)</title></rect><rect x="378" y="199.809" width="6" height="0.190567" stroke="black" stroke-width="1" fill="blue" opacity="1" tooltip="enable"><title>(0.0810489,2)</title></rect><rect x="384" y="199.619" width="6" height="0.381134" stroke="black" stroke-width="1" fill="blue" opacity="1" tooltip="enable"><title>(0.0823354,4)</title></rect><rect x="390" y="199.809" width="6" height="0.190567" stroke="black" stroke-width="1" fill="blue" opacity="1" tooltip="enable"><title>(0.0836219,2)</title></rect><rect x="396" y="199.809" width="6" height="0.190567" stroke="black" stroke-width="1" fill="blue" opacity="1" tooltip="enable"><title>(0.0849084,2)</title></rect><rect x="402" y="199.047" width="6" height="0.952835" stroke="black" stroke-width="1" fill="blue" opacity="1" tooltip="enable"><title>(0.0861949,10)</title></rect><rect x="408" y="199.809" width="6" height="0.190567" stroke="black" stroke-width="1" fill="blue" opacity="1" tooltip="enable"><title>(0.0874814,2)</title></rect><rect x="414" y="200" width="6" height="0" stroke="black" stroke-width="1" fill="blue" opacity="1" tooltip="enable"><title>(0.0887679,0)</title></rect><rect x="420" y="199.619" width="6" height="0.381134" stroke="black" stroke-width="1" fill="blue" opacity="1" tooltip="enable"><title>(0.0900544,4)</title></rect><rect x="426" y="199.619" width="6" height="0.381134" stroke="black" stroke-width="1" fill="blue" opacity="1" tooltip="enable"><title>(0.0913409,4)</title></rect><rect x="432" y="200" width="6" height="0" stroke="black" stroke-width="1" fill="blue" opacity="1" tooltip="enable"><title>(0.0926274,0)</title></rect><rect x="438" y="199.809" width="6" height="0.190567" stroke="black" stroke-width="1" fill="blue" opacity="1" tooltip="enable"><title>(0.0939139,2)</title></rect><rect x="444" y="200" width="6" height="0" stroke="black" stroke-width="1" fill="blue" opacity="1" tooltip="enable"><title>(0.0952003,0)</title></rect><rect x="450" y="199.619" width="6" height="0.381134" stroke="black" stroke-width="1" fill="blue" opacity="1" tooltip="enable"><title>(0.0964868,4)</title></rect><rect x="456" y="200" width="6" height="0" stroke="black" stroke-width="1" fill="blue" opacity="1" tooltip="enable"><title>(0.0977733,0)</title></rect><rect x="462" y="200" width="6" height="0" stroke="black" stroke-width="1" fill="blue" opacity="1" tooltip="enable"><title>(0.0990598,0)</title></rect><rect x="468" y="199.809" width="6" height="0.190567" stroke="black" stroke-width="1" fill="blue" opacity="1" tooltip="enable"><title>(0.100346,2)</title></rect><rect x="474" y="199.809" width="6" height="0.190567" stroke="black" stroke-width="1" fill="blue" opacity="1" tooltip="enable"><title>(0.101633,2)</title></rect><rect x="480" y="200" width="6" height="0" stroke="black" stroke-width="1" fill="blue" opacity="1" tooltip="enable"><title>(0.102919,0)</title></rect><rect x="486" y="200" width="6" height="0" stroke="black" stroke-width="1" fill="blue" opacity="1" tooltip="enable"><title>(0.104206,0)</title></rect><rect x="492" y="199.714" width="6" height="0.28585" stroke="black" stroke-width="1" fill="blue" opacity="1" tooltip="enable"><title>(0.105492,3)</title></rect><rect x="498" y="199.905" width="6" height="0.0952835" stroke="black" stroke-width="1" fill="blue" opacity="1" tooltip="enable"><title>(0.106779,1)</title></rect><rect x="504" y="200" width="6" height="0" stroke="black" stroke-width="1" fill="blue" opacity="1" tooltip="enable"><title>(0.108065,0)</title></rect><rect x="510" y="200" width="6" height="0" stroke="black" stroke-width="1" fill="blue" opacity="1" tooltip="enable"><title>(0.109352,0)</title></rect><rect x="516" y="200" width="6" height="0" stroke="black" stroke-width="1" fill="blue" opacity="1" tooltip="enable"><title>(0.110638,0)</title></rect><rect x="522" y="200" width="6" height="0" stroke="black" stroke-width="1" fill="blue" opacity="1" tooltip="enable"><title>(0.111925,0)</title></rect><rect x="528" y="199.809" width="6" height="0.190567" stroke="black" stroke-width="1" fill="blue" opacity="1" tooltip="enable"><title>(0.113211,2)</title></rect><rect x="534" y="200" width="6" height="0" stroke="black" stroke-width="1" fill="blue" opacity="1" tooltip="enable"><title>(0.114498,0)</title></rect><rect x="540" y="200" width="6" height="0" stroke="black" stroke-width="1" fill="blue" opacity="1" tooltip="enable"><title>(0.115784,0)</title></rect><rect x="546" y="200" width="6" height="0" stroke="black" stroke-width="1" fill="blue" opacity="1" tooltip="enable"><title>(0.117071,0)</title></rect><rect x="552" y="200" width="6" height="0" stroke="black" stroke-width="1" fill="blue" opacity="1" tooltip="enable"><title>(0.118357,0)</title></rect><rect x="558" y="200" width="6" height="0" stroke="black" stroke-width="1" fill="blue" opacity="1" tooltip="enable"><title>(0.119644,0)</title></rect><rect x="564" y="200" width="6" height="0" stroke="black" stroke-width="1" fill="blue" opacity="1" tooltip="enable"><title>(0.12093,0)</title></rect><rect x="570" y="200" width="6" height="0" stroke="black" stroke-width="1" fill="blue" opacity="1" tooltip="enable"><title>(0.122217,0)</title></rect><rect x="576" y="200" width="6" height="0" stroke="black" stroke-width="1" fill="blue" opacity="1" tooltip="enable"><title>(0.123503,0)</title></rect><rect x="582" y="200" width="6" height="0" stroke="black" stroke-width="1" fill="blue" opacity="1" tooltip="enable"><title>(0.12479,0)</title></rect><rect x="588" y="199.809" width="6" height="0.190567" stroke="black" stroke-width="1" fill="blue" opacity="1" tooltip="enable"><title>(0.126076,2)</title></rect><rect x="594" y="199.905" width="6" height="0.0952835" stroke="black" stroke-width="1" fill="blue" opacity="1" tooltip="enable"><title>(0.127363,1)</title></rect><text x="30" y="240" font-size="20" fill="black">0</text>
<text x="600" y="240" font-size="20" fill="black">0.128649</text>
<polyline points="0,220,600,220" stroke="black" stroke-width="1" fill="none" opacity="1"/>
<text x="720" y="20" font-size="20" fill="black">2099</text>
<text x="720" y="200" font-size="20" fill="black">0</text>
<polyline points="660,0,660,200" stroke="black" stroke-width="1" fill="none" opacity="1"/>
</svg>