<?xml version="1.0" standalone="yes"?>
<!-- SVG graphic -->
<svg xmlns='http://www.w3.org/2000/svg' xmlns:xlink='http://www.w3.org/1999/xlink'
 version="1.1">
<rect x="0" y="0" width="6" height="200" stroke="black" stroke-width="1" fill="blue" opacity="1" tooltip="enable"><title>(0,1494)</title></rect><rect x="6" y="24.2303" width="6" height="175.77" stroke="black" stroke-width="1" fill="blue" opacity="1" tooltip="enable"><title>(0.00124196,1313)</title></rect><rect x="12" y="100.268" width="6" height="99.7323" stroke="black" stroke-width="1" fill="blue" opacity="1" tooltip="enable"><title>(0.00248392,745)</title></rect><rect x="18" y="119.545" width="6" height="80.4552" stroke="black" stroke-width="1" fill="blue" opacity="1" tooltip="enable"><title>(0.00372588,601)</title></rect><rect x="24" y="153.012" width="6" height="46.988" stroke="black" stroke-width="1" fill="blue" opacity="1" tooltip="enable"><title>(0.00496785,351)</title></rect><rect x="30" y="177.912" width="6" height="22.0884" stroke="black" stroke-width="1" fill="blue" opacity="1" tooltip="enable"><title>(0.00620981,165)</title></rect><rect x="36" y="183.266" width="6" height="16.7336" stroke="black" stroke-width="1" fill="blue" opacity="1" tooltip="enable"><title>(0.00745177,125)</title></rect><rect x="42" y="178.849" width="6" height="21.1513" stroke="black" stroke-width="1" fill="blue" opacity="1" tooltip="enable"><title>(0.00869373,158)</title></rect><rect x="48" y="184.739" width="6" height="15.261" stroke="black" stroke-width="1" fill="blue" opacity="1" tooltip="enable"><title>(0.00993569,114)</title></rect><rect x="54" y="183.4" width="6" height="16.5997" stroke="black" stroke-width="1" fill="blue" opacity="1" tooltip="enable"><title>(0.0111777,124)</title></rect><rect x="60" y="182.329" width="6" height="17.6707" stroke="black" stroke-width="1" fill="blue" opacity="1" tooltip="enable"><title>(0.0124196,132)</title></rect><rect x="66" y="181.794" width="6" height="18.2062" stroke="black" stroke-width="1" fill="blue" opacity="1" tooltip="enable"><title>(0.0136616,136)</title></rect><rect x="72" y="179.652" width="6" height="20.3481" stroke="black" stroke-width="1" fill="blue" opacity="1" tooltip="enable"><title>(0.0149035,152)</title></rect><rect x="78" y="185.542" width="6" height="14.4578" stroke="black" stroke-width="1" fill="blue" opacity="1" tooltip="enable"><title>(0.0161455,108)</title></rect><rect x="84" y="182.865" width="6" height="17.1352" stroke="black" stroke-width="1" fill="blue" opacity="1" tooltip="enable"><title>(0.0173875,128)</title></rect><rect x="90" y="185.81" width="6" height="14.1901" stroke="black" stroke-width="1" fill="blue" opacity="1" tooltip="enable"><title>(0.0186294,106)</title></rect><rect x="96" y="186.881" width="6" height="13.1191" stroke="black" stroke-width="1" fill="blue" opacity="1" tooltip="enable"><title>(0.0198714,98)</title></rect><rect x="102" y="188.487" width="6" height="11.5127" stroke="black" stroke-width="1" fill="blue" opacity="1" tooltip="enable"><title>(0.0211133,86)</title></rect><rect x="108" y="188.353" width="6" height="11.6466" stroke="black" stroke-width="1" fill="blue" opacity="1" tooltip="enable"><title>(0.0223553,87)</title></rect><rect x="114" y="185.408" width="6" height="14.5917" stroke="black" stroke-width="1" fill="blue" opacity="1" tooltip="enable"><title>(0.0235973,109)</title></rect><rect x="120" y="189.29" width="6" height="10.7095" stroke="black" stroke-width="1" fill="blue" opacity="1" tooltip="enable"><title>(0.0248392,80)</title></rect><rect x="126" y="189.424" width="6" height="10.5756" stroke="black" stroke-width="1" fill="blue" opacity="1" tooltip="enable"><title>(0.0260812,79)</title></rect><rect x="132" y="189.424" width="6" height="10.5756" stroke="black" stroke-width="1" fill="blue" opacity="1" tooltip="enable"><title>(0.0273232,79)</title></rect><rect x="138" y="187.416" width="6" height="12.5837" stroke="black" stroke-width="1" fill="blue" opacity="1" tooltip="enable"><title>(0.0285651,94)</title></rect><rect x="144" y="190.361" width="6" height="9.63855" stroke="black" stroke-width="1" fill="blue" opacity="1" tooltip="enable"><title>(0.0298071,72)</title></rect><rect x="150" y="190.897" width="6" height="9.10308" stroke="black" stroke-width="1" fill="blue" opacity="1" tooltip="enable"><title>(0.031049,68)</title></rect><rect x="156" y="191.566" width="6" height="8.43373" stroke="black" stroke-width="1" fill="blue" opacity="1" tooltip="enable"><title>(0.032291,63)</title></rect><rect x="162" y="192.771" width="6" height="7.22892" stroke="black" stroke-width="1" fill="blue" opacity="1" tooltip="enable"><title>(0.033533,54)</title></rect><rect x="168" y="194.244" width="6" height="5.75636" stroke="black" stroke-width="1" fill="blue" opacity="1" tooltip="enable"><title>(0.0347749,43)</title></rect><rect x="174" y="194.378" width="6" height="5.62249" stroke="black" stroke-width="1" fill="blue" opacity="1" tooltip="enable"><title>(0.0360169,42)</title></rect><rect x="180" y="196.519" width="6" height="3.48059" stroke="black" stroke-width="1" fill="blue" opacity="1" tooltip="enable"><title>(0.0372588,26)</title></rect><rect x="186" y="193.44" width="6" height="6.55957" stroke="black" stroke-width="1" fill="blue" opacity="1" tooltip="enable"><title>(0.0385008,49)</title></rect><rect x="192" y="193.173" width="6" height="6.82731" stroke="black" stroke-width="1" fill="blue" opacity="1" tooltip="enable"><title>(0.0397428,51)</title></rect><rect x="198" y="195.448" width="6" height="4.55154" stroke="black" stroke-width="1" fill="blue" opacity="1" tooltip="enable"><title>(0.0409847,34)</title></rect><rect x="204" y="194.378" width="6" height="5.62249" stroke="black" stroke-width="1" fill="blue" opacity="1" tooltip="enable"><title>(0.0422267,42)</title></rect><rect x="210" y="197.055" width="6" height="2.94511" stroke="black" stroke-width="1" fill="blue" opacity="1" tooltip="enable"><title>(0.0434687,22)</title></rect><rect x="216" y="195.984" width="6" height="4.01606" stroke="black" stroke-width="1" fill="blue" opacity="1" tooltip="enable"><title>(0.0447106,30)</title></rect><rect x="222" y="194.645" width="6" height="5.35475" stroke="black" stroke-width="1" fill="blue" opacity="1" tooltip="enable"><title>(0.0459526,40)</title></rect><rect x="228" y="194.11" width="6" height="5.89023" stroke="black" stroke-width="1" fill="blue" opacity="1" tooltip="enable"><title>(0.0471945,44)</title></rect><rect x="234" y="192.503" width="6" height="7.49665" stroke="black" stroke-width="1" fill="blue" opacity="1" tooltip="enable"><title>(0.0484365,56)</title></rect><rect x="240" y="193.44" width="6" height="6.55957" stroke="black" stroke-width="1" fill="blue" opacity="1" tooltip="enable"><title>(0.0496785,49)</title></rect><rect x="246" y="193.976" width="6" height="6.0241" stroke="black" stroke-width="1" fill="blue" opacity="1" tooltip="enable"><title>(0.0509204,45)</title></rect><rect x="252" y="192.771" width="6" height="7.22892" stroke="black" stroke-width="1" fill="blue" opacity="1" tooltip="enable"><title>(0.0521624,54)</title></rect><rect x="258" y="195.315" width="6" height="4.68541" stroke="black" stroke-width="1" fill="blue" opacity="1" tooltip="enable"><title>(0.0534043,35)</title></rect><rect x="264" y="195.85" width="6" height="4.14993" stroke="black" stroke-width="1" fill="blue" opacity="1" tooltip="enable"><title>(0.0546463,31)</title></rect><rect x="270" y="196.118" width="6" height="3.8822" stroke="black" stroke-width="1" fill="blue" opacity="1" tooltip="enable"><title>(0.0558883,29)</title></rect><rect x="276" y="196.921" width="6" height="3.07898" stroke="black" stroke-width="1" fill="blue" opacity="1" tooltip="enable"><title>(0.0571302,23)</title></rect><rect x="282" y="195.448" width="6" height="4.55154" stroke="black" stroke-width="1" fill="blue" opacity="1" tooltip="enable"><title>(0.0583722,34)</title></rect><rect x="288" y="195.047" width="6" height="4.95315" stroke="black" stroke-width="1" fill="blue" opacity="1" tooltip="enable"><title>(0.0596142,37)</title></rect><rect x="294" y="196.653" width="6" height="3.34672" stroke="black" stroke-width="1" fill="blue" opacity="1" tooltip="enable"><title>(0.0608561,25)</title></rect><rect x="300" y="197.055" width="6" height="2.94511" stroke="black" stroke-width="1" fill="blue" opacity="1" tooltip="enable"><title>(0.0620981,22)</title></rect><rect x="306" y="196.787" width="6" height="3.21285" stroke="black" stroke-width="1" fill="blue" opacity="1" tooltip="enable"><title>(0.06334,24)</title></rect><rect x="312" y="198.929" width="6" height="1.07095" stroke="black" stroke-width="1" fill="blue" opacity="1" tooltip="enable"><title>(0.064582,8)</title></rect><rect x="318" y="198.661" width="6" height="1.33869" stroke="black" stroke-width="1" fill="blue" opacity="1" tooltip="enable"><title>(0.065824,10)</title></rect><rect x="324" y="198.795" width="6" height="1.20482" stroke="black" stroke-width="1" fill="blue" opacity="1" tooltip="enable"><title>(0.0670659,9)</title></rect><rect x="330" y="199.465" width="6" height="0.535475" stroke="black" stroke-width="1" fill="blue" opacity="1" tooltip="enable"><title>(0.0683079,4)</title></rect><rect x="336" y="198.661" width="6" height="1.33869" stroke="black" stroke-width="1" fill="blue" opacity="1" tooltip="enable"><title>(0.0695499,10)</title></rect><rect x="342" y="198.795" width="6" height="1.20482" stroke="black" stroke-width="1" fill="blue" opacity="1" tooltip="enable"><title>(0.0707918,9)</title></rect><rect x="348" y="198.394" width="6" height="1.60643" stroke="black" stroke-width="1" fill="blue" opacity="1" tooltip="enable"><title>(0.0720338,12)</title></rect><rect x="354" y="198.661" width="6" height="1.33869" stroke="black" stroke-width="1" fill="blue" opacity="1" tooltip="enable"><title>(0.0732757,10)</title></rect><rect x="360" y="199.197" width="6" height="0.803213" stroke="black" stroke-width="1" fill="blue" opacity="1" tooltip="enable"><title>(0.0745177,6)</title></rect><rect x="366" y="199.732" width="6" height="0.267738" stroke="black" stroke-width="1" fill="blue" opacity="1" tooltip="enable"><title>(0.0757597,2)</title></rect><rect x="372" y="199.598" width="6" height="0.401606" stroke="black" stroke-width="1" fill="blue" opacity="1" tooltip="enable"><title>(0.0770016,3)</title></rect><rect x="378" y="199.063" width="6" height="0.937082" stroke="black" stroke-width="1" fill="blue" opacity="1" tooltip="enable"><title>(0.0782436,7)</title></rect><rect x="384" y="198.394" width="6" height="1.60643" stroke="black" stroke-width="1" fill="blue" opacity="1" tooltip="enable"><title>(0.0794855,12)</title></rect><rect x="390" y="199.197" width="6" height="0.803213" stroke="black" stroke-width="1" fill="blue" opacity="1" tooltip="enable"><title>(0.0807275,6)</title></rect><rect x="396" y="199.197" width="6" height="0.803213" stroke="black" stroke-width="1" fill="blue" opacity="1" tooltip="enable"><title>(0.0819695,6)</title></rect><rect x="402" y="199.732" width="6" height="0.267738" stroke="black" stroke-width="1" fill="blue" opacity="1" tooltip="enable"><title>(0.0832114,2)</title></rect><rect x="408" y="198.929" width="6" height="1.07095" stroke="black" stroke-width="1" fill="blue" opacity="1" tooltip="enable"><title>(0.0844534,8)</title></rect><rect x="414" y="199.465" width="6" height="0.535475" stroke="black" stroke-width="1" fill="blue" opacity="1" tooltip="enable"><title>(0.0856953,4)</title></rect><rect x="420" y="200" width="6" height="0" stroke="black" stroke-width="1" fill="blue" opacity="1" tooltip="enable"><title>(0.0869373,0)</title></rect><rect x="426" y="200" width="6" height="0" stroke="black" stroke-width="1" fill="blue" opacity="1" tooltip="enable"><title>(0.0881793,0)</title></rect><rect x="432" y="199.197" width="6" height="0.803213" stroke="black" stroke-width="1" fill="blue" opacity="1" tooltip="enable"><title>(0.0894212,6)</title></rect><rect x="438" y="199.465" width="6" height="0.535475" stroke="black" stroke-width="1" fill="blue" opacity="1" tooltip="enable"><title>(0.0906632,4)</title></rect><rect x="444" y="199.732" width="6" height="0.267738" stroke="black" stroke-width="1" fill="blue" opacity="1" tooltip="enable"><title>(0.0919052,2)</title></rect><rect x="450" y="199.732" width="6" height="0.267738" stroke="black" stroke-width="1" fill="blue" opacity="1" tooltip="enable"><title>(0.0931471,2)</title></rect><rect x="456" y="200" width="6" height="0" stroke="black" stroke-width="1" fill="blue" opacity="1" tooltip="enable"><title>(0.0943891,0)</title></rect><rect x="462" y="198.394" width="6" height="1.60643" stroke="black" stroke-width="1" fill="blue" opacity="1" tooltip="enable"><title>(0.095631,12)</title></rect><rect x="468" y="199.598" width="6" height="0.401606" stroke="black" stroke-width="1" fill="blue" opacity="1" tooltip="enable"><title>(0.096873,3)</title></rect><rect x="474" y="199.866" width="6" height="0.133869" stroke="black" stroke-width="1" fill="blue" opacity="1" tooltip="enable"><title>(0.098115,1)</title></rect><rect x="480" y="200" width="6" height="0" stroke="black" stroke-width="1" fill="blue" opacity="1" tooltip="enable"><title>(0.0993569,0)</title></rect><rect x="486" y="199.465" width="6" height="0.535475" stroke="black" stroke-width="1" fill="blue" opacity="1" tooltip="enable"><title>(0.100599,4)</title></rect><rect x="492" y="200" width="6" height="0" stroke="black" stroke-width="1" fill="blue" opacity="1" tooltip="enable"><title>(0.101841,0)</title></rect><rect x="498" y="199.465" width="6" height="0.535475" stroke="black" stroke-width="1" fill="blue" opacity="1" tooltip="enable"><title>(0.103083,4)</title></rect><rect x="504" y="199.732" width="6" height="0.267738" stroke="black" stroke-width="1" fill="blue" opacity="1" tooltip="enable"><title>(0.104325,2)</title></rect><rect x="510" y="199.732" width="6" height="0.267738" stroke="black" stroke-width="1" fill="blue" opacity="1" tooltip="enable"><title>(0.105567,2)</title></rect><rect x="516" y="199.732" width="6" height="0.267738" stroke="black" stroke-width="1" fill="blue" opacity="1" tooltip="enable"><title>(0.106809,2)</title></rect><rect x="522" y="199.732" width="6" height="0.267738" stroke="black" stroke-width="1" fill="blue" opacity="1" tooltip="enable"><title>(0.108051,2)</title></rect><rect x="528" y="199.465" width="6" height="0.535475" stroke="black" stroke-width="1" fill="blue" opacity="1" tooltip="enable"><title>(0.109293,4)</title></rect><rect x="534" y="199.732" width="6" height="0.267738" stroke="black" stroke-width="1" fill="blue" opacity="1" tooltip="enable"><title>(0.110535,2)</title></rect><rect x="540" y="199.465" width="6" height="0.535475" stroke="black" stroke-width="1" fill="blue" opacity="1" tooltip="enable"><title>(0.111777,4)</title></rect><rect x="546" y="199.732" width="6" height="0.267738" stroke="black" stroke-width="1" fill="blue" opacity="1" tooltip="enable"><title>(0.113019,2)</title></rect><rect x="552" y="200" width="6" height="0" stroke="black" stroke-width="1" fill="blue" opacity="1" tooltip="enable"><title>(0.11426,0)</title></rect><rect x="558" y="199.732" width="6" height="0.267738" stroke="black" stroke-width="1" fill="blue" opacity="1" tooltip="enable"><title>(0.115502,2)</title></rect><rect x="564" y="200" width="6" height="0" stroke="black" stroke-width="1" fill="blue" opacity="1" tooltip="enable"><title>(0.116744,0)</title></rect><rect x="570" y="200" width="6" height="0" stroke="black" stroke-width="1" fill="blue" opacity="1" tooltip="enable"><title>(0.117986,0)</title></rect><rect x="576" y="200" width="6" height="0" stroke="black" stroke-width="1" fill="blue" opacity="1" tooltip="enable"><title>(0.119228,0)</title></rect><rect x="582" y="200" width="6" height="0" stroke="black" stroke-width="1" fill="blue" opacity="1" tooltip="enable"><title>(0.12047,0)</title></rect><rect x="588" y="200" width="6" height="0" stroke="black" stroke-width="1" fill="blue" opacity="1" tooltip="enable"><title>(0.121712,0)</title></rect><rect x="594" y="199.598" width="6" height="0.401606" stroke="black" stroke-width="1" fill="blue" opacity="1" tooltip="enable"><title>(0.122954,3)</title></rect><text x="30" y="240" font-size="20" fill="black">0</text>
<text x="600" y="240" font-size="20" fill="black">0.124196</text>
<polyline points="0,220,600,220" stroke="black" stroke-width="1" fill="none" opacity="1"/>
<text x="720" y="20" font-size="20" fill="black">1494</text>
<text x="720" y="200" font-size="20" fill="black">0</text>
<polyline points="660,0,660,200" stroke="black" stroke-width="1" fill="none" opacity="1"/>
</svg>