<?xml version="1.0" standalone="yes"?>
<!-- SVG graphic -->
<svg xmlns='http://www.w3.org/2000/svg' xmlns:xlink='http://www.w3.org/1999/xlink'
 version="1.1">
<rect x="0" y="0" width="6" height="200" stroke="black" stroke-width="1" fill="blue" opacity="1" tooltip="enable"><title>(0,1874)</title></rect><rect x="6" y="26.1473" width="6" height="173.853" stroke="black" stroke-width="1" fill="blue" opacity="1" tooltip="enable"><title>(0.00166221,1629)</title></rect><rect x="12" y="113.874" width="6" height="86.1259" stroke="black" stroke-width="1" fill="blue" opacity="1" tooltip="enable"><title>(0.00332442,807)</title></rect><rect x="18" y="167.876" width="6" height="32.1238" stroke="black" stroke-width="1" fill="blue" opacity="1" tooltip="enable"><title>(0.00498663,301)</title></rect><rect x="24" y="180.043" width="6" height="19.9573" stroke="black" stroke-width="1" fill="blue" opacity="1" tooltip="enable"><title>(0.00664884,187)</title></rect><rect x="30" y="183.244" width="6" height="16.7556" stroke="black" stroke-width="1" fill="blue" opacity="1" tooltip="enable"><title>(0.00831105,157)</title></rect><rect x="36" y="177.481" width="6" height="22.5187" stroke="black" stroke-width="1" fill="blue" opacity="1" tooltip="enable"><title>(0.00997326,211)</title></rect><rect x="42" y="183.565" width="6" height="16.4354" stroke="black" stroke-width="1" fill="blue" opacity="1" tooltip="enable"><title>(0.0116355,154)</title></rect><rect x="48" y="181.003" width="6" height="18.9968" stroke="black" stroke-width="1" fill="blue" opacity="1" tooltip="enable"><title>(0.0132977,178)</title></rect><rect x="54" y="180.576" width="6" height="19.4237" stroke="black" stroke-width="1" fill="blue" opacity="1" tooltip="enable"><title>(0.0149599,182)</title></rect><rect x="60" y="185.165" width="6" height="14.8346" stroke="black" stroke-width="1" fill="blue" opacity="1" tooltip="enable"><title>(0.0166221,139)</title></rect><rect x="66" y="179.616" width="6" height="20.3842" stroke="black" stroke-width="1" fill="blue" opacity="1" tooltip="enable"><title>(0.0182843,191)</title></rect><rect x="72" y="181.003" width="6" height="18.9968" stroke="black" stroke-width="1" fill="blue" opacity="1" tooltip="enable"><title>(0.0199465,178)</title></rect><rect x="78" y="183.991" width="6" height="16.0085" stroke="black" stroke-width="1" fill="blue" opacity="1" tooltip="enable"><title>(0.0216087,150)</title></rect><rect x="84" y="185.059" width="6" height="14.9413" stroke="black" stroke-width="1" fill="blue" opacity="1" tooltip="enable"><title>(0.0232709,140)</title></rect><rect x="90" y="185.486" width="6" height="14.5144" stroke="black" stroke-width="1" fill="blue" opacity="1" tooltip="enable"><title>(0.0249331,136)</title></rect><rect x="96" y="187.193" width="6" height="12.8068" stroke="black" stroke-width="1" fill="blue" opacity="1" tooltip="enable"><title>(0.0265954,120)</title></rect><rect x="102" y="186.98" width="6" height="13.0203" stroke="black" stroke-width="1" fill="blue" opacity="1" tooltip="enable"><title>(0.0282576,122)</title></rect><rect x="108" y="186.553" width="6" height="13.4472" stroke="black" stroke-width="1" fill="blue" opacity="1" tooltip="enable"><title>(0.0299198,126)</title></rect><rect x="114" y="184.418" width="6" height="15.5816" stroke="black" stroke-width="1" fill="blue" opacity="1" tooltip="enable"><title>(0.031582,146)</title></rect><rect x="120" y="191.249" width="6" height="8.75133" stroke="black" stroke-width="1" fill="blue" opacity="1" tooltip="enable"><title>(0.0332442,82)</title></rect><rect x="126" y="190.181" width="6" height="9.81857" stroke="black" stroke-width="1" fill="blue" opacity="1" tooltip="enable"><title>(0.0349064,92)</title></rect><rect x="132" y="190.928" width="6" height="9.0715" stroke="black" stroke-width="1" fill="blue" opacity="1" tooltip="enable"><title>(0.0365686,85)</title></rect><rect x="138" y="191.569" width="6" height="8.43116" stroke="black" stroke-width="1" fill="blue" opacity="1" tooltip="enable"><title>(0.0382308,79)</title></rect><rect x="144" y="194.344" width="6" height="5.65635" stroke="black" stroke-width="1" fill="blue" opacity="1" tooltip="enable"><title>(0.039893,53)</title></rect><rect x="150" y="194.557" width="6" height="5.4429" stroke="black" stroke-width="1" fill="blue" opacity="1" tooltip="enable"><title>(0.0415552,51)</title></rect><rect x="156" y="192.316" width="6" height="7.6841" stroke="black" stroke-width="1" fill="blue" opacity="1" tooltip="enable"><title>(0.0432175,72)</title></rect><rect x="162" y="194.45" width="6" height="5.54963" stroke="black" stroke-width="1" fill="blue" opacity="1" tooltip="enable"><title>(0.0448797,52)</title></rect><rect x="168" y="194.664" width="6" height="5.33618" stroke="black" stroke-width="1" fill="blue" opacity="1" tooltip="enable"><title>(0.0465419,50)</title></rect><rect x="174" y="195.304" width="6" height="4.69584" stroke="black" stroke-width="1" fill="blue" opacity="1" tooltip="enable"><title>(0.0482041,44)</title></rect><rect x="180" y="197.012" width="6" height="2.98826" stroke="black" stroke-width="1" fill="blue" opacity="1" tooltip="enable"><title>(0.0498663,28)</title></rect><rect x="186" y="197.225" width="6" height="2.77481" stroke="black" stroke-width="1" fill="blue" opacity="1" tooltip="enable"><title>(0.0515285,26)</title></rect><rect x="192" y="197.652" width="6" height="2.34792" stroke="black" stroke-width="1" fill="blue" opacity="1" tooltip="enable"><title>(0.0531907,22)</title></rect><rect x="198" y="198.506" width="6" height="1.49413" stroke="black" stroke-width="1" fill="blue" opacity="1" tooltip="enable"><title>(0.0548529,14)</title></rect><rect x="204" y="197.866" width="6" height="2.13447" stroke="black" stroke-width="1" fill="blue" opacity="1" tooltip="enable"><title>(0.0565151,20)</title></rect><rect x="210" y="197.866" width="6" height="2.13447" stroke="black" stroke-width="1" fill="blue" opacity="1" tooltip="enable"><title>(0.0581773,20)</title></rect><rect x="216" y="198.933" width="6" height="1.06724" stroke="black" stroke-width="1" fill="blue" opacity="1" tooltip="enable"><title>(0.0598396,10)</title></rect><rect x="222" y="199.36" width="6" height="0.640342" stroke="black" stroke-width="1" fill="blue" opacity="1" tooltip="enable"><title>(0.0615018,6)</title></rect><rect x="228" y="199.573" width="6" height="0.426894" stroke="black" stroke-width="1" fill="blue" opacity="1" tooltip="enable"><title>(0.063164,4)</title></rect><rect x="234" y="199.146" width="6" height="0.853789" stroke="black" stroke-width="1" fill="blue" opacity="1" tooltip="enable"><title>(0.0648262,8)</title></rect><rect x="240" y="199.787" width="6" height="0.213447" stroke="black" stroke-width="1" fill="blue" opacity="1" tooltip="enable"><title>(0.0664884,2)</title></rect><rect x="246" y="200" width="6" height="0" stroke="black" stroke-width="1" fill="blue" opacity="1" tooltip="enable"><title>(0.0681506,0)</title></rect><rect x="252" y="199.573" width="6" height="0.426894" stroke="black" stroke-width="1" fill="blue" opacity="1" tooltip="enable"><title>(0.0698128,4)</title></rect><rect x="258" y="200" width="6" height="0" stroke="black" stroke-width="1" fill="blue" opacity="1" tooltip="enable"><title>(0.071475,0)</title></rect><rect x="264" y="199.146" width="6" height="0.853789" stroke="black" stroke-width="1" fill="blue" opacity="1" tooltip="enable"><title>(0.0731372,8)</title></rect><rect x="270" y="199.573" width="6" height="0.426894" stroke="black" stroke-width="1" fill="blue" opacity="1" tooltip="enable"><title>(0.0747994,4)</title></rect><rect x="276" y="199.36" width="6" height="0.640342" stroke="black" stroke-width="1" fill="blue" opacity="1" tooltip="enable"><title>(0.0764617,6)</title></rect><rect x="282" y="200" width="6" height="0" stroke="black" stroke-width="1" fill="blue" opacity="1" tooltip="enable"><title>(0.0781239,0)</title></rect><rect x="288" y="200" width="6" height="0" stroke="black" stroke-width="1" fill="blue" opacity="1" tooltip="enable"><title>(0.0797861,0)</title></rect><rect x="294" y="200" width="6" height="0" stroke="black" stroke-width="1" fill="blue" opacity="1" tooltip="enable"><title>(0.0814483,0)</title></rect><rect x="300" y="199.787" width="6" height="0.213447" stroke="black" stroke-width="1" fill="blue" opacity="1" tooltip="enable"><title>(0.0831105,2)</title></rect><rect x="306" y="199.787" width="6" height="0.213447" stroke="black" stroke-width="1" fill="blue" opacity="1" tooltip="enable"><title>(0.0847727,2)</title></rect><rect x="312" y="199.787" width="6" height="0.213447" stroke="black" stroke-width="1" fill="blue" opacity="1" tooltip="enable"><title>(0.0864349,2)</title></rect><rect x="318" y="199.787" width="6" height="0.213447" stroke="black" stroke-width="1" fill="blue" opacity="1" tooltip="enable"><title>(0.0880971,2)</title></rect><rect x="324" y="199.787" width="6" height="0.213447" stroke="black" stroke-width="1" fill="blue" opacity="1" tooltip="enable"><title>(0.0897593,2)</title></rect><rect x="330" y="200" width="6" height="0" stroke="black" stroke-width="1" fill="blue" opacity="1" tooltip="enable"><title>(0.0914215,0)</title></rect><rect x="336" y="200" width="6" height="0" stroke="black" stroke-width="1" fill="blue" opacity="1" tooltip="enable"><title>(0.0930837,0)</title></rect><rect x="342" y="199.787" width="6" height="0.213447" stroke="black" stroke-width="1" fill="blue" opacity="1" tooltip="enable"><title>(0.094746,2)</title></rect><rect x="348" y="200" width="6" height="0" stroke="black" stroke-width="1" fill="blue" opacity="1" tooltip="enable"><title>(0.0964082,0)</title></rect><rect x="354" y="199.787" width="6" height="0.213447" stroke="black" stroke-width="1" fill="blue" opacity="1" tooltip="enable"><title>(0.0980704,2)</title></rect><rect x="360" y="199.573" width="6" height="0.426894" stroke="black" stroke-width="1" fill="blue" opacity="1" tooltip="enable"><title>(0.0997326,4)</title></rect><rect x="366" y="199.787" width="6" height="0.213447" stroke="black" stroke-width="1" fill="blue" opacity="1" tooltip="enable"><title>(0.101395,2)</title></rect><rect x="372" y="200" width="6" height="0" stroke="black" stroke-width="1" fill="blue" opacity="1" tooltip="enable"><title>(0.103057,0)</title></rect><rect x="378" y="200" width="6" height="0" stroke="black" stroke-width="1" fill="blue" opacity="1" tooltip="enable"><title>(0.104719,0)</title></rect><rect x="384" y="200" width="6" height="0" stroke="black" stroke-width="1" fill="blue" opacity="1" tooltip="enable"><title>(0.106381,0)</title></rect><rect x="390" y="200" width="6" height="0" stroke="black" stroke-width="1" fill="blue" opacity="1" tooltip="enable"><title>(0.108044,0)</title></rect><rect x="396" y="199.573" width="6" height="0.426894" stroke="black" stroke-width="1" fill="blue" opacity="1" tooltip="enable"><title>(0.109706,4)</title></rect><rect x="402" y="199.787" width="6" height="0.213447" stroke="black" stroke-width="1" fill="blue" opacity="1" tooltip="enable"><title>(0.111368,2)</title></rect><rect x="408" y="200" width="6" height="0" stroke="black" stroke-width="1" fill="blue" opacity="1" tooltip="enable"><title>(0.11303,0)</title></rect><rect x="414" y="200" width="6" height="0" stroke="black" stroke-width="1" fill="blue" opacity="1" tooltip="enable"><title>(0.114692,0)</title></rect><rect x="420" y="200" width="6" height="0" stroke="black" stroke-width="1" fill="blue" opacity="1" tooltip="enable"><title>(0.116355,0)</title></rect><rect x="426" y="200" width="6" height="0" stroke="black" stroke-width="1" fill="blue" opacity="1" tooltip="enable"><title>(0.118017,0)</title></rect><rect x="432" y="199.787" width="6" height="0.213447" stroke="black" stroke-width="1" fill="blue" opacity="1" tooltip="enable"><title>(0.119679,2)</title></rect><rect x="438" y="200" width="6" height="0" stroke="black" stroke-width="1" fill="blue" opacity="1" tooltip="enable"><title>(0.121341,0)</title></rect><rect x="444" y="200" width="6" height="0" stroke="black" stroke-width="1" fill="blue" opacity="1" tooltip="enable"><title>(0.123004,0)</title></rect><rect x="450" y="200" width="6" height="0" stroke="black" stroke-width="1" fill="blue" opacity="1" tooltip="enable"><title>(0.124666,0)</title></rect><rect x="456" y="200" width="6" height="0" stroke="black" stroke-width="1" fill="blue" opacity="1" tooltip="enable"><title>(0.126328,0)</title></rect><rect x="462" y="200" width="6" height="0" stroke="black" stroke-width="1" fill="blue" opacity="1" tooltip="enable"><title>(0.12799,0)</title></rect><rect x="468" y="200" width="6" height="0" stroke="black" stroke-width="1" fill="blue" opacity="1" tooltip="enable"><title>(0.129652,0)</title></rect><rect x="474" y="200" width="6" height="0" stroke="black" stroke-width="1" fill="blue" opacity="1" tooltip="enable"><title>(0.131315,0)</title></rect><rect x="480" y="200" width="6" height="0" stroke="black" stroke-width="1" fill="blue" opacity="1" tooltip="enable"><title>(0.132977,0)</title></rect><rect x="486" y="200" width="6" height="0" stroke="black" stroke-width="1" fill="blue" opacity="1" tooltip="enable"><title>(0.134639,0)</title></rect><rect x="492" y="200" width="6" height="0" stroke="black" stroke-width="1" fill="blue" opacity="1" tooltip="enable"><title>(0.136301,0)</title></rect><rect x="498" y="200" width="6" height="0" stroke="black" stroke-width="1" fill="blue" opacity="1" tooltip="enable"><title>(0.137963,0)</title></rect><rect x="504" y="200" width="6" height="0" stroke="black" stroke-width="1" fill="blue" opacity="1" tooltip="enable"><title>(0.139626,0)</title></rect><rect x="510" y="200" width="6" height="0" stroke="black" stroke-width="1" fill="blue" opacity="1" tooltip="enable"><title>(0.141288,0)</title></rect><rect x="516" y="200" width="6" height="0" stroke="black" stroke-width="1" fill="blue" opacity="1" tooltip="enable"><title>(0.14295,0)</title></rect><rect x="522" y="200" width="6" height="0" stroke="black" stroke-width="1" fill="blue" opacity="1" tooltip="enable"><title>(0.144612,0)</title></rect><rect x="528" y="200" width="6" height="0" stroke="black" stroke-width="1" fill="blue" opacity="1" tooltip="enable"><title>(0.146274,0)</title></rect><rect x="534" y="200" width="6" height="0" stroke="black" stroke-width="1" fill="blue" opacity="1" tooltip="enable"><title>(0.147937,0)</title></rect><rect x="540" y="200" width="6" height="0" stroke="black" stroke-width="1" fill="blue" opacity="1" tooltip="enable"><title>(0.149599,0)</title></rect><rect x="546" y="200" width="6" height="0" stroke="black" stroke-width="1" fill="blue" opacity="1" tooltip="enable"><title>(0.151261,0)</title></rect><rect x="552" y="200" width="6" height="0" stroke="black" stroke-width="1" fill="blue" opacity="1" tooltip="enable"><title>(0.152923,0)</title></rect><rect x="558" y="200" width="6" height="0" stroke="black" stroke-width="1" fill="blue" opacity="1" tooltip="enable"><title>(0.154586,0)</title></rect><rect x="564" y="200" width="6" height="0" stroke="black" stroke-width="1" fill="blue" opacity="1" tooltip="enable"><title>(0.156248,0)</title></rect><rect x="570" y="200" width="6" height="0" stroke="black" stroke-width="1" fill="blue" opacity="1" tooltip="enable"><title>(0.15791,0)</title></rect><rect x="576" y="200" width="6" height="0" stroke="black" stroke-width="1" fill="blue" opacity="1" tooltip="enable"><title>(0.159572,0)</title></rect><rect x="582" y="200" width="6" height="0" stroke="black" stroke-width="1" fill="blue" opacity="1" tooltip="enable"><title>(0.161234,0)</title></rect><rect x="588" y="200" width="6" height="0" stroke="black" stroke-width="1" fill="blue" opacity="1" tooltip="enable"><title>(0.162897,0)</title></rect><rect x="594" y="199.893" width="6" height="0.106724" stroke="black" stroke-width="1" fill="blue" opacity="1" tooltip="enable"><title>(0.164559,1)</title></rect><text x="30" y="240" font-size="20" fill="black">0</text>
<text x="600" y="240" font-size="20" fill="black">0.166221</text>
<polyline points="0,220,600,220" stroke="black" stroke-width="1" fill="none" opacity="1"/>
<text x="720" y="20" font-size="20" fill="black">1874</text>
<text x="720" y="200" font-size="20" fill="black">0</text>
<polyline points="660,0,660,200" stroke="black" stroke-width="1" fill="none" opacity="1"/>
</svg>