<?xml version="1.0" standalone="yes"?>
<!-- SVG graphic -->
<svg xmlns='http://www.w3.org/2000/svg' xmlns:xlink='http://www.w3.org/1999/xlink'
 version="1.1">
<rect x="0" y="-1.52588e-05" width="6" height="200" stroke="black" stroke-width="1" fill="blue" opacity="1" tooltip="enable"><title>(0,1413)</title></rect><rect x="6" y="29.724" width="6" height="170.276" stroke="black" stroke-width="1" fill="blue" opacity="1" tooltip="enable"><title>(0.000825718,1203)</title></rect><rect x="12" y="94.126" width="6" height="105.874" stroke="black" stroke-width="1" fill="blue" opacity="1" tooltip="enable"><title>(0.00165144,748)</title></rect><rect x="18" y="123.567" width="6" height="76.4331" stroke="black" stroke-width="1" fill="blue" opacity="1" tooltip="enable"><title>(0.00247715,540)</title></rect><rect x="24" y="137.863" width="6" height="62.1373" stroke="black" stroke-width="1" fill="blue" opacity="1" tooltip="enable"><title>(0.00330287,439)</title></rect><rect x="30" y="153.999" width="6" height="46.0014" stroke="black" stroke-width="1" fill="blue" opacity="1" tooltip="enable"><title>(0.00412859,325)</title></rect><rect x="36" y="168.294" width="6" height="31.7056" stroke="black" stroke-width="1" fill="blue" opacity="1" tooltip="enable"><title>(0.00495431,224)</title></rect><rect x="42" y="179.618" width="6" height="20.3822" stroke="black" stroke-width="1" fill="blue" opacity="1" tooltip="enable"><title>(0.00578002,144)</title></rect><rect x="48" y="184.147" width="6" height="15.8528" stroke="black" stroke-width="1" fill="blue" opacity="1" tooltip="enable"><title>(0.00660574,112)</title></rect><rect x="54" y="180.042" width="6" height="19.9575" stroke="black" stroke-width="1" fill="blue" opacity="1" tooltip="enable"><title>(0.00743146,141)</title></rect><rect x="60" y="184.006" width="6" height="15.9943" stroke="black" stroke-width="1" fill="blue" opacity="1" tooltip="enable"><title>(0.00825718,113)</title></rect><rect x="66" y="183.723" width="6" height="16.2774" stroke="black" stroke-width="1" fill="blue" opacity="1" tooltip="enable"><title>(0.00908289,115)</title></rect><rect x="72" y="180.042" width="6" height="19.9575" stroke="black" stroke-width="1" fill="blue" opacity="1" tooltip="enable"><title>(0.00990861,141)</title></rect><rect x="78" y="185.421" width="6" height="14.5789" stroke="black" stroke-width="1" fill="blue" opacity="1" tooltip="enable"><title>(0.0107343,103)</title></rect><rect x="84" y="186.27" width="6" height="13.7297" stroke="black" stroke-width="1" fill="blue" opacity="1" tooltip="enable"><title>(0.01156,97)</title></rect><rect x="90" y="185.846" width="6" height="14.1543" stroke="black" stroke-width="1" fill="blue" opacity="1" tooltip="enable"><title>(0.0123858,100)</title></rect><rect x="96" y="186.129" width="6" height="13.8712" stroke="black" stroke-width="1" fill="blue" opacity="1" tooltip="enable"><title>(0.0132115,98)</title></rect><rect x="102" y="186.27" width="6" height="13.7297" stroke="black" stroke-width="1" fill="blue" opacity="1" tooltip="enable"><title>(0.0140372,97)</title></rect><rect x="108" y="185.987" width="6" height="14.0127" stroke="black" stroke-width="1" fill="blue" opacity="1" tooltip="enable"><title>(0.0148629,99)</title></rect><rect x="114" y="189.101" width="6" height="10.8988" stroke="black" stroke-width="1" fill="blue" opacity="1" tooltip="enable"><title>(0.0156886,77)</title></rect><rect x="120" y="186.27" width="6" height="13.7297" stroke="black" stroke-width="1" fill="blue" opacity="1" tooltip="enable"><title>(0.0165144,97)</title></rect><rect x="126" y="190.517" width="6" height="9.48337" stroke="black" stroke-width="1" fill="blue" opacity="1" tooltip="enable"><title>(0.0173401,67)</title></rect><rect x="132" y="190.375" width="6" height="9.62491" stroke="black" stroke-width="1" fill="blue" opacity="1" tooltip="enable"><title>(0.0181658,68)</title></rect><rect x="138" y="191.932" width="6" height="8.06794" stroke="black" stroke-width="1" fill="blue" opacity="1" tooltip="enable"><title>(0.0189915,57)</title></rect><rect x="144" y="192.074" width="6" height="7.9264" stroke="black" stroke-width="1" fill="blue" opacity="1" tooltip="enable"><title>(0.0198172,56)</title></rect><rect x="150" y="193.772" width="6" height="6.22788" stroke="black" stroke-width="1" fill="blue" opacity="1" tooltip="enable"><title>(0.0206429,44)</title></rect><rect x="156" y="193.206" width="6" height="6.79406" stroke="black" stroke-width="1" fill="blue" opacity="1" tooltip="enable"><title>(0.0214687,48)</title></rect><rect x="162" y="193.631" width="6" height="6.36943" stroke="black" stroke-width="1" fill="blue" opacity="1" tooltip="enable"><title>(0.0222944,45)</title></rect><rect x="168" y="193.064" width="6" height="6.9356" stroke="black" stroke-width="1" fill="blue" opacity="1" tooltip="enable"><title>(0.0231201,49)</title></rect><rect x="174" y="192.781" width="6" height="7.21868" stroke="black" stroke-width="1" fill="blue" opacity="1" tooltip="enable"><title>(0.0239458,51)</title></rect><rect x="180" y="192.923" width="6" height="7.07714" stroke="black" stroke-width="1" fill="blue" opacity="1" tooltip="enable"><title>(0.0247715,50)</title></rect><rect x="186" y="194.197" width="6" height="5.80326" stroke="black" stroke-width="1" fill="blue" opacity="1" tooltip="enable"><title>(0.0255972,41)</title></rect><rect x="192" y="195.329" width="6" height="4.67091" stroke="black" stroke-width="1" fill="blue" opacity="1" tooltip="enable"><title>(0.026423,33)</title></rect><rect x="198" y="193.489" width="6" height="6.51097" stroke="black" stroke-width="1" fill="blue" opacity="1" tooltip="enable"><title>(0.0272487,46)</title></rect><rect x="204" y="192.781" width="6" height="7.21868" stroke="black" stroke-width="1" fill="blue" opacity="1" tooltip="enable"><title>(0.0280744,51)</title></rect><rect x="210" y="197.028" width="6" height="2.9724" stroke="black" stroke-width="1" fill="blue" opacity="1" tooltip="enable"><title>(0.0289001,21)</title></rect><rect x="216" y="195.895" width="6" height="4.10474" stroke="black" stroke-width="1" fill="blue" opacity="1" tooltip="enable"><title>(0.0297258,29)</title></rect><rect x="222" y="196.603" width="6" height="3.39703" stroke="black" stroke-width="1" fill="blue" opacity="1" tooltip="enable"><title>(0.0305515,24)</title></rect><rect x="228" y="196.178" width="6" height="3.82166" stroke="black" stroke-width="1" fill="blue" opacity="1" tooltip="enable"><title>(0.0313773,27)</title></rect><rect x="234" y="196.745" width="6" height="3.25548" stroke="black" stroke-width="1" fill="blue" opacity="1" tooltip="enable"><title>(0.032203,23)</title></rect><rect x="240" y="195.612" width="6" height="4.38783" stroke="black" stroke-width="1" fill="blue" opacity="1" tooltip="enable"><title>(0.0330287,31)</title></rect><rect x="246" y="197.594" width="6" height="2.40623" stroke="black" stroke-width="1" fill="blue" opacity="1" tooltip="enable"><title>(0.0338544,17)</title></rect><rect x="252" y="195.471" width="6" height="4.52937" stroke="black" stroke-width="1" fill="blue" opacity="1" tooltip="enable"><title>(0.0346801,32)</title></rect><rect x="258" y="195.188" width="6" height="4.81246" stroke="black" stroke-width="1" fill="blue" opacity="1" tooltip="enable"><title>(0.0355059,34)</title></rect><rect x="264" y="195.329" width="6" height="4.67091" stroke="black" stroke-width="1" fill="blue" opacity="1" tooltip="enable"><title>(0.0363316,33)</title></rect><rect x="270" y="194.904" width="6" height="5.09554" stroke="black" stroke-width="1" fill="blue" opacity="1" tooltip="enable"><title>(0.0371573,36)</title></rect><rect x="276" y="194.904" width="6" height="5.09554" stroke="black" stroke-width="1" fill="blue" opacity="1" tooltip="enable"><title>(0.037983,36)</title></rect><rect x="282" y="196.745" width="6" height="3.25548" stroke="black" stroke-width="1" fill="blue" opacity="1" tooltip="enable"><title>(0.0388087,23)</title></rect><rect x="288" y="194.055" width="6" height="5.9448" stroke="black" stroke-width="1" fill="blue" opacity="1" tooltip="enable"><title>(0.0396344,42)</title></rect><rect x="294" y="196.037" width="6" height="3.9632" stroke="black" stroke-width="1" fill="blue" opacity="1" tooltip="enable"><title>(0.0404602,28)</title></rect><rect x="300" y="198.868" width="6" height="1.13234" stroke="black" stroke-width="1" fill="blue" opacity="1" tooltip="enable"><title>(0.0412859,8)</title></rect><rect x="306" y="194.904" width="6" height="5.09554" stroke="black" stroke-width="1" fill="blue" opacity="1" tooltip="enable"><title>(0.0421116,36)</title></rect><rect x="312" y="195.471" width="6" height="4.52937" stroke="black" stroke-width="1" fill="blue" opacity="1" tooltip="enable"><title>(0.0429373,32)</title></rect><rect x="318" y="196.461" width="6" height="3.53857" stroke="black" stroke-width="1" fill="blue" opacity="1" tooltip="enable"><title>(0.043763,25)</title></rect><rect x="324" y="198.726" width="6" height="1.27389" stroke="black" stroke-width="1" fill="blue" opacity="1" tooltip="enable"><title>(0.0445887,9)</title></rect><rect x="330" y="197.735" width="6" height="2.26469" stroke="black" stroke-width="1" fill="blue" opacity="1" tooltip="enable"><title>(0.0454145,16)</title></rect><rect x="336" y="195.895" width="6" height="4.10474" stroke="black" stroke-width="1" fill="blue" opacity="1" tooltip="enable"><title>(0.0462402,29)</title></rect><rect x="342" y="196.178" width="6" height="3.82166" stroke="black" stroke-width="1" fill="blue" opacity="1" tooltip="enable"><title>(0.0470659,27)</title></rect><rect x="348" y="197.452" width="6" height="2.54777" stroke="black" stroke-width="1" fill="blue" opacity="1" tooltip="enable"><title>(0.0478916,18)</title></rect><rect x="354" y="198.301" width="6" height="1.69851" stroke="black" stroke-width="1" fill="blue" opacity="1" tooltip="enable"><title>(0.0487173,12)</title></rect><rect x="360" y="197.169" width="6" height="2.83086" stroke="black" stroke-width="1" fill="blue" opacity="1" tooltip="enable"><title>(0.0495431,20)</title></rect><rect x="366" y="198.868" width="6" height="1.13234" stroke="black" stroke-width="1" fill="blue" opacity="1" tooltip="enable"><title>(0.0503688,8)</title></rect><rect x="372" y="196.886" width="6" height="3.11394" stroke="black" stroke-width="1" fill="blue" opacity="1" tooltip="enable"><title>(0.0511945,22)</title></rect><rect x="378" y="197.452" width="6" height="2.54777" stroke="black" stroke-width="1" fill="blue" opacity="1" tooltip="enable"><title>(0.0520202,18)</title></rect><rect x="384" y="198.301" width="6" height="1.69851" stroke="black" stroke-width="1" fill="blue" opacity="1" tooltip="enable"><title>(0.0528459,12)</title></rect><rect x="390" y="197.877" width="6" height="2.12314" stroke="black" stroke-width="1" fill="blue" opacity="1" tooltip="enable"><title>(0.0536716,15)</title></rect><rect x="396" y="198.585" width="6" height="1.41543" stroke="black" stroke-width="1" fill="blue" opacity="1" tooltip="enable"><title>(0.0544974,10)</title></rect><rect x="402" y="197.594" width="6" height="2.40623" stroke="black" stroke-width="1" fill="blue" opacity="1" tooltip="enable"><title>(0.0553231,17)</title></rect><rect x="408" y="198.301" width="6" height="1.69851" stroke="black" stroke-width="1" fill="blue" opacity="1" tooltip="enable"><title>(0.0561488,12)</title></rect><rect x="414" y="198.16" width="6" height="1.84006" stroke="black" stroke-width="1" fill="blue" opacity="1" tooltip="enable"><title>(0.0569745,13)</title></rect><rect x="420" y="199.009" width="6" height="0.9908" stroke="black" stroke-width="1" fill="blue" opacity="1" tooltip="enable"><title>(0.0578002,7)</title></rect><rect x="426" y="198.868" width="6" height="1.13234" stroke="black" stroke-width="1" fill="blue" opacity="1" tooltip="enable"><title>(0.0586259,8)</title></rect><rect x="432" y="199.575" width="6" height="0.424628" stroke="black" stroke-width="1" fill="blue" opacity="1" tooltip="enable"><title>(0.0594517,3)</title></rect><rect x="438" y="197.877" width="6" height="2.12314" stroke="black" stroke-width="1" fill="blue" opacity="1" tooltip="enable"><title>(0.0602774,15)</title></rect><rect x="444" y="199.717" width="6" height="0.283086" stroke="black" stroke-width="1" fill="blue" opacity="1" tooltip="enable"><title>(0.0611031,2)</title></rect><rect x="450" y="200" width="6" height="0" stroke="black" stroke-width="1" fill="blue" opacity="1" tooltip="enable"><title>(0.0619288,0)</title></rect><rect x="456" y="199.292" width="6" height="0.707714" stroke="black" stroke-width="1" fill="blue" opacity="1" tooltip="enable"><title>(0.0627545,5)</title></rect><rect x="462" y="199.009" width="6" height="0.9908" stroke="black" stroke-width="1" fill="blue" opacity="1" tooltip="enable"><title>(0.0635802,7)</title></rect><rect x="468" y="199.434" width="6" height="0.566171" stroke="black" stroke-width="1" fill="blue" opacity="1" tooltip="enable"><title>(0.064406,4)</title></rect><rect x="474" y="199.858" width="6" height="0.141543" stroke="black" stroke-width="1" fill="blue" opacity="1" tooltip="enable"><title>(0.0652317,1)</title></rect><rect x="480" y="199.575" width="6" height="0.424628" stroke="black" stroke-width="1" fill="blue" opacity="1" tooltip="enable"><title>(0.0660574,3)</title></rect><rect x="486" y="199.717" width="6" height="0.283086" stroke="black" stroke-width="1" fill="blue" opacity="1" tooltip="enable"><title>(0.0668831,2)</title></rect><rect x="492" y="200" width="6" height="0" stroke="black" stroke-width="1" fill="blue" opacity="1" tooltip="enable"><title>(0.0677088,0)</title></rect><rect x="498" y="199.717" width="6" height="0.283086" stroke="black" stroke-width="1" fill="blue" opacity="1" tooltip="enable"><title>(0.0685346,2)</title></rect><rect x="504" y="199.717" width="6" height="0.283086" stroke="black" stroke-width="1" fill="blue" opacity="1" tooltip="enable"><title>(0.0693603,2)</title></rect><rect x="510" y="200" width="6" height="0" stroke="black" stroke-width="1" fill="blue" opacity="1" tooltip="enable"><title>(0.070186,0)</title></rect><rect x="516" y="199.858" width="6" height="0.141543" stroke="black" stroke-width="1" fill="blue" opacity="1" tooltip="enable"><title>(0.0710117,1)</title></rect><rect x="522" y="199.575" width="6" height="0.424628" stroke="black" stroke-width="1" fill="blue" opacity="1" tooltip="enable"><title>(0.0718374,3)</title></rect><rect x="528" y="199.717" width="6" height="0.283086" stroke="black" stroke-width="1" fill="blue" opacity="1" tooltip="enable"><title>(0.0726631,2)</title></rect><rect x="534" y="200" width="6" height="0" stroke="black" stroke-width="1" fill="blue" opacity="1" tooltip="enable"><title>(0.0734889,0)</title></rect><rect x="540" y="200" width="6" height="0" stroke="black" stroke-width="1" fill="blue" opacity="1" tooltip="enable"><title>(0.0743146,0)</title></rect><rect x="546" y="200" width="6" height="0" stroke="black" stroke-width="1" fill="blue" opacity="1" tooltip="enable"><title>(0.0751403,0)</title></rect><rect x="552" y="200" width="6" height="0" stroke="black" stroke-width="1" fill="blue" opacity="1" tooltip="enable"><title>(0.075966,0)</title></rect><rect x="558" y="200" width="6" height="0" stroke="black" stroke-width="1" fill="blue" opacity="1" tooltip="enable"><title>(0.0767917,0)</title></rect><rect x="564" y="200" width="6" height="0" stroke="black" stroke-width="1" fill="blue" opacity="1" tooltip="enable"><title>(0.0776174,0)</title></rect><rect x="570" y="199.717" width="6" height="0.283086" stroke="black" stroke-width="1" fill="blue" opacity="1" tooltip="enable"><title>(0.0784432,2)</title></rect><rect x="576" y="199.717" width="6" height="0.283086" stroke="black" stroke-width="1" fill="blue" opacity="1" tooltip="enable"><title>(0.0792689,2)</title></rect><rect x="582" y="200" width="6" height="0" stroke="black" stroke-width="1" fill="blue" opacity="1" tooltip="enable"><title>(0.0800946,0)</title></rect><rect x="588" y="200" width="6" height="0" stroke="black" stroke-width="1" fill="blue" opacity="1" tooltip="enable"><title>(0.0809203,0)</title></rect><rect x="594" y="199.858" width="6" height="0.141543" stroke="black" stroke-width="1" fill="blue" opacity="1" tooltip="enable"><title>(0.081746,1)</title></rect><text x="30" y="240" font-size="20" fill="black">0</text>
<text x="600" y="240" font-size="20" fill="black">0.0825718</text>
<polyline points="0,220,600,220" stroke="black" stroke-width="1" fill="none" opacity="1"/>
<text x="720" y="20" font-size="20" fill="black">1413</text>
<text x="720" y="200" font-size="20" fill="black">0</text>
<polyline points="660,0,660,200" stroke="black" stroke-width="1" fill="none" opacity="1"/>
</svg>