<?xml version="1.0" standalone="yes"?>
<!-- SVG graphic -->
<svg xmlns='http://www.w3.org/2000/svg' xmlns:xlink='http://www.w3.org/1999/xlink'
 version="1.1">
<rect x="0" y="0" width="6" height="200" stroke="black" stroke-width="1" fill="blue" opacity="1" tooltip="enable"><title>(0,1654)</title></rect><rect x="6" y="60.7013" width="6" height="139.299" stroke="black" stroke-width="1" fill="blue" opacity="1" tooltip="enable"><title>(0.00115577,1152)</title></rect><rect x="12" y="111.608" width="6" height="88.3918" stroke="black" stroke-width="1" fill="blue" opacity="1" tooltip="enable"><title>(0.00231154,731)</title></rect><rect x="18" y="128.416" width="6" height="71.584" stroke="black" stroke-width="1" fill="blue" opacity="1" tooltip="enable"><title>(0.00346731,592)</title></rect><rect x="24" y="149.94" width="6" height="50.0605" stroke="black" stroke-width="1" fill="blue" opacity="1" tooltip="enable"><title>(0.00462308,414)</title></rect><rect x="30" y="152.721" width="6" height="47.2793" stroke="black" stroke-width="1" fill="blue" opacity="1" tooltip="enable"><title>(0.00577884,391)</title></rect><rect x="36" y="160.459" width="6" height="39.5405" stroke="black" stroke-width="1" fill="blue" opacity="1" tooltip="enable"><title>(0.00693461,327)</title></rect><rect x="42" y="168.077" width="6" height="31.9226" stroke="black" stroke-width="1" fill="blue" opacity="1" tooltip="enable"><title>(0.00809038,264)</title></rect><rect x="48" y="171.221" width="6" height="28.7787" stroke="black" stroke-width="1" fill="blue" opacity="1" tooltip="enable"><title>(0.00924615,238)</title></rect><rect x="54" y="177.388" width="6" height="22.6118" stroke="black" stroke-width="1" fill="blue" opacity="1" tooltip="enable"><title>(0.0104019,187)</title></rect><rect x="60" y="181.137" width="6" height="18.8634" stroke="black" stroke-width="1" fill="blue" opacity="1" tooltip="enable"><title>(0.0115577,156)</title></rect><rect x="66" y="182.588" width="6" height="17.4123" stroke="black" stroke-width="1" fill="blue" opacity="1" tooltip="enable"><title>(0.0127135,144)</title></rect><rect x="72" y="186.215" width="6" height="13.7848" stroke="black" stroke-width="1" fill="blue" opacity="1" tooltip="enable"><title>(0.0138692,114)</title></rect><rect x="78" y="188.875" width="6" height="11.1245" stroke="black" stroke-width="1" fill="blue" opacity="1" tooltip="enable"><title>(0.015025,92)</title></rect><rect x="84" y="187.304" width="6" height="12.6965" stroke="black" stroke-width="1" fill="blue" opacity="1" tooltip="enable"><title>(0.0161808,105)</title></rect><rect x="90" y="187.424" width="6" height="12.5756" stroke="black" stroke-width="1" fill="blue" opacity="1" tooltip="enable"><title>(0.0173365,104)</title></rect><rect x="96" y="191.415" width="6" height="8.58525" stroke="black" stroke-width="1" fill="blue" opacity="1" tooltip="enable"><title>(0.0184923,71)</title></rect><rect x="102" y="193.47" width="6" height="6.52962" stroke="black" stroke-width="1" fill="blue" opacity="1" tooltip="enable"><title>(0.0196481,54)</title></rect><rect x="108" y="192.019" width="6" height="7.98065" stroke="black" stroke-width="1" fill="blue" opacity="1" tooltip="enable"><title>(0.0208038,66)</title></rect><rect x="114" y="194.921" width="6" height="5.0786" stroke="black" stroke-width="1" fill="blue" opacity="1" tooltip="enable"><title>(0.0219596,42)</title></rect><rect x="120" y="193.833" width="6" height="6.16687" stroke="black" stroke-width="1" fill="blue" opacity="1" tooltip="enable"><title>(0.0231154,51)</title></rect><rect x="126" y="193.349" width="6" height="6.65054" stroke="black" stroke-width="1" fill="blue" opacity="1" tooltip="enable"><title>(0.0242711,55)</title></rect><rect x="132" y="193.954" width="6" height="6.04595" stroke="black" stroke-width="1" fill="blue" opacity="1" tooltip="enable"><title>(0.0254269,50)</title></rect><rect x="138" y="189.964" width="6" height="10.0363" stroke="black" stroke-width="1" fill="blue" opacity="1" tooltip="enable"><title>(0.0265827,83)</title></rect><rect x="144" y="192.14" width="6" height="7.85973" stroke="black" stroke-width="1" fill="blue" opacity="1" tooltip="enable"><title>(0.0277385,65)</title></rect><rect x="150" y="196.252" width="6" height="3.74849" stroke="black" stroke-width="1" fill="blue" opacity="1" tooltip="enable"><title>(0.0288942,31)</title></rect><rect x="156" y="195.042" width="6" height="4.95768" stroke="black" stroke-width="1" fill="blue" opacity="1" tooltip="enable"><title>(0.03005,41)</title></rect><rect x="162" y="196.735" width="6" height="3.26481" stroke="black" stroke-width="1" fill="blue" opacity="1" tooltip="enable"><title>(0.0312058,27)</title></rect><rect x="168" y="196.493" width="6" height="3.50665" stroke="black" stroke-width="1" fill="blue" opacity="1" tooltip="enable"><title>(0.0323615,29)</title></rect><rect x="174" y="195.405" width="6" height="4.59492" stroke="black" stroke-width="1" fill="blue" opacity="1" tooltip="enable"><title>(0.0335173,38)</title></rect><rect x="180" y="197.582" width="6" height="2.41838" stroke="black" stroke-width="1" fill="blue" opacity="1" tooltip="enable"><title>(0.0346731,20)</title></rect><rect x="186" y="197.34" width="6" height="2.66022" stroke="black" stroke-width="1" fill="blue" opacity="1" tooltip="enable"><title>(0.0358288,22)</title></rect><rect x="192" y="195.405" width="6" height="4.59492" stroke="black" stroke-width="1" fill="blue" opacity="1" tooltip="enable"><title>(0.0369846,38)</title></rect><rect x="198" y="196.856" width="6" height="3.14389" stroke="black" stroke-width="1" fill="blue" opacity="1" tooltip="enable"><title>(0.0381404,26)</title></rect><rect x="204" y="196.856" width="6" height="3.14389" stroke="black" stroke-width="1" fill="blue" opacity="1" tooltip="enable"><title>(0.0392961,26)</title></rect><rect x="210" y="197.34" width="6" height="2.66022" stroke="black" stroke-width="1" fill="blue" opacity="1" tooltip="enable"><title>(0.0404519,22)</title></rect><rect x="216" y="195.647" width="6" height="4.35308" stroke="black" stroke-width="1" fill="blue" opacity="1" tooltip="enable"><title>(0.0416077,36)</title></rect><rect x="222" y="198.791" width="6" height="1.20919" stroke="black" stroke-width="1" fill="blue" opacity="1" tooltip="enable"><title>(0.0427634,10)</title></rect><rect x="228" y="196.856" width="6" height="3.14389" stroke="black" stroke-width="1" fill="blue" opacity="1" tooltip="enable"><title>(0.0439192,26)</title></rect><rect x="234" y="197.34" width="6" height="2.66022" stroke="black" stroke-width="1" fill="blue" opacity="1" tooltip="enable"><title>(0.045075,22)</title></rect><rect x="240" y="197.34" width="6" height="2.66022" stroke="black" stroke-width="1" fill="blue" opacity="1" tooltip="enable"><title>(0.0462308,22)</title></rect><rect x="246" y="197.098" width="6" height="2.90206" stroke="black" stroke-width="1" fill="blue" opacity="1" tooltip="enable"><title>(0.0473865,24)</title></rect><rect x="252" y="197.823" width="6" height="2.17654" stroke="black" stroke-width="1" fill="blue" opacity="1" tooltip="enable"><title>(0.0485423,18)</title></rect><rect x="258" y="196.614" width="6" height="3.38573" stroke="black" stroke-width="1" fill="blue" opacity="1" tooltip="enable"><title>(0.0496981,28)</title></rect><rect x="264" y="197.098" width="6" height="2.90206" stroke="black" stroke-width="1" fill="blue" opacity="1" tooltip="enable"><title>(0.0508538,24)</title></rect><rect x="270" y="198.428" width="6" height="1.57195" stroke="black" stroke-width="1" fill="blue" opacity="1" tooltip="enable"><title>(0.0520096,13)</title></rect><rect x="276" y="197.703" width="6" height="2.29746" stroke="black" stroke-width="1" fill="blue" opacity="1" tooltip="enable"><title>(0.0531654,19)</title></rect><rect x="282" y="198.065" width="6" height="1.9347" stroke="black" stroke-width="1" fill="blue" opacity="1" tooltip="enable"><title>(0.0543211,16)</title></rect><rect x="288" y="198.065" width="6" height="1.9347" stroke="black" stroke-width="1" fill="blue" opacity="1" tooltip="enable"><title>(0.0554769,16)</title></rect><rect x="294" y="198.791" width="6" height="1.20919" stroke="black" stroke-width="1" fill="blue" opacity="1" tooltip="enable"><title>(0.0566327,10)</title></rect><rect x="300" y="198.428" width="6" height="1.57195" stroke="black" stroke-width="1" fill="blue" opacity="1" tooltip="enable"><title>(0.0577884,13)</title></rect><rect x="306" y="197.944" width="6" height="2.05562" stroke="black" stroke-width="1" fill="blue" opacity="1" tooltip="enable"><title>(0.0589442,17)</title></rect><rect x="312" y="198.791" width="6" height="1.20919" stroke="black" stroke-width="1" fill="blue" opacity="1" tooltip="enable"><title>(0.0601,10)</title></rect><rect x="318" y="198.791" width="6" height="1.20919" stroke="black" stroke-width="1" fill="blue" opacity="1" tooltip="enable"><title>(0.0612557,10)</title></rect><rect x="324" y="197.823" width="6" height="2.17654" stroke="black" stroke-width="1" fill="blue" opacity="1" tooltip="enable"><title>(0.0624115,18)</title></rect><rect x="330" y="199.516" width="6" height="0.483676" stroke="black" stroke-width="1" fill="blue" opacity="1" tooltip="enable"><title>(0.0635673,4)</title></rect><rect x="336" y="199.516" width="6" height="0.483676" stroke="black" stroke-width="1" fill="blue" opacity="1" tooltip="enable"><title>(0.0647231,4)</title></rect><rect x="342" y="199.033" width="6" height="0.967352" stroke="black" stroke-width="1" fill="blue" opacity="1" tooltip="enable"><title>(0.0658788,8)</title></rect><rect x="348" y="198.549" width="6" height="1.45103" stroke="black" stroke-width="1" fill="blue" opacity="1" tooltip="enable"><title>(0.0670346,12)</title></rect><rect x="354" y="199.758" width="6" height="0.241838" stroke="black" stroke-width="1" fill="blue" opacity="1" tooltip="enable"><title>(0.0681904,2)</title></rect><rect x="360" y="199.274" width="6" height="0.725514" stroke="black" stroke-width="1" fill="blue" opacity="1" tooltip="enable"><title>(0.0693461,6)</title></rect><rect x="366" y="199.033" width="6" height="0.967352" stroke="black" stroke-width="1" fill="blue" opacity="1" tooltip="enable"><title>(0.0705019,8)</title></rect><rect x="372" y="199.516" width="6" height="0.483676" stroke="black" stroke-width="1" fill="blue" opacity="1" tooltip="enable"><title>(0.0716577,4)</title></rect><rect x="378" y="200" width="6" height="0" stroke="black" stroke-width="1" fill="blue" opacity="1" tooltip="enable"><title>(0.0728134,0)</title></rect><rect x="384" y="199.033" width="6" height="0.967352" stroke="black" stroke-width="1" fill="blue" opacity="1" tooltip="enable"><title>(0.0739692,8)</title></rect><rect x="390" y="198.549" width="6" height="1.45103" stroke="black" stroke-width="1" fill="blue" opacity="1" tooltip="enable"><title>(0.075125,12)</title></rect><rect x="396" y="199.033" width="6" height="0.967352" stroke="black" stroke-width="1" fill="blue" opacity="1" tooltip="enable"><title>(0.0762808,8)</title></rect><rect x="402" y="199.274" width="6" height="0.725514" stroke="black" stroke-width="1" fill="blue" opacity="1" tooltip="enable"><title>(0.0774365,6)</title></rect><rect x="408" y="199.274" width="6" height="0.725514" stroke="black" stroke-width="1" fill="blue" opacity="1" tooltip="enable"><title>(0.0785923,6)</title></rect><rect x="414" y="199.758" width="6" height="0.241838" stroke="black" stroke-width="1" fill="blue" opacity="1" tooltip="enable"><title>(0.079748,2)</title></rect><rect x="420" y="200" width="6" height="0" stroke="black" stroke-width="1" fill="blue" opacity="1" tooltip="enable"><title>(0.0809038,0)</title></rect><rect x="426" y="200" width="6" height="0" stroke="black" stroke-width="1" fill="blue" opacity="1" tooltip="enable"><title>(0.0820596,0)</title></rect><rect x="432" y="199.758" width="6" height="0.241838" stroke="black" stroke-width="1" fill="blue" opacity="1" tooltip="enable"><title>(0.0832154,2)</title></rect><rect x="438" y="199.516" width="6" height="0.483676" stroke="black" stroke-width="1" fill="blue" opacity="1" tooltip="enable"><title>(0.0843711,4)</title></rect><rect x="444" y="200" width="6" height="0" stroke="black" stroke-width="1" fill="blue" opacity="1" tooltip="enable"><title>(0.0855269,0)</title></rect><rect x="450" y="200" width="6" height="0" stroke="black" stroke-width="1" fill="blue" opacity="1" tooltip="enable"><title>(0.0866827,0)</title></rect><rect x="456" y="199.274" width="6" height="0.725514" stroke="black" stroke-width="1" fill="blue" opacity="1" tooltip="enable"><title>(0.0878384,6)</title></rect><rect x="462" y="200" width="6" height="0" stroke="black" stroke-width="1" fill="blue" opacity="1" tooltip="enable"><title>(0.0889942,0)</title></rect><rect x="468" y="199.516" width="6" height="0.483676" stroke="black" stroke-width="1" fill="blue" opacity="1" tooltip="enable"><title>(0.09015,4)</title></rect><rect x="474" y="199.758" width="6" height="0.241838" stroke="black" stroke-width="1" fill="blue" opacity="1" tooltip="enable"><title>(0.0913057,2)</title></rect><rect x="480" y="200" width="6" height="0" stroke="black" stroke-width="1" fill="blue" opacity="1" tooltip="enable"><title>(0.0924615,0)</title></rect><rect x="486" y="200" width="6" height="0" stroke="black" stroke-width="1" fill="blue" opacity="1" tooltip="enable"><title>(0.0936173,0)</title></rect><rect x="492" y="200" width="6" height="0" stroke="black" stroke-width="1" fill="blue" opacity="1" tooltip="enable"><title>(0.094773,0)</title></rect><rect x="498" y="200" width="6" height="0" stroke="black" stroke-width="1" fill="blue" opacity="1" tooltip="enable"><title>(0.0959288,0)</title></rect><rect x="504" y="200" width="6" height="0" stroke="black" stroke-width="1" fill="blue" opacity="1" tooltip="enable"><title>(0.0970846,0)</title></rect><rect x="510" y="200" width="6" height="0" stroke="black" stroke-width="1" fill="blue" opacity="1" tooltip="enable"><title>(0.0982404,0)</title></rect><rect x="516" y="200" width="6" height="0" stroke="black" stroke-width="1" fill="blue" opacity="1" tooltip="enable"><title>(0.0993961,0)</title></rect><rect x="522" y="200" width="6" height="0" stroke="black" stroke-width="1" fill="blue" opacity="1" tooltip="enable"><title>(0.100552,0)</title></rect><rect x="528" y="200" width="6" height="0" stroke="black" stroke-width="1" fill="blue" opacity="1" tooltip="enable"><title>(0.101708,0)</title></rect><rect x="534" y="199.758" width="6" height="0.241838" stroke="black" stroke-width="1" fill="blue" opacity="1" tooltip="enable"><title>(0.102863,2)</title></rect><rect x="540" y="200" width="6" height="0" stroke="black" stroke-width="1" fill="blue" opacity="1" tooltip="enable"><title>(0.104019,0)</title></rect><rect x="546" y="200" width="6" height="0" stroke="black" stroke-width="1" fill="blue" opacity="1" tooltip="enable"><title>(0.105175,0)</title></rect><rect x="552" y="199.516" width="6" height="0.483676" stroke="black" stroke-width="1" fill="blue" opacity="1" tooltip="enable"><title>(0.106331,4)</title></rect><rect x="558" y="199.758" width="6" height="0.241838" stroke="black" stroke-width="1" fill="blue" opacity="1" tooltip="enable"><title>(0.107487,2)</title></rect><rect x="564" y="199.879" width="6" height="0.120919" stroke="black" stroke-width="1" fill="blue" opacity="1" tooltip="enable"><title>(0.108642,1)</title></rect><rect x="570" y="199.879" width="6" height="0.120919" stroke="black" stroke-width="1" fill="blue" opacity="1" tooltip="enable"><title>(0.109798,1)</title></rect><rect x="576" y="199.516" width="6" height="0.483676" stroke="black" stroke-width="1" fill="blue" opacity="1" tooltip="enable"><title>(0.110954,4)</title></rect><rect x="582" y="200" width="6" height="0" stroke="black" stroke-width="1" fill="blue" opacity="1" tooltip="enable"><title>(0.11211,0)</title></rect><rect x="588" y="199.758" width="6" height="0.241838" stroke="black" stroke-width="1" fill="blue" opacity="1" tooltip="enable"><title>(0.113265,2)</title></rect><rect x="594" y="199.879" width="6" height="0.120919" stroke="black" stroke-width="1" fill="blue" opacity="1" tooltip="enable"><title>(0.114421,1)</title></rect><text x="30" y="240" font-size="20" fill="black">0</text>
<text x="600" y="240" font-size="20" fill="black">0.115577</text>
<polyline points="0,220,600,220" stroke="black" stroke-width="1" fill="none" opacity="1"/>
<text x="720" y="20" font-size="20" fill="black">1654</text>
<text x="720" y="200" font-size="20" fill="black">0</text>
<polyline points="660,0,660,200" stroke="black" stroke-width="1" fill="none" opacity="1"/>
</svg>