<?xml version="1.0" standalone="yes"?>
<!-- SVG graphic -->
<svg xmlns='http://www.w3.org/2000/svg' xmlns:xlink='http://www.w3.org/1999/xlink'
 version="1.1">
<rect x="0" y="0" width="6" height="200" stroke="black" stroke-width="1" fill="blue" opacity="1" tooltip="enable"><title>(0,2002)</title></rect><rect x="6" y="35.964" width="6" height="164.036" stroke="black" stroke-width="1" fill="blue" opacity="1" tooltip="enable"><title>(0.00166083,1642)</title></rect><rect x="12" y="126.474" width="6" height="73.5265" stroke="black" stroke-width="1" fill="blue" opacity="1" tooltip="enable"><title>(0.00332166,736)</title></rect><rect x="18" y="176.124" width="6" height="23.8761" stroke="black" stroke-width="1" fill="blue" opacity="1" tooltip="enable"><title>(0.00498249,239)</title></rect><rect x="24" y="180.32" width="6" height="19.6803" stroke="black" stroke-width="1" fill="blue" opacity="1" tooltip="enable"><title>(0.00664332,197)</title></rect><rect x="30" y="184.515" width="6" height="15.4845" stroke="black" stroke-width="1" fill="blue" opacity="1" tooltip="enable"><title>(0.00830415,155)</title></rect><rect x="36" y="181.518" width="6" height="18.4815" stroke="black" stroke-width="1" fill="blue" opacity="1" tooltip="enable"><title>(0.00996497,185)</title></rect><rect x="42" y="183.816" width="6" height="16.1838" stroke="black" stroke-width="1" fill="blue" opacity="1" tooltip="enable"><title>(0.0116258,162)</title></rect><rect x="48" y="183.017" width="6" height="16.983" stroke="black" stroke-width="1" fill="blue" opacity="1" tooltip="enable"><title>(0.0132866,170)</title></rect><rect x="54" y="181.518" width="6" height="18.4815" stroke="black" stroke-width="1" fill="blue" opacity="1" tooltip="enable"><title>(0.0149475,185)</title></rect><rect x="60" y="186.913" width="6" height="13.0869" stroke="black" stroke-width="1" fill="blue" opacity="1" tooltip="enable"><title>(0.0166083,131)</title></rect><rect x="66" y="181.419" width="6" height="18.5814" stroke="black" stroke-width="1" fill="blue" opacity="1" tooltip="enable"><title>(0.0182691,186)</title></rect><rect x="72" y="181.518" width="6" height="18.4815" stroke="black" stroke-width="1" fill="blue" opacity="1" tooltip="enable"><title>(0.0199299,185)</title></rect><rect x="78" y="184.915" width="6" height="15.0849" stroke="black" stroke-width="1" fill="blue" opacity="1" tooltip="enable"><title>(0.0215908,151)</title></rect><rect x="84" y="186.114" width="6" height="13.8861" stroke="black" stroke-width="1" fill="blue" opacity="1" tooltip="enable"><title>(0.0232516,139)</title></rect><rect x="90" y="186.913" width="6" height="13.0869" stroke="black" stroke-width="1" fill="blue" opacity="1" tooltip="enable"><title>(0.0249124,131)</title></rect><rect x="96" y="187.113" width="6" height="12.8871" stroke="black" stroke-width="1" fill="blue" opacity="1" tooltip="enable"><title>(0.0265733,129)</title></rect><rect x="102" y="187.912" width="6" height="12.0879" stroke="black" stroke-width="1" fill="blue" opacity="1" tooltip="enable"><title>(0.0282341,121)</title></rect><rect x="108" y="187.812" width="6" height="12.1878" stroke="black" stroke-width="1" fill="blue" opacity="1" tooltip="enable"><title>(0.0298949,122)</title></rect><rect x="114" y="185.015" width="6" height="14.985" stroke="black" stroke-width="1" fill="blue" opacity="1" tooltip="enable"><title>(0.0315557,150)</title></rect><rect x="120" y="190.809" width="6" height="9.19081" stroke="black" stroke-width="1" fill="blue" opacity="1" tooltip="enable"><title>(0.0332166,92)</title></rect><rect x="126" y="192.208" width="6" height="7.79221" stroke="black" stroke-width="1" fill="blue" opacity="1" tooltip="enable"><title>(0.0348774,78)</title></rect><rect x="132" y="190.609" width="6" height="9.39061" stroke="black" stroke-width="1" fill="blue" opacity="1" tooltip="enable"><title>(0.0365382,94)</title></rect><rect x="138" y="192.008" width="6" height="7.99201" stroke="black" stroke-width="1" fill="blue" opacity="1" tooltip="enable"><title>(0.0381991,80)</title></rect><rect x="144" y="194.206" width="6" height="5.79421" stroke="black" stroke-width="1" fill="blue" opacity="1" tooltip="enable"><title>(0.0398599,58)</title></rect><rect x="150" y="195.105" width="6" height="4.8951" stroke="black" stroke-width="1" fill="blue" opacity="1" tooltip="enable"><title>(0.0415207,49)</title></rect><rect x="156" y="193.107" width="6" height="6.89311" stroke="black" stroke-width="1" fill="blue" opacity="1" tooltip="enable"><title>(0.0431816,69)</title></rect><rect x="162" y="194.106" width="6" height="5.89411" stroke="black" stroke-width="1" fill="blue" opacity="1" tooltip="enable"><title>(0.0448424,59)</title></rect><rect x="168" y="195.704" width="6" height="4.2957" stroke="black" stroke-width="1" fill="blue" opacity="1" tooltip="enable"><title>(0.0465032,43)</title></rect><rect x="174" y="195.704" width="6" height="4.2957" stroke="black" stroke-width="1" fill="blue" opacity="1" tooltip="enable"><title>(0.048164,43)</title></rect><rect x="180" y="196.903" width="6" height="3.0969" stroke="black" stroke-width="1" fill="blue" opacity="1" tooltip="enable"><title>(0.0498249,31)</title></rect><rect x="186" y="197.303" width="6" height="2.6973" stroke="black" stroke-width="1" fill="blue" opacity="1" tooltip="enable"><title>(0.0514857,27)</title></rect><rect x="192" y="197.702" width="6" height="2.2977" stroke="black" stroke-width="1" fill="blue" opacity="1" tooltip="enable"><title>(0.0531465,23)</title></rect><rect x="198" y="198.601" width="6" height="1.3986" stroke="black" stroke-width="1" fill="blue" opacity="1" tooltip="enable"><title>(0.0548074,14)</title></rect><rect x="204" y="198.002" width="6" height="1.998" stroke="black" stroke-width="1" fill="blue" opacity="1" tooltip="enable"><title>(0.0564682,20)</title></rect><rect x="210" y="198.002" width="6" height="1.998" stroke="black" stroke-width="1" fill="blue" opacity="1" tooltip="enable"><title>(0.058129,20)</title></rect><rect x="216" y="199.001" width="6" height="0.999001" stroke="black" stroke-width="1" fill="blue" opacity="1" tooltip="enable"><title>(0.0597898,10)</title></rect><rect x="222" y="199.401" width="6" height="0.599401" stroke="black" stroke-width="1" fill="blue" opacity="1" tooltip="enable"><title>(0.0614507,6)</title></rect><rect x="228" y="199.6" width="6" height="0.3996" stroke="black" stroke-width="1" fill="blue" opacity="1" tooltip="enable"><title>(0.0631115,4)</title></rect><rect x="234" y="199.201" width="6" height="0.799201" stroke="black" stroke-width="1" fill="blue" opacity="1" tooltip="enable"><title>(0.0647723,8)</title></rect><rect x="240" y="199.8" width="6" height="0.1998" stroke="black" stroke-width="1" fill="blue" opacity="1" tooltip="enable"><title>(0.0664332,2)</title></rect><rect x="246" y="200" width="6" height="0" stroke="black" stroke-width="1" fill="blue" opacity="1" tooltip="enable"><title>(0.068094,0)</title></rect><rect x="252" y="199.6" width="6" height="0.3996" stroke="black" stroke-width="1" fill="blue" opacity="1" tooltip="enable"><title>(0.0697548,4)</title></rect><rect x="258" y="200" width="6" height="0" stroke="black" stroke-width="1" fill="blue" opacity="1" tooltip="enable"><title>(0.0714156,0)</title></rect><rect x="264" y="199.401" width="6" height="0.599401" stroke="black" stroke-width="1" fill="blue" opacity="1" tooltip="enable"><title>(0.0730765,6)</title></rect><rect x="270" y="199.401" width="6" height="0.599401" stroke="black" stroke-width="1" fill="blue" opacity="1" tooltip="enable"><title>(0.0747373,6)</title></rect><rect x="276" y="199.8" width="6" height="0.1998" stroke="black" stroke-width="1" fill="blue" opacity="1" tooltip="enable"><title>(0.0763981,2)</title></rect><rect x="282" y="199.6" width="6" height="0.3996" stroke="black" stroke-width="1" fill="blue" opacity="1" tooltip="enable"><title>(0.078059,4)</title></rect><rect x="288" y="200" width="6" height="0" stroke="black" stroke-width="1" fill="blue" opacity="1" tooltip="enable"><title>(0.0797198,0)</title></rect><rect x="294" y="200" width="6" height="0" stroke="black" stroke-width="1" fill="blue" opacity="1" tooltip="enable"><title>(0.0813806,0)</title></rect><rect x="300" y="200" width="6" height="0" stroke="black" stroke-width="1" fill="blue" opacity="1" tooltip="enable"><title>(0.0830415,0)</title></rect><rect x="306" y="199.6" width="6" height="0.3996" stroke="black" stroke-width="1" fill="blue" opacity="1" tooltip="enable"><title>(0.0847023,4)</title></rect><rect x="312" y="200" width="6" height="0" stroke="black" stroke-width="1" fill="blue" opacity="1" tooltip="enable"><title>(0.0863631,0)</title></rect><rect x="318" y="199.6" width="6" height="0.3996" stroke="black" stroke-width="1" fill="blue" opacity="1" tooltip="enable"><title>(0.0880239,4)</title></rect><rect x="324" y="199.8" width="6" height="0.1998" stroke="black" stroke-width="1" fill="blue" opacity="1" tooltip="enable"><title>(0.0896848,2)</title></rect><rect x="330" y="200" width="6" height="0" stroke="black" stroke-width="1" fill="blue" opacity="1" tooltip="enable"><title>(0.0913456,0)</title></rect><rect x="336" y="200" width="6" height="0" stroke="black" stroke-width="1" fill="blue" opacity="1" tooltip="enable"><title>(0.0930064,0)</title></rect><rect x="342" y="199.8" width="6" height="0.1998" stroke="black" stroke-width="1" fill="blue" opacity="1" tooltip="enable"><title>(0.0946673,2)</title></rect><rect x="348" y="200" width="6" height="0" stroke="black" stroke-width="1" fill="blue" opacity="1" tooltip="enable"><title>(0.0963281,0)</title></rect><rect x="354" y="200" width="6" height="0" stroke="black" stroke-width="1" fill="blue" opacity="1" tooltip="enable"><title>(0.0979889,0)</title></rect><rect x="360" y="199.6" width="6" height="0.3996" stroke="black" stroke-width="1" fill="blue" opacity="1" tooltip="enable"><title>(0.0996497,4)</title></rect><rect x="366" y="199.6" width="6" height="0.3996" stroke="black" stroke-width="1" fill="blue" opacity="1" tooltip="enable"><title>(0.101311,4)</title></rect><rect x="372" y="200" width="6" height="0" stroke="black" stroke-width="1" fill="blue" opacity="1" tooltip="enable"><title>(0.102971,0)</title></rect><rect x="378" y="200" width="6" height="0" stroke="black" stroke-width="1" fill="blue" opacity="1" tooltip="enable"><title>(0.104632,0)</title></rect><rect x="384" y="200" width="6" height="0" stroke="black" stroke-width="1" fill="blue" opacity="1" tooltip="enable"><title>(0.106293,0)</title></rect><rect x="390" y="200" width="6" height="0" stroke="black" stroke-width="1" fill="blue" opacity="1" tooltip="enable"><title>(0.107954,0)</title></rect><rect x="396" y="199.6" width="6" height="0.3996" stroke="black" stroke-width="1" fill="blue" opacity="1" tooltip="enable"><title>(0.109615,4)</title></rect><rect x="402" y="199.8" width="6" height="0.1998" stroke="black" stroke-width="1" fill="blue" opacity="1" tooltip="enable"><title>(0.111276,2)</title></rect><rect x="408" y="200" width="6" height="0" stroke="black" stroke-width="1" fill="blue" opacity="1" tooltip="enable"><title>(0.112936,0)</title></rect><rect x="414" y="200" width="6" height="0" stroke="black" stroke-width="1" fill="blue" opacity="1" tooltip="enable"><title>(0.114597,0)</title></rect><rect x="420" y="200" width="6" height="0" stroke="black" stroke-width="1" fill="blue" opacity="1" tooltip="enable"><title>(0.116258,0)</title></rect><rect x="426" y="200" width="6" height="0" stroke="black" stroke-width="1" fill="blue" opacity="1" tooltip="enable"><title>(0.117919,0)</title></rect><rect x="432" y="199.8" width="6" height="0.1998" stroke="black" stroke-width="1" fill="blue" opacity="1" tooltip="enable"><title>(0.11958,2)</title></rect><rect x="438" y="200" width="6" height="0" stroke="black" stroke-width="1" fill="blue" opacity="1" tooltip="enable"><title>(0.121241,0)</title></rect><rect x="444" y="200" width="6" height="0" stroke="black" stroke-width="1" fill="blue" opacity="1" tooltip="enable"><title>(0.122901,0)</title></rect><rect x="450" y="200" width="6" height="0" stroke="black" stroke-width="1" fill="blue" opacity="1" tooltip="enable"><title>(0.124562,0)</title></rect><rect x="456" y="200" width="6" height="0" stroke="black" stroke-width="1" fill="blue" opacity="1" tooltip="enable"><title>(0.126223,0)</title></rect><rect x="462" y="200" width="6" height="0" stroke="black" stroke-width="1" fill="blue" opacity="1" tooltip="enable"><title>(0.127884,0)</title></rect><rect x="468" y="200" width="6" height="0" stroke="black" stroke-width="1" fill="blue" opacity="1" tooltip="enable"><title>(0.129545,0)</title></rect><rect x="474" y="200" width="6" height="0" stroke="black" stroke-width="1" fill="blue" opacity="1" tooltip="enable"><title>(0.131205,0)</title></rect><rect x="480" y="200" width="6" height="0" stroke="black" stroke-width="1" fill="blue" opacity="1" tooltip="enable"><title>(0.132866,0)</title></rect><rect x="486" y="200" width="6" height="0" stroke="black" stroke-width="1" fill="blue" opacity="1" tooltip="enable"><title>(0.134527,0)</title></rect><rect x="492" y="200" width="6" height="0" stroke="black" stroke-width="1" fill="blue" opacity="1" tooltip="enable"><title>(0.136188,0)</title></rect><rect x="498" y="200" width="6" height="0" stroke="black" stroke-width="1" fill="blue" opacity="1" tooltip="enable"><title>(0.137849,0)</title></rect><rect x="504" y="200" width="6" height="0" stroke="black" stroke-width="1" fill="blue" opacity="1" tooltip="enable"><title>(0.13951,0)</title></rect><rect x="510" y="200" width="6" height="0" stroke="black" stroke-width="1" fill="blue" opacity="1" tooltip="enable"><title>(0.14117,0)</title></rect><rect x="516" y="200" width="6" height="0" stroke="black" stroke-width="1" fill="blue" opacity="1" tooltip="enable"><title>(0.142831,0)</title></rect><rect x="522" y="200" width="6" height="0" stroke="black" stroke-width="1" fill="blue" opacity="1" tooltip="enable"><title>(0.144492,0)</title></rect><rect x="528" y="200" width="6" height="0" stroke="black" stroke-width="1" fill="blue" opacity="1" tooltip="enable"><title>(0.146153,0)</title></rect><rect x="534" y="200" width="6" height="0" stroke="black" stroke-width="1" fill="blue" opacity="1" tooltip="enable"><title>(0.147814,0)</title></rect><rect x="540" y="200" width="6" height="0" stroke="black" stroke-width="1" fill="blue" opacity="1" tooltip="enable"><title>(0.149475,0)</title></rect><rect x="546" y="200" width="6" height="0" stroke="black" stroke-width="1" fill="blue" opacity="1" tooltip="enable"><title>(0.151135,0)</title></rect><rect x="552" y="200" width="6" height="0" stroke="black" stroke-width="1" fill="blue" opacity="1" tooltip="enable"><title>(0.152796,0)</title></rect><rect x="558" y="200" width="6" height="0" stroke="black" stroke-width="1" fill="blue" opacity="1" tooltip="enable"><title>(0.154457,0)</title></rect><rect x="564" y="200" width="6" height="0" stroke="black" stroke-width="1" fill="blue" opacity="1" tooltip="enable"><title>(0.156118,0)</title></rect><rect x="570" y="200" width="6" height="0" stroke="black" stroke-width="1" fill="blue" opacity="1" tooltip="enable"><title>(0.157779,0)</title></rect><rect x="576" y="200" width="6" height="0" stroke="black" stroke-width="1" fill="blue" opacity="1" tooltip="enable"><title>(0.15944,0)</title></rect><rect x="582" y="200" width="6" height="0" stroke="black" stroke-width="1" fill="blue" opacity="1" tooltip="enable"><title>(0.1611,0)</title></rect><rect x="588" y="200" width="6" height="0" stroke="black" stroke-width="1" fill="blue" opacity="1" tooltip="enable"><title>(0.162761,0)</title></rect><rect x="594" y="199.9" width="6" height="0.0999001" stroke="black" stroke-width="1" fill="blue" opacity="1" tooltip="enable"><title>(0.164422,1)</title></rect><text x="30" y="240" font-size="20" fill="black">0</text>
<text x="600" y="240" font-size="20" fill="black">0.166083</text>
<polyline points="0,220,600,220" stroke="black" stroke-width="1" fill="none" opacity="1"/>
<text x="720" y="20" font-size="20" fill="black">2002</text>
<text x="720" y="200" font-size="20" fill="black">0</text>
<polyline points="660,0,660,200" stroke="black" stroke-width="1" fill="none" opacity="1"/>
</svg>