<?xml version="1.0" standalone="yes"?>
<!-- SVG graphic -->
<svg xmlns='http://www.w3.org/2000/svg' xmlns:xlink='http://www.w3.org/1999/xlink'
 version="1.1">
<rect x="0" y="10.9737" width="6" height="189.026" stroke="black" stroke-width="1" fill="blue" opacity="1" tooltip="enable"><title>(0,1223)</title></rect><rect x="6" y="21.6383" width="6" height="178.362" stroke="black" stroke-width="1" fill="blue" opacity="1" tooltip="enable"><title>(0.00126781,1154)</title></rect><rect x="12" y="0" width="6" height="200" stroke="black" stroke-width="1" fill="blue" opacity="1" tooltip="enable"><title>(0.00253563,1294)</title></rect><rect x="18" y="125.039" width="6" height="74.9614" stroke="black" stroke-width="1" fill="blue" opacity="1" tooltip="enable"><title>(0.00380344,485)</title></rect><rect x="24" y="168.47" width="6" height="31.5301" stroke="black" stroke-width="1" fill="blue" opacity="1" tooltip="enable"><title>(0.00507125,204)</title></rect><rect x="30" y="170.015" width="6" height="29.9845" stroke="black" stroke-width="1" fill="blue" opacity="1" tooltip="enable"><title>(0.00633907,194)</title></rect><rect x="36" y="180.989" width="6" height="19.0108" stroke="black" stroke-width="1" fill="blue" opacity="1" tooltip="enable"><title>(0.00760688,123)</title></rect><rect x="42" y="185.317" width="6" height="14.6832" stroke="black" stroke-width="1" fill="blue" opacity="1" tooltip="enable"><title>(0.00887469,95)</title></rect><rect x="48" y="183.617" width="6" height="16.3833" stroke="black" stroke-width="1" fill="blue" opacity="1" tooltip="enable"><title>(0.0101425,106)</title></rect><rect x="54" y="185.162" width="6" height="14.8377" stroke="black" stroke-width="1" fill="blue" opacity="1" tooltip="enable"><title>(0.0114103,96)</title></rect><rect x="60" y="180.062" width="6" height="19.9382" stroke="black" stroke-width="1" fill="blue" opacity="1" tooltip="enable"><title>(0.0126781,129)</title></rect><rect x="66" y="181.917" width="6" height="18.0835" stroke="black" stroke-width="1" fill="blue" opacity="1" tooltip="enable"><title>(0.0139459,117)</title></rect><rect x="72" y="185.935" width="6" height="14.0649" stroke="black" stroke-width="1" fill="blue" opacity="1" tooltip="enable"><title>(0.0152138,91)</title></rect><rect x="78" y="185.626" width="6" height="14.374" stroke="black" stroke-width="1" fill="blue" opacity="1" tooltip="enable"><title>(0.0164816,93)</title></rect><rect x="84" y="187.326" width="6" height="12.6739" stroke="black" stroke-width="1" fill="blue" opacity="1" tooltip="enable"><title>(0.0177494,82)</title></rect><rect x="90" y="187.172" width="6" height="12.8284" stroke="black" stroke-width="1" fill="blue" opacity="1" tooltip="enable"><title>(0.0190172,83)</title></rect><rect x="96" y="183.771" width="6" height="16.2287" stroke="black" stroke-width="1" fill="blue" opacity="1" tooltip="enable"><title>(0.020285,105)</title></rect><rect x="102" y="186.708" width="6" height="13.2921" stroke="black" stroke-width="1" fill="blue" opacity="1" tooltip="enable"><title>(0.0215528,86)</title></rect><rect x="108" y="186.244" width="6" height="13.7558" stroke="black" stroke-width="1" fill="blue" opacity="1" tooltip="enable"><title>(0.0228206,89)</title></rect><rect x="114" y="185.781" width="6" height="14.2195" stroke="black" stroke-width="1" fill="blue" opacity="1" tooltip="enable"><title>(0.0240884,92)</title></rect><rect x="120" y="179.753" width="6" height="20.2473" stroke="black" stroke-width="1" fill="blue" opacity="1" tooltip="enable"><title>(0.0253563,131)</title></rect><rect x="126" y="182.071" width="6" height="17.9289" stroke="black" stroke-width="1" fill="blue" opacity="1" tooltip="enable"><title>(0.0266241,116)</title></rect><rect x="132" y="178.671" width="6" height="21.3292" stroke="black" stroke-width="1" fill="blue" opacity="1" tooltip="enable"><title>(0.0278919,138)</title></rect><rect x="138" y="181.453" width="6" height="18.5471" stroke="black" stroke-width="1" fill="blue" opacity="1" tooltip="enable"><title>(0.0291597,120)</title></rect><rect x="144" y="184.389" width="6" height="15.6105" stroke="black" stroke-width="1" fill="blue" opacity="1" tooltip="enable"><title>(0.0304275,101)</title></rect><rect x="150" y="183.771" width="6" height="16.2287" stroke="black" stroke-width="1" fill="blue" opacity="1" tooltip="enable"><title>(0.0316953,105)</title></rect><rect x="156" y="187.017" width="6" height="12.983" stroke="black" stroke-width="1" fill="blue" opacity="1" tooltip="enable"><title>(0.0329631,84)</title></rect><rect x="162" y="181.298" width="6" height="18.7017" stroke="black" stroke-width="1" fill="blue" opacity="1" tooltip="enable"><title>(0.034231,121)</title></rect><rect x="168" y="188.408" width="6" height="11.592" stroke="black" stroke-width="1" fill="blue" opacity="1" tooltip="enable"><title>(0.0354988,75)</title></rect><rect x="174" y="184.235" width="6" height="15.7651" stroke="black" stroke-width="1" fill="blue" opacity="1" tooltip="enable"><title>(0.0367666,102)</title></rect><rect x="180" y="187.481" width="6" height="12.5193" stroke="black" stroke-width="1" fill="blue" opacity="1" tooltip="enable"><title>(0.0380344,81)</title></rect><rect x="186" y="185.317" width="6" height="14.6832" stroke="black" stroke-width="1" fill="blue" opacity="1" tooltip="enable"><title>(0.0393022,95)</title></rect><rect x="192" y="190.726" width="6" height="9.27357" stroke="black" stroke-width="1" fill="blue" opacity="1" tooltip="enable"><title>(0.04057,60)</title></rect><rect x="198" y="187.635" width="6" height="12.3648" stroke="black" stroke-width="1" fill="blue" opacity="1" tooltip="enable"><title>(0.0418378,80)</title></rect><rect x="204" y="190.572" width="6" height="9.42813" stroke="black" stroke-width="1" fill="blue" opacity="1" tooltip="enable"><title>(0.0431056,61)</title></rect><rect x="210" y="189.954" width="6" height="10.0464" stroke="black" stroke-width="1" fill="blue" opacity="1" tooltip="enable"><title>(0.0443735,65)</title></rect><rect x="216" y="191.808" width="6" height="8.19165" stroke="black" stroke-width="1" fill="blue" opacity="1" tooltip="enable"><title>(0.0456413,53)</title></rect><rect x="222" y="191.036" width="6" height="8.96445" stroke="black" stroke-width="1" fill="blue" opacity="1" tooltip="enable"><title>(0.0469091,58)</title></rect><rect x="228" y="191.963" width="6" height="8.03709" stroke="black" stroke-width="1" fill="blue" opacity="1" tooltip="enable"><title>(0.0481769,52)</title></rect><rect x="234" y="193.199" width="6" height="6.80062" stroke="black" stroke-width="1" fill="blue" opacity="1" tooltip="enable"><title>(0.0494447,44)</title></rect><rect x="240" y="196.754" width="6" height="3.24575" stroke="black" stroke-width="1" fill="blue" opacity="1" tooltip="enable"><title>(0.0507125,21)</title></rect><rect x="246" y="196.909" width="6" height="3.09119" stroke="black" stroke-width="1" fill="blue" opacity="1" tooltip="enable"><title>(0.0519803,20)</title></rect><rect x="252" y="197.218" width="6" height="2.78207" stroke="black" stroke-width="1" fill="blue" opacity="1" tooltip="enable"><title>(0.0532482,18)</title></rect><rect x="258" y="195.981" width="6" height="4.01855" stroke="black" stroke-width="1" fill="blue" opacity="1" tooltip="enable"><title>(0.054516,26)</title></rect><rect x="264" y="197.063" width="6" height="2.93663" stroke="black" stroke-width="1" fill="blue" opacity="1" tooltip="enable"><title>(0.0557838,19)</title></rect><rect x="270" y="198.609" width="6" height="1.39104" stroke="black" stroke-width="1" fill="blue" opacity="1" tooltip="enable"><title>(0.0570516,9)</title></rect><rect x="276" y="198.609" width="6" height="1.39104" stroke="black" stroke-width="1" fill="blue" opacity="1" tooltip="enable"><title>(0.0583194,9)</title></rect><rect x="282" y="198.918" width="6" height="1.08192" stroke="black" stroke-width="1" fill="blue" opacity="1" tooltip="enable"><title>(0.0595872,7)</title></rect><rect x="288" y="199.382" width="6" height="0.618238" stroke="black" stroke-width="1" fill="blue" opacity="1" tooltip="enable"><title>(0.060855,4)</title></rect><rect x="294" y="198.454" width="6" height="1.5456" stroke="black" stroke-width="1" fill="blue" opacity="1" tooltip="enable"><title>(0.0621228,10)</title></rect><rect x="300" y="197.836" width="6" height="2.16383" stroke="black" stroke-width="1" fill="blue" opacity="1" tooltip="enable"><title>(0.0633907,14)</title></rect><rect x="306" y="198.918" width="6" height="1.08192" stroke="black" stroke-width="1" fill="blue" opacity="1" tooltip="enable"><title>(0.0646585,7)</title></rect><rect x="312" y="197.682" width="6" height="2.31839" stroke="black" stroke-width="1" fill="blue" opacity="1" tooltip="enable"><title>(0.0659263,15)</title></rect><rect x="318" y="199.073" width="6" height="0.927357" stroke="black" stroke-width="1" fill="blue" opacity="1" tooltip="enable"><title>(0.0671941,6)</title></rect><rect x="324" y="199.073" width="6" height="0.927357" stroke="black" stroke-width="1" fill="blue" opacity="1" tooltip="enable"><title>(0.0684619,6)</title></rect><rect x="330" y="199.227" width="6" height="0.772798" stroke="black" stroke-width="1" fill="blue" opacity="1" tooltip="enable"><title>(0.0697297,5)</title></rect><rect x="336" y="198.918" width="6" height="1.08192" stroke="black" stroke-width="1" fill="blue" opacity="1" tooltip="enable"><title>(0.0709975,7)</title></rect><rect x="342" y="198.918" width="6" height="1.08192" stroke="black" stroke-width="1" fill="blue" opacity="1" tooltip="enable"><title>(0.0722653,7)</title></rect><rect x="348" y="199.536" width="6" height="0.463679" stroke="black" stroke-width="1" fill="blue" opacity="1" tooltip="enable"><title>(0.0735332,3)</title></rect><rect x="354" y="197.527" width="6" height="2.47295" stroke="black" stroke-width="1" fill="blue" opacity="1" tooltip="enable"><title>(0.074801,16)</title></rect><rect x="360" y="199.227" width="6" height="0.772798" stroke="black" stroke-width="1" fill="blue" opacity="1" tooltip="enable"><title>(0.0760688,5)</title></rect><rect x="366" y="199.227" width="6" height="0.772798" stroke="black" stroke-width="1" fill="blue" opacity="1" tooltip="enable"><title>(0.0773366,5)</title></rect><rect x="372" y="199.691" width="6" height="0.309119" stroke="black" stroke-width="1" fill="blue" opacity="1" tooltip="enable"><title>(0.0786044,2)</title></rect><rect x="378" y="199.691" width="6" height="0.309119" stroke="black" stroke-width="1" fill="blue" opacity="1" tooltip="enable"><title>(0.0798722,2)</title></rect><rect x="384" y="199.382" width="6" height="0.618238" stroke="black" stroke-width="1" fill="blue" opacity="1" tooltip="enable"><title>(0.08114,4)</title></rect><rect x="390" y="200" width="6" height="0" stroke="black" stroke-width="1" fill="blue" opacity="1" tooltip="enable"><title>(0.0824079,0)</title></rect><rect x="396" y="199.691" width="6" height="0.309119" stroke="black" stroke-width="1" fill="blue" opacity="1" tooltip="enable"><title>(0.0836757,2)</title></rect><rect x="402" y="198.764" width="6" height="1.23648" stroke="black" stroke-width="1" fill="blue" opacity="1" tooltip="enable"><title>(0.0849435,8)</title></rect><rect x="408" y="198.764" width="6" height="1.23648" stroke="black" stroke-width="1" fill="blue" opacity="1" tooltip="enable"><title>(0.0862113,8)</title></rect><rect x="414" y="199.073" width="6" height="0.927357" stroke="black" stroke-width="1" fill="blue" opacity="1" tooltip="enable"><title>(0.0874791,6)</title></rect><rect x="420" y="199.691" width="6" height="0.309119" stroke="black" stroke-width="1" fill="blue" opacity="1" tooltip="enable"><title>(0.0887469,2)</title></rect><rect x="426" y="200" width="6" height="0" stroke="black" stroke-width="1" fill="blue" opacity="1" tooltip="enable"><title>(0.0900147,0)</title></rect><rect x="432" y="199.382" width="6" height="0.618238" stroke="black" stroke-width="1" fill="blue" opacity="1" tooltip="enable"><title>(0.0912825,4)</title></rect><rect x="438" y="198.454" width="6" height="1.5456" stroke="black" stroke-width="1" fill="blue" opacity="1" tooltip="enable"><title>(0.0925504,10)</title></rect><rect x="444" y="199.691" width="6" height="0.309119" stroke="black" stroke-width="1" fill="blue" opacity="1" tooltip="enable"><title>(0.0938182,2)</title></rect><rect x="450" y="199.691" width="6" height="0.309119" stroke="black" stroke-width="1" fill="blue" opacity="1" tooltip="enable"><title>(0.095086,2)</title></rect><rect x="456" y="200" width="6" height="0" stroke="black" stroke-width="1" fill="blue" opacity="1" tooltip="enable"><title>(0.0963538,0)</title></rect><rect x="462" y="199.691" width="6" height="0.309119" stroke="black" stroke-width="1" fill="blue" opacity="1" tooltip="enable"><title>(0.0976216,2)</title></rect><rect x="468" y="199.691" width="6" height="0.309119" stroke="black" stroke-width="1" fill="blue" opacity="1" tooltip="enable"><title>(0.0988894,2)</title></rect><rect x="474" y="200" width="6" height="0" stroke="black" stroke-width="1" fill="blue" opacity="1" tooltip="enable"><title>(0.100157,0)</title></rect><rect x="480" y="200" width="6" height="0" stroke="black" stroke-width="1" fill="blue" opacity="1" tooltip="enable"><title>(0.101425,0)</title></rect><rect x="486" y="200" width="6" height="0" stroke="black" stroke-width="1" fill="blue" opacity="1" tooltip="enable"><title>(0.102693,0)</title></rect><rect x="492" y="200" width="6" height="0" stroke="black" stroke-width="1" fill="blue" opacity="1" tooltip="enable"><title>(0.103961,0)</title></rect><rect x="498" y="199.691" width="6" height="0.309119" stroke="black" stroke-width="1" fill="blue" opacity="1" tooltip="enable"><title>(0.105228,2)</title></rect><rect x="504" y="199.691" width="6" height="0.309119" stroke="black" stroke-width="1" fill="blue" opacity="1" tooltip="enable"><title>(0.106496,2)</title></rect><rect x="510" y="199.691" width="6" height="0.309119" stroke="black" stroke-width="1" fill="blue" opacity="1" tooltip="enable"><title>(0.107764,2)</title></rect><rect x="516" y="200" width="6" height="0" stroke="black" stroke-width="1" fill="blue" opacity="1" tooltip="enable"><title>(0.109032,0)</title></rect><rect x="522" y="199.691" width="6" height="0.309119" stroke="black" stroke-width="1" fill="blue" opacity="1" tooltip="enable"><title>(0.1103,2)</title></rect><rect x="528" y="200" width="6" height="0" stroke="black" stroke-width="1" fill="blue" opacity="1" tooltip="enable"><title>(0.111568,0)</title></rect><rect x="534" y="199.073" width="6" height="0.927357" stroke="black" stroke-width="1" fill="blue" opacity="1" tooltip="enable"><title>(0.112835,6)</title></rect><rect x="540" y="200" width="6" height="0" stroke="black" stroke-width="1" fill="blue" opacity="1" tooltip="enable"><title>(0.114103,0)</title></rect><rect x="546" y="199.691" width="6" height="0.309119" stroke="black" stroke-width="1" fill="blue" opacity="1" tooltip="enable"><title>(0.115371,2)</title></rect><rect x="552" y="199.691" width="6" height="0.309119" stroke="black" stroke-width="1" fill="blue" opacity="1" tooltip="enable"><title>(0.116639,2)</title></rect><rect x="558" y="200" width="6" height="0" stroke="black" stroke-width="1" fill="blue" opacity="1" tooltip="enable"><title>(0.117907,0)</title></rect><rect x="564" y="199.691" width="6" height="0.309119" stroke="black" stroke-width="1" fill="blue" opacity="1" tooltip="enable"><title>(0.119174,2)</title></rect><rect x="570" y="200" width="6" height="0" stroke="black" stroke-width="1" fill="blue" opacity="1" tooltip="enable"><title>(0.120442,0)</title></rect><rect x="576" y="200" width="6" height="0" stroke="black" stroke-width="1" fill="blue" opacity="1" tooltip="enable"><title>(0.12171,0)</title></rect><rect x="582" y="200" width="6" height="0" stroke="black" stroke-width="1" fill="blue" opacity="1" tooltip="enable"><title>(0.122978,0)</title></rect><rect x="588" y="200" width="6" height="0" stroke="black" stroke-width="1" fill="blue" opacity="1" tooltip="enable"><title>(0.124246,0)</title></rect><rect x="594" y="199.845" width="6" height="0.15456" stroke="black" stroke-width="1" fill="blue" opacity="1" tooltip="enable"><title>(0.125514,1)</title></rect><text x="30" y="240" font-size="20" fill="black">0</text>
<text x="600" y="240" font-size="20" fill="black">0.126781</text>
<polyline points="0,220,600,220" stroke="black" stroke-width="1" fill="none" opacity="1"/>
<text x="720" y="20" font-size="20" fill="black">1294</text>
<text x="720" y="200" font-size="20" fill="black">0</text>
<polyline points="660,0,660,200" stroke="black" stroke-width="1" fill="none" opacity="1"/>
</svg>