<?xml version="1.0" standalone="yes"?>
<!-- SVG graphic -->
<svg xmlns='http://www.w3.org/2000/svg' xmlns:xlink='http://www.w3.org/1999/xlink'
 version="1.1">
<rect x="0" y="0" width="6" height="200" stroke="black" stroke-width="1" fill="blue" opacity="1" tooltip="enable"><title>(0,1726)</title></rect><rect x="6" y="50.5214" width="6" height="149.479" stroke="black" stroke-width="1" fill="blue" opacity="1" tooltip="enable"><title>(0.000993627,1290)</title></rect><rect x="12" y="104.403" width="6" height="95.5968" stroke="black" stroke-width="1" fill="blue" opacity="1" tooltip="enable"><title>(0.00198725,825)</title></rect><rect x="18" y="146.929" width="6" height="53.0707" stroke="black" stroke-width="1" fill="blue" opacity="1" tooltip="enable"><title>(0.00298088,458)</title></rect><rect x="24" y="177.636" width="6" height="22.3638" stroke="black" stroke-width="1" fill="blue" opacity="1" tooltip="enable"><title>(0.00397451,193)</title></rect><rect x="30" y="184.241" width="6" height="15.759" stroke="black" stroke-width="1" fill="blue" opacity="1" tooltip="enable"><title>(0.00496813,136)</title></rect><rect x="36" y="188.992" width="6" height="11.0081" stroke="black" stroke-width="1" fill="blue" opacity="1" tooltip="enable"><title>(0.00596176,95)</title></rect><rect x="42" y="186.211" width="6" height="13.7891" stroke="black" stroke-width="1" fill="blue" opacity="1" tooltip="enable"><title>(0.00695539,119)</title></rect><rect x="48" y="188.76" width="6" height="11.2399" stroke="black" stroke-width="1" fill="blue" opacity="1" tooltip="enable"><title>(0.00794901,97)</title></rect><rect x="54" y="188.065" width="6" height="11.9351" stroke="black" stroke-width="1" fill="blue" opacity="1" tooltip="enable"><title>(0.00894264,103)</title></rect><rect x="60" y="189.108" width="6" height="10.8922" stroke="black" stroke-width="1" fill="blue" opacity="1" tooltip="enable"><title>(0.00993627,94)</title></rect><rect x="66" y="187.601" width="6" height="12.3986" stroke="black" stroke-width="1" fill="blue" opacity="1" tooltip="enable"><title>(0.0109299,107)</title></rect><rect x="72" y="185.979" width="6" height="14.0209" stroke="black" stroke-width="1" fill="blue" opacity="1" tooltip="enable"><title>(0.0119235,121)</title></rect><rect x="78" y="188.181" width="6" height="11.8192" stroke="black" stroke-width="1" fill="blue" opacity="1" tooltip="enable"><title>(0.0129171,102)</title></rect><rect x="84" y="189.108" width="6" height="10.8922" stroke="black" stroke-width="1" fill="blue" opacity="1" tooltip="enable"><title>(0.0139108,94)</title></rect><rect x="90" y="189.34" width="6" height="10.6605" stroke="black" stroke-width="1" fill="blue" opacity="1" tooltip="enable"><title>(0.0149044,92)</title></rect><rect x="96" y="188.992" width="6" height="11.0081" stroke="black" stroke-width="1" fill="blue" opacity="1" tooltip="enable"><title>(0.015898,95)</title></rect><rect x="102" y="189.224" width="6" height="10.7764" stroke="black" stroke-width="1" fill="blue" opacity="1" tooltip="enable"><title>(0.0168917,93)</title></rect><rect x="108" y="187.486" width="6" height="12.5145" stroke="black" stroke-width="1" fill="blue" opacity="1" tooltip="enable"><title>(0.0178853,108)</title></rect><rect x="114" y="188.644" width="6" height="11.3557" stroke="black" stroke-width="1" fill="blue" opacity="1" tooltip="enable"><title>(0.0188789,98)</title></rect><rect x="120" y="188.876" width="6" height="11.124" stroke="black" stroke-width="1" fill="blue" opacity="1" tooltip="enable"><title>(0.0198725,96)</title></rect><rect x="126" y="189.803" width="6" height="10.197" stroke="black" stroke-width="1" fill="blue" opacity="1" tooltip="enable"><title>(0.0208662,88)</title></rect><rect x="132" y="190.498" width="6" height="9.50174" stroke="black" stroke-width="1" fill="blue" opacity="1" tooltip="enable"><title>(0.0218598,82)</title></rect><rect x="138" y="193.048" width="6" height="6.95249" stroke="black" stroke-width="1" fill="blue" opacity="1" tooltip="enable"><title>(0.0228534,60)</title></rect><rect x="144" y="191.194" width="6" height="8.80649" stroke="black" stroke-width="1" fill="blue" opacity="1" tooltip="enable"><title>(0.023847,76)</title></rect><rect x="150" y="193.048" width="6" height="6.95249" stroke="black" stroke-width="1" fill="blue" opacity="1" tooltip="enable"><title>(0.0248407,60)</title></rect><rect x="156" y="191.078" width="6" height="8.92236" stroke="black" stroke-width="1" fill="blue" opacity="1" tooltip="enable"><title>(0.0258343,77)</title></rect><rect x="162" y="191.078" width="6" height="8.92236" stroke="black" stroke-width="1" fill="blue" opacity="1" tooltip="enable"><title>(0.0268279,77)</title></rect><rect x="168" y="194.206" width="6" height="5.79374" stroke="black" stroke-width="1" fill="blue" opacity="1" tooltip="enable"><title>(0.0278215,50)</title></rect><rect x="174" y="192.584" width="6" height="7.41599" stroke="black" stroke-width="1" fill="blue" opacity="1" tooltip="enable"><title>(0.0288152,64)</title></rect><rect x="180" y="193.048" width="6" height="6.95249" stroke="black" stroke-width="1" fill="blue" opacity="1" tooltip="enable"><title>(0.0298088,60)</title></rect><rect x="186" y="191.773" width="6" height="8.22711" stroke="black" stroke-width="1" fill="blue" opacity="1" tooltip="enable"><title>(0.0308024,71)</title></rect><rect x="192" y="194.67" width="6" height="5.33024" stroke="black" stroke-width="1" fill="blue" opacity="1" tooltip="enable"><title>(0.031796,46)</title></rect><rect x="198" y="195.133" width="6" height="4.86674" stroke="black" stroke-width="1" fill="blue" opacity="1" tooltip="enable"><title>(0.0327897,42)</title></rect><rect x="204" y="193.048" width="6" height="6.95249" stroke="black" stroke-width="1" fill="blue" opacity="1" tooltip="enable"><title>(0.0337833,60)</title></rect><rect x="210" y="195.017" width="6" height="4.98262" stroke="black" stroke-width="1" fill="blue" opacity="1" tooltip="enable"><title>(0.0347769,43)</title></rect><rect x="216" y="193.395" width="6" height="6.60487" stroke="black" stroke-width="1" fill="blue" opacity="1" tooltip="enable"><title>(0.0357706,57)</title></rect><rect x="222" y="194.902" width="6" height="5.09849" stroke="black" stroke-width="1" fill="blue" opacity="1" tooltip="enable"><title>(0.0367642,44)</title></rect><rect x="228" y="192.468" width="6" height="7.53187" stroke="black" stroke-width="1" fill="blue" opacity="1" tooltip="enable"><title>(0.0377578,65)</title></rect><rect x="234" y="193.743" width="6" height="6.25724" stroke="black" stroke-width="1" fill="blue" opacity="1" tooltip="enable"><title>(0.0387514,54)</title></rect><rect x="240" y="194.902" width="6" height="5.09849" stroke="black" stroke-width="1" fill="blue" opacity="1" tooltip="enable"><title>(0.0397451,44)</title></rect><rect x="246" y="195.017" width="6" height="4.98262" stroke="black" stroke-width="1" fill="blue" opacity="1" tooltip="enable"><title>(0.0407387,43)</title></rect><rect x="252" y="195.017" width="6" height="4.98262" stroke="black" stroke-width="1" fill="blue" opacity="1" tooltip="enable"><title>(0.0417323,43)</title></rect><rect x="258" y="195.597" width="6" height="4.40324" stroke="black" stroke-width="1" fill="blue" opacity="1" tooltip="enable"><title>(0.0427259,38)</title></rect><rect x="264" y="196.756" width="6" height="3.2445" stroke="black" stroke-width="1" fill="blue" opacity="1" tooltip="enable"><title>(0.0437196,28)</title></rect><rect x="270" y="194.786" width="6" height="5.21437" stroke="black" stroke-width="1" fill="blue" opacity="1" tooltip="enable"><title>(0.0447132,45)</title></rect><rect x="276" y="196.408" width="6" height="3.59212" stroke="black" stroke-width="1" fill="blue" opacity="1" tooltip="enable"><title>(0.0457068,31)</title></rect><rect x="282" y="196.987" width="6" height="3.01275" stroke="black" stroke-width="1" fill="blue" opacity="1" tooltip="enable"><title>(0.0467004,26)</title></rect><rect x="288" y="198.146" width="6" height="1.854" stroke="black" stroke-width="1" fill="blue" opacity="1" tooltip="enable"><title>(0.0476941,16)</title></rect><rect x="294" y="195.597" width="6" height="4.40324" stroke="black" stroke-width="1" fill="blue" opacity="1" tooltip="enable"><title>(0.0486877,38)</title></rect><rect x="300" y="196.987" width="6" height="3.01275" stroke="black" stroke-width="1" fill="blue" opacity="1" tooltip="enable"><title>(0.0496813,26)</title></rect><rect x="306" y="198.378" width="6" height="1.62225" stroke="black" stroke-width="1" fill="blue" opacity="1" tooltip="enable"><title>(0.050675,14)</title></rect><rect x="312" y="197.682" width="6" height="2.3175" stroke="black" stroke-width="1" fill="blue" opacity="1" tooltip="enable"><title>(0.0516686,20)</title></rect><rect x="318" y="197.682" width="6" height="2.3175" stroke="black" stroke-width="1" fill="blue" opacity="1" tooltip="enable"><title>(0.0526622,20)</title></rect><rect x="324" y="197.103" width="6" height="2.89687" stroke="black" stroke-width="1" fill="blue" opacity="1" tooltip="enable"><title>(0.0536558,25)</title></rect><rect x="330" y="198.03" width="6" height="1.96987" stroke="black" stroke-width="1" fill="blue" opacity="1" tooltip="enable"><title>(0.0546495,17)</title></rect><rect x="336" y="197.451" width="6" height="2.54925" stroke="black" stroke-width="1" fill="blue" opacity="1" tooltip="enable"><title>(0.0556431,22)</title></rect><rect x="342" y="197.914" width="6" height="2.08575" stroke="black" stroke-width="1" fill="blue" opacity="1" tooltip="enable"><title>(0.0566367,18)</title></rect><rect x="348" y="198.841" width="6" height="1.15875" stroke="black" stroke-width="1" fill="blue" opacity="1" tooltip="enable"><title>(0.0576303,10)</title></rect><rect x="354" y="198.378" width="6" height="1.62225" stroke="black" stroke-width="1" fill="blue" opacity="1" tooltip="enable"><title>(0.058624,14)</title></rect><rect x="360" y="198.609" width="6" height="1.3905" stroke="black" stroke-width="1" fill="blue" opacity="1" tooltip="enable"><title>(0.0596176,12)</title></rect><rect x="366" y="198.841" width="6" height="1.15875" stroke="black" stroke-width="1" fill="blue" opacity="1" tooltip="enable"><title>(0.0606112,10)</title></rect><rect x="372" y="198.378" width="6" height="1.62225" stroke="black" stroke-width="1" fill="blue" opacity="1" tooltip="enable"><title>(0.0616048,14)</title></rect><rect x="378" y="198.841" width="6" height="1.15875" stroke="black" stroke-width="1" fill="blue" opacity="1" tooltip="enable"><title>(0.0625985,10)</title></rect><rect x="384" y="199.073" width="6" height="0.926999" stroke="black" stroke-width="1" fill="blue" opacity="1" tooltip="enable"><title>(0.0635921,8)</title></rect><rect x="390" y="199.073" width="6" height="0.926999" stroke="black" stroke-width="1" fill="blue" opacity="1" tooltip="enable"><title>(0.0645857,8)</title></rect><rect x="396" y="198.957" width="6" height="1.04287" stroke="black" stroke-width="1" fill="blue" opacity="1" tooltip="enable"><title>(0.0655794,9)</title></rect><rect x="402" y="199.189" width="6" height="0.811124" stroke="black" stroke-width="1" fill="blue" opacity="1" tooltip="enable"><title>(0.066573,7)</title></rect><rect x="408" y="199.536" width="6" height="0.463499" stroke="black" stroke-width="1" fill="blue" opacity="1" tooltip="enable"><title>(0.0675666,4)</title></rect><rect x="414" y="199.536" width="6" height="0.463499" stroke="black" stroke-width="1" fill="blue" opacity="1" tooltip="enable"><title>(0.0685602,4)</title></rect><rect x="420" y="198.146" width="6" height="1.854" stroke="black" stroke-width="1" fill="blue" opacity="1" tooltip="enable"><title>(0.0695539,16)</title></rect><rect x="426" y="200" width="6" height="0" stroke="black" stroke-width="1" fill="blue" opacity="1" tooltip="enable"><title>(0.0705475,0)</title></rect><rect x="432" y="200" width="6" height="0" stroke="black" stroke-width="1" fill="blue" opacity="1" tooltip="enable"><title>(0.0715411,0)</title></rect><rect x="438" y="200" width="6" height="0" stroke="black" stroke-width="1" fill="blue" opacity="1" tooltip="enable"><title>(0.0725347,0)</title></rect><rect x="444" y="200" width="6" height="0" stroke="black" stroke-width="1" fill="blue" opacity="1" tooltip="enable"><title>(0.0735284,0)</title></rect><rect x="450" y="200" width="6" height="0" stroke="black" stroke-width="1" fill="blue" opacity="1" tooltip="enable"><title>(0.074522,0)</title></rect><rect x="456" y="199.884" width="6" height="0.115875" stroke="black" stroke-width="1" fill="blue" opacity="1" tooltip="enable"><title>(0.0755156,1)</title></rect><rect x="462" y="199.189" width="6" height="0.811124" stroke="black" stroke-width="1" fill="blue" opacity="1" tooltip="enable"><title>(0.0765092,7)</title></rect><rect x="468" y="199.768" width="6" height="0.23175" stroke="black" stroke-width="1" fill="blue" opacity="1" tooltip="enable"><title>(0.0775029,2)</title></rect><rect x="474" y="199.536" width="6" height="0.463499" stroke="black" stroke-width="1" fill="blue" opacity="1" tooltip="enable"><title>(0.0784965,4)</title></rect><rect x="480" y="199.536" width="6" height="0.463499" stroke="black" stroke-width="1" fill="blue" opacity="1" tooltip="enable"><title>(0.0794901,4)</title></rect><rect x="486" y="199.768" width="6" height="0.23175" stroke="black" stroke-width="1" fill="blue" opacity="1" tooltip="enable"><title>(0.0804837,2)</title></rect><rect x="492" y="200" width="6" height="0" stroke="black" stroke-width="1" fill="blue" opacity="1" tooltip="enable"><title>(0.0814774,0)</title></rect><rect x="498" y="199.536" width="6" height="0.463499" stroke="black" stroke-width="1" fill="blue" opacity="1" tooltip="enable"><title>(0.082471,4)</title></rect><rect x="504" y="200" width="6" height="0" stroke="black" stroke-width="1" fill="blue" opacity="1" tooltip="enable"><title>(0.0834646,0)</title></rect><rect x="510" y="200" width="6" height="0" stroke="black" stroke-width="1" fill="blue" opacity="1" tooltip="enable"><title>(0.0844583,0)</title></rect><rect x="516" y="199.768" width="6" height="0.23175" stroke="black" stroke-width="1" fill="blue" opacity="1" tooltip="enable"><title>(0.0854519,2)</title></rect><rect x="522" y="199.768" width="6" height="0.23175" stroke="black" stroke-width="1" fill="blue" opacity="1" tooltip="enable"><title>(0.0864455,2)</title></rect><rect x="528" y="200" width="6" height="0" stroke="black" stroke-width="1" fill="blue" opacity="1" tooltip="enable"><title>(0.0874391,0)</title></rect><rect x="534" y="200" width="6" height="0" stroke="black" stroke-width="1" fill="blue" opacity="1" tooltip="enable"><title>(0.0884328,0)</title></rect><rect x="540" y="200" width="6" height="0" stroke="black" stroke-width="1" fill="blue" opacity="1" tooltip="enable"><title>(0.0894264,0)</title></rect><rect x="546" y="200" width="6" height="0" stroke="black" stroke-width="1" fill="blue" opacity="1" tooltip="enable"><title>(0.09042,0)</title></rect><rect x="552" y="199.768" width="6" height="0.23175" stroke="black" stroke-width="1" fill="blue" opacity="1" tooltip="enable"><title>(0.0914136,2)</title></rect><rect x="558" y="199.536" width="6" height="0.463499" stroke="black" stroke-width="1" fill="blue" opacity="1" tooltip="enable"><title>(0.0924073,4)</title></rect><rect x="564" y="200" width="6" height="0" stroke="black" stroke-width="1" fill="blue" opacity="1" tooltip="enable"><title>(0.0934009,0)</title></rect><rect x="570" y="199.536" width="6" height="0.463499" stroke="black" stroke-width="1" fill="blue" opacity="1" tooltip="enable"><title>(0.0943945,4)</title></rect><rect x="576" y="200" width="6" height="0" stroke="black" stroke-width="1" fill="blue" opacity="1" tooltip="enable"><title>(0.0953882,0)</title></rect><rect x="582" y="200" width="6" height="0" stroke="black" stroke-width="1" fill="blue" opacity="1" tooltip="enable"><title>(0.0963818,0)</title></rect><rect x="588" y="200" width="6" height="0" stroke="black" stroke-width="1" fill="blue" opacity="1" tooltip="enable"><title>(0.0973754,0)</title></rect><rect x="594" y="199.652" width="6" height="0.347625" stroke="black" stroke-width="1" fill="blue" opacity="1" tooltip="enable"><title>(0.098369,3)</title></rect><text x="30" y="240" font-size="20" fill="black">0</text>
<text x="600" y="240" font-size="20" fill="black">0.0993627</text>
<polyline points="0,220,600,220" stroke="black" stroke-width="1" fill="none" opacity="1"/>
<text x="720" y="20" font-size="20" fill="black">1726</text>
<text x="720" y="200" font-size="20" fill="black">0</text>
<polyline points="660,0,660,200" stroke="black" stroke-width="1" fill="none" opacity="1"/>
</svg>