<?xml version="1.0" standalone="yes"?>
<!-- SVG graphic -->
<svg xmlns='http://www.w3.org/2000/svg' xmlns:xlink='http://www.w3.org/1999/xlink'
 version="1.1">
<rect x="0" y="0" width="6" height="200" stroke="black" stroke-width="1" fill="blue" opacity="1" tooltip="enable"><title>(0,4155)</title></rect><rect x="6" y="188.303" width="6" height="11.6968" stroke="black" stroke-width="1" fill="blue" opacity="1" tooltip="enable"><title>(0.00147759,243)</title></rect><rect x="12" y="188.929" width="6" height="11.071" stroke="black" stroke-width="1" fill="blue" opacity="1" tooltip="enable"><title>(0.00295518,230)</title></rect><rect x="18" y="192.202" width="6" height="7.79783" stroke="black" stroke-width="1" fill="blue" opacity="1" tooltip="enable"><title>(0.00443276,162)</title></rect><rect x="24" y="192.106" width="6" height="7.8941" stroke="black" stroke-width="1" fill="blue" opacity="1" tooltip="enable"><title>(0.00591035,164)</title></rect><rect x="30" y="191.047" width="6" height="8.95307" stroke="black" stroke-width="1" fill="blue" opacity="1" tooltip="enable"><title>(0.00738794,186)</title></rect><rect x="36" y="191.673" width="6" height="8.32732" stroke="black" stroke-width="1" fill="blue" opacity="1" tooltip="enable"><title>(0.00886553,173)</title></rect><rect x="42" y="193.887" width="6" height="6.11312" stroke="black" stroke-width="1" fill="blue" opacity="1" tooltip="enable"><title>(0.0103431,127)</title></rect><rect x="48" y="193.165" width="6" height="6.83514" stroke="black" stroke-width="1" fill="blue" opacity="1" tooltip="enable"><title>(0.0118207,142)</title></rect><rect x="54" y="191.673" width="6" height="8.32732" stroke="black" stroke-width="1" fill="blue" opacity="1" tooltip="enable"><title>(0.0132983,173)</title></rect><rect x="60" y="192.587" width="6" height="7.41276" stroke="black" stroke-width="1" fill="blue" opacity="1" tooltip="enable"><title>(0.0147759,154)</title></rect><rect x="66" y="191.528" width="6" height="8.47172" stroke="black" stroke-width="1" fill="blue" opacity="1" tooltip="enable"><title>(0.0162535,176)</title></rect><rect x="72" y="194.513" width="6" height="5.48736" stroke="black" stroke-width="1" fill="blue" opacity="1" tooltip="enable"><title>(0.0177311,114)</title></rect><rect x="78" y="194.609" width="6" height="5.3911" stroke="black" stroke-width="1" fill="blue" opacity="1" tooltip="enable"><title>(0.0192086,112)</title></rect><rect x="84" y="192.972" width="6" height="7.02768" stroke="black" stroke-width="1" fill="blue" opacity="1" tooltip="enable"><title>(0.0206862,146)</title></rect><rect x="90" y="194.368" width="6" height="5.63177" stroke="black" stroke-width="1" fill="blue" opacity="1" tooltip="enable"><title>(0.0221638,117)</title></rect><rect x="96" y="194.416" width="6" height="5.58363" stroke="black" stroke-width="1" fill="blue" opacity="1" tooltip="enable"><title>(0.0236414,116)</title></rect><rect x="102" y="195.09" width="6" height="4.90975" stroke="black" stroke-width="1" fill="blue" opacity="1" tooltip="enable"><title>(0.025119,102)</title></rect><rect x="108" y="195.475" width="6" height="4.52467" stroke="black" stroke-width="1" fill="blue" opacity="1" tooltip="enable"><title>(0.0265966,94)</title></rect><rect x="114" y="196.149" width="6" height="3.85078" stroke="black" stroke-width="1" fill="blue" opacity="1" tooltip="enable"><title>(0.0280742,80)</title></rect><rect x="120" y="195.138" width="6" height="4.86161" stroke="black" stroke-width="1" fill="blue" opacity="1" tooltip="enable"><title>(0.0295518,101)</title></rect><rect x="126" y="195.235" width="6" height="4.76534" stroke="black" stroke-width="1" fill="blue" opacity="1" tooltip="enable"><title>(0.0310293,99)</title></rect><rect x="132" y="197.449" width="6" height="2.55114" stroke="black" stroke-width="1" fill="blue" opacity="1" tooltip="enable"><title>(0.0325069,53)</title></rect><rect x="138" y="196.39" width="6" height="3.61011" stroke="black" stroke-width="1" fill="blue" opacity="1" tooltip="enable"><title>(0.0339845,75)</title></rect><rect x="144" y="197.016" width="6" height="2.98436" stroke="black" stroke-width="1" fill="blue" opacity="1" tooltip="enable"><title>(0.0354621,62)</title></rect><rect x="150" y="197.304" width="6" height="2.69555" stroke="black" stroke-width="1" fill="blue" opacity="1" tooltip="enable"><title>(0.0369397,56)</title></rect><rect x="156" y="197.834" width="6" height="2.16606" stroke="black" stroke-width="1" fill="blue" opacity="1" tooltip="enable"><title>(0.0384173,45)</title></rect><rect x="162" y="198.604" width="6" height="1.39591" stroke="black" stroke-width="1" fill="blue" opacity="1" tooltip="enable"><title>(0.0398949,29)</title></rect><rect x="168" y="198.893" width="6" height="1.1071" stroke="black" stroke-width="1" fill="blue" opacity="1" tooltip="enable"><title>(0.0413725,23)</title></rect><rect x="174" y="198.026" width="6" height="1.97353" stroke="black" stroke-width="1" fill="blue" opacity="1" tooltip="enable"><title>(0.04285,41)</title></rect><rect x="180" y="198.556" width="6" height="1.44404" stroke="black" stroke-width="1" fill="blue" opacity="1" tooltip="enable"><title>(0.0443276,30)</title></rect><rect x="186" y="199.037" width="6" height="0.962696" stroke="black" stroke-width="1" fill="blue" opacity="1" tooltip="enable"><title>(0.0458052,20)</title></rect><rect x="192" y="199.182" width="6" height="0.818291" stroke="black" stroke-width="1" fill="blue" opacity="1" tooltip="enable"><title>(0.0472828,17)</title></rect><rect x="198" y="199.374" width="6" height="0.625752" stroke="black" stroke-width="1" fill="blue" opacity="1" tooltip="enable"><title>(0.0487604,13)</title></rect><rect x="204" y="199.085" width="6" height="0.914561" stroke="black" stroke-width="1" fill="blue" opacity="1" tooltip="enable"><title>(0.050238,19)</title></rect><rect x="210" y="199.422" width="6" height="0.577617" stroke="black" stroke-width="1" fill="blue" opacity="1" tooltip="enable"><title>(0.0517156,12)</title></rect><rect x="216" y="198.508" width="6" height="1.49218" stroke="black" stroke-width="1" fill="blue" opacity="1" tooltip="enable"><title>(0.0531932,31)</title></rect><rect x="222" y="198.363" width="6" height="1.63658" stroke="black" stroke-width="1" fill="blue" opacity="1" tooltip="enable"><title>(0.0546708,34)</title></rect><rect x="228" y="199.471" width="6" height="0.529483" stroke="black" stroke-width="1" fill="blue" opacity="1" tooltip="enable"><title>(0.0561483,11)</title></rect><rect x="234" y="199.374" width="6" height="0.625752" stroke="black" stroke-width="1" fill="blue" opacity="1" tooltip="enable"><title>(0.0576259,13)</title></rect><rect x="240" y="199.278" width="6" height="0.722022" stroke="black" stroke-width="1" fill="blue" opacity="1" tooltip="enable"><title>(0.0591035,15)</title></rect><rect x="246" y="199.374" width="6" height="0.625752" stroke="black" stroke-width="1" fill="blue" opacity="1" tooltip="enable"><title>(0.0605811,13)</title></rect><rect x="252" y="198.845" width="6" height="1.15523" stroke="black" stroke-width="1" fill="blue" opacity="1" tooltip="enable"><title>(0.0620587,24)</title></rect><rect x="258" y="199.326" width="6" height="0.673887" stroke="black" stroke-width="1" fill="blue" opacity="1" tooltip="enable"><title>(0.0635363,14)</title></rect><rect x="264" y="199.422" width="6" height="0.577617" stroke="black" stroke-width="1" fill="blue" opacity="1" tooltip="enable"><title>(0.0650139,12)</title></rect><rect x="270" y="199.278" width="6" height="0.722022" stroke="black" stroke-width="1" fill="blue" opacity="1" tooltip="enable"><title>(0.0664914,15)</title></rect><rect x="276" y="199.278" width="6" height="0.722022" stroke="black" stroke-width="1" fill="blue" opacity="1" tooltip="enable"><title>(0.067969,15)</title></rect><rect x="282" y="199.326" width="6" height="0.673887" stroke="black" stroke-width="1" fill="blue" opacity="1" tooltip="enable"><title>(0.0694466,14)</title></rect><rect x="288" y="199.422" width="6" height="0.577617" stroke="black" stroke-width="1" fill="blue" opacity="1" tooltip="enable"><title>(0.0709242,12)</title></rect><rect x="294" y="199.904" width="6" height="0.0962696" stroke="black" stroke-width="1" fill="blue" opacity="1" tooltip="enable"><title>(0.0724018,2)</title></rect><rect x="300" y="199.711" width="6" height="0.288809" stroke="black" stroke-width="1" fill="blue" opacity="1" tooltip="enable"><title>(0.0738794,6)</title></rect><rect x="306" y="199.422" width="6" height="0.577617" stroke="black" stroke-width="1" fill="blue" opacity="1" tooltip="enable"><title>(0.075357,12)</title></rect><rect x="312" y="199.711" width="6" height="0.288809" stroke="black" stroke-width="1" fill="blue" opacity="1" tooltip="enable"><title>(0.0768346,6)</title></rect><rect x="318" y="199.567" width="6" height="0.433213" stroke="black" stroke-width="1" fill="blue" opacity="1" tooltip="enable"><title>(0.0783122,9)</title></rect><rect x="324" y="199.663" width="6" height="0.336943" stroke="black" stroke-width="1" fill="blue" opacity="1" tooltip="enable"><title>(0.0797897,7)</title></rect><rect x="330" y="199.567" width="6" height="0.433213" stroke="black" stroke-width="1" fill="blue" opacity="1" tooltip="enable"><title>(0.0812673,9)</title></rect><rect x="336" y="199.663" width="6" height="0.336943" stroke="black" stroke-width="1" fill="blue" opacity="1" tooltip="enable"><title>(0.0827449,7)</title></rect><rect x="342" y="199.807" width="6" height="0.192539" stroke="black" stroke-width="1" fill="blue" opacity="1" tooltip="enable"><title>(0.0842225,4)</title></rect><rect x="348" y="199.807" width="6" height="0.192539" stroke="black" stroke-width="1" fill="blue" opacity="1" tooltip="enable"><title>(0.0857001,4)</title></rect><rect x="354" y="200" width="6" height="0" stroke="black" stroke-width="1" fill="blue" opacity="1" tooltip="enable"><title>(0.0871777,0)</title></rect><rect x="360" y="200" width="6" height="0" stroke="black" stroke-width="1" fill="blue" opacity="1" tooltip="enable"><title>(0.0886553,0)</title></rect><rect x="366" y="200" width="6" height="0" stroke="black" stroke-width="1" fill="blue" opacity="1" tooltip="enable"><title>(0.0901329,0)</title></rect><rect x="372" y="199.904" width="6" height="0.0962696" stroke="black" stroke-width="1" fill="blue" opacity="1" tooltip="enable"><title>(0.0916104,2)</title></rect><rect x="378" y="200" width="6" height="0" stroke="black" stroke-width="1" fill="blue" opacity="1" tooltip="enable"><title>(0.093088,0)</title></rect><rect x="384" y="199.904" width="6" height="0.0962696" stroke="black" stroke-width="1" fill="blue" opacity="1" tooltip="enable"><title>(0.0945656,2)</title></rect><rect x="390" y="200" width="6" height="0" stroke="black" stroke-width="1" fill="blue" opacity="1" tooltip="enable"><title>(0.0960432,0)</title></rect><rect x="396" y="199.904" width="6" height="0.0962696" stroke="black" stroke-width="1" fill="blue" opacity="1" tooltip="enable"><title>(0.0975208,2)</title></rect><rect x="402" y="199.904" width="6" height="0.0962696" stroke="black" stroke-width="1" fill="blue" opacity="1" tooltip="enable"><title>(0.0989984,2)</title></rect><rect x="408" y="199.856" width="6" height="0.144404" stroke="black" stroke-width="1" fill="blue" opacity="1" tooltip="enable"><title>(0.100476,3)</title></rect><rect x="414" y="199.856" width="6" height="0.144404" stroke="black" stroke-width="1" fill="blue" opacity="1" tooltip="enable"><title>(0.101954,3)</title></rect><rect x="420" y="200" width="6" height="0" stroke="black" stroke-width="1" fill="blue" opacity="1" tooltip="enable"><title>(0.103431,0)</title></rect><rect x="426" y="199.904" width="6" height="0.0962696" stroke="black" stroke-width="1" fill="blue" opacity="1" tooltip="enable"><title>(0.104909,2)</title></rect><rect x="432" y="200" width="6" height="0" stroke="black" stroke-width="1" fill="blue" opacity="1" tooltip="enable"><title>(0.106386,0)</title></rect><rect x="438" y="199.904" width="6" height="0.0962696" stroke="black" stroke-width="1" fill="blue" opacity="1" tooltip="enable"><title>(0.107864,2)</title></rect><rect x="444" y="200" width="6" height="0" stroke="black" stroke-width="1" fill="blue" opacity="1" tooltip="enable"><title>(0.109342,0)</title></rect><rect x="450" y="200" width="6" height="0" stroke="black" stroke-width="1" fill="blue" opacity="1" tooltip="enable"><title>(0.110819,0)</title></rect><rect x="456" y="199.904" width="6" height="0.0962696" stroke="black" stroke-width="1" fill="blue" opacity="1" tooltip="enable"><title>(0.112297,2)</title></rect><rect x="462" y="200" width="6" height="0" stroke="black" stroke-width="1" fill="blue" opacity="1" tooltip="enable"><title>(0.113774,0)</title></rect><rect x="468" y="199.807" width="6" height="0.192539" stroke="black" stroke-width="1" fill="blue" opacity="1" tooltip="enable"><title>(0.115252,4)</title></rect><rect x="474" y="199.952" width="6" height="0.0481348" stroke="black" stroke-width="1" fill="blue" opacity="1" tooltip="enable"><title>(0.116729,1)</title></rect><rect x="480" y="199.952" width="6" height="0.0481348" stroke="black" stroke-width="1" fill="blue" opacity="1" tooltip="enable"><title>(0.118207,1)</title></rect><rect x="486" y="200" width="6" height="0" stroke="black" stroke-width="1" fill="blue" opacity="1" tooltip="enable"><title>(0.119685,0)</title></rect><rect x="492" y="200" width="6" height="0" stroke="black" stroke-width="1" fill="blue" opacity="1" tooltip="enable"><title>(0.121162,0)</title></rect><rect x="498" y="199.904" width="6" height="0.0962696" stroke="black" stroke-width="1" fill="blue" opacity="1" tooltip="enable"><title>(0.12264,2)</title></rect><rect x="504" y="200" width="6" height="0" stroke="black" stroke-width="1" fill="blue" opacity="1" tooltip="enable"><title>(0.124117,0)</title></rect><rect x="510" y="200" width="6" height="0" stroke="black" stroke-width="1" fill="blue" opacity="1" tooltip="enable"><title>(0.125595,0)</title></rect><rect x="516" y="200" width="6" height="0" stroke="black" stroke-width="1" fill="blue" opacity="1" tooltip="enable"><title>(0.127073,0)</title></rect><rect x="522" y="199.904" width="6" height="0.0962696" stroke="black" stroke-width="1" fill="blue" opacity="1" tooltip="enable"><title>(0.12855,2)</title></rect><rect x="528" y="199.904" width="6" height="0.0962696" stroke="black" stroke-width="1" fill="blue" opacity="1" tooltip="enable"><title>(0.130028,2)</title></rect><rect x="534" y="199.856" width="6" height="0.144404" stroke="black" stroke-width="1" fill="blue" opacity="1" tooltip="enable"><title>(0.131505,3)</title></rect><rect x="540" y="199.856" width="6" height="0.144404" stroke="black" stroke-width="1" fill="blue" opacity="1" tooltip="enable"><title>(0.132983,3)</title></rect><rect x="546" y="200" width="6" height="0" stroke="black" stroke-width="1" fill="blue" opacity="1" tooltip="enable"><title>(0.13446,0)</title></rect><rect x="552" y="199.904" width="6" height="0.0962696" stroke="black" stroke-width="1" fill="blue" opacity="1" tooltip="enable"><title>(0.135938,2)</title></rect><rect x="558" y="199.904" width="6" height="0.0962696" stroke="black" stroke-width="1" fill="blue" opacity="1" tooltip="enable"><title>(0.137416,2)</title></rect><rect x="564" y="199.904" width="6" height="0.0962696" stroke="black" stroke-width="1" fill="blue" opacity="1" tooltip="enable"><title>(0.138893,2)</title></rect><rect x="570" y="200" width="6" height="0" stroke="black" stroke-width="1" fill="blue" opacity="1" tooltip="enable"><title>(0.140371,0)</title></rect><rect x="576" y="200" width="6" height="0" stroke="black" stroke-width="1" fill="blue" opacity="1" tooltip="enable"><title>(0.141848,0)</title></rect><rect x="582" y="199.904" width="6" height="0.0962696" stroke="black" stroke-width="1" fill="blue" opacity="1" tooltip="enable"><title>(0.143326,2)</title></rect><rect x="588" y="199.904" width="6" height="0.0962696" stroke="black" stroke-width="1" fill="blue" opacity="1" tooltip="enable"><title>(0.144804,2)</title></rect><rect x="594" y="199.952" width="6" height="0.0481348" stroke="black" stroke-width="1" fill="blue" opacity="1" tooltip="enable"><title>(0.146281,1)</title></rect><text x="30" y="240" font-size="20" fill="black">0</text>
<text x="600" y="240" font-size="20" fill="black">0.147759</text>
<polyline points="0,220,600,220" stroke="black" stroke-width="1" fill="none" opacity="1"/>
<text x="720" y="20" font-size="20" fill="black">4155</text>
<text x="720" y="200" font-size="20" fill="black">0</text>
<polyline points="660,0,660,200" stroke="black" stroke-width="1" fill="none" opacity="1"/>
</svg>