<?xml version="1.0" standalone="yes"?>
<!-- SVG graphic -->
<svg xmlns='http://www.w3.org/2000/svg' xmlns:xlink='http://www.w3.org/1999/xlink'
 version="1.1">
<rect x="0" y="0" width="6" height="200" stroke="black" stroke-width="1" fill="blue" opacity="1" tooltip="enable"><title>(0,3984)</title></rect><rect x="6" y="179.418" width="6" height="20.5823" stroke="black" stroke-width="1" fill="blue" opacity="1" tooltip="enable"><title>(0.00147233,410)</title></rect><rect x="12" y="189.157" width="6" height="10.8434" stroke="black" stroke-width="1" fill="blue" opacity="1" tooltip="enable"><title>(0.00294465,216)</title></rect><rect x="18" y="191.165" width="6" height="8.83534" stroke="black" stroke-width="1" fill="blue" opacity="1" tooltip="enable"><title>(0.00441698,176)</title></rect><rect x="24" y="191.918" width="6" height="8.08233" stroke="black" stroke-width="1" fill="blue" opacity="1" tooltip="enable"><title>(0.00588931,161)</title></rect><rect x="30" y="190.412" width="6" height="9.58835" stroke="black" stroke-width="1" fill="blue" opacity="1" tooltip="enable"><title>(0.00736163,191)</title></rect><rect x="36" y="191.315" width="6" height="8.68474" stroke="black" stroke-width="1" fill="blue" opacity="1" tooltip="enable"><title>(0.00883396,173)</title></rect><rect x="42" y="193.424" width="6" height="6.57631" stroke="black" stroke-width="1" fill="blue" opacity="1" tooltip="enable"><title>(0.0103063,131)</title></rect><rect x="48" y="193.323" width="6" height="6.67671" stroke="black" stroke-width="1" fill="blue" opacity="1" tooltip="enable"><title>(0.0117786,133)</title></rect><rect x="54" y="191.165" width="6" height="8.83534" stroke="black" stroke-width="1" fill="blue" opacity="1" tooltip="enable"><title>(0.0132509,176)</title></rect><rect x="60" y="192.219" width="6" height="7.78112" stroke="black" stroke-width="1" fill="blue" opacity="1" tooltip="enable"><title>(0.0147233,155)</title></rect><rect x="66" y="191.968" width="6" height="8.03213" stroke="black" stroke-width="1" fill="blue" opacity="1" tooltip="enable"><title>(0.0161956,160)</title></rect><rect x="72" y="193.574" width="6" height="6.4257" stroke="black" stroke-width="1" fill="blue" opacity="1" tooltip="enable"><title>(0.0176679,128)</title></rect><rect x="78" y="194.528" width="6" height="5.47189" stroke="black" stroke-width="1" fill="blue" opacity="1" tooltip="enable"><title>(0.0191402,109)</title></rect><rect x="84" y="193.424" width="6" height="6.57631" stroke="black" stroke-width="1" fill="blue" opacity="1" tooltip="enable"><title>(0.0206126,131)</title></rect><rect x="90" y="193.022" width="6" height="6.97791" stroke="black" stroke-width="1" fill="blue" opacity="1" tooltip="enable"><title>(0.0220849,139)</title></rect><rect x="96" y="194.378" width="6" height="5.62249" stroke="black" stroke-width="1" fill="blue" opacity="1" tooltip="enable"><title>(0.0235572,112)</title></rect><rect x="102" y="195.03" width="6" height="4.96988" stroke="black" stroke-width="1" fill="blue" opacity="1" tooltip="enable"><title>(0.0250296,99)</title></rect><rect x="108" y="195.131" width="6" height="4.86948" stroke="black" stroke-width="1" fill="blue" opacity="1" tooltip="enable"><title>(0.0265019,97)</title></rect><rect x="114" y="196.135" width="6" height="3.86546" stroke="black" stroke-width="1" fill="blue" opacity="1" tooltip="enable"><title>(0.0279742,77)</title></rect><rect x="120" y="195.281" width="6" height="4.71888" stroke="black" stroke-width="1" fill="blue" opacity="1" tooltip="enable"><title>(0.0294465,94)</title></rect><rect x="126" y="194.779" width="6" height="5.22088" stroke="black" stroke-width="1" fill="blue" opacity="1" tooltip="enable"><title>(0.0309189,104)</title></rect><rect x="132" y="196.888" width="6" height="3.11245" stroke="black" stroke-width="1" fill="blue" opacity="1" tooltip="enable"><title>(0.0323912,62)</title></rect><rect x="138" y="196.034" width="6" height="3.96586" stroke="black" stroke-width="1" fill="blue" opacity="1" tooltip="enable"><title>(0.0338635,79)</title></rect><rect x="144" y="197.139" width="6" height="2.86145" stroke="black" stroke-width="1" fill="blue" opacity="1" tooltip="enable"><title>(0.0353358,57)</title></rect><rect x="150" y="197.038" width="6" height="2.96185" stroke="black" stroke-width="1" fill="blue" opacity="1" tooltip="enable"><title>(0.0368082,59)</title></rect><rect x="156" y="197.892" width="6" height="2.10843" stroke="black" stroke-width="1" fill="blue" opacity="1" tooltip="enable"><title>(0.0382805,42)</title></rect><rect x="162" y="198.544" width="6" height="1.45582" stroke="black" stroke-width="1" fill="blue" opacity="1" tooltip="enable"><title>(0.0397528,29)</title></rect><rect x="168" y="198.745" width="6" height="1.25502" stroke="black" stroke-width="1" fill="blue" opacity="1" tooltip="enable"><title>(0.0412252,25)</title></rect><rect x="174" y="198.042" width="6" height="1.95783" stroke="black" stroke-width="1" fill="blue" opacity="1" tooltip="enable"><title>(0.0426975,39)</title></rect><rect x="180" y="198.343" width="6" height="1.65663" stroke="black" stroke-width="1" fill="blue" opacity="1" tooltip="enable"><title>(0.0441698,33)</title></rect><rect x="186" y="199.046" width="6" height="0.953815" stroke="black" stroke-width="1" fill="blue" opacity="1" tooltip="enable"><title>(0.0456421,19)</title></rect><rect x="192" y="199.297" width="6" height="0.702811" stroke="black" stroke-width="1" fill="blue" opacity="1" tooltip="enable"><title>(0.0471145,14)</title></rect><rect x="198" y="199.096" width="6" height="0.903615" stroke="black" stroke-width="1" fill="blue" opacity="1" tooltip="enable"><title>(0.0485868,18)</title></rect><rect x="204" y="199.096" width="6" height="0.903615" stroke="black" stroke-width="1" fill="blue" opacity="1" tooltip="enable"><title>(0.0500591,18)</title></rect><rect x="210" y="199.297" width="6" height="0.702811" stroke="black" stroke-width="1" fill="blue" opacity="1" tooltip="enable"><title>(0.0515314,14)</title></rect><rect x="216" y="198.594" width="6" height="1.40562" stroke="black" stroke-width="1" fill="blue" opacity="1" tooltip="enable"><title>(0.0530038,28)</title></rect><rect x="222" y="198.293" width="6" height="1.70683" stroke="black" stroke-width="1" fill="blue" opacity="1" tooltip="enable"><title>(0.0544761,34)</title></rect><rect x="228" y="199.398" width="6" height="0.60241" stroke="black" stroke-width="1" fill="blue" opacity="1" tooltip="enable"><title>(0.0559484,12)</title></rect><rect x="234" y="199.398" width="6" height="0.60241" stroke="black" stroke-width="1" fill="blue" opacity="1" tooltip="enable"><title>(0.0574207,12)</title></rect><rect x="240" y="199.297" width="6" height="0.702811" stroke="black" stroke-width="1" fill="blue" opacity="1" tooltip="enable"><title>(0.0588931,14)</title></rect><rect x="246" y="199.197" width="6" height="0.803213" stroke="black" stroke-width="1" fill="blue" opacity="1" tooltip="enable"><title>(0.0603654,16)</title></rect><rect x="252" y="198.795" width="6" height="1.20482" stroke="black" stroke-width="1" fill="blue" opacity="1" tooltip="enable"><title>(0.0618377,24)</title></rect><rect x="258" y="199.498" width="6" height="0.502008" stroke="black" stroke-width="1" fill="blue" opacity="1" tooltip="enable"><title>(0.0633101,10)</title></rect><rect x="264" y="199.347" width="6" height="0.65261" stroke="black" stroke-width="1" fill="blue" opacity="1" tooltip="enable"><title>(0.0647824,13)</title></rect><rect x="270" y="199.448" width="6" height="0.552209" stroke="black" stroke-width="1" fill="blue" opacity="1" tooltip="enable"><title>(0.0662547,11)</title></rect><rect x="276" y="199.096" width="6" height="0.903615" stroke="black" stroke-width="1" fill="blue" opacity="1" tooltip="enable"><title>(0.067727,18)</title></rect><rect x="282" y="199.398" width="6" height="0.60241" stroke="black" stroke-width="1" fill="blue" opacity="1" tooltip="enable"><title>(0.0691994,12)</title></rect><rect x="288" y="199.197" width="6" height="0.803213" stroke="black" stroke-width="1" fill="blue" opacity="1" tooltip="enable"><title>(0.0706717,16)</title></rect><rect x="294" y="200" width="6" height="0" stroke="black" stroke-width="1" fill="blue" opacity="1" tooltip="enable"><title>(0.072144,0)</title></rect><rect x="300" y="199.699" width="6" height="0.301205" stroke="black" stroke-width="1" fill="blue" opacity="1" tooltip="enable"><title>(0.0736163,6)</title></rect><rect x="306" y="199.398" width="6" height="0.60241" stroke="black" stroke-width="1" fill="blue" opacity="1" tooltip="enable"><title>(0.0750887,12)</title></rect><rect x="312" y="199.598" width="6" height="0.401606" stroke="black" stroke-width="1" fill="blue" opacity="1" tooltip="enable"><title>(0.076561,8)</title></rect><rect x="318" y="199.699" width="6" height="0.301205" stroke="black" stroke-width="1" fill="blue" opacity="1" tooltip="enable"><title>(0.0780333,6)</title></rect><rect x="324" y="199.598" width="6" height="0.401606" stroke="black" stroke-width="1" fill="blue" opacity="1" tooltip="enable"><title>(0.0795057,8)</title></rect><rect x="330" y="199.598" width="6" height="0.401606" stroke="black" stroke-width="1" fill="blue" opacity="1" tooltip="enable"><title>(0.080978,8)</title></rect><rect x="336" y="199.598" width="6" height="0.401606" stroke="black" stroke-width="1" fill="blue" opacity="1" tooltip="enable"><title>(0.0824503,8)</title></rect><rect x="342" y="199.699" width="6" height="0.301205" stroke="black" stroke-width="1" fill="blue" opacity="1" tooltip="enable"><title>(0.0839226,6)</title></rect><rect x="348" y="199.799" width="6" height="0.200803" stroke="black" stroke-width="1" fill="blue" opacity="1" tooltip="enable"><title>(0.085395,4)</title></rect><rect x="354" y="200" width="6" height="0" stroke="black" stroke-width="1" fill="blue" opacity="1" tooltip="enable"><title>(0.0868673,0)</title></rect><rect x="360" y="200" width="6" height="0" stroke="black" stroke-width="1" fill="blue" opacity="1" tooltip="enable"><title>(0.0883396,0)</title></rect><rect x="366" y="200" width="6" height="0" stroke="black" stroke-width="1" fill="blue" opacity="1" tooltip="enable"><title>(0.0898119,0)</title></rect><rect x="372" y="199.9" width="6" height="0.100402" stroke="black" stroke-width="1" fill="blue" opacity="1" tooltip="enable"><title>(0.0912843,2)</title></rect><rect x="378" y="200" width="6" height="0" stroke="black" stroke-width="1" fill="blue" opacity="1" tooltip="enable"><title>(0.0927566,0)</title></rect><rect x="384" y="199.9" width="6" height="0.100402" stroke="black" stroke-width="1" fill="blue" opacity="1" tooltip="enable"><title>(0.0942289,2)</title></rect><rect x="390" y="200" width="6" height="0" stroke="black" stroke-width="1" fill="blue" opacity="1" tooltip="enable"><title>(0.0957012,0)</title></rect><rect x="396" y="199.9" width="6" height="0.100402" stroke="black" stroke-width="1" fill="blue" opacity="1" tooltip="enable"><title>(0.0971736,2)</title></rect><rect x="402" y="199.9" width="6" height="0.100402" stroke="black" stroke-width="1" fill="blue" opacity="1" tooltip="enable"><title>(0.0986459,2)</title></rect><rect x="408" y="199.9" width="6" height="0.100402" stroke="black" stroke-width="1" fill="blue" opacity="1" tooltip="enable"><title>(0.100118,2)</title></rect><rect x="414" y="199.799" width="6" height="0.200803" stroke="black" stroke-width="1" fill="blue" opacity="1" tooltip="enable"><title>(0.101591,4)</title></rect><rect x="420" y="200" width="6" height="0" stroke="black" stroke-width="1" fill="blue" opacity="1" tooltip="enable"><title>(0.103063,0)</title></rect><rect x="426" y="199.9" width="6" height="0.100402" stroke="black" stroke-width="1" fill="blue" opacity="1" tooltip="enable"><title>(0.104535,2)</title></rect><rect x="432" y="200" width="6" height="0" stroke="black" stroke-width="1" fill="blue" opacity="1" tooltip="enable"><title>(0.106008,0)</title></rect><rect x="438" y="199.95" width="6" height="0.0502008" stroke="black" stroke-width="1" fill="blue" opacity="1" tooltip="enable"><title>(0.10748,1)</title></rect><rect x="444" y="199.95" width="6" height="0.0502008" stroke="black" stroke-width="1" fill="blue" opacity="1" tooltip="enable"><title>(0.108952,1)</title></rect><rect x="450" y="200" width="6" height="0" stroke="black" stroke-width="1" fill="blue" opacity="1" tooltip="enable"><title>(0.110425,0)</title></rect><rect x="456" y="199.95" width="6" height="0.0502008" stroke="black" stroke-width="1" fill="blue" opacity="1" tooltip="enable"><title>(0.111897,1)</title></rect><rect x="462" y="199.95" width="6" height="0.0502008" stroke="black" stroke-width="1" fill="blue" opacity="1" tooltip="enable"><title>(0.113369,1)</title></rect><rect x="468" y="199.799" width="6" height="0.200803" stroke="black" stroke-width="1" fill="blue" opacity="1" tooltip="enable"><title>(0.114841,4)</title></rect><rect x="474" y="199.9" width="6" height="0.100402" stroke="black" stroke-width="1" fill="blue" opacity="1" tooltip="enable"><title>(0.116314,2)</title></rect><rect x="480" y="200" width="6" height="0" stroke="black" stroke-width="1" fill="blue" opacity="1" tooltip="enable"><title>(0.117786,0)</title></rect><rect x="486" y="200" width="6" height="0" stroke="black" stroke-width="1" fill="blue" opacity="1" tooltip="enable"><title>(0.119258,0)</title></rect><rect x="492" y="200" width="6" height="0" stroke="black" stroke-width="1" fill="blue" opacity="1" tooltip="enable"><title>(0.120731,0)</title></rect><rect x="498" y="199.9" width="6" height="0.100402" stroke="black" stroke-width="1" fill="blue" opacity="1" tooltip="enable"><title>(0.122203,2)</title></rect><rect x="504" y="200" width="6" height="0" stroke="black" stroke-width="1" fill="blue" opacity="1" tooltip="enable"><title>(0.123675,0)</title></rect><rect x="510" y="200" width="6" height="0" stroke="black" stroke-width="1" fill="blue" opacity="1" tooltip="enable"><title>(0.125148,0)</title></rect><rect x="516" y="200" width="6" height="0" stroke="black" stroke-width="1" fill="blue" opacity="1" tooltip="enable"><title>(0.12662,0)</title></rect><rect x="522" y="199.9" width="6" height="0.100402" stroke="black" stroke-width="1" fill="blue" opacity="1" tooltip="enable"><title>(0.128092,2)</title></rect><rect x="528" y="199.95" width="6" height="0.0502008" stroke="black" stroke-width="1" fill="blue" opacity="1" tooltip="enable"><title>(0.129565,1)</title></rect><rect x="534" y="199.799" width="6" height="0.200803" stroke="black" stroke-width="1" fill="blue" opacity="1" tooltip="enable"><title>(0.131037,4)</title></rect><rect x="540" y="199.849" width="6" height="0.150602" stroke="black" stroke-width="1" fill="blue" opacity="1" tooltip="enable"><title>(0.132509,3)</title></rect><rect x="546" y="200" width="6" height="0" stroke="black" stroke-width="1" fill="blue" opacity="1" tooltip="enable"><title>(0.133982,0)</title></rect><rect x="552" y="199.9" width="6" height="0.100402" stroke="black" stroke-width="1" fill="blue" opacity="1" tooltip="enable"><title>(0.135454,2)</title></rect><rect x="558" y="199.9" width="6" height="0.100402" stroke="black" stroke-width="1" fill="blue" opacity="1" tooltip="enable"><title>(0.136926,2)</title></rect><rect x="564" y="199.9" width="6" height="0.100402" stroke="black" stroke-width="1" fill="blue" opacity="1" tooltip="enable"><title>(0.138399,2)</title></rect><rect x="570" y="200" width="6" height="0" stroke="black" stroke-width="1" fill="blue" opacity="1" tooltip="enable"><title>(0.139871,0)</title></rect><rect x="576" y="200" width="6" height="0" stroke="black" stroke-width="1" fill="blue" opacity="1" tooltip="enable"><title>(0.141343,0)</title></rect><rect x="582" y="199.9" width="6" height="0.100402" stroke="black" stroke-width="1" fill="blue" opacity="1" tooltip="enable"><title>(0.142816,2)</title></rect><rect x="588" y="199.9" width="6" height="0.100402" stroke="black" stroke-width="1" fill="blue" opacity="1" tooltip="enable"><title>(0.144288,2)</title></rect><rect x="594" y="199.95" width="6" height="0.0502008" stroke="black" stroke-width="1" fill="blue" opacity="1" tooltip="enable"><title>(0.14576,1)</title></rect><text x="30" y="240" font-size="20" fill="black">0</text>
<text x="600" y="240" font-size="20" fill="black">0.147233</text>
<polyline points="0,220,600,220" stroke="black" stroke-width="1" fill="none" opacity="1"/>
<text x="720" y="20" font-size="20" fill="black">3984</text>
<text x="720" y="200" font-size="20" fill="black">0</text>
<polyline points="660,0,660,200" stroke="black" stroke-width="1" fill="none" opacity="1"/>
</svg>