<?xml version="1.0" standalone="yes"?>
<!-- SVG graphic -->
<svg xmlns='http://www.w3.org/2000/svg' xmlns:xlink='http://www.w3.org/1999/xlink'
 version="1.1">
<rect x="0" y="0" width="6" height="200" stroke="black" stroke-width="1" fill="blue" opacity="1" tooltip="enable"><title>(0,1159)</title></rect><rect x="6" y="10.6989" width="6" height="189.301" stroke="black" stroke-width="1" fill="blue" opacity="1" tooltip="enable"><title>(0.001235,1097)</title></rect><rect x="12" y="32.4418" width="6" height="167.558" stroke="black" stroke-width="1" fill="blue" opacity="1" tooltip="enable"><title>(0.00247,971)</title></rect><rect x="18" y="86.4538" width="6" height="113.546" stroke="black" stroke-width="1" fill="blue" opacity="1" tooltip="enable"><title>(0.003705,658)</title></rect><rect x="24" y="127.696" width="6" height="72.3037" stroke="black" stroke-width="1" fill="blue" opacity="1" tooltip="enable"><title>(0.00494,419)</title></rect><rect x="30" y="158.758" width="6" height="41.2425" stroke="black" stroke-width="1" fill="blue" opacity="1" tooltip="enable"><title>(0.006175,239)</title></rect><rect x="36" y="164.625" width="6" height="35.3753" stroke="black" stroke-width="1" fill="blue" opacity="1" tooltip="enable"><title>(0.00741,205)</title></rect><rect x="42" y="170.319" width="6" height="29.6808" stroke="black" stroke-width="1" fill="blue" opacity="1" tooltip="enable"><title>(0.008645,172)</title></rect><rect x="48" y="174.116" width="6" height="25.8844" stroke="black" stroke-width="1" fill="blue" opacity="1" tooltip="enable"><title>(0.00988,150)</title></rect><rect x="54" y="178.085" width="6" height="21.9154" stroke="black" stroke-width="1" fill="blue" opacity="1" tooltip="enable"><title>(0.011115,127)</title></rect><rect x="60" y="171.872" width="6" height="28.1277" stroke="black" stroke-width="1" fill="blue" opacity="1" tooltip="enable"><title>(0.01235,163)</title></rect><rect x="66" y="179.81" width="6" height="20.1898" stroke="black" stroke-width="1" fill="blue" opacity="1" tooltip="enable"><title>(0.013585,117)</title></rect><rect x="72" y="172.563" width="6" height="27.4374" stroke="black" stroke-width="1" fill="blue" opacity="1" tooltip="enable"><title>(0.01482,159)</title></rect><rect x="78" y="181.708" width="6" height="18.2916" stroke="black" stroke-width="1" fill="blue" opacity="1" tooltip="enable"><title>(0.016055,106)</title></rect><rect x="84" y="176.531" width="6" height="23.4685" stroke="black" stroke-width="1" fill="blue" opacity="1" tooltip="enable"><title>(0.01729,136)</title></rect><rect x="90" y="177.049" width="6" height="22.9508" stroke="black" stroke-width="1" fill="blue" opacity="1" tooltip="enable"><title>(0.018525,133)</title></rect><rect x="96" y="177.049" width="6" height="22.9508" stroke="black" stroke-width="1" fill="blue" opacity="1" tooltip="enable"><title>(0.01976,133)</title></rect><rect x="102" y="173.598" width="6" height="26.4021" stroke="black" stroke-width="1" fill="blue" opacity="1" tooltip="enable"><title>(0.020995,153)</title></rect><rect x="108" y="183.089" width="6" height="16.9111" stroke="black" stroke-width="1" fill="blue" opacity="1" tooltip="enable"><title>(0.02223,98)</title></rect><rect x="114" y="184.469" width="6" height="15.5306" stroke="black" stroke-width="1" fill="blue" opacity="1" tooltip="enable"><title>(0.023465,90)</title></rect><rect x="120" y="182.571" width="6" height="17.4288" stroke="black" stroke-width="1" fill="blue" opacity="1" tooltip="enable"><title>(0.0247,101)</title></rect><rect x="126" y="185.16" width="6" height="14.8404" stroke="black" stroke-width="1" fill="blue" opacity="1" tooltip="enable"><title>(0.025935,86)</title></rect><rect x="132" y="186.54" width="6" height="13.4599" stroke="black" stroke-width="1" fill="blue" opacity="1" tooltip="enable"><title>(0.02717,78)</title></rect><rect x="138" y="181.708" width="6" height="18.2916" stroke="black" stroke-width="1" fill="blue" opacity="1" tooltip="enable"><title>(0.028405,106)</title></rect><rect x="144" y="184.297" width="6" height="15.7032" stroke="black" stroke-width="1" fill="blue" opacity="1" tooltip="enable"><title>(0.02964,91)</title></rect><rect x="150" y="184.297" width="6" height="15.7032" stroke="black" stroke-width="1" fill="blue" opacity="1" tooltip="enable"><title>(0.030875,91)</title></rect><rect x="156" y="182.226" width="6" height="17.7739" stroke="black" stroke-width="1" fill="blue" opacity="1" tooltip="enable"><title>(0.03211,103)</title></rect><rect x="162" y="187.403" width="6" height="12.5971" stroke="black" stroke-width="1" fill="blue" opacity="1" tooltip="enable"><title>(0.033345,73)</title></rect><rect x="168" y="181.881" width="6" height="18.1191" stroke="black" stroke-width="1" fill="blue" opacity="1" tooltip="enable"><title>(0.03458,105)</title></rect><rect x="174" y="187.058" width="6" height="12.9422" stroke="black" stroke-width="1" fill="blue" opacity="1" tooltip="enable"><title>(0.035815,75)</title></rect><rect x="180" y="191.027" width="6" height="8.97325" stroke="black" stroke-width="1" fill="blue" opacity="1" tooltip="enable"><title>(0.03705,52)</title></rect><rect x="186" y="187.576" width="6" height="12.4245" stroke="black" stroke-width="1" fill="blue" opacity="1" tooltip="enable"><title>(0.038285,72)</title></rect><rect x="192" y="191.717" width="6" height="8.283" stroke="black" stroke-width="1" fill="blue" opacity="1" tooltip="enable"><title>(0.03952,48)</title></rect><rect x="198" y="192.925" width="6" height="7.07506" stroke="black" stroke-width="1" fill="blue" opacity="1" tooltip="enable"><title>(0.040755,41)</title></rect><rect x="204" y="191.717" width="6" height="8.283" stroke="black" stroke-width="1" fill="blue" opacity="1" tooltip="enable"><title>(0.04199,48)</title></rect><rect x="210" y="192.925" width="6" height="7.07506" stroke="black" stroke-width="1" fill="blue" opacity="1" tooltip="enable"><title>(0.043225,41)</title></rect><rect x="216" y="195.168" width="6" height="4.83175" stroke="black" stroke-width="1" fill="blue" opacity="1" tooltip="enable"><title>(0.04446,28)</title></rect><rect x="222" y="196.549" width="6" height="3.45125" stroke="black" stroke-width="1" fill="blue" opacity="1" tooltip="enable"><title>(0.045695,20)</title></rect><rect x="228" y="197.239" width="6" height="2.761" stroke="black" stroke-width="1" fill="blue" opacity="1" tooltip="enable"><title>(0.04693,16)</title></rect><rect x="234" y="195.513" width="6" height="4.48663" stroke="black" stroke-width="1" fill="blue" opacity="1" tooltip="enable"><title>(0.048165,26)</title></rect><rect x="240" y="198.447" width="6" height="1.55306" stroke="black" stroke-width="1" fill="blue" opacity="1" tooltip="enable"><title>(0.0494,9)</title></rect><rect x="246" y="196.721" width="6" height="3.27869" stroke="black" stroke-width="1" fill="blue" opacity="1" tooltip="enable"><title>(0.050635,19)</title></rect><rect x="252" y="197.584" width="6" height="2.41588" stroke="black" stroke-width="1" fill="blue" opacity="1" tooltip="enable"><title>(0.05187,14)</title></rect><rect x="258" y="197.929" width="6" height="2.07075" stroke="black" stroke-width="1" fill="blue" opacity="1" tooltip="enable"><title>(0.053105,12)</title></rect><rect x="264" y="198.965" width="6" height="1.03538" stroke="black" stroke-width="1" fill="blue" opacity="1" tooltip="enable"><title>(0.05434,6)</title></rect><rect x="270" y="197.412" width="6" height="2.58844" stroke="black" stroke-width="1" fill="blue" opacity="1" tooltip="enable"><title>(0.055575,15)</title></rect><rect x="276" y="197.757" width="6" height="2.24331" stroke="black" stroke-width="1" fill="blue" opacity="1" tooltip="enable"><title>(0.05681,13)</title></rect><rect x="282" y="198.965" width="6" height="1.03538" stroke="black" stroke-width="1" fill="blue" opacity="1" tooltip="enable"><title>(0.058045,6)</title></rect><rect x="288" y="197.929" width="6" height="2.07075" stroke="black" stroke-width="1" fill="blue" opacity="1" tooltip="enable"><title>(0.05928,12)</title></rect><rect x="294" y="199.31" width="6" height="0.69025" stroke="black" stroke-width="1" fill="blue" opacity="1" tooltip="enable"><title>(0.060515,4)</title></rect><rect x="300" y="198.62" width="6" height="1.3805" stroke="black" stroke-width="1" fill="blue" opacity="1" tooltip="enable"><title>(0.06175,8)</title></rect><rect x="306" y="198.274" width="6" height="1.72563" stroke="black" stroke-width="1" fill="blue" opacity="1" tooltip="enable"><title>(0.062985,10)</title></rect><rect x="312" y="199.655" width="6" height="0.345125" stroke="black" stroke-width="1" fill="blue" opacity="1" tooltip="enable"><title>(0.06422,2)</title></rect><rect x="318" y="199.31" width="6" height="0.69025" stroke="black" stroke-width="1" fill="blue" opacity="1" tooltip="enable"><title>(0.065455,4)</title></rect><rect x="324" y="198.274" width="6" height="1.72563" stroke="black" stroke-width="1" fill="blue" opacity="1" tooltip="enable"><title>(0.06669,10)</title></rect><rect x="330" y="198.62" width="6" height="1.3805" stroke="black" stroke-width="1" fill="blue" opacity="1" tooltip="enable"><title>(0.067925,8)</title></rect><rect x="336" y="198.62" width="6" height="1.3805" stroke="black" stroke-width="1" fill="blue" opacity="1" tooltip="enable"><title>(0.06916,8)</title></rect><rect x="342" y="198.62" width="6" height="1.3805" stroke="black" stroke-width="1" fill="blue" opacity="1" tooltip="enable"><title>(0.070395,8)</title></rect><rect x="348" y="200" width="6" height="0" stroke="black" stroke-width="1" fill="blue" opacity="1" tooltip="enable"><title>(0.07163,0)</title></rect><rect x="354" y="199.31" width="6" height="0.69025" stroke="black" stroke-width="1" fill="blue" opacity="1" tooltip="enable"><title>(0.072865,4)</title></rect><rect x="360" y="199.655" width="6" height="0.345125" stroke="black" stroke-width="1" fill="blue" opacity="1" tooltip="enable"><title>(0.0741,2)</title></rect><rect x="366" y="199.31" width="6" height="0.69025" stroke="black" stroke-width="1" fill="blue" opacity="1" tooltip="enable"><title>(0.075335,4)</title></rect><rect x="372" y="199.655" width="6" height="0.345125" stroke="black" stroke-width="1" fill="blue" opacity="1" tooltip="enable"><title>(0.07657,2)</title></rect><rect x="378" y="199.655" width="6" height="0.345125" stroke="black" stroke-width="1" fill="blue" opacity="1" tooltip="enable"><title>(0.077805,2)</title></rect><rect x="384" y="199.31" width="6" height="0.69025" stroke="black" stroke-width="1" fill="blue" opacity="1" tooltip="enable"><title>(0.07904,4)</title></rect><rect x="390" y="199.655" width="6" height="0.345125" stroke="black" stroke-width="1" fill="blue" opacity="1" tooltip="enable"><title>(0.080275,2)</title></rect><rect x="396" y="198.965" width="6" height="1.03538" stroke="black" stroke-width="1" fill="blue" opacity="1" tooltip="enable"><title>(0.08151,6)</title></rect><rect x="402" y="199.31" width="6" height="0.69025" stroke="black" stroke-width="1" fill="blue" opacity="1" tooltip="enable"><title>(0.082745,4)</title></rect><rect x="408" y="199.655" width="6" height="0.345125" stroke="black" stroke-width="1" fill="blue" opacity="1" tooltip="enable"><title>(0.08398,2)</title></rect><rect x="414" y="200" width="6" height="0" stroke="black" stroke-width="1" fill="blue" opacity="1" tooltip="enable"><title>(0.085215,0)</title></rect><rect x="420" y="199.655" width="6" height="0.345125" stroke="black" stroke-width="1" fill="blue" opacity="1" tooltip="enable"><title>(0.08645,2)</title></rect><rect x="426" y="200" width="6" height="0" stroke="black" stroke-width="1" fill="blue" opacity="1" tooltip="enable"><title>(0.087685,0)</title></rect><rect x="432" y="200" width="6" height="0" stroke="black" stroke-width="1" fill="blue" opacity="1" tooltip="enable"><title>(0.08892,0)</title></rect><rect x="438" y="199.655" width="6" height="0.345125" stroke="black" stroke-width="1" fill="blue" opacity="1" tooltip="enable"><title>(0.0901551,2)</title></rect><rect x="444" y="200" width="6" height="0" stroke="black" stroke-width="1" fill="blue" opacity="1" tooltip="enable"><title>(0.0913901,0)</title></rect><rect x="450" y="199.655" width="6" height="0.345125" stroke="black" stroke-width="1" fill="blue" opacity="1" tooltip="enable"><title>(0.0926251,2)</title></rect><rect x="456" y="200" width="6" height="0" stroke="black" stroke-width="1" fill="blue" opacity="1" tooltip="enable"><title>(0.09386,0)</title></rect><rect x="462" y="200" width="6" height="0" stroke="black" stroke-width="1" fill="blue" opacity="1" tooltip="enable"><title>(0.095095,0)</title></rect><rect x="468" y="199.31" width="6" height="0.69025" stroke="black" stroke-width="1" fill="blue" opacity="1" tooltip="enable"><title>(0.09633,4)</title></rect><rect x="474" y="200" width="6" height="0" stroke="black" stroke-width="1" fill="blue" opacity="1" tooltip="enable"><title>(0.0975651,0)</title></rect><rect x="480" y="199.655" width="6" height="0.345125" stroke="black" stroke-width="1" fill="blue" opacity="1" tooltip="enable"><title>(0.0988001,2)</title></rect><rect x="486" y="200" width="6" height="0" stroke="black" stroke-width="1" fill="blue" opacity="1" tooltip="enable"><title>(0.100035,0)</title></rect><rect x="492" y="200" width="6" height="0" stroke="black" stroke-width="1" fill="blue" opacity="1" tooltip="enable"><title>(0.10127,0)</title></rect><rect x="498" y="200" width="6" height="0" stroke="black" stroke-width="1" fill="blue" opacity="1" tooltip="enable"><title>(0.102505,0)</title></rect><rect x="504" y="200" width="6" height="0" stroke="black" stroke-width="1" fill="blue" opacity="1" tooltip="enable"><title>(0.10374,0)</title></rect><rect x="510" y="200" width="6" height="0" stroke="black" stroke-width="1" fill="blue" opacity="1" tooltip="enable"><title>(0.104975,0)</title></rect><rect x="516" y="200" width="6" height="0" stroke="black" stroke-width="1" fill="blue" opacity="1" tooltip="enable"><title>(0.10621,0)</title></rect><rect x="522" y="200" width="6" height="0" stroke="black" stroke-width="1" fill="blue" opacity="1" tooltip="enable"><title>(0.107445,0)</title></rect><rect x="528" y="200" width="6" height="0" stroke="black" stroke-width="1" fill="blue" opacity="1" tooltip="enable"><title>(0.10868,0)</title></rect><rect x="534" y="200" width="6" height="0" stroke="black" stroke-width="1" fill="blue" opacity="1" tooltip="enable"><title>(0.109915,0)</title></rect><rect x="540" y="200" width="6" height="0" stroke="black" stroke-width="1" fill="blue" opacity="1" tooltip="enable"><title>(0.11115,0)</title></rect><rect x="546" y="200" width="6" height="0" stroke="black" stroke-width="1" fill="blue" opacity="1" tooltip="enable"><title>(0.112385,0)</title></rect><rect x="552" y="200" width="6" height="0" stroke="black" stroke-width="1" fill="blue" opacity="1" tooltip="enable"><title>(0.11362,0)</title></rect><rect x="558" y="200" width="6" height="0" stroke="black" stroke-width="1" fill="blue" opacity="1" tooltip="enable"><title>(0.114855,0)</title></rect><rect x="564" y="200" width="6" height="0" stroke="black" stroke-width="1" fill="blue" opacity="1" tooltip="enable"><title>(0.11609,0)</title></rect><rect x="570" y="200" width="6" height="0" stroke="black" stroke-width="1" fill="blue" opacity="1" tooltip="enable"><title>(0.117325,0)</title></rect><rect x="576" y="200" width="6" height="0" stroke="black" stroke-width="1" fill="blue" opacity="1" tooltip="enable"><title>(0.11856,0)</title></rect><rect x="582" y="200" width="6" height="0" stroke="black" stroke-width="1" fill="blue" opacity="1" tooltip="enable"><title>(0.119795,0)</title></rect><rect x="588" y="200" width="6" height="0" stroke="black" stroke-width="1" fill="blue" opacity="1" tooltip="enable"><title>(0.12103,0)</title></rect><rect x="594" y="199.827" width="6" height="0.172563" stroke="black" stroke-width="1" fill="blue" opacity="1" tooltip="enable"><title>(0.122265,1)</title></rect><text x="30" y="240" font-size="20" fill="black">0</text>
<text x="600" y="240" font-size="20" fill="black">0.1235</text>
<polyline points="0,220,600,220" stroke="black" stroke-width="1" fill="none" opacity="1"/>
<text x="720" y="20" font-size="20" fill="black">1159</text>
<text x="720" y="200" font-size="20" fill="black">0</text>
<polyline points="660,0,660,200" stroke="black" stroke-width="1" fill="none" opacity="1"/>
</svg>