<?xml version="1.0" standalone="yes"?>
<!-- SVG graphic -->
<svg xmlns='http://www.w3.org/2000/svg' xmlns:xlink='http://www.w3.org/1999/xlink'
 version="1.1">
<rect x="0" y="0" width="6" height="200" stroke="black" stroke-width="1" fill="blue" opacity="1" tooltip="enable"><title>(0,1342)</title></rect><rect x="6" y="18.6289" width="6" height="181.371" stroke="black" stroke-width="1" fill="blue" opacity="1" tooltip="enable"><title>(0.00120656,1217)</title></rect><rect x="12" y="25.4843" width="6" height="174.516" stroke="black" stroke-width="1" fill="blue" opacity="1" tooltip="enable"><title>(0.00241313,1171)</title></rect><rect x="18" y="118.033" width="6" height="81.9672" stroke="black" stroke-width="1" fill="blue" opacity="1" tooltip="enable"><title>(0.00361969,550)</title></rect><rect x="24" y="159.613" width="6" height="40.3875" stroke="black" stroke-width="1" fill="blue" opacity="1" tooltip="enable"><title>(0.00482626,271)</title></rect><rect x="30" y="173.621" width="6" height="26.3785" stroke="black" stroke-width="1" fill="blue" opacity="1" tooltip="enable"><title>(0.00603282,177)</title></rect><rect x="36" y="177.347" width="6" height="22.6528" stroke="black" stroke-width="1" fill="blue" opacity="1" tooltip="enable"><title>(0.00723939,152)</title></rect><rect x="42" y="175.559" width="6" height="24.4411" stroke="black" stroke-width="1" fill="blue" opacity="1" tooltip="enable"><title>(0.00844595,164)</title></rect><rect x="48" y="183.159" width="6" height="16.8405" stroke="black" stroke-width="1" fill="blue" opacity="1" tooltip="enable"><title>(0.00965251,113)</title></rect><rect x="54" y="186.885" width="6" height="13.1148" stroke="black" stroke-width="1" fill="blue" opacity="1" tooltip="enable"><title>(0.0108591,88)</title></rect><rect x="60" y="180.626" width="6" height="19.3741" stroke="black" stroke-width="1" fill="blue" opacity="1" tooltip="enable"><title>(0.0120656,130)</title></rect><rect x="66" y="181.967" width="6" height="18.0328" stroke="black" stroke-width="1" fill="blue" opacity="1" tooltip="enable"><title>(0.0132722,121)</title></rect><rect x="72" y="181.222" width="6" height="18.7779" stroke="black" stroke-width="1" fill="blue" opacity="1" tooltip="enable"><title>(0.0144788,126)</title></rect><rect x="78" y="183.01" width="6" height="16.9896" stroke="black" stroke-width="1" fill="blue" opacity="1" tooltip="enable"><title>(0.0156853,114)</title></rect><rect x="84" y="184.948" width="6" height="15.0522" stroke="black" stroke-width="1" fill="blue" opacity="1" tooltip="enable"><title>(0.0168919,101)</title></rect><rect x="90" y="184.65" width="6" height="15.3502" stroke="black" stroke-width="1" fill="blue" opacity="1" tooltip="enable"><title>(0.0180985,103)</title></rect><rect x="96" y="182.563" width="6" height="17.4367" stroke="black" stroke-width="1" fill="blue" opacity="1" tooltip="enable"><title>(0.019305,117)</title></rect><rect x="102" y="183.01" width="6" height="16.9896" stroke="black" stroke-width="1" fill="blue" opacity="1" tooltip="enable"><title>(0.0205116,114)</title></rect><rect x="108" y="184.65" width="6" height="15.3502" stroke="black" stroke-width="1" fill="blue" opacity="1" tooltip="enable"><title>(0.0217182,103)</title></rect><rect x="114" y="183.159" width="6" height="16.8405" stroke="black" stroke-width="1" fill="blue" opacity="1" tooltip="enable"><title>(0.0229247,113)</title></rect><rect x="120" y="185.693" width="6" height="14.307" stroke="black" stroke-width="1" fill="blue" opacity="1" tooltip="enable"><title>(0.0241313,96)</title></rect><rect x="126" y="186.289" width="6" height="13.7109" stroke="black" stroke-width="1" fill="blue" opacity="1" tooltip="enable"><title>(0.0253378,92)</title></rect><rect x="132" y="179.285" width="6" height="20.7154" stroke="black" stroke-width="1" fill="blue" opacity="1" tooltip="enable"><title>(0.0265444,139)</title></rect><rect x="138" y="184.352" width="6" height="15.6483" stroke="black" stroke-width="1" fill="blue" opacity="1" tooltip="enable"><title>(0.027751,105)</title></rect><rect x="144" y="185.395" width="6" height="14.6051" stroke="black" stroke-width="1" fill="blue" opacity="1" tooltip="enable"><title>(0.0289575,98)</title></rect><rect x="150" y="187.034" width="6" height="12.9657" stroke="black" stroke-width="1" fill="blue" opacity="1" tooltip="enable"><title>(0.0301641,87)</title></rect><rect x="156" y="185.693" width="6" height="14.307" stroke="black" stroke-width="1" fill="blue" opacity="1" tooltip="enable"><title>(0.0313707,96)</title></rect><rect x="162" y="185.544" width="6" height="14.456" stroke="black" stroke-width="1" fill="blue" opacity="1" tooltip="enable"><title>(0.0325772,97)</title></rect><rect x="168" y="187.332" width="6" height="12.6677" stroke="black" stroke-width="1" fill="blue" opacity="1" tooltip="enable"><title>(0.0337838,85)</title></rect><rect x="174" y="189.121" width="6" height="10.8793" stroke="black" stroke-width="1" fill="blue" opacity="1" tooltip="enable"><title>(0.0349904,73)</title></rect><rect x="180" y="191.505" width="6" height="8.49478" stroke="black" stroke-width="1" fill="blue" opacity="1" tooltip="enable"><title>(0.0361969,57)</title></rect><rect x="186" y="187.779" width="6" height="12.2206" stroke="black" stroke-width="1" fill="blue" opacity="1" tooltip="enable"><title>(0.0374035,82)</title></rect><rect x="192" y="193.89" width="6" height="6.11028" stroke="black" stroke-width="1" fill="blue" opacity="1" tooltip="enable"><title>(0.0386101,41)</title></rect><rect x="198" y="189.866" width="6" height="10.1341" stroke="black" stroke-width="1" fill="blue" opacity="1" tooltip="enable"><title>(0.0398166,68)</title></rect><rect x="204" y="192.996" width="6" height="7.00447" stroke="black" stroke-width="1" fill="blue" opacity="1" tooltip="enable"><title>(0.0410232,47)</title></rect><rect x="210" y="194.486" width="6" height="5.51416" stroke="black" stroke-width="1" fill="blue" opacity="1" tooltip="enable"><title>(0.0422297,37)</title></rect><rect x="216" y="194.039" width="6" height="5.96125" stroke="black" stroke-width="1" fill="blue" opacity="1" tooltip="enable"><title>(0.0434363,40)</title></rect><rect x="222" y="196.274" width="6" height="3.72578" stroke="black" stroke-width="1" fill="blue" opacity="1" tooltip="enable"><title>(0.0446429,25)</title></rect><rect x="228" y="197.765" width="6" height="2.23547" stroke="black" stroke-width="1" fill="blue" opacity="1" tooltip="enable"><title>(0.0458494,15)</title></rect><rect x="234" y="197.317" width="6" height="2.68256" stroke="black" stroke-width="1" fill="blue" opacity="1" tooltip="enable"><title>(0.047056,18)</title></rect><rect x="240" y="195.827" width="6" height="4.17288" stroke="black" stroke-width="1" fill="blue" opacity="1" tooltip="enable"><title>(0.0482626,28)</title></rect><rect x="246" y="197.019" width="6" height="2.98063" stroke="black" stroke-width="1" fill="blue" opacity="1" tooltip="enable"><title>(0.0494691,20)</title></rect><rect x="252" y="198.361" width="6" height="1.63934" stroke="black" stroke-width="1" fill="blue" opacity="1" tooltip="enable"><title>(0.0506757,11)</title></rect><rect x="258" y="196.721" width="6" height="3.27869" stroke="black" stroke-width="1" fill="blue" opacity="1" tooltip="enable"><title>(0.0518823,22)</title></rect><rect x="264" y="197.914" width="6" height="2.08644" stroke="black" stroke-width="1" fill="blue" opacity="1" tooltip="enable"><title>(0.0530888,14)</title></rect><rect x="270" y="199.404" width="6" height="0.596125" stroke="black" stroke-width="1" fill="blue" opacity="1" tooltip="enable"><title>(0.0542954,4)</title></rect><rect x="276" y="198.808" width="6" height="1.19225" stroke="black" stroke-width="1" fill="blue" opacity="1" tooltip="enable"><title>(0.055502,8)</title></rect><rect x="282" y="199.404" width="6" height="0.596125" stroke="black" stroke-width="1" fill="blue" opacity="1" tooltip="enable"><title>(0.0567085,4)</title></rect><rect x="288" y="197.615" width="6" height="2.3845" stroke="black" stroke-width="1" fill="blue" opacity="1" tooltip="enable"><title>(0.0579151,16)</title></rect><rect x="294" y="199.404" width="6" height="0.596125" stroke="black" stroke-width="1" fill="blue" opacity="1" tooltip="enable"><title>(0.0591217,4)</title></rect><rect x="300" y="199.404" width="6" height="0.596125" stroke="black" stroke-width="1" fill="blue" opacity="1" tooltip="enable"><title>(0.0603282,4)</title></rect><rect x="306" y="199.106" width="6" height="0.894188" stroke="black" stroke-width="1" fill="blue" opacity="1" tooltip="enable"><title>(0.0615348,6)</title></rect><rect x="312" y="199.702" width="6" height="0.298063" stroke="black" stroke-width="1" fill="blue" opacity="1" tooltip="enable"><title>(0.0627413,2)</title></rect><rect x="318" y="199.702" width="6" height="0.298063" stroke="black" stroke-width="1" fill="blue" opacity="1" tooltip="enable"><title>(0.0639479,2)</title></rect><rect x="324" y="198.957" width="6" height="1.04322" stroke="black" stroke-width="1" fill="blue" opacity="1" tooltip="enable"><title>(0.0651545,7)</title></rect><rect x="330" y="199.553" width="6" height="0.447094" stroke="black" stroke-width="1" fill="blue" opacity="1" tooltip="enable"><title>(0.066361,3)</title></rect><rect x="336" y="199.404" width="6" height="0.596125" stroke="black" stroke-width="1" fill="blue" opacity="1" tooltip="enable"><title>(0.0675676,4)</title></rect><rect x="342" y="198.51" width="6" height="1.49031" stroke="black" stroke-width="1" fill="blue" opacity="1" tooltip="enable"><title>(0.0687742,10)</title></rect><rect x="348" y="198.51" width="6" height="1.49031" stroke="black" stroke-width="1" fill="blue" opacity="1" tooltip="enable"><title>(0.0699807,10)</title></rect><rect x="354" y="199.404" width="6" height="0.596125" stroke="black" stroke-width="1" fill="blue" opacity="1" tooltip="enable"><title>(0.0711873,4)</title></rect><rect x="360" y="199.702" width="6" height="0.298063" stroke="black" stroke-width="1" fill="blue" opacity="1" tooltip="enable"><title>(0.0723939,2)</title></rect><rect x="366" y="199.702" width="6" height="0.298063" stroke="black" stroke-width="1" fill="blue" opacity="1" tooltip="enable"><title>(0.0736004,2)</title></rect><rect x="372" y="199.106" width="6" height="0.894188" stroke="black" stroke-width="1" fill="blue" opacity="1" tooltip="enable"><title>(0.074807,6)</title></rect><rect x="378" y="199.851" width="6" height="0.149031" stroke="black" stroke-width="1" fill="blue" opacity="1" tooltip="enable"><title>(0.0760136,1)</title></rect><rect x="384" y="199.851" width="6" height="0.149031" stroke="black" stroke-width="1" fill="blue" opacity="1" tooltip="enable"><title>(0.0772201,1)</title></rect><rect x="390" y="199.702" width="6" height="0.298063" stroke="black" stroke-width="1" fill="blue" opacity="1" tooltip="enable"><title>(0.0784267,2)</title></rect><rect x="396" y="199.702" width="6" height="0.298063" stroke="black" stroke-width="1" fill="blue" opacity="1" tooltip="enable"><title>(0.0796333,2)</title></rect><rect x="402" y="199.404" width="6" height="0.596125" stroke="black" stroke-width="1" fill="blue" opacity="1" tooltip="enable"><title>(0.0808398,4)</title></rect><rect x="408" y="199.702" width="6" height="0.298063" stroke="black" stroke-width="1" fill="blue" opacity="1" tooltip="enable"><title>(0.0820464,2)</title></rect><rect x="414" y="199.702" width="6" height="0.298063" stroke="black" stroke-width="1" fill="blue" opacity="1" tooltip="enable"><title>(0.0832529,2)</title></rect><rect x="420" y="199.702" width="6" height="0.298063" stroke="black" stroke-width="1" fill="blue" opacity="1" tooltip="enable"><title>(0.0844595,2)</title></rect><rect x="426" y="200" width="6" height="0" stroke="black" stroke-width="1" fill="blue" opacity="1" tooltip="enable"><title>(0.0856661,0)</title></rect><rect x="432" y="200" width="6" height="0" stroke="black" stroke-width="1" fill="blue" opacity="1" tooltip="enable"><title>(0.0868726,0)</title></rect><rect x="438" y="200" width="6" height="0" stroke="black" stroke-width="1" fill="blue" opacity="1" tooltip="enable"><title>(0.0880792,0)</title></rect><rect x="444" y="200" width="6" height="0" stroke="black" stroke-width="1" fill="blue" opacity="1" tooltip="enable"><title>(0.0892858,0)</title></rect><rect x="450" y="200" width="6" height="0" stroke="black" stroke-width="1" fill="blue" opacity="1" tooltip="enable"><title>(0.0904923,0)</title></rect><rect x="456" y="200" width="6" height="0" stroke="black" stroke-width="1" fill="blue" opacity="1" tooltip="enable"><title>(0.0916989,0)</title></rect><rect x="462" y="200" width="6" height="0" stroke="black" stroke-width="1" fill="blue" opacity="1" tooltip="enable"><title>(0.0929054,0)</title></rect><rect x="468" y="200" width="6" height="0" stroke="black" stroke-width="1" fill="blue" opacity="1" tooltip="enable"><title>(0.094112,0)</title></rect><rect x="474" y="200" width="6" height="0" stroke="black" stroke-width="1" fill="blue" opacity="1" tooltip="enable"><title>(0.0953186,0)</title></rect><rect x="480" y="200" width="6" height="0" stroke="black" stroke-width="1" fill="blue" opacity="1" tooltip="enable"><title>(0.0965251,0)</title></rect><rect x="486" y="200" width="6" height="0" stroke="black" stroke-width="1" fill="blue" opacity="1" tooltip="enable"><title>(0.0977317,0)</title></rect><rect x="492" y="200" width="6" height="0" stroke="black" stroke-width="1" fill="blue" opacity="1" tooltip="enable"><title>(0.0989383,0)</title></rect><rect x="498" y="200" width="6" height="0" stroke="black" stroke-width="1" fill="blue" opacity="1" tooltip="enable"><title>(0.100145,0)</title></rect><rect x="504" y="200" width="6" height="0" stroke="black" stroke-width="1" fill="blue" opacity="1" tooltip="enable"><title>(0.101351,0)</title></rect><rect x="510" y="200" width="6" height="0" stroke="black" stroke-width="1" fill="blue" opacity="1" tooltip="enable"><title>(0.102558,0)</title></rect><rect x="516" y="200" width="6" height="0" stroke="black" stroke-width="1" fill="blue" opacity="1" tooltip="enable"><title>(0.103765,0)</title></rect><rect x="522" y="200" width="6" height="0" stroke="black" stroke-width="1" fill="blue" opacity="1" tooltip="enable"><title>(0.104971,0)</title></rect><rect x="528" y="199.404" width="6" height="0.596125" stroke="black" stroke-width="1" fill="blue" opacity="1" tooltip="enable"><title>(0.106178,4)</title></rect><rect x="534" y="200" width="6" height="0" stroke="black" stroke-width="1" fill="blue" opacity="1" tooltip="enable"><title>(0.107384,0)</title></rect><rect x="540" y="200" width="6" height="0" stroke="black" stroke-width="1" fill="blue" opacity="1" tooltip="enable"><title>(0.108591,0)</title></rect><rect x="546" y="200" width="6" height="0" stroke="black" stroke-width="1" fill="blue" opacity="1" tooltip="enable"><title>(0.109797,0)</title></rect><rect x="552" y="200" width="6" height="0" stroke="black" stroke-width="1" fill="blue" opacity="1" tooltip="enable"><title>(0.111004,0)</title></rect><rect x="558" y="200" width="6" height="0" stroke="black" stroke-width="1" fill="blue" opacity="1" tooltip="enable"><title>(0.11221,0)</title></rect><rect x="564" y="200" width="6" height="0" stroke="black" stroke-width="1" fill="blue" opacity="1" tooltip="enable"><title>(0.113417,0)</title></rect><rect x="570" y="200" width="6" height="0" stroke="black" stroke-width="1" fill="blue" opacity="1" tooltip="enable"><title>(0.114624,0)</title></rect><rect x="576" y="200" width="6" height="0" stroke="black" stroke-width="1" fill="blue" opacity="1" tooltip="enable"><title>(0.11583,0)</title></rect><rect x="582" y="200" width="6" height="0" stroke="black" stroke-width="1" fill="blue" opacity="1" tooltip="enable"><title>(0.117037,0)</title></rect><rect x="588" y="200" width="6" height="0" stroke="black" stroke-width="1" fill="blue" opacity="1" tooltip="enable"><title>(0.118243,0)</title></rect><rect x="594" y="199.851" width="6" height="0.149031" stroke="black" stroke-width="1" fill="blue" opacity="1" tooltip="enable"><title>(0.11945,1)</title></rect><text x="30" y="240" font-size="20" fill="black">0</text>
<text x="600" y="240" font-size="20" fill="black">0.120656</text>
<polyline points="0,220,600,220" stroke="black" stroke-width="1" fill="none" opacity="1"/>
<text x="720" y="20" font-size="20" fill="black">1342</text>
<text x="720" y="200" font-size="20" fill="black">0</text>
<polyline points="660,0,660,200" stroke="black" stroke-width="1" fill="none" opacity="1"/>
</svg>