<?xml version="1.0" standalone="yes"?>
<!-- SVG graphic -->
<svg xmlns='http://www.w3.org/2000/svg' xmlns:xlink='http://www.w3.org/1999/xlink'
 version="1.1">
<rect x="0" y="-1.52588e-05" width="6" height="200" stroke="black" stroke-width="1" fill="blue" opacity="1" tooltip="enable"><title>(0,1567)</title></rect><rect x="6" y="9.57242" width="6" height="190.428" stroke="black" stroke-width="1" fill="blue" opacity="1" tooltip="enable"><title>(0.00134444,1492)</title></rect><rect x="12" y="70.7084" width="6" height="129.292" stroke="black" stroke-width="1" fill="blue" opacity="1" tooltip="enable"><title>(0.00268887,1013)</title></rect><rect x="18" y="143.459" width="6" height="56.5412" stroke="black" stroke-width="1" fill="blue" opacity="1" tooltip="enable"><title>(0.00403331,443)</title></rect><rect x="24" y="178.685" width="6" height="21.3146" stroke="black" stroke-width="1" fill="blue" opacity="1" tooltip="enable"><title>(0.00537774,167)</title></rect><rect x="30" y="182.387" width="6" height="17.6133" stroke="black" stroke-width="1" fill="blue" opacity="1" tooltip="enable"><title>(0.00672218,138)</title></rect><rect x="36" y="182.004" width="6" height="17.9962" stroke="black" stroke-width="1" fill="blue" opacity="1" tooltip="enable"><title>(0.00806662,141)</title></rect><rect x="42" y="178.175" width="6" height="21.8251" stroke="black" stroke-width="1" fill="blue" opacity="1" tooltip="enable"><title>(0.00941105,171)</title></rect><rect x="48" y="182.897" width="6" height="17.1027" stroke="black" stroke-width="1" fill="blue" opacity="1" tooltip="enable"><title>(0.0107555,134)</title></rect><rect x="54" y="181.366" width="6" height="18.6343" stroke="black" stroke-width="1" fill="blue" opacity="1" tooltip="enable"><title>(0.0120999,146)</title></rect><rect x="60" y="181.366" width="6" height="18.6343" stroke="black" stroke-width="1" fill="blue" opacity="1" tooltip="enable"><title>(0.0134444,146)</title></rect><rect x="66" y="182.514" width="6" height="17.4856" stroke="black" stroke-width="1" fill="blue" opacity="1" tooltip="enable"><title>(0.0147888,137)</title></rect><rect x="72" y="181.238" width="6" height="18.762" stroke="black" stroke-width="1" fill="blue" opacity="1" tooltip="enable"><title>(0.0161332,147)</title></rect><rect x="78" y="185.705" width="6" height="14.2948" stroke="black" stroke-width="1" fill="blue" opacity="1" tooltip="enable"><title>(0.0174777,112)</title></rect><rect x="84" y="184.939" width="6" height="15.0606" stroke="black" stroke-width="1" fill="blue" opacity="1" tooltip="enable"><title>(0.0188221,118)</title></rect><rect x="90" y="181.11" width="6" height="18.8896" stroke="black" stroke-width="1" fill="blue" opacity="1" tooltip="enable"><title>(0.0201665,148)</title></rect><rect x="96" y="184.429" width="6" height="15.5712" stroke="black" stroke-width="1" fill="blue" opacity="1" tooltip="enable"><title>(0.021511,122)</title></rect><rect x="102" y="178.941" width="6" height="21.0593" stroke="black" stroke-width="1" fill="blue" opacity="1" tooltip="enable"><title>(0.0228554,165)</title></rect><rect x="108" y="183.535" width="6" height="16.4646" stroke="black" stroke-width="1" fill="blue" opacity="1" tooltip="enable"><title>(0.0241999,129)</title></rect><rect x="114" y="185.067" width="6" height="14.933" stroke="black" stroke-width="1" fill="blue" opacity="1" tooltip="enable"><title>(0.0255443,117)</title></rect><rect x="120" y="184.812" width="6" height="15.1883" stroke="black" stroke-width="1" fill="blue" opacity="1" tooltip="enable"><title>(0.0268887,119)</title></rect><rect x="126" y="187.237" width="6" height="12.7632" stroke="black" stroke-width="1" fill="blue" opacity="1" tooltip="enable"><title>(0.0282332,100)</title></rect><rect x="132" y="184.939" width="6" height="15.0606" stroke="black" stroke-width="1" fill="blue" opacity="1" tooltip="enable"><title>(0.0295776,118)</title></rect><rect x="138" y="187.364" width="6" height="12.6356" stroke="black" stroke-width="1" fill="blue" opacity="1" tooltip="enable"><title>(0.030922,99)</title></rect><rect x="144" y="186.981" width="6" height="13.0185" stroke="black" stroke-width="1" fill="blue" opacity="1" tooltip="enable"><title>(0.0322665,102)</title></rect><rect x="150" y="189.662" width="6" height="10.3382" stroke="black" stroke-width="1" fill="blue" opacity="1" tooltip="enable"><title>(0.0336109,81)</title></rect><rect x="156" y="188.13" width="6" height="11.8698" stroke="black" stroke-width="1" fill="blue" opacity="1" tooltip="enable"><title>(0.0349553,93)</title></rect><rect x="162" y="189.662" width="6" height="10.3382" stroke="black" stroke-width="1" fill="blue" opacity="1" tooltip="enable"><title>(0.0362998,81)</title></rect><rect x="168" y="193.235" width="6" height="6.76452" stroke="black" stroke-width="1" fill="blue" opacity="1" tooltip="enable"><title>(0.0376442,53)</title></rect><rect x="174" y="194.001" width="6" height="5.99872" stroke="black" stroke-width="1" fill="blue" opacity="1" tooltip="enable"><title>(0.0389886,47)</title></rect><rect x="180" y="192.98" width="6" height="7.01978" stroke="black" stroke-width="1" fill="blue" opacity="1" tooltip="enable"><title>(0.0403331,55)</title></rect><rect x="186" y="196.043" width="6" height="3.95661" stroke="black" stroke-width="1" fill="blue" opacity="1" tooltip="enable"><title>(0.0416775,31)</title></rect><rect x="192" y="195.405" width="6" height="4.59477" stroke="black" stroke-width="1" fill="blue" opacity="1" tooltip="enable"><title>(0.043022,36)</title></rect><rect x="198" y="193.874" width="6" height="6.12636" stroke="black" stroke-width="1" fill="blue" opacity="1" tooltip="enable"><title>(0.0443664,48)</title></rect><rect x="204" y="196.171" width="6" height="3.82897" stroke="black" stroke-width="1" fill="blue" opacity="1" tooltip="enable"><title>(0.0457108,30)</title></rect><rect x="210" y="197.575" width="6" height="2.42502" stroke="black" stroke-width="1" fill="blue" opacity="1" tooltip="enable"><title>(0.0470553,19)</title></rect><rect x="216" y="197.575" width="6" height="2.42502" stroke="black" stroke-width="1" fill="blue" opacity="1" tooltip="enable"><title>(0.0483997,19)</title></rect><rect x="222" y="196.299" width="6" height="3.70134" stroke="black" stroke-width="1" fill="blue" opacity="1" tooltip="enable"><title>(0.0497441,29)</title></rect><rect x="228" y="197.83" width="6" height="2.16975" stroke="black" stroke-width="1" fill="blue" opacity="1" tooltip="enable"><title>(0.0510886,17)</title></rect><rect x="234" y="197.958" width="6" height="2.04212" stroke="black" stroke-width="1" fill="blue" opacity="1" tooltip="enable"><title>(0.052433,16)</title></rect><rect x="240" y="199.234" width="6" height="0.765795" stroke="black" stroke-width="1" fill="blue" opacity="1" tooltip="enable"><title>(0.0537774,6)</title></rect><rect x="246" y="198.724" width="6" height="1.27632" stroke="black" stroke-width="1" fill="blue" opacity="1" tooltip="enable"><title>(0.0551219,10)</title></rect><rect x="252" y="198.724" width="6" height="1.27632" stroke="black" stroke-width="1" fill="blue" opacity="1" tooltip="enable"><title>(0.0564663,10)</title></rect><rect x="258" y="199.489" width="6" height="0.51053" stroke="black" stroke-width="1" fill="blue" opacity="1" tooltip="enable"><title>(0.0578108,4)</title></rect><rect x="264" y="199.362" width="6" height="0.638162" stroke="black" stroke-width="1" fill="blue" opacity="1" tooltip="enable"><title>(0.0591552,5)</title></rect><rect x="270" y="199.234" width="6" height="0.765795" stroke="black" stroke-width="1" fill="blue" opacity="1" tooltip="enable"><title>(0.0604996,6)</title></rect><rect x="276" y="199.872" width="6" height="0.127632" stroke="black" stroke-width="1" fill="blue" opacity="1" tooltip="enable"><title>(0.0618441,1)</title></rect><rect x="282" y="199.745" width="6" height="0.255265" stroke="black" stroke-width="1" fill="blue" opacity="1" tooltip="enable"><title>(0.0631885,2)</title></rect><rect x="288" y="200" width="6" height="0" stroke="black" stroke-width="1" fill="blue" opacity="1" tooltip="enable"><title>(0.0645329,0)</title></rect><rect x="294" y="200" width="6" height="0" stroke="black" stroke-width="1" fill="blue" opacity="1" tooltip="enable"><title>(0.0658774,0)</title></rect><rect x="300" y="200" width="6" height="0" stroke="black" stroke-width="1" fill="blue" opacity="1" tooltip="enable"><title>(0.0672218,0)</title></rect><rect x="306" y="200" width="6" height="0" stroke="black" stroke-width="1" fill="blue" opacity="1" tooltip="enable"><title>(0.0685662,0)</title></rect><rect x="312" y="200" width="6" height="0" stroke="black" stroke-width="1" fill="blue" opacity="1" tooltip="enable"><title>(0.0699107,0)</title></rect><rect x="318" y="200" width="6" height="0" stroke="black" stroke-width="1" fill="blue" opacity="1" tooltip="enable"><title>(0.0712551,0)</title></rect><rect x="324" y="200" width="6" height="0" stroke="black" stroke-width="1" fill="blue" opacity="1" tooltip="enable"><title>(0.0725996,0)</title></rect><rect x="330" y="200" width="6" height="0" stroke="black" stroke-width="1" fill="blue" opacity="1" tooltip="enable"><title>(0.073944,0)</title></rect><rect x="336" y="200" width="6" height="0" stroke="black" stroke-width="1" fill="blue" opacity="1" tooltip="enable"><title>(0.0752884,0)</title></rect><rect x="342" y="200" width="6" height="0" stroke="black" stroke-width="1" fill="blue" opacity="1" tooltip="enable"><title>(0.0766329,0)</title></rect><rect x="348" y="200" width="6" height="0" stroke="black" stroke-width="1" fill="blue" opacity="1" tooltip="enable"><title>(0.0779773,0)</title></rect><rect x="354" y="200" width="6" height="0" stroke="black" stroke-width="1" fill="blue" opacity="1" tooltip="enable"><title>(0.0793217,0)</title></rect><rect x="360" y="200" width="6" height="0" stroke="black" stroke-width="1" fill="blue" opacity="1" tooltip="enable"><title>(0.0806662,0)</title></rect><rect x="366" y="200" width="6" height="0" stroke="black" stroke-width="1" fill="blue" opacity="1" tooltip="enable"><title>(0.0820106,0)</title></rect><rect x="372" y="200" width="6" height="0" stroke="black" stroke-width="1" fill="blue" opacity="1" tooltip="enable"><title>(0.083355,0)</title></rect><rect x="378" y="200" width="6" height="0" stroke="black" stroke-width="1" fill="blue" opacity="1" tooltip="enable"><title>(0.0846995,0)</title></rect><rect x="384" y="200" width="6" height="0" stroke="black" stroke-width="1" fill="blue" opacity="1" tooltip="enable"><title>(0.0860439,0)</title></rect><rect x="390" y="200" width="6" height="0" stroke="black" stroke-width="1" fill="blue" opacity="1" tooltip="enable"><title>(0.0873883,0)</title></rect><rect x="396" y="200" width="6" height="0" stroke="black" stroke-width="1" fill="blue" opacity="1" tooltip="enable"><title>(0.0887328,0)</title></rect><rect x="402" y="200" width="6" height="0" stroke="black" stroke-width="1" fill="blue" opacity="1" tooltip="enable"><title>(0.0900772,0)</title></rect><rect x="408" y="200" width="6" height="0" stroke="black" stroke-width="1" fill="blue" opacity="1" tooltip="enable"><title>(0.0914217,0)</title></rect><rect x="414" y="200" width="6" height="0" stroke="black" stroke-width="1" fill="blue" opacity="1" tooltip="enable"><title>(0.0927661,0)</title></rect><rect x="420" y="200" width="6" height="0" stroke="black" stroke-width="1" fill="blue" opacity="1" tooltip="enable"><title>(0.0941105,0)</title></rect><rect x="426" y="200" width="6" height="0" stroke="black" stroke-width="1" fill="blue" opacity="1" tooltip="enable"><title>(0.095455,0)</title></rect><rect x="432" y="200" width="6" height="0" stroke="black" stroke-width="1" fill="blue" opacity="1" tooltip="enable"><title>(0.0967994,0)</title></rect><rect x="438" y="200" width="6" height="0" stroke="black" stroke-width="1" fill="blue" opacity="1" tooltip="enable"><title>(0.0981438,0)</title></rect><rect x="444" y="200" width="6" height="0" stroke="black" stroke-width="1" fill="blue" opacity="1" tooltip="enable"><title>(0.0994883,0)</title></rect><rect x="450" y="200" width="6" height="0" stroke="black" stroke-width="1" fill="blue" opacity="1" tooltip="enable"><title>(0.100833,0)</title></rect><rect x="456" y="200" width="6" height="0" stroke="black" stroke-width="1" fill="blue" opacity="1" tooltip="enable"><title>(0.102177,0)</title></rect><rect x="462" y="200" width="6" height="0" stroke="black" stroke-width="1" fill="blue" opacity="1" tooltip="enable"><title>(0.103522,0)</title></rect><rect x="468" y="200" width="6" height="0" stroke="black" stroke-width="1" fill="blue" opacity="1" tooltip="enable"><title>(0.104866,0)</title></rect><rect x="474" y="200" width="6" height="0" stroke="black" stroke-width="1" fill="blue" opacity="1" tooltip="enable"><title>(0.10621,0)</title></rect><rect x="480" y="200" width="6" height="0" stroke="black" stroke-width="1" fill="blue" opacity="1" tooltip="enable"><title>(0.107555,0)</title></rect><rect x="486" y="199.745" width="6" height="0.255265" stroke="black" stroke-width="1" fill="blue" opacity="1" tooltip="enable"><title>(0.108899,2)</title></rect><rect x="492" y="200" width="6" height="0" stroke="black" stroke-width="1" fill="blue" opacity="1" tooltip="enable"><title>(0.110244,0)</title></rect><rect x="498" y="200" width="6" height="0" stroke="black" stroke-width="1" fill="blue" opacity="1" tooltip="enable"><title>(0.111588,0)</title></rect><rect x="504" y="200" width="6" height="0" stroke="black" stroke-width="1" fill="blue" opacity="1" tooltip="enable"><title>(0.112933,0)</title></rect><rect x="510" y="200" width="6" height="0" stroke="black" stroke-width="1" fill="blue" opacity="1" tooltip="enable"><title>(0.114277,0)</title></rect><rect x="516" y="200" width="6" height="0" stroke="black" stroke-width="1" fill="blue" opacity="1" tooltip="enable"><title>(0.115622,0)</title></rect><rect x="522" y="200" width="6" height="0" stroke="black" stroke-width="1" fill="blue" opacity="1" tooltip="enable"><title>(0.116966,0)</title></rect><rect x="528" y="200" width="6" height="0" stroke="black" stroke-width="1" fill="blue" opacity="1" tooltip="enable"><title>(0.11831,0)</title></rect><rect x="534" y="200" width="6" height="0" stroke="black" stroke-width="1" fill="blue" opacity="1" tooltip="enable"><title>(0.119655,0)</title></rect><rect x="540" y="199.872" width="6" height="0.127632" stroke="black" stroke-width="1" fill="blue" opacity="1" tooltip="enable"><title>(0.120999,1)</title></rect><rect x="546" y="199.872" width="6" height="0.127632" stroke="black" stroke-width="1" fill="blue" opacity="1" tooltip="enable"><title>(0.122344,1)</title></rect><rect x="552" y="200" width="6" height="0" stroke="black" stroke-width="1" fill="blue" opacity="1" tooltip="enable"><title>(0.123688,0)</title></rect><rect x="558" y="199.745" width="6" height="0.255265" stroke="black" stroke-width="1" fill="blue" opacity="1" tooltip="enable"><title>(0.125033,2)</title></rect><rect x="564" y="200" width="6" height="0" stroke="black" stroke-width="1" fill="blue" opacity="1" tooltip="enable"><title>(0.126377,0)</title></rect><rect x="570" y="200" width="6" height="0" stroke="black" stroke-width="1" fill="blue" opacity="1" tooltip="enable"><title>(0.127721,0)</title></rect><rect x="576" y="199.872" width="6" height="0.127632" stroke="black" stroke-width="1" fill="blue" opacity="1" tooltip="enable"><title>(0.129066,1)</title></rect><rect x="582" y="199.872" width="6" height="0.127632" stroke="black" stroke-width="1" fill="blue" opacity="1" tooltip="enable"><title>(0.13041,1)</title></rect><rect x="588" y="200" width="6" height="0" stroke="black" stroke-width="1" fill="blue" opacity="1" tooltip="enable"><title>(0.131755,0)</title></rect><rect x="594" y="199.872" width="6" height="0.127632" stroke="black" stroke-width="1" fill="blue" opacity="1" tooltip="enable"><title>(0.133099,1)</title></rect><text x="30" y="240" font-size="20" fill="black">0</text>
<text x="600" y="240" font-size="20" fill="black">0.134444</text>
<polyline points="0,220,600,220" stroke="black" stroke-width="1" fill="none" opacity="1"/>
<text x="720" y="20" font-size="20" fill="black">1567</text>
<text x="720" y="200" font-size="20" fill="black">0</text>
<polyline points="660,0,660,200" stroke="black" stroke-width="1" fill="none" opacity="1"/>
</svg>