<?xml version="1.0" standalone="yes"?>
<!-- SVG graphic -->
<svg xmlns='http://www.w3.org/2000/svg' xmlns:xlink='http://www.w3.org/1999/xlink'
 version="1.1">
<rect x="0" y="0" width="6" height="200" stroke="black" stroke-width="1" fill="blue" opacity="1" tooltip="enable"><title>(0,640)</title></rect><rect x="6" y="10.625" width="6" height="189.375" stroke="black" stroke-width="1" fill="blue" opacity="1" tooltip="enable"><title>(0.000992055,606)</title></rect><rect x="12" y="25.3125" width="6" height="174.688" stroke="black" stroke-width="1" fill="blue" opacity="1" tooltip="enable"><title>(0.00198411,559)</title></rect><rect x="18" y="35.625" width="6" height="164.375" stroke="black" stroke-width="1" fill="blue" opacity="1" tooltip="enable"><title>(0.00297617,526)</title></rect><rect x="24" y="45.625" width="6" height="154.375" stroke="black" stroke-width="1" fill="blue" opacity="1" tooltip="enable"><title>(0.00396822,494)</title></rect><rect x="30" y="59.375" width="6" height="140.625" stroke="black" stroke-width="1" fill="blue" opacity="1" tooltip="enable"><title>(0.00496028,450)</title></rect><rect x="36" y="76.5625" width="6" height="123.438" stroke="black" stroke-width="1" fill="blue" opacity="1" tooltip="enable"><title>(0.00595233,395)</title></rect><rect x="42" y="66.875" width="6" height="133.125" stroke="black" stroke-width="1" fill="blue" opacity="1" tooltip="enable"><title>(0.00694439,426)</title></rect><rect x="48" y="112.5" width="6" height="87.5" stroke="black" stroke-width="1" fill="blue" opacity="1" tooltip="enable"><title>(0.00793644,280)</title></rect><rect x="54" y="121.25" width="6" height="78.75" stroke="black" stroke-width="1" fill="blue" opacity="1" tooltip="enable"><title>(0.0089285,252)</title></rect><rect x="60" y="119.062" width="6" height="80.9375" stroke="black" stroke-width="1" fill="blue" opacity="1" tooltip="enable"><title>(0.00992055,259)</title></rect><rect x="66" y="139.688" width="6" height="60.3125" stroke="black" stroke-width="1" fill="blue" opacity="1" tooltip="enable"><title>(0.0109126,193)</title></rect><rect x="72" y="148.75" width="6" height="51.25" stroke="black" stroke-width="1" fill="blue" opacity="1" tooltip="enable"><title>(0.0119047,164)</title></rect><rect x="78" y="156.875" width="6" height="43.125" stroke="black" stroke-width="1" fill="blue" opacity="1" tooltip="enable"><title>(0.0128967,138)</title></rect><rect x="84" y="175" width="6" height="25" stroke="black" stroke-width="1" fill="blue" opacity="1" tooltip="enable"><title>(0.0138888,80)</title></rect><rect x="90" y="171.875" width="6" height="28.125" stroke="black" stroke-width="1" fill="blue" opacity="1" tooltip="enable"><title>(0.0148808,90)</title></rect><rect x="96" y="166.25" width="6" height="33.75" stroke="black" stroke-width="1" fill="blue" opacity="1" tooltip="enable"><title>(0.0158729,108)</title></rect><rect x="102" y="166.875" width="6" height="33.125" stroke="black" stroke-width="1" fill="blue" opacity="1" tooltip="enable"><title>(0.0168649,106)</title></rect><rect x="108" y="177.188" width="6" height="22.8125" stroke="black" stroke-width="1" fill="blue" opacity="1" tooltip="enable"><title>(0.017857,73)</title></rect><rect x="114" y="177.812" width="6" height="22.1875" stroke="black" stroke-width="1" fill="blue" opacity="1" tooltip="enable"><title>(0.0188491,71)</title></rect><rect x="120" y="177.5" width="6" height="22.5" stroke="black" stroke-width="1" fill="blue" opacity="1" tooltip="enable"><title>(0.0198411,72)</title></rect><rect x="126" y="170.625" width="6" height="29.375" stroke="black" stroke-width="1" fill="blue" opacity="1" tooltip="enable"><title>(0.0208332,94)</title></rect><rect x="132" y="170" width="6" height="30" stroke="black" stroke-width="1" fill="blue" opacity="1" tooltip="enable"><title>(0.0218252,96)</title></rect><rect x="138" y="175.938" width="6" height="24.0625" stroke="black" stroke-width="1" fill="blue" opacity="1" tooltip="enable"><title>(0.0228173,77)</title></rect><rect x="144" y="183.438" width="6" height="16.5625" stroke="black" stroke-width="1" fill="blue" opacity="1" tooltip="enable"><title>(0.0238093,53)</title></rect><rect x="150" y="177.5" width="6" height="22.5" stroke="black" stroke-width="1" fill="blue" opacity="1" tooltip="enable"><title>(0.0248014,72)</title></rect><rect x="156" y="178.75" width="6" height="21.25" stroke="black" stroke-width="1" fill="blue" opacity="1" tooltip="enable"><title>(0.0257934,68)</title></rect><rect x="162" y="183.75" width="6" height="16.25" stroke="black" stroke-width="1" fill="blue" opacity="1" tooltip="enable"><title>(0.0267855,52)</title></rect><rect x="168" y="177.5" width="6" height="22.5" stroke="black" stroke-width="1" fill="blue" opacity="1" tooltip="enable"><title>(0.0277775,72)</title></rect><rect x="174" y="176.25" width="6" height="23.75" stroke="black" stroke-width="1" fill="blue" opacity="1" tooltip="enable"><title>(0.0287696,76)</title></rect><rect x="180" y="182.5" width="6" height="17.5" stroke="black" stroke-width="1" fill="blue" opacity="1" tooltip="enable"><title>(0.0297617,56)</title></rect><rect x="186" y="180.625" width="6" height="19.375" stroke="black" stroke-width="1" fill="blue" opacity="1" tooltip="enable"><title>(0.0307537,62)</title></rect><rect x="192" y="184.375" width="6" height="15.625" stroke="black" stroke-width="1" fill="blue" opacity="1" tooltip="enable"><title>(0.0317458,50)</title></rect><rect x="198" y="184.375" width="6" height="15.625" stroke="black" stroke-width="1" fill="blue" opacity="1" tooltip="enable"><title>(0.0327378,50)</title></rect><rect x="204" y="176.875" width="6" height="23.125" stroke="black" stroke-width="1" fill="blue" opacity="1" tooltip="enable"><title>(0.0337299,74)</title></rect><rect x="210" y="178.75" width="6" height="21.25" stroke="black" stroke-width="1" fill="blue" opacity="1" tooltip="enable"><title>(0.0347219,68)</title></rect><rect x="216" y="177.5" width="6" height="22.5" stroke="black" stroke-width="1" fill="blue" opacity="1" tooltip="enable"><title>(0.035714,72)</title></rect><rect x="222" y="175.625" width="6" height="24.375" stroke="black" stroke-width="1" fill="blue" opacity="1" tooltip="enable"><title>(0.036706,78)</title></rect><rect x="228" y="185.625" width="6" height="14.375" stroke="black" stroke-width="1" fill="blue" opacity="1" tooltip="enable"><title>(0.0376981,46)</title></rect><rect x="234" y="178.75" width="6" height="21.25" stroke="black" stroke-width="1" fill="blue" opacity="1" tooltip="enable"><title>(0.0386902,68)</title></rect><rect x="240" y="188.125" width="6" height="11.875" stroke="black" stroke-width="1" fill="blue" opacity="1" tooltip="enable"><title>(0.0396822,38)</title></rect><rect x="246" y="187.5" width="6" height="12.5" stroke="black" stroke-width="1" fill="blue" opacity="1" tooltip="enable"><title>(0.0406743,40)</title></rect><rect x="252" y="185.625" width="6" height="14.375" stroke="black" stroke-width="1" fill="blue" opacity="1" tooltip="enable"><title>(0.0416663,46)</title></rect><rect x="258" y="190.625" width="6" height="9.375" stroke="black" stroke-width="1" fill="blue" opacity="1" tooltip="enable"><title>(0.0426584,30)</title></rect><rect x="264" y="190.625" width="6" height="9.375" stroke="black" stroke-width="1" fill="blue" opacity="1" tooltip="enable"><title>(0.0436504,30)</title></rect><rect x="270" y="187.188" width="6" height="12.8125" stroke="black" stroke-width="1" fill="blue" opacity="1" tooltip="enable"><title>(0.0446425,41)</title></rect><rect x="276" y="192.188" width="6" height="7.8125" stroke="black" stroke-width="1" fill="blue" opacity="1" tooltip="enable"><title>(0.0456345,25)</title></rect><rect x="282" y="191.875" width="6" height="8.125" stroke="black" stroke-width="1" fill="blue" opacity="1" tooltip="enable"><title>(0.0466266,26)</title></rect><rect x="288" y="192.5" width="6" height="7.5" stroke="black" stroke-width="1" fill="blue" opacity="1" tooltip="enable"><title>(0.0476187,24)</title></rect><rect x="294" y="189.375" width="6" height="10.625" stroke="black" stroke-width="1" fill="blue" opacity="1" tooltip="enable"><title>(0.0486107,34)</title></rect><rect x="300" y="184.688" width="6" height="15.3125" stroke="black" stroke-width="1" fill="blue" opacity="1" tooltip="enable"><title>(0.0496028,49)</title></rect><rect x="306" y="186.562" width="6" height="13.4375" stroke="black" stroke-width="1" fill="blue" opacity="1" tooltip="enable"><title>(0.0505948,43)</title></rect><rect x="312" y="194.375" width="6" height="5.625" stroke="black" stroke-width="1" fill="blue" opacity="1" tooltip="enable"><title>(0.0515869,18)</title></rect><rect x="318" y="187.5" width="6" height="12.5" stroke="black" stroke-width="1" fill="blue" opacity="1" tooltip="enable"><title>(0.0525789,40)</title></rect><rect x="324" y="192.5" width="6" height="7.5" stroke="black" stroke-width="1" fill="blue" opacity="1" tooltip="enable"><title>(0.053571,24)</title></rect><rect x="330" y="190.625" width="6" height="9.375" stroke="black" stroke-width="1" fill="blue" opacity="1" tooltip="enable"><title>(0.054563,30)</title></rect><rect x="336" y="193.75" width="6" height="6.25" stroke="black" stroke-width="1" fill="blue" opacity="1" tooltip="enable"><title>(0.0555551,20)</title></rect><rect x="342" y="196.875" width="6" height="3.125" stroke="black" stroke-width="1" fill="blue" opacity="1" tooltip="enable"><title>(0.0565472,10)</title></rect><rect x="348" y="193.125" width="6" height="6.875" stroke="black" stroke-width="1" fill="blue" opacity="1" tooltip="enable"><title>(0.0575392,22)</title></rect><rect x="354" y="196.875" width="6" height="3.125" stroke="black" stroke-width="1" fill="blue" opacity="1" tooltip="enable"><title>(0.0585313,10)</title></rect><rect x="360" y="195.625" width="6" height="4.375" stroke="black" stroke-width="1" fill="blue" opacity="1" tooltip="enable"><title>(0.0595233,14)</title></rect><rect x="366" y="193.125" width="6" height="6.875" stroke="black" stroke-width="1" fill="blue" opacity="1" tooltip="enable"><title>(0.0605154,22)</title></rect><rect x="372" y="199.375" width="6" height="0.625" stroke="black" stroke-width="1" fill="blue" opacity="1" tooltip="enable"><title>(0.0615074,2)</title></rect><rect x="378" y="197.5" width="6" height="2.5" stroke="black" stroke-width="1" fill="blue" opacity="1" tooltip="enable"><title>(0.0624995,8)</title></rect><rect x="384" y="194.375" width="6" height="5.625" stroke="black" stroke-width="1" fill="blue" opacity="1" tooltip="enable"><title>(0.0634915,18)</title></rect><rect x="390" y="194.375" width="6" height="5.625" stroke="black" stroke-width="1" fill="blue" opacity="1" tooltip="enable"><title>(0.0644836,18)</title></rect><rect x="396" y="198.75" width="6" height="1.25" stroke="black" stroke-width="1" fill="blue" opacity="1" tooltip="enable"><title>(0.0654757,4)</title></rect><rect x="402" y="198.75" width="6" height="1.25" stroke="black" stroke-width="1" fill="blue" opacity="1" tooltip="enable"><title>(0.0664677,4)</title></rect><rect x="408" y="197.5" width="6" height="2.5" stroke="black" stroke-width="1" fill="blue" opacity="1" tooltip="enable"><title>(0.0674598,8)</title></rect><rect x="414" y="198.125" width="6" height="1.875" stroke="black" stroke-width="1" fill="blue" opacity="1" tooltip="enable"><title>(0.0684518,6)</title></rect><rect x="420" y="199.375" width="6" height="0.625" stroke="black" stroke-width="1" fill="blue" opacity="1" tooltip="enable"><title>(0.0694439,2)</title></rect><rect x="426" y="200" width="6" height="0" stroke="black" stroke-width="1" fill="blue" opacity="1" tooltip="enable"><title>(0.0704359,0)</title></rect><rect x="432" y="200" width="6" height="0" stroke="black" stroke-width="1" fill="blue" opacity="1" tooltip="enable"><title>(0.071428,0)</title></rect><rect x="438" y="199.375" width="6" height="0.625" stroke="black" stroke-width="1" fill="blue" opacity="1" tooltip="enable"><title>(0.07242,2)</title></rect><rect x="444" y="198.75" width="6" height="1.25" stroke="black" stroke-width="1" fill="blue" opacity="1" tooltip="enable"><title>(0.0734121,4)</title></rect><rect x="450" y="199.375" width="6" height="0.625" stroke="black" stroke-width="1" fill="blue" opacity="1" tooltip="enable"><title>(0.0744042,2)</title></rect><rect x="456" y="199.375" width="6" height="0.625" stroke="black" stroke-width="1" fill="blue" opacity="1" tooltip="enable"><title>(0.0753962,2)</title></rect><rect x="462" y="200" width="6" height="0" stroke="black" stroke-width="1" fill="blue" opacity="1" tooltip="enable"><title>(0.0763883,0)</title></rect><rect x="468" y="198.75" width="6" height="1.25" stroke="black" stroke-width="1" fill="blue" opacity="1" tooltip="enable"><title>(0.0773803,4)</title></rect><rect x="474" y="199.375" width="6" height="0.625" stroke="black" stroke-width="1" fill="blue" opacity="1" tooltip="enable"><title>(0.0783724,2)</title></rect><rect x="480" y="199.375" width="6" height="0.625" stroke="black" stroke-width="1" fill="blue" opacity="1" tooltip="enable"><title>(0.0793644,2)</title></rect><rect x="486" y="200" width="6" height="0" stroke="black" stroke-width="1" fill="blue" opacity="1" tooltip="enable"><title>(0.0803565,0)</title></rect><rect x="492" y="200" width="6" height="0" stroke="black" stroke-width="1" fill="blue" opacity="1" tooltip="enable"><title>(0.0813485,0)</title></rect><rect x="498" y="200" width="6" height="0" stroke="black" stroke-width="1" fill="blue" opacity="1" tooltip="enable"><title>(0.0823406,0)</title></rect><rect x="504" y="200" width="6" height="0" stroke="black" stroke-width="1" fill="blue" opacity="1" tooltip="enable"><title>(0.0833326,0)</title></rect><rect x="510" y="198.75" width="6" height="1.25" stroke="black" stroke-width="1" fill="blue" opacity="1" tooltip="enable"><title>(0.0843247,4)</title></rect><rect x="516" y="200" width="6" height="0" stroke="black" stroke-width="1" fill="blue" opacity="1" tooltip="enable"><title>(0.0853168,0)</title></rect><rect x="522" y="199.375" width="6" height="0.625" stroke="black" stroke-width="1" fill="blue" opacity="1" tooltip="enable"><title>(0.0863088,2)</title></rect><rect x="528" y="200" width="6" height="0" stroke="black" stroke-width="1" fill="blue" opacity="1" tooltip="enable"><title>(0.0873009,0)</title></rect><rect x="534" y="200" width="6" height="0" stroke="black" stroke-width="1" fill="blue" opacity="1" tooltip="enable"><title>(0.0882929,0)</title></rect><rect x="540" y="200" width="6" height="0" stroke="black" stroke-width="1" fill="blue" opacity="1" tooltip="enable"><title>(0.089285,0)</title></rect><rect x="546" y="200" width="6" height="0" stroke="black" stroke-width="1" fill="blue" opacity="1" tooltip="enable"><title>(0.090277,0)</title></rect><rect x="552" y="200" width="6" height="0" stroke="black" stroke-width="1" fill="blue" opacity="1" tooltip="enable"><title>(0.0912691,0)</title></rect><rect x="558" y="200" width="6" height="0" stroke="black" stroke-width="1" fill="blue" opacity="1" tooltip="enable"><title>(0.0922611,0)</title></rect><rect x="564" y="199.688" width="6" height="0.3125" stroke="black" stroke-width="1" fill="blue" opacity="1" tooltip="enable"><title>(0.0932532,1)</title></rect><rect x="570" y="199.688" width="6" height="0.3125" stroke="black" stroke-width="1" fill="blue" opacity="1" tooltip="enable"><title>(0.0942453,1)</title></rect><rect x="576" y="200" width="6" height="0" stroke="black" stroke-width="1" fill="blue" opacity="1" tooltip="enable"><title>(0.0952373,0)</title></rect><rect x="582" y="200" width="6" height="0" stroke="black" stroke-width="1" fill="blue" opacity="1" tooltip="enable"><title>(0.0962294,0)</title></rect><rect x="588" y="200" width="6" height="0" stroke="black" stroke-width="1" fill="blue" opacity="1" tooltip="enable"><title>(0.0972214,0)</title></rect><rect x="594" y="199.688" width="6" height="0.3125" stroke="black" stroke-width="1" fill="blue" opacity="1" tooltip="enable"><title>(0.0982135,1)</title></rect><text x="30" y="240" font-size="20" fill="black">0</text>
<text x="600" y="240" font-size="20" fill="black">0.0992055</text>
<polyline points="0,220,600,220" stroke="black" stroke-width="1" fill="none" opacity="1"/>
<text x="720" y="20" font-size="20" fill="black">640</text>
<text x="720" y="200" font-size="20" fill="black">0</text>
<polyline points="660,0,660,200" stroke="black" stroke-width="1" fill="none" opacity="1"/>
</svg>