<?xml version="1.0" standalone="yes"?>
<!-- SVG graphic -->
<svg xmlns='http://www.w3.org/2000/svg' xmlns:xlink='http://www.w3.org/1999/xlink'
 version="1.1">
<rect x="0" y="0" width="6" height="200" stroke="black" stroke-width="1" fill="blue" opacity="1" tooltip="enable"><title>(0,2884)</title></rect><rect x="6" y="114.008" width="6" height="85.9917" stroke="black" stroke-width="1" fill="blue" opacity="1" tooltip="enable"><title>(0.0015964,1240)</title></rect><rect x="12" y="159.917" width="6" height="40.0832" stroke="black" stroke-width="1" fill="blue" opacity="1" tooltip="enable"><title>(0.0031928,578)</title></rect><rect x="18" y="178.017" width="6" height="21.9834" stroke="black" stroke-width="1" fill="blue" opacity="1" tooltip="enable"><title>(0.0047892,317)</title></rect><rect x="24" y="183.564" width="6" height="16.4355" stroke="black" stroke-width="1" fill="blue" opacity="1" tooltip="enable"><title>(0.0063856,237)</title></rect><rect x="30" y="184.327" width="6" height="15.6727" stroke="black" stroke-width="1" fill="blue" opacity="1" tooltip="enable"><title>(0.007982,226)</title></rect><rect x="36" y="186.338" width="6" height="13.6616" stroke="black" stroke-width="1" fill="blue" opacity="1" tooltip="enable"><title>(0.0095784,197)</title></rect><rect x="42" y="185.922" width="6" height="14.0777" stroke="black" stroke-width="1" fill="blue" opacity="1" tooltip="enable"><title>(0.0111748,203)</title></rect><rect x="48" y="186.2" width="6" height="13.8003" stroke="black" stroke-width="1" fill="blue" opacity="1" tooltip="enable"><title>(0.0127712,199)</title></rect><rect x="54" y="190.499" width="6" height="9.50069" stroke="black" stroke-width="1" fill="blue" opacity="1" tooltip="enable"><title>(0.0143676,137)</title></rect><rect x="60" y="188.35" width="6" height="11.6505" stroke="black" stroke-width="1" fill="blue" opacity="1" tooltip="enable"><title>(0.015964,168)</title></rect><rect x="66" y="191.123" width="6" height="8.87656" stroke="black" stroke-width="1" fill="blue" opacity="1" tooltip="enable"><title>(0.0175604,128)</title></rect><rect x="72" y="192.025" width="6" height="7.97503" stroke="black" stroke-width="1" fill="blue" opacity="1" tooltip="enable"><title>(0.0191568,115)</title></rect><rect x="78" y="193.135" width="6" height="6.86546" stroke="black" stroke-width="1" fill="blue" opacity="1" tooltip="enable"><title>(0.0207532,99)</title></rect><rect x="84" y="194.452" width="6" height="5.54785" stroke="black" stroke-width="1" fill="blue" opacity="1" tooltip="enable"><title>(0.0223496,80)</title></rect><rect x="90" y="194.938" width="6" height="5.06241" stroke="black" stroke-width="1" fill="blue" opacity="1" tooltip="enable"><title>(0.023946,73)</title></rect><rect x="96" y="194.66" width="6" height="5.33981" stroke="black" stroke-width="1" fill="blue" opacity="1" tooltip="enable"><title>(0.0255424,77)</title></rect><rect x="102" y="193.135" width="6" height="6.86546" stroke="black" stroke-width="1" fill="blue" opacity="1" tooltip="enable"><title>(0.0271388,99)</title></rect><rect x="108" y="194.383" width="6" height="5.6172" stroke="black" stroke-width="1" fill="blue" opacity="1" tooltip="enable"><title>(0.0287352,81)</title></rect><rect x="114" y="195.146" width="6" height="4.85437" stroke="black" stroke-width="1" fill="blue" opacity="1" tooltip="enable"><title>(0.0303316,70)</title></rect><rect x="120" y="196.117" width="6" height="3.8835" stroke="black" stroke-width="1" fill="blue" opacity="1" tooltip="enable"><title>(0.031928,56)</title></rect><rect x="126" y="195.354" width="6" height="4.64632" stroke="black" stroke-width="1" fill="blue" opacity="1" tooltip="enable"><title>(0.0335244,67)</title></rect><rect x="132" y="195.423" width="6" height="4.57698" stroke="black" stroke-width="1" fill="blue" opacity="1" tooltip="enable"><title>(0.0351208,66)</title></rect><rect x="138" y="195.284" width="6" height="4.71567" stroke="black" stroke-width="1" fill="blue" opacity="1" tooltip="enable"><title>(0.0367172,68)</title></rect><rect x="144" y="195.423" width="6" height="4.57698" stroke="black" stroke-width="1" fill="blue" opacity="1" tooltip="enable"><title>(0.0383136,66)</title></rect><rect x="150" y="196.741" width="6" height="3.25936" stroke="black" stroke-width="1" fill="blue" opacity="1" tooltip="enable"><title>(0.03991,47)</title></rect><rect x="156" y="195.7" width="6" height="4.29958" stroke="black" stroke-width="1" fill="blue" opacity="1" tooltip="enable"><title>(0.0415064,62)</title></rect><rect x="162" y="196.394" width="6" height="3.6061" stroke="black" stroke-width="1" fill="blue" opacity="1" tooltip="enable"><title>(0.0431028,52)</title></rect><rect x="168" y="196.949" width="6" height="3.05132" stroke="black" stroke-width="1" fill="blue" opacity="1" tooltip="enable"><title>(0.0446992,44)</title></rect><rect x="174" y="197.989" width="6" height="2.0111" stroke="black" stroke-width="1" fill="blue" opacity="1" tooltip="enable"><title>(0.0462956,29)</title></rect><rect x="180" y="196.741" width="6" height="3.25936" stroke="black" stroke-width="1" fill="blue" opacity="1" tooltip="enable"><title>(0.047892,47)</title></rect><rect x="186" y="197.92" width="6" height="2.08044" stroke="black" stroke-width="1" fill="blue" opacity="1" tooltip="enable"><title>(0.0494884,30)</title></rect><rect x="192" y="198.613" width="6" height="1.38696" stroke="black" stroke-width="1" fill="blue" opacity="1" tooltip="enable"><title>(0.0510848,20)</title></rect><rect x="198" y="199.029" width="6" height="0.970874" stroke="black" stroke-width="1" fill="blue" opacity="1" tooltip="enable"><title>(0.0526812,14)</title></rect><rect x="204" y="199.029" width="6" height="0.970874" stroke="black" stroke-width="1" fill="blue" opacity="1" tooltip="enable"><title>(0.0542776,14)</title></rect><rect x="210" y="199.029" width="6" height="0.970874" stroke="black" stroke-width="1" fill="blue" opacity="1" tooltip="enable"><title>(0.055874,14)</title></rect><rect x="216" y="198.89" width="6" height="1.10957" stroke="black" stroke-width="1" fill="blue" opacity="1" tooltip="enable"><title>(0.0574704,16)</title></rect><rect x="222" y="199.029" width="6" height="0.970874" stroke="black" stroke-width="1" fill="blue" opacity="1" tooltip="enable"><title>(0.0590668,14)</title></rect><rect x="228" y="199.723" width="6" height="0.277393" stroke="black" stroke-width="1" fill="blue" opacity="1" tooltip="enable"><title>(0.0606632,4)</title></rect><rect x="234" y="199.445" width="6" height="0.554785" stroke="black" stroke-width="1" fill="blue" opacity="1" tooltip="enable"><title>(0.0622596,8)</title></rect><rect x="240" y="198.613" width="6" height="1.38696" stroke="black" stroke-width="1" fill="blue" opacity="1" tooltip="enable"><title>(0.063856,20)</title></rect><rect x="246" y="199.168" width="6" height="0.832178" stroke="black" stroke-width="1" fill="blue" opacity="1" tooltip="enable"><title>(0.0654524,12)</title></rect><rect x="252" y="199.445" width="6" height="0.554785" stroke="black" stroke-width="1" fill="blue" opacity="1" tooltip="enable"><title>(0.0670488,8)</title></rect><rect x="258" y="199.445" width="6" height="0.554785" stroke="black" stroke-width="1" fill="blue" opacity="1" tooltip="enable"><title>(0.0686452,8)</title></rect><rect x="264" y="200" width="6" height="0" stroke="black" stroke-width="1" fill="blue" opacity="1" tooltip="enable"><title>(0.0702416,0)</title></rect><rect x="270" y="200" width="6" height="0" stroke="black" stroke-width="1" fill="blue" opacity="1" tooltip="enable"><title>(0.071838,0)</title></rect><rect x="276" y="200" width="6" height="0" stroke="black" stroke-width="1" fill="blue" opacity="1" tooltip="enable"><title>(0.0734344,0)</title></rect><rect x="282" y="200" width="6" height="0" stroke="black" stroke-width="1" fill="blue" opacity="1" tooltip="enable"><title>(0.0750308,0)</title></rect><rect x="288" y="199.861" width="6" height="0.138696" stroke="black" stroke-width="1" fill="blue" opacity="1" tooltip="enable"><title>(0.0766272,2)</title></rect><rect x="294" y="200" width="6" height="0" stroke="black" stroke-width="1" fill="blue" opacity="1" tooltip="enable"><title>(0.0782236,0)</title></rect><rect x="300" y="200" width="6" height="0" stroke="black" stroke-width="1" fill="blue" opacity="1" tooltip="enable"><title>(0.07982,0)</title></rect><rect x="306" y="200" width="6" height="0" stroke="black" stroke-width="1" fill="blue" opacity="1" tooltip="enable"><title>(0.0814164,0)</title></rect><rect x="312" y="200" width="6" height="0" stroke="black" stroke-width="1" fill="blue" opacity="1" tooltip="enable"><title>(0.0830128,0)</title></rect><rect x="318" y="200" width="6" height="0" stroke="black" stroke-width="1" fill="blue" opacity="1" tooltip="enable"><title>(0.0846092,0)</title></rect><rect x="324" y="200" width="6" height="0" stroke="black" stroke-width="1" fill="blue" opacity="1" tooltip="enable"><title>(0.0862056,0)</title></rect><rect x="330" y="200" width="6" height="0" stroke="black" stroke-width="1" fill="blue" opacity="1" tooltip="enable"><title>(0.087802,0)</title></rect><rect x="336" y="200" width="6" height="0" stroke="black" stroke-width="1" fill="blue" opacity="1" tooltip="enable"><title>(0.0893984,0)</title></rect><rect x="342" y="200" width="6" height="0" stroke="black" stroke-width="1" fill="blue" opacity="1" tooltip="enable"><title>(0.0909948,0)</title></rect><rect x="348" y="200" width="6" height="0" stroke="black" stroke-width="1" fill="blue" opacity="1" tooltip="enable"><title>(0.0925912,0)</title></rect><rect x="354" y="200" width="6" height="0" stroke="black" stroke-width="1" fill="blue" opacity="1" tooltip="enable"><title>(0.0941876,0)</title></rect><rect x="360" y="200" width="6" height="0" stroke="black" stroke-width="1" fill="blue" opacity="1" tooltip="enable"><title>(0.095784,0)</title></rect><rect x="366" y="200" width="6" height="0" stroke="black" stroke-width="1" fill="blue" opacity="1" tooltip="enable"><title>(0.0973804,0)</title></rect><rect x="372" y="200" width="6" height="0" stroke="black" stroke-width="1" fill="blue" opacity="1" tooltip="enable"><title>(0.0989768,0)</title></rect><rect x="378" y="200" width="6" height="0" stroke="black" stroke-width="1" fill="blue" opacity="1" tooltip="enable"><title>(0.100573,0)</title></rect><rect x="384" y="200" width="6" height="0" stroke="black" stroke-width="1" fill="blue" opacity="1" tooltip="enable"><title>(0.10217,0)</title></rect><rect x="390" y="200" width="6" height="0" stroke="black" stroke-width="1" fill="blue" opacity="1" tooltip="enable"><title>(0.103766,0)</title></rect><rect x="396" y="200" width="6" height="0" stroke="black" stroke-width="1" fill="blue" opacity="1" tooltip="enable"><title>(0.105362,0)</title></rect><rect x="402" y="200" width="6" height="0" stroke="black" stroke-width="1" fill="blue" opacity="1" tooltip="enable"><title>(0.106959,0)</title></rect><rect x="408" y="200" width="6" height="0" stroke="black" stroke-width="1" fill="blue" opacity="1" tooltip="enable"><title>(0.108555,0)</title></rect><rect x="414" y="200" width="6" height="0" stroke="black" stroke-width="1" fill="blue" opacity="1" tooltip="enable"><title>(0.110152,0)</title></rect><rect x="420" y="200" width="6" height="0" stroke="black" stroke-width="1" fill="blue" opacity="1" tooltip="enable"><title>(0.111748,0)</title></rect><rect x="426" y="200" width="6" height="0" stroke="black" stroke-width="1" fill="blue" opacity="1" tooltip="enable"><title>(0.113344,0)</title></rect><rect x="432" y="200" width="6" height="0" stroke="black" stroke-width="1" fill="blue" opacity="1" tooltip="enable"><title>(0.114941,0)</title></rect><rect x="438" y="200" width="6" height="0" stroke="black" stroke-width="1" fill="blue" opacity="1" tooltip="enable"><title>(0.116537,0)</title></rect><rect x="444" y="200" width="6" height="0" stroke="black" stroke-width="1" fill="blue" opacity="1" tooltip="enable"><title>(0.118134,0)</title></rect><rect x="450" y="200" width="6" height="0" stroke="black" stroke-width="1" fill="blue" opacity="1" tooltip="enable"><title>(0.11973,0)</title></rect><rect x="456" y="200" width="6" height="0" stroke="black" stroke-width="1" fill="blue" opacity="1" tooltip="enable"><title>(0.121326,0)</title></rect><rect x="462" y="200" width="6" height="0" stroke="black" stroke-width="1" fill="blue" opacity="1" tooltip="enable"><title>(0.122923,0)</title></rect><rect x="468" y="200" width="6" height="0" stroke="black" stroke-width="1" fill="blue" opacity="1" tooltip="enable"><title>(0.124519,0)</title></rect><rect x="474" y="200" width="6" height="0" stroke="black" stroke-width="1" fill="blue" opacity="1" tooltip="enable"><title>(0.126116,0)</title></rect><rect x="480" y="200" width="6" height="0" stroke="black" stroke-width="1" fill="blue" opacity="1" tooltip="enable"><title>(0.127712,0)</title></rect><rect x="486" y="200" width="6" height="0" stroke="black" stroke-width="1" fill="blue" opacity="1" tooltip="enable"><title>(0.129308,0)</title></rect><rect x="492" y="200" width="6" height="0" stroke="black" stroke-width="1" fill="blue" opacity="1" tooltip="enable"><title>(0.130905,0)</title></rect><rect x="498" y="200" width="6" height="0" stroke="black" stroke-width="1" fill="blue" opacity="1" tooltip="enable"><title>(0.132501,0)</title></rect><rect x="504" y="200" width="6" height="0" stroke="black" stroke-width="1" fill="blue" opacity="1" tooltip="enable"><title>(0.134098,0)</title></rect><rect x="510" y="200" width="6" height="0" stroke="black" stroke-width="1" fill="blue" opacity="1" tooltip="enable"><title>(0.135694,0)</title></rect><rect x="516" y="200" width="6" height="0" stroke="black" stroke-width="1" fill="blue" opacity="1" tooltip="enable"><title>(0.13729,0)</title></rect><rect x="522" y="200" width="6" height="0" stroke="black" stroke-width="1" fill="blue" opacity="1" tooltip="enable"><title>(0.138887,0)</title></rect><rect x="528" y="200" width="6" height="0" stroke="black" stroke-width="1" fill="blue" opacity="1" tooltip="enable"><title>(0.140483,0)</title></rect><rect x="534" y="200" width="6" height="0" stroke="black" stroke-width="1" fill="blue" opacity="1" tooltip="enable"><title>(0.14208,0)</title></rect><rect x="540" y="200" width="6" height="0" stroke="black" stroke-width="1" fill="blue" opacity="1" tooltip="enable"><title>(0.143676,0)</title></rect><rect x="546" y="200" width="6" height="0" stroke="black" stroke-width="1" fill="blue" opacity="1" tooltip="enable"><title>(0.145272,0)</title></rect><rect x="552" y="200" width="6" height="0" stroke="black" stroke-width="1" fill="blue" opacity="1" tooltip="enable"><title>(0.146869,0)</title></rect><rect x="558" y="200" width="6" height="0" stroke="black" stroke-width="1" fill="blue" opacity="1" tooltip="enable"><title>(0.148465,0)</title></rect><rect x="564" y="200" width="6" height="0" stroke="black" stroke-width="1" fill="blue" opacity="1" tooltip="enable"><title>(0.150062,0)</title></rect><rect x="570" y="200" width="6" height="0" stroke="black" stroke-width="1" fill="blue" opacity="1" tooltip="enable"><title>(0.151658,0)</title></rect><rect x="576" y="200" width="6" height="0" stroke="black" stroke-width="1" fill="blue" opacity="1" tooltip="enable"><title>(0.153254,0)</title></rect><rect x="582" y="200" width="6" height="0" stroke="black" stroke-width="1" fill="blue" opacity="1" tooltip="enable"><title>(0.154851,0)</title></rect><rect x="588" y="199.861" width="6" height="0.138696" stroke="black" stroke-width="1" fill="blue" opacity="1" tooltip="enable"><title>(0.156447,2)</title></rect><rect x="594" y="199.931" width="6" height="0.0693481" stroke="black" stroke-width="1" fill="blue" opacity="1" tooltip="enable"><title>(0.158044,1)</title></rect><text x="30" y="240" font-size="20" fill="black">0</text>
<text x="600" y="240" font-size="20" fill="black">0.15964</text>
<polyline points="0,220,600,220" stroke="black" stroke-width="1" fill="none" opacity="1"/>
<text x="720" y="20" font-size="20" fill="black">2884</text>
<text x="720" y="200" font-size="20" fill="black">0</text>
<polyline points="660,0,660,200" stroke="black" stroke-width="1" fill="none" opacity="1"/>
</svg>