<?xml version="1.0" standalone="yes"?>
<!-- SVG graphic -->
<svg xmlns='http://www.w3.org/2000/svg' xmlns:xlink='http://www.w3.org/1999/xlink'
 version="1.1">
<rect x="0" y="0" width="6" height="200" stroke="black" stroke-width="1" fill="blue" opacity="1" tooltip="enable"><title>(0,1931)</title></rect><rect x="6" y="29.1041" width="6" height="170.896" stroke="black" stroke-width="1" fill="blue" opacity="1" tooltip="enable"><title>(0.00166199,1650)</title></rect><rect x="12" y="118.799" width="6" height="81.2014" stroke="black" stroke-width="1" fill="blue" opacity="1" tooltip="enable"><title>(0.00332398,784)</title></rect><rect x="18" y="173.485" width="6" height="26.5148" stroke="black" stroke-width="1" fill="blue" opacity="1" tooltip="enable"><title>(0.00498597,256)</title></rect><rect x="24" y="180.735" width="6" height="19.2646" stroke="black" stroke-width="1" fill="blue" opacity="1" tooltip="enable"><title>(0.00664797,186)</title></rect><rect x="30" y="183.118" width="6" height="16.8824" stroke="black" stroke-width="1" fill="blue" opacity="1" tooltip="enable"><title>(0.00830996,163)</title></rect><rect x="36" y="180.528" width="6" height="19.4718" stroke="black" stroke-width="1" fill="blue" opacity="1" tooltip="enable"><title>(0.00997195,188)</title></rect><rect x="42" y="183.428" width="6" height="16.5717" stroke="black" stroke-width="1" fill="blue" opacity="1" tooltip="enable"><title>(0.0116339,160)</title></rect><rect x="48" y="181.668" width="6" height="18.3325" stroke="black" stroke-width="1" fill="blue" opacity="1" tooltip="enable"><title>(0.0132959,177)</title></rect><rect x="54" y="180.735" width="6" height="19.2646" stroke="black" stroke-width="1" fill="blue" opacity="1" tooltip="enable"><title>(0.0149579,186)</title></rect><rect x="60" y="186.639" width="6" height="13.361" stroke="black" stroke-width="1" fill="blue" opacity="1" tooltip="enable"><title>(0.0166199,129)</title></rect><rect x="66" y="180.425" width="6" height="19.5753" stroke="black" stroke-width="1" fill="blue" opacity="1" tooltip="enable"><title>(0.0182819,189)</title></rect><rect x="72" y="180.839" width="6" height="19.1611" stroke="black" stroke-width="1" fill="blue" opacity="1" tooltip="enable"><title>(0.0199439,185)</title></rect><rect x="78" y="185.085" width="6" height="14.9146" stroke="black" stroke-width="1" fill="blue" opacity="1" tooltip="enable"><title>(0.0216059,144)</title></rect><rect x="84" y="184.878" width="6" height="15.1217" stroke="black" stroke-width="1" fill="blue" opacity="1" tooltip="enable"><title>(0.0232679,146)</title></rect><rect x="90" y="185.914" width="6" height="14.086" stroke="black" stroke-width="1" fill="blue" opacity="1" tooltip="enable"><title>(0.0249299,136)</title></rect><rect x="96" y="187.364" width="6" height="12.6359" stroke="black" stroke-width="1" fill="blue" opacity="1" tooltip="enable"><title>(0.0265919,122)</title></rect><rect x="102" y="187.571" width="6" height="12.4288" stroke="black" stroke-width="1" fill="blue" opacity="1" tooltip="enable"><title>(0.0282539,120)</title></rect><rect x="108" y="187.157" width="6" height="12.8431" stroke="black" stroke-width="1" fill="blue" opacity="1" tooltip="enable"><title>(0.0299158,124)</title></rect><rect x="114" y="184.878" width="6" height="15.1217" stroke="black" stroke-width="1" fill="blue" opacity="1" tooltip="enable"><title>(0.0315778,146)</title></rect><rect x="120" y="190.886" width="6" height="9.11445" stroke="black" stroke-width="1" fill="blue" opacity="1" tooltip="enable"><title>(0.0332398,88)</title></rect><rect x="126" y="191.714" width="6" height="8.28586" stroke="black" stroke-width="1" fill="blue" opacity="1" tooltip="enable"><title>(0.0349018,80)</title></rect><rect x="132" y="190.264" width="6" height="9.73589" stroke="black" stroke-width="1" fill="blue" opacity="1" tooltip="enable"><title>(0.0365638,94)</title></rect><rect x="138" y="191.714" width="6" height="8.28586" stroke="black" stroke-width="1" fill="blue" opacity="1" tooltip="enable"><title>(0.0382258,80)</title></rect><rect x="144" y="194.2" width="6" height="5.8001" stroke="black" stroke-width="1" fill="blue" opacity="1" tooltip="enable"><title>(0.0398878,56)</title></rect><rect x="150" y="194.614" width="6" height="5.38581" stroke="black" stroke-width="1" fill="blue" opacity="1" tooltip="enable"><title>(0.0415498,52)</title></rect><rect x="156" y="192.75" width="6" height="7.25013" stroke="black" stroke-width="1" fill="blue" opacity="1" tooltip="enable"><title>(0.0432118,70)</title></rect><rect x="162" y="194.303" width="6" height="5.69653" stroke="black" stroke-width="1" fill="blue" opacity="1" tooltip="enable"><title>(0.0448738,55)</title></rect><rect x="168" y="195.443" width="6" height="4.55722" stroke="black" stroke-width="1" fill="blue" opacity="1" tooltip="enable"><title>(0.0465358,44)</title></rect><rect x="174" y="195.443" width="6" height="4.55722" stroke="black" stroke-width="1" fill="blue" opacity="1" tooltip="enable"><title>(0.0481978,44)</title></rect><rect x="180" y="196.789" width="6" height="3.21077" stroke="black" stroke-width="1" fill="blue" opacity="1" tooltip="enable"><title>(0.0498597,31)</title></rect><rect x="186" y="197.1" width="6" height="2.90005" stroke="black" stroke-width="1" fill="blue" opacity="1" tooltip="enable"><title>(0.0515217,28)</title></rect><rect x="192" y="197.929" width="6" height="2.07147" stroke="black" stroke-width="1" fill="blue" opacity="1" tooltip="enable"><title>(0.0531837,20)</title></rect><rect x="198" y="198.55" width="6" height="1.45003" stroke="black" stroke-width="1" fill="blue" opacity="1" tooltip="enable"><title>(0.0548457,14)</title></rect><rect x="204" y="197.929" width="6" height="2.07147" stroke="black" stroke-width="1" fill="blue" opacity="1" tooltip="enable"><title>(0.0565077,20)</title></rect><rect x="210" y="197.929" width="6" height="2.07147" stroke="black" stroke-width="1" fill="blue" opacity="1" tooltip="enable"><title>(0.0581697,20)</title></rect><rect x="216" y="198.964" width="6" height="1.03573" stroke="black" stroke-width="1" fill="blue" opacity="1" tooltip="enable"><title>(0.0598317,10)</title></rect><rect x="222" y="199.379" width="6" height="0.62144" stroke="black" stroke-width="1" fill="blue" opacity="1" tooltip="enable"><title>(0.0614937,6)</title></rect><rect x="228" y="199.586" width="6" height="0.414293" stroke="black" stroke-width="1" fill="blue" opacity="1" tooltip="enable"><title>(0.0631557,4)</title></rect><rect x="234" y="199.171" width="6" height="0.828586" stroke="black" stroke-width="1" fill="blue" opacity="1" tooltip="enable"><title>(0.0648177,8)</title></rect><rect x="240" y="199.793" width="6" height="0.207147" stroke="black" stroke-width="1" fill="blue" opacity="1" tooltip="enable"><title>(0.0664797,2)</title></rect><rect x="246" y="200" width="6" height="0" stroke="black" stroke-width="1" fill="blue" opacity="1" tooltip="enable"><title>(0.0681416,0)</title></rect><rect x="252" y="199.586" width="6" height="0.414293" stroke="black" stroke-width="1" fill="blue" opacity="1" tooltip="enable"><title>(0.0698036,4)</title></rect><rect x="258" y="200" width="6" height="0" stroke="black" stroke-width="1" fill="blue" opacity="1" tooltip="enable"><title>(0.0714656,0)</title></rect><rect x="264" y="199.171" width="6" height="0.828586" stroke="black" stroke-width="1" fill="blue" opacity="1" tooltip="enable"><title>(0.0731276,8)</title></rect><rect x="270" y="199.586" width="6" height="0.414293" stroke="black" stroke-width="1" fill="blue" opacity="1" tooltip="enable"><title>(0.0747896,4)</title></rect><rect x="276" y="199.482" width="6" height="0.517866" stroke="black" stroke-width="1" fill="blue" opacity="1" tooltip="enable"><title>(0.0764516,5)</title></rect><rect x="282" y="199.896" width="6" height="0.103573" stroke="black" stroke-width="1" fill="blue" opacity="1" tooltip="enable"><title>(0.0781136,1)</title></rect><rect x="288" y="200" width="6" height="0" stroke="black" stroke-width="1" fill="blue" opacity="1" tooltip="enable"><title>(0.0797756,0)</title></rect><rect x="294" y="200" width="6" height="0" stroke="black" stroke-width="1" fill="blue" opacity="1" tooltip="enable"><title>(0.0814376,0)</title></rect><rect x="300" y="199.793" width="6" height="0.207147" stroke="black" stroke-width="1" fill="blue" opacity="1" tooltip="enable"><title>(0.0830996,2)</title></rect><rect x="306" y="199.793" width="6" height="0.207147" stroke="black" stroke-width="1" fill="blue" opacity="1" tooltip="enable"><title>(0.0847616,2)</title></rect><rect x="312" y="199.793" width="6" height="0.207147" stroke="black" stroke-width="1" fill="blue" opacity="1" tooltip="enable"><title>(0.0864236,2)</title></rect><rect x="318" y="199.793" width="6" height="0.207147" stroke="black" stroke-width="1" fill="blue" opacity="1" tooltip="enable"><title>(0.0880855,2)</title></rect><rect x="324" y="199.793" width="6" height="0.207147" stroke="black" stroke-width="1" fill="blue" opacity="1" tooltip="enable"><title>(0.0897475,2)</title></rect><rect x="330" y="200" width="6" height="0" stroke="black" stroke-width="1" fill="blue" opacity="1" tooltip="enable"><title>(0.0914095,0)</title></rect><rect x="336" y="200" width="6" height="0" stroke="black" stroke-width="1" fill="blue" opacity="1" tooltip="enable"><title>(0.0930715,0)</title></rect><rect x="342" y="199.793" width="6" height="0.207147" stroke="black" stroke-width="1" fill="blue" opacity="1" tooltip="enable"><title>(0.0947335,2)</title></rect><rect x="348" y="200" width="6" height="0" stroke="black" stroke-width="1" fill="blue" opacity="1" tooltip="enable"><title>(0.0963955,0)</title></rect><rect x="354" y="200" width="6" height="0" stroke="black" stroke-width="1" fill="blue" opacity="1" tooltip="enable"><title>(0.0980575,0)</title></rect><rect x="360" y="199.379" width="6" height="0.62144" stroke="black" stroke-width="1" fill="blue" opacity="1" tooltip="enable"><title>(0.0997195,6)</title></rect><rect x="366" y="199.793" width="6" height="0.207147" stroke="black" stroke-width="1" fill="blue" opacity="1" tooltip="enable"><title>(0.101381,2)</title></rect><rect x="372" y="200" width="6" height="0" stroke="black" stroke-width="1" fill="blue" opacity="1" tooltip="enable"><title>(0.103043,0)</title></rect><rect x="378" y="200" width="6" height="0" stroke="black" stroke-width="1" fill="blue" opacity="1" tooltip="enable"><title>(0.104705,0)</title></rect><rect x="384" y="200" width="6" height="0" stroke="black" stroke-width="1" fill="blue" opacity="1" tooltip="enable"><title>(0.106367,0)</title></rect><rect x="390" y="200" width="6" height="0" stroke="black" stroke-width="1" fill="blue" opacity="1" tooltip="enable"><title>(0.108029,0)</title></rect><rect x="396" y="199.586" width="6" height="0.414293" stroke="black" stroke-width="1" fill="blue" opacity="1" tooltip="enable"><title>(0.109691,4)</title></rect><rect x="402" y="199.793" width="6" height="0.207147" stroke="black" stroke-width="1" fill="blue" opacity="1" tooltip="enable"><title>(0.111353,2)</title></rect><rect x="408" y="200" width="6" height="0" stroke="black" stroke-width="1" fill="blue" opacity="1" tooltip="enable"><title>(0.113015,0)</title></rect><rect x="414" y="200" width="6" height="0" stroke="black" stroke-width="1" fill="blue" opacity="1" tooltip="enable"><title>(0.114677,0)</title></rect><rect x="420" y="200" width="6" height="0" stroke="black" stroke-width="1" fill="blue" opacity="1" tooltip="enable"><title>(0.116339,0)</title></rect><rect x="426" y="200" width="6" height="0" stroke="black" stroke-width="1" fill="blue" opacity="1" tooltip="enable"><title>(0.118001,0)</title></rect><rect x="432" y="199.793" width="6" height="0.207147" stroke="black" stroke-width="1" fill="blue" opacity="1" tooltip="enable"><title>(0.119663,2)</title></rect><rect x="438" y="200" width="6" height="0" stroke="black" stroke-width="1" fill="blue" opacity="1" tooltip="enable"><title>(0.121325,0)</title></rect><rect x="444" y="200" width="6" height="0" stroke="black" stroke-width="1" fill="blue" opacity="1" tooltip="enable"><title>(0.122987,0)</title></rect><rect x="450" y="200" width="6" height="0" stroke="black" stroke-width="1" fill="blue" opacity="1" tooltip="enable"><title>(0.124649,0)</title></rect><rect x="456" y="200" width="6" height="0" stroke="black" stroke-width="1" fill="blue" opacity="1" tooltip="enable"><title>(0.126311,0)</title></rect><rect x="462" y="200" width="6" height="0" stroke="black" stroke-width="1" fill="blue" opacity="1" tooltip="enable"><title>(0.127973,0)</title></rect><rect x="468" y="200" width="6" height="0" stroke="black" stroke-width="1" fill="blue" opacity="1" tooltip="enable"><title>(0.129635,0)</title></rect><rect x="474" y="200" width="6" height="0" stroke="black" stroke-width="1" fill="blue" opacity="1" tooltip="enable"><title>(0.131297,0)</title></rect><rect x="480" y="200" width="6" height="0" stroke="black" stroke-width="1" fill="blue" opacity="1" tooltip="enable"><title>(0.132959,0)</title></rect><rect x="486" y="200" width="6" height="0" stroke="black" stroke-width="1" fill="blue" opacity="1" tooltip="enable"><title>(0.134621,0)</title></rect><rect x="492" y="200" width="6" height="0" stroke="black" stroke-width="1" fill="blue" opacity="1" tooltip="enable"><title>(0.136283,0)</title></rect><rect x="498" y="200" width="6" height="0" stroke="black" stroke-width="1" fill="blue" opacity="1" tooltip="enable"><title>(0.137945,0)</title></rect><rect x="504" y="200" width="6" height="0" stroke="black" stroke-width="1" fill="blue" opacity="1" tooltip="enable"><title>(0.139607,0)</title></rect><rect x="510" y="200" width="6" height="0" stroke="black" stroke-width="1" fill="blue" opacity="1" tooltip="enable"><title>(0.141269,0)</title></rect><rect x="516" y="200" width="6" height="0" stroke="black" stroke-width="1" fill="blue" opacity="1" tooltip="enable"><title>(0.142931,0)</title></rect><rect x="522" y="200" width="6" height="0" stroke="black" stroke-width="1" fill="blue" opacity="1" tooltip="enable"><title>(0.144593,0)</title></rect><rect x="528" y="200" width="6" height="0" stroke="black" stroke-width="1" fill="blue" opacity="1" tooltip="enable"><title>(0.146255,0)</title></rect><rect x="534" y="200" width="6" height="0" stroke="black" stroke-width="1" fill="blue" opacity="1" tooltip="enable"><title>(0.147917,0)</title></rect><rect x="540" y="200" width="6" height="0" stroke="black" stroke-width="1" fill="blue" opacity="1" tooltip="enable"><title>(0.149579,0)</title></rect><rect x="546" y="200" width="6" height="0" stroke="black" stroke-width="1" fill="blue" opacity="1" tooltip="enable"><title>(0.151241,0)</title></rect><rect x="552" y="200" width="6" height="0" stroke="black" stroke-width="1" fill="blue" opacity="1" tooltip="enable"><title>(0.152903,0)</title></rect><rect x="558" y="200" width="6" height="0" stroke="black" stroke-width="1" fill="blue" opacity="1" tooltip="enable"><title>(0.154565,0)</title></rect><rect x="564" y="200" width="6" height="0" stroke="black" stroke-width="1" fill="blue" opacity="1" tooltip="enable"><title>(0.156227,0)</title></rect><rect x="570" y="200" width="6" height="0" stroke="black" stroke-width="1" fill="blue" opacity="1" tooltip="enable"><title>(0.157889,0)</title></rect><rect x="576" y="200" width="6" height="0" stroke="black" stroke-width="1" fill="blue" opacity="1" tooltip="enable"><title>(0.159551,0)</title></rect><rect x="582" y="200" width="6" height="0" stroke="black" stroke-width="1" fill="blue" opacity="1" tooltip="enable"><title>(0.161213,0)</title></rect><rect x="588" y="200" width="6" height="0" stroke="black" stroke-width="1" fill="blue" opacity="1" tooltip="enable"><title>(0.162875,0)</title></rect><rect x="594" y="199.896" width="6" height="0.103573" stroke="black" stroke-width="1" fill="blue" opacity="1" tooltip="enable"><title>(0.164537,1)</title></rect><text x="30" y="240" font-size="20" fill="black">0</text>
<text x="600" y="240" font-size="20" fill="black">0.166199</text>
<polyline points="0,220,600,220" stroke="black" stroke-width="1" fill="none" opacity="1"/>
<text x="720" y="20" font-size="20" fill="black">1931</text>
<text x="720" y="200" font-size="20" fill="black">0</text>
<polyline points="660,0,660,200" stroke="black" stroke-width="1" fill="none" opacity="1"/>
</svg>