<?xml version="1.0" standalone="yes"?>
<!-- SVG graphic -->
<svg xmlns='http://www.w3.org/2000/svg' xmlns:xlink='http://www.w3.org/1999/xlink'
 version="1.1">
<rect x="0" y="1.52588e-05" width="6" height="200" stroke="black" stroke-width="1" fill="blue" opacity="1" tooltip="enable"><title>(0,1283)</title></rect><rect x="6" y="14.1855" width="6" height="185.814" stroke="black" stroke-width="1" fill="blue" opacity="1" tooltip="enable"><title>(0.00143988,1192)</title></rect><rect x="12" y="37.1006" width="6" height="162.899" stroke="black" stroke-width="1" fill="blue" opacity="1" tooltip="enable"><title>(0.00287977,1045)</title></rect><rect x="18" y="94.622" width="6" height="105.378" stroke="black" stroke-width="1" fill="blue" opacity="1" tooltip="enable"><title>(0.00431965,676)</title></rect><rect x="24" y="127.202" width="6" height="72.7981" stroke="black" stroke-width="1" fill="blue" opacity="1" tooltip="enable"><title>(0.00575953,467)</title></rect><rect x="30" y="146.532" width="6" height="53.4684" stroke="black" stroke-width="1" fill="blue" opacity="1" tooltip="enable"><title>(0.00719941,343)</title></rect><rect x="36" y="164.147" width="6" height="35.8535" stroke="black" stroke-width="1" fill="blue" opacity="1" tooltip="enable"><title>(0.0086393,230)</title></rect><rect x="42" y="168.355" width="6" height="31.6446" stroke="black" stroke-width="1" fill="blue" opacity="1" tooltip="enable"><title>(0.0100792,203)</title></rect><rect x="48" y="171.317" width="6" height="28.6828" stroke="black" stroke-width="1" fill="blue" opacity="1" tooltip="enable"><title>(0.0115191,184)</title></rect><rect x="54" y="172.72" width="6" height="27.2798" stroke="black" stroke-width="1" fill="blue" opacity="1" tooltip="enable"><title>(0.0129589,175)</title></rect><rect x="60" y="173.811" width="6" height="26.1886" stroke="black" stroke-width="1" fill="blue" opacity="1" tooltip="enable"><title>(0.0143988,168)</title></rect><rect x="66" y="171.473" width="6" height="28.5269" stroke="black" stroke-width="1" fill="blue" opacity="1" tooltip="enable"><title>(0.0158387,183)</title></rect><rect x="72" y="178.176" width="6" height="21.8238" stroke="black" stroke-width="1" fill="blue" opacity="1" tooltip="enable"><title>(0.0172786,140)</title></rect><rect x="78" y="176.306" width="6" height="23.6945" stroke="black" stroke-width="1" fill="blue" opacity="1" tooltip="enable"><title>(0.0187185,152)</title></rect><rect x="84" y="176.15" width="6" height="23.8503" stroke="black" stroke-width="1" fill="blue" opacity="1" tooltip="enable"><title>(0.0201584,153)</title></rect><rect x="90" y="182.229" width="6" height="17.7708" stroke="black" stroke-width="1" fill="blue" opacity="1" tooltip="enable"><title>(0.0215982,114)</title></rect><rect x="96" y="176.15" width="6" height="23.8503" stroke="black" stroke-width="1" fill="blue" opacity="1" tooltip="enable"><title>(0.0230381,153)</title></rect><rect x="102" y="181.762" width="6" height="18.2385" stroke="black" stroke-width="1" fill="blue" opacity="1" tooltip="enable"><title>(0.024478,117)</title></rect><rect x="108" y="185.347" width="6" height="14.6532" stroke="black" stroke-width="1" fill="blue" opacity="1" tooltip="enable"><title>(0.0259179,94)</title></rect><rect x="114" y="187.529" width="6" height="12.4708" stroke="black" stroke-width="1" fill="blue" opacity="1" tooltip="enable"><title>(0.0273578,80)</title></rect><rect x="120" y="188.932" width="6" height="11.0678" stroke="black" stroke-width="1" fill="blue" opacity="1" tooltip="enable"><title>(0.0287977,71)</title></rect><rect x="126" y="186.75" width="6" height="13.2502" stroke="black" stroke-width="1" fill="blue" opacity="1" tooltip="enable"><title>(0.0302375,85)</title></rect><rect x="132" y="190.647" width="6" height="9.35308" stroke="black" stroke-width="1" fill="blue" opacity="1" tooltip="enable"><title>(0.0316774,60)</title></rect><rect x="138" y="190.959" width="6" height="9.04131" stroke="black" stroke-width="1" fill="blue" opacity="1" tooltip="enable"><title>(0.0331173,58)</title></rect><rect x="144" y="189.4" width="6" height="10.6002" stroke="black" stroke-width="1" fill="blue" opacity="1" tooltip="enable"><title>(0.0345572,68)</title></rect><rect x="150" y="191.738" width="6" height="8.26189" stroke="black" stroke-width="1" fill="blue" opacity="1" tooltip="enable"><title>(0.0359971,53)</title></rect><rect x="156" y="193.453" width="6" height="6.54715" stroke="black" stroke-width="1" fill="blue" opacity="1" tooltip="enable"><title>(0.0374369,42)</title></rect><rect x="162" y="193.141" width="6" height="6.85892" stroke="black" stroke-width="1" fill="blue" opacity="1" tooltip="enable"><title>(0.0388768,44)</title></rect><rect x="168" y="194.856" width="6" height="5.14419" stroke="black" stroke-width="1" fill="blue" opacity="1" tooltip="enable"><title>(0.0403167,33)</title></rect><rect x="174" y="193.921" width="6" height="6.0795" stroke="black" stroke-width="1" fill="blue" opacity="1" tooltip="enable"><title>(0.0417566,39)</title></rect><rect x="180" y="192.673" width="6" height="7.32658" stroke="black" stroke-width="1" fill="blue" opacity="1" tooltip="enable"><title>(0.0431965,47)</title></rect><rect x="186" y="193.921" width="6" height="6.0795" stroke="black" stroke-width="1" fill="blue" opacity="1" tooltip="enable"><title>(0.0446364,39)</title></rect><rect x="192" y="195.168" width="6" height="4.83242" stroke="black" stroke-width="1" fill="blue" opacity="1" tooltip="enable"><title>(0.0460762,31)</title></rect><rect x="198" y="196.882" width="6" height="3.11769" stroke="black" stroke-width="1" fill="blue" opacity="1" tooltip="enable"><title>(0.0475161,20)</title></rect><rect x="204" y="197.35" width="6" height="2.65004" stroke="black" stroke-width="1" fill="blue" opacity="1" tooltip="enable"><title>(0.048956,17)</title></rect><rect x="210" y="198.909" width="6" height="1.09119" stroke="black" stroke-width="1" fill="blue" opacity="1" tooltip="enable"><title>(0.0503959,7)</title></rect><rect x="216" y="198.909" width="6" height="1.09119" stroke="black" stroke-width="1" fill="blue" opacity="1" tooltip="enable"><title>(0.0518358,7)</title></rect><rect x="222" y="199.221" width="6" height="0.779423" stroke="black" stroke-width="1" fill="blue" opacity="1" tooltip="enable"><title>(0.0532757,5)</title></rect><rect x="228" y="198.753" width="6" height="1.24708" stroke="black" stroke-width="1" fill="blue" opacity="1" tooltip="enable"><title>(0.0547155,8)</title></rect><rect x="234" y="199.065" width="6" height="0.935308" stroke="black" stroke-width="1" fill="blue" opacity="1" tooltip="enable"><title>(0.0561554,6)</title></rect><rect x="240" y="199.532" width="6" height="0.467654" stroke="black" stroke-width="1" fill="blue" opacity="1" tooltip="enable"><title>(0.0575953,3)</title></rect><rect x="246" y="199.532" width="6" height="0.467654" stroke="black" stroke-width="1" fill="blue" opacity="1" tooltip="enable"><title>(0.0590352,3)</title></rect><rect x="252" y="199.376" width="6" height="0.623539" stroke="black" stroke-width="1" fill="blue" opacity="1" tooltip="enable"><title>(0.0604751,4)</title></rect><rect x="258" y="199.065" width="6" height="0.935308" stroke="black" stroke-width="1" fill="blue" opacity="1" tooltip="enable"><title>(0.061915,6)</title></rect><rect x="264" y="199.688" width="6" height="0.311769" stroke="black" stroke-width="1" fill="blue" opacity="1" tooltip="enable"><title>(0.0633548,2)</title></rect><rect x="270" y="199.688" width="6" height="0.311769" stroke="black" stroke-width="1" fill="blue" opacity="1" tooltip="enable"><title>(0.0647947,2)</title></rect><rect x="276" y="200" width="6" height="0" stroke="black" stroke-width="1" fill="blue" opacity="1" tooltip="enable"><title>(0.0662346,0)</title></rect><rect x="282" y="197.973" width="6" height="2.0265" stroke="black" stroke-width="1" fill="blue" opacity="1" tooltip="enable"><title>(0.0676745,13)</title></rect><rect x="288" y="199.221" width="6" height="0.779423" stroke="black" stroke-width="1" fill="blue" opacity="1" tooltip="enable"><title>(0.0691144,5)</title></rect><rect x="294" y="200" width="6" height="0" stroke="black" stroke-width="1" fill="blue" opacity="1" tooltip="enable"><title>(0.0705542,0)</title></rect><rect x="300" y="199.688" width="6" height="0.311769" stroke="black" stroke-width="1" fill="blue" opacity="1" tooltip="enable"><title>(0.0719941,2)</title></rect><rect x="306" y="199.221" width="6" height="0.779423" stroke="black" stroke-width="1" fill="blue" opacity="1" tooltip="enable"><title>(0.073434,5)</title></rect><rect x="312" y="199.532" width="6" height="0.467654" stroke="black" stroke-width="1" fill="blue" opacity="1" tooltip="enable"><title>(0.0748739,3)</title></rect><rect x="318" y="199.065" width="6" height="0.935308" stroke="black" stroke-width="1" fill="blue" opacity="1" tooltip="enable"><title>(0.0763138,6)</title></rect><rect x="324" y="199.688" width="6" height="0.311769" stroke="black" stroke-width="1" fill="blue" opacity="1" tooltip="enable"><title>(0.0777537,2)</title></rect><rect x="330" y="199.688" width="6" height="0.311769" stroke="black" stroke-width="1" fill="blue" opacity="1" tooltip="enable"><title>(0.0791935,2)</title></rect><rect x="336" y="200" width="6" height="0" stroke="black" stroke-width="1" fill="blue" opacity="1" tooltip="enable"><title>(0.0806334,0)</title></rect><rect x="342" y="199.532" width="6" height="0.467654" stroke="black" stroke-width="1" fill="blue" opacity="1" tooltip="enable"><title>(0.0820733,3)</title></rect><rect x="348" y="199.376" width="6" height="0.623539" stroke="black" stroke-width="1" fill="blue" opacity="1" tooltip="enable"><title>(0.0835132,4)</title></rect><rect x="354" y="199.221" width="6" height="0.779423" stroke="black" stroke-width="1" fill="blue" opacity="1" tooltip="enable"><title>(0.0849531,5)</title></rect><rect x="360" y="200" width="6" height="0" stroke="black" stroke-width="1" fill="blue" opacity="1" tooltip="enable"><title>(0.086393,0)</title></rect><rect x="366" y="199.376" width="6" height="0.623539" stroke="black" stroke-width="1" fill="blue" opacity="1" tooltip="enable"><title>(0.0878328,4)</title></rect><rect x="372" y="200" width="6" height="0" stroke="black" stroke-width="1" fill="blue" opacity="1" tooltip="enable"><title>(0.0892727,0)</title></rect><rect x="378" y="199.688" width="6" height="0.311769" stroke="black" stroke-width="1" fill="blue" opacity="1" tooltip="enable"><title>(0.0907126,2)</title></rect><rect x="384" y="200" width="6" height="0" stroke="black" stroke-width="1" fill="blue" opacity="1" tooltip="enable"><title>(0.0921525,0)</title></rect><rect x="390" y="199.376" width="6" height="0.623539" stroke="black" stroke-width="1" fill="blue" opacity="1" tooltip="enable"><title>(0.0935924,4)</title></rect><rect x="396" y="200" width="6" height="0" stroke="black" stroke-width="1" fill="blue" opacity="1" tooltip="enable"><title>(0.0950323,0)</title></rect><rect x="402" y="199.688" width="6" height="0.311769" stroke="black" stroke-width="1" fill="blue" opacity="1" tooltip="enable"><title>(0.0964721,2)</title></rect><rect x="408" y="199.376" width="6" height="0.623539" stroke="black" stroke-width="1" fill="blue" opacity="1" tooltip="enable"><title>(0.097912,4)</title></rect><rect x="414" y="200" width="6" height="0" stroke="black" stroke-width="1" fill="blue" opacity="1" tooltip="enable"><title>(0.0993519,0)</title></rect><rect x="420" y="200" width="6" height="0" stroke="black" stroke-width="1" fill="blue" opacity="1" tooltip="enable"><title>(0.100792,0)</title></rect><rect x="426" y="200" width="6" height="0" stroke="black" stroke-width="1" fill="blue" opacity="1" tooltip="enable"><title>(0.102232,0)</title></rect><rect x="432" y="200" width="6" height="0" stroke="black" stroke-width="1" fill="blue" opacity="1" tooltip="enable"><title>(0.103672,0)</title></rect><rect x="438" y="200" width="6" height="0" stroke="black" stroke-width="1" fill="blue" opacity="1" tooltip="enable"><title>(0.105111,0)</title></rect><rect x="444" y="200" width="6" height="0" stroke="black" stroke-width="1" fill="blue" opacity="1" tooltip="enable"><title>(0.106551,0)</title></rect><rect x="450" y="200" width="6" height="0" stroke="black" stroke-width="1" fill="blue" opacity="1" tooltip="enable"><title>(0.107991,0)</title></rect><rect x="456" y="199.688" width="6" height="0.311769" stroke="black" stroke-width="1" fill="blue" opacity="1" tooltip="enable"><title>(0.109431,2)</title></rect><rect x="462" y="200" width="6" height="0" stroke="black" stroke-width="1" fill="blue" opacity="1" tooltip="enable"><title>(0.110871,0)</title></rect><rect x="468" y="200" width="6" height="0" stroke="black" stroke-width="1" fill="blue" opacity="1" tooltip="enable"><title>(0.112311,0)</title></rect><rect x="474" y="199.376" width="6" height="0.623539" stroke="black" stroke-width="1" fill="blue" opacity="1" tooltip="enable"><title>(0.113751,4)</title></rect><rect x="480" y="199.688" width="6" height="0.311769" stroke="black" stroke-width="1" fill="blue" opacity="1" tooltip="enable"><title>(0.115191,2)</title></rect><rect x="486" y="200" width="6" height="0" stroke="black" stroke-width="1" fill="blue" opacity="1" tooltip="enable"><title>(0.11663,0)</title></rect><rect x="492" y="199.688" width="6" height="0.311769" stroke="black" stroke-width="1" fill="blue" opacity="1" tooltip="enable"><title>(0.11807,2)</title></rect><rect x="498" y="200" width="6" height="0" stroke="black" stroke-width="1" fill="blue" opacity="1" tooltip="enable"><title>(0.11951,0)</title></rect><rect x="504" y="200" width="6" height="0" stroke="black" stroke-width="1" fill="blue" opacity="1" tooltip="enable"><title>(0.12095,0)</title></rect><rect x="510" y="200" width="6" height="0" stroke="black" stroke-width="1" fill="blue" opacity="1" tooltip="enable"><title>(0.12239,0)</title></rect><rect x="516" y="200" width="6" height="0" stroke="black" stroke-width="1" fill="blue" opacity="1" tooltip="enable"><title>(0.12383,0)</title></rect><rect x="522" y="199.844" width="6" height="0.155885" stroke="black" stroke-width="1" fill="blue" opacity="1" tooltip="enable"><title>(0.12527,1)</title></rect><rect x="528" y="199.221" width="6" height="0.779423" stroke="black" stroke-width="1" fill="blue" opacity="1" tooltip="enable"><title>(0.12671,5)</title></rect><rect x="534" y="200" width="6" height="0" stroke="black" stroke-width="1" fill="blue" opacity="1" tooltip="enable"><title>(0.12815,0)</title></rect><rect x="540" y="200" width="6" height="0" stroke="black" stroke-width="1" fill="blue" opacity="1" tooltip="enable"><title>(0.129589,0)</title></rect><rect x="546" y="200" width="6" height="0" stroke="black" stroke-width="1" fill="blue" opacity="1" tooltip="enable"><title>(0.131029,0)</title></rect><rect x="552" y="200" width="6" height="0" stroke="black" stroke-width="1" fill="blue" opacity="1" tooltip="enable"><title>(0.132469,0)</title></rect><rect x="558" y="200" width="6" height="0" stroke="black" stroke-width="1" fill="blue" opacity="1" tooltip="enable"><title>(0.133909,0)</title></rect><rect x="564" y="200" width="6" height="0" stroke="black" stroke-width="1" fill="blue" opacity="1" tooltip="enable"><title>(0.135349,0)</title></rect><rect x="570" y="199.688" width="6" height="0.311769" stroke="black" stroke-width="1" fill="blue" opacity="1" tooltip="enable"><title>(0.136789,2)</title></rect><rect x="576" y="199.688" width="6" height="0.311769" stroke="black" stroke-width="1" fill="blue" opacity="1" tooltip="enable"><title>(0.138229,2)</title></rect><rect x="582" y="200" width="6" height="0" stroke="black" stroke-width="1" fill="blue" opacity="1" tooltip="enable"><title>(0.139669,0)</title></rect><rect x="588" y="200" width="6" height="0" stroke="black" stroke-width="1" fill="blue" opacity="1" tooltip="enable"><title>(0.141108,0)</title></rect><rect x="594" y="199.844" width="6" height="0.155885" stroke="black" stroke-width="1" fill="blue" opacity="1" tooltip="enable"><title>(0.142548,1)</title></rect><text x="30" y="240" font-size="20" fill="black">0</text>
<text x="600" y="240" font-size="20" fill="black">0.143988</text>
<polyline points="0,220,600,220" stroke="black" stroke-width="1" fill="none" opacity="1"/>
<text x="720" y="20" font-size="20" fill="black">1283</text>
<text x="720" y="200" font-size="20" fill="black">0</text>
<polyline points="660,0,660,200" stroke="black" stroke-width="1" fill="none" opacity="1"/>
</svg>