<?xml version="1.0" standalone="yes"?>
<!-- SVG graphic -->
<svg xmlns='http://www.w3.org/2000/svg' xmlns:xlink='http://www.w3.org/1999/xlink'
 version="1.1">
<rect x="0" y="0" width="6" height="200" stroke="black" stroke-width="1" fill="blue" opacity="1" tooltip="enable"><title>(0,1597)</title></rect><rect x="6" y="34.9405" width="6" height="165.059" stroke="black" stroke-width="1" fill="blue" opacity="1" tooltip="enable"><title>(0.00124054,1318)</title></rect><rect x="12" y="115.341" width="6" height="84.6587" stroke="black" stroke-width="1" fill="blue" opacity="1" tooltip="enable"><title>(0.00248107,676)</title></rect><rect x="18" y="122.981" width="6" height="77.0194" stroke="black" stroke-width="1" fill="blue" opacity="1" tooltip="enable"><title>(0.00372161,615)</title></rect><rect x="24" y="161.803" width="6" height="38.1966" stroke="black" stroke-width="1" fill="blue" opacity="1" tooltip="enable"><title>(0.00496214,305)</title></rect><rect x="30" y="180.964" width="6" height="19.0357" stroke="black" stroke-width="1" fill="blue" opacity="1" tooltip="enable"><title>(0.00620268,152)</title></rect><rect x="36" y="183.97" width="6" height="16.0301" stroke="black" stroke-width="1" fill="blue" opacity="1" tooltip="enable"><title>(0.00744322,128)</title></rect><rect x="42" y="182.091" width="6" height="17.9086" stroke="black" stroke-width="1" fill="blue" opacity="1" tooltip="enable"><title>(0.00868375,143)</title></rect><rect x="48" y="184.22" width="6" height="15.7796" stroke="black" stroke-width="1" fill="blue" opacity="1" tooltip="enable"><title>(0.00992429,126)</title></rect><rect x="54" y="184.847" width="6" height="15.1534" stroke="black" stroke-width="1" fill="blue" opacity="1" tooltip="enable"><title>(0.0111648,121)</title></rect><rect x="60" y="182.467" width="6" height="17.5329" stroke="black" stroke-width="1" fill="blue" opacity="1" tooltip="enable"><title>(0.0124054,140)</title></rect><rect x="66" y="183.093" width="6" height="16.9067" stroke="black" stroke-width="1" fill="blue" opacity="1" tooltip="enable"><title>(0.0136459,135)</title></rect><rect x="72" y="180.964" width="6" height="19.0357" stroke="black" stroke-width="1" fill="blue" opacity="1" tooltip="enable"><title>(0.0148864,152)</title></rect><rect x="78" y="188.478" width="6" height="11.5216" stroke="black" stroke-width="1" fill="blue" opacity="1" tooltip="enable"><title>(0.016127,92)</title></rect><rect x="84" y="181.716" width="6" height="18.2843" stroke="black" stroke-width="1" fill="blue" opacity="1" tooltip="enable"><title>(0.0173675,146)</title></rect><rect x="90" y="187.226" width="6" height="12.774" stroke="black" stroke-width="1" fill="blue" opacity="1" tooltip="enable"><title>(0.018608,102)</title></rect><rect x="96" y="187.351" width="6" height="12.6487" stroke="black" stroke-width="1" fill="blue" opacity="1" tooltip="enable"><title>(0.0198486,101)</title></rect><rect x="102" y="188.979" width="6" height="11.0207" stroke="black" stroke-width="1" fill="blue" opacity="1" tooltip="enable"><title>(0.0210891,88)</title></rect><rect x="108" y="189.606" width="6" height="10.3945" stroke="black" stroke-width="1" fill="blue" opacity="1" tooltip="enable"><title>(0.0223296,83)</title></rect><rect x="114" y="186.475" width="6" height="13.5254" stroke="black" stroke-width="1" fill="blue" opacity="1" tooltip="enable"><title>(0.0235702,108)</title></rect><rect x="120" y="189.731" width="6" height="10.2693" stroke="black" stroke-width="1" fill="blue" opacity="1" tooltip="enable"><title>(0.0248107,82)</title></rect><rect x="126" y="190.232" width="6" height="9.76832" stroke="black" stroke-width="1" fill="blue" opacity="1" tooltip="enable"><title>(0.0260513,78)</title></rect><rect x="132" y="190.106" width="6" height="9.89355" stroke="black" stroke-width="1" fill="blue" opacity="1" tooltip="enable"><title>(0.0272918,79)</title></rect><rect x="138" y="188.729" width="6" height="11.2711" stroke="black" stroke-width="1" fill="blue" opacity="1" tooltip="enable"><title>(0.0285323,90)</title></rect><rect x="144" y="190.858" width="6" height="9.14214" stroke="black" stroke-width="1" fill="blue" opacity="1" tooltip="enable"><title>(0.0297729,73)</title></rect><rect x="150" y="191.484" width="6" height="8.51597" stroke="black" stroke-width="1" fill="blue" opacity="1" tooltip="enable"><title>(0.0310134,68)</title></rect><rect x="156" y="191.234" width="6" height="8.76644" stroke="black" stroke-width="1" fill="blue" opacity="1" tooltip="enable"><title>(0.0322539,70)</title></rect><rect x="162" y="193.488" width="6" height="6.51221" stroke="black" stroke-width="1" fill="blue" opacity="1" tooltip="enable"><title>(0.0334945,52)</title></rect><rect x="168" y="194.865" width="6" height="5.13463" stroke="black" stroke-width="1" fill="blue" opacity="1" tooltip="enable"><title>(0.034735,41)</title></rect><rect x="174" y="194.615" width="6" height="5.3851" stroke="black" stroke-width="1" fill="blue" opacity="1" tooltip="enable"><title>(0.0359755,43)</title></rect><rect x="180" y="196.744" width="6" height="3.25611" stroke="black" stroke-width="1" fill="blue" opacity="1" tooltip="enable"><title>(0.0372161,26)</title></rect><rect x="186" y="193.613" width="6" height="6.38698" stroke="black" stroke-width="1" fill="blue" opacity="1" tooltip="enable"><title>(0.0384566,51)</title></rect><rect x="192" y="193.613" width="6" height="6.38698" stroke="black" stroke-width="1" fill="blue" opacity="1" tooltip="enable"><title>(0.0396971,51)</title></rect><rect x="198" y="195.492" width="6" height="4.50845" stroke="black" stroke-width="1" fill="blue" opacity="1" tooltip="enable"><title>(0.0409377,36)</title></rect><rect x="204" y="194.991" width="6" height="5.00939" stroke="black" stroke-width="1" fill="blue" opacity="1" tooltip="enable"><title>(0.0421782,40)</title></rect><rect x="210" y="197.37" width="6" height="2.62993" stroke="black" stroke-width="1" fill="blue" opacity="1" tooltip="enable"><title>(0.0434188,21)</title></rect><rect x="216" y="196.619" width="6" height="3.38134" stroke="black" stroke-width="1" fill="blue" opacity="1" tooltip="enable"><title>(0.0446593,27)</title></rect><rect x="222" y="194.74" width="6" height="5.25986" stroke="black" stroke-width="1" fill="blue" opacity="1" tooltip="enable"><title>(0.0458998,42)</title></rect><rect x="228" y="193.613" width="6" height="6.38698" stroke="black" stroke-width="1" fill="blue" opacity="1" tooltip="enable"><title>(0.0471404,51)</title></rect><rect x="234" y="193.363" width="6" height="6.63744" stroke="black" stroke-width="1" fill="blue" opacity="1" tooltip="enable"><title>(0.0483809,53)</title></rect><rect x="240" y="194.364" width="6" height="5.63557" stroke="black" stroke-width="1" fill="blue" opacity="1" tooltip="enable"><title>(0.0496214,45)</title></rect><rect x="246" y="194.114" width="6" height="5.88604" stroke="black" stroke-width="1" fill="blue" opacity="1" tooltip="enable"><title>(0.050862,47)</title></rect><rect x="252" y="193.237" width="6" height="6.76268" stroke="black" stroke-width="1" fill="blue" opacity="1" tooltip="enable"><title>(0.0521025,54)</title></rect><rect x="258" y="195.617" width="6" height="4.38322" stroke="black" stroke-width="1" fill="blue" opacity="1" tooltip="enable"><title>(0.053343,35)</title></rect><rect x="264" y="195.742" width="6" height="4.25798" stroke="black" stroke-width="1" fill="blue" opacity="1" tooltip="enable"><title>(0.0545836,34)</title></rect><rect x="270" y="196.994" width="6" height="3.00564" stroke="black" stroke-width="1" fill="blue" opacity="1" tooltip="enable"><title>(0.0558241,24)</title></rect><rect x="276" y="197.245" width="6" height="2.75517" stroke="black" stroke-width="1" fill="blue" opacity="1" tooltip="enable"><title>(0.0570647,22)</title></rect><rect x="282" y="195.742" width="6" height="4.25798" stroke="black" stroke-width="1" fill="blue" opacity="1" tooltip="enable"><title>(0.0583052,34)</title></rect><rect x="288" y="194.74" width="6" height="5.25986" stroke="black" stroke-width="1" fill="blue" opacity="1" tooltip="enable"><title>(0.0595457,42)</title></rect><rect x="294" y="196.869" width="6" height="3.13087" stroke="black" stroke-width="1" fill="blue" opacity="1" tooltip="enable"><title>(0.0607863,25)</title></rect><rect x="300" y="197.495" width="6" height="2.5047" stroke="black" stroke-width="1" fill="blue" opacity="1" tooltip="enable"><title>(0.0620268,20)</title></rect><rect x="306" y="196.994" width="6" height="3.00564" stroke="black" stroke-width="1" fill="blue" opacity="1" tooltip="enable"><title>(0.0632673,24)</title></rect><rect x="312" y="198.998" width="6" height="1.00188" stroke="black" stroke-width="1" fill="blue" opacity="1" tooltip="enable"><title>(0.0645079,8)</title></rect><rect x="318" y="198.748" width="6" height="1.25235" stroke="black" stroke-width="1" fill="blue" opacity="1" tooltip="enable"><title>(0.0657484,10)</title></rect><rect x="324" y="198.748" width="6" height="1.25235" stroke="black" stroke-width="1" fill="blue" opacity="1" tooltip="enable"><title>(0.0669889,10)</title></rect><rect x="330" y="199.499" width="6" height="0.500939" stroke="black" stroke-width="1" fill="blue" opacity="1" tooltip="enable"><title>(0.0682295,4)</title></rect><rect x="336" y="198.748" width="6" height="1.25235" stroke="black" stroke-width="1" fill="blue" opacity="1" tooltip="enable"><title>(0.06947,10)</title></rect><rect x="342" y="199.123" width="6" height="0.876644" stroke="black" stroke-width="1" fill="blue" opacity="1" tooltip="enable"><title>(0.0707105,7)</title></rect><rect x="348" y="198.121" width="6" height="1.87852" stroke="black" stroke-width="1" fill="blue" opacity="1" tooltip="enable"><title>(0.0719511,15)</title></rect><rect x="354" y="199.123" width="6" height="0.876644" stroke="black" stroke-width="1" fill="blue" opacity="1" tooltip="enable"><title>(0.0731916,7)</title></rect><rect x="360" y="199.123" width="6" height="0.876644" stroke="black" stroke-width="1" fill="blue" opacity="1" tooltip="enable"><title>(0.0744322,7)</title></rect><rect x="366" y="199.499" width="6" height="0.500939" stroke="black" stroke-width="1" fill="blue" opacity="1" tooltip="enable"><title>(0.0756727,4)</title></rect><rect x="372" y="200" width="6" height="0" stroke="black" stroke-width="1" fill="blue" opacity="1" tooltip="enable"><title>(0.0769132,0)</title></rect><rect x="378" y="198.998" width="6" height="1.00188" stroke="black" stroke-width="1" fill="blue" opacity="1" tooltip="enable"><title>(0.0781538,8)</title></rect><rect x="384" y="198.748" width="6" height="1.25235" stroke="black" stroke-width="1" fill="blue" opacity="1" tooltip="enable"><title>(0.0793943,10)</title></rect><rect x="390" y="199.123" width="6" height="0.876644" stroke="black" stroke-width="1" fill="blue" opacity="1" tooltip="enable"><title>(0.0806348,7)</title></rect><rect x="396" y="199.123" width="6" height="0.876644" stroke="black" stroke-width="1" fill="blue" opacity="1" tooltip="enable"><title>(0.0818754,7)</title></rect><rect x="402" y="199.75" width="6" height="0.25047" stroke="black" stroke-width="1" fill="blue" opacity="1" tooltip="enable"><title>(0.0831159,2)</title></rect><rect x="408" y="198.998" width="6" height="1.00188" stroke="black" stroke-width="1" fill="blue" opacity="1" tooltip="enable"><title>(0.0843564,8)</title></rect><rect x="414" y="199.499" width="6" height="0.500939" stroke="black" stroke-width="1" fill="blue" opacity="1" tooltip="enable"><title>(0.085597,4)</title></rect><rect x="420" y="200" width="6" height="0" stroke="black" stroke-width="1" fill="blue" opacity="1" tooltip="enable"><title>(0.0868375,0)</title></rect><rect x="426" y="200" width="6" height="0" stroke="black" stroke-width="1" fill="blue" opacity="1" tooltip="enable"><title>(0.088078,0)</title></rect><rect x="432" y="199.249" width="6" height="0.751409" stroke="black" stroke-width="1" fill="blue" opacity="1" tooltip="enable"><title>(0.0893186,6)</title></rect><rect x="438" y="199.499" width="6" height="0.500939" stroke="black" stroke-width="1" fill="blue" opacity="1" tooltip="enable"><title>(0.0905591,4)</title></rect><rect x="444" y="199.75" width="6" height="0.25047" stroke="black" stroke-width="1" fill="blue" opacity="1" tooltip="enable"><title>(0.0917997,2)</title></rect><rect x="450" y="199.75" width="6" height="0.25047" stroke="black" stroke-width="1" fill="blue" opacity="1" tooltip="enable"><title>(0.0930402,2)</title></rect><rect x="456" y="200" width="6" height="0" stroke="black" stroke-width="1" fill="blue" opacity="1" tooltip="enable"><title>(0.0942807,0)</title></rect><rect x="462" y="198.497" width="6" height="1.50282" stroke="black" stroke-width="1" fill="blue" opacity="1" tooltip="enable"><title>(0.0955213,12)</title></rect><rect x="468" y="199.499" width="6" height="0.500939" stroke="black" stroke-width="1" fill="blue" opacity="1" tooltip="enable"><title>(0.0967618,4)</title></rect><rect x="474" y="200" width="6" height="0" stroke="black" stroke-width="1" fill="blue" opacity="1" tooltip="enable"><title>(0.0980023,0)</title></rect><rect x="480" y="200" width="6" height="0" stroke="black" stroke-width="1" fill="blue" opacity="1" tooltip="enable"><title>(0.0992429,0)</title></rect><rect x="486" y="199.499" width="6" height="0.500939" stroke="black" stroke-width="1" fill="blue" opacity="1" tooltip="enable"><title>(0.100483,4)</title></rect><rect x="492" y="199.875" width="6" height="0.125235" stroke="black" stroke-width="1" fill="blue" opacity="1" tooltip="enable"><title>(0.101724,1)</title></rect><rect x="498" y="199.374" width="6" height="0.626174" stroke="black" stroke-width="1" fill="blue" opacity="1" tooltip="enable"><title>(0.102964,5)</title></rect><rect x="504" y="199.875" width="6" height="0.125235" stroke="black" stroke-width="1" fill="blue" opacity="1" tooltip="enable"><title>(0.104205,1)</title></rect><rect x="510" y="199.875" width="6" height="0.125235" stroke="black" stroke-width="1" fill="blue" opacity="1" tooltip="enable"><title>(0.105446,1)</title></rect><rect x="516" y="199.75" width="6" height="0.25047" stroke="black" stroke-width="1" fill="blue" opacity="1" tooltip="enable"><title>(0.106686,2)</title></rect><rect x="522" y="199.75" width="6" height="0.25047" stroke="black" stroke-width="1" fill="blue" opacity="1" tooltip="enable"><title>(0.107927,2)</title></rect><rect x="528" y="199.499" width="6" height="0.500939" stroke="black" stroke-width="1" fill="blue" opacity="1" tooltip="enable"><title>(0.109167,4)</title></rect><rect x="534" y="199.75" width="6" height="0.25047" stroke="black" stroke-width="1" fill="blue" opacity="1" tooltip="enable"><title>(0.110408,2)</title></rect><rect x="540" y="199.499" width="6" height="0.500939" stroke="black" stroke-width="1" fill="blue" opacity="1" tooltip="enable"><title>(0.111648,4)</title></rect><rect x="546" y="199.75" width="6" height="0.25047" stroke="black" stroke-width="1" fill="blue" opacity="1" tooltip="enable"><title>(0.112889,2)</title></rect><rect x="552" y="200" width="6" height="0" stroke="black" stroke-width="1" fill="blue" opacity="1" tooltip="enable"><title>(0.114129,0)</title></rect><rect x="558" y="199.75" width="6" height="0.25047" stroke="black" stroke-width="1" fill="blue" opacity="1" tooltip="enable"><title>(0.11537,2)</title></rect><rect x="564" y="200" width="6" height="0" stroke="black" stroke-width="1" fill="blue" opacity="1" tooltip="enable"><title>(0.11661,0)</title></rect><rect x="570" y="200" width="6" height="0" stroke="black" stroke-width="1" fill="blue" opacity="1" tooltip="enable"><title>(0.117851,0)</title></rect><rect x="576" y="200" width="6" height="0" stroke="black" stroke-width="1" fill="blue" opacity="1" tooltip="enable"><title>(0.119091,0)</title></rect><rect x="582" y="200" width="6" height="0" stroke="black" stroke-width="1" fill="blue" opacity="1" tooltip="enable"><title>(0.120332,0)</title></rect><rect x="588" y="200" width="6" height="0" stroke="black" stroke-width="1" fill="blue" opacity="1" tooltip="enable"><title>(0.121573,0)</title></rect><rect x="594" y="199.624" width="6" height="0.375704" stroke="black" stroke-width="1" fill="blue" opacity="1" tooltip="enable"><title>(0.122813,3)</title></rect><text x="30" y="240" font-size="20" fill="black">0</text>
<text x="600" y="240" font-size="20" fill="black">0.124054</text>
<polyline points="0,220,600,220" stroke="black" stroke-width="1" fill="none" opacity="1"/>
<text x="720" y="20" font-size="20" fill="black">1597</text>
<text x="720" y="200" font-size="20" fill="black">0</text>
<polyline points="660,0,660,200" stroke="black" stroke-width="1" fill="none" opacity="1"/>
</svg>