<?xml version="1.0" standalone="yes"?>
<!-- SVG graphic -->
<svg xmlns='http://www.w3.org/2000/svg' xmlns:xlink='http://www.w3.org/1999/xlink'
 version="1.1">
<rect x="0" y="0" width="6" height="200" stroke="black" stroke-width="1" fill="blue" opacity="1" tooltip="enable"><title>(0,1690)</title></rect><rect x="6" y="50.8876" width="6" height="149.112" stroke="black" stroke-width="1" fill="blue" opacity="1" tooltip="enable"><title>(0.000995004,1260)</title></rect><rect x="12" y="102.485" width="6" height="97.5148" stroke="black" stroke-width="1" fill="blue" opacity="1" tooltip="enable"><title>(0.00199001,824)</title></rect><rect x="18" y="141.657" width="6" height="58.3432" stroke="black" stroke-width="1" fill="blue" opacity="1" tooltip="enable"><title>(0.00298501,493)</title></rect><rect x="24" y="172.663" width="6" height="27.3373" stroke="black" stroke-width="1" fill="blue" opacity="1" tooltip="enable"><title>(0.00398002,231)</title></rect><rect x="30" y="186.154" width="6" height="13.8462" stroke="black" stroke-width="1" fill="blue" opacity="1" tooltip="enable"><title>(0.00497502,117)</title></rect><rect x="36" y="188.166" width="6" height="11.8343" stroke="black" stroke-width="1" fill="blue" opacity="1" tooltip="enable"><title>(0.00597002,100)</title></rect><rect x="42" y="186.154" width="6" height="13.8462" stroke="black" stroke-width="1" fill="blue" opacity="1" tooltip="enable"><title>(0.00696503,117)</title></rect><rect x="48" y="185.68" width="6" height="14.3195" stroke="black" stroke-width="1" fill="blue" opacity="1" tooltip="enable"><title>(0.00796003,121)</title></rect><rect x="54" y="190.178" width="6" height="9.82248" stroke="black" stroke-width="1" fill="blue" opacity="1" tooltip="enable"><title>(0.00895504,83)</title></rect><rect x="60" y="187.219" width="6" height="12.7811" stroke="black" stroke-width="1" fill="blue" opacity="1" tooltip="enable"><title>(0.00995004,108)</title></rect><rect x="66" y="187.456" width="6" height="12.5444" stroke="black" stroke-width="1" fill="blue" opacity="1" tooltip="enable"><title>(0.010945,106)</title></rect><rect x="72" y="186.982" width="6" height="13.0178" stroke="black" stroke-width="1" fill="blue" opacity="1" tooltip="enable"><title>(0.01194,110)</title></rect><rect x="78" y="187.219" width="6" height="12.7811" stroke="black" stroke-width="1" fill="blue" opacity="1" tooltip="enable"><title>(0.0129351,108)</title></rect><rect x="84" y="187.929" width="6" height="12.071" stroke="black" stroke-width="1" fill="blue" opacity="1" tooltip="enable"><title>(0.0139301,102)</title></rect><rect x="90" y="189.822" width="6" height="10.1775" stroke="black" stroke-width="1" fill="blue" opacity="1" tooltip="enable"><title>(0.0149251,86)</title></rect><rect x="96" y="188.521" width="6" height="11.4793" stroke="black" stroke-width="1" fill="blue" opacity="1" tooltip="enable"><title>(0.0159201,97)</title></rect><rect x="102" y="188.402" width="6" height="11.5976" stroke="black" stroke-width="1" fill="blue" opacity="1" tooltip="enable"><title>(0.0169151,98)</title></rect><rect x="108" y="189.231" width="6" height="10.7692" stroke="black" stroke-width="1" fill="blue" opacity="1" tooltip="enable"><title>(0.0179101,91)</title></rect><rect x="114" y="188.047" width="6" height="11.9527" stroke="black" stroke-width="1" fill="blue" opacity="1" tooltip="enable"><title>(0.0189051,101)</title></rect><rect x="120" y="190.414" width="6" height="9.5858" stroke="black" stroke-width="1" fill="blue" opacity="1" tooltip="enable"><title>(0.0199001,81)</title></rect><rect x="126" y="186.982" width="6" height="13.0178" stroke="black" stroke-width="1" fill="blue" opacity="1" tooltip="enable"><title>(0.0208951,110)</title></rect><rect x="132" y="192.071" width="6" height="7.92899" stroke="black" stroke-width="1" fill="blue" opacity="1" tooltip="enable"><title>(0.0218901,67)</title></rect><rect x="138" y="190.533" width="6" height="9.46746" stroke="black" stroke-width="1" fill="blue" opacity="1" tooltip="enable"><title>(0.0228851,80)</title></rect><rect x="144" y="193.136" width="6" height="6.86391" stroke="black" stroke-width="1" fill="blue" opacity="1" tooltip="enable"><title>(0.0238801,58)</title></rect><rect x="150" y="192.071" width="6" height="7.92899" stroke="black" stroke-width="1" fill="blue" opacity="1" tooltip="enable"><title>(0.0248751,67)</title></rect><rect x="156" y="190.296" width="6" height="9.70414" stroke="black" stroke-width="1" fill="blue" opacity="1" tooltip="enable"><title>(0.0258701,82)</title></rect><rect x="162" y="191.243" width="6" height="8.7574" stroke="black" stroke-width="1" fill="blue" opacity="1" tooltip="enable"><title>(0.0268651,74)</title></rect><rect x="168" y="193.136" width="6" height="6.86391" stroke="black" stroke-width="1" fill="blue" opacity="1" tooltip="enable"><title>(0.0278601,58)</title></rect><rect x="174" y="193.964" width="6" height="6.0355" stroke="black" stroke-width="1" fill="blue" opacity="1" tooltip="enable"><title>(0.0288551,51)</title></rect><rect x="180" y="192.544" width="6" height="7.45562" stroke="black" stroke-width="1" fill="blue" opacity="1" tooltip="enable"><title>(0.0298501,63)</title></rect><rect x="186" y="191.716" width="6" height="8.28402" stroke="black" stroke-width="1" fill="blue" opacity="1" tooltip="enable"><title>(0.0308451,70)</title></rect><rect x="192" y="193.846" width="6" height="6.15385" stroke="black" stroke-width="1" fill="blue" opacity="1" tooltip="enable"><title>(0.0318401,52)</title></rect><rect x="198" y="195.148" width="6" height="4.85207" stroke="black" stroke-width="1" fill="blue" opacity="1" tooltip="enable"><title>(0.0328351,41)</title></rect><rect x="204" y="193.018" width="6" height="6.98225" stroke="black" stroke-width="1" fill="blue" opacity="1" tooltip="enable"><title>(0.0338301,59)</title></rect><rect x="210" y="194.556" width="6" height="5.44379" stroke="black" stroke-width="1" fill="blue" opacity="1" tooltip="enable"><title>(0.0348251,46)</title></rect><rect x="216" y="193.491" width="6" height="6.50888" stroke="black" stroke-width="1" fill="blue" opacity="1" tooltip="enable"><title>(0.0358201,55)</title></rect><rect x="222" y="194.675" width="6" height="5.32544" stroke="black" stroke-width="1" fill="blue" opacity="1" tooltip="enable"><title>(0.0368151,45)</title></rect><rect x="228" y="192.781" width="6" height="7.21894" stroke="black" stroke-width="1" fill="blue" opacity="1" tooltip="enable"><title>(0.0378102,61)</title></rect><rect x="234" y="192.781" width="6" height="7.21894" stroke="black" stroke-width="1" fill="blue" opacity="1" tooltip="enable"><title>(0.0388052,61)</title></rect><rect x="240" y="195.266" width="6" height="4.73373" stroke="black" stroke-width="1" fill="blue" opacity="1" tooltip="enable"><title>(0.0398002,40)</title></rect><rect x="246" y="195.74" width="6" height="4.26035" stroke="black" stroke-width="1" fill="blue" opacity="1" tooltip="enable"><title>(0.0407952,36)</title></rect><rect x="252" y="194.32" width="6" height="5.68047" stroke="black" stroke-width="1" fill="blue" opacity="1" tooltip="enable"><title>(0.0417902,48)</title></rect><rect x="258" y="195.503" width="6" height="4.49704" stroke="black" stroke-width="1" fill="blue" opacity="1" tooltip="enable"><title>(0.0427852,38)</title></rect><rect x="264" y="196.45" width="6" height="3.5503" stroke="black" stroke-width="1" fill="blue" opacity="1" tooltip="enable"><title>(0.0437802,30)</title></rect><rect x="270" y="194.201" width="6" height="5.79882" stroke="black" stroke-width="1" fill="blue" opacity="1" tooltip="enable"><title>(0.0447752,49)</title></rect><rect x="276" y="197.041" width="6" height="2.95858" stroke="black" stroke-width="1" fill="blue" opacity="1" tooltip="enable"><title>(0.0457702,25)</title></rect><rect x="282" y="196.923" width="6" height="3.07692" stroke="black" stroke-width="1" fill="blue" opacity="1" tooltip="enable"><title>(0.0467652,26)</title></rect><rect x="288" y="198.107" width="6" height="1.89349" stroke="black" stroke-width="1" fill="blue" opacity="1" tooltip="enable"><title>(0.0477602,16)</title></rect><rect x="294" y="195.976" width="6" height="4.02367" stroke="black" stroke-width="1" fill="blue" opacity="1" tooltip="enable"><title>(0.0487552,34)</title></rect><rect x="300" y="196.568" width="6" height="3.43195" stroke="black" stroke-width="1" fill="blue" opacity="1" tooltip="enable"><title>(0.0497502,29)</title></rect><rect x="306" y="198.225" width="6" height="1.77515" stroke="black" stroke-width="1" fill="blue" opacity="1" tooltip="enable"><title>(0.0507452,15)</title></rect><rect x="312" y="197.87" width="6" height="2.13018" stroke="black" stroke-width="1" fill="blue" opacity="1" tooltip="enable"><title>(0.0517402,18)</title></rect><rect x="318" y="197.278" width="6" height="2.72189" stroke="black" stroke-width="1" fill="blue" opacity="1" tooltip="enable"><title>(0.0527352,23)</title></rect><rect x="324" y="197.515" width="6" height="2.48521" stroke="black" stroke-width="1" fill="blue" opacity="1" tooltip="enable"><title>(0.0537302,21)</title></rect><rect x="330" y="197.87" width="6" height="2.13018" stroke="black" stroke-width="1" fill="blue" opacity="1" tooltip="enable"><title>(0.0547252,18)</title></rect><rect x="336" y="197.16" width="6" height="2.84024" stroke="black" stroke-width="1" fill="blue" opacity="1" tooltip="enable"><title>(0.0557202,24)</title></rect><rect x="342" y="197.87" width="6" height="2.13018" stroke="black" stroke-width="1" fill="blue" opacity="1" tooltip="enable"><title>(0.0567152,18)</title></rect><rect x="348" y="198.343" width="6" height="1.6568" stroke="black" stroke-width="1" fill="blue" opacity="1" tooltip="enable"><title>(0.0577102,14)</title></rect><rect x="354" y="198.935" width="6" height="1.06509" stroke="black" stroke-width="1" fill="blue" opacity="1" tooltip="enable"><title>(0.0587052,9)</title></rect><rect x="360" y="198.462" width="6" height="1.53846" stroke="black" stroke-width="1" fill="blue" opacity="1" tooltip="enable"><title>(0.0597002,13)</title></rect><rect x="366" y="198.58" width="6" height="1.42012" stroke="black" stroke-width="1" fill="blue" opacity="1" tooltip="enable"><title>(0.0606952,12)</title></rect><rect x="372" y="198.58" width="6" height="1.42012" stroke="black" stroke-width="1" fill="blue" opacity="1" tooltip="enable"><title>(0.0616902,12)</title></rect><rect x="378" y="198.817" width="6" height="1.18343" stroke="black" stroke-width="1" fill="blue" opacity="1" tooltip="enable"><title>(0.0626853,10)</title></rect><rect x="384" y="199.645" width="6" height="0.35503" stroke="black" stroke-width="1" fill="blue" opacity="1" tooltip="enable"><title>(0.0636803,3)</title></rect><rect x="390" y="198.462" width="6" height="1.53846" stroke="black" stroke-width="1" fill="blue" opacity="1" tooltip="enable"><title>(0.0646753,13)</title></rect><rect x="396" y="198.817" width="6" height="1.18343" stroke="black" stroke-width="1" fill="blue" opacity="1" tooltip="enable"><title>(0.0656703,10)</title></rect><rect x="402" y="199.29" width="6" height="0.710059" stroke="black" stroke-width="1" fill="blue" opacity="1" tooltip="enable"><title>(0.0666653,6)</title></rect><rect x="408" y="199.527" width="6" height="0.473373" stroke="black" stroke-width="1" fill="blue" opacity="1" tooltip="enable"><title>(0.0676603,4)</title></rect><rect x="414" y="199.527" width="6" height="0.473373" stroke="black" stroke-width="1" fill="blue" opacity="1" tooltip="enable"><title>(0.0686553,4)</title></rect><rect x="420" y="198.343" width="6" height="1.6568" stroke="black" stroke-width="1" fill="blue" opacity="1" tooltip="enable"><title>(0.0696503,14)</title></rect><rect x="426" y="199.763" width="6" height="0.236686" stroke="black" stroke-width="1" fill="blue" opacity="1" tooltip="enable"><title>(0.0706453,2)</title></rect><rect x="432" y="200" width="6" height="0" stroke="black" stroke-width="1" fill="blue" opacity="1" tooltip="enable"><title>(0.0716403,0)</title></rect><rect x="438" y="200" width="6" height="0" stroke="black" stroke-width="1" fill="blue" opacity="1" tooltip="enable"><title>(0.0726353,0)</title></rect><rect x="444" y="200" width="6" height="0" stroke="black" stroke-width="1" fill="blue" opacity="1" tooltip="enable"><title>(0.0736303,0)</title></rect><rect x="450" y="200" width="6" height="0" stroke="black" stroke-width="1" fill="blue" opacity="1" tooltip="enable"><title>(0.0746253,0)</title></rect><rect x="456" y="200" width="6" height="0" stroke="black" stroke-width="1" fill="blue" opacity="1" tooltip="enable"><title>(0.0756203,0)</title></rect><rect x="462" y="199.053" width="6" height="0.946746" stroke="black" stroke-width="1" fill="blue" opacity="1" tooltip="enable"><title>(0.0766153,8)</title></rect><rect x="468" y="199.763" width="6" height="0.236686" stroke="black" stroke-width="1" fill="blue" opacity="1" tooltip="enable"><title>(0.0776103,2)</title></rect><rect x="474" y="199.645" width="6" height="0.35503" stroke="black" stroke-width="1" fill="blue" opacity="1" tooltip="enable"><title>(0.0786053,3)</title></rect><rect x="480" y="199.408" width="6" height="0.591716" stroke="black" stroke-width="1" fill="blue" opacity="1" tooltip="enable"><title>(0.0796003,5)</title></rect><rect x="486" y="199.763" width="6" height="0.236686" stroke="black" stroke-width="1" fill="blue" opacity="1" tooltip="enable"><title>(0.0805953,2)</title></rect><rect x="492" y="200" width="6" height="0" stroke="black" stroke-width="1" fill="blue" opacity="1" tooltip="enable"><title>(0.0815903,0)</title></rect><rect x="498" y="199.527" width="6" height="0.473373" stroke="black" stroke-width="1" fill="blue" opacity="1" tooltip="enable"><title>(0.0825853,4)</title></rect><rect x="504" y="200" width="6" height="0" stroke="black" stroke-width="1" fill="blue" opacity="1" tooltip="enable"><title>(0.0835803,0)</title></rect><rect x="510" y="200" width="6" height="0" stroke="black" stroke-width="1" fill="blue" opacity="1" tooltip="enable"><title>(0.0845753,0)</title></rect><rect x="516" y="199.763" width="6" height="0.236686" stroke="black" stroke-width="1" fill="blue" opacity="1" tooltip="enable"><title>(0.0855704,2)</title></rect><rect x="522" y="199.763" width="6" height="0.236686" stroke="black" stroke-width="1" fill="blue" opacity="1" tooltip="enable"><title>(0.0865654,2)</title></rect><rect x="528" y="200" width="6" height="0" stroke="black" stroke-width="1" fill="blue" opacity="1" tooltip="enable"><title>(0.0875604,0)</title></rect><rect x="534" y="200" width="6" height="0" stroke="black" stroke-width="1" fill="blue" opacity="1" tooltip="enable"><title>(0.0885554,0)</title></rect><rect x="540" y="200" width="6" height="0" stroke="black" stroke-width="1" fill="blue" opacity="1" tooltip="enable"><title>(0.0895504,0)</title></rect><rect x="546" y="200" width="6" height="0" stroke="black" stroke-width="1" fill="blue" opacity="1" tooltip="enable"><title>(0.0905454,0)</title></rect><rect x="552" y="200" width="6" height="0" stroke="black" stroke-width="1" fill="blue" opacity="1" tooltip="enable"><title>(0.0915404,0)</title></rect><rect x="558" y="199.408" width="6" height="0.591716" stroke="black" stroke-width="1" fill="blue" opacity="1" tooltip="enable"><title>(0.0925354,5)</title></rect><rect x="564" y="199.882" width="6" height="0.118343" stroke="black" stroke-width="1" fill="blue" opacity="1" tooltip="enable"><title>(0.0935304,1)</title></rect><rect x="570" y="199.763" width="6" height="0.236686" stroke="black" stroke-width="1" fill="blue" opacity="1" tooltip="enable"><title>(0.0945254,2)</title></rect><rect x="576" y="199.763" width="6" height="0.236686" stroke="black" stroke-width="1" fill="blue" opacity="1" tooltip="enable"><title>(0.0955204,2)</title></rect><rect x="582" y="200" width="6" height="0" stroke="black" stroke-width="1" fill="blue" opacity="1" tooltip="enable"><title>(0.0965154,0)</title></rect><rect x="588" y="200" width="6" height="0" stroke="black" stroke-width="1" fill="blue" opacity="1" tooltip="enable"><title>(0.0975104,0)</title></rect><rect x="594" y="199.645" width="6" height="0.35503" stroke="black" stroke-width="1" fill="blue" opacity="1" tooltip="enable"><title>(0.0985054,3)</title></rect><text x="30" y="240" font-size="20" fill="black">0</text>
<text x="600" y="240" font-size="20" fill="black">0.0995004</text>
<polyline points="0,220,600,220" stroke="black" stroke-width="1" fill="none" opacity="1"/>
<text x="720" y="20" font-size="20" fill="black">1690</text>
<text x="720" y="200" font-size="20" fill="black">0</text>
<polyline points="660,0,660,200" stroke="black" stroke-width="1" fill="none" opacity="1"/>
</svg>