<?xml version="1.0" standalone="yes"?>
<!-- SVG graphic -->
<svg xmlns='http://www.w3.org/2000/svg' xmlns:xlink='http://www.w3.org/1999/xlink'
 version="1.1">
<rect x="0" y="1.52588e-05" width="6" height="200" stroke="black" stroke-width="1" fill="blue" opacity="1" tooltip="enable"><title>(0,1394)</title></rect><rect x="6" y="17.6471" width="6" height="182.353" stroke="black" stroke-width="1" fill="blue" opacity="1" tooltip="enable"><title>(0.00126066,1271)</title></rect><rect x="12" y="72.5968" width="6" height="127.403" stroke="black" stroke-width="1" fill="blue" opacity="1" tooltip="enable"><title>(0.00252132,888)</title></rect><rect x="18" y="123.816" width="6" height="76.1836" stroke="black" stroke-width="1" fill="blue" opacity="1" tooltip="enable"><title>(0.00378198,531)</title></rect><rect x="24" y="155.093" width="6" height="44.9067" stroke="black" stroke-width="1" fill="blue" opacity="1" tooltip="enable"><title>(0.00504264,313)</title></rect><rect x="30" y="159.828" width="6" height="40.1722" stroke="black" stroke-width="1" fill="blue" opacity="1" tooltip="enable"><title>(0.0063033,280)</title></rect><rect x="36" y="164.849" width="6" height="35.1506" stroke="black" stroke-width="1" fill="blue" opacity="1" tooltip="enable"><title>(0.00756395,245)</title></rect><rect x="42" y="178.192" width="6" height="21.8077" stroke="black" stroke-width="1" fill="blue" opacity="1" tooltip="enable"><title>(0.00882461,152)</title></rect><rect x="48" y="179.34" width="6" height="20.66" stroke="black" stroke-width="1" fill="blue" opacity="1" tooltip="enable"><title>(0.0100853,144)</title></rect><rect x="54" y="182.64" width="6" height="17.3601" stroke="black" stroke-width="1" fill="blue" opacity="1" tooltip="enable"><title>(0.0113459,121)</title></rect><rect x="60" y="179.77" width="6" height="20.2296" stroke="black" stroke-width="1" fill="blue" opacity="1" tooltip="enable"><title>(0.0126066,141)</title></rect><rect x="66" y="177.044" width="6" height="22.9555" stroke="black" stroke-width="1" fill="blue" opacity="1" tooltip="enable"><title>(0.0138672,160)</title></rect><rect x="72" y="177.475" width="6" height="22.5251" stroke="black" stroke-width="1" fill="blue" opacity="1" tooltip="enable"><title>(0.0151279,157)</title></rect><rect x="78" y="181.779" width="6" height="18.2209" stroke="black" stroke-width="1" fill="blue" opacity="1" tooltip="enable"><title>(0.0163886,127)</title></rect><rect x="84" y="182.64" width="6" height="17.3601" stroke="black" stroke-width="1" fill="blue" opacity="1" tooltip="enable"><title>(0.0176492,121)</title></rect><rect x="90" y="180.631" width="6" height="19.3687" stroke="black" stroke-width="1" fill="blue" opacity="1" tooltip="enable"><title>(0.0189099,135)</title></rect><rect x="96" y="186.514" width="6" height="13.4864" stroke="black" stroke-width="1" fill="blue" opacity="1" tooltip="enable"><title>(0.0201705,94)</title></rect><rect x="102" y="187.088" width="6" height="12.9125" stroke="black" stroke-width="1" fill="blue" opacity="1" tooltip="enable"><title>(0.0214312,90)</title></rect><rect x="108" y="187.231" width="6" height="12.769" stroke="black" stroke-width="1" fill="blue" opacity="1" tooltip="enable"><title>(0.0226919,89)</title></rect><rect x="114" y="185.509" width="6" height="14.4907" stroke="black" stroke-width="1" fill="blue" opacity="1" tooltip="enable"><title>(0.0239525,101)</title></rect><rect x="120" y="184.505" width="6" height="15.495" stroke="black" stroke-width="1" fill="blue" opacity="1" tooltip="enable"><title>(0.0252132,108)</title></rect><rect x="126" y="187.374" width="6" height="12.6255" stroke="black" stroke-width="1" fill="blue" opacity="1" tooltip="enable"><title>(0.0264738,88)</title></rect><rect x="132" y="187.088" width="6" height="12.9125" stroke="black" stroke-width="1" fill="blue" opacity="1" tooltip="enable"><title>(0.0277345,90)</title></rect><rect x="138" y="188.235" width="6" height="11.7647" stroke="black" stroke-width="1" fill="blue" opacity="1" tooltip="enable"><title>(0.0289952,82)</title></rect><rect x="144" y="188.235" width="6" height="11.7647" stroke="black" stroke-width="1" fill="blue" opacity="1" tooltip="enable"><title>(0.0302558,82)</title></rect><rect x="150" y="193.113" width="6" height="6.88666" stroke="black" stroke-width="1" fill="blue" opacity="1" tooltip="enable"><title>(0.0315165,48)</title></rect><rect x="156" y="190.961" width="6" height="9.03874" stroke="black" stroke-width="1" fill="blue" opacity="1" tooltip="enable"><title>(0.0327771,63)</title></rect><rect x="162" y="188.666" width="6" height="11.3343" stroke="black" stroke-width="1" fill="blue" opacity="1" tooltip="enable"><title>(0.0340378,79)</title></rect><rect x="168" y="191.105" width="6" height="8.89526" stroke="black" stroke-width="1" fill="blue" opacity="1" tooltip="enable"><title>(0.0352985,62)</title></rect><rect x="174" y="194.692" width="6" height="5.30846" stroke="black" stroke-width="1" fill="blue" opacity="1" tooltip="enable"><title>(0.0365591,37)</title></rect><rect x="180" y="193.831" width="6" height="6.1693" stroke="black" stroke-width="1" fill="blue" opacity="1" tooltip="enable"><title>(0.0378198,43)</title></rect><rect x="186" y="192.97" width="6" height="7.03013" stroke="black" stroke-width="1" fill="blue" opacity="1" tooltip="enable"><title>(0.0390804,49)</title></rect><rect x="192" y="196.126" width="6" height="3.87374" stroke="black" stroke-width="1" fill="blue" opacity="1" tooltip="enable"><title>(0.0403411,27)</title></rect><rect x="198" y="192.97" width="6" height="7.03013" stroke="black" stroke-width="1" fill="blue" opacity="1" tooltip="enable"><title>(0.0416018,49)</title></rect><rect x="204" y="197.561" width="6" height="2.43902" stroke="black" stroke-width="1" fill="blue" opacity="1" tooltip="enable"><title>(0.0428624,17)</title></rect><rect x="210" y="196.844" width="6" height="3.15638" stroke="black" stroke-width="1" fill="blue" opacity="1" tooltip="enable"><title>(0.0441231,22)</title></rect><rect x="216" y="195.409" width="6" height="4.5911" stroke="black" stroke-width="1" fill="blue" opacity="1" tooltip="enable"><title>(0.0453837,32)</title></rect><rect x="222" y="196.987" width="6" height="3.01291" stroke="black" stroke-width="1" fill="blue" opacity="1" tooltip="enable"><title>(0.0466444,21)</title></rect><rect x="228" y="196.557" width="6" height="3.44333" stroke="black" stroke-width="1" fill="blue" opacity="1" tooltip="enable"><title>(0.047905,24)</title></rect><rect x="234" y="196.413" width="6" height="3.5868" stroke="black" stroke-width="1" fill="blue" opacity="1" tooltip="enable"><title>(0.0491657,25)</title></rect><rect x="240" y="197.131" width="6" height="2.86944" stroke="black" stroke-width="1" fill="blue" opacity="1" tooltip="enable"><title>(0.0504264,20)</title></rect><rect x="246" y="199.139" width="6" height="0.860832" stroke="black" stroke-width="1" fill="blue" opacity="1" tooltip="enable"><title>(0.051687,6)</title></rect><rect x="252" y="197.704" width="6" height="2.29555" stroke="black" stroke-width="1" fill="blue" opacity="1" tooltip="enable"><title>(0.0529477,16)</title></rect><rect x="258" y="196.27" width="6" height="3.73027" stroke="black" stroke-width="1" fill="blue" opacity="1" tooltip="enable"><title>(0.0542083,26)</title></rect><rect x="264" y="198.278" width="6" height="1.72166" stroke="black" stroke-width="1" fill="blue" opacity="1" tooltip="enable"><title>(0.055469,12)</title></rect><rect x="270" y="197.991" width="6" height="2.00861" stroke="black" stroke-width="1" fill="blue" opacity="1" tooltip="enable"><title>(0.0567297,14)</title></rect><rect x="276" y="197.131" width="6" height="2.86944" stroke="black" stroke-width="1" fill="blue" opacity="1" tooltip="enable"><title>(0.0579903,20)</title></rect><rect x="282" y="196.557" width="6" height="3.44333" stroke="black" stroke-width="1" fill="blue" opacity="1" tooltip="enable"><title>(0.059251,24)</title></rect><rect x="288" y="198.565" width="6" height="1.43472" stroke="black" stroke-width="1" fill="blue" opacity="1" tooltip="enable"><title>(0.0605116,10)</title></rect><rect x="294" y="197.418" width="6" height="2.5825" stroke="black" stroke-width="1" fill="blue" opacity="1" tooltip="enable"><title>(0.0617723,18)</title></rect><rect x="300" y="198.852" width="6" height="1.14778" stroke="black" stroke-width="1" fill="blue" opacity="1" tooltip="enable"><title>(0.063033,8)</title></rect><rect x="306" y="197.418" width="6" height="2.5825" stroke="black" stroke-width="1" fill="blue" opacity="1" tooltip="enable"><title>(0.0642936,18)</title></rect><rect x="312" y="198.278" width="6" height="1.72166" stroke="black" stroke-width="1" fill="blue" opacity="1" tooltip="enable"><title>(0.0655543,12)</title></rect><rect x="318" y="197.418" width="6" height="2.5825" stroke="black" stroke-width="1" fill="blue" opacity="1" tooltip="enable"><title>(0.0668149,18)</title></rect><rect x="324" y="197.131" width="6" height="2.86944" stroke="black" stroke-width="1" fill="blue" opacity="1" tooltip="enable"><title>(0.0680756,20)</title></rect><rect x="330" y="197.991" width="6" height="2.00861" stroke="black" stroke-width="1" fill="blue" opacity="1" tooltip="enable"><title>(0.0693363,14)</title></rect><rect x="336" y="197.704" width="6" height="2.29555" stroke="black" stroke-width="1" fill="blue" opacity="1" tooltip="enable"><title>(0.0705969,16)</title></rect><rect x="342" y="196.844" width="6" height="3.15638" stroke="black" stroke-width="1" fill="blue" opacity="1" tooltip="enable"><title>(0.0718576,22)</title></rect><rect x="348" y="199.426" width="6" height="0.573888" stroke="black" stroke-width="1" fill="blue" opacity="1" tooltip="enable"><title>(0.0731182,4)</title></rect><rect x="354" y="199.139" width="6" height="0.860832" stroke="black" stroke-width="1" fill="blue" opacity="1" tooltip="enable"><title>(0.0743789,6)</title></rect><rect x="360" y="197.704" width="6" height="2.29555" stroke="black" stroke-width="1" fill="blue" opacity="1" tooltip="enable"><title>(0.0756395,16)</title></rect><rect x="366" y="198.278" width="6" height="1.72166" stroke="black" stroke-width="1" fill="blue" opacity="1" tooltip="enable"><title>(0.0769002,12)</title></rect><rect x="372" y="199.139" width="6" height="0.860832" stroke="black" stroke-width="1" fill="blue" opacity="1" tooltip="enable"><title>(0.0781609,6)</title></rect><rect x="378" y="199.139" width="6" height="0.860832" stroke="black" stroke-width="1" fill="blue" opacity="1" tooltip="enable"><title>(0.0794215,6)</title></rect><rect x="384" y="199.139" width="6" height="0.860832" stroke="black" stroke-width="1" fill="blue" opacity="1" tooltip="enable"><title>(0.0806822,6)</title></rect><rect x="390" y="199.713" width="6" height="0.286944" stroke="black" stroke-width="1" fill="blue" opacity="1" tooltip="enable"><title>(0.0819428,2)</title></rect><rect x="396" y="199.426" width="6" height="0.573888" stroke="black" stroke-width="1" fill="blue" opacity="1" tooltip="enable"><title>(0.0832035,4)</title></rect><rect x="402" y="199.713" width="6" height="0.286944" stroke="black" stroke-width="1" fill="blue" opacity="1" tooltip="enable"><title>(0.0844642,2)</title></rect><rect x="408" y="198.852" width="6" height="1.14778" stroke="black" stroke-width="1" fill="blue" opacity="1" tooltip="enable"><title>(0.0857248,8)</title></rect><rect x="414" y="200" width="6" height="0" stroke="black" stroke-width="1" fill="blue" opacity="1" tooltip="enable"><title>(0.0869855,0)</title></rect><rect x="420" y="199.426" width="6" height="0.573888" stroke="black" stroke-width="1" fill="blue" opacity="1" tooltip="enable"><title>(0.0882461,4)</title></rect><rect x="426" y="200" width="6" height="0" stroke="black" stroke-width="1" fill="blue" opacity="1" tooltip="enable"><title>(0.0895068,0)</title></rect><rect x="432" y="199.426" width="6" height="0.573888" stroke="black" stroke-width="1" fill="blue" opacity="1" tooltip="enable"><title>(0.0907675,4)</title></rect><rect x="438" y="199.426" width="6" height="0.573888" stroke="black" stroke-width="1" fill="blue" opacity="1" tooltip="enable"><title>(0.0920281,4)</title></rect><rect x="444" y="199.426" width="6" height="0.573888" stroke="black" stroke-width="1" fill="blue" opacity="1" tooltip="enable"><title>(0.0932888,4)</title></rect><rect x="450" y="200" width="6" height="0" stroke="black" stroke-width="1" fill="blue" opacity="1" tooltip="enable"><title>(0.0945494,0)</title></rect><rect x="456" y="200" width="6" height="0" stroke="black" stroke-width="1" fill="blue" opacity="1" tooltip="enable"><title>(0.0958101,0)</title></rect><rect x="462" y="200" width="6" height="0" stroke="black" stroke-width="1" fill="blue" opacity="1" tooltip="enable"><title>(0.0970707,0)</title></rect><rect x="468" y="199.713" width="6" height="0.286944" stroke="black" stroke-width="1" fill="blue" opacity="1" tooltip="enable"><title>(0.0983314,2)</title></rect><rect x="474" y="199.713" width="6" height="0.286944" stroke="black" stroke-width="1" fill="blue" opacity="1" tooltip="enable"><title>(0.0995921,2)</title></rect><rect x="480" y="200" width="6" height="0" stroke="black" stroke-width="1" fill="blue" opacity="1" tooltip="enable"><title>(0.100853,0)</title></rect><rect x="486" y="199.713" width="6" height="0.286944" stroke="black" stroke-width="1" fill="blue" opacity="1" tooltip="enable"><title>(0.102113,2)</title></rect><rect x="492" y="200" width="6" height="0" stroke="black" stroke-width="1" fill="blue" opacity="1" tooltip="enable"><title>(0.103374,0)</title></rect><rect x="498" y="200" width="6" height="0" stroke="black" stroke-width="1" fill="blue" opacity="1" tooltip="enable"><title>(0.104635,0)</title></rect><rect x="504" y="199.713" width="6" height="0.286944" stroke="black" stroke-width="1" fill="blue" opacity="1" tooltip="enable"><title>(0.105895,2)</title></rect><rect x="510" y="200" width="6" height="0" stroke="black" stroke-width="1" fill="blue" opacity="1" tooltip="enable"><title>(0.107156,0)</title></rect><rect x="516" y="200" width="6" height="0" stroke="black" stroke-width="1" fill="blue" opacity="1" tooltip="enable"><title>(0.108417,0)</title></rect><rect x="522" y="200" width="6" height="0" stroke="black" stroke-width="1" fill="blue" opacity="1" tooltip="enable"><title>(0.109677,0)</title></rect><rect x="528" y="200" width="6" height="0" stroke="black" stroke-width="1" fill="blue" opacity="1" tooltip="enable"><title>(0.110938,0)</title></rect><rect x="534" y="200" width="6" height="0" stroke="black" stroke-width="1" fill="blue" opacity="1" tooltip="enable"><title>(0.112199,0)</title></rect><rect x="540" y="200" width="6" height="0" stroke="black" stroke-width="1" fill="blue" opacity="1" tooltip="enable"><title>(0.113459,0)</title></rect><rect x="546" y="200" width="6" height="0" stroke="black" stroke-width="1" fill="blue" opacity="1" tooltip="enable"><title>(0.11472,0)</title></rect><rect x="552" y="200" width="6" height="0" stroke="black" stroke-width="1" fill="blue" opacity="1" tooltip="enable"><title>(0.115981,0)</title></rect><rect x="558" y="200" width="6" height="0" stroke="black" stroke-width="1" fill="blue" opacity="1" tooltip="enable"><title>(0.117241,0)</title></rect><rect x="564" y="199.713" width="6" height="0.286944" stroke="black" stroke-width="1" fill="blue" opacity="1" tooltip="enable"><title>(0.118502,2)</title></rect><rect x="570" y="200" width="6" height="0" stroke="black" stroke-width="1" fill="blue" opacity="1" tooltip="enable"><title>(0.119763,0)</title></rect><rect x="576" y="200" width="6" height="0" stroke="black" stroke-width="1" fill="blue" opacity="1" tooltip="enable"><title>(0.121023,0)</title></rect><rect x="582" y="199.426" width="6" height="0.573888" stroke="black" stroke-width="1" fill="blue" opacity="1" tooltip="enable"><title>(0.122284,4)</title></rect><rect x="588" y="200" width="6" height="0" stroke="black" stroke-width="1" fill="blue" opacity="1" tooltip="enable"><title>(0.123545,0)</title></rect><rect x="594" y="199.857" width="6" height="0.143472" stroke="black" stroke-width="1" fill="blue" opacity="1" tooltip="enable"><title>(0.124805,1)</title></rect><text x="30" y="240" font-size="20" fill="black">0</text>
<text x="600" y="240" font-size="20" fill="black">0.126066</text>
<polyline points="0,220,600,220" stroke="black" stroke-width="1" fill="none" opacity="1"/>
<text x="720" y="20" font-size="20" fill="black">1394</text>
<text x="720" y="200" font-size="20" fill="black">0</text>
<polyline points="660,0,660,200" stroke="black" stroke-width="1" fill="none" opacity="1"/>
</svg>