<?xml version="1.0" standalone="yes"?>
<!-- SVG graphic -->
<svg xmlns='http://www.w3.org/2000/svg' xmlns:xlink='http://www.w3.org/1999/xlink'
 version="1.1">
<rect x="0" y="0" width="6" height="200" stroke="black" stroke-width="1" fill="blue" opacity="1" tooltip="enable"><title>(0,4116)</title></rect><rect x="6" y="193.878" width="6" height="6.12245" stroke="black" stroke-width="1" fill="blue" opacity="1" tooltip="enable"><title>(0.0010404,126)</title></rect><rect x="12" y="194.752" width="6" height="5.24781" stroke="black" stroke-width="1" fill="blue" opacity="1" tooltip="enable"><title>(0.0020808,108)</title></rect><rect x="18" y="195.53" width="6" height="4.47036" stroke="black" stroke-width="1" fill="blue" opacity="1" tooltip="enable"><title>(0.00312119,92)</title></rect><rect x="24" y="194.947" width="6" height="5.05345" stroke="black" stroke-width="1" fill="blue" opacity="1" tooltip="enable"><title>(0.00416159,104)</title></rect><rect x="30" y="194.266" width="6" height="5.73372" stroke="black" stroke-width="1" fill="blue" opacity="1" tooltip="enable"><title>(0.00520199,118)</title></rect><rect x="36" y="194.606" width="6" height="5.39359" stroke="black" stroke-width="1" fill="blue" opacity="1" tooltip="enable"><title>(0.00624239,111)</title></rect><rect x="42" y="195.481" width="6" height="4.51895" stroke="black" stroke-width="1" fill="blue" opacity="1" tooltip="enable"><title>(0.00728278,93)</title></rect><rect x="48" y="196.064" width="6" height="3.93586" stroke="black" stroke-width="1" fill="blue" opacity="1" tooltip="enable"><title>(0.00832318,81)</title></rect><rect x="54" y="194.315" width="6" height="5.68513" stroke="black" stroke-width="1" fill="blue" opacity="1" tooltip="enable"><title>(0.00936358,117)</title></rect><rect x="60" y="194.169" width="6" height="5.8309" stroke="black" stroke-width="1" fill="blue" opacity="1" tooltip="enable"><title>(0.010404,120)</title></rect><rect x="66" y="193.878" width="6" height="6.12245" stroke="black" stroke-width="1" fill="blue" opacity="1" tooltip="enable"><title>(0.0114444,126)</title></rect><rect x="72" y="193.489" width="6" height="6.51118" stroke="black" stroke-width="1" fill="blue" opacity="1" tooltip="enable"><title>(0.0124848,134)</title></rect><rect x="78" y="193.878" width="6" height="6.12245" stroke="black" stroke-width="1" fill="blue" opacity="1" tooltip="enable"><title>(0.0135252,126)</title></rect><rect x="84" y="195.141" width="6" height="4.85909" stroke="black" stroke-width="1" fill="blue" opacity="1" tooltip="enable"><title>(0.0145656,100)</title></rect><rect x="90" y="194.752" width="6" height="5.24781" stroke="black" stroke-width="1" fill="blue" opacity="1" tooltip="enable"><title>(0.015606,108)</title></rect><rect x="96" y="194.509" width="6" height="5.49077" stroke="black" stroke-width="1" fill="blue" opacity="1" tooltip="enable"><title>(0.0166464,113)</title></rect><rect x="102" y="194.704" width="6" height="5.2964" stroke="black" stroke-width="1" fill="blue" opacity="1" tooltip="enable"><title>(0.0176868,109)</title></rect><rect x="108" y="195.627" width="6" height="4.37318" stroke="black" stroke-width="1" fill="blue" opacity="1" tooltip="enable"><title>(0.0187272,90)</title></rect><rect x="114" y="195.189" width="6" height="4.8105" stroke="black" stroke-width="1" fill="blue" opacity="1" tooltip="enable"><title>(0.0197676,99)</title></rect><rect x="120" y="195.092" width="6" height="4.90768" stroke="black" stroke-width="1" fill="blue" opacity="1" tooltip="enable"><title>(0.020808,101)</title></rect><rect x="126" y="194.412" width="6" height="5.58795" stroke="black" stroke-width="1" fill="blue" opacity="1" tooltip="enable"><title>(0.0218484,115)</title></rect><rect x="132" y="195.627" width="6" height="4.37318" stroke="black" stroke-width="1" fill="blue" opacity="1" tooltip="enable"><title>(0.0228887,90)</title></rect><rect x="138" y="195.675" width="6" height="4.32459" stroke="black" stroke-width="1" fill="blue" opacity="1" tooltip="enable"><title>(0.0239291,89)</title></rect><rect x="144" y="196.404" width="6" height="3.59572" stroke="black" stroke-width="1" fill="blue" opacity="1" tooltip="enable"><title>(0.0249695,74)</title></rect><rect x="150" y="196.064" width="6" height="3.93586" stroke="black" stroke-width="1" fill="blue" opacity="1" tooltip="enable"><title>(0.0260099,81)</title></rect><rect x="156" y="196.55" width="6" height="3.44995" stroke="black" stroke-width="1" fill="blue" opacity="1" tooltip="enable"><title>(0.0270503,71)</title></rect><rect x="162" y="196.21" width="6" height="3.79009" stroke="black" stroke-width="1" fill="blue" opacity="1" tooltip="enable"><title>(0.0280907,78)</title></rect><rect x="168" y="196.501" width="6" height="3.49854" stroke="black" stroke-width="1" fill="blue" opacity="1" tooltip="enable"><title>(0.0291311,72)</title></rect><rect x="174" y="194.752" width="6" height="5.24781" stroke="black" stroke-width="1" fill="blue" opacity="1" tooltip="enable"><title>(0.0301715,108)</title></rect><rect x="180" y="195.87" width="6" height="4.13022" stroke="black" stroke-width="1" fill="blue" opacity="1" tooltip="enable"><title>(0.0312119,85)</title></rect><rect x="186" y="196.55" width="6" height="3.44995" stroke="black" stroke-width="1" fill="blue" opacity="1" tooltip="enable"><title>(0.0322523,71)</title></rect><rect x="192" y="196.842" width="6" height="3.15841" stroke="black" stroke-width="1" fill="blue" opacity="1" tooltip="enable"><title>(0.0332927,65)</title></rect><rect x="198" y="197.279" width="6" height="2.72109" stroke="black" stroke-width="1" fill="blue" opacity="1" tooltip="enable"><title>(0.0343331,56)</title></rect><rect x="204" y="197.036" width="6" height="2.96404" stroke="black" stroke-width="1" fill="blue" opacity="1" tooltip="enable"><title>(0.0353735,61)</title></rect><rect x="210" y="197.959" width="6" height="2.04082" stroke="black" stroke-width="1" fill="blue" opacity="1" tooltip="enable"><title>(0.0364139,42)</title></rect><rect x="216" y="196.599" width="6" height="3.40136" stroke="black" stroke-width="1" fill="blue" opacity="1" tooltip="enable"><title>(0.0374543,70)</title></rect><rect x="222" y="196.744" width="6" height="3.25559" stroke="black" stroke-width="1" fill="blue" opacity="1" tooltip="enable"><title>(0.0384947,67)</title></rect><rect x="228" y="197.813" width="6" height="2.18659" stroke="black" stroke-width="1" fill="blue" opacity="1" tooltip="enable"><title>(0.0395351,45)</title></rect><rect x="234" y="197.23" width="6" height="2.76968" stroke="black" stroke-width="1" fill="blue" opacity="1" tooltip="enable"><title>(0.0405755,57)</title></rect><rect x="240" y="198.591" width="6" height="1.40914" stroke="black" stroke-width="1" fill="blue" opacity="1" tooltip="enable"><title>(0.0416159,29)</title></rect><rect x="246" y="198.154" width="6" height="1.84645" stroke="black" stroke-width="1" fill="blue" opacity="1" tooltip="enable"><title>(0.0426563,38)</title></rect><rect x="252" y="198.251" width="6" height="1.74927" stroke="black" stroke-width="1" fill="blue" opacity="1" tooltip="enable"><title>(0.0436967,36)</title></rect><rect x="258" y="197.862" width="6" height="2.138" stroke="black" stroke-width="1" fill="blue" opacity="1" tooltip="enable"><title>(0.0447371,44)</title></rect><rect x="264" y="198.105" width="6" height="1.89504" stroke="black" stroke-width="1" fill="blue" opacity="1" tooltip="enable"><title>(0.0457775,39)</title></rect><rect x="270" y="198.785" width="6" height="1.21477" stroke="black" stroke-width="1" fill="blue" opacity="1" tooltip="enable"><title>(0.0468179,25)</title></rect><rect x="276" y="199.611" width="6" height="0.388727" stroke="black" stroke-width="1" fill="blue" opacity="1" tooltip="enable"><title>(0.0478583,8)</title></rect><rect x="282" y="199.174" width="6" height="0.826045" stroke="black" stroke-width="1" fill="blue" opacity="1" tooltip="enable"><title>(0.0488987,17)</title></rect><rect x="288" y="199.563" width="6" height="0.437318" stroke="black" stroke-width="1" fill="blue" opacity="1" tooltip="enable"><title>(0.0499391,9)</title></rect><rect x="294" y="200" width="6" height="0" stroke="black" stroke-width="1" fill="blue" opacity="1" tooltip="enable"><title>(0.0509795,0)</title></rect><rect x="300" y="200" width="6" height="0" stroke="black" stroke-width="1" fill="blue" opacity="1" tooltip="enable"><title>(0.0520199,0)</title></rect><rect x="306" y="199.708" width="6" height="0.291545" stroke="black" stroke-width="1" fill="blue" opacity="1" tooltip="enable"><title>(0.0530603,6)</title></rect><rect x="312" y="199.806" width="6" height="0.194363" stroke="black" stroke-width="1" fill="blue" opacity="1" tooltip="enable"><title>(0.0541007,4)</title></rect><rect x="318" y="200" width="6" height="0" stroke="black" stroke-width="1" fill="blue" opacity="1" tooltip="enable"><title>(0.0551411,0)</title></rect><rect x="324" y="200" width="6" height="0" stroke="black" stroke-width="1" fill="blue" opacity="1" tooltip="enable"><title>(0.0561815,0)</title></rect><rect x="330" y="199.806" width="6" height="0.194363" stroke="black" stroke-width="1" fill="blue" opacity="1" tooltip="enable"><title>(0.0572219,4)</title></rect><rect x="336" y="199.708" width="6" height="0.291545" stroke="black" stroke-width="1" fill="blue" opacity="1" tooltip="enable"><title>(0.0582623,6)</title></rect><rect x="342" y="200" width="6" height="0" stroke="black" stroke-width="1" fill="blue" opacity="1" tooltip="enable"><title>(0.0593027,0)</title></rect><rect x="348" y="199.611" width="6" height="0.388727" stroke="black" stroke-width="1" fill="blue" opacity="1" tooltip="enable"><title>(0.0603431,8)</title></rect><rect x="354" y="200" width="6" height="0" stroke="black" stroke-width="1" fill="blue" opacity="1" tooltip="enable"><title>(0.0613835,0)</title></rect><rect x="360" y="199.708" width="6" height="0.291545" stroke="black" stroke-width="1" fill="blue" opacity="1" tooltip="enable"><title>(0.0624239,6)</title></rect><rect x="366" y="200" width="6" height="0" stroke="black" stroke-width="1" fill="blue" opacity="1" tooltip="enable"><title>(0.0634643,0)</title></rect><rect x="372" y="199.903" width="6" height="0.0971817" stroke="black" stroke-width="1" fill="blue" opacity="1" tooltip="enable"><title>(0.0645047,2)</title></rect><rect x="378" y="200" width="6" height="0" stroke="black" stroke-width="1" fill="blue" opacity="1" tooltip="enable"><title>(0.0655451,0)</title></rect><rect x="384" y="200" width="6" height="0" stroke="black" stroke-width="1" fill="blue" opacity="1" tooltip="enable"><title>(0.0665855,0)</title></rect><rect x="390" y="199.951" width="6" height="0.0485909" stroke="black" stroke-width="1" fill="blue" opacity="1" tooltip="enable"><title>(0.0676259,1)</title></rect><rect x="396" y="199.951" width="6" height="0.0485909" stroke="black" stroke-width="1" fill="blue" opacity="1" tooltip="enable"><title>(0.0686662,1)</title></rect><rect x="402" y="200" width="6" height="0" stroke="black" stroke-width="1" fill="blue" opacity="1" tooltip="enable"><title>(0.0697066,0)</title></rect><rect x="408" y="200" width="6" height="0" stroke="black" stroke-width="1" fill="blue" opacity="1" tooltip="enable"><title>(0.070747,0)</title></rect><rect x="414" y="199.903" width="6" height="0.0971817" stroke="black" stroke-width="1" fill="blue" opacity="1" tooltip="enable"><title>(0.0717874,2)</title></rect><rect x="420" y="199.806" width="6" height="0.194363" stroke="black" stroke-width="1" fill="blue" opacity="1" tooltip="enable"><title>(0.0728278,4)</title></rect><rect x="426" y="199.903" width="6" height="0.0971817" stroke="black" stroke-width="1" fill="blue" opacity="1" tooltip="enable"><title>(0.0738682,2)</title></rect><rect x="432" y="199.903" width="6" height="0.0971817" stroke="black" stroke-width="1" fill="blue" opacity="1" tooltip="enable"><title>(0.0749086,2)</title></rect><rect x="438" y="199.806" width="6" height="0.194363" stroke="black" stroke-width="1" fill="blue" opacity="1" tooltip="enable"><title>(0.075949,4)</title></rect><rect x="444" y="200" width="6" height="0" stroke="black" stroke-width="1" fill="blue" opacity="1" tooltip="enable"><title>(0.0769894,0)</title></rect><rect x="450" y="200" width="6" height="0" stroke="black" stroke-width="1" fill="blue" opacity="1" tooltip="enable"><title>(0.0780298,0)</title></rect><rect x="456" y="199.903" width="6" height="0.0971817" stroke="black" stroke-width="1" fill="blue" opacity="1" tooltip="enable"><title>(0.0790702,2)</title></rect><rect x="462" y="200" width="6" height="0" stroke="black" stroke-width="1" fill="blue" opacity="1" tooltip="enable"><title>(0.0801106,0)</title></rect><rect x="468" y="200" width="6" height="0" stroke="black" stroke-width="1" fill="blue" opacity="1" tooltip="enable"><title>(0.081151,0)</title></rect><rect x="474" y="199.903" width="6" height="0.0971817" stroke="black" stroke-width="1" fill="blue" opacity="1" tooltip="enable"><title>(0.0821914,2)</title></rect><rect x="480" y="200" width="6" height="0" stroke="black" stroke-width="1" fill="blue" opacity="1" tooltip="enable"><title>(0.0832318,0)</title></rect><rect x="486" y="200" width="6" height="0" stroke="black" stroke-width="1" fill="blue" opacity="1" tooltip="enable"><title>(0.0842722,0)</title></rect><rect x="492" y="200" width="6" height="0" stroke="black" stroke-width="1" fill="blue" opacity="1" tooltip="enable"><title>(0.0853126,0)</title></rect><rect x="498" y="200" width="6" height="0" stroke="black" stroke-width="1" fill="blue" opacity="1" tooltip="enable"><title>(0.086353,0)</title></rect><rect x="504" y="199.854" width="6" height="0.145773" stroke="black" stroke-width="1" fill="blue" opacity="1" tooltip="enable"><title>(0.0873934,3)</title></rect><rect x="510" y="199.854" width="6" height="0.145773" stroke="black" stroke-width="1" fill="blue" opacity="1" tooltip="enable"><title>(0.0884338,3)</title></rect><rect x="516" y="200" width="6" height="0" stroke="black" stroke-width="1" fill="blue" opacity="1" tooltip="enable"><title>(0.0894742,0)</title></rect><rect x="522" y="200" width="6" height="0" stroke="black" stroke-width="1" fill="blue" opacity="1" tooltip="enable"><title>(0.0905146,0)</title></rect><rect x="528" y="200" width="6" height="0" stroke="black" stroke-width="1" fill="blue" opacity="1" tooltip="enable"><title>(0.091555,0)</title></rect><rect x="534" y="200" width="6" height="0" stroke="black" stroke-width="1" fill="blue" opacity="1" tooltip="enable"><title>(0.0925954,0)</title></rect><rect x="540" y="200" width="6" height="0" stroke="black" stroke-width="1" fill="blue" opacity="1" tooltip="enable"><title>(0.0936358,0)</title></rect><rect x="546" y="200" width="6" height="0" stroke="black" stroke-width="1" fill="blue" opacity="1" tooltip="enable"><title>(0.0946762,0)</title></rect><rect x="552" y="200" width="6" height="0" stroke="black" stroke-width="1" fill="blue" opacity="1" tooltip="enable"><title>(0.0957166,0)</title></rect><rect x="558" y="200" width="6" height="0" stroke="black" stroke-width="1" fill="blue" opacity="1" tooltip="enable"><title>(0.096757,0)</title></rect><rect x="564" y="200" width="6" height="0" stroke="black" stroke-width="1" fill="blue" opacity="1" tooltip="enable"><title>(0.0977974,0)</title></rect><rect x="570" y="200" width="6" height="0" stroke="black" stroke-width="1" fill="blue" opacity="1" tooltip="enable"><title>(0.0988378,0)</title></rect><rect x="576" y="200" width="6" height="0" stroke="black" stroke-width="1" fill="blue" opacity="1" tooltip="enable"><title>(0.0998782,0)</title></rect><rect x="582" y="200" width="6" height="0" stroke="black" stroke-width="1" fill="blue" opacity="1" tooltip="enable"><title>(0.100919,0)</title></rect><rect x="588" y="199.903" width="6" height="0.0971817" stroke="black" stroke-width="1" fill="blue" opacity="1" tooltip="enable"><title>(0.101959,2)</title></rect><rect x="594" y="199.951" width="6" height="0.0485909" stroke="black" stroke-width="1" fill="blue" opacity="1" tooltip="enable"><title>(0.102999,1)</title></rect><text x="30" y="240" font-size="20" fill="black">0</text>
<text x="600" y="240" font-size="20" fill="black">0.10404</text>
<polyline points="0,220,600,220" stroke="black" stroke-width="1" fill="none" opacity="1"/>
<text x="720" y="20" font-size="20" fill="black">4116</text>
<text x="720" y="200" font-size="20" fill="black">0</text>
<polyline points="660,0,660,200" stroke="black" stroke-width="1" fill="none" opacity="1"/>
</svg>