<?xml version="1.0" standalone="yes"?>
<!-- SVG graphic -->
<svg xmlns='http://www.w3.org/2000/svg' xmlns:xlink='http://www.w3.org/1999/xlink'
 version="1.1">
<rect x="0" y="0" width="6" height="200" stroke="black" stroke-width="1" fill="blue" opacity="1" tooltip="enable"><title>(0,1930)</title></rect><rect x="6" y="56.4767" width="6" height="143.523" stroke="black" stroke-width="1" fill="blue" opacity="1" tooltip="enable"><title>(0.00138836,1385)</title></rect><rect x="12" y="130.259" width="6" height="69.7409" stroke="black" stroke-width="1" fill="blue" opacity="1" tooltip="enable"><title>(0.00277672,673)</title></rect><rect x="18" y="156.269" width="6" height="43.7306" stroke="black" stroke-width="1" fill="blue" opacity="1" tooltip="enable"><title>(0.00416509,422)</title></rect><rect x="24" y="175.544" width="6" height="24.456" stroke="black" stroke-width="1" fill="blue" opacity="1" tooltip="enable"><title>(0.00555345,236)</title></rect><rect x="30" y="184.663" width="6" height="15.3368" stroke="black" stroke-width="1" fill="blue" opacity="1" tooltip="enable"><title>(0.00694181,148)</title></rect><rect x="36" y="188.394" width="6" height="11.6062" stroke="black" stroke-width="1" fill="blue" opacity="1" tooltip="enable"><title>(0.00833017,112)</title></rect><rect x="42" y="183.316" width="6" height="16.6839" stroke="black" stroke-width="1" fill="blue" opacity="1" tooltip="enable"><title>(0.00971853,161)</title></rect><rect x="48" y="187.461" width="6" height="12.5389" stroke="black" stroke-width="1" fill="blue" opacity="1" tooltip="enable"><title>(0.0111069,121)</title></rect><rect x="54" y="185.907" width="6" height="14.0933" stroke="black" stroke-width="1" fill="blue" opacity="1" tooltip="enable"><title>(0.0124953,136)</title></rect><rect x="60" y="187.047" width="6" height="12.9534" stroke="black" stroke-width="1" fill="blue" opacity="1" tooltip="enable"><title>(0.0138836,125)</title></rect><rect x="66" y="182.694" width="6" height="17.3057" stroke="black" stroke-width="1" fill="blue" opacity="1" tooltip="enable"><title>(0.015272,167)</title></rect><rect x="72" y="184.352" width="6" height="15.6477" stroke="black" stroke-width="1" fill="blue" opacity="1" tooltip="enable"><title>(0.0166603,151)</title></rect><rect x="78" y="186.943" width="6" height="13.057" stroke="black" stroke-width="1" fill="blue" opacity="1" tooltip="enable"><title>(0.0180487,126)</title></rect><rect x="84" y="188.497" width="6" height="11.5026" stroke="black" stroke-width="1" fill="blue" opacity="1" tooltip="enable"><title>(0.0194371,111)</title></rect><rect x="90" y="186.736" width="6" height="13.2642" stroke="black" stroke-width="1" fill="blue" opacity="1" tooltip="enable"><title>(0.0208254,128)</title></rect><rect x="96" y="188.601" width="6" height="11.399" stroke="black" stroke-width="1" fill="blue" opacity="1" tooltip="enable"><title>(0.0222138,110)</title></rect><rect x="102" y="187.461" width="6" height="12.5389" stroke="black" stroke-width="1" fill="blue" opacity="1" tooltip="enable"><title>(0.0236022,121)</title></rect><rect x="108" y="191.813" width="6" height="8.18653" stroke="black" stroke-width="1" fill="blue" opacity="1" tooltip="enable"><title>(0.0249905,79)</title></rect><rect x="114" y="191.71" width="6" height="8.29016" stroke="black" stroke-width="1" fill="blue" opacity="1" tooltip="enable"><title>(0.0263789,80)</title></rect><rect x="120" y="191.295" width="6" height="8.70466" stroke="black" stroke-width="1" fill="blue" opacity="1" tooltip="enable"><title>(0.0277672,84)</title></rect><rect x="126" y="192.332" width="6" height="7.66839" stroke="black" stroke-width="1" fill="blue" opacity="1" tooltip="enable"><title>(0.0291556,74)</title></rect><rect x="132" y="191.71" width="6" height="8.29016" stroke="black" stroke-width="1" fill="blue" opacity="1" tooltip="enable"><title>(0.030544,80)</title></rect><rect x="138" y="192.953" width="6" height="7.04663" stroke="black" stroke-width="1" fill="blue" opacity="1" tooltip="enable"><title>(0.0319323,68)</title></rect><rect x="144" y="191.295" width="6" height="8.70466" stroke="black" stroke-width="1" fill="blue" opacity="1" tooltip="enable"><title>(0.0333207,84)</title></rect><rect x="150" y="190.363" width="6" height="9.63731" stroke="black" stroke-width="1" fill="blue" opacity="1" tooltip="enable"><title>(0.0347091,93)</title></rect><rect x="156" y="193.679" width="6" height="6.32124" stroke="black" stroke-width="1" fill="blue" opacity="1" tooltip="enable"><title>(0.0360974,61)</title></rect><rect x="162" y="193.264" width="6" height="6.73575" stroke="black" stroke-width="1" fill="blue" opacity="1" tooltip="enable"><title>(0.0374858,65)</title></rect><rect x="168" y="195.855" width="6" height="4.14508" stroke="black" stroke-width="1" fill="blue" opacity="1" tooltip="enable"><title>(0.0388741,40)</title></rect><rect x="174" y="194.197" width="6" height="5.80311" stroke="black" stroke-width="1" fill="blue" opacity="1" tooltip="enable"><title>(0.0402625,56)</title></rect><rect x="180" y="195.026" width="6" height="4.97409" stroke="black" stroke-width="1" fill="blue" opacity="1" tooltip="enable"><title>(0.0416509,48)</title></rect><rect x="186" y="196.58" width="6" height="3.41969" stroke="black" stroke-width="1" fill="blue" opacity="1" tooltip="enable"><title>(0.0430392,33)</title></rect><rect x="192" y="196.269" width="6" height="3.73057" stroke="black" stroke-width="1" fill="blue" opacity="1" tooltip="enable"><title>(0.0444276,36)</title></rect><rect x="198" y="195.233" width="6" height="4.76684" stroke="black" stroke-width="1" fill="blue" opacity="1" tooltip="enable"><title>(0.0458159,46)</title></rect><rect x="204" y="195.648" width="6" height="4.35233" stroke="black" stroke-width="1" fill="blue" opacity="1" tooltip="enable"><title>(0.0472043,42)</title></rect><rect x="210" y="195.44" width="6" height="4.55959" stroke="black" stroke-width="1" fill="blue" opacity="1" tooltip="enable"><title>(0.0485927,44)</title></rect><rect x="216" y="196.269" width="6" height="3.73057" stroke="black" stroke-width="1" fill="blue" opacity="1" tooltip="enable"><title>(0.049981,36)</title></rect><rect x="222" y="198.031" width="6" height="1.96891" stroke="black" stroke-width="1" fill="blue" opacity="1" tooltip="enable"><title>(0.0513694,19)</title></rect><rect x="228" y="196.58" width="6" height="3.41969" stroke="black" stroke-width="1" fill="blue" opacity="1" tooltip="enable"><title>(0.0527578,33)</title></rect><rect x="234" y="195.959" width="6" height="4.04145" stroke="black" stroke-width="1" fill="blue" opacity="1" tooltip="enable"><title>(0.0541461,39)</title></rect><rect x="240" y="196.373" width="6" height="3.62694" stroke="black" stroke-width="1" fill="blue" opacity="1" tooltip="enable"><title>(0.0555345,35)</title></rect><rect x="246" y="196.891" width="6" height="3.10881" stroke="black" stroke-width="1" fill="blue" opacity="1" tooltip="enable"><title>(0.0569228,30)</title></rect><rect x="252" y="198.342" width="6" height="1.65803" stroke="black" stroke-width="1" fill="blue" opacity="1" tooltip="enable"><title>(0.0583112,16)</title></rect><rect x="258" y="197.098" width="6" height="2.90155" stroke="black" stroke-width="1" fill="blue" opacity="1" tooltip="enable"><title>(0.0596996,28)</title></rect><rect x="264" y="197.513" width="6" height="2.48705" stroke="black" stroke-width="1" fill="blue" opacity="1" tooltip="enable"><title>(0.0610879,24)</title></rect><rect x="270" y="197.927" width="6" height="2.07254" stroke="black" stroke-width="1" fill="blue" opacity="1" tooltip="enable"><title>(0.0624763,20)</title></rect><rect x="276" y="198.135" width="6" height="1.86529" stroke="black" stroke-width="1" fill="blue" opacity="1" tooltip="enable"><title>(0.0638647,18)</title></rect><rect x="282" y="197.513" width="6" height="2.48705" stroke="black" stroke-width="1" fill="blue" opacity="1" tooltip="enable"><title>(0.065253,24)</title></rect><rect x="288" y="199.275" width="6" height="0.725389" stroke="black" stroke-width="1" fill="blue" opacity="1" tooltip="enable"><title>(0.0666414,7)</title></rect><rect x="294" y="196.788" width="6" height="3.21244" stroke="black" stroke-width="1" fill="blue" opacity="1" tooltip="enable"><title>(0.0680297,31)</title></rect><rect x="300" y="198.135" width="6" height="1.86529" stroke="black" stroke-width="1" fill="blue" opacity="1" tooltip="enable"><title>(0.0694181,18)</title></rect><rect x="306" y="198.756" width="6" height="1.24352" stroke="black" stroke-width="1" fill="blue" opacity="1" tooltip="enable"><title>(0.0708065,12)</title></rect><rect x="312" y="199.378" width="6" height="0.621762" stroke="black" stroke-width="1" fill="blue" opacity="1" tooltip="enable"><title>(0.0721948,6)</title></rect><rect x="318" y="199.171" width="6" height="0.829016" stroke="black" stroke-width="1" fill="blue" opacity="1" tooltip="enable"><title>(0.0735832,8)</title></rect><rect x="324" y="198.756" width="6" height="1.24352" stroke="black" stroke-width="1" fill="blue" opacity="1" tooltip="enable"><title>(0.0749716,12)</title></rect><rect x="330" y="199.171" width="6" height="0.829016" stroke="black" stroke-width="1" fill="blue" opacity="1" tooltip="enable"><title>(0.0763599,8)</title></rect><rect x="336" y="197.72" width="6" height="2.27979" stroke="black" stroke-width="1" fill="blue" opacity="1" tooltip="enable"><title>(0.0777483,22)</title></rect><rect x="342" y="198.342" width="6" height="1.65803" stroke="black" stroke-width="1" fill="blue" opacity="1" tooltip="enable"><title>(0.0791366,16)</title></rect><rect x="348" y="199.585" width="6" height="0.414508" stroke="black" stroke-width="1" fill="blue" opacity="1" tooltip="enable"><title>(0.080525,4)</title></rect><rect x="354" y="199.585" width="6" height="0.414508" stroke="black" stroke-width="1" fill="blue" opacity="1" tooltip="enable"><title>(0.0819134,4)</title></rect><rect x="360" y="198.86" width="6" height="1.1399" stroke="black" stroke-width="1" fill="blue" opacity="1" tooltip="enable"><title>(0.0833017,11)</title></rect><rect x="366" y="199.689" width="6" height="0.310881" stroke="black" stroke-width="1" fill="blue" opacity="1" tooltip="enable"><title>(0.0846901,3)</title></rect><rect x="372" y="198.964" width="6" height="1.03627" stroke="black" stroke-width="1" fill="blue" opacity="1" tooltip="enable"><title>(0.0860785,10)</title></rect><rect x="378" y="199.585" width="6" height="0.414508" stroke="black" stroke-width="1" fill="blue" opacity="1" tooltip="enable"><title>(0.0874668,4)</title></rect><rect x="384" y="199.378" width="6" height="0.621762" stroke="black" stroke-width="1" fill="blue" opacity="1" tooltip="enable"><title>(0.0888552,6)</title></rect><rect x="390" y="200" width="6" height="0" stroke="black" stroke-width="1" fill="blue" opacity="1" tooltip="enable"><title>(0.0902435,0)</title></rect><rect x="396" y="200" width="6" height="0" stroke="black" stroke-width="1" fill="blue" opacity="1" tooltip="enable"><title>(0.0916319,0)</title></rect><rect x="402" y="200" width="6" height="0" stroke="black" stroke-width="1" fill="blue" opacity="1" tooltip="enable"><title>(0.0930203,0)</title></rect><rect x="408" y="200" width="6" height="0" stroke="black" stroke-width="1" fill="blue" opacity="1" tooltip="enable"><title>(0.0944086,0)</title></rect><rect x="414" y="199.793" width="6" height="0.207254" stroke="black" stroke-width="1" fill="blue" opacity="1" tooltip="enable"><title>(0.095797,2)</title></rect><rect x="420" y="200" width="6" height="0" stroke="black" stroke-width="1" fill="blue" opacity="1" tooltip="enable"><title>(0.0971853,0)</title></rect><rect x="426" y="200" width="6" height="0" stroke="black" stroke-width="1" fill="blue" opacity="1" tooltip="enable"><title>(0.0985737,0)</title></rect><rect x="432" y="200" width="6" height="0" stroke="black" stroke-width="1" fill="blue" opacity="1" tooltip="enable"><title>(0.0999621,0)</title></rect><rect x="438" y="199.585" width="6" height="0.414508" stroke="black" stroke-width="1" fill="blue" opacity="1" tooltip="enable"><title>(0.10135,4)</title></rect><rect x="444" y="200" width="6" height="0" stroke="black" stroke-width="1" fill="blue" opacity="1" tooltip="enable"><title>(0.102739,0)</title></rect><rect x="450" y="200" width="6" height="0" stroke="black" stroke-width="1" fill="blue" opacity="1" tooltip="enable"><title>(0.104127,0)</title></rect><rect x="456" y="200" width="6" height="0" stroke="black" stroke-width="1" fill="blue" opacity="1" tooltip="enable"><title>(0.105516,0)</title></rect><rect x="462" y="199.585" width="6" height="0.414508" stroke="black" stroke-width="1" fill="blue" opacity="1" tooltip="enable"><title>(0.106904,4)</title></rect><rect x="468" y="200" width="6" height="0" stroke="black" stroke-width="1" fill="blue" opacity="1" tooltip="enable"><title>(0.108292,0)</title></rect><rect x="474" y="200" width="6" height="0" stroke="black" stroke-width="1" fill="blue" opacity="1" tooltip="enable"><title>(0.109681,0)</title></rect><rect x="480" y="200" width="6" height="0" stroke="black" stroke-width="1" fill="blue" opacity="1" tooltip="enable"><title>(0.111069,0)</title></rect><rect x="486" y="200" width="6" height="0" stroke="black" stroke-width="1" fill="blue" opacity="1" tooltip="enable"><title>(0.112457,0)</title></rect><rect x="492" y="199.793" width="6" height="0.207254" stroke="black" stroke-width="1" fill="blue" opacity="1" tooltip="enable"><title>(0.113846,2)</title></rect><rect x="498" y="200" width="6" height="0" stroke="black" stroke-width="1" fill="blue" opacity="1" tooltip="enable"><title>(0.115234,0)</title></rect><rect x="504" y="200" width="6" height="0" stroke="black" stroke-width="1" fill="blue" opacity="1" tooltip="enable"><title>(0.116622,0)</title></rect><rect x="510" y="199.793" width="6" height="0.207254" stroke="black" stroke-width="1" fill="blue" opacity="1" tooltip="enable"><title>(0.118011,2)</title></rect><rect x="516" y="200" width="6" height="0" stroke="black" stroke-width="1" fill="blue" opacity="1" tooltip="enable"><title>(0.119399,0)</title></rect><rect x="522" y="200" width="6" height="0" stroke="black" stroke-width="1" fill="blue" opacity="1" tooltip="enable"><title>(0.120788,0)</title></rect><rect x="528" y="200" width="6" height="0" stroke="black" stroke-width="1" fill="blue" opacity="1" tooltip="enable"><title>(0.122176,0)</title></rect><rect x="534" y="200" width="6" height="0" stroke="black" stroke-width="1" fill="blue" opacity="1" tooltip="enable"><title>(0.123564,0)</title></rect><rect x="540" y="200" width="6" height="0" stroke="black" stroke-width="1" fill="blue" opacity="1" tooltip="enable"><title>(0.124953,0)</title></rect><rect x="546" y="200" width="6" height="0" stroke="black" stroke-width="1" fill="blue" opacity="1" tooltip="enable"><title>(0.126341,0)</title></rect><rect x="552" y="200" width="6" height="0" stroke="black" stroke-width="1" fill="blue" opacity="1" tooltip="enable"><title>(0.127729,0)</title></rect><rect x="558" y="200" width="6" height="0" stroke="black" stroke-width="1" fill="blue" opacity="1" tooltip="enable"><title>(0.129118,0)</title></rect><rect x="564" y="200" width="6" height="0" stroke="black" stroke-width="1" fill="blue" opacity="1" tooltip="enable"><title>(0.130506,0)</title></rect><rect x="570" y="200" width="6" height="0" stroke="black" stroke-width="1" fill="blue" opacity="1" tooltip="enable"><title>(0.131894,0)</title></rect><rect x="576" y="199.793" width="6" height="0.207254" stroke="black" stroke-width="1" fill="blue" opacity="1" tooltip="enable"><title>(0.133283,2)</title></rect><rect x="582" y="199.793" width="6" height="0.207254" stroke="black" stroke-width="1" fill="blue" opacity="1" tooltip="enable"><title>(0.134671,2)</title></rect><rect x="588" y="200" width="6" height="0" stroke="black" stroke-width="1" fill="blue" opacity="1" tooltip="enable"><title>(0.136059,0)</title></rect><rect x="594" y="199.896" width="6" height="0.103627" stroke="black" stroke-width="1" fill="blue" opacity="1" tooltip="enable"><title>(0.137448,1)</title></rect><text x="30" y="240" font-size="20" fill="black">0</text>
<text x="600" y="240" font-size="20" fill="black">0.138836</text>
<polyline points="0,220,600,220" stroke="black" stroke-width="1" fill="none" opacity="1"/>
<text x="720" y="20" font-size="20" fill="black">1930</text>
<text x="720" y="200" font-size="20" fill="black">0</text>
<polyline points="660,0,660,200" stroke="black" stroke-width="1" fill="none" opacity="1"/>
</svg>