<?xml version="1.0" standalone="yes"?>
<!-- SVG graphic -->
<svg xmlns='http://www.w3.org/2000/svg' xmlns:xlink='http://www.w3.org/1999/xlink'
 version="1.1">
<rect x="0" y="0" width="6" height="200" stroke="black" stroke-width="1" fill="blue" opacity="1" tooltip="enable"><title>(0,3118)</title></rect><rect x="6" y="120.718" width="6" height="79.2816" stroke="black" stroke-width="1" fill="blue" opacity="1" tooltip="enable"><title>(0.00210198,1236)</title></rect><rect x="12" y="185.632" width="6" height="14.3682" stroke="black" stroke-width="1" fill="blue" opacity="1" tooltip="enable"><title>(0.00420396,224)</title></rect><rect x="18" y="186.658" width="6" height="13.3419" stroke="black" stroke-width="1" fill="blue" opacity="1" tooltip="enable"><title>(0.00630593,208)</title></rect><rect x="24" y="188.839" width="6" height="11.161" stroke="black" stroke-width="1" fill="blue" opacity="1" tooltip="enable"><title>(0.00840791,174)</title></rect><rect x="30" y="187.364" width="6" height="12.6363" stroke="black" stroke-width="1" fill="blue" opacity="1" tooltip="enable"><title>(0.0105099,197)</title></rect><rect x="36" y="186.594" width="6" height="13.406" stroke="black" stroke-width="1" fill="blue" opacity="1" tooltip="enable"><title>(0.0126119,209)</title></rect><rect x="42" y="186.658" width="6" height="13.3419" stroke="black" stroke-width="1" fill="blue" opacity="1" tooltip="enable"><title>(0.0147138,208)</title></rect><rect x="48" y="189.545" width="6" height="10.4554" stroke="black" stroke-width="1" fill="blue" opacity="1" tooltip="enable"><title>(0.0168158,163)</title></rect><rect x="54" y="187.62" width="6" height="12.3797" stroke="black" stroke-width="1" fill="blue" opacity="1" tooltip="enable"><title>(0.0189178,193)</title></rect><rect x="60" y="188.326" width="6" height="11.6741" stroke="black" stroke-width="1" fill="blue" opacity="1" tooltip="enable"><title>(0.0210198,182)</title></rect><rect x="66" y="191.918" width="6" height="8.0821" stroke="black" stroke-width="1" fill="blue" opacity="1" tooltip="enable"><title>(0.0231218,126)</title></rect><rect x="72" y="190.699" width="6" height="9.30083" stroke="black" stroke-width="1" fill="blue" opacity="1" tooltip="enable"><title>(0.0252237,145)</title></rect><rect x="78" y="188.454" width="6" height="11.5459" stroke="black" stroke-width="1" fill="blue" opacity="1" tooltip="enable"><title>(0.0273257,180)</title></rect><rect x="84" y="190.635" width="6" height="9.36498" stroke="black" stroke-width="1" fill="blue" opacity="1" tooltip="enable"><title>(0.0294277,146)</title></rect><rect x="90" y="193.008" width="6" height="6.99166" stroke="black" stroke-width="1" fill="blue" opacity="1" tooltip="enable"><title>(0.0315297,109)</title></rect><rect x="96" y="192.431" width="6" height="7.56895" stroke="black" stroke-width="1" fill="blue" opacity="1" tooltip="enable"><title>(0.0336317,118)</title></rect><rect x="102" y="192.431" width="6" height="7.56895" stroke="black" stroke-width="1" fill="blue" opacity="1" tooltip="enable"><title>(0.0357336,118)</title></rect><rect x="108" y="193.329" width="6" height="6.67094" stroke="black" stroke-width="1" fill="blue" opacity="1" tooltip="enable"><title>(0.0378356,104)</title></rect><rect x="114" y="195.253" width="6" height="4.74663" stroke="black" stroke-width="1" fill="blue" opacity="1" tooltip="enable"><title>(0.0399376,74)</title></rect><rect x="120" y="195.061" width="6" height="4.93906" stroke="black" stroke-width="1" fill="blue" opacity="1" tooltip="enable"><title>(0.0420396,77)</title></rect><rect x="126" y="195.831" width="6" height="4.16934" stroke="black" stroke-width="1" fill="blue" opacity="1" tooltip="enable"><title>(0.0441415,65)</title></rect><rect x="132" y="195.51" width="6" height="4.49006" stroke="black" stroke-width="1" fill="blue" opacity="1" tooltip="enable"><title>(0.0462435,70)</title></rect><rect x="138" y="197.306" width="6" height="2.69403" stroke="black" stroke-width="1" fill="blue" opacity="1" tooltip="enable"><title>(0.0483455,42)</title></rect><rect x="144" y="196.793" width="6" height="3.20718" stroke="black" stroke-width="1" fill="blue" opacity="1" tooltip="enable"><title>(0.0504475,50)</title></rect><rect x="150" y="196.665" width="6" height="3.33547" stroke="black" stroke-width="1" fill="blue" opacity="1" tooltip="enable"><title>(0.0525495,52)</title></rect><rect x="156" y="197.049" width="6" height="2.95061" stroke="black" stroke-width="1" fill="blue" opacity="1" tooltip="enable"><title>(0.0546514,46)</title></rect><rect x="162" y="196.408" width="6" height="3.59205" stroke="black" stroke-width="1" fill="blue" opacity="1" tooltip="enable"><title>(0.0567534,56)</title></rect><rect x="168" y="198.076" width="6" height="1.92431" stroke="black" stroke-width="1" fill="blue" opacity="1" tooltip="enable"><title>(0.0588554,30)</title></rect><rect x="174" y="196.536" width="6" height="3.46376" stroke="black" stroke-width="1" fill="blue" opacity="1" tooltip="enable"><title>(0.0609574,54)</title></rect><rect x="180" y="196.151" width="6" height="3.84862" stroke="black" stroke-width="1" fill="blue" opacity="1" tooltip="enable"><title>(0.0630594,60)</title></rect><rect x="186" y="197.563" width="6" height="2.43746" stroke="black" stroke-width="1" fill="blue" opacity="1" tooltip="enable"><title>(0.0651613,38)</title></rect><rect x="192" y="197.819" width="6" height="2.18089" stroke="black" stroke-width="1" fill="blue" opacity="1" tooltip="enable"><title>(0.0672633,34)</title></rect><rect x="198" y="197.819" width="6" height="2.18089" stroke="black" stroke-width="1" fill="blue" opacity="1" tooltip="enable"><title>(0.0693653,34)</title></rect><rect x="204" y="198.717" width="6" height="1.28287" stroke="black" stroke-width="1" fill="blue" opacity="1" tooltip="enable"><title>(0.0714673,20)</title></rect><rect x="210" y="199.23" width="6" height="0.769724" stroke="black" stroke-width="1" fill="blue" opacity="1" tooltip="enable"><title>(0.0735692,12)</title></rect><rect x="216" y="199.23" width="6" height="0.769724" stroke="black" stroke-width="1" fill="blue" opacity="1" tooltip="enable"><title>(0.0756712,12)</title></rect><rect x="222" y="199.615" width="6" height="0.384862" stroke="black" stroke-width="1" fill="blue" opacity="1" tooltip="enable"><title>(0.0777732,6)</title></rect><rect x="228" y="199.487" width="6" height="0.513149" stroke="black" stroke-width="1" fill="blue" opacity="1" tooltip="enable"><title>(0.0798752,8)</title></rect><rect x="234" y="200" width="6" height="0" stroke="black" stroke-width="1" fill="blue" opacity="1" tooltip="enable"><title>(0.0819772,0)</title></rect><rect x="240" y="200" width="6" height="0" stroke="black" stroke-width="1" fill="blue" opacity="1" tooltip="enable"><title>(0.0840791,0)</title></rect><rect x="246" y="200" width="6" height="0" stroke="black" stroke-width="1" fill="blue" opacity="1" tooltip="enable"><title>(0.0861811,0)</title></rect><rect x="252" y="200" width="6" height="0" stroke="black" stroke-width="1" fill="blue" opacity="1" tooltip="enable"><title>(0.0882831,0)</title></rect><rect x="258" y="200" width="6" height="0" stroke="black" stroke-width="1" fill="blue" opacity="1" tooltip="enable"><title>(0.0903851,0)</title></rect><rect x="264" y="200" width="6" height="0" stroke="black" stroke-width="1" fill="blue" opacity="1" tooltip="enable"><title>(0.092487,0)</title></rect><rect x="270" y="200" width="6" height="0" stroke="black" stroke-width="1" fill="blue" opacity="1" tooltip="enable"><title>(0.094589,0)</title></rect><rect x="276" y="200" width="6" height="0" stroke="black" stroke-width="1" fill="blue" opacity="1" tooltip="enable"><title>(0.096691,0)</title></rect><rect x="282" y="200" width="6" height="0" stroke="black" stroke-width="1" fill="blue" opacity="1" tooltip="enable"><title>(0.098793,0)</title></rect><rect x="288" y="200" width="6" height="0" stroke="black" stroke-width="1" fill="blue" opacity="1" tooltip="enable"><title>(0.100895,0)</title></rect><rect x="294" y="200" width="6" height="0" stroke="black" stroke-width="1" fill="blue" opacity="1" tooltip="enable"><title>(0.102997,0)</title></rect><rect x="300" y="200" width="6" height="0" stroke="black" stroke-width="1" fill="blue" opacity="1" tooltip="enable"><title>(0.105099,0)</title></rect><rect x="306" y="200" width="6" height="0" stroke="black" stroke-width="1" fill="blue" opacity="1" tooltip="enable"><title>(0.107201,0)</title></rect><rect x="312" y="200" width="6" height="0" stroke="black" stroke-width="1" fill="blue" opacity="1" tooltip="enable"><title>(0.109303,0)</title></rect><rect x="318" y="200" width="6" height="0" stroke="black" stroke-width="1" fill="blue" opacity="1" tooltip="enable"><title>(0.111405,0)</title></rect><rect x="324" y="200" width="6" height="0" stroke="black" stroke-width="1" fill="blue" opacity="1" tooltip="enable"><title>(0.113507,0)</title></rect><rect x="330" y="200" width="6" height="0" stroke="black" stroke-width="1" fill="blue" opacity="1" tooltip="enable"><title>(0.115609,0)</title></rect><rect x="336" y="200" width="6" height="0" stroke="black" stroke-width="1" fill="blue" opacity="1" tooltip="enable"><title>(0.117711,0)</title></rect><rect x="342" y="200" width="6" height="0" stroke="black" stroke-width="1" fill="blue" opacity="1" tooltip="enable"><title>(0.119813,0)</title></rect><rect x="348" y="200" width="6" height="0" stroke="black" stroke-width="1" fill="blue" opacity="1" tooltip="enable"><title>(0.121915,0)</title></rect><rect x="354" y="200" width="6" height="0" stroke="black" stroke-width="1" fill="blue" opacity="1" tooltip="enable"><title>(0.124017,0)</title></rect><rect x="360" y="200" width="6" height="0" stroke="black" stroke-width="1" fill="blue" opacity="1" tooltip="enable"><title>(0.126119,0)</title></rect><rect x="366" y="200" width="6" height="0" stroke="black" stroke-width="1" fill="blue" opacity="1" tooltip="enable"><title>(0.128221,0)</title></rect><rect x="372" y="200" width="6" height="0" stroke="black" stroke-width="1" fill="blue" opacity="1" tooltip="enable"><title>(0.130323,0)</title></rect><rect x="378" y="200" width="6" height="0" stroke="black" stroke-width="1" fill="blue" opacity="1" tooltip="enable"><title>(0.132425,0)</title></rect><rect x="384" y="200" width="6" height="0" stroke="black" stroke-width="1" fill="blue" opacity="1" tooltip="enable"><title>(0.134527,0)</title></rect><rect x="390" y="200" width="6" height="0" stroke="black" stroke-width="1" fill="blue" opacity="1" tooltip="enable"><title>(0.136629,0)</title></rect><rect x="396" y="200" width="6" height="0" stroke="black" stroke-width="1" fill="blue" opacity="1" tooltip="enable"><title>(0.138731,0)</title></rect><rect x="402" y="200" width="6" height="0" stroke="black" stroke-width="1" fill="blue" opacity="1" tooltip="enable"><title>(0.140833,0)</title></rect><rect x="408" y="200" width="6" height="0" stroke="black" stroke-width="1" fill="blue" opacity="1" tooltip="enable"><title>(0.142935,0)</title></rect><rect x="414" y="200" width="6" height="0" stroke="black" stroke-width="1" fill="blue" opacity="1" tooltip="enable"><title>(0.145037,0)</title></rect><rect x="420" y="200" width="6" height="0" stroke="black" stroke-width="1" fill="blue" opacity="1" tooltip="enable"><title>(0.147138,0)</title></rect><rect x="426" y="200" width="6" height="0" stroke="black" stroke-width="1" fill="blue" opacity="1" tooltip="enable"><title>(0.14924,0)</title></rect><rect x="432" y="200" width="6" height="0" stroke="black" stroke-width="1" fill="blue" opacity="1" tooltip="enable"><title>(0.151342,0)</title></rect><rect x="438" y="200" width="6" height="0" stroke="black" stroke-width="1" fill="blue" opacity="1" tooltip="enable"><title>(0.153444,0)</title></rect><rect x="444" y="200" width="6" height="0" stroke="black" stroke-width="1" fill="blue" opacity="1" tooltip="enable"><title>(0.155546,0)</title></rect><rect x="450" y="200" width="6" height="0" stroke="black" stroke-width="1" fill="blue" opacity="1" tooltip="enable"><title>(0.157648,0)</title></rect><rect x="456" y="200" width="6" height="0" stroke="black" stroke-width="1" fill="blue" opacity="1" tooltip="enable"><title>(0.15975,0)</title></rect><rect x="462" y="200" width="6" height="0" stroke="black" stroke-width="1" fill="blue" opacity="1" tooltip="enable"><title>(0.161852,0)</title></rect><rect x="468" y="200" width="6" height="0" stroke="black" stroke-width="1" fill="blue" opacity="1" tooltip="enable"><title>(0.163954,0)</title></rect><rect x="474" y="200" width="6" height="0" stroke="black" stroke-width="1" fill="blue" opacity="1" tooltip="enable"><title>(0.166056,0)</title></rect><rect x="480" y="200" width="6" height="0" stroke="black" stroke-width="1" fill="blue" opacity="1" tooltip="enable"><title>(0.168158,0)</title></rect><rect x="486" y="200" width="6" height="0" stroke="black" stroke-width="1" fill="blue" opacity="1" tooltip="enable"><title>(0.17026,0)</title></rect><rect x="492" y="200" width="6" height="0" stroke="black" stroke-width="1" fill="blue" opacity="1" tooltip="enable"><title>(0.172362,0)</title></rect><rect x="498" y="200" width="6" height="0" stroke="black" stroke-width="1" fill="blue" opacity="1" tooltip="enable"><title>(0.174464,0)</title></rect><rect x="504" y="200" width="6" height="0" stroke="black" stroke-width="1" fill="blue" opacity="1" tooltip="enable"><title>(0.176566,0)</title></rect><rect x="510" y="200" width="6" height="0" stroke="black" stroke-width="1" fill="blue" opacity="1" tooltip="enable"><title>(0.178668,0)</title></rect><rect x="516" y="200" width="6" height="0" stroke="black" stroke-width="1" fill="blue" opacity="1" tooltip="enable"><title>(0.18077,0)</title></rect><rect x="522" y="200" width="6" height="0" stroke="black" stroke-width="1" fill="blue" opacity="1" tooltip="enable"><title>(0.182872,0)</title></rect><rect x="528" y="200" width="6" height="0" stroke="black" stroke-width="1" fill="blue" opacity="1" tooltip="enable"><title>(0.184974,0)</title></rect><rect x="534" y="200" width="6" height="0" stroke="black" stroke-width="1" fill="blue" opacity="1" tooltip="enable"><title>(0.187076,0)</title></rect><rect x="540" y="200" width="6" height="0" stroke="black" stroke-width="1" fill="blue" opacity="1" tooltip="enable"><title>(0.189178,0)</title></rect><rect x="546" y="200" width="6" height="0" stroke="black" stroke-width="1" fill="blue" opacity="1" tooltip="enable"><title>(0.19128,0)</title></rect><rect x="552" y="200" width="6" height="0" stroke="black" stroke-width="1" fill="blue" opacity="1" tooltip="enable"><title>(0.193382,0)</title></rect><rect x="558" y="200" width="6" height="0" stroke="black" stroke-width="1" fill="blue" opacity="1" tooltip="enable"><title>(0.195484,0)</title></rect><rect x="564" y="200" width="6" height="0" stroke="black" stroke-width="1" fill="blue" opacity="1" tooltip="enable"><title>(0.197586,0)</title></rect><rect x="570" y="200" width="6" height="0" stroke="black" stroke-width="1" fill="blue" opacity="1" tooltip="enable"><title>(0.199688,0)</title></rect><rect x="576" y="200" width="6" height="0" stroke="black" stroke-width="1" fill="blue" opacity="1" tooltip="enable"><title>(0.20179,0)</title></rect><rect x="582" y="200" width="6" height="0" stroke="black" stroke-width="1" fill="blue" opacity="1" tooltip="enable"><title>(0.203892,0)</title></rect><rect x="588" y="200" width="6" height="0" stroke="black" stroke-width="1" fill="blue" opacity="1" tooltip="enable"><title>(0.205994,0)</title></rect><rect x="594" y="199.936" width="6" height="0.0641437" stroke="black" stroke-width="1" fill="blue" opacity="1" tooltip="enable"><title>(0.208096,1)</title></rect><text x="30" y="240" font-size="20" fill="black">0</text>
<text x="600" y="240" font-size="20" fill="black">0.210198</text>
<polyline points="0,220,600,220" stroke="black" stroke-width="1" fill="none" opacity="1"/>
<text x="720" y="20" font-size="20" fill="black">3118</text>
<text x="720" y="200" font-size="20" fill="black">0</text>
<polyline points="660,0,660,200" stroke="black" stroke-width="1" fill="none" opacity="1"/>
</svg>