<?xml version="1.0" standalone="yes"?>
<!-- SVG graphic -->
<svg xmlns='http://www.w3.org/2000/svg' xmlns:xlink='http://www.w3.org/1999/xlink'
 version="1.1">
<rect x="0" y="0" width="6" height="200" stroke="black" stroke-width="1" fill="blue" opacity="1" tooltip="enable"><title>(0,2946)</title></rect><rect x="6" y="136.999" width="6" height="63.0007" stroke="black" stroke-width="1" fill="blue" opacity="1" tooltip="enable"><title>(0.000655066,928)</title></rect><rect x="12" y="169.925" width="6" height="30.0747" stroke="black" stroke-width="1" fill="blue" opacity="1" tooltip="enable"><title>(0.00131013,443)</title></rect><rect x="18" y="183.707" width="6" height="16.2933" stroke="black" stroke-width="1" fill="blue" opacity="1" tooltip="enable"><title>(0.0019652,240)</title></rect><rect x="24" y="187.984" width="6" height="12.0163" stroke="black" stroke-width="1" fill="blue" opacity="1" tooltip="enable"><title>(0.00262026,177)</title></rect><rect x="30" y="191.718" width="6" height="8.28242" stroke="black" stroke-width="1" fill="blue" opacity="1" tooltip="enable"><title>(0.00327533,122)</title></rect><rect x="36" y="190.088" width="6" height="9.91175" stroke="black" stroke-width="1" fill="blue" opacity="1" tooltip="enable"><title>(0.0039304,146)</title></rect><rect x="42" y="191.174" width="6" height="8.82553" stroke="black" stroke-width="1" fill="blue" opacity="1" tooltip="enable"><title>(0.00458546,130)</title></rect><rect x="48" y="190.36" width="6" height="9.64019" stroke="black" stroke-width="1" fill="blue" opacity="1" tooltip="enable"><title>(0.00524053,142)</title></rect><rect x="54" y="191.31" width="6" height="8.68975" stroke="black" stroke-width="1" fill="blue" opacity="1" tooltip="enable"><title>(0.00589559,128)</title></rect><rect x="60" y="190.835" width="6" height="9.16497" stroke="black" stroke-width="1" fill="blue" opacity="1" tooltip="enable"><title>(0.00655066,135)</title></rect><rect x="66" y="190.971" width="6" height="9.02919" stroke="black" stroke-width="1" fill="blue" opacity="1" tooltip="enable"><title>(0.00720573,133)</title></rect><rect x="72" y="192.804" width="6" height="7.1962" stroke="black" stroke-width="1" fill="blue" opacity="1" tooltip="enable"><title>(0.00786079,106)</title></rect><rect x="78" y="192.396" width="6" height="7.60353" stroke="black" stroke-width="1" fill="blue" opacity="1" tooltip="enable"><title>(0.00851586,112)</title></rect><rect x="84" y="192.396" width="6" height="7.60353" stroke="black" stroke-width="1" fill="blue" opacity="1" tooltip="enable"><title>(0.00917092,112)</title></rect><rect x="90" y="193.347" width="6" height="6.65309" stroke="black" stroke-width="1" fill="blue" opacity="1" tooltip="enable"><title>(0.00982599,98)</title></rect><rect x="96" y="193.483" width="6" height="6.51731" stroke="black" stroke-width="1" fill="blue" opacity="1" tooltip="enable"><title>(0.0104811,96)</title></rect><rect x="102" y="195.587" width="6" height="4.41276" stroke="black" stroke-width="1" fill="blue" opacity="1" tooltip="enable"><title>(0.0111361,65)</title></rect><rect x="108" y="194.094" width="6" height="5.90631" stroke="black" stroke-width="1" fill="blue" opacity="1" tooltip="enable"><title>(0.0117912,87)</title></rect><rect x="114" y="195.655" width="6" height="4.34487" stroke="black" stroke-width="1" fill="blue" opacity="1" tooltip="enable"><title>(0.0124463,64)</title></rect><rect x="120" y="194.637" width="6" height="5.3632" stroke="black" stroke-width="1" fill="blue" opacity="1" tooltip="enable"><title>(0.0131013,79)</title></rect><rect x="126" y="194.908" width="6" height="5.09165" stroke="black" stroke-width="1" fill="blue" opacity="1" tooltip="enable"><title>(0.0137564,75)</title></rect><rect x="132" y="195.112" width="6" height="4.88798" stroke="black" stroke-width="1" fill="blue" opacity="1" tooltip="enable"><title>(0.0144115,72)</title></rect><rect x="138" y="195.519" width="6" height="4.48065" stroke="black" stroke-width="1" fill="blue" opacity="1" tooltip="enable"><title>(0.0150665,66)</title></rect><rect x="144" y="195.112" width="6" height="4.88798" stroke="black" stroke-width="1" fill="blue" opacity="1" tooltip="enable"><title>(0.0157216,72)</title></rect><rect x="150" y="195.655" width="6" height="4.34487" stroke="black" stroke-width="1" fill="blue" opacity="1" tooltip="enable"><title>(0.0163766,64)</title></rect><rect x="156" y="196.062" width="6" height="3.93754" stroke="black" stroke-width="1" fill="blue" opacity="1" tooltip="enable"><title>(0.0170317,58)</title></rect><rect x="162" y="195.859" width="6" height="4.14121" stroke="black" stroke-width="1" fill="blue" opacity="1" tooltip="enable"><title>(0.0176868,61)</title></rect><rect x="168" y="196.538" width="6" height="3.46232" stroke="black" stroke-width="1" fill="blue" opacity="1" tooltip="enable"><title>(0.0183418,51)</title></rect><rect x="174" y="197.013" width="6" height="2.9871" stroke="black" stroke-width="1" fill="blue" opacity="1" tooltip="enable"><title>(0.0189969,44)</title></rect><rect x="180" y="197.556" width="6" height="2.44399" stroke="black" stroke-width="1" fill="blue" opacity="1" tooltip="enable"><title>(0.019652,36)</title></rect><rect x="186" y="197.692" width="6" height="2.30821" stroke="black" stroke-width="1" fill="blue" opacity="1" tooltip="enable"><title>(0.020307,34)</title></rect><rect x="192" y="196.606" width="6" height="3.39443" stroke="black" stroke-width="1" fill="blue" opacity="1" tooltip="enable"><title>(0.0209621,50)</title></rect><rect x="198" y="196.809" width="6" height="3.19077" stroke="black" stroke-width="1" fill="blue" opacity="1" tooltip="enable"><title>(0.0216172,47)</title></rect><rect x="204" y="196.673" width="6" height="3.32654" stroke="black" stroke-width="1" fill="blue" opacity="1" tooltip="enable"><title>(0.0222722,49)</title></rect><rect x="210" y="197.963" width="6" height="2.03666" stroke="black" stroke-width="1" fill="blue" opacity="1" tooltip="enable"><title>(0.0229273,30)</title></rect><rect x="216" y="197.624" width="6" height="2.3761" stroke="black" stroke-width="1" fill="blue" opacity="1" tooltip="enable"><title>(0.0235824,35)</title></rect><rect x="222" y="198.167" width="6" height="1.83299" stroke="black" stroke-width="1" fill="blue" opacity="1" tooltip="enable"><title>(0.0242374,27)</title></rect><rect x="228" y="196.47" width="6" height="3.53021" stroke="black" stroke-width="1" fill="blue" opacity="1" tooltip="enable"><title>(0.0248925,52)</title></rect><rect x="234" y="198.031" width="6" height="1.96877" stroke="black" stroke-width="1" fill="blue" opacity="1" tooltip="enable"><title>(0.0255476,29)</title></rect><rect x="240" y="197.488" width="6" height="2.51188" stroke="black" stroke-width="1" fill="blue" opacity="1" tooltip="enable"><title>(0.0262026,37)</title></rect><rect x="246" y="198.642" width="6" height="1.35777" stroke="black" stroke-width="1" fill="blue" opacity="1" tooltip="enable"><title>(0.0268577,20)</title></rect><rect x="252" y="197.895" width="6" height="2.10455" stroke="black" stroke-width="1" fill="blue" opacity="1" tooltip="enable"><title>(0.0275128,31)</title></rect><rect x="258" y="198.439" width="6" height="1.56144" stroke="black" stroke-width="1" fill="blue" opacity="1" tooltip="enable"><title>(0.0281678,23)</title></rect><rect x="264" y="197.895" width="6" height="2.10455" stroke="black" stroke-width="1" fill="blue" opacity="1" tooltip="enable"><title>(0.0288229,31)</title></rect><rect x="270" y="199.253" width="6" height="0.746775" stroke="black" stroke-width="1" fill="blue" opacity="1" tooltip="enable"><title>(0.029478,11)</title></rect><rect x="276" y="198.506" width="6" height="1.49355" stroke="black" stroke-width="1" fill="blue" opacity="1" tooltip="enable"><title>(0.030133,22)</title></rect><rect x="282" y="198.642" width="6" height="1.35777" stroke="black" stroke-width="1" fill="blue" opacity="1" tooltip="enable"><title>(0.0307881,20)</title></rect><rect x="288" y="198.642" width="6" height="1.35777" stroke="black" stroke-width="1" fill="blue" opacity="1" tooltip="enable"><title>(0.0314432,20)</title></rect><rect x="294" y="198.371" width="6" height="1.62933" stroke="black" stroke-width="1" fill="blue" opacity="1" tooltip="enable"><title>(0.0320982,24)</title></rect><rect x="300" y="198.371" width="6" height="1.62933" stroke="black" stroke-width="1" fill="blue" opacity="1" tooltip="enable"><title>(0.0327533,24)</title></rect><rect x="306" y="198.235" width="6" height="1.76511" stroke="black" stroke-width="1" fill="blue" opacity="1" tooltip="enable"><title>(0.0334084,26)</title></rect><rect x="312" y="198.574" width="6" height="1.42566" stroke="black" stroke-width="1" fill="blue" opacity="1" tooltip="enable"><title>(0.0340634,21)</title></rect><rect x="318" y="199.117" width="6" height="0.882553" stroke="black" stroke-width="1" fill="blue" opacity="1" tooltip="enable"><title>(0.0347185,13)</title></rect><rect x="324" y="199.117" width="6" height="0.882553" stroke="black" stroke-width="1" fill="blue" opacity="1" tooltip="enable"><title>(0.0353736,13)</title></rect><rect x="330" y="198.982" width="6" height="1.01833" stroke="black" stroke-width="1" fill="blue" opacity="1" tooltip="enable"><title>(0.0360286,15)</title></rect><rect x="336" y="199.457" width="6" height="0.543109" stroke="black" stroke-width="1" fill="blue" opacity="1" tooltip="enable"><title>(0.0366837,8)</title></rect><rect x="342" y="199.389" width="6" height="0.610998" stroke="black" stroke-width="1" fill="blue" opacity="1" tooltip="enable"><title>(0.0373388,9)</title></rect><rect x="348" y="199.05" width="6" height="0.950441" stroke="black" stroke-width="1" fill="blue" opacity="1" tooltip="enable"><title>(0.0379938,14)</title></rect><rect x="354" y="198.846" width="6" height="1.15411" stroke="black" stroke-width="1" fill="blue" opacity="1" tooltip="enable"><title>(0.0386489,17)</title></rect><rect x="360" y="199.457" width="6" height="0.543109" stroke="black" stroke-width="1" fill="blue" opacity="1" tooltip="enable"><title>(0.039304,8)</title></rect><rect x="366" y="199.457" width="6" height="0.543109" stroke="black" stroke-width="1" fill="blue" opacity="1" tooltip="enable"><title>(0.039959,8)</title></rect><rect x="372" y="198.914" width="6" height="1.08622" stroke="black" stroke-width="1" fill="blue" opacity="1" tooltip="enable"><title>(0.0406141,16)</title></rect><rect x="378" y="199.593" width="6" height="0.407332" stroke="black" stroke-width="1" fill="blue" opacity="1" tooltip="enable"><title>(0.0412692,6)</title></rect><rect x="384" y="199.525" width="6" height="0.475221" stroke="black" stroke-width="1" fill="blue" opacity="1" tooltip="enable"><title>(0.0419242,7)</title></rect><rect x="390" y="199.389" width="6" height="0.610998" stroke="black" stroke-width="1" fill="blue" opacity="1" tooltip="enable"><title>(0.0425793,9)</title></rect><rect x="396" y="198.778" width="6" height="1.222" stroke="black" stroke-width="1" fill="blue" opacity="1" tooltip="enable"><title>(0.0432344,18)</title></rect><rect x="402" y="199.864" width="6" height="0.135777" stroke="black" stroke-width="1" fill="blue" opacity="1" tooltip="enable"><title>(0.0438894,2)</title></rect><rect x="408" y="199.321" width="6" height="0.678887" stroke="black" stroke-width="1" fill="blue" opacity="1" tooltip="enable"><title>(0.0445445,10)</title></rect><rect x="414" y="199.321" width="6" height="0.678887" stroke="black" stroke-width="1" fill="blue" opacity="1" tooltip="enable"><title>(0.0451996,10)</title></rect><rect x="420" y="199.661" width="6" height="0.339443" stroke="black" stroke-width="1" fill="blue" opacity="1" tooltip="enable"><title>(0.0458546,5)</title></rect><rect x="426" y="199.321" width="6" height="0.678887" stroke="black" stroke-width="1" fill="blue" opacity="1" tooltip="enable"><title>(0.0465097,10)</title></rect><rect x="432" y="199.796" width="6" height="0.203666" stroke="black" stroke-width="1" fill="blue" opacity="1" tooltip="enable"><title>(0.0471648,3)</title></rect><rect x="438" y="199.457" width="6" height="0.543109" stroke="black" stroke-width="1" fill="blue" opacity="1" tooltip="enable"><title>(0.0478198,8)</title></rect><rect x="444" y="199.864" width="6" height="0.135777" stroke="black" stroke-width="1" fill="blue" opacity="1" tooltip="enable"><title>(0.0484749,2)</title></rect><rect x="450" y="199.728" width="6" height="0.271555" stroke="black" stroke-width="1" fill="blue" opacity="1" tooltip="enable"><title>(0.0491299,4)</title></rect><rect x="456" y="200" width="6" height="0" stroke="black" stroke-width="1" fill="blue" opacity="1" tooltip="enable"><title>(0.049785,0)</title></rect><rect x="462" y="200" width="6" height="0" stroke="black" stroke-width="1" fill="blue" opacity="1" tooltip="enable"><title>(0.0504401,0)</title></rect><rect x="468" y="199.457" width="6" height="0.543109" stroke="black" stroke-width="1" fill="blue" opacity="1" tooltip="enable"><title>(0.0510951,8)</title></rect><rect x="474" y="200" width="6" height="0" stroke="black" stroke-width="1" fill="blue" opacity="1" tooltip="enable"><title>(0.0517502,0)</title></rect><rect x="480" y="200" width="6" height="0" stroke="black" stroke-width="1" fill="blue" opacity="1" tooltip="enable"><title>(0.0524053,0)</title></rect><rect x="486" y="199.864" width="6" height="0.135777" stroke="black" stroke-width="1" fill="blue" opacity="1" tooltip="enable"><title>(0.0530603,2)</title></rect><rect x="492" y="199.864" width="6" height="0.135777" stroke="black" stroke-width="1" fill="blue" opacity="1" tooltip="enable"><title>(0.0537154,2)</title></rect><rect x="498" y="199.457" width="6" height="0.543109" stroke="black" stroke-width="1" fill="blue" opacity="1" tooltip="enable"><title>(0.0543705,8)</title></rect><rect x="504" y="199.864" width="6" height="0.135777" stroke="black" stroke-width="1" fill="blue" opacity="1" tooltip="enable"><title>(0.0550255,2)</title></rect><rect x="510" y="199.728" width="6" height="0.271555" stroke="black" stroke-width="1" fill="blue" opacity="1" tooltip="enable"><title>(0.0556806,4)</title></rect><rect x="516" y="200" width="6" height="0" stroke="black" stroke-width="1" fill="blue" opacity="1" tooltip="enable"><title>(0.0563357,0)</title></rect><rect x="522" y="200" width="6" height="0" stroke="black" stroke-width="1" fill="blue" opacity="1" tooltip="enable"><title>(0.0569907,0)</title></rect><rect x="528" y="200" width="6" height="0" stroke="black" stroke-width="1" fill="blue" opacity="1" tooltip="enable"><title>(0.0576458,0)</title></rect><rect x="534" y="200" width="6" height="0" stroke="black" stroke-width="1" fill="blue" opacity="1" tooltip="enable"><title>(0.0583009,0)</title></rect><rect x="540" y="200" width="6" height="0" stroke="black" stroke-width="1" fill="blue" opacity="1" tooltip="enable"><title>(0.0589559,0)</title></rect><rect x="546" y="199.864" width="6" height="0.135777" stroke="black" stroke-width="1" fill="blue" opacity="1" tooltip="enable"><title>(0.059611,2)</title></rect><rect x="552" y="199.864" width="6" height="0.135777" stroke="black" stroke-width="1" fill="blue" opacity="1" tooltip="enable"><title>(0.0602661,2)</title></rect><rect x="558" y="199.864" width="6" height="0.135777" stroke="black" stroke-width="1" fill="blue" opacity="1" tooltip="enable"><title>(0.0609211,2)</title></rect><rect x="564" y="200" width="6" height="0" stroke="black" stroke-width="1" fill="blue" opacity="1" tooltip="enable"><title>(0.0615762,0)</title></rect><rect x="570" y="200" width="6" height="0" stroke="black" stroke-width="1" fill="blue" opacity="1" tooltip="enable"><title>(0.0622313,0)</title></rect><rect x="576" y="200" width="6" height="0" stroke="black" stroke-width="1" fill="blue" opacity="1" tooltip="enable"><title>(0.0628863,0)</title></rect><rect x="582" y="200" width="6" height="0" stroke="black" stroke-width="1" fill="blue" opacity="1" tooltip="enable"><title>(0.0635414,0)</title></rect><rect x="588" y="200" width="6" height="0" stroke="black" stroke-width="1" fill="blue" opacity="1" tooltip="enable"><title>(0.0641965,0)</title></rect><rect x="594" y="199.932" width="6" height="0.0678887" stroke="black" stroke-width="1" fill="blue" opacity="1" tooltip="enable"><title>(0.0648515,1)</title></rect><text x="30" y="240" font-size="20" fill="black">0</text>
<text x="600" y="240" font-size="20" fill="black">0.0655066</text>
<polyline points="0,220,600,220" stroke="black" stroke-width="1" fill="none" opacity="1"/>
<text x="720" y="20" font-size="20" fill="black">2946</text>
<text x="720" y="200" font-size="20" fill="black">0</text>
<polyline points="660,0,660,200" stroke="black" stroke-width="1" fill="none" opacity="1"/>
</svg>