<?xml version="1.0" standalone="yes"?>
<!-- SVG graphic -->
<svg xmlns='http://www.w3.org/2000/svg' xmlns:xlink='http://www.w3.org/1999/xlink'
 version="1.1">
<rect x="0" y="0" width="6" height="200" stroke="black" stroke-width="1" fill="blue" opacity="1" tooltip="enable"><title>(0,3199)</title></rect><rect x="6" y="124.852" width="6" height="75.1485" stroke="black" stroke-width="1" fill="blue" opacity="1" tooltip="enable"><title>(0.00214852,1202)</title></rect><rect x="12" y="186.996" width="6" height="13.0041" stroke="black" stroke-width="1" fill="blue" opacity="1" tooltip="enable"><title>(0.00429704,208)</title></rect><rect x="18" y="187.871" width="6" height="12.1288" stroke="black" stroke-width="1" fill="blue" opacity="1" tooltip="enable"><title>(0.00644557,194)</title></rect><rect x="24" y="188.309" width="6" height="11.6912" stroke="black" stroke-width="1" fill="blue" opacity="1" tooltip="enable"><title>(0.00859409,187)</title></rect><rect x="30" y="187.746" width="6" height="12.2538" stroke="black" stroke-width="1" fill="blue" opacity="1" tooltip="enable"><title>(0.0107426,196)</title></rect><rect x="36" y="186.621" width="6" height="13.3792" stroke="black" stroke-width="1" fill="blue" opacity="1" tooltip="enable"><title>(0.0128911,214)</title></rect><rect x="42" y="186.246" width="6" height="13.7543" stroke="black" stroke-width="1" fill="blue" opacity="1" tooltip="enable"><title>(0.0150397,220)</title></rect><rect x="48" y="189.372" width="6" height="10.6283" stroke="black" stroke-width="1" fill="blue" opacity="1" tooltip="enable"><title>(0.0171882,170)</title></rect><rect x="54" y="187.246" width="6" height="12.754" stroke="black" stroke-width="1" fill="blue" opacity="1" tooltip="enable"><title>(0.0193367,204)</title></rect><rect x="60" y="189.872" width="6" height="10.1282" stroke="black" stroke-width="1" fill="blue" opacity="1" tooltip="enable"><title>(0.0214852,162)</title></rect><rect x="66" y="192.185" width="6" height="7.81494" stroke="black" stroke-width="1" fill="blue" opacity="1" tooltip="enable"><title>(0.0236337,125)</title></rect><rect x="72" y="189.434" width="6" height="10.5658" stroke="black" stroke-width="1" fill="blue" opacity="1" tooltip="enable"><title>(0.0257823,169)</title></rect><rect x="78" y="189.372" width="6" height="10.6283" stroke="black" stroke-width="1" fill="blue" opacity="1" tooltip="enable"><title>(0.0279308,170)</title></rect><rect x="84" y="191.247" width="6" height="8.75274" stroke="black" stroke-width="1" fill="blue" opacity="1" tooltip="enable"><title>(0.0300793,140)</title></rect><rect x="90" y="194.061" width="6" height="5.93936" stroke="black" stroke-width="1" fill="blue" opacity="1" tooltip="enable"><title>(0.0322278,95)</title></rect><rect x="96" y="191.81" width="6" height="8.19006" stroke="black" stroke-width="1" fill="blue" opacity="1" tooltip="enable"><title>(0.0343764,131)</title></rect><rect x="102" y="192.623" width="6" height="7.37731" stroke="black" stroke-width="1" fill="blue" opacity="1" tooltip="enable"><title>(0.0365249,118)</title></rect><rect x="108" y="193.998" width="6" height="6.00188" stroke="black" stroke-width="1" fill="blue" opacity="1" tooltip="enable"><title>(0.0386734,96)</title></rect><rect x="114" y="195.624" width="6" height="4.37637" stroke="black" stroke-width="1" fill="blue" opacity="1" tooltip="enable"><title>(0.0408219,70)</title></rect><rect x="120" y="195.874" width="6" height="4.12629" stroke="black" stroke-width="1" fill="blue" opacity="1" tooltip="enable"><title>(0.0429704,66)</title></rect><rect x="126" y="195.811" width="6" height="4.18881" stroke="black" stroke-width="1" fill="blue" opacity="1" tooltip="enable"><title>(0.045119,67)</title></rect><rect x="132" y="195.686" width="6" height="4.31385" stroke="black" stroke-width="1" fill="blue" opacity="1" tooltip="enable"><title>(0.0472675,69)</title></rect><rect x="138" y="197.374" width="6" height="2.62582" stroke="black" stroke-width="1" fill="blue" opacity="1" tooltip="enable"><title>(0.049416,42)</title></rect><rect x="144" y="196.749" width="6" height="3.25102" stroke="black" stroke-width="1" fill="blue" opacity="1" tooltip="enable"><title>(0.0515645,52)</title></rect><rect x="150" y="196.874" width="6" height="3.12598" stroke="black" stroke-width="1" fill="blue" opacity="1" tooltip="enable"><title>(0.0537131,50)</title></rect><rect x="156" y="196.249" width="6" height="3.75117" stroke="black" stroke-width="1" fill="blue" opacity="1" tooltip="enable"><title>(0.0558616,60)</title></rect><rect x="162" y="197.937" width="6" height="2.06314" stroke="black" stroke-width="1" fill="blue" opacity="1" tooltip="enable"><title>(0.0580101,33)</title></rect><rect x="168" y="196.874" width="6" height="3.12598" stroke="black" stroke-width="1" fill="blue" opacity="1" tooltip="enable"><title>(0.0601586,50)</title></rect><rect x="174" y="196.686" width="6" height="3.31354" stroke="black" stroke-width="1" fill="blue" opacity="1" tooltip="enable"><title>(0.0623071,53)</title></rect><rect x="180" y="196.561" width="6" height="3.43857" stroke="black" stroke-width="1" fill="blue" opacity="1" tooltip="enable"><title>(0.0644557,55)</title></rect><rect x="186" y="197.937" width="6" height="2.06314" stroke="black" stroke-width="1" fill="blue" opacity="1" tooltip="enable"><title>(0.0666042,33)</title></rect><rect x="192" y="197.749" width="6" height="2.2507" stroke="black" stroke-width="1" fill="blue" opacity="1" tooltip="enable"><title>(0.0687527,36)</title></rect><rect x="198" y="198.75" width="6" height="1.25039" stroke="black" stroke-width="1" fill="blue" opacity="1" tooltip="enable"><title>(0.0709012,20)</title></rect><rect x="204" y="198.875" width="6" height="1.12535" stroke="black" stroke-width="1" fill="blue" opacity="1" tooltip="enable"><title>(0.0730498,18)</title></rect><rect x="210" y="199.375" width="6" height="0.625195" stroke="black" stroke-width="1" fill="blue" opacity="1" tooltip="enable"><title>(0.0751983,10)</title></rect><rect x="216" y="199.625" width="6" height="0.375117" stroke="black" stroke-width="1" fill="blue" opacity="1" tooltip="enable"><title>(0.0773468,6)</title></rect><rect x="222" y="199.625" width="6" height="0.375117" stroke="black" stroke-width="1" fill="blue" opacity="1" tooltip="enable"><title>(0.0794953,6)</title></rect><rect x="228" y="199.875" width="6" height="0.125039" stroke="black" stroke-width="1" fill="blue" opacity="1" tooltip="enable"><title>(0.0816438,2)</title></rect><rect x="234" y="200" width="6" height="0" stroke="black" stroke-width="1" fill="blue" opacity="1" tooltip="enable"><title>(0.0837924,0)</title></rect><rect x="240" y="200" width="6" height="0" stroke="black" stroke-width="1" fill="blue" opacity="1" tooltip="enable"><title>(0.0859409,0)</title></rect><rect x="246" y="200" width="6" height="0" stroke="black" stroke-width="1" fill="blue" opacity="1" tooltip="enable"><title>(0.0880894,0)</title></rect><rect x="252" y="200" width="6" height="0" stroke="black" stroke-width="1" fill="blue" opacity="1" tooltip="enable"><title>(0.0902379,0)</title></rect><rect x="258" y="200" width="6" height="0" stroke="black" stroke-width="1" fill="blue" opacity="1" tooltip="enable"><title>(0.0923865,0)</title></rect><rect x="264" y="200" width="6" height="0" stroke="black" stroke-width="1" fill="blue" opacity="1" tooltip="enable"><title>(0.094535,0)</title></rect><rect x="270" y="200" width="6" height="0" stroke="black" stroke-width="1" fill="blue" opacity="1" tooltip="enable"><title>(0.0966835,0)</title></rect><rect x="276" y="200" width="6" height="0" stroke="black" stroke-width="1" fill="blue" opacity="1" tooltip="enable"><title>(0.098832,0)</title></rect><rect x="282" y="200" width="6" height="0" stroke="black" stroke-width="1" fill="blue" opacity="1" tooltip="enable"><title>(0.100981,0)</title></rect><rect x="288" y="200" width="6" height="0" stroke="black" stroke-width="1" fill="blue" opacity="1" tooltip="enable"><title>(0.103129,0)</title></rect><rect x="294" y="200" width="6" height="0" stroke="black" stroke-width="1" fill="blue" opacity="1" tooltip="enable"><title>(0.105278,0)</title></rect><rect x="300" y="200" width="6" height="0" stroke="black" stroke-width="1" fill="blue" opacity="1" tooltip="enable"><title>(0.107426,0)</title></rect><rect x="306" y="200" width="6" height="0" stroke="black" stroke-width="1" fill="blue" opacity="1" tooltip="enable"><title>(0.109575,0)</title></rect><rect x="312" y="200" width="6" height="0" stroke="black" stroke-width="1" fill="blue" opacity="1" tooltip="enable"><title>(0.111723,0)</title></rect><rect x="318" y="200" width="6" height="0" stroke="black" stroke-width="1" fill="blue" opacity="1" tooltip="enable"><title>(0.113872,0)</title></rect><rect x="324" y="200" width="6" height="0" stroke="black" stroke-width="1" fill="blue" opacity="1" tooltip="enable"><title>(0.11602,0)</title></rect><rect x="330" y="200" width="6" height="0" stroke="black" stroke-width="1" fill="blue" opacity="1" tooltip="enable"><title>(0.118169,0)</title></rect><rect x="336" y="200" width="6" height="0" stroke="black" stroke-width="1" fill="blue" opacity="1" tooltip="enable"><title>(0.120317,0)</title></rect><rect x="342" y="200" width="6" height="0" stroke="black" stroke-width="1" fill="blue" opacity="1" tooltip="enable"><title>(0.122466,0)</title></rect><rect x="348" y="200" width="6" height="0" stroke="black" stroke-width="1" fill="blue" opacity="1" tooltip="enable"><title>(0.124614,0)</title></rect><rect x="354" y="200" width="6" height="0" stroke="black" stroke-width="1" fill="blue" opacity="1" tooltip="enable"><title>(0.126763,0)</title></rect><rect x="360" y="200" width="6" height="0" stroke="black" stroke-width="1" fill="blue" opacity="1" tooltip="enable"><title>(0.128911,0)</title></rect><rect x="366" y="200" width="6" height="0" stroke="black" stroke-width="1" fill="blue" opacity="1" tooltip="enable"><title>(0.13106,0)</title></rect><rect x="372" y="200" width="6" height="0" stroke="black" stroke-width="1" fill="blue" opacity="1" tooltip="enable"><title>(0.133208,0)</title></rect><rect x="378" y="200" width="6" height="0" stroke="black" stroke-width="1" fill="blue" opacity="1" tooltip="enable"><title>(0.135357,0)</title></rect><rect x="384" y="200" width="6" height="0" stroke="black" stroke-width="1" fill="blue" opacity="1" tooltip="enable"><title>(0.137505,0)</title></rect><rect x="390" y="200" width="6" height="0" stroke="black" stroke-width="1" fill="blue" opacity="1" tooltip="enable"><title>(0.139654,0)</title></rect><rect x="396" y="200" width="6" height="0" stroke="black" stroke-width="1" fill="blue" opacity="1" tooltip="enable"><title>(0.141802,0)</title></rect><rect x="402" y="200" width="6" height="0" stroke="black" stroke-width="1" fill="blue" opacity="1" tooltip="enable"><title>(0.143951,0)</title></rect><rect x="408" y="200" width="6" height="0" stroke="black" stroke-width="1" fill="blue" opacity="1" tooltip="enable"><title>(0.1461,0)</title></rect><rect x="414" y="200" width="6" height="0" stroke="black" stroke-width="1" fill="blue" opacity="1" tooltip="enable"><title>(0.148248,0)</title></rect><rect x="420" y="200" width="6" height="0" stroke="black" stroke-width="1" fill="blue" opacity="1" tooltip="enable"><title>(0.150397,0)</title></rect><rect x="426" y="200" width="6" height="0" stroke="black" stroke-width="1" fill="blue" opacity="1" tooltip="enable"><title>(0.152545,0)</title></rect><rect x="432" y="200" width="6" height="0" stroke="black" stroke-width="1" fill="blue" opacity="1" tooltip="enable"><title>(0.154694,0)</title></rect><rect x="438" y="200" width="6" height="0" stroke="black" stroke-width="1" fill="blue" opacity="1" tooltip="enable"><title>(0.156842,0)</title></rect><rect x="444" y="200" width="6" height="0" stroke="black" stroke-width="1" fill="blue" opacity="1" tooltip="enable"><title>(0.158991,0)</title></rect><rect x="450" y="200" width="6" height="0" stroke="black" stroke-width="1" fill="blue" opacity="1" tooltip="enable"><title>(0.161139,0)</title></rect><rect x="456" y="200" width="6" height="0" stroke="black" stroke-width="1" fill="blue" opacity="1" tooltip="enable"><title>(0.163288,0)</title></rect><rect x="462" y="200" width="6" height="0" stroke="black" stroke-width="1" fill="blue" opacity="1" tooltip="enable"><title>(0.165436,0)</title></rect><rect x="468" y="200" width="6" height="0" stroke="black" stroke-width="1" fill="blue" opacity="1" tooltip="enable"><title>(0.167585,0)</title></rect><rect x="474" y="200" width="6" height="0" stroke="black" stroke-width="1" fill="blue" opacity="1" tooltip="enable"><title>(0.169733,0)</title></rect><rect x="480" y="200" width="6" height="0" stroke="black" stroke-width="1" fill="blue" opacity="1" tooltip="enable"><title>(0.171882,0)</title></rect><rect x="486" y="200" width="6" height="0" stroke="black" stroke-width="1" fill="blue" opacity="1" tooltip="enable"><title>(0.17403,0)</title></rect><rect x="492" y="200" width="6" height="0" stroke="black" stroke-width="1" fill="blue" opacity="1" tooltip="enable"><title>(0.176179,0)</title></rect><rect x="498" y="200" width="6" height="0" stroke="black" stroke-width="1" fill="blue" opacity="1" tooltip="enable"><title>(0.178327,0)</title></rect><rect x="504" y="200" width="6" height="0" stroke="black" stroke-width="1" fill="blue" opacity="1" tooltip="enable"><title>(0.180476,0)</title></rect><rect x="510" y="200" width="6" height="0" stroke="black" stroke-width="1" fill="blue" opacity="1" tooltip="enable"><title>(0.182624,0)</title></rect><rect x="516" y="200" width="6" height="0" stroke="black" stroke-width="1" fill="blue" opacity="1" tooltip="enable"><title>(0.184773,0)</title></rect><rect x="522" y="200" width="6" height="0" stroke="black" stroke-width="1" fill="blue" opacity="1" tooltip="enable"><title>(0.186921,0)</title></rect><rect x="528" y="200" width="6" height="0" stroke="black" stroke-width="1" fill="blue" opacity="1" tooltip="enable"><title>(0.18907,0)</title></rect><rect x="534" y="200" width="6" height="0" stroke="black" stroke-width="1" fill="blue" opacity="1" tooltip="enable"><title>(0.191218,0)</title></rect><rect x="540" y="200" width="6" height="0" stroke="black" stroke-width="1" fill="blue" opacity="1" tooltip="enable"><title>(0.193367,0)</title></rect><rect x="546" y="200" width="6" height="0" stroke="black" stroke-width="1" fill="blue" opacity="1" tooltip="enable"><title>(0.195516,0)</title></rect><rect x="552" y="200" width="6" height="0" stroke="black" stroke-width="1" fill="blue" opacity="1" tooltip="enable"><title>(0.197664,0)</title></rect><rect x="558" y="200" width="6" height="0" stroke="black" stroke-width="1" fill="blue" opacity="1" tooltip="enable"><title>(0.199813,0)</title></rect><rect x="564" y="200" width="6" height="0" stroke="black" stroke-width="1" fill="blue" opacity="1" tooltip="enable"><title>(0.201961,0)</title></rect><rect x="570" y="200" width="6" height="0" stroke="black" stroke-width="1" fill="blue" opacity="1" tooltip="enable"><title>(0.20411,0)</title></rect><rect x="576" y="200" width="6" height="0" stroke="black" stroke-width="1" fill="blue" opacity="1" tooltip="enable"><title>(0.206258,0)</title></rect><rect x="582" y="200" width="6" height="0" stroke="black" stroke-width="1" fill="blue" opacity="1" tooltip="enable"><title>(0.208407,0)</title></rect><rect x="588" y="200" width="6" height="0" stroke="black" stroke-width="1" fill="blue" opacity="1" tooltip="enable"><title>(0.210555,0)</title></rect><rect x="594" y="199.937" width="6" height="0.0625195" stroke="black" stroke-width="1" fill="blue" opacity="1" tooltip="enable"><title>(0.212704,1)</title></rect><text x="30" y="240" font-size="20" fill="black">0</text>
<text x="600" y="240" font-size="20" fill="black">0.214852</text>
<polyline points="0,220,600,220" stroke="black" stroke-width="1" fill="none" opacity="1"/>
<text x="720" y="20" font-size="20" fill="black">3199</text>
<text x="720" y="200" font-size="20" fill="black">0</text>
<polyline points="660,0,660,200" stroke="black" stroke-width="1" fill="none" opacity="1"/>
</svg>