<?xml version="1.0" standalone="yes"?>
<!-- SVG graphic -->
<svg xmlns='http://www.w3.org/2000/svg' xmlns:xlink='http://www.w3.org/1999/xlink'
 version="1.1">
<rect x="0" y="0" width="6" height="200" stroke="black" stroke-width="1" fill="blue" opacity="1" tooltip="enable"><title>(0,2933)</title></rect><rect x="6" y="124.787" width="6" height="75.2131" stroke="black" stroke-width="1" fill="blue" opacity="1" tooltip="enable"><title>(0.000724964,1103)</title></rect><rect x="12" y="180.975" width="6" height="19.0249" stroke="black" stroke-width="1" fill="blue" opacity="1" tooltip="enable"><title>(0.00144993,279)</title></rect><rect x="18" y="193.931" width="6" height="6.06887" stroke="black" stroke-width="1" fill="blue" opacity="1" tooltip="enable"><title>(0.00217489,89)</title></rect><rect x="24" y="193.181" width="6" height="6.81896" stroke="black" stroke-width="1" fill="blue" opacity="1" tooltip="enable"><title>(0.00289986,100)</title></rect><rect x="30" y="192.908" width="6" height="7.09172" stroke="black" stroke-width="1" fill="blue" opacity="1" tooltip="enable"><title>(0.00362482,104)</title></rect><rect x="36" y="194.272" width="6" height="5.72792" stroke="black" stroke-width="1" fill="blue" opacity="1" tooltip="enable"><title>(0.00434979,84)</title></rect><rect x="42" y="191.817" width="6" height="8.18275" stroke="black" stroke-width="1" fill="blue" opacity="1" tooltip="enable"><title>(0.00507475,120)</title></rect><rect x="48" y="193.181" width="6" height="6.81896" stroke="black" stroke-width="1" fill="blue" opacity="1" tooltip="enable"><title>(0.00579971,100)</title></rect><rect x="54" y="192.158" width="6" height="7.8418" stroke="black" stroke-width="1" fill="blue" opacity="1" tooltip="enable"><title>(0.00652468,115)</title></rect><rect x="60" y="193.181" width="6" height="6.81896" stroke="black" stroke-width="1" fill="blue" opacity="1" tooltip="enable"><title>(0.00724964,100)</title></rect><rect x="66" y="194.068" width="6" height="5.93249" stroke="black" stroke-width="1" fill="blue" opacity="1" tooltip="enable"><title>(0.00797461,87)</title></rect><rect x="72" y="192.499" width="6" height="7.50085" stroke="black" stroke-width="1" fill="blue" opacity="1" tooltip="enable"><title>(0.00869957,110)</title></rect><rect x="78" y="194.136" width="6" height="5.8643" stroke="black" stroke-width="1" fill="blue" opacity="1" tooltip="enable"><title>(0.00942454,86)</title></rect><rect x="84" y="193.454" width="6" height="6.5462" stroke="black" stroke-width="1" fill="blue" opacity="1" tooltip="enable"><title>(0.0101495,96)</title></rect><rect x="90" y="192.976" width="6" height="7.02353" stroke="black" stroke-width="1" fill="blue" opacity="1" tooltip="enable"><title>(0.0108745,103)</title></rect><rect x="96" y="195.022" width="6" height="4.97784" stroke="black" stroke-width="1" fill="blue" opacity="1" tooltip="enable"><title>(0.0115994,73)</title></rect><rect x="102" y="192.772" width="6" height="7.22809" stroke="black" stroke-width="1" fill="blue" opacity="1" tooltip="enable"><title>(0.0123244,106)</title></rect><rect x="108" y="193.999" width="6" height="6.00068" stroke="black" stroke-width="1" fill="blue" opacity="1" tooltip="enable"><title>(0.0130494,88)</title></rect><rect x="114" y="193.658" width="6" height="6.34163" stroke="black" stroke-width="1" fill="blue" opacity="1" tooltip="enable"><title>(0.0137743,93)</title></rect><rect x="120" y="193.658" width="6" height="6.34163" stroke="black" stroke-width="1" fill="blue" opacity="1" tooltip="enable"><title>(0.0144993,93)</title></rect><rect x="126" y="193.045" width="6" height="6.95534" stroke="black" stroke-width="1" fill="blue" opacity="1" tooltip="enable"><title>(0.0152243,102)</title></rect><rect x="132" y="195.909" width="6" height="4.09137" stroke="black" stroke-width="1" fill="blue" opacity="1" tooltip="enable"><title>(0.0159492,60)</title></rect><rect x="138" y="196.727" width="6" height="3.2731" stroke="black" stroke-width="1" fill="blue" opacity="1" tooltip="enable"><title>(0.0166742,48)</title></rect><rect x="144" y="195.159" width="6" height="4.84146" stroke="black" stroke-width="1" fill="blue" opacity="1" tooltip="enable"><title>(0.0173991,71)</title></rect><rect x="150" y="194.068" width="6" height="5.93249" stroke="black" stroke-width="1" fill="blue" opacity="1" tooltip="enable"><title>(0.0181241,87)</title></rect><rect x="156" y="195.227" width="6" height="4.77327" stroke="black" stroke-width="1" fill="blue" opacity="1" tooltip="enable"><title>(0.0188491,70)</title></rect><rect x="162" y="196.318" width="6" height="3.68224" stroke="black" stroke-width="1" fill="blue" opacity="1" tooltip="enable"><title>(0.019574,54)</title></rect><rect x="168" y="195.09" width="6" height="4.90965" stroke="black" stroke-width="1" fill="blue" opacity="1" tooltip="enable"><title>(0.020299,72)</title></rect><rect x="174" y="194.204" width="6" height="5.79611" stroke="black" stroke-width="1" fill="blue" opacity="1" tooltip="enable"><title>(0.021024,85)</title></rect><rect x="180" y="195.704" width="6" height="4.29594" stroke="black" stroke-width="1" fill="blue" opacity="1" tooltip="enable"><title>(0.0217489,63)</title></rect><rect x="186" y="195.363" width="6" height="4.63689" stroke="black" stroke-width="1" fill="blue" opacity="1" tooltip="enable"><title>(0.0224739,68)</title></rect><rect x="192" y="195.022" width="6" height="4.97784" stroke="black" stroke-width="1" fill="blue" opacity="1" tooltip="enable"><title>(0.0231989,73)</title></rect><rect x="198" y="195.227" width="6" height="4.77327" stroke="black" stroke-width="1" fill="blue" opacity="1" tooltip="enable"><title>(0.0239238,70)</title></rect><rect x="204" y="197.477" width="6" height="2.52301" stroke="black" stroke-width="1" fill="blue" opacity="1" tooltip="enable"><title>(0.0246488,37)</title></rect><rect x="210" y="195.363" width="6" height="4.63689" stroke="black" stroke-width="1" fill="blue" opacity="1" tooltip="enable"><title>(0.0253738,68)</title></rect><rect x="216" y="194.272" width="6" height="5.72792" stroke="black" stroke-width="1" fill="blue" opacity="1" tooltip="enable"><title>(0.0260987,84)</title></rect><rect x="222" y="195.772" width="6" height="4.22775" stroke="black" stroke-width="1" fill="blue" opacity="1" tooltip="enable"><title>(0.0268237,62)</title></rect><rect x="228" y="195.227" width="6" height="4.77327" stroke="black" stroke-width="1" fill="blue" opacity="1" tooltip="enable"><title>(0.0275486,70)</title></rect><rect x="234" y="196.591" width="6" height="3.40948" stroke="black" stroke-width="1" fill="blue" opacity="1" tooltip="enable"><title>(0.0282736,50)</title></rect><rect x="240" y="197.068" width="6" height="2.93215" stroke="black" stroke-width="1" fill="blue" opacity="1" tooltip="enable"><title>(0.0289986,43)</title></rect><rect x="246" y="196.045" width="6" height="3.95499" stroke="black" stroke-width="1" fill="blue" opacity="1" tooltip="enable"><title>(0.0297235,58)</title></rect><rect x="252" y="197.613" width="6" height="2.38663" stroke="black" stroke-width="1" fill="blue" opacity="1" tooltip="enable"><title>(0.0304485,35)</title></rect><rect x="258" y="198.091" width="6" height="1.90931" stroke="black" stroke-width="1" fill="blue" opacity="1" tooltip="enable"><title>(0.0311735,28)</title></rect><rect x="264" y="197.682" width="6" height="2.31845" stroke="black" stroke-width="1" fill="blue" opacity="1" tooltip="enable"><title>(0.0318984,34)</title></rect><rect x="270" y="197.204" width="6" height="2.79577" stroke="black" stroke-width="1" fill="blue" opacity="1" tooltip="enable"><title>(0.0326234,41)</title></rect><rect x="276" y="198.023" width="6" height="1.9775" stroke="black" stroke-width="1" fill="blue" opacity="1" tooltip="enable"><title>(0.0333484,29)</title></rect><rect x="282" y="197.818" width="6" height="2.18207" stroke="black" stroke-width="1" fill="blue" opacity="1" tooltip="enable"><title>(0.0340733,32)</title></rect><rect x="288" y="198.227" width="6" height="1.77293" stroke="black" stroke-width="1" fill="blue" opacity="1" tooltip="enable"><title>(0.0347983,26)</title></rect><rect x="294" y="198.568" width="6" height="1.43198" stroke="black" stroke-width="1" fill="blue" opacity="1" tooltip="enable"><title>(0.0355233,21)</title></rect><rect x="300" y="197.818" width="6" height="2.18207" stroke="black" stroke-width="1" fill="blue" opacity="1" tooltip="enable"><title>(0.0362482,32)</title></rect><rect x="306" y="198.159" width="6" height="1.84112" stroke="black" stroke-width="1" fill="blue" opacity="1" tooltip="enable"><title>(0.0369732,27)</title></rect><rect x="312" y="198.5" width="6" height="1.50017" stroke="black" stroke-width="1" fill="blue" opacity="1" tooltip="enable"><title>(0.0376981,22)</title></rect><rect x="318" y="198.704" width="6" height="1.2956" stroke="black" stroke-width="1" fill="blue" opacity="1" tooltip="enable"><title>(0.0384231,19)</title></rect><rect x="324" y="198.841" width="6" height="1.15922" stroke="black" stroke-width="1" fill="blue" opacity="1" tooltip="enable"><title>(0.0391481,17)</title></rect><rect x="330" y="198.159" width="6" height="1.84112" stroke="black" stroke-width="1" fill="blue" opacity="1" tooltip="enable"><title>(0.039873,27)</title></rect><rect x="336" y="198.704" width="6" height="1.2956" stroke="black" stroke-width="1" fill="blue" opacity="1" tooltip="enable"><title>(0.040598,19)</title></rect><rect x="342" y="199.454" width="6" height="0.545517" stroke="black" stroke-width="1" fill="blue" opacity="1" tooltip="enable"><title>(0.041323,8)</title></rect><rect x="348" y="199.182" width="6" height="0.818275" stroke="black" stroke-width="1" fill="blue" opacity="1" tooltip="enable"><title>(0.0420479,12)</title></rect><rect x="354" y="199.386" width="6" height="0.613706" stroke="black" stroke-width="1" fill="blue" opacity="1" tooltip="enable"><title>(0.0427729,9)</title></rect><rect x="360" y="199.523" width="6" height="0.477327" stroke="black" stroke-width="1" fill="blue" opacity="1" tooltip="enable"><title>(0.0434979,7)</title></rect><rect x="366" y="199.727" width="6" height="0.272758" stroke="black" stroke-width="1" fill="blue" opacity="1" tooltip="enable"><title>(0.0442228,4)</title></rect><rect x="372" y="199.182" width="6" height="0.818275" stroke="black" stroke-width="1" fill="blue" opacity="1" tooltip="enable"><title>(0.0449478,12)</title></rect><rect x="378" y="199.591" width="6" height="0.409137" stroke="black" stroke-width="1" fill="blue" opacity="1" tooltip="enable"><title>(0.0456728,6)</title></rect><rect x="384" y="199.727" width="6" height="0.272758" stroke="black" stroke-width="1" fill="blue" opacity="1" tooltip="enable"><title>(0.0463977,4)</title></rect><rect x="390" y="199.864" width="6" height="0.136379" stroke="black" stroke-width="1" fill="blue" opacity="1" tooltip="enable"><title>(0.0471227,2)</title></rect><rect x="396" y="199.591" width="6" height="0.409137" stroke="black" stroke-width="1" fill="blue" opacity="1" tooltip="enable"><title>(0.0478477,6)</title></rect><rect x="402" y="199.114" width="6" height="0.886464" stroke="black" stroke-width="1" fill="blue" opacity="1" tooltip="enable"><title>(0.0485726,13)</title></rect><rect x="408" y="199.523" width="6" height="0.477327" stroke="black" stroke-width="1" fill="blue" opacity="1" tooltip="enable"><title>(0.0492976,7)</title></rect><rect x="414" y="199.454" width="6" height="0.545517" stroke="black" stroke-width="1" fill="blue" opacity="1" tooltip="enable"><title>(0.0500225,8)</title></rect><rect x="420" y="199.454" width="6" height="0.545517" stroke="black" stroke-width="1" fill="blue" opacity="1" tooltip="enable"><title>(0.0507475,8)</title></rect><rect x="426" y="199.591" width="6" height="0.409137" stroke="black" stroke-width="1" fill="blue" opacity="1" tooltip="enable"><title>(0.0514725,6)</title></rect><rect x="432" y="200" width="6" height="0" stroke="black" stroke-width="1" fill="blue" opacity="1" tooltip="enable"><title>(0.0521974,0)</title></rect><rect x="438" y="199.795" width="6" height="0.204569" stroke="black" stroke-width="1" fill="blue" opacity="1" tooltip="enable"><title>(0.0529224,3)</title></rect><rect x="444" y="199.659" width="6" height="0.340948" stroke="black" stroke-width="1" fill="blue" opacity="1" tooltip="enable"><title>(0.0536474,5)</title></rect><rect x="450" y="199.727" width="6" height="0.272758" stroke="black" stroke-width="1" fill="blue" opacity="1" tooltip="enable"><title>(0.0543723,4)</title></rect><rect x="456" y="199.864" width="6" height="0.136379" stroke="black" stroke-width="1" fill="blue" opacity="1" tooltip="enable"><title>(0.0550973,2)</title></rect><rect x="462" y="200" width="6" height="0" stroke="black" stroke-width="1" fill="blue" opacity="1" tooltip="enable"><title>(0.0558223,0)</title></rect><rect x="468" y="200" width="6" height="0" stroke="black" stroke-width="1" fill="blue" opacity="1" tooltip="enable"><title>(0.0565472,0)</title></rect><rect x="474" y="200" width="6" height="0" stroke="black" stroke-width="1" fill="blue" opacity="1" tooltip="enable"><title>(0.0572722,0)</title></rect><rect x="480" y="200" width="6" height="0" stroke="black" stroke-width="1" fill="blue" opacity="1" tooltip="enable"><title>(0.0579971,0)</title></rect><rect x="486" y="200" width="6" height="0" stroke="black" stroke-width="1" fill="blue" opacity="1" tooltip="enable"><title>(0.0587221,0)</title></rect><rect x="492" y="200" width="6" height="0" stroke="black" stroke-width="1" fill="blue" opacity="1" tooltip="enable"><title>(0.0594471,0)</title></rect><rect x="498" y="200" width="6" height="0" stroke="black" stroke-width="1" fill="blue" opacity="1" tooltip="enable"><title>(0.060172,0)</title></rect><rect x="504" y="200" width="6" height="0" stroke="black" stroke-width="1" fill="blue" opacity="1" tooltip="enable"><title>(0.060897,0)</title></rect><rect x="510" y="200" width="6" height="0" stroke="black" stroke-width="1" fill="blue" opacity="1" tooltip="enable"><title>(0.061622,0)</title></rect><rect x="516" y="199.864" width="6" height="0.136379" stroke="black" stroke-width="1" fill="blue" opacity="1" tooltip="enable"><title>(0.0623469,2)</title></rect><rect x="522" y="200" width="6" height="0" stroke="black" stroke-width="1" fill="blue" opacity="1" tooltip="enable"><title>(0.0630719,0)</title></rect><rect x="528" y="200" width="6" height="0" stroke="black" stroke-width="1" fill="blue" opacity="1" tooltip="enable"><title>(0.0637969,0)</title></rect><rect x="534" y="199.864" width="6" height="0.136379" stroke="black" stroke-width="1" fill="blue" opacity="1" tooltip="enable"><title>(0.0645218,2)</title></rect><rect x="540" y="199.864" width="6" height="0.136379" stroke="black" stroke-width="1" fill="blue" opacity="1" tooltip="enable"><title>(0.0652468,2)</title></rect><rect x="546" y="200" width="6" height="0" stroke="black" stroke-width="1" fill="blue" opacity="1" tooltip="enable"><title>(0.0659718,0)</title></rect><rect x="552" y="200" width="6" height="0" stroke="black" stroke-width="1" fill="blue" opacity="1" tooltip="enable"><title>(0.0666967,0)</title></rect><rect x="558" y="200" width="6" height="0" stroke="black" stroke-width="1" fill="blue" opacity="1" tooltip="enable"><title>(0.0674217,0)</title></rect><rect x="564" y="200" width="6" height="0" stroke="black" stroke-width="1" fill="blue" opacity="1" tooltip="enable"><title>(0.0681467,0)</title></rect><rect x="570" y="200" width="6" height="0" stroke="black" stroke-width="1" fill="blue" opacity="1" tooltip="enable"><title>(0.0688716,0)</title></rect><rect x="576" y="200" width="6" height="0" stroke="black" stroke-width="1" fill="blue" opacity="1" tooltip="enable"><title>(0.0695966,0)</title></rect><rect x="582" y="200" width="6" height="0" stroke="black" stroke-width="1" fill="blue" opacity="1" tooltip="enable"><title>(0.0703215,0)</title></rect><rect x="588" y="200" width="6" height="0" stroke="black" stroke-width="1" fill="blue" opacity="1" tooltip="enable"><title>(0.0710465,0)</title></rect><rect x="594" y="199.932" width="6" height="0.0681896" stroke="black" stroke-width="1" fill="blue" opacity="1" tooltip="enable"><title>(0.0717715,1)</title></rect><text x="30" y="240" font-size="20" fill="black">0</text>
<text x="600" y="240" font-size="20" fill="black">0.0724964</text>
<polyline points="0,220,600,220" stroke="black" stroke-width="1" fill="none" opacity="1"/>
<text x="720" y="20" font-size="20" fill="black">2933</text>
<text x="720" y="200" font-size="20" fill="black">0</text>
<polyline points="660,0,660,200" stroke="black" stroke-width="1" fill="none" opacity="1"/>
</svg>