<?xml version="1.0" standalone="yes"?>
<!-- SVG graphic -->
<svg xmlns='http://www.w3.org/2000/svg' xmlns:xlink='http://www.w3.org/1999/xlink'
 version="1.1">
<rect x="0" y="30.2632" width="6" height="169.737" stroke="black" stroke-width="1" fill="blue" opacity="1" tooltip="enable"><title>(0,774)</title></rect><rect x="6" y="16.6667" width="6" height="183.333" stroke="black" stroke-width="1" fill="blue" opacity="1" tooltip="enable"><title>(0.00125532,836)</title></rect><rect x="12" y="0" width="6" height="200" stroke="black" stroke-width="1" fill="blue" opacity="1" tooltip="enable"><title>(0.00251064,912)</title></rect><rect x="18" y="27.4123" width="6" height="172.588" stroke="black" stroke-width="1" fill="blue" opacity="1" tooltip="enable"><title>(0.00376596,787)</title></rect><rect x="24" y="67.7632" width="6" height="132.237" stroke="black" stroke-width="1" fill="blue" opacity="1" tooltip="enable"><title>(0.00502128,603)</title></rect><rect x="30" y="91.0088" width="6" height="108.991" stroke="black" stroke-width="1" fill="blue" opacity="1" tooltip="enable"><title>(0.00627659,497)</title></rect><rect x="36" y="131.14" width="6" height="68.8596" stroke="black" stroke-width="1" fill="blue" opacity="1" tooltip="enable"><title>(0.00753191,314)</title></rect><rect x="42" y="137.5" width="6" height="62.5" stroke="black" stroke-width="1" fill="blue" opacity="1" tooltip="enable"><title>(0.00878723,285)</title></rect><rect x="48" y="159.211" width="6" height="40.7895" stroke="black" stroke-width="1" fill="blue" opacity="1" tooltip="enable"><title>(0.0100426,186)</title></rect><rect x="54" y="162.281" width="6" height="37.7193" stroke="black" stroke-width="1" fill="blue" opacity="1" tooltip="enable"><title>(0.0112979,172)</title></rect><rect x="60" y="160.526" width="6" height="39.4737" stroke="black" stroke-width="1" fill="blue" opacity="1" tooltip="enable"><title>(0.0125532,180)</title></rect><rect x="66" y="166.009" width="6" height="33.9912" stroke="black" stroke-width="1" fill="blue" opacity="1" tooltip="enable"><title>(0.0138085,155)</title></rect><rect x="72" y="166.228" width="6" height="33.7719" stroke="black" stroke-width="1" fill="blue" opacity="1" tooltip="enable"><title>(0.0150638,154)</title></rect><rect x="78" y="162.939" width="6" height="37.0614" stroke="black" stroke-width="1" fill="blue" opacity="1" tooltip="enable"><title>(0.0163191,169)</title></rect><rect x="84" y="166.886" width="6" height="33.114" stroke="black" stroke-width="1" fill="blue" opacity="1" tooltip="enable"><title>(0.0175745,151)</title></rect><rect x="90" y="169.079" width="6" height="30.9211" stroke="black" stroke-width="1" fill="blue" opacity="1" tooltip="enable"><title>(0.0188298,141)</title></rect><rect x="96" y="172.807" width="6" height="27.193" stroke="black" stroke-width="1" fill="blue" opacity="1" tooltip="enable"><title>(0.0200851,124)</title></rect><rect x="102" y="171.491" width="6" height="28.5088" stroke="black" stroke-width="1" fill="blue" opacity="1" tooltip="enable"><title>(0.0213404,130)</title></rect><rect x="108" y="177.193" width="6" height="22.807" stroke="black" stroke-width="1" fill="blue" opacity="1" tooltip="enable"><title>(0.0225957,104)</title></rect><rect x="114" y="180.702" width="6" height="19.2982" stroke="black" stroke-width="1" fill="blue" opacity="1" tooltip="enable"><title>(0.0238511,88)</title></rect><rect x="120" y="175" width="6" height="25" stroke="black" stroke-width="1" fill="blue" opacity="1" tooltip="enable"><title>(0.0251064,114)</title></rect><rect x="126" y="176.316" width="6" height="23.6842" stroke="black" stroke-width="1" fill="blue" opacity="1" tooltip="enable"><title>(0.0263617,108)</title></rect><rect x="132" y="183.772" width="6" height="16.2281" stroke="black" stroke-width="1" fill="blue" opacity="1" tooltip="enable"><title>(0.027617,74)</title></rect><rect x="138" y="177.193" width="6" height="22.807" stroke="black" stroke-width="1" fill="blue" opacity="1" tooltip="enable"><title>(0.0288723,104)</title></rect><rect x="144" y="181.14" width="6" height="18.8596" stroke="black" stroke-width="1" fill="blue" opacity="1" tooltip="enable"><title>(0.0301277,86)</title></rect><rect x="150" y="183.333" width="6" height="16.6667" stroke="black" stroke-width="1" fill="blue" opacity="1" tooltip="enable"><title>(0.031383,76)</title></rect><rect x="156" y="177.851" width="6" height="22.1491" stroke="black" stroke-width="1" fill="blue" opacity="1" tooltip="enable"><title>(0.0326383,101)</title></rect><rect x="162" y="190.132" width="6" height="9.86842" stroke="black" stroke-width="1" fill="blue" opacity="1" tooltip="enable"><title>(0.0338936,45)</title></rect><rect x="168" y="182.895" width="6" height="17.1053" stroke="black" stroke-width="1" fill="blue" opacity="1" tooltip="enable"><title>(0.0351489,78)</title></rect><rect x="174" y="186.623" width="6" height="13.3772" stroke="black" stroke-width="1" fill="blue" opacity="1" tooltip="enable"><title>(0.0364042,61)</title></rect><rect x="180" y="189.912" width="6" height="10.0877" stroke="black" stroke-width="1" fill="blue" opacity="1" tooltip="enable"><title>(0.0376596,46)</title></rect><rect x="186" y="189.035" width="6" height="10.9649" stroke="black" stroke-width="1" fill="blue" opacity="1" tooltip="enable"><title>(0.0389149,50)</title></rect><rect x="192" y="189.693" width="6" height="10.307" stroke="black" stroke-width="1" fill="blue" opacity="1" tooltip="enable"><title>(0.0401702,47)</title></rect><rect x="198" y="190.789" width="6" height="9.21053" stroke="black" stroke-width="1" fill="blue" opacity="1" tooltip="enable"><title>(0.0414255,42)</title></rect><rect x="204" y="194.298" width="6" height="5.70175" stroke="black" stroke-width="1" fill="blue" opacity="1" tooltip="enable"><title>(0.0426808,26)</title></rect><rect x="210" y="192.763" width="6" height="7.23684" stroke="black" stroke-width="1" fill="blue" opacity="1" tooltip="enable"><title>(0.0439362,33)</title></rect><rect x="216" y="194.518" width="6" height="5.48246" stroke="black" stroke-width="1" fill="blue" opacity="1" tooltip="enable"><title>(0.0451915,25)</title></rect><rect x="222" y="196.491" width="6" height="3.50877" stroke="black" stroke-width="1" fill="blue" opacity="1" tooltip="enable"><title>(0.0464468,16)</title></rect><rect x="228" y="196.053" width="6" height="3.94737" stroke="black" stroke-width="1" fill="blue" opacity="1" tooltip="enable"><title>(0.0477021,18)</title></rect><rect x="234" y="195.614" width="6" height="4.38596" stroke="black" stroke-width="1" fill="blue" opacity="1" tooltip="enable"><title>(0.0489574,20)</title></rect><rect x="240" y="196.93" width="6" height="3.07018" stroke="black" stroke-width="1" fill="blue" opacity="1" tooltip="enable"><title>(0.0502128,14)</title></rect><rect x="246" y="197.807" width="6" height="2.19298" stroke="black" stroke-width="1" fill="blue" opacity="1" tooltip="enable"><title>(0.0514681,10)</title></rect><rect x="252" y="198.246" width="6" height="1.75439" stroke="black" stroke-width="1" fill="blue" opacity="1" tooltip="enable"><title>(0.0527234,8)</title></rect><rect x="258" y="197.807" width="6" height="2.19298" stroke="black" stroke-width="1" fill="blue" opacity="1" tooltip="enable"><title>(0.0539787,10)</title></rect><rect x="264" y="199.561" width="6" height="0.438596" stroke="black" stroke-width="1" fill="blue" opacity="1" tooltip="enable"><title>(0.055234,2)</title></rect><rect x="270" y="198.246" width="6" height="1.75439" stroke="black" stroke-width="1" fill="blue" opacity="1" tooltip="enable"><title>(0.0564894,8)</title></rect><rect x="276" y="198.684" width="6" height="1.31579" stroke="black" stroke-width="1" fill="blue" opacity="1" tooltip="enable"><title>(0.0577447,6)</title></rect><rect x="282" y="200" width="6" height="0" stroke="black" stroke-width="1" fill="blue" opacity="1" tooltip="enable"><title>(0.059,0)</title></rect><rect x="288" y="200" width="6" height="0" stroke="black" stroke-width="1" fill="blue" opacity="1" tooltip="enable"><title>(0.0602553,0)</title></rect><rect x="294" y="200" width="6" height="0" stroke="black" stroke-width="1" fill="blue" opacity="1" tooltip="enable"><title>(0.0615106,0)</title></rect><rect x="300" y="199.561" width="6" height="0.438596" stroke="black" stroke-width="1" fill="blue" opacity="1" tooltip="enable"><title>(0.0627659,2)</title></rect><rect x="306" y="200" width="6" height="0" stroke="black" stroke-width="1" fill="blue" opacity="1" tooltip="enable"><title>(0.0640213,0)</title></rect><rect x="312" y="200" width="6" height="0" stroke="black" stroke-width="1" fill="blue" opacity="1" tooltip="enable"><title>(0.0652766,0)</title></rect><rect x="318" y="200" width="6" height="0" stroke="black" stroke-width="1" fill="blue" opacity="1" tooltip="enable"><title>(0.0665319,0)</title></rect><rect x="324" y="200" width="6" height="0" stroke="black" stroke-width="1" fill="blue" opacity="1" tooltip="enable"><title>(0.0677872,0)</title></rect><rect x="330" y="200" width="6" height="0" stroke="black" stroke-width="1" fill="blue" opacity="1" tooltip="enable"><title>(0.0690425,0)</title></rect><rect x="336" y="200" width="6" height="0" stroke="black" stroke-width="1" fill="blue" opacity="1" tooltip="enable"><title>(0.0702979,0)</title></rect><rect x="342" y="200" width="6" height="0" stroke="black" stroke-width="1" fill="blue" opacity="1" tooltip="enable"><title>(0.0715532,0)</title></rect><rect x="348" y="200" width="6" height="0" stroke="black" stroke-width="1" fill="blue" opacity="1" tooltip="enable"><title>(0.0728085,0)</title></rect><rect x="354" y="200" width="6" height="0" stroke="black" stroke-width="1" fill="blue" opacity="1" tooltip="enable"><title>(0.0740638,0)</title></rect><rect x="360" y="200" width="6" height="0" stroke="black" stroke-width="1" fill="blue" opacity="1" tooltip="enable"><title>(0.0753191,0)</title></rect><rect x="366" y="200" width="6" height="0" stroke="black" stroke-width="1" fill="blue" opacity="1" tooltip="enable"><title>(0.0765745,0)</title></rect><rect x="372" y="200" width="6" height="0" stroke="black" stroke-width="1" fill="blue" opacity="1" tooltip="enable"><title>(0.0778298,0)</title></rect><rect x="378" y="200" width="6" height="0" stroke="black" stroke-width="1" fill="blue" opacity="1" tooltip="enable"><title>(0.0790851,0)</title></rect><rect x="384" y="200" width="6" height="0" stroke="black" stroke-width="1" fill="blue" opacity="1" tooltip="enable"><title>(0.0803404,0)</title></rect><rect x="390" y="200" width="6" height="0" stroke="black" stroke-width="1" fill="blue" opacity="1" tooltip="enable"><title>(0.0815957,0)</title></rect><rect x="396" y="200" width="6" height="0" stroke="black" stroke-width="1" fill="blue" opacity="1" tooltip="enable"><title>(0.0828511,0)</title></rect><rect x="402" y="200" width="6" height="0" stroke="black" stroke-width="1" fill="blue" opacity="1" tooltip="enable"><title>(0.0841064,0)</title></rect><rect x="408" y="200" width="6" height="0" stroke="black" stroke-width="1" fill="blue" opacity="1" tooltip="enable"><title>(0.0853617,0)</title></rect><rect x="414" y="200" width="6" height="0" stroke="black" stroke-width="1" fill="blue" opacity="1" tooltip="enable"><title>(0.086617,0)</title></rect><rect x="420" y="200" width="6" height="0" stroke="black" stroke-width="1" fill="blue" opacity="1" tooltip="enable"><title>(0.0878723,0)</title></rect><rect x="426" y="200" width="6" height="0" stroke="black" stroke-width="1" fill="blue" opacity="1" tooltip="enable"><title>(0.0891276,0)</title></rect><rect x="432" y="199.561" width="6" height="0.438596" stroke="black" stroke-width="1" fill="blue" opacity="1" tooltip="enable"><title>(0.090383,2)</title></rect><rect x="438" y="200" width="6" height="0" stroke="black" stroke-width="1" fill="blue" opacity="1" tooltip="enable"><title>(0.0916383,0)</title></rect><rect x="444" y="200" width="6" height="0" stroke="black" stroke-width="1" fill="blue" opacity="1" tooltip="enable"><title>(0.0928936,0)</title></rect><rect x="450" y="200" width="6" height="0" stroke="black" stroke-width="1" fill="blue" opacity="1" tooltip="enable"><title>(0.0941489,0)</title></rect><rect x="456" y="200" width="6" height="0" stroke="black" stroke-width="1" fill="blue" opacity="1" tooltip="enable"><title>(0.0954042,0)</title></rect><rect x="462" y="200" width="6" height="0" stroke="black" stroke-width="1" fill="blue" opacity="1" tooltip="enable"><title>(0.0966596,0)</title></rect><rect x="468" y="200" width="6" height="0" stroke="black" stroke-width="1" fill="blue" opacity="1" tooltip="enable"><title>(0.0979149,0)</title></rect><rect x="474" y="200" width="6" height="0" stroke="black" stroke-width="1" fill="blue" opacity="1" tooltip="enable"><title>(0.0991702,0)</title></rect><rect x="480" y="200" width="6" height="0" stroke="black" stroke-width="1" fill="blue" opacity="1" tooltip="enable"><title>(0.100426,0)</title></rect><rect x="486" y="200" width="6" height="0" stroke="black" stroke-width="1" fill="blue" opacity="1" tooltip="enable"><title>(0.101681,0)</title></rect><rect x="492" y="200" width="6" height="0" stroke="black" stroke-width="1" fill="blue" opacity="1" tooltip="enable"><title>(0.102936,0)</title></rect><rect x="498" y="200" width="6" height="0" stroke="black" stroke-width="1" fill="blue" opacity="1" tooltip="enable"><title>(0.104191,0)</title></rect><rect x="504" y="199.561" width="6" height="0.438596" stroke="black" stroke-width="1" fill="blue" opacity="1" tooltip="enable"><title>(0.105447,2)</title></rect><rect x="510" y="200" width="6" height="0" stroke="black" stroke-width="1" fill="blue" opacity="1" tooltip="enable"><title>(0.106702,0)</title></rect><rect x="516" y="200" width="6" height="0" stroke="black" stroke-width="1" fill="blue" opacity="1" tooltip="enable"><title>(0.107957,0)</title></rect><rect x="522" y="200" width="6" height="0" stroke="black" stroke-width="1" fill="blue" opacity="1" tooltip="enable"><title>(0.109213,0)</title></rect><rect x="528" y="200" width="6" height="0" stroke="black" stroke-width="1" fill="blue" opacity="1" tooltip="enable"><title>(0.110468,0)</title></rect><rect x="534" y="200" width="6" height="0" stroke="black" stroke-width="1" fill="blue" opacity="1" tooltip="enable"><title>(0.111723,0)</title></rect><rect x="540" y="200" width="6" height="0" stroke="black" stroke-width="1" fill="blue" opacity="1" tooltip="enable"><title>(0.112979,0)</title></rect><rect x="546" y="199.561" width="6" height="0.438596" stroke="black" stroke-width="1" fill="blue" opacity="1" tooltip="enable"><title>(0.114234,2)</title></rect><rect x="552" y="200" width="6" height="0" stroke="black" stroke-width="1" fill="blue" opacity="1" tooltip="enable"><title>(0.115489,0)</title></rect><rect x="558" y="200" width="6" height="0" stroke="black" stroke-width="1" fill="blue" opacity="1" tooltip="enable"><title>(0.116745,0)</title></rect><rect x="564" y="200" width="6" height="0" stroke="black" stroke-width="1" fill="blue" opacity="1" tooltip="enable"><title>(0.118,0)</title></rect><rect x="570" y="200" width="6" height="0" stroke="black" stroke-width="1" fill="blue" opacity="1" tooltip="enable"><title>(0.119255,0)</title></rect><rect x="576" y="200" width="6" height="0" stroke="black" stroke-width="1" fill="blue" opacity="1" tooltip="enable"><title>(0.120511,0)</title></rect><rect x="582" y="200" width="6" height="0" stroke="black" stroke-width="1" fill="blue" opacity="1" tooltip="enable"><title>(0.121766,0)</title></rect><rect x="588" y="200" width="6" height="0" stroke="black" stroke-width="1" fill="blue" opacity="1" tooltip="enable"><title>(0.123021,0)</title></rect><rect x="594" y="199.781" width="6" height="0.219298" stroke="black" stroke-width="1" fill="blue" opacity="1" tooltip="enable"><title>(0.124277,1)</title></rect><text x="30" y="240" font-size="20" fill="black">0</text>
<text x="600" y="240" font-size="20" fill="black">0.125532</text>
<polyline points="0,220,600,220" stroke="black" stroke-width="1" fill="none" opacity="1"/>
<text x="720" y="20" font-size="20" fill="black">912</text>
<text x="720" y="200" font-size="20" fill="black">0</text>
<polyline points="660,0,660,200" stroke="black" stroke-width="1" fill="none" opacity="1"/>
</svg>