<?xml version="1.0" standalone="yes"?>
<!-- SVG graphic -->
<svg xmlns='http://www.w3.org/2000/svg' xmlns:xlink='http://www.w3.org/1999/xlink'
 version="1.1">
<rect x="0" y="0" width="6" height="200" stroke="black" stroke-width="1" fill="blue" opacity="1" tooltip="enable"><title>(0,1923)</title></rect><rect x="6" y="39.7296" width="6" height="160.27" stroke="black" stroke-width="1" fill="blue" opacity="1" tooltip="enable"><title>(0.00176199,1541)</title></rect><rect x="12" y="94.4358" width="6" height="105.564" stroke="black" stroke-width="1" fill="blue" opacity="1" tooltip="enable"><title>(0.00352399,1015)</title></rect><rect x="18" y="154.238" width="6" height="45.7618" stroke="black" stroke-width="1" fill="blue" opacity="1" tooltip="enable"><title>(0.00528598,440)</title></rect><rect x="24" y="171.399" width="6" height="28.6011" stroke="black" stroke-width="1" fill="blue" opacity="1" tooltip="enable"><title>(0.00704797,275)</title></rect><rect x="30" y="174.623" width="6" height="25.377" stroke="black" stroke-width="1" fill="blue" opacity="1" tooltip="enable"><title>(0.00880996,244)</title></rect><rect x="36" y="173.999" width="6" height="26.001" stroke="black" stroke-width="1" fill="blue" opacity="1" tooltip="enable"><title>(0.010572,250)</title></rect><rect x="42" y="178.991" width="6" height="21.0088" stroke="black" stroke-width="1" fill="blue" opacity="1" tooltip="enable"><title>(0.012334,202)</title></rect><rect x="48" y="179.823" width="6" height="20.1768" stroke="black" stroke-width="1" fill="blue" opacity="1" tooltip="enable"><title>(0.0140959,194)</title></rect><rect x="54" y="180.343" width="6" height="19.6568" stroke="black" stroke-width="1" fill="blue" opacity="1" tooltip="enable"><title>(0.0158579,189)</title></rect><rect x="60" y="180.655" width="6" height="19.3448" stroke="black" stroke-width="1" fill="blue" opacity="1" tooltip="enable"><title>(0.0176199,186)</title></rect><rect x="66" y="179.303" width="6" height="20.6968" stroke="black" stroke-width="1" fill="blue" opacity="1" tooltip="enable"><title>(0.0193819,199)</title></rect><rect x="72" y="179.407" width="6" height="20.5928" stroke="black" stroke-width="1" fill="blue" opacity="1" tooltip="enable"><title>(0.0211439,198)</title></rect><rect x="78" y="183.671" width="6" height="16.3287" stroke="black" stroke-width="1" fill="blue" opacity="1" tooltip="enable"><title>(0.0229059,157)</title></rect><rect x="84" y="181.383" width="6" height="18.6167" stroke="black" stroke-width="1" fill="blue" opacity="1" tooltip="enable"><title>(0.0246679,179)</title></rect><rect x="90" y="182.735" width="6" height="17.2647" stroke="black" stroke-width="1" fill="blue" opacity="1" tooltip="enable"><title>(0.0264299,166)</title></rect><rect x="96" y="186.687" width="6" height="13.3125" stroke="black" stroke-width="1" fill="blue" opacity="1" tooltip="enable"><title>(0.0281919,128)</title></rect><rect x="102" y="190.224" width="6" height="9.77639" stroke="black" stroke-width="1" fill="blue" opacity="1" tooltip="enable"><title>(0.0299539,94)</title></rect><rect x="108" y="190.848" width="6" height="9.15237" stroke="black" stroke-width="1" fill="blue" opacity="1" tooltip="enable"><title>(0.0317159,88)</title></rect><rect x="114" y="192.096" width="6" height="7.90432" stroke="black" stroke-width="1" fill="blue" opacity="1" tooltip="enable"><title>(0.0334779,76)</title></rect><rect x="120" y="194.176" width="6" height="5.82423" stroke="black" stroke-width="1" fill="blue" opacity="1" tooltip="enable"><title>(0.0352399,56)</title></rect><rect x="126" y="196.256" width="6" height="3.74415" stroke="black" stroke-width="1" fill="blue" opacity="1" tooltip="enable"><title>(0.0370018,36)</title></rect><rect x="132" y="196.048" width="6" height="3.95216" stroke="black" stroke-width="1" fill="blue" opacity="1" tooltip="enable"><title>(0.0387638,38)</title></rect><rect x="138" y="198.128" width="6" height="1.87207" stroke="black" stroke-width="1" fill="blue" opacity="1" tooltip="enable"><title>(0.0405258,18)</title></rect><rect x="144" y="197.712" width="6" height="2.28809" stroke="black" stroke-width="1" fill="blue" opacity="1" tooltip="enable"><title>(0.0422878,22)</title></rect><rect x="150" y="198.752" width="6" height="1.24805" stroke="black" stroke-width="1" fill="blue" opacity="1" tooltip="enable"><title>(0.0440498,12)</title></rect><rect x="156" y="197.712" width="6" height="2.28809" stroke="black" stroke-width="1" fill="blue" opacity="1" tooltip="enable"><title>(0.0458118,22)</title></rect><rect x="162" y="198.752" width="6" height="1.24805" stroke="black" stroke-width="1" fill="blue" opacity="1" tooltip="enable"><title>(0.0475738,12)</title></rect><rect x="168" y="197.92" width="6" height="2.08008" stroke="black" stroke-width="1" fill="blue" opacity="1" tooltip="enable"><title>(0.0493358,20)</title></rect><rect x="174" y="199.376" width="6" height="0.624025" stroke="black" stroke-width="1" fill="blue" opacity="1" tooltip="enable"><title>(0.0510978,6)</title></rect><rect x="180" y="199.688" width="6" height="0.312012" stroke="black" stroke-width="1" fill="blue" opacity="1" tooltip="enable"><title>(0.0528598,3)</title></rect><rect x="186" y="199.48" width="6" height="0.520021" stroke="black" stroke-width="1" fill="blue" opacity="1" tooltip="enable"><title>(0.0546218,5)</title></rect><rect x="192" y="199.792" width="6" height="0.208008" stroke="black" stroke-width="1" fill="blue" opacity="1" tooltip="enable"><title>(0.0563838,2)</title></rect><rect x="198" y="200" width="6" height="0" stroke="black" stroke-width="1" fill="blue" opacity="1" tooltip="enable"><title>(0.0581458,0)</title></rect><rect x="204" y="199.792" width="6" height="0.208008" stroke="black" stroke-width="1" fill="blue" opacity="1" tooltip="enable"><title>(0.0599078,2)</title></rect><rect x="210" y="200" width="6" height="0" stroke="black" stroke-width="1" fill="blue" opacity="1" tooltip="enable"><title>(0.0616697,0)</title></rect><rect x="216" y="200" width="6" height="0" stroke="black" stroke-width="1" fill="blue" opacity="1" tooltip="enable"><title>(0.0634317,0)</title></rect><rect x="222" y="200" width="6" height="0" stroke="black" stroke-width="1" fill="blue" opacity="1" tooltip="enable"><title>(0.0651937,0)</title></rect><rect x="228" y="200" width="6" height="0" stroke="black" stroke-width="1" fill="blue" opacity="1" tooltip="enable"><title>(0.0669557,0)</title></rect><rect x="234" y="200" width="6" height="0" stroke="black" stroke-width="1" fill="blue" opacity="1" tooltip="enable"><title>(0.0687177,0)</title></rect><rect x="240" y="200" width="6" height="0" stroke="black" stroke-width="1" fill="blue" opacity="1" tooltip="enable"><title>(0.0704797,0)</title></rect><rect x="246" y="200" width="6" height="0" stroke="black" stroke-width="1" fill="blue" opacity="1" tooltip="enable"><title>(0.0722417,0)</title></rect><rect x="252" y="200" width="6" height="0" stroke="black" stroke-width="1" fill="blue" opacity="1" tooltip="enable"><title>(0.0740037,0)</title></rect><rect x="258" y="200" width="6" height="0" stroke="black" stroke-width="1" fill="blue" opacity="1" tooltip="enable"><title>(0.0757657,0)</title></rect><rect x="264" y="200" width="6" height="0" stroke="black" stroke-width="1" fill="blue" opacity="1" tooltip="enable"><title>(0.0775277,0)</title></rect><rect x="270" y="200" width="6" height="0" stroke="black" stroke-width="1" fill="blue" opacity="1" tooltip="enable"><title>(0.0792897,0)</title></rect><rect x="276" y="200" width="6" height="0" stroke="black" stroke-width="1" fill="blue" opacity="1" tooltip="enable"><title>(0.0810517,0)</title></rect><rect x="282" y="200" width="6" height="0" stroke="black" stroke-width="1" fill="blue" opacity="1" tooltip="enable"><title>(0.0828137,0)</title></rect><rect x="288" y="200" width="6" height="0" stroke="black" stroke-width="1" fill="blue" opacity="1" tooltip="enable"><title>(0.0845757,0)</title></rect><rect x="294" y="200" width="6" height="0" stroke="black" stroke-width="1" fill="blue" opacity="1" tooltip="enable"><title>(0.0863377,0)</title></rect><rect x="300" y="200" width="6" height="0" stroke="black" stroke-width="1" fill="blue" opacity="1" tooltip="enable"><title>(0.0880996,0)</title></rect><rect x="306" y="200" width="6" height="0" stroke="black" stroke-width="1" fill="blue" opacity="1" tooltip="enable"><title>(0.0898616,0)</title></rect><rect x="312" y="200" width="6" height="0" stroke="black" stroke-width="1" fill="blue" opacity="1" tooltip="enable"><title>(0.0916236,0)</title></rect><rect x="318" y="200" width="6" height="0" stroke="black" stroke-width="1" fill="blue" opacity="1" tooltip="enable"><title>(0.0933856,0)</title></rect><rect x="324" y="200" width="6" height="0" stroke="black" stroke-width="1" fill="blue" opacity="1" tooltip="enable"><title>(0.0951476,0)</title></rect><rect x="330" y="200" width="6" height="0" stroke="black" stroke-width="1" fill="blue" opacity="1" tooltip="enable"><title>(0.0969096,0)</title></rect><rect x="336" y="200" width="6" height="0" stroke="black" stroke-width="1" fill="blue" opacity="1" tooltip="enable"><title>(0.0986716,0)</title></rect><rect x="342" y="200" width="6" height="0" stroke="black" stroke-width="1" fill="blue" opacity="1" tooltip="enable"><title>(0.100434,0)</title></rect><rect x="348" y="200" width="6" height="0" stroke="black" stroke-width="1" fill="blue" opacity="1" tooltip="enable"><title>(0.102196,0)</title></rect><rect x="354" y="200" width="6" height="0" stroke="black" stroke-width="1" fill="blue" opacity="1" tooltip="enable"><title>(0.103958,0)</title></rect><rect x="360" y="200" width="6" height="0" stroke="black" stroke-width="1" fill="blue" opacity="1" tooltip="enable"><title>(0.10572,0)</title></rect><rect x="366" y="200" width="6" height="0" stroke="black" stroke-width="1" fill="blue" opacity="1" tooltip="enable"><title>(0.107482,0)</title></rect><rect x="372" y="200" width="6" height="0" stroke="black" stroke-width="1" fill="blue" opacity="1" tooltip="enable"><title>(0.109244,0)</title></rect><rect x="378" y="200" width="6" height="0" stroke="black" stroke-width="1" fill="blue" opacity="1" tooltip="enable"><title>(0.111006,0)</title></rect><rect x="384" y="200" width="6" height="0" stroke="black" stroke-width="1" fill="blue" opacity="1" tooltip="enable"><title>(0.112768,0)</title></rect><rect x="390" y="200" width="6" height="0" stroke="black" stroke-width="1" fill="blue" opacity="1" tooltip="enable"><title>(0.11453,0)</title></rect><rect x="396" y="200" width="6" height="0" stroke="black" stroke-width="1" fill="blue" opacity="1" tooltip="enable"><title>(0.116292,0)</title></rect><rect x="402" y="200" width="6" height="0" stroke="black" stroke-width="1" fill="blue" opacity="1" tooltip="enable"><title>(0.118054,0)</title></rect><rect x="408" y="200" width="6" height="0" stroke="black" stroke-width="1" fill="blue" opacity="1" tooltip="enable"><title>(0.119816,0)</title></rect><rect x="414" y="200" width="6" height="0" stroke="black" stroke-width="1" fill="blue" opacity="1" tooltip="enable"><title>(0.121578,0)</title></rect><rect x="420" y="200" width="6" height="0" stroke="black" stroke-width="1" fill="blue" opacity="1" tooltip="enable"><title>(0.123339,0)</title></rect><rect x="426" y="200" width="6" height="0" stroke="black" stroke-width="1" fill="blue" opacity="1" tooltip="enable"><title>(0.125101,0)</title></rect><rect x="432" y="200" width="6" height="0" stroke="black" stroke-width="1" fill="blue" opacity="1" tooltip="enable"><title>(0.126863,0)</title></rect><rect x="438" y="200" width="6" height="0" stroke="black" stroke-width="1" fill="blue" opacity="1" tooltip="enable"><title>(0.128625,0)</title></rect><rect x="444" y="200" width="6" height="0" stroke="black" stroke-width="1" fill="blue" opacity="1" tooltip="enable"><title>(0.130387,0)</title></rect><rect x="450" y="200" width="6" height="0" stroke="black" stroke-width="1" fill="blue" opacity="1" tooltip="enable"><title>(0.132149,0)</title></rect><rect x="456" y="200" width="6" height="0" stroke="black" stroke-width="1" fill="blue" opacity="1" tooltip="enable"><title>(0.133911,0)</title></rect><rect x="462" y="200" width="6" height="0" stroke="black" stroke-width="1" fill="blue" opacity="1" tooltip="enable"><title>(0.135673,0)</title></rect><rect x="468" y="200" width="6" height="0" stroke="black" stroke-width="1" fill="blue" opacity="1" tooltip="enable"><title>(0.137435,0)</title></rect><rect x="474" y="200" width="6" height="0" stroke="black" stroke-width="1" fill="blue" opacity="1" tooltip="enable"><title>(0.139197,0)</title></rect><rect x="480" y="200" width="6" height="0" stroke="black" stroke-width="1" fill="blue" opacity="1" tooltip="enable"><title>(0.140959,0)</title></rect><rect x="486" y="200" width="6" height="0" stroke="black" stroke-width="1" fill="blue" opacity="1" tooltip="enable"><title>(0.142721,0)</title></rect><rect x="492" y="200" width="6" height="0" stroke="black" stroke-width="1" fill="blue" opacity="1" tooltip="enable"><title>(0.144483,0)</title></rect><rect x="498" y="200" width="6" height="0" stroke="black" stroke-width="1" fill="blue" opacity="1" tooltip="enable"><title>(0.146245,0)</title></rect><rect x="504" y="200" width="6" height="0" stroke="black" stroke-width="1" fill="blue" opacity="1" tooltip="enable"><title>(0.148007,0)</title></rect><rect x="510" y="200" width="6" height="0" stroke="black" stroke-width="1" fill="blue" opacity="1" tooltip="enable"><title>(0.149769,0)</title></rect><rect x="516" y="200" width="6" height="0" stroke="black" stroke-width="1" fill="blue" opacity="1" tooltip="enable"><title>(0.151531,0)</title></rect><rect x="522" y="200" width="6" height="0" stroke="black" stroke-width="1" fill="blue" opacity="1" tooltip="enable"><title>(0.153293,0)</title></rect><rect x="528" y="200" width="6" height="0" stroke="black" stroke-width="1" fill="blue" opacity="1" tooltip="enable"><title>(0.155055,0)</title></rect><rect x="534" y="200" width="6" height="0" stroke="black" stroke-width="1" fill="blue" opacity="1" tooltip="enable"><title>(0.156817,0)</title></rect><rect x="540" y="200" width="6" height="0" stroke="black" stroke-width="1" fill="blue" opacity="1" tooltip="enable"><title>(0.158579,0)</title></rect><rect x="546" y="200" width="6" height="0" stroke="black" stroke-width="1" fill="blue" opacity="1" tooltip="enable"><title>(0.160341,0)</title></rect><rect x="552" y="200" width="6" height="0" stroke="black" stroke-width="1" fill="blue" opacity="1" tooltip="enable"><title>(0.162103,0)</title></rect><rect x="558" y="200" width="6" height="0" stroke="black" stroke-width="1" fill="blue" opacity="1" tooltip="enable"><title>(0.163865,0)</title></rect><rect x="564" y="200" width="6" height="0" stroke="black" stroke-width="1" fill="blue" opacity="1" tooltip="enable"><title>(0.165627,0)</title></rect><rect x="570" y="200" width="6" height="0" stroke="black" stroke-width="1" fill="blue" opacity="1" tooltip="enable"><title>(0.167389,0)</title></rect><rect x="576" y="200" width="6" height="0" stroke="black" stroke-width="1" fill="blue" opacity="1" tooltip="enable"><title>(0.169151,0)</title></rect><rect x="582" y="200" width="6" height="0" stroke="black" stroke-width="1" fill="blue" opacity="1" tooltip="enable"><title>(0.170913,0)</title></rect><rect x="588" y="200" width="6" height="0" stroke="black" stroke-width="1" fill="blue" opacity="1" tooltip="enable"><title>(0.172675,0)</title></rect><rect x="594" y="199.896" width="6" height="0.104004" stroke="black" stroke-width="1" fill="blue" opacity="1" tooltip="enable"><title>(0.174437,1)</title></rect><text x="30" y="240" font-size="20" fill="black">0</text>
<text x="600" y="240" font-size="20" fill="black">0.176199</text>
<polyline points="0,220,600,220" stroke="black" stroke-width="1" fill="none" opacity="1"/>
<text x="720" y="20" font-size="20" fill="black">1923</text>
<text x="720" y="200" font-size="20" fill="black">0</text>
<polyline points="660,0,660,200" stroke="black" stroke-width="1" fill="none" opacity="1"/>
</svg>