<?xml version="1.0" standalone="yes"?>
<!-- SVG graphic -->
<svg xmlns='http://www.w3.org/2000/svg' xmlns:xlink='http://www.w3.org/1999/xlink'
 version="1.1">
<rect x="0" y="0" width="6" height="200" stroke="black" stroke-width="1" fill="blue" opacity="1" tooltip="enable"><title>(0,3236)</title></rect><rect x="6" y="127.812" width="6" height="72.1879" stroke="black" stroke-width="1" fill="blue" opacity="1" tooltip="enable"><title>(0.00212841,1168)</title></rect><rect x="12" y="188.504" width="6" height="11.4957" stroke="black" stroke-width="1" fill="blue" opacity="1" tooltip="enable"><title>(0.00425681,186)</title></rect><rect x="18" y="187.515" width="6" height="12.4845" stroke="black" stroke-width="1" fill="blue" opacity="1" tooltip="enable"><title>(0.00638522,202)</title></rect><rect x="24" y="188.504" width="6" height="11.4957" stroke="black" stroke-width="1" fill="blue" opacity="1" tooltip="enable"><title>(0.00851363,186)</title></rect><rect x="30" y="188.381" width="6" height="11.6193" stroke="black" stroke-width="1" fill="blue" opacity="1" tooltip="enable"><title>(0.010642,188)</title></rect><rect x="36" y="186.527" width="6" height="13.4734" stroke="black" stroke-width="1" fill="blue" opacity="1" tooltip="enable"><title>(0.0127704,218)</title></rect><rect x="42" y="186.897" width="6" height="13.1026" stroke="black" stroke-width="1" fill="blue" opacity="1" tooltip="enable"><title>(0.0148988,212)</title></rect><rect x="48" y="188.752" width="6" height="11.2485" stroke="black" stroke-width="1" fill="blue" opacity="1" tooltip="enable"><title>(0.0170273,182)</title></rect><rect x="54" y="188.752" width="6" height="11.2485" stroke="black" stroke-width="1" fill="blue" opacity="1" tooltip="enable"><title>(0.0191557,182)</title></rect><rect x="60" y="189.74" width="6" height="10.2596" stroke="black" stroke-width="1" fill="blue" opacity="1" tooltip="enable"><title>(0.0212841,166)</title></rect><rect x="66" y="191.595" width="6" height="8.40544" stroke="black" stroke-width="1" fill="blue" opacity="1" tooltip="enable"><title>(0.0234125,136)</title></rect><rect x="72" y="190.667" width="6" height="9.33251" stroke="black" stroke-width="1" fill="blue" opacity="1" tooltip="enable"><title>(0.0255409,151)</title></rect><rect x="78" y="188.69" width="6" height="11.3103" stroke="black" stroke-width="1" fill="blue" opacity="1" tooltip="enable"><title>(0.0276693,183)</title></rect><rect x="84" y="191.718" width="6" height="8.28183" stroke="black" stroke-width="1" fill="blue" opacity="1" tooltip="enable"><title>(0.0297977,134)</title></rect><rect x="90" y="193.572" width="6" height="6.42769" stroke="black" stroke-width="1" fill="blue" opacity="1" tooltip="enable"><title>(0.0319261,104)</title></rect><rect x="96" y="192.213" width="6" height="7.78739" stroke="black" stroke-width="1" fill="blue" opacity="1" tooltip="enable"><title>(0.0340545,126)</title></rect><rect x="102" y="192.46" width="6" height="7.54017" stroke="black" stroke-width="1" fill="blue" opacity="1" tooltip="enable"><title>(0.0361829,122)</title></rect><rect x="108" y="193.696" width="6" height="6.30408" stroke="black" stroke-width="1" fill="blue" opacity="1" tooltip="enable"><title>(0.0383113,102)</title></rect><rect x="114" y="195.674" width="6" height="4.32633" stroke="black" stroke-width="1" fill="blue" opacity="1" tooltip="enable"><title>(0.0404397,70)</title></rect><rect x="120" y="195.674" width="6" height="4.32633" stroke="black" stroke-width="1" fill="blue" opacity="1" tooltip="enable"><title>(0.0425681,70)</title></rect><rect x="126" y="195.921" width="6" height="4.07911" stroke="black" stroke-width="1" fill="blue" opacity="1" tooltip="enable"><title>(0.0446965,66)</title></rect><rect x="132" y="195.426" width="6" height="4.57355" stroke="black" stroke-width="1" fill="blue" opacity="1" tooltip="enable"><title>(0.046825,74)</title></rect><rect x="138" y="197.157" width="6" height="2.84302" stroke="black" stroke-width="1" fill="blue" opacity="1" tooltip="enable"><title>(0.0489534,46)</title></rect><rect x="144" y="196.91" width="6" height="3.09023" stroke="black" stroke-width="1" fill="blue" opacity="1" tooltip="enable"><title>(0.0510818,50)</title></rect><rect x="150" y="196.786" width="6" height="3.21384" stroke="black" stroke-width="1" fill="blue" opacity="1" tooltip="enable"><title>(0.0532102,52)</title></rect><rect x="156" y="197.033" width="6" height="2.96663" stroke="black" stroke-width="1" fill="blue" opacity="1" tooltip="enable"><title>(0.0553386,48)</title></rect><rect x="162" y="197.281" width="6" height="2.71941" stroke="black" stroke-width="1" fill="blue" opacity="1" tooltip="enable"><title>(0.057467,44)</title></rect><rect x="168" y="197.651" width="6" height="2.34858" stroke="black" stroke-width="1" fill="blue" opacity="1" tooltip="enable"><title>(0.0595954,38)</title></rect><rect x="174" y="196.23" width="6" height="3.77009" stroke="black" stroke-width="1" fill="blue" opacity="1" tooltip="enable"><title>(0.0617238,61)</title></rect><rect x="180" y="196.477" width="6" height="3.52287" stroke="black" stroke-width="1" fill="blue" opacity="1" tooltip="enable"><title>(0.0638522,57)</title></rect><rect x="186" y="198.022" width="6" height="1.97775" stroke="black" stroke-width="1" fill="blue" opacity="1" tooltip="enable"><title>(0.0659806,32)</title></rect><rect x="192" y="197.899" width="6" height="2.10136" stroke="black" stroke-width="1" fill="blue" opacity="1" tooltip="enable"><title>(0.068109,34)</title></rect><rect x="198" y="198.517" width="6" height="1.48331" stroke="black" stroke-width="1" fill="blue" opacity="1" tooltip="enable"><title>(0.0702374,24)</title></rect><rect x="204" y="198.764" width="6" height="1.23609" stroke="black" stroke-width="1" fill="blue" opacity="1" tooltip="enable"><title>(0.0723658,20)</title></rect><rect x="210" y="199.258" width="6" height="0.741656" stroke="black" stroke-width="1" fill="blue" opacity="1" tooltip="enable"><title>(0.0744942,12)</title></rect><rect x="216" y="199.629" width="6" height="0.370828" stroke="black" stroke-width="1" fill="blue" opacity="1" tooltip="enable"><title>(0.0766227,6)</title></rect><rect x="222" y="199.506" width="6" height="0.494438" stroke="black" stroke-width="1" fill="blue" opacity="1" tooltip="enable"><title>(0.0787511,8)</title></rect><rect x="228" y="199.876" width="6" height="0.123609" stroke="black" stroke-width="1" fill="blue" opacity="1" tooltip="enable"><title>(0.0808795,2)</title></rect><rect x="234" y="200" width="6" height="0" stroke="black" stroke-width="1" fill="blue" opacity="1" tooltip="enable"><title>(0.0830079,0)</title></rect><rect x="240" y="200" width="6" height="0" stroke="black" stroke-width="1" fill="blue" opacity="1" tooltip="enable"><title>(0.0851363,0)</title></rect><rect x="246" y="200" width="6" height="0" stroke="black" stroke-width="1" fill="blue" opacity="1" tooltip="enable"><title>(0.0872647,0)</title></rect><rect x="252" y="200" width="6" height="0" stroke="black" stroke-width="1" fill="blue" opacity="1" tooltip="enable"><title>(0.0893931,0)</title></rect><rect x="258" y="200" width="6" height="0" stroke="black" stroke-width="1" fill="blue" opacity="1" tooltip="enable"><title>(0.0915215,0)</title></rect><rect x="264" y="200" width="6" height="0" stroke="black" stroke-width="1" fill="blue" opacity="1" tooltip="enable"><title>(0.0936499,0)</title></rect><rect x="270" y="200" width="6" height="0" stroke="black" stroke-width="1" fill="blue" opacity="1" tooltip="enable"><title>(0.0957783,0)</title></rect><rect x="276" y="200" width="6" height="0" stroke="black" stroke-width="1" fill="blue" opacity="1" tooltip="enable"><title>(0.0979067,0)</title></rect><rect x="282" y="200" width="6" height="0" stroke="black" stroke-width="1" fill="blue" opacity="1" tooltip="enable"><title>(0.100035,0)</title></rect><rect x="288" y="200" width="6" height="0" stroke="black" stroke-width="1" fill="blue" opacity="1" tooltip="enable"><title>(0.102164,0)</title></rect><rect x="294" y="200" width="6" height="0" stroke="black" stroke-width="1" fill="blue" opacity="1" tooltip="enable"><title>(0.104292,0)</title></rect><rect x="300" y="200" width="6" height="0" stroke="black" stroke-width="1" fill="blue" opacity="1" tooltip="enable"><title>(0.10642,0)</title></rect><rect x="306" y="200" width="6" height="0" stroke="black" stroke-width="1" fill="blue" opacity="1" tooltip="enable"><title>(0.108549,0)</title></rect><rect x="312" y="200" width="6" height="0" stroke="black" stroke-width="1" fill="blue" opacity="1" tooltip="enable"><title>(0.110677,0)</title></rect><rect x="318" y="200" width="6" height="0" stroke="black" stroke-width="1" fill="blue" opacity="1" tooltip="enable"><title>(0.112806,0)</title></rect><rect x="324" y="200" width="6" height="0" stroke="black" stroke-width="1" fill="blue" opacity="1" tooltip="enable"><title>(0.114934,0)</title></rect><rect x="330" y="200" width="6" height="0" stroke="black" stroke-width="1" fill="blue" opacity="1" tooltip="enable"><title>(0.117062,0)</title></rect><rect x="336" y="200" width="6" height="0" stroke="black" stroke-width="1" fill="blue" opacity="1" tooltip="enable"><title>(0.119191,0)</title></rect><rect x="342" y="200" width="6" height="0" stroke="black" stroke-width="1" fill="blue" opacity="1" tooltip="enable"><title>(0.121319,0)</title></rect><rect x="348" y="200" width="6" height="0" stroke="black" stroke-width="1" fill="blue" opacity="1" tooltip="enable"><title>(0.123448,0)</title></rect><rect x="354" y="200" width="6" height="0" stroke="black" stroke-width="1" fill="blue" opacity="1" tooltip="enable"><title>(0.125576,0)</title></rect><rect x="360" y="200" width="6" height="0" stroke="black" stroke-width="1" fill="blue" opacity="1" tooltip="enable"><title>(0.127704,0)</title></rect><rect x="366" y="200" width="6" height="0" stroke="black" stroke-width="1" fill="blue" opacity="1" tooltip="enable"><title>(0.129833,0)</title></rect><rect x="372" y="200" width="6" height="0" stroke="black" stroke-width="1" fill="blue" opacity="1" tooltip="enable"><title>(0.131961,0)</title></rect><rect x="378" y="200" width="6" height="0" stroke="black" stroke-width="1" fill="blue" opacity="1" tooltip="enable"><title>(0.13409,0)</title></rect><rect x="384" y="200" width="6" height="0" stroke="black" stroke-width="1" fill="blue" opacity="1" tooltip="enable"><title>(0.136218,0)</title></rect><rect x="390" y="200" width="6" height="0" stroke="black" stroke-width="1" fill="blue" opacity="1" tooltip="enable"><title>(0.138346,0)</title></rect><rect x="396" y="200" width="6" height="0" stroke="black" stroke-width="1" fill="blue" opacity="1" tooltip="enable"><title>(0.140475,0)</title></rect><rect x="402" y="200" width="6" height="0" stroke="black" stroke-width="1" fill="blue" opacity="1" tooltip="enable"><title>(0.142603,0)</title></rect><rect x="408" y="200" width="6" height="0" stroke="black" stroke-width="1" fill="blue" opacity="1" tooltip="enable"><title>(0.144732,0)</title></rect><rect x="414" y="200" width="6" height="0" stroke="black" stroke-width="1" fill="blue" opacity="1" tooltip="enable"><title>(0.14686,0)</title></rect><rect x="420" y="200" width="6" height="0" stroke="black" stroke-width="1" fill="blue" opacity="1" tooltip="enable"><title>(0.148988,0)</title></rect><rect x="426" y="200" width="6" height="0" stroke="black" stroke-width="1" fill="blue" opacity="1" tooltip="enable"><title>(0.151117,0)</title></rect><rect x="432" y="200" width="6" height="0" stroke="black" stroke-width="1" fill="blue" opacity="1" tooltip="enable"><title>(0.153245,0)</title></rect><rect x="438" y="200" width="6" height="0" stroke="black" stroke-width="1" fill="blue" opacity="1" tooltip="enable"><title>(0.155374,0)</title></rect><rect x="444" y="200" width="6" height="0" stroke="black" stroke-width="1" fill="blue" opacity="1" tooltip="enable"><title>(0.157502,0)</title></rect><rect x="450" y="200" width="6" height="0" stroke="black" stroke-width="1" fill="blue" opacity="1" tooltip="enable"><title>(0.159631,0)</title></rect><rect x="456" y="200" width="6" height="0" stroke="black" stroke-width="1" fill="blue" opacity="1" tooltip="enable"><title>(0.161759,0)</title></rect><rect x="462" y="200" width="6" height="0" stroke="black" stroke-width="1" fill="blue" opacity="1" tooltip="enable"><title>(0.163887,0)</title></rect><rect x="468" y="200" width="6" height="0" stroke="black" stroke-width="1" fill="blue" opacity="1" tooltip="enable"><title>(0.166016,0)</title></rect><rect x="474" y="200" width="6" height="0" stroke="black" stroke-width="1" fill="blue" opacity="1" tooltip="enable"><title>(0.168144,0)</title></rect><rect x="480" y="200" width="6" height="0" stroke="black" stroke-width="1" fill="blue" opacity="1" tooltip="enable"><title>(0.170273,0)</title></rect><rect x="486" y="200" width="6" height="0" stroke="black" stroke-width="1" fill="blue" opacity="1" tooltip="enable"><title>(0.172401,0)</title></rect><rect x="492" y="200" width="6" height="0" stroke="black" stroke-width="1" fill="blue" opacity="1" tooltip="enable"><title>(0.174529,0)</title></rect><rect x="498" y="200" width="6" height="0" stroke="black" stroke-width="1" fill="blue" opacity="1" tooltip="enable"><title>(0.176658,0)</title></rect><rect x="504" y="200" width="6" height="0" stroke="black" stroke-width="1" fill="blue" opacity="1" tooltip="enable"><title>(0.178786,0)</title></rect><rect x="510" y="200" width="6" height="0" stroke="black" stroke-width="1" fill="blue" opacity="1" tooltip="enable"><title>(0.180915,0)</title></rect><rect x="516" y="200" width="6" height="0" stroke="black" stroke-width="1" fill="blue" opacity="1" tooltip="enable"><title>(0.183043,0)</title></rect><rect x="522" y="200" width="6" height="0" stroke="black" stroke-width="1" fill="blue" opacity="1" tooltip="enable"><title>(0.185171,0)</title></rect><rect x="528" y="200" width="6" height="0" stroke="black" stroke-width="1" fill="blue" opacity="1" tooltip="enable"><title>(0.1873,0)</title></rect><rect x="534" y="200" width="6" height="0" stroke="black" stroke-width="1" fill="blue" opacity="1" tooltip="enable"><title>(0.189428,0)</title></rect><rect x="540" y="200" width="6" height="0" stroke="black" stroke-width="1" fill="blue" opacity="1" tooltip="enable"><title>(0.191557,0)</title></rect><rect x="546" y="200" width="6" height="0" stroke="black" stroke-width="1" fill="blue" opacity="1" tooltip="enable"><title>(0.193685,0)</title></rect><rect x="552" y="200" width="6" height="0" stroke="black" stroke-width="1" fill="blue" opacity="1" tooltip="enable"><title>(0.195813,0)</title></rect><rect x="558" y="200" width="6" height="0" stroke="black" stroke-width="1" fill="blue" opacity="1" tooltip="enable"><title>(0.197942,0)</title></rect><rect x="564" y="200" width="6" height="0" stroke="black" stroke-width="1" fill="blue" opacity="1" tooltip="enable"><title>(0.20007,0)</title></rect><rect x="570" y="200" width="6" height="0" stroke="black" stroke-width="1" fill="blue" opacity="1" tooltip="enable"><title>(0.202199,0)</title></rect><rect x="576" y="200" width="6" height="0" stroke="black" stroke-width="1" fill="blue" opacity="1" tooltip="enable"><title>(0.204327,0)</title></rect><rect x="582" y="200" width="6" height="0" stroke="black" stroke-width="1" fill="blue" opacity="1" tooltip="enable"><title>(0.206455,0)</title></rect><rect x="588" y="200" width="6" height="0" stroke="black" stroke-width="1" fill="blue" opacity="1" tooltip="enable"><title>(0.208584,0)</title></rect><rect x="594" y="199.938" width="6" height="0.0618047" stroke="black" stroke-width="1" fill="blue" opacity="1" tooltip="enable"><title>(0.210712,1)</title></rect><text x="30" y="240" font-size="20" fill="black">0</text>
<text x="600" y="240" font-size="20" fill="black">0.212841</text>
<polyline points="0,220,600,220" stroke="black" stroke-width="1" fill="none" opacity="1"/>
<text x="720" y="20" font-size="20" fill="black">3236</text>
<text x="720" y="200" font-size="20" fill="black">0</text>
<polyline points="660,0,660,200" stroke="black" stroke-width="1" fill="none" opacity="1"/>
</svg>