<?xml version="1.0" standalone="yes"?>
<!-- SVG graphic -->
<svg xmlns='http://www.w3.org/2000/svg' xmlns:xlink='http://www.w3.org/1999/xlink'
 version="1.1">
<rect x="0" y="0" width="6" height="200" stroke="black" stroke-width="1" fill="blue" opacity="1" tooltip="enable"><title>(0,1228)</title></rect><rect x="6" y="19.2182" width="6" height="180.782" stroke="black" stroke-width="1" fill="blue" opacity="1" tooltip="enable"><title>(0.00117915,1110)</title></rect><rect x="12" y="40.3909" width="6" height="159.609" stroke="black" stroke-width="1" fill="blue" opacity="1" tooltip="enable"><title>(0.00235831,980)</title></rect><rect x="18" y="97.8827" width="6" height="102.117" stroke="black" stroke-width="1" fill="blue" opacity="1" tooltip="enable"><title>(0.00353746,627)</title></rect><rect x="24" y="138.436" width="6" height="61.5635" stroke="black" stroke-width="1" fill="blue" opacity="1" tooltip="enable"><title>(0.00471661,378)</title></rect><rect x="30" y="164.984" width="6" height="35.0163" stroke="black" stroke-width="1" fill="blue" opacity="1" tooltip="enable"><title>(0.00589577,215)</title></rect><rect x="36" y="168.404" width="6" height="31.5961" stroke="black" stroke-width="1" fill="blue" opacity="1" tooltip="enable"><title>(0.00707492,194)</title></rect><rect x="42" y="171.661" width="6" height="28.3388" stroke="black" stroke-width="1" fill="blue" opacity="1" tooltip="enable"><title>(0.00825407,174)</title></rect><rect x="48" y="178.99" width="6" height="21.0098" stroke="black" stroke-width="1" fill="blue" opacity="1" tooltip="enable"><title>(0.00943322,129)</title></rect><rect x="54" y="179.642" width="6" height="20.3583" stroke="black" stroke-width="1" fill="blue" opacity="1" tooltip="enable"><title>(0.0106124,125)</title></rect><rect x="60" y="182.899" width="6" height="17.101" stroke="black" stroke-width="1" fill="blue" opacity="1" tooltip="enable"><title>(0.0117915,105)</title></rect><rect x="66" y="178.339" width="6" height="21.6612" stroke="black" stroke-width="1" fill="blue" opacity="1" tooltip="enable"><title>(0.0129707,133)</title></rect><rect x="72" y="180.13" width="6" height="19.8697" stroke="black" stroke-width="1" fill="blue" opacity="1" tooltip="enable"><title>(0.0141498,122)</title></rect><rect x="78" y="177.687" width="6" height="22.3127" stroke="black" stroke-width="1" fill="blue" opacity="1" tooltip="enable"><title>(0.015329,137)</title></rect><rect x="84" y="181.27" width="6" height="18.7296" stroke="black" stroke-width="1" fill="blue" opacity="1" tooltip="enable"><title>(0.0165081,115)</title></rect><rect x="90" y="182.41" width="6" height="17.5896" stroke="black" stroke-width="1" fill="blue" opacity="1" tooltip="enable"><title>(0.0176873,108)</title></rect><rect x="96" y="179.805" width="6" height="20.1954" stroke="black" stroke-width="1" fill="blue" opacity="1" tooltip="enable"><title>(0.0188664,124)</title></rect><rect x="102" y="175.896" width="6" height="24.1042" stroke="black" stroke-width="1" fill="blue" opacity="1" tooltip="enable"><title>(0.0200456,148)</title></rect><rect x="108" y="177.524" width="6" height="22.4756" stroke="black" stroke-width="1" fill="blue" opacity="1" tooltip="enable"><title>(0.0212248,138)</title></rect><rect x="114" y="186.645" width="6" height="13.355" stroke="black" stroke-width="1" fill="blue" opacity="1" tooltip="enable"><title>(0.0224039,82)</title></rect><rect x="120" y="181.433" width="6" height="18.5668" stroke="black" stroke-width="1" fill="blue" opacity="1" tooltip="enable"><title>(0.0235831,114)</title></rect><rect x="126" y="187.296" width="6" height="12.7036" stroke="black" stroke-width="1" fill="blue" opacity="1" tooltip="enable"><title>(0.0247622,78)</title></rect><rect x="132" y="186.319" width="6" height="13.6808" stroke="black" stroke-width="1" fill="blue" opacity="1" tooltip="enable"><title>(0.0259414,84)</title></rect><rect x="138" y="185.993" width="6" height="14.0065" stroke="black" stroke-width="1" fill="blue" opacity="1" tooltip="enable"><title>(0.0271205,86)</title></rect><rect x="144" y="185.016" width="6" height="14.9837" stroke="black" stroke-width="1" fill="blue" opacity="1" tooltip="enable"><title>(0.0282997,92)</title></rect><rect x="150" y="186.156" width="6" height="13.8436" stroke="black" stroke-width="1" fill="blue" opacity="1" tooltip="enable"><title>(0.0294788,85)</title></rect><rect x="156" y="185.831" width="6" height="14.1694" stroke="black" stroke-width="1" fill="blue" opacity="1" tooltip="enable"><title>(0.030658,87)</title></rect><rect x="162" y="188.111" width="6" height="11.8893" stroke="black" stroke-width="1" fill="blue" opacity="1" tooltip="enable"><title>(0.0318371,73)</title></rect><rect x="168" y="186.156" width="6" height="13.8436" stroke="black" stroke-width="1" fill="blue" opacity="1" tooltip="enable"><title>(0.0330163,85)</title></rect><rect x="174" y="186.319" width="6" height="13.6808" stroke="black" stroke-width="1" fill="blue" opacity="1" tooltip="enable"><title>(0.0341954,84)</title></rect><rect x="180" y="184.202" width="6" height="15.798" stroke="black" stroke-width="1" fill="blue" opacity="1" tooltip="enable"><title>(0.0353746,97)</title></rect><rect x="186" y="191.042" width="6" height="8.95765" stroke="black" stroke-width="1" fill="blue" opacity="1" tooltip="enable"><title>(0.0365537,55)</title></rect><rect x="192" y="189.414" width="6" height="10.5863" stroke="black" stroke-width="1" fill="blue" opacity="1" tooltip="enable"><title>(0.0377329,65)</title></rect><rect x="198" y="190.391" width="6" height="9.60912" stroke="black" stroke-width="1" fill="blue" opacity="1" tooltip="enable"><title>(0.0389121,59)</title></rect><rect x="204" y="194.137" width="6" height="5.86319" stroke="black" stroke-width="1" fill="blue" opacity="1" tooltip="enable"><title>(0.0400912,36)</title></rect><rect x="210" y="189.251" width="6" height="10.7492" stroke="black" stroke-width="1" fill="blue" opacity="1" tooltip="enable"><title>(0.0412704,66)</title></rect><rect x="216" y="194.463" width="6" height="5.53746" stroke="black" stroke-width="1" fill="blue" opacity="1" tooltip="enable"><title>(0.0424495,34)</title></rect><rect x="222" y="192.182" width="6" height="7.81759" stroke="black" stroke-width="1" fill="blue" opacity="1" tooltip="enable"><title>(0.0436287,48)</title></rect><rect x="228" y="195.765" width="6" height="4.23453" stroke="black" stroke-width="1" fill="blue" opacity="1" tooltip="enable"><title>(0.0448078,26)</title></rect><rect x="234" y="199.023" width="6" height="0.977199" stroke="black" stroke-width="1" fill="blue" opacity="1" tooltip="enable"><title>(0.045987,6)</title></rect><rect x="240" y="195.44" width="6" height="4.56026" stroke="black" stroke-width="1" fill="blue" opacity="1" tooltip="enable"><title>(0.0471661,28)</title></rect><rect x="246" y="198.046" width="6" height="1.9544" stroke="black" stroke-width="1" fill="blue" opacity="1" tooltip="enable"><title>(0.0483453,12)</title></rect><rect x="252" y="196.417" width="6" height="3.58306" stroke="black" stroke-width="1" fill="blue" opacity="1" tooltip="enable"><title>(0.0495244,22)</title></rect><rect x="258" y="198.697" width="6" height="1.30293" stroke="black" stroke-width="1" fill="blue" opacity="1" tooltip="enable"><title>(0.0507036,8)</title></rect><rect x="264" y="198.046" width="6" height="1.9544" stroke="black" stroke-width="1" fill="blue" opacity="1" tooltip="enable"><title>(0.0518827,12)</title></rect><rect x="270" y="198.046" width="6" height="1.9544" stroke="black" stroke-width="1" fill="blue" opacity="1" tooltip="enable"><title>(0.0530619,12)</title></rect><rect x="276" y="197.394" width="6" height="2.60586" stroke="black" stroke-width="1" fill="blue" opacity="1" tooltip="enable"><title>(0.054241,16)</title></rect><rect x="282" y="198.371" width="6" height="1.62866" stroke="black" stroke-width="1" fill="blue" opacity="1" tooltip="enable"><title>(0.0554202,10)</title></rect><rect x="288" y="198.046" width="6" height="1.9544" stroke="black" stroke-width="1" fill="blue" opacity="1" tooltip="enable"><title>(0.0565993,12)</title></rect><rect x="294" y="198.371" width="6" height="1.62866" stroke="black" stroke-width="1" fill="blue" opacity="1" tooltip="enable"><title>(0.0577785,10)</title></rect><rect x="300" y="198.371" width="6" height="1.62866" stroke="black" stroke-width="1" fill="blue" opacity="1" tooltip="enable"><title>(0.0589576,10)</title></rect><rect x="306" y="199.349" width="6" height="0.651466" stroke="black" stroke-width="1" fill="blue" opacity="1" tooltip="enable"><title>(0.0601368,4)</title></rect><rect x="312" y="198.046" width="6" height="1.9544" stroke="black" stroke-width="1" fill="blue" opacity="1" tooltip="enable"><title>(0.061316,12)</title></rect><rect x="318" y="199.349" width="6" height="0.651466" stroke="black" stroke-width="1" fill="blue" opacity="1" tooltip="enable"><title>(0.0624951,4)</title></rect><rect x="324" y="199.023" width="6" height="0.977199" stroke="black" stroke-width="1" fill="blue" opacity="1" tooltip="enable"><title>(0.0636743,6)</title></rect><rect x="330" y="198.697" width="6" height="1.30293" stroke="black" stroke-width="1" fill="blue" opacity="1" tooltip="enable"><title>(0.0648534,8)</title></rect><rect x="336" y="198.697" width="6" height="1.30293" stroke="black" stroke-width="1" fill="blue" opacity="1" tooltip="enable"><title>(0.0660326,8)</title></rect><rect x="342" y="199.349" width="6" height="0.651466" stroke="black" stroke-width="1" fill="blue" opacity="1" tooltip="enable"><title>(0.0672117,4)</title></rect><rect x="348" y="199.349" width="6" height="0.651466" stroke="black" stroke-width="1" fill="blue" opacity="1" tooltip="enable"><title>(0.0683909,4)</title></rect><rect x="354" y="198.697" width="6" height="1.30293" stroke="black" stroke-width="1" fill="blue" opacity="1" tooltip="enable"><title>(0.06957,8)</title></rect><rect x="360" y="198.371" width="6" height="1.62866" stroke="black" stroke-width="1" fill="blue" opacity="1" tooltip="enable"><title>(0.0707492,10)</title></rect><rect x="366" y="199.674" width="6" height="0.325733" stroke="black" stroke-width="1" fill="blue" opacity="1" tooltip="enable"><title>(0.0719283,2)</title></rect><rect x="372" y="199.674" width="6" height="0.325733" stroke="black" stroke-width="1" fill="blue" opacity="1" tooltip="enable"><title>(0.0731075,2)</title></rect><rect x="378" y="199.674" width="6" height="0.325733" stroke="black" stroke-width="1" fill="blue" opacity="1" tooltip="enable"><title>(0.0742866,2)</title></rect><rect x="384" y="198.697" width="6" height="1.30293" stroke="black" stroke-width="1" fill="blue" opacity="1" tooltip="enable"><title>(0.0754658,8)</title></rect><rect x="390" y="199.674" width="6" height="0.325733" stroke="black" stroke-width="1" fill="blue" opacity="1" tooltip="enable"><title>(0.0766449,2)</title></rect><rect x="396" y="199.349" width="6" height="0.651466" stroke="black" stroke-width="1" fill="blue" opacity="1" tooltip="enable"><title>(0.0778241,4)</title></rect><rect x="402" y="199.349" width="6" height="0.651466" stroke="black" stroke-width="1" fill="blue" opacity="1" tooltip="enable"><title>(0.0790033,4)</title></rect><rect x="408" y="199.511" width="6" height="0.488599" stroke="black" stroke-width="1" fill="blue" opacity="1" tooltip="enable"><title>(0.0801824,3)</title></rect><rect x="414" y="199.511" width="6" height="0.488599" stroke="black" stroke-width="1" fill="blue" opacity="1" tooltip="enable"><title>(0.0813616,3)</title></rect><rect x="420" y="199.349" width="6" height="0.651466" stroke="black" stroke-width="1" fill="blue" opacity="1" tooltip="enable"><title>(0.0825407,4)</title></rect><rect x="426" y="200" width="6" height="0" stroke="black" stroke-width="1" fill="blue" opacity="1" tooltip="enable"><title>(0.0837199,0)</title></rect><rect x="432" y="199.674" width="6" height="0.325733" stroke="black" stroke-width="1" fill="blue" opacity="1" tooltip="enable"><title>(0.084899,2)</title></rect><rect x="438" y="200" width="6" height="0" stroke="black" stroke-width="1" fill="blue" opacity="1" tooltip="enable"><title>(0.0860782,0)</title></rect><rect x="444" y="199.674" width="6" height="0.325733" stroke="black" stroke-width="1" fill="blue" opacity="1" tooltip="enable"><title>(0.0872573,2)</title></rect><rect x="450" y="200" width="6" height="0" stroke="black" stroke-width="1" fill="blue" opacity="1" tooltip="enable"><title>(0.0884365,0)</title></rect><rect x="456" y="199.674" width="6" height="0.325733" stroke="black" stroke-width="1" fill="blue" opacity="1" tooltip="enable"><title>(0.0896156,2)</title></rect><rect x="462" y="200" width="6" height="0" stroke="black" stroke-width="1" fill="blue" opacity="1" tooltip="enable"><title>(0.0907948,0)</title></rect><rect x="468" y="200" width="6" height="0" stroke="black" stroke-width="1" fill="blue" opacity="1" tooltip="enable"><title>(0.0919739,0)</title></rect><rect x="474" y="199.674" width="6" height="0.325733" stroke="black" stroke-width="1" fill="blue" opacity="1" tooltip="enable"><title>(0.0931531,2)</title></rect><rect x="480" y="199.674" width="6" height="0.325733" stroke="black" stroke-width="1" fill="blue" opacity="1" tooltip="enable"><title>(0.0943322,2)</title></rect><rect x="486" y="200" width="6" height="0" stroke="black" stroke-width="1" fill="blue" opacity="1" tooltip="enable"><title>(0.0955114,0)</title></rect><rect x="492" y="199.674" width="6" height="0.325733" stroke="black" stroke-width="1" fill="blue" opacity="1" tooltip="enable"><title>(0.0966905,2)</title></rect><rect x="498" y="200" width="6" height="0" stroke="black" stroke-width="1" fill="blue" opacity="1" tooltip="enable"><title>(0.0978697,0)</title></rect><rect x="504" y="200" width="6" height="0" stroke="black" stroke-width="1" fill="blue" opacity="1" tooltip="enable"><title>(0.0990488,0)</title></rect><rect x="510" y="200" width="6" height="0" stroke="black" stroke-width="1" fill="blue" opacity="1" tooltip="enable"><title>(0.100228,0)</title></rect><rect x="516" y="200" width="6" height="0" stroke="black" stroke-width="1" fill="blue" opacity="1" tooltip="enable"><title>(0.101407,0)</title></rect><rect x="522" y="200" width="6" height="0" stroke="black" stroke-width="1" fill="blue" opacity="1" tooltip="enable"><title>(0.102586,0)</title></rect><rect x="528" y="200" width="6" height="0" stroke="black" stroke-width="1" fill="blue" opacity="1" tooltip="enable"><title>(0.103765,0)</title></rect><rect x="534" y="200" width="6" height="0" stroke="black" stroke-width="1" fill="blue" opacity="1" tooltip="enable"><title>(0.104945,0)</title></rect><rect x="540" y="200" width="6" height="0" stroke="black" stroke-width="1" fill="blue" opacity="1" tooltip="enable"><title>(0.106124,0)</title></rect><rect x="546" y="200" width="6" height="0" stroke="black" stroke-width="1" fill="blue" opacity="1" tooltip="enable"><title>(0.107303,0)</title></rect><rect x="552" y="200" width="6" height="0" stroke="black" stroke-width="1" fill="blue" opacity="1" tooltip="enable"><title>(0.108482,0)</title></rect><rect x="558" y="200" width="6" height="0" stroke="black" stroke-width="1" fill="blue" opacity="1" tooltip="enable"><title>(0.109661,0)</title></rect><rect x="564" y="200" width="6" height="0" stroke="black" stroke-width="1" fill="blue" opacity="1" tooltip="enable"><title>(0.11084,0)</title></rect><rect x="570" y="200" width="6" height="0" stroke="black" stroke-width="1" fill="blue" opacity="1" tooltip="enable"><title>(0.11202,0)</title></rect><rect x="576" y="200" width="6" height="0" stroke="black" stroke-width="1" fill="blue" opacity="1" tooltip="enable"><title>(0.113199,0)</title></rect><rect x="582" y="200" width="6" height="0" stroke="black" stroke-width="1" fill="blue" opacity="1" tooltip="enable"><title>(0.114378,0)</title></rect><rect x="588" y="200" width="6" height="0" stroke="black" stroke-width="1" fill="blue" opacity="1" tooltip="enable"><title>(0.115557,0)</title></rect><rect x="594" y="199.837" width="6" height="0.162866" stroke="black" stroke-width="1" fill="blue" opacity="1" tooltip="enable"><title>(0.116736,1)</title></rect><text x="30" y="240" font-size="20" fill="black">0</text>
<text x="600" y="240" font-size="20" fill="black">0.117915</text>
<polyline points="0,220,600,220" stroke="black" stroke-width="1" fill="none" opacity="1"/>
<text x="720" y="20" font-size="20" fill="black">1228</text>
<text x="720" y="200" font-size="20" fill="black">0</text>
<polyline points="660,0,660,200" stroke="black" stroke-width="1" fill="none" opacity="1"/>
</svg>