<?xml version="1.0" standalone="yes"?>
<!-- SVG graphic -->
<svg xmlns='http://www.w3.org/2000/svg' xmlns:xlink='http://www.w3.org/1999/xlink'
 version="1.1">
<rect x="0" y="0" width="6" height="200" stroke="black" stroke-width="1" fill="blue" opacity="1" tooltip="enable"><title>(0,1660)</title></rect><rect x="6" y="46.8675" width="6" height="153.133" stroke="black" stroke-width="1" fill="blue" opacity="1" tooltip="enable"><title>(0.000995862,1271)</title></rect><rect x="12" y="102.289" width="6" height="97.7108" stroke="black" stroke-width="1" fill="blue" opacity="1" tooltip="enable"><title>(0.00199172,811)</title></rect><rect x="18" y="139.036" width="6" height="60.9639" stroke="black" stroke-width="1" fill="blue" opacity="1" tooltip="enable"><title>(0.00298759,506)</title></rect><rect x="24" y="170.482" width="6" height="29.5181" stroke="black" stroke-width="1" fill="blue" opacity="1" tooltip="enable"><title>(0.00398345,245)</title></rect><rect x="30" y="184.699" width="6" height="15.3012" stroke="black" stroke-width="1" fill="blue" opacity="1" tooltip="enable"><title>(0.00497931,127)</title></rect><rect x="36" y="187.831" width="6" height="12.1687" stroke="black" stroke-width="1" fill="blue" opacity="1" tooltip="enable"><title>(0.00597517,101)</title></rect><rect x="42" y="186.627" width="6" height="13.3735" stroke="black" stroke-width="1" fill="blue" opacity="1" tooltip="enable"><title>(0.00697104,111)</title></rect><rect x="48" y="185.422" width="6" height="14.5783" stroke="black" stroke-width="1" fill="blue" opacity="1" tooltip="enable"><title>(0.0079669,121)</title></rect><rect x="54" y="190" width="6" height="10" stroke="black" stroke-width="1" fill="blue" opacity="1" tooltip="enable"><title>(0.00896276,83)</title></rect><rect x="60" y="186.867" width="6" height="13.1325" stroke="black" stroke-width="1" fill="blue" opacity="1" tooltip="enable"><title>(0.00995862,109)</title></rect><rect x="66" y="187.108" width="6" height="12.8916" stroke="black" stroke-width="1" fill="blue" opacity="1" tooltip="enable"><title>(0.0109545,107)</title></rect><rect x="72" y="186.988" width="6" height="13.012" stroke="black" stroke-width="1" fill="blue" opacity="1" tooltip="enable"><title>(0.0119503,108)</title></rect><rect x="78" y="186.988" width="6" height="13.012" stroke="black" stroke-width="1" fill="blue" opacity="1" tooltip="enable"><title>(0.0129462,108)</title></rect><rect x="84" y="187.229" width="6" height="12.7711" stroke="black" stroke-width="1" fill="blue" opacity="1" tooltip="enable"><title>(0.0139421,106)</title></rect><rect x="90" y="190.361" width="6" height="9.63855" stroke="black" stroke-width="1" fill="blue" opacity="1" tooltip="enable"><title>(0.0149379,80)</title></rect><rect x="96" y="188.795" width="6" height="11.2048" stroke="black" stroke-width="1" fill="blue" opacity="1" tooltip="enable"><title>(0.0159338,93)</title></rect><rect x="102" y="187.952" width="6" height="12.0482" stroke="black" stroke-width="1" fill="blue" opacity="1" tooltip="enable"><title>(0.0169297,100)</title></rect><rect x="108" y="188.313" width="6" height="11.6867" stroke="black" stroke-width="1" fill="blue" opacity="1" tooltip="enable"><title>(0.0179255,97)</title></rect><rect x="114" y="187.711" width="6" height="12.2892" stroke="black" stroke-width="1" fill="blue" opacity="1" tooltip="enable"><title>(0.0189214,102)</title></rect><rect x="120" y="189.518" width="6" height="10.4819" stroke="black" stroke-width="1" fill="blue" opacity="1" tooltip="enable"><title>(0.0199172,87)</title></rect><rect x="126" y="187.831" width="6" height="12.1687" stroke="black" stroke-width="1" fill="blue" opacity="1" tooltip="enable"><title>(0.0209131,101)</title></rect><rect x="132" y="191.205" width="6" height="8.79518" stroke="black" stroke-width="1" fill="blue" opacity="1" tooltip="enable"><title>(0.021909,73)</title></rect><rect x="138" y="190.964" width="6" height="9.03615" stroke="black" stroke-width="1" fill="blue" opacity="1" tooltip="enable"><title>(0.0229048,75)</title></rect><rect x="144" y="191.928" width="6" height="8.07229" stroke="black" stroke-width="1" fill="blue" opacity="1" tooltip="enable"><title>(0.0239007,67)</title></rect><rect x="150" y="193.133" width="6" height="6.86747" stroke="black" stroke-width="1" fill="blue" opacity="1" tooltip="enable"><title>(0.0248966,57)</title></rect><rect x="156" y="189.639" width="6" height="10.3614" stroke="black" stroke-width="1" fill="blue" opacity="1" tooltip="enable"><title>(0.0258924,86)</title></rect><rect x="162" y="191.084" width="6" height="8.91566" stroke="black" stroke-width="1" fill="blue" opacity="1" tooltip="enable"><title>(0.0268883,74)</title></rect><rect x="168" y="193.494" width="6" height="6.50602" stroke="black" stroke-width="1" fill="blue" opacity="1" tooltip="enable"><title>(0.0278841,54)</title></rect><rect x="174" y="193.133" width="6" height="6.86747" stroke="black" stroke-width="1" fill="blue" opacity="1" tooltip="enable"><title>(0.02888,57)</title></rect><rect x="180" y="192.41" width="6" height="7.59036" stroke="black" stroke-width="1" fill="blue" opacity="1" tooltip="enable"><title>(0.0298759,63)</title></rect><rect x="186" y="191.807" width="6" height="8.19277" stroke="black" stroke-width="1" fill="blue" opacity="1" tooltip="enable"><title>(0.0308717,68)</title></rect><rect x="192" y="194.217" width="6" height="5.78313" stroke="black" stroke-width="1" fill="blue" opacity="1" tooltip="enable"><title>(0.0318676,48)</title></rect><rect x="198" y="194.578" width="6" height="5.42169" stroke="black" stroke-width="1" fill="blue" opacity="1" tooltip="enable"><title>(0.0328635,45)</title></rect><rect x="204" y="193.253" width="6" height="6.74699" stroke="black" stroke-width="1" fill="blue" opacity="1" tooltip="enable"><title>(0.0338593,56)</title></rect><rect x="210" y="194.458" width="6" height="5.54217" stroke="black" stroke-width="1" fill="blue" opacity="1" tooltip="enable"><title>(0.0348552,46)</title></rect><rect x="216" y="193.012" width="6" height="6.98795" stroke="black" stroke-width="1" fill="blue" opacity="1" tooltip="enable"><title>(0.035851,58)</title></rect><rect x="222" y="195.422" width="6" height="4.57831" stroke="black" stroke-width="1" fill="blue" opacity="1" tooltip="enable"><title>(0.0368469,38)</title></rect><rect x="228" y="191.566" width="6" height="8.43373" stroke="black" stroke-width="1" fill="blue" opacity="1" tooltip="enable"><title>(0.0378428,70)</title></rect><rect x="234" y="193.373" width="6" height="6.62651" stroke="black" stroke-width="1" fill="blue" opacity="1" tooltip="enable"><title>(0.0388386,55)</title></rect><rect x="240" y="195.422" width="6" height="4.57831" stroke="black" stroke-width="1" fill="blue" opacity="1" tooltip="enable"><title>(0.0398345,38)</title></rect><rect x="246" y="194.699" width="6" height="5.30121" stroke="black" stroke-width="1" fill="blue" opacity="1" tooltip="enable"><title>(0.0408303,44)</title></rect><rect x="252" y="194.94" width="6" height="5.06024" stroke="black" stroke-width="1" fill="blue" opacity="1" tooltip="enable"><title>(0.0418262,42)</title></rect><rect x="258" y="195.06" width="6" height="4.93976" stroke="black" stroke-width="1" fill="blue" opacity="1" tooltip="enable"><title>(0.0428221,41)</title></rect><rect x="264" y="196.747" width="6" height="3.25301" stroke="black" stroke-width="1" fill="blue" opacity="1" tooltip="enable"><title>(0.0438179,27)</title></rect><rect x="270" y="194.217" width="6" height="5.78313" stroke="black" stroke-width="1" fill="blue" opacity="1" tooltip="enable"><title>(0.0448138,48)</title></rect><rect x="276" y="196.867" width="6" height="3.13253" stroke="black" stroke-width="1" fill="blue" opacity="1" tooltip="enable"><title>(0.0458097,26)</title></rect><rect x="282" y="196.386" width="6" height="3.61446" stroke="black" stroke-width="1" fill="blue" opacity="1" tooltip="enable"><title>(0.0468055,30)</title></rect><rect x="288" y="198.434" width="6" height="1.56627" stroke="black" stroke-width="1" fill="blue" opacity="1" tooltip="enable"><title>(0.0478014,13)</title></rect><rect x="294" y="195.783" width="6" height="4.21687" stroke="black" stroke-width="1" fill="blue" opacity="1" tooltip="enable"><title>(0.0487972,35)</title></rect><rect x="300" y="196.506" width="6" height="3.49398" stroke="black" stroke-width="1" fill="blue" opacity="1" tooltip="enable"><title>(0.0497931,29)</title></rect><rect x="306" y="198.434" width="6" height="1.56627" stroke="black" stroke-width="1" fill="blue" opacity="1" tooltip="enable"><title>(0.050789,13)</title></rect><rect x="312" y="197.47" width="6" height="2.53012" stroke="black" stroke-width="1" fill="blue" opacity="1" tooltip="enable"><title>(0.0517848,21)</title></rect><rect x="318" y="197.47" width="6" height="2.53012" stroke="black" stroke-width="1" fill="blue" opacity="1" tooltip="enable"><title>(0.0527807,21)</title></rect><rect x="324" y="197.229" width="6" height="2.77108" stroke="black" stroke-width="1" fill="blue" opacity="1" tooltip="enable"><title>(0.0537766,23)</title></rect><rect x="330" y="197.831" width="6" height="2.16867" stroke="black" stroke-width="1" fill="blue" opacity="1" tooltip="enable"><title>(0.0547724,18)</title></rect><rect x="336" y="197.47" width="6" height="2.53012" stroke="black" stroke-width="1" fill="blue" opacity="1" tooltip="enable"><title>(0.0557683,21)</title></rect><rect x="342" y="197.711" width="6" height="2.28916" stroke="black" stroke-width="1" fill="blue" opacity="1" tooltip="enable"><title>(0.0567641,19)</title></rect><rect x="348" y="198.434" width="6" height="1.56627" stroke="black" stroke-width="1" fill="blue" opacity="1" tooltip="enable"><title>(0.05776,13)</title></rect><rect x="354" y="198.795" width="6" height="1.20482" stroke="black" stroke-width="1" fill="blue" opacity="1" tooltip="enable"><title>(0.0587559,10)</title></rect><rect x="360" y="198.554" width="6" height="1.44578" stroke="black" stroke-width="1" fill="blue" opacity="1" tooltip="enable"><title>(0.0597517,12)</title></rect><rect x="366" y="198.554" width="6" height="1.44578" stroke="black" stroke-width="1" fill="blue" opacity="1" tooltip="enable"><title>(0.0607476,12)</title></rect><rect x="372" y="198.554" width="6" height="1.44578" stroke="black" stroke-width="1" fill="blue" opacity="1" tooltip="enable"><title>(0.0617435,12)</title></rect><rect x="378" y="198.795" width="6" height="1.20482" stroke="black" stroke-width="1" fill="blue" opacity="1" tooltip="enable"><title>(0.0627393,10)</title></rect><rect x="384" y="199.036" width="6" height="0.963855" stroke="black" stroke-width="1" fill="blue" opacity="1" tooltip="enable"><title>(0.0637352,8)</title></rect><rect x="390" y="199.036" width="6" height="0.963855" stroke="black" stroke-width="1" fill="blue" opacity="1" tooltip="enable"><title>(0.064731,8)</title></rect><rect x="396" y="198.675" width="6" height="1.3253" stroke="black" stroke-width="1" fill="blue" opacity="1" tooltip="enable"><title>(0.0657269,11)</title></rect><rect x="402" y="199.398" width="6" height="0.60241" stroke="black" stroke-width="1" fill="blue" opacity="1" tooltip="enable"><title>(0.0667228,5)</title></rect><rect x="408" y="199.518" width="6" height="0.481928" stroke="black" stroke-width="1" fill="blue" opacity="1" tooltip="enable"><title>(0.0677186,4)</title></rect><rect x="414" y="199.518" width="6" height="0.481928" stroke="black" stroke-width="1" fill="blue" opacity="1" tooltip="enable"><title>(0.0687145,4)</title></rect><rect x="420" y="198.072" width="6" height="1.92771" stroke="black" stroke-width="1" fill="blue" opacity="1" tooltip="enable"><title>(0.0697104,16)</title></rect><rect x="426" y="200" width="6" height="0" stroke="black" stroke-width="1" fill="blue" opacity="1" tooltip="enable"><title>(0.0707062,0)</title></rect><rect x="432" y="200" width="6" height="0" stroke="black" stroke-width="1" fill="blue" opacity="1" tooltip="enable"><title>(0.0717021,0)</title></rect><rect x="438" y="200" width="6" height="0" stroke="black" stroke-width="1" fill="blue" opacity="1" tooltip="enable"><title>(0.0726979,0)</title></rect><rect x="444" y="200" width="6" height="0" stroke="black" stroke-width="1" fill="blue" opacity="1" tooltip="enable"><title>(0.0736938,0)</title></rect><rect x="450" y="200" width="6" height="0" stroke="black" stroke-width="1" fill="blue" opacity="1" tooltip="enable"><title>(0.0746897,0)</title></rect><rect x="456" y="200" width="6" height="0" stroke="black" stroke-width="1" fill="blue" opacity="1" tooltip="enable"><title>(0.0756855,0)</title></rect><rect x="462" y="198.795" width="6" height="1.20482" stroke="black" stroke-width="1" fill="blue" opacity="1" tooltip="enable"><title>(0.0766814,10)</title></rect><rect x="468" y="200" width="6" height="0" stroke="black" stroke-width="1" fill="blue" opacity="1" tooltip="enable"><title>(0.0776772,0)</title></rect><rect x="474" y="199.518" width="6" height="0.481928" stroke="black" stroke-width="1" fill="blue" opacity="1" tooltip="enable"><title>(0.0786731,4)</title></rect><rect x="480" y="199.518" width="6" height="0.481928" stroke="black" stroke-width="1" fill="blue" opacity="1" tooltip="enable"><title>(0.079669,4)</title></rect><rect x="486" y="199.759" width="6" height="0.240964" stroke="black" stroke-width="1" fill="blue" opacity="1" tooltip="enable"><title>(0.0806648,2)</title></rect><rect x="492" y="200" width="6" height="0" stroke="black" stroke-width="1" fill="blue" opacity="1" tooltip="enable"><title>(0.0816607,0)</title></rect><rect x="498" y="199.518" width="6" height="0.481928" stroke="black" stroke-width="1" fill="blue" opacity="1" tooltip="enable"><title>(0.0826566,4)</title></rect><rect x="504" y="200" width="6" height="0" stroke="black" stroke-width="1" fill="blue" opacity="1" tooltip="enable"><title>(0.0836524,0)</title></rect><rect x="510" y="200" width="6" height="0" stroke="black" stroke-width="1" fill="blue" opacity="1" tooltip="enable"><title>(0.0846483,0)</title></rect><rect x="516" y="199.759" width="6" height="0.240964" stroke="black" stroke-width="1" fill="blue" opacity="1" tooltip="enable"><title>(0.0856441,2)</title></rect><rect x="522" y="199.759" width="6" height="0.240964" stroke="black" stroke-width="1" fill="blue" opacity="1" tooltip="enable"><title>(0.08664,2)</title></rect><rect x="528" y="200" width="6" height="0" stroke="black" stroke-width="1" fill="blue" opacity="1" tooltip="enable"><title>(0.0876359,0)</title></rect><rect x="534" y="200" width="6" height="0" stroke="black" stroke-width="1" fill="blue" opacity="1" tooltip="enable"><title>(0.0886317,0)</title></rect><rect x="540" y="200" width="6" height="0" stroke="black" stroke-width="1" fill="blue" opacity="1" tooltip="enable"><title>(0.0896276,0)</title></rect><rect x="546" y="200" width="6" height="0" stroke="black" stroke-width="1" fill="blue" opacity="1" tooltip="enable"><title>(0.0906235,0)</title></rect><rect x="552" y="199.759" width="6" height="0.240964" stroke="black" stroke-width="1" fill="blue" opacity="1" tooltip="enable"><title>(0.0916193,2)</title></rect><rect x="558" y="199.518" width="6" height="0.481928" stroke="black" stroke-width="1" fill="blue" opacity="1" tooltip="enable"><title>(0.0926152,4)</title></rect><rect x="564" y="200" width="6" height="0" stroke="black" stroke-width="1" fill="blue" opacity="1" tooltip="enable"><title>(0.093611,0)</title></rect><rect x="570" y="199.518" width="6" height="0.481928" stroke="black" stroke-width="1" fill="blue" opacity="1" tooltip="enable"><title>(0.0946069,4)</title></rect><rect x="576" y="200" width="6" height="0" stroke="black" stroke-width="1" fill="blue" opacity="1" tooltip="enable"><title>(0.0956028,0)</title></rect><rect x="582" y="200" width="6" height="0" stroke="black" stroke-width="1" fill="blue" opacity="1" tooltip="enable"><title>(0.0965986,0)</title></rect><rect x="588" y="200" width="6" height="0" stroke="black" stroke-width="1" fill="blue" opacity="1" tooltip="enable"><title>(0.0975945,0)</title></rect><rect x="594" y="199.639" width="6" height="0.361446" stroke="black" stroke-width="1" fill="blue" opacity="1" tooltip="enable"><title>(0.0985904,3)</title></rect><text x="30" y="240" font-size="20" fill="black">0</text>
<text x="600" y="240" font-size="20" fill="black">0.0995862</text>
<polyline points="0,220,600,220" stroke="black" stroke-width="1" fill="none" opacity="1"/>
<text x="720" y="20" font-size="20" fill="black">1660</text>
<text x="720" y="200" font-size="20" fill="black">0</text>
<polyline points="660,0,660,200" stroke="black" stroke-width="1" fill="none" opacity="1"/>
</svg>