<?xml version="1.0" standalone="yes"?>
<!-- SVG graphic -->
<svg xmlns='http://www.w3.org/2000/svg' xmlns:xlink='http://www.w3.org/1999/xlink'
 version="1.1">
<rect x="0" y="0" width="6" height="200" stroke="black" stroke-width="1" fill="blue" opacity="1" tooltip="enable"><title>(0,1131)</title></rect><rect x="6" y="4.24403" width="6" height="195.756" stroke="black" stroke-width="1" fill="blue" opacity="1" tooltip="enable"><title>(0.00126858,1107)</title></rect><rect x="12" y="25.2874" width="6" height="174.713" stroke="black" stroke-width="1" fill="blue" opacity="1" tooltip="enable"><title>(0.00253716,988)</title></rect><rect x="18" y="80.6366" width="6" height="119.363" stroke="black" stroke-width="1" fill="blue" opacity="1" tooltip="enable"><title>(0.00380574,675)</title></rect><rect x="24" y="125.906" width="6" height="74.0937" stroke="black" stroke-width="1" fill="blue" opacity="1" tooltip="enable"><title>(0.00507432,419)</title></rect><rect x="30" y="158.09" width="6" height="41.9098" stroke="black" stroke-width="1" fill="blue" opacity="1" tooltip="enable"><title>(0.0063429,237)</title></rect><rect x="36" y="162.688" width="6" height="37.3121" stroke="black" stroke-width="1" fill="blue" opacity="1" tooltip="enable"><title>(0.00761148,211)</title></rect><rect x="42" y="168.7" width="6" height="31.2997" stroke="black" stroke-width="1" fill="blue" opacity="1" tooltip="enable"><title>(0.00888006,177)</title></rect><rect x="48" y="172.944" width="6" height="27.0557" stroke="black" stroke-width="1" fill="blue" opacity="1" tooltip="enable"><title>(0.0101486,153)</title></rect><rect x="54" y="174.182" width="6" height="25.8179" stroke="black" stroke-width="1" fill="blue" opacity="1" tooltip="enable"><title>(0.0114172,146)</title></rect><rect x="60" y="171.353" width="6" height="28.6472" stroke="black" stroke-width="1" fill="blue" opacity="1" tooltip="enable"><title>(0.0126858,162)</title></rect><rect x="66" y="179.841" width="6" height="20.1592" stroke="black" stroke-width="1" fill="blue" opacity="1" tooltip="enable"><title>(0.0139544,114)</title></rect><rect x="72" y="173.828" width="6" height="26.1715" stroke="black" stroke-width="1" fill="blue" opacity="1" tooltip="enable"><title>(0.015223,148)</title></rect><rect x="78" y="177.719" width="6" height="22.2812" stroke="black" stroke-width="1" fill="blue" opacity="1" tooltip="enable"><title>(0.0164915,126)</title></rect><rect x="84" y="172.944" width="6" height="27.0557" stroke="black" stroke-width="1" fill="blue" opacity="1" tooltip="enable"><title>(0.0177601,153)</title></rect><rect x="90" y="176.481" width="6" height="23.519" stroke="black" stroke-width="1" fill="blue" opacity="1" tooltip="enable"><title>(0.0190287,133)</title></rect><rect x="96" y="174.359" width="6" height="25.641" stroke="black" stroke-width="1" fill="blue" opacity="1" tooltip="enable"><title>(0.0202973,145)</title></rect><rect x="102" y="176.481" width="6" height="23.519" stroke="black" stroke-width="1" fill="blue" opacity="1" tooltip="enable"><title>(0.0215659,133)</title></rect><rect x="108" y="184.792" width="6" height="15.2078" stroke="black" stroke-width="1" fill="blue" opacity="1" tooltip="enable"><title>(0.0228344,86)</title></rect><rect x="114" y="181.432" width="6" height="18.5676" stroke="black" stroke-width="1" fill="blue" opacity="1" tooltip="enable"><title>(0.024103,105)</title></rect><rect x="120" y="181.963" width="6" height="18.0371" stroke="black" stroke-width="1" fill="blue" opacity="1" tooltip="enable"><title>(0.0253716,102)</title></rect><rect x="126" y="186.207" width="6" height="13.7931" stroke="black" stroke-width="1" fill="blue" opacity="1" tooltip="enable"><title>(0.0266402,78)</title></rect><rect x="132" y="182.317" width="6" height="17.6835" stroke="black" stroke-width="1" fill="blue" opacity="1" tooltip="enable"><title>(0.0279088,100)</title></rect><rect x="138" y="182.847" width="6" height="17.153" stroke="black" stroke-width="1" fill="blue" opacity="1" tooltip="enable"><title>(0.0291773,97)</title></rect><rect x="144" y="184.085" width="6" height="15.9151" stroke="black" stroke-width="1" fill="blue" opacity="1" tooltip="enable"><title>(0.0304459,90)</title></rect><rect x="150" y="178.957" width="6" height="21.0433" stroke="black" stroke-width="1" fill="blue" opacity="1" tooltip="enable"><title>(0.0317145,119)</title></rect><rect x="156" y="186.914" width="6" height="13.0858" stroke="black" stroke-width="1" fill="blue" opacity="1" tooltip="enable"><title>(0.0329831,74)</title></rect><rect x="162" y="182.493" width="6" height="17.5066" stroke="black" stroke-width="1" fill="blue" opacity="1" tooltip="enable"><title>(0.0342517,99)</title></rect><rect x="168" y="184.439" width="6" height="15.5615" stroke="black" stroke-width="1" fill="blue" opacity="1" tooltip="enable"><title>(0.0355202,88)</title></rect><rect x="174" y="191.335" width="6" height="8.6649" stroke="black" stroke-width="1" fill="blue" opacity="1" tooltip="enable"><title>(0.0367888,49)</title></rect><rect x="180" y="188.683" width="6" height="11.3174" stroke="black" stroke-width="1" fill="blue" opacity="1" tooltip="enable"><title>(0.0380574,64)</title></rect><rect x="186" y="187.798" width="6" height="12.2016" stroke="black" stroke-width="1" fill="blue" opacity="1" tooltip="enable"><title>(0.039326,69)</title></rect><rect x="192" y="196.11" width="6" height="3.89036" stroke="black" stroke-width="1" fill="blue" opacity="1" tooltip="enable"><title>(0.0405946,22)</title></rect><rect x="198" y="189.744" width="6" height="10.2564" stroke="black" stroke-width="1" fill="blue" opacity="1" tooltip="enable"><title>(0.0418632,58)</title></rect><rect x="204" y="193.634" width="6" height="6.36605" stroke="black" stroke-width="1" fill="blue" opacity="1" tooltip="enable"><title>(0.0431317,36)</title></rect><rect x="210" y="195.049" width="6" height="4.95137" stroke="black" stroke-width="1" fill="blue" opacity="1" tooltip="enable"><title>(0.0444003,28)</title></rect><rect x="216" y="195.402" width="6" height="4.5977" stroke="black" stroke-width="1" fill="blue" opacity="1" tooltip="enable"><title>(0.0456689,26)</title></rect><rect x="222" y="197.171" width="6" height="2.82935" stroke="black" stroke-width="1" fill="blue" opacity="1" tooltip="enable"><title>(0.0469375,16)</title></rect><rect x="228" y="195.756" width="6" height="4.24403" stroke="black" stroke-width="1" fill="blue" opacity="1" tooltip="enable"><title>(0.048206,24)</title></rect><rect x="234" y="197.524" width="6" height="2.47569" stroke="black" stroke-width="1" fill="blue" opacity="1" tooltip="enable"><title>(0.0494746,14)</title></rect><rect x="240" y="197.171" width="6" height="2.82935" stroke="black" stroke-width="1" fill="blue" opacity="1" tooltip="enable"><title>(0.0507432,16)</title></rect><rect x="246" y="197.524" width="6" height="2.47569" stroke="black" stroke-width="1" fill="blue" opacity="1" tooltip="enable"><title>(0.0520118,14)</title></rect><rect x="252" y="198.232" width="6" height="1.76835" stroke="black" stroke-width="1" fill="blue" opacity="1" tooltip="enable"><title>(0.0532804,10)</title></rect><rect x="258" y="198.939" width="6" height="1.06101" stroke="black" stroke-width="1" fill="blue" opacity="1" tooltip="enable"><title>(0.054549,6)</title></rect><rect x="264" y="197.171" width="6" height="2.82935" stroke="black" stroke-width="1" fill="blue" opacity="1" tooltip="enable"><title>(0.0558175,16)</title></rect><rect x="270" y="197.878" width="6" height="2.12202" stroke="black" stroke-width="1" fill="blue" opacity="1" tooltip="enable"><title>(0.0570861,12)</title></rect><rect x="276" y="197.878" width="6" height="2.12202" stroke="black" stroke-width="1" fill="blue" opacity="1" tooltip="enable"><title>(0.0583547,12)</title></rect><rect x="282" y="199.293" width="6" height="0.707339" stroke="black" stroke-width="1" fill="blue" opacity="1" tooltip="enable"><title>(0.0596233,4)</title></rect><rect x="288" y="198.585" width="6" height="1.41468" stroke="black" stroke-width="1" fill="blue" opacity="1" tooltip="enable"><title>(0.0608919,8)</title></rect><rect x="294" y="198.408" width="6" height="1.59151" stroke="black" stroke-width="1" fill="blue" opacity="1" tooltip="enable"><title>(0.0621604,9)</title></rect><rect x="300" y="198.762" width="6" height="1.23784" stroke="black" stroke-width="1" fill="blue" opacity="1" tooltip="enable"><title>(0.063429,7)</title></rect><rect x="306" y="199.646" width="6" height="0.353669" stroke="black" stroke-width="1" fill="blue" opacity="1" tooltip="enable"><title>(0.0646976,2)</title></rect><rect x="312" y="198.232" width="6" height="1.76835" stroke="black" stroke-width="1" fill="blue" opacity="1" tooltip="enable"><title>(0.0659662,10)</title></rect><rect x="318" y="198.585" width="6" height="1.41468" stroke="black" stroke-width="1" fill="blue" opacity="1" tooltip="enable"><title>(0.0672347,8)</title></rect><rect x="324" y="198.939" width="6" height="1.06101" stroke="black" stroke-width="1" fill="blue" opacity="1" tooltip="enable"><title>(0.0685033,6)</title></rect><rect x="330" y="199.293" width="6" height="0.707339" stroke="black" stroke-width="1" fill="blue" opacity="1" tooltip="enable"><title>(0.0697719,4)</title></rect><rect x="336" y="198.585" width="6" height="1.41468" stroke="black" stroke-width="1" fill="blue" opacity="1" tooltip="enable"><title>(0.0710405,8)</title></rect><rect x="342" y="200" width="6" height="0" stroke="black" stroke-width="1" fill="blue" opacity="1" tooltip="enable"><title>(0.0723091,0)</title></rect><rect x="348" y="198.939" width="6" height="1.06101" stroke="black" stroke-width="1" fill="blue" opacity="1" tooltip="enable"><title>(0.0735776,6)</title></rect><rect x="354" y="199.293" width="6" height="0.707339" stroke="black" stroke-width="1" fill="blue" opacity="1" tooltip="enable"><title>(0.0748462,4)</title></rect><rect x="360" y="200" width="6" height="0" stroke="black" stroke-width="1" fill="blue" opacity="1" tooltip="enable"><title>(0.0761148,0)</title></rect><rect x="366" y="199.293" width="6" height="0.707339" stroke="black" stroke-width="1" fill="blue" opacity="1" tooltip="enable"><title>(0.0773834,4)</title></rect><rect x="372" y="200" width="6" height="0" stroke="black" stroke-width="1" fill="blue" opacity="1" tooltip="enable"><title>(0.078652,0)</title></rect><rect x="378" y="199.293" width="6" height="0.707339" stroke="black" stroke-width="1" fill="blue" opacity="1" tooltip="enable"><title>(0.0799206,4)</title></rect><rect x="384" y="198.939" width="6" height="1.06101" stroke="black" stroke-width="1" fill="blue" opacity="1" tooltip="enable"><title>(0.0811891,6)</title></rect><rect x="390" y="199.646" width="6" height="0.353669" stroke="black" stroke-width="1" fill="blue" opacity="1" tooltip="enable"><title>(0.0824577,2)</title></rect><rect x="396" y="198.939" width="6" height="1.06101" stroke="black" stroke-width="1" fill="blue" opacity="1" tooltip="enable"><title>(0.0837263,6)</title></rect><rect x="402" y="200" width="6" height="0" stroke="black" stroke-width="1" fill="blue" opacity="1" tooltip="enable"><title>(0.0849949,0)</title></rect><rect x="408" y="199.646" width="6" height="0.353669" stroke="black" stroke-width="1" fill="blue" opacity="1" tooltip="enable"><title>(0.0862635,2)</title></rect><rect x="414" y="200" width="6" height="0" stroke="black" stroke-width="1" fill="blue" opacity="1" tooltip="enable"><title>(0.087532,0)</title></rect><rect x="420" y="200" width="6" height="0" stroke="black" stroke-width="1" fill="blue" opacity="1" tooltip="enable"><title>(0.0888006,0)</title></rect><rect x="426" y="199.646" width="6" height="0.353669" stroke="black" stroke-width="1" fill="blue" opacity="1" tooltip="enable"><title>(0.0900692,2)</title></rect><rect x="432" y="200" width="6" height="0" stroke="black" stroke-width="1" fill="blue" opacity="1" tooltip="enable"><title>(0.0913378,0)</title></rect><rect x="438" y="199.646" width="6" height="0.353669" stroke="black" stroke-width="1" fill="blue" opacity="1" tooltip="enable"><title>(0.0926064,2)</title></rect><rect x="444" y="200" width="6" height="0" stroke="black" stroke-width="1" fill="blue" opacity="1" tooltip="enable"><title>(0.0938749,0)</title></rect><rect x="450" y="200" width="6" height="0" stroke="black" stroke-width="1" fill="blue" opacity="1" tooltip="enable"><title>(0.0951435,0)</title></rect><rect x="456" y="199.646" width="6" height="0.353669" stroke="black" stroke-width="1" fill="blue" opacity="1" tooltip="enable"><title>(0.0964121,2)</title></rect><rect x="462" y="199.646" width="6" height="0.353669" stroke="black" stroke-width="1" fill="blue" opacity="1" tooltip="enable"><title>(0.0976807,2)</title></rect><rect x="468" y="200" width="6" height="0" stroke="black" stroke-width="1" fill="blue" opacity="1" tooltip="enable"><title>(0.0989493,0)</title></rect><rect x="474" y="199.646" width="6" height="0.353669" stroke="black" stroke-width="1" fill="blue" opacity="1" tooltip="enable"><title>(0.100218,2)</title></rect><rect x="480" y="200" width="6" height="0" stroke="black" stroke-width="1" fill="blue" opacity="1" tooltip="enable"><title>(0.101486,0)</title></rect><rect x="486" y="200" width="6" height="0" stroke="black" stroke-width="1" fill="blue" opacity="1" tooltip="enable"><title>(0.102755,0)</title></rect><rect x="492" y="200" width="6" height="0" stroke="black" stroke-width="1" fill="blue" opacity="1" tooltip="enable"><title>(0.104024,0)</title></rect><rect x="498" y="200" width="6" height="0" stroke="black" stroke-width="1" fill="blue" opacity="1" tooltip="enable"><title>(0.105292,0)</title></rect><rect x="504" y="200" width="6" height="0" stroke="black" stroke-width="1" fill="blue" opacity="1" tooltip="enable"><title>(0.106561,0)</title></rect><rect x="510" y="200" width="6" height="0" stroke="black" stroke-width="1" fill="blue" opacity="1" tooltip="enable"><title>(0.107829,0)</title></rect><rect x="516" y="200" width="6" height="0" stroke="black" stroke-width="1" fill="blue" opacity="1" tooltip="enable"><title>(0.109098,0)</title></rect><rect x="522" y="200" width="6" height="0" stroke="black" stroke-width="1" fill="blue" opacity="1" tooltip="enable"><title>(0.110366,0)</title></rect><rect x="528" y="200" width="6" height="0" stroke="black" stroke-width="1" fill="blue" opacity="1" tooltip="enable"><title>(0.111635,0)</title></rect><rect x="534" y="200" width="6" height="0" stroke="black" stroke-width="1" fill="blue" opacity="1" tooltip="enable"><title>(0.112904,0)</title></rect><rect x="540" y="200" width="6" height="0" stroke="black" stroke-width="1" fill="blue" opacity="1" tooltip="enable"><title>(0.114172,0)</title></rect><rect x="546" y="200" width="6" height="0" stroke="black" stroke-width="1" fill="blue" opacity="1" tooltip="enable"><title>(0.115441,0)</title></rect><rect x="552" y="200" width="6" height="0" stroke="black" stroke-width="1" fill="blue" opacity="1" tooltip="enable"><title>(0.116709,0)</title></rect><rect x="558" y="200" width="6" height="0" stroke="black" stroke-width="1" fill="blue" opacity="1" tooltip="enable"><title>(0.117978,0)</title></rect><rect x="564" y="200" width="6" height="0" stroke="black" stroke-width="1" fill="blue" opacity="1" tooltip="enable"><title>(0.119247,0)</title></rect><rect x="570" y="200" width="6" height="0" stroke="black" stroke-width="1" fill="blue" opacity="1" tooltip="enable"><title>(0.120515,0)</title></rect><rect x="576" y="200" width="6" height="0" stroke="black" stroke-width="1" fill="blue" opacity="1" tooltip="enable"><title>(0.121784,0)</title></rect><rect x="582" y="200" width="6" height="0" stroke="black" stroke-width="1" fill="blue" opacity="1" tooltip="enable"><title>(0.123052,0)</title></rect><rect x="588" y="200" width="6" height="0" stroke="black" stroke-width="1" fill="blue" opacity="1" tooltip="enable"><title>(0.124321,0)</title></rect><rect x="594" y="199.823" width="6" height="0.176835" stroke="black" stroke-width="1" fill="blue" opacity="1" tooltip="enable"><title>(0.125589,1)</title></rect><text x="30" y="240" font-size="20" fill="black">0</text>
<text x="600" y="240" font-size="20" fill="black">0.126858</text>
<polyline points="0,220,600,220" stroke="black" stroke-width="1" fill="none" opacity="1"/>
<text x="720" y="20" font-size="20" fill="black">1131</text>
<text x="720" y="200" font-size="20" fill="black">0</text>
<polyline points="660,0,660,200" stroke="black" stroke-width="1" fill="none" opacity="1"/>
</svg>