<?xml version="1.0" standalone="yes"?>
<!-- SVG graphic -->
<svg xmlns='http://www.w3.org/2000/svg' xmlns:xlink='http://www.w3.org/1999/xlink'
 version="1.1">
<rect x="0" y="19.4338" width="6" height="180.566" stroke="black" stroke-width="1" fill="blue" opacity="1" tooltip="enable"><title>(0,1180)</title></rect><rect x="6" y="25.8607" width="6" height="174.139" stroke="black" stroke-width="1" fill="blue" opacity="1" tooltip="enable"><title>(0.00126607,1138)</title></rect><rect x="12" y="0" width="6" height="200" stroke="black" stroke-width="1" fill="blue" opacity="1" tooltip="enable"><title>(0.00253215,1307)</title></rect><rect x="18" y="120.122" width="6" height="79.8776" stroke="black" stroke-width="1" fill="blue" opacity="1" tooltip="enable"><title>(0.00379822,522)</title></rect><rect x="24" y="169.09" width="6" height="30.9105" stroke="black" stroke-width="1" fill="blue" opacity="1" tooltip="enable"><title>(0.0050643,202)</title></rect><rect x="30" y="171.385" width="6" height="28.6151" stroke="black" stroke-width="1" fill="blue" opacity="1" tooltip="enable"><title>(0.00633037,187)</title></rect><rect x="36" y="178.73" width="6" height="21.2701" stroke="black" stroke-width="1" fill="blue" opacity="1" tooltip="enable"><title>(0.00759645,139)</title></rect><rect x="42" y="185.769" width="6" height="14.2311" stroke="black" stroke-width="1" fill="blue" opacity="1" tooltip="enable"><title>(0.00886252,93)</title></rect><rect x="48" y="183.933" width="6" height="16.0673" stroke="black" stroke-width="1" fill="blue" opacity="1" tooltip="enable"><title>(0.0101286,105)</title></rect><rect x="54" y="185.616" width="6" height="14.3841" stroke="black" stroke-width="1" fill="blue" opacity="1" tooltip="enable"><title>(0.0113947,94)</title></rect><rect x="60" y="179.036" width="6" height="20.964" stroke="black" stroke-width="1" fill="blue" opacity="1" tooltip="enable"><title>(0.0126607,137)</title></rect><rect x="66" y="182.249" width="6" height="17.7506" stroke="black" stroke-width="1" fill="blue" opacity="1" tooltip="enable"><title>(0.0139268,116)</title></rect><rect x="72" y="186.534" width="6" height="13.466" stroke="black" stroke-width="1" fill="blue" opacity="1" tooltip="enable"><title>(0.0151929,88)</title></rect><rect x="78" y="185.31" width="6" height="14.6901" stroke="black" stroke-width="1" fill="blue" opacity="1" tooltip="enable"><title>(0.016459,96)</title></rect><rect x="84" y="187.605" width="6" height="12.3948" stroke="black" stroke-width="1" fill="blue" opacity="1" tooltip="enable"><title>(0.017725,81)</title></rect><rect x="90" y="187.605" width="6" height="12.3948" stroke="black" stroke-width="1" fill="blue" opacity="1" tooltip="enable"><title>(0.0189911,81)</title></rect><rect x="96" y="183.78" width="6" height="16.2204" stroke="black" stroke-width="1" fill="blue" opacity="1" tooltip="enable"><title>(0.0202572,106)</title></rect><rect x="102" y="186.534" width="6" height="13.466" stroke="black" stroke-width="1" fill="blue" opacity="1" tooltip="enable"><title>(0.0215233,88)</title></rect><rect x="108" y="187.452" width="6" height="12.5478" stroke="black" stroke-width="1" fill="blue" opacity="1" tooltip="enable"><title>(0.0227893,82)</title></rect><rect x="114" y="184.851" width="6" height="15.1492" stroke="black" stroke-width="1" fill="blue" opacity="1" tooltip="enable"><title>(0.0240554,99)</title></rect><rect x="120" y="179.954" width="6" height="20.0459" stroke="black" stroke-width="1" fill="blue" opacity="1" tooltip="enable"><title>(0.0253215,131)</title></rect><rect x="126" y="183.015" width="6" height="16.9855" stroke="black" stroke-width="1" fill="blue" opacity="1" tooltip="enable"><title>(0.0265876,111)</title></rect><rect x="132" y="178.73" width="6" height="21.2701" stroke="black" stroke-width="1" fill="blue" opacity="1" tooltip="enable"><title>(0.0278536,139)</title></rect><rect x="138" y="181.178" width="6" height="18.8217" stroke="black" stroke-width="1" fill="blue" opacity="1" tooltip="enable"><title>(0.0291197,123)</title></rect><rect x="144" y="184.239" width="6" height="15.7613" stroke="black" stroke-width="1" fill="blue" opacity="1" tooltip="enable"><title>(0.0303858,103)</title></rect><rect x="150" y="184.086" width="6" height="15.9143" stroke="black" stroke-width="1" fill="blue" opacity="1" tooltip="enable"><title>(0.0316519,104)</title></rect><rect x="156" y="186.993" width="6" height="13.0069" stroke="black" stroke-width="1" fill="blue" opacity="1" tooltip="enable"><title>(0.0329179,85)</title></rect><rect x="162" y="181.637" width="6" height="18.3627" stroke="black" stroke-width="1" fill="blue" opacity="1" tooltip="enable"><title>(0.034184,120)</title></rect><rect x="168" y="189.441" width="6" height="10.5585" stroke="black" stroke-width="1" fill="blue" opacity="1" tooltip="enable"><title>(0.0354501,69)</title></rect><rect x="174" y="184.239" width="6" height="15.7613" stroke="black" stroke-width="1" fill="blue" opacity="1" tooltip="enable"><title>(0.0367162,103)</title></rect><rect x="180" y="187.146" width="6" height="12.8539" stroke="black" stroke-width="1" fill="blue" opacity="1" tooltip="enable"><title>(0.0379822,84)</title></rect><rect x="186" y="185.769" width="6" height="14.2311" stroke="black" stroke-width="1" fill="blue" opacity="1" tooltip="enable"><title>(0.0392483,93)</title></rect><rect x="192" y="190.513" width="6" height="9.48738" stroke="black" stroke-width="1" fill="blue" opacity="1" tooltip="enable"><title>(0.0405144,62)</title></rect><rect x="198" y="187.758" width="6" height="12.2418" stroke="black" stroke-width="1" fill="blue" opacity="1" tooltip="enable"><title>(0.0417805,80)</title></rect><rect x="204" y="190.207" width="6" height="9.79342" stroke="black" stroke-width="1" fill="blue" opacity="1" tooltip="enable"><title>(0.0430465,64)</title></rect><rect x="210" y="190.666" width="6" height="9.33435" stroke="black" stroke-width="1" fill="blue" opacity="1" tooltip="enable"><title>(0.0443126,61)</title></rect><rect x="216" y="191.584" width="6" height="8.41622" stroke="black" stroke-width="1" fill="blue" opacity="1" tooltip="enable"><title>(0.0455787,55)</title></rect><rect x="222" y="191.278" width="6" height="8.72226" stroke="black" stroke-width="1" fill="blue" opacity="1" tooltip="enable"><title>(0.0468448,57)</title></rect><rect x="228" y="191.584" width="6" height="8.41622" stroke="black" stroke-width="1" fill="blue" opacity="1" tooltip="enable"><title>(0.0481108,55)</title></rect><rect x="234" y="193.573" width="6" height="6.42693" stroke="black" stroke-width="1" fill="blue" opacity="1" tooltip="enable"><title>(0.0493769,42)</title></rect><rect x="240" y="196.787" width="6" height="3.21347" stroke="black" stroke-width="1" fill="blue" opacity="1" tooltip="enable"><title>(0.050643,21)</title></rect><rect x="246" y="196.787" width="6" height="3.21347" stroke="black" stroke-width="1" fill="blue" opacity="1" tooltip="enable"><title>(0.0519091,21)</title></rect><rect x="252" y="197.246" width="6" height="2.7544" stroke="black" stroke-width="1" fill="blue" opacity="1" tooltip="enable"><title>(0.0531751,18)</title></rect><rect x="258" y="196.021" width="6" height="3.97858" stroke="black" stroke-width="1" fill="blue" opacity="1" tooltip="enable"><title>(0.0544412,26)</title></rect><rect x="264" y="197.093" width="6" height="2.90742" stroke="black" stroke-width="1" fill="blue" opacity="1" tooltip="enable"><title>(0.0557073,19)</title></rect><rect x="270" y="198.929" width="6" height="1.07116" stroke="black" stroke-width="1" fill="blue" opacity="1" tooltip="enable"><title>(0.0569734,7)</title></rect><rect x="276" y="198.164" width="6" height="1.83627" stroke="black" stroke-width="1" fill="blue" opacity="1" tooltip="enable"><title>(0.0582394,12)</title></rect><rect x="282" y="199.082" width="6" height="0.918133" stroke="black" stroke-width="1" fill="blue" opacity="1" tooltip="enable"><title>(0.0595055,6)</title></rect><rect x="288" y="199.388" width="6" height="0.612089" stroke="black" stroke-width="1" fill="blue" opacity="1" tooltip="enable"><title>(0.0607716,4)</title></rect><rect x="294" y="198.164" width="6" height="1.83627" stroke="black" stroke-width="1" fill="blue" opacity="1" tooltip="enable"><title>(0.0620377,12)</title></rect><rect x="300" y="198.164" width="6" height="1.83627" stroke="black" stroke-width="1" fill="blue" opacity="1" tooltip="enable"><title>(0.0633037,12)</title></rect><rect x="306" y="199.082" width="6" height="0.918133" stroke="black" stroke-width="1" fill="blue" opacity="1" tooltip="enable"><title>(0.0645698,6)</title></rect><rect x="312" y="197.552" width="6" height="2.44835" stroke="black" stroke-width="1" fill="blue" opacity="1" tooltip="enable"><title>(0.0658359,16)</title></rect><rect x="318" y="199.082" width="6" height="0.918133" stroke="black" stroke-width="1" fill="blue" opacity="1" tooltip="enable"><title>(0.067102,6)</title></rect><rect x="324" y="199.082" width="6" height="0.918133" stroke="black" stroke-width="1" fill="blue" opacity="1" tooltip="enable"><title>(0.068368,6)</title></rect><rect x="330" y="199.388" width="6" height="0.612089" stroke="black" stroke-width="1" fill="blue" opacity="1" tooltip="enable"><title>(0.0696341,4)</title></rect><rect x="336" y="198.929" width="6" height="1.07116" stroke="black" stroke-width="1" fill="blue" opacity="1" tooltip="enable"><title>(0.0709002,7)</title></rect><rect x="342" y="198.929" width="6" height="1.07116" stroke="black" stroke-width="1" fill="blue" opacity="1" tooltip="enable"><title>(0.0721663,7)</title></rect><rect x="348" y="199.541" width="6" height="0.459067" stroke="black" stroke-width="1" fill="blue" opacity="1" tooltip="enable"><title>(0.0734323,3)</title></rect><rect x="354" y="197.399" width="6" height="2.60138" stroke="black" stroke-width="1" fill="blue" opacity="1" tooltip="enable"><title>(0.0746984,17)</title></rect><rect x="360" y="199.388" width="6" height="0.612089" stroke="black" stroke-width="1" fill="blue" opacity="1" tooltip="enable"><title>(0.0759645,4)</title></rect><rect x="366" y="199.082" width="6" height="0.918133" stroke="black" stroke-width="1" fill="blue" opacity="1" tooltip="enable"><title>(0.0772306,6)</title></rect><rect x="372" y="199.694" width="6" height="0.306044" stroke="black" stroke-width="1" fill="blue" opacity="1" tooltip="enable"><title>(0.0784966,2)</title></rect><rect x="378" y="199.694" width="6" height="0.306044" stroke="black" stroke-width="1" fill="blue" opacity="1" tooltip="enable"><title>(0.0797627,2)</title></rect><rect x="384" y="199.388" width="6" height="0.612089" stroke="black" stroke-width="1" fill="blue" opacity="1" tooltip="enable"><title>(0.0810288,4)</title></rect><rect x="390" y="200" width="6" height="0" stroke="black" stroke-width="1" fill="blue" opacity="1" tooltip="enable"><title>(0.0822949,0)</title></rect><rect x="396" y="199.847" width="6" height="0.153022" stroke="black" stroke-width="1" fill="blue" opacity="1" tooltip="enable"><title>(0.0835609,1)</title></rect><rect x="402" y="198.776" width="6" height="1.22418" stroke="black" stroke-width="1" fill="blue" opacity="1" tooltip="enable"><title>(0.084827,8)</title></rect><rect x="408" y="198.623" width="6" height="1.3772" stroke="black" stroke-width="1" fill="blue" opacity="1" tooltip="enable"><title>(0.0860931,9)</title></rect><rect x="414" y="199.082" width="6" height="0.918133" stroke="black" stroke-width="1" fill="blue" opacity="1" tooltip="enable"><title>(0.0873592,6)</title></rect><rect x="420" y="199.694" width="6" height="0.306044" stroke="black" stroke-width="1" fill="blue" opacity="1" tooltip="enable"><title>(0.0886252,2)</title></rect><rect x="426" y="200" width="6" height="0" stroke="black" stroke-width="1" fill="blue" opacity="1" tooltip="enable"><title>(0.0898913,0)</title></rect><rect x="432" y="199.388" width="6" height="0.612089" stroke="black" stroke-width="1" fill="blue" opacity="1" tooltip="enable"><title>(0.0911574,4)</title></rect><rect x="438" y="198.47" width="6" height="1.53022" stroke="black" stroke-width="1" fill="blue" opacity="1" tooltip="enable"><title>(0.0924235,10)</title></rect><rect x="444" y="199.694" width="6" height="0.306044" stroke="black" stroke-width="1" fill="blue" opacity="1" tooltip="enable"><title>(0.0936895,2)</title></rect><rect x="450" y="199.694" width="6" height="0.306044" stroke="black" stroke-width="1" fill="blue" opacity="1" tooltip="enable"><title>(0.0949556,2)</title></rect><rect x="456" y="200" width="6" height="0" stroke="black" stroke-width="1" fill="blue" opacity="1" tooltip="enable"><title>(0.0962217,0)</title></rect><rect x="462" y="199.694" width="6" height="0.306044" stroke="black" stroke-width="1" fill="blue" opacity="1" tooltip="enable"><title>(0.0974878,2)</title></rect><rect x="468" y="199.694" width="6" height="0.306044" stroke="black" stroke-width="1" fill="blue" opacity="1" tooltip="enable"><title>(0.0987538,2)</title></rect><rect x="474" y="200" width="6" height="0" stroke="black" stroke-width="1" fill="blue" opacity="1" tooltip="enable"><title>(0.10002,0)</title></rect><rect x="480" y="200" width="6" height="0" stroke="black" stroke-width="1" fill="blue" opacity="1" tooltip="enable"><title>(0.101286,0)</title></rect><rect x="486" y="200" width="6" height="0" stroke="black" stroke-width="1" fill="blue" opacity="1" tooltip="enable"><title>(0.102552,0)</title></rect><rect x="492" y="200" width="6" height="0" stroke="black" stroke-width="1" fill="blue" opacity="1" tooltip="enable"><title>(0.103818,0)</title></rect><rect x="498" y="199.847" width="6" height="0.153022" stroke="black" stroke-width="1" fill="blue" opacity="1" tooltip="enable"><title>(0.105084,1)</title></rect><rect x="504" y="199.541" width="6" height="0.459067" stroke="black" stroke-width="1" fill="blue" opacity="1" tooltip="enable"><title>(0.10635,3)</title></rect><rect x="510" y="199.694" width="6" height="0.306044" stroke="black" stroke-width="1" fill="blue" opacity="1" tooltip="enable"><title>(0.107616,2)</title></rect><rect x="516" y="200" width="6" height="0" stroke="black" stroke-width="1" fill="blue" opacity="1" tooltip="enable"><title>(0.108882,0)</title></rect><rect x="522" y="199.694" width="6" height="0.306044" stroke="black" stroke-width="1" fill="blue" opacity="1" tooltip="enable"><title>(0.110149,2)</title></rect><rect x="528" y="200" width="6" height="0" stroke="black" stroke-width="1" fill="blue" opacity="1" tooltip="enable"><title>(0.111415,0)</title></rect><rect x="534" y="199.082" width="6" height="0.918133" stroke="black" stroke-width="1" fill="blue" opacity="1" tooltip="enable"><title>(0.112681,6)</title></rect><rect x="540" y="200" width="6" height="0" stroke="black" stroke-width="1" fill="blue" opacity="1" tooltip="enable"><title>(0.113947,0)</title></rect><rect x="546" y="199.694" width="6" height="0.306044" stroke="black" stroke-width="1" fill="blue" opacity="1" tooltip="enable"><title>(0.115213,2)</title></rect><rect x="552" y="199.694" width="6" height="0.306044" stroke="black" stroke-width="1" fill="blue" opacity="1" tooltip="enable"><title>(0.116479,2)</title></rect><rect x="558" y="200" width="6" height="0" stroke="black" stroke-width="1" fill="blue" opacity="1" tooltip="enable"><title>(0.117745,0)</title></rect><rect x="564" y="199.694" width="6" height="0.306044" stroke="black" stroke-width="1" fill="blue" opacity="1" tooltip="enable"><title>(0.119011,2)</title></rect><rect x="570" y="200" width="6" height="0" stroke="black" stroke-width="1" fill="blue" opacity="1" tooltip="enable"><title>(0.120277,0)</title></rect><rect x="576" y="200" width="6" height="0" stroke="black" stroke-width="1" fill="blue" opacity="1" tooltip="enable"><title>(0.121543,0)</title></rect><rect x="582" y="200" width="6" height="0" stroke="black" stroke-width="1" fill="blue" opacity="1" tooltip="enable"><title>(0.122809,0)</title></rect><rect x="588" y="200" width="6" height="0" stroke="black" stroke-width="1" fill="blue" opacity="1" tooltip="enable"><title>(0.124075,0)</title></rect><rect x="594" y="199.847" width="6" height="0.153022" stroke="black" stroke-width="1" fill="blue" opacity="1" tooltip="enable"><title>(0.125341,1)</title></rect><text x="30" y="240" font-size="20" fill="black">0</text>
<text x="600" y="240" font-size="20" fill="black">0.126607</text>
<polyline points="0,220,600,220" stroke="black" stroke-width="1" fill="none" opacity="1"/>
<text x="720" y="20" font-size="20" fill="black">1307</text>
<text x="720" y="200" font-size="20" fill="black">0</text>
<polyline points="660,0,660,200" stroke="black" stroke-width="1" fill="none" opacity="1"/>
</svg>