<?xml version="1.0" standalone="yes"?>
<!-- SVG graphic -->
<svg xmlns='http://www.w3.org/2000/svg' xmlns:xlink='http://www.w3.org/1999/xlink'
 version="1.1">
<rect x="0" y="0" width="6" height="200" stroke="black" stroke-width="1" fill="blue" opacity="1" tooltip="enable"><title>(0,1375)</title></rect><rect x="6" y="21.5273" width="6" height="178.473" stroke="black" stroke-width="1" fill="blue" opacity="1" tooltip="enable"><title>(0.00120362,1227)</title></rect><rect x="12" y="31.7091" width="6" height="168.291" stroke="black" stroke-width="1" fill="blue" opacity="1" tooltip="enable"><title>(0.00240723,1157)</title></rect><rect x="18" y="121.309" width="6" height="78.6909" stroke="black" stroke-width="1" fill="blue" opacity="1" tooltip="enable"><title>(0.00361085,541)</title></rect><rect x="24" y="163.345" width="6" height="36.6545" stroke="black" stroke-width="1" fill="blue" opacity="1" tooltip="enable"><title>(0.00481446,252)</title></rect><rect x="30" y="175.127" width="6" height="24.8727" stroke="black" stroke-width="1" fill="blue" opacity="1" tooltip="enable"><title>(0.00601808,171)</title></rect><rect x="36" y="175.564" width="6" height="24.4364" stroke="black" stroke-width="1" fill="blue" opacity="1" tooltip="enable"><title>(0.0072217,168)</title></rect><rect x="42" y="177.455" width="6" height="22.5455" stroke="black" stroke-width="1" fill="blue" opacity="1" tooltip="enable"><title>(0.00842531,155)</title></rect><rect x="48" y="184.873" width="6" height="15.1273" stroke="black" stroke-width="1" fill="blue" opacity="1" tooltip="enable"><title>(0.00962893,104)</title></rect><rect x="54" y="186.327" width="6" height="13.6727" stroke="black" stroke-width="1" fill="blue" opacity="1" tooltip="enable"><title>(0.0108325,94)</title></rect><rect x="60" y="181.236" width="6" height="18.7636" stroke="black" stroke-width="1" fill="blue" opacity="1" tooltip="enable"><title>(0.0120362,129)</title></rect><rect x="66" y="182.255" width="6" height="17.7455" stroke="black" stroke-width="1" fill="blue" opacity="1" tooltip="enable"><title>(0.0132398,122)</title></rect><rect x="72" y="182.4" width="6" height="17.6" stroke="black" stroke-width="1" fill="blue" opacity="1" tooltip="enable"><title>(0.0144434,121)</title></rect><rect x="78" y="182.836" width="6" height="17.1636" stroke="black" stroke-width="1" fill="blue" opacity="1" tooltip="enable"><title>(0.015647,118)</title></rect><rect x="84" y="186.473" width="6" height="13.5273" stroke="black" stroke-width="1" fill="blue" opacity="1" tooltip="enable"><title>(0.0168506,93)</title></rect><rect x="90" y="184.727" width="6" height="15.2727" stroke="black" stroke-width="1" fill="blue" opacity="1" tooltip="enable"><title>(0.0180542,105)</title></rect><rect x="96" y="183.418" width="6" height="16.5818" stroke="black" stroke-width="1" fill="blue" opacity="1" tooltip="enable"><title>(0.0192579,114)</title></rect><rect x="102" y="183.418" width="6" height="16.5818" stroke="black" stroke-width="1" fill="blue" opacity="1" tooltip="enable"><title>(0.0204615,114)</title></rect><rect x="108" y="183.855" width="6" height="16.1455" stroke="black" stroke-width="1" fill="blue" opacity="1" tooltip="enable"><title>(0.0216651,111)</title></rect><rect x="114" y="185.309" width="6" height="14.6909" stroke="black" stroke-width="1" fill="blue" opacity="1" tooltip="enable"><title>(0.0228687,101)</title></rect><rect x="120" y="185.018" width="6" height="14.9818" stroke="black" stroke-width="1" fill="blue" opacity="1" tooltip="enable"><title>(0.0240723,103)</title></rect><rect x="126" y="186.327" width="6" height="13.6727" stroke="black" stroke-width="1" fill="blue" opacity="1" tooltip="enable"><title>(0.0252759,94)</title></rect><rect x="132" y="180.8" width="6" height="19.2" stroke="black" stroke-width="1" fill="blue" opacity="1" tooltip="enable"><title>(0.0264796,132)</title></rect><rect x="138" y="184.436" width="6" height="15.5636" stroke="black" stroke-width="1" fill="blue" opacity="1" tooltip="enable"><title>(0.0276832,107)</title></rect><rect x="144" y="186.036" width="6" height="13.9636" stroke="black" stroke-width="1" fill="blue" opacity="1" tooltip="enable"><title>(0.0288868,96)</title></rect><rect x="150" y="186.618" width="6" height="13.3818" stroke="black" stroke-width="1" fill="blue" opacity="1" tooltip="enable"><title>(0.0300904,92)</title></rect><rect x="156" y="185.6" width="6" height="14.4" stroke="black" stroke-width="1" fill="blue" opacity="1" tooltip="enable"><title>(0.031294,99)</title></rect><rect x="162" y="186.182" width="6" height="13.8182" stroke="black" stroke-width="1" fill="blue" opacity="1" tooltip="enable"><title>(0.0324976,95)</title></rect><rect x="168" y="187.345" width="6" height="12.6545" stroke="black" stroke-width="1" fill="blue" opacity="1" tooltip="enable"><title>(0.0337013,87)</title></rect><rect x="174" y="188.8" width="6" height="11.2" stroke="black" stroke-width="1" fill="blue" opacity="1" tooltip="enable"><title>(0.0349049,77)</title></rect><rect x="180" y="192.291" width="6" height="7.70909" stroke="black" stroke-width="1" fill="blue" opacity="1" tooltip="enable"><title>(0.0361085,53)</title></rect><rect x="186" y="188.364" width="6" height="11.6364" stroke="black" stroke-width="1" fill="blue" opacity="1" tooltip="enable"><title>(0.0373121,80)</title></rect><rect x="192" y="193.164" width="6" height="6.83636" stroke="black" stroke-width="1" fill="blue" opacity="1" tooltip="enable"><title>(0.0385157,47)</title></rect><rect x="198" y="190.691" width="6" height="9.30909" stroke="black" stroke-width="1" fill="blue" opacity="1" tooltip="enable"><title>(0.0397193,64)</title></rect><rect x="204" y="192.727" width="6" height="7.27273" stroke="black" stroke-width="1" fill="blue" opacity="1" tooltip="enable"><title>(0.0409229,50)</title></rect><rect x="210" y="194.764" width="6" height="5.23636" stroke="black" stroke-width="1" fill="blue" opacity="1" tooltip="enable"><title>(0.0421266,36)</title></rect><rect x="216" y="194.327" width="6" height="5.67273" stroke="black" stroke-width="1" fill="blue" opacity="1" tooltip="enable"><title>(0.0433302,39)</title></rect><rect x="222" y="196.655" width="6" height="3.34545" stroke="black" stroke-width="1" fill="blue" opacity="1" tooltip="enable"><title>(0.0445338,23)</title></rect><rect x="228" y="197.091" width="6" height="2.90909" stroke="black" stroke-width="1" fill="blue" opacity="1" tooltip="enable"><title>(0.0457374,20)</title></rect><rect x="234" y="197.673" width="6" height="2.32727" stroke="black" stroke-width="1" fill="blue" opacity="1" tooltip="enable"><title>(0.046941,16)</title></rect><rect x="240" y="196.509" width="6" height="3.49091" stroke="black" stroke-width="1" fill="blue" opacity="1" tooltip="enable"><title>(0.0481446,24)</title></rect><rect x="246" y="196.655" width="6" height="3.34545" stroke="black" stroke-width="1" fill="blue" opacity="1" tooltip="enable"><title>(0.0493483,23)</title></rect><rect x="252" y="197.818" width="6" height="2.18182" stroke="black" stroke-width="1" fill="blue" opacity="1" tooltip="enable"><title>(0.0505519,15)</title></rect><rect x="258" y="197.382" width="6" height="2.61818" stroke="black" stroke-width="1" fill="blue" opacity="1" tooltip="enable"><title>(0.0517555,18)</title></rect><rect x="264" y="197.527" width="6" height="2.47273" stroke="black" stroke-width="1" fill="blue" opacity="1" tooltip="enable"><title>(0.0529591,17)</title></rect><rect x="270" y="199.273" width="6" height="0.727273" stroke="black" stroke-width="1" fill="blue" opacity="1" tooltip="enable"><title>(0.0541627,5)</title></rect><rect x="276" y="199.127" width="6" height="0.872727" stroke="black" stroke-width="1" fill="blue" opacity="1" tooltip="enable"><title>(0.0553663,6)</title></rect><rect x="282" y="199.273" width="6" height="0.727273" stroke="black" stroke-width="1" fill="blue" opacity="1" tooltip="enable"><title>(0.05657,5)</title></rect><rect x="288" y="197.673" width="6" height="2.32727" stroke="black" stroke-width="1" fill="blue" opacity="1" tooltip="enable"><title>(0.0577736,16)</title></rect><rect x="294" y="199.273" width="6" height="0.727273" stroke="black" stroke-width="1" fill="blue" opacity="1" tooltip="enable"><title>(0.0589772,5)</title></rect><rect x="300" y="199.709" width="6" height="0.290909" stroke="black" stroke-width="1" fill="blue" opacity="1" tooltip="enable"><title>(0.0601808,2)</title></rect><rect x="306" y="199.418" width="6" height="0.581818" stroke="black" stroke-width="1" fill="blue" opacity="1" tooltip="enable"><title>(0.0613844,4)</title></rect><rect x="312" y="199.127" width="6" height="0.872727" stroke="black" stroke-width="1" fill="blue" opacity="1" tooltip="enable"><title>(0.062588,6)</title></rect><rect x="318" y="200" width="6" height="0" stroke="black" stroke-width="1" fill="blue" opacity="1" tooltip="enable"><title>(0.0637916,0)</title></rect><rect x="324" y="199.127" width="6" height="0.872727" stroke="black" stroke-width="1" fill="blue" opacity="1" tooltip="enable"><title>(0.0649953,6)</title></rect><rect x="330" y="199.127" width="6" height="0.872727" stroke="black" stroke-width="1" fill="blue" opacity="1" tooltip="enable"><title>(0.0661989,6)</title></rect><rect x="336" y="199.418" width="6" height="0.581818" stroke="black" stroke-width="1" fill="blue" opacity="1" tooltip="enable"><title>(0.0674025,4)</title></rect><rect x="342" y="198.836" width="6" height="1.16364" stroke="black" stroke-width="1" fill="blue" opacity="1" tooltip="enable"><title>(0.0686061,8)</title></rect><rect x="348" y="198.255" width="6" height="1.74545" stroke="black" stroke-width="1" fill="blue" opacity="1" tooltip="enable"><title>(0.0698097,12)</title></rect><rect x="354" y="200" width="6" height="0" stroke="black" stroke-width="1" fill="blue" opacity="1" tooltip="enable"><title>(0.0710133,0)</title></rect><rect x="360" y="199.127" width="6" height="0.872727" stroke="black" stroke-width="1" fill="blue" opacity="1" tooltip="enable"><title>(0.072217,6)</title></rect><rect x="366" y="200" width="6" height="0" stroke="black" stroke-width="1" fill="blue" opacity="1" tooltip="enable"><title>(0.0734206,0)</title></rect><rect x="372" y="198.836" width="6" height="1.16364" stroke="black" stroke-width="1" fill="blue" opacity="1" tooltip="enable"><title>(0.0746242,8)</title></rect><rect x="378" y="200" width="6" height="0" stroke="black" stroke-width="1" fill="blue" opacity="1" tooltip="enable"><title>(0.0758278,0)</title></rect><rect x="384" y="199.709" width="6" height="0.290909" stroke="black" stroke-width="1" fill="blue" opacity="1" tooltip="enable"><title>(0.0770314,2)</title></rect><rect x="390" y="199.855" width="6" height="0.145455" stroke="black" stroke-width="1" fill="blue" opacity="1" tooltip="enable"><title>(0.078235,1)</title></rect><rect x="396" y="199.564" width="6" height="0.436364" stroke="black" stroke-width="1" fill="blue" opacity="1" tooltip="enable"><title>(0.0794387,3)</title></rect><rect x="402" y="199.418" width="6" height="0.581818" stroke="black" stroke-width="1" fill="blue" opacity="1" tooltip="enable"><title>(0.0806423,4)</title></rect><rect x="408" y="199.709" width="6" height="0.290909" stroke="black" stroke-width="1" fill="blue" opacity="1" tooltip="enable"><title>(0.0818459,2)</title></rect><rect x="414" y="199.709" width="6" height="0.290909" stroke="black" stroke-width="1" fill="blue" opacity="1" tooltip="enable"><title>(0.0830495,2)</title></rect><rect x="420" y="199.709" width="6" height="0.290909" stroke="black" stroke-width="1" fill="blue" opacity="1" tooltip="enable"><title>(0.0842531,2)</title></rect><rect x="426" y="200" width="6" height="0" stroke="black" stroke-width="1" fill="blue" opacity="1" tooltip="enable"><title>(0.0854567,0)</title></rect><rect x="432" y="200" width="6" height="0" stroke="black" stroke-width="1" fill="blue" opacity="1" tooltip="enable"><title>(0.0866604,0)</title></rect><rect x="438" y="200" width="6" height="0" stroke="black" stroke-width="1" fill="blue" opacity="1" tooltip="enable"><title>(0.087864,0)</title></rect><rect x="444" y="200" width="6" height="0" stroke="black" stroke-width="1" fill="blue" opacity="1" tooltip="enable"><title>(0.0890676,0)</title></rect><rect x="450" y="200" width="6" height="0" stroke="black" stroke-width="1" fill="blue" opacity="1" tooltip="enable"><title>(0.0902712,0)</title></rect><rect x="456" y="200" width="6" height="0" stroke="black" stroke-width="1" fill="blue" opacity="1" tooltip="enable"><title>(0.0914748,0)</title></rect><rect x="462" y="200" width="6" height="0" stroke="black" stroke-width="1" fill="blue" opacity="1" tooltip="enable"><title>(0.0926784,0)</title></rect><rect x="468" y="200" width="6" height="0" stroke="black" stroke-width="1" fill="blue" opacity="1" tooltip="enable"><title>(0.0938821,0)</title></rect><rect x="474" y="200" width="6" height="0" stroke="black" stroke-width="1" fill="blue" opacity="1" tooltip="enable"><title>(0.0950857,0)</title></rect><rect x="480" y="200" width="6" height="0" stroke="black" stroke-width="1" fill="blue" opacity="1" tooltip="enable"><title>(0.0962893,0)</title></rect><rect x="486" y="200" width="6" height="0" stroke="black" stroke-width="1" fill="blue" opacity="1" tooltip="enable"><title>(0.0974929,0)</title></rect><rect x="492" y="200" width="6" height="0" stroke="black" stroke-width="1" fill="blue" opacity="1" tooltip="enable"><title>(0.0986965,0)</title></rect><rect x="498" y="200" width="6" height="0" stroke="black" stroke-width="1" fill="blue" opacity="1" tooltip="enable"><title>(0.0999001,0)</title></rect><rect x="504" y="200" width="6" height="0" stroke="black" stroke-width="1" fill="blue" opacity="1" tooltip="enable"><title>(0.101104,0)</title></rect><rect x="510" y="200" width="6" height="0" stroke="black" stroke-width="1" fill="blue" opacity="1" tooltip="enable"><title>(0.102307,0)</title></rect><rect x="516" y="200" width="6" height="0" stroke="black" stroke-width="1" fill="blue" opacity="1" tooltip="enable"><title>(0.103511,0)</title></rect><rect x="522" y="200" width="6" height="0" stroke="black" stroke-width="1" fill="blue" opacity="1" tooltip="enable"><title>(0.104715,0)</title></rect><rect x="528" y="199.418" width="6" height="0.581818" stroke="black" stroke-width="1" fill="blue" opacity="1" tooltip="enable"><title>(0.105918,4)</title></rect><rect x="534" y="200" width="6" height="0" stroke="black" stroke-width="1" fill="blue" opacity="1" tooltip="enable"><title>(0.107122,0)</title></rect><rect x="540" y="200" width="6" height="0" stroke="black" stroke-width="1" fill="blue" opacity="1" tooltip="enable"><title>(0.108325,0)</title></rect><rect x="546" y="200" width="6" height="0" stroke="black" stroke-width="1" fill="blue" opacity="1" tooltip="enable"><title>(0.109529,0)</title></rect><rect x="552" y="200" width="6" height="0" stroke="black" stroke-width="1" fill="blue" opacity="1" tooltip="enable"><title>(0.110733,0)</title></rect><rect x="558" y="200" width="6" height="0" stroke="black" stroke-width="1" fill="blue" opacity="1" tooltip="enable"><title>(0.111936,0)</title></rect><rect x="564" y="200" width="6" height="0" stroke="black" stroke-width="1" fill="blue" opacity="1" tooltip="enable"><title>(0.11314,0)</title></rect><rect x="570" y="200" width="6" height="0" stroke="black" stroke-width="1" fill="blue" opacity="1" tooltip="enable"><title>(0.114344,0)</title></rect><rect x="576" y="200" width="6" height="0" stroke="black" stroke-width="1" fill="blue" opacity="1" tooltip="enable"><title>(0.115547,0)</title></rect><rect x="582" y="200" width="6" height="0" stroke="black" stroke-width="1" fill="blue" opacity="1" tooltip="enable"><title>(0.116751,0)</title></rect><rect x="588" y="200" width="6" height="0" stroke="black" stroke-width="1" fill="blue" opacity="1" tooltip="enable"><title>(0.117954,0)</title></rect><rect x="594" y="199.855" width="6" height="0.145455" stroke="black" stroke-width="1" fill="blue" opacity="1" tooltip="enable"><title>(0.119158,1)</title></rect><text x="30" y="240" font-size="20" fill="black">0</text>
<text x="600" y="240" font-size="20" fill="black">0.120362</text>
<polyline points="0,220,600,220" stroke="black" stroke-width="1" fill="none" opacity="1"/>
<text x="720" y="20" font-size="20" fill="black">1375</text>
<text x="720" y="200" font-size="20" fill="black">0</text>
<polyline points="660,0,660,200" stroke="black" stroke-width="1" fill="none" opacity="1"/>
</svg>