<?xml version="1.0" standalone="yes"?>
<!-- SVG graphic -->
<svg xmlns='http://www.w3.org/2000/svg' xmlns:xlink='http://www.w3.org/1999/xlink'
 version="1.1">
<rect x="0" y="26.8687" width="6" height="173.131" stroke="black" stroke-width="1" fill="blue" opacity="1" tooltip="enable"><title>(0,857)</title></rect><rect x="6" y="0" width="6" height="200" stroke="black" stroke-width="1" fill="blue" opacity="1" tooltip="enable"><title>(0.00134246,990)</title></rect><rect x="12" y="22.8283" width="6" height="177.172" stroke="black" stroke-width="1" fill="blue" opacity="1" tooltip="enable"><title>(0.00268491,877)</title></rect><rect x="18" y="67.4747" width="6" height="132.525" stroke="black" stroke-width="1" fill="blue" opacity="1" tooltip="enable"><title>(0.00402737,656)</title></rect><rect x="24" y="98.7879" width="6" height="101.212" stroke="black" stroke-width="1" fill="blue" opacity="1" tooltip="enable"><title>(0.00536983,501)</title></rect><rect x="30" y="118.384" width="6" height="81.6162" stroke="black" stroke-width="1" fill="blue" opacity="1" tooltip="enable"><title>(0.00671228,404)</title></rect><rect x="36" y="129.899" width="6" height="70.101" stroke="black" stroke-width="1" fill="blue" opacity="1" tooltip="enable"><title>(0.00805474,347)</title></rect><rect x="42" y="129.495" width="6" height="70.5051" stroke="black" stroke-width="1" fill="blue" opacity="1" tooltip="enable"><title>(0.00939719,349)</title></rect><rect x="48" y="130.303" width="6" height="69.697" stroke="black" stroke-width="1" fill="blue" opacity="1" tooltip="enable"><title>(0.0107397,345)</title></rect><rect x="54" y="141.212" width="6" height="58.7879" stroke="black" stroke-width="1" fill="blue" opacity="1" tooltip="enable"><title>(0.0120821,291)</title></rect><rect x="60" y="161.818" width="6" height="38.1818" stroke="black" stroke-width="1" fill="blue" opacity="1" tooltip="enable"><title>(0.0134246,189)</title></rect><rect x="66" y="158.384" width="6" height="41.6162" stroke="black" stroke-width="1" fill="blue" opacity="1" tooltip="enable"><title>(0.014767,206)</title></rect><rect x="72" y="160.808" width="6" height="39.1919" stroke="black" stroke-width="1" fill="blue" opacity="1" tooltip="enable"><title>(0.0161095,194)</title></rect><rect x="78" y="166.061" width="6" height="33.9394" stroke="black" stroke-width="1" fill="blue" opacity="1" tooltip="enable"><title>(0.0174519,168)</title></rect><rect x="84" y="173.131" width="6" height="26.8687" stroke="black" stroke-width="1" fill="blue" opacity="1" tooltip="enable"><title>(0.0187944,133)</title></rect><rect x="90" y="178.99" width="6" height="21.0101" stroke="black" stroke-width="1" fill="blue" opacity="1" tooltip="enable"><title>(0.0201368,104)</title></rect><rect x="96" y="176.364" width="6" height="23.6364" stroke="black" stroke-width="1" fill="blue" opacity="1" tooltip="enable"><title>(0.0214793,117)</title></rect><rect x="102" y="185.253" width="6" height="14.7475" stroke="black" stroke-width="1" fill="blue" opacity="1" tooltip="enable"><title>(0.0228218,73)</title></rect><rect x="108" y="184.646" width="6" height="15.3535" stroke="black" stroke-width="1" fill="blue" opacity="1" tooltip="enable"><title>(0.0241642,76)</title></rect><rect x="114" y="188.081" width="6" height="11.9192" stroke="black" stroke-width="1" fill="blue" opacity="1" tooltip="enable"><title>(0.0255067,59)</title></rect><rect x="120" y="185.657" width="6" height="14.3434" stroke="black" stroke-width="1" fill="blue" opacity="1" tooltip="enable"><title>(0.0268491,71)</title></rect><rect x="126" y="187.677" width="6" height="12.3232" stroke="black" stroke-width="1" fill="blue" opacity="1" tooltip="enable"><title>(0.0281916,61)</title></rect><rect x="132" y="189.899" width="6" height="10.101" stroke="black" stroke-width="1" fill="blue" opacity="1" tooltip="enable"><title>(0.029534,50)</title></rect><rect x="138" y="190.707" width="6" height="9.29293" stroke="black" stroke-width="1" fill="blue" opacity="1" tooltip="enable"><title>(0.0308765,46)</title></rect><rect x="144" y="191.919" width="6" height="8.08081" stroke="black" stroke-width="1" fill="blue" opacity="1" tooltip="enable"><title>(0.032219,40)</title></rect><rect x="150" y="192.323" width="6" height="7.67677" stroke="black" stroke-width="1" fill="blue" opacity="1" tooltip="enable"><title>(0.0335614,38)</title></rect><rect x="156" y="191.717" width="6" height="8.28283" stroke="black" stroke-width="1" fill="blue" opacity="1" tooltip="enable"><title>(0.0349039,41)</title></rect><rect x="162" y="190.707" width="6" height="9.29293" stroke="black" stroke-width="1" fill="blue" opacity="1" tooltip="enable"><title>(0.0362463,46)</title></rect><rect x="168" y="192.929" width="6" height="7.07071" stroke="black" stroke-width="1" fill="blue" opacity="1" tooltip="enable"><title>(0.0375888,35)</title></rect><rect x="174" y="192.727" width="6" height="7.27273" stroke="black" stroke-width="1" fill="blue" opacity="1" tooltip="enable"><title>(0.0389312,36)</title></rect><rect x="180" y="195.556" width="6" height="4.44444" stroke="black" stroke-width="1" fill="blue" opacity="1" tooltip="enable"><title>(0.0402737,22)</title></rect><rect x="186" y="191.515" width="6" height="8.48485" stroke="black" stroke-width="1" fill="blue" opacity="1" tooltip="enable"><title>(0.0416161,42)</title></rect><rect x="192" y="192.323" width="6" height="7.67677" stroke="black" stroke-width="1" fill="blue" opacity="1" tooltip="enable"><title>(0.0429586,38)</title></rect><rect x="198" y="191.919" width="6" height="8.08081" stroke="black" stroke-width="1" fill="blue" opacity="1" tooltip="enable"><title>(0.0443011,40)</title></rect><rect x="204" y="195.556" width="6" height="4.44444" stroke="black" stroke-width="1" fill="blue" opacity="1" tooltip="enable"><title>(0.0456435,22)</title></rect><rect x="210" y="195.152" width="6" height="4.84848" stroke="black" stroke-width="1" fill="blue" opacity="1" tooltip="enable"><title>(0.046986,24)</title></rect><rect x="216" y="195.96" width="6" height="4.0404" stroke="black" stroke-width="1" fill="blue" opacity="1" tooltip="enable"><title>(0.0483284,20)</title></rect><rect x="222" y="193.131" width="6" height="6.86869" stroke="black" stroke-width="1" fill="blue" opacity="1" tooltip="enable"><title>(0.0496709,34)</title></rect><rect x="228" y="195.152" width="6" height="4.84848" stroke="black" stroke-width="1" fill="blue" opacity="1" tooltip="enable"><title>(0.0510133,24)</title></rect><rect x="234" y="195.152" width="6" height="4.84848" stroke="black" stroke-width="1" fill="blue" opacity="1" tooltip="enable"><title>(0.0523558,24)</title></rect><rect x="240" y="194.747" width="6" height="5.25253" stroke="black" stroke-width="1" fill="blue" opacity="1" tooltip="enable"><title>(0.0536983,26)</title></rect><rect x="246" y="197.172" width="6" height="2.82828" stroke="black" stroke-width="1" fill="blue" opacity="1" tooltip="enable"><title>(0.0550407,14)</title></rect><rect x="252" y="197.98" width="6" height="2.0202" stroke="black" stroke-width="1" fill="blue" opacity="1" tooltip="enable"><title>(0.0563832,10)</title></rect><rect x="258" y="198.788" width="6" height="1.21212" stroke="black" stroke-width="1" fill="blue" opacity="1" tooltip="enable"><title>(0.0577256,6)</title></rect><rect x="264" y="193.939" width="6" height="6.06061" stroke="black" stroke-width="1" fill="blue" opacity="1" tooltip="enable"><title>(0.0590681,30)</title></rect><rect x="270" y="198.384" width="6" height="1.61616" stroke="black" stroke-width="1" fill="blue" opacity="1" tooltip="enable"><title>(0.0604105,8)</title></rect><rect x="276" y="197.576" width="6" height="2.42424" stroke="black" stroke-width="1" fill="blue" opacity="1" tooltip="enable"><title>(0.061753,12)</title></rect><rect x="282" y="197.576" width="6" height="2.42424" stroke="black" stroke-width="1" fill="blue" opacity="1" tooltip="enable"><title>(0.0630955,12)</title></rect><rect x="288" y="197.98" width="6" height="2.0202" stroke="black" stroke-width="1" fill="blue" opacity="1" tooltip="enable"><title>(0.0644379,10)</title></rect><rect x="294" y="197.172" width="6" height="2.82828" stroke="black" stroke-width="1" fill="blue" opacity="1" tooltip="enable"><title>(0.0657804,14)</title></rect><rect x="300" y="197.172" width="6" height="2.82828" stroke="black" stroke-width="1" fill="blue" opacity="1" tooltip="enable"><title>(0.0671228,14)</title></rect><rect x="306" y="198.99" width="6" height="1.0101" stroke="black" stroke-width="1" fill="blue" opacity="1" tooltip="enable"><title>(0.0684653,5)</title></rect><rect x="312" y="197.374" width="6" height="2.62626" stroke="black" stroke-width="1" fill="blue" opacity="1" tooltip="enable"><title>(0.0698077,13)</title></rect><rect x="318" y="198.384" width="6" height="1.61616" stroke="black" stroke-width="1" fill="blue" opacity="1" tooltip="enable"><title>(0.0711502,8)</title></rect><rect x="324" y="196.364" width="6" height="3.63636" stroke="black" stroke-width="1" fill="blue" opacity="1" tooltip="enable"><title>(0.0724926,18)</title></rect><rect x="330" y="198.384" width="6" height="1.61616" stroke="black" stroke-width="1" fill="blue" opacity="1" tooltip="enable"><title>(0.0738351,8)</title></rect><rect x="336" y="196.97" width="6" height="3.0303" stroke="black" stroke-width="1" fill="blue" opacity="1" tooltip="enable"><title>(0.0751776,15)</title></rect><rect x="342" y="198.586" width="6" height="1.41414" stroke="black" stroke-width="1" fill="blue" opacity="1" tooltip="enable"><title>(0.07652,7)</title></rect><rect x="348" y="197.98" width="6" height="2.0202" stroke="black" stroke-width="1" fill="blue" opacity="1" tooltip="enable"><title>(0.0778625,10)</title></rect><rect x="354" y="198.384" width="6" height="1.61616" stroke="black" stroke-width="1" fill="blue" opacity="1" tooltip="enable"><title>(0.0792049,8)</title></rect><rect x="360" y="200" width="6" height="0" stroke="black" stroke-width="1" fill="blue" opacity="1" tooltip="enable"><title>(0.0805474,0)</title></rect><rect x="366" y="199.192" width="6" height="0.808081" stroke="black" stroke-width="1" fill="blue" opacity="1" tooltip="enable"><title>(0.0818898,4)</title></rect><rect x="372" y="198.788" width="6" height="1.21212" stroke="black" stroke-width="1" fill="blue" opacity="1" tooltip="enable"><title>(0.0832323,6)</title></rect><rect x="378" y="198.788" width="6" height="1.21212" stroke="black" stroke-width="1" fill="blue" opacity="1" tooltip="enable"><title>(0.0845748,6)</title></rect><rect x="384" y="199.596" width="6" height="0.40404" stroke="black" stroke-width="1" fill="blue" opacity="1" tooltip="enable"><title>(0.0859172,2)</title></rect><rect x="390" y="200" width="6" height="0" stroke="black" stroke-width="1" fill="blue" opacity="1" tooltip="enable"><title>(0.0872597,0)</title></rect><rect x="396" y="200" width="6" height="0" stroke="black" stroke-width="1" fill="blue" opacity="1" tooltip="enable"><title>(0.0886021,0)</title></rect><rect x="402" y="199.596" width="6" height="0.40404" stroke="black" stroke-width="1" fill="blue" opacity="1" tooltip="enable"><title>(0.0899446,2)</title></rect><rect x="408" y="199.596" width="6" height="0.40404" stroke="black" stroke-width="1" fill="blue" opacity="1" tooltip="enable"><title>(0.091287,2)</title></rect><rect x="414" y="199.596" width="6" height="0.40404" stroke="black" stroke-width="1" fill="blue" opacity="1" tooltip="enable"><title>(0.0926295,2)</title></rect><rect x="420" y="199.596" width="6" height="0.40404" stroke="black" stroke-width="1" fill="blue" opacity="1" tooltip="enable"><title>(0.0939719,2)</title></rect><rect x="426" y="200" width="6" height="0" stroke="black" stroke-width="1" fill="blue" opacity="1" tooltip="enable"><title>(0.0953144,0)</title></rect><rect x="432" y="198.788" width="6" height="1.21212" stroke="black" stroke-width="1" fill="blue" opacity="1" tooltip="enable"><title>(0.0966569,6)</title></rect><rect x="438" y="199.596" width="6" height="0.40404" stroke="black" stroke-width="1" fill="blue" opacity="1" tooltip="enable"><title>(0.0979993,2)</title></rect><rect x="444" y="199.596" width="6" height="0.40404" stroke="black" stroke-width="1" fill="blue" opacity="1" tooltip="enable"><title>(0.0993418,2)</title></rect><rect x="450" y="200" width="6" height="0" stroke="black" stroke-width="1" fill="blue" opacity="1" tooltip="enable"><title>(0.100684,0)</title></rect><rect x="456" y="199.596" width="6" height="0.40404" stroke="black" stroke-width="1" fill="blue" opacity="1" tooltip="enable"><title>(0.102027,2)</title></rect><rect x="462" y="200" width="6" height="0" stroke="black" stroke-width="1" fill="blue" opacity="1" tooltip="enable"><title>(0.103369,0)</title></rect><rect x="468" y="200" width="6" height="0" stroke="black" stroke-width="1" fill="blue" opacity="1" tooltip="enable"><title>(0.104712,0)</title></rect><rect x="474" y="200" width="6" height="0" stroke="black" stroke-width="1" fill="blue" opacity="1" tooltip="enable"><title>(0.106054,0)</title></rect><rect x="480" y="200" width="6" height="0" stroke="black" stroke-width="1" fill="blue" opacity="1" tooltip="enable"><title>(0.107397,0)</title></rect><rect x="486" y="200" width="6" height="0" stroke="black" stroke-width="1" fill="blue" opacity="1" tooltip="enable"><title>(0.108739,0)</title></rect><rect x="492" y="199.596" width="6" height="0.40404" stroke="black" stroke-width="1" fill="blue" opacity="1" tooltip="enable"><title>(0.110081,2)</title></rect><rect x="498" y="200" width="6" height="0" stroke="black" stroke-width="1" fill="blue" opacity="1" tooltip="enable"><title>(0.111424,0)</title></rect><rect x="504" y="200" width="6" height="0" stroke="black" stroke-width="1" fill="blue" opacity="1" tooltip="enable"><title>(0.112766,0)</title></rect><rect x="510" y="199.596" width="6" height="0.40404" stroke="black" stroke-width="1" fill="blue" opacity="1" tooltip="enable"><title>(0.114109,2)</title></rect><rect x="516" y="199.192" width="6" height="0.808081" stroke="black" stroke-width="1" fill="blue" opacity="1" tooltip="enable"><title>(0.115451,4)</title></rect><rect x="522" y="200" width="6" height="0" stroke="black" stroke-width="1" fill="blue" opacity="1" tooltip="enable"><title>(0.116794,0)</title></rect><rect x="528" y="200" width="6" height="0" stroke="black" stroke-width="1" fill="blue" opacity="1" tooltip="enable"><title>(0.118136,0)</title></rect><rect x="534" y="199.596" width="6" height="0.40404" stroke="black" stroke-width="1" fill="blue" opacity="1" tooltip="enable"><title>(0.119479,2)</title></rect><rect x="540" y="199.596" width="6" height="0.40404" stroke="black" stroke-width="1" fill="blue" opacity="1" tooltip="enable"><title>(0.120821,2)</title></rect><rect x="546" y="199.596" width="6" height="0.40404" stroke="black" stroke-width="1" fill="blue" opacity="1" tooltip="enable"><title>(0.122164,2)</title></rect><rect x="552" y="200" width="6" height="0" stroke="black" stroke-width="1" fill="blue" opacity="1" tooltip="enable"><title>(0.123506,0)</title></rect><rect x="558" y="199.596" width="6" height="0.40404" stroke="black" stroke-width="1" fill="blue" opacity="1" tooltip="enable"><title>(0.124848,2)</title></rect><rect x="564" y="200" width="6" height="0" stroke="black" stroke-width="1" fill="blue" opacity="1" tooltip="enable"><title>(0.126191,0)</title></rect><rect x="570" y="200" width="6" height="0" stroke="black" stroke-width="1" fill="blue" opacity="1" tooltip="enable"><title>(0.127533,0)</title></rect><rect x="576" y="200" width="6" height="0" stroke="black" stroke-width="1" fill="blue" opacity="1" tooltip="enable"><title>(0.128876,0)</title></rect><rect x="582" y="199.596" width="6" height="0.40404" stroke="black" stroke-width="1" fill="blue" opacity="1" tooltip="enable"><title>(0.130218,2)</title></rect><rect x="588" y="199.192" width="6" height="0.808081" stroke="black" stroke-width="1" fill="blue" opacity="1" tooltip="enable"><title>(0.131561,4)</title></rect><rect x="594" y="199.798" width="6" height="0.20202" stroke="black" stroke-width="1" fill="blue" opacity="1" tooltip="enable"><title>(0.132903,1)</title></rect><text x="30" y="240" font-size="20" fill="black">0</text>
<text x="600" y="240" font-size="20" fill="black">0.134246</text>
<polyline points="0,220,600,220" stroke="black" stroke-width="1" fill="none" opacity="1"/>
<text x="720" y="20" font-size="20" fill="black">990</text>
<text x="720" y="200" font-size="20" fill="black">0</text>
<polyline points="660,0,660,200" stroke="black" stroke-width="1" fill="none" opacity="1"/>
</svg>