<?xml version="1.0" standalone="yes"?>
<!-- SVG graphic -->
<svg xmlns='http://www.w3.org/2000/svg' xmlns:xlink='http://www.w3.org/1999/xlink'
 version="1.1">
<rect x="0" y="0" width="6" height="200" stroke="black" stroke-width="1" fill="blue" opacity="1" tooltip="enable"><title>(0,4074)</title></rect><rect x="6" y="184.094" width="6" height="15.9057" stroke="black" stroke-width="1" fill="blue" opacity="1" tooltip="enable"><title>(0.00147549,324)</title></rect><rect x="12" y="189.003" width="6" height="10.9966" stroke="black" stroke-width="1" fill="blue" opacity="1" tooltip="enable"><title>(0.00295099,224)</title></rect><rect x="18" y="192.145" width="6" height="7.85469" stroke="black" stroke-width="1" fill="blue" opacity="1" tooltip="enable"><title>(0.00442648,160)</title></rect><rect x="24" y="191.753" width="6" height="8.24742" stroke="black" stroke-width="1" fill="blue" opacity="1" tooltip="enable"><title>(0.00590198,168)</title></rect><rect x="30" y="190.574" width="6" height="9.42563" stroke="black" stroke-width="1" fill="blue" opacity="1" tooltip="enable"><title>(0.00737747,192)</title></rect><rect x="36" y="191.654" width="6" height="8.34561" stroke="black" stroke-width="1" fill="blue" opacity="1" tooltip="enable"><title>(0.00885297,170)</title></rect><rect x="42" y="193.814" width="6" height="6.18557" stroke="black" stroke-width="1" fill="blue" opacity="1" tooltip="enable"><title>(0.0103285,126)</title></rect><rect x="48" y="192.833" width="6" height="7.1674" stroke="black" stroke-width="1" fill="blue" opacity="1" tooltip="enable"><title>(0.011804,146)</title></rect><rect x="54" y="191.458" width="6" height="8.54197" stroke="black" stroke-width="1" fill="blue" opacity="1" tooltip="enable"><title>(0.0132794,174)</title></rect><rect x="60" y="192.685" width="6" height="7.31468" stroke="black" stroke-width="1" fill="blue" opacity="1" tooltip="enable"><title>(0.0147549,149)</title></rect><rect x="66" y="191.605" width="6" height="8.3947" stroke="black" stroke-width="1" fill="blue" opacity="1" tooltip="enable"><title>(0.0162304,171)</title></rect><rect x="72" y="193.913" width="6" height="6.08738" stroke="black" stroke-width="1" fill="blue" opacity="1" tooltip="enable"><title>(0.0177059,124)</title></rect><rect x="78" y="194.6" width="6" height="5.4001" stroke="black" stroke-width="1" fill="blue" opacity="1" tooltip="enable"><title>(0.0191814,110)</title></rect><rect x="84" y="193.274" width="6" height="6.72558" stroke="black" stroke-width="1" fill="blue" opacity="1" tooltip="enable"><title>(0.0206569,137)</title></rect><rect x="90" y="193.814" width="6" height="6.18557" stroke="black" stroke-width="1" fill="blue" opacity="1" tooltip="enable"><title>(0.0221324,126)</title></rect><rect x="96" y="194.354" width="6" height="5.64556" stroke="black" stroke-width="1" fill="blue" opacity="1" tooltip="enable"><title>(0.0236079,115)</title></rect><rect x="102" y="194.894" width="6" height="5.10555" stroke="black" stroke-width="1" fill="blue" opacity="1" tooltip="enable"><title>(0.0250834,104)</title></rect><rect x="108" y="195.582" width="6" height="4.41826" stroke="black" stroke-width="1" fill="blue" opacity="1" tooltip="enable"><title>(0.0265589,90)</title></rect><rect x="114" y="196.171" width="6" height="3.82916" stroke="black" stroke-width="1" fill="blue" opacity="1" tooltip="enable"><title>(0.0280344,78)</title></rect><rect x="120" y="195.385" width="6" height="4.61463" stroke="black" stroke-width="1" fill="blue" opacity="1" tooltip="enable"><title>(0.0295099,94)</title></rect><rect x="126" y="194.698" width="6" height="5.30191" stroke="black" stroke-width="1" fill="blue" opacity="1" tooltip="enable"><title>(0.0309854,108)</title></rect><rect x="132" y="197.251" width="6" height="2.74914" stroke="black" stroke-width="1" fill="blue" opacity="1" tooltip="enable"><title>(0.0324609,56)</title></rect><rect x="138" y="196.318" width="6" height="3.68189" stroke="black" stroke-width="1" fill="blue" opacity="1" tooltip="enable"><title>(0.0339364,75)</title></rect><rect x="144" y="197.054" width="6" height="2.94551" stroke="black" stroke-width="1" fill="blue" opacity="1" tooltip="enable"><title>(0.0354119,60)</title></rect><rect x="150" y="197.202" width="6" height="2.79823" stroke="black" stroke-width="1" fill="blue" opacity="1" tooltip="enable"><title>(0.0368874,57)</title></rect><rect x="156" y="197.791" width="6" height="2.20913" stroke="black" stroke-width="1" fill="blue" opacity="1" tooltip="enable"><title>(0.0383628,45)</title></rect><rect x="162" y="198.675" width="6" height="1.32548" stroke="black" stroke-width="1" fill="blue" opacity="1" tooltip="enable"><title>(0.0398383,27)</title></rect><rect x="168" y="198.773" width="6" height="1.2273" stroke="black" stroke-width="1" fill="blue" opacity="1" tooltip="enable"><title>(0.0413138,25)</title></rect><rect x="174" y="198.085" width="6" height="1.91458" stroke="black" stroke-width="1" fill="blue" opacity="1" tooltip="enable"><title>(0.0427893,39)</title></rect><rect x="180" y="198.429" width="6" height="1.57094" stroke="black" stroke-width="1" fill="blue" opacity="1" tooltip="enable"><title>(0.0442648,32)</title></rect><rect x="186" y="199.018" width="6" height="0.981836" stroke="black" stroke-width="1" fill="blue" opacity="1" tooltip="enable"><title>(0.0457403,20)</title></rect><rect x="192" y="199.215" width="6" height="0.785469" stroke="black" stroke-width="1" fill="blue" opacity="1" tooltip="enable"><title>(0.0472158,16)</title></rect><rect x="198" y="199.313" width="6" height="0.687285" stroke="black" stroke-width="1" fill="blue" opacity="1" tooltip="enable"><title>(0.0486913,14)</title></rect><rect x="204" y="199.018" width="6" height="0.981836" stroke="black" stroke-width="1" fill="blue" opacity="1" tooltip="enable"><title>(0.0501668,20)</title></rect><rect x="210" y="199.46" width="6" height="0.54001" stroke="black" stroke-width="1" fill="blue" opacity="1" tooltip="enable"><title>(0.0516423,11)</title></rect><rect x="216" y="198.429" width="6" height="1.57094" stroke="black" stroke-width="1" fill="blue" opacity="1" tooltip="enable"><title>(0.0531178,32)</title></rect><rect x="222" y="198.38" width="6" height="1.62003" stroke="black" stroke-width="1" fill="blue" opacity="1" tooltip="enable"><title>(0.0545933,33)</title></rect><rect x="228" y="199.509" width="6" height="0.490918" stroke="black" stroke-width="1" fill="blue" opacity="1" tooltip="enable"><title>(0.0560688,10)</title></rect><rect x="234" y="199.313" width="6" height="0.687285" stroke="black" stroke-width="1" fill="blue" opacity="1" tooltip="enable"><title>(0.0575443,14)</title></rect><rect x="240" y="199.313" width="6" height="0.687285" stroke="black" stroke-width="1" fill="blue" opacity="1" tooltip="enable"><title>(0.0590198,14)</title></rect><rect x="246" y="199.313" width="6" height="0.687285" stroke="black" stroke-width="1" fill="blue" opacity="1" tooltip="enable"><title>(0.0604953,14)</title></rect><rect x="252" y="198.773" width="6" height="1.2273" stroke="black" stroke-width="1" fill="blue" opacity="1" tooltip="enable"><title>(0.0619708,25)</title></rect><rect x="258" y="199.411" width="6" height="0.589102" stroke="black" stroke-width="1" fill="blue" opacity="1" tooltip="enable"><title>(0.0634463,12)</title></rect><rect x="264" y="199.362" width="6" height="0.638193" stroke="black" stroke-width="1" fill="blue" opacity="1" tooltip="enable"><title>(0.0649217,13)</title></rect><rect x="270" y="199.313" width="6" height="0.687285" stroke="black" stroke-width="1" fill="blue" opacity="1" tooltip="enable"><title>(0.0663972,14)</title></rect><rect x="276" y="199.215" width="6" height="0.785469" stroke="black" stroke-width="1" fill="blue" opacity="1" tooltip="enable"><title>(0.0678727,16)</title></rect><rect x="282" y="199.509" width="6" height="0.490918" stroke="black" stroke-width="1" fill="blue" opacity="1" tooltip="enable"><title>(0.0693482,10)</title></rect><rect x="288" y="199.215" width="6" height="0.785469" stroke="black" stroke-width="1" fill="blue" opacity="1" tooltip="enable"><title>(0.0708237,16)</title></rect><rect x="294" y="199.902" width="6" height="0.0981836" stroke="black" stroke-width="1" fill="blue" opacity="1" tooltip="enable"><title>(0.0722992,2)</title></rect><rect x="300" y="199.705" width="6" height="0.294551" stroke="black" stroke-width="1" fill="blue" opacity="1" tooltip="enable"><title>(0.0737747,6)</title></rect><rect x="306" y="199.411" width="6" height="0.589102" stroke="black" stroke-width="1" fill="blue" opacity="1" tooltip="enable"><title>(0.0752502,12)</title></rect><rect x="312" y="199.705" width="6" height="0.294551" stroke="black" stroke-width="1" fill="blue" opacity="1" tooltip="enable"><title>(0.0767257,6)</title></rect><rect x="318" y="199.607" width="6" height="0.392734" stroke="black" stroke-width="1" fill="blue" opacity="1" tooltip="enable"><title>(0.0782012,8)</title></rect><rect x="324" y="199.607" width="6" height="0.392734" stroke="black" stroke-width="1" fill="blue" opacity="1" tooltip="enable"><title>(0.0796767,8)</title></rect><rect x="330" y="199.656" width="6" height="0.343643" stroke="black" stroke-width="1" fill="blue" opacity="1" tooltip="enable"><title>(0.0811522,7)</title></rect><rect x="336" y="199.656" width="6" height="0.343643" stroke="black" stroke-width="1" fill="blue" opacity="1" tooltip="enable"><title>(0.0826277,7)</title></rect><rect x="342" y="199.705" width="6" height="0.294551" stroke="black" stroke-width="1" fill="blue" opacity="1" tooltip="enable"><title>(0.0841032,6)</title></rect><rect x="348" y="199.804" width="6" height="0.196367" stroke="black" stroke-width="1" fill="blue" opacity="1" tooltip="enable"><title>(0.0855787,4)</title></rect><rect x="354" y="200" width="6" height="0" stroke="black" stroke-width="1" fill="blue" opacity="1" tooltip="enable"><title>(0.0870542,0)</title></rect><rect x="360" y="200" width="6" height="0" stroke="black" stroke-width="1" fill="blue" opacity="1" tooltip="enable"><title>(0.0885297,0)</title></rect><rect x="366" y="200" width="6" height="0" stroke="black" stroke-width="1" fill="blue" opacity="1" tooltip="enable"><title>(0.0900052,0)</title></rect><rect x="372" y="199.902" width="6" height="0.0981836" stroke="black" stroke-width="1" fill="blue" opacity="1" tooltip="enable"><title>(0.0914806,2)</title></rect><rect x="378" y="200" width="6" height="0" stroke="black" stroke-width="1" fill="blue" opacity="1" tooltip="enable"><title>(0.0929561,0)</title></rect><rect x="384" y="199.902" width="6" height="0.0981836" stroke="black" stroke-width="1" fill="blue" opacity="1" tooltip="enable"><title>(0.0944316,2)</title></rect><rect x="390" y="200" width="6" height="0" stroke="black" stroke-width="1" fill="blue" opacity="1" tooltip="enable"><title>(0.0959071,0)</title></rect><rect x="396" y="199.902" width="6" height="0.0981836" stroke="black" stroke-width="1" fill="blue" opacity="1" tooltip="enable"><title>(0.0973826,2)</title></rect><rect x="402" y="199.902" width="6" height="0.0981836" stroke="black" stroke-width="1" fill="blue" opacity="1" tooltip="enable"><title>(0.0988581,2)</title></rect><rect x="408" y="199.902" width="6" height="0.0981836" stroke="black" stroke-width="1" fill="blue" opacity="1" tooltip="enable"><title>(0.100334,2)</title></rect><rect x="414" y="199.804" width="6" height="0.196367" stroke="black" stroke-width="1" fill="blue" opacity="1" tooltip="enable"><title>(0.101809,4)</title></rect><rect x="420" y="200" width="6" height="0" stroke="black" stroke-width="1" fill="blue" opacity="1" tooltip="enable"><title>(0.103285,0)</title></rect><rect x="426" y="199.902" width="6" height="0.0981836" stroke="black" stroke-width="1" fill="blue" opacity="1" tooltip="enable"><title>(0.10476,2)</title></rect><rect x="432" y="200" width="6" height="0" stroke="black" stroke-width="1" fill="blue" opacity="1" tooltip="enable"><title>(0.106236,0)</title></rect><rect x="438" y="199.902" width="6" height="0.0981836" stroke="black" stroke-width="1" fill="blue" opacity="1" tooltip="enable"><title>(0.107711,2)</title></rect><rect x="444" y="200" width="6" height="0" stroke="black" stroke-width="1" fill="blue" opacity="1" tooltip="enable"><title>(0.109187,0)</title></rect><rect x="450" y="200" width="6" height="0" stroke="black" stroke-width="1" fill="blue" opacity="1" tooltip="enable"><title>(0.110662,0)</title></rect><rect x="456" y="199.902" width="6" height="0.0981836" stroke="black" stroke-width="1" fill="blue" opacity="1" tooltip="enable"><title>(0.112138,2)</title></rect><rect x="462" y="200" width="6" height="0" stroke="black" stroke-width="1" fill="blue" opacity="1" tooltip="enable"><title>(0.113613,0)</title></rect><rect x="468" y="199.804" width="6" height="0.196367" stroke="black" stroke-width="1" fill="blue" opacity="1" tooltip="enable"><title>(0.115089,4)</title></rect><rect x="474" y="199.951" width="6" height="0.0490918" stroke="black" stroke-width="1" fill="blue" opacity="1" tooltip="enable"><title>(0.116564,1)</title></rect><rect x="480" y="199.951" width="6" height="0.0490918" stroke="black" stroke-width="1" fill="blue" opacity="1" tooltip="enable"><title>(0.11804,1)</title></rect><rect x="486" y="200" width="6" height="0" stroke="black" stroke-width="1" fill="blue" opacity="1" tooltip="enable"><title>(0.119515,0)</title></rect><rect x="492" y="200" width="6" height="0" stroke="black" stroke-width="1" fill="blue" opacity="1" tooltip="enable"><title>(0.120991,0)</title></rect><rect x="498" y="199.902" width="6" height="0.0981836" stroke="black" stroke-width="1" fill="blue" opacity="1" tooltip="enable"><title>(0.122466,2)</title></rect><rect x="504" y="200" width="6" height="0" stroke="black" stroke-width="1" fill="blue" opacity="1" tooltip="enable"><title>(0.123942,0)</title></rect><rect x="510" y="200" width="6" height="0" stroke="black" stroke-width="1" fill="blue" opacity="1" tooltip="enable"><title>(0.125417,0)</title></rect><rect x="516" y="200" width="6" height="0" stroke="black" stroke-width="1" fill="blue" opacity="1" tooltip="enable"><title>(0.126893,0)</title></rect><rect x="522" y="199.902" width="6" height="0.0981836" stroke="black" stroke-width="1" fill="blue" opacity="1" tooltip="enable"><title>(0.128368,2)</title></rect><rect x="528" y="199.951" width="6" height="0.0490918" stroke="black" stroke-width="1" fill="blue" opacity="1" tooltip="enable"><title>(0.129843,1)</title></rect><rect x="534" y="199.804" width="6" height="0.196367" stroke="black" stroke-width="1" fill="blue" opacity="1" tooltip="enable"><title>(0.131319,4)</title></rect><rect x="540" y="199.853" width="6" height="0.147275" stroke="black" stroke-width="1" fill="blue" opacity="1" tooltip="enable"><title>(0.132794,3)</title></rect><rect x="546" y="200" width="6" height="0" stroke="black" stroke-width="1" fill="blue" opacity="1" tooltip="enable"><title>(0.13427,0)</title></rect><rect x="552" y="199.902" width="6" height="0.0981836" stroke="black" stroke-width="1" fill="blue" opacity="1" tooltip="enable"><title>(0.135745,2)</title></rect><rect x="558" y="199.902" width="6" height="0.0981836" stroke="black" stroke-width="1" fill="blue" opacity="1" tooltip="enable"><title>(0.137221,2)</title></rect><rect x="564" y="199.902" width="6" height="0.0981836" stroke="black" stroke-width="1" fill="blue" opacity="1" tooltip="enable"><title>(0.138696,2)</title></rect><rect x="570" y="200" width="6" height="0" stroke="black" stroke-width="1" fill="blue" opacity="1" tooltip="enable"><title>(0.140172,0)</title></rect><rect x="576" y="200" width="6" height="0" stroke="black" stroke-width="1" fill="blue" opacity="1" tooltip="enable"><title>(0.141647,0)</title></rect><rect x="582" y="199.902" width="6" height="0.0981836" stroke="black" stroke-width="1" fill="blue" opacity="1" tooltip="enable"><title>(0.143123,2)</title></rect><rect x="588" y="199.902" width="6" height="0.0981836" stroke="black" stroke-width="1" fill="blue" opacity="1" tooltip="enable"><title>(0.144598,2)</title></rect><rect x="594" y="199.951" width="6" height="0.0490918" stroke="black" stroke-width="1" fill="blue" opacity="1" tooltip="enable"><title>(0.146074,1)</title></rect><text x="30" y="240" font-size="20" fill="black">0</text>
<text x="600" y="240" font-size="20" fill="black">0.147549</text>
<polyline points="0,220,600,220" stroke="black" stroke-width="1" fill="none" opacity="1"/>
<text x="720" y="20" font-size="20" fill="black">4074</text>
<text x="720" y="200" font-size="20" fill="black">0</text>
<polyline points="660,0,660,200" stroke="black" stroke-width="1" fill="none" opacity="1"/>
</svg>