<?xml version="1.0" standalone="yes"?>
<!-- SVG graphic -->
<svg xmlns='http://www.w3.org/2000/svg' xmlns:xlink='http://www.w3.org/1999/xlink'
 version="1.1">
<rect x="0" y="0" width="6" height="200" stroke="black" stroke-width="1" fill="blue" opacity="1" tooltip="enable"><title>(0,1697)</title></rect><rect x="6" y="16.1461" width="6" height="183.854" stroke="black" stroke-width="1" fill="blue" opacity="1" tooltip="enable"><title>(0.00134301,1560)</title></rect><rect x="12" y="90.1591" width="6" height="109.841" stroke="black" stroke-width="1" fill="blue" opacity="1" tooltip="enable"><title>(0.00268601,932)</title></rect><rect x="18" y="159.222" width="6" height="40.7778" stroke="black" stroke-width="1" fill="blue" opacity="1" tooltip="enable"><title>(0.00402902,346)</title></rect><rect x="24" y="181.615" width="6" height="18.3854" stroke="black" stroke-width="1" fill="blue" opacity="1" tooltip="enable"><title>(0.00537202,156)</title></rect><rect x="30" y="185.975" width="6" height="14.0247" stroke="black" stroke-width="1" fill="blue" opacity="1" tooltip="enable"><title>(0.00671503,119)</title></rect><rect x="36" y="182.557" width="6" height="17.4425" stroke="black" stroke-width="1" fill="blue" opacity="1" tooltip="enable"><title>(0.00805804,148)</title></rect><rect x="42" y="180.2" width="6" height="19.7996" stroke="black" stroke-width="1" fill="blue" opacity="1" tooltip="enable"><title>(0.00940104,168)</title></rect><rect x="48" y="182.911" width="6" height="17.089" stroke="black" stroke-width="1" fill="blue" opacity="1" tooltip="enable"><title>(0.010744,145)</title></rect><rect x="54" y="184.561" width="6" height="15.439" stroke="black" stroke-width="1" fill="blue" opacity="1" tooltip="enable"><title>(0.0120871,131)</title></rect><rect x="60" y="181.615" width="6" height="18.3854" stroke="black" stroke-width="1" fill="blue" opacity="1" tooltip="enable"><title>(0.0134301,156)</title></rect><rect x="66" y="183.736" width="6" height="16.264" stroke="black" stroke-width="1" fill="blue" opacity="1" tooltip="enable"><title>(0.0147731,138)</title></rect><rect x="72" y="184.915" width="6" height="15.0854" stroke="black" stroke-width="1" fill="blue" opacity="1" tooltip="enable"><title>(0.0161161,128)</title></rect><rect x="78" y="184.679" width="6" height="15.3212" stroke="black" stroke-width="1" fill="blue" opacity="1" tooltip="enable"><title>(0.0174591,130)</title></rect><rect x="84" y="186.565" width="6" height="13.4355" stroke="black" stroke-width="1" fill="blue" opacity="1" tooltip="enable"><title>(0.0188021,114)</title></rect><rect x="90" y="184.443" width="6" height="15.5569" stroke="black" stroke-width="1" fill="blue" opacity="1" tooltip="enable"><title>(0.0201451,132)</title></rect><rect x="96" y="183.972" width="6" height="16.0283" stroke="black" stroke-width="1" fill="blue" opacity="1" tooltip="enable"><title>(0.0214881,136)</title></rect><rect x="102" y="182.322" width="6" height="17.6783" stroke="black" stroke-width="1" fill="blue" opacity="1" tooltip="enable"><title>(0.0228311,150)</title></rect><rect x="108" y="183.5" width="6" height="16.4997" stroke="black" stroke-width="1" fill="blue" opacity="1" tooltip="enable"><title>(0.0241741,140)</title></rect><rect x="114" y="185.386" width="6" height="14.614" stroke="black" stroke-width="1" fill="blue" opacity="1" tooltip="enable"><title>(0.0255171,124)</title></rect><rect x="120" y="186.211" width="6" height="13.789" stroke="black" stroke-width="1" fill="blue" opacity="1" tooltip="enable"><title>(0.0268601,117)</title></rect><rect x="126" y="188.332" width="6" height="11.6676" stroke="black" stroke-width="1" fill="blue" opacity="1" tooltip="enable"><title>(0.0282031,99)</title></rect><rect x="132" y="186.093" width="6" height="13.9069" stroke="black" stroke-width="1" fill="blue" opacity="1" tooltip="enable"><title>(0.0295461,118)</title></rect><rect x="138" y="188.686" width="6" height="11.3141" stroke="black" stroke-width="1" fill="blue" opacity="1" tooltip="enable"><title>(0.0308891,96)</title></rect><rect x="144" y="187.743" width="6" height="12.2569" stroke="black" stroke-width="1" fill="blue" opacity="1" tooltip="enable"><title>(0.0322321,104)</title></rect><rect x="150" y="190.689" width="6" height="9.31055" stroke="black" stroke-width="1" fill="blue" opacity="1" tooltip="enable"><title>(0.0335752,79)</title></rect><rect x="156" y="188.214" width="6" height="11.7855" stroke="black" stroke-width="1" fill="blue" opacity="1" tooltip="enable"><title>(0.0349182,100)</title></rect><rect x="162" y="190.925" width="6" height="9.07484" stroke="black" stroke-width="1" fill="blue" opacity="1" tooltip="enable"><title>(0.0362612,77)</title></rect><rect x="168" y="193.164" width="6" height="6.83559" stroke="black" stroke-width="1" fill="blue" opacity="1" tooltip="enable"><title>(0.0376042,58)</title></rect><rect x="174" y="193.872" width="6" height="6.12846" stroke="black" stroke-width="1" fill="blue" opacity="1" tooltip="enable"><title>(0.0389472,52)</title></rect><rect x="180" y="193.872" width="6" height="6.12846" stroke="black" stroke-width="1" fill="blue" opacity="1" tooltip="enable"><title>(0.0402902,52)</title></rect><rect x="186" y="196.346" width="6" height="3.65351" stroke="black" stroke-width="1" fill="blue" opacity="1" tooltip="enable"><title>(0.0416332,31)</title></rect><rect x="192" y="194.932" width="6" height="5.06777" stroke="black" stroke-width="1" fill="blue" opacity="1" tooltip="enable"><title>(0.0429762,43)</title></rect><rect x="198" y="195.757" width="6" height="4.24278" stroke="black" stroke-width="1" fill="blue" opacity="1" tooltip="enable"><title>(0.0443192,36)</title></rect><rect x="204" y="195.993" width="6" height="4.00707" stroke="black" stroke-width="1" fill="blue" opacity="1" tooltip="enable"><title>(0.0456622,34)</title></rect><rect x="210" y="198.35" width="6" height="1.64997" stroke="black" stroke-width="1" fill="blue" opacity="1" tooltip="enable"><title>(0.0470052,14)</title></rect><rect x="216" y="197.643" width="6" height="2.3571" stroke="black" stroke-width="1" fill="blue" opacity="1" tooltip="enable"><title>(0.0483482,20)</title></rect><rect x="222" y="196.464" width="6" height="3.53565" stroke="black" stroke-width="1" fill="blue" opacity="1" tooltip="enable"><title>(0.0496912,30)</title></rect><rect x="228" y="197.171" width="6" height="2.82852" stroke="black" stroke-width="1" fill="blue" opacity="1" tooltip="enable"><title>(0.0510342,24)</title></rect><rect x="234" y="198.586" width="6" height="1.41426" stroke="black" stroke-width="1" fill="blue" opacity="1" tooltip="enable"><title>(0.0523772,12)</title></rect><rect x="240" y="199.293" width="6" height="0.70713" stroke="black" stroke-width="1" fill="blue" opacity="1" tooltip="enable"><title>(0.0537202,6)</title></rect><rect x="246" y="198.821" width="6" height="1.17855" stroke="black" stroke-width="1" fill="blue" opacity="1" tooltip="enable"><title>(0.0550632,10)</title></rect><rect x="252" y="199.411" width="6" height="0.589275" stroke="black" stroke-width="1" fill="blue" opacity="1" tooltip="enable"><title>(0.0564063,5)</title></rect><rect x="258" y="199.175" width="6" height="0.824985" stroke="black" stroke-width="1" fill="blue" opacity="1" tooltip="enable"><title>(0.0577493,7)</title></rect><rect x="264" y="199.293" width="6" height="0.70713" stroke="black" stroke-width="1" fill="blue" opacity="1" tooltip="enable"><title>(0.0590923,6)</title></rect><rect x="270" y="199.293" width="6" height="0.70713" stroke="black" stroke-width="1" fill="blue" opacity="1" tooltip="enable"><title>(0.0604353,6)</title></rect><rect x="276" y="199.764" width="6" height="0.23571" stroke="black" stroke-width="1" fill="blue" opacity="1" tooltip="enable"><title>(0.0617783,2)</title></rect><rect x="282" y="200" width="6" height="0" stroke="black" stroke-width="1" fill="blue" opacity="1" tooltip="enable"><title>(0.0631213,0)</title></rect><rect x="288" y="199.764" width="6" height="0.23571" stroke="black" stroke-width="1" fill="blue" opacity="1" tooltip="enable"><title>(0.0644643,2)</title></rect><rect x="294" y="200" width="6" height="0" stroke="black" stroke-width="1" fill="blue" opacity="1" tooltip="enable"><title>(0.0658073,0)</title></rect><rect x="300" y="200" width="6" height="0" stroke="black" stroke-width="1" fill="blue" opacity="1" tooltip="enable"><title>(0.0671503,0)</title></rect><rect x="306" y="200" width="6" height="0" stroke="black" stroke-width="1" fill="blue" opacity="1" tooltip="enable"><title>(0.0684933,0)</title></rect><rect x="312" y="200" width="6" height="0" stroke="black" stroke-width="1" fill="blue" opacity="1" tooltip="enable"><title>(0.0698363,0)</title></rect><rect x="318" y="200" width="6" height="0" stroke="black" stroke-width="1" fill="blue" opacity="1" tooltip="enable"><title>(0.0711793,0)</title></rect><rect x="324" y="200" width="6" height="0" stroke="black" stroke-width="1" fill="blue" opacity="1" tooltip="enable"><title>(0.0725223,0)</title></rect><rect x="330" y="200" width="6" height="0" stroke="black" stroke-width="1" fill="blue" opacity="1" tooltip="enable"><title>(0.0738653,0)</title></rect><rect x="336" y="200" width="6" height="0" stroke="black" stroke-width="1" fill="blue" opacity="1" tooltip="enable"><title>(0.0752083,0)</title></rect><rect x="342" y="200" width="6" height="0" stroke="black" stroke-width="1" fill="blue" opacity="1" tooltip="enable"><title>(0.0765513,0)</title></rect><rect x="348" y="200" width="6" height="0" stroke="black" stroke-width="1" fill="blue" opacity="1" tooltip="enable"><title>(0.0778943,0)</title></rect><rect x="354" y="200" width="6" height="0" stroke="black" stroke-width="1" fill="blue" opacity="1" tooltip="enable"><title>(0.0792374,0)</title></rect><rect x="360" y="200" width="6" height="0" stroke="black" stroke-width="1" fill="blue" opacity="1" tooltip="enable"><title>(0.0805804,0)</title></rect><rect x="366" y="200" width="6" height="0" stroke="black" stroke-width="1" fill="blue" opacity="1" tooltip="enable"><title>(0.0819234,0)</title></rect><rect x="372" y="200" width="6" height="0" stroke="black" stroke-width="1" fill="blue" opacity="1" tooltip="enable"><title>(0.0832664,0)</title></rect><rect x="378" y="200" width="6" height="0" stroke="black" stroke-width="1" fill="blue" opacity="1" tooltip="enable"><title>(0.0846094,0)</title></rect><rect x="384" y="200" width="6" height="0" stroke="black" stroke-width="1" fill="blue" opacity="1" tooltip="enable"><title>(0.0859524,0)</title></rect><rect x="390" y="200" width="6" height="0" stroke="black" stroke-width="1" fill="blue" opacity="1" tooltip="enable"><title>(0.0872954,0)</title></rect><rect x="396" y="200" width="6" height="0" stroke="black" stroke-width="1" fill="blue" opacity="1" tooltip="enable"><title>(0.0886384,0)</title></rect><rect x="402" y="200" width="6" height="0" stroke="black" stroke-width="1" fill="blue" opacity="1" tooltip="enable"><title>(0.0899814,0)</title></rect><rect x="408" y="200" width="6" height="0" stroke="black" stroke-width="1" fill="blue" opacity="1" tooltip="enable"><title>(0.0913244,0)</title></rect><rect x="414" y="200" width="6" height="0" stroke="black" stroke-width="1" fill="blue" opacity="1" tooltip="enable"><title>(0.0926674,0)</title></rect><rect x="420" y="200" width="6" height="0" stroke="black" stroke-width="1" fill="blue" opacity="1" tooltip="enable"><title>(0.0940104,0)</title></rect><rect x="426" y="200" width="6" height="0" stroke="black" stroke-width="1" fill="blue" opacity="1" tooltip="enable"><title>(0.0953534,0)</title></rect><rect x="432" y="200" width="6" height="0" stroke="black" stroke-width="1" fill="blue" opacity="1" tooltip="enable"><title>(0.0966964,0)</title></rect><rect x="438" y="200" width="6" height="0" stroke="black" stroke-width="1" fill="blue" opacity="1" tooltip="enable"><title>(0.0980394,0)</title></rect><rect x="444" y="200" width="6" height="0" stroke="black" stroke-width="1" fill="blue" opacity="1" tooltip="enable"><title>(0.0993824,0)</title></rect><rect x="450" y="200" width="6" height="0" stroke="black" stroke-width="1" fill="blue" opacity="1" tooltip="enable"><title>(0.100725,0)</title></rect><rect x="456" y="200" width="6" height="0" stroke="black" stroke-width="1" fill="blue" opacity="1" tooltip="enable"><title>(0.102068,0)</title></rect><rect x="462" y="200" width="6" height="0" stroke="black" stroke-width="1" fill="blue" opacity="1" tooltip="enable"><title>(0.103411,0)</title></rect><rect x="468" y="200" width="6" height="0" stroke="black" stroke-width="1" fill="blue" opacity="1" tooltip="enable"><title>(0.104754,0)</title></rect><rect x="474" y="200" width="6" height="0" stroke="black" stroke-width="1" fill="blue" opacity="1" tooltip="enable"><title>(0.106097,0)</title></rect><rect x="480" y="200" width="6" height="0" stroke="black" stroke-width="1" fill="blue" opacity="1" tooltip="enable"><title>(0.10744,0)</title></rect><rect x="486" y="199.764" width="6" height="0.23571" stroke="black" stroke-width="1" fill="blue" opacity="1" tooltip="enable"><title>(0.108783,2)</title></rect><rect x="492" y="200" width="6" height="0" stroke="black" stroke-width="1" fill="blue" opacity="1" tooltip="enable"><title>(0.110126,0)</title></rect><rect x="498" y="200" width="6" height="0" stroke="black" stroke-width="1" fill="blue" opacity="1" tooltip="enable"><title>(0.111469,0)</title></rect><rect x="504" y="200" width="6" height="0" stroke="black" stroke-width="1" fill="blue" opacity="1" tooltip="enable"><title>(0.112813,0)</title></rect><rect x="510" y="200" width="6" height="0" stroke="black" stroke-width="1" fill="blue" opacity="1" tooltip="enable"><title>(0.114156,0)</title></rect><rect x="516" y="200" width="6" height="0" stroke="black" stroke-width="1" fill="blue" opacity="1" tooltip="enable"><title>(0.115499,0)</title></rect><rect x="522" y="200" width="6" height="0" stroke="black" stroke-width="1" fill="blue" opacity="1" tooltip="enable"><title>(0.116842,0)</title></rect><rect x="528" y="200" width="6" height="0" stroke="black" stroke-width="1" fill="blue" opacity="1" tooltip="enable"><title>(0.118185,0)</title></rect><rect x="534" y="200" width="6" height="0" stroke="black" stroke-width="1" fill="blue" opacity="1" tooltip="enable"><title>(0.119528,0)</title></rect><rect x="540" y="199.882" width="6" height="0.117855" stroke="black" stroke-width="1" fill="blue" opacity="1" tooltip="enable"><title>(0.120871,1)</title></rect><rect x="546" y="199.882" width="6" height="0.117855" stroke="black" stroke-width="1" fill="blue" opacity="1" tooltip="enable"><title>(0.122214,1)</title></rect><rect x="552" y="200" width="6" height="0" stroke="black" stroke-width="1" fill="blue" opacity="1" tooltip="enable"><title>(0.123557,0)</title></rect><rect x="558" y="199.764" width="6" height="0.23571" stroke="black" stroke-width="1" fill="blue" opacity="1" tooltip="enable"><title>(0.1249,2)</title></rect><rect x="564" y="200" width="6" height="0" stroke="black" stroke-width="1" fill="blue" opacity="1" tooltip="enable"><title>(0.126243,0)</title></rect><rect x="570" y="200" width="6" height="0" stroke="black" stroke-width="1" fill="blue" opacity="1" tooltip="enable"><title>(0.127586,0)</title></rect><rect x="576" y="199.882" width="6" height="0.117855" stroke="black" stroke-width="1" fill="blue" opacity="1" tooltip="enable"><title>(0.128929,1)</title></rect><rect x="582" y="199.882" width="6" height="0.117855" stroke="black" stroke-width="1" fill="blue" opacity="1" tooltip="enable"><title>(0.130272,1)</title></rect><rect x="588" y="200" width="6" height="0" stroke="black" stroke-width="1" fill="blue" opacity="1" tooltip="enable"><title>(0.131615,0)</title></rect><rect x="594" y="199.882" width="6" height="0.117855" stroke="black" stroke-width="1" fill="blue" opacity="1" tooltip="enable"><title>(0.132958,1)</title></rect><text x="30" y="240" font-size="20" fill="black">0</text>
<text x="600" y="240" font-size="20" fill="black">0.134301</text>
<polyline points="0,220,600,220" stroke="black" stroke-width="1" fill="none" opacity="1"/>
<text x="720" y="20" font-size="20" fill="black">1697</text>
<text x="720" y="200" font-size="20" fill="black">0</text>
<polyline points="660,0,660,200" stroke="black" stroke-width="1" fill="none" opacity="1"/>
</svg>