<?xml version="1.0" standalone="yes"?>
<!-- SVG graphic -->
<svg xmlns='http://www.w3.org/2000/svg' xmlns:xlink='http://www.w3.org/1999/xlink'
 version="1.1">
<rect x="0" y="0" width="6" height="200" stroke="black" stroke-width="1" fill="blue" opacity="1" tooltip="enable"><title>(0,4101)</title></rect><rect x="6" y="191.953" width="6" height="8.04682" stroke="black" stroke-width="1" fill="blue" opacity="1" tooltip="enable"><title>(0.00112341,165)</title></rect><rect x="12" y="191.904" width="6" height="8.09559" stroke="black" stroke-width="1" fill="blue" opacity="1" tooltip="enable"><title>(0.00224683,166)</title></rect><rect x="18" y="192.977" width="6" height="7.02268" stroke="black" stroke-width="1" fill="blue" opacity="1" tooltip="enable"><title>(0.00337024,144)</title></rect><rect x="24" y="192.197" width="6" height="7.80298" stroke="black" stroke-width="1" fill="blue" opacity="1" tooltip="enable"><title>(0.00449366,160)</title></rect><rect x="30" y="192.782" width="6" height="7.21775" stroke="black" stroke-width="1" fill="blue" opacity="1" tooltip="enable"><title>(0.00561707,148)</title></rect><rect x="36" y="194.148" width="6" height="5.85223" stroke="black" stroke-width="1" fill="blue" opacity="1" tooltip="enable"><title>(0.00674049,120)</title></rect><rect x="42" y="193.563" width="6" height="6.43745" stroke="black" stroke-width="1" fill="blue" opacity="1" tooltip="enable"><title>(0.0078639,132)</title></rect><rect x="48" y="193.758" width="6" height="6.24238" stroke="black" stroke-width="1" fill="blue" opacity="1" tooltip="enable"><title>(0.00898732,128)</title></rect><rect x="54" y="195.221" width="6" height="4.77932" stroke="black" stroke-width="1" fill="blue" opacity="1" tooltip="enable"><title>(0.0101107,98)</title></rect><rect x="60" y="194.343" width="6" height="5.65716" stroke="black" stroke-width="1" fill="blue" opacity="1" tooltip="enable"><title>(0.0112341,116)</title></rect><rect x="66" y="195.611" width="6" height="4.38917" stroke="black" stroke-width="1" fill="blue" opacity="1" tooltip="enable"><title>(0.0123576,90)</title></rect><rect x="72" y="196.294" width="6" height="3.70641" stroke="black" stroke-width="1" fill="blue" opacity="1" tooltip="enable"><title>(0.013481,76)</title></rect><rect x="78" y="194.831" width="6" height="5.16947" stroke="black" stroke-width="1" fill="blue" opacity="1" tooltip="enable"><title>(0.0146044,106)</title></rect><rect x="84" y="195.221" width="6" height="4.77932" stroke="black" stroke-width="1" fill="blue" opacity="1" tooltip="enable"><title>(0.0157278,98)</title></rect><rect x="90" y="196.245" width="6" height="3.75518" stroke="black" stroke-width="1" fill="blue" opacity="1" tooltip="enable"><title>(0.0168512,77)</title></rect><rect x="96" y="195.172" width="6" height="4.82809" stroke="black" stroke-width="1" fill="blue" opacity="1" tooltip="enable"><title>(0.0179746,99)</title></rect><rect x="102" y="195.465" width="6" height="4.53548" stroke="black" stroke-width="1" fill="blue" opacity="1" tooltip="enable"><title>(0.0190981,93)</title></rect><rect x="108" y="194.928" width="6" height="5.07193" stroke="black" stroke-width="1" fill="blue" opacity="1" tooltip="enable"><title>(0.0202215,104)</title></rect><rect x="114" y="196.099" width="6" height="3.90149" stroke="black" stroke-width="1" fill="blue" opacity="1" tooltip="enable"><title>(0.0213449,80)</title></rect><rect x="120" y="194.148" width="6" height="5.85223" stroke="black" stroke-width="1" fill="blue" opacity="1" tooltip="enable"><title>(0.0224683,120)</title></rect><rect x="126" y="196.879" width="6" height="3.12119" stroke="black" stroke-width="1" fill="blue" opacity="1" tooltip="enable"><title>(0.0235917,64)</title></rect><rect x="132" y="196.489" width="6" height="3.51134" stroke="black" stroke-width="1" fill="blue" opacity="1" tooltip="enable"><title>(0.0247151,72)</title></rect><rect x="138" y="196.489" width="6" height="3.51134" stroke="black" stroke-width="1" fill="blue" opacity="1" tooltip="enable"><title>(0.0258385,72)</title></rect><rect x="144" y="195.172" width="6" height="4.82809" stroke="black" stroke-width="1" fill="blue" opacity="1" tooltip="enable"><title>(0.026962,99)</title></rect><rect x="150" y="195.026" width="6" height="4.9744" stroke="black" stroke-width="1" fill="blue" opacity="1" tooltip="enable"><title>(0.0280854,102)</title></rect><rect x="156" y="195.952" width="6" height="4.04779" stroke="black" stroke-width="1" fill="blue" opacity="1" tooltip="enable"><title>(0.0292088,83)</title></rect><rect x="162" y="195.611" width="6" height="4.38917" stroke="black" stroke-width="1" fill="blue" opacity="1" tooltip="enable"><title>(0.0303322,90)</title></rect><rect x="168" y="196.099" width="6" height="3.90149" stroke="black" stroke-width="1" fill="blue" opacity="1" tooltip="enable"><title>(0.0314556,80)</title></rect><rect x="174" y="196.586" width="6" height="3.4138" stroke="black" stroke-width="1" fill="blue" opacity="1" tooltip="enable"><title>(0.032579,70)</title></rect><rect x="180" y="196.147" width="6" height="3.85272" stroke="black" stroke-width="1" fill="blue" opacity="1" tooltip="enable"><title>(0.0337024,79)</title></rect><rect x="186" y="196.635" width="6" height="3.36503" stroke="black" stroke-width="1" fill="blue" opacity="1" tooltip="enable"><title>(0.0348259,69)</title></rect><rect x="192" y="198.781" width="6" height="1.21921" stroke="black" stroke-width="1" fill="blue" opacity="1" tooltip="enable"><title>(0.0359493,25)</title></rect><rect x="198" y="197.562" width="6" height="2.43843" stroke="black" stroke-width="1" fill="blue" opacity="1" tooltip="enable"><title>(0.0370727,50)</title></rect><rect x="204" y="197.464" width="6" height="2.53597" stroke="black" stroke-width="1" fill="blue" opacity="1" tooltip="enable"><title>(0.0381961,52)</title></rect><rect x="210" y="196.781" width="6" height="3.21873" stroke="black" stroke-width="1" fill="blue" opacity="1" tooltip="enable"><title>(0.0393195,66)</title></rect><rect x="216" y="197.952" width="6" height="2.04828" stroke="black" stroke-width="1" fill="blue" opacity="1" tooltip="enable"><title>(0.0404429,42)</title></rect><rect x="222" y="196.83" width="6" height="3.16996" stroke="black" stroke-width="1" fill="blue" opacity="1" tooltip="enable"><title>(0.0415663,65)</title></rect><rect x="228" y="198" width="6" height="1.99951" stroke="black" stroke-width="1" fill="blue" opacity="1" tooltip="enable"><title>(0.0426898,41)</title></rect><rect x="234" y="198.147" width="6" height="1.85321" stroke="black" stroke-width="1" fill="blue" opacity="1" tooltip="enable"><title>(0.0438132,38)</title></rect><rect x="240" y="197.659" width="6" height="2.34089" stroke="black" stroke-width="1" fill="blue" opacity="1" tooltip="enable"><title>(0.0449366,48)</title></rect><rect x="246" y="197.415" width="6" height="2.58474" stroke="black" stroke-width="1" fill="blue" opacity="1" tooltip="enable"><title>(0.04606,53)</title></rect><rect x="252" y="198.439" width="6" height="1.5606" stroke="black" stroke-width="1" fill="blue" opacity="1" tooltip="enable"><title>(0.0471834,32)</title></rect><rect x="258" y="198.878" width="6" height="1.12168" stroke="black" stroke-width="1" fill="blue" opacity="1" tooltip="enable"><title>(0.0483068,23)</title></rect><rect x="264" y="199.464" width="6" height="0.536455" stroke="black" stroke-width="1" fill="blue" opacity="1" tooltip="enable"><title>(0.0494303,11)</title></rect><rect x="270" y="198.683" width="6" height="1.31675" stroke="black" stroke-width="1" fill="blue" opacity="1" tooltip="enable"><title>(0.0505537,27)</title></rect><rect x="276" y="199.61" width="6" height="0.390149" stroke="black" stroke-width="1" fill="blue" opacity="1" tooltip="enable"><title>(0.0516771,8)</title></rect><rect x="282" y="199.22" width="6" height="0.780298" stroke="black" stroke-width="1" fill="blue" opacity="1" tooltip="enable"><title>(0.0528005,16)</title></rect><rect x="288" y="199.22" width="6" height="0.780298" stroke="black" stroke-width="1" fill="blue" opacity="1" tooltip="enable"><title>(0.0539239,16)</title></rect><rect x="294" y="200" width="6" height="0" stroke="black" stroke-width="1" fill="blue" opacity="1" tooltip="enable"><title>(0.0550473,0)</title></rect><rect x="300" y="199.805" width="6" height="0.195074" stroke="black" stroke-width="1" fill="blue" opacity="1" tooltip="enable"><title>(0.0561707,4)</title></rect><rect x="306" y="199.659" width="6" height="0.34138" stroke="black" stroke-width="1" fill="blue" opacity="1" tooltip="enable"><title>(0.0572942,7)</title></rect><rect x="312" y="199.951" width="6" height="0.0487686" stroke="black" stroke-width="1" fill="blue" opacity="1" tooltip="enable"><title>(0.0584176,1)</title></rect><rect x="318" y="199.561" width="6" height="0.438917" stroke="black" stroke-width="1" fill="blue" opacity="1" tooltip="enable"><title>(0.059541,9)</title></rect><rect x="324" y="199.756" width="6" height="0.243843" stroke="black" stroke-width="1" fill="blue" opacity="1" tooltip="enable"><title>(0.0606644,5)</title></rect><rect x="330" y="199.707" width="6" height="0.292612" stroke="black" stroke-width="1" fill="blue" opacity="1" tooltip="enable"><title>(0.0617878,6)</title></rect><rect x="336" y="200" width="6" height="0" stroke="black" stroke-width="1" fill="blue" opacity="1" tooltip="enable"><title>(0.0629112,0)</title></rect><rect x="342" y="199.902" width="6" height="0.0975372" stroke="black" stroke-width="1" fill="blue" opacity="1" tooltip="enable"><title>(0.0640346,2)</title></rect><rect x="348" y="200" width="6" height="0" stroke="black" stroke-width="1" fill="blue" opacity="1" tooltip="enable"><title>(0.0651581,0)</title></rect><rect x="354" y="199.707" width="6" height="0.292612" stroke="black" stroke-width="1" fill="blue" opacity="1" tooltip="enable"><title>(0.0662815,6)</title></rect><rect x="360" y="199.902" width="6" height="0.0975372" stroke="black" stroke-width="1" fill="blue" opacity="1" tooltip="enable"><title>(0.0674049,2)</title></rect><rect x="366" y="200" width="6" height="0" stroke="black" stroke-width="1" fill="blue" opacity="1" tooltip="enable"><title>(0.0685283,0)</title></rect><rect x="372" y="200" width="6" height="0" stroke="black" stroke-width="1" fill="blue" opacity="1" tooltip="enable"><title>(0.0696517,0)</title></rect><rect x="378" y="200" width="6" height="0" stroke="black" stroke-width="1" fill="blue" opacity="1" tooltip="enable"><title>(0.0707751,0)</title></rect><rect x="384" y="199.902" width="6" height="0.0975372" stroke="black" stroke-width="1" fill="blue" opacity="1" tooltip="enable"><title>(0.0718985,2)</title></rect><rect x="390" y="200" width="6" height="0" stroke="black" stroke-width="1" fill="blue" opacity="1" tooltip="enable"><title>(0.073022,0)</title></rect><rect x="396" y="199.902" width="6" height="0.0975372" stroke="black" stroke-width="1" fill="blue" opacity="1" tooltip="enable"><title>(0.0741454,2)</title></rect><rect x="402" y="199.902" width="6" height="0.0975372" stroke="black" stroke-width="1" fill="blue" opacity="1" tooltip="enable"><title>(0.0752688,2)</title></rect><rect x="408" y="199.805" width="6" height="0.195074" stroke="black" stroke-width="1" fill="blue" opacity="1" tooltip="enable"><title>(0.0763922,4)</title></rect><rect x="414" y="199.902" width="6" height="0.0975372" stroke="black" stroke-width="1" fill="blue" opacity="1" tooltip="enable"><title>(0.0775156,2)</title></rect><rect x="420" y="200" width="6" height="0" stroke="black" stroke-width="1" fill="blue" opacity="1" tooltip="enable"><title>(0.078639,0)</title></rect><rect x="426" y="199.805" width="6" height="0.195074" stroke="black" stroke-width="1" fill="blue" opacity="1" tooltip="enable"><title>(0.0797624,4)</title></rect><rect x="432" y="199.902" width="6" height="0.0975372" stroke="black" stroke-width="1" fill="blue" opacity="1" tooltip="enable"><title>(0.0808859,2)</title></rect><rect x="438" y="199.902" width="6" height="0.0975372" stroke="black" stroke-width="1" fill="blue" opacity="1" tooltip="enable"><title>(0.0820093,2)</title></rect><rect x="444" y="199.707" width="6" height="0.292612" stroke="black" stroke-width="1" fill="blue" opacity="1" tooltip="enable"><title>(0.0831327,6)</title></rect><rect x="450" y="200" width="6" height="0" stroke="black" stroke-width="1" fill="blue" opacity="1" tooltip="enable"><title>(0.0842561,0)</title></rect><rect x="456" y="200" width="6" height="0" stroke="black" stroke-width="1" fill="blue" opacity="1" tooltip="enable"><title>(0.0853795,0)</title></rect><rect x="462" y="199.902" width="6" height="0.0975372" stroke="black" stroke-width="1" fill="blue" opacity="1" tooltip="enable"><title>(0.0865029,2)</title></rect><rect x="468" y="200" width="6" height="0" stroke="black" stroke-width="1" fill="blue" opacity="1" tooltip="enable"><title>(0.0876264,0)</title></rect><rect x="474" y="200" width="6" height="0" stroke="black" stroke-width="1" fill="blue" opacity="1" tooltip="enable"><title>(0.0887498,0)</title></rect><rect x="480" y="199.902" width="6" height="0.0975372" stroke="black" stroke-width="1" fill="blue" opacity="1" tooltip="enable"><title>(0.0898732,2)</title></rect><rect x="486" y="200" width="6" height="0" stroke="black" stroke-width="1" fill="blue" opacity="1" tooltip="enable"><title>(0.0909966,0)</title></rect><rect x="492" y="200" width="6" height="0" stroke="black" stroke-width="1" fill="blue" opacity="1" tooltip="enable"><title>(0.09212,0)</title></rect><rect x="498" y="200" width="6" height="0" stroke="black" stroke-width="1" fill="blue" opacity="1" tooltip="enable"><title>(0.0932434,0)</title></rect><rect x="504" y="199.902" width="6" height="0.0975372" stroke="black" stroke-width="1" fill="blue" opacity="1" tooltip="enable"><title>(0.0943668,2)</title></rect><rect x="510" y="199.902" width="6" height="0.0975372" stroke="black" stroke-width="1" fill="blue" opacity="1" tooltip="enable"><title>(0.0954903,2)</title></rect><rect x="516" y="199.902" width="6" height="0.0975372" stroke="black" stroke-width="1" fill="blue" opacity="1" tooltip="enable"><title>(0.0966137,2)</title></rect><rect x="522" y="200" width="6" height="0" stroke="black" stroke-width="1" fill="blue" opacity="1" tooltip="enable"><title>(0.0977371,0)</title></rect><rect x="528" y="199.902" width="6" height="0.0975372" stroke="black" stroke-width="1" fill="blue" opacity="1" tooltip="enable"><title>(0.0988605,2)</title></rect><rect x="534" y="200" width="6" height="0" stroke="black" stroke-width="1" fill="blue" opacity="1" tooltip="enable"><title>(0.0999839,0)</title></rect><rect x="540" y="200" width="6" height="0" stroke="black" stroke-width="1" fill="blue" opacity="1" tooltip="enable"><title>(0.101107,0)</title></rect><rect x="546" y="200" width="6" height="0" stroke="black" stroke-width="1" fill="blue" opacity="1" tooltip="enable"><title>(0.102231,0)</title></rect><rect x="552" y="200" width="6" height="0" stroke="black" stroke-width="1" fill="blue" opacity="1" tooltip="enable"><title>(0.103354,0)</title></rect><rect x="558" y="200" width="6" height="0" stroke="black" stroke-width="1" fill="blue" opacity="1" tooltip="enable"><title>(0.104478,0)</title></rect><rect x="564" y="199.902" width="6" height="0.0975372" stroke="black" stroke-width="1" fill="blue" opacity="1" tooltip="enable"><title>(0.105601,2)</title></rect><rect x="570" y="200" width="6" height="0" stroke="black" stroke-width="1" fill="blue" opacity="1" tooltip="enable"><title>(0.106724,0)</title></rect><rect x="576" y="199.902" width="6" height="0.0975372" stroke="black" stroke-width="1" fill="blue" opacity="1" tooltip="enable"><title>(0.107848,2)</title></rect><rect x="582" y="200" width="6" height="0" stroke="black" stroke-width="1" fill="blue" opacity="1" tooltip="enable"><title>(0.108971,0)</title></rect><rect x="588" y="200" width="6" height="0" stroke="black" stroke-width="1" fill="blue" opacity="1" tooltip="enable"><title>(0.110095,0)</title></rect><rect x="594" y="199.951" width="6" height="0.0487686" stroke="black" stroke-width="1" fill="blue" opacity="1" tooltip="enable"><title>(0.111218,1)</title></rect><text x="30" y="240" font-size="20" fill="black">0</text>
<text x="600" y="240" font-size="20" fill="black">0.112341</text>
<polyline points="0,220,600,220" stroke="black" stroke-width="1" fill="none" opacity="1"/>
<text x="720" y="20" font-size="20" fill="black">4101</text>
<text x="720" y="200" font-size="20" fill="black">0</text>
<polyline points="660,0,660,200" stroke="black" stroke-width="1" fill="none" opacity="1"/>
</svg>