<?xml version="1.0" standalone="yes"?>
<!-- SVG graphic -->
<svg xmlns='http://www.w3.org/2000/svg' xmlns:xlink='http://www.w3.org/1999/xlink'
 version="1.1">
<rect x="0" y="0" width="6" height="200" stroke="black" stroke-width="1" fill="blue" opacity="1" tooltip="enable"><title>(0,2044)</title></rect><rect x="6" y="62.3288" width="6" height="137.671" stroke="black" stroke-width="1" fill="blue" opacity="1" tooltip="enable"><title>(0.00141661,1407)</title></rect><rect x="12" y="138.258" width="6" height="61.7417" stroke="black" stroke-width="1" fill="blue" opacity="1" tooltip="enable"><title>(0.00283322,631)</title></rect><rect x="18" y="169.765" width="6" height="30.2348" stroke="black" stroke-width="1" fill="blue" opacity="1" tooltip="enable"><title>(0.00424984,309)</title></rect><rect x="24" y="179.648" width="6" height="20.3523" stroke="black" stroke-width="1" fill="blue" opacity="1" tooltip="enable"><title>(0.00566645,208)</title></rect><rect x="30" y="180.528" width="6" height="19.4716" stroke="black" stroke-width="1" fill="blue" opacity="1" tooltip="enable"><title>(0.00708306,199)</title></rect><rect x="36" y="188.063" width="6" height="11.9374" stroke="black" stroke-width="1" fill="blue" opacity="1" tooltip="enable"><title>(0.00849967,122)</title></rect><rect x="42" y="188.845" width="6" height="11.1546" stroke="black" stroke-width="1" fill="blue" opacity="1" tooltip="enable"><title>(0.00991628,114)</title></rect><rect x="48" y="188.552" width="6" height="11.4481" stroke="black" stroke-width="1" fill="blue" opacity="1" tooltip="enable"><title>(0.0113329,117)</title></rect><rect x="54" y="188.845" width="6" height="11.1546" stroke="black" stroke-width="1" fill="blue" opacity="1" tooltip="enable"><title>(0.0127495,114)</title></rect><rect x="60" y="191.096" width="6" height="8.90411" stroke="black" stroke-width="1" fill="blue" opacity="1" tooltip="enable"><title>(0.0141661,91)</title></rect><rect x="66" y="191.879" width="6" height="8.12133" stroke="black" stroke-width="1" fill="blue" opacity="1" tooltip="enable"><title>(0.0155827,83)</title></rect><rect x="72" y="191.683" width="6" height="8.31703" stroke="black" stroke-width="1" fill="blue" opacity="1" tooltip="enable"><title>(0.0169993,85)</title></rect><rect x="78" y="192.564" width="6" height="7.4364" stroke="black" stroke-width="1" fill="blue" opacity="1" tooltip="enable"><title>(0.018416,76)</title></rect><rect x="84" y="191.585" width="6" height="8.41487" stroke="black" stroke-width="1" fill="blue" opacity="1" tooltip="enable"><title>(0.0198326,86)</title></rect><rect x="90" y="190.411" width="6" height="9.58904" stroke="black" stroke-width="1" fill="blue" opacity="1" tooltip="enable"><title>(0.0212492,98)</title></rect><rect x="96" y="192.759" width="6" height="7.2407" stroke="black" stroke-width="1" fill="blue" opacity="1" tooltip="enable"><title>(0.0226658,74)</title></rect><rect x="102" y="189.628" width="6" height="10.3718" stroke="black" stroke-width="1" fill="blue" opacity="1" tooltip="enable"><title>(0.0240824,106)</title></rect><rect x="108" y="189.824" width="6" height="10.1761" stroke="black" stroke-width="1" fill="blue" opacity="1" tooltip="enable"><title>(0.025499,104)</title></rect><rect x="114" y="191.585" width="6" height="8.41487" stroke="black" stroke-width="1" fill="blue" opacity="1" tooltip="enable"><title>(0.0269156,86)</title></rect><rect x="120" y="190.215" width="6" height="9.78474" stroke="black" stroke-width="1" fill="blue" opacity="1" tooltip="enable"><title>(0.0283322,100)</title></rect><rect x="126" y="187.671" width="6" height="12.3288" stroke="black" stroke-width="1" fill="blue" opacity="1" tooltip="enable"><title>(0.0297488,126)</title></rect><rect x="132" y="190.802" width="6" height="9.19765" stroke="black" stroke-width="1" fill="blue" opacity="1" tooltip="enable"><title>(0.0311655,94)</title></rect><rect x="138" y="191.879" width="6" height="8.12133" stroke="black" stroke-width="1" fill="blue" opacity="1" tooltip="enable"><title>(0.0325821,83)</title></rect><rect x="144" y="192.466" width="6" height="7.53425" stroke="black" stroke-width="1" fill="blue" opacity="1" tooltip="enable"><title>(0.0339987,77)</title></rect><rect x="150" y="192.564" width="6" height="7.4364" stroke="black" stroke-width="1" fill="blue" opacity="1" tooltip="enable"><title>(0.0354153,76)</title></rect><rect x="156" y="192.759" width="6" height="7.2407" stroke="black" stroke-width="1" fill="blue" opacity="1" tooltip="enable"><title>(0.0368319,74)</title></rect><rect x="162" y="191.389" width="6" height="8.61057" stroke="black" stroke-width="1" fill="blue" opacity="1" tooltip="enable"><title>(0.0382485,88)</title></rect><rect x="168" y="194.521" width="6" height="5.47945" stroke="black" stroke-width="1" fill="blue" opacity="1" tooltip="enable"><title>(0.0396651,56)</title></rect><rect x="174" y="193.151" width="6" height="6.84932" stroke="black" stroke-width="1" fill="blue" opacity="1" tooltip="enable"><title>(0.0410817,70)</title></rect><rect x="180" y="196.282" width="6" height="3.7182" stroke="black" stroke-width="1" fill="blue" opacity="1" tooltip="enable"><title>(0.0424984,38)</title></rect><rect x="186" y="196.282" width="6" height="3.7182" stroke="black" stroke-width="1" fill="blue" opacity="1" tooltip="enable"><title>(0.043915,38)</title></rect><rect x="192" y="196.282" width="6" height="3.7182" stroke="black" stroke-width="1" fill="blue" opacity="1" tooltip="enable"><title>(0.0453316,38)</title></rect><rect x="198" y="194.912" width="6" height="5.08806" stroke="black" stroke-width="1" fill="blue" opacity="1" tooltip="enable"><title>(0.0467482,52)</title></rect><rect x="204" y="196.086" width="6" height="3.91389" stroke="black" stroke-width="1" fill="blue" opacity="1" tooltip="enable"><title>(0.0481648,40)</title></rect><rect x="210" y="197.162" width="6" height="2.83757" stroke="black" stroke-width="1" fill="blue" opacity="1" tooltip="enable"><title>(0.0495814,29)</title></rect><rect x="216" y="195.988" width="6" height="4.01174" stroke="black" stroke-width="1" fill="blue" opacity="1" tooltip="enable"><title>(0.050998,41)</title></rect><rect x="222" y="197.554" width="6" height="2.44618" stroke="black" stroke-width="1" fill="blue" opacity="1" tooltip="enable"><title>(0.0524146,25)</title></rect><rect x="228" y="196.184" width="6" height="3.81605" stroke="black" stroke-width="1" fill="blue" opacity="1" tooltip="enable"><title>(0.0538313,39)</title></rect><rect x="234" y="196.673" width="6" height="3.32681" stroke="black" stroke-width="1" fill="blue" opacity="1" tooltip="enable"><title>(0.0552479,34)</title></rect><rect x="240" y="197.065" width="6" height="2.93542" stroke="black" stroke-width="1" fill="blue" opacity="1" tooltip="enable"><title>(0.0566645,30)</title></rect><rect x="246" y="198.239" width="6" height="1.76125" stroke="black" stroke-width="1" fill="blue" opacity="1" tooltip="enable"><title>(0.0580811,18)</title></rect><rect x="252" y="197.456" width="6" height="2.54403" stroke="black" stroke-width="1" fill="blue" opacity="1" tooltip="enable"><title>(0.0594977,26)</title></rect><rect x="258" y="197.652" width="6" height="2.34834" stroke="black" stroke-width="1" fill="blue" opacity="1" tooltip="enable"><title>(0.0609143,24)</title></rect><rect x="264" y="198.043" width="6" height="1.95695" stroke="black" stroke-width="1" fill="blue" opacity="1" tooltip="enable"><title>(0.0623309,20)</title></rect><rect x="270" y="198.434" width="6" height="1.56556" stroke="black" stroke-width="1" fill="blue" opacity="1" tooltip="enable"><title>(0.0637475,16)</title></rect><rect x="276" y="198.239" width="6" height="1.76125" stroke="black" stroke-width="1" fill="blue" opacity="1" tooltip="enable"><title>(0.0651641,18)</title></rect><rect x="282" y="196.38" width="6" height="3.62035" stroke="black" stroke-width="1" fill="blue" opacity="1" tooltip="enable"><title>(0.0665808,37)</title></rect><rect x="288" y="197.945" width="6" height="2.05479" stroke="black" stroke-width="1" fill="blue" opacity="1" tooltip="enable"><title>(0.0679974,21)</title></rect><rect x="294" y="196.673" width="6" height="3.32681" stroke="black" stroke-width="1" fill="blue" opacity="1" tooltip="enable"><title>(0.069414,34)</title></rect><rect x="300" y="197.456" width="6" height="2.54403" stroke="black" stroke-width="1" fill="blue" opacity="1" tooltip="enable"><title>(0.0708306,26)</title></rect><rect x="306" y="197.162" width="6" height="2.83757" stroke="black" stroke-width="1" fill="blue" opacity="1" tooltip="enable"><title>(0.0722472,29)</title></rect><rect x="312" y="198.141" width="6" height="1.8591" stroke="black" stroke-width="1" fill="blue" opacity="1" tooltip="enable"><title>(0.0736638,19)</title></rect><rect x="318" y="198.043" width="6" height="1.95695" stroke="black" stroke-width="1" fill="blue" opacity="1" tooltip="enable"><title>(0.0750804,20)</title></rect><rect x="324" y="197.358" width="6" height="2.64188" stroke="black" stroke-width="1" fill="blue" opacity="1" tooltip="enable"><title>(0.076497,27)</title></rect><rect x="330" y="197.945" width="6" height="2.05479" stroke="black" stroke-width="1" fill="blue" opacity="1" tooltip="enable"><title>(0.0779137,21)</title></rect><rect x="336" y="199.217" width="6" height="0.782779" stroke="black" stroke-width="1" fill="blue" opacity="1" tooltip="enable"><title>(0.0793303,8)</title></rect><rect x="342" y="197.554" width="6" height="2.44618" stroke="black" stroke-width="1" fill="blue" opacity="1" tooltip="enable"><title>(0.0807469,25)</title></rect><rect x="348" y="198.826" width="6" height="1.17417" stroke="black" stroke-width="1" fill="blue" opacity="1" tooltip="enable"><title>(0.0821635,12)</title></rect><rect x="354" y="198.924" width="6" height="1.07632" stroke="black" stroke-width="1" fill="blue" opacity="1" tooltip="enable"><title>(0.0835801,11)</title></rect><rect x="360" y="199.609" width="6" height="0.391389" stroke="black" stroke-width="1" fill="blue" opacity="1" tooltip="enable"><title>(0.0849967,4)</title></rect><rect x="366" y="197.065" width="6" height="2.93542" stroke="black" stroke-width="1" fill="blue" opacity="1" tooltip="enable"><title>(0.0864133,30)</title></rect><rect x="372" y="197.652" width="6" height="2.34834" stroke="black" stroke-width="1" fill="blue" opacity="1" tooltip="enable"><title>(0.0878299,24)</title></rect><rect x="378" y="198.63" width="6" height="1.36986" stroke="black" stroke-width="1" fill="blue" opacity="1" tooltip="enable"><title>(0.0892466,14)</title></rect><rect x="384" y="198.434" width="6" height="1.56556" stroke="black" stroke-width="1" fill="blue" opacity="1" tooltip="enable"><title>(0.0906632,16)</title></rect><rect x="390" y="199.413" width="6" height="0.587084" stroke="black" stroke-width="1" fill="blue" opacity="1" tooltip="enable"><title>(0.0920798,6)</title></rect><rect x="396" y="199.804" width="6" height="0.195695" stroke="black" stroke-width="1" fill="blue" opacity="1" tooltip="enable"><title>(0.0934964,2)</title></rect><rect x="402" y="199.413" width="6" height="0.587084" stroke="black" stroke-width="1" fill="blue" opacity="1" tooltip="enable"><title>(0.094913,6)</title></rect><rect x="408" y="198.434" width="6" height="1.56556" stroke="black" stroke-width="1" fill="blue" opacity="1" tooltip="enable"><title>(0.0963296,16)</title></rect><rect x="414" y="199.217" width="6" height="0.782779" stroke="black" stroke-width="1" fill="blue" opacity="1" tooltip="enable"><title>(0.0977462,8)</title></rect><rect x="420" y="199.804" width="6" height="0.195695" stroke="black" stroke-width="1" fill="blue" opacity="1" tooltip="enable"><title>(0.0991628,2)</title></rect><rect x="426" y="199.413" width="6" height="0.587084" stroke="black" stroke-width="1" fill="blue" opacity="1" tooltip="enable"><title>(0.100579,6)</title></rect><rect x="432" y="199.609" width="6" height="0.391389" stroke="black" stroke-width="1" fill="blue" opacity="1" tooltip="enable"><title>(0.101996,4)</title></rect><rect x="438" y="199.609" width="6" height="0.391389" stroke="black" stroke-width="1" fill="blue" opacity="1" tooltip="enable"><title>(0.103413,4)</title></rect><rect x="444" y="199.609" width="6" height="0.391389" stroke="black" stroke-width="1" fill="blue" opacity="1" tooltip="enable"><title>(0.104829,4)</title></rect><rect x="450" y="199.511" width="6" height="0.489237" stroke="black" stroke-width="1" fill="blue" opacity="1" tooltip="enable"><title>(0.106246,5)</title></rect><rect x="456" y="199.511" width="6" height="0.489237" stroke="black" stroke-width="1" fill="blue" opacity="1" tooltip="enable"><title>(0.107663,5)</title></rect><rect x="462" y="199.413" width="6" height="0.587084" stroke="black" stroke-width="1" fill="blue" opacity="1" tooltip="enable"><title>(0.109079,6)</title></rect><rect x="468" y="199.413" width="6" height="0.587084" stroke="black" stroke-width="1" fill="blue" opacity="1" tooltip="enable"><title>(0.110496,6)</title></rect><rect x="474" y="199.804" width="6" height="0.195695" stroke="black" stroke-width="1" fill="blue" opacity="1" tooltip="enable"><title>(0.111912,2)</title></rect><rect x="480" y="199.609" width="6" height="0.391389" stroke="black" stroke-width="1" fill="blue" opacity="1" tooltip="enable"><title>(0.113329,4)</title></rect><rect x="486" y="200" width="6" height="0" stroke="black" stroke-width="1" fill="blue" opacity="1" tooltip="enable"><title>(0.114746,0)</title></rect><rect x="492" y="199.804" width="6" height="0.195695" stroke="black" stroke-width="1" fill="blue" opacity="1" tooltip="enable"><title>(0.116162,2)</title></rect><rect x="498" y="199.804" width="6" height="0.195695" stroke="black" stroke-width="1" fill="blue" opacity="1" tooltip="enable"><title>(0.117579,2)</title></rect><rect x="504" y="200" width="6" height="0" stroke="black" stroke-width="1" fill="blue" opacity="1" tooltip="enable"><title>(0.118995,0)</title></rect><rect x="510" y="199.804" width="6" height="0.195695" stroke="black" stroke-width="1" fill="blue" opacity="1" tooltip="enable"><title>(0.120412,2)</title></rect><rect x="516" y="200" width="6" height="0" stroke="black" stroke-width="1" fill="blue" opacity="1" tooltip="enable"><title>(0.121829,0)</title></rect><rect x="522" y="200" width="6" height="0" stroke="black" stroke-width="1" fill="blue" opacity="1" tooltip="enable"><title>(0.123245,0)</title></rect><rect x="528" y="200" width="6" height="0" stroke="black" stroke-width="1" fill="blue" opacity="1" tooltip="enable"><title>(0.124662,0)</title></rect><rect x="534" y="200" width="6" height="0" stroke="black" stroke-width="1" fill="blue" opacity="1" tooltip="enable"><title>(0.126078,0)</title></rect><rect x="540" y="200" width="6" height="0" stroke="black" stroke-width="1" fill="blue" opacity="1" tooltip="enable"><title>(0.127495,0)</title></rect><rect x="546" y="200" width="6" height="0" stroke="black" stroke-width="1" fill="blue" opacity="1" tooltip="enable"><title>(0.128912,0)</title></rect><rect x="552" y="200" width="6" height="0" stroke="black" stroke-width="1" fill="blue" opacity="1" tooltip="enable"><title>(0.130328,0)</title></rect><rect x="558" y="200" width="6" height="0" stroke="black" stroke-width="1" fill="blue" opacity="1" tooltip="enable"><title>(0.131745,0)</title></rect><rect x="564" y="200" width="6" height="0" stroke="black" stroke-width="1" fill="blue" opacity="1" tooltip="enable"><title>(0.133162,0)</title></rect><rect x="570" y="200" width="6" height="0" stroke="black" stroke-width="1" fill="blue" opacity="1" tooltip="enable"><title>(0.134578,0)</title></rect><rect x="576" y="199.804" width="6" height="0.195695" stroke="black" stroke-width="1" fill="blue" opacity="1" tooltip="enable"><title>(0.135995,2)</title></rect><rect x="582" y="199.804" width="6" height="0.195695" stroke="black" stroke-width="1" fill="blue" opacity="1" tooltip="enable"><title>(0.137411,2)</title></rect><rect x="588" y="200" width="6" height="0" stroke="black" stroke-width="1" fill="blue" opacity="1" tooltip="enable"><title>(0.138828,0)</title></rect><rect x="594" y="199.902" width="6" height="0.0978474" stroke="black" stroke-width="1" fill="blue" opacity="1" tooltip="enable"><title>(0.140245,1)</title></rect><text x="30" y="240" font-size="20" fill="black">0</text>
<text x="600" y="240" font-size="20" fill="black">0.141661</text>
<polyline points="0,220,600,220" stroke="black" stroke-width="1" fill="none" opacity="1"/>
<text x="720" y="20" font-size="20" fill="black">2044</text>
<text x="720" y="200" font-size="20" fill="black">0</text>
<polyline points="660,0,660,200" stroke="black" stroke-width="1" fill="none" opacity="1"/>
</svg>