<?xml version="1.0" standalone="yes"?>
<!-- SVG graphic -->
<svg xmlns='http://www.w3.org/2000/svg' xmlns:xlink='http://www.w3.org/1999/xlink'
 version="1.1">
<rect x="0" y="12.9518" width="6" height="187.048" stroke="black" stroke-width="1" fill="blue" opacity="1" tooltip="enable"><title>(0,1242)</title></rect><rect x="6" y="0" width="6" height="200" stroke="black" stroke-width="1" fill="blue" opacity="1" tooltip="enable"><title>(0.00140729,1328)</title></rect><rect x="12" y="36.2952" width="6" height="163.705" stroke="black" stroke-width="1" fill="blue" opacity="1" tooltip="enable"><title>(0.00281459,1087)</title></rect><rect x="18" y="99.6988" width="6" height="100.301" stroke="black" stroke-width="1" fill="blue" opacity="1" tooltip="enable"><title>(0.00422188,666)</title></rect><rect x="24" y="160.542" width="6" height="39.4578" stroke="black" stroke-width="1" fill="blue" opacity="1" tooltip="enable"><title>(0.00562918,262)</title></rect><rect x="30" y="177.711" width="6" height="22.2892" stroke="black" stroke-width="1" fill="blue" opacity="1" tooltip="enable"><title>(0.00703647,148)</title></rect><rect x="36" y="181.627" width="6" height="18.3735" stroke="black" stroke-width="1" fill="blue" opacity="1" tooltip="enable"><title>(0.00844377,122)</title></rect><rect x="42" y="184.488" width="6" height="15.512" stroke="black" stroke-width="1" fill="blue" opacity="1" tooltip="enable"><title>(0.00985106,103)</title></rect><rect x="48" y="178.464" width="6" height="21.5361" stroke="black" stroke-width="1" fill="blue" opacity="1" tooltip="enable"><title>(0.0112584,143)</title></rect><rect x="54" y="186.295" width="6" height="13.7048" stroke="black" stroke-width="1" fill="blue" opacity="1" tooltip="enable"><title>(0.0126656,91)</title></rect><rect x="60" y="184.036" width="6" height="15.9639" stroke="black" stroke-width="1" fill="blue" opacity="1" tooltip="enable"><title>(0.0140729,106)</title></rect><rect x="66" y="183.434" width="6" height="16.5663" stroke="black" stroke-width="1" fill="blue" opacity="1" tooltip="enable"><title>(0.0154802,110)</title></rect><rect x="72" y="181.627" width="6" height="18.3735" stroke="black" stroke-width="1" fill="blue" opacity="1" tooltip="enable"><title>(0.0168875,122)</title></rect><rect x="78" y="179.518" width="6" height="20.4819" stroke="black" stroke-width="1" fill="blue" opacity="1" tooltip="enable"><title>(0.0182948,136)</title></rect><rect x="84" y="181.928" width="6" height="18.0723" stroke="black" stroke-width="1" fill="blue" opacity="1" tooltip="enable"><title>(0.0197021,120)</title></rect><rect x="90" y="178.916" width="6" height="21.0843" stroke="black" stroke-width="1" fill="blue" opacity="1" tooltip="enable"><title>(0.0211094,140)</title></rect><rect x="96" y="180.723" width="6" height="19.2771" stroke="black" stroke-width="1" fill="blue" opacity="1" tooltip="enable"><title>(0.0225167,128)</title></rect><rect x="102" y="179.518" width="6" height="20.4819" stroke="black" stroke-width="1" fill="blue" opacity="1" tooltip="enable"><title>(0.023924,136)</title></rect><rect x="108" y="181.325" width="6" height="18.6747" stroke="black" stroke-width="1" fill="blue" opacity="1" tooltip="enable"><title>(0.0253313,124)</title></rect><rect x="114" y="182.982" width="6" height="17.0181" stroke="black" stroke-width="1" fill="blue" opacity="1" tooltip="enable"><title>(0.0267386,113)</title></rect><rect x="120" y="181.325" width="6" height="18.6747" stroke="black" stroke-width="1" fill="blue" opacity="1" tooltip="enable"><title>(0.0281459,124)</title></rect><rect x="126" y="186.596" width="6" height="13.4036" stroke="black" stroke-width="1" fill="blue" opacity="1" tooltip="enable"><title>(0.0295532,89)</title></rect><rect x="132" y="185.843" width="6" height="14.1566" stroke="black" stroke-width="1" fill="blue" opacity="1" tooltip="enable"><title>(0.0309605,94)</title></rect><rect x="138" y="183.283" width="6" height="16.7169" stroke="black" stroke-width="1" fill="blue" opacity="1" tooltip="enable"><title>(0.0323678,111)</title></rect><rect x="144" y="181.928" width="6" height="18.0723" stroke="black" stroke-width="1" fill="blue" opacity="1" tooltip="enable"><title>(0.0337751,120)</title></rect><rect x="150" y="183.283" width="6" height="16.7169" stroke="black" stroke-width="1" fill="blue" opacity="1" tooltip="enable"><title>(0.0351824,111)</title></rect><rect x="156" y="181.476" width="6" height="18.5241" stroke="black" stroke-width="1" fill="blue" opacity="1" tooltip="enable"><title>(0.0365897,123)</title></rect><rect x="162" y="186.898" width="6" height="13.1024" stroke="black" stroke-width="1" fill="blue" opacity="1" tooltip="enable"><title>(0.037997,87)</title></rect><rect x="168" y="188.855" width="6" height="11.1446" stroke="black" stroke-width="1" fill="blue" opacity="1" tooltip="enable"><title>(0.0394042,74)</title></rect><rect x="174" y="186.596" width="6" height="13.4036" stroke="black" stroke-width="1" fill="blue" opacity="1" tooltip="enable"><title>(0.0408115,89)</title></rect><rect x="180" y="190.06" width="6" height="9.93976" stroke="black" stroke-width="1" fill="blue" opacity="1" tooltip="enable"><title>(0.0422188,66)</title></rect><rect x="186" y="191.114" width="6" height="8.88554" stroke="black" stroke-width="1" fill="blue" opacity="1" tooltip="enable"><title>(0.0436261,59)</title></rect><rect x="192" y="191.265" width="6" height="8.73494" stroke="black" stroke-width="1" fill="blue" opacity="1" tooltip="enable"><title>(0.0450334,58)</title></rect><rect x="198" y="191.717" width="6" height="8.28313" stroke="black" stroke-width="1" fill="blue" opacity="1" tooltip="enable"><title>(0.0464407,55)</title></rect><rect x="204" y="196.536" width="6" height="3.46386" stroke="black" stroke-width="1" fill="blue" opacity="1" tooltip="enable"><title>(0.047848,23)</title></rect><rect x="210" y="195.633" width="6" height="4.36747" stroke="black" stroke-width="1" fill="blue" opacity="1" tooltip="enable"><title>(0.0492553,29)</title></rect><rect x="216" y="196.235" width="6" height="3.76506" stroke="black" stroke-width="1" fill="blue" opacity="1" tooltip="enable"><title>(0.0506626,25)</title></rect><rect x="222" y="196.386" width="6" height="3.61446" stroke="black" stroke-width="1" fill="blue" opacity="1" tooltip="enable"><title>(0.0520699,24)</title></rect><rect x="228" y="196.988" width="6" height="3.01205" stroke="black" stroke-width="1" fill="blue" opacity="1" tooltip="enable"><title>(0.0534772,20)</title></rect><rect x="234" y="195.783" width="6" height="4.21687" stroke="black" stroke-width="1" fill="blue" opacity="1" tooltip="enable"><title>(0.0548845,28)</title></rect><rect x="240" y="197.289" width="6" height="2.71084" stroke="black" stroke-width="1" fill="blue" opacity="1" tooltip="enable"><title>(0.0562918,18)</title></rect><rect x="246" y="196.386" width="6" height="3.61446" stroke="black" stroke-width="1" fill="blue" opacity="1" tooltip="enable"><title>(0.0576991,24)</title></rect><rect x="252" y="198.193" width="6" height="1.80723" stroke="black" stroke-width="1" fill="blue" opacity="1" tooltip="enable"><title>(0.0591064,12)</title></rect><rect x="258" y="198.795" width="6" height="1.20482" stroke="black" stroke-width="1" fill="blue" opacity="1" tooltip="enable"><title>(0.0605137,8)</title></rect><rect x="264" y="197.892" width="6" height="2.10843" stroke="black" stroke-width="1" fill="blue" opacity="1" tooltip="enable"><title>(0.061921,14)</title></rect><rect x="270" y="198.193" width="6" height="1.80723" stroke="black" stroke-width="1" fill="blue" opacity="1" tooltip="enable"><title>(0.0633282,12)</title></rect><rect x="276" y="197.892" width="6" height="2.10843" stroke="black" stroke-width="1" fill="blue" opacity="1" tooltip="enable"><title>(0.0647355,14)</title></rect><rect x="282" y="197.892" width="6" height="2.10843" stroke="black" stroke-width="1" fill="blue" opacity="1" tooltip="enable"><title>(0.0661428,14)</title></rect><rect x="288" y="199.699" width="6" height="0.301205" stroke="black" stroke-width="1" fill="blue" opacity="1" tooltip="enable"><title>(0.0675501,2)</title></rect><rect x="294" y="200" width="6" height="0" stroke="black" stroke-width="1" fill="blue" opacity="1" tooltip="enable"><title>(0.0689574,0)</title></rect><rect x="300" y="200" width="6" height="0" stroke="black" stroke-width="1" fill="blue" opacity="1" tooltip="enable"><title>(0.0703647,0)</title></rect><rect x="306" y="200" width="6" height="0" stroke="black" stroke-width="1" fill="blue" opacity="1" tooltip="enable"><title>(0.071772,0)</title></rect><rect x="312" y="199.398" width="6" height="0.60241" stroke="black" stroke-width="1" fill="blue" opacity="1" tooltip="enable"><title>(0.0731793,4)</title></rect><rect x="318" y="199.699" width="6" height="0.301205" stroke="black" stroke-width="1" fill="blue" opacity="1" tooltip="enable"><title>(0.0745866,2)</title></rect><rect x="324" y="199.699" width="6" height="0.301205" stroke="black" stroke-width="1" fill="blue" opacity="1" tooltip="enable"><title>(0.0759939,2)</title></rect><rect x="330" y="199.699" width="6" height="0.301205" stroke="black" stroke-width="1" fill="blue" opacity="1" tooltip="enable"><title>(0.0774012,2)</title></rect><rect x="336" y="200" width="6" height="0" stroke="black" stroke-width="1" fill="blue" opacity="1" tooltip="enable"><title>(0.0788085,0)</title></rect><rect x="342" y="199.699" width="6" height="0.301205" stroke="black" stroke-width="1" fill="blue" opacity="1" tooltip="enable"><title>(0.0802158,2)</title></rect><rect x="348" y="200" width="6" height="0" stroke="black" stroke-width="1" fill="blue" opacity="1" tooltip="enable"><title>(0.0816231,0)</title></rect><rect x="354" y="200" width="6" height="0" stroke="black" stroke-width="1" fill="blue" opacity="1" tooltip="enable"><title>(0.0830304,0)</title></rect><rect x="360" y="200" width="6" height="0" stroke="black" stroke-width="1" fill="blue" opacity="1" tooltip="enable"><title>(0.0844377,0)</title></rect><rect x="366" y="200" width="6" height="0" stroke="black" stroke-width="1" fill="blue" opacity="1" tooltip="enable"><title>(0.085845,0)</title></rect><rect x="372" y="200" width="6" height="0" stroke="black" stroke-width="1" fill="blue" opacity="1" tooltip="enable"><title>(0.0872523,0)</title></rect><rect x="378" y="199.096" width="6" height="0.903615" stroke="black" stroke-width="1" fill="blue" opacity="1" tooltip="enable"><title>(0.0886595,6)</title></rect><rect x="384" y="200" width="6" height="0" stroke="black" stroke-width="1" fill="blue" opacity="1" tooltip="enable"><title>(0.0900668,0)</title></rect><rect x="390" y="199.699" width="6" height="0.301205" stroke="black" stroke-width="1" fill="blue" opacity="1" tooltip="enable"><title>(0.0914741,2)</title></rect><rect x="396" y="200" width="6" height="0" stroke="black" stroke-width="1" fill="blue" opacity="1" tooltip="enable"><title>(0.0928814,0)</title></rect><rect x="402" y="200" width="6" height="0" stroke="black" stroke-width="1" fill="blue" opacity="1" tooltip="enable"><title>(0.0942887,0)</title></rect><rect x="408" y="199.699" width="6" height="0.301205" stroke="black" stroke-width="1" fill="blue" opacity="1" tooltip="enable"><title>(0.095696,2)</title></rect><rect x="414" y="199.699" width="6" height="0.301205" stroke="black" stroke-width="1" fill="blue" opacity="1" tooltip="enable"><title>(0.0971033,2)</title></rect><rect x="420" y="199.699" width="6" height="0.301205" stroke="black" stroke-width="1" fill="blue" opacity="1" tooltip="enable"><title>(0.0985106,2)</title></rect><rect x="426" y="200" width="6" height="0" stroke="black" stroke-width="1" fill="blue" opacity="1" tooltip="enable"><title>(0.0999179,0)</title></rect><rect x="432" y="200" width="6" height="0" stroke="black" stroke-width="1" fill="blue" opacity="1" tooltip="enable"><title>(0.101325,0)</title></rect><rect x="438" y="200" width="6" height="0" stroke="black" stroke-width="1" fill="blue" opacity="1" tooltip="enable"><title>(0.102732,0)</title></rect><rect x="444" y="199.398" width="6" height="0.60241" stroke="black" stroke-width="1" fill="blue" opacity="1" tooltip="enable"><title>(0.10414,4)</title></rect><rect x="450" y="200" width="6" height="0" stroke="black" stroke-width="1" fill="blue" opacity="1" tooltip="enable"><title>(0.105547,0)</title></rect><rect x="456" y="199.699" width="6" height="0.301205" stroke="black" stroke-width="1" fill="blue" opacity="1" tooltip="enable"><title>(0.106954,2)</title></rect><rect x="462" y="200" width="6" height="0" stroke="black" stroke-width="1" fill="blue" opacity="1" tooltip="enable"><title>(0.108362,0)</title></rect><rect x="468" y="200" width="6" height="0" stroke="black" stroke-width="1" fill="blue" opacity="1" tooltip="enable"><title>(0.109769,0)</title></rect><rect x="474" y="199.699" width="6" height="0.301205" stroke="black" stroke-width="1" fill="blue" opacity="1" tooltip="enable"><title>(0.111176,2)</title></rect><rect x="480" y="200" width="6" height="0" stroke="black" stroke-width="1" fill="blue" opacity="1" tooltip="enable"><title>(0.112584,0)</title></rect><rect x="486" y="200" width="6" height="0" stroke="black" stroke-width="1" fill="blue" opacity="1" tooltip="enable"><title>(0.113991,0)</title></rect><rect x="492" y="199.699" width="6" height="0.301205" stroke="black" stroke-width="1" fill="blue" opacity="1" tooltip="enable"><title>(0.115398,2)</title></rect><rect x="498" y="200" width="6" height="0" stroke="black" stroke-width="1" fill="blue" opacity="1" tooltip="enable"><title>(0.116805,0)</title></rect><rect x="504" y="200" width="6" height="0" stroke="black" stroke-width="1" fill="blue" opacity="1" tooltip="enable"><title>(0.118213,0)</title></rect><rect x="510" y="200" width="6" height="0" stroke="black" stroke-width="1" fill="blue" opacity="1" tooltip="enable"><title>(0.11962,0)</title></rect><rect x="516" y="199.699" width="6" height="0.301205" stroke="black" stroke-width="1" fill="blue" opacity="1" tooltip="enable"><title>(0.121027,2)</title></rect><rect x="522" y="200" width="6" height="0" stroke="black" stroke-width="1" fill="blue" opacity="1" tooltip="enable"><title>(0.122435,0)</title></rect><rect x="528" y="200" width="6" height="0" stroke="black" stroke-width="1" fill="blue" opacity="1" tooltip="enable"><title>(0.123842,0)</title></rect><rect x="534" y="199.699" width="6" height="0.301205" stroke="black" stroke-width="1" fill="blue" opacity="1" tooltip="enable"><title>(0.125249,2)</title></rect><rect x="540" y="200" width="6" height="0" stroke="black" stroke-width="1" fill="blue" opacity="1" tooltip="enable"><title>(0.126656,0)</title></rect><rect x="546" y="200" width="6" height="0" stroke="black" stroke-width="1" fill="blue" opacity="1" tooltip="enable"><title>(0.128064,0)</title></rect><rect x="552" y="200" width="6" height="0" stroke="black" stroke-width="1" fill="blue" opacity="1" tooltip="enable"><title>(0.129471,0)</title></rect><rect x="558" y="199.398" width="6" height="0.60241" stroke="black" stroke-width="1" fill="blue" opacity="1" tooltip="enable"><title>(0.130878,4)</title></rect><rect x="564" y="200" width="6" height="0" stroke="black" stroke-width="1" fill="blue" opacity="1" tooltip="enable"><title>(0.132286,0)</title></rect><rect x="570" y="200" width="6" height="0" stroke="black" stroke-width="1" fill="blue" opacity="1" tooltip="enable"><title>(0.133693,0)</title></rect><rect x="576" y="200" width="6" height="0" stroke="black" stroke-width="1" fill="blue" opacity="1" tooltip="enable"><title>(0.1351,0)</title></rect><rect x="582" y="200" width="6" height="0" stroke="black" stroke-width="1" fill="blue" opacity="1" tooltip="enable"><title>(0.136508,0)</title></rect><rect x="588" y="200" width="6" height="0" stroke="black" stroke-width="1" fill="blue" opacity="1" tooltip="enable"><title>(0.137915,0)</title></rect><rect x="594" y="199.849" width="6" height="0.150602" stroke="black" stroke-width="1" fill="blue" opacity="1" tooltip="enable"><title>(0.139322,1)</title></rect><text x="30" y="240" font-size="20" fill="black">0</text>
<text x="600" y="240" font-size="20" fill="black">0.140729</text>
<polyline points="0,220,600,220" stroke="black" stroke-width="1" fill="none" opacity="1"/>
<text x="720" y="20" font-size="20" fill="black">1328</text>
<text x="720" y="200" font-size="20" fill="black">0</text>
<polyline points="660,0,660,200" stroke="black" stroke-width="1" fill="none" opacity="1"/>
</svg>