<?xml version="1.0" standalone="yes"?>
<!-- SVG graphic -->
<svg xmlns='http://www.w3.org/2000/svg' xmlns:xlink='http://www.w3.org/1999/xlink'
 version="1.1">
<rect x="0" y="0" width="6" height="200" stroke="black" stroke-width="1" fill="blue" opacity="1" tooltip="enable"><title>(0,903)</title></rect><rect x="6" y="2.43633" width="6" height="197.564" stroke="black" stroke-width="1" fill="blue" opacity="1" tooltip="enable"><title>(0.00100537,892)</title></rect><rect x="12" y="31.4507" width="6" height="168.549" stroke="black" stroke-width="1" fill="blue" opacity="1" tooltip="enable"><title>(0.00201074,761)</title></rect><rect x="18" y="29.2359" width="6" height="170.764" stroke="black" stroke-width="1" fill="blue" opacity="1" tooltip="enable"><title>(0.00301611,771)</title></rect><rect x="24" y="61.1296" width="6" height="138.87" stroke="black" stroke-width="1" fill="blue" opacity="1" tooltip="enable"><title>(0.00402148,627)</title></rect><rect x="30" y="94.5736" width="6" height="105.426" stroke="black" stroke-width="1" fill="blue" opacity="1" tooltip="enable"><title>(0.00502685,476)</title></rect><rect x="36" y="122.924" width="6" height="77.0764" stroke="black" stroke-width="1" fill="blue" opacity="1" tooltip="enable"><title>(0.00603222,348)</title></rect><rect x="42" y="149.059" width="6" height="50.9413" stroke="black" stroke-width="1" fill="blue" opacity="1" tooltip="enable"><title>(0.00703759,230)</title></rect><rect x="48" y="161.019" width="6" height="38.9812" stroke="black" stroke-width="1" fill="blue" opacity="1" tooltip="enable"><title>(0.00804297,176)</title></rect><rect x="54" y="164.341" width="6" height="35.6589" stroke="black" stroke-width="1" fill="blue" opacity="1" tooltip="enable"><title>(0.00904834,161)</title></rect><rect x="60" y="174.529" width="6" height="25.4707" stroke="black" stroke-width="1" fill="blue" opacity="1" tooltip="enable"><title>(0.0100537,115)</title></rect><rect x="66" y="173.422" width="6" height="26.5781" stroke="black" stroke-width="1" fill="blue" opacity="1" tooltip="enable"><title>(0.0110591,120)</title></rect><rect x="72" y="174.529" width="6" height="25.4707" stroke="black" stroke-width="1" fill="blue" opacity="1" tooltip="enable"><title>(0.0120644,115)</title></rect><rect x="78" y="179.845" width="6" height="20.155" stroke="black" stroke-width="1" fill="blue" opacity="1" tooltip="enable"><title>(0.0130698,91)</title></rect><rect x="84" y="171.207" width="6" height="28.7929" stroke="black" stroke-width="1" fill="blue" opacity="1" tooltip="enable"><title>(0.0140752,130)</title></rect><rect x="90" y="175.194" width="6" height="24.8062" stroke="black" stroke-width="1" fill="blue" opacity="1" tooltip="enable"><title>(0.0150806,112)</title></rect><rect x="96" y="172.979" width="6" height="27.021" stroke="black" stroke-width="1" fill="blue" opacity="1" tooltip="enable"><title>(0.0160859,122)</title></rect><rect x="102" y="171.429" width="6" height="28.5714" stroke="black" stroke-width="1" fill="blue" opacity="1" tooltip="enable"><title>(0.0170913,129)</title></rect><rect x="108" y="173.865" width="6" height="26.1351" stroke="black" stroke-width="1" fill="blue" opacity="1" tooltip="enable"><title>(0.0180967,118)</title></rect><rect x="114" y="180.509" width="6" height="19.4906" stroke="black" stroke-width="1" fill="blue" opacity="1" tooltip="enable"><title>(0.019102,88)</title></rect><rect x="120" y="176.08" width="6" height="23.9203" stroke="black" stroke-width="1" fill="blue" opacity="1" tooltip="enable"><title>(0.0201074,108)</title></rect><rect x="126" y="179.402" width="6" height="20.598" stroke="black" stroke-width="1" fill="blue" opacity="1" tooltip="enable"><title>(0.0211128,93)</title></rect><rect x="132" y="176.08" width="6" height="23.9203" stroke="black" stroke-width="1" fill="blue" opacity="1" tooltip="enable"><title>(0.0221182,108)</title></rect><rect x="138" y="181.617" width="6" height="18.3832" stroke="black" stroke-width="1" fill="blue" opacity="1" tooltip="enable"><title>(0.0231235,83)</title></rect><rect x="144" y="177.63" width="6" height="22.3699" stroke="black" stroke-width="1" fill="blue" opacity="1" tooltip="enable"><title>(0.0241289,101)</title></rect><rect x="150" y="182.946" width="6" height="17.0543" stroke="black" stroke-width="1" fill="blue" opacity="1" tooltip="enable"><title>(0.0251343,77)</title></rect><rect x="156" y="182.724" width="6" height="17.2757" stroke="black" stroke-width="1" fill="blue" opacity="1" tooltip="enable"><title>(0.0261396,78)</title></rect><rect x="162" y="175.637" width="6" height="24.3632" stroke="black" stroke-width="1" fill="blue" opacity="1" tooltip="enable"><title>(0.027145,110)</title></rect><rect x="168" y="185.604" width="6" height="14.3965" stroke="black" stroke-width="1" fill="blue" opacity="1" tooltip="enable"><title>(0.0281504,65)</title></rect><rect x="174" y="187.154" width="6" height="12.8461" stroke="black" stroke-width="1" fill="blue" opacity="1" tooltip="enable"><title>(0.0291557,58)</title></rect><rect x="180" y="185.382" width="6" height="14.6179" stroke="black" stroke-width="1" fill="blue" opacity="1" tooltip="enable"><title>(0.0301611,66)</title></rect><rect x="186" y="183.167" width="6" height="16.8328" stroke="black" stroke-width="1" fill="blue" opacity="1" tooltip="enable"><title>(0.0311665,76)</title></rect><rect x="192" y="189.147" width="6" height="10.8527" stroke="black" stroke-width="1" fill="blue" opacity="1" tooltip="enable"><title>(0.0321719,49)</title></rect><rect x="198" y="192.248" width="6" height="7.75194" stroke="black" stroke-width="1" fill="blue" opacity="1" tooltip="enable"><title>(0.0331772,35)</title></rect><rect x="204" y="187.597" width="6" height="12.4031" stroke="black" stroke-width="1" fill="blue" opacity="1" tooltip="enable"><title>(0.0341826,56)</title></rect><rect x="210" y="191.141" width="6" height="8.85936" stroke="black" stroke-width="1" fill="blue" opacity="1" tooltip="enable"><title>(0.035188,40)</title></rect><rect x="216" y="195.57" width="6" height="4.42968" stroke="black" stroke-width="1" fill="blue" opacity="1" tooltip="enable"><title>(0.0361933,20)</title></rect><rect x="222" y="191.141" width="6" height="8.85936" stroke="black" stroke-width="1" fill="blue" opacity="1" tooltip="enable"><title>(0.0371987,40)</title></rect><rect x="228" y="194.684" width="6" height="5.31561" stroke="black" stroke-width="1" fill="blue" opacity="1" tooltip="enable"><title>(0.0382041,24)</title></rect><rect x="234" y="192.913" width="6" height="7.08749" stroke="black" stroke-width="1" fill="blue" opacity="1" tooltip="enable"><title>(0.0392095,32)</title></rect><rect x="240" y="194.463" width="6" height="5.5371" stroke="black" stroke-width="1" fill="blue" opacity="1" tooltip="enable"><title>(0.0402148,25)</title></rect><rect x="246" y="194.02" width="6" height="5.98007" stroke="black" stroke-width="1" fill="blue" opacity="1" tooltip="enable"><title>(0.0412202,27)</title></rect><rect x="252" y="197.342" width="6" height="2.65781" stroke="black" stroke-width="1" fill="blue" opacity="1" tooltip="enable"><title>(0.0422256,12)</title></rect><rect x="258" y="197.342" width="6" height="2.65781" stroke="black" stroke-width="1" fill="blue" opacity="1" tooltip="enable"><title>(0.0432309,12)</title></rect><rect x="264" y="197.342" width="6" height="2.65781" stroke="black" stroke-width="1" fill="blue" opacity="1" tooltip="enable"><title>(0.0442363,12)</title></rect><rect x="270" y="197.121" width="6" height="2.87929" stroke="black" stroke-width="1" fill="blue" opacity="1" tooltip="enable"><title>(0.0452417,13)</title></rect><rect x="276" y="198.45" width="6" height="1.55039" stroke="black" stroke-width="1" fill="blue" opacity="1" tooltip="enable"><title>(0.0462471,7)</title></rect><rect x="282" y="200" width="6" height="0" stroke="black" stroke-width="1" fill="blue" opacity="1" tooltip="enable"><title>(0.0472524,0)</title></rect><rect x="288" y="197.785" width="6" height="2.21484" stroke="black" stroke-width="1" fill="blue" opacity="1" tooltip="enable"><title>(0.0482578,10)</title></rect><rect x="294" y="199.336" width="6" height="0.664452" stroke="black" stroke-width="1" fill="blue" opacity="1" tooltip="enable"><title>(0.0492632,3)</title></rect><rect x="300" y="199.557" width="6" height="0.442968" stroke="black" stroke-width="1" fill="blue" opacity="1" tooltip="enable"><title>(0.0502685,2)</title></rect><rect x="306" y="199.336" width="6" height="0.664452" stroke="black" stroke-width="1" fill="blue" opacity="1" tooltip="enable"><title>(0.0512739,3)</title></rect><rect x="312" y="199.114" width="6" height="0.885936" stroke="black" stroke-width="1" fill="blue" opacity="1" tooltip="enable"><title>(0.0522793,4)</title></rect><rect x="318" y="198.671" width="6" height="1.3289" stroke="black" stroke-width="1" fill="blue" opacity="1" tooltip="enable"><title>(0.0532846,6)</title></rect><rect x="324" y="199.557" width="6" height="0.442968" stroke="black" stroke-width="1" fill="blue" opacity="1" tooltip="enable"><title>(0.05429,2)</title></rect><rect x="330" y="197.342" width="6" height="2.65781" stroke="black" stroke-width="1" fill="blue" opacity="1" tooltip="enable"><title>(0.0552954,12)</title></rect><rect x="336" y="200" width="6" height="0" stroke="black" stroke-width="1" fill="blue" opacity="1" tooltip="enable"><title>(0.0563008,0)</title></rect><rect x="342" y="199.114" width="6" height="0.885936" stroke="black" stroke-width="1" fill="blue" opacity="1" tooltip="enable"><title>(0.0573061,4)</title></rect><rect x="348" y="199.557" width="6" height="0.442968" stroke="black" stroke-width="1" fill="blue" opacity="1" tooltip="enable"><title>(0.0583115,2)</title></rect><rect x="354" y="200" width="6" height="0" stroke="black" stroke-width="1" fill="blue" opacity="1" tooltip="enable"><title>(0.0593169,0)</title></rect><rect x="360" y="200" width="6" height="0" stroke="black" stroke-width="1" fill="blue" opacity="1" tooltip="enable"><title>(0.0603222,0)</title></rect><rect x="366" y="200" width="6" height="0" stroke="black" stroke-width="1" fill="blue" opacity="1" tooltip="enable"><title>(0.0613276,0)</title></rect><rect x="372" y="199.114" width="6" height="0.885936" stroke="black" stroke-width="1" fill="blue" opacity="1" tooltip="enable"><title>(0.062333,4)</title></rect><rect x="378" y="199.557" width="6" height="0.442968" stroke="black" stroke-width="1" fill="blue" opacity="1" tooltip="enable"><title>(0.0633383,2)</title></rect><rect x="384" y="199.557" width="6" height="0.442968" stroke="black" stroke-width="1" fill="blue" opacity="1" tooltip="enable"><title>(0.0643437,2)</title></rect><rect x="390" y="200" width="6" height="0" stroke="black" stroke-width="1" fill="blue" opacity="1" tooltip="enable"><title>(0.0653491,0)</title></rect><rect x="396" y="199.557" width="6" height="0.442968" stroke="black" stroke-width="1" fill="blue" opacity="1" tooltip="enable"><title>(0.0663545,2)</title></rect><rect x="402" y="200" width="6" height="0" stroke="black" stroke-width="1" fill="blue" opacity="1" tooltip="enable"><title>(0.0673598,0)</title></rect><rect x="408" y="199.557" width="6" height="0.442968" stroke="black" stroke-width="1" fill="blue" opacity="1" tooltip="enable"><title>(0.0683652,2)</title></rect><rect x="414" y="199.557" width="6" height="0.442968" stroke="black" stroke-width="1" fill="blue" opacity="1" tooltip="enable"><title>(0.0693706,2)</title></rect><rect x="420" y="199.557" width="6" height="0.442968" stroke="black" stroke-width="1" fill="blue" opacity="1" tooltip="enable"><title>(0.0703759,2)</title></rect><rect x="426" y="199.114" width="6" height="0.885936" stroke="black" stroke-width="1" fill="blue" opacity="1" tooltip="enable"><title>(0.0713813,4)</title></rect><rect x="432" y="199.557" width="6" height="0.442968" stroke="black" stroke-width="1" fill="blue" opacity="1" tooltip="enable"><title>(0.0723867,2)</title></rect><rect x="438" y="200" width="6" height="0" stroke="black" stroke-width="1" fill="blue" opacity="1" tooltip="enable"><title>(0.0733921,0)</title></rect><rect x="444" y="200" width="6" height="0" stroke="black" stroke-width="1" fill="blue" opacity="1" tooltip="enable"><title>(0.0743974,0)</title></rect><rect x="450" y="200" width="6" height="0" stroke="black" stroke-width="1" fill="blue" opacity="1" tooltip="enable"><title>(0.0754028,0)</title></rect><rect x="456" y="199.557" width="6" height="0.442968" stroke="black" stroke-width="1" fill="blue" opacity="1" tooltip="enable"><title>(0.0764082,2)</title></rect><rect x="462" y="199.779" width="6" height="0.221484" stroke="black" stroke-width="1" fill="blue" opacity="1" tooltip="enable"><title>(0.0774135,1)</title></rect><rect x="468" y="199.779" width="6" height="0.221484" stroke="black" stroke-width="1" fill="blue" opacity="1" tooltip="enable"><title>(0.0784189,1)</title></rect><rect x="474" y="200" width="6" height="0" stroke="black" stroke-width="1" fill="blue" opacity="1" tooltip="enable"><title>(0.0794243,0)</title></rect><rect x="480" y="200" width="6" height="0" stroke="black" stroke-width="1" fill="blue" opacity="1" tooltip="enable"><title>(0.0804297,0)</title></rect><rect x="486" y="199.557" width="6" height="0.442968" stroke="black" stroke-width="1" fill="blue" opacity="1" tooltip="enable"><title>(0.081435,2)</title></rect><rect x="492" y="199.557" width="6" height="0.442968" stroke="black" stroke-width="1" fill="blue" opacity="1" tooltip="enable"><title>(0.0824404,2)</title></rect><rect x="498" y="200" width="6" height="0" stroke="black" stroke-width="1" fill="blue" opacity="1" tooltip="enable"><title>(0.0834458,0)</title></rect><rect x="504" y="200" width="6" height="0" stroke="black" stroke-width="1" fill="blue" opacity="1" tooltip="enable"><title>(0.0844511,0)</title></rect><rect x="510" y="199.779" width="6" height="0.221484" stroke="black" stroke-width="1" fill="blue" opacity="1" tooltip="enable"><title>(0.0854565,1)</title></rect><rect x="516" y="199.779" width="6" height="0.221484" stroke="black" stroke-width="1" fill="blue" opacity="1" tooltip="enable"><title>(0.0864619,1)</title></rect><rect x="522" y="199.779" width="6" height="0.221484" stroke="black" stroke-width="1" fill="blue" opacity="1" tooltip="enable"><title>(0.0874672,1)</title></rect><rect x="528" y="199.779" width="6" height="0.221484" stroke="black" stroke-width="1" fill="blue" opacity="1" tooltip="enable"><title>(0.0884726,1)</title></rect><rect x="534" y="200" width="6" height="0" stroke="black" stroke-width="1" fill="blue" opacity="1" tooltip="enable"><title>(0.089478,0)</title></rect><rect x="540" y="200" width="6" height="0" stroke="black" stroke-width="1" fill="blue" opacity="1" tooltip="enable"><title>(0.0904834,0)</title></rect><rect x="546" y="200" width="6" height="0" stroke="black" stroke-width="1" fill="blue" opacity="1" tooltip="enable"><title>(0.0914887,0)</title></rect><rect x="552" y="199.557" width="6" height="0.442968" stroke="black" stroke-width="1" fill="blue" opacity="1" tooltip="enable"><title>(0.0924941,2)</title></rect><rect x="558" y="200" width="6" height="0" stroke="black" stroke-width="1" fill="blue" opacity="1" tooltip="enable"><title>(0.0934995,0)</title></rect><rect x="564" y="200" width="6" height="0" stroke="black" stroke-width="1" fill="blue" opacity="1" tooltip="enable"><title>(0.0945048,0)</title></rect><rect x="570" y="199.557" width="6" height="0.442968" stroke="black" stroke-width="1" fill="blue" opacity="1" tooltip="enable"><title>(0.0955102,2)</title></rect><rect x="576" y="200" width="6" height="0" stroke="black" stroke-width="1" fill="blue" opacity="1" tooltip="enable"><title>(0.0965156,0)</title></rect><rect x="582" y="200" width="6" height="0" stroke="black" stroke-width="1" fill="blue" opacity="1" tooltip="enable"><title>(0.097521,0)</title></rect><rect x="588" y="200" width="6" height="0" stroke="black" stroke-width="1" fill="blue" opacity="1" tooltip="enable"><title>(0.0985263,0)</title></rect><rect x="594" y="199.779" width="6" height="0.221484" stroke="black" stroke-width="1" fill="blue" opacity="1" tooltip="enable"><title>(0.0995317,1)</title></rect><text x="30" y="240" font-size="20" fill="black">0</text>
<text x="600" y="240" font-size="20" fill="black">0.100537</text>
<polyline points="0,220,600,220" stroke="black" stroke-width="1" fill="none" opacity="1"/>
<text x="720" y="20" font-size="20" fill="black">903</text>
<text x="720" y="200" font-size="20" fill="black">0</text>
<polyline points="660,0,660,200" stroke="black" stroke-width="1" fill="none" opacity="1"/>
</svg>