<?xml version="1.0" standalone="yes"?>
<!-- SVG graphic -->
<svg xmlns='http://www.w3.org/2000/svg' xmlns:xlink='http://www.w3.org/1999/xlink'
 version="1.1">
<rect x="0" y="0" width="6" height="200" stroke="black" stroke-width="1" fill="blue" opacity="1" tooltip="enable"><title>(0,2554)</title></rect><rect x="6" y="114.33" width="6" height="85.6695" stroke="black" stroke-width="1" fill="blue" opacity="1" tooltip="enable"><title>(0.00121054,1094)</title></rect><rect x="12" y="149.491" width="6" height="50.509" stroke="black" stroke-width="1" fill="blue" opacity="1" tooltip="enable"><title>(0.00242108,645)</title></rect><rect x="18" y="179.64" width="6" height="20.3602" stroke="black" stroke-width="1" fill="blue" opacity="1" tooltip="enable"><title>(0.00363161,260)</title></rect><rect x="24" y="185.2" width="6" height="14.8003" stroke="black" stroke-width="1" fill="blue" opacity="1" tooltip="enable"><title>(0.00484215,189)</title></rect><rect x="30" y="186.374" width="6" height="13.6257" stroke="black" stroke-width="1" fill="blue" opacity="1" tooltip="enable"><title>(0.00605269,174)</title></rect><rect x="36" y="189.35" width="6" height="10.65" stroke="black" stroke-width="1" fill="blue" opacity="1" tooltip="enable"><title>(0.00726323,136)</title></rect><rect x="42" y="189.82" width="6" height="10.1801" stroke="black" stroke-width="1" fill="blue" opacity="1" tooltip="enable"><title>(0.00847377,130)</title></rect><rect x="48" y="188.41" width="6" height="11.5897" stroke="black" stroke-width="1" fill="blue" opacity="1" tooltip="enable"><title>(0.0096843,148)</title></rect><rect x="54" y="188.88" width="6" height="11.1198" stroke="black" stroke-width="1" fill="blue" opacity="1" tooltip="enable"><title>(0.0108948,142)</title></rect><rect x="60" y="188.019" width="6" height="11.9812" stroke="black" stroke-width="1" fill="blue" opacity="1" tooltip="enable"><title>(0.0121054,153)</title></rect><rect x="66" y="189.585" width="6" height="10.415" stroke="black" stroke-width="1" fill="blue" opacity="1" tooltip="enable"><title>(0.0133159,133)</title></rect><rect x="72" y="188.41" width="6" height="11.5897" stroke="black" stroke-width="1" fill="blue" opacity="1" tooltip="enable"><title>(0.0145265,148)</title></rect><rect x="78" y="192.169" width="6" height="7.83085" stroke="black" stroke-width="1" fill="blue" opacity="1" tooltip="enable"><title>(0.015737,100)</title></rect><rect x="84" y="190.838" width="6" height="9.1621" stroke="black" stroke-width="1" fill="blue" opacity="1" tooltip="enable"><title>(0.0169475,117)</title></rect><rect x="90" y="191.308" width="6" height="8.69225" stroke="black" stroke-width="1" fill="blue" opacity="1" tooltip="enable"><title>(0.0181581,111)</title></rect><rect x="96" y="191.229" width="6" height="8.77056" stroke="black" stroke-width="1" fill="blue" opacity="1" tooltip="enable"><title>(0.0193686,112)</title></rect><rect x="102" y="193.344" width="6" height="6.65623" stroke="black" stroke-width="1" fill="blue" opacity="1" tooltip="enable"><title>(0.0205791,85)</title></rect><rect x="108" y="193.892" width="6" height="6.10807" stroke="black" stroke-width="1" fill="blue" opacity="1" tooltip="enable"><title>(0.0217897,78)</title></rect><rect x="114" y="194.127" width="6" height="5.87314" stroke="black" stroke-width="1" fill="blue" opacity="1" tooltip="enable"><title>(0.0230002,75)</title></rect><rect x="120" y="194.205" width="6" height="5.79483" stroke="black" stroke-width="1" fill="blue" opacity="1" tooltip="enable"><title>(0.0242108,74)</title></rect><rect x="126" y="194.44" width="6" height="5.55991" stroke="black" stroke-width="1" fill="blue" opacity="1" tooltip="enable"><title>(0.0254213,71)</title></rect><rect x="132" y="195.301" width="6" height="4.69851" stroke="black" stroke-width="1" fill="blue" opacity="1" tooltip="enable"><title>(0.0266318,60)</title></rect><rect x="138" y="194.205" width="6" height="5.79483" stroke="black" stroke-width="1" fill="blue" opacity="1" tooltip="enable"><title>(0.0278424,74)</title></rect><rect x="144" y="196.32" width="6" height="3.6805" stroke="black" stroke-width="1" fill="blue" opacity="1" tooltip="enable"><title>(0.0290529,47)</title></rect><rect x="150" y="196.085" width="6" height="3.91543" stroke="black" stroke-width="1" fill="blue" opacity="1" tooltip="enable"><title>(0.0302634,50)</title></rect><rect x="156" y="197.181" width="6" height="2.81911" stroke="black" stroke-width="1" fill="blue" opacity="1" tooltip="enable"><title>(0.031474,36)</title></rect><rect x="162" y="196.241" width="6" height="3.75881" stroke="black" stroke-width="1" fill="blue" opacity="1" tooltip="enable"><title>(0.0326845,48)</title></rect><rect x="168" y="196.241" width="6" height="3.75881" stroke="black" stroke-width="1" fill="blue" opacity="1" tooltip="enable"><title>(0.0338951,48)</title></rect><rect x="174" y="196.868" width="6" height="3.13234" stroke="black" stroke-width="1" fill="blue" opacity="1" tooltip="enable"><title>(0.0351056,40)</title></rect><rect x="180" y="195.458" width="6" height="4.5419" stroke="black" stroke-width="1" fill="blue" opacity="1" tooltip="enable"><title>(0.0363161,58)</title></rect><rect x="186" y="196.163" width="6" height="3.83712" stroke="black" stroke-width="1" fill="blue" opacity="1" tooltip="enable"><title>(0.0375267,49)</title></rect><rect x="192" y="196.946" width="6" height="3.05403" stroke="black" stroke-width="1" fill="blue" opacity="1" tooltip="enable"><title>(0.0387372,39)</title></rect><rect x="198" y="195.38" width="6" height="4.6202" stroke="black" stroke-width="1" fill="blue" opacity="1" tooltip="enable"><title>(0.0399478,59)</title></rect><rect x="204" y="196.163" width="6" height="3.83712" stroke="black" stroke-width="1" fill="blue" opacity="1" tooltip="enable"><title>(0.0411583,49)</title></rect><rect x="210" y="196.241" width="6" height="3.75881" stroke="black" stroke-width="1" fill="blue" opacity="1" tooltip="enable"><title>(0.0423688,48)</title></rect><rect x="216" y="197.024" width="6" height="2.97572" stroke="black" stroke-width="1" fill="blue" opacity="1" tooltip="enable"><title>(0.0435794,38)</title></rect><rect x="222" y="197.338" width="6" height="2.66249" stroke="black" stroke-width="1" fill="blue" opacity="1" tooltip="enable"><title>(0.0447899,34)</title></rect><rect x="228" y="197.494" width="6" height="2.50587" stroke="black" stroke-width="1" fill="blue" opacity="1" tooltip="enable"><title>(0.0460004,32)</title></rect><rect x="234" y="197.416" width="6" height="2.58418" stroke="black" stroke-width="1" fill="blue" opacity="1" tooltip="enable"><title>(0.047211,33)</title></rect><rect x="240" y="197.729" width="6" height="2.27095" stroke="black" stroke-width="1" fill="blue" opacity="1" tooltip="enable"><title>(0.0484215,29)</title></rect><rect x="246" y="196.554" width="6" height="3.44558" stroke="black" stroke-width="1" fill="blue" opacity="1" tooltip="enable"><title>(0.0496321,44)</title></rect><rect x="252" y="197.886" width="6" height="2.11433" stroke="black" stroke-width="1" fill="blue" opacity="1" tooltip="enable"><title>(0.0508426,27)</title></rect><rect x="258" y="198.121" width="6" height="1.8794" stroke="black" stroke-width="1" fill="blue" opacity="1" tooltip="enable"><title>(0.0520531,24)</title></rect><rect x="264" y="197.807" width="6" height="2.19264" stroke="black" stroke-width="1" fill="blue" opacity="1" tooltip="enable"><title>(0.0532637,28)</title></rect><rect x="270" y="197.729" width="6" height="2.27095" stroke="black" stroke-width="1" fill="blue" opacity="1" tooltip="enable"><title>(0.0544742,29)</title></rect><rect x="276" y="198.121" width="6" height="1.8794" stroke="black" stroke-width="1" fill="blue" opacity="1" tooltip="enable"><title>(0.0556847,24)</title></rect><rect x="282" y="198.59" width="6" height="1.40955" stroke="black" stroke-width="1" fill="blue" opacity="1" tooltip="enable"><title>(0.0568953,18)</title></rect><rect x="288" y="199.217" width="6" height="0.783085" stroke="black" stroke-width="1" fill="blue" opacity="1" tooltip="enable"><title>(0.0581058,10)</title></rect><rect x="294" y="198.121" width="6" height="1.8794" stroke="black" stroke-width="1" fill="blue" opacity="1" tooltip="enable"><title>(0.0593164,24)</title></rect><rect x="300" y="198.747" width="6" height="1.25294" stroke="black" stroke-width="1" fill="blue" opacity="1" tooltip="enable"><title>(0.0605269,16)</title></rect><rect x="306" y="199.217" width="6" height="0.783085" stroke="black" stroke-width="1" fill="blue" opacity="1" tooltip="enable"><title>(0.0617374,10)</title></rect><rect x="312" y="199.06" width="6" height="0.939702" stroke="black" stroke-width="1" fill="blue" opacity="1" tooltip="enable"><title>(0.062948,12)</title></rect><rect x="318" y="199.374" width="6" height="0.626468" stroke="black" stroke-width="1" fill="blue" opacity="1" tooltip="enable"><title>(0.0641585,8)</title></rect><rect x="324" y="199.06" width="6" height="0.939702" stroke="black" stroke-width="1" fill="blue" opacity="1" tooltip="enable"><title>(0.065369,12)</title></rect><rect x="330" y="198.277" width="6" height="1.72279" stroke="black" stroke-width="1" fill="blue" opacity="1" tooltip="enable"><title>(0.0665796,22)</title></rect><rect x="336" y="199.687" width="6" height="0.313234" stroke="black" stroke-width="1" fill="blue" opacity="1" tooltip="enable"><title>(0.0677901,4)</title></rect><rect x="342" y="199.843" width="6" height="0.156617" stroke="black" stroke-width="1" fill="blue" opacity="1" tooltip="enable"><title>(0.0690007,2)</title></rect><rect x="348" y="200" width="6" height="0" stroke="black" stroke-width="1" fill="blue" opacity="1" tooltip="enable"><title>(0.0702112,0)</title></rect><rect x="354" y="199.765" width="6" height="0.234926" stroke="black" stroke-width="1" fill="blue" opacity="1" tooltip="enable"><title>(0.0714217,3)</title></rect><rect x="360" y="199.608" width="6" height="0.391543" stroke="black" stroke-width="1" fill="blue" opacity="1" tooltip="enable"><title>(0.0726323,5)</title></rect><rect x="366" y="199.217" width="6" height="0.783085" stroke="black" stroke-width="1" fill="blue" opacity="1" tooltip="enable"><title>(0.0738428,10)</title></rect><rect x="372" y="199.374" width="6" height="0.626468" stroke="black" stroke-width="1" fill="blue" opacity="1" tooltip="enable"><title>(0.0750533,8)</title></rect><rect x="378" y="199.374" width="6" height="0.626468" stroke="black" stroke-width="1" fill="blue" opacity="1" tooltip="enable"><title>(0.0762639,8)</title></rect><rect x="384" y="199.843" width="6" height="0.156617" stroke="black" stroke-width="1" fill="blue" opacity="1" tooltip="enable"><title>(0.0774744,2)</title></rect><rect x="390" y="199.53" width="6" height="0.469851" stroke="black" stroke-width="1" fill="blue" opacity="1" tooltip="enable"><title>(0.078685,6)</title></rect><rect x="396" y="199.687" width="6" height="0.313234" stroke="black" stroke-width="1" fill="blue" opacity="1" tooltip="enable"><title>(0.0798955,4)</title></rect><rect x="402" y="199.53" width="6" height="0.469851" stroke="black" stroke-width="1" fill="blue" opacity="1" tooltip="enable"><title>(0.081106,6)</title></rect><rect x="408" y="200" width="6" height="0" stroke="black" stroke-width="1" fill="blue" opacity="1" tooltip="enable"><title>(0.0823166,0)</title></rect><rect x="414" y="199.843" width="6" height="0.156617" stroke="black" stroke-width="1" fill="blue" opacity="1" tooltip="enable"><title>(0.0835271,2)</title></rect><rect x="420" y="200" width="6" height="0" stroke="black" stroke-width="1" fill="blue" opacity="1" tooltip="enable"><title>(0.0847377,0)</title></rect><rect x="426" y="199.843" width="6" height="0.156617" stroke="black" stroke-width="1" fill="blue" opacity="1" tooltip="enable"><title>(0.0859482,2)</title></rect><rect x="432" y="199.687" width="6" height="0.313234" stroke="black" stroke-width="1" fill="blue" opacity="1" tooltip="enable"><title>(0.0871587,4)</title></rect><rect x="438" y="200" width="6" height="0" stroke="black" stroke-width="1" fill="blue" opacity="1" tooltip="enable"><title>(0.0883693,0)</title></rect><rect x="444" y="199.843" width="6" height="0.156617" stroke="black" stroke-width="1" fill="blue" opacity="1" tooltip="enable"><title>(0.0895798,2)</title></rect><rect x="450" y="200" width="6" height="0" stroke="black" stroke-width="1" fill="blue" opacity="1" tooltip="enable"><title>(0.0907903,0)</title></rect><rect x="456" y="200" width="6" height="0" stroke="black" stroke-width="1" fill="blue" opacity="1" tooltip="enable"><title>(0.0920009,0)</title></rect><rect x="462" y="199.687" width="6" height="0.313234" stroke="black" stroke-width="1" fill="blue" opacity="1" tooltip="enable"><title>(0.0932114,4)</title></rect><rect x="468" y="199.843" width="6" height="0.156617" stroke="black" stroke-width="1" fill="blue" opacity="1" tooltip="enable"><title>(0.094422,2)</title></rect><rect x="474" y="199.843" width="6" height="0.156617" stroke="black" stroke-width="1" fill="blue" opacity="1" tooltip="enable"><title>(0.0956325,2)</title></rect><rect x="480" y="199.843" width="6" height="0.156617" stroke="black" stroke-width="1" fill="blue" opacity="1" tooltip="enable"><title>(0.096843,2)</title></rect><rect x="486" y="199.687" width="6" height="0.313234" stroke="black" stroke-width="1" fill="blue" opacity="1" tooltip="enable"><title>(0.0980536,4)</title></rect><rect x="492" y="199.843" width="6" height="0.156617" stroke="black" stroke-width="1" fill="blue" opacity="1" tooltip="enable"><title>(0.0992641,2)</title></rect><rect x="498" y="199.843" width="6" height="0.156617" stroke="black" stroke-width="1" fill="blue" opacity="1" tooltip="enable"><title>(0.100475,2)</title></rect><rect x="504" y="199.843" width="6" height="0.156617" stroke="black" stroke-width="1" fill="blue" opacity="1" tooltip="enable"><title>(0.101685,2)</title></rect><rect x="510" y="200" width="6" height="0" stroke="black" stroke-width="1" fill="blue" opacity="1" tooltip="enable"><title>(0.102896,0)</title></rect><rect x="516" y="200" width="6" height="0" stroke="black" stroke-width="1" fill="blue" opacity="1" tooltip="enable"><title>(0.104106,0)</title></rect><rect x="522" y="200" width="6" height="0" stroke="black" stroke-width="1" fill="blue" opacity="1" tooltip="enable"><title>(0.105317,0)</title></rect><rect x="528" y="200" width="6" height="0" stroke="black" stroke-width="1" fill="blue" opacity="1" tooltip="enable"><title>(0.106527,0)</title></rect><rect x="534" y="200" width="6" height="0" stroke="black" stroke-width="1" fill="blue" opacity="1" tooltip="enable"><title>(0.107738,0)</title></rect><rect x="540" y="200" width="6" height="0" stroke="black" stroke-width="1" fill="blue" opacity="1" tooltip="enable"><title>(0.108948,0)</title></rect><rect x="546" y="200" width="6" height="0" stroke="black" stroke-width="1" fill="blue" opacity="1" tooltip="enable"><title>(0.110159,0)</title></rect><rect x="552" y="199.843" width="6" height="0.156617" stroke="black" stroke-width="1" fill="blue" opacity="1" tooltip="enable"><title>(0.111369,2)</title></rect><rect x="558" y="200" width="6" height="0" stroke="black" stroke-width="1" fill="blue" opacity="1" tooltip="enable"><title>(0.11258,0)</title></rect><rect x="564" y="200" width="6" height="0" stroke="black" stroke-width="1" fill="blue" opacity="1" tooltip="enable"><title>(0.113791,0)</title></rect><rect x="570" y="200" width="6" height="0" stroke="black" stroke-width="1" fill="blue" opacity="1" tooltip="enable"><title>(0.115001,0)</title></rect><rect x="576" y="200" width="6" height="0" stroke="black" stroke-width="1" fill="blue" opacity="1" tooltip="enable"><title>(0.116212,0)</title></rect><rect x="582" y="200" width="6" height="0" stroke="black" stroke-width="1" fill="blue" opacity="1" tooltip="enable"><title>(0.117422,0)</title></rect><rect x="588" y="200" width="6" height="0" stroke="black" stroke-width="1" fill="blue" opacity="1" tooltip="enable"><title>(0.118633,0)</title></rect><rect x="594" y="199.922" width="6" height="0.0783085" stroke="black" stroke-width="1" fill="blue" opacity="1" tooltip="enable"><title>(0.119843,1)</title></rect><text x="30" y="240" font-size="20" fill="black">0</text>
<text x="600" y="240" font-size="20" fill="black">0.121054</text>
<polyline points="0,220,600,220" stroke="black" stroke-width="1" fill="none" opacity="1"/>
<text x="720" y="20" font-size="20" fill="black">2554</text>
<text x="720" y="200" font-size="20" fill="black">0</text>
<polyline points="660,0,660,200" stroke="black" stroke-width="1" fill="none" opacity="1"/>
</svg>