<?xml version="1.0" standalone="yes"?>
<!-- SVG graphic -->
<svg xmlns='http://www.w3.org/2000/svg' xmlns:xlink='http://www.w3.org/1999/xlink'
 version="1.1">
<rect x="0" y="0" width="6" height="200" stroke="black" stroke-width="1" fill="blue" opacity="1" tooltip="enable"><title>(0,1371)</title></rect><rect x="6" y="13.5667" width="6" height="186.433" stroke="black" stroke-width="1" fill="blue" opacity="1" tooltip="enable"><title>(0.00126484,1278)</title></rect><rect x="12" y="71.6265" width="6" height="128.373" stroke="black" stroke-width="1" fill="blue" opacity="1" tooltip="enable"><title>(0.00252969,880)</title></rect><rect x="18" y="120.496" width="6" height="79.504" stroke="black" stroke-width="1" fill="blue" opacity="1" tooltip="enable"><title>(0.00379453,545)</title></rect><rect x="24" y="153.319" width="6" height="46.6813" stroke="black" stroke-width="1" fill="blue" opacity="1" tooltip="enable"><title>(0.00505937,320)</title></rect><rect x="30" y="161.05" width="6" height="38.9497" stroke="black" stroke-width="1" fill="blue" opacity="1" tooltip="enable"><title>(0.00632421,267)</title></rect><rect x="36" y="163.968" width="6" height="36.0321" stroke="black" stroke-width="1" fill="blue" opacity="1" tooltip="enable"><title>(0.00758906,247)</title></rect><rect x="42" y="175.201" width="6" height="24.7994" stroke="black" stroke-width="1" fill="blue" opacity="1" tooltip="enable"><title>(0.0088539,170)</title></rect><rect x="48" y="178.556" width="6" height="21.4442" stroke="black" stroke-width="1" fill="blue" opacity="1" tooltip="enable"><title>(0.0101187,147)</title></rect><rect x="54" y="181.182" width="6" height="18.8184" stroke="black" stroke-width="1" fill="blue" opacity="1" tooltip="enable"><title>(0.0113836,129)</title></rect><rect x="60" y="180.598" width="6" height="19.4019" stroke="black" stroke-width="1" fill="blue" opacity="1" tooltip="enable"><title>(0.0126484,133)</title></rect><rect x="66" y="178.848" width="6" height="21.1524" stroke="black" stroke-width="1" fill="blue" opacity="1" tooltip="enable"><title>(0.0139133,145)</title></rect><rect x="72" y="175.638" width="6" height="24.3618" stroke="black" stroke-width="1" fill="blue" opacity="1" tooltip="enable"><title>(0.0151781,167)</title></rect><rect x="78" y="180.452" width="6" height="19.5478" stroke="black" stroke-width="1" fill="blue" opacity="1" tooltip="enable"><title>(0.016443,134)</title></rect><rect x="84" y="184.245" width="6" height="15.7549" stroke="black" stroke-width="1" fill="blue" opacity="1" tooltip="enable"><title>(0.0177078,108)</title></rect><rect x="90" y="179.431" width="6" height="20.5689" stroke="black" stroke-width="1" fill="blue" opacity="1" tooltip="enable"><title>(0.0189726,141)</title></rect><rect x="96" y="186.433" width="6" height="13.5667" stroke="black" stroke-width="1" fill="blue" opacity="1" tooltip="enable"><title>(0.0202375,93)</title></rect><rect x="102" y="187.017" width="6" height="12.9832" stroke="black" stroke-width="1" fill="blue" opacity="1" tooltip="enable"><title>(0.0215023,89)</title></rect><rect x="108" y="187.163" width="6" height="12.8373" stroke="black" stroke-width="1" fill="blue" opacity="1" tooltip="enable"><title>(0.0227672,88)</title></rect><rect x="114" y="184.537" width="6" height="15.4632" stroke="black" stroke-width="1" fill="blue" opacity="1" tooltip="enable"><title>(0.024032,106)</title></rect><rect x="120" y="183.953" width="6" height="16.0467" stroke="black" stroke-width="1" fill="blue" opacity="1" tooltip="enable"><title>(0.0252969,110)</title></rect><rect x="126" y="187.454" width="6" height="12.5456" stroke="black" stroke-width="1" fill="blue" opacity="1" tooltip="enable"><title>(0.0265617,86)</title></rect><rect x="132" y="187.163" width="6" height="12.8373" stroke="black" stroke-width="1" fill="blue" opacity="1" tooltip="enable"><title>(0.0278265,88)</title></rect><rect x="138" y="187.309" width="6" height="12.6915" stroke="black" stroke-width="1" fill="blue" opacity="1" tooltip="enable"><title>(0.0290914,87)</title></rect><rect x="144" y="188.767" width="6" height="11.2327" stroke="black" stroke-width="1" fill="blue" opacity="1" tooltip="enable"><title>(0.0303562,77)</title></rect><rect x="150" y="192.852" width="6" height="7.14807" stroke="black" stroke-width="1" fill="blue" opacity="1" tooltip="enable"><title>(0.0316211,49)</title></rect><rect x="156" y="189.788" width="6" height="10.2115" stroke="black" stroke-width="1" fill="blue" opacity="1" tooltip="enable"><title>(0.0328859,70)</title></rect><rect x="162" y="187.892" width="6" height="12.108" stroke="black" stroke-width="1" fill="blue" opacity="1" tooltip="enable"><title>(0.0341508,83)</title></rect><rect x="168" y="193.581" width="6" height="6.41867" stroke="black" stroke-width="1" fill="blue" opacity="1" tooltip="enable"><title>(0.0354156,44)</title></rect><rect x="174" y="193.581" width="6" height="6.41867" stroke="black" stroke-width="1" fill="blue" opacity="1" tooltip="enable"><title>(0.0366804,44)</title></rect><rect x="180" y="193.581" width="6" height="6.41867" stroke="black" stroke-width="1" fill="blue" opacity="1" tooltip="enable"><title>(0.0379453,44)</title></rect><rect x="186" y="193.29" width="6" height="6.71043" stroke="black" stroke-width="1" fill="blue" opacity="1" tooltip="enable"><title>(0.0392101,46)</title></rect><rect x="192" y="197.082" width="6" height="2.91758" stroke="black" stroke-width="1" fill="blue" opacity="1" tooltip="enable"><title>(0.040475,20)</title></rect><rect x="198" y="191.831" width="6" height="8.16922" stroke="black" stroke-width="1" fill="blue" opacity="1" tooltip="enable"><title>(0.0417398,56)</title></rect><rect x="204" y="197.666" width="6" height="2.33406" stroke="black" stroke-width="1" fill="blue" opacity="1" tooltip="enable"><title>(0.0430047,16)</title></rect><rect x="210" y="197.374" width="6" height="2.62582" stroke="black" stroke-width="1" fill="blue" opacity="1" tooltip="enable"><title>(0.0442695,18)</title></rect><rect x="216" y="194.165" width="6" height="5.83516" stroke="black" stroke-width="1" fill="blue" opacity="1" tooltip="enable"><title>(0.0455343,40)</title></rect><rect x="222" y="196.791" width="6" height="3.20934" stroke="black" stroke-width="1" fill="blue" opacity="1" tooltip="enable"><title>(0.0467992,22)</title></rect><rect x="228" y="197.374" width="6" height="2.62582" stroke="black" stroke-width="1" fill="blue" opacity="1" tooltip="enable"><title>(0.048064,18)</title></rect><rect x="234" y="195.915" width="6" height="4.08461" stroke="black" stroke-width="1" fill="blue" opacity="1" tooltip="enable"><title>(0.0493289,28)</title></rect><rect x="240" y="197.374" width="6" height="2.62582" stroke="black" stroke-width="1" fill="blue" opacity="1" tooltip="enable"><title>(0.0505937,18)</title></rect><rect x="246" y="199.125" width="6" height="0.875274" stroke="black" stroke-width="1" fill="blue" opacity="1" tooltip="enable"><title>(0.0518586,6)</title></rect><rect x="252" y="197.374" width="6" height="2.62582" stroke="black" stroke-width="1" fill="blue" opacity="1" tooltip="enable"><title>(0.0531234,18)</title></rect><rect x="258" y="196.499" width="6" height="3.50109" stroke="black" stroke-width="1" fill="blue" opacity="1" tooltip="enable"><title>(0.0543882,24)</title></rect><rect x="264" y="198.249" width="6" height="1.75055" stroke="black" stroke-width="1" fill="blue" opacity="1" tooltip="enable"><title>(0.0556531,12)</title></rect><rect x="270" y="197.958" width="6" height="2.0423" stroke="black" stroke-width="1" fill="blue" opacity="1" tooltip="enable"><title>(0.0569179,14)</title></rect><rect x="276" y="196.791" width="6" height="3.20934" stroke="black" stroke-width="1" fill="blue" opacity="1" tooltip="enable"><title>(0.0581828,22)</title></rect><rect x="282" y="196.791" width="6" height="3.20934" stroke="black" stroke-width="1" fill="blue" opacity="1" tooltip="enable"><title>(0.0594476,22)</title></rect><rect x="288" y="198.249" width="6" height="1.75055" stroke="black" stroke-width="1" fill="blue" opacity="1" tooltip="enable"><title>(0.0607124,12)</title></rect><rect x="294" y="197.958" width="6" height="2.0423" stroke="black" stroke-width="1" fill="blue" opacity="1" tooltip="enable"><title>(0.0619773,14)</title></rect><rect x="300" y="198.249" width="6" height="1.75055" stroke="black" stroke-width="1" fill="blue" opacity="1" tooltip="enable"><title>(0.0632421,12)</title></rect><rect x="306" y="197.958" width="6" height="2.0423" stroke="black" stroke-width="1" fill="blue" opacity="1" tooltip="enable"><title>(0.064507,14)</title></rect><rect x="312" y="197.666" width="6" height="2.33406" stroke="black" stroke-width="1" fill="blue" opacity="1" tooltip="enable"><title>(0.0657718,16)</title></rect><rect x="318" y="197.958" width="6" height="2.0423" stroke="black" stroke-width="1" fill="blue" opacity="1" tooltip="enable"><title>(0.0670367,14)</title></rect><rect x="324" y="196.791" width="6" height="3.20934" stroke="black" stroke-width="1" fill="blue" opacity="1" tooltip="enable"><title>(0.0683015,22)</title></rect><rect x="330" y="197.958" width="6" height="2.0423" stroke="black" stroke-width="1" fill="blue" opacity="1" tooltip="enable"><title>(0.0695664,14)</title></rect><rect x="336" y="197.666" width="6" height="2.33406" stroke="black" stroke-width="1" fill="blue" opacity="1" tooltip="enable"><title>(0.0708312,16)</title></rect><rect x="342" y="196.937" width="6" height="3.06346" stroke="black" stroke-width="1" fill="blue" opacity="1" tooltip="enable"><title>(0.072096,21)</title></rect><rect x="348" y="199.271" width="6" height="0.729395" stroke="black" stroke-width="1" fill="blue" opacity="1" tooltip="enable"><title>(0.0733609,5)</title></rect><rect x="354" y="198.833" width="6" height="1.16703" stroke="black" stroke-width="1" fill="blue" opacity="1" tooltip="enable"><title>(0.0746257,8)</title></rect><rect x="360" y="197.958" width="6" height="2.0423" stroke="black" stroke-width="1" fill="blue" opacity="1" tooltip="enable"><title>(0.0758906,14)</title></rect><rect x="366" y="198.249" width="6" height="1.75055" stroke="black" stroke-width="1" fill="blue" opacity="1" tooltip="enable"><title>(0.0771554,12)</title></rect><rect x="372" y="199.125" width="6" height="0.875274" stroke="black" stroke-width="1" fill="blue" opacity="1" tooltip="enable"><title>(0.0784203,6)</title></rect><rect x="378" y="199.125" width="6" height="0.875274" stroke="black" stroke-width="1" fill="blue" opacity="1" tooltip="enable"><title>(0.0796851,6)</title></rect><rect x="384" y="199.125" width="6" height="0.875274" stroke="black" stroke-width="1" fill="blue" opacity="1" tooltip="enable"><title>(0.0809499,6)</title></rect><rect x="390" y="199.708" width="6" height="0.291758" stroke="black" stroke-width="1" fill="blue" opacity="1" tooltip="enable"><title>(0.0822148,2)</title></rect><rect x="396" y="199.416" width="6" height="0.583516" stroke="black" stroke-width="1" fill="blue" opacity="1" tooltip="enable"><title>(0.0834796,4)</title></rect><rect x="402" y="199.708" width="6" height="0.291758" stroke="black" stroke-width="1" fill="blue" opacity="1" tooltip="enable"><title>(0.0847445,2)</title></rect><rect x="408" y="198.833" width="6" height="1.16703" stroke="black" stroke-width="1" fill="blue" opacity="1" tooltip="enable"><title>(0.0860093,8)</title></rect><rect x="414" y="200" width="6" height="0" stroke="black" stroke-width="1" fill="blue" opacity="1" tooltip="enable"><title>(0.0872741,0)</title></rect><rect x="420" y="199.416" width="6" height="0.583516" stroke="black" stroke-width="1" fill="blue" opacity="1" tooltip="enable"><title>(0.088539,4)</title></rect><rect x="426" y="200" width="6" height="0" stroke="black" stroke-width="1" fill="blue" opacity="1" tooltip="enable"><title>(0.0898038,0)</title></rect><rect x="432" y="199.416" width="6" height="0.583516" stroke="black" stroke-width="1" fill="blue" opacity="1" tooltip="enable"><title>(0.0910687,4)</title></rect><rect x="438" y="199.416" width="6" height="0.583516" stroke="black" stroke-width="1" fill="blue" opacity="1" tooltip="enable"><title>(0.0923335,4)</title></rect><rect x="444" y="199.416" width="6" height="0.583516" stroke="black" stroke-width="1" fill="blue" opacity="1" tooltip="enable"><title>(0.0935984,4)</title></rect><rect x="450" y="200" width="6" height="0" stroke="black" stroke-width="1" fill="blue" opacity="1" tooltip="enable"><title>(0.0948632,0)</title></rect><rect x="456" y="200" width="6" height="0" stroke="black" stroke-width="1" fill="blue" opacity="1" tooltip="enable"><title>(0.096128,0)</title></rect><rect x="462" y="200" width="6" height="0" stroke="black" stroke-width="1" fill="blue" opacity="1" tooltip="enable"><title>(0.0973929,0)</title></rect><rect x="468" y="199.708" width="6" height="0.291758" stroke="black" stroke-width="1" fill="blue" opacity="1" tooltip="enable"><title>(0.0986577,2)</title></rect><rect x="474" y="199.708" width="6" height="0.291758" stroke="black" stroke-width="1" fill="blue" opacity="1" tooltip="enable"><title>(0.0999226,2)</title></rect><rect x="480" y="200" width="6" height="0" stroke="black" stroke-width="1" fill="blue" opacity="1" tooltip="enable"><title>(0.101187,0)</title></rect><rect x="486" y="199.708" width="6" height="0.291758" stroke="black" stroke-width="1" fill="blue" opacity="1" tooltip="enable"><title>(0.102452,2)</title></rect><rect x="492" y="200" width="6" height="0" stroke="black" stroke-width="1" fill="blue" opacity="1" tooltip="enable"><title>(0.103717,0)</title></rect><rect x="498" y="200" width="6" height="0" stroke="black" stroke-width="1" fill="blue" opacity="1" tooltip="enable"><title>(0.104982,0)</title></rect><rect x="504" y="199.708" width="6" height="0.291758" stroke="black" stroke-width="1" fill="blue" opacity="1" tooltip="enable"><title>(0.106247,2)</title></rect><rect x="510" y="200" width="6" height="0" stroke="black" stroke-width="1" fill="blue" opacity="1" tooltip="enable"><title>(0.107512,0)</title></rect><rect x="516" y="200" width="6" height="0" stroke="black" stroke-width="1" fill="blue" opacity="1" tooltip="enable"><title>(0.108776,0)</title></rect><rect x="522" y="200" width="6" height="0" stroke="black" stroke-width="1" fill="blue" opacity="1" tooltip="enable"><title>(0.110041,0)</title></rect><rect x="528" y="200" width="6" height="0" stroke="black" stroke-width="1" fill="blue" opacity="1" tooltip="enable"><title>(0.111306,0)</title></rect><rect x="534" y="200" width="6" height="0" stroke="black" stroke-width="1" fill="blue" opacity="1" tooltip="enable"><title>(0.112571,0)</title></rect><rect x="540" y="200" width="6" height="0" stroke="black" stroke-width="1" fill="blue" opacity="1" tooltip="enable"><title>(0.113836,0)</title></rect><rect x="546" y="200" width="6" height="0" stroke="black" stroke-width="1" fill="blue" opacity="1" tooltip="enable"><title>(0.115101,0)</title></rect><rect x="552" y="200" width="6" height="0" stroke="black" stroke-width="1" fill="blue" opacity="1" tooltip="enable"><title>(0.116366,0)</title></rect><rect x="558" y="200" width="6" height="0" stroke="black" stroke-width="1" fill="blue" opacity="1" tooltip="enable"><title>(0.11763,0)</title></rect><rect x="564" y="199.708" width="6" height="0.291758" stroke="black" stroke-width="1" fill="blue" opacity="1" tooltip="enable"><title>(0.118895,2)</title></rect><rect x="570" y="200" width="6" height="0" stroke="black" stroke-width="1" fill="blue" opacity="1" tooltip="enable"><title>(0.12016,0)</title></rect><rect x="576" y="200" width="6" height="0" stroke="black" stroke-width="1" fill="blue" opacity="1" tooltip="enable"><title>(0.121425,0)</title></rect><rect x="582" y="199.416" width="6" height="0.583516" stroke="black" stroke-width="1" fill="blue" opacity="1" tooltip="enable"><title>(0.12269,4)</title></rect><rect x="588" y="200" width="6" height="0" stroke="black" stroke-width="1" fill="blue" opacity="1" tooltip="enable"><title>(0.123955,0)</title></rect><rect x="594" y="199.854" width="6" height="0.145879" stroke="black" stroke-width="1" fill="blue" opacity="1" tooltip="enable"><title>(0.125219,1)</title></rect><text x="30" y="240" font-size="20" fill="black">0</text>
<text x="600" y="240" font-size="20" fill="black">0.126484</text>
<polyline points="0,220,600,220" stroke="black" stroke-width="1" fill="none" opacity="1"/>
<text x="720" y="20" font-size="20" fill="black">1371</text>
<text x="720" y="200" font-size="20" fill="black">0</text>
<polyline points="660,0,660,200" stroke="black" stroke-width="1" fill="none" opacity="1"/>
</svg>