<?xml version="1.0" standalone="yes"?>
<!-- SVG graphic -->
<svg xmlns='http://www.w3.org/2000/svg' xmlns:xlink='http://www.w3.org/1999/xlink'
 version="1.1">
<rect x="0" y="0" width="6" height="200" stroke="black" stroke-width="1" fill="blue" opacity="1" tooltip="enable"><title>(0,1120)</title></rect><rect x="6" y="5.71428" width="6" height="194.286" stroke="black" stroke-width="1" fill="blue" opacity="1" tooltip="enable"><title>(0.000923139,1088)</title></rect><rect x="12" y="33.2143" width="6" height="166.786" stroke="black" stroke-width="1" fill="blue" opacity="1" tooltip="enable"><title>(0.00184628,934)</title></rect><rect x="18" y="87.3214" width="6" height="112.679" stroke="black" stroke-width="1" fill="blue" opacity="1" tooltip="enable"><title>(0.00276942,631)</title></rect><rect x="24" y="119.286" width="6" height="80.7143" stroke="black" stroke-width="1" fill="blue" opacity="1" tooltip="enable"><title>(0.00369256,452)</title></rect><rect x="30" y="165.357" width="6" height="34.6429" stroke="black" stroke-width="1" fill="blue" opacity="1" tooltip="enable"><title>(0.0046157,194)</title></rect><rect x="36" y="177.5" width="6" height="22.5" stroke="black" stroke-width="1" fill="blue" opacity="1" tooltip="enable"><title>(0.00553883,126)</title></rect><rect x="42" y="186.607" width="6" height="13.3929" stroke="black" stroke-width="1" fill="blue" opacity="1" tooltip="enable"><title>(0.00646197,75)</title></rect><rect x="48" y="182.143" width="6" height="17.8571" stroke="black" stroke-width="1" fill="blue" opacity="1" tooltip="enable"><title>(0.00738511,100)</title></rect><rect x="54" y="181.429" width="6" height="18.5714" stroke="black" stroke-width="1" fill="blue" opacity="1" tooltip="enable"><title>(0.00830825,104)</title></rect><rect x="60" y="183.036" width="6" height="16.9643" stroke="black" stroke-width="1" fill="blue" opacity="1" tooltip="enable"><title>(0.00923139,95)</title></rect><rect x="66" y="183.75" width="6" height="16.25" stroke="black" stroke-width="1" fill="blue" opacity="1" tooltip="enable"><title>(0.0101545,91)</title></rect><rect x="72" y="183.214" width="6" height="16.7857" stroke="black" stroke-width="1" fill="blue" opacity="1" tooltip="enable"><title>(0.0110777,94)</title></rect><rect x="78" y="181.071" width="6" height="18.9286" stroke="black" stroke-width="1" fill="blue" opacity="1" tooltip="enable"><title>(0.0120008,106)</title></rect><rect x="84" y="183.929" width="6" height="16.0714" stroke="black" stroke-width="1" fill="blue" opacity="1" tooltip="enable"><title>(0.0129239,90)</title></rect><rect x="90" y="183.929" width="6" height="16.0714" stroke="black" stroke-width="1" fill="blue" opacity="1" tooltip="enable"><title>(0.0138471,90)</title></rect><rect x="96" y="185.893" width="6" height="14.1071" stroke="black" stroke-width="1" fill="blue" opacity="1" tooltip="enable"><title>(0.0147702,79)</title></rect><rect x="102" y="187.679" width="6" height="12.3214" stroke="black" stroke-width="1" fill="blue" opacity="1" tooltip="enable"><title>(0.0156934,69)</title></rect><rect x="108" y="187.5" width="6" height="12.5" stroke="black" stroke-width="1" fill="blue" opacity="1" tooltip="enable"><title>(0.0166165,70)</title></rect><rect x="114" y="184.464" width="6" height="15.5357" stroke="black" stroke-width="1" fill="blue" opacity="1" tooltip="enable"><title>(0.0175396,87)</title></rect><rect x="120" y="186.071" width="6" height="13.9286" stroke="black" stroke-width="1" fill="blue" opacity="1" tooltip="enable"><title>(0.0184628,78)</title></rect><rect x="126" y="187.321" width="6" height="12.6786" stroke="black" stroke-width="1" fill="blue" opacity="1" tooltip="enable"><title>(0.0193859,71)</title></rect><rect x="132" y="188.214" width="6" height="11.7857" stroke="black" stroke-width="1" fill="blue" opacity="1" tooltip="enable"><title>(0.0203091,66)</title></rect><rect x="138" y="185" width="6" height="15" stroke="black" stroke-width="1" fill="blue" opacity="1" tooltip="enable"><title>(0.0212322,84)</title></rect><rect x="144" y="186.071" width="6" height="13.9286" stroke="black" stroke-width="1" fill="blue" opacity="1" tooltip="enable"><title>(0.0221553,78)</title></rect><rect x="150" y="185.714" width="6" height="14.2857" stroke="black" stroke-width="1" fill="blue" opacity="1" tooltip="enable"><title>(0.0230785,80)</title></rect><rect x="156" y="181.964" width="6" height="18.0357" stroke="black" stroke-width="1" fill="blue" opacity="1" tooltip="enable"><title>(0.0240016,101)</title></rect><rect x="162" y="184.107" width="6" height="15.8929" stroke="black" stroke-width="1" fill="blue" opacity="1" tooltip="enable"><title>(0.0249248,89)</title></rect><rect x="168" y="185.536" width="6" height="14.4643" stroke="black" stroke-width="1" fill="blue" opacity="1" tooltip="enable"><title>(0.0258479,81)</title></rect><rect x="174" y="185.714" width="6" height="14.2857" stroke="black" stroke-width="1" fill="blue" opacity="1" tooltip="enable"><title>(0.026771,80)</title></rect><rect x="180" y="185.714" width="6" height="14.2857" stroke="black" stroke-width="1" fill="blue" opacity="1" tooltip="enable"><title>(0.0276942,80)</title></rect><rect x="186" y="185.536" width="6" height="14.4643" stroke="black" stroke-width="1" fill="blue" opacity="1" tooltip="enable"><title>(0.0286173,81)</title></rect><rect x="192" y="185" width="6" height="15" stroke="black" stroke-width="1" fill="blue" opacity="1" tooltip="enable"><title>(0.0295404,84)</title></rect><rect x="198" y="185" width="6" height="15" stroke="black" stroke-width="1" fill="blue" opacity="1" tooltip="enable"><title>(0.0304636,84)</title></rect><rect x="204" y="185.536" width="6" height="14.4643" stroke="black" stroke-width="1" fill="blue" opacity="1" tooltip="enable"><title>(0.0313867,81)</title></rect><rect x="210" y="184.464" width="6" height="15.5357" stroke="black" stroke-width="1" fill="blue" opacity="1" tooltip="enable"><title>(0.0323099,87)</title></rect><rect x="216" y="188.571" width="6" height="11.4286" stroke="black" stroke-width="1" fill="blue" opacity="1" tooltip="enable"><title>(0.033233,64)</title></rect><rect x="222" y="186.071" width="6" height="13.9286" stroke="black" stroke-width="1" fill="blue" opacity="1" tooltip="enable"><title>(0.0341561,78)</title></rect><rect x="228" y="189.107" width="6" height="10.8929" stroke="black" stroke-width="1" fill="blue" opacity="1" tooltip="enable"><title>(0.0350793,61)</title></rect><rect x="234" y="188.571" width="6" height="11.4286" stroke="black" stroke-width="1" fill="blue" opacity="1" tooltip="enable"><title>(0.0360024,64)</title></rect><rect x="240" y="185.536" width="6" height="14.4643" stroke="black" stroke-width="1" fill="blue" opacity="1" tooltip="enable"><title>(0.0369256,81)</title></rect><rect x="246" y="191.607" width="6" height="8.39286" stroke="black" stroke-width="1" fill="blue" opacity="1" tooltip="enable"><title>(0.0378487,47)</title></rect><rect x="252" y="190.714" width="6" height="9.28571" stroke="black" stroke-width="1" fill="blue" opacity="1" tooltip="enable"><title>(0.0387718,52)</title></rect><rect x="258" y="191.786" width="6" height="8.21429" stroke="black" stroke-width="1" fill="blue" opacity="1" tooltip="enable"><title>(0.039695,46)</title></rect><rect x="264" y="190.893" width="6" height="9.10714" stroke="black" stroke-width="1" fill="blue" opacity="1" tooltip="enable"><title>(0.0406181,51)</title></rect><rect x="270" y="193.929" width="6" height="6.07143" stroke="black" stroke-width="1" fill="blue" opacity="1" tooltip="enable"><title>(0.0415413,34)</title></rect><rect x="276" y="191.071" width="6" height="8.92857" stroke="black" stroke-width="1" fill="blue" opacity="1" tooltip="enable"><title>(0.0424644,50)</title></rect><rect x="282" y="191.786" width="6" height="8.21429" stroke="black" stroke-width="1" fill="blue" opacity="1" tooltip="enable"><title>(0.0433875,46)</title></rect><rect x="288" y="190.714" width="6" height="9.28571" stroke="black" stroke-width="1" fill="blue" opacity="1" tooltip="enable"><title>(0.0443107,52)</title></rect><rect x="294" y="195.357" width="6" height="4.64286" stroke="black" stroke-width="1" fill="blue" opacity="1" tooltip="enable"><title>(0.0452338,26)</title></rect><rect x="300" y="193.036" width="6" height="6.96429" stroke="black" stroke-width="1" fill="blue" opacity="1" tooltip="enable"><title>(0.046157,39)</title></rect><rect x="306" y="195.536" width="6" height="4.46429" stroke="black" stroke-width="1" fill="blue" opacity="1" tooltip="enable"><title>(0.0470801,25)</title></rect><rect x="312" y="196.071" width="6" height="3.92857" stroke="black" stroke-width="1" fill="blue" opacity="1" tooltip="enable"><title>(0.0480032,22)</title></rect><rect x="318" y="195.714" width="6" height="4.28571" stroke="black" stroke-width="1" fill="blue" opacity="1" tooltip="enable"><title>(0.0489264,24)</title></rect><rect x="324" y="196.25" width="6" height="3.75" stroke="black" stroke-width="1" fill="blue" opacity="1" tooltip="enable"><title>(0.0498495,21)</title></rect><rect x="330" y="196.964" width="6" height="3.03571" stroke="black" stroke-width="1" fill="blue" opacity="1" tooltip="enable"><title>(0.0507726,17)</title></rect><rect x="336" y="197.857" width="6" height="2.14286" stroke="black" stroke-width="1" fill="blue" opacity="1" tooltip="enable"><title>(0.0516958,12)</title></rect><rect x="342" y="198.214" width="6" height="1.78571" stroke="black" stroke-width="1" fill="blue" opacity="1" tooltip="enable"><title>(0.0526189,10)</title></rect><rect x="348" y="198.929" width="6" height="1.07143" stroke="black" stroke-width="1" fill="blue" opacity="1" tooltip="enable"><title>(0.0535421,6)</title></rect><rect x="354" y="198.929" width="6" height="1.07143" stroke="black" stroke-width="1" fill="blue" opacity="1" tooltip="enable"><title>(0.0544652,6)</title></rect><rect x="360" y="198.571" width="6" height="1.42857" stroke="black" stroke-width="1" fill="blue" opacity="1" tooltip="enable"><title>(0.0553883,8)</title></rect><rect x="366" y="198.929" width="6" height="1.07143" stroke="black" stroke-width="1" fill="blue" opacity="1" tooltip="enable"><title>(0.0563115,6)</title></rect><rect x="372" y="199.286" width="6" height="0.714286" stroke="black" stroke-width="1" fill="blue" opacity="1" tooltip="enable"><title>(0.0572346,4)</title></rect><rect x="378" y="199.286" width="6" height="0.714286" stroke="black" stroke-width="1" fill="blue" opacity="1" tooltip="enable"><title>(0.0581578,4)</title></rect><rect x="384" y="199.107" width="6" height="0.892857" stroke="black" stroke-width="1" fill="blue" opacity="1" tooltip="enable"><title>(0.0590809,5)</title></rect><rect x="390" y="199.464" width="6" height="0.535714" stroke="black" stroke-width="1" fill="blue" opacity="1" tooltip="enable"><title>(0.060004,3)</title></rect><rect x="396" y="199.107" width="6" height="0.892857" stroke="black" stroke-width="1" fill="blue" opacity="1" tooltip="enable"><title>(0.0609272,5)</title></rect><rect x="402" y="199.464" width="6" height="0.535714" stroke="black" stroke-width="1" fill="blue" opacity="1" tooltip="enable"><title>(0.0618503,3)</title></rect><rect x="408" y="199.643" width="6" height="0.357143" stroke="black" stroke-width="1" fill="blue" opacity="1" tooltip="enable"><title>(0.0627735,2)</title></rect><rect x="414" y="200" width="6" height="0" stroke="black" stroke-width="1" fill="blue" opacity="1" tooltip="enable"><title>(0.0636966,0)</title></rect><rect x="420" y="199.643" width="6" height="0.357143" stroke="black" stroke-width="1" fill="blue" opacity="1" tooltip="enable"><title>(0.0646197,2)</title></rect><rect x="426" y="199.643" width="6" height="0.357143" stroke="black" stroke-width="1" fill="blue" opacity="1" tooltip="enable"><title>(0.0655429,2)</title></rect><rect x="432" y="200" width="6" height="0" stroke="black" stroke-width="1" fill="blue" opacity="1" tooltip="enable"><title>(0.066466,0)</title></rect><rect x="438" y="200" width="6" height="0" stroke="black" stroke-width="1" fill="blue" opacity="1" tooltip="enable"><title>(0.0673891,0)</title></rect><rect x="444" y="199.643" width="6" height="0.357143" stroke="black" stroke-width="1" fill="blue" opacity="1" tooltip="enable"><title>(0.0683123,2)</title></rect><rect x="450" y="200" width="6" height="0" stroke="black" stroke-width="1" fill="blue" opacity="1" tooltip="enable"><title>(0.0692354,0)</title></rect><rect x="456" y="199.643" width="6" height="0.357143" stroke="black" stroke-width="1" fill="blue" opacity="1" tooltip="enable"><title>(0.0701586,2)</title></rect><rect x="462" y="200" width="6" height="0" stroke="black" stroke-width="1" fill="blue" opacity="1" tooltip="enable"><title>(0.0710817,0)</title></rect><rect x="468" y="199.286" width="6" height="0.714286" stroke="black" stroke-width="1" fill="blue" opacity="1" tooltip="enable"><title>(0.0720048,4)</title></rect><rect x="474" y="199.821" width="6" height="0.178571" stroke="black" stroke-width="1" fill="blue" opacity="1" tooltip="enable"><title>(0.072928,1)</title></rect><rect x="480" y="199.821" width="6" height="0.178571" stroke="black" stroke-width="1" fill="blue" opacity="1" tooltip="enable"><title>(0.0738511,1)</title></rect><rect x="486" y="200" width="6" height="0" stroke="black" stroke-width="1" fill="blue" opacity="1" tooltip="enable"><title>(0.0747743,0)</title></rect><rect x="492" y="200" width="6" height="0" stroke="black" stroke-width="1" fill="blue" opacity="1" tooltip="enable"><title>(0.0756974,0)</title></rect><rect x="498" y="200" width="6" height="0" stroke="black" stroke-width="1" fill="blue" opacity="1" tooltip="enable"><title>(0.0766205,0)</title></rect><rect x="504" y="199.643" width="6" height="0.357143" stroke="black" stroke-width="1" fill="blue" opacity="1" tooltip="enable"><title>(0.0775437,2)</title></rect><rect x="510" y="200" width="6" height="0" stroke="black" stroke-width="1" fill="blue" opacity="1" tooltip="enable"><title>(0.0784668,0)</title></rect><rect x="516" y="200" width="6" height="0" stroke="black" stroke-width="1" fill="blue" opacity="1" tooltip="enable"><title>(0.07939,0)</title></rect><rect x="522" y="200" width="6" height="0" stroke="black" stroke-width="1" fill="blue" opacity="1" tooltip="enable"><title>(0.0803131,0)</title></rect><rect x="528" y="200" width="6" height="0" stroke="black" stroke-width="1" fill="blue" opacity="1" tooltip="enable"><title>(0.0812362,0)</title></rect><rect x="534" y="200" width="6" height="0" stroke="black" stroke-width="1" fill="blue" opacity="1" tooltip="enable"><title>(0.0821594,0)</title></rect><rect x="540" y="199.643" width="6" height="0.357143" stroke="black" stroke-width="1" fill="blue" opacity="1" tooltip="enable"><title>(0.0830825,2)</title></rect><rect x="546" y="199.643" width="6" height="0.357143" stroke="black" stroke-width="1" fill="blue" opacity="1" tooltip="enable"><title>(0.0840057,2)</title></rect><rect x="552" y="200" width="6" height="0" stroke="black" stroke-width="1" fill="blue" opacity="1" tooltip="enable"><title>(0.0849288,0)</title></rect><rect x="558" y="199.643" width="6" height="0.357143" stroke="black" stroke-width="1" fill="blue" opacity="1" tooltip="enable"><title>(0.0858519,2)</title></rect><rect x="564" y="200" width="6" height="0" stroke="black" stroke-width="1" fill="blue" opacity="1" tooltip="enable"><title>(0.0867751,0)</title></rect><rect x="570" y="200" width="6" height="0" stroke="black" stroke-width="1" fill="blue" opacity="1" tooltip="enable"><title>(0.0876982,0)</title></rect><rect x="576" y="200" width="6" height="0" stroke="black" stroke-width="1" fill="blue" opacity="1" tooltip="enable"><title>(0.0886213,0)</title></rect><rect x="582" y="200" width="6" height="0" stroke="black" stroke-width="1" fill="blue" opacity="1" tooltip="enable"><title>(0.0895445,0)</title></rect><rect x="588" y="200" width="6" height="0" stroke="black" stroke-width="1" fill="blue" opacity="1" tooltip="enable"><title>(0.0904676,0)</title></rect><rect x="594" y="199.286" width="6" height="0.714286" stroke="black" stroke-width="1" fill="blue" opacity="1" tooltip="enable"><title>(0.0913908,4)</title></rect><text x="30" y="240" font-size="20" fill="black">0</text>
<text x="600" y="240" font-size="20" fill="black">0.0923139</text>
<polyline points="0,220,600,220" stroke="black" stroke-width="1" fill="none" opacity="1"/>
<text x="720" y="20" font-size="20" fill="black">1120</text>
<text x="720" y="200" font-size="20" fill="black">0</text>
<polyline points="660,0,660,200" stroke="black" stroke-width="1" fill="none" opacity="1"/>
</svg>