<?xml version="1.0" standalone="yes"?>
<!-- SVG graphic -->
<svg xmlns='http://www.w3.org/2000/svg' xmlns:xlink='http://www.w3.org/1999/xlink'
 version="1.1">
<rect x="0" y="0" width="6" height="200" stroke="black" stroke-width="1" fill="blue" opacity="1" tooltip="enable"><title>(0,2009)</title></rect><rect x="6" y="64.3106" width="6" height="135.689" stroke="black" stroke-width="1" fill="blue" opacity="1" tooltip="enable"><title>(0.00138733,1363)</title></rect><rect x="12" y="136.088" width="6" height="63.9124" stroke="black" stroke-width="1" fill="blue" opacity="1" tooltip="enable"><title>(0.00277467,642)</title></rect><rect x="18" y="160.378" width="6" height="39.6217" stroke="black" stroke-width="1" fill="blue" opacity="1" tooltip="enable"><title>(0.004162,398)</title></rect><rect x="24" y="176.207" width="6" height="23.7929" stroke="black" stroke-width="1" fill="blue" opacity="1" tooltip="enable"><title>(0.00554933,239)</title></rect><rect x="30" y="185.565" width="6" height="14.435" stroke="black" stroke-width="1" fill="blue" opacity="1" tooltip="enable"><title>(0.00693667,145)</title></rect><rect x="36" y="189.647" width="6" height="10.3534" stroke="black" stroke-width="1" fill="blue" opacity="1" tooltip="enable"><title>(0.008324,104)</title></rect><rect x="42" y="184.072" width="6" height="15.9283" stroke="black" stroke-width="1" fill="blue" opacity="1" tooltip="enable"><title>(0.00971134,160)</title></rect><rect x="48" y="187.058" width="6" height="12.9418" stroke="black" stroke-width="1" fill="blue" opacity="1" tooltip="enable"><title>(0.0110987,130)</title></rect><rect x="54" y="186.262" width="6" height="13.7382" stroke="black" stroke-width="1" fill="blue" opacity="1" tooltip="enable"><title>(0.012486,138)</title></rect><rect x="60" y="188.054" width="6" height="11.9462" stroke="black" stroke-width="1" fill="blue" opacity="1" tooltip="enable"><title>(0.0138733,120)</title></rect><rect x="66" y="185.266" width="6" height="14.7337" stroke="black" stroke-width="1" fill="blue" opacity="1" tooltip="enable"><title>(0.0152607,148)</title></rect><rect x="72" y="183.873" width="6" height="16.1274" stroke="black" stroke-width="1" fill="blue" opacity="1" tooltip="enable"><title>(0.016648,162)</title></rect><rect x="78" y="187.257" width="6" height="12.7427" stroke="black" stroke-width="1" fill="blue" opacity="1" tooltip="enable"><title>(0.0180353,128)</title></rect><rect x="84" y="188.651" width="6" height="11.3489" stroke="black" stroke-width="1" fill="blue" opacity="1" tooltip="enable"><title>(0.0194227,114)</title></rect><rect x="90" y="188.054" width="6" height="11.9462" stroke="black" stroke-width="1" fill="blue" opacity="1" tooltip="enable"><title>(0.02081,120)</title></rect><rect x="96" y="188.85" width="6" height="11.1498" stroke="black" stroke-width="1" fill="blue" opacity="1" tooltip="enable"><title>(0.0221973,112)</title></rect><rect x="102" y="187.257" width="6" height="12.7427" stroke="black" stroke-width="1" fill="blue" opacity="1" tooltip="enable"><title>(0.0235847,128)</title></rect><rect x="108" y="192.633" width="6" height="7.36685" stroke="black" stroke-width="1" fill="blue" opacity="1" tooltip="enable"><title>(0.024972,74)</title></rect><rect x="114" y="191.837" width="6" height="8.16327" stroke="black" stroke-width="1" fill="blue" opacity="1" tooltip="enable"><title>(0.0263593,82)</title></rect><rect x="120" y="191.439" width="6" height="8.56147" stroke="black" stroke-width="1" fill="blue" opacity="1" tooltip="enable"><title>(0.0277467,86)</title></rect><rect x="126" y="192.235" width="6" height="7.76506" stroke="black" stroke-width="1" fill="blue" opacity="1" tooltip="enable"><title>(0.029134,78)</title></rect><rect x="132" y="191.638" width="6" height="8.36237" stroke="black" stroke-width="1" fill="blue" opacity="1" tooltip="enable"><title>(0.0305213,84)</title></rect><rect x="138" y="194.226" width="6" height="5.77402" stroke="black" stroke-width="1" fill="blue" opacity="1" tooltip="enable"><title>(0.0319087,58)</title></rect><rect x="144" y="191.239" width="6" height="8.76058" stroke="black" stroke-width="1" fill="blue" opacity="1" tooltip="enable"><title>(0.033296,88)</title></rect><rect x="150" y="191.439" width="6" height="8.56147" stroke="black" stroke-width="1" fill="blue" opacity="1" tooltip="enable"><title>(0.0346833,86)</title></rect><rect x="156" y="193.23" width="6" height="6.76954" stroke="black" stroke-width="1" fill="blue" opacity="1" tooltip="enable"><title>(0.0360707,68)</title></rect><rect x="162" y="192.733" width="6" height="7.2673" stroke="black" stroke-width="1" fill="blue" opacity="1" tooltip="enable"><title>(0.037458,73)</title></rect><rect x="168" y="196.715" width="6" height="3.28522" stroke="black" stroke-width="1" fill="blue" opacity="1" tooltip="enable"><title>(0.0388453,33)</title></rect><rect x="174" y="194.425" width="6" height="5.57491" stroke="black" stroke-width="1" fill="blue" opacity="1" tooltip="enable"><title>(0.0402327,56)</title></rect><rect x="180" y="195.62" width="6" height="4.38029" stroke="black" stroke-width="1" fill="blue" opacity="1" tooltip="enable"><title>(0.04162,44)</title></rect><rect x="186" y="196.018" width="6" height="3.98208" stroke="black" stroke-width="1" fill="blue" opacity="1" tooltip="enable"><title>(0.0430073,40)</title></rect><rect x="192" y="196.615" width="6" height="3.38477" stroke="black" stroke-width="1" fill="blue" opacity="1" tooltip="enable"><title>(0.0443947,34)</title></rect><rect x="198" y="195.421" width="6" height="4.57939" stroke="black" stroke-width="1" fill="blue" opacity="1" tooltip="enable"><title>(0.045782,46)</title></rect><rect x="204" y="195.62" width="6" height="4.38029" stroke="black" stroke-width="1" fill="blue" opacity="1" tooltip="enable"><title>(0.0471693,44)</title></rect><rect x="210" y="195.62" width="6" height="4.38029" stroke="black" stroke-width="1" fill="blue" opacity="1" tooltip="enable"><title>(0.0485567,44)</title></rect><rect x="216" y="196.814" width="6" height="3.18566" stroke="black" stroke-width="1" fill="blue" opacity="1" tooltip="enable"><title>(0.049944,32)</title></rect><rect x="222" y="198.009" width="6" height="1.99104" stroke="black" stroke-width="1" fill="blue" opacity="1" tooltip="enable"><title>(0.0513313,20)</title></rect><rect x="228" y="196.615" width="6" height="3.38477" stroke="black" stroke-width="1" fill="blue" opacity="1" tooltip="enable"><title>(0.0527187,34)</title></rect><rect x="234" y="196.217" width="6" height="3.78298" stroke="black" stroke-width="1" fill="blue" opacity="1" tooltip="enable"><title>(0.054106,38)</title></rect><rect x="240" y="196.416" width="6" height="3.58387" stroke="black" stroke-width="1" fill="blue" opacity="1" tooltip="enable"><title>(0.0554933,36)</title></rect><rect x="246" y="196.814" width="6" height="3.18566" stroke="black" stroke-width="1" fill="blue" opacity="1" tooltip="enable"><title>(0.0568807,32)</title></rect><rect x="252" y="198.407" width="6" height="1.59283" stroke="black" stroke-width="1" fill="blue" opacity="1" tooltip="enable"><title>(0.058268,16)</title></rect><rect x="258" y="197.412" width="6" height="2.58835" stroke="black" stroke-width="1" fill="blue" opacity="1" tooltip="enable"><title>(0.0596553,26)</title></rect><rect x="264" y="197.81" width="6" height="2.19014" stroke="black" stroke-width="1" fill="blue" opacity="1" tooltip="enable"><title>(0.0610427,22)</title></rect><rect x="270" y="197.71" width="6" height="2.2897" stroke="black" stroke-width="1" fill="blue" opacity="1" tooltip="enable"><title>(0.06243,23)</title></rect><rect x="276" y="198.109" width="6" height="1.89149" stroke="black" stroke-width="1" fill="blue" opacity="1" tooltip="enable"><title>(0.0638173,19)</title></rect><rect x="282" y="197.81" width="6" height="2.19014" stroke="black" stroke-width="1" fill="blue" opacity="1" tooltip="enable"><title>(0.0652047,22)</title></rect><rect x="288" y="199.204" width="6" height="0.796416" stroke="black" stroke-width="1" fill="blue" opacity="1" tooltip="enable"><title>(0.066592,8)</title></rect><rect x="294" y="197.013" width="6" height="2.98656" stroke="black" stroke-width="1" fill="blue" opacity="1" tooltip="enable"><title>(0.0679793,30)</title></rect><rect x="300" y="198.208" width="6" height="1.79194" stroke="black" stroke-width="1" fill="blue" opacity="1" tooltip="enable"><title>(0.0693667,18)</title></rect><rect x="306" y="198.805" width="6" height="1.19462" stroke="black" stroke-width="1" fill="blue" opacity="1" tooltip="enable"><title>(0.070754,12)</title></rect><rect x="312" y="199.502" width="6" height="0.49776" stroke="black" stroke-width="1" fill="blue" opacity="1" tooltip="enable"><title>(0.0721413,5)</title></rect><rect x="318" y="199.104" width="6" height="0.895968" stroke="black" stroke-width="1" fill="blue" opacity="1" tooltip="enable"><title>(0.0735287,9)</title></rect><rect x="324" y="198.905" width="6" height="1.09507" stroke="black" stroke-width="1" fill="blue" opacity="1" tooltip="enable"><title>(0.074916,11)</title></rect><rect x="330" y="199.104" width="6" height="0.895968" stroke="black" stroke-width="1" fill="blue" opacity="1" tooltip="enable"><title>(0.0763033,9)</title></rect><rect x="336" y="197.81" width="6" height="2.19014" stroke="black" stroke-width="1" fill="blue" opacity="1" tooltip="enable"><title>(0.0776907,22)</title></rect><rect x="342" y="198.407" width="6" height="1.59283" stroke="black" stroke-width="1" fill="blue" opacity="1" tooltip="enable"><title>(0.079078,16)</title></rect><rect x="348" y="199.602" width="6" height="0.398208" stroke="black" stroke-width="1" fill="blue" opacity="1" tooltip="enable"><title>(0.0804653,4)</title></rect><rect x="354" y="199.602" width="6" height="0.398208" stroke="black" stroke-width="1" fill="blue" opacity="1" tooltip="enable"><title>(0.0818527,4)</title></rect><rect x="360" y="198.905" width="6" height="1.09507" stroke="black" stroke-width="1" fill="blue" opacity="1" tooltip="enable"><title>(0.08324,11)</title></rect><rect x="366" y="199.701" width="6" height="0.298656" stroke="black" stroke-width="1" fill="blue" opacity="1" tooltip="enable"><title>(0.0846274,3)</title></rect><rect x="372" y="199.004" width="6" height="0.99552" stroke="black" stroke-width="1" fill="blue" opacity="1" tooltip="enable"><title>(0.0860147,10)</title></rect><rect x="378" y="199.602" width="6" height="0.398208" stroke="black" stroke-width="1" fill="blue" opacity="1" tooltip="enable"><title>(0.087402,4)</title></rect><rect x="384" y="199.403" width="6" height="0.597312" stroke="black" stroke-width="1" fill="blue" opacity="1" tooltip="enable"><title>(0.0887893,6)</title></rect><rect x="390" y="200" width="6" height="0" stroke="black" stroke-width="1" fill="blue" opacity="1" tooltip="enable"><title>(0.0901767,0)</title></rect><rect x="396" y="200" width="6" height="0" stroke="black" stroke-width="1" fill="blue" opacity="1" tooltip="enable"><title>(0.091564,0)</title></rect><rect x="402" y="200" width="6" height="0" stroke="black" stroke-width="1" fill="blue" opacity="1" tooltip="enable"><title>(0.0929513,0)</title></rect><rect x="408" y="200" width="6" height="0" stroke="black" stroke-width="1" fill="blue" opacity="1" tooltip="enable"><title>(0.0943387,0)</title></rect><rect x="414" y="199.801" width="6" height="0.199104" stroke="black" stroke-width="1" fill="blue" opacity="1" tooltip="enable"><title>(0.095726,2)</title></rect><rect x="420" y="200" width="6" height="0" stroke="black" stroke-width="1" fill="blue" opacity="1" tooltip="enable"><title>(0.0971133,0)</title></rect><rect x="426" y="200" width="6" height="0" stroke="black" stroke-width="1" fill="blue" opacity="1" tooltip="enable"><title>(0.0985007,0)</title></rect><rect x="432" y="200" width="6" height="0" stroke="black" stroke-width="1" fill="blue" opacity="1" tooltip="enable"><title>(0.099888,0)</title></rect><rect x="438" y="199.602" width="6" height="0.398208" stroke="black" stroke-width="1" fill="blue" opacity="1" tooltip="enable"><title>(0.101275,4)</title></rect><rect x="444" y="200" width="6" height="0" stroke="black" stroke-width="1" fill="blue" opacity="1" tooltip="enable"><title>(0.102663,0)</title></rect><rect x="450" y="200" width="6" height="0" stroke="black" stroke-width="1" fill="blue" opacity="1" tooltip="enable"><title>(0.10405,0)</title></rect><rect x="456" y="200" width="6" height="0" stroke="black" stroke-width="1" fill="blue" opacity="1" tooltip="enable"><title>(0.105437,0)</title></rect><rect x="462" y="199.602" width="6" height="0.398208" stroke="black" stroke-width="1" fill="blue" opacity="1" tooltip="enable"><title>(0.106825,4)</title></rect><rect x="468" y="200" width="6" height="0" stroke="black" stroke-width="1" fill="blue" opacity="1" tooltip="enable"><title>(0.108212,0)</title></rect><rect x="474" y="200" width="6" height="0" stroke="black" stroke-width="1" fill="blue" opacity="1" tooltip="enable"><title>(0.109599,0)</title></rect><rect x="480" y="200" width="6" height="0" stroke="black" stroke-width="1" fill="blue" opacity="1" tooltip="enable"><title>(0.110987,0)</title></rect><rect x="486" y="200" width="6" height="0" stroke="black" stroke-width="1" fill="blue" opacity="1" tooltip="enable"><title>(0.112374,0)</title></rect><rect x="492" y="199.801" width="6" height="0.199104" stroke="black" stroke-width="1" fill="blue" opacity="1" tooltip="enable"><title>(0.113761,2)</title></rect><rect x="498" y="200" width="6" height="0" stroke="black" stroke-width="1" fill="blue" opacity="1" tooltip="enable"><title>(0.115149,0)</title></rect><rect x="504" y="200" width="6" height="0" stroke="black" stroke-width="1" fill="blue" opacity="1" tooltip="enable"><title>(0.116536,0)</title></rect><rect x="510" y="199.801" width="6" height="0.199104" stroke="black" stroke-width="1" fill="blue" opacity="1" tooltip="enable"><title>(0.117923,2)</title></rect><rect x="516" y="200" width="6" height="0" stroke="black" stroke-width="1" fill="blue" opacity="1" tooltip="enable"><title>(0.119311,0)</title></rect><rect x="522" y="200" width="6" height="0" stroke="black" stroke-width="1" fill="blue" opacity="1" tooltip="enable"><title>(0.120698,0)</title></rect><rect x="528" y="200" width="6" height="0" stroke="black" stroke-width="1" fill="blue" opacity="1" tooltip="enable"><title>(0.122085,0)</title></rect><rect x="534" y="200" width="6" height="0" stroke="black" stroke-width="1" fill="blue" opacity="1" tooltip="enable"><title>(0.123473,0)</title></rect><rect x="540" y="200" width="6" height="0" stroke="black" stroke-width="1" fill="blue" opacity="1" tooltip="enable"><title>(0.12486,0)</title></rect><rect x="546" y="200" width="6" height="0" stroke="black" stroke-width="1" fill="blue" opacity="1" tooltip="enable"><title>(0.126247,0)</title></rect><rect x="552" y="200" width="6" height="0" stroke="black" stroke-width="1" fill="blue" opacity="1" tooltip="enable"><title>(0.127635,0)</title></rect><rect x="558" y="200" width="6" height="0" stroke="black" stroke-width="1" fill="blue" opacity="1" tooltip="enable"><title>(0.129022,0)</title></rect><rect x="564" y="200" width="6" height="0" stroke="black" stroke-width="1" fill="blue" opacity="1" tooltip="enable"><title>(0.130409,0)</title></rect><rect x="570" y="200" width="6" height="0" stroke="black" stroke-width="1" fill="blue" opacity="1" tooltip="enable"><title>(0.131797,0)</title></rect><rect x="576" y="199.801" width="6" height="0.199104" stroke="black" stroke-width="1" fill="blue" opacity="1" tooltip="enable"><title>(0.133184,2)</title></rect><rect x="582" y="199.801" width="6" height="0.199104" stroke="black" stroke-width="1" fill="blue" opacity="1" tooltip="enable"><title>(0.134571,2)</title></rect><rect x="588" y="200" width="6" height="0" stroke="black" stroke-width="1" fill="blue" opacity="1" tooltip="enable"><title>(0.135959,0)</title></rect><rect x="594" y="199.9" width="6" height="0.099552" stroke="black" stroke-width="1" fill="blue" opacity="1" tooltip="enable"><title>(0.137346,1)</title></rect><text x="30" y="240" font-size="20" fill="black">0</text>
<text x="600" y="240" font-size="20" fill="black">0.138733</text>
<polyline points="0,220,600,220" stroke="black" stroke-width="1" fill="none" opacity="1"/>
<text x="720" y="20" font-size="20" fill="black">2009</text>
<text x="720" y="200" font-size="20" fill="black">0</text>
<polyline points="660,0,660,200" stroke="black" stroke-width="1" fill="none" opacity="1"/>
</svg>