<?xml version="1.0" standalone="yes"?>
<!-- SVG graphic -->
<svg xmlns='http://www.w3.org/2000/svg' xmlns:xlink='http://www.w3.org/1999/xlink'
 version="1.1">
<rect x="0" y="0" width="6" height="200" stroke="black" stroke-width="1" fill="blue" opacity="1" tooltip="enable"><title>(0,1056)</title></rect><rect x="6" y="10.0379" width="6" height="189.962" stroke="black" stroke-width="1" fill="blue" opacity="1" tooltip="enable"><title>(0.00119376,1003)</title></rect><rect x="12" y="46.2121" width="6" height="153.788" stroke="black" stroke-width="1" fill="blue" opacity="1" tooltip="enable"><title>(0.00238752,812)</title></rect><rect x="18" y="77.8409" width="6" height="122.159" stroke="black" stroke-width="1" fill="blue" opacity="1" tooltip="enable"><title>(0.00358127,645)</title></rect><rect x="24" y="90.3409" width="6" height="109.659" stroke="black" stroke-width="1" fill="blue" opacity="1" tooltip="enable"><title>(0.00477503,579)</title></rect><rect x="30" y="110.606" width="6" height="89.3939" stroke="black" stroke-width="1" fill="blue" opacity="1" tooltip="enable"><title>(0.00596879,472)</title></rect><rect x="36" y="132.955" width="6" height="67.0455" stroke="black" stroke-width="1" fill="blue" opacity="1" tooltip="enable"><title>(0.00716255,354)</title></rect><rect x="42" y="140.909" width="6" height="59.0909" stroke="black" stroke-width="1" fill="blue" opacity="1" tooltip="enable"><title>(0.00835631,312)</title></rect><rect x="48" y="143.939" width="6" height="56.0606" stroke="black" stroke-width="1" fill="blue" opacity="1" tooltip="enable"><title>(0.00955006,296)</title></rect><rect x="54" y="161.932" width="6" height="38.0682" stroke="black" stroke-width="1" fill="blue" opacity="1" tooltip="enable"><title>(0.0107438,201)</title></rect><rect x="60" y="168.371" width="6" height="31.6288" stroke="black" stroke-width="1" fill="blue" opacity="1" tooltip="enable"><title>(0.0119376,167)</title></rect><rect x="66" y="177.083" width="6" height="22.9167" stroke="black" stroke-width="1" fill="blue" opacity="1" tooltip="enable"><title>(0.0131313,121)</title></rect><rect x="72" y="172.917" width="6" height="27.0833" stroke="black" stroke-width="1" fill="blue" opacity="1" tooltip="enable"><title>(0.0143251,143)</title></rect><rect x="78" y="172.159" width="6" height="27.8409" stroke="black" stroke-width="1" fill="blue" opacity="1" tooltip="enable"><title>(0.0155189,147)</title></rect><rect x="84" y="176.515" width="6" height="23.4848" stroke="black" stroke-width="1" fill="blue" opacity="1" tooltip="enable"><title>(0.0167126,124)</title></rect><rect x="90" y="179.924" width="6" height="20.0758" stroke="black" stroke-width="1" fill="blue" opacity="1" tooltip="enable"><title>(0.0179064,106)</title></rect><rect x="96" y="183.712" width="6" height="16.2879" stroke="black" stroke-width="1" fill="blue" opacity="1" tooltip="enable"><title>(0.0191001,86)</title></rect><rect x="102" y="182.576" width="6" height="17.4242" stroke="black" stroke-width="1" fill="blue" opacity="1" tooltip="enable"><title>(0.0202939,92)</title></rect><rect x="108" y="181.439" width="6" height="18.5606" stroke="black" stroke-width="1" fill="blue" opacity="1" tooltip="enable"><title>(0.0214876,98)</title></rect><rect x="114" y="180.114" width="6" height="19.8864" stroke="black" stroke-width="1" fill="blue" opacity="1" tooltip="enable"><title>(0.0226814,105)</title></rect><rect x="120" y="186.174" width="6" height="13.8258" stroke="black" stroke-width="1" fill="blue" opacity="1" tooltip="enable"><title>(0.0238752,73)</title></rect><rect x="126" y="186.364" width="6" height="13.6364" stroke="black" stroke-width="1" fill="blue" opacity="1" tooltip="enable"><title>(0.0250689,72)</title></rect><rect x="132" y="185.227" width="6" height="14.7727" stroke="black" stroke-width="1" fill="blue" opacity="1" tooltip="enable"><title>(0.0262627,78)</title></rect><rect x="138" y="190.53" width="6" height="9.4697" stroke="black" stroke-width="1" fill="blue" opacity="1" tooltip="enable"><title>(0.0274564,50)</title></rect><rect x="144" y="184.47" width="6" height="15.5303" stroke="black" stroke-width="1" fill="blue" opacity="1" tooltip="enable"><title>(0.0286502,82)</title></rect><rect x="150" y="186.932" width="6" height="13.0682" stroke="black" stroke-width="1" fill="blue" opacity="1" tooltip="enable"><title>(0.0298439,69)</title></rect><rect x="156" y="190.909" width="6" height="9.09091" stroke="black" stroke-width="1" fill="blue" opacity="1" tooltip="enable"><title>(0.0310377,48)</title></rect><rect x="162" y="188.636" width="6" height="11.3636" stroke="black" stroke-width="1" fill="blue" opacity="1" tooltip="enable"><title>(0.0322315,60)</title></rect><rect x="168" y="191.098" width="6" height="8.90152" stroke="black" stroke-width="1" fill="blue" opacity="1" tooltip="enable"><title>(0.0334252,47)</title></rect><rect x="174" y="191.477" width="6" height="8.52273" stroke="black" stroke-width="1" fill="blue" opacity="1" tooltip="enable"><title>(0.034619,45)</title></rect><rect x="180" y="195.833" width="6" height="4.16667" stroke="black" stroke-width="1" fill="blue" opacity="1" tooltip="enable"><title>(0.0358127,22)</title></rect><rect x="186" y="192.045" width="6" height="7.95455" stroke="black" stroke-width="1" fill="blue" opacity="1" tooltip="enable"><title>(0.0370065,42)</title></rect><rect x="192" y="195.076" width="6" height="4.92424" stroke="black" stroke-width="1" fill="blue" opacity="1" tooltip="enable"><title>(0.0382003,26)</title></rect><rect x="198" y="193.371" width="6" height="6.62879" stroke="black" stroke-width="1" fill="blue" opacity="1" tooltip="enable"><title>(0.039394,35)</title></rect><rect x="204" y="193.561" width="6" height="6.43939" stroke="black" stroke-width="1" fill="blue" opacity="1" tooltip="enable"><title>(0.0405878,34)</title></rect><rect x="210" y="195.265" width="6" height="4.73485" stroke="black" stroke-width="1" fill="blue" opacity="1" tooltip="enable"><title>(0.0417815,25)</title></rect><rect x="216" y="194.508" width="6" height="5.49242" stroke="black" stroke-width="1" fill="blue" opacity="1" tooltip="enable"><title>(0.0429753,29)</title></rect><rect x="222" y="197.159" width="6" height="2.84091" stroke="black" stroke-width="1" fill="blue" opacity="1" tooltip="enable"><title>(0.044169,15)</title></rect><rect x="228" y="196.023" width="6" height="3.97727" stroke="black" stroke-width="1" fill="blue" opacity="1" tooltip="enable"><title>(0.0453628,21)</title></rect><rect x="234" y="196.023" width="6" height="3.97727" stroke="black" stroke-width="1" fill="blue" opacity="1" tooltip="enable"><title>(0.0465566,21)</title></rect><rect x="240" y="196.402" width="6" height="3.59848" stroke="black" stroke-width="1" fill="blue" opacity="1" tooltip="enable"><title>(0.0477503,19)</title></rect><rect x="246" y="195.455" width="6" height="4.54545" stroke="black" stroke-width="1" fill="blue" opacity="1" tooltip="enable"><title>(0.0489441,24)</title></rect><rect x="252" y="197.727" width="6" height="2.27273" stroke="black" stroke-width="1" fill="blue" opacity="1" tooltip="enable"><title>(0.0501378,12)</title></rect><rect x="258" y="199.242" width="6" height="0.757576" stroke="black" stroke-width="1" fill="blue" opacity="1" tooltip="enable"><title>(0.0513316,4)</title></rect><rect x="264" y="199.242" width="6" height="0.757576" stroke="black" stroke-width="1" fill="blue" opacity="1" tooltip="enable"><title>(0.0525253,4)</title></rect><rect x="270" y="198.864" width="6" height="1.13636" stroke="black" stroke-width="1" fill="blue" opacity="1" tooltip="enable"><title>(0.0537191,6)</title></rect><rect x="276" y="199.621" width="6" height="0.378788" stroke="black" stroke-width="1" fill="blue" opacity="1" tooltip="enable"><title>(0.0549129,2)</title></rect><rect x="282" y="197.538" width="6" height="2.46212" stroke="black" stroke-width="1" fill="blue" opacity="1" tooltip="enable"><title>(0.0561066,13)</title></rect><rect x="288" y="199.811" width="6" height="0.189394" stroke="black" stroke-width="1" fill="blue" opacity="1" tooltip="enable"><title>(0.0573004,1)</title></rect><rect x="294" y="199.621" width="6" height="0.378788" stroke="black" stroke-width="1" fill="blue" opacity="1" tooltip="enable"><title>(0.0584941,2)</title></rect><rect x="300" y="198.864" width="6" height="1.13636" stroke="black" stroke-width="1" fill="blue" opacity="1" tooltip="enable"><title>(0.0596879,6)</title></rect><rect x="306" y="198.864" width="6" height="1.13636" stroke="black" stroke-width="1" fill="blue" opacity="1" tooltip="enable"><title>(0.0608817,6)</title></rect><rect x="312" y="198.864" width="6" height="1.13636" stroke="black" stroke-width="1" fill="blue" opacity="1" tooltip="enable"><title>(0.0620754,6)</title></rect><rect x="318" y="200" width="6" height="0" stroke="black" stroke-width="1" fill="blue" opacity="1" tooltip="enable"><title>(0.0632692,0)</title></rect><rect x="324" y="198.864" width="6" height="1.13636" stroke="black" stroke-width="1" fill="blue" opacity="1" tooltip="enable"><title>(0.0644629,6)</title></rect><rect x="330" y="199.621" width="6" height="0.378788" stroke="black" stroke-width="1" fill="blue" opacity="1" tooltip="enable"><title>(0.0656567,2)</title></rect><rect x="336" y="200" width="6" height="0" stroke="black" stroke-width="1" fill="blue" opacity="1" tooltip="enable"><title>(0.0668504,0)</title></rect><rect x="342" y="200" width="6" height="0" stroke="black" stroke-width="1" fill="blue" opacity="1" tooltip="enable"><title>(0.0680442,0)</title></rect><rect x="348" y="199.621" width="6" height="0.378788" stroke="black" stroke-width="1" fill="blue" opacity="1" tooltip="enable"><title>(0.069238,2)</title></rect><rect x="354" y="200" width="6" height="0" stroke="black" stroke-width="1" fill="blue" opacity="1" tooltip="enable"><title>(0.0704317,0)</title></rect><rect x="360" y="199.053" width="6" height="0.94697" stroke="black" stroke-width="1" fill="blue" opacity="1" tooltip="enable"><title>(0.0716255,5)</title></rect><rect x="366" y="199.811" width="6" height="0.189394" stroke="black" stroke-width="1" fill="blue" opacity="1" tooltip="enable"><title>(0.0728192,1)</title></rect><rect x="372" y="200" width="6" height="0" stroke="black" stroke-width="1" fill="blue" opacity="1" tooltip="enable"><title>(0.074013,0)</title></rect><rect x="378" y="200" width="6" height="0" stroke="black" stroke-width="1" fill="blue" opacity="1" tooltip="enable"><title>(0.0752067,0)</title></rect><rect x="384" y="199.621" width="6" height="0.378788" stroke="black" stroke-width="1" fill="blue" opacity="1" tooltip="enable"><title>(0.0764005,2)</title></rect><rect x="390" y="198.864" width="6" height="1.13636" stroke="black" stroke-width="1" fill="blue" opacity="1" tooltip="enable"><title>(0.0775943,6)</title></rect><rect x="396" y="199.242" width="6" height="0.757576" stroke="black" stroke-width="1" fill="blue" opacity="1" tooltip="enable"><title>(0.078788,4)</title></rect><rect x="402" y="199.242" width="6" height="0.757576" stroke="black" stroke-width="1" fill="blue" opacity="1" tooltip="enable"><title>(0.0799818,4)</title></rect><rect x="408" y="197.917" width="6" height="2.08333" stroke="black" stroke-width="1" fill="blue" opacity="1" tooltip="enable"><title>(0.0811755,11)</title></rect><rect x="414" y="199.811" width="6" height="0.189394" stroke="black" stroke-width="1" fill="blue" opacity="1" tooltip="enable"><title>(0.0823693,1)</title></rect><rect x="420" y="199.242" width="6" height="0.757576" stroke="black" stroke-width="1" fill="blue" opacity="1" tooltip="enable"><title>(0.0835631,4)</title></rect><rect x="426" y="200" width="6" height="0" stroke="black" stroke-width="1" fill="blue" opacity="1" tooltip="enable"><title>(0.0847568,0)</title></rect><rect x="432" y="200" width="6" height="0" stroke="black" stroke-width="1" fill="blue" opacity="1" tooltip="enable"><title>(0.0859506,0)</title></rect><rect x="438" y="199.621" width="6" height="0.378788" stroke="black" stroke-width="1" fill="blue" opacity="1" tooltip="enable"><title>(0.0871443,2)</title></rect><rect x="444" y="200" width="6" height="0" stroke="black" stroke-width="1" fill="blue" opacity="1" tooltip="enable"><title>(0.0883381,0)</title></rect><rect x="450" y="200" width="6" height="0" stroke="black" stroke-width="1" fill="blue" opacity="1" tooltip="enable"><title>(0.0895318,0)</title></rect><rect x="456" y="200" width="6" height="0" stroke="black" stroke-width="1" fill="blue" opacity="1" tooltip="enable"><title>(0.0907256,0)</title></rect><rect x="462" y="199.621" width="6" height="0.378788" stroke="black" stroke-width="1" fill="blue" opacity="1" tooltip="enable"><title>(0.0919194,2)</title></rect><rect x="468" y="199.242" width="6" height="0.757576" stroke="black" stroke-width="1" fill="blue" opacity="1" tooltip="enable"><title>(0.0931131,4)</title></rect><rect x="474" y="199.621" width="6" height="0.378788" stroke="black" stroke-width="1" fill="blue" opacity="1" tooltip="enable"><title>(0.0943069,2)</title></rect><rect x="480" y="200" width="6" height="0" stroke="black" stroke-width="1" fill="blue" opacity="1" tooltip="enable"><title>(0.0955006,0)</title></rect><rect x="486" y="200" width="6" height="0" stroke="black" stroke-width="1" fill="blue" opacity="1" tooltip="enable"><title>(0.0966944,0)</title></rect><rect x="492" y="199.621" width="6" height="0.378788" stroke="black" stroke-width="1" fill="blue" opacity="1" tooltip="enable"><title>(0.0978881,2)</title></rect><rect x="498" y="200" width="6" height="0" stroke="black" stroke-width="1" fill="blue" opacity="1" tooltip="enable"><title>(0.0990819,0)</title></rect><rect x="504" y="199.621" width="6" height="0.378788" stroke="black" stroke-width="1" fill="blue" opacity="1" tooltip="enable"><title>(0.100276,2)</title></rect><rect x="510" y="199.621" width="6" height="0.378788" stroke="black" stroke-width="1" fill="blue" opacity="1" tooltip="enable"><title>(0.101469,2)</title></rect><rect x="516" y="200" width="6" height="0" stroke="black" stroke-width="1" fill="blue" opacity="1" tooltip="enable"><title>(0.102663,0)</title></rect><rect x="522" y="199.621" width="6" height="0.378788" stroke="black" stroke-width="1" fill="blue" opacity="1" tooltip="enable"><title>(0.103857,2)</title></rect><rect x="528" y="200" width="6" height="0" stroke="black" stroke-width="1" fill="blue" opacity="1" tooltip="enable"><title>(0.105051,0)</title></rect><rect x="534" y="199.811" width="6" height="0.189394" stroke="black" stroke-width="1" fill="blue" opacity="1" tooltip="enable"><title>(0.106244,1)</title></rect><rect x="540" y="199.432" width="6" height="0.568182" stroke="black" stroke-width="1" fill="blue" opacity="1" tooltip="enable"><title>(0.107438,3)</title></rect><rect x="546" y="199.621" width="6" height="0.378788" stroke="black" stroke-width="1" fill="blue" opacity="1" tooltip="enable"><title>(0.108632,2)</title></rect><rect x="552" y="199.621" width="6" height="0.378788" stroke="black" stroke-width="1" fill="blue" opacity="1" tooltip="enable"><title>(0.109826,2)</title></rect><rect x="558" y="200" width="6" height="0" stroke="black" stroke-width="1" fill="blue" opacity="1" tooltip="enable"><title>(0.111019,0)</title></rect><rect x="564" y="199.621" width="6" height="0.378788" stroke="black" stroke-width="1" fill="blue" opacity="1" tooltip="enable"><title>(0.112213,2)</title></rect><rect x="570" y="200" width="6" height="0" stroke="black" stroke-width="1" fill="blue" opacity="1" tooltip="enable"><title>(0.113407,0)</title></rect><rect x="576" y="199.621" width="6" height="0.378788" stroke="black" stroke-width="1" fill="blue" opacity="1" tooltip="enable"><title>(0.114601,2)</title></rect><rect x="582" y="199.621" width="6" height="0.378788" stroke="black" stroke-width="1" fill="blue" opacity="1" tooltip="enable"><title>(0.115795,2)</title></rect><rect x="588" y="200" width="6" height="0" stroke="black" stroke-width="1" fill="blue" opacity="1" tooltip="enable"><title>(0.116988,0)</title></rect><rect x="594" y="199.811" width="6" height="0.189394" stroke="black" stroke-width="1" fill="blue" opacity="1" tooltip="enable"><title>(0.118182,1)</title></rect><text x="30" y="240" font-size="20" fill="black">0</text>
<text x="600" y="240" font-size="20" fill="black">0.119376</text>
<polyline points="0,220,600,220" stroke="black" stroke-width="1" fill="none" opacity="1"/>
<text x="720" y="20" font-size="20" fill="black">1056</text>
<text x="720" y="200" font-size="20" fill="black">0</text>
<polyline points="660,0,660,200" stroke="black" stroke-width="1" fill="none" opacity="1"/>
</svg>