<?xml version="1.0" standalone="yes"?>
<!-- SVG graphic -->
<svg xmlns='http://www.w3.org/2000/svg' xmlns:xlink='http://www.w3.org/1999/xlink'
 version="1.1">
<rect x="0" y="0" width="6" height="200" stroke="black" stroke-width="1" fill="blue" opacity="1" tooltip="enable"><title>(0,1984)</title></rect><rect x="6" y="62.0968" width="6" height="137.903" stroke="black" stroke-width="1" fill="blue" opacity="1" tooltip="enable"><title>(0.00138789,1368)</title></rect><rect x="12" y="135.181" width="6" height="64.8186" stroke="black" stroke-width="1" fill="blue" opacity="1" tooltip="enable"><title>(0.00277577,643)</title></rect><rect x="18" y="158.77" width="6" height="41.2298" stroke="black" stroke-width="1" fill="blue" opacity="1" tooltip="enable"><title>(0.00416366,409)</title></rect><rect x="24" y="176.008" width="6" height="23.9919" stroke="black" stroke-width="1" fill="blue" opacity="1" tooltip="enable"><title>(0.00555154,238)</title></rect><rect x="30" y="184.879" width="6" height="15.121" stroke="black" stroke-width="1" fill="blue" opacity="1" tooltip="enable"><title>(0.00693943,150)</title></rect><rect x="36" y="188.71" width="6" height="11.2903" stroke="black" stroke-width="1" fill="blue" opacity="1" tooltip="enable"><title>(0.00832732,112)</title></rect><rect x="42" y="184.073" width="6" height="15.9274" stroke="black" stroke-width="1" fill="blue" opacity="1" tooltip="enable"><title>(0.0097152,158)</title></rect><rect x="48" y="187.198" width="6" height="12.8024" stroke="black" stroke-width="1" fill="blue" opacity="1" tooltip="enable"><title>(0.0111031,127)</title></rect><rect x="54" y="186.19" width="6" height="13.8105" stroke="black" stroke-width="1" fill="blue" opacity="1" tooltip="enable"><title>(0.012491,137)</title></rect><rect x="60" y="187.702" width="6" height="12.2984" stroke="black" stroke-width="1" fill="blue" opacity="1" tooltip="enable"><title>(0.0138789,122)</title></rect><rect x="66" y="184.677" width="6" height="15.3226" stroke="black" stroke-width="1" fill="blue" opacity="1" tooltip="enable"><title>(0.0152667,152)</title></rect><rect x="72" y="183.569" width="6" height="16.4315" stroke="black" stroke-width="1" fill="blue" opacity="1" tooltip="enable"><title>(0.0166546,163)</title></rect><rect x="78" y="187.601" width="6" height="12.3992" stroke="black" stroke-width="1" fill="blue" opacity="1" tooltip="enable"><title>(0.0180425,123)</title></rect><rect x="84" y="188.71" width="6" height="11.2903" stroke="black" stroke-width="1" fill="blue" opacity="1" tooltip="enable"><title>(0.0194304,112)</title></rect><rect x="90" y="187.399" width="6" height="12.6008" stroke="black" stroke-width="1" fill="blue" opacity="1" tooltip="enable"><title>(0.0208183,125)</title></rect><rect x="96" y="189.012" width="6" height="10.9879" stroke="black" stroke-width="1" fill="blue" opacity="1" tooltip="enable"><title>(0.0222062,109)</title></rect><rect x="102" y="186.694" width="6" height="13.3065" stroke="black" stroke-width="1" fill="blue" opacity="1" tooltip="enable"><title>(0.0235941,132)</title></rect><rect x="108" y="192.944" width="6" height="7.05645" stroke="black" stroke-width="1" fill="blue" opacity="1" tooltip="enable"><title>(0.024982,70)</title></rect><rect x="114" y="191.331" width="6" height="8.66935" stroke="black" stroke-width="1" fill="blue" opacity="1" tooltip="enable"><title>(0.0263698,86)</title></rect><rect x="120" y="191.532" width="6" height="8.46774" stroke="black" stroke-width="1" fill="blue" opacity="1" tooltip="enable"><title>(0.0277577,84)</title></rect><rect x="126" y="192.339" width="6" height="7.66129" stroke="black" stroke-width="1" fill="blue" opacity="1" tooltip="enable"><title>(0.0291456,76)</title></rect><rect x="132" y="191.532" width="6" height="8.46774" stroke="black" stroke-width="1" fill="blue" opacity="1" tooltip="enable"><title>(0.0305335,84)</title></rect><rect x="138" y="193.649" width="6" height="6.35081" stroke="black" stroke-width="1" fill="blue" opacity="1" tooltip="enable"><title>(0.0319214,63)</title></rect><rect x="144" y="191.431" width="6" height="8.56855" stroke="black" stroke-width="1" fill="blue" opacity="1" tooltip="enable"><title>(0.0333093,85)</title></rect><rect x="150" y="190.625" width="6" height="9.375" stroke="black" stroke-width="1" fill="blue" opacity="1" tooltip="enable"><title>(0.0346972,93)</title></rect><rect x="156" y="193.75" width="6" height="6.25" stroke="black" stroke-width="1" fill="blue" opacity="1" tooltip="enable"><title>(0.036085,62)</title></rect><rect x="162" y="193.044" width="6" height="6.95565" stroke="black" stroke-width="1" fill="blue" opacity="1" tooltip="enable"><title>(0.0374729,69)</title></rect><rect x="168" y="196.573" width="6" height="3.42742" stroke="black" stroke-width="1" fill="blue" opacity="1" tooltip="enable"><title>(0.0388608,34)</title></rect><rect x="174" y="194.355" width="6" height="5.64516" stroke="black" stroke-width="1" fill="blue" opacity="1" tooltip="enable"><title>(0.0402487,56)</title></rect><rect x="180" y="194.96" width="6" height="5.04032" stroke="black" stroke-width="1" fill="blue" opacity="1" tooltip="enable"><title>(0.0416366,50)</title></rect><rect x="186" y="196.573" width="6" height="3.42742" stroke="black" stroke-width="1" fill="blue" opacity="1" tooltip="enable"><title>(0.0430245,34)</title></rect><rect x="192" y="196.573" width="6" height="3.42742" stroke="black" stroke-width="1" fill="blue" opacity="1" tooltip="enable"><title>(0.0444124,34)</title></rect><rect x="198" y="195.363" width="6" height="4.6371" stroke="black" stroke-width="1" fill="blue" opacity="1" tooltip="enable"><title>(0.0458002,46)</title></rect><rect x="204" y="195.363" width="6" height="4.6371" stroke="black" stroke-width="1" fill="blue" opacity="1" tooltip="enable"><title>(0.0471881,46)</title></rect><rect x="210" y="195.968" width="6" height="4.03226" stroke="black" stroke-width="1" fill="blue" opacity="1" tooltip="enable"><title>(0.048576,40)</title></rect><rect x="216" y="196.774" width="6" height="3.22581" stroke="black" stroke-width="1" fill="blue" opacity="1" tooltip="enable"><title>(0.0499639,32)</title></rect><rect x="222" y="197.883" width="6" height="2.11694" stroke="black" stroke-width="1" fill="blue" opacity="1" tooltip="enable"><title>(0.0513518,21)</title></rect><rect x="228" y="196.573" width="6" height="3.42742" stroke="black" stroke-width="1" fill="blue" opacity="1" tooltip="enable"><title>(0.0527397,34)</title></rect><rect x="234" y="196.069" width="6" height="3.93145" stroke="black" stroke-width="1" fill="blue" opacity="1" tooltip="enable"><title>(0.0541276,39)</title></rect><rect x="240" y="196.371" width="6" height="3.62903" stroke="black" stroke-width="1" fill="blue" opacity="1" tooltip="enable"><title>(0.0555154,36)</title></rect><rect x="246" y="196.976" width="6" height="3.02419" stroke="black" stroke-width="1" fill="blue" opacity="1" tooltip="enable"><title>(0.0569033,30)</title></rect><rect x="252" y="198.185" width="6" height="1.81452" stroke="black" stroke-width="1" fill="blue" opacity="1" tooltip="enable"><title>(0.0582912,18)</title></rect><rect x="258" y="197.379" width="6" height="2.62097" stroke="black" stroke-width="1" fill="blue" opacity="1" tooltip="enable"><title>(0.0596791,26)</title></rect><rect x="264" y="197.782" width="6" height="2.21774" stroke="black" stroke-width="1" fill="blue" opacity="1" tooltip="enable"><title>(0.061067,22)</title></rect><rect x="270" y="197.782" width="6" height="2.21774" stroke="black" stroke-width="1" fill="blue" opacity="1" tooltip="enable"><title>(0.0624549,22)</title></rect><rect x="276" y="198.085" width="6" height="1.91532" stroke="black" stroke-width="1" fill="blue" opacity="1" tooltip="enable"><title>(0.0638428,19)</title></rect><rect x="282" y="197.681" width="6" height="2.31855" stroke="black" stroke-width="1" fill="blue" opacity="1" tooltip="enable"><title>(0.0652306,23)</title></rect><rect x="288" y="199.194" width="6" height="0.806452" stroke="black" stroke-width="1" fill="blue" opacity="1" tooltip="enable"><title>(0.0666185,8)</title></rect><rect x="294" y="196.976" width="6" height="3.02419" stroke="black" stroke-width="1" fill="blue" opacity="1" tooltip="enable"><title>(0.0680064,30)</title></rect><rect x="300" y="198.085" width="6" height="1.91532" stroke="black" stroke-width="1" fill="blue" opacity="1" tooltip="enable"><title>(0.0693943,19)</title></rect><rect x="306" y="198.891" width="6" height="1.10887" stroke="black" stroke-width="1" fill="blue" opacity="1" tooltip="enable"><title>(0.0707822,11)</title></rect><rect x="312" y="199.395" width="6" height="0.604839" stroke="black" stroke-width="1" fill="blue" opacity="1" tooltip="enable"><title>(0.0721701,6)</title></rect><rect x="318" y="199.194" width="6" height="0.806452" stroke="black" stroke-width="1" fill="blue" opacity="1" tooltip="enable"><title>(0.073558,8)</title></rect><rect x="324" y="198.79" width="6" height="1.20968" stroke="black" stroke-width="1" fill="blue" opacity="1" tooltip="enable"><title>(0.0749459,12)</title></rect><rect x="330" y="199.194" width="6" height="0.806452" stroke="black" stroke-width="1" fill="blue" opacity="1" tooltip="enable"><title>(0.0763337,8)</title></rect><rect x="336" y="197.782" width="6" height="2.21774" stroke="black" stroke-width="1" fill="blue" opacity="1" tooltip="enable"><title>(0.0777216,22)</title></rect><rect x="342" y="198.387" width="6" height="1.6129" stroke="black" stroke-width="1" fill="blue" opacity="1" tooltip="enable"><title>(0.0791095,16)</title></rect><rect x="348" y="199.597" width="6" height="0.403226" stroke="black" stroke-width="1" fill="blue" opacity="1" tooltip="enable"><title>(0.0804974,4)</title></rect><rect x="354" y="199.597" width="6" height="0.403226" stroke="black" stroke-width="1" fill="blue" opacity="1" tooltip="enable"><title>(0.0818853,4)</title></rect><rect x="360" y="198.891" width="6" height="1.10887" stroke="black" stroke-width="1" fill="blue" opacity="1" tooltip="enable"><title>(0.0832732,11)</title></rect><rect x="366" y="199.698" width="6" height="0.302419" stroke="black" stroke-width="1" fill="blue" opacity="1" tooltip="enable"><title>(0.0846611,3)</title></rect><rect x="372" y="198.992" width="6" height="1.00806" stroke="black" stroke-width="1" fill="blue" opacity="1" tooltip="enable"><title>(0.0860489,10)</title></rect><rect x="378" y="199.597" width="6" height="0.403226" stroke="black" stroke-width="1" fill="blue" opacity="1" tooltip="enable"><title>(0.0874368,4)</title></rect><rect x="384" y="199.395" width="6" height="0.604839" stroke="black" stroke-width="1" fill="blue" opacity="1" tooltip="enable"><title>(0.0888247,6)</title></rect><rect x="390" y="200" width="6" height="0" stroke="black" stroke-width="1" fill="blue" opacity="1" tooltip="enable"><title>(0.0902126,0)</title></rect><rect x="396" y="200" width="6" height="0" stroke="black" stroke-width="1" fill="blue" opacity="1" tooltip="enable"><title>(0.0916005,0)</title></rect><rect x="402" y="200" width="6" height="0" stroke="black" stroke-width="1" fill="blue" opacity="1" tooltip="enable"><title>(0.0929884,0)</title></rect><rect x="408" y="200" width="6" height="0" stroke="black" stroke-width="1" fill="blue" opacity="1" tooltip="enable"><title>(0.0943763,0)</title></rect><rect x="414" y="199.798" width="6" height="0.201613" stroke="black" stroke-width="1" fill="blue" opacity="1" tooltip="enable"><title>(0.0957641,2)</title></rect><rect x="420" y="200" width="6" height="0" stroke="black" stroke-width="1" fill="blue" opacity="1" tooltip="enable"><title>(0.097152,0)</title></rect><rect x="426" y="200" width="6" height="0" stroke="black" stroke-width="1" fill="blue" opacity="1" tooltip="enable"><title>(0.0985399,0)</title></rect><rect x="432" y="200" width="6" height="0" stroke="black" stroke-width="1" fill="blue" opacity="1" tooltip="enable"><title>(0.0999278,0)</title></rect><rect x="438" y="199.597" width="6" height="0.403226" stroke="black" stroke-width="1" fill="blue" opacity="1" tooltip="enable"><title>(0.101316,4)</title></rect><rect x="444" y="200" width="6" height="0" stroke="black" stroke-width="1" fill="blue" opacity="1" tooltip="enable"><title>(0.102704,0)</title></rect><rect x="450" y="200" width="6" height="0" stroke="black" stroke-width="1" fill="blue" opacity="1" tooltip="enable"><title>(0.104091,0)</title></rect><rect x="456" y="200" width="6" height="0" stroke="black" stroke-width="1" fill="blue" opacity="1" tooltip="enable"><title>(0.105479,0)</title></rect><rect x="462" y="199.597" width="6" height="0.403226" stroke="black" stroke-width="1" fill="blue" opacity="1" tooltip="enable"><title>(0.106867,4)</title></rect><rect x="468" y="200" width="6" height="0" stroke="black" stroke-width="1" fill="blue" opacity="1" tooltip="enable"><title>(0.108255,0)</title></rect><rect x="474" y="200" width="6" height="0" stroke="black" stroke-width="1" fill="blue" opacity="1" tooltip="enable"><title>(0.109643,0)</title></rect><rect x="480" y="200" width="6" height="0" stroke="black" stroke-width="1" fill="blue" opacity="1" tooltip="enable"><title>(0.111031,0)</title></rect><rect x="486" y="200" width="6" height="0" stroke="black" stroke-width="1" fill="blue" opacity="1" tooltip="enable"><title>(0.112419,0)</title></rect><rect x="492" y="199.798" width="6" height="0.201613" stroke="black" stroke-width="1" fill="blue" opacity="1" tooltip="enable"><title>(0.113807,2)</title></rect><rect x="498" y="200" width="6" height="0" stroke="black" stroke-width="1" fill="blue" opacity="1" tooltip="enable"><title>(0.115195,0)</title></rect><rect x="504" y="200" width="6" height="0" stroke="black" stroke-width="1" fill="blue" opacity="1" tooltip="enable"><title>(0.116582,0)</title></rect><rect x="510" y="199.798" width="6" height="0.201613" stroke="black" stroke-width="1" fill="blue" opacity="1" tooltip="enable"><title>(0.11797,2)</title></rect><rect x="516" y="200" width="6" height="0" stroke="black" stroke-width="1" fill="blue" opacity="1" tooltip="enable"><title>(0.119358,0)</title></rect><rect x="522" y="200" width="6" height="0" stroke="black" stroke-width="1" fill="blue" opacity="1" tooltip="enable"><title>(0.120746,0)</title></rect><rect x="528" y="200" width="6" height="0" stroke="black" stroke-width="1" fill="blue" opacity="1" tooltip="enable"><title>(0.122134,0)</title></rect><rect x="534" y="200" width="6" height="0" stroke="black" stroke-width="1" fill="blue" opacity="1" tooltip="enable"><title>(0.123522,0)</title></rect><rect x="540" y="200" width="6" height="0" stroke="black" stroke-width="1" fill="blue" opacity="1" tooltip="enable"><title>(0.12491,0)</title></rect><rect x="546" y="200" width="6" height="0" stroke="black" stroke-width="1" fill="blue" opacity="1" tooltip="enable"><title>(0.126298,0)</title></rect><rect x="552" y="200" width="6" height="0" stroke="black" stroke-width="1" fill="blue" opacity="1" tooltip="enable"><title>(0.127686,0)</title></rect><rect x="558" y="200" width="6" height="0" stroke="black" stroke-width="1" fill="blue" opacity="1" tooltip="enable"><title>(0.129073,0)</title></rect><rect x="564" y="200" width="6" height="0" stroke="black" stroke-width="1" fill="blue" opacity="1" tooltip="enable"><title>(0.130461,0)</title></rect><rect x="570" y="200" width="6" height="0" stroke="black" stroke-width="1" fill="blue" opacity="1" tooltip="enable"><title>(0.131849,0)</title></rect><rect x="576" y="199.798" width="6" height="0.201613" stroke="black" stroke-width="1" fill="blue" opacity="1" tooltip="enable"><title>(0.133237,2)</title></rect><rect x="582" y="199.798" width="6" height="0.201613" stroke="black" stroke-width="1" fill="blue" opacity="1" tooltip="enable"><title>(0.134625,2)</title></rect><rect x="588" y="200" width="6" height="0" stroke="black" stroke-width="1" fill="blue" opacity="1" tooltip="enable"><title>(0.136013,0)</title></rect><rect x="594" y="199.899" width="6" height="0.100806" stroke="black" stroke-width="1" fill="blue" opacity="1" tooltip="enable"><title>(0.137401,1)</title></rect><text x="30" y="240" font-size="20" fill="black">0</text>
<text x="600" y="240" font-size="20" fill="black">0.138789</text>
<polyline points="0,220,600,220" stroke="black" stroke-width="1" fill="none" opacity="1"/>
<text x="720" y="20" font-size="20" fill="black">1984</text>
<text x="720" y="200" font-size="20" fill="black">0</text>
<polyline points="660,0,660,200" stroke="black" stroke-width="1" fill="none" opacity="1"/>
</svg>