<?xml version="1.0" standalone="yes"?>
<!-- SVG graphic -->
<svg xmlns='http://www.w3.org/2000/svg' xmlns:xlink='http://www.w3.org/1999/xlink'
 version="1.1">
<rect x="0" y="0" width="6" height="200" stroke="black" stroke-width="1" fill="blue" opacity="1" tooltip="enable"><title>(0,1689)</title></rect><rect x="6" y="15.5121" width="6" height="184.488" stroke="black" stroke-width="1" fill="blue" opacity="1" tooltip="enable"><title>(0.00134301,1558)</title></rect><rect x="12" y="89.8757" width="6" height="110.124" stroke="black" stroke-width="1" fill="blue" opacity="1" tooltip="enable"><title>(0.00268603,930)</title></rect><rect x="18" y="157.726" width="6" height="42.2735" stroke="black" stroke-width="1" fill="blue" opacity="1" tooltip="enable"><title>(0.00402904,357)</title></rect><rect x="24" y="181.291" width="6" height="18.7093" stroke="black" stroke-width="1" fill="blue" opacity="1" tooltip="enable"><title>(0.00537205,158)</title></rect><rect x="30" y="186.027" width="6" height="13.9728" stroke="black" stroke-width="1" fill="blue" opacity="1" tooltip="enable"><title>(0.00671506,118)</title></rect><rect x="36" y="182.712" width="6" height="17.2883" stroke="black" stroke-width="1" fill="blue" opacity="1" tooltip="enable"><title>(0.00805808,146)</title></rect><rect x="42" y="179.396" width="6" height="20.6039" stroke="black" stroke-width="1" fill="blue" opacity="1" tooltip="enable"><title>(0.00940109,174)</title></rect><rect x="48" y="183.304" width="6" height="16.6963" stroke="black" stroke-width="1" fill="blue" opacity="1" tooltip="enable"><title>(0.0107441,141)</title></rect><rect x="54" y="184.014" width="6" height="15.9858" stroke="black" stroke-width="1" fill="blue" opacity="1" tooltip="enable"><title>(0.0120871,135)</title></rect><rect x="60" y="182.001" width="6" height="17.9988" stroke="black" stroke-width="1" fill="blue" opacity="1" tooltip="enable"><title>(0.0134301,152)</title></rect><rect x="66" y="183.777" width="6" height="16.2226" stroke="black" stroke-width="1" fill="blue" opacity="1" tooltip="enable"><title>(0.0147731,137)</title></rect><rect x="72" y="184.014" width="6" height="15.9858" stroke="black" stroke-width="1" fill="blue" opacity="1" tooltip="enable"><title>(0.0161162,135)</title></rect><rect x="78" y="185.317" width="6" height="14.6832" stroke="black" stroke-width="1" fill="blue" opacity="1" tooltip="enable"><title>(0.0174592,124)</title></rect><rect x="84" y="186.027" width="6" height="13.9728" stroke="black" stroke-width="1" fill="blue" opacity="1" tooltip="enable"><title>(0.0188022,118)</title></rect><rect x="90" y="184.606" width="6" height="15.3937" stroke="black" stroke-width="1" fill="blue" opacity="1" tooltip="enable"><title>(0.0201452,130)</title></rect><rect x="96" y="183.896" width="6" height="16.1042" stroke="black" stroke-width="1" fill="blue" opacity="1" tooltip="enable"><title>(0.0214882,136)</title></rect><rect x="102" y="181.646" width="6" height="18.3541" stroke="black" stroke-width="1" fill="blue" opacity="1" tooltip="enable"><title>(0.0228312,155)</title></rect><rect x="108" y="183.777" width="6" height="16.2226" stroke="black" stroke-width="1" fill="blue" opacity="1" tooltip="enable"><title>(0.0241742,137)</title></rect><rect x="114" y="185.554" width="6" height="14.4464" stroke="black" stroke-width="1" fill="blue" opacity="1" tooltip="enable"><title>(0.0255172,122)</title></rect><rect x="120" y="186.264" width="6" height="13.7359" stroke="black" stroke-width="1" fill="blue" opacity="1" tooltip="enable"><title>(0.0268603,116)</title></rect><rect x="126" y="187.685" width="6" height="12.315" stroke="black" stroke-width="1" fill="blue" opacity="1" tooltip="enable"><title>(0.0282033,104)</title></rect><rect x="132" y="186.619" width="6" height="13.3807" stroke="black" stroke-width="1" fill="blue" opacity="1" tooltip="enable"><title>(0.0295463,113)</title></rect><rect x="138" y="188.514" width="6" height="11.4861" stroke="black" stroke-width="1" fill="blue" opacity="1" tooltip="enable"><title>(0.0308893,97)</title></rect><rect x="144" y="187.803" width="6" height="12.1966" stroke="black" stroke-width="1" fill="blue" opacity="1" tooltip="enable"><title>(0.0322323,103)</title></rect><rect x="150" y="190.053" width="6" height="9.94671" stroke="black" stroke-width="1" fill="blue" opacity="1" tooltip="enable"><title>(0.0335753,84)</title></rect><rect x="156" y="188.869" width="6" height="11.1308" stroke="black" stroke-width="1" fill="blue" opacity="1" tooltip="enable"><title>(0.0349183,94)</title></rect><rect x="162" y="190.409" width="6" height="9.59147" stroke="black" stroke-width="1" fill="blue" opacity="1" tooltip="enable"><title>(0.0362613,81)</title></rect><rect x="168" y="193.843" width="6" height="6.15749" stroke="black" stroke-width="1" fill="blue" opacity="1" tooltip="enable"><title>(0.0376044,52)</title></rect><rect x="174" y="193.606" width="6" height="6.39432" stroke="black" stroke-width="1" fill="blue" opacity="1" tooltip="enable"><title>(0.0389474,54)</title></rect><rect x="180" y="193.843" width="6" height="6.15749" stroke="black" stroke-width="1" fill="blue" opacity="1" tooltip="enable"><title>(0.0402904,52)</title></rect><rect x="186" y="196.092" width="6" height="3.90764" stroke="black" stroke-width="1" fill="blue" opacity="1" tooltip="enable"><title>(0.0416334,33)</title></rect><rect x="192" y="195.145" width="6" height="4.85494" stroke="black" stroke-width="1" fill="blue" opacity="1" tooltip="enable"><title>(0.0429764,41)</title></rect><rect x="198" y="195.737" width="6" height="4.26288" stroke="black" stroke-width="1" fill="blue" opacity="1" tooltip="enable"><title>(0.0443194,36)</title></rect><rect x="204" y="195.974" width="6" height="4.02605" stroke="black" stroke-width="1" fill="blue" opacity="1" tooltip="enable"><title>(0.0456624,34)</title></rect><rect x="210" y="198.105" width="6" height="1.89461" stroke="black" stroke-width="1" fill="blue" opacity="1" tooltip="enable"><title>(0.0470054,16)</title></rect><rect x="216" y="197.75" width="6" height="2.24985" stroke="black" stroke-width="1" fill="blue" opacity="1" tooltip="enable"><title>(0.0483485,19)</title></rect><rect x="222" y="196.448" width="6" height="3.5524" stroke="black" stroke-width="1" fill="blue" opacity="1" tooltip="enable"><title>(0.0496915,30)</title></rect><rect x="228" y="197.276" width="6" height="2.72351" stroke="black" stroke-width="1" fill="blue" opacity="1" tooltip="enable"><title>(0.0510345,23)</title></rect><rect x="234" y="198.461" width="6" height="1.53937" stroke="black" stroke-width="1" fill="blue" opacity="1" tooltip="enable"><title>(0.0523775,13)</title></rect><rect x="240" y="199.408" width="6" height="0.592066" stroke="black" stroke-width="1" fill="blue" opacity="1" tooltip="enable"><title>(0.0537205,5)</title></rect><rect x="246" y="198.816" width="6" height="1.18413" stroke="black" stroke-width="1" fill="blue" opacity="1" tooltip="enable"><title>(0.0550635,10)</title></rect><rect x="252" y="199.29" width="6" height="0.71048" stroke="black" stroke-width="1" fill="blue" opacity="1" tooltip="enable"><title>(0.0564065,6)</title></rect><rect x="258" y="199.29" width="6" height="0.71048" stroke="black" stroke-width="1" fill="blue" opacity="1" tooltip="enable"><title>(0.0577495,6)</title></rect><rect x="264" y="199.29" width="6" height="0.71048" stroke="black" stroke-width="1" fill="blue" opacity="1" tooltip="enable"><title>(0.0590926,6)</title></rect><rect x="270" y="199.29" width="6" height="0.71048" stroke="black" stroke-width="1" fill="blue" opacity="1" tooltip="enable"><title>(0.0604356,6)</title></rect><rect x="276" y="199.763" width="6" height="0.236827" stroke="black" stroke-width="1" fill="blue" opacity="1" tooltip="enable"><title>(0.0617786,2)</title></rect><rect x="282" y="200" width="6" height="0" stroke="black" stroke-width="1" fill="blue" opacity="1" tooltip="enable"><title>(0.0631216,0)</title></rect><rect x="288" y="199.763" width="6" height="0.236827" stroke="black" stroke-width="1" fill="blue" opacity="1" tooltip="enable"><title>(0.0644646,2)</title></rect><rect x="294" y="200" width="6" height="0" stroke="black" stroke-width="1" fill="blue" opacity="1" tooltip="enable"><title>(0.0658076,0)</title></rect><rect x="300" y="200" width="6" height="0" stroke="black" stroke-width="1" fill="blue" opacity="1" tooltip="enable"><title>(0.0671506,0)</title></rect><rect x="306" y="200" width="6" height="0" stroke="black" stroke-width="1" fill="blue" opacity="1" tooltip="enable"><title>(0.0684936,0)</title></rect><rect x="312" y="200" width="6" height="0" stroke="black" stroke-width="1" fill="blue" opacity="1" tooltip="enable"><title>(0.0698367,0)</title></rect><rect x="318" y="200" width="6" height="0" stroke="black" stroke-width="1" fill="blue" opacity="1" tooltip="enable"><title>(0.0711797,0)</title></rect><rect x="324" y="200" width="6" height="0" stroke="black" stroke-width="1" fill="blue" opacity="1" tooltip="enable"><title>(0.0725227,0)</title></rect><rect x="330" y="200" width="6" height="0" stroke="black" stroke-width="1" fill="blue" opacity="1" tooltip="enable"><title>(0.0738657,0)</title></rect><rect x="336" y="200" width="6" height="0" stroke="black" stroke-width="1" fill="blue" opacity="1" tooltip="enable"><title>(0.0752087,0)</title></rect><rect x="342" y="200" width="6" height="0" stroke="black" stroke-width="1" fill="blue" opacity="1" tooltip="enable"><title>(0.0765517,0)</title></rect><rect x="348" y="200" width="6" height="0" stroke="black" stroke-width="1" fill="blue" opacity="1" tooltip="enable"><title>(0.0778947,0)</title></rect><rect x="354" y="200" width="6" height="0" stroke="black" stroke-width="1" fill="blue" opacity="1" tooltip="enable"><title>(0.0792377,0)</title></rect><rect x="360" y="200" width="6" height="0" stroke="black" stroke-width="1" fill="blue" opacity="1" tooltip="enable"><title>(0.0805808,0)</title></rect><rect x="366" y="200" width="6" height="0" stroke="black" stroke-width="1" fill="blue" opacity="1" tooltip="enable"><title>(0.0819238,0)</title></rect><rect x="372" y="200" width="6" height="0" stroke="black" stroke-width="1" fill="blue" opacity="1" tooltip="enable"><title>(0.0832668,0)</title></rect><rect x="378" y="200" width="6" height="0" stroke="black" stroke-width="1" fill="blue" opacity="1" tooltip="enable"><title>(0.0846098,0)</title></rect><rect x="384" y="200" width="6" height="0" stroke="black" stroke-width="1" fill="blue" opacity="1" tooltip="enable"><title>(0.0859528,0)</title></rect><rect x="390" y="200" width="6" height="0" stroke="black" stroke-width="1" fill="blue" opacity="1" tooltip="enable"><title>(0.0872958,0)</title></rect><rect x="396" y="200" width="6" height="0" stroke="black" stroke-width="1" fill="blue" opacity="1" tooltip="enable"><title>(0.0886388,0)</title></rect><rect x="402" y="200" width="6" height="0" stroke="black" stroke-width="1" fill="blue" opacity="1" tooltip="enable"><title>(0.0899818,0)</title></rect><rect x="408" y="200" width="6" height="0" stroke="black" stroke-width="1" fill="blue" opacity="1" tooltip="enable"><title>(0.0913249,0)</title></rect><rect x="414" y="200" width="6" height="0" stroke="black" stroke-width="1" fill="blue" opacity="1" tooltip="enable"><title>(0.0926679,0)</title></rect><rect x="420" y="200" width="6" height="0" stroke="black" stroke-width="1" fill="blue" opacity="1" tooltip="enable"><title>(0.0940109,0)</title></rect><rect x="426" y="200" width="6" height="0" stroke="black" stroke-width="1" fill="blue" opacity="1" tooltip="enable"><title>(0.0953539,0)</title></rect><rect x="432" y="200" width="6" height="0" stroke="black" stroke-width="1" fill="blue" opacity="1" tooltip="enable"><title>(0.0966969,0)</title></rect><rect x="438" y="200" width="6" height="0" stroke="black" stroke-width="1" fill="blue" opacity="1" tooltip="enable"><title>(0.0980399,0)</title></rect><rect x="444" y="200" width="6" height="0" stroke="black" stroke-width="1" fill="blue" opacity="1" tooltip="enable"><title>(0.0993829,0)</title></rect><rect x="450" y="200" width="6" height="0" stroke="black" stroke-width="1" fill="blue" opacity="1" tooltip="enable"><title>(0.100726,0)</title></rect><rect x="456" y="200" width="6" height="0" stroke="black" stroke-width="1" fill="blue" opacity="1" tooltip="enable"><title>(0.102069,0)</title></rect><rect x="462" y="200" width="6" height="0" stroke="black" stroke-width="1" fill="blue" opacity="1" tooltip="enable"><title>(0.103412,0)</title></rect><rect x="468" y="200" width="6" height="0" stroke="black" stroke-width="1" fill="blue" opacity="1" tooltip="enable"><title>(0.104755,0)</title></rect><rect x="474" y="200" width="6" height="0" stroke="black" stroke-width="1" fill="blue" opacity="1" tooltip="enable"><title>(0.106098,0)</title></rect><rect x="480" y="200" width="6" height="0" stroke="black" stroke-width="1" fill="blue" opacity="1" tooltip="enable"><title>(0.107441,0)</title></rect><rect x="486" y="199.763" width="6" height="0.236827" stroke="black" stroke-width="1" fill="blue" opacity="1" tooltip="enable"><title>(0.108784,2)</title></rect><rect x="492" y="200" width="6" height="0" stroke="black" stroke-width="1" fill="blue" opacity="1" tooltip="enable"><title>(0.110127,0)</title></rect><rect x="498" y="200" width="6" height="0" stroke="black" stroke-width="1" fill="blue" opacity="1" tooltip="enable"><title>(0.11147,0)</title></rect><rect x="504" y="200" width="6" height="0" stroke="black" stroke-width="1" fill="blue" opacity="1" tooltip="enable"><title>(0.112813,0)</title></rect><rect x="510" y="200" width="6" height="0" stroke="black" stroke-width="1" fill="blue" opacity="1" tooltip="enable"><title>(0.114156,0)</title></rect><rect x="516" y="200" width="6" height="0" stroke="black" stroke-width="1" fill="blue" opacity="1" tooltip="enable"><title>(0.115499,0)</title></rect><rect x="522" y="200" width="6" height="0" stroke="black" stroke-width="1" fill="blue" opacity="1" tooltip="enable"><title>(0.116842,0)</title></rect><rect x="528" y="200" width="6" height="0" stroke="black" stroke-width="1" fill="blue" opacity="1" tooltip="enable"><title>(0.118185,0)</title></rect><rect x="534" y="200" width="6" height="0" stroke="black" stroke-width="1" fill="blue" opacity="1" tooltip="enable"><title>(0.119528,0)</title></rect><rect x="540" y="199.882" width="6" height="0.118413" stroke="black" stroke-width="1" fill="blue" opacity="1" tooltip="enable"><title>(0.120871,1)</title></rect><rect x="546" y="199.882" width="6" height="0.118413" stroke="black" stroke-width="1" fill="blue" opacity="1" tooltip="enable"><title>(0.122214,1)</title></rect><rect x="552" y="200" width="6" height="0" stroke="black" stroke-width="1" fill="blue" opacity="1" tooltip="enable"><title>(0.123557,0)</title></rect><rect x="558" y="199.763" width="6" height="0.236827" stroke="black" stroke-width="1" fill="blue" opacity="1" tooltip="enable"><title>(0.1249,2)</title></rect><rect x="564" y="200" width="6" height="0" stroke="black" stroke-width="1" fill="blue" opacity="1" tooltip="enable"><title>(0.126243,0)</title></rect><rect x="570" y="200" width="6" height="0" stroke="black" stroke-width="1" fill="blue" opacity="1" tooltip="enable"><title>(0.127586,0)</title></rect><rect x="576" y="199.882" width="6" height="0.118413" stroke="black" stroke-width="1" fill="blue" opacity="1" tooltip="enable"><title>(0.128929,1)</title></rect><rect x="582" y="199.882" width="6" height="0.118413" stroke="black" stroke-width="1" fill="blue" opacity="1" tooltip="enable"><title>(0.130272,1)</title></rect><rect x="588" y="200" width="6" height="0" stroke="black" stroke-width="1" fill="blue" opacity="1" tooltip="enable"><title>(0.131615,0)</title></rect><rect x="594" y="199.882" width="6" height="0.118413" stroke="black" stroke-width="1" fill="blue" opacity="1" tooltip="enable"><title>(0.132958,1)</title></rect><text x="30" y="240" font-size="20" fill="black">0</text>
<text x="600" y="240" font-size="20" fill="black">0.134301</text>
<polyline points="0,220,600,220" stroke="black" stroke-width="1" fill="none" opacity="1"/>
<text x="720" y="20" font-size="20" fill="black">1689</text>
<text x="720" y="200" font-size="20" fill="black">0</text>
<polyline points="660,0,660,200" stroke="black" stroke-width="1" fill="none" opacity="1"/>
</svg>