<?xml version="1.0" standalone="yes"?>
<!-- SVG graphic -->
<svg xmlns='http://www.w3.org/2000/svg' xmlns:xlink='http://www.w3.org/1999/xlink'
 version="1.1">
<rect x="0" y="1.52588e-05" width="6" height="200" stroke="black" stroke-width="1" fill="blue" opacity="1" tooltip="enable"><title>(0,1396)</title></rect><rect x="6" y="31.8052" width="6" height="168.195" stroke="black" stroke-width="1" fill="blue" opacity="1" tooltip="enable"><title>(0.000827205,1174)</title></rect><rect x="12" y="90.8309" width="6" height="109.169" stroke="black" stroke-width="1" fill="blue" opacity="1" tooltip="enable"><title>(0.00165441,762)</title></rect><rect x="18" y="124.785" width="6" height="75.2149" stroke="black" stroke-width="1" fill="blue" opacity="1" tooltip="enable"><title>(0.00248161,525)</title></rect><rect x="24" y="136.246" width="6" height="63.7536" stroke="black" stroke-width="1" fill="blue" opacity="1" tooltip="enable"><title>(0.00330882,445)</title></rect><rect x="30" y="151.289" width="6" height="48.7106" stroke="black" stroke-width="1" fill="blue" opacity="1" tooltip="enable"><title>(0.00413602,340)</title></rect><rect x="36" y="163.897" width="6" height="36.1031" stroke="black" stroke-width="1" fill="blue" opacity="1" tooltip="enable"><title>(0.00496323,252)</title></rect><rect x="42" y="179.226" width="6" height="20.7736" stroke="black" stroke-width="1" fill="blue" opacity="1" tooltip="enable"><title>(0.00579043,145)</title></rect><rect x="48" y="183.524" width="6" height="16.4756" stroke="black" stroke-width="1" fill="blue" opacity="1" tooltip="enable"><title>(0.00661764,115)</title></rect><rect x="54" y="179.226" width="6" height="20.7736" stroke="black" stroke-width="1" fill="blue" opacity="1" tooltip="enable"><title>(0.00744484,145)</title></rect><rect x="60" y="184.097" width="6" height="15.9026" stroke="black" stroke-width="1" fill="blue" opacity="1" tooltip="enable"><title>(0.00827205,111)</title></rect><rect x="66" y="182.665" width="6" height="17.3352" stroke="black" stroke-width="1" fill="blue" opacity="1" tooltip="enable"><title>(0.00909925,121)</title></rect><rect x="72" y="181.232" width="6" height="18.7679" stroke="black" stroke-width="1" fill="blue" opacity="1" tooltip="enable"><title>(0.00992646,131)</title></rect><rect x="78" y="183.524" width="6" height="16.4756" stroke="black" stroke-width="1" fill="blue" opacity="1" tooltip="enable"><title>(0.0107537,115)</title></rect><rect x="84" y="188.109" width="6" height="11.8911" stroke="black" stroke-width="1" fill="blue" opacity="1" tooltip="enable"><title>(0.0115809,83)</title></rect><rect x="90" y="185.673" width="6" height="14.3266" stroke="black" stroke-width="1" fill="blue" opacity="1" tooltip="enable"><title>(0.0124081,100)</title></rect><rect x="96" y="184.957" width="6" height="15.043" stroke="black" stroke-width="1" fill="blue" opacity="1" tooltip="enable"><title>(0.0132353,105)</title></rect><rect x="102" y="186.676" width="6" height="13.3238" stroke="black" stroke-width="1" fill="blue" opacity="1" tooltip="enable"><title>(0.0140625,93)</title></rect><rect x="108" y="186.819" width="6" height="13.1805" stroke="black" stroke-width="1" fill="blue" opacity="1" tooltip="enable"><title>(0.0148897,92)</title></rect><rect x="114" y="188.682" width="6" height="11.3181" stroke="black" stroke-width="1" fill="blue" opacity="1" tooltip="enable"><title>(0.0157169,79)</title></rect><rect x="120" y="185.387" width="6" height="14.6132" stroke="black" stroke-width="1" fill="blue" opacity="1" tooltip="enable"><title>(0.0165441,102)</title></rect><rect x="126" y="190.831" width="6" height="9.16905" stroke="black" stroke-width="1" fill="blue" opacity="1" tooltip="enable"><title>(0.0173713,64)</title></rect><rect x="132" y="190.688" width="6" height="9.31232" stroke="black" stroke-width="1" fill="blue" opacity="1" tooltip="enable"><title>(0.0181985,65)</title></rect><rect x="138" y="191.261" width="6" height="8.73925" stroke="black" stroke-width="1" fill="blue" opacity="1" tooltip="enable"><title>(0.0190257,61)</title></rect><rect x="144" y="190.688" width="6" height="9.31232" stroke="black" stroke-width="1" fill="blue" opacity="1" tooltip="enable"><title>(0.0198529,65)</title></rect><rect x="150" y="194.842" width="6" height="5.15759" stroke="black" stroke-width="1" fill="blue" opacity="1" tooltip="enable"><title>(0.0206801,36)</title></rect><rect x="156" y="193.266" width="6" height="6.73352" stroke="black" stroke-width="1" fill="blue" opacity="1" tooltip="enable"><title>(0.0215073,47)</title></rect><rect x="162" y="192.837" width="6" height="7.16332" stroke="black" stroke-width="1" fill="blue" opacity="1" tooltip="enable"><title>(0.0223345,50)</title></rect><rect x="168" y="193.553" width="6" height="6.44699" stroke="black" stroke-width="1" fill="blue" opacity="1" tooltip="enable"><title>(0.0231617,45)</title></rect><rect x="174" y="193.123" width="6" height="6.87679" stroke="black" stroke-width="1" fill="blue" opacity="1" tooltip="enable"><title>(0.0239889,48)</title></rect><rect x="180" y="192.693" width="6" height="7.30659" stroke="black" stroke-width="1" fill="blue" opacity="1" tooltip="enable"><title>(0.0248161,51)</title></rect><rect x="186" y="193.983" width="6" height="6.01719" stroke="black" stroke-width="1" fill="blue" opacity="1" tooltip="enable"><title>(0.0256433,42)</title></rect><rect x="192" y="195.415" width="6" height="4.58453" stroke="black" stroke-width="1" fill="blue" opacity="1" tooltip="enable"><title>(0.0264705,32)</title></rect><rect x="198" y="193.41" width="6" height="6.59026" stroke="black" stroke-width="1" fill="blue" opacity="1" tooltip="enable"><title>(0.0272978,46)</title></rect><rect x="204" y="193.266" width="6" height="6.73352" stroke="black" stroke-width="1" fill="blue" opacity="1" tooltip="enable"><title>(0.028125,47)</title></rect><rect x="210" y="196.848" width="6" height="3.15186" stroke="black" stroke-width="1" fill="blue" opacity="1" tooltip="enable"><title>(0.0289522,22)</title></rect><rect x="216" y="195.415" width="6" height="4.58453" stroke="black" stroke-width="1" fill="blue" opacity="1" tooltip="enable"><title>(0.0297794,32)</title></rect><rect x="222" y="197.135" width="6" height="2.86533" stroke="black" stroke-width="1" fill="blue" opacity="1" tooltip="enable"><title>(0.0306066,20)</title></rect><rect x="228" y="195.559" width="6" height="4.44126" stroke="black" stroke-width="1" fill="blue" opacity="1" tooltip="enable"><title>(0.0314338,31)</title></rect><rect x="234" y="196.418" width="6" height="3.58166" stroke="black" stroke-width="1" fill="blue" opacity="1" tooltip="enable"><title>(0.032261,25)</title></rect><rect x="240" y="196.418" width="6" height="3.58166" stroke="black" stroke-width="1" fill="blue" opacity="1" tooltip="enable"><title>(0.0330882,25)</title></rect><rect x="246" y="197.278" width="6" height="2.72206" stroke="black" stroke-width="1" fill="blue" opacity="1" tooltip="enable"><title>(0.0339154,19)</title></rect><rect x="252" y="195.272" width="6" height="4.72779" stroke="black" stroke-width="1" fill="blue" opacity="1" tooltip="enable"><title>(0.0347426,33)</title></rect><rect x="258" y="195.272" width="6" height="4.72779" stroke="black" stroke-width="1" fill="blue" opacity="1" tooltip="enable"><title>(0.0355698,33)</title></rect><rect x="264" y="194.413" width="6" height="5.58739" stroke="black" stroke-width="1" fill="blue" opacity="1" tooltip="enable"><title>(0.036397,39)</title></rect><rect x="270" y="194.986" width="6" height="5.01433" stroke="black" stroke-width="1" fill="blue" opacity="1" tooltip="enable"><title>(0.0372242,35)</title></rect><rect x="276" y="195.129" width="6" height="4.87106" stroke="black" stroke-width="1" fill="blue" opacity="1" tooltip="enable"><title>(0.0380514,34)</title></rect><rect x="282" y="196.418" width="6" height="3.58166" stroke="black" stroke-width="1" fill="blue" opacity="1" tooltip="enable"><title>(0.0388786,25)</title></rect><rect x="288" y="194.699" width="6" height="5.30086" stroke="black" stroke-width="1" fill="blue" opacity="1" tooltip="enable"><title>(0.0397058,37)</title></rect><rect x="294" y="195.989" width="6" height="4.01146" stroke="black" stroke-width="1" fill="blue" opacity="1" tooltip="enable"><title>(0.040533,28)</title></rect><rect x="300" y="198.567" width="6" height="1.43266" stroke="black" stroke-width="1" fill="blue" opacity="1" tooltip="enable"><title>(0.0413602,10)</title></rect><rect x="306" y="194.842" width="6" height="5.15759" stroke="black" stroke-width="1" fill="blue" opacity="1" tooltip="enable"><title>(0.0421874,36)</title></rect><rect x="312" y="195.702" width="6" height="4.29799" stroke="black" stroke-width="1" fill="blue" opacity="1" tooltip="enable"><title>(0.0430146,30)</title></rect><rect x="318" y="196.275" width="6" height="3.72493" stroke="black" stroke-width="1" fill="blue" opacity="1" tooltip="enable"><title>(0.0438418,26)</title></rect><rect x="324" y="198.997" width="6" height="1.00287" stroke="black" stroke-width="1" fill="blue" opacity="1" tooltip="enable"><title>(0.0446691,7)</title></rect><rect x="330" y="196.132" width="6" height="3.86819" stroke="black" stroke-width="1" fill="blue" opacity="1" tooltip="enable"><title>(0.0454963,27)</title></rect><rect x="336" y="197.135" width="6" height="2.86533" stroke="black" stroke-width="1" fill="blue" opacity="1" tooltip="enable"><title>(0.0463235,20)</title></rect><rect x="342" y="196.275" width="6" height="3.72493" stroke="black" stroke-width="1" fill="blue" opacity="1" tooltip="enable"><title>(0.0471507,26)</title></rect><rect x="348" y="197.135" width="6" height="2.86533" stroke="black" stroke-width="1" fill="blue" opacity="1" tooltip="enable"><title>(0.0479779,20)</title></rect><rect x="354" y="198.424" width="6" height="1.57593" stroke="black" stroke-width="1" fill="blue" opacity="1" tooltip="enable"><title>(0.0488051,11)</title></rect><rect x="360" y="196.991" width="6" height="3.0086" stroke="black" stroke-width="1" fill="blue" opacity="1" tooltip="enable"><title>(0.0496323,21)</title></rect><rect x="366" y="199.14" width="6" height="0.859599" stroke="black" stroke-width="1" fill="blue" opacity="1" tooltip="enable"><title>(0.0504595,6)</title></rect><rect x="372" y="196.275" width="6" height="3.72493" stroke="black" stroke-width="1" fill="blue" opacity="1" tooltip="enable"><title>(0.0512867,26)</title></rect><rect x="378" y="197.708" width="6" height="2.29226" stroke="black" stroke-width="1" fill="blue" opacity="1" tooltip="enable"><title>(0.0521139,16)</title></rect><rect x="384" y="198.281" width="6" height="1.7192" stroke="black" stroke-width="1" fill="blue" opacity="1" tooltip="enable"><title>(0.0529411,12)</title></rect><rect x="390" y="197.994" width="6" height="2.00573" stroke="black" stroke-width="1" fill="blue" opacity="1" tooltip="enable"><title>(0.0537683,14)</title></rect><rect x="396" y="198.281" width="6" height="1.7192" stroke="black" stroke-width="1" fill="blue" opacity="1" tooltip="enable"><title>(0.0545955,12)</title></rect><rect x="402" y="197.708" width="6" height="2.29226" stroke="black" stroke-width="1" fill="blue" opacity="1" tooltip="enable"><title>(0.0554227,16)</title></rect><rect x="408" y="198.567" width="6" height="1.43266" stroke="black" stroke-width="1" fill="blue" opacity="1" tooltip="enable"><title>(0.0562499,10)</title></rect><rect x="414" y="197.851" width="6" height="2.149" stroke="black" stroke-width="1" fill="blue" opacity="1" tooltip="enable"><title>(0.0570771,15)</title></rect><rect x="420" y="199.284" width="6" height="0.716332" stroke="black" stroke-width="1" fill="blue" opacity="1" tooltip="enable"><title>(0.0579043,5)</title></rect><rect x="426" y="198.854" width="6" height="1.14613" stroke="black" stroke-width="1" fill="blue" opacity="1" tooltip="enable"><title>(0.0587315,8)</title></rect><rect x="432" y="199.713" width="6" height="0.286533" stroke="black" stroke-width="1" fill="blue" opacity="1" tooltip="enable"><title>(0.0595587,2)</title></rect><rect x="438" y="197.851" width="6" height="2.149" stroke="black" stroke-width="1" fill="blue" opacity="1" tooltip="enable"><title>(0.0603859,15)</title></rect><rect x="444" y="199.57" width="6" height="0.429799" stroke="black" stroke-width="1" fill="blue" opacity="1" tooltip="enable"><title>(0.0612131,3)</title></rect><rect x="450" y="200" width="6" height="0" stroke="black" stroke-width="1" fill="blue" opacity="1" tooltip="enable"><title>(0.0620404,0)</title></rect><rect x="456" y="199.14" width="6" height="0.859599" stroke="black" stroke-width="1" fill="blue" opacity="1" tooltip="enable"><title>(0.0628676,6)</title></rect><rect x="462" y="199.14" width="6" height="0.859599" stroke="black" stroke-width="1" fill="blue" opacity="1" tooltip="enable"><title>(0.0636948,6)</title></rect><rect x="468" y="199.427" width="6" height="0.573066" stroke="black" stroke-width="1" fill="blue" opacity="1" tooltip="enable"><title>(0.064522,4)</title></rect><rect x="474" y="200" width="6" height="0" stroke="black" stroke-width="1" fill="blue" opacity="1" tooltip="enable"><title>(0.0653492,0)</title></rect><rect x="480" y="199.427" width="6" height="0.573066" stroke="black" stroke-width="1" fill="blue" opacity="1" tooltip="enable"><title>(0.0661764,4)</title></rect><rect x="486" y="199.857" width="6" height="0.143266" stroke="black" stroke-width="1" fill="blue" opacity="1" tooltip="enable"><title>(0.0670036,1)</title></rect><rect x="492" y="199.857" width="6" height="0.143266" stroke="black" stroke-width="1" fill="blue" opacity="1" tooltip="enable"><title>(0.0678308,1)</title></rect><rect x="498" y="199.713" width="6" height="0.286533" stroke="black" stroke-width="1" fill="blue" opacity="1" tooltip="enable"><title>(0.068658,2)</title></rect><rect x="504" y="199.713" width="6" height="0.286533" stroke="black" stroke-width="1" fill="blue" opacity="1" tooltip="enable"><title>(0.0694852,2)</title></rect><rect x="510" y="200" width="6" height="0" stroke="black" stroke-width="1" fill="blue" opacity="1" tooltip="enable"><title>(0.0703124,0)</title></rect><rect x="516" y="200" width="6" height="0" stroke="black" stroke-width="1" fill="blue" opacity="1" tooltip="enable"><title>(0.0711396,0)</title></rect><rect x="522" y="199.427" width="6" height="0.573066" stroke="black" stroke-width="1" fill="blue" opacity="1" tooltip="enable"><title>(0.0719668,4)</title></rect><rect x="528" y="199.713" width="6" height="0.286533" stroke="black" stroke-width="1" fill="blue" opacity="1" tooltip="enable"><title>(0.072794,2)</title></rect><rect x="534" y="200" width="6" height="0" stroke="black" stroke-width="1" fill="blue" opacity="1" tooltip="enable"><title>(0.0736212,0)</title></rect><rect x="540" y="200" width="6" height="0" stroke="black" stroke-width="1" fill="blue" opacity="1" tooltip="enable"><title>(0.0744484,0)</title></rect><rect x="546" y="200" width="6" height="0" stroke="black" stroke-width="1" fill="blue" opacity="1" tooltip="enable"><title>(0.0752756,0)</title></rect><rect x="552" y="200" width="6" height="0" stroke="black" stroke-width="1" fill="blue" opacity="1" tooltip="enable"><title>(0.0761028,0)</title></rect><rect x="558" y="200" width="6" height="0" stroke="black" stroke-width="1" fill="blue" opacity="1" tooltip="enable"><title>(0.07693,0)</title></rect><rect x="564" y="200" width="6" height="0" stroke="black" stroke-width="1" fill="blue" opacity="1" tooltip="enable"><title>(0.0777572,0)</title></rect><rect x="570" y="199.713" width="6" height="0.286533" stroke="black" stroke-width="1" fill="blue" opacity="1" tooltip="enable"><title>(0.0785844,2)</title></rect><rect x="576" y="199.713" width="6" height="0.286533" stroke="black" stroke-width="1" fill="blue" opacity="1" tooltip="enable"><title>(0.0794116,2)</title></rect><rect x="582" y="200" width="6" height="0" stroke="black" stroke-width="1" fill="blue" opacity="1" tooltip="enable"><title>(0.0802389,0)</title></rect><rect x="588" y="200" width="6" height="0" stroke="black" stroke-width="1" fill="blue" opacity="1" tooltip="enable"><title>(0.0810661,0)</title></rect><rect x="594" y="199.857" width="6" height="0.143266" stroke="black" stroke-width="1" fill="blue" opacity="1" tooltip="enable"><title>(0.0818933,1)</title></rect><text x="30" y="240" font-size="20" fill="black">0</text>
<text x="600" y="240" font-size="20" fill="black">0.0827205</text>
<polyline points="0,220,600,220" stroke="black" stroke-width="1" fill="none" opacity="1"/>
<text x="720" y="20" font-size="20" fill="black">1396</text>
<text x="720" y="200" font-size="20" fill="black">0</text>
<polyline points="660,0,660,200" stroke="black" stroke-width="1" fill="none" opacity="1"/>
</svg>