<?xml version="1.0" standalone="yes"?>
<!-- SVG graphic -->
<svg xmlns='http://www.w3.org/2000/svg' xmlns:xlink='http://www.w3.org/1999/xlink'
 version="1.1">
<rect x="0" y="0" width="6" height="200" stroke="black" stroke-width="1" fill="blue" opacity="1" tooltip="enable"><title>(0,4300)</title></rect><rect x="6" y="184.186" width="6" height="15.814" stroke="black" stroke-width="1" fill="blue" opacity="1" tooltip="enable"><title>(0.00262716,340)</title></rect><rect x="12" y="183.535" width="6" height="16.4651" stroke="black" stroke-width="1" fill="blue" opacity="1" tooltip="enable"><title>(0.00525432,354)</title></rect><rect x="18" y="183.442" width="6" height="16.5581" stroke="black" stroke-width="1" fill="blue" opacity="1" tooltip="enable"><title>(0.00788148,356)</title></rect><rect x="24" y="183.023" width="6" height="16.9767" stroke="black" stroke-width="1" fill="blue" opacity="1" tooltip="enable"><title>(0.0105086,365)</title></rect><rect x="30" y="187.07" width="6" height="12.9302" stroke="black" stroke-width="1" fill="blue" opacity="1" tooltip="enable"><title>(0.0131358,278)</title></rect><rect x="36" y="187.535" width="6" height="12.4651" stroke="black" stroke-width="1" fill="blue" opacity="1" tooltip="enable"><title>(0.015763,268)</title></rect><rect x="42" y="188.837" width="6" height="11.1628" stroke="black" stroke-width="1" fill="blue" opacity="1" tooltip="enable"><title>(0.0183901,240)</title></rect><rect x="48" y="191.535" width="6" height="8.46512" stroke="black" stroke-width="1" fill="blue" opacity="1" tooltip="enable"><title>(0.0210173,182)</title></rect><rect x="54" y="191.349" width="6" height="8.65116" stroke="black" stroke-width="1" fill="blue" opacity="1" tooltip="enable"><title>(0.0236444,186)</title></rect><rect x="60" y="192.14" width="6" height="7.86047" stroke="black" stroke-width="1" fill="blue" opacity="1" tooltip="enable"><title>(0.0262716,169)</title></rect><rect x="66" y="194" width="6" height="6" stroke="black" stroke-width="1" fill="blue" opacity="1" tooltip="enable"><title>(0.0288988,129)</title></rect><rect x="72" y="194.698" width="6" height="5.30233" stroke="black" stroke-width="1" fill="blue" opacity="1" tooltip="enable"><title>(0.0315259,114)</title></rect><rect x="78" y="195.442" width="6" height="4.55814" stroke="black" stroke-width="1" fill="blue" opacity="1" tooltip="enable"><title>(0.0341531,98)</title></rect><rect x="84" y="196.233" width="6" height="3.76744" stroke="black" stroke-width="1" fill="blue" opacity="1" tooltip="enable"><title>(0.0367802,81)</title></rect><rect x="90" y="196.884" width="6" height="3.11628" stroke="black" stroke-width="1" fill="blue" opacity="1" tooltip="enable"><title>(0.0394074,67)</title></rect><rect x="96" y="197.07" width="6" height="2.93023" stroke="black" stroke-width="1" fill="blue" opacity="1" tooltip="enable"><title>(0.0420346,63)</title></rect><rect x="102" y="196.744" width="6" height="3.25581" stroke="black" stroke-width="1" fill="blue" opacity="1" tooltip="enable"><title>(0.0446617,70)</title></rect><rect x="108" y="197.395" width="6" height="2.60465" stroke="black" stroke-width="1" fill="blue" opacity="1" tooltip="enable"><title>(0.0472889,56)</title></rect><rect x="114" y="197.395" width="6" height="2.60465" stroke="black" stroke-width="1" fill="blue" opacity="1" tooltip="enable"><title>(0.049916,56)</title></rect><rect x="120" y="198.512" width="6" height="1.48837" stroke="black" stroke-width="1" fill="blue" opacity="1" tooltip="enable"><title>(0.0525432,32)</title></rect><rect x="126" y="198.419" width="6" height="1.5814" stroke="black" stroke-width="1" fill="blue" opacity="1" tooltip="enable"><title>(0.0551704,34)</title></rect><rect x="132" y="198.791" width="6" height="1.2093" stroke="black" stroke-width="1" fill="blue" opacity="1" tooltip="enable"><title>(0.0577975,26)</title></rect><rect x="138" y="199.302" width="6" height="0.697674" stroke="black" stroke-width="1" fill="blue" opacity="1" tooltip="enable"><title>(0.0604247,15)</title></rect><rect x="144" y="199.349" width="6" height="0.651163" stroke="black" stroke-width="1" fill="blue" opacity="1" tooltip="enable"><title>(0.0630518,14)</title></rect><rect x="150" y="199.209" width="6" height="0.790698" stroke="black" stroke-width="1" fill="blue" opacity="1" tooltip="enable"><title>(0.065679,17)</title></rect><rect x="156" y="199.442" width="6" height="0.55814" stroke="black" stroke-width="1" fill="blue" opacity="1" tooltip="enable"><title>(0.0683062,12)</title></rect><rect x="162" y="199.256" width="6" height="0.744186" stroke="black" stroke-width="1" fill="blue" opacity="1" tooltip="enable"><title>(0.0709333,16)</title></rect><rect x="168" y="199.814" width="6" height="0.186047" stroke="black" stroke-width="1" fill="blue" opacity="1" tooltip="enable"><title>(0.0735605,4)</title></rect><rect x="174" y="199.721" width="6" height="0.27907" stroke="black" stroke-width="1" fill="blue" opacity="1" tooltip="enable"><title>(0.0761876,6)</title></rect><rect x="180" y="199.535" width="6" height="0.465116" stroke="black" stroke-width="1" fill="blue" opacity="1" tooltip="enable"><title>(0.0788148,10)</title></rect><rect x="186" y="199.814" width="6" height="0.186047" stroke="black" stroke-width="1" fill="blue" opacity="1" tooltip="enable"><title>(0.081442,4)</title></rect><rect x="192" y="199.907" width="6" height="0.0930233" stroke="black" stroke-width="1" fill="blue" opacity="1" tooltip="enable"><title>(0.0840691,2)</title></rect><rect x="198" y="199.721" width="6" height="0.27907" stroke="black" stroke-width="1" fill="blue" opacity="1" tooltip="enable"><title>(0.0866963,6)</title></rect><rect x="204" y="199.953" width="6" height="0.0465116" stroke="black" stroke-width="1" fill="blue" opacity="1" tooltip="enable"><title>(0.0893234,1)</title></rect><rect x="210" y="199.953" width="6" height="0.0465116" stroke="black" stroke-width="1" fill="blue" opacity="1" tooltip="enable"><title>(0.0919506,1)</title></rect><rect x="216" y="199.86" width="6" height="0.139535" stroke="black" stroke-width="1" fill="blue" opacity="1" tooltip="enable"><title>(0.0945778,3)</title></rect><rect x="222" y="199.86" width="6" height="0.139535" stroke="black" stroke-width="1" fill="blue" opacity="1" tooltip="enable"><title>(0.0972049,3)</title></rect><rect x="228" y="199.814" width="6" height="0.186047" stroke="black" stroke-width="1" fill="blue" opacity="1" tooltip="enable"><title>(0.0998321,4)</title></rect><rect x="234" y="200" width="6" height="0" stroke="black" stroke-width="1" fill="blue" opacity="1" tooltip="enable"><title>(0.102459,0)</title></rect><rect x="240" y="200" width="6" height="0" stroke="black" stroke-width="1" fill="blue" opacity="1" tooltip="enable"><title>(0.105086,0)</title></rect><rect x="246" y="200" width="6" height="0" stroke="black" stroke-width="1" fill="blue" opacity="1" tooltip="enable"><title>(0.107714,0)</title></rect><rect x="252" y="200" width="6" height="0" stroke="black" stroke-width="1" fill="blue" opacity="1" tooltip="enable"><title>(0.110341,0)</title></rect><rect x="258" y="199.721" width="6" height="0.27907" stroke="black" stroke-width="1" fill="blue" opacity="1" tooltip="enable"><title>(0.112968,6)</title></rect><rect x="264" y="199.907" width="6" height="0.0930233" stroke="black" stroke-width="1" fill="blue" opacity="1" tooltip="enable"><title>(0.115595,2)</title></rect><rect x="270" y="200" width="6" height="0" stroke="black" stroke-width="1" fill="blue" opacity="1" tooltip="enable"><title>(0.118222,0)</title></rect><rect x="276" y="200" width="6" height="0" stroke="black" stroke-width="1" fill="blue" opacity="1" tooltip="enable"><title>(0.120849,0)</title></rect><rect x="282" y="200" width="6" height="0" stroke="black" stroke-width="1" fill="blue" opacity="1" tooltip="enable"><title>(0.123477,0)</title></rect><rect x="288" y="200" width="6" height="0" stroke="black" stroke-width="1" fill="blue" opacity="1" tooltip="enable"><title>(0.126104,0)</title></rect><rect x="294" y="200" width="6" height="0" stroke="black" stroke-width="1" fill="blue" opacity="1" tooltip="enable"><title>(0.128731,0)</title></rect><rect x="300" y="200" width="6" height="0" stroke="black" stroke-width="1" fill="blue" opacity="1" tooltip="enable"><title>(0.131358,0)</title></rect><rect x="306" y="200" width="6" height="0" stroke="black" stroke-width="1" fill="blue" opacity="1" tooltip="enable"><title>(0.133985,0)</title></rect><rect x="312" y="200" width="6" height="0" stroke="black" stroke-width="1" fill="blue" opacity="1" tooltip="enable"><title>(0.136612,0)</title></rect><rect x="318" y="200" width="6" height="0" stroke="black" stroke-width="1" fill="blue" opacity="1" tooltip="enable"><title>(0.139239,0)</title></rect><rect x="324" y="200" width="6" height="0" stroke="black" stroke-width="1" fill="blue" opacity="1" tooltip="enable"><title>(0.141867,0)</title></rect><rect x="330" y="199.907" width="6" height="0.0930233" stroke="black" stroke-width="1" fill="blue" opacity="1" tooltip="enable"><title>(0.144494,2)</title></rect><rect x="336" y="199.907" width="6" height="0.0930233" stroke="black" stroke-width="1" fill="blue" opacity="1" tooltip="enable"><title>(0.147121,2)</title></rect><rect x="342" y="200" width="6" height="0" stroke="black" stroke-width="1" fill="blue" opacity="1" tooltip="enable"><title>(0.149748,0)</title></rect><rect x="348" y="200" width="6" height="0" stroke="black" stroke-width="1" fill="blue" opacity="1" tooltip="enable"><title>(0.152375,0)</title></rect><rect x="354" y="200" width="6" height="0" stroke="black" stroke-width="1" fill="blue" opacity="1" tooltip="enable"><title>(0.155002,0)</title></rect><rect x="360" y="200" width="6" height="0" stroke="black" stroke-width="1" fill="blue" opacity="1" tooltip="enable"><title>(0.15763,0)</title></rect><rect x="366" y="200" width="6" height="0" stroke="black" stroke-width="1" fill="blue" opacity="1" tooltip="enable"><title>(0.160257,0)</title></rect><rect x="372" y="200" width="6" height="0" stroke="black" stroke-width="1" fill="blue" opacity="1" tooltip="enable"><title>(0.162884,0)</title></rect><rect x="378" y="200" width="6" height="0" stroke="black" stroke-width="1" fill="blue" opacity="1" tooltip="enable"><title>(0.165511,0)</title></rect><rect x="384" y="200" width="6" height="0" stroke="black" stroke-width="1" fill="blue" opacity="1" tooltip="enable"><title>(0.168138,0)</title></rect><rect x="390" y="200" width="6" height="0" stroke="black" stroke-width="1" fill="blue" opacity="1" tooltip="enable"><title>(0.170765,0)</title></rect><rect x="396" y="200" width="6" height="0" stroke="black" stroke-width="1" fill="blue" opacity="1" tooltip="enable"><title>(0.173393,0)</title></rect><rect x="402" y="200" width="6" height="0" stroke="black" stroke-width="1" fill="blue" opacity="1" tooltip="enable"><title>(0.17602,0)</title></rect><rect x="408" y="200" width="6" height="0" stroke="black" stroke-width="1" fill="blue" opacity="1" tooltip="enable"><title>(0.178647,0)</title></rect><rect x="414" y="200" width="6" height="0" stroke="black" stroke-width="1" fill="blue" opacity="1" tooltip="enable"><title>(0.181274,0)</title></rect><rect x="420" y="200" width="6" height="0" stroke="black" stroke-width="1" fill="blue" opacity="1" tooltip="enable"><title>(0.183901,0)</title></rect><rect x="426" y="200" width="6" height="0" stroke="black" stroke-width="1" fill="blue" opacity="1" tooltip="enable"><title>(0.186528,0)</title></rect><rect x="432" y="200" width="6" height="0" stroke="black" stroke-width="1" fill="blue" opacity="1" tooltip="enable"><title>(0.189156,0)</title></rect><rect x="438" y="200" width="6" height="0" stroke="black" stroke-width="1" fill="blue" opacity="1" tooltip="enable"><title>(0.191783,0)</title></rect><rect x="444" y="200" width="6" height="0" stroke="black" stroke-width="1" fill="blue" opacity="1" tooltip="enable"><title>(0.19441,0)</title></rect><rect x="450" y="200" width="6" height="0" stroke="black" stroke-width="1" fill="blue" opacity="1" tooltip="enable"><title>(0.197037,0)</title></rect><rect x="456" y="200" width="6" height="0" stroke="black" stroke-width="1" fill="blue" opacity="1" tooltip="enable"><title>(0.199664,0)</title></rect><rect x="462" y="200" width="6" height="0" stroke="black" stroke-width="1" fill="blue" opacity="1" tooltip="enable"><title>(0.202291,0)</title></rect><rect x="468" y="200" width="6" height="0" stroke="black" stroke-width="1" fill="blue" opacity="1" tooltip="enable"><title>(0.204918,0)</title></rect><rect x="474" y="200" width="6" height="0" stroke="black" stroke-width="1" fill="blue" opacity="1" tooltip="enable"><title>(0.207546,0)</title></rect><rect x="480" y="200" width="6" height="0" stroke="black" stroke-width="1" fill="blue" opacity="1" tooltip="enable"><title>(0.210173,0)</title></rect><rect x="486" y="200" width="6" height="0" stroke="black" stroke-width="1" fill="blue" opacity="1" tooltip="enable"><title>(0.2128,0)</title></rect><rect x="492" y="200" width="6" height="0" stroke="black" stroke-width="1" fill="blue" opacity="1" tooltip="enable"><title>(0.215427,0)</title></rect><rect x="498" y="200" width="6" height="0" stroke="black" stroke-width="1" fill="blue" opacity="1" tooltip="enable"><title>(0.218054,0)</title></rect><rect x="504" y="200" width="6" height="0" stroke="black" stroke-width="1" fill="blue" opacity="1" tooltip="enable"><title>(0.220681,0)</title></rect><rect x="510" y="200" width="6" height="0" stroke="black" stroke-width="1" fill="blue" opacity="1" tooltip="enable"><title>(0.223309,0)</title></rect><rect x="516" y="200" width="6" height="0" stroke="black" stroke-width="1" fill="blue" opacity="1" tooltip="enable"><title>(0.225936,0)</title></rect><rect x="522" y="200" width="6" height="0" stroke="black" stroke-width="1" fill="blue" opacity="1" tooltip="enable"><title>(0.228563,0)</title></rect><rect x="528" y="200" width="6" height="0" stroke="black" stroke-width="1" fill="blue" opacity="1" tooltip="enable"><title>(0.23119,0)</title></rect><rect x="534" y="200" width="6" height="0" stroke="black" stroke-width="1" fill="blue" opacity="1" tooltip="enable"><title>(0.233817,0)</title></rect><rect x="540" y="200" width="6" height="0" stroke="black" stroke-width="1" fill="blue" opacity="1" tooltip="enable"><title>(0.236444,0)</title></rect><rect x="546" y="200" width="6" height="0" stroke="black" stroke-width="1" fill="blue" opacity="1" tooltip="enable"><title>(0.239072,0)</title></rect><rect x="552" y="200" width="6" height="0" stroke="black" stroke-width="1" fill="blue" opacity="1" tooltip="enable"><title>(0.241699,0)</title></rect><rect x="558" y="200" width="6" height="0" stroke="black" stroke-width="1" fill="blue" opacity="1" tooltip="enable"><title>(0.244326,0)</title></rect><rect x="564" y="200" width="6" height="0" stroke="black" stroke-width="1" fill="blue" opacity="1" tooltip="enable"><title>(0.246953,0)</title></rect><rect x="570" y="200" width="6" height="0" stroke="black" stroke-width="1" fill="blue" opacity="1" tooltip="enable"><title>(0.24958,0)</title></rect><rect x="576" y="200" width="6" height="0" stroke="black" stroke-width="1" fill="blue" opacity="1" tooltip="enable"><title>(0.252207,0)</title></rect><rect x="582" y="199.814" width="6" height="0.186047" stroke="black" stroke-width="1" fill="blue" opacity="1" tooltip="enable"><title>(0.254835,4)</title></rect><rect x="588" y="200" width="6" height="0" stroke="black" stroke-width="1" fill="blue" opacity="1" tooltip="enable"><title>(0.257462,0)</title></rect><rect x="594" y="199.953" width="6" height="0.0465116" stroke="black" stroke-width="1" fill="blue" opacity="1" tooltip="enable"><title>(0.260089,1)</title></rect><text x="30" y="240" font-size="20" fill="black">0</text>
<text x="600" y="240" font-size="20" fill="black">0.262716</text>
<polyline points="0,220,600,220" stroke="black" stroke-width="1" fill="none" opacity="1"/>
<text x="720" y="20" font-size="20" fill="black">4300</text>
<text x="720" y="200" font-size="20" fill="black">0</text>
<polyline points="660,0,660,200" stroke="black" stroke-width="1" fill="none" opacity="1"/>
</svg>