<?xml version="1.0" standalone="yes"?>
<!-- SVG graphic -->
<svg xmlns='http://www.w3.org/2000/svg' xmlns:xlink='http://www.w3.org/1999/xlink'
 version="1.1">
<rect x="0" y="-1.52588e-05" width="6" height="200" stroke="black" stroke-width="1" fill="blue" opacity="1" tooltip="enable"><title>(0,2511)</title></rect><rect x="6" y="110.952" width="6" height="89.0482" stroke="black" stroke-width="1" fill="blue" opacity="1" tooltip="enable"><title>(0.00120982,1118)</title></rect><rect x="12" y="147.989" width="6" height="52.0112" stroke="black" stroke-width="1" fill="blue" opacity="1" tooltip="enable"><title>(0.00241965,653)</title></rect><rect x="18" y="178.495" width="6" height="21.5054" stroke="black" stroke-width="1" fill="blue" opacity="1" tooltip="enable"><title>(0.00362947,270)</title></rect><rect x="24" y="185.185" width="6" height="14.8148" stroke="black" stroke-width="1" fill="blue" opacity="1" tooltip="enable"><title>(0.00483929,186)</title></rect><rect x="30" y="186.141" width="6" height="13.859" stroke="black" stroke-width="1" fill="blue" opacity="1" tooltip="enable"><title>(0.00604912,174)</title></rect><rect x="36" y="189.008" width="6" height="10.9916" stroke="black" stroke-width="1" fill="blue" opacity="1" tooltip="enable"><title>(0.00725894,138)</title></rect><rect x="42" y="189.247" width="6" height="10.7527" stroke="black" stroke-width="1" fill="blue" opacity="1" tooltip="enable"><title>(0.00846876,135)</title></rect><rect x="48" y="187.973" width="6" height="12.0271" stroke="black" stroke-width="1" fill="blue" opacity="1" tooltip="enable"><title>(0.00967859,151)</title></rect><rect x="54" y="189.327" width="6" height="10.673" stroke="black" stroke-width="1" fill="blue" opacity="1" tooltip="enable"><title>(0.0108884,134)</title></rect><rect x="60" y="187.575" width="6" height="12.4253" stroke="black" stroke-width="1" fill="blue" opacity="1" tooltip="enable"><title>(0.0120982,156)</title></rect><rect x="66" y="189.646" width="6" height="10.3544" stroke="black" stroke-width="1" fill="blue" opacity="1" tooltip="enable"><title>(0.0133081,130)</title></rect><rect x="72" y="188.212" width="6" height="11.7881" stroke="black" stroke-width="1" fill="blue" opacity="1" tooltip="enable"><title>(0.0145179,148)</title></rect><rect x="78" y="191.876" width="6" height="8.12425" stroke="black" stroke-width="1" fill="blue" opacity="1" tooltip="enable"><title>(0.0157277,102)</title></rect><rect x="84" y="190.92" width="6" height="9.08005" stroke="black" stroke-width="1" fill="blue" opacity="1" tooltip="enable"><title>(0.0169375,114)</title></rect><rect x="90" y="191.239" width="6" height="8.76145" stroke="black" stroke-width="1" fill="blue" opacity="1" tooltip="enable"><title>(0.0181474,110)</title></rect><rect x="96" y="190.761" width="6" height="9.23935" stroke="black" stroke-width="1" fill="blue" opacity="1" tooltip="enable"><title>(0.0193572,116)</title></rect><rect x="102" y="193.469" width="6" height="6.53126" stroke="black" stroke-width="1" fill="blue" opacity="1" tooltip="enable"><title>(0.020567,82)</title></rect><rect x="108" y="193.708" width="6" height="6.29231" stroke="black" stroke-width="1" fill="blue" opacity="1" tooltip="enable"><title>(0.0217768,79)</title></rect><rect x="114" y="193.628" width="6" height="6.37196" stroke="black" stroke-width="1" fill="blue" opacity="1" tooltip="enable"><title>(0.0229866,80)</title></rect><rect x="120" y="194.663" width="6" height="5.33652" stroke="black" stroke-width="1" fill="blue" opacity="1" tooltip="enable"><title>(0.0241965,67)</title></rect><rect x="126" y="194.186" width="6" height="5.81442" stroke="black" stroke-width="1" fill="blue" opacity="1" tooltip="enable"><title>(0.0254063,73)</title></rect><rect x="132" y="195.141" width="6" height="4.85862" stroke="black" stroke-width="1" fill="blue" opacity="1" tooltip="enable"><title>(0.0266161,61)</title></rect><rect x="138" y="193.787" width="6" height="6.21266" stroke="black" stroke-width="1" fill="blue" opacity="1" tooltip="enable"><title>(0.0278259,78)</title></rect><rect x="144" y="196.655" width="6" height="3.34528" stroke="black" stroke-width="1" fill="blue" opacity="1" tooltip="enable"><title>(0.0290358,42)</title></rect><rect x="150" y="196.018" width="6" height="3.98248" stroke="black" stroke-width="1" fill="blue" opacity="1" tooltip="enable"><title>(0.0302456,50)</title></rect><rect x="156" y="196.973" width="6" height="3.02668" stroke="black" stroke-width="1" fill="blue" opacity="1" tooltip="enable"><title>(0.0314554,38)</title></rect><rect x="162" y="196.177" width="6" height="3.82318" stroke="black" stroke-width="1" fill="blue" opacity="1" tooltip="enable"><title>(0.0326652,48)</title></rect><rect x="168" y="196.177" width="6" height="3.82318" stroke="black" stroke-width="1" fill="blue" opacity="1" tooltip="enable"><title>(0.0338751,48)</title></rect><rect x="174" y="196.734" width="6" height="3.26563" stroke="black" stroke-width="1" fill="blue" opacity="1" tooltip="enable"><title>(0.0350849,41)</title></rect><rect x="180" y="195.46" width="6" height="4.54002" stroke="black" stroke-width="1" fill="blue" opacity="1" tooltip="enable"><title>(0.0362947,57)</title></rect><rect x="186" y="196.256" width="6" height="3.74353" stroke="black" stroke-width="1" fill="blue" opacity="1" tooltip="enable"><title>(0.0375045,47)</title></rect><rect x="192" y="196.655" width="6" height="3.34528" stroke="black" stroke-width="1" fill="blue" opacity="1" tooltip="enable"><title>(0.0387143,42)</title></rect><rect x="198" y="195.46" width="6" height="4.54002" stroke="black" stroke-width="1" fill="blue" opacity="1" tooltip="enable"><title>(0.0399242,57)</title></rect><rect x="204" y="196.097" width="6" height="3.90283" stroke="black" stroke-width="1" fill="blue" opacity="1" tooltip="enable"><title>(0.041134,49)</title></rect><rect x="210" y="196.097" width="6" height="3.90283" stroke="black" stroke-width="1" fill="blue" opacity="1" tooltip="enable"><title>(0.0423438,49)</title></rect><rect x="216" y="196.973" width="6" height="3.02668" stroke="black" stroke-width="1" fill="blue" opacity="1" tooltip="enable"><title>(0.0435536,38)</title></rect><rect x="222" y="197.292" width="6" height="2.70808" stroke="black" stroke-width="1" fill="blue" opacity="1" tooltip="enable"><title>(0.0447635,34)</title></rect><rect x="228" y="197.531" width="6" height="2.46914" stroke="black" stroke-width="1" fill="blue" opacity="1" tooltip="enable"><title>(0.0459733,31)</title></rect><rect x="234" y="197.451" width="6" height="2.54879" stroke="black" stroke-width="1" fill="blue" opacity="1" tooltip="enable"><title>(0.0471831,32)</title></rect><rect x="240" y="197.531" width="6" height="2.46914" stroke="black" stroke-width="1" fill="blue" opacity="1" tooltip="enable"><title>(0.0483929,31)</title></rect><rect x="246" y="196.495" width="6" height="3.50458" stroke="black" stroke-width="1" fill="blue" opacity="1" tooltip="enable"><title>(0.0496028,44)</title></rect><rect x="252" y="197.929" width="6" height="2.07089" stroke="black" stroke-width="1" fill="blue" opacity="1" tooltip="enable"><title>(0.0508126,26)</title></rect><rect x="258" y="198.088" width="6" height="1.91159" stroke="black" stroke-width="1" fill="blue" opacity="1" tooltip="enable"><title>(0.0520224,24)</title></rect><rect x="264" y="197.77" width="6" height="2.23019" stroke="black" stroke-width="1" fill="blue" opacity="1" tooltip="enable"><title>(0.0532322,28)</title></rect><rect x="270" y="197.69" width="6" height="2.30984" stroke="black" stroke-width="1" fill="blue" opacity="1" tooltip="enable"><title>(0.054442,29)</title></rect><rect x="276" y="198.009" width="6" height="1.99124" stroke="black" stroke-width="1" fill="blue" opacity="1" tooltip="enable"><title>(0.0556519,25)</title></rect><rect x="282" y="198.566" width="6" height="1.43369" stroke="black" stroke-width="1" fill="blue" opacity="1" tooltip="enable"><title>(0.0568617,18)</title></rect><rect x="288" y="199.204" width="6" height="0.796495" stroke="black" stroke-width="1" fill="blue" opacity="1" tooltip="enable"><title>(0.0580715,10)</title></rect><rect x="294" y="198.088" width="6" height="1.91159" stroke="black" stroke-width="1" fill="blue" opacity="1" tooltip="enable"><title>(0.0592813,24)</title></rect><rect x="300" y="198.726" width="6" height="1.27439" stroke="black" stroke-width="1" fill="blue" opacity="1" tooltip="enable"><title>(0.0604912,16)</title></rect><rect x="306" y="199.283" width="6" height="0.716846" stroke="black" stroke-width="1" fill="blue" opacity="1" tooltip="enable"><title>(0.061701,9)</title></rect><rect x="312" y="198.965" width="6" height="1.03544" stroke="black" stroke-width="1" fill="blue" opacity="1" tooltip="enable"><title>(0.0629108,13)</title></rect><rect x="318" y="199.363" width="6" height="0.637196" stroke="black" stroke-width="1" fill="blue" opacity="1" tooltip="enable"><title>(0.0641206,8)</title></rect><rect x="324" y="199.124" width="6" height="0.876145" stroke="black" stroke-width="1" fill="blue" opacity="1" tooltip="enable"><title>(0.0653305,11)</title></rect><rect x="330" y="198.168" width="6" height="1.83194" stroke="black" stroke-width="1" fill="blue" opacity="1" tooltip="enable"><title>(0.0665403,23)</title></rect><rect x="336" y="199.681" width="6" height="0.318598" stroke="black" stroke-width="1" fill="blue" opacity="1" tooltip="enable"><title>(0.0677501,4)</title></rect><rect x="342" y="199.841" width="6" height="0.159299" stroke="black" stroke-width="1" fill="blue" opacity="1" tooltip="enable"><title>(0.0689599,2)</title></rect><rect x="348" y="200" width="6" height="0" stroke="black" stroke-width="1" fill="blue" opacity="1" tooltip="enable"><title>(0.0701698,0)</title></rect><rect x="354" y="199.841" width="6" height="0.159299" stroke="black" stroke-width="1" fill="blue" opacity="1" tooltip="enable"><title>(0.0713796,2)</title></rect><rect x="360" y="199.522" width="6" height="0.477897" stroke="black" stroke-width="1" fill="blue" opacity="1" tooltip="enable"><title>(0.0725894,6)</title></rect><rect x="366" y="199.204" width="6" height="0.796495" stroke="black" stroke-width="1" fill="blue" opacity="1" tooltip="enable"><title>(0.0737992,10)</title></rect><rect x="372" y="199.363" width="6" height="0.637196" stroke="black" stroke-width="1" fill="blue" opacity="1" tooltip="enable"><title>(0.075009,8)</title></rect><rect x="378" y="199.363" width="6" height="0.637196" stroke="black" stroke-width="1" fill="blue" opacity="1" tooltip="enable"><title>(0.0762189,8)</title></rect><rect x="384" y="199.841" width="6" height="0.159299" stroke="black" stroke-width="1" fill="blue" opacity="1" tooltip="enable"><title>(0.0774287,2)</title></rect><rect x="390" y="199.522" width="6" height="0.477897" stroke="black" stroke-width="1" fill="blue" opacity="1" tooltip="enable"><title>(0.0786385,6)</title></rect><rect x="396" y="199.681" width="6" height="0.318598" stroke="black" stroke-width="1" fill="blue" opacity="1" tooltip="enable"><title>(0.0798483,4)</title></rect><rect x="402" y="199.522" width="6" height="0.477897" stroke="black" stroke-width="1" fill="blue" opacity="1" tooltip="enable"><title>(0.0810582,6)</title></rect><rect x="408" y="200" width="6" height="0" stroke="black" stroke-width="1" fill="blue" opacity="1" tooltip="enable"><title>(0.082268,0)</title></rect><rect x="414" y="199.841" width="6" height="0.159299" stroke="black" stroke-width="1" fill="blue" opacity="1" tooltip="enable"><title>(0.0834778,2)</title></rect><rect x="420" y="200" width="6" height="0" stroke="black" stroke-width="1" fill="blue" opacity="1" tooltip="enable"><title>(0.0846876,0)</title></rect><rect x="426" y="199.841" width="6" height="0.159299" stroke="black" stroke-width="1" fill="blue" opacity="1" tooltip="enable"><title>(0.0858975,2)</title></rect><rect x="432" y="199.681" width="6" height="0.318598" stroke="black" stroke-width="1" fill="blue" opacity="1" tooltip="enable"><title>(0.0871073,4)</title></rect><rect x="438" y="200" width="6" height="0" stroke="black" stroke-width="1" fill="blue" opacity="1" tooltip="enable"><title>(0.0883171,0)</title></rect><rect x="444" y="200" width="6" height="0" stroke="black" stroke-width="1" fill="blue" opacity="1" tooltip="enable"><title>(0.0895269,0)</title></rect><rect x="450" y="199.841" width="6" height="0.159299" stroke="black" stroke-width="1" fill="blue" opacity="1" tooltip="enable"><title>(0.0907367,2)</title></rect><rect x="456" y="200" width="6" height="0" stroke="black" stroke-width="1" fill="blue" opacity="1" tooltip="enable"><title>(0.0919466,0)</title></rect><rect x="462" y="199.681" width="6" height="0.318598" stroke="black" stroke-width="1" fill="blue" opacity="1" tooltip="enable"><title>(0.0931564,4)</title></rect><rect x="468" y="199.841" width="6" height="0.159299" stroke="black" stroke-width="1" fill="blue" opacity="1" tooltip="enable"><title>(0.0943662,2)</title></rect><rect x="474" y="199.841" width="6" height="0.159299" stroke="black" stroke-width="1" fill="blue" opacity="1" tooltip="enable"><title>(0.095576,2)</title></rect><rect x="480" y="199.841" width="6" height="0.159299" stroke="black" stroke-width="1" fill="blue" opacity="1" tooltip="enable"><title>(0.0967859,2)</title></rect><rect x="486" y="199.681" width="6" height="0.318598" stroke="black" stroke-width="1" fill="blue" opacity="1" tooltip="enable"><title>(0.0979957,4)</title></rect><rect x="492" y="199.841" width="6" height="0.159299" stroke="black" stroke-width="1" fill="blue" opacity="1" tooltip="enable"><title>(0.0992055,2)</title></rect><rect x="498" y="199.92" width="6" height="0.0796495" stroke="black" stroke-width="1" fill="blue" opacity="1" tooltip="enable"><title>(0.100415,1)</title></rect><rect x="504" y="199.761" width="6" height="0.238949" stroke="black" stroke-width="1" fill="blue" opacity="1" tooltip="enable"><title>(0.101625,3)</title></rect><rect x="510" y="200" width="6" height="0" stroke="black" stroke-width="1" fill="blue" opacity="1" tooltip="enable"><title>(0.102835,0)</title></rect><rect x="516" y="200" width="6" height="0" stroke="black" stroke-width="1" fill="blue" opacity="1" tooltip="enable"><title>(0.104045,0)</title></rect><rect x="522" y="200" width="6" height="0" stroke="black" stroke-width="1" fill="blue" opacity="1" tooltip="enable"><title>(0.105255,0)</title></rect><rect x="528" y="200" width="6" height="0" stroke="black" stroke-width="1" fill="blue" opacity="1" tooltip="enable"><title>(0.106464,0)</title></rect><rect x="534" y="200" width="6" height="0" stroke="black" stroke-width="1" fill="blue" opacity="1" tooltip="enable"><title>(0.107674,0)</title></rect><rect x="540" y="200" width="6" height="0" stroke="black" stroke-width="1" fill="blue" opacity="1" tooltip="enable"><title>(0.108884,0)</title></rect><rect x="546" y="200" width="6" height="0" stroke="black" stroke-width="1" fill="blue" opacity="1" tooltip="enable"><title>(0.110094,0)</title></rect><rect x="552" y="199.841" width="6" height="0.159299" stroke="black" stroke-width="1" fill="blue" opacity="1" tooltip="enable"><title>(0.111304,2)</title></rect><rect x="558" y="200" width="6" height="0" stroke="black" stroke-width="1" fill="blue" opacity="1" tooltip="enable"><title>(0.112514,0)</title></rect><rect x="564" y="200" width="6" height="0" stroke="black" stroke-width="1" fill="blue" opacity="1" tooltip="enable"><title>(0.113723,0)</title></rect><rect x="570" y="200" width="6" height="0" stroke="black" stroke-width="1" fill="blue" opacity="1" tooltip="enable"><title>(0.114933,0)</title></rect><rect x="576" y="200" width="6" height="0" stroke="black" stroke-width="1" fill="blue" opacity="1" tooltip="enable"><title>(0.116143,0)</title></rect><rect x="582" y="200" width="6" height="0" stroke="black" stroke-width="1" fill="blue" opacity="1" tooltip="enable"><title>(0.117353,0)</title></rect><rect x="588" y="200" width="6" height="0" stroke="black" stroke-width="1" fill="blue" opacity="1" tooltip="enable"><title>(0.118563,0)</title></rect><rect x="594" y="199.92" width="6" height="0.0796495" stroke="black" stroke-width="1" fill="blue" opacity="1" tooltip="enable"><title>(0.119773,1)</title></rect><text x="30" y="240" font-size="20" fill="black">0</text>
<text x="600" y="240" font-size="20" fill="black">0.120982</text>
<polyline points="0,220,600,220" stroke="black" stroke-width="1" fill="none" opacity="1"/>
<text x="720" y="20" font-size="20" fill="black">2511</text>
<text x="720" y="200" font-size="20" fill="black">0</text>
<polyline points="660,0,660,200" stroke="black" stroke-width="1" fill="none" opacity="1"/>
</svg>