<?xml version="1.0" standalone="yes"?>
<!-- SVG graphic -->
<svg xmlns='http://www.w3.org/2000/svg' xmlns:xlink='http://www.w3.org/1999/xlink'
 version="1.1">
<rect x="0" y="0" width="6" height="200" stroke="black" stroke-width="1" fill="blue" opacity="1" tooltip="enable"><title>(0,1191)</title></rect><rect x="6" y="15.953" width="6" height="184.047" stroke="black" stroke-width="1" fill="blue" opacity="1" tooltip="enable"><title>(0.00120984,1096)</title></rect><rect x="12" y="33.7531" width="6" height="166.247" stroke="black" stroke-width="1" fill="blue" opacity="1" tooltip="enable"><title>(0.00241968,990)</title></rect><rect x="18" y="94.7103" width="6" height="105.29" stroke="black" stroke-width="1" fill="blue" opacity="1" tooltip="enable"><title>(0.00362952,627)</title></rect><rect x="24" y="131.822" width="6" height="68.178" stroke="black" stroke-width="1" fill="blue" opacity="1" tooltip="enable"><title>(0.00483937,406)</title></rect><rect x="30" y="159.866" width="6" height="40.1343" stroke="black" stroke-width="1" fill="blue" opacity="1" tooltip="enable"><title>(0.00604921,239)</title></rect><rect x="36" y="168.43" width="6" height="31.5701" stroke="black" stroke-width="1" fill="blue" opacity="1" tooltip="enable"><title>(0.00725905,188)</title></rect><rect x="42" y="171.453" width="6" height="28.5474" stroke="black" stroke-width="1" fill="blue" opacity="1" tooltip="enable"><title>(0.00846889,170)</title></rect><rect x="48" y="174.307" width="6" height="25.6927" stroke="black" stroke-width="1" fill="blue" opacity="1" tooltip="enable"><title>(0.00967873,153)</title></rect><rect x="54" y="179.681" width="6" height="20.3191" stroke="black" stroke-width="1" fill="blue" opacity="1" tooltip="enable"><title>(0.0108886,121)</title></rect><rect x="60" y="176.322" width="6" height="23.6776" stroke="black" stroke-width="1" fill="blue" opacity="1" tooltip="enable"><title>(0.0120984,141)</title></rect><rect x="66" y="177.162" width="6" height="22.838" stroke="black" stroke-width="1" fill="blue" opacity="1" tooltip="enable"><title>(0.0133083,136)</title></rect><rect x="72" y="179.513" width="6" height="20.487" stroke="black" stroke-width="1" fill="blue" opacity="1" tooltip="enable"><title>(0.0145181,122)</title></rect><rect x="78" y="178.505" width="6" height="21.4945" stroke="black" stroke-width="1" fill="blue" opacity="1" tooltip="enable"><title>(0.0157279,128)</title></rect><rect x="84" y="181.36" width="6" height="18.6398" stroke="black" stroke-width="1" fill="blue" opacity="1" tooltip="enable"><title>(0.0169378,111)</title></rect><rect x="90" y="178.338" width="6" height="21.6625" stroke="black" stroke-width="1" fill="blue" opacity="1" tooltip="enable"><title>(0.0181476,129)</title></rect><rect x="96" y="179.345" width="6" height="20.6549" stroke="black" stroke-width="1" fill="blue" opacity="1" tooltip="enable"><title>(0.0193575,123)</title></rect><rect x="102" y="173.971" width="6" height="26.0285" stroke="black" stroke-width="1" fill="blue" opacity="1" tooltip="enable"><title>(0.0205673,155)</title></rect><rect x="108" y="178.17" width="6" height="21.8304" stroke="black" stroke-width="1" fill="blue" opacity="1" tooltip="enable"><title>(0.0217771,130)</title></rect><rect x="114" y="184.719" width="6" height="15.2813" stroke="black" stroke-width="1" fill="blue" opacity="1" tooltip="enable"><title>(0.022987,91)</title></rect><rect x="120" y="186.398" width="6" height="13.602" stroke="black" stroke-width="1" fill="blue" opacity="1" tooltip="enable"><title>(0.0241968,81)</title></rect><rect x="126" y="183.375" width="6" height="16.6247" stroke="black" stroke-width="1" fill="blue" opacity="1" tooltip="enable"><title>(0.0254067,99)</title></rect><rect x="132" y="185.39" width="6" height="14.6096" stroke="black" stroke-width="1" fill="blue" opacity="1" tooltip="enable"><title>(0.0266165,87)</title></rect><rect x="138" y="185.726" width="6" height="14.2737" stroke="black" stroke-width="1" fill="blue" opacity="1" tooltip="enable"><title>(0.0278264,85)</title></rect><rect x="144" y="184.887" width="6" height="15.1134" stroke="black" stroke-width="1" fill="blue" opacity="1" tooltip="enable"><title>(0.0290362,90)</title></rect><rect x="150" y="187.07" width="6" height="12.9303" stroke="black" stroke-width="1" fill="blue" opacity="1" tooltip="enable"><title>(0.030246,77)</title></rect><rect x="156" y="183.543" width="6" height="16.4568" stroke="black" stroke-width="1" fill="blue" opacity="1" tooltip="enable"><title>(0.0314559,98)</title></rect><rect x="162" y="185.223" width="6" height="14.7775" stroke="black" stroke-width="1" fill="blue" opacity="1" tooltip="enable"><title>(0.0326657,88)</title></rect><rect x="168" y="185.223" width="6" height="14.7775" stroke="black" stroke-width="1" fill="blue" opacity="1" tooltip="enable"><title>(0.0338756,88)</title></rect><rect x="174" y="183.207" width="6" height="16.7926" stroke="black" stroke-width="1" fill="blue" opacity="1" tooltip="enable"><title>(0.0350854,100)</title></rect><rect x="180" y="189.757" width="6" height="10.2435" stroke="black" stroke-width="1" fill="blue" opacity="1" tooltip="enable"><title>(0.0362953,61)</title></rect><rect x="186" y="192.443" width="6" height="7.55668" stroke="black" stroke-width="1" fill="blue" opacity="1" tooltip="enable"><title>(0.0375051,45)</title></rect><rect x="192" y="187.07" width="6" height="12.9303" stroke="black" stroke-width="1" fill="blue" opacity="1" tooltip="enable"><title>(0.0387149,77)</title></rect><rect x="198" y="192.611" width="6" height="7.38875" stroke="black" stroke-width="1" fill="blue" opacity="1" tooltip="enable"><title>(0.0399248,44)</title></rect><rect x="204" y="191.1" width="6" height="8.90008" stroke="black" stroke-width="1" fill="blue" opacity="1" tooltip="enable"><title>(0.0411346,53)</title></rect><rect x="210" y="192.947" width="6" height="7.0529" stroke="black" stroke-width="1" fill="blue" opacity="1" tooltip="enable"><title>(0.0423445,42)</title></rect><rect x="216" y="191.772" width="6" height="8.22838" stroke="black" stroke-width="1" fill="blue" opacity="1" tooltip="enable"><title>(0.0435543,49)</title></rect><rect x="222" y="197.481" width="6" height="2.51889" stroke="black" stroke-width="1" fill="blue" opacity="1" tooltip="enable"><title>(0.0447641,15)</title></rect><rect x="228" y="197.817" width="6" height="2.18304" stroke="black" stroke-width="1" fill="blue" opacity="1" tooltip="enable"><title>(0.045974,13)</title></rect><rect x="234" y="195.466" width="6" height="4.53401" stroke="black" stroke-width="1" fill="blue" opacity="1" tooltip="enable"><title>(0.0471838,27)</title></rect><rect x="240" y="197.145" width="6" height="2.85474" stroke="black" stroke-width="1" fill="blue" opacity="1" tooltip="enable"><title>(0.0483937,17)</title></rect><rect x="246" y="198.153" width="6" height="1.84719" stroke="black" stroke-width="1" fill="blue" opacity="1" tooltip="enable"><title>(0.0496035,11)</title></rect><rect x="252" y="196.641" width="6" height="3.35852" stroke="black" stroke-width="1" fill="blue" opacity="1" tooltip="enable"><title>(0.0508133,20)</title></rect><rect x="258" y="198.992" width="6" height="1.00756" stroke="black" stroke-width="1" fill="blue" opacity="1" tooltip="enable"><title>(0.0520232,6)</title></rect><rect x="264" y="197.313" width="6" height="2.68682" stroke="black" stroke-width="1" fill="blue" opacity="1" tooltip="enable"><title>(0.053233,16)</title></rect><rect x="270" y="198.321" width="6" height="1.67926" stroke="black" stroke-width="1" fill="blue" opacity="1" tooltip="enable"><title>(0.0544429,10)</title></rect><rect x="276" y="197.985" width="6" height="2.01511" stroke="black" stroke-width="1" fill="blue" opacity="1" tooltip="enable"><title>(0.0556527,12)</title></rect><rect x="282" y="198.321" width="6" height="1.67926" stroke="black" stroke-width="1" fill="blue" opacity="1" tooltip="enable"><title>(0.0568626,10)</title></rect><rect x="288" y="197.985" width="6" height="2.01511" stroke="black" stroke-width="1" fill="blue" opacity="1" tooltip="enable"><title>(0.0580724,12)</title></rect><rect x="294" y="199.328" width="6" height="0.671704" stroke="black" stroke-width="1" fill="blue" opacity="1" tooltip="enable"><title>(0.0592822,4)</title></rect><rect x="300" y="197.649" width="6" height="2.35097" stroke="black" stroke-width="1" fill="blue" opacity="1" tooltip="enable"><title>(0.0604921,14)</title></rect><rect x="306" y="199.328" width="6" height="0.671704" stroke="black" stroke-width="1" fill="blue" opacity="1" tooltip="enable"><title>(0.0617019,4)</title></rect><rect x="312" y="198.657" width="6" height="1.34341" stroke="black" stroke-width="1" fill="blue" opacity="1" tooltip="enable"><title>(0.0629118,8)</title></rect><rect x="318" y="199.328" width="6" height="0.671704" stroke="black" stroke-width="1" fill="blue" opacity="1" tooltip="enable"><title>(0.0641216,4)</title></rect><rect x="324" y="198.992" width="6" height="1.00756" stroke="black" stroke-width="1" fill="blue" opacity="1" tooltip="enable"><title>(0.0653315,6)</title></rect><rect x="330" y="198.657" width="6" height="1.34341" stroke="black" stroke-width="1" fill="blue" opacity="1" tooltip="enable"><title>(0.0665413,8)</title></rect><rect x="336" y="199.328" width="6" height="0.671704" stroke="black" stroke-width="1" fill="blue" opacity="1" tooltip="enable"><title>(0.0677511,4)</title></rect><rect x="342" y="198.321" width="6" height="1.67926" stroke="black" stroke-width="1" fill="blue" opacity="1" tooltip="enable"><title>(0.068961,10)</title></rect><rect x="348" y="198.825" width="6" height="1.17548" stroke="black" stroke-width="1" fill="blue" opacity="1" tooltip="enable"><title>(0.0701708,7)</title></rect><rect x="354" y="199.16" width="6" height="0.839631" stroke="black" stroke-width="1" fill="blue" opacity="1" tooltip="enable"><title>(0.0713807,5)</title></rect><rect x="360" y="199.664" width="6" height="0.335852" stroke="black" stroke-width="1" fill="blue" opacity="1" tooltip="enable"><title>(0.0725905,2)</title></rect><rect x="366" y="199.496" width="6" height="0.503778" stroke="black" stroke-width="1" fill="blue" opacity="1" tooltip="enable"><title>(0.0738003,3)</title></rect><rect x="372" y="199.496" width="6" height="0.503778" stroke="black" stroke-width="1" fill="blue" opacity="1" tooltip="enable"><title>(0.0750102,3)</title></rect><rect x="378" y="198.992" width="6" height="1.00756" stroke="black" stroke-width="1" fill="blue" opacity="1" tooltip="enable"><title>(0.07622,6)</title></rect><rect x="384" y="200" width="6" height="0" stroke="black" stroke-width="1" fill="blue" opacity="1" tooltip="enable"><title>(0.0774299,0)</title></rect><rect x="390" y="199.328" width="6" height="0.671704" stroke="black" stroke-width="1" fill="blue" opacity="1" tooltip="enable"><title>(0.0786397,4)</title></rect><rect x="396" y="199.328" width="6" height="0.671704" stroke="black" stroke-width="1" fill="blue" opacity="1" tooltip="enable"><title>(0.0798495,4)</title></rect><rect x="402" y="199.328" width="6" height="0.671704" stroke="black" stroke-width="1" fill="blue" opacity="1" tooltip="enable"><title>(0.0810594,4)</title></rect><rect x="408" y="199.328" width="6" height="0.671704" stroke="black" stroke-width="1" fill="blue" opacity="1" tooltip="enable"><title>(0.0822692,4)</title></rect><rect x="414" y="199.664" width="6" height="0.335852" stroke="black" stroke-width="1" fill="blue" opacity="1" tooltip="enable"><title>(0.0834791,2)</title></rect><rect x="420" y="200" width="6" height="0" stroke="black" stroke-width="1" fill="blue" opacity="1" tooltip="enable"><title>(0.0846889,0)</title></rect><rect x="426" y="199.664" width="6" height="0.335852" stroke="black" stroke-width="1" fill="blue" opacity="1" tooltip="enable"><title>(0.0858987,2)</title></rect><rect x="432" y="200" width="6" height="0" stroke="black" stroke-width="1" fill="blue" opacity="1" tooltip="enable"><title>(0.0871086,0)</title></rect><rect x="438" y="199.664" width="6" height="0.335852" stroke="black" stroke-width="1" fill="blue" opacity="1" tooltip="enable"><title>(0.0883184,2)</title></rect><rect x="444" y="200" width="6" height="0" stroke="black" stroke-width="1" fill="blue" opacity="1" tooltip="enable"><title>(0.0895283,0)</title></rect><rect x="450" y="199.664" width="6" height="0.335852" stroke="black" stroke-width="1" fill="blue" opacity="1" tooltip="enable"><title>(0.0907381,2)</title></rect><rect x="456" y="200" width="6" height="0" stroke="black" stroke-width="1" fill="blue" opacity="1" tooltip="enable"><title>(0.091948,0)</title></rect><rect x="462" y="200" width="6" height="0" stroke="black" stroke-width="1" fill="blue" opacity="1" tooltip="enable"><title>(0.0931578,0)</title></rect><rect x="468" y="199.664" width="6" height="0.335852" stroke="black" stroke-width="1" fill="blue" opacity="1" tooltip="enable"><title>(0.0943676,2)</title></rect><rect x="474" y="199.664" width="6" height="0.335852" stroke="black" stroke-width="1" fill="blue" opacity="1" tooltip="enable"><title>(0.0955775,2)</title></rect><rect x="480" y="200" width="6" height="0" stroke="black" stroke-width="1" fill="blue" opacity="1" tooltip="enable"><title>(0.0967873,0)</title></rect><rect x="486" y="199.664" width="6" height="0.335852" stroke="black" stroke-width="1" fill="blue" opacity="1" tooltip="enable"><title>(0.0979972,2)</title></rect><rect x="492" y="200" width="6" height="0" stroke="black" stroke-width="1" fill="blue" opacity="1" tooltip="enable"><title>(0.099207,0)</title></rect><rect x="498" y="200" width="6" height="0" stroke="black" stroke-width="1" fill="blue" opacity="1" tooltip="enable"><title>(0.100417,0)</title></rect><rect x="504" y="200" width="6" height="0" stroke="black" stroke-width="1" fill="blue" opacity="1" tooltip="enable"><title>(0.101627,0)</title></rect><rect x="510" y="200" width="6" height="0" stroke="black" stroke-width="1" fill="blue" opacity="1" tooltip="enable"><title>(0.102837,0)</title></rect><rect x="516" y="200" width="6" height="0" stroke="black" stroke-width="1" fill="blue" opacity="1" tooltip="enable"><title>(0.104046,0)</title></rect><rect x="522" y="200" width="6" height="0" stroke="black" stroke-width="1" fill="blue" opacity="1" tooltip="enable"><title>(0.105256,0)</title></rect><rect x="528" y="200" width="6" height="0" stroke="black" stroke-width="1" fill="blue" opacity="1" tooltip="enable"><title>(0.106466,0)</title></rect><rect x="534" y="200" width="6" height="0" stroke="black" stroke-width="1" fill="blue" opacity="1" tooltip="enable"><title>(0.107676,0)</title></rect><rect x="540" y="200" width="6" height="0" stroke="black" stroke-width="1" fill="blue" opacity="1" tooltip="enable"><title>(0.108886,0)</title></rect><rect x="546" y="200" width="6" height="0" stroke="black" stroke-width="1" fill="blue" opacity="1" tooltip="enable"><title>(0.110096,0)</title></rect><rect x="552" y="200" width="6" height="0" stroke="black" stroke-width="1" fill="blue" opacity="1" tooltip="enable"><title>(0.111305,0)</title></rect><rect x="558" y="200" width="6" height="0" stroke="black" stroke-width="1" fill="blue" opacity="1" tooltip="enable"><title>(0.112515,0)</title></rect><rect x="564" y="200" width="6" height="0" stroke="black" stroke-width="1" fill="blue" opacity="1" tooltip="enable"><title>(0.113725,0)</title></rect><rect x="570" y="200" width="6" height="0" stroke="black" stroke-width="1" fill="blue" opacity="1" tooltip="enable"><title>(0.114935,0)</title></rect><rect x="576" y="200" width="6" height="0" stroke="black" stroke-width="1" fill="blue" opacity="1" tooltip="enable"><title>(0.116145,0)</title></rect><rect x="582" y="200" width="6" height="0" stroke="black" stroke-width="1" fill="blue" opacity="1" tooltip="enable"><title>(0.117355,0)</title></rect><rect x="588" y="200" width="6" height="0" stroke="black" stroke-width="1" fill="blue" opacity="1" tooltip="enable"><title>(0.118564,0)</title></rect><rect x="594" y="199.832" width="6" height="0.167926" stroke="black" stroke-width="1" fill="blue" opacity="1" tooltip="enable"><title>(0.119774,1)</title></rect><text x="30" y="240" font-size="20" fill="black">0</text>
<text x="600" y="240" font-size="20" fill="black">0.120984</text>
<polyline points="0,220,600,220" stroke="black" stroke-width="1" fill="none" opacity="1"/>
<text x="720" y="20" font-size="20" fill="black">1191</text>
<text x="720" y="200" font-size="20" fill="black">0</text>
<polyline points="660,0,660,200" stroke="black" stroke-width="1" fill="none" opacity="1"/>
</svg>