<?xml version="1.0" standalone="yes"?>
<!-- SVG graphic -->
<svg xmlns='http://www.w3.org/2000/svg' xmlns:xlink='http://www.w3.org/1999/xlink'
 version="1.1">
<rect x="0" y="0" width="6" height="200" stroke="black" stroke-width="1" fill="blue" opacity="1" tooltip="enable"><title>(0,1868)</title></rect><rect x="6" y="35.8672" width="6" height="164.133" stroke="black" stroke-width="1" fill="blue" opacity="1" tooltip="enable"><title>(0.00174715,1533)</title></rect><rect x="12" y="90.7923" width="6" height="109.208" stroke="black" stroke-width="1" fill="blue" opacity="1" tooltip="enable"><title>(0.0034943,1020)</title></rect><rect x="18" y="150.428" width="6" height="49.5717" stroke="black" stroke-width="1" fill="blue" opacity="1" tooltip="enable"><title>(0.00524144,463)</title></rect><rect x="24" y="169.807" width="6" height="30.1927" stroke="black" stroke-width="1" fill="blue" opacity="1" tooltip="enable"><title>(0.00698859,282)</title></rect><rect x="30" y="173.662" width="6" height="26.3383" stroke="black" stroke-width="1" fill="blue" opacity="1" tooltip="enable"><title>(0.00873574,246)</title></rect><rect x="36" y="172.591" width="6" height="27.409" stroke="black" stroke-width="1" fill="blue" opacity="1" tooltip="enable"><title>(0.0104829,256)</title></rect><rect x="42" y="177.944" width="6" height="22.0557" stroke="black" stroke-width="1" fill="blue" opacity="1" tooltip="enable"><title>(0.01223,206)</title></rect><rect x="48" y="178.587" width="6" height="21.4133" stroke="black" stroke-width="1" fill="blue" opacity="1" tooltip="enable"><title>(0.0139772,200)</title></rect><rect x="54" y="179.872" width="6" height="20.1285" stroke="black" stroke-width="1" fill="blue" opacity="1" tooltip="enable"><title>(0.0157243,188)</title></rect><rect x="60" y="180.193" width="6" height="19.8073" stroke="black" stroke-width="1" fill="blue" opacity="1" tooltip="enable"><title>(0.0174715,185)</title></rect><rect x="66" y="178.373" width="6" height="21.6274" stroke="black" stroke-width="1" fill="blue" opacity="1" tooltip="enable"><title>(0.0192186,202)</title></rect><rect x="72" y="178.908" width="6" height="21.0921" stroke="black" stroke-width="1" fill="blue" opacity="1" tooltip="enable"><title>(0.0209658,197)</title></rect><rect x="78" y="181.906" width="6" height="18.0942" stroke="black" stroke-width="1" fill="blue" opacity="1" tooltip="enable"><title>(0.0227129,169)</title></rect><rect x="84" y="181.906" width="6" height="18.0942" stroke="black" stroke-width="1" fill="blue" opacity="1" tooltip="enable"><title>(0.0244601,169)</title></rect><rect x="90" y="182.548" width="6" height="17.4518" stroke="black" stroke-width="1" fill="blue" opacity="1" tooltip="enable"><title>(0.0262072,163)</title></rect><rect x="96" y="186.081" width="6" height="13.9186" stroke="black" stroke-width="1" fill="blue" opacity="1" tooltip="enable"><title>(0.0279544,130)</title></rect><rect x="102" y="189.722" width="6" height="10.2784" stroke="black" stroke-width="1" fill="blue" opacity="1" tooltip="enable"><title>(0.0297015,96)</title></rect><rect x="108" y="190.471" width="6" height="9.52891" stroke="black" stroke-width="1" fill="blue" opacity="1" tooltip="enable"><title>(0.0314487,89)</title></rect><rect x="114" y="191.97" width="6" height="8.02998" stroke="black" stroke-width="1" fill="blue" opacity="1" tooltip="enable"><title>(0.0331958,75)</title></rect><rect x="120" y="193.362" width="6" height="6.63812" stroke="black" stroke-width="1" fill="blue" opacity="1" tooltip="enable"><title>(0.034943,62)</title></rect><rect x="126" y="195.931" width="6" height="4.06852" stroke="black" stroke-width="1" fill="blue" opacity="1" tooltip="enable"><title>(0.0366901,38)</title></rect><rect x="132" y="196.467" width="6" height="3.53319" stroke="black" stroke-width="1" fill="blue" opacity="1" tooltip="enable"><title>(0.0384373,33)</title></rect><rect x="138" y="198.073" width="6" height="1.92719" stroke="black" stroke-width="1" fill="blue" opacity="1" tooltip="enable"><title>(0.0401844,18)</title></rect><rect x="144" y="197.216" width="6" height="2.78373" stroke="black" stroke-width="1" fill="blue" opacity="1" tooltip="enable"><title>(0.0419316,26)</title></rect><rect x="150" y="198.929" width="6" height="1.07066" stroke="black" stroke-width="1" fill="blue" opacity="1" tooltip="enable"><title>(0.0436787,10)</title></rect><rect x="156" y="197.43" width="6" height="2.56959" stroke="black" stroke-width="1" fill="blue" opacity="1" tooltip="enable"><title>(0.0454259,24)</title></rect><rect x="162" y="198.715" width="6" height="1.2848" stroke="black" stroke-width="1" fill="blue" opacity="1" tooltip="enable"><title>(0.047173,12)</title></rect><rect x="168" y="197.859" width="6" height="2.14133" stroke="black" stroke-width="1" fill="blue" opacity="1" tooltip="enable"><title>(0.0489202,20)</title></rect><rect x="174" y="199.358" width="6" height="0.642398" stroke="black" stroke-width="1" fill="blue" opacity="1" tooltip="enable"><title>(0.0506673,6)</title></rect><rect x="180" y="199.786" width="6" height="0.214133" stroke="black" stroke-width="1" fill="blue" opacity="1" tooltip="enable"><title>(0.0524144,2)</title></rect><rect x="186" y="199.465" width="6" height="0.535332" stroke="black" stroke-width="1" fill="blue" opacity="1" tooltip="enable"><title>(0.0541616,5)</title></rect><rect x="192" y="199.679" width="6" height="0.321199" stroke="black" stroke-width="1" fill="blue" opacity="1" tooltip="enable"><title>(0.0559087,3)</title></rect><rect x="198" y="200" width="6" height="0" stroke="black" stroke-width="1" fill="blue" opacity="1" tooltip="enable"><title>(0.0576559,0)</title></rect><rect x="204" y="199.786" width="6" height="0.214133" stroke="black" stroke-width="1" fill="blue" opacity="1" tooltip="enable"><title>(0.059403,2)</title></rect><rect x="210" y="200" width="6" height="0" stroke="black" stroke-width="1" fill="blue" opacity="1" tooltip="enable"><title>(0.0611502,0)</title></rect><rect x="216" y="200" width="6" height="0" stroke="black" stroke-width="1" fill="blue" opacity="1" tooltip="enable"><title>(0.0628973,0)</title></rect><rect x="222" y="200" width="6" height="0" stroke="black" stroke-width="1" fill="blue" opacity="1" tooltip="enable"><title>(0.0646445,0)</title></rect><rect x="228" y="200" width="6" height="0" stroke="black" stroke-width="1" fill="blue" opacity="1" tooltip="enable"><title>(0.0663916,0)</title></rect><rect x="234" y="200" width="6" height="0" stroke="black" stroke-width="1" fill="blue" opacity="1" tooltip="enable"><title>(0.0681388,0)</title></rect><rect x="240" y="200" width="6" height="0" stroke="black" stroke-width="1" fill="blue" opacity="1" tooltip="enable"><title>(0.0698859,0)</title></rect><rect x="246" y="200" width="6" height="0" stroke="black" stroke-width="1" fill="blue" opacity="1" tooltip="enable"><title>(0.0716331,0)</title></rect><rect x="252" y="200" width="6" height="0" stroke="black" stroke-width="1" fill="blue" opacity="1" tooltip="enable"><title>(0.0733802,0)</title></rect><rect x="258" y="200" width="6" height="0" stroke="black" stroke-width="1" fill="blue" opacity="1" tooltip="enable"><title>(0.0751274,0)</title></rect><rect x="264" y="200" width="6" height="0" stroke="black" stroke-width="1" fill="blue" opacity="1" tooltip="enable"><title>(0.0768745,0)</title></rect><rect x="270" y="200" width="6" height="0" stroke="black" stroke-width="1" fill="blue" opacity="1" tooltip="enable"><title>(0.0786217,0)</title></rect><rect x="276" y="200" width="6" height="0" stroke="black" stroke-width="1" fill="blue" opacity="1" tooltip="enable"><title>(0.0803688,0)</title></rect><rect x="282" y="200" width="6" height="0" stroke="black" stroke-width="1" fill="blue" opacity="1" tooltip="enable"><title>(0.082116,0)</title></rect><rect x="288" y="200" width="6" height="0" stroke="black" stroke-width="1" fill="blue" opacity="1" tooltip="enable"><title>(0.0838631,0)</title></rect><rect x="294" y="200" width="6" height="0" stroke="black" stroke-width="1" fill="blue" opacity="1" tooltip="enable"><title>(0.0856103,0)</title></rect><rect x="300" y="200" width="6" height="0" stroke="black" stroke-width="1" fill="blue" opacity="1" tooltip="enable"><title>(0.0873574,0)</title></rect><rect x="306" y="200" width="6" height="0" stroke="black" stroke-width="1" fill="blue" opacity="1" tooltip="enable"><title>(0.0891046,0)</title></rect><rect x="312" y="200" width="6" height="0" stroke="black" stroke-width="1" fill="blue" opacity="1" tooltip="enable"><title>(0.0908517,0)</title></rect><rect x="318" y="200" width="6" height="0" stroke="black" stroke-width="1" fill="blue" opacity="1" tooltip="enable"><title>(0.0925988,0)</title></rect><rect x="324" y="200" width="6" height="0" stroke="black" stroke-width="1" fill="blue" opacity="1" tooltip="enable"><title>(0.094346,0)</title></rect><rect x="330" y="200" width="6" height="0" stroke="black" stroke-width="1" fill="blue" opacity="1" tooltip="enable"><title>(0.0960932,0)</title></rect><rect x="336" y="200" width="6" height="0" stroke="black" stroke-width="1" fill="blue" opacity="1" tooltip="enable"><title>(0.0978403,0)</title></rect><rect x="342" y="200" width="6" height="0" stroke="black" stroke-width="1" fill="blue" opacity="1" tooltip="enable"><title>(0.0995874,0)</title></rect><rect x="348" y="200" width="6" height="0" stroke="black" stroke-width="1" fill="blue" opacity="1" tooltip="enable"><title>(0.101335,0)</title></rect><rect x="354" y="200" width="6" height="0" stroke="black" stroke-width="1" fill="blue" opacity="1" tooltip="enable"><title>(0.103082,0)</title></rect><rect x="360" y="200" width="6" height="0" stroke="black" stroke-width="1" fill="blue" opacity="1" tooltip="enable"><title>(0.104829,0)</title></rect><rect x="366" y="200" width="6" height="0" stroke="black" stroke-width="1" fill="blue" opacity="1" tooltip="enable"><title>(0.106576,0)</title></rect><rect x="372" y="200" width="6" height="0" stroke="black" stroke-width="1" fill="blue" opacity="1" tooltip="enable"><title>(0.108323,0)</title></rect><rect x="378" y="200" width="6" height="0" stroke="black" stroke-width="1" fill="blue" opacity="1" tooltip="enable"><title>(0.11007,0)</title></rect><rect x="384" y="200" width="6" height="0" stroke="black" stroke-width="1" fill="blue" opacity="1" tooltip="enable"><title>(0.111817,0)</title></rect><rect x="390" y="200" width="6" height="0" stroke="black" stroke-width="1" fill="blue" opacity="1" tooltip="enable"><title>(0.113565,0)</title></rect><rect x="396" y="200" width="6" height="0" stroke="black" stroke-width="1" fill="blue" opacity="1" tooltip="enable"><title>(0.115312,0)</title></rect><rect x="402" y="200" width="6" height="0" stroke="black" stroke-width="1" fill="blue" opacity="1" tooltip="enable"><title>(0.117059,0)</title></rect><rect x="408" y="200" width="6" height="0" stroke="black" stroke-width="1" fill="blue" opacity="1" tooltip="enable"><title>(0.118806,0)</title></rect><rect x="414" y="200" width="6" height="0" stroke="black" stroke-width="1" fill="blue" opacity="1" tooltip="enable"><title>(0.120553,0)</title></rect><rect x="420" y="200" width="6" height="0" stroke="black" stroke-width="1" fill="blue" opacity="1" tooltip="enable"><title>(0.1223,0)</title></rect><rect x="426" y="200" width="6" height="0" stroke="black" stroke-width="1" fill="blue" opacity="1" tooltip="enable"><title>(0.124048,0)</title></rect><rect x="432" y="200" width="6" height="0" stroke="black" stroke-width="1" fill="blue" opacity="1" tooltip="enable"><title>(0.125795,0)</title></rect><rect x="438" y="200" width="6" height="0" stroke="black" stroke-width="1" fill="blue" opacity="1" tooltip="enable"><title>(0.127542,0)</title></rect><rect x="444" y="200" width="6" height="0" stroke="black" stroke-width="1" fill="blue" opacity="1" tooltip="enable"><title>(0.129289,0)</title></rect><rect x="450" y="200" width="6" height="0" stroke="black" stroke-width="1" fill="blue" opacity="1" tooltip="enable"><title>(0.131036,0)</title></rect><rect x="456" y="200" width="6" height="0" stroke="black" stroke-width="1" fill="blue" opacity="1" tooltip="enable"><title>(0.132783,0)</title></rect><rect x="462" y="200" width="6" height="0" stroke="black" stroke-width="1" fill="blue" opacity="1" tooltip="enable"><title>(0.13453,0)</title></rect><rect x="468" y="200" width="6" height="0" stroke="black" stroke-width="1" fill="blue" opacity="1" tooltip="enable"><title>(0.136278,0)</title></rect><rect x="474" y="200" width="6" height="0" stroke="black" stroke-width="1" fill="blue" opacity="1" tooltip="enable"><title>(0.138025,0)</title></rect><rect x="480" y="200" width="6" height="0" stroke="black" stroke-width="1" fill="blue" opacity="1" tooltip="enable"><title>(0.139772,0)</title></rect><rect x="486" y="200" width="6" height="0" stroke="black" stroke-width="1" fill="blue" opacity="1" tooltip="enable"><title>(0.141519,0)</title></rect><rect x="492" y="200" width="6" height="0" stroke="black" stroke-width="1" fill="blue" opacity="1" tooltip="enable"><title>(0.143266,0)</title></rect><rect x="498" y="200" width="6" height="0" stroke="black" stroke-width="1" fill="blue" opacity="1" tooltip="enable"><title>(0.145013,0)</title></rect><rect x="504" y="200" width="6" height="0" stroke="black" stroke-width="1" fill="blue" opacity="1" tooltip="enable"><title>(0.14676,0)</title></rect><rect x="510" y="200" width="6" height="0" stroke="black" stroke-width="1" fill="blue" opacity="1" tooltip="enable"><title>(0.148508,0)</title></rect><rect x="516" y="200" width="6" height="0" stroke="black" stroke-width="1" fill="blue" opacity="1" tooltip="enable"><title>(0.150255,0)</title></rect><rect x="522" y="200" width="6" height="0" stroke="black" stroke-width="1" fill="blue" opacity="1" tooltip="enable"><title>(0.152002,0)</title></rect><rect x="528" y="200" width="6" height="0" stroke="black" stroke-width="1" fill="blue" opacity="1" tooltip="enable"><title>(0.153749,0)</title></rect><rect x="534" y="200" width="6" height="0" stroke="black" stroke-width="1" fill="blue" opacity="1" tooltip="enable"><title>(0.155496,0)</title></rect><rect x="540" y="200" width="6" height="0" stroke="black" stroke-width="1" fill="blue" opacity="1" tooltip="enable"><title>(0.157243,0)</title></rect><rect x="546" y="200" width="6" height="0" stroke="black" stroke-width="1" fill="blue" opacity="1" tooltip="enable"><title>(0.15899,0)</title></rect><rect x="552" y="200" width="6" height="0" stroke="black" stroke-width="1" fill="blue" opacity="1" tooltip="enable"><title>(0.160738,0)</title></rect><rect x="558" y="200" width="6" height="0" stroke="black" stroke-width="1" fill="blue" opacity="1" tooltip="enable"><title>(0.162485,0)</title></rect><rect x="564" y="200" width="6" height="0" stroke="black" stroke-width="1" fill="blue" opacity="1" tooltip="enable"><title>(0.164232,0)</title></rect><rect x="570" y="200" width="6" height="0" stroke="black" stroke-width="1" fill="blue" opacity="1" tooltip="enable"><title>(0.165979,0)</title></rect><rect x="576" y="200" width="6" height="0" stroke="black" stroke-width="1" fill="blue" opacity="1" tooltip="enable"><title>(0.167726,0)</title></rect><rect x="582" y="200" width="6" height="0" stroke="black" stroke-width="1" fill="blue" opacity="1" tooltip="enable"><title>(0.169473,0)</title></rect><rect x="588" y="200" width="6" height="0" stroke="black" stroke-width="1" fill="blue" opacity="1" tooltip="enable"><title>(0.171221,0)</title></rect><rect x="594" y="199.893" width="6" height="0.107066" stroke="black" stroke-width="1" fill="blue" opacity="1" tooltip="enable"><title>(0.172968,1)</title></rect><text x="30" y="240" font-size="20" fill="black">0</text>
<text x="600" y="240" font-size="20" fill="black">0.174715</text>
<polyline points="0,220,600,220" stroke="black" stroke-width="1" fill="none" opacity="1"/>
<text x="720" y="20" font-size="20" fill="black">1868</text>
<text x="720" y="200" font-size="20" fill="black">0</text>
<polyline points="660,0,660,200" stroke="black" stroke-width="1" fill="none" opacity="1"/>
</svg>