<?xml version="1.0" standalone="yes"?>
<!-- SVG graphic -->
<svg xmlns='http://www.w3.org/2000/svg' xmlns:xlink='http://www.w3.org/1999/xlink'
 version="1.1">
<rect x="0" y="0" width="6" height="200" stroke="black" stroke-width="1" fill="blue" opacity="1" tooltip="enable"><title>(0,1726)</title></rect><rect x="6" y="23.2908" width="6" height="176.709" stroke="black" stroke-width="1" fill="blue" opacity="1" tooltip="enable"><title>(0.00134402,1525)</title></rect><rect x="12" y="87.8331" width="6" height="112.167" stroke="black" stroke-width="1" fill="blue" opacity="1" tooltip="enable"><title>(0.00268805,968)</title></rect><rect x="18" y="161.993" width="6" height="38.007" stroke="black" stroke-width="1" fill="blue" opacity="1" tooltip="enable"><title>(0.00403207,328)</title></rect><rect x="24" y="183.43" width="6" height="16.5701" stroke="black" stroke-width="1" fill="blue" opacity="1" tooltip="enable"><title>(0.0053761,143)</title></rect><rect x="30" y="186.559" width="6" height="13.4415" stroke="black" stroke-width="1" fill="blue" opacity="1" tooltip="enable"><title>(0.00672012,116)</title></rect><rect x="36" y="181.924" width="6" height="18.0765" stroke="black" stroke-width="1" fill="blue" opacity="1" tooltip="enable"><title>(0.00806415,156)</title></rect><rect x="42" y="181.46" width="6" height="18.54" stroke="black" stroke-width="1" fill="blue" opacity="1" tooltip="enable"><title>(0.00940817,160)</title></rect><rect x="48" y="182.735" width="6" height="17.2654" stroke="black" stroke-width="1" fill="blue" opacity="1" tooltip="enable"><title>(0.0107522,149)</title></rect><rect x="54" y="186.211" width="6" height="13.7891" stroke="black" stroke-width="1" fill="blue" opacity="1" tooltip="enable"><title>(0.0120962,119)</title></rect><rect x="60" y="181.576" width="6" height="18.4241" stroke="black" stroke-width="1" fill="blue" opacity="1" tooltip="enable"><title>(0.0134402,159)</title></rect><rect x="66" y="185.284" width="6" height="14.7161" stroke="black" stroke-width="1" fill="blue" opacity="1" tooltip="enable"><title>(0.0147843,127)</title></rect><rect x="72" y="182.155" width="6" height="17.8447" stroke="black" stroke-width="1" fill="blue" opacity="1" tooltip="enable"><title>(0.0161283,154)</title></rect><rect x="78" y="187.138" width="6" height="12.8621" stroke="black" stroke-width="1" fill="blue" opacity="1" tooltip="enable"><title>(0.0174723,111)</title></rect><rect x="84" y="185.863" width="6" height="14.1367" stroke="black" stroke-width="1" fill="blue" opacity="1" tooltip="enable"><title>(0.0188163,122)</title></rect><rect x="90" y="185.979" width="6" height="14.0209" stroke="black" stroke-width="1" fill="blue" opacity="1" tooltip="enable"><title>(0.0201604,121)</title></rect><rect x="96" y="183.198" width="6" height="16.8019" stroke="black" stroke-width="1" fill="blue" opacity="1" tooltip="enable"><title>(0.0215044,145)</title></rect><rect x="102" y="183.198" width="6" height="16.8019" stroke="black" stroke-width="1" fill="blue" opacity="1" tooltip="enable"><title>(0.0228484,145)</title></rect><rect x="108" y="182.387" width="6" height="17.613" stroke="black" stroke-width="1" fill="blue" opacity="1" tooltip="enable"><title>(0.0241924,152)</title></rect><rect x="114" y="186.559" width="6" height="13.4415" stroke="black" stroke-width="1" fill="blue" opacity="1" tooltip="enable"><title>(0.0255365,116)</title></rect><rect x="120" y="186.327" width="6" height="13.6732" stroke="black" stroke-width="1" fill="blue" opacity="1" tooltip="enable"><title>(0.0268805,118)</title></rect><rect x="126" y="188.992" width="6" height="11.0081" stroke="black" stroke-width="1" fill="blue" opacity="1" tooltip="enable"><title>(0.0282245,95)</title></rect><rect x="132" y="185.516" width="6" height="14.4844" stroke="black" stroke-width="1" fill="blue" opacity="1" tooltip="enable"><title>(0.0295685,125)</title></rect><rect x="138" y="189.108" width="6" height="10.8922" stroke="black" stroke-width="1" fill="blue" opacity="1" tooltip="enable"><title>(0.0309126,94)</title></rect><rect x="144" y="187.486" width="6" height="12.5145" stroke="black" stroke-width="1" fill="blue" opacity="1" tooltip="enable"><title>(0.0322566,108)</title></rect><rect x="150" y="191.425" width="6" height="8.57474" stroke="black" stroke-width="1" fill="blue" opacity="1" tooltip="enable"><title>(0.0336006,74)</title></rect><rect x="156" y="187.486" width="6" height="12.5145" stroke="black" stroke-width="1" fill="blue" opacity="1" tooltip="enable"><title>(0.0349446,108)</title></rect><rect x="162" y="190.846" width="6" height="9.15411" stroke="black" stroke-width="1" fill="blue" opacity="1" tooltip="enable"><title>(0.0362887,79)</title></rect><rect x="168" y="193.395" width="6" height="6.60487" stroke="black" stroke-width="1" fill="blue" opacity="1" tooltip="enable"><title>(0.0376327,57)</title></rect><rect x="174" y="194.206" width="6" height="5.79374" stroke="black" stroke-width="1" fill="blue" opacity="1" tooltip="enable"><title>(0.0389767,50)</title></rect><rect x="180" y="193.627" width="6" height="6.37312" stroke="black" stroke-width="1" fill="blue" opacity="1" tooltip="enable"><title>(0.0403207,55)</title></rect><rect x="186" y="197.103" width="6" height="2.89687" stroke="black" stroke-width="1" fill="blue" opacity="1" tooltip="enable"><title>(0.0416648,25)</title></rect><rect x="192" y="195.017" width="6" height="4.98262" stroke="black" stroke-width="1" fill="blue" opacity="1" tooltip="enable"><title>(0.0430088,43)</title></rect><rect x="198" y="195.597" width="6" height="4.40324" stroke="black" stroke-width="1" fill="blue" opacity="1" tooltip="enable"><title>(0.0443528,38)</title></rect><rect x="204" y="196.871" width="6" height="3.12862" stroke="black" stroke-width="1" fill="blue" opacity="1" tooltip="enable"><title>(0.0456968,27)</title></rect><rect x="210" y="197.682" width="6" height="2.3175" stroke="black" stroke-width="1" fill="blue" opacity="1" tooltip="enable"><title>(0.0470408,20)</title></rect><rect x="216" y="197.682" width="6" height="2.3175" stroke="black" stroke-width="1" fill="blue" opacity="1" tooltip="enable"><title>(0.0483849,20)</title></rect><rect x="222" y="197.219" width="6" height="2.781" stroke="black" stroke-width="1" fill="blue" opacity="1" tooltip="enable"><title>(0.0497289,24)</title></rect><rect x="228" y="196.64" width="6" height="3.36037" stroke="black" stroke-width="1" fill="blue" opacity="1" tooltip="enable"><title>(0.0510729,29)</title></rect><rect x="234" y="198.262" width="6" height="1.73812" stroke="black" stroke-width="1" fill="blue" opacity="1" tooltip="enable"><title>(0.0524169,15)</title></rect><rect x="240" y="199.305" width="6" height="0.695249" stroke="black" stroke-width="1" fill="blue" opacity="1" tooltip="enable"><title>(0.053761,6)</title></rect><rect x="246" y="199.073" width="6" height="0.926999" stroke="black" stroke-width="1" fill="blue" opacity="1" tooltip="enable"><title>(0.055105,8)</title></rect><rect x="252" y="199.421" width="6" height="0.579374" stroke="black" stroke-width="1" fill="blue" opacity="1" tooltip="enable"><title>(0.056449,5)</title></rect><rect x="258" y="198.957" width="6" height="1.04287" stroke="black" stroke-width="1" fill="blue" opacity="1" tooltip="enable"><title>(0.057793,9)</title></rect><rect x="264" y="199.536" width="6" height="0.463499" stroke="black" stroke-width="1" fill="blue" opacity="1" tooltip="enable"><title>(0.0591371,4)</title></rect><rect x="270" y="199.073" width="6" height="0.926999" stroke="black" stroke-width="1" fill="blue" opacity="1" tooltip="enable"><title>(0.0604811,8)</title></rect><rect x="276" y="199.768" width="6" height="0.23175" stroke="black" stroke-width="1" fill="blue" opacity="1" tooltip="enable"><title>(0.0618251,2)</title></rect><rect x="282" y="200" width="6" height="0" stroke="black" stroke-width="1" fill="blue" opacity="1" tooltip="enable"><title>(0.0631691,0)</title></rect><rect x="288" y="199.768" width="6" height="0.23175" stroke="black" stroke-width="1" fill="blue" opacity="1" tooltip="enable"><title>(0.0645132,2)</title></rect><rect x="294" y="200" width="6" height="0" stroke="black" stroke-width="1" fill="blue" opacity="1" tooltip="enable"><title>(0.0658572,0)</title></rect><rect x="300" y="200" width="6" height="0" stroke="black" stroke-width="1" fill="blue" opacity="1" tooltip="enable"><title>(0.0672012,0)</title></rect><rect x="306" y="200" width="6" height="0" stroke="black" stroke-width="1" fill="blue" opacity="1" tooltip="enable"><title>(0.0685452,0)</title></rect><rect x="312" y="200" width="6" height="0" stroke="black" stroke-width="1" fill="blue" opacity="1" tooltip="enable"><title>(0.0698893,0)</title></rect><rect x="318" y="200" width="6" height="0" stroke="black" stroke-width="1" fill="blue" opacity="1" tooltip="enable"><title>(0.0712333,0)</title></rect><rect x="324" y="200" width="6" height="0" stroke="black" stroke-width="1" fill="blue" opacity="1" tooltip="enable"><title>(0.0725773,0)</title></rect><rect x="330" y="200" width="6" height="0" stroke="black" stroke-width="1" fill="blue" opacity="1" tooltip="enable"><title>(0.0739213,0)</title></rect><rect x="336" y="200" width="6" height="0" stroke="black" stroke-width="1" fill="blue" opacity="1" tooltip="enable"><title>(0.0752654,0)</title></rect><rect x="342" y="200" width="6" height="0" stroke="black" stroke-width="1" fill="blue" opacity="1" tooltip="enable"><title>(0.0766094,0)</title></rect><rect x="348" y="200" width="6" height="0" stroke="black" stroke-width="1" fill="blue" opacity="1" tooltip="enable"><title>(0.0779534,0)</title></rect><rect x="354" y="200" width="6" height="0" stroke="black" stroke-width="1" fill="blue" opacity="1" tooltip="enable"><title>(0.0792974,0)</title></rect><rect x="360" y="200" width="6" height="0" stroke="black" stroke-width="1" fill="blue" opacity="1" tooltip="enable"><title>(0.0806415,0)</title></rect><rect x="366" y="200" width="6" height="0" stroke="black" stroke-width="1" fill="blue" opacity="1" tooltip="enable"><title>(0.0819855,0)</title></rect><rect x="372" y="200" width="6" height="0" stroke="black" stroke-width="1" fill="blue" opacity="1" tooltip="enable"><title>(0.0833295,0)</title></rect><rect x="378" y="200" width="6" height="0" stroke="black" stroke-width="1" fill="blue" opacity="1" tooltip="enable"><title>(0.0846735,0)</title></rect><rect x="384" y="200" width="6" height="0" stroke="black" stroke-width="1" fill="blue" opacity="1" tooltip="enable"><title>(0.0860175,0)</title></rect><rect x="390" y="200" width="6" height="0" stroke="black" stroke-width="1" fill="blue" opacity="1" tooltip="enable"><title>(0.0873616,0)</title></rect><rect x="396" y="200" width="6" height="0" stroke="black" stroke-width="1" fill="blue" opacity="1" tooltip="enable"><title>(0.0887056,0)</title></rect><rect x="402" y="200" width="6" height="0" stroke="black" stroke-width="1" fill="blue" opacity="1" tooltip="enable"><title>(0.0900496,0)</title></rect><rect x="408" y="200" width="6" height="0" stroke="black" stroke-width="1" fill="blue" opacity="1" tooltip="enable"><title>(0.0913936,0)</title></rect><rect x="414" y="200" width="6" height="0" stroke="black" stroke-width="1" fill="blue" opacity="1" tooltip="enable"><title>(0.0927377,0)</title></rect><rect x="420" y="200" width="6" height="0" stroke="black" stroke-width="1" fill="blue" opacity="1" tooltip="enable"><title>(0.0940817,0)</title></rect><rect x="426" y="200" width="6" height="0" stroke="black" stroke-width="1" fill="blue" opacity="1" tooltip="enable"><title>(0.0954257,0)</title></rect><rect x="432" y="200" width="6" height="0" stroke="black" stroke-width="1" fill="blue" opacity="1" tooltip="enable"><title>(0.0967698,0)</title></rect><rect x="438" y="200" width="6" height="0" stroke="black" stroke-width="1" fill="blue" opacity="1" tooltip="enable"><title>(0.0981138,0)</title></rect><rect x="444" y="200" width="6" height="0" stroke="black" stroke-width="1" fill="blue" opacity="1" tooltip="enable"><title>(0.0994578,0)</title></rect><rect x="450" y="200" width="6" height="0" stroke="black" stroke-width="1" fill="blue" opacity="1" tooltip="enable"><title>(0.100802,0)</title></rect><rect x="456" y="200" width="6" height="0" stroke="black" stroke-width="1" fill="blue" opacity="1" tooltip="enable"><title>(0.102146,0)</title></rect><rect x="462" y="200" width="6" height="0" stroke="black" stroke-width="1" fill="blue" opacity="1" tooltip="enable"><title>(0.10349,0)</title></rect><rect x="468" y="200" width="6" height="0" stroke="black" stroke-width="1" fill="blue" opacity="1" tooltip="enable"><title>(0.104834,0)</title></rect><rect x="474" y="200" width="6" height="0" stroke="black" stroke-width="1" fill="blue" opacity="1" tooltip="enable"><title>(0.106178,0)</title></rect><rect x="480" y="200" width="6" height="0" stroke="black" stroke-width="1" fill="blue" opacity="1" tooltip="enable"><title>(0.107522,0)</title></rect><rect x="486" y="199.768" width="6" height="0.23175" stroke="black" stroke-width="1" fill="blue" opacity="1" tooltip="enable"><title>(0.108866,2)</title></rect><rect x="492" y="200" width="6" height="0" stroke="black" stroke-width="1" fill="blue" opacity="1" tooltip="enable"><title>(0.11021,0)</title></rect><rect x="498" y="200" width="6" height="0" stroke="black" stroke-width="1" fill="blue" opacity="1" tooltip="enable"><title>(0.111554,0)</title></rect><rect x="504" y="200" width="6" height="0" stroke="black" stroke-width="1" fill="blue" opacity="1" tooltip="enable"><title>(0.112898,0)</title></rect><rect x="510" y="200" width="6" height="0" stroke="black" stroke-width="1" fill="blue" opacity="1" tooltip="enable"><title>(0.114242,0)</title></rect><rect x="516" y="200" width="6" height="0" stroke="black" stroke-width="1" fill="blue" opacity="1" tooltip="enable"><title>(0.115586,0)</title></rect><rect x="522" y="200" width="6" height="0" stroke="black" stroke-width="1" fill="blue" opacity="1" tooltip="enable"><title>(0.11693,0)</title></rect><rect x="528" y="200" width="6" height="0" stroke="black" stroke-width="1" fill="blue" opacity="1" tooltip="enable"><title>(0.118274,0)</title></rect><rect x="534" y="200" width="6" height="0" stroke="black" stroke-width="1" fill="blue" opacity="1" tooltip="enable"><title>(0.119618,0)</title></rect><rect x="540" y="199.884" width="6" height="0.115875" stroke="black" stroke-width="1" fill="blue" opacity="1" tooltip="enable"><title>(0.120962,1)</title></rect><rect x="546" y="199.884" width="6" height="0.115875" stroke="black" stroke-width="1" fill="blue" opacity="1" tooltip="enable"><title>(0.122306,1)</title></rect><rect x="552" y="200" width="6" height="0" stroke="black" stroke-width="1" fill="blue" opacity="1" tooltip="enable"><title>(0.12365,0)</title></rect><rect x="558" y="199.768" width="6" height="0.23175" stroke="black" stroke-width="1" fill="blue" opacity="1" tooltip="enable"><title>(0.124994,2)</title></rect><rect x="564" y="200" width="6" height="0" stroke="black" stroke-width="1" fill="blue" opacity="1" tooltip="enable"><title>(0.126338,0)</title></rect><rect x="570" y="200" width="6" height="0" stroke="black" stroke-width="1" fill="blue" opacity="1" tooltip="enable"><title>(0.127682,0)</title></rect><rect x="576" y="199.884" width="6" height="0.115875" stroke="black" stroke-width="1" fill="blue" opacity="1" tooltip="enable"><title>(0.129026,1)</title></rect><rect x="582" y="199.884" width="6" height="0.115875" stroke="black" stroke-width="1" fill="blue" opacity="1" tooltip="enable"><title>(0.13037,1)</title></rect><rect x="588" y="200" width="6" height="0" stroke="black" stroke-width="1" fill="blue" opacity="1" tooltip="enable"><title>(0.131714,0)</title></rect><rect x="594" y="199.884" width="6" height="0.115875" stroke="black" stroke-width="1" fill="blue" opacity="1" tooltip="enable"><title>(0.133058,1)</title></rect><text x="30" y="240" font-size="20" fill="black">0</text>
<text x="600" y="240" font-size="20" fill="black">0.134402</text>
<polyline points="0,220,600,220" stroke="black" stroke-width="1" fill="none" opacity="1"/>
<text x="720" y="20" font-size="20" fill="black">1726</text>
<text x="720" y="200" font-size="20" fill="black">0</text>
<polyline points="660,0,660,200" stroke="black" stroke-width="1" fill="none" opacity="1"/>
</svg>