<?xml version="1.0" standalone="yes"?>
<!-- SVG graphic -->
<svg xmlns='http://www.w3.org/2000/svg' xmlns:xlink='http://www.w3.org/1999/xlink'
 version="1.1">
<rect x="0" y="0" width="6" height="200" stroke="black" stroke-width="1" fill="blue" opacity="1" tooltip="enable"><title>(0,1059)</title></rect><rect x="6" y="11.3315" width="6" height="188.669" stroke="black" stroke-width="1" fill="blue" opacity="1" tooltip="enable"><title>(0.00119455,999)</title></rect><rect x="12" y="45.3258" width="6" height="154.674" stroke="black" stroke-width="1" fill="blue" opacity="1" tooltip="enable"><title>(0.00238911,819)</title></rect><rect x="18" y="80.6421" width="6" height="119.358" stroke="black" stroke-width="1" fill="blue" opacity="1" tooltip="enable"><title>(0.00358366,632)</title></rect><rect x="24" y="92.729" width="6" height="107.271" stroke="black" stroke-width="1" fill="blue" opacity="1" tooltip="enable"><title>(0.00477821,568)</title></rect><rect x="30" y="111.048" width="6" height="88.9518" stroke="black" stroke-width="1" fill="blue" opacity="1" tooltip="enable"><title>(0.00597276,471)</title></rect><rect x="36" y="130.689" width="6" height="69.3107" stroke="black" stroke-width="1" fill="blue" opacity="1" tooltip="enable"><title>(0.00716732,367)</title></rect><rect x="42" y="142.587" width="6" height="57.4127" stroke="black" stroke-width="1" fill="blue" opacity="1" tooltip="enable"><title>(0.00836187,304)</title></rect><rect x="48" y="140.699" width="6" height="59.3012" stroke="black" stroke-width="1" fill="blue" opacity="1" tooltip="enable"><title>(0.00955642,314)</title></rect><rect x="54" y="160.907" width="6" height="39.0935" stroke="black" stroke-width="1" fill="blue" opacity="1" tooltip="enable"><title>(0.010751,207)</title></rect><rect x="60" y="172.238" width="6" height="27.762" stroke="black" stroke-width="1" fill="blue" opacity="1" tooltip="enable"><title>(0.0119455,147)</title></rect><rect x="66" y="175.826" width="6" height="24.1737" stroke="black" stroke-width="1" fill="blue" opacity="1" tooltip="enable"><title>(0.0131401,128)</title></rect><rect x="72" y="170.538" width="6" height="29.4618" stroke="black" stroke-width="1" fill="blue" opacity="1" tooltip="enable"><title>(0.0143346,156)</title></rect><rect x="78" y="174.882" width="6" height="25.118" stroke="black" stroke-width="1" fill="blue" opacity="1" tooltip="enable"><title>(0.0155292,133)</title></rect><rect x="84" y="175.071" width="6" height="24.9292" stroke="black" stroke-width="1" fill="blue" opacity="1" tooltip="enable"><title>(0.0167237,132)</title></rect><rect x="90" y="181.492" width="6" height="18.508" stroke="black" stroke-width="1" fill="blue" opacity="1" tooltip="enable"><title>(0.0179183,98)</title></rect><rect x="96" y="183.381" width="6" height="16.6195" stroke="black" stroke-width="1" fill="blue" opacity="1" tooltip="enable"><title>(0.0191128,88)</title></rect><rect x="102" y="181.114" width="6" height="18.8857" stroke="black" stroke-width="1" fill="blue" opacity="1" tooltip="enable"><title>(0.0203074,100)</title></rect><rect x="108" y="182.247" width="6" height="17.7526" stroke="black" stroke-width="1" fill="blue" opacity="1" tooltip="enable"><title>(0.0215019,94)</title></rect><rect x="114" y="179.415" width="6" height="20.5855" stroke="black" stroke-width="1" fill="blue" opacity="1" tooltip="enable"><title>(0.0226965,109)</title></rect><rect x="120" y="186.591" width="6" height="13.4089" stroke="black" stroke-width="1" fill="blue" opacity="1" tooltip="enable"><title>(0.0238911,71)</title></rect><rect x="126" y="186.969" width="6" height="13.0312" stroke="black" stroke-width="1" fill="blue" opacity="1" tooltip="enable"><title>(0.0250856,69)</title></rect><rect x="132" y="185.08" width="6" height="14.9197" stroke="black" stroke-width="1" fill="blue" opacity="1" tooltip="enable"><title>(0.0262802,79)</title></rect><rect x="138" y="190.368" width="6" height="9.63173" stroke="black" stroke-width="1" fill="blue" opacity="1" tooltip="enable"><title>(0.0274747,51)</title></rect><rect x="144" y="185.269" width="6" height="14.7309" stroke="black" stroke-width="1" fill="blue" opacity="1" tooltip="enable"><title>(0.0286693,78)</title></rect><rect x="150" y="184.703" width="6" height="15.2975" stroke="black" stroke-width="1" fill="blue" opacity="1" tooltip="enable"><title>(0.0298638,81)</title></rect><rect x="156" y="192.823" width="6" height="7.17658" stroke="black" stroke-width="1" fill="blue" opacity="1" tooltip="enable"><title>(0.0310584,38)</title></rect><rect x="162" y="189.613" width="6" height="10.3872" stroke="black" stroke-width="1" fill="blue" opacity="1" tooltip="enable"><title>(0.0322529,55)</title></rect><rect x="168" y="191.501" width="6" height="8.49858" stroke="black" stroke-width="1" fill="blue" opacity="1" tooltip="enable"><title>(0.0334475,45)</title></rect><rect x="174" y="190.746" width="6" height="9.25401" stroke="black" stroke-width="1" fill="blue" opacity="1" tooltip="enable"><title>(0.034642,49)</title></rect><rect x="180" y="196.034" width="6" height="3.96601" stroke="black" stroke-width="1" fill="blue" opacity="1" tooltip="enable"><title>(0.0358366,21)</title></rect><rect x="186" y="191.69" width="6" height="8.30973" stroke="black" stroke-width="1" fill="blue" opacity="1" tooltip="enable"><title>(0.0370311,44)</title></rect><rect x="192" y="195.467" width="6" height="4.53258" stroke="black" stroke-width="1" fill="blue" opacity="1" tooltip="enable"><title>(0.0382257,24)</title></rect><rect x="198" y="193.768" width="6" height="6.23229" stroke="black" stroke-width="1" fill="blue" opacity="1" tooltip="enable"><title>(0.0394202,33)</title></rect><rect x="204" y="193.012" width="6" height="6.98772" stroke="black" stroke-width="1" fill="blue" opacity="1" tooltip="enable"><title>(0.0406148,37)</title></rect><rect x="210" y="195.279" width="6" height="4.72144" stroke="black" stroke-width="1" fill="blue" opacity="1" tooltip="enable"><title>(0.0418093,25)</title></rect><rect x="216" y="194.145" width="6" height="5.85458" stroke="black" stroke-width="1" fill="blue" opacity="1" tooltip="enable"><title>(0.0430039,31)</title></rect><rect x="222" y="197.356" width="6" height="2.644" stroke="black" stroke-width="1" fill="blue" opacity="1" tooltip="enable"><title>(0.0441984,14)</title></rect><rect x="228" y="195.845" width="6" height="4.15486" stroke="black" stroke-width="1" fill="blue" opacity="1" tooltip="enable"><title>(0.045393,22)</title></rect><rect x="234" y="195.656" width="6" height="4.34372" stroke="black" stroke-width="1" fill="blue" opacity="1" tooltip="enable"><title>(0.0465876,23)</title></rect><rect x="240" y="197.167" width="6" height="2.83286" stroke="black" stroke-width="1" fill="blue" opacity="1" tooltip="enable"><title>(0.0477821,15)</title></rect><rect x="246" y="196.034" width="6" height="3.96601" stroke="black" stroke-width="1" fill="blue" opacity="1" tooltip="enable"><title>(0.0489767,21)</title></rect><rect x="252" y="197.167" width="6" height="2.83286" stroke="black" stroke-width="1" fill="blue" opacity="1" tooltip="enable"><title>(0.0501712,15)</title></rect><rect x="258" y="198.867" width="6" height="1.13314" stroke="black" stroke-width="1" fill="blue" opacity="1" tooltip="enable"><title>(0.0513658,6)</title></rect><rect x="264" y="199.245" width="6" height="0.75543" stroke="black" stroke-width="1" fill="blue" opacity="1" tooltip="enable"><title>(0.0525603,4)</title></rect><rect x="270" y="198.867" width="6" height="1.13314" stroke="black" stroke-width="1" fill="blue" opacity="1" tooltip="enable"><title>(0.0537549,6)</title></rect><rect x="276" y="198.867" width="6" height="1.13314" stroke="black" stroke-width="1" fill="blue" opacity="1" tooltip="enable"><title>(0.0549494,6)</title></rect><rect x="282" y="198.111" width="6" height="1.88857" stroke="black" stroke-width="1" fill="blue" opacity="1" tooltip="enable"><title>(0.056144,10)</title></rect><rect x="288" y="200" width="6" height="0" stroke="black" stroke-width="1" fill="blue" opacity="1" tooltip="enable"><title>(0.0573385,0)</title></rect><rect x="294" y="199.622" width="6" height="0.377715" stroke="black" stroke-width="1" fill="blue" opacity="1" tooltip="enable"><title>(0.0585331,2)</title></rect><rect x="300" y="198.867" width="6" height="1.13314" stroke="black" stroke-width="1" fill="blue" opacity="1" tooltip="enable"><title>(0.0597276,6)</title></rect><rect x="306" y="198.867" width="6" height="1.13314" stroke="black" stroke-width="1" fill="blue" opacity="1" tooltip="enable"><title>(0.0609222,6)</title></rect><rect x="312" y="198.867" width="6" height="1.13314" stroke="black" stroke-width="1" fill="blue" opacity="1" tooltip="enable"><title>(0.0621167,6)</title></rect><rect x="318" y="199.245" width="6" height="0.75543" stroke="black" stroke-width="1" fill="blue" opacity="1" tooltip="enable"><title>(0.0633113,4)</title></rect><rect x="324" y="199.622" width="6" height="0.377715" stroke="black" stroke-width="1" fill="blue" opacity="1" tooltip="enable"><title>(0.0645058,2)</title></rect><rect x="330" y="199.622" width="6" height="0.377715" stroke="black" stroke-width="1" fill="blue" opacity="1" tooltip="enable"><title>(0.0657004,2)</title></rect><rect x="336" y="200" width="6" height="0" stroke="black" stroke-width="1" fill="blue" opacity="1" tooltip="enable"><title>(0.0668949,0)</title></rect><rect x="342" y="200" width="6" height="0" stroke="black" stroke-width="1" fill="blue" opacity="1" tooltip="enable"><title>(0.0680895,0)</title></rect><rect x="348" y="199.622" width="6" height="0.377715" stroke="black" stroke-width="1" fill="blue" opacity="1" tooltip="enable"><title>(0.0692841,2)</title></rect><rect x="354" y="199.433" width="6" height="0.566572" stroke="black" stroke-width="1" fill="blue" opacity="1" tooltip="enable"><title>(0.0704786,3)</title></rect><rect x="360" y="199.811" width="6" height="0.188857" stroke="black" stroke-width="1" fill="blue" opacity="1" tooltip="enable"><title>(0.0716732,1)</title></rect><rect x="366" y="199.622" width="6" height="0.377715" stroke="black" stroke-width="1" fill="blue" opacity="1" tooltip="enable"><title>(0.0728677,2)</title></rect><rect x="372" y="200" width="6" height="0" stroke="black" stroke-width="1" fill="blue" opacity="1" tooltip="enable"><title>(0.0740623,0)</title></rect><rect x="378" y="200" width="6" height="0" stroke="black" stroke-width="1" fill="blue" opacity="1" tooltip="enable"><title>(0.0752568,0)</title></rect><rect x="384" y="199.622" width="6" height="0.377715" stroke="black" stroke-width="1" fill="blue" opacity="1" tooltip="enable"><title>(0.0764514,2)</title></rect><rect x="390" y="198.867" width="6" height="1.13314" stroke="black" stroke-width="1" fill="blue" opacity="1" tooltip="enable"><title>(0.0776459,6)</title></rect><rect x="396" y="199.245" width="6" height="0.75543" stroke="black" stroke-width="1" fill="blue" opacity="1" tooltip="enable"><title>(0.0788405,4)</title></rect><rect x="402" y="199.245" width="6" height="0.75543" stroke="black" stroke-width="1" fill="blue" opacity="1" tooltip="enable"><title>(0.080035,4)</title></rect><rect x="408" y="198.111" width="6" height="1.88857" stroke="black" stroke-width="1" fill="blue" opacity="1" tooltip="enable"><title>(0.0812296,10)</title></rect><rect x="414" y="199.622" width="6" height="0.377715" stroke="black" stroke-width="1" fill="blue" opacity="1" tooltip="enable"><title>(0.0824241,2)</title></rect><rect x="420" y="199.245" width="6" height="0.75543" stroke="black" stroke-width="1" fill="blue" opacity="1" tooltip="enable"><title>(0.0836187,4)</title></rect><rect x="426" y="200" width="6" height="0" stroke="black" stroke-width="1" fill="blue" opacity="1" tooltip="enable"><title>(0.0848132,0)</title></rect><rect x="432" y="200" width="6" height="0" stroke="black" stroke-width="1" fill="blue" opacity="1" tooltip="enable"><title>(0.0860078,0)</title></rect><rect x="438" y="199.622" width="6" height="0.377715" stroke="black" stroke-width="1" fill="blue" opacity="1" tooltip="enable"><title>(0.0872023,2)</title></rect><rect x="444" y="200" width="6" height="0" stroke="black" stroke-width="1" fill="blue" opacity="1" tooltip="enable"><title>(0.0883969,0)</title></rect><rect x="450" y="200" width="6" height="0" stroke="black" stroke-width="1" fill="blue" opacity="1" tooltip="enable"><title>(0.0895915,0)</title></rect><rect x="456" y="200" width="6" height="0" stroke="black" stroke-width="1" fill="blue" opacity="1" tooltip="enable"><title>(0.090786,0)</title></rect><rect x="462" y="199.622" width="6" height="0.377715" stroke="black" stroke-width="1" fill="blue" opacity="1" tooltip="enable"><title>(0.0919806,2)</title></rect><rect x="468" y="199.245" width="6" height="0.75543" stroke="black" stroke-width="1" fill="blue" opacity="1" tooltip="enable"><title>(0.0931751,4)</title></rect><rect x="474" y="199.622" width="6" height="0.377715" stroke="black" stroke-width="1" fill="blue" opacity="1" tooltip="enable"><title>(0.0943697,2)</title></rect><rect x="480" y="200" width="6" height="0" stroke="black" stroke-width="1" fill="blue" opacity="1" tooltip="enable"><title>(0.0955642,0)</title></rect><rect x="486" y="200" width="6" height="0" stroke="black" stroke-width="1" fill="blue" opacity="1" tooltip="enable"><title>(0.0967588,0)</title></rect><rect x="492" y="199.622" width="6" height="0.377715" stroke="black" stroke-width="1" fill="blue" opacity="1" tooltip="enable"><title>(0.0979533,2)</title></rect><rect x="498" y="200" width="6" height="0" stroke="black" stroke-width="1" fill="blue" opacity="1" tooltip="enable"><title>(0.0991479,0)</title></rect><rect x="504" y="199.622" width="6" height="0.377715" stroke="black" stroke-width="1" fill="blue" opacity="1" tooltip="enable"><title>(0.100342,2)</title></rect><rect x="510" y="199.622" width="6" height="0.377715" stroke="black" stroke-width="1" fill="blue" opacity="1" tooltip="enable"><title>(0.101537,2)</title></rect><rect x="516" y="200" width="6" height="0" stroke="black" stroke-width="1" fill="blue" opacity="1" tooltip="enable"><title>(0.102732,0)</title></rect><rect x="522" y="199.622" width="6" height="0.377715" stroke="black" stroke-width="1" fill="blue" opacity="1" tooltip="enable"><title>(0.103926,2)</title></rect><rect x="528" y="200" width="6" height="0" stroke="black" stroke-width="1" fill="blue" opacity="1" tooltip="enable"><title>(0.105121,0)</title></rect><rect x="534" y="199.622" width="6" height="0.377715" stroke="black" stroke-width="1" fill="blue" opacity="1" tooltip="enable"><title>(0.106315,2)</title></rect><rect x="540" y="199.622" width="6" height="0.377715" stroke="black" stroke-width="1" fill="blue" opacity="1" tooltip="enable"><title>(0.10751,2)</title></rect><rect x="546" y="199.622" width="6" height="0.377715" stroke="black" stroke-width="1" fill="blue" opacity="1" tooltip="enable"><title>(0.108704,2)</title></rect><rect x="552" y="199.622" width="6" height="0.377715" stroke="black" stroke-width="1" fill="blue" opacity="1" tooltip="enable"><title>(0.109899,2)</title></rect><rect x="558" y="200" width="6" height="0" stroke="black" stroke-width="1" fill="blue" opacity="1" tooltip="enable"><title>(0.111093,0)</title></rect><rect x="564" y="199.622" width="6" height="0.377715" stroke="black" stroke-width="1" fill="blue" opacity="1" tooltip="enable"><title>(0.112288,2)</title></rect><rect x="570" y="200" width="6" height="0" stroke="black" stroke-width="1" fill="blue" opacity="1" tooltip="enable"><title>(0.113483,0)</title></rect><rect x="576" y="199.622" width="6" height="0.377715" stroke="black" stroke-width="1" fill="blue" opacity="1" tooltip="enable"><title>(0.114677,2)</title></rect><rect x="582" y="199.622" width="6" height="0.377715" stroke="black" stroke-width="1" fill="blue" opacity="1" tooltip="enable"><title>(0.115872,2)</title></rect><rect x="588" y="200" width="6" height="0" stroke="black" stroke-width="1" fill="blue" opacity="1" tooltip="enable"><title>(0.117066,0)</title></rect><rect x="594" y="199.811" width="6" height="0.188857" stroke="black" stroke-width="1" fill="blue" opacity="1" tooltip="enable"><title>(0.118261,1)</title></rect><text x="30" y="240" font-size="20" fill="black">0</text>
<text x="600" y="240" font-size="20" fill="black">0.119455</text>
<polyline points="0,220,600,220" stroke="black" stroke-width="1" fill="none" opacity="1"/>
<text x="720" y="20" font-size="20" fill="black">1059</text>
<text x="720" y="200" font-size="20" fill="black">0</text>
<polyline points="660,0,660,200" stroke="black" stroke-width="1" fill="none" opacity="1"/>
</svg>