<?xml version="1.0" standalone="yes"?>
<!-- SVG graphic -->
<svg xmlns='http://www.w3.org/2000/svg' xmlns:xlink='http://www.w3.org/1999/xlink'
 version="1.1">
<rect x="0" y="0" width="6" height="200" stroke="black" stroke-width="1" fill="blue" opacity="1" tooltip="enable"><title>(0,4282)</title></rect><rect x="6" y="185.614" width="6" height="14.3858" stroke="black" stroke-width="1" fill="blue" opacity="1" tooltip="enable"><title>(0.00128947,308)</title></rect><rect x="12" y="188.697" width="6" height="11.3031" stroke="black" stroke-width="1" fill="blue" opacity="1" tooltip="enable"><title>(0.00257893,242)</title></rect><rect x="18" y="188.79" width="6" height="11.2097" stroke="black" stroke-width="1" fill="blue" opacity="1" tooltip="enable"><title>(0.0038684,240)</title></rect><rect x="24" y="187.482" width="6" height="12.5175" stroke="black" stroke-width="1" fill="blue" opacity="1" tooltip="enable"><title>(0.00515787,268)</title></rect><rect x="30" y="189.351" width="6" height="10.6492" stroke="black" stroke-width="1" fill="blue" opacity="1" tooltip="enable"><title>(0.00644733,228)</title></rect><rect x="36" y="189.211" width="6" height="10.7894" stroke="black" stroke-width="1" fill="blue" opacity="1" tooltip="enable"><title>(0.0077368,231)</title></rect><rect x="42" y="190.425" width="6" height="9.57496" stroke="black" stroke-width="1" fill="blue" opacity="1" tooltip="enable"><title>(0.00902626,205)</title></rect><rect x="48" y="192.433" width="6" height="7.56656" stroke="black" stroke-width="1" fill="blue" opacity="1" tooltip="enable"><title>(0.0103157,162)</title></rect><rect x="54" y="192.62" width="6" height="7.37973" stroke="black" stroke-width="1" fill="blue" opacity="1" tooltip="enable"><title>(0.0116052,158)</title></rect><rect x="60" y="191.686" width="6" height="8.31387" stroke="black" stroke-width="1" fill="blue" opacity="1" tooltip="enable"><title>(0.0128947,178)</title></rect><rect x="66" y="191.406" width="6" height="8.59412" stroke="black" stroke-width="1" fill="blue" opacity="1" tooltip="enable"><title>(0.0141841,184)</title></rect><rect x="72" y="192.433" width="6" height="7.56656" stroke="black" stroke-width="1" fill="blue" opacity="1" tooltip="enable"><title>(0.0154736,162)</title></rect><rect x="78" y="191.873" width="6" height="8.12704" stroke="black" stroke-width="1" fill="blue" opacity="1" tooltip="enable"><title>(0.0167631,174)</title></rect><rect x="84" y="194.208" width="6" height="5.79169" stroke="black" stroke-width="1" fill="blue" opacity="1" tooltip="enable"><title>(0.0180525,124)</title></rect><rect x="90" y="194.395" width="6" height="5.60486" stroke="black" stroke-width="1" fill="blue" opacity="1" tooltip="enable"><title>(0.019342,120)</title></rect><rect x="96" y="194.862" width="6" height="5.13779" stroke="black" stroke-width="1" fill="blue" opacity="1" tooltip="enable"><title>(0.0206315,110)</title></rect><rect x="102" y="194.395" width="6" height="5.60486" stroke="black" stroke-width="1" fill="blue" opacity="1" tooltip="enable"><title>(0.0219209,120)</title></rect><rect x="108" y="196.31" width="6" height="3.68986" stroke="black" stroke-width="1" fill="blue" opacity="1" tooltip="enable"><title>(0.0232104,79)</title></rect><rect x="114" y="197.057" width="6" height="2.94255" stroke="black" stroke-width="1" fill="blue" opacity="1" tooltip="enable"><title>(0.0244999,63)</title></rect><rect x="120" y="197.198" width="6" height="2.80243" stroke="black" stroke-width="1" fill="blue" opacity="1" tooltip="enable"><title>(0.0257893,60)</title></rect><rect x="126" y="198.038" width="6" height="1.9617" stroke="black" stroke-width="1" fill="blue" opacity="1" tooltip="enable"><title>(0.0270788,42)</title></rect><rect x="132" y="197.618" width="6" height="2.38206" stroke="black" stroke-width="1" fill="blue" opacity="1" tooltip="enable"><title>(0.0283683,51)</title></rect><rect x="138" y="198.459" width="6" height="1.54134" stroke="black" stroke-width="1" fill="blue" opacity="1" tooltip="enable"><title>(0.0296577,33)</title></rect><rect x="144" y="198.786" width="6" height="1.21439" stroke="black" stroke-width="1" fill="blue" opacity="1" tooltip="enable"><title>(0.0309472,26)</title></rect><rect x="150" y="198.972" width="6" height="1.02756" stroke="black" stroke-width="1" fill="blue" opacity="1" tooltip="enable"><title>(0.0322367,22)</title></rect><rect x="156" y="199.066" width="6" height="0.934143" stroke="black" stroke-width="1" fill="blue" opacity="1" tooltip="enable"><title>(0.0335261,20)</title></rect><rect x="162" y="199.253" width="6" height="0.747314" stroke="black" stroke-width="1" fill="blue" opacity="1" tooltip="enable"><title>(0.0348156,16)</title></rect><rect x="168" y="199.72" width="6" height="0.280243" stroke="black" stroke-width="1" fill="blue" opacity="1" tooltip="enable"><title>(0.0361051,6)</title></rect><rect x="174" y="199.44" width="6" height="0.560486" stroke="black" stroke-width="1" fill="blue" opacity="1" tooltip="enable"><title>(0.0373945,12)</title></rect><rect x="180" y="199.72" width="6" height="0.280243" stroke="black" stroke-width="1" fill="blue" opacity="1" tooltip="enable"><title>(0.038684,6)</title></rect><rect x="186" y="199.907" width="6" height="0.0934143" stroke="black" stroke-width="1" fill="blue" opacity="1" tooltip="enable"><title>(0.0399735,2)</title></rect><rect x="192" y="199.813" width="6" height="0.186829" stroke="black" stroke-width="1" fill="blue" opacity="1" tooltip="enable"><title>(0.0412629,4)</title></rect><rect x="198" y="199.813" width="6" height="0.186829" stroke="black" stroke-width="1" fill="blue" opacity="1" tooltip="enable"><title>(0.0425524,4)</title></rect><rect x="204" y="199.813" width="6" height="0.186829" stroke="black" stroke-width="1" fill="blue" opacity="1" tooltip="enable"><title>(0.0438419,4)</title></rect><rect x="210" y="200" width="6" height="0" stroke="black" stroke-width="1" fill="blue" opacity="1" tooltip="enable"><title>(0.0451313,0)</title></rect><rect x="216" y="200" width="6" height="0" stroke="black" stroke-width="1" fill="blue" opacity="1" tooltip="enable"><title>(0.0464208,0)</title></rect><rect x="222" y="199.813" width="6" height="0.186829" stroke="black" stroke-width="1" fill="blue" opacity="1" tooltip="enable"><title>(0.0477103,4)</title></rect><rect x="228" y="199.813" width="6" height="0.186829" stroke="black" stroke-width="1" fill="blue" opacity="1" tooltip="enable"><title>(0.0489997,4)</title></rect><rect x="234" y="200" width="6" height="0" stroke="black" stroke-width="1" fill="blue" opacity="1" tooltip="enable"><title>(0.0502892,0)</title></rect><rect x="240" y="200" width="6" height="0" stroke="black" stroke-width="1" fill="blue" opacity="1" tooltip="enable"><title>(0.0515787,0)</title></rect><rect x="246" y="199.813" width="6" height="0.186829" stroke="black" stroke-width="1" fill="blue" opacity="1" tooltip="enable"><title>(0.0528681,4)</title></rect><rect x="252" y="200" width="6" height="0" stroke="black" stroke-width="1" fill="blue" opacity="1" tooltip="enable"><title>(0.0541576,0)</title></rect><rect x="258" y="199.813" width="6" height="0.186829" stroke="black" stroke-width="1" fill="blue" opacity="1" tooltip="enable"><title>(0.0554471,4)</title></rect><rect x="264" y="199.813" width="6" height="0.186829" stroke="black" stroke-width="1" fill="blue" opacity="1" tooltip="enable"><title>(0.0567365,4)</title></rect><rect x="270" y="200" width="6" height="0" stroke="black" stroke-width="1" fill="blue" opacity="1" tooltip="enable"><title>(0.058026,0)</title></rect><rect x="276" y="200" width="6" height="0" stroke="black" stroke-width="1" fill="blue" opacity="1" tooltip="enable"><title>(0.0593155,0)</title></rect><rect x="282" y="199.72" width="6" height="0.280243" stroke="black" stroke-width="1" fill="blue" opacity="1" tooltip="enable"><title>(0.0606049,6)</title></rect><rect x="288" y="200" width="6" height="0" stroke="black" stroke-width="1" fill="blue" opacity="1" tooltip="enable"><title>(0.0618944,0)</title></rect><rect x="294" y="200" width="6" height="0" stroke="black" stroke-width="1" fill="blue" opacity="1" tooltip="enable"><title>(0.0631839,0)</title></rect><rect x="300" y="199.907" width="6" height="0.0934143" stroke="black" stroke-width="1" fill="blue" opacity="1" tooltip="enable"><title>(0.0644733,2)</title></rect><rect x="306" y="199.907" width="6" height="0.0934143" stroke="black" stroke-width="1" fill="blue" opacity="1" tooltip="enable"><title>(0.0657628,2)</title></rect><rect x="312" y="199.813" width="6" height="0.186829" stroke="black" stroke-width="1" fill="blue" opacity="1" tooltip="enable"><title>(0.0670522,4)</title></rect><rect x="318" y="200" width="6" height="0" stroke="black" stroke-width="1" fill="blue" opacity="1" tooltip="enable"><title>(0.0683417,0)</title></rect><rect x="324" y="200" width="6" height="0" stroke="black" stroke-width="1" fill="blue" opacity="1" tooltip="enable"><title>(0.0696312,0)</title></rect><rect x="330" y="200" width="6" height="0" stroke="black" stroke-width="1" fill="blue" opacity="1" tooltip="enable"><title>(0.0709206,0)</title></rect><rect x="336" y="200" width="6" height="0" stroke="black" stroke-width="1" fill="blue" opacity="1" tooltip="enable"><title>(0.0722101,0)</title></rect><rect x="342" y="200" width="6" height="0" stroke="black" stroke-width="1" fill="blue" opacity="1" tooltip="enable"><title>(0.0734996,0)</title></rect><rect x="348" y="199.813" width="6" height="0.186829" stroke="black" stroke-width="1" fill="blue" opacity="1" tooltip="enable"><title>(0.074789,4)</title></rect><rect x="354" y="199.72" width="6" height="0.280243" stroke="black" stroke-width="1" fill="blue" opacity="1" tooltip="enable"><title>(0.0760785,6)</title></rect><rect x="360" y="200" width="6" height="0" stroke="black" stroke-width="1" fill="blue" opacity="1" tooltip="enable"><title>(0.077368,0)</title></rect><rect x="366" y="199.907" width="6" height="0.0934143" stroke="black" stroke-width="1" fill="blue" opacity="1" tooltip="enable"><title>(0.0786574,2)</title></rect><rect x="372" y="200" width="6" height="0" stroke="black" stroke-width="1" fill="blue" opacity="1" tooltip="enable"><title>(0.0799469,0)</title></rect><rect x="378" y="200" width="6" height="0" stroke="black" stroke-width="1" fill="blue" opacity="1" tooltip="enable"><title>(0.0812364,0)</title></rect><rect x="384" y="200" width="6" height="0" stroke="black" stroke-width="1" fill="blue" opacity="1" tooltip="enable"><title>(0.0825258,0)</title></rect><rect x="390" y="200" width="6" height="0" stroke="black" stroke-width="1" fill="blue" opacity="1" tooltip="enable"><title>(0.0838153,0)</title></rect><rect x="396" y="200" width="6" height="0" stroke="black" stroke-width="1" fill="blue" opacity="1" tooltip="enable"><title>(0.0851048,0)</title></rect><rect x="402" y="200" width="6" height="0" stroke="black" stroke-width="1" fill="blue" opacity="1" tooltip="enable"><title>(0.0863942,0)</title></rect><rect x="408" y="200" width="6" height="0" stroke="black" stroke-width="1" fill="blue" opacity="1" tooltip="enable"><title>(0.0876837,0)</title></rect><rect x="414" y="200" width="6" height="0" stroke="black" stroke-width="1" fill="blue" opacity="1" tooltip="enable"><title>(0.0889732,0)</title></rect><rect x="420" y="200" width="6" height="0" stroke="black" stroke-width="1" fill="blue" opacity="1" tooltip="enable"><title>(0.0902626,0)</title></rect><rect x="426" y="200" width="6" height="0" stroke="black" stroke-width="1" fill="blue" opacity="1" tooltip="enable"><title>(0.0915521,0)</title></rect><rect x="432" y="200" width="6" height="0" stroke="black" stroke-width="1" fill="blue" opacity="1" tooltip="enable"><title>(0.0928416,0)</title></rect><rect x="438" y="200" width="6" height="0" stroke="black" stroke-width="1" fill="blue" opacity="1" tooltip="enable"><title>(0.094131,0)</title></rect><rect x="444" y="200" width="6" height="0" stroke="black" stroke-width="1" fill="blue" opacity="1" tooltip="enable"><title>(0.0954205,0)</title></rect><rect x="450" y="200" width="6" height="0" stroke="black" stroke-width="1" fill="blue" opacity="1" tooltip="enable"><title>(0.09671,0)</title></rect><rect x="456" y="200" width="6" height="0" stroke="black" stroke-width="1" fill="blue" opacity="1" tooltip="enable"><title>(0.0979994,0)</title></rect><rect x="462" y="199.907" width="6" height="0.0934143" stroke="black" stroke-width="1" fill="blue" opacity="1" tooltip="enable"><title>(0.0992889,2)</title></rect><rect x="468" y="200" width="6" height="0" stroke="black" stroke-width="1" fill="blue" opacity="1" tooltip="enable"><title>(0.100578,0)</title></rect><rect x="474" y="200" width="6" height="0" stroke="black" stroke-width="1" fill="blue" opacity="1" tooltip="enable"><title>(0.101868,0)</title></rect><rect x="480" y="200" width="6" height="0" stroke="black" stroke-width="1" fill="blue" opacity="1" tooltip="enable"><title>(0.103157,0)</title></rect><rect x="486" y="200" width="6" height="0" stroke="black" stroke-width="1" fill="blue" opacity="1" tooltip="enable"><title>(0.104447,0)</title></rect><rect x="492" y="200" width="6" height="0" stroke="black" stroke-width="1" fill="blue" opacity="1" tooltip="enable"><title>(0.105736,0)</title></rect><rect x="498" y="199.907" width="6" height="0.0934143" stroke="black" stroke-width="1" fill="blue" opacity="1" tooltip="enable"><title>(0.107026,2)</title></rect><rect x="504" y="200" width="6" height="0" stroke="black" stroke-width="1" fill="blue" opacity="1" tooltip="enable"><title>(0.108315,0)</title></rect><rect x="510" y="200" width="6" height="0" stroke="black" stroke-width="1" fill="blue" opacity="1" tooltip="enable"><title>(0.109605,0)</title></rect><rect x="516" y="200" width="6" height="0" stroke="black" stroke-width="1" fill="blue" opacity="1" tooltip="enable"><title>(0.110894,0)</title></rect><rect x="522" y="200" width="6" height="0" stroke="black" stroke-width="1" fill="blue" opacity="1" tooltip="enable"><title>(0.112184,0)</title></rect><rect x="528" y="200" width="6" height="0" stroke="black" stroke-width="1" fill="blue" opacity="1" tooltip="enable"><title>(0.113473,0)</title></rect><rect x="534" y="200" width="6" height="0" stroke="black" stroke-width="1" fill="blue" opacity="1" tooltip="enable"><title>(0.114762,0)</title></rect><rect x="540" y="200" width="6" height="0" stroke="black" stroke-width="1" fill="blue" opacity="1" tooltip="enable"><title>(0.116052,0)</title></rect><rect x="546" y="200" width="6" height="0" stroke="black" stroke-width="1" fill="blue" opacity="1" tooltip="enable"><title>(0.117341,0)</title></rect><rect x="552" y="200" width="6" height="0" stroke="black" stroke-width="1" fill="blue" opacity="1" tooltip="enable"><title>(0.118631,0)</title></rect><rect x="558" y="200" width="6" height="0" stroke="black" stroke-width="1" fill="blue" opacity="1" tooltip="enable"><title>(0.11992,0)</title></rect><rect x="564" y="200" width="6" height="0" stroke="black" stroke-width="1" fill="blue" opacity="1" tooltip="enable"><title>(0.12121,0)</title></rect><rect x="570" y="200" width="6" height="0" stroke="black" stroke-width="1" fill="blue" opacity="1" tooltip="enable"><title>(0.122499,0)</title></rect><rect x="576" y="200" width="6" height="0" stroke="black" stroke-width="1" fill="blue" opacity="1" tooltip="enable"><title>(0.123789,0)</title></rect><rect x="582" y="200" width="6" height="0" stroke="black" stroke-width="1" fill="blue" opacity="1" tooltip="enable"><title>(0.125078,0)</title></rect><rect x="588" y="199.907" width="6" height="0.0934143" stroke="black" stroke-width="1" fill="blue" opacity="1" tooltip="enable"><title>(0.126368,2)</title></rect><rect x="594" y="199.953" width="6" height="0.0467071" stroke="black" stroke-width="1" fill="blue" opacity="1" tooltip="enable"><title>(0.127657,1)</title></rect><text x="30" y="240" font-size="20" fill="black">0</text>
<text x="600" y="240" font-size="20" fill="black">0.128947</text>
<polyline points="0,220,600,220" stroke="black" stroke-width="1" fill="none" opacity="1"/>
<text x="720" y="20" font-size="20" fill="black">4282</text>
<text x="720" y="200" font-size="20" fill="black">0</text>
<polyline points="660,0,660,200" stroke="black" stroke-width="1" fill="none" opacity="1"/>
</svg>