<?xml version="1.0" standalone="yes"?>
<!-- SVG graphic -->
<svg xmlns='http://www.w3.org/2000/svg' xmlns:xlink='http://www.w3.org/1999/xlink'
 version="1.1">
<rect x="0" y="0" width="6" height="200" stroke="black" stroke-width="1" fill="blue" opacity="1" tooltip="enable"><title>(0,2795)</title></rect><rect x="6" y="128.873" width="6" height="71.127" stroke="black" stroke-width="1" fill="blue" opacity="1" tooltip="enable"><title>(0.000658629,994)</title></rect><rect x="12" y="165.081" width="6" height="34.9195" stroke="black" stroke-width="1" fill="blue" opacity="1" tooltip="enable"><title>(0.00131726,488)</title></rect><rect x="18" y="179.821" width="6" height="20.1789" stroke="black" stroke-width="1" fill="blue" opacity="1" tooltip="enable"><title>(0.00197589,282)</title></rect><rect x="24" y="187.263" width="6" height="12.737" stroke="black" stroke-width="1" fill="blue" opacity="1" tooltip="enable"><title>(0.00263452,178)</title></rect><rect x="30" y="191.413" width="6" height="8.58676" stroke="black" stroke-width="1" fill="blue" opacity="1" tooltip="enable"><title>(0.00329315,120)</title></rect><rect x="36" y="189.481" width="6" height="10.5188" stroke="black" stroke-width="1" fill="blue" opacity="1" tooltip="enable"><title>(0.00395177,147)</title></rect><rect x="42" y="190.555" width="6" height="9.44544" stroke="black" stroke-width="1" fill="blue" opacity="1" tooltip="enable"><title>(0.0046104,132)</title></rect><rect x="48" y="190.555" width="6" height="9.44544" stroke="black" stroke-width="1" fill="blue" opacity="1" tooltip="enable"><title>(0.00526903,132)</title></rect><rect x="54" y="189.839" width="6" height="10.161" stroke="black" stroke-width="1" fill="blue" opacity="1" tooltip="enable"><title>(0.00592766,142)</title></rect><rect x="60" y="190.841" width="6" height="9.15921" stroke="black" stroke-width="1" fill="blue" opacity="1" tooltip="enable"><title>(0.00658629,128)</title></rect><rect x="66" y="189.982" width="6" height="10.0179" stroke="black" stroke-width="1" fill="blue" opacity="1" tooltip="enable"><title>(0.00724492,140)</title></rect><rect x="72" y="192.415" width="6" height="7.58497" stroke="black" stroke-width="1" fill="blue" opacity="1" tooltip="enable"><title>(0.00790355,106)</title></rect><rect x="78" y="191.914" width="6" height="8.08587" stroke="black" stroke-width="1" fill="blue" opacity="1" tooltip="enable"><title>(0.00856218,113)</title></rect><rect x="84" y="192.63" width="6" height="7.3703" stroke="black" stroke-width="1" fill="blue" opacity="1" tooltip="enable"><title>(0.00922081,103)</title></rect><rect x="90" y="193.131" width="6" height="6.86941" stroke="black" stroke-width="1" fill="blue" opacity="1" tooltip="enable"><title>(0.00987944,96)</title></rect><rect x="96" y="193.202" width="6" height="6.79785" stroke="black" stroke-width="1" fill="blue" opacity="1" tooltip="enable"><title>(0.0105381,95)</title></rect><rect x="102" y="194.061" width="6" height="5.93918" stroke="black" stroke-width="1" fill="blue" opacity="1" tooltip="enable"><title>(0.0111967,83)</title></rect><rect x="108" y="195.206" width="6" height="4.79428" stroke="black" stroke-width="1" fill="blue" opacity="1" tooltip="enable"><title>(0.0118553,67)</title></rect><rect x="114" y="194.49" width="6" height="5.50984" stroke="black" stroke-width="1" fill="blue" opacity="1" tooltip="enable"><title>(0.012514,77)</title></rect><rect x="120" y="194.275" width="6" height="5.72451" stroke="black" stroke-width="1" fill="blue" opacity="1" tooltip="enable"><title>(0.0131726,80)</title></rect><rect x="126" y="195.564" width="6" height="4.43649" stroke="black" stroke-width="1" fill="blue" opacity="1" tooltip="enable"><title>(0.0138312,62)</title></rect><rect x="132" y="193.846" width="6" height="6.15385" stroke="black" stroke-width="1" fill="blue" opacity="1" tooltip="enable"><title>(0.0144898,86)</title></rect><rect x="138" y="195.42" width="6" height="4.57961" stroke="black" stroke-width="1" fill="blue" opacity="1" tooltip="enable"><title>(0.0151485,64)</title></rect><rect x="144" y="194.419" width="6" height="5.5814" stroke="black" stroke-width="1" fill="blue" opacity="1" tooltip="enable"><title>(0.0158071,78)</title></rect><rect x="150" y="195.85" width="6" height="4.15027" stroke="black" stroke-width="1" fill="blue" opacity="1" tooltip="enable"><title>(0.0164657,58)</title></rect><rect x="156" y="196.279" width="6" height="3.72093" stroke="black" stroke-width="1" fill="blue" opacity="1" tooltip="enable"><title>(0.0171244,52)</title></rect><rect x="162" y="195.134" width="6" height="4.86583" stroke="black" stroke-width="1" fill="blue" opacity="1" tooltip="enable"><title>(0.017783,68)</title></rect><rect x="168" y="197.066" width="6" height="2.93381" stroke="black" stroke-width="1" fill="blue" opacity="1" tooltip="enable"><title>(0.0184416,41)</title></rect><rect x="174" y="196.637" width="6" height="3.36315" stroke="black" stroke-width="1" fill="blue" opacity="1" tooltip="enable"><title>(0.0191002,47)</title></rect><rect x="180" y="197.281" width="6" height="2.71914" stroke="black" stroke-width="1" fill="blue" opacity="1" tooltip="enable"><title>(0.0197589,38)</title></rect><rect x="186" y="197.71" width="6" height="2.2898" stroke="black" stroke-width="1" fill="blue" opacity="1" tooltip="enable"><title>(0.0204175,32)</title></rect><rect x="192" y="196.279" width="6" height="3.72093" stroke="black" stroke-width="1" fill="blue" opacity="1" tooltip="enable"><title>(0.0210761,52)</title></rect><rect x="198" y="196.565" width="6" height="3.4347" stroke="black" stroke-width="1" fill="blue" opacity="1" tooltip="enable"><title>(0.0217348,48)</title></rect><rect x="204" y="196.995" width="6" height="3.00537" stroke="black" stroke-width="1" fill="blue" opacity="1" tooltip="enable"><title>(0.0223934,42)</title></rect><rect x="210" y="197.71" width="6" height="2.2898" stroke="black" stroke-width="1" fill="blue" opacity="1" tooltip="enable"><title>(0.023052,32)</title></rect><rect x="216" y="197.782" width="6" height="2.21825" stroke="black" stroke-width="1" fill="blue" opacity="1" tooltip="enable"><title>(0.0237106,31)</title></rect><rect x="222" y="197.71" width="6" height="2.2898" stroke="black" stroke-width="1" fill="blue" opacity="1" tooltip="enable"><title>(0.0243693,32)</title></rect><rect x="228" y="196.565" width="6" height="3.4347" stroke="black" stroke-width="1" fill="blue" opacity="1" tooltip="enable"><title>(0.0250279,48)</title></rect><rect x="234" y="197.925" width="6" height="2.07513" stroke="black" stroke-width="1" fill="blue" opacity="1" tooltip="enable"><title>(0.0256865,29)</title></rect><rect x="240" y="197.352" width="6" height="2.64758" stroke="black" stroke-width="1" fill="blue" opacity="1" tooltip="enable"><title>(0.0263452,37)</title></rect><rect x="246" y="197.782" width="6" height="2.21825" stroke="black" stroke-width="1" fill="blue" opacity="1" tooltip="enable"><title>(0.0270038,31)</title></rect><rect x="252" y="198.283" width="6" height="1.71735" stroke="black" stroke-width="1" fill="blue" opacity="1" tooltip="enable"><title>(0.0276624,24)</title></rect><rect x="258" y="198.14" width="6" height="1.86047" stroke="black" stroke-width="1" fill="blue" opacity="1" tooltip="enable"><title>(0.0283211,26)</title></rect><rect x="264" y="198.354" width="6" height="1.6458" stroke="black" stroke-width="1" fill="blue" opacity="1" tooltip="enable"><title>(0.0289797,23)</title></rect><rect x="270" y="198.64" width="6" height="1.35957" stroke="black" stroke-width="1" fill="blue" opacity="1" tooltip="enable"><title>(0.0296383,19)</title></rect><rect x="276" y="198.712" width="6" height="1.28801" stroke="black" stroke-width="1" fill="blue" opacity="1" tooltip="enable"><title>(0.0302969,18)</title></rect><rect x="282" y="198.712" width="6" height="1.28801" stroke="black" stroke-width="1" fill="blue" opacity="1" tooltip="enable"><title>(0.0309556,18)</title></rect><rect x="288" y="198.14" width="6" height="1.86047" stroke="black" stroke-width="1" fill="blue" opacity="1" tooltip="enable"><title>(0.0316142,26)</title></rect><rect x="294" y="198.712" width="6" height="1.28801" stroke="black" stroke-width="1" fill="blue" opacity="1" tooltip="enable"><title>(0.0322728,18)</title></rect><rect x="300" y="198.354" width="6" height="1.6458" stroke="black" stroke-width="1" fill="blue" opacity="1" tooltip="enable"><title>(0.0329315,23)</title></rect><rect x="306" y="197.782" width="6" height="2.21825" stroke="black" stroke-width="1" fill="blue" opacity="1" tooltip="enable"><title>(0.0335901,31)</title></rect><rect x="312" y="198.927" width="6" height="1.07335" stroke="black" stroke-width="1" fill="blue" opacity="1" tooltip="enable"><title>(0.0342487,15)</title></rect><rect x="318" y="198.569" width="6" height="1.43113" stroke="black" stroke-width="1" fill="blue" opacity="1" tooltip="enable"><title>(0.0349073,20)</title></rect><rect x="324" y="199.356" width="6" height="0.644007" stroke="black" stroke-width="1" fill="blue" opacity="1" tooltip="enable"><title>(0.035566,9)</title></rect><rect x="330" y="198.855" width="6" height="1.1449" stroke="black" stroke-width="1" fill="blue" opacity="1" tooltip="enable"><title>(0.0362246,16)</title></rect><rect x="336" y="199.428" width="6" height="0.572451" stroke="black" stroke-width="1" fill="blue" opacity="1" tooltip="enable"><title>(0.0368832,8)</title></rect><rect x="342" y="199.284" width="6" height="0.715564" stroke="black" stroke-width="1" fill="blue" opacity="1" tooltip="enable"><title>(0.0375419,10)</title></rect><rect x="348" y="199.141" width="6" height="0.858676" stroke="black" stroke-width="1" fill="blue" opacity="1" tooltip="enable"><title>(0.0382005,12)</title></rect><rect x="354" y="198.998" width="6" height="1.00179" stroke="black" stroke-width="1" fill="blue" opacity="1" tooltip="enable"><title>(0.0388591,14)</title></rect><rect x="360" y="199.213" width="6" height="0.78712" stroke="black" stroke-width="1" fill="blue" opacity="1" tooltip="enable"><title>(0.0395177,11)</title></rect><rect x="366" y="199.07" width="6" height="0.930233" stroke="black" stroke-width="1" fill="blue" opacity="1" tooltip="enable"><title>(0.0401764,13)</title></rect><rect x="372" y="199.428" width="6" height="0.572451" stroke="black" stroke-width="1" fill="blue" opacity="1" tooltip="enable"><title>(0.040835,8)</title></rect><rect x="378" y="199.428" width="6" height="0.572451" stroke="black" stroke-width="1" fill="blue" opacity="1" tooltip="enable"><title>(0.0414936,8)</title></rect><rect x="384" y="198.998" width="6" height="1.00179" stroke="black" stroke-width="1" fill="blue" opacity="1" tooltip="enable"><title>(0.0421523,14)</title></rect><rect x="390" y="199.714" width="6" height="0.286225" stroke="black" stroke-width="1" fill="blue" opacity="1" tooltip="enable"><title>(0.0428109,4)</title></rect><rect x="396" y="199.141" width="6" height="0.858676" stroke="black" stroke-width="1" fill="blue" opacity="1" tooltip="enable"><title>(0.0434695,12)</title></rect><rect x="402" y="199.284" width="6" height="0.715564" stroke="black" stroke-width="1" fill="blue" opacity="1" tooltip="enable"><title>(0.0441281,10)</title></rect><rect x="408" y="199.428" width="6" height="0.572451" stroke="black" stroke-width="1" fill="blue" opacity="1" tooltip="enable"><title>(0.0447868,8)</title></rect><rect x="414" y="199.284" width="6" height="0.715564" stroke="black" stroke-width="1" fill="blue" opacity="1" tooltip="enable"><title>(0.0454454,10)</title></rect><rect x="420" y="199.571" width="6" height="0.429338" stroke="black" stroke-width="1" fill="blue" opacity="1" tooltip="enable"><title>(0.046104,6)</title></rect><rect x="426" y="199.284" width="6" height="0.715564" stroke="black" stroke-width="1" fill="blue" opacity="1" tooltip="enable"><title>(0.0467627,10)</title></rect><rect x="432" y="199.714" width="6" height="0.286225" stroke="black" stroke-width="1" fill="blue" opacity="1" tooltip="enable"><title>(0.0474213,4)</title></rect><rect x="438" y="199.571" width="6" height="0.429338" stroke="black" stroke-width="1" fill="blue" opacity="1" tooltip="enable"><title>(0.0480799,6)</title></rect><rect x="444" y="199.785" width="6" height="0.214669" stroke="black" stroke-width="1" fill="blue" opacity="1" tooltip="enable"><title>(0.0487386,3)</title></rect><rect x="450" y="199.785" width="6" height="0.214669" stroke="black" stroke-width="1" fill="blue" opacity="1" tooltip="enable"><title>(0.0493972,3)</title></rect><rect x="456" y="200" width="6" height="0" stroke="black" stroke-width="1" fill="blue" opacity="1" tooltip="enable"><title>(0.0500558,0)</title></rect><rect x="462" y="200" width="6" height="0" stroke="black" stroke-width="1" fill="blue" opacity="1" tooltip="enable"><title>(0.0507144,0)</title></rect><rect x="468" y="199.642" width="6" height="0.357782" stroke="black" stroke-width="1" fill="blue" opacity="1" tooltip="enable"><title>(0.0513731,5)</title></rect><rect x="474" y="199.785" width="6" height="0.214669" stroke="black" stroke-width="1" fill="blue" opacity="1" tooltip="enable"><title>(0.0520317,3)</title></rect><rect x="480" y="200" width="6" height="0" stroke="black" stroke-width="1" fill="blue" opacity="1" tooltip="enable"><title>(0.0526903,0)</title></rect><rect x="486" y="199.928" width="6" height="0.0715564" stroke="black" stroke-width="1" fill="blue" opacity="1" tooltip="enable"><title>(0.053349,1)</title></rect><rect x="492" y="199.785" width="6" height="0.214669" stroke="black" stroke-width="1" fill="blue" opacity="1" tooltip="enable"><title>(0.0540076,3)</title></rect><rect x="498" y="199.714" width="6" height="0.286225" stroke="black" stroke-width="1" fill="blue" opacity="1" tooltip="enable"><title>(0.0546662,4)</title></rect><rect x="504" y="199.428" width="6" height="0.572451" stroke="black" stroke-width="1" fill="blue" opacity="1" tooltip="enable"><title>(0.0553248,8)</title></rect><rect x="510" y="199.857" width="6" height="0.143113" stroke="black" stroke-width="1" fill="blue" opacity="1" tooltip="enable"><title>(0.0559835,2)</title></rect><rect x="516" y="200" width="6" height="0" stroke="black" stroke-width="1" fill="blue" opacity="1" tooltip="enable"><title>(0.0566421,0)</title></rect><rect x="522" y="200" width="6" height="0" stroke="black" stroke-width="1" fill="blue" opacity="1" tooltip="enable"><title>(0.0573007,0)</title></rect><rect x="528" y="200" width="6" height="0" stroke="black" stroke-width="1" fill="blue" opacity="1" tooltip="enable"><title>(0.0579594,0)</title></rect><rect x="534" y="200" width="6" height="0" stroke="black" stroke-width="1" fill="blue" opacity="1" tooltip="enable"><title>(0.058618,0)</title></rect><rect x="540" y="199.857" width="6" height="0.143113" stroke="black" stroke-width="1" fill="blue" opacity="1" tooltip="enable"><title>(0.0592766,2)</title></rect><rect x="546" y="200" width="6" height="0" stroke="black" stroke-width="1" fill="blue" opacity="1" tooltip="enable"><title>(0.0599352,0)</title></rect><rect x="552" y="199.857" width="6" height="0.143113" stroke="black" stroke-width="1" fill="blue" opacity="1" tooltip="enable"><title>(0.0605939,2)</title></rect><rect x="558" y="199.857" width="6" height="0.143113" stroke="black" stroke-width="1" fill="blue" opacity="1" tooltip="enable"><title>(0.0612525,2)</title></rect><rect x="564" y="200" width="6" height="0" stroke="black" stroke-width="1" fill="blue" opacity="1" tooltip="enable"><title>(0.0619111,0)</title></rect><rect x="570" y="200" width="6" height="0" stroke="black" stroke-width="1" fill="blue" opacity="1" tooltip="enable"><title>(0.0625698,0)</title></rect><rect x="576" y="200" width="6" height="0" stroke="black" stroke-width="1" fill="blue" opacity="1" tooltip="enable"><title>(0.0632284,0)</title></rect><rect x="582" y="200" width="6" height="0" stroke="black" stroke-width="1" fill="blue" opacity="1" tooltip="enable"><title>(0.063887,0)</title></rect><rect x="588" y="200" width="6" height="0" stroke="black" stroke-width="1" fill="blue" opacity="1" tooltip="enable"><title>(0.0645457,0)</title></rect><rect x="594" y="199.928" width="6" height="0.0715564" stroke="black" stroke-width="1" fill="blue" opacity="1" tooltip="enable"><title>(0.0652043,1)</title></rect><text x="30" y="240" font-size="20" fill="black">0</text>
<text x="600" y="240" font-size="20" fill="black">0.0658629</text>
<polyline points="0,220,600,220" stroke="black" stroke-width="1" fill="none" opacity="1"/>
<text x="720" y="20" font-size="20" fill="black">2795</text>
<text x="720" y="200" font-size="20" fill="black">0</text>
<polyline points="660,0,660,200" stroke="black" stroke-width="1" fill="none" opacity="1"/>
</svg>