<?xml version="1.0" standalone="yes"?>
<!-- SVG graphic -->
<svg xmlns='http://www.w3.org/2000/svg' xmlns:xlink='http://www.w3.org/1999/xlink'
 version="1.1">
<rect x="0" y="0" width="6" height="200" stroke="black" stroke-width="1" fill="blue" opacity="1" tooltip="enable"><title>(0,2133)</title></rect><rect x="6" y="69.1983" width="6" height="130.802" stroke="black" stroke-width="1" fill="blue" opacity="1" tooltip="enable"><title>(0.00141483,1395)</title></rect><rect x="12" y="145.335" width="6" height="54.6648" stroke="black" stroke-width="1" fill="blue" opacity="1" tooltip="enable"><title>(0.00282966,583)</title></rect><rect x="18" y="171.589" width="6" height="28.4107" stroke="black" stroke-width="1" fill="blue" opacity="1" tooltip="enable"><title>(0.0042445,303)</title></rect><rect x="24" y="180.872" width="6" height="19.128" stroke="black" stroke-width="1" fill="blue" opacity="1" tooltip="enable"><title>(0.00565933,204)</title></rect><rect x="30" y="183.029" width="6" height="16.9714" stroke="black" stroke-width="1" fill="blue" opacity="1" tooltip="enable"><title>(0.00707416,181)</title></rect><rect x="36" y="189.03" width="6" height="10.9705" stroke="black" stroke-width="1" fill="blue" opacity="1" tooltip="enable"><title>(0.00848899,117)</title></rect><rect x="42" y="189.405" width="6" height="10.5954" stroke="black" stroke-width="1" fill="blue" opacity="1" tooltip="enable"><title>(0.00990382,113)</title></rect><rect x="48" y="188.842" width="6" height="11.158" stroke="black" stroke-width="1" fill="blue" opacity="1" tooltip="enable"><title>(0.0113187,119)</title></rect><rect x="54" y="189.686" width="6" height="10.3141" stroke="black" stroke-width="1" fill="blue" opacity="1" tooltip="enable"><title>(0.0127335,110)</title></rect><rect x="60" y="190.999" width="6" height="9.00141" stroke="black" stroke-width="1" fill="blue" opacity="1" tooltip="enable"><title>(0.0141483,96)</title></rect><rect x="66" y="191.749" width="6" height="8.25129" stroke="black" stroke-width="1" fill="blue" opacity="1" tooltip="enable"><title>(0.0155632,88)</title></rect><rect x="72" y="193.061" width="6" height="6.93858" stroke="black" stroke-width="1" fill="blue" opacity="1" tooltip="enable"><title>(0.016978,74)</title></rect><rect x="78" y="192.499" width="6" height="7.50117" stroke="black" stroke-width="1" fill="blue" opacity="1" tooltip="enable"><title>(0.0183928,80)</title></rect><rect x="84" y="191.749" width="6" height="8.25129" stroke="black" stroke-width="1" fill="blue" opacity="1" tooltip="enable"><title>(0.0198076,88)</title></rect><rect x="90" y="190.811" width="6" height="9.18894" stroke="black" stroke-width="1" fill="blue" opacity="1" tooltip="enable"><title>(0.0212225,98)</title></rect><rect x="96" y="193.155" width="6" height="6.84482" stroke="black" stroke-width="1" fill="blue" opacity="1" tooltip="enable"><title>(0.0226373,73)</title></rect><rect x="102" y="190.342" width="6" height="9.65776" stroke="black" stroke-width="1" fill="blue" opacity="1" tooltip="enable"><title>(0.0240521,103)</title></rect><rect x="108" y="190.155" width="6" height="9.84529" stroke="black" stroke-width="1" fill="blue" opacity="1" tooltip="enable"><title>(0.025467,105)</title></rect><rect x="114" y="191.561" width="6" height="8.43882" stroke="black" stroke-width="1" fill="blue" opacity="1" tooltip="enable"><title>(0.0268818,90)</title></rect><rect x="120" y="191.092" width="6" height="8.90764" stroke="black" stroke-width="1" fill="blue" opacity="1" tooltip="enable"><title>(0.0282966,95)</title></rect><rect x="126" y="188.373" width="6" height="11.6268" stroke="black" stroke-width="1" fill="blue" opacity="1" tooltip="enable"><title>(0.0297115,124)</title></rect><rect x="132" y="190.624" width="6" height="9.37646" stroke="black" stroke-width="1" fill="blue" opacity="1" tooltip="enable"><title>(0.0311263,100)</title></rect><rect x="138" y="192.124" width="6" height="7.87623" stroke="black" stroke-width="1" fill="blue" opacity="1" tooltip="enable"><title>(0.0325411,84)</title></rect><rect x="144" y="193.343" width="6" height="6.65729" stroke="black" stroke-width="1" fill="blue" opacity="1" tooltip="enable"><title>(0.033956,71)</title></rect><rect x="150" y="192.405" width="6" height="7.59494" stroke="black" stroke-width="1" fill="blue" opacity="1" tooltip="enable"><title>(0.0353708,81)</title></rect><rect x="156" y="193.249" width="6" height="6.75105" stroke="black" stroke-width="1" fill="blue" opacity="1" tooltip="enable"><title>(0.0367856,72)</title></rect><rect x="162" y="191.936" width="6" height="8.06376" stroke="black" stroke-width="1" fill="blue" opacity="1" tooltip="enable"><title>(0.0382005,86)</title></rect><rect x="168" y="194.562" width="6" height="5.43835" stroke="black" stroke-width="1" fill="blue" opacity="1" tooltip="enable"><title>(0.0396153,58)</title></rect><rect x="174" y="194.187" width="6" height="5.81341" stroke="black" stroke-width="1" fill="blue" opacity="1" tooltip="enable"><title>(0.0410301,62)</title></rect><rect x="180" y="195.499" width="6" height="4.5007" stroke="black" stroke-width="1" fill="blue" opacity="1" tooltip="enable"><title>(0.042445,48)</title></rect><rect x="186" y="196.249" width="6" height="3.75059" stroke="black" stroke-width="1" fill="blue" opacity="1" tooltip="enable"><title>(0.0438598,40)</title></rect><rect x="192" y="196.624" width="6" height="3.37553" stroke="black" stroke-width="1" fill="blue" opacity="1" tooltip="enable"><title>(0.0452746,36)</title></rect><rect x="198" y="195.312" width="6" height="4.68823" stroke="black" stroke-width="1" fill="blue" opacity="1" tooltip="enable"><title>(0.0466895,50)</title></rect><rect x="204" y="196.249" width="6" height="3.75059" stroke="black" stroke-width="1" fill="blue" opacity="1" tooltip="enable"><title>(0.0481043,40)</title></rect><rect x="210" y="196.624" width="6" height="3.37553" stroke="black" stroke-width="1" fill="blue" opacity="1" tooltip="enable"><title>(0.0495191,36)</title></rect><rect x="216" y="196.249" width="6" height="3.75059" stroke="black" stroke-width="1" fill="blue" opacity="1" tooltip="enable"><title>(0.0509339,40)</title></rect><rect x="222" y="197.937" width="6" height="2.06282" stroke="black" stroke-width="1" fill="blue" opacity="1" tooltip="enable"><title>(0.0523488,22)</title></rect><rect x="228" y="196.437" width="6" height="3.56306" stroke="black" stroke-width="1" fill="blue" opacity="1" tooltip="enable"><title>(0.0537636,38)</title></rect><rect x="234" y="196.531" width="6" height="3.46929" stroke="black" stroke-width="1" fill="blue" opacity="1" tooltip="enable"><title>(0.0551784,37)</title></rect><rect x="240" y="197.281" width="6" height="2.71917" stroke="black" stroke-width="1" fill="blue" opacity="1" tooltip="enable"><title>(0.0565933,29)</title></rect><rect x="246" y="198.312" width="6" height="1.68776" stroke="black" stroke-width="1" fill="blue" opacity="1" tooltip="enable"><title>(0.0580081,18)</title></rect><rect x="252" y="197.562" width="6" height="2.43788" stroke="black" stroke-width="1" fill="blue" opacity="1" tooltip="enable"><title>(0.0594229,26)</title></rect><rect x="258" y="197.75" width="6" height="2.25035" stroke="black" stroke-width="1" fill="blue" opacity="1" tooltip="enable"><title>(0.0608378,24)</title></rect><rect x="264" y="198.031" width="6" height="1.96906" stroke="black" stroke-width="1" fill="blue" opacity="1" tooltip="enable"><title>(0.0622526,21)</title></rect><rect x="270" y="198.594" width="6" height="1.40647" stroke="black" stroke-width="1" fill="blue" opacity="1" tooltip="enable"><title>(0.0636674,15)</title></rect><rect x="276" y="198.687" width="6" height="1.31271" stroke="black" stroke-width="1" fill="blue" opacity="1" tooltip="enable"><title>(0.0650823,14)</title></rect><rect x="282" y="196.343" width="6" height="3.65682" stroke="black" stroke-width="1" fill="blue" opacity="1" tooltip="enable"><title>(0.0664971,39)</title></rect><rect x="288" y="197.843" width="6" height="2.15659" stroke="black" stroke-width="1" fill="blue" opacity="1" tooltip="enable"><title>(0.0679119,23)</title></rect><rect x="294" y="197.093" width="6" height="2.9067" stroke="black" stroke-width="1" fill="blue" opacity="1" tooltip="enable"><title>(0.0693268,31)</title></rect><rect x="300" y="197.281" width="6" height="2.71917" stroke="black" stroke-width="1" fill="blue" opacity="1" tooltip="enable"><title>(0.0707416,29)</title></rect><rect x="306" y="197.093" width="6" height="2.9067" stroke="black" stroke-width="1" fill="blue" opacity="1" tooltip="enable"><title>(0.0721564,31)</title></rect><rect x="312" y="198.594" width="6" height="1.40647" stroke="black" stroke-width="1" fill="blue" opacity="1" tooltip="enable"><title>(0.0735713,15)</title></rect><rect x="318" y="197.937" width="6" height="2.06282" stroke="black" stroke-width="1" fill="blue" opacity="1" tooltip="enable"><title>(0.0749861,22)</title></rect><rect x="324" y="197.562" width="6" height="2.43788" stroke="black" stroke-width="1" fill="blue" opacity="1" tooltip="enable"><title>(0.0764009,26)</title></rect><rect x="330" y="198.125" width="6" height="1.87529" stroke="black" stroke-width="1" fill="blue" opacity="1" tooltip="enable"><title>(0.0778158,20)</title></rect><rect x="336" y="199.062" width="6" height="0.937647" stroke="black" stroke-width="1" fill="blue" opacity="1" tooltip="enable"><title>(0.0792306,10)</title></rect><rect x="342" y="197.843" width="6" height="2.15659" stroke="black" stroke-width="1" fill="blue" opacity="1" tooltip="enable"><title>(0.0806454,23)</title></rect><rect x="348" y="198.781" width="6" height="1.21894" stroke="black" stroke-width="1" fill="blue" opacity="1" tooltip="enable"><title>(0.0820602,13)</title></rect><rect x="354" y="198.875" width="6" height="1.12518" stroke="black" stroke-width="1" fill="blue" opacity="1" tooltip="enable"><title>(0.0834751,12)</title></rect><rect x="360" y="199.531" width="6" height="0.468823" stroke="black" stroke-width="1" fill="blue" opacity="1" tooltip="enable"><title>(0.0848899,5)</title></rect><rect x="366" y="197.75" width="6" height="2.25035" stroke="black" stroke-width="1" fill="blue" opacity="1" tooltip="enable"><title>(0.0863047,24)</title></rect><rect x="372" y="197.375" width="6" height="2.62541" stroke="black" stroke-width="1" fill="blue" opacity="1" tooltip="enable"><title>(0.0877196,28)</title></rect><rect x="378" y="198.781" width="6" height="1.21894" stroke="black" stroke-width="1" fill="blue" opacity="1" tooltip="enable"><title>(0.0891344,13)</title></rect><rect x="384" y="199.062" width="6" height="0.937647" stroke="black" stroke-width="1" fill="blue" opacity="1" tooltip="enable"><title>(0.0905492,10)</title></rect><rect x="390" y="198.687" width="6" height="1.31271" stroke="black" stroke-width="1" fill="blue" opacity="1" tooltip="enable"><title>(0.0919641,14)</title></rect><rect x="396" y="199.812" width="6" height="0.187529" stroke="black" stroke-width="1" fill="blue" opacity="1" tooltip="enable"><title>(0.0933789,2)</title></rect><rect x="402" y="199.625" width="6" height="0.375059" stroke="black" stroke-width="1" fill="blue" opacity="1" tooltip="enable"><title>(0.0947937,4)</title></rect><rect x="408" y="198.687" width="6" height="1.31271" stroke="black" stroke-width="1" fill="blue" opacity="1" tooltip="enable"><title>(0.0962086,14)</title></rect><rect x="414" y="198.969" width="6" height="1.03141" stroke="black" stroke-width="1" fill="blue" opacity="1" tooltip="enable"><title>(0.0976234,11)</title></rect><rect x="420" y="199.719" width="6" height="0.281294" stroke="black" stroke-width="1" fill="blue" opacity="1" tooltip="enable"><title>(0.0990382,3)</title></rect><rect x="426" y="199.437" width="6" height="0.562588" stroke="black" stroke-width="1" fill="blue" opacity="1" tooltip="enable"><title>(0.100453,6)</title></rect><rect x="432" y="199.625" width="6" height="0.375059" stroke="black" stroke-width="1" fill="blue" opacity="1" tooltip="enable"><title>(0.101868,4)</title></rect><rect x="438" y="199.625" width="6" height="0.375059" stroke="black" stroke-width="1" fill="blue" opacity="1" tooltip="enable"><title>(0.103283,4)</title></rect><rect x="444" y="199.812" width="6" height="0.187529" stroke="black" stroke-width="1" fill="blue" opacity="1" tooltip="enable"><title>(0.104698,2)</title></rect><rect x="450" y="199.344" width="6" height="0.656353" stroke="black" stroke-width="1" fill="blue" opacity="1" tooltip="enable"><title>(0.106112,7)</title></rect><rect x="456" y="199.531" width="6" height="0.468823" stroke="black" stroke-width="1" fill="blue" opacity="1" tooltip="enable"><title>(0.107527,5)</title></rect><rect x="462" y="199.437" width="6" height="0.562588" stroke="black" stroke-width="1" fill="blue" opacity="1" tooltip="enable"><title>(0.108942,6)</title></rect><rect x="468" y="199.625" width="6" height="0.375059" stroke="black" stroke-width="1" fill="blue" opacity="1" tooltip="enable"><title>(0.110357,4)</title></rect><rect x="474" y="199.625" width="6" height="0.375059" stroke="black" stroke-width="1" fill="blue" opacity="1" tooltip="enable"><title>(0.111772,4)</title></rect><rect x="480" y="199.625" width="6" height="0.375059" stroke="black" stroke-width="1" fill="blue" opacity="1" tooltip="enable"><title>(0.113187,4)</title></rect><rect x="486" y="200" width="6" height="0" stroke="black" stroke-width="1" fill="blue" opacity="1" tooltip="enable"><title>(0.114601,0)</title></rect><rect x="492" y="199.812" width="6" height="0.187529" stroke="black" stroke-width="1" fill="blue" opacity="1" tooltip="enable"><title>(0.116016,2)</title></rect><rect x="498" y="199.812" width="6" height="0.187529" stroke="black" stroke-width="1" fill="blue" opacity="1" tooltip="enable"><title>(0.117431,2)</title></rect><rect x="504" y="200" width="6" height="0" stroke="black" stroke-width="1" fill="blue" opacity="1" tooltip="enable"><title>(0.118846,0)</title></rect><rect x="510" y="199.812" width="6" height="0.187529" stroke="black" stroke-width="1" fill="blue" opacity="1" tooltip="enable"><title>(0.120261,2)</title></rect><rect x="516" y="200" width="6" height="0" stroke="black" stroke-width="1" fill="blue" opacity="1" tooltip="enable"><title>(0.121676,0)</title></rect><rect x="522" y="200" width="6" height="0" stroke="black" stroke-width="1" fill="blue" opacity="1" tooltip="enable"><title>(0.12309,0)</title></rect><rect x="528" y="200" width="6" height="0" stroke="black" stroke-width="1" fill="blue" opacity="1" tooltip="enable"><title>(0.124505,0)</title></rect><rect x="534" y="200" width="6" height="0" stroke="black" stroke-width="1" fill="blue" opacity="1" tooltip="enable"><title>(0.12592,0)</title></rect><rect x="540" y="200" width="6" height="0" stroke="black" stroke-width="1" fill="blue" opacity="1" tooltip="enable"><title>(0.127335,0)</title></rect><rect x="546" y="200" width="6" height="0" stroke="black" stroke-width="1" fill="blue" opacity="1" tooltip="enable"><title>(0.12875,0)</title></rect><rect x="552" y="200" width="6" height="0" stroke="black" stroke-width="1" fill="blue" opacity="1" tooltip="enable"><title>(0.130165,0)</title></rect><rect x="558" y="200" width="6" height="0" stroke="black" stroke-width="1" fill="blue" opacity="1" tooltip="enable"><title>(0.131579,0)</title></rect><rect x="564" y="200" width="6" height="0" stroke="black" stroke-width="1" fill="blue" opacity="1" tooltip="enable"><title>(0.132994,0)</title></rect><rect x="570" y="200" width="6" height="0" stroke="black" stroke-width="1" fill="blue" opacity="1" tooltip="enable"><title>(0.134409,0)</title></rect><rect x="576" y="199.812" width="6" height="0.187529" stroke="black" stroke-width="1" fill="blue" opacity="1" tooltip="enable"><title>(0.135824,2)</title></rect><rect x="582" y="199.812" width="6" height="0.187529" stroke="black" stroke-width="1" fill="blue" opacity="1" tooltip="enable"><title>(0.137239,2)</title></rect><rect x="588" y="200" width="6" height="0" stroke="black" stroke-width="1" fill="blue" opacity="1" tooltip="enable"><title>(0.138654,0)</title></rect><rect x="594" y="199.906" width="6" height="0.0937646" stroke="black" stroke-width="1" fill="blue" opacity="1" tooltip="enable"><title>(0.140068,1)</title></rect><text x="30" y="240" font-size="20" fill="black">0</text>
<text x="600" y="240" font-size="20" fill="black">0.141483</text>
<polyline points="0,220,600,220" stroke="black" stroke-width="1" fill="none" opacity="1"/>
<text x="720" y="20" font-size="20" fill="black">2133</text>
<text x="720" y="200" font-size="20" fill="black">0</text>
<polyline points="660,0,660,200" stroke="black" stroke-width="1" fill="none" opacity="1"/>
</svg>