<?xml version="1.0" standalone="yes"?>
<!-- SVG graphic -->
<svg xmlns='http://www.w3.org/2000/svg' xmlns:xlink='http://www.w3.org/1999/xlink'
 version="1.1">
<rect x="0" y="0" width="6" height="200" stroke="black" stroke-width="1" fill="blue" opacity="1" tooltip="enable"><title>(0,1100)</title></rect><rect x="6" y="3.27272" width="6" height="196.727" stroke="black" stroke-width="1" fill="blue" opacity="1" tooltip="enable"><title>(0.00134098,1082)</title></rect><rect x="12" y="16.1818" width="6" height="183.818" stroke="black" stroke-width="1" fill="blue" opacity="1" tooltip="enable"><title>(0.00268196,1011)</title></rect><rect x="18" y="67.0909" width="6" height="132.909" stroke="black" stroke-width="1" fill="blue" opacity="1" tooltip="enable"><title>(0.00402295,731)</title></rect><rect x="24" y="125.091" width="6" height="74.9091" stroke="black" stroke-width="1" fill="blue" opacity="1" tooltip="enable"><title>(0.00536393,412)</title></rect><rect x="30" y="147.818" width="6" height="52.1818" stroke="black" stroke-width="1" fill="blue" opacity="1" tooltip="enable"><title>(0.00670491,287)</title></rect><rect x="36" y="161.273" width="6" height="38.7273" stroke="black" stroke-width="1" fill="blue" opacity="1" tooltip="enable"><title>(0.0080459,213)</title></rect><rect x="42" y="168.364" width="6" height="31.6364" stroke="black" stroke-width="1" fill="blue" opacity="1" tooltip="enable"><title>(0.00938688,174)</title></rect><rect x="48" y="170.182" width="6" height="29.8182" stroke="black" stroke-width="1" fill="blue" opacity="1" tooltip="enable"><title>(0.0107279,164)</title></rect><rect x="54" y="172.364" width="6" height="27.6364" stroke="black" stroke-width="1" fill="blue" opacity="1" tooltip="enable"><title>(0.0120688,152)</title></rect><rect x="60" y="173.455" width="6" height="26.5455" stroke="black" stroke-width="1" fill="blue" opacity="1" tooltip="enable"><title>(0.0134098,146)</title></rect><rect x="66" y="172.364" width="6" height="27.6364" stroke="black" stroke-width="1" fill="blue" opacity="1" tooltip="enable"><title>(0.0147508,152)</title></rect><rect x="72" y="170.545" width="6" height="29.4545" stroke="black" stroke-width="1" fill="blue" opacity="1" tooltip="enable"><title>(0.0160918,162)</title></rect><rect x="78" y="174" width="6" height="26" stroke="black" stroke-width="1" fill="blue" opacity="1" tooltip="enable"><title>(0.0174328,143)</title></rect><rect x="84" y="171.455" width="6" height="28.5455" stroke="black" stroke-width="1" fill="blue" opacity="1" tooltip="enable"><title>(0.0187738,157)</title></rect><rect x="90" y="177.455" width="6" height="22.5455" stroke="black" stroke-width="1" fill="blue" opacity="1" tooltip="enable"><title>(0.0201147,124)</title></rect><rect x="96" y="170.182" width="6" height="29.8182" stroke="black" stroke-width="1" fill="blue" opacity="1" tooltip="enable"><title>(0.0214557,164)</title></rect><rect x="102" y="181.818" width="6" height="18.1818" stroke="black" stroke-width="1" fill="blue" opacity="1" tooltip="enable"><title>(0.0227967,100)</title></rect><rect x="108" y="181.818" width="6" height="18.1818" stroke="black" stroke-width="1" fill="blue" opacity="1" tooltip="enable"><title>(0.0241377,100)</title></rect><rect x="114" y="181.818" width="6" height="18.1818" stroke="black" stroke-width="1" fill="blue" opacity="1" tooltip="enable"><title>(0.0254787,100)</title></rect><rect x="120" y="181.818" width="6" height="18.1818" stroke="black" stroke-width="1" fill="blue" opacity="1" tooltip="enable"><title>(0.0268197,100)</title></rect><rect x="126" y="180.727" width="6" height="19.2727" stroke="black" stroke-width="1" fill="blue" opacity="1" tooltip="enable"><title>(0.0281606,106)</title></rect><rect x="132" y="181.273" width="6" height="18.7273" stroke="black" stroke-width="1" fill="blue" opacity="1" tooltip="enable"><title>(0.0295016,103)</title></rect><rect x="138" y="181.091" width="6" height="18.9091" stroke="black" stroke-width="1" fill="blue" opacity="1" tooltip="enable"><title>(0.0308426,104)</title></rect><rect x="144" y="180.727" width="6" height="19.2727" stroke="black" stroke-width="1" fill="blue" opacity="1" tooltip="enable"><title>(0.0321836,106)</title></rect><rect x="150" y="181.273" width="6" height="18.7273" stroke="black" stroke-width="1" fill="blue" opacity="1" tooltip="enable"><title>(0.0335246,103)</title></rect><rect x="156" y="187.455" width="6" height="12.5455" stroke="black" stroke-width="1" fill="blue" opacity="1" tooltip="enable"><title>(0.0348655,69)</title></rect><rect x="162" y="186.364" width="6" height="13.6364" stroke="black" stroke-width="1" fill="blue" opacity="1" tooltip="enable"><title>(0.0362065,75)</title></rect><rect x="168" y="188.364" width="6" height="11.6364" stroke="black" stroke-width="1" fill="blue" opacity="1" tooltip="enable"><title>(0.0375475,64)</title></rect><rect x="174" y="188.727" width="6" height="11.2727" stroke="black" stroke-width="1" fill="blue" opacity="1" tooltip="enable"><title>(0.0388885,62)</title></rect><rect x="180" y="190.909" width="6" height="9.09091" stroke="black" stroke-width="1" fill="blue" opacity="1" tooltip="enable"><title>(0.0402295,50)</title></rect><rect x="186" y="193.273" width="6" height="6.72727" stroke="black" stroke-width="1" fill="blue" opacity="1" tooltip="enable"><title>(0.0415705,37)</title></rect><rect x="192" y="191.818" width="6" height="8.18182" stroke="black" stroke-width="1" fill="blue" opacity="1" tooltip="enable"><title>(0.0429114,45)</title></rect><rect x="198" y="194.182" width="6" height="5.81818" stroke="black" stroke-width="1" fill="blue" opacity="1" tooltip="enable"><title>(0.0442524,32)</title></rect><rect x="204" y="195.636" width="6" height="4.36364" stroke="black" stroke-width="1" fill="blue" opacity="1" tooltip="enable"><title>(0.0455934,24)</title></rect><rect x="210" y="195.636" width="6" height="4.36364" stroke="black" stroke-width="1" fill="blue" opacity="1" tooltip="enable"><title>(0.0469344,24)</title></rect><rect x="216" y="197.455" width="6" height="2.54545" stroke="black" stroke-width="1" fill="blue" opacity="1" tooltip="enable"><title>(0.0482754,14)</title></rect><rect x="222" y="196.364" width="6" height="3.63636" stroke="black" stroke-width="1" fill="blue" opacity="1" tooltip="enable"><title>(0.0496164,20)</title></rect><rect x="228" y="197.455" width="6" height="2.54545" stroke="black" stroke-width="1" fill="blue" opacity="1" tooltip="enable"><title>(0.0509573,14)</title></rect><rect x="234" y="197.091" width="6" height="2.90909" stroke="black" stroke-width="1" fill="blue" opacity="1" tooltip="enable"><title>(0.0522983,16)</title></rect><rect x="240" y="199.273" width="6" height="0.727273" stroke="black" stroke-width="1" fill="blue" opacity="1" tooltip="enable"><title>(0.0536393,4)</title></rect><rect x="246" y="198.182" width="6" height="1.81818" stroke="black" stroke-width="1" fill="blue" opacity="1" tooltip="enable"><title>(0.0549803,10)</title></rect><rect x="252" y="197.455" width="6" height="2.54545" stroke="black" stroke-width="1" fill="blue" opacity="1" tooltip="enable"><title>(0.0563213,14)</title></rect><rect x="258" y="197.455" width="6" height="2.54545" stroke="black" stroke-width="1" fill="blue" opacity="1" tooltip="enable"><title>(0.0576622,14)</title></rect><rect x="264" y="198.909" width="6" height="1.09091" stroke="black" stroke-width="1" fill="blue" opacity="1" tooltip="enable"><title>(0.0590032,6)</title></rect><rect x="270" y="199.273" width="6" height="0.727273" stroke="black" stroke-width="1" fill="blue" opacity="1" tooltip="enable"><title>(0.0603442,4)</title></rect><rect x="276" y="196.727" width="6" height="3.27273" stroke="black" stroke-width="1" fill="blue" opacity="1" tooltip="enable"><title>(0.0616852,18)</title></rect><rect x="282" y="199.273" width="6" height="0.727273" stroke="black" stroke-width="1" fill="blue" opacity="1" tooltip="enable"><title>(0.0630262,4)</title></rect><rect x="288" y="199.273" width="6" height="0.727273" stroke="black" stroke-width="1" fill="blue" opacity="1" tooltip="enable"><title>(0.0643672,4)</title></rect><rect x="294" y="199.091" width="6" height="0.909091" stroke="black" stroke-width="1" fill="blue" opacity="1" tooltip="enable"><title>(0.0657081,5)</title></rect><rect x="300" y="197.636" width="6" height="2.36364" stroke="black" stroke-width="1" fill="blue" opacity="1" tooltip="enable"><title>(0.0670491,13)</title></rect><rect x="306" y="199.273" width="6" height="0.727273" stroke="black" stroke-width="1" fill="blue" opacity="1" tooltip="enable"><title>(0.0683901,4)</title></rect><rect x="312" y="198.909" width="6" height="1.09091" stroke="black" stroke-width="1" fill="blue" opacity="1" tooltip="enable"><title>(0.0697311,6)</title></rect><rect x="318" y="198.909" width="6" height="1.09091" stroke="black" stroke-width="1" fill="blue" opacity="1" tooltip="enable"><title>(0.0710721,6)</title></rect><rect x="324" y="199.273" width="6" height="0.727273" stroke="black" stroke-width="1" fill="blue" opacity="1" tooltip="enable"><title>(0.0724131,4)</title></rect><rect x="330" y="199.273" width="6" height="0.727273" stroke="black" stroke-width="1" fill="blue" opacity="1" tooltip="enable"><title>(0.073754,4)</title></rect><rect x="336" y="200" width="6" height="0" stroke="black" stroke-width="1" fill="blue" opacity="1" tooltip="enable"><title>(0.075095,0)</title></rect><rect x="342" y="199.636" width="6" height="0.363636" stroke="black" stroke-width="1" fill="blue" opacity="1" tooltip="enable"><title>(0.076436,2)</title></rect><rect x="348" y="200" width="6" height="0" stroke="black" stroke-width="1" fill="blue" opacity="1" tooltip="enable"><title>(0.077777,0)</title></rect><rect x="354" y="199.273" width="6" height="0.727273" stroke="black" stroke-width="1" fill="blue" opacity="1" tooltip="enable"><title>(0.079118,4)</title></rect><rect x="360" y="199.273" width="6" height="0.727273" stroke="black" stroke-width="1" fill="blue" opacity="1" tooltip="enable"><title>(0.080459,4)</title></rect><rect x="366" y="199.273" width="6" height="0.727273" stroke="black" stroke-width="1" fill="blue" opacity="1" tooltip="enable"><title>(0.0817999,4)</title></rect><rect x="372" y="199.273" width="6" height="0.727273" stroke="black" stroke-width="1" fill="blue" opacity="1" tooltip="enable"><title>(0.0831409,4)</title></rect><rect x="378" y="198.909" width="6" height="1.09091" stroke="black" stroke-width="1" fill="blue" opacity="1" tooltip="enable"><title>(0.0844819,6)</title></rect><rect x="384" y="200" width="6" height="0" stroke="black" stroke-width="1" fill="blue" opacity="1" tooltip="enable"><title>(0.0858229,0)</title></rect><rect x="390" y="199.636" width="6" height="0.363636" stroke="black" stroke-width="1" fill="blue" opacity="1" tooltip="enable"><title>(0.0871639,2)</title></rect><rect x="396" y="200" width="6" height="0" stroke="black" stroke-width="1" fill="blue" opacity="1" tooltip="enable"><title>(0.0885048,0)</title></rect><rect x="402" y="200" width="6" height="0" stroke="black" stroke-width="1" fill="blue" opacity="1" tooltip="enable"><title>(0.0898458,0)</title></rect><rect x="408" y="199.636" width="6" height="0.363636" stroke="black" stroke-width="1" fill="blue" opacity="1" tooltip="enable"><title>(0.0911868,2)</title></rect><rect x="414" y="200" width="6" height="0" stroke="black" stroke-width="1" fill="blue" opacity="1" tooltip="enable"><title>(0.0925278,0)</title></rect><rect x="420" y="199.636" width="6" height="0.363636" stroke="black" stroke-width="1" fill="blue" opacity="1" tooltip="enable"><title>(0.0938688,2)</title></rect><rect x="426" y="200" width="6" height="0" stroke="black" stroke-width="1" fill="blue" opacity="1" tooltip="enable"><title>(0.0952098,0)</title></rect><rect x="432" y="200" width="6" height="0" stroke="black" stroke-width="1" fill="blue" opacity="1" tooltip="enable"><title>(0.0965507,0)</title></rect><rect x="438" y="199.636" width="6" height="0.363636" stroke="black" stroke-width="1" fill="blue" opacity="1" tooltip="enable"><title>(0.0978917,2)</title></rect><rect x="444" y="199.636" width="6" height="0.363636" stroke="black" stroke-width="1" fill="blue" opacity="1" tooltip="enable"><title>(0.0992327,2)</title></rect><rect x="450" y="199.636" width="6" height="0.363636" stroke="black" stroke-width="1" fill="blue" opacity="1" tooltip="enable"><title>(0.100574,2)</title></rect><rect x="456" y="200" width="6" height="0" stroke="black" stroke-width="1" fill="blue" opacity="1" tooltip="enable"><title>(0.101915,0)</title></rect><rect x="462" y="200" width="6" height="0" stroke="black" stroke-width="1" fill="blue" opacity="1" tooltip="enable"><title>(0.103256,0)</title></rect><rect x="468" y="200" width="6" height="0" stroke="black" stroke-width="1" fill="blue" opacity="1" tooltip="enable"><title>(0.104597,0)</title></rect><rect x="474" y="200" width="6" height="0" stroke="black" stroke-width="1" fill="blue" opacity="1" tooltip="enable"><title>(0.105938,0)</title></rect><rect x="480" y="200" width="6" height="0" stroke="black" stroke-width="1" fill="blue" opacity="1" tooltip="enable"><title>(0.107279,0)</title></rect><rect x="486" y="200" width="6" height="0" stroke="black" stroke-width="1" fill="blue" opacity="1" tooltip="enable"><title>(0.10862,0)</title></rect><rect x="492" y="200" width="6" height="0" stroke="black" stroke-width="1" fill="blue" opacity="1" tooltip="enable"><title>(0.109961,0)</title></rect><rect x="498" y="200" width="6" height="0" stroke="black" stroke-width="1" fill="blue" opacity="1" tooltip="enable"><title>(0.111302,0)</title></rect><rect x="504" y="200" width="6" height="0" stroke="black" stroke-width="1" fill="blue" opacity="1" tooltip="enable"><title>(0.112643,0)</title></rect><rect x="510" y="200" width="6" height="0" stroke="black" stroke-width="1" fill="blue" opacity="1" tooltip="enable"><title>(0.113984,0)</title></rect><rect x="516" y="200" width="6" height="0" stroke="black" stroke-width="1" fill="blue" opacity="1" tooltip="enable"><title>(0.115324,0)</title></rect><rect x="522" y="200" width="6" height="0" stroke="black" stroke-width="1" fill="blue" opacity="1" tooltip="enable"><title>(0.116665,0)</title></rect><rect x="528" y="200" width="6" height="0" stroke="black" stroke-width="1" fill="blue" opacity="1" tooltip="enable"><title>(0.118006,0)</title></rect><rect x="534" y="200" width="6" height="0" stroke="black" stroke-width="1" fill="blue" opacity="1" tooltip="enable"><title>(0.119347,0)</title></rect><rect x="540" y="200" width="6" height="0" stroke="black" stroke-width="1" fill="blue" opacity="1" tooltip="enable"><title>(0.120688,0)</title></rect><rect x="546" y="200" width="6" height="0" stroke="black" stroke-width="1" fill="blue" opacity="1" tooltip="enable"><title>(0.122029,0)</title></rect><rect x="552" y="200" width="6" height="0" stroke="black" stroke-width="1" fill="blue" opacity="1" tooltip="enable"><title>(0.12337,0)</title></rect><rect x="558" y="200" width="6" height="0" stroke="black" stroke-width="1" fill="blue" opacity="1" tooltip="enable"><title>(0.124711,0)</title></rect><rect x="564" y="200" width="6" height="0" stroke="black" stroke-width="1" fill="blue" opacity="1" tooltip="enable"><title>(0.126052,0)</title></rect><rect x="570" y="200" width="6" height="0" stroke="black" stroke-width="1" fill="blue" opacity="1" tooltip="enable"><title>(0.127393,0)</title></rect><rect x="576" y="200" width="6" height="0" stroke="black" stroke-width="1" fill="blue" opacity="1" tooltip="enable"><title>(0.128734,0)</title></rect><rect x="582" y="200" width="6" height="0" stroke="black" stroke-width="1" fill="blue" opacity="1" tooltip="enable"><title>(0.130075,0)</title></rect><rect x="588" y="200" width="6" height="0" stroke="black" stroke-width="1" fill="blue" opacity="1" tooltip="enable"><title>(0.131416,0)</title></rect><rect x="594" y="199.818" width="6" height="0.181818" stroke="black" stroke-width="1" fill="blue" opacity="1" tooltip="enable"><title>(0.132757,1)</title></rect><text x="30" y="240" font-size="20" fill="black">0</text>
<text x="600" y="240" font-size="20" fill="black">0.134098</text>
<polyline points="0,220,600,220" stroke="black" stroke-width="1" fill="none" opacity="1"/>
<text x="720" y="20" font-size="20" fill="black">1100</text>
<text x="720" y="200" font-size="20" fill="black">0</text>
<polyline points="660,0,660,200" stroke="black" stroke-width="1" fill="none" opacity="1"/>
</svg>