<?xml version="1.0" standalone="yes"?>
<!-- SVG graphic -->
<svg xmlns='http://www.w3.org/2000/svg' xmlns:xlink='http://www.w3.org/1999/xlink'
 version="1.1">
<rect x="0" y="0" width="6" height="200" stroke="black" stroke-width="1" fill="blue" opacity="1" tooltip="enable"><title>(0,4309)</title></rect><rect x="6" y="184.265" width="6" height="15.7345" stroke="black" stroke-width="1" fill="blue" opacity="1" tooltip="enable"><title>(0.00263174,339)</title></rect><rect x="12" y="184.219" width="6" height="15.7809" stroke="black" stroke-width="1" fill="blue" opacity="1" tooltip="enable"><title>(0.00526349,340)</title></rect><rect x="18" y="183.059" width="6" height="16.9413" stroke="black" stroke-width="1" fill="blue" opacity="1" tooltip="enable"><title>(0.00789523,365)</title></rect><rect x="24" y="183.337" width="6" height="16.6628" stroke="black" stroke-width="1" fill="blue" opacity="1" tooltip="enable"><title>(0.010527,359)</title></rect><rect x="30" y="186.818" width="6" height="13.1817" stroke="black" stroke-width="1" fill="blue" opacity="1" tooltip="enable"><title>(0.0131587,284)</title></rect><rect x="36" y="187.932" width="6" height="12.0678" stroke="black" stroke-width="1" fill="blue" opacity="1" tooltip="enable"><title>(0.0157905,260)</title></rect><rect x="42" y="188.582" width="6" height="11.418" stroke="black" stroke-width="1" fill="blue" opacity="1" tooltip="enable"><title>(0.0184222,246)</title></rect><rect x="48" y="191.738" width="6" height="8.26178" stroke="black" stroke-width="1" fill="blue" opacity="1" tooltip="enable"><title>(0.0210539,178)</title></rect><rect x="54" y="191.274" width="6" height="8.72592" stroke="black" stroke-width="1" fill="blue" opacity="1" tooltip="enable"><title>(0.0236857,188)</title></rect><rect x="60" y="191.877" width="6" height="8.12253" stroke="black" stroke-width="1" fill="blue" opacity="1" tooltip="enable"><title>(0.0263174,175)</title></rect><rect x="66" y="194.059" width="6" height="5.94105" stroke="black" stroke-width="1" fill="blue" opacity="1" tooltip="enable"><title>(0.0289492,128)</title></rect><rect x="72" y="194.709" width="6" height="5.29125" stroke="black" stroke-width="1" fill="blue" opacity="1" tooltip="enable"><title>(0.0315809,114)</title></rect><rect x="78" y="195.591" width="6" height="4.40938" stroke="black" stroke-width="1" fill="blue" opacity="1" tooltip="enable"><title>(0.0342127,95)</title></rect><rect x="84" y="196.24" width="6" height="3.75957" stroke="black" stroke-width="1" fill="blue" opacity="1" tooltip="enable"><title>(0.0368444,81)</title></rect><rect x="90" y="196.89" width="6" height="3.10977" stroke="black" stroke-width="1" fill="blue" opacity="1" tooltip="enable"><title>(0.0394761,67)</title></rect><rect x="96" y="197.169" width="6" height="2.83128" stroke="black" stroke-width="1" fill="blue" opacity="1" tooltip="enable"><title>(0.0421079,61)</title></rect><rect x="102" y="196.705" width="6" height="3.29543" stroke="black" stroke-width="1" fill="blue" opacity="1" tooltip="enable"><title>(0.0447396,71)</title></rect><rect x="108" y="197.354" width="6" height="2.64563" stroke="black" stroke-width="1" fill="blue" opacity="1" tooltip="enable"><title>(0.0473714,57)</title></rect><rect x="114" y="197.401" width="6" height="2.59921" stroke="black" stroke-width="1" fill="blue" opacity="1" tooltip="enable"><title>(0.0500031,56)</title></rect><rect x="120" y="198.561" width="6" height="1.43885" stroke="black" stroke-width="1" fill="blue" opacity="1" tooltip="enable"><title>(0.0526349,31)</title></rect><rect x="126" y="198.329" width="6" height="1.67092" stroke="black" stroke-width="1" fill="blue" opacity="1" tooltip="enable"><title>(0.0552666,36)</title></rect><rect x="132" y="198.886" width="6" height="1.11395" stroke="black" stroke-width="1" fill="blue" opacity="1" tooltip="enable"><title>(0.0578983,24)</title></rect><rect x="138" y="199.211" width="6" height="0.789046" stroke="black" stroke-width="1" fill="blue" opacity="1" tooltip="enable"><title>(0.0605301,17)</title></rect><rect x="144" y="199.397" width="6" height="0.603388" stroke="black" stroke-width="1" fill="blue" opacity="1" tooltip="enable"><title>(0.0631618,13)</title></rect><rect x="150" y="199.165" width="6" height="0.835461" stroke="black" stroke-width="1" fill="blue" opacity="1" tooltip="enable"><title>(0.0657936,18)</title></rect><rect x="156" y="199.536" width="6" height="0.464145" stroke="black" stroke-width="1" fill="blue" opacity="1" tooltip="enable"><title>(0.0684253,10)</title></rect><rect x="162" y="199.257" width="6" height="0.742632" stroke="black" stroke-width="1" fill="blue" opacity="1" tooltip="enable"><title>(0.0710571,16)</title></rect><rect x="168" y="199.814" width="6" height="0.185658" stroke="black" stroke-width="1" fill="blue" opacity="1" tooltip="enable"><title>(0.0736888,4)</title></rect><rect x="174" y="199.722" width="6" height="0.278487" stroke="black" stroke-width="1" fill="blue" opacity="1" tooltip="enable"><title>(0.0763205,6)</title></rect><rect x="180" y="199.536" width="6" height="0.464145" stroke="black" stroke-width="1" fill="blue" opacity="1" tooltip="enable"><title>(0.0789523,10)</title></rect><rect x="186" y="199.814" width="6" height="0.185658" stroke="black" stroke-width="1" fill="blue" opacity="1" tooltip="enable"><title>(0.081584,4)</title></rect><rect x="192" y="199.907" width="6" height="0.092829" stroke="black" stroke-width="1" fill="blue" opacity="1" tooltip="enable"><title>(0.0842158,2)</title></rect><rect x="198" y="199.722" width="6" height="0.278487" stroke="black" stroke-width="1" fill="blue" opacity="1" tooltip="enable"><title>(0.0868475,6)</title></rect><rect x="204" y="200" width="6" height="0" stroke="black" stroke-width="1" fill="blue" opacity="1" tooltip="enable"><title>(0.0894793,0)</title></rect><rect x="210" y="199.907" width="6" height="0.092829" stroke="black" stroke-width="1" fill="blue" opacity="1" tooltip="enable"><title>(0.092111,2)</title></rect><rect x="216" y="199.907" width="6" height="0.092829" stroke="black" stroke-width="1" fill="blue" opacity="1" tooltip="enable"><title>(0.0947427,2)</title></rect><rect x="222" y="199.814" width="6" height="0.185658" stroke="black" stroke-width="1" fill="blue" opacity="1" tooltip="enable"><title>(0.0973745,4)</title></rect><rect x="228" y="199.814" width="6" height="0.185658" stroke="black" stroke-width="1" fill="blue" opacity="1" tooltip="enable"><title>(0.100006,4)</title></rect><rect x="234" y="200" width="6" height="0" stroke="black" stroke-width="1" fill="blue" opacity="1" tooltip="enable"><title>(0.102638,0)</title></rect><rect x="240" y="200" width="6" height="0" stroke="black" stroke-width="1" fill="blue" opacity="1" tooltip="enable"><title>(0.10527,0)</title></rect><rect x="246" y="200" width="6" height="0" stroke="black" stroke-width="1" fill="blue" opacity="1" tooltip="enable"><title>(0.107901,0)</title></rect><rect x="252" y="200" width="6" height="0" stroke="black" stroke-width="1" fill="blue" opacity="1" tooltip="enable"><title>(0.110533,0)</title></rect><rect x="258" y="199.722" width="6" height="0.278487" stroke="black" stroke-width="1" fill="blue" opacity="1" tooltip="enable"><title>(0.113165,6)</title></rect><rect x="264" y="199.907" width="6" height="0.092829" stroke="black" stroke-width="1" fill="blue" opacity="1" tooltip="enable"><title>(0.115797,2)</title></rect><rect x="270" y="200" width="6" height="0" stroke="black" stroke-width="1" fill="blue" opacity="1" tooltip="enable"><title>(0.118428,0)</title></rect><rect x="276" y="200" width="6" height="0" stroke="black" stroke-width="1" fill="blue" opacity="1" tooltip="enable"><title>(0.12106,0)</title></rect><rect x="282" y="200" width="6" height="0" stroke="black" stroke-width="1" fill="blue" opacity="1" tooltip="enable"><title>(0.123692,0)</title></rect><rect x="288" y="200" width="6" height="0" stroke="black" stroke-width="1" fill="blue" opacity="1" tooltip="enable"><title>(0.126324,0)</title></rect><rect x="294" y="200" width="6" height="0" stroke="black" stroke-width="1" fill="blue" opacity="1" tooltip="enable"><title>(0.128955,0)</title></rect><rect x="300" y="200" width="6" height="0" stroke="black" stroke-width="1" fill="blue" opacity="1" tooltip="enable"><title>(0.131587,0)</title></rect><rect x="306" y="200" width="6" height="0" stroke="black" stroke-width="1" fill="blue" opacity="1" tooltip="enable"><title>(0.134219,0)</title></rect><rect x="312" y="200" width="6" height="0" stroke="black" stroke-width="1" fill="blue" opacity="1" tooltip="enable"><title>(0.136851,0)</title></rect><rect x="318" y="200" width="6" height="0" stroke="black" stroke-width="1" fill="blue" opacity="1" tooltip="enable"><title>(0.139482,0)</title></rect><rect x="324" y="200" width="6" height="0" stroke="black" stroke-width="1" fill="blue" opacity="1" tooltip="enable"><title>(0.142114,0)</title></rect><rect x="330" y="199.907" width="6" height="0.092829" stroke="black" stroke-width="1" fill="blue" opacity="1" tooltip="enable"><title>(0.144746,2)</title></rect><rect x="336" y="199.907" width="6" height="0.092829" stroke="black" stroke-width="1" fill="blue" opacity="1" tooltip="enable"><title>(0.147378,2)</title></rect><rect x="342" y="200" width="6" height="0" stroke="black" stroke-width="1" fill="blue" opacity="1" tooltip="enable"><title>(0.150009,0)</title></rect><rect x="348" y="200" width="6" height="0" stroke="black" stroke-width="1" fill="blue" opacity="1" tooltip="enable"><title>(0.152641,0)</title></rect><rect x="354" y="200" width="6" height="0" stroke="black" stroke-width="1" fill="blue" opacity="1" tooltip="enable"><title>(0.155273,0)</title></rect><rect x="360" y="200" width="6" height="0" stroke="black" stroke-width="1" fill="blue" opacity="1" tooltip="enable"><title>(0.157905,0)</title></rect><rect x="366" y="200" width="6" height="0" stroke="black" stroke-width="1" fill="blue" opacity="1" tooltip="enable"><title>(0.160536,0)</title></rect><rect x="372" y="200" width="6" height="0" stroke="black" stroke-width="1" fill="blue" opacity="1" tooltip="enable"><title>(0.163168,0)</title></rect><rect x="378" y="200" width="6" height="0" stroke="black" stroke-width="1" fill="blue" opacity="1" tooltip="enable"><title>(0.1658,0)</title></rect><rect x="384" y="200" width="6" height="0" stroke="black" stroke-width="1" fill="blue" opacity="1" tooltip="enable"><title>(0.168432,0)</title></rect><rect x="390" y="200" width="6" height="0" stroke="black" stroke-width="1" fill="blue" opacity="1" tooltip="enable"><title>(0.171063,0)</title></rect><rect x="396" y="200" width="6" height="0" stroke="black" stroke-width="1" fill="blue" opacity="1" tooltip="enable"><title>(0.173695,0)</title></rect><rect x="402" y="200" width="6" height="0" stroke="black" stroke-width="1" fill="blue" opacity="1" tooltip="enable"><title>(0.176327,0)</title></rect><rect x="408" y="200" width="6" height="0" stroke="black" stroke-width="1" fill="blue" opacity="1" tooltip="enable"><title>(0.178959,0)</title></rect><rect x="414" y="200" width="6" height="0" stroke="black" stroke-width="1" fill="blue" opacity="1" tooltip="enable"><title>(0.18159,0)</title></rect><rect x="420" y="200" width="6" height="0" stroke="black" stroke-width="1" fill="blue" opacity="1" tooltip="enable"><title>(0.184222,0)</title></rect><rect x="426" y="200" width="6" height="0" stroke="black" stroke-width="1" fill="blue" opacity="1" tooltip="enable"><title>(0.186854,0)</title></rect><rect x="432" y="200" width="6" height="0" stroke="black" stroke-width="1" fill="blue" opacity="1" tooltip="enable"><title>(0.189485,0)</title></rect><rect x="438" y="200" width="6" height="0" stroke="black" stroke-width="1" fill="blue" opacity="1" tooltip="enable"><title>(0.192117,0)</title></rect><rect x="444" y="200" width="6" height="0" stroke="black" stroke-width="1" fill="blue" opacity="1" tooltip="enable"><title>(0.194749,0)</title></rect><rect x="450" y="200" width="6" height="0" stroke="black" stroke-width="1" fill="blue" opacity="1" tooltip="enable"><title>(0.197381,0)</title></rect><rect x="456" y="200" width="6" height="0" stroke="black" stroke-width="1" fill="blue" opacity="1" tooltip="enable"><title>(0.200012,0)</title></rect><rect x="462" y="200" width="6" height="0" stroke="black" stroke-width="1" fill="blue" opacity="1" tooltip="enable"><title>(0.202644,0)</title></rect><rect x="468" y="200" width="6" height="0" stroke="black" stroke-width="1" fill="blue" opacity="1" tooltip="enable"><title>(0.205276,0)</title></rect><rect x="474" y="200" width="6" height="0" stroke="black" stroke-width="1" fill="blue" opacity="1" tooltip="enable"><title>(0.207908,0)</title></rect><rect x="480" y="200" width="6" height="0" stroke="black" stroke-width="1" fill="blue" opacity="1" tooltip="enable"><title>(0.210539,0)</title></rect><rect x="486" y="200" width="6" height="0" stroke="black" stroke-width="1" fill="blue" opacity="1" tooltip="enable"><title>(0.213171,0)</title></rect><rect x="492" y="200" width="6" height="0" stroke="black" stroke-width="1" fill="blue" opacity="1" tooltip="enable"><title>(0.215803,0)</title></rect><rect x="498" y="200" width="6" height="0" stroke="black" stroke-width="1" fill="blue" opacity="1" tooltip="enable"><title>(0.218435,0)</title></rect><rect x="504" y="200" width="6" height="0" stroke="black" stroke-width="1" fill="blue" opacity="1" tooltip="enable"><title>(0.221066,0)</title></rect><rect x="510" y="200" width="6" height="0" stroke="black" stroke-width="1" fill="blue" opacity="1" tooltip="enable"><title>(0.223698,0)</title></rect><rect x="516" y="200" width="6" height="0" stroke="black" stroke-width="1" fill="blue" opacity="1" tooltip="enable"><title>(0.22633,0)</title></rect><rect x="522" y="200" width="6" height="0" stroke="black" stroke-width="1" fill="blue" opacity="1" tooltip="enable"><title>(0.228962,0)</title></rect><rect x="528" y="200" width="6" height="0" stroke="black" stroke-width="1" fill="blue" opacity="1" tooltip="enable"><title>(0.231593,0)</title></rect><rect x="534" y="200" width="6" height="0" stroke="black" stroke-width="1" fill="blue" opacity="1" tooltip="enable"><title>(0.234225,0)</title></rect><rect x="540" y="200" width="6" height="0" stroke="black" stroke-width="1" fill="blue" opacity="1" tooltip="enable"><title>(0.236857,0)</title></rect><rect x="546" y="200" width="6" height="0" stroke="black" stroke-width="1" fill="blue" opacity="1" tooltip="enable"><title>(0.239489,0)</title></rect><rect x="552" y="200" width="6" height="0" stroke="black" stroke-width="1" fill="blue" opacity="1" tooltip="enable"><title>(0.24212,0)</title></rect><rect x="558" y="200" width="6" height="0" stroke="black" stroke-width="1" fill="blue" opacity="1" tooltip="enable"><title>(0.244752,0)</title></rect><rect x="564" y="200" width="6" height="0" stroke="black" stroke-width="1" fill="blue" opacity="1" tooltip="enable"><title>(0.247384,0)</title></rect><rect x="570" y="200" width="6" height="0" stroke="black" stroke-width="1" fill="blue" opacity="1" tooltip="enable"><title>(0.250016,0)</title></rect><rect x="576" y="200" width="6" height="0" stroke="black" stroke-width="1" fill="blue" opacity="1" tooltip="enable"><title>(0.252647,0)</title></rect><rect x="582" y="199.814" width="6" height="0.185658" stroke="black" stroke-width="1" fill="blue" opacity="1" tooltip="enable"><title>(0.255279,4)</title></rect><rect x="588" y="200" width="6" height="0" stroke="black" stroke-width="1" fill="blue" opacity="1" tooltip="enable"><title>(0.257911,0)</title></rect><rect x="594" y="199.954" width="6" height="0.0464145" stroke="black" stroke-width="1" fill="blue" opacity="1" tooltip="enable"><title>(0.260543,1)</title></rect><text x="30" y="240" font-size="20" fill="black">0</text>
<text x="600" y="240" font-size="20" fill="black">0.263174</text>
<polyline points="0,220,600,220" stroke="black" stroke-width="1" fill="none" opacity="1"/>
<text x="720" y="20" font-size="20" fill="black">4309</text>
<text x="720" y="200" font-size="20" fill="black">0</text>
<polyline points="660,0,660,200" stroke="black" stroke-width="1" fill="none" opacity="1"/>
</svg>