<?xml version="1.0" standalone="yes"?>
<!-- SVG graphic -->
<svg xmlns='http://www.w3.org/2000/svg' xmlns:xlink='http://www.w3.org/1999/xlink'
 version="1.1">
<rect x="0" y="0" width="6" height="200" stroke="black" stroke-width="1" fill="blue" opacity="1" tooltip="enable"><title>(0,1670)</title></rect><rect x="6" y="62.6347" width="6" height="137.365" stroke="black" stroke-width="1" fill="blue" opacity="1" tooltip="enable"><title>(0.00115847,1147)</title></rect><rect x="12" y="108.503" width="6" height="91.497" stroke="black" stroke-width="1" fill="blue" opacity="1" tooltip="enable"><title>(0.00231694,764)</title></rect><rect x="18" y="131.257" width="6" height="68.7425" stroke="black" stroke-width="1" fill="blue" opacity="1" tooltip="enable"><title>(0.00347541,574)</title></rect><rect x="24" y="152.216" width="6" height="47.7844" stroke="black" stroke-width="1" fill="blue" opacity="1" tooltip="enable"><title>(0.00463387,399)</title></rect><rect x="30" y="154.132" width="6" height="45.8683" stroke="black" stroke-width="1" fill="blue" opacity="1" tooltip="enable"><title>(0.00579234,383)</title></rect><rect x="36" y="157.365" width="6" height="42.6347" stroke="black" stroke-width="1" fill="blue" opacity="1" tooltip="enable"><title>(0.00695081,356)</title></rect><rect x="42" y="169.701" width="6" height="30.2994" stroke="black" stroke-width="1" fill="blue" opacity="1" tooltip="enable"><title>(0.00810928,253)</title></rect><rect x="48" y="174.371" width="6" height="25.6287" stroke="black" stroke-width="1" fill="blue" opacity="1" tooltip="enable"><title>(0.00926775,214)</title></rect><rect x="54" y="178.204" width="6" height="21.7964" stroke="black" stroke-width="1" fill="blue" opacity="1" tooltip="enable"><title>(0.0104262,182)</title></rect><rect x="60" y="179.88" width="6" height="20.1198" stroke="black" stroke-width="1" fill="blue" opacity="1" tooltip="enable"><title>(0.0115847,168)</title></rect><rect x="66" y="181.557" width="6" height="18.4431" stroke="black" stroke-width="1" fill="blue" opacity="1" tooltip="enable"><title>(0.0127432,154)</title></rect><rect x="72" y="187.545" width="6" height="12.4551" stroke="black" stroke-width="1" fill="blue" opacity="1" tooltip="enable"><title>(0.0139016,104)</title></rect><rect x="78" y="189.461" width="6" height="10.5389" stroke="black" stroke-width="1" fill="blue" opacity="1" tooltip="enable"><title>(0.0150601,88)</title></rect><rect x="84" y="186.826" width="6" height="13.1737" stroke="black" stroke-width="1" fill="blue" opacity="1" tooltip="enable"><title>(0.0162186,110)</title></rect><rect x="90" y="188.024" width="6" height="11.976" stroke="black" stroke-width="1" fill="blue" opacity="1" tooltip="enable"><title>(0.017377,100)</title></rect><rect x="96" y="191.138" width="6" height="8.86228" stroke="black" stroke-width="1" fill="blue" opacity="1" tooltip="enable"><title>(0.0185355,74)</title></rect><rect x="102" y="193.772" width="6" height="6.22754" stroke="black" stroke-width="1" fill="blue" opacity="1" tooltip="enable"><title>(0.019694,52)</title></rect><rect x="108" y="192.335" width="6" height="7.66467" stroke="black" stroke-width="1" fill="blue" opacity="1" tooltip="enable"><title>(0.0208524,64)</title></rect><rect x="114" y="195.21" width="6" height="4.79042" stroke="black" stroke-width="1" fill="blue" opacity="1" tooltip="enable"><title>(0.0220109,40)</title></rect><rect x="120" y="193.293" width="6" height="6.70659" stroke="black" stroke-width="1" fill="blue" opacity="1" tooltip="enable"><title>(0.0231694,56)</title></rect><rect x="126" y="193.293" width="6" height="6.70659" stroke="black" stroke-width="1" fill="blue" opacity="1" tooltip="enable"><title>(0.0243278,56)</title></rect><rect x="132" y="193.772" width="6" height="6.22754" stroke="black" stroke-width="1" fill="blue" opacity="1" tooltip="enable"><title>(0.0254863,52)</title></rect><rect x="138" y="191.377" width="6" height="8.62275" stroke="black" stroke-width="1" fill="blue" opacity="1" tooltip="enable"><title>(0.0266448,72)</title></rect><rect x="144" y="191.617" width="6" height="8.38323" stroke="black" stroke-width="1" fill="blue" opacity="1" tooltip="enable"><title>(0.0278032,70)</title></rect><rect x="150" y="196.647" width="6" height="3.35329" stroke="black" stroke-width="1" fill="blue" opacity="1" tooltip="enable"><title>(0.0289617,28)</title></rect><rect x="156" y="194.491" width="6" height="5.50898" stroke="black" stroke-width="1" fill="blue" opacity="1" tooltip="enable"><title>(0.0301202,46)</title></rect><rect x="162" y="196.886" width="6" height="3.11377" stroke="black" stroke-width="1" fill="blue" opacity="1" tooltip="enable"><title>(0.0312787,26)</title></rect><rect x="168" y="196.407" width="6" height="3.59281" stroke="black" stroke-width="1" fill="blue" opacity="1" tooltip="enable"><title>(0.0324371,30)</title></rect><rect x="174" y="195.808" width="6" height="4.19162" stroke="black" stroke-width="1" fill="blue" opacity="1" tooltip="enable"><title>(0.0335956,35)</title></rect><rect x="180" y="196.766" width="6" height="3.23353" stroke="black" stroke-width="1" fill="blue" opacity="1" tooltip="enable"><title>(0.0347541,27)</title></rect><rect x="186" y="197.844" width="6" height="2.15569" stroke="black" stroke-width="1" fill="blue" opacity="1" tooltip="enable"><title>(0.0359125,18)</title></rect><rect x="192" y="195.689" width="6" height="4.31138" stroke="black" stroke-width="1" fill="blue" opacity="1" tooltip="enable"><title>(0.037071,36)</title></rect><rect x="198" y="196.168" width="6" height="3.83234" stroke="black" stroke-width="1" fill="blue" opacity="1" tooltip="enable"><title>(0.0382295,32)</title></rect><rect x="204" y="196.886" width="6" height="3.11377" stroke="black" stroke-width="1" fill="blue" opacity="1" tooltip="enable"><title>(0.0393879,26)</title></rect><rect x="210" y="197.844" width="6" height="2.15569" stroke="black" stroke-width="1" fill="blue" opacity="1" tooltip="enable"><title>(0.0405464,18)</title></rect><rect x="216" y="195.689" width="6" height="4.31138" stroke="black" stroke-width="1" fill="blue" opacity="1" tooltip="enable"><title>(0.0417049,36)</title></rect><rect x="222" y="198.204" width="6" height="1.79641" stroke="black" stroke-width="1" fill="blue" opacity="1" tooltip="enable"><title>(0.0428633,15)</title></rect><rect x="228" y="197.485" width="6" height="2.51497" stroke="black" stroke-width="1" fill="blue" opacity="1" tooltip="enable"><title>(0.0440218,21)</title></rect><rect x="234" y="197.365" width="6" height="2.63473" stroke="black" stroke-width="1" fill="blue" opacity="1" tooltip="enable"><title>(0.0451803,22)</title></rect><rect x="240" y="197.365" width="6" height="2.63473" stroke="black" stroke-width="1" fill="blue" opacity="1" tooltip="enable"><title>(0.0463387,22)</title></rect><rect x="246" y="196.886" width="6" height="3.11377" stroke="black" stroke-width="1" fill="blue" opacity="1" tooltip="enable"><title>(0.0474972,26)</title></rect><rect x="252" y="198.084" width="6" height="1.91617" stroke="black" stroke-width="1" fill="blue" opacity="1" tooltip="enable"><title>(0.0486557,16)</title></rect><rect x="258" y="196.407" width="6" height="3.59281" stroke="black" stroke-width="1" fill="blue" opacity="1" tooltip="enable"><title>(0.0498142,30)</title></rect><rect x="264" y="197.605" width="6" height="2.39521" stroke="black" stroke-width="1" fill="blue" opacity="1" tooltip="enable"><title>(0.0509726,20)</title></rect><rect x="270" y="198.323" width="6" height="1.67665" stroke="black" stroke-width="1" fill="blue" opacity="1" tooltip="enable"><title>(0.0521311,14)</title></rect><rect x="276" y="197.844" width="6" height="2.15569" stroke="black" stroke-width="1" fill="blue" opacity="1" tooltip="enable"><title>(0.0532896,18)</title></rect><rect x="282" y="198.084" width="6" height="1.91617" stroke="black" stroke-width="1" fill="blue" opacity="1" tooltip="enable"><title>(0.054448,16)</title></rect><rect x="288" y="197.844" width="6" height="2.15569" stroke="black" stroke-width="1" fill="blue" opacity="1" tooltip="enable"><title>(0.0556065,18)</title></rect><rect x="294" y="199.042" width="6" height="0.958084" stroke="black" stroke-width="1" fill="blue" opacity="1" tooltip="enable"><title>(0.056765,8)</title></rect><rect x="300" y="197.725" width="6" height="2.27545" stroke="black" stroke-width="1" fill="blue" opacity="1" tooltip="enable"><title>(0.0579234,19)</title></rect><rect x="306" y="198.443" width="6" height="1.55689" stroke="black" stroke-width="1" fill="blue" opacity="1" tooltip="enable"><title>(0.0590819,13)</title></rect><rect x="312" y="198.802" width="6" height="1.1976" stroke="black" stroke-width="1" fill="blue" opacity="1" tooltip="enable"><title>(0.0602404,10)</title></rect><rect x="318" y="199.042" width="6" height="0.958084" stroke="black" stroke-width="1" fill="blue" opacity="1" tooltip="enable"><title>(0.0613988,8)</title></rect><rect x="324" y="197.844" width="6" height="2.15569" stroke="black" stroke-width="1" fill="blue" opacity="1" tooltip="enable"><title>(0.0625573,18)</title></rect><rect x="330" y="199.521" width="6" height="0.479042" stroke="black" stroke-width="1" fill="blue" opacity="1" tooltip="enable"><title>(0.0637158,4)</title></rect><rect x="336" y="199.042" width="6" height="0.958084" stroke="black" stroke-width="1" fill="blue" opacity="1" tooltip="enable"><title>(0.0648742,8)</title></rect><rect x="342" y="199.281" width="6" height="0.718563" stroke="black" stroke-width="1" fill="blue" opacity="1" tooltip="enable"><title>(0.0660327,6)</title></rect><rect x="348" y="198.802" width="6" height="1.1976" stroke="black" stroke-width="1" fill="blue" opacity="1" tooltip="enable"><title>(0.0671912,10)</title></rect><rect x="354" y="199.76" width="6" height="0.239521" stroke="black" stroke-width="1" fill="blue" opacity="1" tooltip="enable"><title>(0.0683496,2)</title></rect><rect x="360" y="199.281" width="6" height="0.718563" stroke="black" stroke-width="1" fill="blue" opacity="1" tooltip="enable"><title>(0.0695081,6)</title></rect><rect x="366" y="199.042" width="6" height="0.958084" stroke="black" stroke-width="1" fill="blue" opacity="1" tooltip="enable"><title>(0.0706666,8)</title></rect><rect x="372" y="199.521" width="6" height="0.479042" stroke="black" stroke-width="1" fill="blue" opacity="1" tooltip="enable"><title>(0.0718251,4)</title></rect><rect x="378" y="199.76" width="6" height="0.239521" stroke="black" stroke-width="1" fill="blue" opacity="1" tooltip="enable"><title>(0.0729835,2)</title></rect><rect x="384" y="199.042" width="6" height="0.958084" stroke="black" stroke-width="1" fill="blue" opacity="1" tooltip="enable"><title>(0.074142,8)</title></rect><rect x="390" y="198.802" width="6" height="1.1976" stroke="black" stroke-width="1" fill="blue" opacity="1" tooltip="enable"><title>(0.0753005,10)</title></rect><rect x="396" y="199.042" width="6" height="0.958084" stroke="black" stroke-width="1" fill="blue" opacity="1" tooltip="enable"><title>(0.0764589,8)</title></rect><rect x="402" y="198.802" width="6" height="1.1976" stroke="black" stroke-width="1" fill="blue" opacity="1" tooltip="enable"><title>(0.0776174,10)</title></rect><rect x="408" y="199.76" width="6" height="0.239521" stroke="black" stroke-width="1" fill="blue" opacity="1" tooltip="enable"><title>(0.0787759,2)</title></rect><rect x="414" y="199.76" width="6" height="0.239521" stroke="black" stroke-width="1" fill="blue" opacity="1" tooltip="enable"><title>(0.0799343,2)</title></rect><rect x="420" y="200" width="6" height="0" stroke="black" stroke-width="1" fill="blue" opacity="1" tooltip="enable"><title>(0.0810928,0)</title></rect><rect x="426" y="200" width="6" height="0" stroke="black" stroke-width="1" fill="blue" opacity="1" tooltip="enable"><title>(0.0822513,0)</title></rect><rect x="432" y="199.76" width="6" height="0.239521" stroke="black" stroke-width="1" fill="blue" opacity="1" tooltip="enable"><title>(0.0834097,2)</title></rect><rect x="438" y="199.521" width="6" height="0.479042" stroke="black" stroke-width="1" fill="blue" opacity="1" tooltip="enable"><title>(0.0845682,4)</title></rect><rect x="444" y="200" width="6" height="0" stroke="black" stroke-width="1" fill="blue" opacity="1" tooltip="enable"><title>(0.0857267,0)</title></rect><rect x="450" y="199.76" width="6" height="0.239521" stroke="black" stroke-width="1" fill="blue" opacity="1" tooltip="enable"><title>(0.0868851,2)</title></rect><rect x="456" y="199.521" width="6" height="0.479042" stroke="black" stroke-width="1" fill="blue" opacity="1" tooltip="enable"><title>(0.0880436,4)</title></rect><rect x="462" y="200" width="6" height="0" stroke="black" stroke-width="1" fill="blue" opacity="1" tooltip="enable"><title>(0.0892021,0)</title></rect><rect x="468" y="199.521" width="6" height="0.479042" stroke="black" stroke-width="1" fill="blue" opacity="1" tooltip="enable"><title>(0.0903606,4)</title></rect><rect x="474" y="199.76" width="6" height="0.239521" stroke="black" stroke-width="1" fill="blue" opacity="1" tooltip="enable"><title>(0.091519,2)</title></rect><rect x="480" y="200" width="6" height="0" stroke="black" stroke-width="1" fill="blue" opacity="1" tooltip="enable"><title>(0.0926775,0)</title></rect><rect x="486" y="200" width="6" height="0" stroke="black" stroke-width="1" fill="blue" opacity="1" tooltip="enable"><title>(0.093836,0)</title></rect><rect x="492" y="200" width="6" height="0" stroke="black" stroke-width="1" fill="blue" opacity="1" tooltip="enable"><title>(0.0949944,0)</title></rect><rect x="498" y="200" width="6" height="0" stroke="black" stroke-width="1" fill="blue" opacity="1" tooltip="enable"><title>(0.0961529,0)</title></rect><rect x="504" y="200" width="6" height="0" stroke="black" stroke-width="1" fill="blue" opacity="1" tooltip="enable"><title>(0.0973114,0)</title></rect><rect x="510" y="200" width="6" height="0" stroke="black" stroke-width="1" fill="blue" opacity="1" tooltip="enable"><title>(0.0984698,0)</title></rect><rect x="516" y="200" width="6" height="0" stroke="black" stroke-width="1" fill="blue" opacity="1" tooltip="enable"><title>(0.0996283,0)</title></rect><rect x="522" y="200" width="6" height="0" stroke="black" stroke-width="1" fill="blue" opacity="1" tooltip="enable"><title>(0.100787,0)</title></rect><rect x="528" y="199.76" width="6" height="0.239521" stroke="black" stroke-width="1" fill="blue" opacity="1" tooltip="enable"><title>(0.101945,2)</title></rect><rect x="534" y="200" width="6" height="0" stroke="black" stroke-width="1" fill="blue" opacity="1" tooltip="enable"><title>(0.103104,0)</title></rect><rect x="540" y="200" width="6" height="0" stroke="black" stroke-width="1" fill="blue" opacity="1" tooltip="enable"><title>(0.104262,0)</title></rect><rect x="546" y="200" width="6" height="0" stroke="black" stroke-width="1" fill="blue" opacity="1" tooltip="enable"><title>(0.105421,0)</title></rect><rect x="552" y="199.521" width="6" height="0.479042" stroke="black" stroke-width="1" fill="blue" opacity="1" tooltip="enable"><title>(0.106579,4)</title></rect><rect x="558" y="199.76" width="6" height="0.239521" stroke="black" stroke-width="1" fill="blue" opacity="1" tooltip="enable"><title>(0.107738,2)</title></rect><rect x="564" y="199.76" width="6" height="0.239521" stroke="black" stroke-width="1" fill="blue" opacity="1" tooltip="enable"><title>(0.108896,2)</title></rect><rect x="570" y="200" width="6" height="0" stroke="black" stroke-width="1" fill="blue" opacity="1" tooltip="enable"><title>(0.110055,0)</title></rect><rect x="576" y="199.521" width="6" height="0.479042" stroke="black" stroke-width="1" fill="blue" opacity="1" tooltip="enable"><title>(0.111213,4)</title></rect><rect x="582" y="200" width="6" height="0" stroke="black" stroke-width="1" fill="blue" opacity="1" tooltip="enable"><title>(0.112371,0)</title></rect><rect x="588" y="199.76" width="6" height="0.239521" stroke="black" stroke-width="1" fill="blue" opacity="1" tooltip="enable"><title>(0.11353,2)</title></rect><rect x="594" y="199.88" width="6" height="0.11976" stroke="black" stroke-width="1" fill="blue" opacity="1" tooltip="enable"><title>(0.114688,1)</title></rect><text x="30" y="240" font-size="20" fill="black">0</text>
<text x="600" y="240" font-size="20" fill="black">0.115847</text>
<polyline points="0,220,600,220" stroke="black" stroke-width="1" fill="none" opacity="1"/>
<text x="720" y="20" font-size="20" fill="black">1670</text>
<text x="720" y="200" font-size="20" fill="black">0</text>
<polyline points="660,0,660,200" stroke="black" stroke-width="1" fill="none" opacity="1"/>
</svg>