<?xml version="1.0" standalone="yes"?>
<!-- SVG graphic -->
<svg xmlns='http://www.w3.org/2000/svg' xmlns:xlink='http://www.w3.org/1999/xlink'
 version="1.1">
<rect x="0" y="0" width="6" height="200" stroke="black" stroke-width="1" fill="blue" opacity="1" tooltip="enable"><title>(0,1644)</title></rect><rect x="6" y="59.2457" width="6" height="140.754" stroke="black" stroke-width="1" fill="blue" opacity="1" tooltip="enable"><title>(0.00115568,1157)</title></rect><rect x="12" y="110.706" width="6" height="89.2944" stroke="black" stroke-width="1" fill="blue" opacity="1" tooltip="enable"><title>(0.00231136,734)</title></rect><rect x="18" y="128.954" width="6" height="71.0462" stroke="black" stroke-width="1" fill="blue" opacity="1" tooltip="enable"><title>(0.00346704,584)</title></rect><rect x="24" y="148.905" width="6" height="51.0949" stroke="black" stroke-width="1" fill="blue" opacity="1" tooltip="enable"><title>(0.00462272,420)</title></rect><rect x="30" y="152.555" width="6" height="47.4453" stroke="black" stroke-width="1" fill="blue" opacity="1" tooltip="enable"><title>(0.00577841,390)</title></rect><rect x="36" y="160.341" width="6" height="39.6594" stroke="black" stroke-width="1" fill="blue" opacity="1" tooltip="enable"><title>(0.00693409,326)</title></rect><rect x="42" y="167.275" width="6" height="32.7251" stroke="black" stroke-width="1" fill="blue" opacity="1" tooltip="enable"><title>(0.00808977,269)</title></rect><rect x="48" y="171.29" width="6" height="28.7105" stroke="black" stroke-width="1" fill="blue" opacity="1" tooltip="enable"><title>(0.00924545,236)</title></rect><rect x="54" y="177.494" width="6" height="22.5061" stroke="black" stroke-width="1" fill="blue" opacity="1" tooltip="enable"><title>(0.0104011,185)</title></rect><rect x="60" y="180.292" width="6" height="19.708" stroke="black" stroke-width="1" fill="blue" opacity="1" tooltip="enable"><title>(0.0115568,162)</title></rect><rect x="66" y="182.725" width="6" height="17.2749" stroke="black" stroke-width="1" fill="blue" opacity="1" tooltip="enable"><title>(0.0127125,142)</title></rect><rect x="72" y="186.01" width="6" height="13.9903" stroke="black" stroke-width="1" fill="blue" opacity="1" tooltip="enable"><title>(0.0138682,115)</title></rect><rect x="78" y="188.808" width="6" height="11.1922" stroke="black" stroke-width="1" fill="blue" opacity="1" tooltip="enable"><title>(0.0150239,92)</title></rect><rect x="84" y="187.713" width="6" height="12.2871" stroke="black" stroke-width="1" fill="blue" opacity="1" tooltip="enable"><title>(0.0161795,101)</title></rect><rect x="90" y="186.618" width="6" height="13.382" stroke="black" stroke-width="1" fill="blue" opacity="1" tooltip="enable"><title>(0.0173352,110)</title></rect><rect x="96" y="191.606" width="6" height="8.39416" stroke="black" stroke-width="1" fill="blue" opacity="1" tooltip="enable"><title>(0.0184909,69)</title></rect><rect x="102" y="193.431" width="6" height="6.56934" stroke="black" stroke-width="1" fill="blue" opacity="1" tooltip="enable"><title>(0.0196466,54)</title></rect><rect x="108" y="191.727" width="6" height="8.27251" stroke="black" stroke-width="1" fill="blue" opacity="1" tooltip="enable"><title>(0.0208023,68)</title></rect><rect x="114" y="195.134" width="6" height="4.86618" stroke="black" stroke-width="1" fill="blue" opacity="1" tooltip="enable"><title>(0.0219579,40)</title></rect><rect x="120" y="193.552" width="6" height="6.44769" stroke="black" stroke-width="1" fill="blue" opacity="1" tooltip="enable"><title>(0.0231136,53)</title></rect><rect x="126" y="193.552" width="6" height="6.44769" stroke="black" stroke-width="1" fill="blue" opacity="1" tooltip="enable"><title>(0.0242693,53)</title></rect><rect x="132" y="193.917" width="6" height="6.08273" stroke="black" stroke-width="1" fill="blue" opacity="1" tooltip="enable"><title>(0.025425,50)</title></rect><rect x="138" y="189.903" width="6" height="10.0973" stroke="black" stroke-width="1" fill="blue" opacity="1" tooltip="enable"><title>(0.0265807,83)</title></rect><rect x="144" y="192.092" width="6" height="7.90754" stroke="black" stroke-width="1" fill="blue" opacity="1" tooltip="enable"><title>(0.0277363,65)</title></rect><rect x="150" y="196.107" width="6" height="3.89294" stroke="black" stroke-width="1" fill="blue" opacity="1" tooltip="enable"><title>(0.028892,32)</title></rect><rect x="156" y="195.134" width="6" height="4.86618" stroke="black" stroke-width="1" fill="blue" opacity="1" tooltip="enable"><title>(0.0300477,40)</title></rect><rect x="162" y="196.594" width="6" height="3.40633" stroke="black" stroke-width="1" fill="blue" opacity="1" tooltip="enable"><title>(0.0312034,28)</title></rect><rect x="168" y="196.715" width="6" height="3.28467" stroke="black" stroke-width="1" fill="blue" opacity="1" tooltip="enable"><title>(0.0323591,27)</title></rect><rect x="174" y="195.255" width="6" height="4.74453" stroke="black" stroke-width="1" fill="blue" opacity="1" tooltip="enable"><title>(0.0335148,39)</title></rect><rect x="180" y="197.567" width="6" height="2.43309" stroke="black" stroke-width="1" fill="blue" opacity="1" tooltip="enable"><title>(0.0346704,20)</title></rect><rect x="186" y="197.324" width="6" height="2.6764" stroke="black" stroke-width="1" fill="blue" opacity="1" tooltip="enable"><title>(0.0358261,22)</title></rect><rect x="192" y="195.499" width="6" height="4.50122" stroke="black" stroke-width="1" fill="blue" opacity="1" tooltip="enable"><title>(0.0369818,37)</title></rect><rect x="198" y="196.715" width="6" height="3.28467" stroke="black" stroke-width="1" fill="blue" opacity="1" tooltip="enable"><title>(0.0381375,27)</title></rect><rect x="204" y="196.837" width="6" height="3.16302" stroke="black" stroke-width="1" fill="blue" opacity="1" tooltip="enable"><title>(0.0392932,26)</title></rect><rect x="210" y="197.202" width="6" height="2.79805" stroke="black" stroke-width="1" fill="blue" opacity="1" tooltip="enable"><title>(0.0404488,23)</title></rect><rect x="216" y="195.742" width="6" height="4.25791" stroke="black" stroke-width="1" fill="blue" opacity="1" tooltip="enable"><title>(0.0416045,35)</title></rect><rect x="222" y="198.783" width="6" height="1.21654" stroke="black" stroke-width="1" fill="blue" opacity="1" tooltip="enable"><title>(0.0427602,10)</title></rect><rect x="228" y="196.837" width="6" height="3.16302" stroke="black" stroke-width="1" fill="blue" opacity="1" tooltip="enable"><title>(0.0439159,26)</title></rect><rect x="234" y="197.324" width="6" height="2.6764" stroke="black" stroke-width="1" fill="blue" opacity="1" tooltip="enable"><title>(0.0450716,22)</title></rect><rect x="240" y="197.324" width="6" height="2.6764" stroke="black" stroke-width="1" fill="blue" opacity="1" tooltip="enable"><title>(0.0462272,22)</title></rect><rect x="246" y="197.08" width="6" height="2.91971" stroke="black" stroke-width="1" fill="blue" opacity="1" tooltip="enable"><title>(0.0473829,24)</title></rect><rect x="252" y="197.81" width="6" height="2.18978" stroke="black" stroke-width="1" fill="blue" opacity="1" tooltip="enable"><title>(0.0485386,18)</title></rect><rect x="258" y="196.594" width="6" height="3.40633" stroke="black" stroke-width="1" fill="blue" opacity="1" tooltip="enable"><title>(0.0496943,28)</title></rect><rect x="264" y="197.08" width="6" height="2.91971" stroke="black" stroke-width="1" fill="blue" opacity="1" tooltip="enable"><title>(0.05085,24)</title></rect><rect x="270" y="198.54" width="6" height="1.45985" stroke="black" stroke-width="1" fill="blue" opacity="1" tooltip="enable"><title>(0.0520057,12)</title></rect><rect x="276" y="197.689" width="6" height="2.31144" stroke="black" stroke-width="1" fill="blue" opacity="1" tooltip="enable"><title>(0.0531613,19)</title></rect><rect x="282" y="197.932" width="6" height="2.06813" stroke="black" stroke-width="1" fill="blue" opacity="1" tooltip="enable"><title>(0.054317,17)</title></rect><rect x="288" y="198.054" width="6" height="1.94647" stroke="black" stroke-width="1" fill="blue" opacity="1" tooltip="enable"><title>(0.0554727,16)</title></rect><rect x="294" y="198.783" width="6" height="1.21654" stroke="black" stroke-width="1" fill="blue" opacity="1" tooltip="enable"><title>(0.0566284,10)</title></rect><rect x="300" y="198.54" width="6" height="1.45985" stroke="black" stroke-width="1" fill="blue" opacity="1" tooltip="enable"><title>(0.0577841,12)</title></rect><rect x="306" y="197.81" width="6" height="2.18978" stroke="black" stroke-width="1" fill="blue" opacity="1" tooltip="enable"><title>(0.0589397,18)</title></rect><rect x="312" y="198.783" width="6" height="1.21654" stroke="black" stroke-width="1" fill="blue" opacity="1" tooltip="enable"><title>(0.0600954,10)</title></rect><rect x="318" y="198.783" width="6" height="1.21654" stroke="black" stroke-width="1" fill="blue" opacity="1" tooltip="enable"><title>(0.0612511,10)</title></rect><rect x="324" y="198.054" width="6" height="1.94647" stroke="black" stroke-width="1" fill="blue" opacity="1" tooltip="enable"><title>(0.0624068,16)</title></rect><rect x="330" y="199.27" width="6" height="0.729927" stroke="black" stroke-width="1" fill="blue" opacity="1" tooltip="enable"><title>(0.0635625,6)</title></rect><rect x="336" y="199.392" width="6" height="0.608272" stroke="black" stroke-width="1" fill="blue" opacity="1" tooltip="enable"><title>(0.0647181,5)</title></rect><rect x="342" y="199.148" width="6" height="0.851582" stroke="black" stroke-width="1" fill="blue" opacity="1" tooltip="enable"><title>(0.0658738,7)</title></rect><rect x="348" y="198.54" width="6" height="1.45985" stroke="black" stroke-width="1" fill="blue" opacity="1" tooltip="enable"><title>(0.0670295,12)</title></rect><rect x="354" y="199.757" width="6" height="0.243309" stroke="black" stroke-width="1" fill="blue" opacity="1" tooltip="enable"><title>(0.0681852,2)</title></rect><rect x="360" y="199.27" width="6" height="0.729927" stroke="black" stroke-width="1" fill="blue" opacity="1" tooltip="enable"><title>(0.0693409,6)</title></rect><rect x="366" y="199.027" width="6" height="0.973236" stroke="black" stroke-width="1" fill="blue" opacity="1" tooltip="enable"><title>(0.0704966,8)</title></rect><rect x="372" y="199.513" width="6" height="0.486618" stroke="black" stroke-width="1" fill="blue" opacity="1" tooltip="enable"><title>(0.0716522,4)</title></rect><rect x="378" y="199.878" width="6" height="0.121655" stroke="black" stroke-width="1" fill="blue" opacity="1" tooltip="enable"><title>(0.0728079,1)</title></rect><rect x="384" y="199.148" width="6" height="0.851582" stroke="black" stroke-width="1" fill="blue" opacity="1" tooltip="enable"><title>(0.0739636,7)</title></rect><rect x="390" y="198.54" width="6" height="1.45985" stroke="black" stroke-width="1" fill="blue" opacity="1" tooltip="enable"><title>(0.0751193,12)</title></rect><rect x="396" y="199.027" width="6" height="0.973236" stroke="black" stroke-width="1" fill="blue" opacity="1" tooltip="enable"><title>(0.076275,8)</title></rect><rect x="402" y="199.27" width="6" height="0.729927" stroke="black" stroke-width="1" fill="blue" opacity="1" tooltip="enable"><title>(0.0774306,6)</title></rect><rect x="408" y="199.27" width="6" height="0.729927" stroke="black" stroke-width="1" fill="blue" opacity="1" tooltip="enable"><title>(0.0785863,6)</title></rect><rect x="414" y="199.757" width="6" height="0.243309" stroke="black" stroke-width="1" fill="blue" opacity="1" tooltip="enable"><title>(0.079742,2)</title></rect><rect x="420" y="200" width="6" height="0" stroke="black" stroke-width="1" fill="blue" opacity="1" tooltip="enable"><title>(0.0808977,0)</title></rect><rect x="426" y="200" width="6" height="0" stroke="black" stroke-width="1" fill="blue" opacity="1" tooltip="enable"><title>(0.0820534,0)</title></rect><rect x="432" y="199.757" width="6" height="0.243309" stroke="black" stroke-width="1" fill="blue" opacity="1" tooltip="enable"><title>(0.083209,2)</title></rect><rect x="438" y="199.513" width="6" height="0.486618" stroke="black" stroke-width="1" fill="blue" opacity="1" tooltip="enable"><title>(0.0843647,4)</title></rect><rect x="444" y="200" width="6" height="0" stroke="black" stroke-width="1" fill="blue" opacity="1" tooltip="enable"><title>(0.0855204,0)</title></rect><rect x="450" y="200" width="6" height="0" stroke="black" stroke-width="1" fill="blue" opacity="1" tooltip="enable"><title>(0.0866761,0)</title></rect><rect x="456" y="199.27" width="6" height="0.729927" stroke="black" stroke-width="1" fill="blue" opacity="1" tooltip="enable"><title>(0.0878318,6)</title></rect><rect x="462" y="200" width="6" height="0" stroke="black" stroke-width="1" fill="blue" opacity="1" tooltip="enable"><title>(0.0889874,0)</title></rect><rect x="468" y="199.513" width="6" height="0.486618" stroke="black" stroke-width="1" fill="blue" opacity="1" tooltip="enable"><title>(0.0901431,4)</title></rect><rect x="474" y="199.757" width="6" height="0.243309" stroke="black" stroke-width="1" fill="blue" opacity="1" tooltip="enable"><title>(0.0912988,2)</title></rect><rect x="480" y="200" width="6" height="0" stroke="black" stroke-width="1" fill="blue" opacity="1" tooltip="enable"><title>(0.0924545,0)</title></rect><rect x="486" y="200" width="6" height="0" stroke="black" stroke-width="1" fill="blue" opacity="1" tooltip="enable"><title>(0.0936102,0)</title></rect><rect x="492" y="200" width="6" height="0" stroke="black" stroke-width="1" fill="blue" opacity="1" tooltip="enable"><title>(0.0947659,0)</title></rect><rect x="498" y="200" width="6" height="0" stroke="black" stroke-width="1" fill="blue" opacity="1" tooltip="enable"><title>(0.0959215,0)</title></rect><rect x="504" y="200" width="6" height="0" stroke="black" stroke-width="1" fill="blue" opacity="1" tooltip="enable"><title>(0.0970772,0)</title></rect><rect x="510" y="200" width="6" height="0" stroke="black" stroke-width="1" fill="blue" opacity="1" tooltip="enable"><title>(0.0982329,0)</title></rect><rect x="516" y="200" width="6" height="0" stroke="black" stroke-width="1" fill="blue" opacity="1" tooltip="enable"><title>(0.0993886,0)</title></rect><rect x="522" y="200" width="6" height="0" stroke="black" stroke-width="1" fill="blue" opacity="1" tooltip="enable"><title>(0.100544,0)</title></rect><rect x="528" y="200" width="6" height="0" stroke="black" stroke-width="1" fill="blue" opacity="1" tooltip="enable"><title>(0.1017,0)</title></rect><rect x="534" y="199.757" width="6" height="0.243309" stroke="black" stroke-width="1" fill="blue" opacity="1" tooltip="enable"><title>(0.102856,2)</title></rect><rect x="540" y="200" width="6" height="0" stroke="black" stroke-width="1" fill="blue" opacity="1" tooltip="enable"><title>(0.104011,0)</title></rect><rect x="546" y="200" width="6" height="0" stroke="black" stroke-width="1" fill="blue" opacity="1" tooltip="enable"><title>(0.105167,0)</title></rect><rect x="552" y="199.513" width="6" height="0.486618" stroke="black" stroke-width="1" fill="blue" opacity="1" tooltip="enable"><title>(0.106323,4)</title></rect><rect x="558" y="199.757" width="6" height="0.243309" stroke="black" stroke-width="1" fill="blue" opacity="1" tooltip="enable"><title>(0.107478,2)</title></rect><rect x="564" y="199.878" width="6" height="0.121655" stroke="black" stroke-width="1" fill="blue" opacity="1" tooltip="enable"><title>(0.108634,1)</title></rect><rect x="570" y="199.878" width="6" height="0.121655" stroke="black" stroke-width="1" fill="blue" opacity="1" tooltip="enable"><title>(0.10979,1)</title></rect><rect x="576" y="199.513" width="6" height="0.486618" stroke="black" stroke-width="1" fill="blue" opacity="1" tooltip="enable"><title>(0.110945,4)</title></rect><rect x="582" y="200" width="6" height="0" stroke="black" stroke-width="1" fill="blue" opacity="1" tooltip="enable"><title>(0.112101,0)</title></rect><rect x="588" y="199.757" width="6" height="0.243309" stroke="black" stroke-width="1" fill="blue" opacity="1" tooltip="enable"><title>(0.113257,2)</title></rect><rect x="594" y="199.878" width="6" height="0.121655" stroke="black" stroke-width="1" fill="blue" opacity="1" tooltip="enable"><title>(0.114412,1)</title></rect><text x="30" y="240" font-size="20" fill="black">0</text>
<text x="600" y="240" font-size="20" fill="black">0.115568</text>
<polyline points="0,220,600,220" stroke="black" stroke-width="1" fill="none" opacity="1"/>
<text x="720" y="20" font-size="20" fill="black">1644</text>
<text x="720" y="200" font-size="20" fill="black">0</text>
<polyline points="660,0,660,200" stroke="black" stroke-width="1" fill="none" opacity="1"/>
</svg>