<?xml version="1.0" standalone="yes"?>
<!-- SVG graphic -->
<svg xmlns='http://www.w3.org/2000/svg' xmlns:xlink='http://www.w3.org/1999/xlink'
 version="1.1">
<rect x="0" y="0" width="6" height="200" stroke="black" stroke-width="1" fill="blue" opacity="1" tooltip="enable"><title>(0,1997)</title></rect><rect x="6" y="59.7897" width="6" height="140.21" stroke="black" stroke-width="1" fill="blue" opacity="1" tooltip="enable"><title>(0.00142406,1400)</title></rect><rect x="12" y="135.804" width="6" height="64.1963" stroke="black" stroke-width="1" fill="blue" opacity="1" tooltip="enable"><title>(0.00284812,641)</title></rect><rect x="18" y="163.145" width="6" height="36.8553" stroke="black" stroke-width="1" fill="blue" opacity="1" tooltip="enable"><title>(0.00427218,368)</title></rect><rect x="24" y="177.967" width="6" height="22.0331" stroke="black" stroke-width="1" fill="blue" opacity="1" tooltip="enable"><title>(0.00569624,220)</title></rect><rect x="30" y="183.075" width="6" height="16.9254" stroke="black" stroke-width="1" fill="blue" opacity="1" tooltip="enable"><title>(0.0071203,169)</title></rect><rect x="36" y="187.181" width="6" height="12.8192" stroke="black" stroke-width="1" fill="blue" opacity="1" tooltip="enable"><title>(0.00854436,128)</title></rect><rect x="42" y="189.184" width="6" height="10.8162" stroke="black" stroke-width="1" fill="blue" opacity="1" tooltip="enable"><title>(0.00996842,108)</title></rect><rect x="48" y="188.783" width="6" height="11.2168" stroke="black" stroke-width="1" fill="blue" opacity="1" tooltip="enable"><title>(0.0113925,112)</title></rect><rect x="54" y="187.682" width="6" height="12.3185" stroke="black" stroke-width="1" fill="blue" opacity="1" tooltip="enable"><title>(0.0128165,123)</title></rect><rect x="60" y="191.187" width="6" height="8.81322" stroke="black" stroke-width="1" fill="blue" opacity="1" tooltip="enable"><title>(0.0142406,88)</title></rect><rect x="66" y="191.387" width="6" height="8.61292" stroke="black" stroke-width="1" fill="blue" opacity="1" tooltip="enable"><title>(0.0156647,86)</title></rect><rect x="72" y="191.587" width="6" height="8.41262" stroke="black" stroke-width="1" fill="blue" opacity="1" tooltip="enable"><title>(0.0170887,84)</title></rect><rect x="78" y="192.389" width="6" height="7.61142" stroke="black" stroke-width="1" fill="blue" opacity="1" tooltip="enable"><title>(0.0185128,76)</title></rect><rect x="84" y="190.686" width="6" height="9.31397" stroke="black" stroke-width="1" fill="blue" opacity="1" tooltip="enable"><title>(0.0199368,93)</title></rect><rect x="90" y="190.886" width="6" height="9.11367" stroke="black" stroke-width="1" fill="blue" opacity="1" tooltip="enable"><title>(0.0213609,91)</title></rect><rect x="96" y="191.988" width="6" height="8.01202" stroke="black" stroke-width="1" fill="blue" opacity="1" tooltip="enable"><title>(0.022785,80)</title></rect><rect x="102" y="189.384" width="6" height="10.6159" stroke="black" stroke-width="1" fill="blue" opacity="1" tooltip="enable"><title>(0.024209,106)</title></rect><rect x="108" y="189.985" width="6" height="10.015" stroke="black" stroke-width="1" fill="blue" opacity="1" tooltip="enable"><title>(0.0256331,100)</title></rect><rect x="114" y="190.185" width="6" height="9.81472" stroke="black" stroke-width="1" fill="blue" opacity="1" tooltip="enable"><title>(0.0270572,98)</title></rect><rect x="120" y="190.085" width="6" height="9.91487" stroke="black" stroke-width="1" fill="blue" opacity="1" tooltip="enable"><title>(0.0284812,99)</title></rect><rect x="126" y="187.481" width="6" height="12.5188" stroke="black" stroke-width="1" fill="blue" opacity="1" tooltip="enable"><title>(0.0299053,125)</title></rect><rect x="132" y="190.986" width="6" height="9.01352" stroke="black" stroke-width="1" fill="blue" opacity="1" tooltip="enable"><title>(0.0313293,90)</title></rect><rect x="138" y="191.587" width="6" height="8.41262" stroke="black" stroke-width="1" fill="blue" opacity="1" tooltip="enable"><title>(0.0327534,84)</title></rect><rect x="144" y="191.788" width="6" height="8.21232" stroke="black" stroke-width="1" fill="blue" opacity="1" tooltip="enable"><title>(0.0341775,82)</title></rect><rect x="150" y="192.188" width="6" height="7.81172" stroke="black" stroke-width="1" fill="blue" opacity="1" tooltip="enable"><title>(0.0356015,78)</title></rect><rect x="156" y="192.789" width="6" height="7.21082" stroke="black" stroke-width="1" fill="blue" opacity="1" tooltip="enable"><title>(0.0370256,72)</title></rect><rect x="162" y="191.988" width="6" height="8.01202" stroke="black" stroke-width="1" fill="blue" opacity="1" tooltip="enable"><title>(0.0384496,80)</title></rect><rect x="168" y="194.392" width="6" height="5.60841" stroke="black" stroke-width="1" fill="blue" opacity="1" tooltip="enable"><title>(0.0398737,56)</title></rect><rect x="174" y="193.19" width="6" height="6.81022" stroke="black" stroke-width="1" fill="blue" opacity="1" tooltip="enable"><title>(0.0412978,68)</title></rect><rect x="180" y="195.994" width="6" height="4.00601" stroke="black" stroke-width="1" fill="blue" opacity="1" tooltip="enable"><title>(0.0427218,40)</title></rect><rect x="186" y="195.593" width="6" height="4.40661" stroke="black" stroke-width="1" fill="blue" opacity="1" tooltip="enable"><title>(0.0441459,44)</title></rect><rect x="192" y="196.495" width="6" height="3.50526" stroke="black" stroke-width="1" fill="blue" opacity="1" tooltip="enable"><title>(0.0455699,35)</title></rect><rect x="198" y="195.493" width="6" height="4.50676" stroke="black" stroke-width="1" fill="blue" opacity="1" tooltip="enable"><title>(0.046994,45)</title></rect><rect x="204" y="195.794" width="6" height="4.20631" stroke="black" stroke-width="1" fill="blue" opacity="1" tooltip="enable"><title>(0.0484181,42)</title></rect><rect x="210" y="196.595" width="6" height="3.40511" stroke="black" stroke-width="1" fill="blue" opacity="1" tooltip="enable"><title>(0.0498421,34)</title></rect><rect x="216" y="195.794" width="6" height="4.20631" stroke="black" stroke-width="1" fill="blue" opacity="1" tooltip="enable"><title>(0.0512662,42)</title></rect><rect x="222" y="198.197" width="6" height="1.8027" stroke="black" stroke-width="1" fill="blue" opacity="1" tooltip="enable"><title>(0.0526902,18)</title></rect><rect x="228" y="195.193" width="6" height="4.80721" stroke="black" stroke-width="1" fill="blue" opacity="1" tooltip="enable"><title>(0.0541143,48)</title></rect><rect x="234" y="197.196" width="6" height="2.80421" stroke="black" stroke-width="1" fill="blue" opacity="1" tooltip="enable"><title>(0.0555384,28)</title></rect><rect x="240" y="197.096" width="6" height="2.90436" stroke="black" stroke-width="1" fill="blue" opacity="1" tooltip="enable"><title>(0.0569624,29)</title></rect><rect x="246" y="197.797" width="6" height="2.20331" stroke="black" stroke-width="1" fill="blue" opacity="1" tooltip="enable"><title>(0.0583865,22)</title></rect><rect x="252" y="197.697" width="6" height="2.30346" stroke="black" stroke-width="1" fill="blue" opacity="1" tooltip="enable"><title>(0.0598105,23)</title></rect><rect x="258" y="198.197" width="6" height="1.8027" stroke="black" stroke-width="1" fill="blue" opacity="1" tooltip="enable"><title>(0.0612346,18)</title></rect><rect x="264" y="197.396" width="6" height="2.60391" stroke="black" stroke-width="1" fill="blue" opacity="1" tooltip="enable"><title>(0.0626587,26)</title></rect><rect x="270" y="198.398" width="6" height="1.6024" stroke="black" stroke-width="1" fill="blue" opacity="1" tooltip="enable"><title>(0.0640827,16)</title></rect><rect x="276" y="197.997" width="6" height="2.003" stroke="black" stroke-width="1" fill="blue" opacity="1" tooltip="enable"><title>(0.0655068,20)</title></rect><rect x="282" y="196.495" width="6" height="3.50526" stroke="black" stroke-width="1" fill="blue" opacity="1" tooltip="enable"><title>(0.0669308,35)</title></rect><rect x="288" y="197.496" width="6" height="2.50376" stroke="black" stroke-width="1" fill="blue" opacity="1" tooltip="enable"><title>(0.0683549,25)</title></rect><rect x="294" y="196.995" width="6" height="3.00451" stroke="black" stroke-width="1" fill="blue" opacity="1" tooltip="enable"><title>(0.069779,30)</title></rect><rect x="300" y="196.995" width="6" height="3.00451" stroke="black" stroke-width="1" fill="blue" opacity="1" tooltip="enable"><title>(0.071203,30)</title></rect><rect x="306" y="197.797" width="6" height="2.20331" stroke="black" stroke-width="1" fill="blue" opacity="1" tooltip="enable"><title>(0.0726271,22)</title></rect><rect x="312" y="198.197" width="6" height="1.8027" stroke="black" stroke-width="1" fill="blue" opacity="1" tooltip="enable"><title>(0.0740511,18)</title></rect><rect x="318" y="197.396" width="6" height="2.60391" stroke="black" stroke-width="1" fill="blue" opacity="1" tooltip="enable"><title>(0.0754752,26)</title></rect><rect x="324" y="197.596" width="6" height="2.40361" stroke="black" stroke-width="1" fill="blue" opacity="1" tooltip="enable"><title>(0.0768993,24)</title></rect><rect x="330" y="197.997" width="6" height="2.003" stroke="black" stroke-width="1" fill="blue" opacity="1" tooltip="enable"><title>(0.0783233,20)</title></rect><rect x="336" y="199.399" width="6" height="0.600901" stroke="black" stroke-width="1" fill="blue" opacity="1" tooltip="enable"><title>(0.0797474,6)</title></rect><rect x="342" y="197.396" width="6" height="2.60391" stroke="black" stroke-width="1" fill="blue" opacity="1" tooltip="enable"><title>(0.0811715,26)</title></rect><rect x="348" y="198.898" width="6" height="1.10165" stroke="black" stroke-width="1" fill="blue" opacity="1" tooltip="enable"><title>(0.0825955,11)</title></rect><rect x="354" y="198.898" width="6" height="1.10165" stroke="black" stroke-width="1" fill="blue" opacity="1" tooltip="enable"><title>(0.0840196,11)</title></rect><rect x="360" y="198.798" width="6" height="1.2018" stroke="black" stroke-width="1" fill="blue" opacity="1" tooltip="enable"><title>(0.0854436,12)</title></rect><rect x="366" y="197.196" width="6" height="2.80421" stroke="black" stroke-width="1" fill="blue" opacity="1" tooltip="enable"><title>(0.0868677,28)</title></rect><rect x="372" y="197.997" width="6" height="2.003" stroke="black" stroke-width="1" fill="blue" opacity="1" tooltip="enable"><title>(0.0882918,20)</title></rect><rect x="378" y="198.798" width="6" height="1.2018" stroke="black" stroke-width="1" fill="blue" opacity="1" tooltip="enable"><title>(0.0897158,12)</title></rect><rect x="384" y="198.398" width="6" height="1.6024" stroke="black" stroke-width="1" fill="blue" opacity="1" tooltip="enable"><title>(0.0911399,16)</title></rect><rect x="390" y="199.399" width="6" height="0.600901" stroke="black" stroke-width="1" fill="blue" opacity="1" tooltip="enable"><title>(0.0925639,6)</title></rect><rect x="396" y="199.599" width="6" height="0.400601" stroke="black" stroke-width="1" fill="blue" opacity="1" tooltip="enable"><title>(0.093988,4)</title></rect><rect x="402" y="199.199" width="6" height="0.801202" stroke="black" stroke-width="1" fill="blue" opacity="1" tooltip="enable"><title>(0.0954121,8)</title></rect><rect x="408" y="198.798" width="6" height="1.2018" stroke="black" stroke-width="1" fill="blue" opacity="1" tooltip="enable"><title>(0.0968361,12)</title></rect><rect x="414" y="199.399" width="6" height="0.600901" stroke="black" stroke-width="1" fill="blue" opacity="1" tooltip="enable"><title>(0.0982602,6)</title></rect><rect x="420" y="199.399" width="6" height="0.600901" stroke="black" stroke-width="1" fill="blue" opacity="1" tooltip="enable"><title>(0.0996842,6)</title></rect><rect x="426" y="199.8" width="6" height="0.2003" stroke="black" stroke-width="1" fill="blue" opacity="1" tooltip="enable"><title>(0.101108,2)</title></rect><rect x="432" y="199.599" width="6" height="0.400601" stroke="black" stroke-width="1" fill="blue" opacity="1" tooltip="enable"><title>(0.102532,4)</title></rect><rect x="438" y="199.599" width="6" height="0.400601" stroke="black" stroke-width="1" fill="blue" opacity="1" tooltip="enable"><title>(0.103956,4)</title></rect><rect x="444" y="199.199" width="6" height="0.801202" stroke="black" stroke-width="1" fill="blue" opacity="1" tooltip="enable"><title>(0.10538,8)</title></rect><rect x="450" y="200" width="6" height="0" stroke="black" stroke-width="1" fill="blue" opacity="1" tooltip="enable"><title>(0.106805,0)</title></rect><rect x="456" y="199.399" width="6" height="0.600901" stroke="black" stroke-width="1" fill="blue" opacity="1" tooltip="enable"><title>(0.108229,6)</title></rect><rect x="462" y="199.199" width="6" height="0.801202" stroke="black" stroke-width="1" fill="blue" opacity="1" tooltip="enable"><title>(0.109653,8)</title></rect><rect x="468" y="199.599" width="6" height="0.400601" stroke="black" stroke-width="1" fill="blue" opacity="1" tooltip="enable"><title>(0.111077,4)</title></rect><rect x="474" y="199.599" width="6" height="0.400601" stroke="black" stroke-width="1" fill="blue" opacity="1" tooltip="enable"><title>(0.112501,4)</title></rect><rect x="480" y="199.8" width="6" height="0.2003" stroke="black" stroke-width="1" fill="blue" opacity="1" tooltip="enable"><title>(0.113925,2)</title></rect><rect x="486" y="199.8" width="6" height="0.2003" stroke="black" stroke-width="1" fill="blue" opacity="1" tooltip="enable"><title>(0.115349,2)</title></rect><rect x="492" y="200" width="6" height="0" stroke="black" stroke-width="1" fill="blue" opacity="1" tooltip="enable"><title>(0.116773,0)</title></rect><rect x="498" y="199.8" width="6" height="0.2003" stroke="black" stroke-width="1" fill="blue" opacity="1" tooltip="enable"><title>(0.118197,2)</title></rect><rect x="504" y="199.8" width="6" height="0.2003" stroke="black" stroke-width="1" fill="blue" opacity="1" tooltip="enable"><title>(0.119621,2)</title></rect><rect x="510" y="200" width="6" height="0" stroke="black" stroke-width="1" fill="blue" opacity="1" tooltip="enable"><title>(0.121045,0)</title></rect><rect x="516" y="200" width="6" height="0" stroke="black" stroke-width="1" fill="blue" opacity="1" tooltip="enable"><title>(0.122469,0)</title></rect><rect x="522" y="200" width="6" height="0" stroke="black" stroke-width="1" fill="blue" opacity="1" tooltip="enable"><title>(0.123893,0)</title></rect><rect x="528" y="200" width="6" height="0" stroke="black" stroke-width="1" fill="blue" opacity="1" tooltip="enable"><title>(0.125317,0)</title></rect><rect x="534" y="200" width="6" height="0" stroke="black" stroke-width="1" fill="blue" opacity="1" tooltip="enable"><title>(0.126741,0)</title></rect><rect x="540" y="200" width="6" height="0" stroke="black" stroke-width="1" fill="blue" opacity="1" tooltip="enable"><title>(0.128165,0)</title></rect><rect x="546" y="200" width="6" height="0" stroke="black" stroke-width="1" fill="blue" opacity="1" tooltip="enable"><title>(0.12959,0)</title></rect><rect x="552" y="200" width="6" height="0" stroke="black" stroke-width="1" fill="blue" opacity="1" tooltip="enable"><title>(0.131014,0)</title></rect><rect x="558" y="200" width="6" height="0" stroke="black" stroke-width="1" fill="blue" opacity="1" tooltip="enable"><title>(0.132438,0)</title></rect><rect x="564" y="200" width="6" height="0" stroke="black" stroke-width="1" fill="blue" opacity="1" tooltip="enable"><title>(0.133862,0)</title></rect><rect x="570" y="200" width="6" height="0" stroke="black" stroke-width="1" fill="blue" opacity="1" tooltip="enable"><title>(0.135286,0)</title></rect><rect x="576" y="199.8" width="6" height="0.2003" stroke="black" stroke-width="1" fill="blue" opacity="1" tooltip="enable"><title>(0.13671,2)</title></rect><rect x="582" y="199.8" width="6" height="0.2003" stroke="black" stroke-width="1" fill="blue" opacity="1" tooltip="enable"><title>(0.138134,2)</title></rect><rect x="588" y="200" width="6" height="0" stroke="black" stroke-width="1" fill="blue" opacity="1" tooltip="enable"><title>(0.139558,0)</title></rect><rect x="594" y="199.9" width="6" height="0.10015" stroke="black" stroke-width="1" fill="blue" opacity="1" tooltip="enable"><title>(0.140982,1)</title></rect><text x="30" y="240" font-size="20" fill="black">0</text>
<text x="600" y="240" font-size="20" fill="black">0.142406</text>
<polyline points="0,220,600,220" stroke="black" stroke-width="1" fill="none" opacity="1"/>
<text x="720" y="20" font-size="20" fill="black">1997</text>
<text x="720" y="200" font-size="20" fill="black">0</text>
<polyline points="660,0,660,200" stroke="black" stroke-width="1" fill="none" opacity="1"/>
</svg>