<?xml version="1.0" standalone="yes"?>
<!-- SVG graphic -->
<svg xmlns='http://www.w3.org/2000/svg' xmlns:xlink='http://www.w3.org/1999/xlink'
 version="1.1">
<rect x="0" y="0" width="6" height="200" stroke="black" stroke-width="1" fill="blue" opacity="1" tooltip="enable"><title>(0,1208)</title></rect><rect x="6" y="18.0464" width="6" height="181.954" stroke="black" stroke-width="1" fill="blue" opacity="1" tooltip="enable"><title>(0.00120191,1099)</title></rect><rect x="12" y="32.6159" width="6" height="167.384" stroke="black" stroke-width="1" fill="blue" opacity="1" tooltip="enable"><title>(0.00240382,1011)</title></rect><rect x="18" y="94.8676" width="6" height="105.132" stroke="black" stroke-width="1" fill="blue" opacity="1" tooltip="enable"><title>(0.00360573,635)</title></rect><rect x="24" y="136.921" width="6" height="63.0795" stroke="black" stroke-width="1" fill="blue" opacity="1" tooltip="enable"><title>(0.00480764,381)</title></rect><rect x="30" y="164.57" width="6" height="35.4305" stroke="black" stroke-width="1" fill="blue" opacity="1" tooltip="enable"><title>(0.00600955,214)</title></rect><rect x="36" y="166.391" width="6" height="33.6093" stroke="black" stroke-width="1" fill="blue" opacity="1" tooltip="enable"><title>(0.00721146,203)</title></rect><rect x="42" y="172.02" width="6" height="27.9801" stroke="black" stroke-width="1" fill="blue" opacity="1" tooltip="enable"><title>(0.00841337,169)</title></rect><rect x="48" y="178.146" width="6" height="21.8543" stroke="black" stroke-width="1" fill="blue" opacity="1" tooltip="enable"><title>(0.00961528,132)</title></rect><rect x="54" y="179.801" width="6" height="20.1987" stroke="black" stroke-width="1" fill="blue" opacity="1" tooltip="enable"><title>(0.0108172,122)</title></rect><rect x="60" y="178.477" width="6" height="21.5232" stroke="black" stroke-width="1" fill="blue" opacity="1" tooltip="enable"><title>(0.0120191,130)</title></rect><rect x="66" y="176.159" width="6" height="23.8411" stroke="black" stroke-width="1" fill="blue" opacity="1" tooltip="enable"><title>(0.013221,144)</title></rect><rect x="72" y="182.781" width="6" height="17.2185" stroke="black" stroke-width="1" fill="blue" opacity="1" tooltip="enable"><title>(0.0144229,104)</title></rect><rect x="78" y="175.828" width="6" height="24.1722" stroke="black" stroke-width="1" fill="blue" opacity="1" tooltip="enable"><title>(0.0156248,146)</title></rect><rect x="84" y="181.954" width="6" height="18.0464" stroke="black" stroke-width="1" fill="blue" opacity="1" tooltip="enable"><title>(0.0168267,109)</title></rect><rect x="90" y="179.47" width="6" height="20.5298" stroke="black" stroke-width="1" fill="blue" opacity="1" tooltip="enable"><title>(0.0180286,124)</title></rect><rect x="96" y="182.119" width="6" height="17.8808" stroke="black" stroke-width="1" fill="blue" opacity="1" tooltip="enable"><title>(0.0192306,108)</title></rect><rect x="102" y="174.172" width="6" height="25.8278" stroke="black" stroke-width="1" fill="blue" opacity="1" tooltip="enable"><title>(0.0204325,156)</title></rect><rect x="108" y="179.47" width="6" height="20.5298" stroke="black" stroke-width="1" fill="blue" opacity="1" tooltip="enable"><title>(0.0216344,124)</title></rect><rect x="114" y="183.113" width="6" height="16.8874" stroke="black" stroke-width="1" fill="blue" opacity="1" tooltip="enable"><title>(0.0228363,102)</title></rect><rect x="120" y="183.94" width="6" height="16.0596" stroke="black" stroke-width="1" fill="blue" opacity="1" tooltip="enable"><title>(0.0240382,97)</title></rect><rect x="126" y="184.934" width="6" height="15.0662" stroke="black" stroke-width="1" fill="blue" opacity="1" tooltip="enable"><title>(0.0252401,91)</title></rect><rect x="132" y="186.424" width="6" height="13.5762" stroke="black" stroke-width="1" fill="blue" opacity="1" tooltip="enable"><title>(0.026442,82)</title></rect><rect x="138" y="183.94" width="6" height="16.0596" stroke="black" stroke-width="1" fill="blue" opacity="1" tooltip="enable"><title>(0.0276439,97)</title></rect><rect x="144" y="187.086" width="6" height="12.9139" stroke="black" stroke-width="1" fill="blue" opacity="1" tooltip="enable"><title>(0.0288458,78)</title></rect><rect x="150" y="186.093" width="6" height="13.9073" stroke="black" stroke-width="1" fill="blue" opacity="1" tooltip="enable"><title>(0.0300477,84)</title></rect><rect x="156" y="185.927" width="6" height="14.0728" stroke="black" stroke-width="1" fill="blue" opacity="1" tooltip="enable"><title>(0.0312496,85)</title></rect><rect x="162" y="183.113" width="6" height="16.8874" stroke="black" stroke-width="1" fill="blue" opacity="1" tooltip="enable"><title>(0.0324516,102)</title></rect><rect x="168" y="185.927" width="6" height="14.0728" stroke="black" stroke-width="1" fill="blue" opacity="1" tooltip="enable"><title>(0.0336535,85)</title></rect><rect x="174" y="186.424" width="6" height="13.5762" stroke="black" stroke-width="1" fill="blue" opacity="1" tooltip="enable"><title>(0.0348554,82)</title></rect><rect x="180" y="187.417" width="6" height="12.5828" stroke="black" stroke-width="1" fill="blue" opacity="1" tooltip="enable"><title>(0.0360573,76)</title></rect><rect x="186" y="190.397" width="6" height="9.60265" stroke="black" stroke-width="1" fill="blue" opacity="1" tooltip="enable"><title>(0.0372592,58)</title></rect><rect x="192" y="189.404" width="6" height="10.596" stroke="black" stroke-width="1" fill="blue" opacity="1" tooltip="enable"><title>(0.0384611,64)</title></rect><rect x="198" y="191.722" width="6" height="8.27815" stroke="black" stroke-width="1" fill="blue" opacity="1" tooltip="enable"><title>(0.039663,50)</title></rect><rect x="204" y="191.06" width="6" height="8.9404" stroke="black" stroke-width="1" fill="blue" opacity="1" tooltip="enable"><title>(0.0408649,54)</title></rect><rect x="210" y="192.384" width="6" height="7.61589" stroke="black" stroke-width="1" fill="blue" opacity="1" tooltip="enable"><title>(0.0420668,46)</title></rect><rect x="216" y="193.543" width="6" height="6.45695" stroke="black" stroke-width="1" fill="blue" opacity="1" tooltip="enable"><title>(0.0432687,39)</title></rect><rect x="222" y="194.868" width="6" height="5.13245" stroke="black" stroke-width="1" fill="blue" opacity="1" tooltip="enable"><title>(0.0444706,31)</title></rect><rect x="228" y="198.344" width="6" height="1.65563" stroke="black" stroke-width="1" fill="blue" opacity="1" tooltip="enable"><title>(0.0456726,10)</title></rect><rect x="234" y="195.695" width="6" height="4.30464" stroke="black" stroke-width="1" fill="blue" opacity="1" tooltip="enable"><title>(0.0468745,26)</title></rect><rect x="240" y="198.013" width="6" height="1.98675" stroke="black" stroke-width="1" fill="blue" opacity="1" tooltip="enable"><title>(0.0480764,12)</title></rect><rect x="246" y="196.358" width="6" height="3.64238" stroke="black" stroke-width="1" fill="blue" opacity="1" tooltip="enable"><title>(0.0492783,22)</title></rect><rect x="252" y="198.344" width="6" height="1.65563" stroke="black" stroke-width="1" fill="blue" opacity="1" tooltip="enable"><title>(0.0504802,10)</title></rect><rect x="258" y="198.013" width="6" height="1.98675" stroke="black" stroke-width="1" fill="blue" opacity="1" tooltip="enable"><title>(0.0516821,12)</title></rect><rect x="264" y="198.344" width="6" height="1.65563" stroke="black" stroke-width="1" fill="blue" opacity="1" tooltip="enable"><title>(0.052884,10)</title></rect><rect x="270" y="197.02" width="6" height="2.98013" stroke="black" stroke-width="1" fill="blue" opacity="1" tooltip="enable"><title>(0.0540859,18)</title></rect><rect x="276" y="198.675" width="6" height="1.3245" stroke="black" stroke-width="1" fill="blue" opacity="1" tooltip="enable"><title>(0.0552878,8)</title></rect><rect x="282" y="197.682" width="6" height="2.31788" stroke="black" stroke-width="1" fill="blue" opacity="1" tooltip="enable"><title>(0.0564897,14)</title></rect><rect x="288" y="199.007" width="6" height="0.993377" stroke="black" stroke-width="1" fill="blue" opacity="1" tooltip="enable"><title>(0.0576916,6)</title></rect><rect x="294" y="198.013" width="6" height="1.98675" stroke="black" stroke-width="1" fill="blue" opacity="1" tooltip="enable"><title>(0.0588936,12)</title></rect><rect x="300" y="198.344" width="6" height="1.65563" stroke="black" stroke-width="1" fill="blue" opacity="1" tooltip="enable"><title>(0.0600955,10)</title></rect><rect x="306" y="198.841" width="6" height="1.15894" stroke="black" stroke-width="1" fill="blue" opacity="1" tooltip="enable"><title>(0.0612974,7)</title></rect><rect x="312" y="199.172" width="6" height="0.827815" stroke="black" stroke-width="1" fill="blue" opacity="1" tooltip="enable"><title>(0.0624993,5)</title></rect><rect x="318" y="198.675" width="6" height="1.3245" stroke="black" stroke-width="1" fill="blue" opacity="1" tooltip="enable"><title>(0.0637012,8)</title></rect><rect x="324" y="199.007" width="6" height="0.993377" stroke="black" stroke-width="1" fill="blue" opacity="1" tooltip="enable"><title>(0.0649031,6)</title></rect><rect x="330" y="198.675" width="6" height="1.3245" stroke="black" stroke-width="1" fill="blue" opacity="1" tooltip="enable"><title>(0.066105,8)</title></rect><rect x="336" y="199.338" width="6" height="0.662252" stroke="black" stroke-width="1" fill="blue" opacity="1" tooltip="enable"><title>(0.0673069,4)</title></rect><rect x="342" y="199.172" width="6" height="0.827815" stroke="black" stroke-width="1" fill="blue" opacity="1" tooltip="enable"><title>(0.0685088,5)</title></rect><rect x="348" y="198.841" width="6" height="1.15894" stroke="black" stroke-width="1" fill="blue" opacity="1" tooltip="enable"><title>(0.0697107,7)</title></rect><rect x="354" y="198.344" width="6" height="1.65563" stroke="black" stroke-width="1" fill="blue" opacity="1" tooltip="enable"><title>(0.0709127,10)</title></rect><rect x="360" y="199.669" width="6" height="0.331126" stroke="black" stroke-width="1" fill="blue" opacity="1" tooltip="enable"><title>(0.0721146,2)</title></rect><rect x="366" y="199.669" width="6" height="0.331126" stroke="black" stroke-width="1" fill="blue" opacity="1" tooltip="enable"><title>(0.0733165,2)</title></rect><rect x="372" y="199.172" width="6" height="0.827815" stroke="black" stroke-width="1" fill="blue" opacity="1" tooltip="enable"><title>(0.0745184,5)</title></rect><rect x="378" y="199.172" width="6" height="0.827815" stroke="black" stroke-width="1" fill="blue" opacity="1" tooltip="enable"><title>(0.0757203,5)</title></rect><rect x="384" y="199.669" width="6" height="0.331126" stroke="black" stroke-width="1" fill="blue" opacity="1" tooltip="enable"><title>(0.0769222,2)</title></rect><rect x="390" y="199.338" width="6" height="0.662252" stroke="black" stroke-width="1" fill="blue" opacity="1" tooltip="enable"><title>(0.0781241,4)</title></rect><rect x="396" y="199.338" width="6" height="0.662252" stroke="black" stroke-width="1" fill="blue" opacity="1" tooltip="enable"><title>(0.079326,4)</title></rect><rect x="402" y="199.338" width="6" height="0.662252" stroke="black" stroke-width="1" fill="blue" opacity="1" tooltip="enable"><title>(0.0805279,4)</title></rect><rect x="408" y="199.338" width="6" height="0.662252" stroke="black" stroke-width="1" fill="blue" opacity="1" tooltip="enable"><title>(0.0817298,4)</title></rect><rect x="414" y="199.669" width="6" height="0.331126" stroke="black" stroke-width="1" fill="blue" opacity="1" tooltip="enable"><title>(0.0829317,2)</title></rect><rect x="420" y="200" width="6" height="0" stroke="black" stroke-width="1" fill="blue" opacity="1" tooltip="enable"><title>(0.0841337,0)</title></rect><rect x="426" y="199.669" width="6" height="0.331126" stroke="black" stroke-width="1" fill="blue" opacity="1" tooltip="enable"><title>(0.0853356,2)</title></rect><rect x="432" y="200" width="6" height="0" stroke="black" stroke-width="1" fill="blue" opacity="1" tooltip="enable"><title>(0.0865375,0)</title></rect><rect x="438" y="199.669" width="6" height="0.331126" stroke="black" stroke-width="1" fill="blue" opacity="1" tooltip="enable"><title>(0.0877394,2)</title></rect><rect x="444" y="200" width="6" height="0" stroke="black" stroke-width="1" fill="blue" opacity="1" tooltip="enable"><title>(0.0889413,0)</title></rect><rect x="450" y="199.669" width="6" height="0.331126" stroke="black" stroke-width="1" fill="blue" opacity="1" tooltip="enable"><title>(0.0901432,2)</title></rect><rect x="456" y="200" width="6" height="0" stroke="black" stroke-width="1" fill="blue" opacity="1" tooltip="enable"><title>(0.0913451,0)</title></rect><rect x="462" y="200" width="6" height="0" stroke="black" stroke-width="1" fill="blue" opacity="1" tooltip="enable"><title>(0.092547,0)</title></rect><rect x="468" y="199.669" width="6" height="0.331126" stroke="black" stroke-width="1" fill="blue" opacity="1" tooltip="enable"><title>(0.0937489,2)</title></rect><rect x="474" y="199.669" width="6" height="0.331126" stroke="black" stroke-width="1" fill="blue" opacity="1" tooltip="enable"><title>(0.0949508,2)</title></rect><rect x="480" y="200" width="6" height="0" stroke="black" stroke-width="1" fill="blue" opacity="1" tooltip="enable"><title>(0.0961528,0)</title></rect><rect x="486" y="199.669" width="6" height="0.331126" stroke="black" stroke-width="1" fill="blue" opacity="1" tooltip="enable"><title>(0.0973547,2)</title></rect><rect x="492" y="200" width="6" height="0" stroke="black" stroke-width="1" fill="blue" opacity="1" tooltip="enable"><title>(0.0985566,0)</title></rect><rect x="498" y="200" width="6" height="0" stroke="black" stroke-width="1" fill="blue" opacity="1" tooltip="enable"><title>(0.0997585,0)</title></rect><rect x="504" y="200" width="6" height="0" stroke="black" stroke-width="1" fill="blue" opacity="1" tooltip="enable"><title>(0.10096,0)</title></rect><rect x="510" y="200" width="6" height="0" stroke="black" stroke-width="1" fill="blue" opacity="1" tooltip="enable"><title>(0.102162,0)</title></rect><rect x="516" y="200" width="6" height="0" stroke="black" stroke-width="1" fill="blue" opacity="1" tooltip="enable"><title>(0.103364,0)</title></rect><rect x="522" y="200" width="6" height="0" stroke="black" stroke-width="1" fill="blue" opacity="1" tooltip="enable"><title>(0.104566,0)</title></rect><rect x="528" y="200" width="6" height="0" stroke="black" stroke-width="1" fill="blue" opacity="1" tooltip="enable"><title>(0.105768,0)</title></rect><rect x="534" y="200" width="6" height="0" stroke="black" stroke-width="1" fill="blue" opacity="1" tooltip="enable"><title>(0.10697,0)</title></rect><rect x="540" y="200" width="6" height="0" stroke="black" stroke-width="1" fill="blue" opacity="1" tooltip="enable"><title>(0.108172,0)</title></rect><rect x="546" y="200" width="6" height="0" stroke="black" stroke-width="1" fill="blue" opacity="1" tooltip="enable"><title>(0.109374,0)</title></rect><rect x="552" y="200" width="6" height="0" stroke="black" stroke-width="1" fill="blue" opacity="1" tooltip="enable"><title>(0.110576,0)</title></rect><rect x="558" y="200" width="6" height="0" stroke="black" stroke-width="1" fill="blue" opacity="1" tooltip="enable"><title>(0.111778,0)</title></rect><rect x="564" y="200" width="6" height="0" stroke="black" stroke-width="1" fill="blue" opacity="1" tooltip="enable"><title>(0.112979,0)</title></rect><rect x="570" y="200" width="6" height="0" stroke="black" stroke-width="1" fill="blue" opacity="1" tooltip="enable"><title>(0.114181,0)</title></rect><rect x="576" y="200" width="6" height="0" stroke="black" stroke-width="1" fill="blue" opacity="1" tooltip="enable"><title>(0.115383,0)</title></rect><rect x="582" y="200" width="6" height="0" stroke="black" stroke-width="1" fill="blue" opacity="1" tooltip="enable"><title>(0.116585,0)</title></rect><rect x="588" y="200" width="6" height="0" stroke="black" stroke-width="1" fill="blue" opacity="1" tooltip="enable"><title>(0.117787,0)</title></rect><rect x="594" y="199.834" width="6" height="0.165563" stroke="black" stroke-width="1" fill="blue" opacity="1" tooltip="enable"><title>(0.118989,1)</title></rect><text x="30" y="240" font-size="20" fill="black">0</text>
<text x="600" y="240" font-size="20" fill="black">0.120191</text>
<polyline points="0,220,600,220" stroke="black" stroke-width="1" fill="none" opacity="1"/>
<text x="720" y="20" font-size="20" fill="black">1208</text>
<text x="720" y="200" font-size="20" fill="black">0</text>
<polyline points="660,0,660,200" stroke="black" stroke-width="1" fill="none" opacity="1"/>
</svg>