<?xml version="1.0" standalone="yes"?>
<!-- SVG graphic -->
<svg xmlns='http://www.w3.org/2000/svg' xmlns:xlink='http://www.w3.org/1999/xlink'
 version="1.1">
<rect x="0" y="0" width="6" height="200" stroke="black" stroke-width="1" fill="blue" opacity="1" tooltip="enable"><title>(0,2489)</title></rect><rect x="6" y="93.5315" width="6" height="106.468" stroke="black" stroke-width="1" fill="blue" opacity="1" tooltip="enable"><title>(0.00456894,1325)</title></rect><rect x="12" y="133.869" width="6" height="66.131" stroke="black" stroke-width="1" fill="blue" opacity="1" tooltip="enable"><title>(0.00913788,823)</title></rect><rect x="18" y="160.787" width="6" height="39.2125" stroke="black" stroke-width="1" fill="blue" opacity="1" tooltip="enable"><title>(0.0137068,488)</title></rect><rect x="24" y="168.18" width="6" height="31.82" stroke="black" stroke-width="1" fill="blue" opacity="1" tooltip="enable"><title>(0.0182758,396)</title></rect><rect x="30" y="178.465" width="6" height="21.5348" stroke="black" stroke-width="1" fill="blue" opacity="1" tooltip="enable"><title>(0.0228447,268)</title></rect><rect x="36" y="179.108" width="6" height="20.8919" stroke="black" stroke-width="1" fill="blue" opacity="1" tooltip="enable"><title>(0.0274137,260)</title></rect><rect x="42" y="176.617" width="6" height="23.3829" stroke="black" stroke-width="1" fill="blue" opacity="1" tooltip="enable"><title>(0.0319826,291)</title></rect><rect x="48" y="178.867" width="6" height="21.133" stroke="black" stroke-width="1" fill="blue" opacity="1" tooltip="enable"><title>(0.0365515,263)</title></rect><rect x="54" y="182.965" width="6" height="17.035" stroke="black" stroke-width="1" fill="blue" opacity="1" tooltip="enable"><title>(0.0411205,212)</title></rect><rect x="60" y="179.992" width="6" height="20.008" stroke="black" stroke-width="1" fill="blue" opacity="1" tooltip="enable"><title>(0.0456894,249)</title></rect><rect x="66" y="184.813" width="6" height="15.1868" stroke="black" stroke-width="1" fill="blue" opacity="1" tooltip="enable"><title>(0.0502584,189)</title></rect><rect x="72" y="187.947" width="6" height="12.053" stroke="black" stroke-width="1" fill="blue" opacity="1" tooltip="enable"><title>(0.0548273,150)</title></rect><rect x="78" y="190.759" width="6" height="9.24066" stroke="black" stroke-width="1" fill="blue" opacity="1" tooltip="enable"><title>(0.0593962,115)</title></rect><rect x="84" y="194.938" width="6" height="5.06227" stroke="black" stroke-width="1" fill="blue" opacity="1" tooltip="enable"><title>(0.0639652,63)</title></rect><rect x="90" y="193.732" width="6" height="6.26758" stroke="black" stroke-width="1" fill="blue" opacity="1" tooltip="enable"><title>(0.0685341,78)</title></rect><rect x="96" y="193.732" width="6" height="6.26758" stroke="black" stroke-width="1" fill="blue" opacity="1" tooltip="enable"><title>(0.0731031,78)</title></rect><rect x="102" y="193.973" width="6" height="6.02652" stroke="black" stroke-width="1" fill="blue" opacity="1" tooltip="enable"><title>(0.077672,75)</title></rect><rect x="108" y="197.83" width="6" height="2.16955" stroke="black" stroke-width="1" fill="blue" opacity="1" tooltip="enable"><title>(0.082241,27)</title></rect><rect x="114" y="196.384" width="6" height="3.61591" stroke="black" stroke-width="1" fill="blue" opacity="1" tooltip="enable"><title>(0.0868099,45)</title></rect><rect x="120" y="195.661" width="6" height="4.33909" stroke="black" stroke-width="1" fill="blue" opacity="1" tooltip="enable"><title>(0.0913788,54)</title></rect><rect x="126" y="197.83" width="6" height="2.16955" stroke="black" stroke-width="1" fill="blue" opacity="1" tooltip="enable"><title>(0.0959478,27)</title></rect><rect x="132" y="198.393" width="6" height="1.60707" stroke="black" stroke-width="1" fill="blue" opacity="1" tooltip="enable"><title>(0.100517,20)</title></rect><rect x="138" y="199.839" width="6" height="0.160707" stroke="black" stroke-width="1" fill="blue" opacity="1" tooltip="enable"><title>(0.105086,2)</title></rect><rect x="144" y="199.438" width="6" height="0.562475" stroke="black" stroke-width="1" fill="blue" opacity="1" tooltip="enable"><title>(0.109655,7)</title></rect><rect x="150" y="200" width="6" height="0" stroke="black" stroke-width="1" fill="blue" opacity="1" tooltip="enable"><title>(0.114224,0)</title></rect><rect x="156" y="200" width="6" height="0" stroke="black" stroke-width="1" fill="blue" opacity="1" tooltip="enable"><title>(0.118792,0)</title></rect><rect x="162" y="199.839" width="6" height="0.160707" stroke="black" stroke-width="1" fill="blue" opacity="1" tooltip="enable"><title>(0.123361,2)</title></rect><rect x="168" y="200" width="6" height="0" stroke="black" stroke-width="1" fill="blue" opacity="1" tooltip="enable"><title>(0.12793,0)</title></rect><rect x="174" y="200" width="6" height="0" stroke="black" stroke-width="1" fill="blue" opacity="1" tooltip="enable"><title>(0.132499,0)</title></rect><rect x="180" y="200" width="6" height="0" stroke="black" stroke-width="1" fill="blue" opacity="1" tooltip="enable"><title>(0.137068,0)</title></rect><rect x="186" y="200" width="6" height="0" stroke="black" stroke-width="1" fill="blue" opacity="1" tooltip="enable"><title>(0.141637,0)</title></rect><rect x="192" y="200" width="6" height="0" stroke="black" stroke-width="1" fill="blue" opacity="1" tooltip="enable"><title>(0.146206,0)</title></rect><rect x="198" y="200" width="6" height="0" stroke="black" stroke-width="1" fill="blue" opacity="1" tooltip="enable"><title>(0.150775,0)</title></rect><rect x="204" y="200" width="6" height="0" stroke="black" stroke-width="1" fill="blue" opacity="1" tooltip="enable"><title>(0.155344,0)</title></rect><rect x="210" y="200" width="6" height="0" stroke="black" stroke-width="1" fill="blue" opacity="1" tooltip="enable"><title>(0.159913,0)</title></rect><rect x="216" y="200" width="6" height="0" stroke="black" stroke-width="1" fill="blue" opacity="1" tooltip="enable"><title>(0.164482,0)</title></rect><rect x="222" y="200" width="6" height="0" stroke="black" stroke-width="1" fill="blue" opacity="1" tooltip="enable"><title>(0.169051,0)</title></rect><rect x="228" y="200" width="6" height="0" stroke="black" stroke-width="1" fill="blue" opacity="1" tooltip="enable"><title>(0.17362,0)</title></rect><rect x="234" y="200" width="6" height="0" stroke="black" stroke-width="1" fill="blue" opacity="1" tooltip="enable"><title>(0.178189,0)</title></rect><rect x="240" y="200" width="6" height="0" stroke="black" stroke-width="1" fill="blue" opacity="1" tooltip="enable"><title>(0.182758,0)</title></rect><rect x="246" y="200" width="6" height="0" stroke="black" stroke-width="1" fill="blue" opacity="1" tooltip="enable"><title>(0.187327,0)</title></rect><rect x="252" y="200" width="6" height="0" stroke="black" stroke-width="1" fill="blue" opacity="1" tooltip="enable"><title>(0.191896,0)</title></rect><rect x="258" y="200" width="6" height="0" stroke="black" stroke-width="1" fill="blue" opacity="1" tooltip="enable"><title>(0.196465,0)</title></rect><rect x="264" y="200" width="6" height="0" stroke="black" stroke-width="1" fill="blue" opacity="1" tooltip="enable"><title>(0.201033,0)</title></rect><rect x="270" y="200" width="6" height="0" stroke="black" stroke-width="1" fill="blue" opacity="1" tooltip="enable"><title>(0.205602,0)</title></rect><rect x="276" y="200" width="6" height="0" stroke="black" stroke-width="1" fill="blue" opacity="1" tooltip="enable"><title>(0.210171,0)</title></rect><rect x="282" y="200" width="6" height="0" stroke="black" stroke-width="1" fill="blue" opacity="1" tooltip="enable"><title>(0.21474,0)</title></rect><rect x="288" y="200" width="6" height="0" stroke="black" stroke-width="1" fill="blue" opacity="1" tooltip="enable"><title>(0.219309,0)</title></rect><rect x="294" y="200" width="6" height="0" stroke="black" stroke-width="1" fill="blue" opacity="1" tooltip="enable"><title>(0.223878,0)</title></rect><rect x="300" y="200" width="6" height="0" stroke="black" stroke-width="1" fill="blue" opacity="1" tooltip="enable"><title>(0.228447,0)</title></rect><rect x="306" y="200" width="6" height="0" stroke="black" stroke-width="1" fill="blue" opacity="1" tooltip="enable"><title>(0.233016,0)</title></rect><rect x="312" y="200" width="6" height="0" stroke="black" stroke-width="1" fill="blue" opacity="1" tooltip="enable"><title>(0.237585,0)</title></rect><rect x="318" y="200" width="6" height="0" stroke="black" stroke-width="1" fill="blue" opacity="1" tooltip="enable"><title>(0.242154,0)</title></rect><rect x="324" y="200" width="6" height="0" stroke="black" stroke-width="1" fill="blue" opacity="1" tooltip="enable"><title>(0.246723,0)</title></rect><rect x="330" y="200" width="6" height="0" stroke="black" stroke-width="1" fill="blue" opacity="1" tooltip="enable"><title>(0.251292,0)</title></rect><rect x="336" y="200" width="6" height="0" stroke="black" stroke-width="1" fill="blue" opacity="1" tooltip="enable"><title>(0.255861,0)</title></rect><rect x="342" y="200" width="6" height="0" stroke="black" stroke-width="1" fill="blue" opacity="1" tooltip="enable"><title>(0.26043,0)</title></rect><rect x="348" y="200" width="6" height="0" stroke="black" stroke-width="1" fill="blue" opacity="1" tooltip="enable"><title>(0.264999,0)</title></rect><rect x="354" y="200" width="6" height="0" stroke="black" stroke-width="1" fill="blue" opacity="1" tooltip="enable"><title>(0.269568,0)</title></rect><rect x="360" y="200" width="6" height="0" stroke="black" stroke-width="1" fill="blue" opacity="1" tooltip="enable"><title>(0.274137,0)</title></rect><rect x="366" y="200" width="6" height="0" stroke="black" stroke-width="1" fill="blue" opacity="1" tooltip="enable"><title>(0.278705,0)</title></rect><rect x="372" y="200" width="6" height="0" stroke="black" stroke-width="1" fill="blue" opacity="1" tooltip="enable"><title>(0.283274,0)</title></rect><rect x="378" y="200" width="6" height="0" stroke="black" stroke-width="1" fill="blue" opacity="1" tooltip="enable"><title>(0.287843,0)</title></rect><rect x="384" y="200" width="6" height="0" stroke="black" stroke-width="1" fill="blue" opacity="1" tooltip="enable"><title>(0.292412,0)</title></rect><rect x="390" y="200" width="6" height="0" stroke="black" stroke-width="1" fill="blue" opacity="1" tooltip="enable"><title>(0.296981,0)</title></rect><rect x="396" y="200" width="6" height="0" stroke="black" stroke-width="1" fill="blue" opacity="1" tooltip="enable"><title>(0.30155,0)</title></rect><rect x="402" y="200" width="6" height="0" stroke="black" stroke-width="1" fill="blue" opacity="1" tooltip="enable"><title>(0.306119,0)</title></rect><rect x="408" y="200" width="6" height="0" stroke="black" stroke-width="1" fill="blue" opacity="1" tooltip="enable"><title>(0.310688,0)</title></rect><rect x="414" y="200" width="6" height="0" stroke="black" stroke-width="1" fill="blue" opacity="1" tooltip="enable"><title>(0.315257,0)</title></rect><rect x="420" y="200" width="6" height="0" stroke="black" stroke-width="1" fill="blue" opacity="1" tooltip="enable"><title>(0.319826,0)</title></rect><rect x="426" y="200" width="6" height="0" stroke="black" stroke-width="1" fill="blue" opacity="1" tooltip="enable"><title>(0.324395,0)</title></rect><rect x="432" y="200" width="6" height="0" stroke="black" stroke-width="1" fill="blue" opacity="1" tooltip="enable"><title>(0.328964,0)</title></rect><rect x="438" y="200" width="6" height="0" stroke="black" stroke-width="1" fill="blue" opacity="1" tooltip="enable"><title>(0.333533,0)</title></rect><rect x="444" y="200" width="6" height="0" stroke="black" stroke-width="1" fill="blue" opacity="1" tooltip="enable"><title>(0.338102,0)</title></rect><rect x="450" y="200" width="6" height="0" stroke="black" stroke-width="1" fill="blue" opacity="1" tooltip="enable"><title>(0.342671,0)</title></rect><rect x="456" y="200" width="6" height="0" stroke="black" stroke-width="1" fill="blue" opacity="1" tooltip="enable"><title>(0.34724,0)</title></rect><rect x="462" y="200" width="6" height="0" stroke="black" stroke-width="1" fill="blue" opacity="1" tooltip="enable"><title>(0.351809,0)</title></rect><rect x="468" y="200" width="6" height="0" stroke="black" stroke-width="1" fill="blue" opacity="1" tooltip="enable"><title>(0.356377,0)</title></rect><rect x="474" y="200" width="6" height="0" stroke="black" stroke-width="1" fill="blue" opacity="1" tooltip="enable"><title>(0.360946,0)</title></rect><rect x="480" y="200" width="6" height="0" stroke="black" stroke-width="1" fill="blue" opacity="1" tooltip="enable"><title>(0.365515,0)</title></rect><rect x="486" y="200" width="6" height="0" stroke="black" stroke-width="1" fill="blue" opacity="1" tooltip="enable"><title>(0.370084,0)</title></rect><rect x="492" y="200" width="6" height="0" stroke="black" stroke-width="1" fill="blue" opacity="1" tooltip="enable"><title>(0.374653,0)</title></rect><rect x="498" y="200" width="6" height="0" stroke="black" stroke-width="1" fill="blue" opacity="1" tooltip="enable"><title>(0.379222,0)</title></rect><rect x="504" y="200" width="6" height="0" stroke="black" stroke-width="1" fill="blue" opacity="1" tooltip="enable"><title>(0.383791,0)</title></rect><rect x="510" y="200" width="6" height="0" stroke="black" stroke-width="1" fill="blue" opacity="1" tooltip="enable"><title>(0.38836,0)</title></rect><rect x="516" y="200" width="6" height="0" stroke="black" stroke-width="1" fill="blue" opacity="1" tooltip="enable"><title>(0.392929,0)</title></rect><rect x="522" y="199.839" width="6" height="0.160707" stroke="black" stroke-width="1" fill="blue" opacity="1" tooltip="enable"><title>(0.397498,2)</title></rect><rect x="528" y="200" width="6" height="0" stroke="black" stroke-width="1" fill="blue" opacity="1" tooltip="enable"><title>(0.402067,0)</title></rect><rect x="534" y="200" width="6" height="0" stroke="black" stroke-width="1" fill="blue" opacity="1" tooltip="enable"><title>(0.406636,0)</title></rect><rect x="540" y="200" width="6" height="0" stroke="black" stroke-width="1" fill="blue" opacity="1" tooltip="enable"><title>(0.411205,0)</title></rect><rect x="546" y="200" width="6" height="0" stroke="black" stroke-width="1" fill="blue" opacity="1" tooltip="enable"><title>(0.415774,0)</title></rect><rect x="552" y="200" width="6" height="0" stroke="black" stroke-width="1" fill="blue" opacity="1" tooltip="enable"><title>(0.420343,0)</title></rect><rect x="558" y="200" width="6" height="0" stroke="black" stroke-width="1" fill="blue" opacity="1" tooltip="enable"><title>(0.424912,0)</title></rect><rect x="564" y="200" width="6" height="0" stroke="black" stroke-width="1" fill="blue" opacity="1" tooltip="enable"><title>(0.429481,0)</title></rect><rect x="570" y="200" width="6" height="0" stroke="black" stroke-width="1" fill="blue" opacity="1" tooltip="enable"><title>(0.434049,0)</title></rect><rect x="576" y="200" width="6" height="0" stroke="black" stroke-width="1" fill="blue" opacity="1" tooltip="enable"><title>(0.438618,0)</title></rect><rect x="582" y="200" width="6" height="0" stroke="black" stroke-width="1" fill="blue" opacity="1" tooltip="enable"><title>(0.443187,0)</title></rect><rect x="588" y="200" width="6" height="0" stroke="black" stroke-width="1" fill="blue" opacity="1" tooltip="enable"><title>(0.447756,0)</title></rect><rect x="594" y="199.92" width="6" height="0.0803536" stroke="black" stroke-width="1" fill="blue" opacity="1" tooltip="enable"><title>(0.452325,1)</title></rect><text x="30" y="240" font-size="20" fill="black">0</text>
<text x="600" y="240" font-size="20" fill="black">0.456894</text>
<polyline points="0,220,600,220" stroke="black" stroke-width="1" fill="none" opacity="1"/>
<text x="720" y="20" font-size="20" fill="black">2489</text>
<text x="720" y="200" font-size="20" fill="black">0</text>
<polyline points="660,0,660,200" stroke="black" stroke-width="1" fill="none" opacity="1"/>
</svg>