<?xml version="1.0" standalone="yes"?>
<!-- SVG graphic -->
<svg xmlns='http://www.w3.org/2000/svg' xmlns:xlink='http://www.w3.org/1999/xlink'
 version="1.1">
<rect x="0" y="0" width="6" height="200" stroke="black" stroke-width="1" fill="blue" opacity="1" tooltip="enable"><title>(0,1277)</title></rect><rect x="6" y="13.1558" width="6" height="186.844" stroke="black" stroke-width="1" fill="blue" opacity="1" tooltip="enable"><title>(0.00143919,1193)</title></rect><rect x="12" y="37.5881" width="6" height="162.412" stroke="black" stroke-width="1" fill="blue" opacity="1" tooltip="enable"><title>(0.00287838,1037)</title></rect><rect x="18" y="93.3438" width="6" height="106.656" stroke="black" stroke-width="1" fill="blue" opacity="1" tooltip="enable"><title>(0.00431757,681)</title></rect><rect x="24" y="125.764" width="6" height="74.2365" stroke="black" stroke-width="1" fill="blue" opacity="1" tooltip="enable"><title>(0.00575677,474)</title></rect><rect x="30" y="146.594" width="6" height="53.4064" stroke="black" stroke-width="1" fill="blue" opacity="1" tooltip="enable"><title>(0.00719596,341)</title></rect><rect x="36" y="163.978" width="6" height="36.0219" stroke="black" stroke-width="1" fill="blue" opacity="1" tooltip="enable"><title>(0.00863515,230)</title></rect><rect x="42" y="168.05" width="6" height="31.9499" stroke="black" stroke-width="1" fill="blue" opacity="1" tooltip="enable"><title>(0.0100743,204)</title></rect><rect x="48" y="171.652" width="6" height="28.3477" stroke="black" stroke-width="1" fill="blue" opacity="1" tooltip="enable"><title>(0.0115135,181)</title></rect><rect x="54" y="171.652" width="6" height="28.3477" stroke="black" stroke-width="1" fill="blue" opacity="1" tooltip="enable"><title>(0.0129527,181)</title></rect><rect x="60" y="173.845" width="6" height="26.1551" stroke="black" stroke-width="1" fill="blue" opacity="1" tooltip="enable"><title>(0.0143919,167)</title></rect><rect x="66" y="171.809" width="6" height="28.1911" stroke="black" stroke-width="1" fill="blue" opacity="1" tooltip="enable"><title>(0.0158311,180)</title></rect><rect x="72" y="177.604" width="6" height="22.3962" stroke="black" stroke-width="1" fill="blue" opacity="1" tooltip="enable"><title>(0.0172703,143)</title></rect><rect x="78" y="175.881" width="6" height="24.119" stroke="black" stroke-width="1" fill="blue" opacity="1" tooltip="enable"><title>(0.0187095,154)</title></rect><rect x="84" y="176.507" width="6" height="23.4926" stroke="black" stroke-width="1" fill="blue" opacity="1" tooltip="enable"><title>(0.0201487,150)</title></rect><rect x="90" y="181.676" width="6" height="18.3242" stroke="black" stroke-width="1" fill="blue" opacity="1" tooltip="enable"><title>(0.0215879,117)</title></rect><rect x="96" y="176.821" width="6" height="23.1793" stroke="black" stroke-width="1" fill="blue" opacity="1" tooltip="enable"><title>(0.0230271,148)</title></rect><rect x="102" y="180.893" width="6" height="19.1073" stroke="black" stroke-width="1" fill="blue" opacity="1" tooltip="enable"><title>(0.0244663,122)</title></rect><rect x="108" y="185.748" width="6" height="14.2522" stroke="black" stroke-width="1" fill="blue" opacity="1" tooltip="enable"><title>(0.0259054,91)</title></rect><rect x="114" y="187.157" width="6" height="12.8426" stroke="black" stroke-width="1" fill="blue" opacity="1" tooltip="enable"><title>(0.0273446,82)</title></rect><rect x="120" y="189.35" width="6" height="10.65" stroke="black" stroke-width="1" fill="blue" opacity="1" tooltip="enable"><title>(0.0287838,68)</title></rect><rect x="126" y="186.374" width="6" height="13.6257" stroke="black" stroke-width="1" fill="blue" opacity="1" tooltip="enable"><title>(0.030223,87)</title></rect><rect x="132" y="190.603" width="6" height="9.39702" stroke="black" stroke-width="1" fill="blue" opacity="1" tooltip="enable"><title>(0.0316622,60)</title></rect><rect x="138" y="190.916" width="6" height="9.08379" stroke="black" stroke-width="1" fill="blue" opacity="1" tooltip="enable"><title>(0.0331014,58)</title></rect><rect x="144" y="189.193" width="6" height="10.8066" stroke="black" stroke-width="1" fill="blue" opacity="1" tooltip="enable"><title>(0.0345406,69)</title></rect><rect x="150" y="191.856" width="6" height="8.14409" stroke="black" stroke-width="1" fill="blue" opacity="1" tooltip="enable"><title>(0.0359798,52)</title></rect><rect x="156" y="193.422" width="6" height="6.57792" stroke="black" stroke-width="1" fill="blue" opacity="1" tooltip="enable"><title>(0.037419,42)</title></rect><rect x="162" y="193.109" width="6" height="6.89115" stroke="black" stroke-width="1" fill="blue" opacity="1" tooltip="enable"><title>(0.0388582,44)</title></rect><rect x="168" y="194.832" width="6" height="5.16836" stroke="black" stroke-width="1" fill="blue" opacity="1" tooltip="enable"><title>(0.0402974,33)</title></rect><rect x="174" y="193.892" width="6" height="6.10807" stroke="black" stroke-width="1" fill="blue" opacity="1" tooltip="enable"><title>(0.0417366,39)</title></rect><rect x="180" y="193.109" width="6" height="6.89115" stroke="black" stroke-width="1" fill="blue" opacity="1" tooltip="enable"><title>(0.0431757,44)</title></rect><rect x="186" y="193.265" width="6" height="6.73453" stroke="black" stroke-width="1" fill="blue" opacity="1" tooltip="enable"><title>(0.0446149,43)</title></rect><rect x="192" y="195.301" width="6" height="4.69851" stroke="black" stroke-width="1" fill="blue" opacity="1" tooltip="enable"><title>(0.0460541,30)</title></rect><rect x="198" y="196.711" width="6" height="3.28896" stroke="black" stroke-width="1" fill="blue" opacity="1" tooltip="enable"><title>(0.0474933,21)</title></rect><rect x="204" y="197.494" width="6" height="2.50587" stroke="black" stroke-width="1" fill="blue" opacity="1" tooltip="enable"><title>(0.0489325,16)</title></rect><rect x="210" y="198.904" width="6" height="1.09632" stroke="black" stroke-width="1" fill="blue" opacity="1" tooltip="enable"><title>(0.0503717,7)</title></rect><rect x="216" y="198.747" width="6" height="1.25294" stroke="black" stroke-width="1" fill="blue" opacity="1" tooltip="enable"><title>(0.0518109,8)</title></rect><rect x="222" y="199.374" width="6" height="0.626468" stroke="black" stroke-width="1" fill="blue" opacity="1" tooltip="enable"><title>(0.0532501,4)</title></rect><rect x="228" y="198.747" width="6" height="1.25294" stroke="black" stroke-width="1" fill="blue" opacity="1" tooltip="enable"><title>(0.0546893,8)</title></rect><rect x="234" y="199.06" width="6" height="0.939702" stroke="black" stroke-width="1" fill="blue" opacity="1" tooltip="enable"><title>(0.0561285,6)</title></rect><rect x="240" y="199.687" width="6" height="0.313234" stroke="black" stroke-width="1" fill="blue" opacity="1" tooltip="enable"><title>(0.0575677,2)</title></rect><rect x="246" y="199.374" width="6" height="0.626468" stroke="black" stroke-width="1" fill="blue" opacity="1" tooltip="enable"><title>(0.0590068,4)</title></rect><rect x="252" y="199.374" width="6" height="0.626468" stroke="black" stroke-width="1" fill="blue" opacity="1" tooltip="enable"><title>(0.060446,4)</title></rect><rect x="258" y="199.06" width="6" height="0.939702" stroke="black" stroke-width="1" fill="blue" opacity="1" tooltip="enable"><title>(0.0618852,6)</title></rect><rect x="264" y="199.687" width="6" height="0.313234" stroke="black" stroke-width="1" fill="blue" opacity="1" tooltip="enable"><title>(0.0633244,2)</title></rect><rect x="270" y="199.687" width="6" height="0.313234" stroke="black" stroke-width="1" fill="blue" opacity="1" tooltip="enable"><title>(0.0647636,2)</title></rect><rect x="276" y="200" width="6" height="0" stroke="black" stroke-width="1" fill="blue" opacity="1" tooltip="enable"><title>(0.0662028,0)</title></rect><rect x="282" y="197.964" width="6" height="2.03602" stroke="black" stroke-width="1" fill="blue" opacity="1" tooltip="enable"><title>(0.067642,13)</title></rect><rect x="288" y="199.217" width="6" height="0.783085" stroke="black" stroke-width="1" fill="blue" opacity="1" tooltip="enable"><title>(0.0690812,5)</title></rect><rect x="294" y="200" width="6" height="0" stroke="black" stroke-width="1" fill="blue" opacity="1" tooltip="enable"><title>(0.0705204,0)</title></rect><rect x="300" y="199.687" width="6" height="0.313234" stroke="black" stroke-width="1" fill="blue" opacity="1" tooltip="enable"><title>(0.0719596,2)</title></rect><rect x="306" y="199.217" width="6" height="0.783085" stroke="black" stroke-width="1" fill="blue" opacity="1" tooltip="enable"><title>(0.0733988,5)</title></rect><rect x="312" y="199.53" width="6" height="0.469851" stroke="black" stroke-width="1" fill="blue" opacity="1" tooltip="enable"><title>(0.074838,3)</title></rect><rect x="318" y="199.06" width="6" height="0.939702" stroke="black" stroke-width="1" fill="blue" opacity="1" tooltip="enable"><title>(0.0762771,6)</title></rect><rect x="324" y="199.687" width="6" height="0.313234" stroke="black" stroke-width="1" fill="blue" opacity="1" tooltip="enable"><title>(0.0777163,2)</title></rect><rect x="330" y="199.843" width="6" height="0.156617" stroke="black" stroke-width="1" fill="blue" opacity="1" tooltip="enable"><title>(0.0791555,1)</title></rect><rect x="336" y="199.843" width="6" height="0.156617" stroke="black" stroke-width="1" fill="blue" opacity="1" tooltip="enable"><title>(0.0805947,1)</title></rect><rect x="342" y="199.53" width="6" height="0.469851" stroke="black" stroke-width="1" fill="blue" opacity="1" tooltip="enable"><title>(0.0820339,3)</title></rect><rect x="348" y="199.53" width="6" height="0.469851" stroke="black" stroke-width="1" fill="blue" opacity="1" tooltip="enable"><title>(0.0834731,3)</title></rect><rect x="354" y="199.06" width="6" height="0.939702" stroke="black" stroke-width="1" fill="blue" opacity="1" tooltip="enable"><title>(0.0849123,6)</title></rect><rect x="360" y="199.843" width="6" height="0.156617" stroke="black" stroke-width="1" fill="blue" opacity="1" tooltip="enable"><title>(0.0863515,1)</title></rect><rect x="366" y="199.53" width="6" height="0.469851" stroke="black" stroke-width="1" fill="blue" opacity="1" tooltip="enable"><title>(0.0877907,3)</title></rect><rect x="372" y="200" width="6" height="0" stroke="black" stroke-width="1" fill="blue" opacity="1" tooltip="enable"><title>(0.0892299,0)</title></rect><rect x="378" y="199.687" width="6" height="0.313234" stroke="black" stroke-width="1" fill="blue" opacity="1" tooltip="enable"><title>(0.0906691,2)</title></rect><rect x="384" y="200" width="6" height="0" stroke="black" stroke-width="1" fill="blue" opacity="1" tooltip="enable"><title>(0.0921082,0)</title></rect><rect x="390" y="199.374" width="6" height="0.626468" stroke="black" stroke-width="1" fill="blue" opacity="1" tooltip="enable"><title>(0.0935474,4)</title></rect><rect x="396" y="200" width="6" height="0" stroke="black" stroke-width="1" fill="blue" opacity="1" tooltip="enable"><title>(0.0949866,0)</title></rect><rect x="402" y="199.687" width="6" height="0.313234" stroke="black" stroke-width="1" fill="blue" opacity="1" tooltip="enable"><title>(0.0964258,2)</title></rect><rect x="408" y="199.374" width="6" height="0.626468" stroke="black" stroke-width="1" fill="blue" opacity="1" tooltip="enable"><title>(0.097865,4)</title></rect><rect x="414" y="200" width="6" height="0" stroke="black" stroke-width="1" fill="blue" opacity="1" tooltip="enable"><title>(0.0993042,0)</title></rect><rect x="420" y="200" width="6" height="0" stroke="black" stroke-width="1" fill="blue" opacity="1" tooltip="enable"><title>(0.100743,0)</title></rect><rect x="426" y="200" width="6" height="0" stroke="black" stroke-width="1" fill="blue" opacity="1" tooltip="enable"><title>(0.102183,0)</title></rect><rect x="432" y="200" width="6" height="0" stroke="black" stroke-width="1" fill="blue" opacity="1" tooltip="enable"><title>(0.103622,0)</title></rect><rect x="438" y="200" width="6" height="0" stroke="black" stroke-width="1" fill="blue" opacity="1" tooltip="enable"><title>(0.105061,0)</title></rect><rect x="444" y="200" width="6" height="0" stroke="black" stroke-width="1" fill="blue" opacity="1" tooltip="enable"><title>(0.1065,0)</title></rect><rect x="450" y="200" width="6" height="0" stroke="black" stroke-width="1" fill="blue" opacity="1" tooltip="enable"><title>(0.107939,0)</title></rect><rect x="456" y="199.687" width="6" height="0.313234" stroke="black" stroke-width="1" fill="blue" opacity="1" tooltip="enable"><title>(0.109379,2)</title></rect><rect x="462" y="200" width="6" height="0" stroke="black" stroke-width="1" fill="blue" opacity="1" tooltip="enable"><title>(0.110818,0)</title></rect><rect x="468" y="200" width="6" height="0" stroke="black" stroke-width="1" fill="blue" opacity="1" tooltip="enable"><title>(0.112257,0)</title></rect><rect x="474" y="199.374" width="6" height="0.626468" stroke="black" stroke-width="1" fill="blue" opacity="1" tooltip="enable"><title>(0.113696,4)</title></rect><rect x="480" y="199.687" width="6" height="0.313234" stroke="black" stroke-width="1" fill="blue" opacity="1" tooltip="enable"><title>(0.115135,2)</title></rect><rect x="486" y="200" width="6" height="0" stroke="black" stroke-width="1" fill="blue" opacity="1" tooltip="enable"><title>(0.116575,0)</title></rect><rect x="492" y="199.687" width="6" height="0.313234" stroke="black" stroke-width="1" fill="blue" opacity="1" tooltip="enable"><title>(0.118014,2)</title></rect><rect x="498" y="200" width="6" height="0" stroke="black" stroke-width="1" fill="blue" opacity="1" tooltip="enable"><title>(0.119453,0)</title></rect><rect x="504" y="200" width="6" height="0" stroke="black" stroke-width="1" fill="blue" opacity="1" tooltip="enable"><title>(0.120892,0)</title></rect><rect x="510" y="200" width="6" height="0" stroke="black" stroke-width="1" fill="blue" opacity="1" tooltip="enable"><title>(0.122331,0)</title></rect><rect x="516" y="200" width="6" height="0" stroke="black" stroke-width="1" fill="blue" opacity="1" tooltip="enable"><title>(0.12377,0)</title></rect><rect x="522" y="199.843" width="6" height="0.156617" stroke="black" stroke-width="1" fill="blue" opacity="1" tooltip="enable"><title>(0.12521,1)</title></rect><rect x="528" y="199.217" width="6" height="0.783085" stroke="black" stroke-width="1" fill="blue" opacity="1" tooltip="enable"><title>(0.126649,5)</title></rect><rect x="534" y="200" width="6" height="0" stroke="black" stroke-width="1" fill="blue" opacity="1" tooltip="enable"><title>(0.128088,0)</title></rect><rect x="540" y="200" width="6" height="0" stroke="black" stroke-width="1" fill="blue" opacity="1" tooltip="enable"><title>(0.129527,0)</title></rect><rect x="546" y="200" width="6" height="0" stroke="black" stroke-width="1" fill="blue" opacity="1" tooltip="enable"><title>(0.130966,0)</title></rect><rect x="552" y="200" width="6" height="0" stroke="black" stroke-width="1" fill="blue" opacity="1" tooltip="enable"><title>(0.132406,0)</title></rect><rect x="558" y="200" width="6" height="0" stroke="black" stroke-width="1" fill="blue" opacity="1" tooltip="enable"><title>(0.133845,0)</title></rect><rect x="564" y="200" width="6" height="0" stroke="black" stroke-width="1" fill="blue" opacity="1" tooltip="enable"><title>(0.135284,0)</title></rect><rect x="570" y="199.687" width="6" height="0.313234" stroke="black" stroke-width="1" fill="blue" opacity="1" tooltip="enable"><title>(0.136723,2)</title></rect><rect x="576" y="199.687" width="6" height="0.313234" stroke="black" stroke-width="1" fill="blue" opacity="1" tooltip="enable"><title>(0.138162,2)</title></rect><rect x="582" y="200" width="6" height="0" stroke="black" stroke-width="1" fill="blue" opacity="1" tooltip="enable"><title>(0.139602,0)</title></rect><rect x="588" y="200" width="6" height="0" stroke="black" stroke-width="1" fill="blue" opacity="1" tooltip="enable"><title>(0.141041,0)</title></rect><rect x="594" y="199.687" width="6" height="0.313234" stroke="black" stroke-width="1" fill="blue" opacity="1" tooltip="enable"><title>(0.14248,2)</title></rect><text x="30" y="240" font-size="20" fill="black">0</text>
<text x="600" y="240" font-size="20" fill="black">0.143919</text>
<polyline points="0,220,600,220" stroke="black" stroke-width="1" fill="none" opacity="1"/>
<text x="720" y="20" font-size="20" fill="black">1277</text>
<text x="720" y="200" font-size="20" fill="black">0</text>
<polyline points="660,0,660,200" stroke="black" stroke-width="1" fill="none" opacity="1"/>
</svg>