<?xml version="1.0" standalone="yes"?>
<!-- SVG graphic -->
<svg xmlns='http://www.w3.org/2000/svg' xmlns:xlink='http://www.w3.org/1999/xlink'
 version="1.1">
<rect x="0" y="0" width="6" height="200" stroke="black" stroke-width="1" fill="blue" opacity="1" tooltip="enable"><title>(0,1090)</title></rect><rect x="6" y="2.01836" width="6" height="197.982" stroke="black" stroke-width="1" fill="blue" opacity="1" tooltip="enable"><title>(0.00136038,1079)</title></rect><rect x="12" y="14.6789" width="6" height="185.321" stroke="black" stroke-width="1" fill="blue" opacity="1" tooltip="enable"><title>(0.00272076,1010)</title></rect><rect x="18" y="64.7706" width="6" height="135.229" stroke="black" stroke-width="1" fill="blue" opacity="1" tooltip="enable"><title>(0.00408114,737)</title></rect><rect x="24" y="120.917" width="6" height="79.0826" stroke="black" stroke-width="1" fill="blue" opacity="1" tooltip="enable"><title>(0.00544152,431)</title></rect><rect x="30" y="144.771" width="6" height="55.2294" stroke="black" stroke-width="1" fill="blue" opacity="1" tooltip="enable"><title>(0.00680189,301)</title></rect><rect x="36" y="162.202" width="6" height="37.7982" stroke="black" stroke-width="1" fill="blue" opacity="1" tooltip="enable"><title>(0.00816227,206)</title></rect><rect x="42" y="168.807" width="6" height="31.1927" stroke="black" stroke-width="1" fill="blue" opacity="1" tooltip="enable"><title>(0.00952265,170)</title></rect><rect x="48" y="170.275" width="6" height="29.7248" stroke="black" stroke-width="1" fill="blue" opacity="1" tooltip="enable"><title>(0.010883,162)</title></rect><rect x="54" y="170.642" width="6" height="29.3578" stroke="black" stroke-width="1" fill="blue" opacity="1" tooltip="enable"><title>(0.0122434,160)</title></rect><rect x="60" y="170.275" width="6" height="29.7248" stroke="black" stroke-width="1" fill="blue" opacity="1" tooltip="enable"><title>(0.0136038,162)</title></rect><rect x="66" y="171.927" width="6" height="28.0734" stroke="black" stroke-width="1" fill="blue" opacity="1" tooltip="enable"><title>(0.0149642,153)</title></rect><rect x="72" y="171.56" width="6" height="28.4404" stroke="black" stroke-width="1" fill="blue" opacity="1" tooltip="enable"><title>(0.0163245,155)</title></rect><rect x="78" y="171.009" width="6" height="28.9908" stroke="black" stroke-width="1" fill="blue" opacity="1" tooltip="enable"><title>(0.0176849,158)</title></rect><rect x="84" y="176.147" width="6" height="23.8532" stroke="black" stroke-width="1" fill="blue" opacity="1" tooltip="enable"><title>(0.0190453,130)</title></rect><rect x="90" y="174.312" width="6" height="25.6881" stroke="black" stroke-width="1" fill="blue" opacity="1" tooltip="enable"><title>(0.0204057,140)</title></rect><rect x="96" y="171.376" width="6" height="28.6239" stroke="black" stroke-width="1" fill="blue" opacity="1" tooltip="enable"><title>(0.0217661,156)</title></rect><rect x="102" y="182.018" width="6" height="17.9817" stroke="black" stroke-width="1" fill="blue" opacity="1" tooltip="enable"><title>(0.0231264,98)</title></rect><rect x="108" y="181.835" width="6" height="18.1651" stroke="black" stroke-width="1" fill="blue" opacity="1" tooltip="enable"><title>(0.0244868,99)</title></rect><rect x="114" y="178.532" width="6" height="21.4679" stroke="black" stroke-width="1" fill="blue" opacity="1" tooltip="enable"><title>(0.0258472,117)</title></rect><rect x="120" y="183.303" width="6" height="16.6972" stroke="black" stroke-width="1" fill="blue" opacity="1" tooltip="enable"><title>(0.0272076,91)</title></rect><rect x="126" y="180" width="6" height="20" stroke="black" stroke-width="1" fill="blue" opacity="1" tooltip="enable"><title>(0.028568,109)</title></rect><rect x="132" y="179.633" width="6" height="20.367" stroke="black" stroke-width="1" fill="blue" opacity="1" tooltip="enable"><title>(0.0299283,111)</title></rect><rect x="138" y="179.45" width="6" height="20.5505" stroke="black" stroke-width="1" fill="blue" opacity="1" tooltip="enable"><title>(0.0312887,112)</title></rect><rect x="144" y="180.734" width="6" height="19.2661" stroke="black" stroke-width="1" fill="blue" opacity="1" tooltip="enable"><title>(0.0326491,105)</title></rect><rect x="150" y="185.505" width="6" height="14.4954" stroke="black" stroke-width="1" fill="blue" opacity="1" tooltip="enable"><title>(0.0340095,79)</title></rect><rect x="156" y="184.404" width="6" height="15.5963" stroke="black" stroke-width="1" fill="blue" opacity="1" tooltip="enable"><title>(0.0353699,85)</title></rect><rect x="162" y="186.972" width="6" height="13.0275" stroke="black" stroke-width="1" fill="blue" opacity="1" tooltip="enable"><title>(0.0367302,71)</title></rect><rect x="168" y="189.541" width="6" height="10.4587" stroke="black" stroke-width="1" fill="blue" opacity="1" tooltip="enable"><title>(0.0380906,57)</title></rect><rect x="174" y="188.624" width="6" height="11.3761" stroke="black" stroke-width="1" fill="blue" opacity="1" tooltip="enable"><title>(0.039451,62)</title></rect><rect x="180" y="193.761" width="6" height="6.23853" stroke="black" stroke-width="1" fill="blue" opacity="1" tooltip="enable"><title>(0.0408114,34)</title></rect><rect x="186" y="191.927" width="6" height="8.07339" stroke="black" stroke-width="1" fill="blue" opacity="1" tooltip="enable"><title>(0.0421717,44)</title></rect><rect x="192" y="192.294" width="6" height="7.70642" stroke="black" stroke-width="1" fill="blue" opacity="1" tooltip="enable"><title>(0.0435321,42)</title></rect><rect x="198" y="194.862" width="6" height="5.13761" stroke="black" stroke-width="1" fill="blue" opacity="1" tooltip="enable"><title>(0.0448925,28)</title></rect><rect x="204" y="195.229" width="6" height="4.77064" stroke="black" stroke-width="1" fill="blue" opacity="1" tooltip="enable"><title>(0.0462529,26)</title></rect><rect x="210" y="196.697" width="6" height="3.30275" stroke="black" stroke-width="1" fill="blue" opacity="1" tooltip="enable"><title>(0.0476133,18)</title></rect><rect x="216" y="196.697" width="6" height="3.30275" stroke="black" stroke-width="1" fill="blue" opacity="1" tooltip="enable"><title>(0.0489736,18)</title></rect><rect x="222" y="197.431" width="6" height="2.56881" stroke="black" stroke-width="1" fill="blue" opacity="1" tooltip="enable"><title>(0.050334,14)</title></rect><rect x="228" y="197.064" width="6" height="2.93578" stroke="black" stroke-width="1" fill="blue" opacity="1" tooltip="enable"><title>(0.0516944,16)</title></rect><rect x="234" y="198.899" width="6" height="1.10092" stroke="black" stroke-width="1" fill="blue" opacity="1" tooltip="enable"><title>(0.0530548,6)</title></rect><rect x="240" y="197.431" width="6" height="2.56881" stroke="black" stroke-width="1" fill="blue" opacity="1" tooltip="enable"><title>(0.0544152,14)</title></rect><rect x="246" y="197.431" width="6" height="2.56881" stroke="black" stroke-width="1" fill="blue" opacity="1" tooltip="enable"><title>(0.0557755,14)</title></rect><rect x="252" y="197.798" width="6" height="2.20183" stroke="black" stroke-width="1" fill="blue" opacity="1" tooltip="enable"><title>(0.0571359,12)</title></rect><rect x="258" y="198.899" width="6" height="1.10092" stroke="black" stroke-width="1" fill="blue" opacity="1" tooltip="enable"><title>(0.0584963,6)</title></rect><rect x="264" y="199.266" width="6" height="0.733945" stroke="black" stroke-width="1" fill="blue" opacity="1" tooltip="enable"><title>(0.0598567,4)</title></rect><rect x="270" y="197.064" width="6" height="2.93578" stroke="black" stroke-width="1" fill="blue" opacity="1" tooltip="enable"><title>(0.061217,16)</title></rect><rect x="276" y="198.532" width="6" height="1.46789" stroke="black" stroke-width="1" fill="blue" opacity="1" tooltip="enable"><title>(0.0625774,8)</title></rect><rect x="282" y="199.633" width="6" height="0.366972" stroke="black" stroke-width="1" fill="blue" opacity="1" tooltip="enable"><title>(0.0639378,2)</title></rect><rect x="288" y="199.083" width="6" height="0.917431" stroke="black" stroke-width="1" fill="blue" opacity="1" tooltip="enable"><title>(0.0652982,5)</title></rect><rect x="294" y="197.615" width="6" height="2.38532" stroke="black" stroke-width="1" fill="blue" opacity="1" tooltip="enable"><title>(0.0666586,13)</title></rect><rect x="300" y="199.266" width="6" height="0.733945" stroke="black" stroke-width="1" fill="blue" opacity="1" tooltip="enable"><title>(0.0680189,4)</title></rect><rect x="306" y="199.266" width="6" height="0.733945" stroke="black" stroke-width="1" fill="blue" opacity="1" tooltip="enable"><title>(0.0693793,4)</title></rect><rect x="312" y="198.165" width="6" height="1.83486" stroke="black" stroke-width="1" fill="blue" opacity="1" tooltip="enable"><title>(0.0707397,10)</title></rect><rect x="318" y="199.266" width="6" height="0.733945" stroke="black" stroke-width="1" fill="blue" opacity="1" tooltip="enable"><title>(0.0721001,4)</title></rect><rect x="324" y="199.633" width="6" height="0.366972" stroke="black" stroke-width="1" fill="blue" opacity="1" tooltip="enable"><title>(0.0734605,2)</title></rect><rect x="330" y="199.633" width="6" height="0.366972" stroke="black" stroke-width="1" fill="blue" opacity="1" tooltip="enable"><title>(0.0748208,2)</title></rect><rect x="336" y="199.633" width="6" height="0.366972" stroke="black" stroke-width="1" fill="blue" opacity="1" tooltip="enable"><title>(0.0761812,2)</title></rect><rect x="342" y="200" width="6" height="0" stroke="black" stroke-width="1" fill="blue" opacity="1" tooltip="enable"><title>(0.0775416,0)</title></rect><rect x="348" y="199.266" width="6" height="0.733945" stroke="black" stroke-width="1" fill="blue" opacity="1" tooltip="enable"><title>(0.078902,4)</title></rect><rect x="354" y="199.633" width="6" height="0.366972" stroke="black" stroke-width="1" fill="blue" opacity="1" tooltip="enable"><title>(0.0802623,2)</title></rect><rect x="360" y="199.266" width="6" height="0.733945" stroke="black" stroke-width="1" fill="blue" opacity="1" tooltip="enable"><title>(0.0816227,4)</title></rect><rect x="366" y="198.899" width="6" height="1.10092" stroke="black" stroke-width="1" fill="blue" opacity="1" tooltip="enable"><title>(0.0829831,6)</title></rect><rect x="372" y="199.45" width="6" height="0.550459" stroke="black" stroke-width="1" fill="blue" opacity="1" tooltip="enable"><title>(0.0843435,3)</title></rect><rect x="378" y="199.45" width="6" height="0.550459" stroke="black" stroke-width="1" fill="blue" opacity="1" tooltip="enable"><title>(0.0857039,3)</title></rect><rect x="384" y="199.633" width="6" height="0.366972" stroke="black" stroke-width="1" fill="blue" opacity="1" tooltip="enable"><title>(0.0870642,2)</title></rect><rect x="390" y="200" width="6" height="0" stroke="black" stroke-width="1" fill="blue" opacity="1" tooltip="enable"><title>(0.0884246,0)</title></rect><rect x="396" y="200" width="6" height="0" stroke="black" stroke-width="1" fill="blue" opacity="1" tooltip="enable"><title>(0.089785,0)</title></rect><rect x="402" y="199.633" width="6" height="0.366972" stroke="black" stroke-width="1" fill="blue" opacity="1" tooltip="enable"><title>(0.0911454,2)</title></rect><rect x="408" y="200" width="6" height="0" stroke="black" stroke-width="1" fill="blue" opacity="1" tooltip="enable"><title>(0.0925058,0)</title></rect><rect x="414" y="200" width="6" height="0" stroke="black" stroke-width="1" fill="blue" opacity="1" tooltip="enable"><title>(0.0938661,0)</title></rect><rect x="420" y="199.633" width="6" height="0.366972" stroke="black" stroke-width="1" fill="blue" opacity="1" tooltip="enable"><title>(0.0952265,2)</title></rect><rect x="426" y="200" width="6" height="0" stroke="black" stroke-width="1" fill="blue" opacity="1" tooltip="enable"><title>(0.0965869,0)</title></rect><rect x="432" y="199.633" width="6" height="0.366972" stroke="black" stroke-width="1" fill="blue" opacity="1" tooltip="enable"><title>(0.0979473,2)</title></rect><rect x="438" y="199.633" width="6" height="0.366972" stroke="black" stroke-width="1" fill="blue" opacity="1" tooltip="enable"><title>(0.0993077,2)</title></rect><rect x="444" y="200" width="6" height="0" stroke="black" stroke-width="1" fill="blue" opacity="1" tooltip="enable"><title>(0.100668,0)</title></rect><rect x="450" y="199.633" width="6" height="0.366972" stroke="black" stroke-width="1" fill="blue" opacity="1" tooltip="enable"><title>(0.102028,2)</title></rect><rect x="456" y="200" width="6" height="0" stroke="black" stroke-width="1" fill="blue" opacity="1" tooltip="enable"><title>(0.103389,0)</title></rect><rect x="462" y="200" width="6" height="0" stroke="black" stroke-width="1" fill="blue" opacity="1" tooltip="enable"><title>(0.104749,0)</title></rect><rect x="468" y="200" width="6" height="0" stroke="black" stroke-width="1" fill="blue" opacity="1" tooltip="enable"><title>(0.10611,0)</title></rect><rect x="474" y="200" width="6" height="0" stroke="black" stroke-width="1" fill="blue" opacity="1" tooltip="enable"><title>(0.10747,0)</title></rect><rect x="480" y="200" width="6" height="0" stroke="black" stroke-width="1" fill="blue" opacity="1" tooltip="enable"><title>(0.10883,0)</title></rect><rect x="486" y="200" width="6" height="0" stroke="black" stroke-width="1" fill="blue" opacity="1" tooltip="enable"><title>(0.110191,0)</title></rect><rect x="492" y="200" width="6" height="0" stroke="black" stroke-width="1" fill="blue" opacity="1" tooltip="enable"><title>(0.111551,0)</title></rect><rect x="498" y="200" width="6" height="0" stroke="black" stroke-width="1" fill="blue" opacity="1" tooltip="enable"><title>(0.112911,0)</title></rect><rect x="504" y="200" width="6" height="0" stroke="black" stroke-width="1" fill="blue" opacity="1" tooltip="enable"><title>(0.114272,0)</title></rect><rect x="510" y="200" width="6" height="0" stroke="black" stroke-width="1" fill="blue" opacity="1" tooltip="enable"><title>(0.115632,0)</title></rect><rect x="516" y="200" width="6" height="0" stroke="black" stroke-width="1" fill="blue" opacity="1" tooltip="enable"><title>(0.116993,0)</title></rect><rect x="522" y="200" width="6" height="0" stroke="black" stroke-width="1" fill="blue" opacity="1" tooltip="enable"><title>(0.118353,0)</title></rect><rect x="528" y="200" width="6" height="0" stroke="black" stroke-width="1" fill="blue" opacity="1" tooltip="enable"><title>(0.119713,0)</title></rect><rect x="534" y="200" width="6" height="0" stroke="black" stroke-width="1" fill="blue" opacity="1" tooltip="enable"><title>(0.121074,0)</title></rect><rect x="540" y="200" width="6" height="0" stroke="black" stroke-width="1" fill="blue" opacity="1" tooltip="enable"><title>(0.122434,0)</title></rect><rect x="546" y="200" width="6" height="0" stroke="black" stroke-width="1" fill="blue" opacity="1" tooltip="enable"><title>(0.123794,0)</title></rect><rect x="552" y="200" width="6" height="0" stroke="black" stroke-width="1" fill="blue" opacity="1" tooltip="enable"><title>(0.125155,0)</title></rect><rect x="558" y="200" width="6" height="0" stroke="black" stroke-width="1" fill="blue" opacity="1" tooltip="enable"><title>(0.126515,0)</title></rect><rect x="564" y="200" width="6" height="0" stroke="black" stroke-width="1" fill="blue" opacity="1" tooltip="enable"><title>(0.127876,0)</title></rect><rect x="570" y="200" width="6" height="0" stroke="black" stroke-width="1" fill="blue" opacity="1" tooltip="enable"><title>(0.129236,0)</title></rect><rect x="576" y="200" width="6" height="0" stroke="black" stroke-width="1" fill="blue" opacity="1" tooltip="enable"><title>(0.130596,0)</title></rect><rect x="582" y="200" width="6" height="0" stroke="black" stroke-width="1" fill="blue" opacity="1" tooltip="enable"><title>(0.131957,0)</title></rect><rect x="588" y="200" width="6" height="0" stroke="black" stroke-width="1" fill="blue" opacity="1" tooltip="enable"><title>(0.133317,0)</title></rect><rect x="594" y="199.817" width="6" height="0.183486" stroke="black" stroke-width="1" fill="blue" opacity="1" tooltip="enable"><title>(0.134678,1)</title></rect><text x="30" y="240" font-size="20" fill="black">0</text>
<text x="600" y="240" font-size="20" fill="black">0.136038</text>
<polyline points="0,220,600,220" stroke="black" stroke-width="1" fill="none" opacity="1"/>
<text x="720" y="20" font-size="20" fill="black">1090</text>
<text x="720" y="200" font-size="20" fill="black">0</text>
<polyline points="660,0,660,200" stroke="black" stroke-width="1" fill="none" opacity="1"/>
</svg>