<?xml version="1.0" standalone="yes"?>
<!-- SVG graphic -->
<svg xmlns='http://www.w3.org/2000/svg' xmlns:xlink='http://www.w3.org/1999/xlink'
 version="1.1">
<rect x="0" y="27.3944" width="6" height="172.606" stroke="black" stroke-width="1" fill="blue" opacity="1" tooltip="enable"><title>(0,838)</title></rect><rect x="6" y="0" width="6" height="200" stroke="black" stroke-width="1" fill="blue" opacity="1" tooltip="enable"><title>(0.00134436,971)</title></rect><rect x="12" y="15.242" width="6" height="184.758" stroke="black" stroke-width="1" fill="blue" opacity="1" tooltip="enable"><title>(0.00268872,897)</title></rect><rect x="18" y="66.1174" width="6" height="133.883" stroke="black" stroke-width="1" fill="blue" opacity="1" tooltip="enable"><title>(0.00403308,650)</title></rect><rect x="24" y="96.6014" width="6" height="103.399" stroke="black" stroke-width="1" fill="blue" opacity="1" tooltip="enable"><title>(0.00537744,502)</title></rect><rect x="30" y="114.109" width="6" height="85.8908" stroke="black" stroke-width="1" fill="blue" opacity="1" tooltip="enable"><title>(0.0067218,417)</title></rect><rect x="36" y="128.733" width="6" height="71.2667" stroke="black" stroke-width="1" fill="blue" opacity="1" tooltip="enable"><title>(0.00806616,346)</title></rect><rect x="42" y="128.115" width="6" height="71.8847" stroke="black" stroke-width="1" fill="blue" opacity="1" tooltip="enable"><title>(0.00941052,349)</title></rect><rect x="48" y="126.674" width="6" height="73.3265" stroke="black" stroke-width="1" fill="blue" opacity="1" tooltip="enable"><title>(0.0107549,356)</title></rect><rect x="54" y="141.916" width="6" height="58.0844" stroke="black" stroke-width="1" fill="blue" opacity="1" tooltip="enable"><title>(0.0120992,282)</title></rect><rect x="60" y="161.277" width="6" height="38.723" stroke="black" stroke-width="1" fill="blue" opacity="1" tooltip="enable"><title>(0.0134436,188)</title></rect><rect x="66" y="156.746" width="6" height="43.2544" stroke="black" stroke-width="1" fill="blue" opacity="1" tooltip="enable"><title>(0.014788,210)</title></rect><rect x="72" y="159.423" width="6" height="40.5767" stroke="black" stroke-width="1" fill="blue" opacity="1" tooltip="enable"><title>(0.0161323,197)</title></rect><rect x="78" y="164.573" width="6" height="35.4274" stroke="black" stroke-width="1" fill="blue" opacity="1" tooltip="enable"><title>(0.0174767,172)</title></rect><rect x="84" y="172.606" width="6" height="27.3944" stroke="black" stroke-width="1" fill="blue" opacity="1" tooltip="enable"><title>(0.018821,133)</title></rect><rect x="90" y="177.343" width="6" height="22.6571" stroke="black" stroke-width="1" fill="blue" opacity="1" tooltip="enable"><title>(0.0201654,110)</title></rect><rect x="96" y="177.961" width="6" height="22.0391" stroke="black" stroke-width="1" fill="blue" opacity="1" tooltip="enable"><title>(0.0215098,107)</title></rect><rect x="102" y="182.286" width="6" height="17.7137" stroke="black" stroke-width="1" fill="blue" opacity="1" tooltip="enable"><title>(0.0228541,86)</title></rect><rect x="108" y="185.788" width="6" height="14.2122" stroke="black" stroke-width="1" fill="blue" opacity="1" tooltip="enable"><title>(0.0241985,69)</title></rect><rect x="114" y="188.465" width="6" height="11.5345" stroke="black" stroke-width="1" fill="blue" opacity="1" tooltip="enable"><title>(0.0255428,56)</title></rect><rect x="120" y="185.17" width="6" height="14.8301" stroke="black" stroke-width="1" fill="blue" opacity="1" tooltip="enable"><title>(0.0268872,72)</title></rect><rect x="126" y="186.406" width="6" height="13.5942" stroke="black" stroke-width="1" fill="blue" opacity="1" tooltip="enable"><title>(0.0282316,66)</title></rect><rect x="132" y="190.525" width="6" height="9.47477" stroke="black" stroke-width="1" fill="blue" opacity="1" tooltip="enable"><title>(0.0295759,46)</title></rect><rect x="138" y="190.113" width="6" height="9.88671" stroke="black" stroke-width="1" fill="blue" opacity="1" tooltip="enable"><title>(0.0309203,48)</title></rect><rect x="144" y="191.761" width="6" height="8.23893" stroke="black" stroke-width="1" fill="blue" opacity="1" tooltip="enable"><title>(0.0322646,40)</title></rect><rect x="150" y="192.585" width="6" height="7.41504" stroke="black" stroke-width="1" fill="blue" opacity="1" tooltip="enable"><title>(0.033609,36)</title></rect><rect x="156" y="192.585" width="6" height="7.41504" stroke="black" stroke-width="1" fill="blue" opacity="1" tooltip="enable"><title>(0.0349534,36)</title></rect><rect x="162" y="190.113" width="6" height="9.88671" stroke="black" stroke-width="1" fill="blue" opacity="1" tooltip="enable"><title>(0.0362977,48)</title></rect><rect x="168" y="192.585" width="6" height="7.41504" stroke="black" stroke-width="1" fill="blue" opacity="1" tooltip="enable"><title>(0.0376421,36)</title></rect><rect x="174" y="192.173" width="6" height="7.82698" stroke="black" stroke-width="1" fill="blue" opacity="1" tooltip="enable"><title>(0.0389865,38)</title></rect><rect x="180" y="196.087" width="6" height="3.91349" stroke="black" stroke-width="1" fill="blue" opacity="1" tooltip="enable"><title>(0.0403308,19)</title></rect><rect x="186" y="191.555" width="6" height="8.4449" stroke="black" stroke-width="1" fill="blue" opacity="1" tooltip="enable"><title>(0.0416752,41)</title></rect><rect x="192" y="191.761" width="6" height="8.23893" stroke="black" stroke-width="1" fill="blue" opacity="1" tooltip="enable"><title>(0.0430195,40)</title></rect><rect x="198" y="192.585" width="6" height="7.41504" stroke="black" stroke-width="1" fill="blue" opacity="1" tooltip="enable"><title>(0.0443639,36)</title></rect><rect x="204" y="194.645" width="6" height="5.3553" stroke="black" stroke-width="1" fill="blue" opacity="1" tooltip="enable"><title>(0.0457083,26)</title></rect><rect x="210" y="195.057" width="6" height="4.94336" stroke="black" stroke-width="1" fill="blue" opacity="1" tooltip="enable"><title>(0.0470526,24)</title></rect><rect x="216" y="195.881" width="6" height="4.11946" stroke="black" stroke-width="1" fill="blue" opacity="1" tooltip="enable"><title>(0.048397,20)</title></rect><rect x="222" y="192.997" width="6" height="7.00309" stroke="black" stroke-width="1" fill="blue" opacity="1" tooltip="enable"><title>(0.0497413,34)</title></rect><rect x="228" y="195.057" width="6" height="4.94336" stroke="black" stroke-width="1" fill="blue" opacity="1" tooltip="enable"><title>(0.0510857,24)</title></rect><rect x="234" y="195.057" width="6" height="4.94336" stroke="black" stroke-width="1" fill="blue" opacity="1" tooltip="enable"><title>(0.0524301,24)</title></rect><rect x="240" y="194.645" width="6" height="5.3553" stroke="black" stroke-width="1" fill="blue" opacity="1" tooltip="enable"><title>(0.0537744,26)</title></rect><rect x="246" y="197.94" width="6" height="2.05973" stroke="black" stroke-width="1" fill="blue" opacity="1" tooltip="enable"><title>(0.0551188,10)</title></rect><rect x="252" y="197.116" width="6" height="2.88363" stroke="black" stroke-width="1" fill="blue" opacity="1" tooltip="enable"><title>(0.0564631,14)</title></rect><rect x="258" y="198.352" width="6" height="1.64779" stroke="black" stroke-width="1" fill="blue" opacity="1" tooltip="enable"><title>(0.0578075,8)</title></rect><rect x="264" y="194.233" width="6" height="5.76725" stroke="black" stroke-width="1" fill="blue" opacity="1" tooltip="enable"><title>(0.0591519,28)</title></rect><rect x="270" y="198.764" width="6" height="1.23584" stroke="black" stroke-width="1" fill="blue" opacity="1" tooltip="enable"><title>(0.0604962,6)</title></rect><rect x="276" y="197.116" width="6" height="2.88363" stroke="black" stroke-width="1" fill="blue" opacity="1" tooltip="enable"><title>(0.0618406,14)</title></rect><rect x="282" y="197.528" width="6" height="2.47168" stroke="black" stroke-width="1" fill="blue" opacity="1" tooltip="enable"><title>(0.0631849,12)</title></rect><rect x="288" y="198.352" width="6" height="1.64779" stroke="black" stroke-width="1" fill="blue" opacity="1" tooltip="enable"><title>(0.0645293,8)</title></rect><rect x="294" y="196.704" width="6" height="3.29557" stroke="black" stroke-width="1" fill="blue" opacity="1" tooltip="enable"><title>(0.0658737,16)</title></rect><rect x="300" y="197.116" width="6" height="2.88363" stroke="black" stroke-width="1" fill="blue" opacity="1" tooltip="enable"><title>(0.067218,14)</title></rect><rect x="306" y="198.97" width="6" height="1.02987" stroke="black" stroke-width="1" fill="blue" opacity="1" tooltip="enable"><title>(0.0685624,5)</title></rect><rect x="312" y="197.322" width="6" height="2.67765" stroke="black" stroke-width="1" fill="blue" opacity="1" tooltip="enable"><title>(0.0699067,13)</title></rect><rect x="318" y="198.352" width="6" height="1.64779" stroke="black" stroke-width="1" fill="blue" opacity="1" tooltip="enable"><title>(0.0712511,8)</title></rect><rect x="324" y="196.292" width="6" height="3.70752" stroke="black" stroke-width="1" fill="blue" opacity="1" tooltip="enable"><title>(0.0725955,18)</title></rect><rect x="330" y="198.352" width="6" height="1.64779" stroke="black" stroke-width="1" fill="blue" opacity="1" tooltip="enable"><title>(0.0739398,8)</title></rect><rect x="336" y="197.116" width="6" height="2.88363" stroke="black" stroke-width="1" fill="blue" opacity="1" tooltip="enable"><title>(0.0752842,14)</title></rect><rect x="342" y="198.352" width="6" height="1.64779" stroke="black" stroke-width="1" fill="blue" opacity="1" tooltip="enable"><title>(0.0766285,8)</title></rect><rect x="348" y="197.94" width="6" height="2.05973" stroke="black" stroke-width="1" fill="blue" opacity="1" tooltip="enable"><title>(0.0779729,10)</title></rect><rect x="354" y="198.352" width="6" height="1.64779" stroke="black" stroke-width="1" fill="blue" opacity="1" tooltip="enable"><title>(0.0793173,8)</title></rect><rect x="360" y="200" width="6" height="0" stroke="black" stroke-width="1" fill="blue" opacity="1" tooltip="enable"><title>(0.0806616,0)</title></rect><rect x="366" y="199.176" width="6" height="0.823893" stroke="black" stroke-width="1" fill="blue" opacity="1" tooltip="enable"><title>(0.082006,4)</title></rect><rect x="372" y="199.176" width="6" height="0.823893" stroke="black" stroke-width="1" fill="blue" opacity="1" tooltip="enable"><title>(0.0833503,4)</title></rect><rect x="378" y="198.764" width="6" height="1.23584" stroke="black" stroke-width="1" fill="blue" opacity="1" tooltip="enable"><title>(0.0846947,6)</title></rect><rect x="384" y="199.176" width="6" height="0.823893" stroke="black" stroke-width="1" fill="blue" opacity="1" tooltip="enable"><title>(0.0860391,4)</title></rect><rect x="390" y="200" width="6" height="0" stroke="black" stroke-width="1" fill="blue" opacity="1" tooltip="enable"><title>(0.0873834,0)</title></rect><rect x="396" y="200" width="6" height="0" stroke="black" stroke-width="1" fill="blue" opacity="1" tooltip="enable"><title>(0.0887278,0)</title></rect><rect x="402" y="199.588" width="6" height="0.411946" stroke="black" stroke-width="1" fill="blue" opacity="1" tooltip="enable"><title>(0.0900721,2)</title></rect><rect x="408" y="200" width="6" height="0" stroke="black" stroke-width="1" fill="blue" opacity="1" tooltip="enable"><title>(0.0914165,0)</title></rect><rect x="414" y="199.176" width="6" height="0.823893" stroke="black" stroke-width="1" fill="blue" opacity="1" tooltip="enable"><title>(0.0927609,4)</title></rect><rect x="420" y="199.588" width="6" height="0.411946" stroke="black" stroke-width="1" fill="blue" opacity="1" tooltip="enable"><title>(0.0941052,2)</title></rect><rect x="426" y="200" width="6" height="0" stroke="black" stroke-width="1" fill="blue" opacity="1" tooltip="enable"><title>(0.0954496,0)</title></rect><rect x="432" y="198.764" width="6" height="1.23584" stroke="black" stroke-width="1" fill="blue" opacity="1" tooltip="enable"><title>(0.096794,6)</title></rect><rect x="438" y="199.588" width="6" height="0.411946" stroke="black" stroke-width="1" fill="blue" opacity="1" tooltip="enable"><title>(0.0981383,2)</title></rect><rect x="444" y="199.588" width="6" height="0.411946" stroke="black" stroke-width="1" fill="blue" opacity="1" tooltip="enable"><title>(0.0994827,2)</title></rect><rect x="450" y="199.588" width="6" height="0.411946" stroke="black" stroke-width="1" fill="blue" opacity="1" tooltip="enable"><title>(0.100827,2)</title></rect><rect x="456" y="200" width="6" height="0" stroke="black" stroke-width="1" fill="blue" opacity="1" tooltip="enable"><title>(0.102171,0)</title></rect><rect x="462" y="200" width="6" height="0" stroke="black" stroke-width="1" fill="blue" opacity="1" tooltip="enable"><title>(0.103516,0)</title></rect><rect x="468" y="200" width="6" height="0" stroke="black" stroke-width="1" fill="blue" opacity="1" tooltip="enable"><title>(0.10486,0)</title></rect><rect x="474" y="200" width="6" height="0" stroke="black" stroke-width="1" fill="blue" opacity="1" tooltip="enable"><title>(0.106204,0)</title></rect><rect x="480" y="200" width="6" height="0" stroke="black" stroke-width="1" fill="blue" opacity="1" tooltip="enable"><title>(0.107549,0)</title></rect><rect x="486" y="200" width="6" height="0" stroke="black" stroke-width="1" fill="blue" opacity="1" tooltip="enable"><title>(0.108893,0)</title></rect><rect x="492" y="199.588" width="6" height="0.411946" stroke="black" stroke-width="1" fill="blue" opacity="1" tooltip="enable"><title>(0.110238,2)</title></rect><rect x="498" y="200" width="6" height="0" stroke="black" stroke-width="1" fill="blue" opacity="1" tooltip="enable"><title>(0.111582,0)</title></rect><rect x="504" y="200" width="6" height="0" stroke="black" stroke-width="1" fill="blue" opacity="1" tooltip="enable"><title>(0.112926,0)</title></rect><rect x="510" y="199.588" width="6" height="0.411946" stroke="black" stroke-width="1" fill="blue" opacity="1" tooltip="enable"><title>(0.114271,2)</title></rect><rect x="516" y="199.176" width="6" height="0.823893" stroke="black" stroke-width="1" fill="blue" opacity="1" tooltip="enable"><title>(0.115615,4)</title></rect><rect x="522" y="200" width="6" height="0" stroke="black" stroke-width="1" fill="blue" opacity="1" tooltip="enable"><title>(0.116959,0)</title></rect><rect x="528" y="200" width="6" height="0" stroke="black" stroke-width="1" fill="blue" opacity="1" tooltip="enable"><title>(0.118304,0)</title></rect><rect x="534" y="199.588" width="6" height="0.411946" stroke="black" stroke-width="1" fill="blue" opacity="1" tooltip="enable"><title>(0.119648,2)</title></rect><rect x="540" y="200" width="6" height="0" stroke="black" stroke-width="1" fill="blue" opacity="1" tooltip="enable"><title>(0.120992,0)</title></rect><rect x="546" y="199.176" width="6" height="0.823893" stroke="black" stroke-width="1" fill="blue" opacity="1" tooltip="enable"><title>(0.122337,4)</title></rect><rect x="552" y="200" width="6" height="0" stroke="black" stroke-width="1" fill="blue" opacity="1" tooltip="enable"><title>(0.123681,0)</title></rect><rect x="558" y="199.588" width="6" height="0.411946" stroke="black" stroke-width="1" fill="blue" opacity="1" tooltip="enable"><title>(0.125026,2)</title></rect><rect x="564" y="200" width="6" height="0" stroke="black" stroke-width="1" fill="blue" opacity="1" tooltip="enable"><title>(0.12637,0)</title></rect><rect x="570" y="200" width="6" height="0" stroke="black" stroke-width="1" fill="blue" opacity="1" tooltip="enable"><title>(0.127714,0)</title></rect><rect x="576" y="200" width="6" height="0" stroke="black" stroke-width="1" fill="blue" opacity="1" tooltip="enable"><title>(0.129059,0)</title></rect><rect x="582" y="199.588" width="6" height="0.411946" stroke="black" stroke-width="1" fill="blue" opacity="1" tooltip="enable"><title>(0.130403,2)</title></rect><rect x="588" y="199.176" width="6" height="0.823893" stroke="black" stroke-width="1" fill="blue" opacity="1" tooltip="enable"><title>(0.131747,4)</title></rect><rect x="594" y="199.794" width="6" height="0.205973" stroke="black" stroke-width="1" fill="blue" opacity="1" tooltip="enable"><title>(0.133092,1)</title></rect><text x="30" y="240" font-size="20" fill="black">0</text>
<text x="600" y="240" font-size="20" fill="black">0.134436</text>
<polyline points="0,220,600,220" stroke="black" stroke-width="1" fill="none" opacity="1"/>
<text x="720" y="20" font-size="20" fill="black">971</text>
<text x="720" y="200" font-size="20" fill="black">0</text>
<polyline points="660,0,660,200" stroke="black" stroke-width="1" fill="none" opacity="1"/>
</svg>