<?xml version="1.0" standalone="yes"?>
<!-- SVG graphic -->
<svg xmlns='http://www.w3.org/2000/svg' xmlns:xlink='http://www.w3.org/1999/xlink'
 version="1.1">
<rect x="0" y="0" width="6" height="200" stroke="black" stroke-width="1" fill="blue" opacity="1" tooltip="enable"><title>(0,4006)</title></rect><rect x="6" y="180.13" width="6" height="19.8702" stroke="black" stroke-width="1" fill="blue" opacity="1" tooltip="enable"><title>(0.00147302,398)</title></rect><rect x="12" y="189.715" width="6" height="10.2846" stroke="black" stroke-width="1" fill="blue" opacity="1" tooltip="enable"><title>(0.00294604,206)</title></rect><rect x="18" y="191.263" width="6" height="8.73689" stroke="black" stroke-width="1" fill="blue" opacity="1" tooltip="enable"><title>(0.00441907,175)</title></rect><rect x="24" y="191.962" width="6" height="8.03794" stroke="black" stroke-width="1" fill="blue" opacity="1" tooltip="enable"><title>(0.00589209,161)</title></rect><rect x="30" y="190.315" width="6" height="9.68547" stroke="black" stroke-width="1" fill="blue" opacity="1" tooltip="enable"><title>(0.00736511,194)</title></rect><rect x="36" y="191.513" width="6" height="8.48727" stroke="black" stroke-width="1" fill="blue" opacity="1" tooltip="enable"><title>(0.00883813,170)</title></rect><rect x="42" y="193.51" width="6" height="6.49026" stroke="black" stroke-width="1" fill="blue" opacity="1" tooltip="enable"><title>(0.0103112,130)</title></rect><rect x="48" y="193.46" width="6" height="6.54019" stroke="black" stroke-width="1" fill="blue" opacity="1" tooltip="enable"><title>(0.0117842,131)</title></rect><rect x="54" y="190.864" width="6" height="9.1363" stroke="black" stroke-width="1" fill="blue" opacity="1" tooltip="enable"><title>(0.0132572,183)</title></rect><rect x="60" y="192.461" width="6" height="7.53869" stroke="black" stroke-width="1" fill="blue" opacity="1" tooltip="enable"><title>(0.0147302,151)</title></rect><rect x="66" y="191.862" width="6" height="8.13779" stroke="black" stroke-width="1" fill="blue" opacity="1" tooltip="enable"><title>(0.0162032,163)</title></rect><rect x="72" y="193.709" width="6" height="6.29056" stroke="black" stroke-width="1" fill="blue" opacity="1" tooltip="enable"><title>(0.0176763,126)</title></rect><rect x="78" y="194.408" width="6" height="5.59161" stroke="black" stroke-width="1" fill="blue" opacity="1" tooltip="enable"><title>(0.0191493,112)</title></rect><rect x="84" y="193.56" width="6" height="6.44034" stroke="black" stroke-width="1" fill="blue" opacity="1" tooltip="enable"><title>(0.0206223,129)</title></rect><rect x="90" y="193.11" width="6" height="6.88967" stroke="black" stroke-width="1" fill="blue" opacity="1" tooltip="enable"><title>(0.0220953,138)</title></rect><rect x="96" y="194.259" width="6" height="5.74139" stroke="black" stroke-width="1" fill="blue" opacity="1" tooltip="enable"><title>(0.0235683,115)</title></rect><rect x="102" y="195.157" width="6" height="4.84274" stroke="black" stroke-width="1" fill="blue" opacity="1" tooltip="enable"><title>(0.0250414,97)</title></rect><rect x="108" y="195.157" width="6" height="4.84274" stroke="black" stroke-width="1" fill="blue" opacity="1" tooltip="enable"><title>(0.0265144,97)</title></rect><rect x="114" y="196.106" width="6" height="3.89416" stroke="black" stroke-width="1" fill="blue" opacity="1" tooltip="enable"><title>(0.0279874,78)</title></rect><rect x="120" y="195.407" width="6" height="4.59311" stroke="black" stroke-width="1" fill="blue" opacity="1" tooltip="enable"><title>(0.0294604,92)</title></rect><rect x="126" y="194.758" width="6" height="5.24214" stroke="black" stroke-width="1" fill="blue" opacity="1" tooltip="enable"><title>(0.0309335,105)</title></rect><rect x="132" y="196.955" width="6" height="3.04543" stroke="black" stroke-width="1" fill="blue" opacity="1" tooltip="enable"><title>(0.0324065,61)</title></rect><rect x="138" y="196.006" width="6" height="3.99401" stroke="black" stroke-width="1" fill="blue" opacity="1" tooltip="enable"><title>(0.0338795,80)</title></rect><rect x="144" y="197.204" width="6" height="2.79581" stroke="black" stroke-width="1" fill="blue" opacity="1" tooltip="enable"><title>(0.0353525,56)</title></rect><rect x="150" y="197.104" width="6" height="2.89566" stroke="black" stroke-width="1" fill="blue" opacity="1" tooltip="enable"><title>(0.0368255,58)</title></rect><rect x="156" y="197.803" width="6" height="2.1967" stroke="black" stroke-width="1" fill="blue" opacity="1" tooltip="enable"><title>(0.0382986,44)</title></rect><rect x="162" y="198.602" width="6" height="1.3979" stroke="black" stroke-width="1" fill="blue" opacity="1" tooltip="enable"><title>(0.0397716,28)</title></rect><rect x="168" y="198.752" width="6" height="1.24813" stroke="black" stroke-width="1" fill="blue" opacity="1" tooltip="enable"><title>(0.0412446,25)</title></rect><rect x="174" y="198.053" width="6" height="1.94708" stroke="black" stroke-width="1" fill="blue" opacity="1" tooltip="enable"><title>(0.0427176,39)</title></rect><rect x="180" y="198.352" width="6" height="1.64753" stroke="black" stroke-width="1" fill="blue" opacity="1" tooltip="enable"><title>(0.0441907,33)</title></rect><rect x="186" y="199.051" width="6" height="0.948577" stroke="black" stroke-width="1" fill="blue" opacity="1" tooltip="enable"><title>(0.0456637,19)</title></rect><rect x="192" y="199.201" width="6" height="0.798802" stroke="black" stroke-width="1" fill="blue" opacity="1" tooltip="enable"><title>(0.0471367,16)</title></rect><rect x="198" y="199.201" width="6" height="0.798802" stroke="black" stroke-width="1" fill="blue" opacity="1" tooltip="enable"><title>(0.0486097,16)</title></rect><rect x="204" y="199.101" width="6" height="0.898652" stroke="black" stroke-width="1" fill="blue" opacity="1" tooltip="enable"><title>(0.0500827,18)</title></rect><rect x="210" y="199.301" width="6" height="0.698952" stroke="black" stroke-width="1" fill="blue" opacity="1" tooltip="enable"><title>(0.0515558,14)</title></rect><rect x="216" y="198.602" width="6" height="1.3979" stroke="black" stroke-width="1" fill="blue" opacity="1" tooltip="enable"><title>(0.0530288,28)</title></rect><rect x="222" y="198.303" width="6" height="1.69745" stroke="black" stroke-width="1" fill="blue" opacity="1" tooltip="enable"><title>(0.0545018,34)</title></rect><rect x="228" y="199.451" width="6" height="0.549176" stroke="black" stroke-width="1" fill="blue" opacity="1" tooltip="enable"><title>(0.0559748,11)</title></rect><rect x="234" y="199.351" width="6" height="0.649026" stroke="black" stroke-width="1" fill="blue" opacity="1" tooltip="enable"><title>(0.0574478,13)</title></rect><rect x="240" y="199.301" width="6" height="0.698952" stroke="black" stroke-width="1" fill="blue" opacity="1" tooltip="enable"><title>(0.0589209,14)</title></rect><rect x="246" y="199.201" width="6" height="0.798802" stroke="black" stroke-width="1" fill="blue" opacity="1" tooltip="enable"><title>(0.0603939,16)</title></rect><rect x="252" y="198.802" width="6" height="1.1982" stroke="black" stroke-width="1" fill="blue" opacity="1" tooltip="enable"><title>(0.0618669,24)</title></rect><rect x="258" y="199.501" width="6" height="0.499251" stroke="black" stroke-width="1" fill="blue" opacity="1" tooltip="enable"><title>(0.0633399,10)</title></rect><rect x="264" y="199.301" width="6" height="0.698952" stroke="black" stroke-width="1" fill="blue" opacity="1" tooltip="enable"><title>(0.064813,14)</title></rect><rect x="270" y="199.451" width="6" height="0.549176" stroke="black" stroke-width="1" fill="blue" opacity="1" tooltip="enable"><title>(0.066286,11)</title></rect><rect x="276" y="199.151" width="6" height="0.848727" stroke="black" stroke-width="1" fill="blue" opacity="1" tooltip="enable"><title>(0.067759,17)</title></rect><rect x="282" y="199.401" width="6" height="0.599101" stroke="black" stroke-width="1" fill="blue" opacity="1" tooltip="enable"><title>(0.069232,12)</title></rect><rect x="288" y="199.201" width="6" height="0.798802" stroke="black" stroke-width="1" fill="blue" opacity="1" tooltip="enable"><title>(0.070705,16)</title></rect><rect x="294" y="200" width="6" height="0" stroke="black" stroke-width="1" fill="blue" opacity="1" tooltip="enable"><title>(0.0721781,0)</title></rect><rect x="300" y="199.7" width="6" height="0.299551" stroke="black" stroke-width="1" fill="blue" opacity="1" tooltip="enable"><title>(0.0736511,6)</title></rect><rect x="306" y="199.401" width="6" height="0.599101" stroke="black" stroke-width="1" fill="blue" opacity="1" tooltip="enable"><title>(0.0751241,12)</title></rect><rect x="312" y="199.601" width="6" height="0.399401" stroke="black" stroke-width="1" fill="blue" opacity="1" tooltip="enable"><title>(0.0765971,8)</title></rect><rect x="318" y="199.7" width="6" height="0.299551" stroke="black" stroke-width="1" fill="blue" opacity="1" tooltip="enable"><title>(0.0780701,6)</title></rect><rect x="324" y="199.601" width="6" height="0.399401" stroke="black" stroke-width="1" fill="blue" opacity="1" tooltip="enable"><title>(0.0795432,8)</title></rect><rect x="330" y="199.601" width="6" height="0.399401" stroke="black" stroke-width="1" fill="blue" opacity="1" tooltip="enable"><title>(0.0810162,8)</title></rect><rect x="336" y="199.601" width="6" height="0.399401" stroke="black" stroke-width="1" fill="blue" opacity="1" tooltip="enable"><title>(0.0824892,8)</title></rect><rect x="342" y="199.7" width="6" height="0.299551" stroke="black" stroke-width="1" fill="blue" opacity="1" tooltip="enable"><title>(0.0839622,6)</title></rect><rect x="348" y="199.8" width="6" height="0.1997" stroke="black" stroke-width="1" fill="blue" opacity="1" tooltip="enable"><title>(0.0854353,4)</title></rect><rect x="354" y="200" width="6" height="0" stroke="black" stroke-width="1" fill="blue" opacity="1" tooltip="enable"><title>(0.0869083,0)</title></rect><rect x="360" y="200" width="6" height="0" stroke="black" stroke-width="1" fill="blue" opacity="1" tooltip="enable"><title>(0.0883813,0)</title></rect><rect x="366" y="200" width="6" height="0" stroke="black" stroke-width="1" fill="blue" opacity="1" tooltip="enable"><title>(0.0898543,0)</title></rect><rect x="372" y="199.9" width="6" height="0.0998502" stroke="black" stroke-width="1" fill="blue" opacity="1" tooltip="enable"><title>(0.0913273,2)</title></rect><rect x="378" y="200" width="6" height="0" stroke="black" stroke-width="1" fill="blue" opacity="1" tooltip="enable"><title>(0.0928004,0)</title></rect><rect x="384" y="199.9" width="6" height="0.0998502" stroke="black" stroke-width="1" fill="blue" opacity="1" tooltip="enable"><title>(0.0942734,2)</title></rect><rect x="390" y="200" width="6" height="0" stroke="black" stroke-width="1" fill="blue" opacity="1" tooltip="enable"><title>(0.0957464,0)</title></rect><rect x="396" y="199.9" width="6" height="0.0998502" stroke="black" stroke-width="1" fill="blue" opacity="1" tooltip="enable"><title>(0.0972194,2)</title></rect><rect x="402" y="199.9" width="6" height="0.0998502" stroke="black" stroke-width="1" fill="blue" opacity="1" tooltip="enable"><title>(0.0986925,2)</title></rect><rect x="408" y="199.9" width="6" height="0.0998502" stroke="black" stroke-width="1" fill="blue" opacity="1" tooltip="enable"><title>(0.100165,2)</title></rect><rect x="414" y="199.8" width="6" height="0.1997" stroke="black" stroke-width="1" fill="blue" opacity="1" tooltip="enable"><title>(0.101638,4)</title></rect><rect x="420" y="200" width="6" height="0" stroke="black" stroke-width="1" fill="blue" opacity="1" tooltip="enable"><title>(0.103112,0)</title></rect><rect x="426" y="199.9" width="6" height="0.0998502" stroke="black" stroke-width="1" fill="blue" opacity="1" tooltip="enable"><title>(0.104585,2)</title></rect><rect x="432" y="200" width="6" height="0" stroke="black" stroke-width="1" fill="blue" opacity="1" tooltip="enable"><title>(0.106058,0)</title></rect><rect x="438" y="199.9" width="6" height="0.0998502" stroke="black" stroke-width="1" fill="blue" opacity="1" tooltip="enable"><title>(0.107531,2)</title></rect><rect x="444" y="200" width="6" height="0" stroke="black" stroke-width="1" fill="blue" opacity="1" tooltip="enable"><title>(0.109004,0)</title></rect><rect x="450" y="200" width="6" height="0" stroke="black" stroke-width="1" fill="blue" opacity="1" tooltip="enable"><title>(0.110477,0)</title></rect><rect x="456" y="199.95" width="6" height="0.0499251" stroke="black" stroke-width="1" fill="blue" opacity="1" tooltip="enable"><title>(0.11195,1)</title></rect><rect x="462" y="199.95" width="6" height="0.0499251" stroke="black" stroke-width="1" fill="blue" opacity="1" tooltip="enable"><title>(0.113423,1)</title></rect><rect x="468" y="199.8" width="6" height="0.1997" stroke="black" stroke-width="1" fill="blue" opacity="1" tooltip="enable"><title>(0.114896,4)</title></rect><rect x="474" y="199.9" width="6" height="0.0998502" stroke="black" stroke-width="1" fill="blue" opacity="1" tooltip="enable"><title>(0.116369,2)</title></rect><rect x="480" y="200" width="6" height="0" stroke="black" stroke-width="1" fill="blue" opacity="1" tooltip="enable"><title>(0.117842,0)</title></rect><rect x="486" y="200" width="6" height="0" stroke="black" stroke-width="1" fill="blue" opacity="1" tooltip="enable"><title>(0.119315,0)</title></rect><rect x="492" y="200" width="6" height="0" stroke="black" stroke-width="1" fill="blue" opacity="1" tooltip="enable"><title>(0.120788,0)</title></rect><rect x="498" y="199.9" width="6" height="0.0998502" stroke="black" stroke-width="1" fill="blue" opacity="1" tooltip="enable"><title>(0.122261,2)</title></rect><rect x="504" y="200" width="6" height="0" stroke="black" stroke-width="1" fill="blue" opacity="1" tooltip="enable"><title>(0.123734,0)</title></rect><rect x="510" y="200" width="6" height="0" stroke="black" stroke-width="1" fill="blue" opacity="1" tooltip="enable"><title>(0.125207,0)</title></rect><rect x="516" y="200" width="6" height="0" stroke="black" stroke-width="1" fill="blue" opacity="1" tooltip="enable"><title>(0.12668,0)</title></rect><rect x="522" y="199.9" width="6" height="0.0998502" stroke="black" stroke-width="1" fill="blue" opacity="1" tooltip="enable"><title>(0.128153,2)</title></rect><rect x="528" y="199.95" width="6" height="0.0499251" stroke="black" stroke-width="1" fill="blue" opacity="1" tooltip="enable"><title>(0.129626,1)</title></rect><rect x="534" y="199.8" width="6" height="0.1997" stroke="black" stroke-width="1" fill="blue" opacity="1" tooltip="enable"><title>(0.131099,4)</title></rect><rect x="540" y="199.85" width="6" height="0.149775" stroke="black" stroke-width="1" fill="blue" opacity="1" tooltip="enable"><title>(0.132572,3)</title></rect><rect x="546" y="200" width="6" height="0" stroke="black" stroke-width="1" fill="blue" opacity="1" tooltip="enable"><title>(0.134045,0)</title></rect><rect x="552" y="199.9" width="6" height="0.0998502" stroke="black" stroke-width="1" fill="blue" opacity="1" tooltip="enable"><title>(0.135518,2)</title></rect><rect x="558" y="199.9" width="6" height="0.0998502" stroke="black" stroke-width="1" fill="blue" opacity="1" tooltip="enable"><title>(0.136991,2)</title></rect><rect x="564" y="199.9" width="6" height="0.0998502" stroke="black" stroke-width="1" fill="blue" opacity="1" tooltip="enable"><title>(0.138464,2)</title></rect><rect x="570" y="200" width="6" height="0" stroke="black" stroke-width="1" fill="blue" opacity="1" tooltip="enable"><title>(0.139937,0)</title></rect><rect x="576" y="200" width="6" height="0" stroke="black" stroke-width="1" fill="blue" opacity="1" tooltip="enable"><title>(0.14141,0)</title></rect><rect x="582" y="199.9" width="6" height="0.0998502" stroke="black" stroke-width="1" fill="blue" opacity="1" tooltip="enable"><title>(0.142883,2)</title></rect><rect x="588" y="199.9" width="6" height="0.0998502" stroke="black" stroke-width="1" fill="blue" opacity="1" tooltip="enable"><title>(0.144356,2)</title></rect><rect x="594" y="199.95" width="6" height="0.0499251" stroke="black" stroke-width="1" fill="blue" opacity="1" tooltip="enable"><title>(0.145829,1)</title></rect><text x="30" y="240" font-size="20" fill="black">0</text>
<text x="600" y="240" font-size="20" fill="black">0.147302</text>
<polyline points="0,220,600,220" stroke="black" stroke-width="1" fill="none" opacity="1"/>
<text x="720" y="20" font-size="20" fill="black">4006</text>
<text x="720" y="200" font-size="20" fill="black">0</text>
<polyline points="660,0,660,200" stroke="black" stroke-width="1" fill="none" opacity="1"/>
</svg>