<?xml version="1.0" standalone="yes"?>
<!-- SVG graphic -->
<svg xmlns='http://www.w3.org/2000/svg' xmlns:xlink='http://www.w3.org/1999/xlink'
 version="1.1">
<rect x="0" y="0" width="6" height="200" stroke="black" stroke-width="1" fill="blue" opacity="1" tooltip="enable"><title>(0,1663)</title></rect><rect x="6" y="61.3349" width="6" height="138.665" stroke="black" stroke-width="1" fill="blue" opacity="1" tooltip="enable"><title>(0.00115674,1153)</title></rect><rect x="12" y="109.802" width="6" height="90.1984" stroke="black" stroke-width="1" fill="blue" opacity="1" tooltip="enable"><title>(0.00231348,750)</title></rect><rect x="18" y="129.405" width="6" height="70.5953" stroke="black" stroke-width="1" fill="blue" opacity="1" tooltip="enable"><title>(0.00347022,587)</title></rect><rect x="24" y="150.692" width="6" height="49.3085" stroke="black" stroke-width="1" fill="blue" opacity="1" tooltip="enable"><title>(0.00462696,410)</title></rect><rect x="30" y="154.901" width="6" height="45.0992" stroke="black" stroke-width="1" fill="blue" opacity="1" tooltip="enable"><title>(0.00578371,375)</title></rect><rect x="36" y="157.787" width="6" height="42.2129" stroke="black" stroke-width="1" fill="blue" opacity="1" tooltip="enable"><title>(0.00694045,351)</title></rect><rect x="42" y="169.934" width="6" height="30.0661" stroke="black" stroke-width="1" fill="blue" opacity="1" tooltip="enable"><title>(0.00809719,250)</title></rect><rect x="48" y="172.58" width="6" height="27.4203" stroke="black" stroke-width="1" fill="blue" opacity="1" tooltip="enable"><title>(0.00925393,228)</title></rect><rect x="54" y="177.751" width="6" height="22.2489" stroke="black" stroke-width="1" fill="blue" opacity="1" tooltip="enable"><title>(0.0104107,185)</title></rect><rect x="60" y="180.758" width="6" height="19.2423" stroke="black" stroke-width="1" fill="blue" opacity="1" tooltip="enable"><title>(0.0115674,160)</title></rect><rect x="66" y="182.922" width="6" height="17.0776" stroke="black" stroke-width="1" fill="blue" opacity="1" tooltip="enable"><title>(0.0127242,142)</title></rect><rect x="72" y="186.53" width="6" height="13.4696" stroke="black" stroke-width="1" fill="blue" opacity="1" tooltip="enable"><title>(0.0138809,112)</title></rect><rect x="78" y="189.176" width="6" height="10.8238" stroke="black" stroke-width="1" fill="blue" opacity="1" tooltip="enable"><title>(0.0150376,90)</title></rect><rect x="84" y="187.252" width="6" height="12.748" stroke="black" stroke-width="1" fill="blue" opacity="1" tooltip="enable"><title>(0.0161944,106)</title></rect><rect x="90" y="187.372" width="6" height="12.6278" stroke="black" stroke-width="1" fill="blue" opacity="1" tooltip="enable"><title>(0.0173511,105)</title></rect><rect x="96" y="191.702" width="6" height="8.29826" stroke="black" stroke-width="1" fill="blue" opacity="1" tooltip="enable"><title>(0.0185079,69)</title></rect><rect x="102" y="193.626" width="6" height="6.37402" stroke="black" stroke-width="1" fill="blue" opacity="1" tooltip="enable"><title>(0.0196646,53)</title></rect><rect x="108" y="191.942" width="6" height="8.05773" stroke="black" stroke-width="1" fill="blue" opacity="1" tooltip="enable"><title>(0.0208213,67)</title></rect><rect x="114" y="194.949" width="6" height="5.05111" stroke="black" stroke-width="1" fill="blue" opacity="1" tooltip="enable"><title>(0.0219781,42)</title></rect><rect x="120" y="193.987" width="6" height="6.01323" stroke="black" stroke-width="1" fill="blue" opacity="1" tooltip="enable"><title>(0.0231348,50)</title></rect><rect x="126" y="193.025" width="6" height="6.97535" stroke="black" stroke-width="1" fill="blue" opacity="1" tooltip="enable"><title>(0.0242916,58)</title></rect><rect x="132" y="194.468" width="6" height="5.53217" stroke="black" stroke-width="1" fill="blue" opacity="1" tooltip="enable"><title>(0.0254483,46)</title></rect><rect x="138" y="190.259" width="6" height="9.74143" stroke="black" stroke-width="1" fill="blue" opacity="1" tooltip="enable"><title>(0.026605,81)</title></rect><rect x="144" y="191.942" width="6" height="8.05773" stroke="black" stroke-width="1" fill="blue" opacity="1" tooltip="enable"><title>(0.0277618,67)</title></rect><rect x="150" y="196.272" width="6" height="3.7282" stroke="black" stroke-width="1" fill="blue" opacity="1" tooltip="enable"><title>(0.0289185,31)</title></rect><rect x="156" y="194.829" width="6" height="5.17138" stroke="black" stroke-width="1" fill="blue" opacity="1" tooltip="enable"><title>(0.0300753,43)</title></rect><rect x="162" y="196.873" width="6" height="3.12688" stroke="black" stroke-width="1" fill="blue" opacity="1" tooltip="enable"><title>(0.031232,26)</title></rect><rect x="168" y="196.392" width="6" height="3.60794" stroke="black" stroke-width="1" fill="blue" opacity="1" tooltip="enable"><title>(0.0323888,30)</title></rect><rect x="174" y="195.55" width="6" height="4.44979" stroke="black" stroke-width="1" fill="blue" opacity="1" tooltip="enable"><title>(0.0335455,37)</title></rect><rect x="180" y="197.595" width="6" height="2.40529" stroke="black" stroke-width="1" fill="blue" opacity="1" tooltip="enable"><title>(0.0347022,20)</title></rect><rect x="186" y="197.234" width="6" height="2.76609" stroke="black" stroke-width="1" fill="blue" opacity="1" tooltip="enable"><title>(0.035859,23)</title></rect><rect x="192" y="195.43" width="6" height="4.57005" stroke="black" stroke-width="1" fill="blue" opacity="1" tooltip="enable"><title>(0.0370157,38)</title></rect><rect x="198" y="196.633" width="6" height="3.36741" stroke="black" stroke-width="1" fill="blue" opacity="1" tooltip="enable"><title>(0.0381725,28)</title></rect><rect x="204" y="196.873" width="6" height="3.12688" stroke="black" stroke-width="1" fill="blue" opacity="1" tooltip="enable"><title>(0.0393292,26)</title></rect><rect x="210" y="197.354" width="6" height="2.64582" stroke="black" stroke-width="1" fill="blue" opacity="1" tooltip="enable"><title>(0.0404859,22)</title></rect><rect x="216" y="195.911" width="6" height="4.089" stroke="black" stroke-width="1" fill="blue" opacity="1" tooltip="enable"><title>(0.0416427,34)</title></rect><rect x="222" y="198.797" width="6" height="1.20265" stroke="black" stroke-width="1" fill="blue" opacity="1" tooltip="enable"><title>(0.0427994,10)</title></rect><rect x="228" y="196.873" width="6" height="3.12688" stroke="black" stroke-width="1" fill="blue" opacity="1" tooltip="enable"><title>(0.0439562,26)</title></rect><rect x="234" y="197.354" width="6" height="2.64582" stroke="black" stroke-width="1" fill="blue" opacity="1" tooltip="enable"><title>(0.0451129,22)</title></rect><rect x="240" y="197.354" width="6" height="2.64582" stroke="black" stroke-width="1" fill="blue" opacity="1" tooltip="enable"><title>(0.0462696,22)</title></rect><rect x="246" y="196.873" width="6" height="3.12688" stroke="black" stroke-width="1" fill="blue" opacity="1" tooltip="enable"><title>(0.0474264,26)</title></rect><rect x="252" y="198.196" width="6" height="1.80397" stroke="black" stroke-width="1" fill="blue" opacity="1" tooltip="enable"><title>(0.0485831,15)</title></rect><rect x="258" y="196.392" width="6" height="3.60794" stroke="black" stroke-width="1" fill="blue" opacity="1" tooltip="enable"><title>(0.0497399,30)</title></rect><rect x="264" y="197.234" width="6" height="2.76609" stroke="black" stroke-width="1" fill="blue" opacity="1" tooltip="enable"><title>(0.0508966,23)</title></rect><rect x="270" y="198.316" width="6" height="1.6837" stroke="black" stroke-width="1" fill="blue" opacity="1" tooltip="enable"><title>(0.0520533,14)</title></rect><rect x="276" y="197.835" width="6" height="2.16476" stroke="black" stroke-width="1" fill="blue" opacity="1" tooltip="enable"><title>(0.0532101,18)</title></rect><rect x="282" y="198.076" width="6" height="1.92423" stroke="black" stroke-width="1" fill="blue" opacity="1" tooltip="enable"><title>(0.0543668,16)</title></rect><rect x="288" y="198.076" width="6" height="1.92423" stroke="black" stroke-width="1" fill="blue" opacity="1" tooltip="enable"><title>(0.0555236,16)</title></rect><rect x="294" y="198.797" width="6" height="1.20265" stroke="black" stroke-width="1" fill="blue" opacity="1" tooltip="enable"><title>(0.0566803,10)</title></rect><rect x="300" y="198.076" width="6" height="1.92423" stroke="black" stroke-width="1" fill="blue" opacity="1" tooltip="enable"><title>(0.0578371,16)</title></rect><rect x="306" y="198.316" width="6" height="1.6837" stroke="black" stroke-width="1" fill="blue" opacity="1" tooltip="enable"><title>(0.0589938,14)</title></rect><rect x="312" y="198.797" width="6" height="1.20265" stroke="black" stroke-width="1" fill="blue" opacity="1" tooltip="enable"><title>(0.0601505,10)</title></rect><rect x="318" y="198.797" width="6" height="1.20265" stroke="black" stroke-width="1" fill="blue" opacity="1" tooltip="enable"><title>(0.0613073,10)</title></rect><rect x="324" y="197.835" width="6" height="2.16476" stroke="black" stroke-width="1" fill="blue" opacity="1" tooltip="enable"><title>(0.062464,18)</title></rect><rect x="330" y="199.519" width="6" height="0.481058" stroke="black" stroke-width="1" fill="blue" opacity="1" tooltip="enable"><title>(0.0636208,4)</title></rect><rect x="336" y="199.399" width="6" height="0.601323" stroke="black" stroke-width="1" fill="blue" opacity="1" tooltip="enable"><title>(0.0647775,5)</title></rect><rect x="342" y="199.158" width="6" height="0.841852" stroke="black" stroke-width="1" fill="blue" opacity="1" tooltip="enable"><title>(0.0659342,7)</title></rect><rect x="348" y="198.677" width="6" height="1.32291" stroke="black" stroke-width="1" fill="blue" opacity="1" tooltip="enable"><title>(0.067091,11)</title></rect><rect x="354" y="199.639" width="6" height="0.360794" stroke="black" stroke-width="1" fill="blue" opacity="1" tooltip="enable"><title>(0.0682477,3)</title></rect><rect x="360" y="199.519" width="6" height="0.481058" stroke="black" stroke-width="1" fill="blue" opacity="1" tooltip="enable"><title>(0.0694045,4)</title></rect><rect x="366" y="198.797" width="6" height="1.20265" stroke="black" stroke-width="1" fill="blue" opacity="1" tooltip="enable"><title>(0.0705612,10)</title></rect><rect x="372" y="199.519" width="6" height="0.481058" stroke="black" stroke-width="1" fill="blue" opacity="1" tooltip="enable"><title>(0.0717179,4)</title></rect><rect x="378" y="200" width="6" height="0" stroke="black" stroke-width="1" fill="blue" opacity="1" tooltip="enable"><title>(0.0728747,0)</title></rect><rect x="384" y="199.038" width="6" height="0.962117" stroke="black" stroke-width="1" fill="blue" opacity="1" tooltip="enable"><title>(0.0740314,8)</title></rect><rect x="390" y="198.557" width="6" height="1.44317" stroke="black" stroke-width="1" fill="blue" opacity="1" tooltip="enable"><title>(0.0751882,12)</title></rect><rect x="396" y="199.158" width="6" height="0.841852" stroke="black" stroke-width="1" fill="blue" opacity="1" tooltip="enable"><title>(0.0763449,7)</title></rect><rect x="402" y="198.677" width="6" height="1.32291" stroke="black" stroke-width="1" fill="blue" opacity="1" tooltip="enable"><title>(0.0775017,11)</title></rect><rect x="408" y="199.759" width="6" height="0.240529" stroke="black" stroke-width="1" fill="blue" opacity="1" tooltip="enable"><title>(0.0786584,2)</title></rect><rect x="414" y="199.759" width="6" height="0.240529" stroke="black" stroke-width="1" fill="blue" opacity="1" tooltip="enable"><title>(0.0798151,2)</title></rect><rect x="420" y="200" width="6" height="0" stroke="black" stroke-width="1" fill="blue" opacity="1" tooltip="enable"><title>(0.0809719,0)</title></rect><rect x="426" y="200" width="6" height="0" stroke="black" stroke-width="1" fill="blue" opacity="1" tooltip="enable"><title>(0.0821286,0)</title></rect><rect x="432" y="199.759" width="6" height="0.240529" stroke="black" stroke-width="1" fill="blue" opacity="1" tooltip="enable"><title>(0.0832854,2)</title></rect><rect x="438" y="199.519" width="6" height="0.481058" stroke="black" stroke-width="1" fill="blue" opacity="1" tooltip="enable"><title>(0.0844421,4)</title></rect><rect x="444" y="200" width="6" height="0" stroke="black" stroke-width="1" fill="blue" opacity="1" tooltip="enable"><title>(0.0855988,0)</title></rect><rect x="450" y="199.759" width="6" height="0.240529" stroke="black" stroke-width="1" fill="blue" opacity="1" tooltip="enable"><title>(0.0867556,2)</title></rect><rect x="456" y="199.519" width="6" height="0.481058" stroke="black" stroke-width="1" fill="blue" opacity="1" tooltip="enable"><title>(0.0879123,4)</title></rect><rect x="462" y="200" width="6" height="0" stroke="black" stroke-width="1" fill="blue" opacity="1" tooltip="enable"><title>(0.0890691,0)</title></rect><rect x="468" y="199.519" width="6" height="0.481058" stroke="black" stroke-width="1" fill="blue" opacity="1" tooltip="enable"><title>(0.0902258,4)</title></rect><rect x="474" y="199.759" width="6" height="0.240529" stroke="black" stroke-width="1" fill="blue" opacity="1" tooltip="enable"><title>(0.0913825,2)</title></rect><rect x="480" y="200" width="6" height="0" stroke="black" stroke-width="1" fill="blue" opacity="1" tooltip="enable"><title>(0.0925393,0)</title></rect><rect x="486" y="200" width="6" height="0" stroke="black" stroke-width="1" fill="blue" opacity="1" tooltip="enable"><title>(0.093696,0)</title></rect><rect x="492" y="200" width="6" height="0" stroke="black" stroke-width="1" fill="blue" opacity="1" tooltip="enable"><title>(0.0948528,0)</title></rect><rect x="498" y="200" width="6" height="0" stroke="black" stroke-width="1" fill="blue" opacity="1" tooltip="enable"><title>(0.0960095,0)</title></rect><rect x="504" y="200" width="6" height="0" stroke="black" stroke-width="1" fill="blue" opacity="1" tooltip="enable"><title>(0.0971662,0)</title></rect><rect x="510" y="200" width="6" height="0" stroke="black" stroke-width="1" fill="blue" opacity="1" tooltip="enable"><title>(0.098323,0)</title></rect><rect x="516" y="200" width="6" height="0" stroke="black" stroke-width="1" fill="blue" opacity="1" tooltip="enable"><title>(0.0994797,0)</title></rect><rect x="522" y="200" width="6" height="0" stroke="black" stroke-width="1" fill="blue" opacity="1" tooltip="enable"><title>(0.100636,0)</title></rect><rect x="528" y="199.759" width="6" height="0.240529" stroke="black" stroke-width="1" fill="blue" opacity="1" tooltip="enable"><title>(0.101793,2)</title></rect><rect x="534" y="200" width="6" height="0" stroke="black" stroke-width="1" fill="blue" opacity="1" tooltip="enable"><title>(0.10295,0)</title></rect><rect x="540" y="200" width="6" height="0" stroke="black" stroke-width="1" fill="blue" opacity="1" tooltip="enable"><title>(0.104107,0)</title></rect><rect x="546" y="200" width="6" height="0" stroke="black" stroke-width="1" fill="blue" opacity="1" tooltip="enable"><title>(0.105263,0)</title></rect><rect x="552" y="199.519" width="6" height="0.481058" stroke="black" stroke-width="1" fill="blue" opacity="1" tooltip="enable"><title>(0.10642,4)</title></rect><rect x="558" y="199.759" width="6" height="0.240529" stroke="black" stroke-width="1" fill="blue" opacity="1" tooltip="enable"><title>(0.107577,2)</title></rect><rect x="564" y="199.759" width="6" height="0.240529" stroke="black" stroke-width="1" fill="blue" opacity="1" tooltip="enable"><title>(0.108734,2)</title></rect><rect x="570" y="200" width="6" height="0" stroke="black" stroke-width="1" fill="blue" opacity="1" tooltip="enable"><title>(0.10989,0)</title></rect><rect x="576" y="199.519" width="6" height="0.481058" stroke="black" stroke-width="1" fill="blue" opacity="1" tooltip="enable"><title>(0.111047,4)</title></rect><rect x="582" y="200" width="6" height="0" stroke="black" stroke-width="1" fill="blue" opacity="1" tooltip="enable"><title>(0.112204,0)</title></rect><rect x="588" y="199.759" width="6" height="0.240529" stroke="black" stroke-width="1" fill="blue" opacity="1" tooltip="enable"><title>(0.113361,2)</title></rect><rect x="594" y="199.88" width="6" height="0.120265" stroke="black" stroke-width="1" fill="blue" opacity="1" tooltip="enable"><title>(0.114517,1)</title></rect><text x="30" y="240" font-size="20" fill="black">0</text>
<text x="600" y="240" font-size="20" fill="black">0.115674</text>
<polyline points="0,220,600,220" stroke="black" stroke-width="1" fill="none" opacity="1"/>
<text x="720" y="20" font-size="20" fill="black">1663</text>
<text x="720" y="200" font-size="20" fill="black">0</text>
<polyline points="660,0,660,200" stroke="black" stroke-width="1" fill="none" opacity="1"/>
</svg>