<?xml version="1.0" standalone="yes"?>
<!-- SVG graphic -->
<svg xmlns='http://www.w3.org/2000/svg' xmlns:xlink='http://www.w3.org/1999/xlink'
 version="1.1">
<rect x="0" y="4.55617" width="6" height="195.444" stroke="black" stroke-width="1" fill="blue" opacity="1" tooltip="enable"><title>(0,1244)</title></rect><rect x="6" y="11.9403" width="6" height="188.06" stroke="black" stroke-width="1" fill="blue" opacity="1" tooltip="enable"><title>(0.00126957,1197)</title></rect><rect x="12" y="0" width="6" height="200" stroke="black" stroke-width="1" fill="blue" opacity="1" tooltip="enable"><title>(0.00253914,1273)</title></rect><rect x="18" y="129.144" width="6" height="70.8562" stroke="black" stroke-width="1" fill="blue" opacity="1" tooltip="enable"><title>(0.00380871,451)</title></rect><rect x="24" y="168.735" width="6" height="31.2647" stroke="black" stroke-width="1" fill="blue" opacity="1" tooltip="enable"><title>(0.00507829,199)</title></rect><rect x="30" y="169.049" width="6" height="30.9505" stroke="black" stroke-width="1" fill="blue" opacity="1" tooltip="enable"><title>(0.00634786,197)</title></rect><rect x="36" y="180.833" width="6" height="19.1673" stroke="black" stroke-width="1" fill="blue" opacity="1" tooltip="enable"><title>(0.00761743,122)</title></rect><rect x="42" y="185.703" width="6" height="14.2969" stroke="black" stroke-width="1" fill="blue" opacity="1" tooltip="enable"><title>(0.008887,91)</title></rect><rect x="48" y="183.818" width="6" height="16.1822" stroke="black" stroke-width="1" fill="blue" opacity="1" tooltip="enable"><title>(0.0101566,103)</title></rect><rect x="54" y="184.76" width="6" height="15.2396" stroke="black" stroke-width="1" fill="blue" opacity="1" tooltip="enable"><title>(0.0114261,97)</title></rect><rect x="60" y="179.89" width="6" height="20.11" stroke="black" stroke-width="1" fill="blue" opacity="1" tooltip="enable"><title>(0.0126957,128)</title></rect><rect x="66" y="181.304" width="6" height="18.696" stroke="black" stroke-width="1" fill="blue" opacity="1" tooltip="enable"><title>(0.0139653,119)</title></rect><rect x="72" y="186.017" width="6" height="13.9827" stroke="black" stroke-width="1" fill="blue" opacity="1" tooltip="enable"><title>(0.0152349,89)</title></rect><rect x="78" y="184.918" width="6" height="15.0825" stroke="black" stroke-width="1" fill="blue" opacity="1" tooltip="enable"><title>(0.0165044,96)</title></rect><rect x="84" y="187.117" width="6" height="12.883" stroke="black" stroke-width="1" fill="blue" opacity="1" tooltip="enable"><title>(0.017774,82)</title></rect><rect x="90" y="186.803" width="6" height="13.1972" stroke="black" stroke-width="1" fill="blue" opacity="1" tooltip="enable"><title>(0.0190436,84)</title></rect><rect x="96" y="183.818" width="6" height="16.1822" stroke="black" stroke-width="1" fill="blue" opacity="1" tooltip="enable"><title>(0.0203131,103)</title></rect><rect x="102" y="186.489" width="6" height="13.5114" stroke="black" stroke-width="1" fill="blue" opacity="1" tooltip="enable"><title>(0.0215827,86)</title></rect><rect x="108" y="185.389" width="6" height="14.6112" stroke="black" stroke-width="1" fill="blue" opacity="1" tooltip="enable"><title>(0.0228523,93)</title></rect><rect x="114" y="184.918" width="6" height="15.0825" stroke="black" stroke-width="1" fill="blue" opacity="1" tooltip="enable"><title>(0.0241219,96)</title></rect><rect x="120" y="180.361" width="6" height="19.6386" stroke="black" stroke-width="1" fill="blue" opacity="1" tooltip="enable"><title>(0.0253914,125)</title></rect><rect x="126" y="181.304" width="6" height="18.696" stroke="black" stroke-width="1" fill="blue" opacity="1" tooltip="enable"><title>(0.026661,119)</title></rect><rect x="132" y="178.79" width="6" height="21.2097" stroke="black" stroke-width="1" fill="blue" opacity="1" tooltip="enable"><title>(0.0279306,135)</title></rect><rect x="138" y="180.676" width="6" height="19.3244" stroke="black" stroke-width="1" fill="blue" opacity="1" tooltip="enable"><title>(0.0292001,123)</title></rect><rect x="144" y="184.132" width="6" height="15.868" stroke="black" stroke-width="1" fill="blue" opacity="1" tooltip="enable"><title>(0.0304697,101)</title></rect><rect x="150" y="183.818" width="6" height="16.1822" stroke="black" stroke-width="1" fill="blue" opacity="1" tooltip="enable"><title>(0.0317393,103)</title></rect><rect x="156" y="186.803" width="6" height="13.1972" stroke="black" stroke-width="1" fill="blue" opacity="1" tooltip="enable"><title>(0.0330089,84)</title></rect><rect x="162" y="180.833" width="6" height="19.1673" stroke="black" stroke-width="1" fill="blue" opacity="1" tooltip="enable"><title>(0.0342784,122)</title></rect><rect x="168" y="188.845" width="6" height="11.1548" stroke="black" stroke-width="1" fill="blue" opacity="1" tooltip="enable"><title>(0.035548,71)</title></rect><rect x="174" y="183.189" width="6" height="16.8107" stroke="black" stroke-width="1" fill="blue" opacity="1" tooltip="enable"><title>(0.0368176,107)</title></rect><rect x="180" y="187.274" width="6" height="12.7258" stroke="black" stroke-width="1" fill="blue" opacity="1" tooltip="enable"><title>(0.0380872,81)</title></rect><rect x="186" y="185.86" width="6" height="14.1398" stroke="black" stroke-width="1" fill="blue" opacity="1" tooltip="enable"><title>(0.0393567,90)</title></rect><rect x="192" y="190.573" width="6" height="9.42655" stroke="black" stroke-width="1" fill="blue" opacity="1" tooltip="enable"><title>(0.0406263,60)</title></rect><rect x="198" y="186.489" width="6" height="13.5114" stroke="black" stroke-width="1" fill="blue" opacity="1" tooltip="enable"><title>(0.0418959,86)</title></rect><rect x="204" y="191.045" width="6" height="8.95522" stroke="black" stroke-width="1" fill="blue" opacity="1" tooltip="enable"><title>(0.0431654,57)</title></rect><rect x="210" y="189.002" width="6" height="10.9976" stroke="black" stroke-width="1" fill="blue" opacity="1" tooltip="enable"><title>(0.044435,70)</title></rect><rect x="216" y="192.302" width="6" height="7.69835" stroke="black" stroke-width="1" fill="blue" opacity="1" tooltip="enable"><title>(0.0457046,49)</title></rect><rect x="222" y="191.359" width="6" height="8.64101" stroke="black" stroke-width="1" fill="blue" opacity="1" tooltip="enable"><title>(0.0469742,55)</title></rect><rect x="228" y="191.987" width="6" height="8.01257" stroke="black" stroke-width="1" fill="blue" opacity="1" tooltip="enable"><title>(0.0482437,51)</title></rect><rect x="234" y="192.93" width="6" height="7.06991" stroke="black" stroke-width="1" fill="blue" opacity="1" tooltip="enable"><title>(0.0495133,45)</title></rect><rect x="240" y="196.858" width="6" height="3.14218" stroke="black" stroke-width="1" fill="blue" opacity="1" tooltip="enable"><title>(0.0507829,20)</title></rect><rect x="246" y="196.858" width="6" height="3.14218" stroke="black" stroke-width="1" fill="blue" opacity="1" tooltip="enable"><title>(0.0520524,20)</title></rect><rect x="252" y="196.544" width="6" height="3.4564" stroke="black" stroke-width="1" fill="blue" opacity="1" tooltip="enable"><title>(0.053322,22)</title></rect><rect x="258" y="196.858" width="6" height="3.14218" stroke="black" stroke-width="1" fill="blue" opacity="1" tooltip="enable"><title>(0.0545916,20)</title></rect><rect x="264" y="196.544" width="6" height="3.4564" stroke="black" stroke-width="1" fill="blue" opacity="1" tooltip="enable"><title>(0.0558612,22)</title></rect><rect x="270" y="198.743" width="6" height="1.25687" stroke="black" stroke-width="1" fill="blue" opacity="1" tooltip="enable"><title>(0.0571307,8)</title></rect><rect x="276" y="198.429" width="6" height="1.57109" stroke="black" stroke-width="1" fill="blue" opacity="1" tooltip="enable"><title>(0.0584003,10)</title></rect><rect x="282" y="199.057" width="6" height="0.942655" stroke="black" stroke-width="1" fill="blue" opacity="1" tooltip="enable"><title>(0.0596699,6)</title></rect><rect x="288" y="199.214" width="6" height="0.785546" stroke="black" stroke-width="1" fill="blue" opacity="1" tooltip="enable"><title>(0.0609394,5)</title></rect><rect x="294" y="198.429" width="6" height="1.57109" stroke="black" stroke-width="1" fill="blue" opacity="1" tooltip="enable"><title>(0.062209,10)</title></rect><rect x="300" y="197.958" width="6" height="2.04242" stroke="black" stroke-width="1" fill="blue" opacity="1" tooltip="enable"><title>(0.0634786,13)</title></rect><rect x="306" y="198.743" width="6" height="1.25687" stroke="black" stroke-width="1" fill="blue" opacity="1" tooltip="enable"><title>(0.0647482,8)</title></rect><rect x="312" y="197.8" width="6" height="2.19953" stroke="black" stroke-width="1" fill="blue" opacity="1" tooltip="enable"><title>(0.0660177,14)</title></rect><rect x="318" y="198.9" width="6" height="1.09976" stroke="black" stroke-width="1" fill="blue" opacity="1" tooltip="enable"><title>(0.0672873,7)</title></rect><rect x="324" y="199.214" width="6" height="0.785546" stroke="black" stroke-width="1" fill="blue" opacity="1" tooltip="enable"><title>(0.0685569,5)</title></rect><rect x="330" y="199.057" width="6" height="0.942655" stroke="black" stroke-width="1" fill="blue" opacity="1" tooltip="enable"><title>(0.0698264,6)</title></rect><rect x="336" y="198.9" width="6" height="1.09976" stroke="black" stroke-width="1" fill="blue" opacity="1" tooltip="enable"><title>(0.071096,7)</title></rect><rect x="342" y="198.9" width="6" height="1.09976" stroke="black" stroke-width="1" fill="blue" opacity="1" tooltip="enable"><title>(0.0723656,7)</title></rect><rect x="348" y="199.686" width="6" height="0.314218" stroke="black" stroke-width="1" fill="blue" opacity="1" tooltip="enable"><title>(0.0736352,2)</title></rect><rect x="354" y="197.486" width="6" height="2.51375" stroke="black" stroke-width="1" fill="blue" opacity="1" tooltip="enable"><title>(0.0749047,16)</title></rect><rect x="360" y="199.057" width="6" height="0.942655" stroke="black" stroke-width="1" fill="blue" opacity="1" tooltip="enable"><title>(0.0761743,6)</title></rect><rect x="366" y="199.372" width="6" height="0.628437" stroke="black" stroke-width="1" fill="blue" opacity="1" tooltip="enable"><title>(0.0774439,4)</title></rect><rect x="372" y="199.686" width="6" height="0.314218" stroke="black" stroke-width="1" fill="blue" opacity="1" tooltip="enable"><title>(0.0787134,2)</title></rect><rect x="378" y="199.686" width="6" height="0.314218" stroke="black" stroke-width="1" fill="blue" opacity="1" tooltip="enable"><title>(0.079983,2)</title></rect><rect x="384" y="199.372" width="6" height="0.628437" stroke="black" stroke-width="1" fill="blue" opacity="1" tooltip="enable"><title>(0.0812526,4)</title></rect><rect x="390" y="200" width="6" height="0" stroke="black" stroke-width="1" fill="blue" opacity="1" tooltip="enable"><title>(0.0825222,0)</title></rect><rect x="396" y="199.686" width="6" height="0.314218" stroke="black" stroke-width="1" fill="blue" opacity="1" tooltip="enable"><title>(0.0837917,2)</title></rect><rect x="402" y="198.743" width="6" height="1.25687" stroke="black" stroke-width="1" fill="blue" opacity="1" tooltip="enable"><title>(0.0850613,8)</title></rect><rect x="408" y="198.586" width="6" height="1.41398" stroke="black" stroke-width="1" fill="blue" opacity="1" tooltip="enable"><title>(0.0863309,9)</title></rect><rect x="414" y="199.214" width="6" height="0.785546" stroke="black" stroke-width="1" fill="blue" opacity="1" tooltip="enable"><title>(0.0876004,5)</title></rect><rect x="420" y="199.686" width="6" height="0.314218" stroke="black" stroke-width="1" fill="blue" opacity="1" tooltip="enable"><title>(0.08887,2)</title></rect><rect x="426" y="200" width="6" height="0" stroke="black" stroke-width="1" fill="blue" opacity="1" tooltip="enable"><title>(0.0901396,0)</title></rect><rect x="432" y="199.372" width="6" height="0.628437" stroke="black" stroke-width="1" fill="blue" opacity="1" tooltip="enable"><title>(0.0914092,4)</title></rect><rect x="438" y="198.429" width="6" height="1.57109" stroke="black" stroke-width="1" fill="blue" opacity="1" tooltip="enable"><title>(0.0926787,10)</title></rect><rect x="444" y="199.686" width="6" height="0.314218" stroke="black" stroke-width="1" fill="blue" opacity="1" tooltip="enable"><title>(0.0939483,2)</title></rect><rect x="450" y="199.686" width="6" height="0.314218" stroke="black" stroke-width="1" fill="blue" opacity="1" tooltip="enable"><title>(0.0952179,2)</title></rect><rect x="456" y="200" width="6" height="0" stroke="black" stroke-width="1" fill="blue" opacity="1" tooltip="enable"><title>(0.0964874,0)</title></rect><rect x="462" y="199.686" width="6" height="0.314218" stroke="black" stroke-width="1" fill="blue" opacity="1" tooltip="enable"><title>(0.097757,2)</title></rect><rect x="468" y="199.686" width="6" height="0.314218" stroke="black" stroke-width="1" fill="blue" opacity="1" tooltip="enable"><title>(0.0990266,2)</title></rect><rect x="474" y="200" width="6" height="0" stroke="black" stroke-width="1" fill="blue" opacity="1" tooltip="enable"><title>(0.100296,0)</title></rect><rect x="480" y="200" width="6" height="0" stroke="black" stroke-width="1" fill="blue" opacity="1" tooltip="enable"><title>(0.101566,0)</title></rect><rect x="486" y="200" width="6" height="0" stroke="black" stroke-width="1" fill="blue" opacity="1" tooltip="enable"><title>(0.102835,0)</title></rect><rect x="492" y="200" width="6" height="0" stroke="black" stroke-width="1" fill="blue" opacity="1" tooltip="enable"><title>(0.104105,0)</title></rect><rect x="498" y="199.686" width="6" height="0.314218" stroke="black" stroke-width="1" fill="blue" opacity="1" tooltip="enable"><title>(0.105374,2)</title></rect><rect x="504" y="199.686" width="6" height="0.314218" stroke="black" stroke-width="1" fill="blue" opacity="1" tooltip="enable"><title>(0.106644,2)</title></rect><rect x="510" y="199.686" width="6" height="0.314218" stroke="black" stroke-width="1" fill="blue" opacity="1" tooltip="enable"><title>(0.107914,2)</title></rect><rect x="516" y="200" width="6" height="0" stroke="black" stroke-width="1" fill="blue" opacity="1" tooltip="enable"><title>(0.109183,0)</title></rect><rect x="522" y="199.686" width="6" height="0.314218" stroke="black" stroke-width="1" fill="blue" opacity="1" tooltip="enable"><title>(0.110453,2)</title></rect><rect x="528" y="199.843" width="6" height="0.157109" stroke="black" stroke-width="1" fill="blue" opacity="1" tooltip="enable"><title>(0.111722,1)</title></rect><rect x="534" y="199.214" width="6" height="0.785546" stroke="black" stroke-width="1" fill="blue" opacity="1" tooltip="enable"><title>(0.112992,5)</title></rect><rect x="540" y="200" width="6" height="0" stroke="black" stroke-width="1" fill="blue" opacity="1" tooltip="enable"><title>(0.114261,0)</title></rect><rect x="546" y="199.686" width="6" height="0.314218" stroke="black" stroke-width="1" fill="blue" opacity="1" tooltip="enable"><title>(0.115531,2)</title></rect><rect x="552" y="199.686" width="6" height="0.314218" stroke="black" stroke-width="1" fill="blue" opacity="1" tooltip="enable"><title>(0.116801,2)</title></rect><rect x="558" y="200" width="6" height="0" stroke="black" stroke-width="1" fill="blue" opacity="1" tooltip="enable"><title>(0.11807,0)</title></rect><rect x="564" y="199.686" width="6" height="0.314218" stroke="black" stroke-width="1" fill="blue" opacity="1" tooltip="enable"><title>(0.11934,2)</title></rect><rect x="570" y="200" width="6" height="0" stroke="black" stroke-width="1" fill="blue" opacity="1" tooltip="enable"><title>(0.120609,0)</title></rect><rect x="576" y="200" width="6" height="0" stroke="black" stroke-width="1" fill="blue" opacity="1" tooltip="enable"><title>(0.121879,0)</title></rect><rect x="582" y="200" width="6" height="0" stroke="black" stroke-width="1" fill="blue" opacity="1" tooltip="enable"><title>(0.123148,0)</title></rect><rect x="588" y="200" width="6" height="0" stroke="black" stroke-width="1" fill="blue" opacity="1" tooltip="enable"><title>(0.124418,0)</title></rect><rect x="594" y="199.843" width="6" height="0.157109" stroke="black" stroke-width="1" fill="blue" opacity="1" tooltip="enable"><title>(0.125688,1)</title></rect><text x="30" y="240" font-size="20" fill="black">0</text>
<text x="600" y="240" font-size="20" fill="black">0.126957</text>
<polyline points="0,220,600,220" stroke="black" stroke-width="1" fill="none" opacity="1"/>
<text x="720" y="20" font-size="20" fill="black">1273</text>
<text x="720" y="200" font-size="20" fill="black">0</text>
<polyline points="660,0,660,200" stroke="black" stroke-width="1" fill="none" opacity="1"/>
</svg>