<?xml version="1.0" standalone="yes"?>
<!-- SVG graphic -->
<svg xmlns='http://www.w3.org/2000/svg' xmlns:xlink='http://www.w3.org/1999/xlink'
 version="1.1">
<rect x="0" y="0" width="6" height="200" stroke="black" stroke-width="1" fill="blue" opacity="1" tooltip="enable"><title>(0,2501)</title></rect><rect x="6" y="110.676" width="6" height="89.3243" stroke="black" stroke-width="1" fill="blue" opacity="1" tooltip="enable"><title>(0.00120993,1117)</title></rect><rect x="12" y="147.141" width="6" height="52.8589" stroke="black" stroke-width="1" fill="blue" opacity="1" tooltip="enable"><title>(0.00241986,661)</title></rect><rect x="18" y="178.409" width="6" height="21.5914" stroke="black" stroke-width="1" fill="blue" opacity="1" tooltip="enable"><title>(0.00362979,270)</title></rect><rect x="24" y="184.726" width="6" height="15.2739" stroke="black" stroke-width="1" fill="blue" opacity="1" tooltip="enable"><title>(0.00483972,191)</title></rect><rect x="30" y="186.245" width="6" height="13.7545" stroke="black" stroke-width="1" fill="blue" opacity="1" tooltip="enable"><title>(0.00604964,172)</title></rect><rect x="36" y="188.964" width="6" height="11.0356" stroke="black" stroke-width="1" fill="blue" opacity="1" tooltip="enable"><title>(0.00725957,138)</title></rect><rect x="42" y="189.284" width="6" height="10.7157" stroke="black" stroke-width="1" fill="blue" opacity="1" tooltip="enable"><title>(0.0084695,134)</title></rect><rect x="48" y="187.685" width="6" height="12.3151" stroke="black" stroke-width="1" fill="blue" opacity="1" tooltip="enable"><title>(0.00967943,154)</title></rect><rect x="54" y="189.444" width="6" height="10.5558" stroke="black" stroke-width="1" fill="blue" opacity="1" tooltip="enable"><title>(0.0108894,132)</title></rect><rect x="60" y="187.685" width="6" height="12.3151" stroke="black" stroke-width="1" fill="blue" opacity="1" tooltip="enable"><title>(0.0120993,154)</title></rect><rect x="66" y="189.444" width="6" height="10.5558" stroke="black" stroke-width="1" fill="blue" opacity="1" tooltip="enable"><title>(0.0133092,132)</title></rect><rect x="72" y="188.165" width="6" height="11.8353" stroke="black" stroke-width="1" fill="blue" opacity="1" tooltip="enable"><title>(0.0145191,148)</title></rect><rect x="78" y="191.843" width="6" height="8.15674" stroke="black" stroke-width="1" fill="blue" opacity="1" tooltip="enable"><title>(0.0157291,102)</title></rect><rect x="84" y="190.884" width="6" height="9.11635" stroke="black" stroke-width="1" fill="blue" opacity="1" tooltip="enable"><title>(0.016939,114)</title></rect><rect x="90" y="191.204" width="6" height="8.79648" stroke="black" stroke-width="1" fill="blue" opacity="1" tooltip="enable"><title>(0.0181489,110)</title></rect><rect x="96" y="190.724" width="6" height="9.27629" stroke="black" stroke-width="1" fill="blue" opacity="1" tooltip="enable"><title>(0.0193589,116)</title></rect><rect x="102" y="193.443" width="6" height="6.55738" stroke="black" stroke-width="1" fill="blue" opacity="1" tooltip="enable"><title>(0.0205688,82)</title></rect><rect x="108" y="193.683" width="6" height="6.31747" stroke="black" stroke-width="1" fill="blue" opacity="1" tooltip="enable"><title>(0.0217787,79)</title></rect><rect x="114" y="193.683" width="6" height="6.31747" stroke="black" stroke-width="1" fill="blue" opacity="1" tooltip="enable"><title>(0.0229886,79)</title></rect><rect x="120" y="194.562" width="6" height="5.43782" stroke="black" stroke-width="1" fill="blue" opacity="1" tooltip="enable"><title>(0.0241986,68)</title></rect><rect x="126" y="194.162" width="6" height="5.83767" stroke="black" stroke-width="1" fill="blue" opacity="1" tooltip="enable"><title>(0.0254085,73)</title></rect><rect x="132" y="195.122" width="6" height="4.87805" stroke="black" stroke-width="1" fill="blue" opacity="1" tooltip="enable"><title>(0.0266184,61)</title></rect><rect x="138" y="193.922" width="6" height="6.07757" stroke="black" stroke-width="1" fill="blue" opacity="1" tooltip="enable"><title>(0.0278284,76)</title></rect><rect x="144" y="196.481" width="6" height="3.51859" stroke="black" stroke-width="1" fill="blue" opacity="1" tooltip="enable"><title>(0.0290383,44)</title></rect><rect x="150" y="195.842" width="6" height="4.15834" stroke="black" stroke-width="1" fill="blue" opacity="1" tooltip="enable"><title>(0.0302482,52)</title></rect><rect x="156" y="197.121" width="6" height="2.87885" stroke="black" stroke-width="1" fill="blue" opacity="1" tooltip="enable"><title>(0.0314582,36)</title></rect><rect x="162" y="196.162" width="6" height="3.83846" stroke="black" stroke-width="1" fill="blue" opacity="1" tooltip="enable"><title>(0.0326681,48)</title></rect><rect x="168" y="196.162" width="6" height="3.83846" stroke="black" stroke-width="1" fill="blue" opacity="1" tooltip="enable"><title>(0.033878,48)</title></rect><rect x="174" y="196.641" width="6" height="3.35866" stroke="black" stroke-width="1" fill="blue" opacity="1" tooltip="enable"><title>(0.0350879,42)</title></rect><rect x="180" y="195.522" width="6" height="4.47821" stroke="black" stroke-width="1" fill="blue" opacity="1" tooltip="enable"><title>(0.0362979,56)</title></rect><rect x="186" y="196.242" width="6" height="3.7585" stroke="black" stroke-width="1" fill="blue" opacity="1" tooltip="enable"><title>(0.0375078,47)</title></rect><rect x="192" y="196.641" width="6" height="3.35866" stroke="black" stroke-width="1" fill="blue" opacity="1" tooltip="enable"><title>(0.0387177,42)</title></rect><rect x="198" y="195.442" width="6" height="4.55818" stroke="black" stroke-width="1" fill="blue" opacity="1" tooltip="enable"><title>(0.0399277,57)</title></rect><rect x="204" y="196.082" width="6" height="3.91843" stroke="black" stroke-width="1" fill="blue" opacity="1" tooltip="enable"><title>(0.0411376,49)</title></rect><rect x="210" y="196.082" width="6" height="3.91843" stroke="black" stroke-width="1" fill="blue" opacity="1" tooltip="enable"><title>(0.0423475,49)</title></rect><rect x="216" y="196.961" width="6" height="3.03878" stroke="black" stroke-width="1" fill="blue" opacity="1" tooltip="enable"><title>(0.0435574,38)</title></rect><rect x="222" y="197.281" width="6" height="2.71891" stroke="black" stroke-width="1" fill="blue" opacity="1" tooltip="enable"><title>(0.0447674,34)</title></rect><rect x="228" y="197.521" width="6" height="2.47901" stroke="black" stroke-width="1" fill="blue" opacity="1" tooltip="enable"><title>(0.0459773,31)</title></rect><rect x="234" y="197.441" width="6" height="2.55898" stroke="black" stroke-width="1" fill="blue" opacity="1" tooltip="enable"><title>(0.0471872,32)</title></rect><rect x="240" y="197.521" width="6" height="2.47901" stroke="black" stroke-width="1" fill="blue" opacity="1" tooltip="enable"><title>(0.0483972,31)</title></rect><rect x="246" y="196.481" width="6" height="3.51859" stroke="black" stroke-width="1" fill="blue" opacity="1" tooltip="enable"><title>(0.0496071,44)</title></rect><rect x="252" y="197.841" width="6" height="2.15914" stroke="black" stroke-width="1" fill="blue" opacity="1" tooltip="enable"><title>(0.050817,27)</title></rect><rect x="258" y="198.161" width="6" height="1.83926" stroke="black" stroke-width="1" fill="blue" opacity="1" tooltip="enable"><title>(0.0520269,23)</title></rect><rect x="264" y="197.761" width="6" height="2.2391" stroke="black" stroke-width="1" fill="blue" opacity="1" tooltip="enable"><title>(0.0532369,28)</title></rect><rect x="270" y="197.681" width="6" height="2.31907" stroke="black" stroke-width="1" fill="blue" opacity="1" tooltip="enable"><title>(0.0544468,29)</title></rect><rect x="276" y="198.001" width="6" height="1.9992" stroke="black" stroke-width="1" fill="blue" opacity="1" tooltip="enable"><title>(0.0556567,25)</title></rect><rect x="282" y="198.561" width="6" height="1.43942" stroke="black" stroke-width="1" fill="blue" opacity="1" tooltip="enable"><title>(0.0568667,18)</title></rect><rect x="288" y="199.2" width="6" height="0.79968" stroke="black" stroke-width="1" fill="blue" opacity="1" tooltip="enable"><title>(0.0580766,10)</title></rect><rect x="294" y="198.081" width="6" height="1.91923" stroke="black" stroke-width="1" fill="blue" opacity="1" tooltip="enable"><title>(0.0592865,24)</title></rect><rect x="300" y="198.721" width="6" height="1.27949" stroke="black" stroke-width="1" fill="blue" opacity="1" tooltip="enable"><title>(0.0604964,16)</title></rect><rect x="306" y="199.2" width="6" height="0.79968" stroke="black" stroke-width="1" fill="blue" opacity="1" tooltip="enable"><title>(0.0617064,10)</title></rect><rect x="312" y="199.04" width="6" height="0.959616" stroke="black" stroke-width="1" fill="blue" opacity="1" tooltip="enable"><title>(0.0629163,12)</title></rect><rect x="318" y="199.36" width="6" height="0.639744" stroke="black" stroke-width="1" fill="blue" opacity="1" tooltip="enable"><title>(0.0641262,8)</title></rect><rect x="324" y="199.12" width="6" height="0.879648" stroke="black" stroke-width="1" fill="blue" opacity="1" tooltip="enable"><title>(0.0653362,11)</title></rect><rect x="330" y="198.161" width="6" height="1.83926" stroke="black" stroke-width="1" fill="blue" opacity="1" tooltip="enable"><title>(0.0665461,23)</title></rect><rect x="336" y="199.68" width="6" height="0.319872" stroke="black" stroke-width="1" fill="blue" opacity="1" tooltip="enable"><title>(0.067756,4)</title></rect><rect x="342" y="199.84" width="6" height="0.159936" stroke="black" stroke-width="1" fill="blue" opacity="1" tooltip="enable"><title>(0.0689659,2)</title></rect><rect x="348" y="200" width="6" height="0" stroke="black" stroke-width="1" fill="blue" opacity="1" tooltip="enable"><title>(0.0701759,0)</title></rect><rect x="354" y="199.84" width="6" height="0.159936" stroke="black" stroke-width="1" fill="blue" opacity="1" tooltip="enable"><title>(0.0713858,2)</title></rect><rect x="360" y="199.52" width="6" height="0.479808" stroke="black" stroke-width="1" fill="blue" opacity="1" tooltip="enable"><title>(0.0725957,6)</title></rect><rect x="366" y="199.2" width="6" height="0.79968" stroke="black" stroke-width="1" fill="blue" opacity="1" tooltip="enable"><title>(0.0738057,10)</title></rect><rect x="372" y="199.36" width="6" height="0.639744" stroke="black" stroke-width="1" fill="blue" opacity="1" tooltip="enable"><title>(0.0750156,8)</title></rect><rect x="378" y="199.36" width="6" height="0.639744" stroke="black" stroke-width="1" fill="blue" opacity="1" tooltip="enable"><title>(0.0762255,8)</title></rect><rect x="384" y="199.84" width="6" height="0.159936" stroke="black" stroke-width="1" fill="blue" opacity="1" tooltip="enable"><title>(0.0774354,2)</title></rect><rect x="390" y="199.52" width="6" height="0.479808" stroke="black" stroke-width="1" fill="blue" opacity="1" tooltip="enable"><title>(0.0786454,6)</title></rect><rect x="396" y="199.68" width="6" height="0.319872" stroke="black" stroke-width="1" fill="blue" opacity="1" tooltip="enable"><title>(0.0798553,4)</title></rect><rect x="402" y="199.52" width="6" height="0.479808" stroke="black" stroke-width="1" fill="blue" opacity="1" tooltip="enable"><title>(0.0810652,6)</title></rect><rect x="408" y="200" width="6" height="0" stroke="black" stroke-width="1" fill="blue" opacity="1" tooltip="enable"><title>(0.0822752,0)</title></rect><rect x="414" y="199.84" width="6" height="0.159936" stroke="black" stroke-width="1" fill="blue" opacity="1" tooltip="enable"><title>(0.0834851,2)</title></rect><rect x="420" y="200" width="6" height="0" stroke="black" stroke-width="1" fill="blue" opacity="1" tooltip="enable"><title>(0.084695,0)</title></rect><rect x="426" y="199.84" width="6" height="0.159936" stroke="black" stroke-width="1" fill="blue" opacity="1" tooltip="enable"><title>(0.0859049,2)</title></rect><rect x="432" y="199.68" width="6" height="0.319872" stroke="black" stroke-width="1" fill="blue" opacity="1" tooltip="enable"><title>(0.0871149,4)</title></rect><rect x="438" y="200" width="6" height="0" stroke="black" stroke-width="1" fill="blue" opacity="1" tooltip="enable"><title>(0.0883248,0)</title></rect><rect x="444" y="200" width="6" height="0" stroke="black" stroke-width="1" fill="blue" opacity="1" tooltip="enable"><title>(0.0895347,0)</title></rect><rect x="450" y="199.84" width="6" height="0.159936" stroke="black" stroke-width="1" fill="blue" opacity="1" tooltip="enable"><title>(0.0907447,2)</title></rect><rect x="456" y="200" width="6" height="0" stroke="black" stroke-width="1" fill="blue" opacity="1" tooltip="enable"><title>(0.0919546,0)</title></rect><rect x="462" y="199.68" width="6" height="0.319872" stroke="black" stroke-width="1" fill="blue" opacity="1" tooltip="enable"><title>(0.0931645,4)</title></rect><rect x="468" y="199.84" width="6" height="0.159936" stroke="black" stroke-width="1" fill="blue" opacity="1" tooltip="enable"><title>(0.0943745,2)</title></rect><rect x="474" y="199.84" width="6" height="0.159936" stroke="black" stroke-width="1" fill="blue" opacity="1" tooltip="enable"><title>(0.0955844,2)</title></rect><rect x="480" y="199.84" width="6" height="0.159936" stroke="black" stroke-width="1" fill="blue" opacity="1" tooltip="enable"><title>(0.0967943,2)</title></rect><rect x="486" y="199.68" width="6" height="0.319872" stroke="black" stroke-width="1" fill="blue" opacity="1" tooltip="enable"><title>(0.0980042,4)</title></rect><rect x="492" y="199.84" width="6" height="0.159936" stroke="black" stroke-width="1" fill="blue" opacity="1" tooltip="enable"><title>(0.0992142,2)</title></rect><rect x="498" y="199.84" width="6" height="0.159936" stroke="black" stroke-width="1" fill="blue" opacity="1" tooltip="enable"><title>(0.100424,2)</title></rect><rect x="504" y="199.84" width="6" height="0.159936" stroke="black" stroke-width="1" fill="blue" opacity="1" tooltip="enable"><title>(0.101634,2)</title></rect><rect x="510" y="200" width="6" height="0" stroke="black" stroke-width="1" fill="blue" opacity="1" tooltip="enable"><title>(0.102844,0)</title></rect><rect x="516" y="200" width="6" height="0" stroke="black" stroke-width="1" fill="blue" opacity="1" tooltip="enable"><title>(0.104054,0)</title></rect><rect x="522" y="200" width="6" height="0" stroke="black" stroke-width="1" fill="blue" opacity="1" tooltip="enable"><title>(0.105264,0)</title></rect><rect x="528" y="200" width="6" height="0" stroke="black" stroke-width="1" fill="blue" opacity="1" tooltip="enable"><title>(0.106474,0)</title></rect><rect x="534" y="200" width="6" height="0" stroke="black" stroke-width="1" fill="blue" opacity="1" tooltip="enable"><title>(0.107684,0)</title></rect><rect x="540" y="200" width="6" height="0" stroke="black" stroke-width="1" fill="blue" opacity="1" tooltip="enable"><title>(0.108894,0)</title></rect><rect x="546" y="200" width="6" height="0" stroke="black" stroke-width="1" fill="blue" opacity="1" tooltip="enable"><title>(0.110104,0)</title></rect><rect x="552" y="199.84" width="6" height="0.159936" stroke="black" stroke-width="1" fill="blue" opacity="1" tooltip="enable"><title>(0.111313,2)</title></rect><rect x="558" y="200" width="6" height="0" stroke="black" stroke-width="1" fill="blue" opacity="1" tooltip="enable"><title>(0.112523,0)</title></rect><rect x="564" y="200" width="6" height="0" stroke="black" stroke-width="1" fill="blue" opacity="1" tooltip="enable"><title>(0.113733,0)</title></rect><rect x="570" y="200" width="6" height="0" stroke="black" stroke-width="1" fill="blue" opacity="1" tooltip="enable"><title>(0.114943,0)</title></rect><rect x="576" y="200" width="6" height="0" stroke="black" stroke-width="1" fill="blue" opacity="1" tooltip="enable"><title>(0.116153,0)</title></rect><rect x="582" y="200" width="6" height="0" stroke="black" stroke-width="1" fill="blue" opacity="1" tooltip="enable"><title>(0.117363,0)</title></rect><rect x="588" y="200" width="6" height="0" stroke="black" stroke-width="1" fill="blue" opacity="1" tooltip="enable"><title>(0.118573,0)</title></rect><rect x="594" y="199.92" width="6" height="0.079968" stroke="black" stroke-width="1" fill="blue" opacity="1" tooltip="enable"><title>(0.119783,1)</title></rect><text x="30" y="240" font-size="20" fill="black">0</text>
<text x="600" y="240" font-size="20" fill="black">0.120993</text>
<polyline points="0,220,600,220" stroke="black" stroke-width="1" fill="none" opacity="1"/>
<text x="720" y="20" font-size="20" fill="black">2501</text>
<text x="720" y="200" font-size="20" fill="black">0</text>
<polyline points="660,0,660,200" stroke="black" stroke-width="1" fill="none" opacity="1"/>
</svg>