<?xml version="1.0" standalone="yes"?>
<!-- SVG graphic -->
<svg xmlns='http://www.w3.org/2000/svg' xmlns:xlink='http://www.w3.org/1999/xlink'
 version="1.1">
<rect x="0" y="0" width="6" height="200" stroke="black" stroke-width="1" fill="blue" opacity="1" tooltip="enable"><title>(0,2262)</title></rect><rect x="6" y="78.6914" width="6" height="121.309" stroke="black" stroke-width="1" fill="blue" opacity="1" tooltip="enable"><title>(0.00141187,1372)</title></rect><rect x="12" y="152.166" width="6" height="47.8338" stroke="black" stroke-width="1" fill="blue" opacity="1" tooltip="enable"><title>(0.00282374,541)</title></rect><rect x="18" y="174.978" width="6" height="25.0221" stroke="black" stroke-width="1" fill="blue" opacity="1" tooltip="enable"><title>(0.00423561,283)</title></rect><rect x="24" y="183.731" width="6" height="16.2688" stroke="black" stroke-width="1" fill="blue" opacity="1" tooltip="enable"><title>(0.00564747,184)</title></rect><rect x="30" y="186.207" width="6" height="13.7931" stroke="black" stroke-width="1" fill="blue" opacity="1" tooltip="enable"><title>(0.00705934,156)</title></rect><rect x="36" y="189.92" width="6" height="10.0796" stroke="black" stroke-width="1" fill="blue" opacity="1" tooltip="enable"><title>(0.00847121,114)</title></rect><rect x="42" y="190.981" width="6" height="9.01857" stroke="black" stroke-width="1" fill="blue" opacity="1" tooltip="enable"><title>(0.00988308,102)</title></rect><rect x="48" y="188.948" width="6" height="11.0522" stroke="black" stroke-width="1" fill="blue" opacity="1" tooltip="enable"><title>(0.0112949,125)</title></rect><rect x="54" y="190.363" width="6" height="9.63749" stroke="black" stroke-width="1" fill="blue" opacity="1" tooltip="enable"><title>(0.0127068,109)</title></rect><rect x="60" y="190.628" width="6" height="9.37224" stroke="black" stroke-width="1" fill="blue" opacity="1" tooltip="enable"><title>(0.0141187,106)</title></rect><rect x="66" y="193.103" width="6" height="6.89655" stroke="black" stroke-width="1" fill="blue" opacity="1" tooltip="enable"><title>(0.0155306,78)</title></rect><rect x="72" y="192.661" width="6" height="7.33864" stroke="black" stroke-width="1" fill="blue" opacity="1" tooltip="enable"><title>(0.0169424,83)</title></rect><rect x="78" y="192.75" width="6" height="7.25022" stroke="black" stroke-width="1" fill="blue" opacity="1" tooltip="enable"><title>(0.0183543,82)</title></rect><rect x="84" y="192.661" width="6" height="7.33864" stroke="black" stroke-width="1" fill="blue" opacity="1" tooltip="enable"><title>(0.0197662,83)</title></rect><rect x="90" y="191.335" width="6" height="8.6649" stroke="black" stroke-width="1" fill="blue" opacity="1" tooltip="enable"><title>(0.021178,98)</title></rect><rect x="96" y="193.811" width="6" height="6.18921" stroke="black" stroke-width="1" fill="blue" opacity="1" tooltip="enable"><title>(0.0225899,70)</title></rect><rect x="102" y="191.335" width="6" height="8.6649" stroke="black" stroke-width="1" fill="blue" opacity="1" tooltip="enable"><title>(0.0240018,98)</title></rect><rect x="108" y="190.628" width="6" height="9.37224" stroke="black" stroke-width="1" fill="blue" opacity="1" tooltip="enable"><title>(0.0254136,106)</title></rect><rect x="114" y="192.219" width="6" height="7.78073" stroke="black" stroke-width="1" fill="blue" opacity="1" tooltip="enable"><title>(0.0268255,88)</title></rect><rect x="120" y="190.981" width="6" height="9.01857" stroke="black" stroke-width="1" fill="blue" opacity="1" tooltip="enable"><title>(0.0282374,102)</title></rect><rect x="126" y="189.744" width="6" height="10.2564" stroke="black" stroke-width="1" fill="blue" opacity="1" tooltip="enable"><title>(0.0296492,116)</title></rect><rect x="132" y="190.451" width="6" height="9.54907" stroke="black" stroke-width="1" fill="blue" opacity="1" tooltip="enable"><title>(0.0310611,108)</title></rect><rect x="138" y="193.28" width="6" height="6.71972" stroke="black" stroke-width="1" fill="blue" opacity="1" tooltip="enable"><title>(0.032473,76)</title></rect><rect x="144" y="193.103" width="6" height="6.89655" stroke="black" stroke-width="1" fill="blue" opacity="1" tooltip="enable"><title>(0.0338848,78)</title></rect><rect x="150" y="193.546" width="6" height="6.45446" stroke="black" stroke-width="1" fill="blue" opacity="1" tooltip="enable"><title>(0.0352967,73)</title></rect><rect x="156" y="193.192" width="6" height="6.80813" stroke="black" stroke-width="1" fill="blue" opacity="1" tooltip="enable"><title>(0.0367086,77)</title></rect><rect x="162" y="192.75" width="6" height="7.25022" stroke="black" stroke-width="1" fill="blue" opacity="1" tooltip="enable"><title>(0.0381205,82)</title></rect><rect x="168" y="193.988" width="6" height="6.01238" stroke="black" stroke-width="1" fill="blue" opacity="1" tooltip="enable"><title>(0.0395323,68)</title></rect><rect x="174" y="195.402" width="6" height="4.5977" stroke="black" stroke-width="1" fill="blue" opacity="1" tooltip="enable"><title>(0.0409442,52)</title></rect><rect x="180" y="194.96" width="6" height="5.03979" stroke="black" stroke-width="1" fill="blue" opacity="1" tooltip="enable"><title>(0.0423561,57)</title></rect><rect x="186" y="195.844" width="6" height="4.15561" stroke="black" stroke-width="1" fill="blue" opacity="1" tooltip="enable"><title>(0.0437679,47)</title></rect><rect x="192" y="196.729" width="6" height="3.27144" stroke="black" stroke-width="1" fill="blue" opacity="1" tooltip="enable"><title>(0.0451798,37)</title></rect><rect x="198" y="196.198" width="6" height="3.80195" stroke="black" stroke-width="1" fill="blue" opacity="1" tooltip="enable"><title>(0.0465917,43)</title></rect><rect x="204" y="195.933" width="6" height="4.0672" stroke="black" stroke-width="1" fill="blue" opacity="1" tooltip="enable"><title>(0.0480035,46)</title></rect><rect x="210" y="197.171" width="6" height="2.82935" stroke="black" stroke-width="1" fill="blue" opacity="1" tooltip="enable"><title>(0.0494154,32)</title></rect><rect x="216" y="196.817" width="6" height="3.18302" stroke="black" stroke-width="1" fill="blue" opacity="1" tooltip="enable"><title>(0.0508273,36)</title></rect><rect x="222" y="197.436" width="6" height="2.5641" stroke="black" stroke-width="1" fill="blue" opacity="1" tooltip="enable"><title>(0.0522391,29)</title></rect><rect x="228" y="196.729" width="6" height="3.27144" stroke="black" stroke-width="1" fill="blue" opacity="1" tooltip="enable"><title>(0.053651,37)</title></rect><rect x="234" y="196.905" width="6" height="3.09461" stroke="black" stroke-width="1" fill="blue" opacity="1" tooltip="enable"><title>(0.0550629,35)</title></rect><rect x="240" y="197.259" width="6" height="2.74094" stroke="black" stroke-width="1" fill="blue" opacity="1" tooltip="enable"><title>(0.0564747,31)</title></rect><rect x="246" y="198.232" width="6" height="1.76835" stroke="black" stroke-width="1" fill="blue" opacity="1" tooltip="enable"><title>(0.0578866,20)</title></rect><rect x="252" y="197.878" width="6" height="2.12202" stroke="black" stroke-width="1" fill="blue" opacity="1" tooltip="enable"><title>(0.0592985,24)</title></rect><rect x="258" y="198.232" width="6" height="1.76835" stroke="black" stroke-width="1" fill="blue" opacity="1" tooltip="enable"><title>(0.0607104,20)</title></rect><rect x="264" y="198.408" width="6" height="1.59151" stroke="black" stroke-width="1" fill="blue" opacity="1" tooltip="enable"><title>(0.0621222,18)</title></rect><rect x="270" y="197.878" width="6" height="2.12202" stroke="black" stroke-width="1" fill="blue" opacity="1" tooltip="enable"><title>(0.0635341,24)</title></rect><rect x="276" y="199.116" width="6" height="0.884173" stroke="black" stroke-width="1" fill="blue" opacity="1" tooltip="enable"><title>(0.064946,10)</title></rect><rect x="282" y="196.64" width="6" height="3.35986" stroke="black" stroke-width="1" fill="blue" opacity="1" tooltip="enable"><title>(0.0663578,38)</title></rect><rect x="288" y="197.524" width="6" height="2.47569" stroke="black" stroke-width="1" fill="blue" opacity="1" tooltip="enable"><title>(0.0677697,28)</title></rect><rect x="294" y="197.524" width="6" height="2.47569" stroke="black" stroke-width="1" fill="blue" opacity="1" tooltip="enable"><title>(0.0691816,28)</title></rect><rect x="300" y="197.613" width="6" height="2.38727" stroke="black" stroke-width="1" fill="blue" opacity="1" tooltip="enable"><title>(0.0705934,27)</title></rect><rect x="306" y="197.082" width="6" height="2.91777" stroke="black" stroke-width="1" fill="blue" opacity="1" tooltip="enable"><title>(0.0720053,33)</title></rect><rect x="312" y="198.762" width="6" height="1.23784" stroke="black" stroke-width="1" fill="blue" opacity="1" tooltip="enable"><title>(0.0734172,14)</title></rect><rect x="318" y="198.408" width="6" height="1.59151" stroke="black" stroke-width="1" fill="blue" opacity="1" tooltip="enable"><title>(0.074829,18)</title></rect><rect x="324" y="197.347" width="6" height="2.65252" stroke="black" stroke-width="1" fill="blue" opacity="1" tooltip="enable"><title>(0.0762409,30)</title></rect><rect x="330" y="198.232" width="6" height="1.76835" stroke="black" stroke-width="1" fill="blue" opacity="1" tooltip="enable"><title>(0.0776528,20)</title></rect><rect x="336" y="198.762" width="6" height="1.23784" stroke="black" stroke-width="1" fill="blue" opacity="1" tooltip="enable"><title>(0.0790646,14)</title></rect><rect x="342" y="198.232" width="6" height="1.76835" stroke="black" stroke-width="1" fill="blue" opacity="1" tooltip="enable"><title>(0.0804765,20)</title></rect><rect x="348" y="198.939" width="6" height="1.06101" stroke="black" stroke-width="1" fill="blue" opacity="1" tooltip="enable"><title>(0.0818884,12)</title></rect><rect x="354" y="199.116" width="6" height="0.884173" stroke="black" stroke-width="1" fill="blue" opacity="1" tooltip="enable"><title>(0.0833002,10)</title></rect><rect x="360" y="198.939" width="6" height="1.06101" stroke="black" stroke-width="1" fill="blue" opacity="1" tooltip="enable"><title>(0.0847121,12)</title></rect><rect x="366" y="198.232" width="6" height="1.76835" stroke="black" stroke-width="1" fill="blue" opacity="1" tooltip="enable"><title>(0.086124,20)</title></rect><rect x="372" y="198.497" width="6" height="1.50309" stroke="black" stroke-width="1" fill="blue" opacity="1" tooltip="enable"><title>(0.0875359,17)</title></rect><rect x="378" y="198.32" width="6" height="1.67993" stroke="black" stroke-width="1" fill="blue" opacity="1" tooltip="enable"><title>(0.0889477,19)</title></rect><rect x="384" y="198.939" width="6" height="1.06101" stroke="black" stroke-width="1" fill="blue" opacity="1" tooltip="enable"><title>(0.0903596,12)</title></rect><rect x="390" y="198.408" width="6" height="1.59151" stroke="black" stroke-width="1" fill="blue" opacity="1" tooltip="enable"><title>(0.0917715,18)</title></rect><rect x="396" y="199.823" width="6" height="0.176835" stroke="black" stroke-width="1" fill="blue" opacity="1" tooltip="enable"><title>(0.0931833,2)</title></rect><rect x="402" y="199.823" width="6" height="0.176835" stroke="black" stroke-width="1" fill="blue" opacity="1" tooltip="enable"><title>(0.0945952,2)</title></rect><rect x="408" y="198.939" width="6" height="1.06101" stroke="black" stroke-width="1" fill="blue" opacity="1" tooltip="enable"><title>(0.0960071,12)</title></rect><rect x="414" y="198.762" width="6" height="1.23784" stroke="black" stroke-width="1" fill="blue" opacity="1" tooltip="enable"><title>(0.0974189,14)</title></rect><rect x="420" y="199.646" width="6" height="0.353669" stroke="black" stroke-width="1" fill="blue" opacity="1" tooltip="enable"><title>(0.0988308,4)</title></rect><rect x="426" y="199.469" width="6" height="0.530504" stroke="black" stroke-width="1" fill="blue" opacity="1" tooltip="enable"><title>(0.100243,6)</title></rect><rect x="432" y="199.646" width="6" height="0.353669" stroke="black" stroke-width="1" fill="blue" opacity="1" tooltip="enable"><title>(0.101655,4)</title></rect><rect x="438" y="199.823" width="6" height="0.176835" stroke="black" stroke-width="1" fill="blue" opacity="1" tooltip="enable"><title>(0.103066,2)</title></rect><rect x="444" y="199.646" width="6" height="0.353669" stroke="black" stroke-width="1" fill="blue" opacity="1" tooltip="enable"><title>(0.104478,4)</title></rect><rect x="450" y="199.381" width="6" height="0.618921" stroke="black" stroke-width="1" fill="blue" opacity="1" tooltip="enable"><title>(0.10589,7)</title></rect><rect x="456" y="199.735" width="6" height="0.265252" stroke="black" stroke-width="1" fill="blue" opacity="1" tooltip="enable"><title>(0.107302,3)</title></rect><rect x="462" y="199.293" width="6" height="0.707339" stroke="black" stroke-width="1" fill="blue" opacity="1" tooltip="enable"><title>(0.108714,8)</title></rect><rect x="468" y="199.823" width="6" height="0.176835" stroke="black" stroke-width="1" fill="blue" opacity="1" tooltip="enable"><title>(0.110126,2)</title></rect><rect x="474" y="199.469" width="6" height="0.530504" stroke="black" stroke-width="1" fill="blue" opacity="1" tooltip="enable"><title>(0.111538,6)</title></rect><rect x="480" y="199.823" width="6" height="0.176835" stroke="black" stroke-width="1" fill="blue" opacity="1" tooltip="enable"><title>(0.112949,2)</title></rect><rect x="486" y="199.823" width="6" height="0.176835" stroke="black" stroke-width="1" fill="blue" opacity="1" tooltip="enable"><title>(0.114361,2)</title></rect><rect x="492" y="199.823" width="6" height="0.176835" stroke="black" stroke-width="1" fill="blue" opacity="1" tooltip="enable"><title>(0.115773,2)</title></rect><rect x="498" y="199.823" width="6" height="0.176835" stroke="black" stroke-width="1" fill="blue" opacity="1" tooltip="enable"><title>(0.117185,2)</title></rect><rect x="504" y="200" width="6" height="0" stroke="black" stroke-width="1" fill="blue" opacity="1" tooltip="enable"><title>(0.118597,0)</title></rect><rect x="510" y="200" width="6" height="0" stroke="black" stroke-width="1" fill="blue" opacity="1" tooltip="enable"><title>(0.120009,0)</title></rect><rect x="516" y="199.823" width="6" height="0.176835" stroke="black" stroke-width="1" fill="blue" opacity="1" tooltip="enable"><title>(0.121421,2)</title></rect><rect x="522" y="200" width="6" height="0" stroke="black" stroke-width="1" fill="blue" opacity="1" tooltip="enable"><title>(0.122833,0)</title></rect><rect x="528" y="200" width="6" height="0" stroke="black" stroke-width="1" fill="blue" opacity="1" tooltip="enable"><title>(0.124244,0)</title></rect><rect x="534" y="200" width="6" height="0" stroke="black" stroke-width="1" fill="blue" opacity="1" tooltip="enable"><title>(0.125656,0)</title></rect><rect x="540" y="200" width="6" height="0" stroke="black" stroke-width="1" fill="blue" opacity="1" tooltip="enable"><title>(0.127068,0)</title></rect><rect x="546" y="200" width="6" height="0" stroke="black" stroke-width="1" fill="blue" opacity="1" tooltip="enable"><title>(0.12848,0)</title></rect><rect x="552" y="200" width="6" height="0" stroke="black" stroke-width="1" fill="blue" opacity="1" tooltip="enable"><title>(0.129892,0)</title></rect><rect x="558" y="200" width="6" height="0" stroke="black" stroke-width="1" fill="blue" opacity="1" tooltip="enable"><title>(0.131304,0)</title></rect><rect x="564" y="200" width="6" height="0" stroke="black" stroke-width="1" fill="blue" opacity="1" tooltip="enable"><title>(0.132716,0)</title></rect><rect x="570" y="200" width="6" height="0" stroke="black" stroke-width="1" fill="blue" opacity="1" tooltip="enable"><title>(0.134128,0)</title></rect><rect x="576" y="199.823" width="6" height="0.176835" stroke="black" stroke-width="1" fill="blue" opacity="1" tooltip="enable"><title>(0.135539,2)</title></rect><rect x="582" y="199.823" width="6" height="0.176835" stroke="black" stroke-width="1" fill="blue" opacity="1" tooltip="enable"><title>(0.136951,2)</title></rect><rect x="588" y="200" width="6" height="0" stroke="black" stroke-width="1" fill="blue" opacity="1" tooltip="enable"><title>(0.138363,0)</title></rect><rect x="594" y="199.912" width="6" height="0.0884173" stroke="black" stroke-width="1" fill="blue" opacity="1" tooltip="enable"><title>(0.139775,1)</title></rect><text x="30" y="240" font-size="20" fill="black">0</text>
<text x="600" y="240" font-size="20" fill="black">0.141187</text>
<polyline points="0,220,600,220" stroke="black" stroke-width="1" fill="none" opacity="1"/>
<text x="720" y="20" font-size="20" fill="black">2262</text>
<text x="720" y="200" font-size="20" fill="black">0</text>
<polyline points="660,0,660,200" stroke="black" stroke-width="1" fill="none" opacity="1"/>
</svg>