<?xml version="1.0" standalone="yes"?>
<!-- SVG graphic -->
<svg xmlns='http://www.w3.org/2000/svg' xmlns:xlink='http://www.w3.org/1999/xlink'
 version="1.1">
<rect x="0" y="0" width="6" height="200" stroke="black" stroke-width="1" fill="blue" opacity="1" tooltip="enable"><title>(0,1996)</title></rect><rect x="6" y="6.61324" width="6" height="193.387" stroke="black" stroke-width="1" fill="blue" opacity="1" tooltip="enable"><title>(0.00157943,1930)</title></rect><rect x="12" y="162.325" width="6" height="37.6754" stroke="black" stroke-width="1" fill="blue" opacity="1" tooltip="enable"><title>(0.00315886,376)</title></rect><rect x="18" y="182.164" width="6" height="17.8357" stroke="black" stroke-width="1" fill="blue" opacity="1" tooltip="enable"><title>(0.00473829,178)</title></rect><rect x="24" y="178.457" width="6" height="21.5431" stroke="black" stroke-width="1" fill="blue" opacity="1" tooltip="enable"><title>(0.00631773,215)</title></rect><rect x="30" y="186.273" width="6" height="13.7275" stroke="black" stroke-width="1" fill="blue" opacity="1" tooltip="enable"><title>(0.00789716,137)</title></rect><rect x="36" y="185.972" width="6" height="14.0281" stroke="black" stroke-width="1" fill="blue" opacity="1" tooltip="enable"><title>(0.00947659,140)</title></rect><rect x="42" y="183.567" width="6" height="16.4329" stroke="black" stroke-width="1" fill="blue" opacity="1" tooltip="enable"><title>(0.011056,164)</title></rect><rect x="48" y="184.669" width="6" height="15.3307" stroke="black" stroke-width="1" fill="blue" opacity="1" tooltip="enable"><title>(0.0126355,153)</title></rect><rect x="54" y="181.062" width="6" height="18.9379" stroke="black" stroke-width="1" fill="blue" opacity="1" tooltip="enable"><title>(0.0142149,189)</title></rect><rect x="60" y="184.87" width="6" height="15.1303" stroke="black" stroke-width="1" fill="blue" opacity="1" tooltip="enable"><title>(0.0157943,151)</title></rect><rect x="66" y="180.16" width="6" height="19.8397" stroke="black" stroke-width="1" fill="blue" opacity="1" tooltip="enable"><title>(0.0173737,198)</title></rect><rect x="72" y="185.571" width="6" height="14.4289" stroke="black" stroke-width="1" fill="blue" opacity="1" tooltip="enable"><title>(0.0189532,144)</title></rect><rect x="78" y="184.569" width="6" height="15.4309" stroke="black" stroke-width="1" fill="blue" opacity="1" tooltip="enable"><title>(0.0205326,154)</title></rect><rect x="84" y="182.265" width="6" height="17.7355" stroke="black" stroke-width="1" fill="blue" opacity="1" tooltip="enable"><title>(0.022112,177)</title></rect><rect x="90" y="184.569" width="6" height="15.4309" stroke="black" stroke-width="1" fill="blue" opacity="1" tooltip="enable"><title>(0.0236915,154)</title></rect><rect x="96" y="184.669" width="6" height="15.3307" stroke="black" stroke-width="1" fill="blue" opacity="1" tooltip="enable"><title>(0.0252709,153)</title></rect><rect x="102" y="182.164" width="6" height="17.8357" stroke="black" stroke-width="1" fill="blue" opacity="1" tooltip="enable"><title>(0.0268503,178)</title></rect><rect x="108" y="185.271" width="6" height="14.7295" stroke="black" stroke-width="1" fill="blue" opacity="1" tooltip="enable"><title>(0.0284298,147)</title></rect><rect x="114" y="184.269" width="6" height="15.7315" stroke="black" stroke-width="1" fill="blue" opacity="1" tooltip="enable"><title>(0.0300092,157)</title></rect><rect x="120" y="183.768" width="6" height="16.2325" stroke="black" stroke-width="1" fill="blue" opacity="1" tooltip="enable"><title>(0.0315886,162)</title></rect><rect x="126" y="185.772" width="6" height="14.2285" stroke="black" stroke-width="1" fill="blue" opacity="1" tooltip="enable"><title>(0.0331681,142)</title></rect><rect x="132" y="189.579" width="6" height="10.4208" stroke="black" stroke-width="1" fill="blue" opacity="1" tooltip="enable"><title>(0.0347475,104)</title></rect><rect x="138" y="193.788" width="6" height="6.21242" stroke="black" stroke-width="1" fill="blue" opacity="1" tooltip="enable"><title>(0.0363269,62)</title></rect><rect x="144" y="192.184" width="6" height="7.81563" stroke="black" stroke-width="1" fill="blue" opacity="1" tooltip="enable"><title>(0.0379064,78)</title></rect><rect x="150" y="194.188" width="6" height="5.81162" stroke="black" stroke-width="1" fill="blue" opacity="1" tooltip="enable"><title>(0.0394858,58)</title></rect><rect x="156" y="195.691" width="6" height="4.30862" stroke="black" stroke-width="1" fill="blue" opacity="1" tooltip="enable"><title>(0.0410652,43)</title></rect><rect x="162" y="197.595" width="6" height="2.40481" stroke="black" stroke-width="1" fill="blue" opacity="1" tooltip="enable"><title>(0.0426446,24)</title></rect><rect x="168" y="197.896" width="6" height="2.10421" stroke="black" stroke-width="1" fill="blue" opacity="1" tooltip="enable"><title>(0.0442241,21)</title></rect><rect x="174" y="198.898" width="6" height="1.1022" stroke="black" stroke-width="1" fill="blue" opacity="1" tooltip="enable"><title>(0.0458035,11)</title></rect><rect x="180" y="198.196" width="6" height="1.80361" stroke="black" stroke-width="1" fill="blue" opacity="1" tooltip="enable"><title>(0.0473829,18)</title></rect><rect x="186" y="198.297" width="6" height="1.70341" stroke="black" stroke-width="1" fill="blue" opacity="1" tooltip="enable"><title>(0.0489624,17)</title></rect><rect x="192" y="198.697" width="6" height="1.30261" stroke="black" stroke-width="1" fill="blue" opacity="1" tooltip="enable"><title>(0.0505418,13)</title></rect><rect x="198" y="199.299" width="6" height="0.701403" stroke="black" stroke-width="1" fill="blue" opacity="1" tooltip="enable"><title>(0.0521212,7)</title></rect><rect x="204" y="199.399" width="6" height="0.601202" stroke="black" stroke-width="1" fill="blue" opacity="1" tooltip="enable"><title>(0.0537007,6)</title></rect><rect x="210" y="198.497" width="6" height="1.50301" stroke="black" stroke-width="1" fill="blue" opacity="1" tooltip="enable"><title>(0.0552801,15)</title></rect><rect x="216" y="199.599" width="6" height="0.400802" stroke="black" stroke-width="1" fill="blue" opacity="1" tooltip="enable"><title>(0.0568595,4)</title></rect><rect x="222" y="199.599" width="6" height="0.400802" stroke="black" stroke-width="1" fill="blue" opacity="1" tooltip="enable"><title>(0.058439,4)</title></rect><rect x="228" y="199.399" width="6" height="0.601202" stroke="black" stroke-width="1" fill="blue" opacity="1" tooltip="enable"><title>(0.0600184,6)</title></rect><rect x="234" y="199.8" width="6" height="0.200401" stroke="black" stroke-width="1" fill="blue" opacity="1" tooltip="enable"><title>(0.0615978,2)</title></rect><rect x="240" y="199.198" width="6" height="0.801603" stroke="black" stroke-width="1" fill="blue" opacity="1" tooltip="enable"><title>(0.0631773,8)</title></rect><rect x="246" y="199.399" width="6" height="0.601202" stroke="black" stroke-width="1" fill="blue" opacity="1" tooltip="enable"><title>(0.0647567,6)</title></rect><rect x="252" y="199.198" width="6" height="0.801603" stroke="black" stroke-width="1" fill="blue" opacity="1" tooltip="enable"><title>(0.0663361,8)</title></rect><rect x="258" y="199.399" width="6" height="0.601202" stroke="black" stroke-width="1" fill="blue" opacity="1" tooltip="enable"><title>(0.0679156,6)</title></rect><rect x="264" y="199.9" width="6" height="0.1002" stroke="black" stroke-width="1" fill="blue" opacity="1" tooltip="enable"><title>(0.069495,1)</title></rect><rect x="270" y="199.699" width="6" height="0.300601" stroke="black" stroke-width="1" fill="blue" opacity="1" tooltip="enable"><title>(0.0710744,3)</title></rect><rect x="276" y="199.599" width="6" height="0.400802" stroke="black" stroke-width="1" fill="blue" opacity="1" tooltip="enable"><title>(0.0726538,4)</title></rect><rect x="282" y="199.8" width="6" height="0.200401" stroke="black" stroke-width="1" fill="blue" opacity="1" tooltip="enable"><title>(0.0742333,2)</title></rect><rect x="288" y="199.8" width="6" height="0.200401" stroke="black" stroke-width="1" fill="blue" opacity="1" tooltip="enable"><title>(0.0758127,2)</title></rect><rect x="294" y="200" width="6" height="0" stroke="black" stroke-width="1" fill="blue" opacity="1" tooltip="enable"><title>(0.0773921,0)</title></rect><rect x="300" y="199.8" width="6" height="0.200401" stroke="black" stroke-width="1" fill="blue" opacity="1" tooltip="enable"><title>(0.0789716,2)</title></rect><rect x="306" y="199.8" width="6" height="0.200401" stroke="black" stroke-width="1" fill="blue" opacity="1" tooltip="enable"><title>(0.080551,2)</title></rect><rect x="312" y="200" width="6" height="0" stroke="black" stroke-width="1" fill="blue" opacity="1" tooltip="enable"><title>(0.0821304,0)</title></rect><rect x="318" y="200" width="6" height="0" stroke="black" stroke-width="1" fill="blue" opacity="1" tooltip="enable"><title>(0.0837099,0)</title></rect><rect x="324" y="199.8" width="6" height="0.200401" stroke="black" stroke-width="1" fill="blue" opacity="1" tooltip="enable"><title>(0.0852893,2)</title></rect><rect x="330" y="200" width="6" height="0" stroke="black" stroke-width="1" fill="blue" opacity="1" tooltip="enable"><title>(0.0868687,0)</title></rect><rect x="336" y="200" width="6" height="0" stroke="black" stroke-width="1" fill="blue" opacity="1" tooltip="enable"><title>(0.0884482,0)</title></rect><rect x="342" y="199.8" width="6" height="0.200401" stroke="black" stroke-width="1" fill="blue" opacity="1" tooltip="enable"><title>(0.0900276,2)</title></rect><rect x="348" y="199.8" width="6" height="0.200401" stroke="black" stroke-width="1" fill="blue" opacity="1" tooltip="enable"><title>(0.091607,2)</title></rect><rect x="354" y="199.399" width="6" height="0.601202" stroke="black" stroke-width="1" fill="blue" opacity="1" tooltip="enable"><title>(0.0931865,6)</title></rect><rect x="360" y="199.8" width="6" height="0.200401" stroke="black" stroke-width="1" fill="blue" opacity="1" tooltip="enable"><title>(0.0947659,2)</title></rect><rect x="366" y="200" width="6" height="0" stroke="black" stroke-width="1" fill="blue" opacity="1" tooltip="enable"><title>(0.0963453,0)</title></rect><rect x="372" y="199.599" width="6" height="0.400802" stroke="black" stroke-width="1" fill="blue" opacity="1" tooltip="enable"><title>(0.0979248,4)</title></rect><rect x="378" y="199.8" width="6" height="0.200401" stroke="black" stroke-width="1" fill="blue" opacity="1" tooltip="enable"><title>(0.0995042,2)</title></rect><rect x="384" y="199.8" width="6" height="0.200401" stroke="black" stroke-width="1" fill="blue" opacity="1" tooltip="enable"><title>(0.101084,2)</title></rect><rect x="390" y="200" width="6" height="0" stroke="black" stroke-width="1" fill="blue" opacity="1" tooltip="enable"><title>(0.102663,0)</title></rect><rect x="396" y="200" width="6" height="0" stroke="black" stroke-width="1" fill="blue" opacity="1" tooltip="enable"><title>(0.104242,0)</title></rect><rect x="402" y="199.399" width="6" height="0.601202" stroke="black" stroke-width="1" fill="blue" opacity="1" tooltip="enable"><title>(0.105822,6)</title></rect><rect x="408" y="199.599" width="6" height="0.400802" stroke="black" stroke-width="1" fill="blue" opacity="1" tooltip="enable"><title>(0.107401,4)</title></rect><rect x="414" y="200" width="6" height="0" stroke="black" stroke-width="1" fill="blue" opacity="1" tooltip="enable"><title>(0.108981,0)</title></rect><rect x="420" y="199.8" width="6" height="0.200401" stroke="black" stroke-width="1" fill="blue" opacity="1" tooltip="enable"><title>(0.11056,2)</title></rect><rect x="426" y="199.599" width="6" height="0.400802" stroke="black" stroke-width="1" fill="blue" opacity="1" tooltip="enable"><title>(0.11214,4)</title></rect><rect x="432" y="199.8" width="6" height="0.200401" stroke="black" stroke-width="1" fill="blue" opacity="1" tooltip="enable"><title>(0.113719,2)</title></rect><rect x="438" y="200" width="6" height="0" stroke="black" stroke-width="1" fill="blue" opacity="1" tooltip="enable"><title>(0.115299,0)</title></rect><rect x="444" y="199.399" width="6" height="0.601202" stroke="black" stroke-width="1" fill="blue" opacity="1" tooltip="enable"><title>(0.116878,6)</title></rect><rect x="450" y="199.8" width="6" height="0.200401" stroke="black" stroke-width="1" fill="blue" opacity="1" tooltip="enable"><title>(0.118457,2)</title></rect><rect x="456" y="200" width="6" height="0" stroke="black" stroke-width="1" fill="blue" opacity="1" tooltip="enable"><title>(0.120037,0)</title></rect><rect x="462" y="200" width="6" height="0" stroke="black" stroke-width="1" fill="blue" opacity="1" tooltip="enable"><title>(0.121616,0)</title></rect><rect x="468" y="200" width="6" height="0" stroke="black" stroke-width="1" fill="blue" opacity="1" tooltip="enable"><title>(0.123196,0)</title></rect><rect x="474" y="199.8" width="6" height="0.200401" stroke="black" stroke-width="1" fill="blue" opacity="1" tooltip="enable"><title>(0.124775,2)</title></rect><rect x="480" y="199.9" width="6" height="0.1002" stroke="black" stroke-width="1" fill="blue" opacity="1" tooltip="enable"><title>(0.126355,1)</title></rect><rect x="486" y="199.9" width="6" height="0.1002" stroke="black" stroke-width="1" fill="blue" opacity="1" tooltip="enable"><title>(0.127934,1)</title></rect><rect x="492" y="199.699" width="6" height="0.300601" stroke="black" stroke-width="1" fill="blue" opacity="1" tooltip="enable"><title>(0.129513,3)</title></rect><rect x="498" y="199.699" width="6" height="0.300601" stroke="black" stroke-width="1" fill="blue" opacity="1" tooltip="enable"><title>(0.131093,3)</title></rect><rect x="504" y="200" width="6" height="0" stroke="black" stroke-width="1" fill="blue" opacity="1" tooltip="enable"><title>(0.132672,0)</title></rect><rect x="510" y="200" width="6" height="0" stroke="black" stroke-width="1" fill="blue" opacity="1" tooltip="enable"><title>(0.134252,0)</title></rect><rect x="516" y="199.8" width="6" height="0.200401" stroke="black" stroke-width="1" fill="blue" opacity="1" tooltip="enable"><title>(0.135831,2)</title></rect><rect x="522" y="200" width="6" height="0" stroke="black" stroke-width="1" fill="blue" opacity="1" tooltip="enable"><title>(0.137411,0)</title></rect><rect x="528" y="199.8" width="6" height="0.200401" stroke="black" stroke-width="1" fill="blue" opacity="1" tooltip="enable"><title>(0.13899,2)</title></rect><rect x="534" y="199.8" width="6" height="0.200401" stroke="black" stroke-width="1" fill="blue" opacity="1" tooltip="enable"><title>(0.140569,2)</title></rect><rect x="540" y="200" width="6" height="0" stroke="black" stroke-width="1" fill="blue" opacity="1" tooltip="enable"><title>(0.142149,0)</title></rect><rect x="546" y="200" width="6" height="0" stroke="black" stroke-width="1" fill="blue" opacity="1" tooltip="enable"><title>(0.143728,0)</title></rect><rect x="552" y="199.8" width="6" height="0.200401" stroke="black" stroke-width="1" fill="blue" opacity="1" tooltip="enable"><title>(0.145308,2)</title></rect><rect x="558" y="200" width="6" height="0" stroke="black" stroke-width="1" fill="blue" opacity="1" tooltip="enable"><title>(0.146887,0)</title></rect><rect x="564" y="200" width="6" height="0" stroke="black" stroke-width="1" fill="blue" opacity="1" tooltip="enable"><title>(0.148467,0)</title></rect><rect x="570" y="200" width="6" height="0" stroke="black" stroke-width="1" fill="blue" opacity="1" tooltip="enable"><title>(0.150046,0)</title></rect><rect x="576" y="200" width="6" height="0" stroke="black" stroke-width="1" fill="blue" opacity="1" tooltip="enable"><title>(0.151625,0)</title></rect><rect x="582" y="200" width="6" height="0" stroke="black" stroke-width="1" fill="blue" opacity="1" tooltip="enable"><title>(0.153205,0)</title></rect><rect x="588" y="200" width="6" height="0" stroke="black" stroke-width="1" fill="blue" opacity="1" tooltip="enable"><title>(0.154784,0)</title></rect><rect x="594" y="199.9" width="6" height="0.1002" stroke="black" stroke-width="1" fill="blue" opacity="1" tooltip="enable"><title>(0.156364,1)</title></rect><text x="30" y="240" font-size="20" fill="black">0</text>
<text x="600" y="240" font-size="20" fill="black">0.157943</text>
<polyline points="0,220,600,220" stroke="black" stroke-width="1" fill="none" opacity="1"/>
<text x="720" y="20" font-size="20" fill="black">1996</text>
<text x="720" y="200" font-size="20" fill="black">0</text>
<polyline points="660,0,660,200" stroke="black" stroke-width="1" fill="none" opacity="1"/>
</svg>