<?xml version="1.0" standalone="yes"?>
<!-- SVG graphic -->
<svg xmlns='http://www.w3.org/2000/svg' xmlns:xlink='http://www.w3.org/1999/xlink'
 version="1.1">
<rect x="0" y="29.2731" width="6" height="170.727" stroke="black" stroke-width="1" fill="blue" opacity="1" tooltip="enable"><title>(0,869)</title></rect><rect x="6" y="0" width="6" height="200" stroke="black" stroke-width="1" fill="blue" opacity="1" tooltip="enable"><title>(0.0013371,1018)</title></rect><rect x="12" y="5.69743" width="6" height="194.303" stroke="black" stroke-width="1" fill="blue" opacity="1" tooltip="enable"><title>(0.0026742,989)</title></rect><rect x="18" y="48.723" width="6" height="151.277" stroke="black" stroke-width="1" fill="blue" opacity="1" tooltip="enable"><title>(0.0040113,770)</title></rect><rect x="24" y="87.4263" width="6" height="112.574" stroke="black" stroke-width="1" fill="blue" opacity="1" tooltip="enable"><title>(0.00534839,573)</title></rect><rect x="30" y="116.306" width="6" height="83.6935" stroke="black" stroke-width="1" fill="blue" opacity="1" tooltip="enable"><title>(0.00668549,426)</title></rect><rect x="36" y="142.633" width="6" height="57.3674" stroke="black" stroke-width="1" fill="blue" opacity="1" tooltip="enable"><title>(0.00802259,292)</title></rect><rect x="42" y="156.582" width="6" height="43.4185" stroke="black" stroke-width="1" fill="blue" opacity="1" tooltip="enable"><title>(0.00935969,221)</title></rect><rect x="48" y="165.029" width="6" height="34.9705" stroke="black" stroke-width="1" fill="blue" opacity="1" tooltip="enable"><title>(0.0106968,178)</title></rect><rect x="54" y="163.458" width="6" height="36.5422" stroke="black" stroke-width="1" fill="blue" opacity="1" tooltip="enable"><title>(0.0120339,186)</title></rect><rect x="60" y="167.976" width="6" height="32.0236" stroke="black" stroke-width="1" fill="blue" opacity="1" tooltip="enable"><title>(0.013371,163)</title></rect><rect x="66" y="167.191" width="6" height="32.8094" stroke="black" stroke-width="1" fill="blue" opacity="1" tooltip="enable"><title>(0.0147081,167)</title></rect><rect x="72" y="163.065" width="6" height="36.9352" stroke="black" stroke-width="1" fill="blue" opacity="1" tooltip="enable"><title>(0.0160452,188)</title></rect><rect x="78" y="171.709" width="6" height="28.2908" stroke="black" stroke-width="1" fill="blue" opacity="1" tooltip="enable"><title>(0.0173823,144)</title></rect><rect x="84" y="168.566" width="6" height="31.4342" stroke="black" stroke-width="1" fill="blue" opacity="1" tooltip="enable"><title>(0.0187194,160)</title></rect><rect x="90" y="176.031" width="6" height="23.9686" stroke="black" stroke-width="1" fill="blue" opacity="1" tooltip="enable"><title>(0.0200565,122)</title></rect><rect x="96" y="174.46" width="6" height="25.5403" stroke="black" stroke-width="1" fill="blue" opacity="1" tooltip="enable"><title>(0.0213936,130)</title></rect><rect x="102" y="179.961" width="6" height="20.0393" stroke="black" stroke-width="1" fill="blue" opacity="1" tooltip="enable"><title>(0.0227307,102)</title></rect><rect x="108" y="178.193" width="6" height="21.8075" stroke="black" stroke-width="1" fill="blue" opacity="1" tooltip="enable"><title>(0.0240678,111)</title></rect><rect x="114" y="175.246" width="6" height="24.7544" stroke="black" stroke-width="1" fill="blue" opacity="1" tooltip="enable"><title>(0.0254049,126)</title></rect><rect x="120" y="180.943" width="6" height="19.057" stroke="black" stroke-width="1" fill="blue" opacity="1" tooltip="enable"><title>(0.026742,97)</title></rect><rect x="126" y="179.961" width="6" height="20.0393" stroke="black" stroke-width="1" fill="blue" opacity="1" tooltip="enable"><title>(0.0280791,102)</title></rect><rect x="132" y="183.694" width="6" height="16.3065" stroke="black" stroke-width="1" fill="blue" opacity="1" tooltip="enable"><title>(0.0294162,83)</title></rect><rect x="138" y="182.908" width="6" height="17.0923" stroke="black" stroke-width="1" fill="blue" opacity="1" tooltip="enable"><title>(0.0307533,87)</title></rect><rect x="144" y="182.318" width="6" height="17.6817" stroke="black" stroke-width="1" fill="blue" opacity="1" tooltip="enable"><title>(0.0320904,90)</title></rect><rect x="150" y="187.033" width="6" height="12.9666" stroke="black" stroke-width="1" fill="blue" opacity="1" tooltip="enable"><title>(0.0334275,66)</title></rect><rect x="156" y="185.069" width="6" height="14.9312" stroke="black" stroke-width="1" fill="blue" opacity="1" tooltip="enable"><title>(0.0347646,76)</title></rect><rect x="162" y="187.033" width="6" height="12.9666" stroke="black" stroke-width="1" fill="blue" opacity="1" tooltip="enable"><title>(0.0361017,66)</title></rect><rect x="168" y="188.998" width="6" height="11.002" stroke="black" stroke-width="1" fill="blue" opacity="1" tooltip="enable"><title>(0.0374388,56)</title></rect><rect x="174" y="188.802" width="6" height="11.1984" stroke="black" stroke-width="1" fill="blue" opacity="1" tooltip="enable"><title>(0.0387759,57)</title></rect><rect x="180" y="190.57" width="6" height="9.43026" stroke="black" stroke-width="1" fill="blue" opacity="1" tooltip="enable"><title>(0.040113,48)</title></rect><rect x="186" y="191.945" width="6" height="8.05501" stroke="black" stroke-width="1" fill="blue" opacity="1" tooltip="enable"><title>(0.0414501,41)</title></rect><rect x="192" y="195.678" width="6" height="4.3222" stroke="black" stroke-width="1" fill="blue" opacity="1" tooltip="enable"><title>(0.0427872,22)</title></rect><rect x="198" y="192.141" width="6" height="7.85855" stroke="black" stroke-width="1" fill="blue" opacity="1" tooltip="enable"><title>(0.0441243,40)</title></rect><rect x="204" y="196.071" width="6" height="3.92927" stroke="black" stroke-width="1" fill="blue" opacity="1" tooltip="enable"><title>(0.0454614,20)</title></rect><rect x="210" y="197.25" width="6" height="2.75049" stroke="black" stroke-width="1" fill="blue" opacity="1" tooltip="enable"><title>(0.0467985,14)</title></rect><rect x="216" y="196.071" width="6" height="3.92927" stroke="black" stroke-width="1" fill="blue" opacity="1" tooltip="enable"><title>(0.0481356,20)</title></rect><rect x="222" y="196.464" width="6" height="3.53635" stroke="black" stroke-width="1" fill="blue" opacity="1" tooltip="enable"><title>(0.0494726,18)</title></rect><rect x="228" y="197.25" width="6" height="2.75049" stroke="black" stroke-width="1" fill="blue" opacity="1" tooltip="enable"><title>(0.0508097,14)</title></rect><rect x="234" y="198.035" width="6" height="1.96464" stroke="black" stroke-width="1" fill="blue" opacity="1" tooltip="enable"><title>(0.0521468,10)</title></rect><rect x="240" y="198.428" width="6" height="1.57171" stroke="black" stroke-width="1" fill="blue" opacity="1" tooltip="enable"><title>(0.0534839,8)</title></rect><rect x="246" y="198.821" width="6" height="1.17878" stroke="black" stroke-width="1" fill="blue" opacity="1" tooltip="enable"><title>(0.054821,6)</title></rect><rect x="252" y="198.428" width="6" height="1.57171" stroke="black" stroke-width="1" fill="blue" opacity="1" tooltip="enable"><title>(0.0561581,8)</title></rect><rect x="258" y="199.214" width="6" height="0.785855" stroke="black" stroke-width="1" fill="blue" opacity="1" tooltip="enable"><title>(0.0574952,4)</title></rect><rect x="264" y="199.607" width="6" height="0.392927" stroke="black" stroke-width="1" fill="blue" opacity="1" tooltip="enable"><title>(0.0588323,2)</title></rect><rect x="270" y="200" width="6" height="0" stroke="black" stroke-width="1" fill="blue" opacity="1" tooltip="enable"><title>(0.0601694,0)</title></rect><rect x="276" y="200" width="6" height="0" stroke="black" stroke-width="1" fill="blue" opacity="1" tooltip="enable"><title>(0.0615065,0)</title></rect><rect x="282" y="200" width="6" height="0" stroke="black" stroke-width="1" fill="blue" opacity="1" tooltip="enable"><title>(0.0628436,0)</title></rect><rect x="288" y="199.607" width="6" height="0.392927" stroke="black" stroke-width="1" fill="blue" opacity="1" tooltip="enable"><title>(0.0641807,2)</title></rect><rect x="294" y="200" width="6" height="0" stroke="black" stroke-width="1" fill="blue" opacity="1" tooltip="enable"><title>(0.0655178,0)</title></rect><rect x="300" y="200" width="6" height="0" stroke="black" stroke-width="1" fill="blue" opacity="1" tooltip="enable"><title>(0.0668549,0)</title></rect><rect x="306" y="200" width="6" height="0" stroke="black" stroke-width="1" fill="blue" opacity="1" tooltip="enable"><title>(0.068192,0)</title></rect><rect x="312" y="200" width="6" height="0" stroke="black" stroke-width="1" fill="blue" opacity="1" tooltip="enable"><title>(0.0695291,0)</title></rect><rect x="318" y="200" width="6" height="0" stroke="black" stroke-width="1" fill="blue" opacity="1" tooltip="enable"><title>(0.0708662,0)</title></rect><rect x="324" y="200" width="6" height="0" stroke="black" stroke-width="1" fill="blue" opacity="1" tooltip="enable"><title>(0.0722033,0)</title></rect><rect x="330" y="200" width="6" height="0" stroke="black" stroke-width="1" fill="blue" opacity="1" tooltip="enable"><title>(0.0735404,0)</title></rect><rect x="336" y="200" width="6" height="0" stroke="black" stroke-width="1" fill="blue" opacity="1" tooltip="enable"><title>(0.0748775,0)</title></rect><rect x="342" y="200" width="6" height="0" stroke="black" stroke-width="1" fill="blue" opacity="1" tooltip="enable"><title>(0.0762146,0)</title></rect><rect x="348" y="200" width="6" height="0" stroke="black" stroke-width="1" fill="blue" opacity="1" tooltip="enable"><title>(0.0775517,0)</title></rect><rect x="354" y="200" width="6" height="0" stroke="black" stroke-width="1" fill="blue" opacity="1" tooltip="enable"><title>(0.0788888,0)</title></rect><rect x="360" y="200" width="6" height="0" stroke="black" stroke-width="1" fill="blue" opacity="1" tooltip="enable"><title>(0.0802259,0)</title></rect><rect x="366" y="200" width="6" height="0" stroke="black" stroke-width="1" fill="blue" opacity="1" tooltip="enable"><title>(0.081563,0)</title></rect><rect x="372" y="200" width="6" height="0" stroke="black" stroke-width="1" fill="blue" opacity="1" tooltip="enable"><title>(0.0829001,0)</title></rect><rect x="378" y="200" width="6" height="0" stroke="black" stroke-width="1" fill="blue" opacity="1" tooltip="enable"><title>(0.0842372,0)</title></rect><rect x="384" y="200" width="6" height="0" stroke="black" stroke-width="1" fill="blue" opacity="1" tooltip="enable"><title>(0.0855743,0)</title></rect><rect x="390" y="200" width="6" height="0" stroke="black" stroke-width="1" fill="blue" opacity="1" tooltip="enable"><title>(0.0869114,0)</title></rect><rect x="396" y="200" width="6" height="0" stroke="black" stroke-width="1" fill="blue" opacity="1" tooltip="enable"><title>(0.0882485,0)</title></rect><rect x="402" y="199.607" width="6" height="0.392927" stroke="black" stroke-width="1" fill="blue" opacity="1" tooltip="enable"><title>(0.0895856,2)</title></rect><rect x="408" y="200" width="6" height="0" stroke="black" stroke-width="1" fill="blue" opacity="1" tooltip="enable"><title>(0.0909227,0)</title></rect><rect x="414" y="200" width="6" height="0" stroke="black" stroke-width="1" fill="blue" opacity="1" tooltip="enable"><title>(0.0922598,0)</title></rect><rect x="420" y="200" width="6" height="0" stroke="black" stroke-width="1" fill="blue" opacity="1" tooltip="enable"><title>(0.0935969,0)</title></rect><rect x="426" y="200" width="6" height="0" stroke="black" stroke-width="1" fill="blue" opacity="1" tooltip="enable"><title>(0.094934,0)</title></rect><rect x="432" y="200" width="6" height="0" stroke="black" stroke-width="1" fill="blue" opacity="1" tooltip="enable"><title>(0.0962711,0)</title></rect><rect x="438" y="200" width="6" height="0" stroke="black" stroke-width="1" fill="blue" opacity="1" tooltip="enable"><title>(0.0976082,0)</title></rect><rect x="444" y="200" width="6" height="0" stroke="black" stroke-width="1" fill="blue" opacity="1" tooltip="enable"><title>(0.0989453,0)</title></rect><rect x="450" y="200" width="6" height="0" stroke="black" stroke-width="1" fill="blue" opacity="1" tooltip="enable"><title>(0.100282,0)</title></rect><rect x="456" y="200" width="6" height="0" stroke="black" stroke-width="1" fill="blue" opacity="1" tooltip="enable"><title>(0.101619,0)</title></rect><rect x="462" y="200" width="6" height="0" stroke="black" stroke-width="1" fill="blue" opacity="1" tooltip="enable"><title>(0.102957,0)</title></rect><rect x="468" y="200" width="6" height="0" stroke="black" stroke-width="1" fill="blue" opacity="1" tooltip="enable"><title>(0.104294,0)</title></rect><rect x="474" y="200" width="6" height="0" stroke="black" stroke-width="1" fill="blue" opacity="1" tooltip="enable"><title>(0.105631,0)</title></rect><rect x="480" y="200" width="6" height="0" stroke="black" stroke-width="1" fill="blue" opacity="1" tooltip="enable"><title>(0.106968,0)</title></rect><rect x="486" y="200" width="6" height="0" stroke="black" stroke-width="1" fill="blue" opacity="1" tooltip="enable"><title>(0.108305,0)</title></rect><rect x="492" y="200" width="6" height="0" stroke="black" stroke-width="1" fill="blue" opacity="1" tooltip="enable"><title>(0.109642,0)</title></rect><rect x="498" y="200" width="6" height="0" stroke="black" stroke-width="1" fill="blue" opacity="1" tooltip="enable"><title>(0.110979,0)</title></rect><rect x="504" y="200" width="6" height="0" stroke="black" stroke-width="1" fill="blue" opacity="1" tooltip="enable"><title>(0.112316,0)</title></rect><rect x="510" y="199.607" width="6" height="0.392927" stroke="black" stroke-width="1" fill="blue" opacity="1" tooltip="enable"><title>(0.113653,2)</title></rect><rect x="516" y="200" width="6" height="0" stroke="black" stroke-width="1" fill="blue" opacity="1" tooltip="enable"><title>(0.11499,0)</title></rect><rect x="522" y="200" width="6" height="0" stroke="black" stroke-width="1" fill="blue" opacity="1" tooltip="enable"><title>(0.116328,0)</title></rect><rect x="528" y="200" width="6" height="0" stroke="black" stroke-width="1" fill="blue" opacity="1" tooltip="enable"><title>(0.117665,0)</title></rect><rect x="534" y="199.607" width="6" height="0.392927" stroke="black" stroke-width="1" fill="blue" opacity="1" tooltip="enable"><title>(0.119002,2)</title></rect><rect x="540" y="200" width="6" height="0" stroke="black" stroke-width="1" fill="blue" opacity="1" tooltip="enable"><title>(0.120339,0)</title></rect><rect x="546" y="200" width="6" height="0" stroke="black" stroke-width="1" fill="blue" opacity="1" tooltip="enable"><title>(0.121676,0)</title></rect><rect x="552" y="200" width="6" height="0" stroke="black" stroke-width="1" fill="blue" opacity="1" tooltip="enable"><title>(0.123013,0)</title></rect><rect x="558" y="200" width="6" height="0" stroke="black" stroke-width="1" fill="blue" opacity="1" tooltip="enable"><title>(0.12435,0)</title></rect><rect x="564" y="200" width="6" height="0" stroke="black" stroke-width="1" fill="blue" opacity="1" tooltip="enable"><title>(0.125687,0)</title></rect><rect x="570" y="200" width="6" height="0" stroke="black" stroke-width="1" fill="blue" opacity="1" tooltip="enable"><title>(0.127024,0)</title></rect><rect x="576" y="200" width="6" height="0" stroke="black" stroke-width="1" fill="blue" opacity="1" tooltip="enable"><title>(0.128361,0)</title></rect><rect x="582" y="200" width="6" height="0" stroke="black" stroke-width="1" fill="blue" opacity="1" tooltip="enable"><title>(0.129699,0)</title></rect><rect x="588" y="200" width="6" height="0" stroke="black" stroke-width="1" fill="blue" opacity="1" tooltip="enable"><title>(0.131036,0)</title></rect><rect x="594" y="199.804" width="6" height="0.196464" stroke="black" stroke-width="1" fill="blue" opacity="1" tooltip="enable"><title>(0.132373,1)</title></rect><text x="30" y="240" font-size="20" fill="black">0</text>
<text x="600" y="240" font-size="20" fill="black">0.13371</text>
<polyline points="0,220,600,220" stroke="black" stroke-width="1" fill="none" opacity="1"/>
<text x="720" y="20" font-size="20" fill="black">1018</text>
<text x="720" y="200" font-size="20" fill="black">0</text>
<polyline points="660,0,660,200" stroke="black" stroke-width="1" fill="none" opacity="1"/>
</svg>