<?xml version="1.0" standalone="yes"?>
<!-- SVG graphic -->
<svg xmlns='http://www.w3.org/2000/svg' xmlns:xlink='http://www.w3.org/1999/xlink'
 version="1.1">
<rect x="0" y="5.01222" width="6" height="194.988" stroke="black" stroke-width="1" fill="blue" opacity="1" tooltip="enable"><title>(0,1595)</title></rect><rect x="6" y="0" width="6" height="200" stroke="black" stroke-width="1" fill="blue" opacity="1" tooltip="enable"><title>(0.0014203,1636)</title></rect><rect x="12" y="83.9853" width="6" height="116.015" stroke="black" stroke-width="1" fill="blue" opacity="1" tooltip="enable"><title>(0.00284061,949)</title></rect><rect x="18" y="165.526" width="6" height="34.4743" stroke="black" stroke-width="1" fill="blue" opacity="1" tooltip="enable"><title>(0.00426091,282)</title></rect><rect x="24" y="179.34" width="6" height="20.6601" stroke="black" stroke-width="1" fill="blue" opacity="1" tooltip="enable"><title>(0.00568121,169)</title></rect><rect x="30" y="187.286" width="6" height="12.7139" stroke="black" stroke-width="1" fill="blue" opacity="1" tooltip="enable"><title>(0.00710152,104)</title></rect><rect x="36" y="187.164" width="6" height="12.8362" stroke="black" stroke-width="1" fill="blue" opacity="1" tooltip="enable"><title>(0.00852182,105)</title></rect><rect x="42" y="182.885" width="6" height="17.1149" stroke="black" stroke-width="1" fill="blue" opacity="1" tooltip="enable"><title>(0.00994212,140)</title></rect><rect x="48" y="184.841" width="6" height="15.1589" stroke="black" stroke-width="1" fill="blue" opacity="1" tooltip="enable"><title>(0.0113624,124)</title></rect><rect x="54" y="190.342" width="6" height="9.6577" stroke="black" stroke-width="1" fill="blue" opacity="1" tooltip="enable"><title>(0.0127827,79)</title></rect><rect x="60" y="184.719" width="6" height="15.2812" stroke="black" stroke-width="1" fill="blue" opacity="1" tooltip="enable"><title>(0.014203,125)</title></rect><rect x="66" y="186.797" width="6" height="13.2029" stroke="black" stroke-width="1" fill="blue" opacity="1" tooltip="enable"><title>(0.0156233,108)</title></rect><rect x="72" y="184.352" width="6" height="15.6479" stroke="black" stroke-width="1" fill="blue" opacity="1" tooltip="enable"><title>(0.0170436,128)</title></rect><rect x="78" y="183.619" width="6" height="16.3814" stroke="black" stroke-width="1" fill="blue" opacity="1" tooltip="enable"><title>(0.0184639,134)</title></rect><rect x="84" y="181.663" width="6" height="18.3374" stroke="black" stroke-width="1" fill="blue" opacity="1" tooltip="enable"><title>(0.0198842,150)</title></rect><rect x="90" y="185.697" width="6" height="14.3032" stroke="black" stroke-width="1" fill="blue" opacity="1" tooltip="enable"><title>(0.0213046,117)</title></rect><rect x="96" y="184.474" width="6" height="15.5257" stroke="black" stroke-width="1" fill="blue" opacity="1" tooltip="enable"><title>(0.0227249,127)</title></rect><rect x="102" y="184.597" width="6" height="15.4034" stroke="black" stroke-width="1" fill="blue" opacity="1" tooltip="enable"><title>(0.0241452,126)</title></rect><rect x="108" y="184.597" width="6" height="15.4034" stroke="black" stroke-width="1" fill="blue" opacity="1" tooltip="enable"><title>(0.0255655,126)</title></rect><rect x="114" y="183.863" width="6" height="16.1369" stroke="black" stroke-width="1" fill="blue" opacity="1" tooltip="enable"><title>(0.0269858,132)</title></rect><rect x="120" y="188.753" width="6" height="11.2469" stroke="black" stroke-width="1" fill="blue" opacity="1" tooltip="enable"><title>(0.0284061,92)</title></rect><rect x="126" y="188.998" width="6" height="11.0024" stroke="black" stroke-width="1" fill="blue" opacity="1" tooltip="enable"><title>(0.0298264,90)</title></rect><rect x="132" y="185.941" width="6" height="14.0587" stroke="black" stroke-width="1" fill="blue" opacity="1" tooltip="enable"><title>(0.0312467,115)</title></rect><rect x="138" y="187.286" width="6" height="12.7139" stroke="black" stroke-width="1" fill="blue" opacity="1" tooltip="enable"><title>(0.032667,104)</title></rect><rect x="144" y="187.042" width="6" height="12.9584" stroke="black" stroke-width="1" fill="blue" opacity="1" tooltip="enable"><title>(0.0340873,106)</title></rect><rect x="150" y="185.941" width="6" height="14.0587" stroke="black" stroke-width="1" fill="blue" opacity="1" tooltip="enable"><title>(0.0355076,115)</title></rect><rect x="156" y="185.452" width="6" height="14.5477" stroke="black" stroke-width="1" fill="blue" opacity="1" tooltip="enable"><title>(0.0369279,119)</title></rect><rect x="162" y="189.242" width="6" height="10.7579" stroke="black" stroke-width="1" fill="blue" opacity="1" tooltip="enable"><title>(0.0383482,88)</title></rect><rect x="168" y="190.465" width="6" height="9.53545" stroke="black" stroke-width="1" fill="blue" opacity="1" tooltip="enable"><title>(0.0397685,78)</title></rect><rect x="174" y="191.076" width="6" height="8.9242" stroke="black" stroke-width="1" fill="blue" opacity="1" tooltip="enable"><title>(0.0411888,73)</title></rect><rect x="180" y="191.076" width="6" height="8.9242" stroke="black" stroke-width="1" fill="blue" opacity="1" tooltip="enable"><title>(0.0426091,73)</title></rect><rect x="186" y="193.276" width="6" height="6.72372" stroke="black" stroke-width="1" fill="blue" opacity="1" tooltip="enable"><title>(0.0440294,55)</title></rect><rect x="192" y="192.91" width="6" height="7.09046" stroke="black" stroke-width="1" fill="blue" opacity="1" tooltip="enable"><title>(0.0454497,58)</title></rect><rect x="198" y="192.421" width="6" height="7.57946" stroke="black" stroke-width="1" fill="blue" opacity="1" tooltip="enable"><title>(0.04687,62)</title></rect><rect x="204" y="197.555" width="6" height="2.44499" stroke="black" stroke-width="1" fill="blue" opacity="1" tooltip="enable"><title>(0.0482903,20)</title></rect><rect x="210" y="195.355" width="6" height="4.64548" stroke="black" stroke-width="1" fill="blue" opacity="1" tooltip="enable"><title>(0.0497106,38)</title></rect><rect x="216" y="197.066" width="6" height="2.93399" stroke="black" stroke-width="1" fill="blue" opacity="1" tooltip="enable"><title>(0.0511309,24)</title></rect><rect x="222" y="197.311" width="6" height="2.68949" stroke="black" stroke-width="1" fill="blue" opacity="1" tooltip="enable"><title>(0.0525512,22)</title></rect><rect x="228" y="197.555" width="6" height="2.44499" stroke="black" stroke-width="1" fill="blue" opacity="1" tooltip="enable"><title>(0.0539715,20)</title></rect><rect x="234" y="197.066" width="6" height="2.93399" stroke="black" stroke-width="1" fill="blue" opacity="1" tooltip="enable"><title>(0.0553918,24)</title></rect><rect x="240" y="197.066" width="6" height="2.93399" stroke="black" stroke-width="1" fill="blue" opacity="1" tooltip="enable"><title>(0.0568121,24)</title></rect><rect x="246" y="197.8" width="6" height="2.20049" stroke="black" stroke-width="1" fill="blue" opacity="1" tooltip="enable"><title>(0.0582324,18)</title></rect><rect x="252" y="197.433" width="6" height="2.56724" stroke="black" stroke-width="1" fill="blue" opacity="1" tooltip="enable"><title>(0.0596527,21)</title></rect><rect x="258" y="199.511" width="6" height="0.488998" stroke="black" stroke-width="1" fill="blue" opacity="1" tooltip="enable"><title>(0.061073,4)</title></rect><rect x="264" y="197.922" width="6" height="2.07824" stroke="black" stroke-width="1" fill="blue" opacity="1" tooltip="enable"><title>(0.0624934,17)</title></rect><rect x="270" y="199.267" width="6" height="0.733496" stroke="black" stroke-width="1" fill="blue" opacity="1" tooltip="enable"><title>(0.0639137,6)</title></rect><rect x="276" y="198.044" width="6" height="1.95599" stroke="black" stroke-width="1" fill="blue" opacity="1" tooltip="enable"><title>(0.065334,16)</title></rect><rect x="282" y="198.411" width="6" height="1.58924" stroke="black" stroke-width="1" fill="blue" opacity="1" tooltip="enable"><title>(0.0667543,13)</title></rect><rect x="288" y="199.633" width="6" height="0.366748" stroke="black" stroke-width="1" fill="blue" opacity="1" tooltip="enable"><title>(0.0681746,3)</title></rect><rect x="294" y="200" width="6" height="0" stroke="black" stroke-width="1" fill="blue" opacity="1" tooltip="enable"><title>(0.0695949,0)</title></rect><rect x="300" y="200" width="6" height="0" stroke="black" stroke-width="1" fill="blue" opacity="1" tooltip="enable"><title>(0.0710152,0)</title></rect><rect x="306" y="200" width="6" height="0" stroke="black" stroke-width="1" fill="blue" opacity="1" tooltip="enable"><title>(0.0724355,0)</title></rect><rect x="312" y="199.511" width="6" height="0.488998" stroke="black" stroke-width="1" fill="blue" opacity="1" tooltip="enable"><title>(0.0738558,4)</title></rect><rect x="318" y="199.756" width="6" height="0.244499" stroke="black" stroke-width="1" fill="blue" opacity="1" tooltip="enable"><title>(0.0752761,2)</title></rect><rect x="324" y="199.756" width="6" height="0.244499" stroke="black" stroke-width="1" fill="blue" opacity="1" tooltip="enable"><title>(0.0766964,2)</title></rect><rect x="330" y="199.756" width="6" height="0.244499" stroke="black" stroke-width="1" fill="blue" opacity="1" tooltip="enable"><title>(0.0781167,2)</title></rect><rect x="336" y="200" width="6" height="0" stroke="black" stroke-width="1" fill="blue" opacity="1" tooltip="enable"><title>(0.079537,0)</title></rect><rect x="342" y="199.878" width="6" height="0.122249" stroke="black" stroke-width="1" fill="blue" opacity="1" tooltip="enable"><title>(0.0809573,1)</title></rect><rect x="348" y="199.878" width="6" height="0.122249" stroke="black" stroke-width="1" fill="blue" opacity="1" tooltip="enable"><title>(0.0823776,1)</title></rect><rect x="354" y="200" width="6" height="0" stroke="black" stroke-width="1" fill="blue" opacity="1" tooltip="enable"><title>(0.0837979,0)</title></rect><rect x="360" y="200" width="6" height="0" stroke="black" stroke-width="1" fill="blue" opacity="1" tooltip="enable"><title>(0.0852182,0)</title></rect><rect x="366" y="200" width="6" height="0" stroke="black" stroke-width="1" fill="blue" opacity="1" tooltip="enable"><title>(0.0866385,0)</title></rect><rect x="372" y="200" width="6" height="0" stroke="black" stroke-width="1" fill="blue" opacity="1" tooltip="enable"><title>(0.0880588,0)</title></rect><rect x="378" y="199.389" width="6" height="0.611247" stroke="black" stroke-width="1" fill="blue" opacity="1" tooltip="enable"><title>(0.0894791,5)</title></rect><rect x="384" y="199.878" width="6" height="0.122249" stroke="black" stroke-width="1" fill="blue" opacity="1" tooltip="enable"><title>(0.0908994,1)</title></rect><rect x="390" y="199.756" width="6" height="0.244499" stroke="black" stroke-width="1" fill="blue" opacity="1" tooltip="enable"><title>(0.0923197,2)</title></rect><rect x="396" y="200" width="6" height="0" stroke="black" stroke-width="1" fill="blue" opacity="1" tooltip="enable"><title>(0.09374,0)</title></rect><rect x="402" y="200" width="6" height="0" stroke="black" stroke-width="1" fill="blue" opacity="1" tooltip="enable"><title>(0.0951603,0)</title></rect><rect x="408" y="199.756" width="6" height="0.244499" stroke="black" stroke-width="1" fill="blue" opacity="1" tooltip="enable"><title>(0.0965806,2)</title></rect><rect x="414" y="199.756" width="6" height="0.244499" stroke="black" stroke-width="1" fill="blue" opacity="1" tooltip="enable"><title>(0.0980009,2)</title></rect><rect x="420" y="199.756" width="6" height="0.244499" stroke="black" stroke-width="1" fill="blue" opacity="1" tooltip="enable"><title>(0.0994212,2)</title></rect><rect x="426" y="200" width="6" height="0" stroke="black" stroke-width="1" fill="blue" opacity="1" tooltip="enable"><title>(0.100842,0)</title></rect><rect x="432" y="200" width="6" height="0" stroke="black" stroke-width="1" fill="blue" opacity="1" tooltip="enable"><title>(0.102262,0)</title></rect><rect x="438" y="200" width="6" height="0" stroke="black" stroke-width="1" fill="blue" opacity="1" tooltip="enable"><title>(0.103682,0)</title></rect><rect x="444" y="200" width="6" height="0" stroke="black" stroke-width="1" fill="blue" opacity="1" tooltip="enable"><title>(0.105102,0)</title></rect><rect x="450" y="199.511" width="6" height="0.488998" stroke="black" stroke-width="1" fill="blue" opacity="1" tooltip="enable"><title>(0.106523,4)</title></rect><rect x="456" y="199.756" width="6" height="0.244499" stroke="black" stroke-width="1" fill="blue" opacity="1" tooltip="enable"><title>(0.107943,2)</title></rect><rect x="462" y="200" width="6" height="0" stroke="black" stroke-width="1" fill="blue" opacity="1" tooltip="enable"><title>(0.109363,0)</title></rect><rect x="468" y="200" width="6" height="0" stroke="black" stroke-width="1" fill="blue" opacity="1" tooltip="enable"><title>(0.110784,0)</title></rect><rect x="474" y="199.756" width="6" height="0.244499" stroke="black" stroke-width="1" fill="blue" opacity="1" tooltip="enable"><title>(0.112204,2)</title></rect><rect x="480" y="200" width="6" height="0" stroke="black" stroke-width="1" fill="blue" opacity="1" tooltip="enable"><title>(0.113624,0)</title></rect><rect x="486" y="200" width="6" height="0" stroke="black" stroke-width="1" fill="blue" opacity="1" tooltip="enable"><title>(0.115045,0)</title></rect><rect x="492" y="199.756" width="6" height="0.244499" stroke="black" stroke-width="1" fill="blue" opacity="1" tooltip="enable"><title>(0.116465,2)</title></rect><rect x="498" y="200" width="6" height="0" stroke="black" stroke-width="1" fill="blue" opacity="1" tooltip="enable"><title>(0.117885,0)</title></rect><rect x="504" y="200" width="6" height="0" stroke="black" stroke-width="1" fill="blue" opacity="1" tooltip="enable"><title>(0.119305,0)</title></rect><rect x="510" y="200" width="6" height="0" stroke="black" stroke-width="1" fill="blue" opacity="1" tooltip="enable"><title>(0.120726,0)</title></rect><rect x="516" y="199.756" width="6" height="0.244499" stroke="black" stroke-width="1" fill="blue" opacity="1" tooltip="enable"><title>(0.122146,2)</title></rect><rect x="522" y="200" width="6" height="0" stroke="black" stroke-width="1" fill="blue" opacity="1" tooltip="enable"><title>(0.123566,0)</title></rect><rect x="528" y="200" width="6" height="0" stroke="black" stroke-width="1" fill="blue" opacity="1" tooltip="enable"><title>(0.124987,0)</title></rect><rect x="534" y="200" width="6" height="0" stroke="black" stroke-width="1" fill="blue" opacity="1" tooltip="enable"><title>(0.126407,0)</title></rect><rect x="540" y="199.756" width="6" height="0.244499" stroke="black" stroke-width="1" fill="blue" opacity="1" tooltip="enable"><title>(0.127827,2)</title></rect><rect x="546" y="200" width="6" height="0" stroke="black" stroke-width="1" fill="blue" opacity="1" tooltip="enable"><title>(0.129248,0)</title></rect><rect x="552" y="200" width="6" height="0" stroke="black" stroke-width="1" fill="blue" opacity="1" tooltip="enable"><title>(0.130668,0)</title></rect><rect x="558" y="199.511" width="6" height="0.488998" stroke="black" stroke-width="1" fill="blue" opacity="1" tooltip="enable"><title>(0.132088,4)</title></rect><rect x="564" y="200" width="6" height="0" stroke="black" stroke-width="1" fill="blue" opacity="1" tooltip="enable"><title>(0.133509,0)</title></rect><rect x="570" y="200" width="6" height="0" stroke="black" stroke-width="1" fill="blue" opacity="1" tooltip="enable"><title>(0.134929,0)</title></rect><rect x="576" y="200" width="6" height="0" stroke="black" stroke-width="1" fill="blue" opacity="1" tooltip="enable"><title>(0.136349,0)</title></rect><rect x="582" y="200" width="6" height="0" stroke="black" stroke-width="1" fill="blue" opacity="1" tooltip="enable"><title>(0.137769,0)</title></rect><rect x="588" y="200" width="6" height="0" stroke="black" stroke-width="1" fill="blue" opacity="1" tooltip="enable"><title>(0.13919,0)</title></rect><rect x="594" y="199.878" width="6" height="0.122249" stroke="black" stroke-width="1" fill="blue" opacity="1" tooltip="enable"><title>(0.14061,1)</title></rect><text x="30" y="240" font-size="20" fill="black">0</text>
<text x="600" y="240" font-size="20" fill="black">0.14203</text>
<polyline points="0,220,600,220" stroke="black" stroke-width="1" fill="none" opacity="1"/>
<text x="720" y="20" font-size="20" fill="black">1636</text>
<text x="720" y="200" font-size="20" fill="black">0</text>
<polyline points="660,0,660,200" stroke="black" stroke-width="1" fill="none" opacity="1"/>
</svg>