<?xml version="1.0" standalone="yes"?>
<!-- SVG graphic -->
<svg xmlns='http://www.w3.org/2000/svg' xmlns:xlink='http://www.w3.org/1999/xlink'
 version="1.1">
<rect x="0" y="0" width="6" height="200" stroke="black" stroke-width="1" fill="blue" opacity="1" tooltip="enable"><title>(0,1196)</title></rect><rect x="6" y="15.5518" width="6" height="184.448" stroke="black" stroke-width="1" fill="blue" opacity="1" tooltip="enable"><title>(0.00121304,1103)</title></rect><rect x="12" y="31.1037" width="6" height="168.896" stroke="black" stroke-width="1" fill="blue" opacity="1" tooltip="enable"><title>(0.00242608,1010)</title></rect><rect x="18" y="93.1438" width="6" height="106.856" stroke="black" stroke-width="1" fill="blue" opacity="1" tooltip="enable"><title>(0.00363912,639)</title></rect><rect x="24" y="133.445" width="6" height="66.5552" stroke="black" stroke-width="1" fill="blue" opacity="1" tooltip="enable"><title>(0.00485216,398)</title></rect><rect x="30" y="165.217" width="6" height="34.7826" stroke="black" stroke-width="1" fill="blue" opacity="1" tooltip="enable"><title>(0.00606521,208)</title></rect><rect x="36" y="166.722" width="6" height="33.2776" stroke="black" stroke-width="1" fill="blue" opacity="1" tooltip="enable"><title>(0.00727825,199)</title></rect><rect x="42" y="170.067" width="6" height="29.9331" stroke="black" stroke-width="1" fill="blue" opacity="1" tooltip="enable"><title>(0.00849129,179)</title></rect><rect x="48" y="178.93" width="6" height="21.0702" stroke="black" stroke-width="1" fill="blue" opacity="1" tooltip="enable"><title>(0.00970433,126)</title></rect><rect x="54" y="179.431" width="6" height="20.5686" stroke="black" stroke-width="1" fill="blue" opacity="1" tooltip="enable"><title>(0.0109174,123)</title></rect><rect x="60" y="177.759" width="6" height="22.2408" stroke="black" stroke-width="1" fill="blue" opacity="1" tooltip="enable"><title>(0.0121304,133)</title></rect><rect x="66" y="176.589" width="6" height="23.4114" stroke="black" stroke-width="1" fill="blue" opacity="1" tooltip="enable"><title>(0.0133435,140)</title></rect><rect x="72" y="180.435" width="6" height="19.5652" stroke="black" stroke-width="1" fill="blue" opacity="1" tooltip="enable"><title>(0.0145565,117)</title></rect><rect x="78" y="177.759" width="6" height="22.2408" stroke="black" stroke-width="1" fill="blue" opacity="1" tooltip="enable"><title>(0.0157695,133)</title></rect><rect x="84" y="178.595" width="6" height="21.4047" stroke="black" stroke-width="1" fill="blue" opacity="1" tooltip="enable"><title>(0.0169826,128)</title></rect><rect x="90" y="181.605" width="6" height="18.3946" stroke="black" stroke-width="1" fill="blue" opacity="1" tooltip="enable"><title>(0.0181956,110)</title></rect><rect x="96" y="179.599" width="6" height="20.4013" stroke="black" stroke-width="1" fill="blue" opacity="1" tooltip="enable"><title>(0.0194087,122)</title></rect><rect x="102" y="173.077" width="6" height="26.9231" stroke="black" stroke-width="1" fill="blue" opacity="1" tooltip="enable"><title>(0.0206217,161)</title></rect><rect x="108" y="180.936" width="6" height="19.0635" stroke="black" stroke-width="1" fill="blue" opacity="1" tooltip="enable"><title>(0.0218347,114)</title></rect><rect x="114" y="183.946" width="6" height="16.0535" stroke="black" stroke-width="1" fill="blue" opacity="1" tooltip="enable"><title>(0.0230478,96)</title></rect><rect x="120" y="183.779" width="6" height="16.2207" stroke="black" stroke-width="1" fill="blue" opacity="1" tooltip="enable"><title>(0.0242608,97)</title></rect><rect x="126" y="184.281" width="6" height="15.7191" stroke="black" stroke-width="1" fill="blue" opacity="1" tooltip="enable"><title>(0.0254739,94)</title></rect><rect x="132" y="185.619" width="6" height="14.3813" stroke="black" stroke-width="1" fill="blue" opacity="1" tooltip="enable"><title>(0.0266869,86)</title></rect><rect x="138" y="184.783" width="6" height="15.2174" stroke="black" stroke-width="1" fill="blue" opacity="1" tooltip="enable"><title>(0.0278999,91)</title></rect><rect x="144" y="186.12" width="6" height="13.8796" stroke="black" stroke-width="1" fill="blue" opacity="1" tooltip="enable"><title>(0.029113,83)</title></rect><rect x="150" y="184.615" width="6" height="15.3846" stroke="black" stroke-width="1" fill="blue" opacity="1" tooltip="enable"><title>(0.030326,92)</title></rect><rect x="156" y="185.452" width="6" height="14.5485" stroke="black" stroke-width="1" fill="blue" opacity="1" tooltip="enable"><title>(0.0315391,87)</title></rect><rect x="162" y="183.779" width="6" height="16.2207" stroke="black" stroke-width="1" fill="blue" opacity="1" tooltip="enable"><title>(0.0327521,97)</title></rect><rect x="168" y="185.619" width="6" height="14.3813" stroke="black" stroke-width="1" fill="blue" opacity="1" tooltip="enable"><title>(0.0339652,86)</title></rect><rect x="174" y="184.281" width="6" height="15.7191" stroke="black" stroke-width="1" fill="blue" opacity="1" tooltip="enable"><title>(0.0351782,94)</title></rect><rect x="180" y="189.13" width="6" height="10.8696" stroke="black" stroke-width="1" fill="blue" opacity="1" tooltip="enable"><title>(0.0363912,65)</title></rect><rect x="186" y="192.475" width="6" height="7.52508" stroke="black" stroke-width="1" fill="blue" opacity="1" tooltip="enable"><title>(0.0376043,45)</title></rect><rect x="192" y="188.963" width="6" height="11.0368" stroke="black" stroke-width="1" fill="blue" opacity="1" tooltip="enable"><title>(0.0388173,66)</title></rect><rect x="198" y="191.973" width="6" height="8.02676" stroke="black" stroke-width="1" fill="blue" opacity="1" tooltip="enable"><title>(0.0400304,48)</title></rect><rect x="204" y="190.301" width="6" height="9.699" stroke="black" stroke-width="1" fill="blue" opacity="1" tooltip="enable"><title>(0.0412434,58)</title></rect><rect x="210" y="193.478" width="6" height="6.52174" stroke="black" stroke-width="1" fill="blue" opacity="1" tooltip="enable"><title>(0.0424564,39)</title></rect><rect x="216" y="192.809" width="6" height="7.19064" stroke="black" stroke-width="1" fill="blue" opacity="1" tooltip="enable"><title>(0.0436695,43)</title></rect><rect x="222" y="196.656" width="6" height="3.34448" stroke="black" stroke-width="1" fill="blue" opacity="1" tooltip="enable"><title>(0.0448825,20)</title></rect><rect x="228" y="197.993" width="6" height="2.00669" stroke="black" stroke-width="1" fill="blue" opacity="1" tooltip="enable"><title>(0.0460956,12)</title></rect><rect x="234" y="196.321" width="6" height="3.67893" stroke="black" stroke-width="1" fill="blue" opacity="1" tooltip="enable"><title>(0.0473086,22)</title></rect><rect x="240" y="196.99" width="6" height="3.01003" stroke="black" stroke-width="1" fill="blue" opacity="1" tooltip="enable"><title>(0.0485216,18)</title></rect><rect x="246" y="196.99" width="6" height="3.01003" stroke="black" stroke-width="1" fill="blue" opacity="1" tooltip="enable"><title>(0.0497347,18)</title></rect><rect x="252" y="198.328" width="6" height="1.67224" stroke="black" stroke-width="1" fill="blue" opacity="1" tooltip="enable"><title>(0.0509477,10)</title></rect><rect x="258" y="197.324" width="6" height="2.67559" stroke="black" stroke-width="1" fill="blue" opacity="1" tooltip="enable"><title>(0.0521608,16)</title></rect><rect x="264" y="198.328" width="6" height="1.67224" stroke="black" stroke-width="1" fill="blue" opacity="1" tooltip="enable"><title>(0.0533738,10)</title></rect><rect x="270" y="197.492" width="6" height="2.50836" stroke="black" stroke-width="1" fill="blue" opacity="1" tooltip="enable"><title>(0.0545868,15)</title></rect><rect x="276" y="199.164" width="6" height="0.83612" stroke="black" stroke-width="1" fill="blue" opacity="1" tooltip="enable"><title>(0.0557999,5)</title></rect><rect x="282" y="197.659" width="6" height="2.34114" stroke="black" stroke-width="1" fill="blue" opacity="1" tooltip="enable"><title>(0.0570129,14)</title></rect><rect x="288" y="197.993" width="6" height="2.00669" stroke="black" stroke-width="1" fill="blue" opacity="1" tooltip="enable"><title>(0.058226,12)</title></rect><rect x="294" y="198.662" width="6" height="1.33779" stroke="black" stroke-width="1" fill="blue" opacity="1" tooltip="enable"><title>(0.059439,8)</title></rect><rect x="300" y="198.328" width="6" height="1.67224" stroke="black" stroke-width="1" fill="blue" opacity="1" tooltip="enable"><title>(0.0606521,10)</title></rect><rect x="306" y="198.997" width="6" height="1.00334" stroke="black" stroke-width="1" fill="blue" opacity="1" tooltip="enable"><title>(0.0618651,6)</title></rect><rect x="312" y="199.331" width="6" height="0.668896" stroke="black" stroke-width="1" fill="blue" opacity="1" tooltip="enable"><title>(0.0630781,4)</title></rect><rect x="318" y="198.328" width="6" height="1.67224" stroke="black" stroke-width="1" fill="blue" opacity="1" tooltip="enable"><title>(0.0642912,10)</title></rect><rect x="324" y="198.997" width="6" height="1.00334" stroke="black" stroke-width="1" fill="blue" opacity="1" tooltip="enable"><title>(0.0655042,6)</title></rect><rect x="330" y="198.997" width="6" height="1.00334" stroke="black" stroke-width="1" fill="blue" opacity="1" tooltip="enable"><title>(0.0667173,6)</title></rect><rect x="336" y="198.997" width="6" height="1.00334" stroke="black" stroke-width="1" fill="blue" opacity="1" tooltip="enable"><title>(0.0679303,6)</title></rect><rect x="342" y="198.662" width="6" height="1.33779" stroke="black" stroke-width="1" fill="blue" opacity="1" tooltip="enable"><title>(0.0691433,8)</title></rect><rect x="348" y="198.997" width="6" height="1.00334" stroke="black" stroke-width="1" fill="blue" opacity="1" tooltip="enable"><title>(0.0703564,6)</title></rect><rect x="354" y="199.331" width="6" height="0.668896" stroke="black" stroke-width="1" fill="blue" opacity="1" tooltip="enable"><title>(0.0715694,4)</title></rect><rect x="360" y="199.331" width="6" height="0.668896" stroke="black" stroke-width="1" fill="blue" opacity="1" tooltip="enable"><title>(0.0727825,4)</title></rect><rect x="366" y="200" width="6" height="0" stroke="black" stroke-width="1" fill="blue" opacity="1" tooltip="enable"><title>(0.0739955,0)</title></rect><rect x="372" y="198.997" width="6" height="1.00334" stroke="black" stroke-width="1" fill="blue" opacity="1" tooltip="enable"><title>(0.0752086,6)</title></rect><rect x="378" y="198.997" width="6" height="1.00334" stroke="black" stroke-width="1" fill="blue" opacity="1" tooltip="enable"><title>(0.0764216,6)</title></rect><rect x="384" y="199.331" width="6" height="0.668896" stroke="black" stroke-width="1" fill="blue" opacity="1" tooltip="enable"><title>(0.0776346,4)</title></rect><rect x="390" y="200" width="6" height="0" stroke="black" stroke-width="1" fill="blue" opacity="1" tooltip="enable"><title>(0.0788477,0)</title></rect><rect x="396" y="198.997" width="6" height="1.00334" stroke="black" stroke-width="1" fill="blue" opacity="1" tooltip="enable"><title>(0.0800607,6)</title></rect><rect x="402" y="199.666" width="6" height="0.334448" stroke="black" stroke-width="1" fill="blue" opacity="1" tooltip="enable"><title>(0.0812738,2)</title></rect><rect x="408" y="198.997" width="6" height="1.00334" stroke="black" stroke-width="1" fill="blue" opacity="1" tooltip="enable"><title>(0.0824868,6)</title></rect><rect x="414" y="200" width="6" height="0" stroke="black" stroke-width="1" fill="blue" opacity="1" tooltip="enable"><title>(0.0836998,0)</title></rect><rect x="420" y="200" width="6" height="0" stroke="black" stroke-width="1" fill="blue" opacity="1" tooltip="enable"><title>(0.0849129,0)</title></rect><rect x="426" y="199.666" width="6" height="0.334448" stroke="black" stroke-width="1" fill="blue" opacity="1" tooltip="enable"><title>(0.0861259,2)</title></rect><rect x="432" y="200" width="6" height="0" stroke="black" stroke-width="1" fill="blue" opacity="1" tooltip="enable"><title>(0.087339,0)</title></rect><rect x="438" y="199.666" width="6" height="0.334448" stroke="black" stroke-width="1" fill="blue" opacity="1" tooltip="enable"><title>(0.088552,2)</title></rect><rect x="444" y="200" width="6" height="0" stroke="black" stroke-width="1" fill="blue" opacity="1" tooltip="enable"><title>(0.089765,0)</title></rect><rect x="450" y="199.666" width="6" height="0.334448" stroke="black" stroke-width="1" fill="blue" opacity="1" tooltip="enable"><title>(0.0909781,2)</title></rect><rect x="456" y="200" width="6" height="0" stroke="black" stroke-width="1" fill="blue" opacity="1" tooltip="enable"><title>(0.0921911,0)</title></rect><rect x="462" y="200" width="6" height="0" stroke="black" stroke-width="1" fill="blue" opacity="1" tooltip="enable"><title>(0.0934042,0)</title></rect><rect x="468" y="199.331" width="6" height="0.668896" stroke="black" stroke-width="1" fill="blue" opacity="1" tooltip="enable"><title>(0.0946172,4)</title></rect><rect x="474" y="200" width="6" height="0" stroke="black" stroke-width="1" fill="blue" opacity="1" tooltip="enable"><title>(0.0958302,0)</title></rect><rect x="480" y="199.666" width="6" height="0.334448" stroke="black" stroke-width="1" fill="blue" opacity="1" tooltip="enable"><title>(0.0970433,2)</title></rect><rect x="486" y="200" width="6" height="0" stroke="black" stroke-width="1" fill="blue" opacity="1" tooltip="enable"><title>(0.0982563,0)</title></rect><rect x="492" y="200" width="6" height="0" stroke="black" stroke-width="1" fill="blue" opacity="1" tooltip="enable"><title>(0.0994694,0)</title></rect><rect x="498" y="200" width="6" height="0" stroke="black" stroke-width="1" fill="blue" opacity="1" tooltip="enable"><title>(0.100682,0)</title></rect><rect x="504" y="200" width="6" height="0" stroke="black" stroke-width="1" fill="blue" opacity="1" tooltip="enable"><title>(0.101895,0)</title></rect><rect x="510" y="200" width="6" height="0" stroke="black" stroke-width="1" fill="blue" opacity="1" tooltip="enable"><title>(0.103108,0)</title></rect><rect x="516" y="200" width="6" height="0" stroke="black" stroke-width="1" fill="blue" opacity="1" tooltip="enable"><title>(0.104322,0)</title></rect><rect x="522" y="200" width="6" height="0" stroke="black" stroke-width="1" fill="blue" opacity="1" tooltip="enable"><title>(0.105535,0)</title></rect><rect x="528" y="200" width="6" height="0" stroke="black" stroke-width="1" fill="blue" opacity="1" tooltip="enable"><title>(0.106748,0)</title></rect><rect x="534" y="200" width="6" height="0" stroke="black" stroke-width="1" fill="blue" opacity="1" tooltip="enable"><title>(0.107961,0)</title></rect><rect x="540" y="200" width="6" height="0" stroke="black" stroke-width="1" fill="blue" opacity="1" tooltip="enable"><title>(0.109174,0)</title></rect><rect x="546" y="200" width="6" height="0" stroke="black" stroke-width="1" fill="blue" opacity="1" tooltip="enable"><title>(0.110387,0)</title></rect><rect x="552" y="200" width="6" height="0" stroke="black" stroke-width="1" fill="blue" opacity="1" tooltip="enable"><title>(0.1116,0)</title></rect><rect x="558" y="200" width="6" height="0" stroke="black" stroke-width="1" fill="blue" opacity="1" tooltip="enable"><title>(0.112813,0)</title></rect><rect x="564" y="200" width="6" height="0" stroke="black" stroke-width="1" fill="blue" opacity="1" tooltip="enable"><title>(0.114026,0)</title></rect><rect x="570" y="200" width="6" height="0" stroke="black" stroke-width="1" fill="blue" opacity="1" tooltip="enable"><title>(0.115239,0)</title></rect><rect x="576" y="200" width="6" height="0" stroke="black" stroke-width="1" fill="blue" opacity="1" tooltip="enable"><title>(0.116452,0)</title></rect><rect x="582" y="200" width="6" height="0" stroke="black" stroke-width="1" fill="blue" opacity="1" tooltip="enable"><title>(0.117665,0)</title></rect><rect x="588" y="200" width="6" height="0" stroke="black" stroke-width="1" fill="blue" opacity="1" tooltip="enable"><title>(0.118878,0)</title></rect><rect x="594" y="199.833" width="6" height="0.167224" stroke="black" stroke-width="1" fill="blue" opacity="1" tooltip="enable"><title>(0.120091,1)</title></rect><text x="30" y="240" font-size="20" fill="black">0</text>
<text x="600" y="240" font-size="20" fill="black">0.121304</text>
<polyline points="0,220,600,220" stroke="black" stroke-width="1" fill="none" opacity="1"/>
<text x="720" y="20" font-size="20" fill="black">1196</text>
<text x="720" y="200" font-size="20" fill="black">0</text>
<polyline points="660,0,660,200" stroke="black" stroke-width="1" fill="none" opacity="1"/>
</svg>