<?xml version="1.0" standalone="yes"?>
<!-- SVG graphic -->
<svg xmlns='http://www.w3.org/2000/svg' xmlns:xlink='http://www.w3.org/1999/xlink'
 version="1.1">
<rect x="0" y="0" width="6" height="200" stroke="black" stroke-width="1" fill="blue" opacity="1" tooltip="enable"><title>(0,1999)</title></rect><rect x="6" y="63.4317" width="6" height="136.568" stroke="black" stroke-width="1" fill="blue" opacity="1" tooltip="enable"><title>(0.0013875,1365)</title></rect><rect x="12" y="135.168" width="6" height="64.8324" stroke="black" stroke-width="1" fill="blue" opacity="1" tooltip="enable"><title>(0.00277501,648)</title></rect><rect x="18" y="159.88" width="6" height="40.1201" stroke="black" stroke-width="1" fill="blue" opacity="1" tooltip="enable"><title>(0.00416251,401)</title></rect><rect x="24" y="176.288" width="6" height="23.7119" stroke="black" stroke-width="1" fill="blue" opacity="1" tooltip="enable"><title>(0.00555002,237)</title></rect><rect x="30" y="185.393" width="6" height="14.6073" stroke="black" stroke-width="1" fill="blue" opacity="1" tooltip="enable"><title>(0.00693752,146)</title></rect><rect x="36" y="189.395" width="6" height="10.6053" stroke="black" stroke-width="1" fill="blue" opacity="1" tooltip="enable"><title>(0.00832502,106)</title></rect><rect x="42" y="184.092" width="6" height="15.908" stroke="black" stroke-width="1" fill="blue" opacity="1" tooltip="enable"><title>(0.00971253,159)</title></rect><rect x="48" y="187.094" width="6" height="12.9065" stroke="black" stroke-width="1" fill="blue" opacity="1" tooltip="enable"><title>(0.0111,129)</title></rect><rect x="54" y="186.393" width="6" height="13.6068" stroke="black" stroke-width="1" fill="blue" opacity="1" tooltip="enable"><title>(0.0124875,136)</title></rect><rect x="60" y="187.794" width="6" height="12.2061" stroke="black" stroke-width="1" fill="blue" opacity="1" tooltip="enable"><title>(0.013875,122)</title></rect><rect x="66" y="185.193" width="6" height="14.8074" stroke="black" stroke-width="1" fill="blue" opacity="1" tooltip="enable"><title>(0.0152625,148)</title></rect><rect x="72" y="183.592" width="6" height="16.4082" stroke="black" stroke-width="1" fill="blue" opacity="1" tooltip="enable"><title>(0.01665,164)</title></rect><rect x="78" y="187.194" width="6" height="12.8064" stroke="black" stroke-width="1" fill="blue" opacity="1" tooltip="enable"><title>(0.0180376,128)</title></rect><rect x="84" y="188.794" width="6" height="11.2056" stroke="black" stroke-width="1" fill="blue" opacity="1" tooltip="enable"><title>(0.0194251,112)</title></rect><rect x="90" y="187.994" width="6" height="12.006" stroke="black" stroke-width="1" fill="blue" opacity="1" tooltip="enable"><title>(0.0208126,120)</title></rect><rect x="96" y="188.794" width="6" height="11.2056" stroke="black" stroke-width="1" fill="blue" opacity="1" tooltip="enable"><title>(0.0222001,112)</title></rect><rect x="102" y="186.993" width="6" height="13.0065" stroke="black" stroke-width="1" fill="blue" opacity="1" tooltip="enable"><title>(0.0235876,130)</title></rect><rect x="108" y="192.396" width="6" height="7.6038" stroke="black" stroke-width="1" fill="blue" opacity="1" tooltip="enable"><title>(0.0249751,76)</title></rect><rect x="114" y="192.196" width="6" height="7.8039" stroke="black" stroke-width="1" fill="blue" opacity="1" tooltip="enable"><title>(0.0263626,78)</title></rect><rect x="120" y="191.396" width="6" height="8.6043" stroke="black" stroke-width="1" fill="blue" opacity="1" tooltip="enable"><title>(0.0277501,86)</title></rect><rect x="126" y="192.196" width="6" height="7.8039" stroke="black" stroke-width="1" fill="blue" opacity="1" tooltip="enable"><title>(0.0291376,78)</title></rect><rect x="132" y="191.696" width="6" height="8.30415" stroke="black" stroke-width="1" fill="blue" opacity="1" tooltip="enable"><title>(0.0305251,83)</title></rect><rect x="138" y="194.097" width="6" height="5.90295" stroke="black" stroke-width="1" fill="blue" opacity="1" tooltip="enable"><title>(0.0319126,59)</title></rect><rect x="144" y="191.096" width="6" height="8.90445" stroke="black" stroke-width="1" fill="blue" opacity="1" tooltip="enable"><title>(0.0333001,89)</title></rect><rect x="150" y="191.296" width="6" height="8.70435" stroke="black" stroke-width="1" fill="blue" opacity="1" tooltip="enable"><title>(0.0346876,87)</title></rect><rect x="156" y="193.297" width="6" height="6.70335" stroke="black" stroke-width="1" fill="blue" opacity="1" tooltip="enable"><title>(0.0360751,67)</title></rect><rect x="162" y="193.097" width="6" height="6.90345" stroke="black" stroke-width="1" fill="blue" opacity="1" tooltip="enable"><title>(0.0374626,69)</title></rect><rect x="168" y="196.398" width="6" height="3.6018" stroke="black" stroke-width="1" fill="blue" opacity="1" tooltip="enable"><title>(0.0388501,36)</title></rect><rect x="174" y="194.397" width="6" height="5.6028" stroke="black" stroke-width="1" fill="blue" opacity="1" tooltip="enable"><title>(0.0402376,56)</title></rect><rect x="180" y="195.398" width="6" height="4.6023" stroke="black" stroke-width="1" fill="blue" opacity="1" tooltip="enable"><title>(0.0416251,46)</title></rect><rect x="186" y="196.198" width="6" height="3.8019" stroke="black" stroke-width="1" fill="blue" opacity="1" tooltip="enable"><title>(0.0430126,38)</title></rect><rect x="192" y="196.398" width="6" height="3.6018" stroke="black" stroke-width="1" fill="blue" opacity="1" tooltip="enable"><title>(0.0444001,36)</title></rect><rect x="198" y="195.598" width="6" height="4.4022" stroke="black" stroke-width="1" fill="blue" opacity="1" tooltip="enable"><title>(0.0457876,44)</title></rect><rect x="204" y="195.598" width="6" height="4.4022" stroke="black" stroke-width="1" fill="blue" opacity="1" tooltip="enable"><title>(0.0471751,44)</title></rect><rect x="210" y="195.798" width="6" height="4.2021" stroke="black" stroke-width="1" fill="blue" opacity="1" tooltip="enable"><title>(0.0485626,42)</title></rect><rect x="216" y="196.398" width="6" height="3.6018" stroke="black" stroke-width="1" fill="blue" opacity="1" tooltip="enable"><title>(0.0499502,36)</title></rect><rect x="222" y="198.199" width="6" height="1.8009" stroke="black" stroke-width="1" fill="blue" opacity="1" tooltip="enable"><title>(0.0513377,18)</title></rect><rect x="228" y="196.598" width="6" height="3.4017" stroke="black" stroke-width="1" fill="blue" opacity="1" tooltip="enable"><title>(0.0527252,34)</title></rect><rect x="234" y="196.198" width="6" height="3.8019" stroke="black" stroke-width="1" fill="blue" opacity="1" tooltip="enable"><title>(0.0541127,38)</title></rect><rect x="240" y="196.398" width="6" height="3.6018" stroke="black" stroke-width="1" fill="blue" opacity="1" tooltip="enable"><title>(0.0555002,36)</title></rect><rect x="246" y="196.798" width="6" height="3.2016" stroke="black" stroke-width="1" fill="blue" opacity="1" tooltip="enable"><title>(0.0568877,32)</title></rect><rect x="252" y="198.399" width="6" height="1.6008" stroke="black" stroke-width="1" fill="blue" opacity="1" tooltip="enable"><title>(0.0582752,16)</title></rect><rect x="258" y="197.399" width="6" height="2.6013" stroke="black" stroke-width="1" fill="blue" opacity="1" tooltip="enable"><title>(0.0596627,26)</title></rect><rect x="264" y="197.699" width="6" height="2.30115" stroke="black" stroke-width="1" fill="blue" opacity="1" tooltip="enable"><title>(0.0610502,23)</title></rect><rect x="270" y="197.899" width="6" height="2.10105" stroke="black" stroke-width="1" fill="blue" opacity="1" tooltip="enable"><title>(0.0624377,21)</title></rect><rect x="276" y="197.999" width="6" height="2.001" stroke="black" stroke-width="1" fill="blue" opacity="1" tooltip="enable"><title>(0.0638252,20)</title></rect><rect x="282" y="197.799" width="6" height="2.2011" stroke="black" stroke-width="1" fill="blue" opacity="1" tooltip="enable"><title>(0.0652127,22)</title></rect><rect x="288" y="199.2" width="6" height="0.8004" stroke="black" stroke-width="1" fill="blue" opacity="1" tooltip="enable"><title>(0.0666002,8)</title></rect><rect x="294" y="196.999" width="6" height="3.0015" stroke="black" stroke-width="1" fill="blue" opacity="1" tooltip="enable"><title>(0.0679877,30)</title></rect><rect x="300" y="198.199" width="6" height="1.8009" stroke="black" stroke-width="1" fill="blue" opacity="1" tooltip="enable"><title>(0.0693752,18)</title></rect><rect x="306" y="198.799" width="6" height="1.2006" stroke="black" stroke-width="1" fill="blue" opacity="1" tooltip="enable"><title>(0.0707627,12)</title></rect><rect x="312" y="199.4" width="6" height="0.6003" stroke="black" stroke-width="1" fill="blue" opacity="1" tooltip="enable"><title>(0.0721502,6)</title></rect><rect x="318" y="199.2" width="6" height="0.8004" stroke="black" stroke-width="1" fill="blue" opacity="1" tooltip="enable"><title>(0.0735377,8)</title></rect><rect x="324" y="198.899" width="6" height="1.10055" stroke="black" stroke-width="1" fill="blue" opacity="1" tooltip="enable"><title>(0.0749252,11)</title></rect><rect x="330" y="199.1" width="6" height="0.90045" stroke="black" stroke-width="1" fill="blue" opacity="1" tooltip="enable"><title>(0.0763127,9)</title></rect><rect x="336" y="197.799" width="6" height="2.2011" stroke="black" stroke-width="1" fill="blue" opacity="1" tooltip="enable"><title>(0.0777002,22)</title></rect><rect x="342" y="198.399" width="6" height="1.6008" stroke="black" stroke-width="1" fill="blue" opacity="1" tooltip="enable"><title>(0.0790877,16)</title></rect><rect x="348" y="199.6" width="6" height="0.4002" stroke="black" stroke-width="1" fill="blue" opacity="1" tooltip="enable"><title>(0.0804752,4)</title></rect><rect x="354" y="199.6" width="6" height="0.4002" stroke="black" stroke-width="1" fill="blue" opacity="1" tooltip="enable"><title>(0.0818627,4)</title></rect><rect x="360" y="198.899" width="6" height="1.10055" stroke="black" stroke-width="1" fill="blue" opacity="1" tooltip="enable"><title>(0.0832503,11)</title></rect><rect x="366" y="199.7" width="6" height="0.30015" stroke="black" stroke-width="1" fill="blue" opacity="1" tooltip="enable"><title>(0.0846378,3)</title></rect><rect x="372" y="198.999" width="6" height="1.0005" stroke="black" stroke-width="1" fill="blue" opacity="1" tooltip="enable"><title>(0.0860253,10)</title></rect><rect x="378" y="199.6" width="6" height="0.4002" stroke="black" stroke-width="1" fill="blue" opacity="1" tooltip="enable"><title>(0.0874128,4)</title></rect><rect x="384" y="199.4" width="6" height="0.6003" stroke="black" stroke-width="1" fill="blue" opacity="1" tooltip="enable"><title>(0.0888003,6)</title></rect><rect x="390" y="200" width="6" height="0" stroke="black" stroke-width="1" fill="blue" opacity="1" tooltip="enable"><title>(0.0901878,0)</title></rect><rect x="396" y="200" width="6" height="0" stroke="black" stroke-width="1" fill="blue" opacity="1" tooltip="enable"><title>(0.0915753,0)</title></rect><rect x="402" y="200" width="6" height="0" stroke="black" stroke-width="1" fill="blue" opacity="1" tooltip="enable"><title>(0.0929628,0)</title></rect><rect x="408" y="200" width="6" height="0" stroke="black" stroke-width="1" fill="blue" opacity="1" tooltip="enable"><title>(0.0943503,0)</title></rect><rect x="414" y="199.8" width="6" height="0.2001" stroke="black" stroke-width="1" fill="blue" opacity="1" tooltip="enable"><title>(0.0957378,2)</title></rect><rect x="420" y="200" width="6" height="0" stroke="black" stroke-width="1" fill="blue" opacity="1" tooltip="enable"><title>(0.0971253,0)</title></rect><rect x="426" y="200" width="6" height="0" stroke="black" stroke-width="1" fill="blue" opacity="1" tooltip="enable"><title>(0.0985128,0)</title></rect><rect x="432" y="200" width="6" height="0" stroke="black" stroke-width="1" fill="blue" opacity="1" tooltip="enable"><title>(0.0999003,0)</title></rect><rect x="438" y="199.6" width="6" height="0.4002" stroke="black" stroke-width="1" fill="blue" opacity="1" tooltip="enable"><title>(0.101288,4)</title></rect><rect x="444" y="200" width="6" height="0" stroke="black" stroke-width="1" fill="blue" opacity="1" tooltip="enable"><title>(0.102675,0)</title></rect><rect x="450" y="200" width="6" height="0" stroke="black" stroke-width="1" fill="blue" opacity="1" tooltip="enable"><title>(0.104063,0)</title></rect><rect x="456" y="200" width="6" height="0" stroke="black" stroke-width="1" fill="blue" opacity="1" tooltip="enable"><title>(0.10545,0)</title></rect><rect x="462" y="199.6" width="6" height="0.4002" stroke="black" stroke-width="1" fill="blue" opacity="1" tooltip="enable"><title>(0.106838,4)</title></rect><rect x="468" y="200" width="6" height="0" stroke="black" stroke-width="1" fill="blue" opacity="1" tooltip="enable"><title>(0.108225,0)</title></rect><rect x="474" y="200" width="6" height="0" stroke="black" stroke-width="1" fill="blue" opacity="1" tooltip="enable"><title>(0.109613,0)</title></rect><rect x="480" y="200" width="6" height="0" stroke="black" stroke-width="1" fill="blue" opacity="1" tooltip="enable"><title>(0.111,0)</title></rect><rect x="486" y="200" width="6" height="0" stroke="black" stroke-width="1" fill="blue" opacity="1" tooltip="enable"><title>(0.112388,0)</title></rect><rect x="492" y="199.8" width="6" height="0.2001" stroke="black" stroke-width="1" fill="blue" opacity="1" tooltip="enable"><title>(0.113775,2)</title></rect><rect x="498" y="200" width="6" height="0" stroke="black" stroke-width="1" fill="blue" opacity="1" tooltip="enable"><title>(0.115163,0)</title></rect><rect x="504" y="200" width="6" height="0" stroke="black" stroke-width="1" fill="blue" opacity="1" tooltip="enable"><title>(0.11655,0)</title></rect><rect x="510" y="199.8" width="6" height="0.2001" stroke="black" stroke-width="1" fill="blue" opacity="1" tooltip="enable"><title>(0.117938,2)</title></rect><rect x="516" y="200" width="6" height="0" stroke="black" stroke-width="1" fill="blue" opacity="1" tooltip="enable"><title>(0.119325,0)</title></rect><rect x="522" y="200" width="6" height="0" stroke="black" stroke-width="1" fill="blue" opacity="1" tooltip="enable"><title>(0.120713,0)</title></rect><rect x="528" y="200" width="6" height="0" stroke="black" stroke-width="1" fill="blue" opacity="1" tooltip="enable"><title>(0.1221,0)</title></rect><rect x="534" y="200" width="6" height="0" stroke="black" stroke-width="1" fill="blue" opacity="1" tooltip="enable"><title>(0.123488,0)</title></rect><rect x="540" y="200" width="6" height="0" stroke="black" stroke-width="1" fill="blue" opacity="1" tooltip="enable"><title>(0.124875,0)</title></rect><rect x="546" y="200" width="6" height="0" stroke="black" stroke-width="1" fill="blue" opacity="1" tooltip="enable"><title>(0.126263,0)</title></rect><rect x="552" y="200" width="6" height="0" stroke="black" stroke-width="1" fill="blue" opacity="1" tooltip="enable"><title>(0.12765,0)</title></rect><rect x="558" y="200" width="6" height="0" stroke="black" stroke-width="1" fill="blue" opacity="1" tooltip="enable"><title>(0.129038,0)</title></rect><rect x="564" y="200" width="6" height="0" stroke="black" stroke-width="1" fill="blue" opacity="1" tooltip="enable"><title>(0.130425,0)</title></rect><rect x="570" y="200" width="6" height="0" stroke="black" stroke-width="1" fill="blue" opacity="1" tooltip="enable"><title>(0.131813,0)</title></rect><rect x="576" y="199.8" width="6" height="0.2001" stroke="black" stroke-width="1" fill="blue" opacity="1" tooltip="enable"><title>(0.1332,2)</title></rect><rect x="582" y="199.8" width="6" height="0.2001" stroke="black" stroke-width="1" fill="blue" opacity="1" tooltip="enable"><title>(0.134588,2)</title></rect><rect x="588" y="200" width="6" height="0" stroke="black" stroke-width="1" fill="blue" opacity="1" tooltip="enable"><title>(0.135975,0)</title></rect><rect x="594" y="199.9" width="6" height="0.10005" stroke="black" stroke-width="1" fill="blue" opacity="1" tooltip="enable"><title>(0.137363,1)</title></rect><text x="30" y="240" font-size="20" fill="black">0</text>
<text x="600" y="240" font-size="20" fill="black">0.13875</text>
<polyline points="0,220,600,220" stroke="black" stroke-width="1" fill="none" opacity="1"/>
<text x="720" y="20" font-size="20" fill="black">1999</text>
<text x="720" y="200" font-size="20" fill="black">0</text>
<polyline points="660,0,660,200" stroke="black" stroke-width="1" fill="none" opacity="1"/>
</svg>