<?xml version="1.0" standalone="yes"?>
<!-- SVG graphic -->
<svg xmlns='http://www.w3.org/2000/svg' xmlns:xlink='http://www.w3.org/1999/xlink'
 version="1.1">
<rect x="0" y="0" width="6" height="200" stroke="black" stroke-width="1" fill="blue" opacity="1" tooltip="enable"><title>(0,3065)</title></rect><rect x="6" y="132.724" width="6" height="67.2757" stroke="black" stroke-width="1" fill="blue" opacity="1" tooltip="enable"><title>(0.00072699,1031)</title></rect><rect x="12" y="185.644" width="6" height="14.3556" stroke="black" stroke-width="1" fill="blue" opacity="1" tooltip="enable"><title>(0.00145398,220)</title></rect><rect x="18" y="193.866" width="6" height="6.13377" stroke="black" stroke-width="1" fill="blue" opacity="1" tooltip="enable"><title>(0.00218097,94)</title></rect><rect x="24" y="193.736" width="6" height="6.26427" stroke="black" stroke-width="1" fill="blue" opacity="1" tooltip="enable"><title>(0.00290796,96)</title></rect><rect x="30" y="193.083" width="6" height="6.9168" stroke="black" stroke-width="1" fill="blue" opacity="1" tooltip="enable"><title>(0.00363495,106)</title></rect><rect x="36" y="194.062" width="6" height="5.93801" stroke="black" stroke-width="1" fill="blue" opacity="1" tooltip="enable"><title>(0.00436194,91)</title></rect><rect x="42" y="193.54" width="6" height="6.46003" stroke="black" stroke-width="1" fill="blue" opacity="1" tooltip="enable"><title>(0.00508893,99)</title></rect><rect x="48" y="192.039" width="6" height="7.96085" stroke="black" stroke-width="1" fill="blue" opacity="1" tooltip="enable"><title>(0.00581592,122)</title></rect><rect x="54" y="193.214" width="6" height="6.7863" stroke="black" stroke-width="1" fill="blue" opacity="1" tooltip="enable"><title>(0.00654291,104)</title></rect><rect x="60" y="193.736" width="6" height="6.26427" stroke="black" stroke-width="1" fill="blue" opacity="1" tooltip="enable"><title>(0.0072699,96)</title></rect><rect x="66" y="193.54" width="6" height="6.46003" stroke="black" stroke-width="1" fill="blue" opacity="1" tooltip="enable"><title>(0.00799689,99)</title></rect><rect x="72" y="193.409" width="6" height="6.59054" stroke="black" stroke-width="1" fill="blue" opacity="1" tooltip="enable"><title>(0.00872388,101)</title></rect><rect x="78" y="194.062" width="6" height="5.93801" stroke="black" stroke-width="1" fill="blue" opacity="1" tooltip="enable"><title>(0.00945087,91)</title></rect><rect x="84" y="193.866" width="6" height="6.13377" stroke="black" stroke-width="1" fill="blue" opacity="1" tooltip="enable"><title>(0.0101779,94)</title></rect><rect x="90" y="193.475" width="6" height="6.52529" stroke="black" stroke-width="1" fill="blue" opacity="1" tooltip="enable"><title>(0.0109048,100)</title></rect><rect x="96" y="194.649" width="6" height="5.35073" stroke="black" stroke-width="1" fill="blue" opacity="1" tooltip="enable"><title>(0.0116318,82)</title></rect><rect x="102" y="193.409" width="6" height="6.59054" stroke="black" stroke-width="1" fill="blue" opacity="1" tooltip="enable"><title>(0.0123588,101)</title></rect><rect x="108" y="193.736" width="6" height="6.26427" stroke="black" stroke-width="1" fill="blue" opacity="1" tooltip="enable"><title>(0.0130858,96)</title></rect><rect x="114" y="194.192" width="6" height="5.8075" stroke="black" stroke-width="1" fill="blue" opacity="1" tooltip="enable"><title>(0.0138128,89)</title></rect><rect x="120" y="193.736" width="6" height="6.26427" stroke="black" stroke-width="1" fill="blue" opacity="1" tooltip="enable"><title>(0.0145398,96)</title></rect><rect x="126" y="194.062" width="6" height="5.93801" stroke="black" stroke-width="1" fill="blue" opacity="1" tooltip="enable"><title>(0.0152668,91)</title></rect><rect x="132" y="196.15" width="6" height="3.84992" stroke="black" stroke-width="1" fill="blue" opacity="1" tooltip="enable"><title>(0.0159938,59)</title></rect><rect x="138" y="196.476" width="6" height="3.52365" stroke="black" stroke-width="1" fill="blue" opacity="1" tooltip="enable"><title>(0.0167208,54)</title></rect><rect x="144" y="195.498" width="6" height="4.50245" stroke="black" stroke-width="1" fill="blue" opacity="1" tooltip="enable"><title>(0.0174478,69)</title></rect><rect x="150" y="194.062" width="6" height="5.93801" stroke="black" stroke-width="1" fill="blue" opacity="1" tooltip="enable"><title>(0.0181747,91)</title></rect><rect x="156" y="195.432" width="6" height="4.5677" stroke="black" stroke-width="1" fill="blue" opacity="1" tooltip="enable"><title>(0.0189017,70)</title></rect><rect x="162" y="196.868" width="6" height="3.13214" stroke="black" stroke-width="1" fill="blue" opacity="1" tooltip="enable"><title>(0.0196287,48)</title></rect><rect x="168" y="194.91" width="6" height="5.08972" stroke="black" stroke-width="1" fill="blue" opacity="1" tooltip="enable"><title>(0.0203557,78)</title></rect><rect x="174" y="194.258" width="6" height="5.74225" stroke="black" stroke-width="1" fill="blue" opacity="1" tooltip="enable"><title>(0.0210827,88)</title></rect><rect x="180" y="196.215" width="6" height="3.78467" stroke="black" stroke-width="1" fill="blue" opacity="1" tooltip="enable"><title>(0.0218097,58)</title></rect><rect x="186" y="195.302" width="6" height="4.69821" stroke="black" stroke-width="1" fill="blue" opacity="1" tooltip="enable"><title>(0.0225367,72)</title></rect><rect x="192" y="194.78" width="6" height="5.22023" stroke="black" stroke-width="1" fill="blue" opacity="1" tooltip="enable"><title>(0.0232637,80)</title></rect><rect x="198" y="196.411" width="6" height="3.58891" stroke="black" stroke-width="1" fill="blue" opacity="1" tooltip="enable"><title>(0.0239907,55)</title></rect><rect x="204" y="197.39" width="6" height="2.61011" stroke="black" stroke-width="1" fill="blue" opacity="1" tooltip="enable"><title>(0.0247177,40)</title></rect><rect x="210" y="194.845" width="6" height="5.15498" stroke="black" stroke-width="1" fill="blue" opacity="1" tooltip="enable"><title>(0.0254446,79)</title></rect><rect x="216" y="195.237" width="6" height="4.76346" stroke="black" stroke-width="1" fill="blue" opacity="1" tooltip="enable"><title>(0.0261716,73)</title></rect><rect x="222" y="195.367" width="6" height="4.63295" stroke="black" stroke-width="1" fill="blue" opacity="1" tooltip="enable"><title>(0.0268986,71)</title></rect><rect x="228" y="196.085" width="6" height="3.91517" stroke="black" stroke-width="1" fill="blue" opacity="1" tooltip="enable"><title>(0.0276256,60)</title></rect><rect x="234" y="196.15" width="6" height="3.84992" stroke="black" stroke-width="1" fill="blue" opacity="1" tooltip="enable"><title>(0.0283526,59)</title></rect><rect x="240" y="197.586" width="6" height="2.41436" stroke="black" stroke-width="1" fill="blue" opacity="1" tooltip="enable"><title>(0.0290796,37)</title></rect><rect x="246" y="196.281" width="6" height="3.71941" stroke="black" stroke-width="1" fill="blue" opacity="1" tooltip="enable"><title>(0.0298066,57)</title></rect><rect x="252" y="197.651" width="6" height="2.3491" stroke="black" stroke-width="1" fill="blue" opacity="1" tooltip="enable"><title>(0.0305336,36)</title></rect><rect x="258" y="198.108" width="6" height="1.89233" stroke="black" stroke-width="1" fill="blue" opacity="1" tooltip="enable"><title>(0.0312606,29)</title></rect><rect x="264" y="197.716" width="6" height="2.28385" stroke="black" stroke-width="1" fill="blue" opacity="1" tooltip="enable"><title>(0.0319876,35)</title></rect><rect x="270" y="197.651" width="6" height="2.3491" stroke="black" stroke-width="1" fill="blue" opacity="1" tooltip="enable"><title>(0.0327145,36)</title></rect><rect x="276" y="198.238" width="6" height="1.76183" stroke="black" stroke-width="1" fill="blue" opacity="1" tooltip="enable"><title>(0.0334415,27)</title></rect><rect x="282" y="197.52" width="6" height="2.47961" stroke="black" stroke-width="1" fill="blue" opacity="1" tooltip="enable"><title>(0.0341685,38)</title></rect><rect x="288" y="198.369" width="6" height="1.63132" stroke="black" stroke-width="1" fill="blue" opacity="1" tooltip="enable"><title>(0.0348955,25)</title></rect><rect x="294" y="198.434" width="6" height="1.56607" stroke="black" stroke-width="1" fill="blue" opacity="1" tooltip="enable"><title>(0.0356225,24)</title></rect><rect x="300" y="198.173" width="6" height="1.82708" stroke="black" stroke-width="1" fill="blue" opacity="1" tooltip="enable"><title>(0.0363495,28)</title></rect><rect x="306" y="198.173" width="6" height="1.82708" stroke="black" stroke-width="1" fill="blue" opacity="1" tooltip="enable"><title>(0.0370765,28)</title></rect><rect x="312" y="198.564" width="6" height="1.43556" stroke="black" stroke-width="1" fill="blue" opacity="1" tooltip="enable"><title>(0.0378035,22)</title></rect><rect x="318" y="199.086" width="6" height="0.91354" stroke="black" stroke-width="1" fill="blue" opacity="1" tooltip="enable"><title>(0.0385305,14)</title></rect><rect x="324" y="198.695" width="6" height="1.30506" stroke="black" stroke-width="1" fill="blue" opacity="1" tooltip="enable"><title>(0.0392575,20)</title></rect><rect x="330" y="198.108" width="6" height="1.89233" stroke="black" stroke-width="1" fill="blue" opacity="1" tooltip="enable"><title>(0.0399844,29)</title></rect><rect x="336" y="199.152" width="6" height="0.848287" stroke="black" stroke-width="1" fill="blue" opacity="1" tooltip="enable"><title>(0.0407114,13)</title></rect><rect x="342" y="199.478" width="6" height="0.522023" stroke="black" stroke-width="1" fill="blue" opacity="1" tooltip="enable"><title>(0.0414384,8)</title></rect><rect x="348" y="199.086" width="6" height="0.91354" stroke="black" stroke-width="1" fill="blue" opacity="1" tooltip="enable"><title>(0.0421654,14)</title></rect><rect x="354" y="199.478" width="6" height="0.522023" stroke="black" stroke-width="1" fill="blue" opacity="1" tooltip="enable"><title>(0.0428924,8)</title></rect><rect x="360" y="199.608" width="6" height="0.391517" stroke="black" stroke-width="1" fill="blue" opacity="1" tooltip="enable"><title>(0.0436194,6)</title></rect><rect x="366" y="199.413" width="6" height="0.587276" stroke="black" stroke-width="1" fill="blue" opacity="1" tooltip="enable"><title>(0.0443464,9)</title></rect><rect x="372" y="199.543" width="6" height="0.45677" stroke="black" stroke-width="1" fill="blue" opacity="1" tooltip="enable"><title>(0.0450734,7)</title></rect><rect x="378" y="199.543" width="6" height="0.45677" stroke="black" stroke-width="1" fill="blue" opacity="1" tooltip="enable"><title>(0.0458004,7)</title></rect><rect x="384" y="199.804" width="6" height="0.195759" stroke="black" stroke-width="1" fill="blue" opacity="1" tooltip="enable"><title>(0.0465274,3)</title></rect><rect x="390" y="199.869" width="6" height="0.130506" stroke="black" stroke-width="1" fill="blue" opacity="1" tooltip="enable"><title>(0.0472543,2)</title></rect><rect x="396" y="199.413" width="6" height="0.587276" stroke="black" stroke-width="1" fill="blue" opacity="1" tooltip="enable"><title>(0.0479813,9)</title></rect><rect x="402" y="199.282" width="6" height="0.717781" stroke="black" stroke-width="1" fill="blue" opacity="1" tooltip="enable"><title>(0.0487083,11)</title></rect><rect x="408" y="199.608" width="6" height="0.391517" stroke="black" stroke-width="1" fill="blue" opacity="1" tooltip="enable"><title>(0.0494353,6)</title></rect><rect x="414" y="199.347" width="6" height="0.652529" stroke="black" stroke-width="1" fill="blue" opacity="1" tooltip="enable"><title>(0.0501623,10)</title></rect><rect x="420" y="199.608" width="6" height="0.391517" stroke="black" stroke-width="1" fill="blue" opacity="1" tooltip="enable"><title>(0.0508893,6)</title></rect><rect x="426" y="199.608" width="6" height="0.391517" stroke="black" stroke-width="1" fill="blue" opacity="1" tooltip="enable"><title>(0.0516163,6)</title></rect><rect x="432" y="200" width="6" height="0" stroke="black" stroke-width="1" fill="blue" opacity="1" tooltip="enable"><title>(0.0523433,0)</title></rect><rect x="438" y="199.739" width="6" height="0.261011" stroke="black" stroke-width="1" fill="blue" opacity="1" tooltip="enable"><title>(0.0530703,4)</title></rect><rect x="444" y="199.739" width="6" height="0.261011" stroke="black" stroke-width="1" fill="blue" opacity="1" tooltip="enable"><title>(0.0537973,4)</title></rect><rect x="450" y="199.739" width="6" height="0.261011" stroke="black" stroke-width="1" fill="blue" opacity="1" tooltip="enable"><title>(0.0545242,4)</title></rect><rect x="456" y="199.869" width="6" height="0.130506" stroke="black" stroke-width="1" fill="blue" opacity="1" tooltip="enable"><title>(0.0552512,2)</title></rect><rect x="462" y="200" width="6" height="0" stroke="black" stroke-width="1" fill="blue" opacity="1" tooltip="enable"><title>(0.0559782,0)</title></rect><rect x="468" y="200" width="6" height="0" stroke="black" stroke-width="1" fill="blue" opacity="1" tooltip="enable"><title>(0.0567052,0)</title></rect><rect x="474" y="200" width="6" height="0" stroke="black" stroke-width="1" fill="blue" opacity="1" tooltip="enable"><title>(0.0574322,0)</title></rect><rect x="480" y="200" width="6" height="0" stroke="black" stroke-width="1" fill="blue" opacity="1" tooltip="enable"><title>(0.0581592,0)</title></rect><rect x="486" y="200" width="6" height="0" stroke="black" stroke-width="1" fill="blue" opacity="1" tooltip="enable"><title>(0.0588862,0)</title></rect><rect x="492" y="200" width="6" height="0" stroke="black" stroke-width="1" fill="blue" opacity="1" tooltip="enable"><title>(0.0596132,0)</title></rect><rect x="498" y="200" width="6" height="0" stroke="black" stroke-width="1" fill="blue" opacity="1" tooltip="enable"><title>(0.0603402,0)</title></rect><rect x="504" y="200" width="6" height="0" stroke="black" stroke-width="1" fill="blue" opacity="1" tooltip="enable"><title>(0.0610672,0)</title></rect><rect x="510" y="200" width="6" height="0" stroke="black" stroke-width="1" fill="blue" opacity="1" tooltip="enable"><title>(0.0617941,0)</title></rect><rect x="516" y="199.869" width="6" height="0.130506" stroke="black" stroke-width="1" fill="blue" opacity="1" tooltip="enable"><title>(0.0625211,2)</title></rect><rect x="522" y="200" width="6" height="0" stroke="black" stroke-width="1" fill="blue" opacity="1" tooltip="enable"><title>(0.0632481,0)</title></rect><rect x="528" y="199.935" width="6" height="0.0652529" stroke="black" stroke-width="1" fill="blue" opacity="1" tooltip="enable"><title>(0.0639751,1)</title></rect><rect x="534" y="199.935" width="6" height="0.0652529" stroke="black" stroke-width="1" fill="blue" opacity="1" tooltip="enable"><title>(0.0647021,1)</title></rect><rect x="540" y="199.869" width="6" height="0.130506" stroke="black" stroke-width="1" fill="blue" opacity="1" tooltip="enable"><title>(0.0654291,2)</title></rect><rect x="546" y="200" width="6" height="0" stroke="black" stroke-width="1" fill="blue" opacity="1" tooltip="enable"><title>(0.0661561,0)</title></rect><rect x="552" y="200" width="6" height="0" stroke="black" stroke-width="1" fill="blue" opacity="1" tooltip="enable"><title>(0.0668831,0)</title></rect><rect x="558" y="200" width="6" height="0" stroke="black" stroke-width="1" fill="blue" opacity="1" tooltip="enable"><title>(0.0676101,0)</title></rect><rect x="564" y="200" width="6" height="0" stroke="black" stroke-width="1" fill="blue" opacity="1" tooltip="enable"><title>(0.0683371,0)</title></rect><rect x="570" y="200" width="6" height="0" stroke="black" stroke-width="1" fill="blue" opacity="1" tooltip="enable"><title>(0.069064,0)</title></rect><rect x="576" y="200" width="6" height="0" stroke="black" stroke-width="1" fill="blue" opacity="1" tooltip="enable"><title>(0.069791,0)</title></rect><rect x="582" y="200" width="6" height="0" stroke="black" stroke-width="1" fill="blue" opacity="1" tooltip="enable"><title>(0.070518,0)</title></rect><rect x="588" y="200" width="6" height="0" stroke="black" stroke-width="1" fill="blue" opacity="1" tooltip="enable"><title>(0.071245,0)</title></rect><rect x="594" y="199.935" width="6" height="0.0652529" stroke="black" stroke-width="1" fill="blue" opacity="1" tooltip="enable"><title>(0.071972,1)</title></rect><text x="30" y="240" font-size="20" fill="black">0</text>
<text x="600" y="240" font-size="20" fill="black">0.072699</text>
<polyline points="0,220,600,220" stroke="black" stroke-width="1" fill="none" opacity="1"/>
<text x="720" y="20" font-size="20" fill="black">3065</text>
<text x="720" y="200" font-size="20" fill="black">0</text>
<polyline points="660,0,660,200" stroke="black" stroke-width="1" fill="none" opacity="1"/>
</svg>