<?xml version="1.0" standalone="yes"?>
<!-- SVG graphic -->
<svg xmlns='http://www.w3.org/2000/svg' xmlns:xlink='http://www.w3.org/1999/xlink'
 version="1.1">
<rect x="0" y="0" width="6" height="200" stroke="black" stroke-width="1" fill="blue" opacity="1" tooltip="enable"><title>(0,1383)</title></rect><rect x="6" y="21.692" width="6" height="178.308" stroke="black" stroke-width="1" fill="blue" opacity="1" tooltip="enable"><title>(0.00120314,1233)</title></rect><rect x="12" y="33.8395" width="6" height="166.161" stroke="black" stroke-width="1" fill="blue" opacity="1" tooltip="enable"><title>(0.00240629,1149)</title></rect><rect x="18" y="122.343" width="6" height="77.6573" stroke="black" stroke-width="1" fill="blue" opacity="1" tooltip="enable"><title>(0.00360943,537)</title></rect><rect x="24" y="163.268" width="6" height="36.7317" stroke="black" stroke-width="1" fill="blue" opacity="1" tooltip="enable"><title>(0.00481258,254)</title></rect><rect x="30" y="175.85" width="6" height="24.1504" stroke="black" stroke-width="1" fill="blue" opacity="1" tooltip="enable"><title>(0.00601572,167)</title></rect><rect x="36" y="176.573" width="6" height="23.4273" stroke="black" stroke-width="1" fill="blue" opacity="1" tooltip="enable"><title>(0.00721887,162)</title></rect><rect x="42" y="176.717" width="6" height="23.2827" stroke="black" stroke-width="1" fill="blue" opacity="1" tooltip="enable"><title>(0.00842201,161)</title></rect><rect x="48" y="185.249" width="6" height="14.7505" stroke="black" stroke-width="1" fill="blue" opacity="1" tooltip="enable"><title>(0.00962515,102)</title></rect><rect x="54" y="186.406" width="6" height="13.5936" stroke="black" stroke-width="1" fill="blue" opacity="1" tooltip="enable"><title>(0.0108283,94)</title></rect><rect x="60" y="182.068" width="6" height="17.932" stroke="black" stroke-width="1" fill="blue" opacity="1" tooltip="enable"><title>(0.0120314,124)</title></rect><rect x="66" y="181.779" width="6" height="18.2213" stroke="black" stroke-width="1" fill="blue" opacity="1" tooltip="enable"><title>(0.0132346,126)</title></rect><rect x="72" y="181.634" width="6" height="18.3659" stroke="black" stroke-width="1" fill="blue" opacity="1" tooltip="enable"><title>(0.0144377,127)</title></rect><rect x="78" y="183.08" width="6" height="16.9197" stroke="black" stroke-width="1" fill="blue" opacity="1" tooltip="enable"><title>(0.0156409,117)</title></rect><rect x="84" y="186.696" width="6" height="13.3044" stroke="black" stroke-width="1" fill="blue" opacity="1" tooltip="enable"><title>(0.016844,92)</title></rect><rect x="90" y="184.96" width="6" height="15.0398" stroke="black" stroke-width="1" fill="blue" opacity="1" tooltip="enable"><title>(0.0180472,104)</title></rect><rect x="96" y="182.791" width="6" height="17.209" stroke="black" stroke-width="1" fill="blue" opacity="1" tooltip="enable"><title>(0.0192503,119)</title></rect><rect x="102" y="184.237" width="6" height="15.7628" stroke="black" stroke-width="1" fill="blue" opacity="1" tooltip="enable"><title>(0.0204535,109)</title></rect><rect x="108" y="184.237" width="6" height="15.7628" stroke="black" stroke-width="1" fill="blue" opacity="1" tooltip="enable"><title>(0.0216566,109)</title></rect><rect x="114" y="185.105" width="6" height="14.8952" stroke="black" stroke-width="1" fill="blue" opacity="1" tooltip="enable"><title>(0.0228597,103)</title></rect><rect x="120" y="184.96" width="6" height="15.0398" stroke="black" stroke-width="1" fill="blue" opacity="1" tooltip="enable"><title>(0.0240629,104)</title></rect><rect x="126" y="186.696" width="6" height="13.3044" stroke="black" stroke-width="1" fill="blue" opacity="1" tooltip="enable"><title>(0.025266,92)</title></rect><rect x="132" y="180.766" width="6" height="19.2336" stroke="black" stroke-width="1" fill="blue" opacity="1" tooltip="enable"><title>(0.0264692,133)</title></rect><rect x="138" y="184.816" width="6" height="15.1844" stroke="black" stroke-width="1" fill="blue" opacity="1" tooltip="enable"><title>(0.0276723,105)</title></rect><rect x="144" y="186.117" width="6" height="13.8829" stroke="black" stroke-width="1" fill="blue" opacity="1" tooltip="enable"><title>(0.0288755,96)</title></rect><rect x="150" y="186.985" width="6" height="13.0152" stroke="black" stroke-width="1" fill="blue" opacity="1" tooltip="enable"><title>(0.0300786,90)</title></rect><rect x="156" y="185.105" width="6" height="14.8952" stroke="black" stroke-width="1" fill="blue" opacity="1" tooltip="enable"><title>(0.0312818,103)</title></rect><rect x="162" y="186.262" width="6" height="13.7383" stroke="black" stroke-width="1" fill="blue" opacity="1" tooltip="enable"><title>(0.0324849,95)</title></rect><rect x="168" y="187.708" width="6" height="12.2921" stroke="black" stroke-width="1" fill="blue" opacity="1" tooltip="enable"><title>(0.033688,85)</title></rect><rect x="174" y="188.72" width="6" height="11.2798" stroke="black" stroke-width="1" fill="blue" opacity="1" tooltip="enable"><title>(0.0348912,78)</title></rect><rect x="180" y="192.191" width="6" height="7.80911" stroke="black" stroke-width="1" fill="blue" opacity="1" tooltip="enable"><title>(0.0360943,54)</title></rect><rect x="186" y="188.142" width="6" height="11.8583" stroke="black" stroke-width="1" fill="blue" opacity="1" tooltip="enable"><title>(0.0372975,82)</title></rect><rect x="192" y="193.492" width="6" height="6.50759" stroke="black" stroke-width="1" fill="blue" opacity="1" tooltip="enable"><title>(0.0385006,45)</title></rect><rect x="198" y="190.889" width="6" height="9.11063" stroke="black" stroke-width="1" fill="blue" opacity="1" tooltip="enable"><title>(0.0397038,63)</title></rect><rect x="204" y="192.625" width="6" height="7.37527" stroke="black" stroke-width="1" fill="blue" opacity="1" tooltip="enable"><title>(0.0409069,51)</title></rect><rect x="210" y="194.939" width="6" height="5.06146" stroke="black" stroke-width="1" fill="blue" opacity="1" tooltip="enable"><title>(0.04211,35)</title></rect><rect x="216" y="194.36" width="6" height="5.63991" stroke="black" stroke-width="1" fill="blue" opacity="1" tooltip="enable"><title>(0.0433132,39)</title></rect><rect x="222" y="196.529" width="6" height="3.47072" stroke="black" stroke-width="1" fill="blue" opacity="1" tooltip="enable"><title>(0.0445163,24)</title></rect><rect x="228" y="197.108" width="6" height="2.89226" stroke="black" stroke-width="1" fill="blue" opacity="1" tooltip="enable"><title>(0.0457195,20)</title></rect><rect x="234" y="197.686" width="6" height="2.31381" stroke="black" stroke-width="1" fill="blue" opacity="1" tooltip="enable"><title>(0.0469226,16)</title></rect><rect x="240" y="196.529" width="6" height="3.47072" stroke="black" stroke-width="1" fill="blue" opacity="1" tooltip="enable"><title>(0.0481258,24)</title></rect><rect x="246" y="196.819" width="6" height="3.18149" stroke="black" stroke-width="1" fill="blue" opacity="1" tooltip="enable"><title>(0.0493289,22)</title></rect><rect x="252" y="197.686" width="6" height="2.31381" stroke="black" stroke-width="1" fill="blue" opacity="1" tooltip="enable"><title>(0.0505321,16)</title></rect><rect x="258" y="197.542" width="6" height="2.45842" stroke="black" stroke-width="1" fill="blue" opacity="1" tooltip="enable"><title>(0.0517352,17)</title></rect><rect x="264" y="197.252" width="6" height="2.74765" stroke="black" stroke-width="1" fill="blue" opacity="1" tooltip="enable"><title>(0.0529383,19)</title></rect><rect x="270" y="199.422" width="6" height="0.578453" stroke="black" stroke-width="1" fill="blue" opacity="1" tooltip="enable"><title>(0.0541415,4)</title></rect><rect x="276" y="199.132" width="6" height="0.867679" stroke="black" stroke-width="1" fill="blue" opacity="1" tooltip="enable"><title>(0.0553446,6)</title></rect><rect x="282" y="199.277" width="6" height="0.723066" stroke="black" stroke-width="1" fill="blue" opacity="1" tooltip="enable"><title>(0.0565478,5)</title></rect><rect x="288" y="197.686" width="6" height="2.31381" stroke="black" stroke-width="1" fill="blue" opacity="1" tooltip="enable"><title>(0.0577509,16)</title></rect><rect x="294" y="199.277" width="6" height="0.723066" stroke="black" stroke-width="1" fill="blue" opacity="1" tooltip="enable"><title>(0.0589541,5)</title></rect><rect x="300" y="199.711" width="6" height="0.289226" stroke="black" stroke-width="1" fill="blue" opacity="1" tooltip="enable"><title>(0.0601572,2)</title></rect><rect x="306" y="199.422" width="6" height="0.578453" stroke="black" stroke-width="1" fill="blue" opacity="1" tooltip="enable"><title>(0.0613604,4)</title></rect><rect x="312" y="199.132" width="6" height="0.867679" stroke="black" stroke-width="1" fill="blue" opacity="1" tooltip="enable"><title>(0.0625635,6)</title></rect><rect x="318" y="200" width="6" height="0" stroke="black" stroke-width="1" fill="blue" opacity="1" tooltip="enable"><title>(0.0637666,0)</title></rect><rect x="324" y="199.132" width="6" height="0.867679" stroke="black" stroke-width="1" fill="blue" opacity="1" tooltip="enable"><title>(0.0649698,6)</title></rect><rect x="330" y="199.132" width="6" height="0.867679" stroke="black" stroke-width="1" fill="blue" opacity="1" tooltip="enable"><title>(0.0661729,6)</title></rect><rect x="336" y="199.422" width="6" height="0.578453" stroke="black" stroke-width="1" fill="blue" opacity="1" tooltip="enable"><title>(0.0673761,4)</title></rect><rect x="342" y="198.843" width="6" height="1.15691" stroke="black" stroke-width="1" fill="blue" opacity="1" tooltip="enable"><title>(0.0685792,8)</title></rect><rect x="348" y="198.265" width="6" height="1.73536" stroke="black" stroke-width="1" fill="blue" opacity="1" tooltip="enable"><title>(0.0697824,12)</title></rect><rect x="354" y="200" width="6" height="0" stroke="black" stroke-width="1" fill="blue" opacity="1" tooltip="enable"><title>(0.0709855,0)</title></rect><rect x="360" y="199.132" width="6" height="0.867679" stroke="black" stroke-width="1" fill="blue" opacity="1" tooltip="enable"><title>(0.0721887,6)</title></rect><rect x="366" y="199.855" width="6" height="0.144613" stroke="black" stroke-width="1" fill="blue" opacity="1" tooltip="enable"><title>(0.0733918,1)</title></rect><rect x="372" y="198.988" width="6" height="1.01229" stroke="black" stroke-width="1" fill="blue" opacity="1" tooltip="enable"><title>(0.0745949,7)</title></rect><rect x="378" y="200" width="6" height="0" stroke="black" stroke-width="1" fill="blue" opacity="1" tooltip="enable"><title>(0.0757981,0)</title></rect><rect x="384" y="199.711" width="6" height="0.289226" stroke="black" stroke-width="1" fill="blue" opacity="1" tooltip="enable"><title>(0.0770012,2)</title></rect><rect x="390" y="199.711" width="6" height="0.289226" stroke="black" stroke-width="1" fill="blue" opacity="1" tooltip="enable"><title>(0.0782044,2)</title></rect><rect x="396" y="199.711" width="6" height="0.289226" stroke="black" stroke-width="1" fill="blue" opacity="1" tooltip="enable"><title>(0.0794075,2)</title></rect><rect x="402" y="199.422" width="6" height="0.578453" stroke="black" stroke-width="1" fill="blue" opacity="1" tooltip="enable"><title>(0.0806107,4)</title></rect><rect x="408" y="199.711" width="6" height="0.289226" stroke="black" stroke-width="1" fill="blue" opacity="1" tooltip="enable"><title>(0.0818138,2)</title></rect><rect x="414" y="199.711" width="6" height="0.289226" stroke="black" stroke-width="1" fill="blue" opacity="1" tooltip="enable"><title>(0.083017,2)</title></rect><rect x="420" y="199.711" width="6" height="0.289226" stroke="black" stroke-width="1" fill="blue" opacity="1" tooltip="enable"><title>(0.0842201,2)</title></rect><rect x="426" y="200" width="6" height="0" stroke="black" stroke-width="1" fill="blue" opacity="1" tooltip="enable"><title>(0.0854232,0)</title></rect><rect x="432" y="200" width="6" height="0" stroke="black" stroke-width="1" fill="blue" opacity="1" tooltip="enable"><title>(0.0866264,0)</title></rect><rect x="438" y="200" width="6" height="0" stroke="black" stroke-width="1" fill="blue" opacity="1" tooltip="enable"><title>(0.0878295,0)</title></rect><rect x="444" y="200" width="6" height="0" stroke="black" stroke-width="1" fill="blue" opacity="1" tooltip="enable"><title>(0.0890327,0)</title></rect><rect x="450" y="200" width="6" height="0" stroke="black" stroke-width="1" fill="blue" opacity="1" tooltip="enable"><title>(0.0902358,0)</title></rect><rect x="456" y="200" width="6" height="0" stroke="black" stroke-width="1" fill="blue" opacity="1" tooltip="enable"><title>(0.091439,0)</title></rect><rect x="462" y="200" width="6" height="0" stroke="black" stroke-width="1" fill="blue" opacity="1" tooltip="enable"><title>(0.0926421,0)</title></rect><rect x="468" y="200" width="6" height="0" stroke="black" stroke-width="1" fill="blue" opacity="1" tooltip="enable"><title>(0.0938452,0)</title></rect><rect x="474" y="200" width="6" height="0" stroke="black" stroke-width="1" fill="blue" opacity="1" tooltip="enable"><title>(0.0950484,0)</title></rect><rect x="480" y="200" width="6" height="0" stroke="black" stroke-width="1" fill="blue" opacity="1" tooltip="enable"><title>(0.0962515,0)</title></rect><rect x="486" y="200" width="6" height="0" stroke="black" stroke-width="1" fill="blue" opacity="1" tooltip="enable"><title>(0.0974547,0)</title></rect><rect x="492" y="200" width="6" height="0" stroke="black" stroke-width="1" fill="blue" opacity="1" tooltip="enable"><title>(0.0986578,0)</title></rect><rect x="498" y="200" width="6" height="0" stroke="black" stroke-width="1" fill="blue" opacity="1" tooltip="enable"><title>(0.099861,0)</title></rect><rect x="504" y="200" width="6" height="0" stroke="black" stroke-width="1" fill="blue" opacity="1" tooltip="enable"><title>(0.101064,0)</title></rect><rect x="510" y="200" width="6" height="0" stroke="black" stroke-width="1" fill="blue" opacity="1" tooltip="enable"><title>(0.102267,0)</title></rect><rect x="516" y="200" width="6" height="0" stroke="black" stroke-width="1" fill="blue" opacity="1" tooltip="enable"><title>(0.10347,0)</title></rect><rect x="522" y="200" width="6" height="0" stroke="black" stroke-width="1" fill="blue" opacity="1" tooltip="enable"><title>(0.104674,0)</title></rect><rect x="528" y="199.422" width="6" height="0.578453" stroke="black" stroke-width="1" fill="blue" opacity="1" tooltip="enable"><title>(0.105877,4)</title></rect><rect x="534" y="200" width="6" height="0" stroke="black" stroke-width="1" fill="blue" opacity="1" tooltip="enable"><title>(0.10708,0)</title></rect><rect x="540" y="200" width="6" height="0" stroke="black" stroke-width="1" fill="blue" opacity="1" tooltip="enable"><title>(0.108283,0)</title></rect><rect x="546" y="200" width="6" height="0" stroke="black" stroke-width="1" fill="blue" opacity="1" tooltip="enable"><title>(0.109486,0)</title></rect><rect x="552" y="200" width="6" height="0" stroke="black" stroke-width="1" fill="blue" opacity="1" tooltip="enable"><title>(0.110689,0)</title></rect><rect x="558" y="200" width="6" height="0" stroke="black" stroke-width="1" fill="blue" opacity="1" tooltip="enable"><title>(0.111892,0)</title></rect><rect x="564" y="200" width="6" height="0" stroke="black" stroke-width="1" fill="blue" opacity="1" tooltip="enable"><title>(0.113096,0)</title></rect><rect x="570" y="200" width="6" height="0" stroke="black" stroke-width="1" fill="blue" opacity="1" tooltip="enable"><title>(0.114299,0)</title></rect><rect x="576" y="200" width="6" height="0" stroke="black" stroke-width="1" fill="blue" opacity="1" tooltip="enable"><title>(0.115502,0)</title></rect><rect x="582" y="200" width="6" height="0" stroke="black" stroke-width="1" fill="blue" opacity="1" tooltip="enable"><title>(0.116705,0)</title></rect><rect x="588" y="200" width="6" height="0" stroke="black" stroke-width="1" fill="blue" opacity="1" tooltip="enable"><title>(0.117908,0)</title></rect><rect x="594" y="199.855" width="6" height="0.144613" stroke="black" stroke-width="1" fill="blue" opacity="1" tooltip="enable"><title>(0.119111,1)</title></rect><text x="30" y="240" font-size="20" fill="black">0</text>
<text x="600" y="240" font-size="20" fill="black">0.120314</text>
<polyline points="0,220,600,220" stroke="black" stroke-width="1" fill="none" opacity="1"/>
<text x="720" y="20" font-size="20" fill="black">1383</text>
<text x="720" y="200" font-size="20" fill="black">0</text>
<polyline points="660,0,660,200" stroke="black" stroke-width="1" fill="none" opacity="1"/>
</svg>